<svg width="1000" height="1000" viewBox="0 0 1000 1000" fill="none" xmlns="http://www.w3.org/2000/svg">
<rect x="769" y="421" width="22" height="577" fill="#3C3C3C" stroke="black" stroke-width="4"/>
<rect x="585" y="455.73" width="391" height="300" fill="white" stroke="black" stroke-width="8"/>
<path d="M930 459H972V501L951.42 480L930 459Z" fill="#004DFF"/>
<path d="M630 752L588 752L588 710L608.58 731L630 752Z" fill="#004DFF"/>
<path d="M972 710L972 752L930 752L951 731.42L972 710Z" fill="#E40303"/>
<path d="M588 501L588 459L630 459L609 479.58L588 501Z" fill="#E40303"/>
<rect x="585" y="455.73" width="20" height="300" fill="black" fill-opacity="0.25"/>
<path d="M669.104 507.5H659.284V503.375H683.612V507.5H673.792V536H669.104V507.5ZM687.561 519.734C687.561 517.188 687.943 514.883 688.709 512.82C689.475 510.758 690.537 509 691.896 507.547C694.756 504.516 698.467 503 703.029 503C707.607 503 711.311 504.516 714.139 507.547C717.014 510.625 718.451 514.688 718.451 519.734C718.451 524.781 717.014 528.828 714.139 531.875C711.326 534.875 707.623 536.375 703.029 536.375C698.451 536.375 694.74 534.875 691.896 531.875C689.006 528.812 687.561 524.766 687.561 519.734ZM692.248 519.711C692.248 523.273 693.115 526.219 694.85 528.547C696.803 531.141 699.529 532.438 703.029 532.438C706.529 532.438 709.248 531.141 711.186 528.547C712.904 526.25 713.764 523.32 713.764 519.758C713.764 516.164 712.904 513.203 711.186 510.875C709.248 508.25 706.529 506.938 703.029 506.938C699.514 506.938 696.787 508.25 694.85 510.875C693.115 513.203 692.248 516.148 692.248 519.711ZM724.087 503.398H732.009C737.353 503.398 741.587 504.719 744.712 507.359C748.087 510.188 749.775 514.312 749.775 519.734C749.775 525.156 748.134 529.273 744.853 532.086C741.79 534.695 737.587 536 732.243 536H724.087V503.398ZM744.97 519.758C744.97 511.367 740.548 507.172 731.704 507.172H728.775V532.25H731.962C738.712 532.25 742.822 529.812 744.29 524.938C744.743 523.391 744.97 521.664 744.97 519.758ZM766.356 503.375H769.567L783.325 536H778.45L775.145 527.797H760.661L757.38 536H752.598L766.356 503.375ZM773.645 524.047L767.926 509.75L762.184 524.047H773.645ZM795.102 521.797L783.453 503.375H788.516L797.609 517.953L806.516 503.375H811.578L799.977 521.75V536H795.102V521.797ZM826.553 503.375H831.428L837.733 526.391L838.647 530.445L839.678 526.391L846.288 503.375H850.788L857.327 526.391L858.382 530.609L859.389 526.391L865.741 503.375H870.428L860.538 536H856.038L849.171 513.031L848.397 510.102L847.647 513.031L840.85 536H836.35L826.553 503.375ZM873.604 503.375H894.674V507.453H878.291V517.062H890.689V521H878.291V531.875H894.674V536H873.604V503.375ZM675.503 563.375H684.76C690.932 563.375 694.909 565.203 696.69 568.859C697.331 570.203 697.651 571.797 697.651 573.641C697.651 575.484 697.323 577.062 696.667 578.375C696.01 579.688 695.128 580.766 694.018 581.609C691.862 583.234 688.979 584.047 685.37 584.047H680.19V596H675.503V563.375ZM684.456 580.297C687.284 580.297 689.378 579.75 690.737 578.656C692.096 577.562 692.776 575.859 692.776 573.547C692.776 570.469 691.346 568.484 688.487 567.594C687.487 567.281 686.276 567.125 684.854 567.125H680.19V580.297H684.456ZM703.006 563.375H712.264C718.436 563.375 722.412 565.203 724.193 568.859C724.834 570.203 725.154 571.719 725.154 573.406C725.154 575.078 724.928 576.492 724.475 577.648C724.037 578.805 723.42 579.797 722.623 580.625C721.092 582.219 718.982 583.266 716.295 583.766C717.404 587.188 719.287 589.547 721.943 590.844C722.818 591.281 723.553 591.516 724.146 591.547C725.146 591.578 725.85 591.547 726.256 591.453V596H725.201C721.686 596 718.693 594.75 716.225 592.25C714.053 590.078 712.592 587.344 711.842 584.047H707.693V596H703.006V563.375ZM711.959 580.297C714.787 580.297 716.881 579.75 718.24 578.656C719.6 577.562 720.279 575.859 720.279 573.547C720.279 570.469 718.85 568.484 715.99 567.594C714.99 567.281 713.779 567.125 712.357 567.125H707.693V580.297H711.959ZM729.079 579.734C729.079 577.188 729.462 574.883 730.228 572.82C730.993 570.758 732.056 569 733.415 567.547C736.275 564.516 739.986 563 744.548 563C749.126 563 752.829 564.516 755.658 567.547C758.533 570.625 759.97 574.688 759.97 579.734C759.97 584.781 758.533 588.828 755.658 591.875C752.845 594.875 749.142 596.375 744.548 596.375C739.97 596.375 736.259 594.875 733.415 591.875C730.525 588.812 729.079 584.766 729.079 579.734ZM733.767 579.711C733.767 583.273 734.634 586.219 736.368 588.547C738.322 591.141 741.048 592.438 744.548 592.438C748.048 592.438 750.767 591.141 752.704 588.547C754.423 586.25 755.283 583.32 755.283 579.758C755.283 576.164 754.423 573.203 752.704 570.875C750.767 568.25 748.048 566.938 744.548 566.938C741.033 566.938 738.306 568.25 736.368 570.875C734.634 573.203 733.767 576.148 733.767 579.711ZM773.598 567.5H763.778V563.375H788.106V567.5H778.286V596H773.598V567.5ZM793.109 563.375H814.18V567.453H797.797V577.062H810.195V581H797.797V591.875H814.18V596H793.109V563.375ZM839.199 593.727C838.089 594.508 836.667 595.125 834.933 595.578C833.199 596.016 831.074 596.234 828.558 596.234C826.058 596.234 823.535 596.086 820.988 595.789V591.242C823.269 591.758 825.566 592.016 827.878 592.016C830.191 592.016 831.925 591.891 833.081 591.641C834.238 591.375 835.167 591.031 835.87 590.609C837.167 589.828 837.816 588.812 837.816 587.562C837.816 586.594 837.566 585.844 837.066 585.312C836.269 584.484 835.12 583.727 833.62 583.039L827.62 580.297C825.558 579.328 824.097 578.43 823.238 577.602C821.394 575.82 820.472 573.758 820.472 571.414C820.472 569.008 821.519 567.062 823.613 565.578C825.91 563.953 829.175 563.141 833.41 563.141C836.144 563.141 838.644 563.25 840.91 563.469V567.945C838.988 567.508 836.839 567.289 834.464 567.289C832.105 567.289 830.386 567.414 829.308 567.664C828.245 567.898 827.41 568.203 826.8 568.578C825.691 569.266 825.136 570.172 825.136 571.297C825.136 572.391 825.488 573.297 826.191 574.016C826.816 574.625 827.956 575.328 829.613 576.125L835.777 579.055C837.824 580.023 839.253 580.938 840.066 581.797C840.894 582.656 841.503 583.523 841.894 584.398C842.285 585.258 842.48 586.297 842.48 587.516C842.48 588.719 842.214 589.859 841.683 590.938C841.152 592 840.324 592.93 839.199 593.727ZM856.108 567.5H846.288V563.375H870.616V567.5H860.796V596H856.108V567.5ZM876.229 591.641H880.752V596C880.752 599.031 880.166 601.266 878.994 602.703C877.682 604.297 875.541 605.094 872.572 605.094V601.227C874.541 601.227 875.697 600.25 876.041 598.297C876.166 597.641 876.229 596.875 876.229 596V591.641ZM655.159 627.5H645.339V623.375H669.667V627.5H659.846V656H655.159V627.5ZM673.615 639.734C673.615 637.188 673.998 634.883 674.764 632.82C675.529 630.758 676.592 629 677.951 627.547C680.811 624.516 684.521 623 689.084 623C693.662 623 697.365 624.516 700.193 627.547C703.068 630.625 704.506 634.688 704.506 639.734C704.506 644.781 703.068 648.828 700.193 651.875C697.381 654.875 693.678 656.375 689.084 656.375C684.506 656.375 680.795 654.875 677.951 651.875C675.061 648.812 673.615 644.766 673.615 639.734ZM678.303 639.711C678.303 643.273 679.17 646.219 680.904 648.547C682.857 651.141 685.584 652.438 689.084 652.438C692.584 652.438 695.303 651.141 697.24 648.547C698.959 646.25 699.818 643.32 699.818 639.758C699.818 636.164 698.959 633.203 697.24 630.875C695.303 628.25 692.584 626.938 689.084 626.938C685.568 626.938 682.842 628.25 680.904 630.875C679.17 633.203 678.303 636.148 678.303 639.711ZM709.931 623.375H712.931L724.556 636.734L736.134 623.375H739.134V656H734.447V631.156L733.064 633.031L724.556 642.945L716.048 633.055L714.618 631.18V656H709.931V623.375ZM744.559 639.734C744.559 637.188 744.942 634.883 745.708 632.82C746.473 630.758 747.536 629 748.895 627.547C751.755 624.516 755.465 623 760.028 623C764.606 623 768.309 624.516 771.137 627.547C774.012 630.625 775.45 634.688 775.45 639.734C775.45 644.781 774.012 648.828 771.137 651.875C768.325 654.875 764.622 656.375 760.028 656.375C755.45 656.375 751.739 654.875 748.895 651.875C746.005 648.812 744.559 644.766 744.559 639.734ZM749.247 639.711C749.247 643.273 750.114 646.219 751.848 648.547C753.801 651.141 756.528 652.438 760.028 652.438C763.528 652.438 766.247 651.141 768.184 648.547C769.903 646.25 770.762 643.32 770.762 639.758C770.762 636.164 769.903 633.203 768.184 630.875C766.247 628.25 763.528 626.938 760.028 626.938C756.512 626.938 753.786 628.25 751.848 630.875C750.114 633.203 749.247 636.148 749.247 639.711ZM781.461 623.375H790.719C796.891 623.375 800.867 625.203 802.648 628.859C803.289 630.203 803.609 631.719 803.609 633.406C803.609 635.078 803.383 636.492 802.93 637.648C802.492 638.805 801.875 639.797 801.078 640.625C799.547 642.219 797.438 643.266 794.75 643.766C795.859 647.188 797.742 649.547 800.398 650.844C801.273 651.281 802.008 651.516 802.602 651.547C803.602 651.578 804.305 651.547 804.711 651.453V656H803.656C800.141 656 797.148 654.75 794.68 652.25C792.508 650.078 791.047 647.344 790.297 644.047H786.148V656H781.461V623.375ZM790.414 640.297C793.242 640.297 795.336 639.75 796.695 638.656C798.055 637.562 798.734 635.859 798.734 633.547C798.734 630.469 797.305 628.484 794.445 627.594C793.445 627.281 792.234 627.125 790.812 627.125H786.148V640.297H790.414ZM808.964 623.375H818.222C824.394 623.375 828.37 625.203 830.152 628.859C830.792 630.203 831.113 631.719 831.113 633.406C831.113 635.078 830.886 636.492 830.433 637.648C829.995 638.805 829.378 639.797 828.581 640.625C827.05 642.219 824.941 643.266 822.253 643.766C823.363 647.188 825.245 649.547 827.902 650.844C828.777 651.281 829.511 651.516 830.105 651.547C831.105 651.578 831.808 651.547 832.214 651.453V656H831.16C827.644 656 824.652 654.75 822.183 652.25C820.011 650.078 818.55 647.344 817.8 644.047H813.652V656H808.964V623.375ZM817.917 640.297C820.745 640.297 822.839 639.75 824.199 638.656C825.558 637.562 826.238 635.859 826.238 633.547C826.238 630.469 824.808 628.484 821.949 627.594C820.949 627.281 819.738 627.125 818.316 627.125H813.652V640.297H817.917ZM835.038 639.734C835.038 637.188 835.421 634.883 836.186 632.82C836.952 630.758 838.014 629 839.374 627.547C842.233 624.516 845.944 623 850.507 623C855.085 623 858.788 624.516 861.616 627.547C864.491 630.625 865.928 634.688 865.928 639.734C865.928 644.781 864.491 648.828 861.616 651.875C858.803 654.875 855.1 656.375 850.507 656.375C845.928 656.375 842.217 654.875 839.374 651.875C836.483 648.812 835.038 644.766 835.038 639.734ZM839.725 639.711C839.725 643.273 840.592 646.219 842.327 648.547C844.28 651.141 847.007 652.438 850.507 652.438C854.007 652.438 856.725 651.141 858.663 648.547C860.382 646.25 861.241 643.32 861.241 639.758C861.241 636.164 860.382 633.203 858.663 630.875C856.725 628.25 854.007 626.938 850.507 626.938C846.991 626.938 844.264 628.25 842.327 630.875C840.592 633.203 839.725 636.148 839.725 639.711ZM868.002 623.375H872.877L879.182 646.391L880.096 650.445L881.127 646.391L887.736 623.375H892.236L898.775 646.391L899.83 650.609L900.838 646.391L907.189 623.375H911.877L901.986 656H897.486L890.619 633.031L889.846 630.102L889.096 633.031L882.299 656H877.799L868.002 623.375ZM675.021 683.375H679.896L686.201 706.391L687.115 710.445L688.146 706.391L694.756 683.375H699.256L705.795 706.391L706.85 710.609L707.857 706.391L714.209 683.375H718.896L709.006 716H704.506L697.639 693.031L696.865 690.102L696.115 693.031L689.318 716H684.818L675.021 683.375ZM722.072 683.375H743.142V687.453H726.759V697.062H739.158V701H726.759V711.875H743.142V716H722.072V683.375ZM760.391 683.375H765.266L775.508 710.188L785.703 683.375H790.578L777.734 716H773.234L760.391 683.375ZM791.574 699.734C791.574 697.188 791.956 694.883 792.722 692.82C793.488 690.758 794.55 689 795.91 687.547C798.769 684.516 802.48 683 807.042 683C811.62 683 815.324 684.516 818.152 687.547C821.027 690.625 822.464 694.688 822.464 699.734C822.464 704.781 821.027 708.828 818.152 711.875C815.339 714.875 811.636 716.375 807.042 716.375C802.464 716.375 798.753 714.875 795.91 711.875C793.019 708.812 791.574 704.766 791.574 699.734ZM796.261 699.711C796.261 703.273 797.128 706.219 798.863 708.547C800.816 711.141 803.542 712.438 807.042 712.438C810.542 712.438 813.261 711.141 815.199 708.547C816.917 706.25 817.777 703.32 817.777 699.758C817.777 696.164 816.917 693.203 815.199 690.875C813.261 688.25 810.542 686.938 807.042 686.938C803.527 686.938 800.8 688.25 798.863 690.875C797.128 693.203 796.261 696.148 796.261 699.711ZM836.092 687.5H826.272V683.375H850.6V687.5H840.78V716H836.092V687.5ZM855.604 683.375H876.674V687.453H860.291V697.062H872.689V701H860.291V711.875H876.674V716H855.604V683.375Z" fill="#3C3C3C"/>
</svg>
