<svg width="240" height="241" viewBox="0 0 240 241" fill="none" xmlns="http://www.w3.org/2000/svg">
<mask id="mask0_937_29312" style="mask-type:alpha" maskUnits="userSpaceOnUse" x="0" y="0" width="240" height="241">
<path d="M240 185.963C240 246.356 151.666 240.434 76.2376 240.434C0.809716 240.434 0 158.521 0 98.1285C0 37.7363 75.3436 0.593262 150.772 0.593262C226.199 0.593262 240 125.571 240 185.963Z" fill="#4E9AE9"/>
</mask>
<g mask="url(#mask0_937_29312)">
<path d="M240 185.963C240 246.356 151.666 240.434 76.2376 240.434C0.809716 240.434 0 158.521 0 98.1285C0 37.7363 75.3436 0.593262 150.772 0.593262C226.199 0.593262 240 125.571 240 185.963Z" fill="#4E9AE9"/>
<path fill-rule="evenodd" clip-rule="evenodd" d="M217.384 248.444L217.384 236.616C217.384 217.261 213.431 198.085 205.739 180.178C198.047 162.27 186.76 145.971 172.501 132.221C158.241 118.47 141.289 107.541 122.602 100.077C103.914 92.6127 83.8707 88.7659 63.6196 88.7659C43.3685 88.7659 23.3252 92.6127 4.63759 100.077C-14.0494 107.541 -31.0015 118.47 -45.2614 132.221C-59.5204 145.971 -70.8074 162.27 -78.4997 180.178C-86.1916 198.085 -90.1444 217.261 -90.1444 236.616L-90.1444 248.444L-113.8 248.444L-113.8 236.616C-113.8 214.032 -109.187 191.681 -100.235 170.841C-91.284 150.003 -78.1761 131.097 -61.6819 115.192C-45.1885 99.2878 -25.6311 86.6936 -4.13704 78.1084C17.3565 69.5235 40.379 65.1099 63.6196 65.1099C86.8602 65.1099 109.883 69.5235 131.376 78.1084C152.87 86.6936 172.428 99.2879 188.921 115.192C205.415 131.097 218.523 150.003 227.474 170.841C236.426 191.681 241.04 214.032 241.04 236.616L241.04 248.444L217.384 248.444Z" fill="#E40303"/>
<path fill-rule="evenodd" clip-rule="evenodd" d="M196.685 248.444L196.685 236.616C196.685 219.564 193.257 202.673 186.589 186.906C179.922 171.138 170.143 156.794 157.798 144.701C145.452 132.608 130.783 123.002 114.621 116.444C98.4585 109.886 81.1277 106.508 63.6199 106.508C46.1121 106.508 28.7812 109.886 12.6189 116.444C-3.54297 123.002 -18.2124 132.608 -30.5579 144.701C-42.9029 156.794 -52.6822 171.138 -59.3496 186.906C-66.0168 202.673 -69.4451 219.564 -69.4451 236.616L-69.4451 248.444L-93.1011 248.444L-93.1011 236.616C-93.1011 216.389 -89.0338 196.366 -81.1379 177.693C-73.2422 159.02 -61.676 142.069 -47.1119 127.803C-32.5483 113.536 -15.272 102.232 3.72456 94.524C22.7207 86.8161 43.0725 82.8519 63.6199 82.8519C84.1673 82.8519 104.519 86.8161 123.515 94.524C142.512 102.232 159.788 113.536 174.352 127.803C188.916 142.069 200.482 159.02 208.378 177.693C216.274 196.366 220.341 216.389 220.341 236.616L220.341 248.444L196.685 248.444Z" fill="#FF8C00"/>
<path fill-rule="evenodd" clip-rule="evenodd" d="M173.068 248.383L173.062 236.555C173.054 222.617 170.233 208.809 164.751 195.918C159.269 183.027 151.231 171.296 141.079 161.403C130.927 151.509 118.86 143.648 105.562 138.282C92.2633 132.917 78.0017 130.156 63.5939 130.164C49.1862 130.172 34.9275 132.948 21.6347 138.329C8.34229 143.709 -3.71513 151.583 -13.8565 161.488C-23.9972 171.392 -32.0231 183.132 -37.4907 196.03C-42.9579 208.927 -45.7639 222.738 -45.7562 236.676L-45.7497 248.504L-69.4057 248.517L-69.4122 236.689C-69.4216 219.562 -65.9729 202.608 -59.2705 186.797C-52.5684 170.987 -42.7483 156.639 -30.3854 144.565C-18.0231 132.491 -3.36001 122.925 12.7593 116.401C28.8782 109.877 46.1465 106.517 63.5809 106.508C81.0152 106.498 98.2872 109.838 114.413 116.345C130.54 122.851 145.213 132.4 157.589 144.461C169.965 156.522 179.801 170.859 186.521 186.662C193.241 202.465 196.708 219.415 196.718 236.542L196.724 248.37L173.068 248.383Z" fill="#FFED00"/>
<path fill-rule="evenodd" clip-rule="evenodd" d="M149.427 248.396L149.42 236.568C149.414 225.471 147.168 214.476 142.803 204.209C138.437 193.942 132.033 184.595 123.941 176.71C115.849 168.824 106.229 162.555 95.6215 158.276C85.0137 153.996 73.636 151.793 62.1404 151.799C50.6448 151.805 39.2695 154.021 28.6666 158.312C18.064 162.604 8.45035 168.883 0.367089 176.778C-7.71554 184.672 -14.1093 194.026 -18.4639 204.299C-22.8182 214.57 -25.0521 225.567 -25.046 236.664L-25.0395 248.492L-48.6954 248.505L-48.702 236.677C-48.7099 222.391 -45.8331 208.251 -40.2437 195.066C-34.6546 181.881 -26.4666 169.919 -16.1618 159.855C-5.85761 149.791 6.36172 141.82 19.7912 136.385C33.2201 130.949 47.6052 128.151 62.1274 128.143C76.6496 128.135 91.0377 130.917 104.473 136.338C117.908 141.759 130.136 149.716 140.451 159.768C150.767 169.821 158.969 181.774 164.572 194.953C170.176 208.131 173.069 222.269 173.076 236.555L173.083 248.383L149.427 248.396Z" fill="#008026"/>
<path fill-rule="evenodd" clip-rule="evenodd" d="M128.719 248.408L128.712 236.58C128.708 228.135 126.999 219.766 123.675 211.949C120.35 204.131 115.472 197.01 109.304 190.999C103.136 184.987 95.7979 180.205 87.7027 176.939C79.6071 173.673 70.9216 171.99 62.1444 171.995C53.3673 172 44.6836 173.692 36.5916 176.967C28.5001 180.242 21.1676 185.033 15.0056 191.051C8.84414 197.069 3.97391 204.196 0.658347 212.017C-2.65695 219.838 -4.35693 228.208 -4.35227 236.653L-4.34574 248.481L-28.0017 248.494L-28.0083 236.666C-28.0147 225.032 -25.6719 213.518 -21.1215 202.784C-16.5714 192.051 -9.90693 182.316 -1.52333 174.128C6.85967 165.94 16.7978 159.458 27.7162 155.039C38.6342 150.62 50.3277 148.346 62.1314 148.339C73.9351 148.333 85.631 150.594 96.5539 155.001C107.477 159.408 117.422 165.879 125.815 174.057C134.207 182.236 140.882 191.964 145.444 202.692C150.007 213.421 152.362 224.933 152.368 236.567L152.375 248.395L128.719 248.408Z" fill="#004DFF"/>
<path fill-rule="evenodd" clip-rule="evenodd" d="M111.909 248.527L111.904 239.434C111.901 232.942 110.6 226.509 108.072 220.499C105.543 214.489 101.832 209.015 97.1405 204.394C92.4481 199.772 86.8663 196.096 80.7085 193.585C74.5503 191.074 67.9434 189.781 61.2668 189.784C54.5901 189.788 47.9846 191.089 41.8292 193.606C35.6741 196.124 30.0965 199.807 25.4092 204.433C20.7223 209.059 17.0177 214.538 14.4956 220.551C11.9738 226.563 10.6807 232.998 10.6842 239.49L10.6893 248.583L-7.30541 248.593L-7.31043 239.5C-7.31537 230.556 -5.53331 221.705 -2.07194 213.453C1.3892 205.202 6.45866 197.718 12.8359 191.423C19.2126 185.129 26.7723 180.146 35.0778 176.749C43.3829 173.352 52.2779 171.604 61.2567 171.599C70.2356 171.594 79.1325 173.332 87.4413 176.72C95.7505 180.108 103.316 185.083 109.699 191.37C116.084 197.657 121.161 205.135 124.632 213.383C128.102 221.631 129.894 230.481 129.899 239.424L129.904 248.517L111.909 248.527Z" fill="#750787"/>
</g>
</svg>
