<svg width="240" height="241" viewBox="0 0 240 241" fill="none" xmlns="http://www.w3.org/2000/svg">
<path d="M240 126.156C240 192.91 159.972 240.593 94.4334 240.593C28.8946 240.593 0 128.843 0 62.0891C0 -4.66486 61.832 0.695925 127.371 0.695925C192.91 0.695925 240 59.4023 240 126.156Z" fill="#4B70C5"/>
<path d="M149.464 149.518C146.491 146.667 176.708 122.328 176.708 99.8387C176.708 77.3495 198.007 99.8388 201.475 102.282C203.951 106.761 199.493 123.864 173.24 144.631C158.659 156.166 152.931 151.554 149.464 149.518Z" fill="#DD933C"/>
<path fill-rule="evenodd" clip-rule="evenodd" d="M200.746 102.899C200.264 102.533 199.586 101.941 198.801 101.25C198.678 101.141 198.551 101.03 198.421 100.915C197.584 100.177 196.61 99.3185 195.542 98.4156C193.068 96.3235 190.14 94.0377 187.349 92.527C185.953 91.7718 184.632 91.2324 183.447 90.9948C182.264 90.7575 181.285 90.8334 180.503 91.221C178.975 91.9775 177.637 94.2545 177.637 99.8385C177.637 105.662 175.684 111.549 172.861 117.108C170.037 122.672 166.312 127.965 162.705 132.612C160.53 135.414 158.348 138.04 156.444 140.332C155.222 141.803 154.114 143.137 153.194 144.293C151.986 145.81 151.095 147.028 150.594 147.935C150.35 148.379 150.235 148.685 150.199 148.874C150.305 148.938 150.412 149.002 150.521 149.068C152.184 150.072 154.156 151.263 157.175 151.235C160.571 151.203 165.451 149.609 172.664 143.903C185.717 133.577 193.303 124.2 197.317 116.901C199.325 113.25 200.429 110.136 200.887 107.697C201.322 105.374 201.151 103.78 200.746 102.899ZM150.186 148.986C150.186 148.986 150.186 148.986 150.186 148.984C150.186 148.986 150.186 148.986 150.186 148.986ZM198.945 117.796C194.786 125.36 187.016 134.918 173.817 145.359C166.448 151.188 161.173 153.055 157.193 153.092C153.619 153.125 151.218 151.666 149.551 150.654C149.355 150.534 149.17 150.422 148.993 150.318L148.899 150.263L148.821 150.187C148.327 149.714 148.278 149.086 148.364 148.581C148.448 148.088 148.679 147.562 148.967 147.038C149.551 145.981 150.532 144.654 151.74 143.137C152.72 141.905 153.847 140.549 155.075 139.072C156.948 136.819 159.056 134.283 161.237 131.473C164.813 126.868 168.457 121.681 171.205 116.267C173.955 110.849 175.779 105.26 175.779 99.8385C175.779 94.1779 177.103 90.8325 179.678 89.557C180.946 88.9286 182.378 88.8861 183.813 89.174C185.246 89.4615 186.749 90.0908 188.233 90.8939C191.2 92.4997 194.247 94.8888 196.742 96.9977C197.826 97.914 198.815 98.7859 199.652 99.524C199.781 99.6379 199.907 99.7487 200.029 99.856C200.961 100.677 201.628 101.254 202.01 101.523L202.184 101.646L202.288 101.833C203.062 103.233 203.207 105.403 202.713 108.039C202.211 110.715 201.024 114.015 198.945 117.796Z" fill="black"/>
<path d="M167.535 140.832C178.432 127.395 182.395 115.993 185.367 107.849L185.367 92.375C177.442 107.442 165.553 131.467 153.17 149.384C157.628 151.827 152.953 152.367 167.535 140.832Z" fill="black" fill-opacity="0.25"/>
<path d="M108.946 158.857C126.544 154.981 147.44 155.246 166.901 189.804C170.784 201.719 157.34 213.303 135.694 210.979C123.806 215.288 138.172 223.681 119.348 228.082C65.3557 240.705 93.3329 162.296 108.946 158.857Z" fill="#DD933C"/>
<path fill-rule="evenodd" clip-rule="evenodd" d="M93.4734 222.547C97.8314 227.738 105.711 230.32 119.049 227.201L119.315 227.984L119.049 227.201C123.686 226.117 126.134 224.817 127.459 223.504C128.749 222.225 129.056 220.854 129.173 219.354C129.201 218.998 129.217 218.642 129.234 218.272L129.238 218.188C129.256 217.792 129.276 217.382 129.313 216.972C129.386 216.151 129.529 215.293 129.885 214.453C130.617 212.725 132.167 211.262 135.292 210.13L135.496 210.055L135.722 210.08C146.352 211.221 154.88 208.937 160.251 204.997C165.592 201.078 167.769 195.58 166.022 190.093C156.378 172.996 146.465 164.526 136.924 160.749C127.354 156.961 117.967 157.816 109.234 159.74C107.568 160.107 105.573 161.534 103.447 163.951C101.348 166.337 99.2198 169.574 97.2523 173.354C93.3164 180.917 90.0763 190.552 88.991 199.669C87.8995 208.838 89.0153 217.237 93.4734 222.547ZM101.945 162.722C104.127 160.242 106.421 158.467 108.658 157.974C117.523 156.021 127.383 155.071 137.526 159.086C147.682 163.106 157.931 172.026 167.732 189.431L167.779 189.515L167.808 189.604C169.893 196.002 167.285 202.215 161.491 206.465C155.74 210.685 146.809 213.028 135.897 211.903C133.225 212.908 132.153 214.082 131.659 215.248C131.396 215.87 131.276 216.538 131.21 217.276C131.177 217.645 131.158 218.022 131.14 218.419L131.136 218.508C131.119 218.873 131.101 219.255 131.071 219.638C130.94 221.325 130.567 223.146 128.885 224.814C127.238 226.446 124.422 227.845 119.648 228.962C105.989 232.155 97.119 229.669 92.0253 223.601C87.0316 217.653 85.994 208.601 87.0993 199.316C88.2109 189.979 91.5181 180.156 95.5318 172.444C97.5392 168.587 99.7362 165.233 101.945 162.722Z" fill="black"/>
<path d="M109.837 160.755C126.405 157.106 86.1678 185.315 104.489 217.85C119.188 229.934 121.116 213.689 135.019 209.825C123.827 213.882 136.428 223.017 118.706 227.16C67.8752 239.044 95.1383 163.993 109.837 160.755Z" fill="black" fill-opacity="0.25"/>
<path fill-rule="evenodd" clip-rule="evenodd" d="M158.992 198.191C159.736 197.95 160.395 197.484 160.917 196.667L160.995 196.547L161.114 196.453C161.24 196.355 161.389 196.138 161.264 195.583C161.138 195.024 160.76 194.281 160.103 193.376C158.797 191.579 156.546 189.358 153.718 187.071C148.055 182.49 140.3 177.818 133.74 175.857C133.211 175.699 132.934 175.22 133.121 174.787C133.307 174.354 133.887 174.131 134.415 174.289C141.36 176.364 149.36 181.217 155.133 185.887C158.024 188.225 160.411 190.561 161.842 192.531C162.554 193.511 163.069 194.454 163.259 195.295C163.439 196.094 163.346 196.938 162.643 197.566C161.933 198.625 160.958 199.354 159.754 199.745C158.527 200.143 157.159 200.159 155.754 199.933C152.975 199.485 149.788 198.043 146.597 196.19C140.183 192.465 133.313 186.813 128.886 182.973C128.499 182.637 128.512 182.109 128.917 181.794C129.322 181.479 129.964 181.495 130.351 181.831C134.77 185.664 141.521 191.209 147.756 194.83C150.89 196.65 153.784 197.918 156.124 198.295C157.279 198.481 158.23 198.439 158.992 198.191Z" fill="black"/>
<path fill-rule="evenodd" clip-rule="evenodd" d="M135.894 205.335C136.712 205.358 137.533 205.132 138.355 204.52C138.663 204.291 138.786 204.047 138.81 203.771C138.836 203.467 138.747 203.055 138.478 202.508C137.933 201.395 136.802 200.011 135.306 198.373C134.675 197.683 133.985 196.953 133.266 196.193C130.668 193.447 127.691 190.301 125.787 187.153C125.521 186.714 125.691 186.201 126.166 186.007C126.641 185.813 127.241 186.011 127.506 186.45C129.291 189.4 132.056 192.325 134.635 195.052C135.379 195.84 136.109 196.611 136.794 197.362C138.282 198.991 139.598 200.564 140.276 201.947C140.619 202.648 140.835 203.369 140.774 204.064C140.711 204.787 140.355 205.408 139.705 205.891L139.705 205.891C138.588 206.722 137.344 207.109 136.014 207.071C134.704 207.034 133.406 206.587 132.165 205.9C129.708 204.54 127.257 202.115 124.984 199.368C120.932 194.474 117.19 188.236 114.758 184.183C114.45 183.669 114.163 183.19 113.899 182.754C113.633 182.315 113.803 181.802 114.278 181.608C114.753 181.414 115.353 181.612 115.618 182.051C115.887 182.494 116.177 182.978 116.486 183.494C118.928 187.562 122.589 193.663 126.537 198.432C128.771 201.13 131.015 203.3 133.097 204.452C134.125 205.022 135.057 205.311 135.894 205.335Z" fill="black"/>
<path fill-rule="evenodd" clip-rule="evenodd" d="M112.229 219.989C114.251 220.451 116.31 220.064 118.047 218.772C118.289 218.592 118.483 218.267 118.543 217.673C118.603 217.073 118.517 216.285 118.29 215.303C117.836 213.338 116.876 210.83 115.762 207.961C115.713 207.834 115.663 207.705 115.613 207.576C113.443 201.989 110.802 195.189 110.802 189.243C110.802 188.766 111.243 188.415 111.787 188.459C112.331 188.504 112.772 188.927 112.772 189.405C112.772 195.05 115.317 201.606 117.525 207.294C117.557 207.376 117.589 207.458 117.621 207.539C118.72 210.372 119.733 213.005 120.22 215.111C120.464 216.166 120.59 217.146 120.506 217.985C120.421 218.828 120.113 219.611 119.397 220.143L119.397 220.143C117.256 221.736 114.59 222.282 111.906 221.669C109.234 221.058 106.677 219.331 104.662 216.599C100.645 211.154 98.6611 201.596 101.905 187.851C102.014 187.392 102.534 187.133 103.067 187.271C103.6 187.41 103.944 187.895 103.836 188.355C100.641 201.893 102.704 210.897 106.284 215.75C108.067 218.168 110.196 219.524 112.229 219.989Z" fill="black"/>
<path d="M109.938 183.934C82.5808 183.934 42.076 148.914 30.1878 80.5036C30.1878 58.0143 73.6646 89.1165 101.022 89.1165C168.388 96.4461 184.239 62.0864 184.239 84.5757C184.239 107.065 134.209 183.934 109.938 183.934Z" fill="#DD933C"/>
<path fill-rule="evenodd" clip-rule="evenodd" d="M100.971 90.0452C93.992 90.0356 86.05 88.0563 78.1264 85.4917C73.3286 83.9388 68.4661 82.1455 63.8053 80.4266C60.774 79.3087 57.8281 78.2222 55.0409 77.2538C47.8703 74.7625 41.7513 73.0539 37.4594 73.289C35.3418 73.4051 33.8018 73.9888 32.7816 75.0579C31.7722 76.1157 31.1296 77.7979 31.117 80.4247C37.042 114.443 50.0665 140.113 64.9634 157.264C79.8959 174.456 96.6271 183.005 109.938 183.005C112.74 183.005 116.01 181.89 119.632 179.784C123.243 177.685 127.132 174.643 131.153 170.893C139.195 163.393 147.683 153.136 155.431 142.153C163.177 131.174 170.163 119.499 175.208 109.18C177.73 104.021 179.761 99.2128 181.16 95.009C182.564 90.7905 183.31 87.2402 183.31 84.5758C183.31 81.7754 183.056 80.0316 182.582 79.0029C182.357 78.5127 182.099 78.2265 181.829 78.0525C181.557 77.8775 181.198 77.7679 180.689 77.7567C179.619 77.7332 178.117 78.1428 175.995 78.9324C174.8 79.3772 173.476 79.9148 171.982 80.5214C170.838 80.9859 169.594 81.4909 168.232 82.0256C155.757 86.9241 134.814 93.7185 100.971 90.0452ZM184.27 78.2265C184.926 79.652 185.168 81.754 185.168 84.5758C185.168 87.5338 184.35 91.3051 182.923 95.595C181.491 99.8995 179.424 104.786 176.877 109.996C171.783 120.415 164.744 132.175 156.949 143.223C149.156 154.269 140.586 164.635 132.421 172.251C128.338 176.058 124.337 179.197 120.566 181.39C116.806 183.575 113.204 184.862 109.938 184.862C95.8913 184.862 78.6916 175.902 63.5605 158.481C48.4055 141.033 35.2422 115.015 29.2726 80.6627L29.2589 80.5838L29.2589 80.5038C29.2589 77.5537 29.9722 75.3114 31.4372 73.7761C32.9015 72.2415 34.9719 71.5654 37.3577 71.4347C42.0726 71.1764 48.5326 73.0265 55.6508 75.4997C58.5136 76.4943 61.4848 77.5905 64.5227 78.7113C69.1422 80.4156 73.9162 82.177 78.6988 83.7249C86.602 86.283 94.3342 88.1881 101.022 88.1881L101.072 88.1881L101.122 88.1935C134.616 91.8378 155.267 85.1214 167.553 80.2971C168.862 79.7831 170.093 79.2837 171.238 78.8187C172.764 78.1996 174.139 77.6416 175.347 77.192C177.451 76.409 179.261 75.8678 180.73 75.9001C181.491 75.9168 182.207 76.0869 182.835 76.4913C183.465 76.8967 183.931 77.4896 184.27 78.2265Z" fill="black"/>
<path d="M109.938 183.934C82.5808 183.934 42.076 148.914 30.1878 80.5038C30.1878 52.8755 73.915 166.486 99.1773 166.486C153.665 173.815 184.239 62.0865 184.239 84.5758C184.239 107.065 134.209 183.934 109.938 183.934Z" fill="black" fill-opacity="0.25"/>
<path d="M109.579 182.774C97.8155 182.774 88.2794 175.664 88.2794 166.893C88.2794 158.122 97.8155 151.012 109.579 151.012C121.342 151.012 130.879 158.122 130.879 166.893C130.879 175.664 121.342 182.774 109.579 182.774Z" fill="#DD933C"/>
<path fill-rule="evenodd" clip-rule="evenodd" d="M124.323 156.088C120.569 153.289 115.358 151.542 109.579 151.542C103.8 151.542 98.5895 153.289 94.8353 156.088C91.0813 158.887 88.8102 162.713 88.8102 166.893C88.8102 171.072 91.0813 174.898 94.8353 177.697C98.5894 180.496 103.8 182.243 109.579 182.243C115.358 182.243 120.569 180.496 124.323 177.697C128.077 174.898 130.348 171.072 130.348 166.893C130.348 162.713 128.077 158.887 124.323 156.088ZM124.958 155.238C128.912 158.186 131.41 162.301 131.41 166.893C131.41 171.484 128.912 175.599 124.958 178.547C121.003 181.496 115.564 183.304 109.579 183.304C103.594 183.304 98.1554 181.496 94.2005 178.547C90.2456 175.599 87.7486 171.484 87.7486 166.893C87.7486 162.301 90.2456 158.186 94.2005 155.238C98.1554 152.289 103.594 150.481 109.579 150.481C115.564 150.481 121.003 152.289 124.958 155.238Z" fill="black"/>
<path fill-rule="evenodd" clip-rule="evenodd" d="M110.528 179.412C110.528 179.998 110.052 180.473 109.466 180.473C104.748 180.473 100.436 179.035 97.2804 176.658C94.124 174.282 92.0746 170.919 92.0746 167.117C92.0746 166.531 92.55 166.056 93.1363 166.056C93.7227 166.056 94.198 166.531 94.198 167.117C94.198 170.105 95.8042 172.89 98.5579 174.963C101.312 177.037 105.165 178.351 109.466 178.351C110.052 178.351 110.528 178.826 110.528 179.412Z" fill="white" fill-opacity="0.25"/>
<path d="M109.466 157.896C106.008 157.896 102.657 158.68 99.9875 160.116C97.318 161.551 95.4958 163.547 94.8328 165.763C94.1699 167.979 94.7075 170.276 96.3535 172.262C97.9996 174.247 100.652 175.798 103.856 176.647L109.466 167.629L109.466 157.896Z" fill="black" fill-opacity="0.25"/>
<path d="M125.43 164.043C113.666 164.043 104.13 156.933 104.13 148.162C104.13 139.391 113.666 132.281 125.43 132.281C137.193 132.281 146.729 139.391 146.729 148.162C146.729 156.933 137.193 164.043 125.43 164.043Z" fill="#DD933C"/>
<path fill-rule="evenodd" clip-rule="evenodd" d="M140.015 137.57C136.311 134.808 131.157 133.077 125.43 133.077C119.703 133.077 114.549 134.808 110.845 137.57C107.141 140.332 104.926 144.085 104.926 148.162C104.926 152.239 107.141 155.992 110.845 158.753C114.549 161.515 119.703 163.247 125.43 163.247C131.157 163.247 136.311 161.515 140.015 158.753C143.719 155.992 145.933 152.239 145.933 148.162C145.933 144.085 143.719 140.332 140.015 137.57ZM140.967 136.294C144.972 139.28 147.526 143.468 147.526 148.162C147.526 152.856 144.972 157.043 140.967 160.029C136.962 163.015 131.466 164.839 125.43 164.839C119.393 164.839 113.898 163.015 109.893 160.029C105.888 157.043 103.334 152.856 103.334 148.162C103.334 143.468 105.888 139.28 109.893 136.294C113.898 133.308 119.393 131.485 125.43 131.485C131.466 131.485 136.962 133.308 140.967 136.294Z" fill="black"/>
<path fill-rule="evenodd" clip-rule="evenodd" d="M126.379 160.681C126.379 161.267 125.903 161.742 125.317 161.742C120.599 161.742 116.287 160.304 113.131 157.927C109.975 155.551 107.925 152.188 107.925 148.386C107.925 147.8 108.401 147.325 108.987 147.325C109.573 147.325 110.049 147.8 110.049 148.386C110.049 151.374 111.655 154.159 114.409 156.232C117.163 158.306 121.016 159.62 125.317 159.62C125.903 159.62 126.379 160.095 126.379 160.681Z" fill="white" fill-opacity="0.25"/>
<path d="M125.317 139.165C121.859 139.165 118.508 139.949 115.838 141.385C113.169 142.82 111.347 144.816 110.684 147.032C110.021 149.248 110.558 151.545 112.204 153.531C113.85 155.516 116.503 157.067 119.707 157.916L125.317 148.898L125.317 139.165Z" fill="black" fill-opacity="0.25"/>
<path d="M98.6815 172.186C86.9181 172.186 77.3819 165.076 77.3819 156.305C77.3819 147.534 86.9181 140.424 98.6816 140.424C110.445 140.424 119.981 147.534 119.981 156.305C119.981 165.076 110.445 172.186 98.6815 172.186Z" fill="#DD933C"/>
<path fill-rule="evenodd" clip-rule="evenodd" d="M113.425 145.501C109.671 142.702 104.46 140.955 98.6816 140.955C92.9029 140.955 87.692 142.702 83.9379 145.501C80.1838 148.3 77.9128 152.125 77.9128 156.305C77.9128 160.485 80.1838 164.31 83.9379 167.109C87.692 169.908 92.9029 171.656 98.6816 171.656C104.46 171.656 109.671 169.908 113.425 167.109C117.179 164.31 119.45 160.485 119.45 156.305C119.45 152.125 117.179 148.3 113.425 145.501ZM114.06 144.65C118.015 147.599 120.512 151.714 120.512 156.305C120.512 160.896 118.015 165.011 114.06 167.96C110.105 170.909 104.666 172.717 98.6816 172.717C92.6968 172.717 87.2579 170.909 83.3031 167.96C79.3482 165.011 76.8511 160.896 76.8511 156.305C76.8511 151.714 79.3482 147.599 83.3031 144.65C87.2579 141.702 92.6968 139.894 98.6816 139.894C104.666 139.894 110.105 141.702 114.06 144.65Z" fill="black"/>
<path fill-rule="evenodd" clip-rule="evenodd" d="M99.6302 168.824C99.6302 169.41 99.1549 169.886 98.5686 169.886C93.8507 169.886 89.5389 168.447 86.3829 166.071C83.2265 163.694 81.1772 160.332 81.1772 156.529C81.1772 155.943 81.6525 155.468 82.2388 155.468C82.8252 155.468 83.3005 155.943 83.3005 156.529C83.3005 159.518 84.9067 162.302 87.6605 164.376C90.4147 166.449 94.2678 167.763 98.5686 167.763C99.1549 167.763 99.6302 168.238 99.6302 168.824Z" fill="white" fill-opacity="0.25"/>
<path d="M98.5686 147.308C95.1103 147.308 91.7595 148.093 89.09 149.528C86.4205 150.963 84.5983 152.96 83.9354 155.176C83.2724 157.392 83.81 159.689 85.4561 161.674C87.1021 163.66 89.7542 165.21 92.9584 166.06L98.5686 157.042L98.5686 147.308Z" fill="black" fill-opacity="0.25"/>
<path d="M119.486 156.713C107.722 156.713 98.1862 149.603 98.1862 140.832C98.1862 132.061 107.722 124.951 119.486 124.951C131.249 124.951 140.786 132.061 140.786 140.832C140.786 149.603 131.249 156.713 119.486 156.713Z" fill="#DD933C"/>
<path fill-rule="evenodd" clip-rule="evenodd" d="M134.071 130.241C130.367 127.479 125.213 125.747 119.486 125.747C113.759 125.747 108.605 127.479 104.901 130.241C101.197 133.002 98.9825 136.755 98.9825 140.832C98.9825 144.909 101.197 148.662 104.901 151.424C108.605 154.185 113.759 155.917 119.486 155.917C125.213 155.917 130.367 154.185 134.071 151.424C137.775 148.662 139.989 144.909 139.989 140.832C139.989 136.755 137.775 133.002 134.071 130.241ZM135.023 128.965C139.028 131.951 141.582 136.138 141.582 140.832C141.582 145.526 139.028 149.713 135.023 152.7C131.018 155.686 125.522 157.509 119.486 157.509C113.45 157.509 107.954 155.686 103.949 152.7C99.9436 149.713 97.39 145.526 97.39 140.832C97.39 136.138 99.9436 131.951 103.949 128.965C107.954 125.979 113.45 124.155 119.486 124.155C125.522 124.155 131.018 125.979 135.023 128.965Z" fill="black"/>
<path fill-rule="evenodd" clip-rule="evenodd" d="M120.435 153.351C120.435 153.937 119.959 154.412 119.373 154.412C114.655 154.412 110.343 152.974 107.187 150.598C104.031 148.221 101.981 144.858 101.981 141.056C101.981 140.47 102.457 139.995 103.043 139.995C103.63 139.995 104.105 140.47 104.105 141.056C104.105 144.045 105.711 146.829 108.465 148.903C111.219 150.976 115.072 152.29 119.373 152.29C119.959 152.29 120.435 152.765 120.435 153.351Z" fill="white" fill-opacity="0.25"/>
<path d="M119.373 131.835C115.915 131.835 112.564 132.62 109.894 134.055C107.225 135.49 105.403 137.487 104.74 139.703C104.077 141.918 104.614 144.216 106.26 146.201C107.906 148.187 110.559 149.737 113.763 150.587L119.373 141.568L119.373 131.835Z" fill="black" fill-opacity="0.25"/>
<path d="M79.8583 156.713C70.2833 156.713 62.5213 150.879 62.5213 143.683C62.5213 136.486 70.2833 130.652 79.8583 130.652C89.4332 130.652 97.1952 136.486 97.1952 143.683C97.1952 150.879 89.4332 156.713 79.8583 156.713Z" fill="#DD933C"/>
<path fill-rule="evenodd" clip-rule="evenodd" d="M91.6388 135.105C88.652 132.86 84.4896 131.448 79.8583 131.448C75.2269 131.448 71.0645 132.86 68.0778 135.105C65.0913 137.35 63.3176 140.39 63.3176 143.683C63.3176 146.975 65.0913 150.016 68.0778 152.261C71.0645 154.506 75.2269 155.918 79.8583 155.918C84.4896 155.918 88.652 154.506 91.6388 152.261C94.6252 150.016 96.3989 146.975 96.3989 143.683C96.3989 140.39 94.6252 137.35 91.6388 135.105ZM92.5959 133.833C95.8842 136.304 97.9915 139.779 97.9915 143.683C97.9915 147.587 95.8842 151.061 92.5959 153.533C89.3079 156.004 84.8018 157.509 79.8583 157.509C74.9147 157.509 70.4086 156.004 67.1207 153.533C63.8324 151.061 61.7251 147.587 61.7251 143.683C61.7251 139.779 63.8324 136.304 67.1207 133.833C70.4086 131.362 74.9147 129.856 79.8583 129.856C84.8018 129.856 89.3079 131.362 92.5959 133.833Z" fill="black"/>
<path fill-rule="evenodd" clip-rule="evenodd" d="M80.828 153.955C80.828 154.541 80.3527 155.016 79.7663 155.016C75.8853 155.016 72.3319 153.824 69.7257 151.845C67.1187 149.867 65.413 147.056 65.413 143.867C65.413 143.281 65.8883 142.806 66.4747 142.806C67.061 142.806 67.5364 143.281 67.5364 143.867C67.5364 146.249 68.8061 148.483 71.0098 150.155C73.2141 151.828 76.3065 152.894 79.7663 152.894C80.3527 152.894 80.828 153.369 80.828 153.955Z" fill="white" fill-opacity="0.25"/>
<path d="M79.7664 136.301C76.9515 136.301 74.2241 136.945 72.0512 138.122C69.8784 139.3 68.3952 140.938 67.8556 142.756C67.316 144.574 67.7535 146.459 69.0933 148.089C70.4332 149.718 72.5919 150.99 75.1999 151.687L79.7664 144.287L79.7664 136.301Z" fill="black" fill-opacity="0.25"/>
<path d="M64.0078 140.424C54.4329 140.424 46.6709 134.59 46.6709 127.394C46.6709 120.197 54.4329 114.363 64.0078 114.363C73.5827 114.363 81.3447 120.197 81.3447 127.394C81.3447 134.59 73.5827 140.424 64.0078 140.424Z" fill="#DD933C"/>
<path fill-rule="evenodd" clip-rule="evenodd" d="M75.7883 118.816C72.8016 116.571 68.6392 115.159 64.0078 115.159C59.3765 115.159 55.214 116.571 52.2273 118.816C49.2409 121.061 47.4671 124.101 47.4671 127.394C47.4671 130.686 49.2409 133.727 52.2273 135.972C55.214 138.217 59.3765 139.628 64.0078 139.628C68.6392 139.628 72.8016 138.217 75.7883 135.972C78.7748 133.727 80.5485 130.686 80.5485 127.394C80.5485 124.101 78.7748 121.061 75.7883 118.816ZM76.7454 117.544C80.0337 120.015 82.141 123.49 82.141 127.394C82.141 131.298 80.0337 134.772 76.7454 137.244C73.4574 139.715 68.9514 141.22 64.0078 141.22C59.0642 141.22 54.5582 139.715 51.2702 137.244C47.9819 134.772 45.8746 131.298 45.8746 127.394C45.8746 123.49 47.9819 120.015 51.2702 117.544C54.5582 115.072 59.0642 113.567 64.0078 113.567C68.9514 113.567 73.4574 115.072 76.7454 117.544Z" fill="black"/>
<path fill-rule="evenodd" clip-rule="evenodd" d="M64.9775 137.666C64.9775 138.252 64.5022 138.727 63.9159 138.727C60.0349 138.727 56.4815 137.534 53.8752 135.556C51.2682 133.578 49.5625 130.767 49.5625 127.578C49.5625 126.992 50.0379 126.517 50.6242 126.517C51.2106 126.517 51.6859 126.992 51.6859 127.578C51.6859 129.96 52.9557 132.194 55.1593 133.866C57.3637 135.539 60.4561 136.605 63.9159 136.605C64.5022 136.605 64.9775 137.08 64.9775 137.666Z" fill="white" fill-opacity="0.25"/>
<path d="M63.9159 120.012C61.101 120.012 58.3736 120.656 56.2008 121.833C54.0279 123.011 52.5447 124.649 52.0051 126.467C51.4655 128.285 51.9031 130.17 53.2429 131.799C54.5827 133.429 56.7414 134.701 59.3494 135.398L63.9159 127.998L63.9159 120.012Z" fill="black" fill-opacity="0.25"/>
<path d="M92.7376 146.126C80.427 146.126 70.4473 138.833 70.4473 129.837C70.4473 120.842 80.427 113.549 92.7376 113.549C105.048 113.549 115.028 120.842 115.028 129.838C115.028 138.833 105.048 146.126 92.7376 146.126Z" fill="#DD933C"/>
<path fill-rule="evenodd" clip-rule="evenodd" d="M108.029 118.963C104.146 116.125 98.742 114.345 92.7376 114.345C86.7333 114.345 81.3294 116.125 77.4459 118.963C73.5618 121.801 71.2436 125.655 71.2436 129.837C71.2436 134.02 73.5618 137.874 77.4459 140.712C81.3294 143.55 86.7333 145.33 92.7376 145.33C98.742 145.33 104.146 143.55 108.029 140.712C111.913 137.874 114.232 134.02 114.232 129.837C114.232 125.655 111.913 121.801 108.029 118.963ZM108.969 117.678C113.153 120.734 115.824 125.024 115.824 129.837C115.824 134.651 113.153 138.941 108.969 141.997C104.785 145.055 99.0439 146.922 92.7376 146.922C86.4314 146.922 80.6901 145.055 76.5061 141.997C72.3226 138.941 69.651 134.651 69.651 129.837C69.651 125.024 72.3226 120.734 76.5061 117.677C80.6901 114.62 86.4314 112.753 92.7376 112.753C99.0439 112.753 104.785 114.62 108.969 117.678Z" fill="black"/>
<path fill-rule="evenodd" clip-rule="evenodd" d="M93.681 142.678C93.681 143.264 93.2057 143.739 92.6194 143.739C87.6967 143.739 83.1979 142.268 79.9049 139.838C76.6121 137.408 74.4684 133.966 74.4684 130.068C74.4684 129.481 74.9438 129.006 75.5301 129.006C76.1165 129.006 76.5918 129.481 76.5918 130.068C76.5918 133.134 78.2736 135.996 81.166 138.131C84.058 140.265 88.1039 141.617 92.6194 141.617C93.2057 141.617 93.681 142.092 93.681 142.678Z" fill="white" fill-opacity="0.25"/>
<path d="M92.6194 120.61C89.0002 120.61 85.4936 121.415 82.6999 122.887C79.9063 124.359 77.9993 126.407 77.3055 128.679C76.6118 130.952 77.1743 133.308 78.8969 135.345C80.6196 137.381 83.3951 138.971 86.7482 139.842L92.6194 130.593L92.6194 120.61Z" fill="black" fill-opacity="0.25"/>
<path d="M75.8961 131.466C65.2269 131.466 56.5778 125.085 56.5778 117.214C56.5778 109.343 65.2269 102.962 75.8961 102.962C86.5653 102.962 95.2144 109.343 95.2144 117.214C95.2144 125.085 86.5653 131.466 75.8961 131.466Z" fill="#DD933C"/>
<path fill-rule="evenodd" clip-rule="evenodd" d="M89.0833 107.777C85.7378 105.308 81.078 103.758 75.8961 103.758C70.7142 103.758 66.0544 105.308 62.7088 107.777C59.3631 110.245 57.374 113.591 57.374 117.214C57.374 120.837 59.3631 124.183 62.7088 126.652C66.0544 129.12 70.7142 130.67 75.8961 130.67C81.078 130.67 85.7378 129.12 89.0833 126.652C92.4291 124.183 94.4181 120.837 94.4181 117.214C94.4181 113.591 92.4291 110.245 89.0833 107.777ZM90.029 106.496C93.6751 109.186 96.0106 112.966 96.0106 117.214C96.0106 121.462 93.6751 125.242 90.029 127.932C86.3827 130.622 81.3833 132.262 75.8961 132.262C70.4088 132.262 65.4094 130.622 61.7631 127.932C58.1171 125.242 55.7815 121.462 55.7815 117.214C55.7815 112.966 58.1171 109.186 61.7631 106.496C65.4094 103.806 70.4088 102.166 75.8961 102.166C81.3834 102.166 86.3827 103.806 90.029 106.496Z" fill="black"/>
<path fill-rule="evenodd" clip-rule="evenodd" d="M76.059 128.449C76.059 128.596 75.9401 128.714 75.7935 128.714C71.6522 128.714 67.8926 127.464 65.1622 125.43C62.4318 123.396 60.7174 120.565 60.7174 117.415C60.7174 117.269 60.8363 117.15 60.9829 117.15C61.1294 117.15 61.2483 117.269 61.2483 117.415C61.2483 120.359 62.8494 123.045 65.4794 125.005C68.1095 126.964 71.7552 128.184 75.7935 128.184C75.9401 128.184 76.059 128.303 76.059 128.449Z" fill="white" fill-opacity="0.25"/>
<path d="M75.7936 109.14C72.657 109.14 69.6179 109.844 67.1967 111.132C64.7755 112.42 63.1228 114.212 62.5216 116.2C61.9203 118.189 62.4079 120.251 63.9008 122.033C65.3937 123.814 67.7992 125.206 70.7052 125.968L75.7936 117.875L75.7936 109.14Z" fill="black" fill-opacity="0.25"/>
<path d="M145.243 142.868C133.48 142.868 123.944 135.758 123.944 126.987C123.944 118.216 133.48 111.106 145.243 111.106C157.007 111.106 166.543 118.216 166.543 126.987C166.543 135.758 157.007 142.868 145.243 142.868Z" fill="#DD933C"/>
<path fill-rule="evenodd" clip-rule="evenodd" d="M159.828 116.395C156.124 113.634 150.97 111.902 145.243 111.902C139.516 111.902 134.362 113.634 130.658 116.395C126.954 119.157 124.74 122.91 124.74 126.987C124.74 131.064 126.954 134.817 130.658 137.579C134.362 140.34 139.516 142.072 145.243 142.072C150.97 142.072 156.124 140.34 159.828 137.579C163.532 134.817 165.747 131.064 165.747 126.987C165.747 122.91 163.532 119.157 159.828 116.395ZM160.78 115.119C164.786 118.106 167.339 122.293 167.339 126.987C167.339 131.681 164.786 135.868 160.78 138.854C156.775 141.841 151.28 143.664 145.243 143.664C139.207 143.664 133.711 141.841 129.706 138.854C125.701 135.868 123.147 131.681 123.147 126.987C123.147 122.293 125.701 118.106 129.706 115.119C133.711 112.133 139.207 110.31 145.243 110.31C151.28 110.31 156.775 112.133 160.78 115.119Z" fill="black"/>
<path fill-rule="evenodd" clip-rule="evenodd" d="M146.192 139.506C146.192 140.092 145.717 140.567 145.13 140.567C140.412 140.567 136.101 139.129 132.945 136.753C129.788 134.376 127.739 131.013 127.739 127.211C127.739 126.625 128.214 126.15 128.8 126.15C129.387 126.15 129.862 126.625 129.862 127.211C129.862 130.199 131.468 132.984 134.222 135.057C136.976 137.131 140.829 138.445 145.13 138.445C145.717 138.445 146.192 138.92 146.192 139.506Z" fill="white" fill-opacity="0.25"/>
<path d="M145.13 117.99C141.672 117.99 138.321 118.775 135.652 120.21C132.982 121.645 131.16 123.642 130.497 125.857C129.834 128.073 130.372 130.371 132.018 132.356C133.664 134.342 136.316 135.892 139.52 136.741L145.13 127.723L145.13 117.99Z" fill="black" fill-opacity="0.25"/>
<path d="M114.532 132.28C103.863 132.28 95.214 126.993 95.214 120.472C95.214 113.95 103.863 108.663 114.532 108.663C125.201 108.663 133.851 113.95 133.851 120.472C133.851 126.993 125.201 132.28 114.532 132.28Z" fill="#DD933C"/>
<path fill-rule="evenodd" clip-rule="evenodd" d="M127.777 112.8C124.425 110.752 119.745 109.458 114.532 109.458C109.32 109.458 104.639 110.752 101.288 112.8C97.9225 114.857 96.0103 117.592 96.0103 120.472C96.0103 123.351 97.9225 126.086 101.288 128.143C104.639 130.191 109.32 131.485 114.532 131.485C119.745 131.485 124.425 130.191 127.777 128.143C131.142 126.086 133.054 123.351 133.054 120.472C133.054 117.592 131.142 114.857 127.777 112.8ZM128.608 111.442C132.235 113.659 134.647 116.829 134.647 120.472C134.647 124.114 132.235 127.284 128.608 129.501C124.968 131.726 119.989 133.076 114.532 133.076C109.076 133.076 104.097 131.726 100.457 129.501C96.8301 127.284 94.4178 124.114 94.4178 120.472C94.4178 116.829 96.8301 113.659 100.457 111.442C104.097 109.217 109.076 107.867 114.532 107.867C119.989 107.867 124.968 109.217 128.608 111.442Z" fill="black"/>
<path fill-rule="evenodd" clip-rule="evenodd" d="M115.491 129.781C115.491 130.367 115.016 130.842 114.43 130.842C110.175 130.842 106.273 129.78 103.399 128.006C100.543 126.243 98.5574 123.667 98.5574 120.638C98.5574 120.052 99.0327 119.577 99.6191 119.577C100.205 119.577 100.681 120.052 100.681 120.638C100.681 122.659 102.011 124.655 104.515 126.2C107.002 127.735 110.505 128.72 114.43 128.72C115.016 128.72 115.491 129.195 115.491 129.781Z" fill="white" fill-opacity="0.25"/>
<path d="M114.43 113.781C111.293 113.781 108.254 114.365 105.833 115.432C103.412 116.499 101.759 117.984 101.158 119.632C100.557 121.279 101.044 122.987 102.537 124.464C104.03 125.94 106.435 127.093 109.341 127.725L114.43 121.019L114.43 113.781Z" fill="black" fill-opacity="0.25"/>
<path d="M157.627 123.323C146.137 123.323 136.823 116.759 136.823 108.663C136.823 100.567 146.137 94.0039 157.627 94.0039C169.117 94.0039 178.431 100.567 178.431 108.663C178.431 116.759 169.117 123.323 157.627 123.323Z" fill="#DD933C"/>
<path fill-rule="evenodd" clip-rule="evenodd" d="M171.879 98.948C168.264 96.4006 163.227 94.7998 157.627 94.7998C152.027 94.7998 146.99 96.4006 143.375 98.948C139.757 101.497 137.619 104.944 137.619 108.663C137.619 112.383 139.757 115.83 143.375 118.378C146.99 120.926 152.027 122.527 157.627 122.527C163.227 122.527 168.264 120.926 171.879 118.378C175.497 115.83 177.635 112.383 177.635 108.663C177.635 104.944 175.497 101.497 171.879 98.948ZM172.797 97.647C176.709 100.404 179.228 104.287 179.228 108.663C179.228 113.04 176.709 116.923 172.797 119.68C168.882 122.438 163.516 124.119 157.627 124.119C151.737 124.119 146.372 122.438 142.457 119.68C138.545 116.923 136.026 113.04 136.026 108.663C136.026 104.287 138.545 100.404 142.457 97.647C146.372 94.8888 151.737 93.208 157.627 93.208C163.516 93.208 168.882 94.8888 172.797 97.647Z" fill="black"/>
<path fill-rule="evenodd" clip-rule="evenodd" d="M158.578 120.219C158.578 120.806 158.103 121.281 157.517 121.281C152.917 121.281 148.709 119.956 145.623 117.76C142.539 115.566 140.505 112.438 140.505 108.87C140.505 108.284 140.98 107.809 141.567 107.809C142.153 107.809 142.628 108.284 142.628 108.87C142.628 111.571 144.165 114.118 146.854 116.031C149.541 117.943 153.307 119.158 157.517 119.158C158.103 119.158 158.578 119.633 158.578 120.219Z" fill="white" fill-opacity="0.25"/>
<path d="M157.517 100.358C154.139 100.358 150.866 101.083 148.258 102.408C145.651 103.733 143.871 105.575 143.224 107.621C142.576 109.666 143.101 111.787 144.709 113.62C146.317 115.452 148.907 116.883 152.037 117.668L157.517 109.343L157.517 100.358Z" fill="black" fill-opacity="0.25"/>
<path d="M168.387 102.148C160.18 102.148 153.527 96.4964 153.527 89.5247C153.527 82.553 160.18 76.9014 168.387 76.9014C176.594 76.9014 183.247 82.553 183.247 89.5247C183.247 96.4964 176.594 102.148 168.387 102.148Z" fill="#DD933C"/>
<path fill-rule="evenodd" clip-rule="evenodd" d="M182.451 89.5247C182.451 83.1091 176.28 77.6973 168.387 77.6973C160.493 77.6973 154.323 83.1091 154.323 89.5247C154.323 95.9403 160.493 101.352 168.387 101.352C176.28 101.352 182.451 95.9403 182.451 89.5247ZM168.387 76.1055C176.907 76.1055 184.043 81.997 184.043 89.5247C184.043 97.0524 176.907 102.944 168.387 102.944C159.866 102.944 152.73 97.0524 152.73 89.5247C152.73 81.997 159.866 76.1055 168.387 76.1055Z" fill="black"/>
<path fill-rule="evenodd" clip-rule="evenodd" d="M169.37 99.4757C169.37 100.062 168.894 100.537 168.308 100.537C161.588 100.537 155.853 95.8328 155.853 89.7028C155.853 89.1167 156.329 88.6416 156.915 88.6416C157.501 88.6416 157.977 89.1167 157.977 89.7028C157.977 94.3677 162.444 98.4145 168.308 98.4145C168.894 98.4145 169.37 98.8896 169.37 99.4757Z" fill="white" fill-opacity="0.25"/>
<path d="M168.308 82.373C165.895 82.373 163.557 82.9969 161.695 84.1377C159.832 85.2786 158.561 86.8655 158.099 88.6268C157.636 90.3881 158.011 92.2142 159.16 93.7925C160.308 95.3707 162.158 96.603 164.394 97.2782L168.308 90.1099L168.308 82.373Z" fill="black" fill-opacity="0.25"/>
<path d="M135.832 121.694C124.342 121.694 115.028 116.407 115.028 109.885C115.028 103.363 124.342 98.0757 135.832 98.0757C147.322 98.0757 156.636 103.363 156.636 109.885C156.636 116.407 147.322 121.694 135.832 121.694Z" fill="#DD933C"/>
<path fill-rule="evenodd" clip-rule="evenodd" d="M150.15 102.227C146.525 100.169 141.465 98.8716 135.832 98.8716C130.199 98.8716 125.139 100.169 121.514 102.227C117.867 104.297 115.824 107.035 115.824 109.885C115.824 112.734 117.867 115.472 121.514 117.543C125.139 119.6 130.199 120.898 135.832 120.898C141.465 120.898 146.525 119.6 150.15 117.543C153.798 115.472 155.84 112.734 155.84 109.885C155.84 107.035 153.798 104.297 150.15 102.227ZM150.936 100.842C154.818 103.046 157.433 106.212 157.433 109.885C157.433 113.557 154.818 116.723 150.936 118.927C147.031 121.144 141.689 122.489 135.832 122.489C129.975 122.489 124.633 121.144 120.728 118.927C116.846 116.723 114.231 113.557 114.231 109.885C114.231 106.212 116.846 103.046 120.728 100.842C124.633 98.6256 129.975 97.2798 135.832 97.2798C141.689 97.2798 147.031 98.6256 150.936 100.842Z" fill="black"/>
<path fill-rule="evenodd" clip-rule="evenodd" d="M136.783 119.194C136.783 119.78 136.308 120.255 135.722 120.255C131.166 120.255 126.99 119.199 123.915 117.437C120.87 115.691 118.71 113.119 118.71 110.051C118.71 109.465 119.185 108.99 119.772 108.99C120.358 108.99 120.833 109.465 120.833 110.051C120.833 112.033 122.244 114.032 124.971 115.596C127.67 117.142 131.468 118.133 135.722 118.133C136.308 118.133 136.783 118.608 136.783 119.194Z" fill="white" fill-opacity="0.25"/>
<path d="M135.722 103.194C132.344 103.194 129.071 103.778 126.464 104.845C123.856 105.912 122.076 107.397 121.429 109.045C120.781 110.692 121.306 112.401 122.914 113.877C124.522 115.353 127.112 116.506 130.242 117.138L135.722 110.432L135.722 103.194Z" fill="black" fill-opacity="0.25"/>
<path d="M146.234 108.663C136.112 108.663 127.907 103.012 127.907 96.0398C127.907 89.0682 136.112 83.4165 146.234 83.4165C156.356 83.4165 164.562 89.0682 164.562 96.0398C164.562 103.012 156.356 108.663 146.234 108.663Z" fill="#DD933C"/>
<path fill-rule="evenodd" clip-rule="evenodd" d="M158.893 87.5506C155.675 85.3346 151.202 83.9469 146.234 83.9469C141.267 83.9469 136.793 85.3346 133.576 87.5505C130.356 89.7681 128.438 92.7783 128.438 96.0397C128.438 99.301 130.356 102.311 133.576 104.529C136.793 106.745 141.267 108.132 146.234 108.132C151.202 108.132 155.675 106.745 158.893 104.529C162.112 102.311 164.031 99.3011 164.031 96.0397C164.031 92.7783 162.112 89.7681 158.893 87.5506ZM159.495 86.6767C162.909 89.0279 165.093 92.3294 165.093 96.0397C165.093 99.75 162.909 103.051 159.495 105.403C156.079 107.755 151.389 109.194 146.234 109.194C141.08 109.194 136.389 107.755 132.974 105.403C129.56 103.051 127.376 99.75 127.376 96.0397C127.376 92.3294 129.56 89.0279 132.974 86.6767C136.389 84.3239 141.08 82.8857 146.234 82.8857C151.389 82.8857 156.079 84.3239 159.495 86.6767Z" fill="black"/>
<path fill-rule="evenodd" clip-rule="evenodd" d="M147.199 105.991C147.199 106.577 146.723 107.052 146.137 107.052C142.067 107.052 138.337 105.906 135.595 104C132.857 102.095 131.024 99.3609 131.024 96.2179C131.024 95.6319 131.5 95.1567 132.086 95.1567C132.672 95.1567 133.148 95.6319 133.148 96.2179C133.148 98.4724 134.46 100.625 136.808 102.257C139.152 103.888 142.447 104.93 146.137 104.93C146.723 104.93 147.199 105.405 147.199 105.991Z" fill="white" fill-opacity="0.25"/>
<path d="M146.137 88.8882C143.161 88.8882 140.278 89.512 137.981 90.6529C135.684 91.7937 134.116 93.3807 133.546 95.142C132.975 96.9032 133.438 98.7293 134.854 100.308C136.271 101.886 138.553 103.118 141.31 103.793L146.137 96.6251L146.137 88.8882Z" fill="black" fill-opacity="0.25"/>
<path d="M95.7097 120.065C85.0405 120.065 76.3914 114.778 76.3914 108.256C76.3914 101.734 85.0405 96.4468 95.7097 96.4468C106.379 96.4468 115.028 101.734 115.028 108.256C115.028 114.778 106.379 120.065 95.7097 120.065Z" fill="#DD933C"/>
<path fill-rule="evenodd" clip-rule="evenodd" d="M108.954 100.585C105.603 98.5358 100.922 97.2427 95.7097 97.2427C90.4973 97.2427 85.8166 98.5358 82.465 100.585C79.0999 102.642 77.1876 105.377 77.1876 108.256C77.1876 111.135 79.0999 113.87 82.465 115.927C85.8166 117.976 90.4973 119.269 95.7097 119.269C100.922 119.269 105.603 117.976 108.954 115.927C112.319 113.87 114.232 111.135 114.232 108.256C114.232 105.377 112.319 102.642 108.954 100.585ZM109.785 99.2265C113.412 101.443 115.824 104.613 115.824 108.256C115.824 111.899 113.412 115.068 109.785 117.285C106.145 119.51 101.166 120.861 95.7097 120.861C90.2529 120.861 85.2744 119.51 81.6342 117.285C78.0074 115.068 75.5951 111.899 75.5951 108.256C75.5951 104.613 78.0074 101.443 81.6342 99.2265C85.2744 97.0013 90.2529 95.6509 95.7097 95.6509C101.166 95.6509 106.145 97.0013 109.785 99.2265Z" fill="black"/>
<path fill-rule="evenodd" clip-rule="evenodd" d="M96.6688 117.565C96.6688 118.151 96.1935 118.626 95.6071 118.626C91.3525 118.626 87.4499 117.564 84.5766 115.79C81.7199 114.027 79.7348 111.451 79.7348 108.423C79.7348 107.836 80.2101 107.361 80.7965 107.361C81.3828 107.361 81.8581 107.836 81.8581 108.423C81.8581 110.443 83.1885 112.439 85.6923 113.984C88.1794 115.52 91.6821 116.504 95.6071 116.504C96.1935 116.504 96.6688 116.979 96.6688 117.565Z" fill="white" fill-opacity="0.25"/>
<path d="M95.6072 101.565C92.4706 101.565 89.4315 102.149 87.0103 103.216C84.5891 104.284 82.9364 105.768 82.3352 107.416C81.7339 109.063 82.2215 110.772 83.7144 112.248C85.2073 113.725 87.6128 114.877 90.5188 115.509L95.6072 108.803L95.6072 101.565Z" fill="black" fill-opacity="0.25"/>
<path d="M112.056 111.106C102.754 111.106 95.2142 105.819 95.2142 99.2972C95.2142 92.7753 102.754 87.4883 112.056 87.4883C121.357 87.4883 128.897 92.7753 128.897 99.2972C128.897 105.819 121.357 111.106 112.056 111.106Z" fill="#DD933C"/>
<path fill-rule="evenodd" clip-rule="evenodd" d="M123.507 91.5986C120.609 89.5664 116.563 88.2842 112.056 88.2842C107.549 88.2842 103.503 89.5664 100.604 91.5986C97.7035 93.6325 96.0104 96.3665 96.0104 99.2972C96.0104 102.228 97.7035 104.962 100.604 106.996C103.503 109.028 107.549 110.31 112.056 110.31C116.563 110.31 120.609 109.028 123.507 106.996C126.408 104.962 128.101 102.228 128.101 99.2972C128.101 96.3665 126.408 93.6325 123.507 91.5986ZM124.422 90.2955C127.617 92.5355 129.694 95.706 129.694 99.2972C129.694 102.888 127.617 106.059 124.422 108.299C121.225 110.541 116.85 111.902 112.056 111.902C107.261 111.902 102.887 110.541 99.6897 108.299C96.4949 106.059 94.4179 102.888 94.4179 99.2972C94.4179 95.706 96.495 92.5355 99.6897 90.2955C102.887 88.0537 107.261 86.6924 112.056 86.6924C116.85 86.6924 121.225 88.0537 124.422 90.2955Z" fill="black"/>
<path fill-rule="evenodd" clip-rule="evenodd" d="M113.028 108.606C113.028 109.193 112.553 109.668 111.966 109.668C108.207 109.668 104.759 108.59 102.223 106.795C99.6891 105.001 97.9928 102.424 97.9928 99.464C97.9928 98.8779 98.4682 98.4028 99.0545 98.4028C99.6409 98.4028 100.116 98.8779 100.116 99.464C100.116 101.553 101.31 103.548 103.45 105.063C105.587 106.576 108.595 107.545 111.966 107.545C112.553 107.545 113.028 108.02 113.028 108.606Z" fill="white" fill-opacity="0.25"/>
<path d="M111.966 92.6069C109.232 92.6069 106.583 93.1905 104.472 94.2578C102.361 95.325 100.92 96.8096 100.396 98.4572C99.8718 100.105 100.297 101.813 101.598 103.29C102.9 104.766 104.997 105.919 107.53 106.55L111.966 99.8447L111.966 92.6069Z" fill="black" fill-opacity="0.25"/>
<path d="M79.3634 108.663C70.062 108.663 62.5218 103.376 62.5218 96.8539C62.5218 90.332 70.062 85.0449 79.3634 85.0449C88.6647 85.0449 96.205 90.332 96.205 96.8539C96.205 103.376 88.6647 108.663 79.3634 108.663Z" fill="#DD933C"/>
<path fill-rule="evenodd" clip-rule="evenodd" d="M90.8149 89.1552C87.9166 87.123 83.8704 85.8408 79.3634 85.8408C74.8564 85.8408 70.8102 87.123 67.9119 89.1552C65.0111 91.1892 63.3181 93.9231 63.3181 96.8539C63.3181 99.7846 65.0111 102.519 67.9119 104.552C70.8102 106.585 74.8564 107.867 79.3634 107.867C83.8704 107.867 87.9166 106.585 90.8149 104.552C93.7156 102.519 95.4087 99.7846 95.4087 96.8539C95.4087 93.9231 93.7156 91.1892 90.8149 89.1552ZM91.7295 87.8521C94.9242 90.0922 97.0012 93.2627 97.0012 96.8539C97.0012 100.445 94.9242 103.616 91.7295 105.856C88.5323 108.097 84.1578 109.459 79.3634 109.459C74.569 109.459 70.1944 108.097 66.9973 105.856C63.8026 103.616 61.7255 100.445 61.7255 96.8539C61.7255 93.2627 63.8026 90.0922 66.9973 87.8521C70.1944 85.6103 74.569 84.249 79.3634 84.249C84.1578 84.249 88.5323 85.6103 91.7295 87.8521Z" fill="black"/>
<path fill-rule="evenodd" clip-rule="evenodd" d="M80.3357 106.163C80.3357 106.749 79.8604 107.224 79.274 107.224C75.5147 107.224 72.0664 106.147 69.5302 104.351C66.9967 102.557 65.3005 99.9809 65.3005 97.0207C65.3005 96.4346 65.7758 95.9595 66.3621 95.9595C66.9485 95.9595 67.4238 96.4346 67.4238 97.0207C67.4238 99.1097 68.618 101.104 70.7576 102.619C72.8947 104.133 75.9023 105.102 79.274 105.102C79.8604 105.102 80.3357 105.577 80.3357 106.163Z" fill="white" fill-opacity="0.25"/>
<path d="M79.274 90.1636C76.5396 90.1636 73.8901 90.7472 71.7794 91.8144C69.6686 92.8817 68.2278 94.3662 67.7036 96.0139C67.1794 97.6615 67.6044 99.3698 68.906 100.846C70.2075 102.323 72.3046 103.475 74.8381 104.107L79.274 97.4013L79.274 90.1636Z" fill="black" fill-opacity="0.25"/>
<path d="M184.852 23.243C184.852 31.2284 145.759 49.7966 108.777 49.7966C71.7959 49.7966 30.0112 34.9368 30.0112 26.9514C31.3416 18.2761 74.7217 34.1033 111.703 34.1033C157.971 34.1033 184.852 15.2576 184.852 23.243Z" fill="#371502"/>
<path d="M183.085 37.075L183.069 36.9961C130.068 76.0877 80.5336 51.6554 31.9902 36.9961C28.0274 47.9906 26.7205 56.9491 29.1972 69.5724C121.331 115.587 173.657 83.4174 185.05 77.3093C187.817 60.4152 185.065 46.8422 183.085 37.075Z" fill="#DD933C"/>
<path fill-rule="evenodd" clip-rule="evenodd" d="M182.446 38.5991C136.226 71.9106 92.5114 57.6127 50.2782 43.7992C44.3467 41.8591 38.4443 39.9286 32.5684 38.1409C28.9306 48.4974 27.761 57.0657 30.0222 68.9454C75.744 91.694 111.541 95.086 137.293 92.0637C161.301 89.2462 176.638 80.8502 183.254 77.2289C183.594 77.0425 183.912 76.8687 184.206 76.709C186.703 60.9536 184.368 48.1415 182.446 38.5991ZM183.996 36.8899L184 36.911C185.982 46.6866 188.761 60.3966 185.967 77.4586L185.893 77.9104L185.489 78.1269C185.088 78.3419 184.636 78.5896 184.132 78.8653C177.477 82.5087 161.878 91.0483 137.51 93.9082C111.294 96.9849 74.9976 93.4838 28.7819 70.4023L28.3734 70.1983L28.2855 69.7504C25.7712 56.9353 27.1064 47.8052 31.1161 36.6806L31.4149 35.8516L32.2588 36.1065C38.4823 37.9859 44.7093 40.0192 50.9465 42.0558C93.574 55.9752 136.685 70.0523 182.518 36.2482L183.69 35.3833L183.996 36.8899Z" fill="black"/>
<path d="M181.44 73.8215C181.44 57.1261 180.561 50.5263 179.24 39.9341C162.991 52.2397 170.459 48.9821 156.403 53.4613C154.82 64.7964 167.823 73.8215 156.403 84.816C167.384 84.816 180.119 77.3523 181.44 73.8215Z" fill="black" fill-opacity="0.25"/>
<path d="M29.8296 71.6295C29.8296 54.9674 30.4866 48.3807 31.4743 37.8096C43.6991 45.5465 38.0407 43.9266 48.551 48.3969C49.7342 59.7094 32.8016 61.8346 48.551 82.6021C40.3398 82.6021 30.8173 75.1532 29.8296 71.6295Z" fill="white" fill-opacity="0.25"/>
<path fill-rule="evenodd" clip-rule="evenodd" d="M186.543 22.5561C190.225 24.5019 191.291 28.533 188.924 31.5598C180.346 42.5292 162.053 55.2166 134.696 59.5582C107.175 63.9258 71.2661 59.7432 27.582 38.0957C23.8333 36.238 22.6263 32.2339 24.886 29.1522C27.1457 26.0706 32.0165 25.0783 35.7652 26.9359C76.8834 47.3119 108.836 50.3912 131.691 46.7639C154.71 43.1108 169.308 32.5468 175.59 24.5134C177.957 21.4866 182.861 20.6103 186.543 22.5561Z" fill="#DD933C"/>
<path fill-rule="evenodd" clip-rule="evenodd" d="M190.9 26.4154C191.407 28.3319 191.014 30.3946 189.656 32.1318C180.916 43.3077 162.402 56.1015 134.842 60.4755C107.098 64.8784 70.9945 60.6453 27.1693 38.9278C25.0919 37.8984 23.6616 36.2428 23.0913 34.3511C22.5183 32.45 22.8365 30.3766 24.1367 28.6035C26.6989 25.1093 32.0807 24.0739 36.1778 26.1042C77.1547 46.4102 108.912 49.439 131.546 45.8471C154.361 42.2262 168.738 31.7687 174.858 23.9417C177.535 20.5188 182.946 19.6052 186.977 21.7354L186.543 22.5563L186.977 21.7354C189.021 22.8155 190.395 24.5077 190.9 26.4154ZM189.104 26.89C188.746 25.5391 187.747 24.2429 186.109 23.3771C182.776 21.6157 178.379 22.4548 176.322 25.0854C169.879 33.3253 155.06 43.9957 131.837 47.6812C108.759 51.3437 76.6121 48.2141 35.3525 27.768C31.9522 26.083 27.5925 27.0322 25.6352 29.7014C24.6757 31.0099 24.4676 32.4794 24.8703 33.8153C25.2758 35.1604 26.3233 36.4358 27.9946 37.264C71.5376 58.8416 107.252 62.9736 134.55 58.6414C161.704 54.3321 179.775 41.7512 188.192 30.9881C189.2 29.6985 189.459 28.2323 189.104 26.89Z" fill="black"/>
<path d="M187.706 26.0005C191.388 27.9463 191.291 28.5337 188.924 31.5605C180.346 42.53 162.054 55.2174 134.696 59.559C107.176 63.9266 71.2665 59.744 27.5824 38.0965C23.8337 36.2388 23.4701 32.747 25.7298 29.6653C106.818 80.671 171.681 47.8457 187.706 26.0005Z" fill="black" fill-opacity="0.25"/>
<path d="M177.936 23.9646C181.898 23.1502 183.025 25.0894 180.853 27.4066C172.983 35.804 155.979 47.9236 130.878 51.2473C91.7464 54.0977 51.6239 42.2888 32.3056 30.887C28.8661 29.4649 30.3081 28.2594 33.7916 27.6294C108.193 66.676 162.085 46.768 177.936 23.9646Z" fill="white" fill-opacity="0.25"/>
<path fill-rule="evenodd" clip-rule="evenodd" d="M187.473 76.8871C191.003 78.4634 191.779 81.2653 189.206 83.1454C179.881 89.9591 160.756 97.2485 133.192 98.2525C105.464 99.2624 69.985 93.8963 27.9995 76.1677C24.3966 74.6463 23.4782 71.8527 25.9483 69.9278C28.4184 68.003 33.3415 67.676 36.9444 69.1973C76.4638 85.8846 108.079 90.2248 131.107 89.3861C154.3 88.5414 169.593 82.4272 176.422 77.4372C178.995 75.5571 183.943 75.3108 187.473 76.8871Z" fill="#DD933C"/>
<path fill-rule="evenodd" clip-rule="evenodd" d="M191.527 79.6301C191.966 81.2149 191.275 82.7651 189.742 83.8856C180.215 90.8472 160.884 98.1699 133.196 99.1784C105.317 100.194 69.7045 94.7965 27.6113 77.0224C25.6845 76.2088 24.2927 74.982 23.8099 73.5134C23.2949 71.9468 23.8958 70.3705 25.3885 69.2073C26.8303 68.0838 28.8899 67.4868 30.9901 67.3472C33.1064 67.2066 35.3842 67.5214 37.3325 68.3441C76.744 84.9858 108.226 89.2949 131.104 88.4616C154.172 87.6214 169.26 81.5406 175.887 76.6985C177.378 75.6091 179.462 75.0472 181.573 74.9421C183.698 74.8363 185.965 75.1867 187.878 76.0412C189.77 76.8859 191.115 78.1404 191.527 79.6301ZM189.729 80.176C189.515 79.4006 188.706 78.466 187.068 77.7344C185.452 77.0126 183.48 76.6981 181.605 76.7914C179.716 76.8854 178.04 77.3867 176.958 78.1774C169.927 83.3153 154.428 89.4628 131.11 90.312C107.932 91.1562 76.1835 86.7849 36.5561 70.052C34.9016 69.3534 32.9163 69.071 31.0529 69.1947C29.1732 69.3196 27.5362 69.8485 26.5079 70.6499C25.5306 71.4115 25.3557 72.1944 25.5831 72.8862C25.8427 73.676 26.7115 74.6067 28.3877 75.3144C70.2653 92.9976 105.611 98.3324 133.189 97.328C160.628 96.3286 179.548 89.0725 188.671 82.4066C189.71 81.647 189.918 80.8563 189.729 80.176Z" fill="black"/>
<path d="M144.673 82.4832C139.808 82.4832 135.863 78.4903 135.863 73.5648C135.863 68.6394 139.808 64.6465 144.673 64.6465C149.539 64.6465 153.483 68.6394 153.483 73.5648C153.483 78.4903 149.539 82.4832 144.673 82.4832Z" fill="#DD933C"/>
<path fill-rule="evenodd" clip-rule="evenodd" d="M152.554 73.5647C152.554 69.1409 149.015 65.5749 144.673 65.5749C140.332 65.5749 136.792 69.1409 136.792 73.5647C136.792 77.9884 140.332 81.5544 144.673 81.5544C149.015 81.5544 152.554 77.9884 152.554 73.5647ZM144.673 63.7178C150.063 63.7178 154.412 68.1375 154.412 73.5647C154.412 78.9918 150.063 83.4115 144.673 83.4115C139.284 83.4115 134.935 78.9918 134.935 73.5647C134.935 68.1375 139.284 63.7178 144.673 63.7178Z" fill="black"/>
<path d="M144.54 80.6198C140.78 80.6198 137.732 77.5208 137.732 73.6981C137.732 69.8753 140.78 66.7764 144.54 66.7764C148.3 66.7764 151.348 69.8753 151.348 73.6981C151.348 77.5208 148.3 80.6198 144.54 80.6198Z" fill="#DD933C"/>
<path fill-rule="evenodd" clip-rule="evenodd" d="M150.419 73.6979C150.419 70.373 147.772 67.7048 144.54 67.7048C141.308 67.7048 138.661 70.373 138.661 73.6979C138.661 77.0228 141.308 79.691 144.54 79.691C147.772 79.691 150.419 77.0228 150.419 73.6979ZM144.54 65.8477C148.828 65.8477 152.276 69.3773 152.276 73.6979C152.276 78.0185 148.828 81.5481 144.54 81.5481C140.252 81.5481 136.803 78.0185 136.803 73.6979C136.803 69.3773 140.252 65.8477 144.54 65.8477Z" fill="white" fill-opacity="0.25"/>
<path d="M144.673 77.6913C142.462 77.6913 140.669 75.8438 140.669 73.5649C140.669 71.2859 142.462 69.4385 144.673 69.4385C146.885 69.4385 148.678 71.2859 148.678 73.5649C148.678 75.8438 146.885 77.6913 144.673 77.6913Z" fill="#DD933C"/>
<path fill-rule="evenodd" clip-rule="evenodd" d="M147.749 73.5647C147.749 71.7717 146.345 70.3669 144.673 70.3669C143.001 70.3669 141.598 71.7717 141.598 73.5647C141.598 75.3577 143.001 76.7626 144.673 76.7626C146.345 76.7626 147.749 75.3577 147.749 73.5647ZM144.673 68.5098C147.424 68.5098 149.607 70.7998 149.607 73.5647C149.607 76.3296 147.424 78.6197 144.673 78.6197C141.922 78.6197 139.74 76.3296 139.74 73.5647C139.74 70.7998 141.922 68.5098 144.673 68.5098Z" fill="black"/>
<path d="M144.139 76.6259C142.812 76.6259 141.737 75.5532 141.737 74.23C141.737 72.9067 142.812 71.834 144.139 71.834C145.466 71.834 146.542 72.9067 146.542 74.23C146.542 75.5532 145.466 76.6259 144.139 76.6259Z" fill="black" fill-opacity="0.25"/>
<path d="M75.6504 107.034C66.9395 84.6558 48.4522 83.1931 38.559 82.6332C38.2547 82.616 38.0064 82.8613 37.9936 83.1656C37.8299 87.0568 35.8909 87.5278 31.7634 88.656C31.6338 88.6915 31.5045 88.756 31.3975 88.8372C7.86637 106.679 24.1448 117.623 28.0981 118.029C39.382 113.996 38.0322 123.944 43.7805 126.508C43.8878 126.556 44.0141 126.562 44.1275 126.532C57.4557 122.947 63.5483 128.902 63.8558 132.772C63.9048 133.389 64.3002 134.011 64.9087 134.124C87.5155 138.302 86.7202 135.474 75.6504 107.034Z" fill="#DD933C"/>
<path fill-rule="evenodd" clip-rule="evenodd" d="M64.7399 135.036C70.3767 136.078 74.6671 136.707 77.7197 136.58C79.2518 136.517 80.5618 136.261 81.5994 135.705C82.6721 135.131 83.4043 134.263 83.7899 133.103C84.163 131.981 84.1968 130.633 83.9986 129.087C83.7994 127.532 83.3558 125.704 82.71 123.582C81.4195 119.341 79.2791 113.795 76.5162 106.697C72.072 95.2798 65.0998 89.1412 57.9402 85.8094C50.8177 82.4949 43.5642 81.9859 38.6116 81.7056C37.743 81.6564 37.0981 82.3522 37.0656 83.1261C36.991 84.8999 36.5333 85.6739 35.8173 86.1965C35.4148 86.4901 34.8798 86.7403 34.1524 86.991C33.4634 87.2285 32.6575 87.4487 31.6899 87.713L31.5185 87.7598C31.271 87.8275 31.0349 87.9462 30.8362 88.0968C18.9526 97.1073 16.7519 104.674 18.5573 110.256C19.4392 112.984 21.243 115.089 23.0589 116.532C24.8448 117.95 26.7688 118.825 28.0032 118.952L28.2127 118.974L28.411 118.903C31.1352 117.929 32.9635 117.849 34.2654 118.189C35.5463 118.525 36.457 119.303 37.2819 120.364C37.6987 120.9 38.0821 121.493 38.4808 122.128C38.5457 122.231 38.6112 122.336 38.6774 122.442C39.0098 122.974 39.3581 123.532 39.7299 124.065C40.6266 125.35 41.7388 126.613 43.402 127.355C43.7216 127.498 44.0687 127.509 44.369 127.428C50.8775 125.677 55.497 126.288 58.4776 127.695C61.4884 129.117 62.8091 131.325 62.9299 132.845C62.9989 133.713 63.5735 134.821 64.7399 135.036ZM74.7847 107.371C77.5567 114.492 79.667 119.964 80.9325 124.122C81.5647 126.199 81.9755 127.915 82.1557 129.322C82.337 130.738 82.2753 131.77 82.0268 132.517C81.7908 133.227 81.3751 133.719 80.7225 134.068C80.0348 134.436 79.0419 134.667 77.6425 134.725C74.832 134.842 70.7442 134.258 65.0777 133.21C65.0517 133.205 64.9928 133.184 64.9217 133.087C64.8479 132.987 64.7935 132.843 64.782 132.698C64.5953 130.348 62.7159 127.643 59.2714 126.016C55.8204 124.386 50.775 123.808 44.0252 125.597C42.8832 125.049 42.043 124.134 41.254 123.003C40.9116 122.512 40.5926 122.001 40.2604 121.47C40.1925 121.361 40.124 121.251 40.0547 121.141C39.6535 120.502 39.2276 119.84 38.7486 119.224C37.782 117.981 36.555 116.869 34.7358 116.393C32.9831 115.934 30.8158 116.102 28.0053 117.077C27.2033 116.924 25.7301 116.282 24.2148 115.078C22.6019 113.797 21.0656 111.975 20.3252 109.685C18.8858 105.234 20.3115 98.4079 31.959 89.5764C31.9744 89.5648 31.9968 89.5544 32.0085 89.5512L32.2036 89.4979C33.1467 89.2403 34.0092 89.0048 34.7581 88.7467C35.5603 88.4702 36.2941 88.1479 36.9128 87.6964C38.1585 86.7873 38.758 85.4908 38.9 83.5822C43.8115 83.8675 50.5618 84.4243 57.1561 87.493C58.7079 88.2152 60.2539 89.0779 61.7667 90.1121L72.2299 101.877C73.1508 103.547 74.007 105.373 74.7847 107.371Z" fill="black"/>
<path d="M64.9097 134.124C87.4591 138.315 84.9842 135.879 73.9147 107.441C73.1988 143.059 32.2896 111.083 29.9227 92.8775C29.8094 92.0061 28.7849 91.4744 28.0925 92.0159C12.8234 103.955 24.2719 117.635 28.0981 118.028C39.382 113.995 38.0323 123.943 43.7805 126.507C43.8878 126.555 44.0141 126.562 44.1275 126.531C57.4557 122.946 63.5484 128.902 63.8559 132.771C63.9049 133.388 64.3014 134.011 64.9097 134.124Z" fill="black" fill-opacity="0.25"/>
<path fill-rule="evenodd" clip-rule="evenodd" d="M147.343 75.1587C147.856 75.1587 148.272 74.743 148.272 74.2301C148.272 71.9509 146.42 70.107 144.14 70.107C143.626 70.107 143.211 70.5227 143.211 71.0355C143.211 71.5483 143.626 71.9641 144.14 71.9641C145.398 71.9641 146.414 72.9807 146.414 74.2301C146.414 74.743 146.83 75.1587 147.343 75.1587Z" fill="white" fill-opacity="0.7"/>
<path fill-rule="evenodd" clip-rule="evenodd" d="M60.8874 96.5927C61.257 96.237 61.8451 96.2481 62.2009 96.6175C65.3397 99.876 71.0679 110.424 70.3194 127.435C70.2968 127.948 69.8631 128.345 69.3505 128.322C68.8379 128.3 68.4407 127.866 68.4632 127.354C69.1942 110.743 63.5799 100.727 60.8626 97.9056C60.5067 97.5362 60.5178 96.9484 60.8874 96.5927Z" fill="white" fill-opacity="0.25"/>
<path fill-rule="evenodd" clip-rule="evenodd" d="M61.8777 96.0537C62.2397 95.6903 62.8279 95.689 63.1914 96.0508C66.5465 99.3895 72.6871 110.221 71.8848 127.699C71.8613 128.211 71.4267 128.607 70.9142 128.584C70.4017 128.56 70.0053 128.126 70.0288 127.614C70.8116 110.561 64.7999 100.272 61.8806 97.3669C61.517 97.005 61.5157 96.4171 61.8777 96.0537Z" fill="black"/>
<path fill-rule="evenodd" clip-rule="evenodd" d="M185.722 97.3985C186.096 97.0475 186.684 97.0661 187.035 97.44C187.748 98.1991 188.454 98.7241 189.192 99.2725C191.08 100.676 193.174 102.232 196.109 108.256C196.334 108.717 196.142 109.273 195.681 109.498C195.219 109.722 194.663 109.53 194.439 109.069C191.707 103.464 190.049 102.243 188.255 100.921C187.459 100.334 186.636 99.7282 185.68 98.7111C185.329 98.3372 185.348 97.7495 185.722 97.3985Z" fill="white" fill-opacity="0.25"/>
<path fill-rule="evenodd" clip-rule="evenodd" d="M182.733 106.372C183.099 106.012 183.687 106.016 184.047 106.382C184.672 107.015 185.245 107.515 185.82 108.018C187.452 109.444 189.111 110.894 192.09 115.487C192.37 115.917 192.247 116.492 191.816 116.771C191.386 117.05 190.811 116.928 190.532 116.497C187.7 112.133 186.245 110.861 184.654 109.472C184.056 108.95 183.44 108.411 182.724 107.686C182.364 107.32 182.368 106.732 182.733 106.372Z" fill="white" fill-opacity="0.25"/>
<path fill-rule="evenodd" clip-rule="evenodd" d="M178.739 115.363C179.087 114.986 179.675 114.962 180.052 115.309C180.675 115.883 181.245 116.337 181.82 116.793C183.453 118.09 185.119 119.413 188.104 123.597C188.402 124.014 188.305 124.594 187.887 124.892C187.47 125.19 186.889 125.093 186.592 124.675C183.766 120.716 182.317 119.565 180.727 118.303C180.129 117.828 179.511 117.337 178.793 116.675C178.416 116.327 178.392 115.74 178.739 115.363Z" fill="white" fill-opacity="0.25"/>
<path fill-rule="evenodd" clip-rule="evenodd" d="M173.759 122.724C174.09 122.332 174.676 122.282 175.068 122.613C175.227 122.746 175.379 122.874 175.525 122.997C177.414 124.584 178.369 125.386 182.07 129.19C182.428 129.558 182.42 130.146 182.052 130.503C181.684 130.861 181.096 130.853 180.739 130.485C177.098 126.744 176.18 125.973 174.341 124.428C174.191 124.302 174.035 124.171 173.871 124.033C173.479 123.702 173.429 123.116 173.759 122.724Z" fill="white" fill-opacity="0.25"/>
<path fill-rule="evenodd" clip-rule="evenodd" d="M167.863 130.815C168.222 130.449 168.811 130.445 169.176 130.804C169.312 130.938 169.442 131.065 169.567 131.187C171.189 132.778 172.008 133.581 175.183 137.387C175.511 137.781 175.458 138.366 175.064 138.695C174.67 139.023 174.084 138.97 173.756 138.576C170.637 134.837 169.851 134.067 168.277 132.524C168.148 132.398 168.015 132.267 167.874 132.128C167.508 131.769 167.503 131.181 167.863 130.815Z" fill="white" fill-opacity="0.25"/>
<path fill-rule="evenodd" clip-rule="evenodd" d="M164.041 138.027C164.466 137.739 165.043 137.85 165.331 138.275C165.399 138.374 165.463 138.469 165.525 138.56C166.342 139.761 166.754 140.368 168.346 143.231C168.596 143.679 168.434 144.245 167.986 144.494C167.537 144.743 166.972 144.582 166.723 144.133C165.168 141.338 164.778 140.765 163.997 139.616C163.932 139.52 163.864 139.421 163.794 139.317C163.506 138.892 163.617 138.315 164.041 138.027Z" fill="white" fill-opacity="0.25"/>
<path fill-rule="evenodd" clip-rule="evenodd" d="M185.699 96.6064C186.061 96.243 186.65 96.2417 187.013 96.6035C187.813 97.3995 188.602 97.9475 189.424 98.5185C191.52 99.9745 193.832 101.58 197.088 107.827C197.325 108.282 197.149 108.843 196.694 109.08C196.239 109.317 195.678 109.14 195.441 108.685C192.402 102.856 190.546 101.578 188.549 100.203C187.666 99.5946 186.755 98.9674 185.702 97.9196C185.339 97.5578 185.337 96.9699 185.699 96.6064Z" fill="black"/>
<path fill-rule="evenodd" clip-rule="evenodd" d="M182.668 105.63C182.994 105.234 183.579 105.177 183.976 105.502C184.564 105.986 185.007 106.318 185.412 106.621C185.505 106.691 185.596 106.759 185.687 106.827C186.174 107.195 186.625 107.552 187.189 108.097C188.294 109.165 189.817 110.945 193.03 115.01C193.349 115.412 193.28 115.996 192.878 116.314C192.475 116.632 191.891 116.563 191.573 116.161C188.347 112.082 186.898 110.4 185.897 109.432C185.409 108.96 185.024 108.654 184.567 108.31C184.483 108.246 184.396 108.181 184.306 108.113C183.899 107.809 183.419 107.449 182.795 106.937C182.399 106.611 182.342 106.026 182.668 105.63Z" fill="black"/>
<path fill-rule="evenodd" clip-rule="evenodd" d="M178.705 114.588C179.031 114.192 179.617 114.135 180.013 114.46C180.55 114.902 180.951 115.217 181.291 115.483C181.842 115.916 182.232 116.222 182.783 116.741C183.676 117.579 185.062 119.031 188.519 122.684C188.871 123.056 188.855 123.644 188.482 123.996C188.109 124.349 187.521 124.332 187.169 123.96C183.69 120.283 182.353 118.884 181.511 118.094C181.011 117.624 180.711 117.389 180.223 117.008C179.889 116.747 179.467 116.416 178.833 115.895C178.437 115.569 178.38 114.984 178.705 114.588Z" fill="black"/>
<path fill-rule="evenodd" clip-rule="evenodd" d="M173.752 121.918C174.078 121.522 174.664 121.465 175.06 121.791C176.873 123.281 176.896 123.304 178.035 124.42C178.782 125.153 180.009 126.357 182.539 128.757C182.911 129.11 182.927 129.697 182.574 130.069C182.221 130.441 181.633 130.457 181.26 130.104C177.088 126.146 176.444 125.432 175.737 124.786C175.344 124.427 174.931 124.089 173.88 123.225C173.483 122.899 173.426 122.314 173.752 121.918Z" fill="black"/>
<path fill-rule="evenodd" clip-rule="evenodd" d="M167.808 130.061C168.134 129.665 168.719 129.608 169.115 129.934C170.929 131.425 170.952 131.448 172.09 132.564C172.837 133.296 174.065 134.5 176.595 136.9C176.967 137.253 176.982 137.841 176.629 138.213C176.276 138.585 175.688 138.6 175.316 138.247C171.143 134.29 170.499 133.575 169.792 132.93C169.399 132.571 168.986 132.233 167.935 131.368C167.539 131.043 167.482 130.457 167.808 130.061Z" fill="black"/>
<path fill-rule="evenodd" clip-rule="evenodd" d="M163.934 137.297C164.312 136.951 164.9 136.975 165.247 137.353C166.224 138.417 166.244 138.442 166.861 139.243C167.263 139.764 167.917 140.613 169.252 142.289C169.572 142.691 169.505 143.275 169.104 143.594C168.702 143.914 168.118 143.847 167.798 143.446C165.547 140.62 165.219 140.135 164.848 139.687C164.645 139.442 164.428 139.208 163.878 138.609C163.531 138.232 163.556 137.644 163.934 137.297Z" fill="black"/>
<path fill-rule="evenodd" clip-rule="evenodd" d="M54.039 92.2619C54.5508 92.2274 54.9938 92.6141 55.0284 93.1258C55.5247 100.469 55.5302 104.614 55.0853 108.167C54.7351 110.963 54.1044 113.385 53.2498 116.668C53.0237 117.537 52.7818 118.465 52.5254 119.477C52.3994 119.975 51.8941 120.275 51.3968 120.15C50.8994 120.024 50.5984 119.519 50.7243 119.021C50.9905 117.971 51.2382 117.019 51.4672 116.139C52.3149 112.881 52.9079 110.602 53.2417 107.936C53.6636 104.567 53.6692 100.567 53.1747 93.2509C53.1401 92.7393 53.5271 92.2965 54.039 92.2619Z" fill="white" fill-opacity="0.25"/>
<path fill-rule="evenodd" clip-rule="evenodd" d="M55.5386 92.5251C56.0505 92.4905 56.4935 92.8773 56.5281 93.389C57.0243 100.732 57.0298 104.877 56.5849 108.43C56.2347 111.226 55.6041 113.649 54.7495 116.931C54.5233 117.8 54.2815 118.729 54.025 119.741C53.899 120.238 53.3937 120.539 52.8964 120.413C52.399 120.287 52.098 119.782 52.224 119.285C52.4901 118.234 52.7378 117.282 52.9669 116.402C53.8145 113.144 54.4075 110.865 54.7413 108.199C55.1633 104.83 55.1688 100.83 54.6744 93.5141C54.6398 93.0025 55.0267 92.5597 55.5386 92.5251Z" fill="black"/>
<path fill-rule="evenodd" clip-rule="evenodd" d="M47.2561 91.9798C47.7623 92.0847 48.0422 92.5613 47.8814 93.0441C46.1264 98.3124 44.9384 101.245 43.5983 103.677C42.5442 105.59 41.397 107.186 39.8535 109.334C39.4462 109.9 39.0113 110.506 38.5432 111.165C38.2384 111.595 37.6388 111.744 37.2038 111.5C36.7689 111.255 36.6634 110.709 36.9681 110.28C37.4588 109.588 37.9073 108.964 38.3215 108.388C39.8498 106.26 40.9111 104.783 41.9033 102.983C43.1565 100.709 44.3015 97.9081 46.0484 92.664C46.2092 92.1811 46.75 91.8748 47.2561 91.9798Z" fill="white" fill-opacity="0.25"/>
<path fill-rule="evenodd" clip-rule="evenodd" d="M39.1326 89.8968C39.6187 90.0527 39.8394 90.5591 39.6255 91.028C37.3813 95.9478 35.7477 98.7364 33.9378 101.076C32.7108 102.663 31.3939 104.049 29.7904 105.736C29.0679 106.496 28.2872 107.318 27.4304 108.246C27.0689 108.638 26.4604 108.712 26.0714 108.411C25.6823 108.11 25.66 107.548 26.0215 107.156C26.9412 106.159 27.7521 105.306 28.4858 104.534C30.0429 102.896 31.2517 101.625 32.4126 100.124C34.0902 97.9548 35.6513 95.3168 37.8651 90.4636C38.079 89.9947 38.6465 89.741 39.1326 89.8968Z" fill="white" fill-opacity="0.25"/>
<path fill-rule="evenodd" clip-rule="evenodd" d="M48.4171 91.7498C48.9233 91.8548 49.2032 92.3313 49.0424 92.8141C47.2874 98.0825 46.0995 101.015 44.7593 103.447C43.7052 105.36 42.5581 106.956 41.0146 109.104C40.6072 109.671 40.1723 110.276 39.7042 110.935C39.3994 111.365 38.7998 111.514 38.3648 111.27C37.9299 111.025 37.8244 110.479 38.1291 110.05C38.6199 109.358 39.0683 108.734 39.4825 108.158C41.0108 106.03 42.0721 104.553 43.0643 102.753C44.3175 100.479 45.4625 97.6781 47.2094 92.434C47.3703 91.9511 47.911 91.6448 48.4171 91.7498Z" fill="black"/>
<path fill-rule="evenodd" clip-rule="evenodd" d="M40.1957 90.3327C40.6894 90.489 40.9082 90.9855 40.6845 91.4416C38.1999 96.507 36.6085 99.3042 34.9376 101.589C33.6231 103.386 32.2613 104.86 30.4262 106.846C29.9416 107.37 29.4241 107.93 28.8657 108.541C28.5084 108.932 27.8883 109.021 27.4808 108.739C27.0733 108.457 27.0327 107.911 27.39 107.52C27.9741 106.881 28.5071 106.304 28.9995 105.771C30.8174 103.803 32.0818 102.434 33.3225 100.738C34.89 98.5948 36.4231 95.9188 38.8968 90.8755C39.1205 90.4194 39.7021 90.1763 40.1957 90.3327Z" fill="black"/>
<path d="M51.1929 153.456C54.1507 153.152 55.6137 147.153 56.0647 143.594C56.11 143.236 56.495 143.021 56.8248 143.168C86.9743 156.583 94.7829 175.062 94.7829 178.295C94.7829 181.553 86.3622 187.254 82.8948 189.29C79.4274 191.326 75.4647 188.882 75.96 187.254C76.4553 185.625 74.474 183.589 71.5019 182.367C68.5299 181.146 63.0812 182.774 64.5672 178.295C66.0532 173.816 60.1091 165.672 52.679 163.636C45.2488 161.6 47.2302 153.863 51.1929 153.456Z" fill="#DD933C"/>
<path fill-rule="evenodd" clip-rule="evenodd" d="M56.9162 144.226C56.6625 145.982 56.1872 148.197 55.4315 150.09C55.0163 151.129 54.4974 152.12 53.8472 152.887C53.1958 153.655 52.3489 154.27 51.2878 154.379C49.9134 154.52 48.6456 156.027 48.5921 157.96C48.5667 158.88 48.8322 159.836 49.4863 160.671C50.1399 161.506 51.2245 162.274 52.9244 162.74C56.8678 163.821 60.3712 166.501 62.6984 169.477C63.8653 170.969 64.7602 172.566 65.2646 174.114C65.766 175.652 65.9037 177.216 65.4488 178.587C65.1149 179.594 65.2666 179.974 65.3663 180.116C65.4958 180.301 65.8134 180.498 66.5426 180.642C67.0666 180.745 67.6484 180.796 68.3022 180.853C68.5405 180.874 68.7883 180.896 69.0464 180.921C69.956 181.011 70.9746 181.146 71.8551 181.508C73.4297 182.155 74.7922 183.037 75.7114 184.025C76.6043 184.985 77.2396 186.238 76.8487 187.524C76.8479 187.526 76.8464 187.532 76.8467 187.544C76.8471 187.557 76.8496 187.581 76.8609 187.618C76.8843 187.693 76.9415 187.808 77.06 187.95C77.2998 188.237 77.7219 188.552 78.2946 188.787C79.4319 189.255 80.979 189.337 82.4241 188.489C84.1279 187.488 87.0574 185.581 89.5489 183.533C90.7966 182.507 91.9063 181.469 92.6957 180.511C93.5206 179.509 93.8539 178.762 93.8539 178.295C93.8539 178.036 93.7668 177.503 93.5046 176.693C93.249 175.904 92.8455 174.909 92.2613 173.745C91.0937 171.419 89.2179 168.449 86.4032 165.152C80.8359 158.631 71.5981 150.836 56.9162 144.226ZM55.1429 143.477C55.2671 142.498 56.3075 141.921 57.2025 142.319C72.3973 149.08 82.0012 157.135 87.8165 163.947C90.7226 167.35 92.6833 170.445 93.9219 172.912C94.541 174.145 94.983 175.229 95.2722 176.121C95.5548 176.994 95.7118 177.746 95.7118 178.295C95.7118 179.457 94.9925 180.644 94.1301 181.691C93.2323 182.781 92.02 183.906 90.7291 184.968C88.1434 187.093 85.1288 189.055 83.3652 190.09C81.3429 191.278 79.175 191.157 77.5879 190.505C76.7984 190.18 76.106 189.706 75.6337 189.14C75.1753 188.591 74.8191 187.812 75.0711 186.983C75.1756 186.64 75.0678 186.061 74.3508 185.29C73.6602 184.547 72.546 183.8 71.1485 183.226C70.543 182.977 69.766 182.858 68.8645 182.769C68.6599 182.749 68.4459 182.731 68.2273 182.712C67.5433 182.652 66.8139 182.588 66.1828 182.464C65.364 182.302 64.4123 181.99 63.8452 181.182C63.2483 180.332 63.2762 179.236 63.6853 178.003C63.9735 177.134 63.9254 176 63.498 174.689C63.0736 173.386 62.2968 171.979 61.2346 170.621C59.1037 167.896 55.9199 165.487 52.4332 164.531C50.4181 163.979 48.9641 163.017 48.0233 161.816C47.0831 160.615 46.6984 159.229 46.7349 157.909C46.8053 155.363 48.5095 152.798 51.0978 152.532C51.5156 152.489 51.9607 152.24 52.4297 151.687C52.8998 151.132 53.3293 150.344 53.706 149.401C54.4579 147.518 54.9229 145.214 55.1429 143.477Z" fill="#090909"/>
<path fill-rule="evenodd" clip-rule="evenodd" d="M85.6266 168.287C86.1842 168.26 86.6413 168.614 86.6476 169.077C86.6749 171.09 85.1039 176.258 79.06 182.22C78.6922 182.582 78.0543 182.642 77.6351 182.353C77.216 182.063 77.1743 181.535 77.542 181.172C83.3514 175.441 84.6486 170.67 84.6283 169.175C84.622 168.712 85.069 168.314 85.6266 168.287Z" fill="white" fill-opacity="0.25"/>
<path fill-rule="evenodd" clip-rule="evenodd" d="M86.1508 168.32C86.7081 168.283 87.1745 168.628 87.1924 169.091C87.2735 171.186 85.7538 176.552 79.5307 182.671C79.1623 183.033 78.5243 183.092 78.1057 182.802C77.6871 182.512 77.6465 181.984 78.0149 181.621C83.989 175.747 85.2348 170.791 85.1741 169.224C85.1562 168.761 85.5934 168.356 86.1508 168.32Z" fill="black"/>
<path fill-rule="evenodd" clip-rule="evenodd" d="M79.514 161.787C80.0714 161.776 80.5121 162.144 80.4983 162.608C80.436 164.696 78.6005 170.133 72.1335 176.546C71.7668 176.91 71.129 176.971 70.7089 176.682C70.2887 176.394 70.2453 175.866 70.6119 175.502C76.8677 169.299 78.4322 164.232 78.4795 162.645C78.4934 162.181 78.9565 161.797 79.514 161.787Z" fill="white" fill-opacity="0.25"/>
<path fill-rule="evenodd" clip-rule="evenodd" d="M80.0528 161.803C80.6104 161.783 81.0605 162.143 81.0581 162.606C81.047 164.779 79.2547 170.422 72.5975 177.004C72.2302 177.368 71.5923 177.428 71.1727 177.139C70.7531 176.85 70.7107 176.321 71.0779 175.958C77.5109 169.598 79.0303 164.339 79.0388 162.678C79.0412 162.214 79.4951 161.823 80.0528 161.803Z" fill="black"/>
<path fill-rule="evenodd" clip-rule="evenodd" d="M71.4597 154.639C72.0031 154.525 72.5166 154.804 72.6065 155.263C72.9853 157.191 72.341 162.227 67.4699 168.301C67.1467 168.704 66.5231 168.832 66.077 168.586C65.631 168.34 65.5314 167.814 65.8546 167.411C70.4853 161.637 70.9121 157.067 70.6386 155.675C70.5486 155.217 70.9163 154.753 71.4597 154.639Z" fill="white" fill-opacity="0.25"/>
<path fill-rule="evenodd" clip-rule="evenodd" d="M71.9749 154.638C72.5164 154.515 73.0375 154.784 73.1389 155.24C73.5843 157.241 73.0256 162.462 68.0058 168.699C67.6817 169.102 67.058 169.228 66.6125 168.982C66.1671 168.735 66.0686 168.209 66.3927 167.807C71.1569 161.887 71.5033 157.147 71.1783 155.687C71.0769 155.231 71.4335 154.762 71.9749 154.638Z" fill="black"/>
<path fill-rule="evenodd" clip-rule="evenodd" d="M61.6016 149.594C62.1046 149.373 62.6755 149.542 62.8766 149.97C63.6619 151.644 64.1155 156.039 60.6884 161.407C60.4102 161.842 59.8079 162.028 59.343 161.821C58.8782 161.613 58.7269 161.092 59.0051 160.657C62.1455 155.738 61.5936 151.919 61.0551 150.771C60.854 150.342 61.0986 149.815 61.6016 149.594Z" fill="white" fill-opacity="0.25"/>
<path fill-rule="evenodd" clip-rule="evenodd" d="M62.0929 149.587C62.5916 149.357 63.1674 149.515 63.379 149.939C64.2417 151.668 64.8215 156.222 61.2832 161.736C61.0039 162.171 60.4012 162.355 59.937 162.147C59.4728 161.939 59.3229 161.417 59.6022 160.982C62.8357 155.943 62.1763 151.981 61.5731 150.771C61.3615 150.347 61.5942 149.817 62.0929 149.587Z" fill="black"/>
</svg>
