<svg width="240" height="240" viewBox="0 0 240 240" fill="none" xmlns="http://www.w3.org/2000/svg">
<path d="M239.888 133.791C239.888 195.985 169.18 240 101.585 240C33.99 240 0 167.47 0 105.276C0 43.0813 110.281 0 177.876 0C245.471 0 239.888 71.5962 239.888 133.791Z" fill="#D7D6DC"/>
<g filter="url(#filter0_d_937_26805)">
<path d="M81.5458 155.644C92.3765 153.475 99.3986 142.937 97.2301 132.106C95.0616 121.276 84.5236 114.254 73.6928 116.422C62.8621 118.591 55.84 129.129 58.0085 139.959C60.1771 150.79 70.715 157.812 81.5458 155.644Z" fill="#E40303"/>
</g>
<g filter="url(#filter1_d_937_26805)">
<path d="M94.0942 141.913C106.008 139.527 113.732 127.935 111.347 116.021C108.962 104.108 97.3697 96.3834 85.4559 98.7688C73.5421 101.154 65.8178 112.746 68.2032 124.66C70.5886 136.574 82.1804 144.298 94.0942 141.913Z" fill="black"/>
</g>
<path d="M82.0784 123.922C86.8168 122.973 89.889 118.362 88.9403 113.624C87.9915 108.886 83.3812 105.813 78.6427 106.762C73.9043 107.711 70.8321 112.321 71.7808 117.06C72.7296 121.798 77.3399 124.87 82.0784 123.922Z" fill="white"/>
<path d="M94.3159 104.57C94.4286 103.608 95.7066 103.352 96.181 104.196L96.8086 105.314C97.0208 105.691 97.4521 105.89 97.8769 105.805L99.1335 105.553C100.083 105.363 100.722 106.499 100.065 107.211L99.1962 108.154C98.9026 108.472 98.8474 108.943 99.0595 109.321L99.6871 110.438C100.162 111.283 99.278 112.241 98.3977 111.837L97.2332 111.302C96.8396 111.121 96.3742 111.214 96.0805 111.533L95.2118 112.475C94.5551 113.187 93.3707 112.643 93.4834 111.681L93.6324 110.408C93.6828 109.977 93.4504 109.564 93.0567 109.383L91.8922 108.848C91.0119 108.443 91.1635 107.149 92.1134 106.958L93.37 106.707C93.7948 106.622 94.1165 106.273 94.1669 105.843L94.3159 104.57Z" fill="white"/>
<path fill-rule="evenodd" clip-rule="evenodd" d="M72.6149 121.227C73.9688 120.956 75.286 121.834 75.5571 123.188C77.1293 131.04 84.7693 136.131 92.6216 134.559C100.474 132.986 105.565 125.346 103.993 117.494C103.722 116.14 104.599 114.823 105.953 114.552C107.307 114.281 108.624 115.159 108.895 116.512C111.01 127.072 104.163 137.347 93.6032 139.461C83.0433 141.576 72.7687 134.729 70.6544 124.169C70.3833 122.815 71.2611 121.498 72.6149 121.227Z" fill="white" fill-opacity="0.25"/>
<g filter="url(#filter2_d_937_26805)">
<path d="M167.637 137.387C178.467 135.218 185.533 124.9 183.419 114.34C181.305 103.78 170.811 96.9772 159.98 99.1458C149.149 101.314 142.083 111.633 144.197 122.193C146.312 132.753 156.806 139.555 167.637 137.387Z" fill="#E40303"/>
</g>
<g filter="url(#filter3_d_937_26805)">
<path d="M152.927 130.133C164.84 127.748 172.565 116.156 170.179 104.242C167.794 92.3284 156.202 84.6041 144.288 86.9895C132.375 89.3749 124.65 100.967 127.036 112.88C129.421 124.794 141.013 132.519 152.927 130.133Z" fill="black"/>
</g>
<path fill-rule="evenodd" clip-rule="evenodd" d="M131.447 109.448C132.801 109.177 134.119 110.054 134.39 111.408C135.962 119.26 143.602 124.352 151.454 122.779C159.306 121.207 164.397 113.567 162.825 105.715C162.554 104.361 163.432 103.044 164.786 102.773C166.14 102.502 167.457 103.379 167.728 104.733C169.842 115.293 162.996 125.568 152.436 127.682C141.876 129.796 131.601 122.95 129.487 112.39C129.216 111.036 130.094 109.719 131.447 109.448Z" fill="white" fill-opacity="0.25"/>
<path d="M140.911 112.142C145.649 111.194 148.721 106.583 147.773 101.845C146.824 97.1063 142.213 94.0341 137.475 94.9828C132.737 95.9316 129.664 100.542 130.613 105.28C131.562 110.019 136.172 113.091 140.911 112.142Z" fill="white"/>
<path d="M153.148 92.79C153.261 91.8278 154.539 91.5719 155.013 92.4165L155.641 93.5339C155.853 93.9116 156.284 94.1098 156.709 94.0247L157.966 93.7731C158.916 93.5829 159.554 94.7194 158.897 95.4315L158.029 96.3737C157.735 96.6922 157.68 97.1636 157.892 97.5413L158.519 98.6587C158.994 99.5033 158.11 100.462 157.23 100.057L156.065 99.522C155.672 99.3411 155.206 99.4343 154.913 99.7528L154.044 100.695C153.387 101.407 152.203 100.863 152.316 99.9008L152.465 98.6279C152.515 98.1977 152.283 97.7839 151.889 97.603L150.724 97.0679C149.844 96.6634 149.996 95.3689 150.946 95.1787L152.202 94.9271C152.627 94.842 152.949 94.4931 152.999 94.0628L153.148 92.79Z" fill="white"/>
<defs>
<filter id="filter0_d_937_26805" x="52.6155" y="116.029" width="48.0078" height="51.0073" filterUnits="userSpaceOnUse" color-interpolation-filters="sRGB">
<feFlood flood-opacity="0" result="BackgroundImageFix"/>
<feColorMatrix in="SourceAlpha" type="matrix" values="0 0 0 0 0 0 0 0 0 0 0 0 0 0 0 0 0 0 127 0" result="hardAlpha"/>
<feOffset dx="-1" dy="7"/>
<feGaussianBlur stdDeviation="2"/>
<feComposite in2="hardAlpha" operator="out"/>
<feColorMatrix type="matrix" values="0 0 0 0 0 0 0 0 0 0 0 0 0 0 0 0 0 0 0.25 0"/>
<feBlend mode="normal" in2="BackgroundImageFix" result="effect1_dropShadow_937_26805"/>
<feBlend mode="normal" in="SourceGraphic" in2="effect1_dropShadow_937_26805" result="shape"/>
</filter>
<filter id="filter1_d_937_26805" x="62.7708" y="98.3364" width="52.0085" height="55.0083" filterUnits="userSpaceOnUse" color-interpolation-filters="sRGB">
<feFlood flood-opacity="0" result="BackgroundImageFix"/>
<feColorMatrix in="SourceAlpha" type="matrix" values="0 0 0 0 0 0 0 0 0 0 0 0 0 0 0 0 0 0 127 0" result="hardAlpha"/>
<feOffset dx="-1" dy="7"/>
<feGaussianBlur stdDeviation="2"/>
<feComposite in2="hardAlpha" operator="out"/>
<feColorMatrix type="matrix" values="0 0 0 0 0 0 0 0 0 0 0 0 0 0 0 0 0 0 0.25 0"/>
<feBlend mode="normal" in2="BackgroundImageFix" result="effect1_dropShadow_937_26805"/>
<feBlend mode="normal" in="SourceGraphic" in2="effect1_dropShadow_937_26805" result="shape"/>
</filter>
<filter id="filter2_d_937_26805" x="138.823" y="98.7427" width="47.9695" height="50.0469" filterUnits="userSpaceOnUse" color-interpolation-filters="sRGB">
<feFlood flood-opacity="0" result="BackgroundImageFix"/>
<feColorMatrix in="SourceAlpha" type="matrix" values="0 0 0 0 0 0 0 0 0 0 0 0 0 0 0 0 0 0 127 0" result="hardAlpha"/>
<feOffset dx="-1" dy="7"/>
<feGaussianBlur stdDeviation="2"/>
<feComposite in2="hardAlpha" operator="out"/>
<feColorMatrix type="matrix" values="0 0 0 0 0 0 0 0 0 0 0 0 0 0 0 0 0 0 0.25 0"/>
<feBlend mode="normal" in2="BackgroundImageFix" result="effect1_dropShadow_937_26805"/>
<feBlend mode="normal" in="SourceGraphic" in2="effect1_dropShadow_937_26805" result="shape"/>
</filter>
<filter id="filter3_d_937_26805" x="121.603" y="86.5571" width="52.0085" height="55.0083" filterUnits="userSpaceOnUse" color-interpolation-filters="sRGB">
<feFlood flood-opacity="0" result="BackgroundImageFix"/>
<feColorMatrix in="SourceAlpha" type="matrix" values="0 0 0 0 0 0 0 0 0 0 0 0 0 0 0 0 0 0 127 0" result="hardAlpha"/>
<feOffset dx="-1" dy="7"/>
<feGaussianBlur stdDeviation="2"/>
<feComposite in2="hardAlpha" operator="out"/>
<feColorMatrix type="matrix" values="0 0 0 0 0 0 0 0 0 0 0 0 0 0 0 0 0 0 0.25 0"/>
<feBlend mode="normal" in2="BackgroundImageFix" result="effect1_dropShadow_937_26805"/>
<feBlend mode="normal" in="SourceGraphic" in2="effect1_dropShadow_937_26805" result="shape"/>
</filter>
</defs>
</svg>
