<svg width="230" height="248" viewBox="0 0 230 248" fill="none" xmlns="http://www.w3.org/2000/svg">
<path d="M0.000100832 140.197C0.000106463 75.7932 46.4088 6.34279 114.266 6.34279C200 29.3428 230 106.939 230 171.343C230 235.747 182.124 246.343 114.266 246.343C46.4088 246.343 9.52019e-05 204.601 0.000100832 140.197Z" fill="#FFF2D0"/>
<path fill-rule="evenodd" clip-rule="evenodd" d="M69.2234 93.7244C80.1142 94.7381 95.4841 98.8026 108.868 102.388L109.098 102.45C122.499 106.041 137.861 110.211 147.813 114.782C156.361 118.709 160.43 124.843 160.389 134.289C162.964 135.165 164.462 137.936 163.745 140.615L159.213 157.527C158.494 160.21 155.803 161.862 153.132 161.325C148.367 170.124 141.911 173.982 133.159 173.184C125.879 172.519 118.701 170.378 112.978 167.777C104.187 163.781 103.712 157.153 103.313 151.58C102.996 147.142 102.726 143.373 98.3415 142.135C93.9308 141.016 91.8141 144.146 89.3217 147.831C86.1921 152.458 82.4702 157.962 72.8704 157.03C66.6204 156.423 59.3434 154.691 52.7142 151.629C44.7426 147.945 41.0877 141.374 41.3671 131.364C38.8834 130.434 37.4556 127.718 38.1595 125.091L42.6912 108.179C43.3939 105.556 45.9813 103.919 48.5929 104.348C53.278 96.1373 59.8634 92.8537 69.2234 93.7244ZM72.2729 101.197C81.9611 102.377 95.386 105.941 107.364 109.151C119.343 112.36 132.751 115.986 141.731 119.809C153.375 124.766 156.41 134.873 151.335 149.435C147.482 160.487 142.072 166.799 131.956 165.585C125.524 164.814 123.617 164.14 118.483 161.974C111.332 158.958 110.191 153.164 109.112 147.689L109.112 147.688C108.045 142.272 107.039 137.167 100.338 135.372C93.6378 133.576 90.2144 137.494 86.5818 141.652C82.9098 145.854 79.0242 150.301 71.3238 149.338C65.794 148.646 63.8063 148.277 57.8498 145.728C48.4823 141.721 46.9531 133.55 49.1422 122.052C52.0278 106.904 59.7106 99.6685 72.2729 101.197Z" fill="#090909"/>
<path fill-rule="evenodd" clip-rule="evenodd" d="M66.0475 92.8736C76.6902 93.8209 91.6943 97.7874 104.759 101.288L104.984 101.348C118.066 104.854 133.062 108.926 142.765 113.43C151.1 117.3 155.041 123.4 154.945 132.831C157.458 133.69 158.907 136.448 158.189 139.126L153.657 156.039C152.938 158.722 150.298 160.387 147.689 159.867C142.977 168.68 136.642 172.57 128.089 171.826C120.974 171.205 113.969 169.111 108.388 166.547C99.8164 162.61 99.3921 155.996 99.0353 150.434C98.7512 146.005 98.5099 142.243 94.2301 141.033C89.9241 139.943 87.8358 143.08 85.3769 146.774C82.2893 151.413 78.6173 156.93 69.2365 156.056C63.1289 155.488 56.024 153.801 49.5603 150.784C41.7878 147.153 38.2533 140.614 38.5861 130.619C36.1631 129.705 34.7833 127.002 35.4871 124.375L40.0188 107.463C40.7216 104.84 43.2611 103.19 45.8122 103.603C50.442 95.3777 56.9007 92.06 66.0475 92.8736ZM68.9846 100.317C78.4505 101.436 91.5558 104.915 103.249 108.048C114.942 111.181 128.031 114.721 136.788 118.484C148.144 123.364 151.052 133.438 146.003 148.006C142.169 159.063 136.842 165.397 126.958 164.246C120.673 163.514 118.813 162.853 113.805 160.721C106.832 157.753 105.75 151.975 104.728 146.514L104.728 146.514C103.717 141.112 102.764 136.022 96.2229 134.269C89.6819 132.517 86.3112 136.449 82.7347 140.621C79.1192 144.839 75.2935 149.302 67.7699 148.386C62.3672 147.728 60.4258 147.371 54.6169 144.862C45.4815 140.917 44.0349 132.768 46.2438 121.276C49.1555 106.135 56.7106 98.8648 68.9846 100.317Z" fill="#82EB68"/>
<path fill-rule="evenodd" clip-rule="evenodd" d="M154.945 132.831C155.041 123.4 151.1 117.3 142.765 113.43C133.062 108.926 118.066 104.854 104.984 101.348L104.759 101.288C91.6943 97.7874 76.6902 93.8209 66.0475 92.8736C56.9007 92.06 50.442 95.3777 45.8122 103.603C43.2611 103.19 40.7216 104.84 40.0188 107.463L35.4871 124.375C34.7833 127.002 36.1631 129.705 38.5861 130.619C38.2533 140.614 41.7878 147.153 49.5603 150.784C56.024 153.801 63.1289 155.488 69.2365 156.056C78.6173 156.93 82.2893 151.413 85.3769 146.774C87.8358 143.08 89.9241 139.943 94.2301 141.033C98.5099 142.243 98.7512 146.005 99.0353 150.434C99.3921 155.996 99.8164 162.61 108.388 166.547C113.969 169.111 120.974 171.205 128.089 171.826C136.642 172.57 142.977 168.68 147.689 159.867C150.298 160.387 152.938 158.722 153.657 156.039L158.189 139.126C158.907 136.448 157.458 133.69 154.945 132.831ZM128.226 170.251C132.215 170.598 135.59 169.863 138.505 168.082C141.439 166.288 144.028 163.36 146.294 159.122L146.847 158.087L147.997 158.316C149.756 158.667 151.618 157.541 152.13 155.63L156.662 138.717C157.173 136.809 156.128 134.906 154.434 134.327L153.353 133.957L153.364 132.815C153.41 128.326 152.496 124.761 150.68 121.89C148.865 119.018 146.063 116.704 142.099 114.864C132.548 110.43 117.704 106.393 104.575 102.875L104.35 102.815C91.2376 99.3017 76.3832 95.3808 65.9074 94.4483M128.226 170.251C121.314 169.648 114.485 167.608 109.048 165.11L108.388 166.547L109.048 165.11C105.101 163.297 103.144 160.94 102.083 158.475C100.986 155.924 100.794 153.154 100.613 150.333L100.604 150.184C100.469 148.085 100.325 145.833 99.6073 143.96C98.8109 141.883 97.3137 140.262 94.6603 139.512L94.6394 139.506L94.6183 139.501C91.9471 138.824 89.8414 139.481 88.1147 140.882C86.5585 142.145 85.3083 144.024 84.1435 145.774L84.0608 145.898C82.4946 148.251 80.9442 150.555 78.7206 152.216C76.5721 153.82 73.7021 154.884 69.383 154.482L69.2365 156.056L69.3829 154.482C63.4331 153.929 56.5082 152.283 50.229 149.352C46.6052 147.659 44.0532 145.334 42.4229 142.334C40.7814 139.312 40.0061 135.479 40.1662 130.672L40.2039 129.539L39.1438 129.14C37.508 128.523 36.5132 126.654 37.0142 124.785L41.5459 107.872C42.046 106.005 43.8371 104.885 45.5595 105.164L46.6487 105.34L47.1899 104.379C49.3938 100.463 51.9665 97.8295 54.9722 96.2478C57.9778 94.6661 61.5587 94.0616 65.9073 94.4483M147.496 148.524L147.496 148.524C145.55 154.139 143.154 158.779 139.824 161.864C136.414 165.023 132.142 166.441 126.775 165.816C123.602 165.447 121.471 165.087 119.478 164.532C117.491 163.977 115.688 163.241 113.186 162.176L113.805 160.721C118.813 162.853 120.673 163.514 126.958 164.246C136.842 165.397 142.169 159.063 146.003 148.006C151.052 133.438 148.144 123.364 136.788 118.484C128.031 114.721 114.942 111.181 103.249 108.048C91.5558 104.915 78.4505 101.436 68.9846 100.317C56.7106 98.8648 49.1555 106.135 46.2438 121.276C44.0349 132.768 45.4815 140.917 54.6169 144.862C60.4258 147.371 62.3672 147.728 67.7699 148.386C75.2935 149.302 79.1192 144.839 82.7347 140.621C86.3112 136.449 89.6819 132.517 96.2229 134.269C102.764 136.022 103.717 141.112 104.728 146.514L104.728 146.514C105.75 151.975 106.832 157.753 113.805 160.721L113.186 162.176C105.432 158.875 104.208 152.329 103.201 146.95L103.179 146.832L103.179 146.831L103.174 146.805L103.174 146.805C102.657 144.044 102.201 141.686 101.161 139.78C100.185 137.991 98.664 136.56 95.8137 135.796C92.9634 135.033 90.9307 135.511 89.1904 136.573C87.3373 137.703 85.763 139.518 83.935 141.65L83.8388 141.762C80.2781 145.917 75.9443 150.974 67.5789 149.955C64.8798 149.627 62.9502 149.363 60.952 148.849C58.948 148.334 56.9232 147.58 53.9903 146.313C49.0303 144.172 46.04 140.807 44.6659 136.367C43.3239 132.03 43.5697 126.813 44.6913 120.978L44.6913 120.977C46.1799 113.236 48.8969 107.264 53.0256 103.417C57.2111 99.5172 62.6578 97.9763 69.1703 98.7465C78.7747 99.8825 92.0043 103.399 103.658 106.521C115.312 109.644 128.527 113.214 137.412 117.032C143.438 119.621 147.384 123.679 149.059 129.149C150.711 134.545 150.078 141.076 147.496 148.524Z" fill="black"/>
<path fill-rule="evenodd" clip-rule="evenodd" d="M82.7341 140.621C79.1187 144.839 75.2929 149.302 67.7694 148.386C62.3666 147.729 60.4253 147.372 54.6164 144.862C45.4809 140.918 44.0344 132.769 46.2433 121.276C49.155 106.135 56.7101 98.8651 68.9841 100.317C78.45 101.436 91.5553 104.915 103.248 108.049C114.941 111.182 128.03 114.721 136.788 118.485C148.143 123.365 151.051 133.438 146.002 148.007C142.169 159.064 136.842 165.398 126.958 164.246C120.672 163.515 118.813 162.853 113.805 160.722C106.831 157.753 105.75 151.975 104.728 146.515C103.716 141.113 102.763 136.022 96.2224 134.27C89.6814 132.517 86.3107 136.449 82.7341 140.621ZM96.5975 132.028C90.3875 130.364 84.8012 134.65 81.4881 138.303C80.8792 138.975 80.3228 139.669 79.7769 140.35C77.32 143.415 75.0785 146.211 69.2486 145.446C64.1319 144.774 62.6007 144.508 57.0704 142.183C48.3732 138.528 46.8751 131.256 48.7781 121.07C51.2866 107.65 58.3102 101.305 69.9336 102.793C78.8978 103.941 91.3394 107.246 102.441 110.221C113.506 113.186 125.893 116.533 134.202 120.014C144.975 124.527 147.87 133.529 143.335 146.407C139.892 156.18 134.97 161.731 125.64 160.556C119.706 159.809 117.944 159.193 113.193 157.221C108.989 156.094 108.328 152.039 107.66 147.939C107.509 147.012 107.357 146.082 107.164 145.183C106.128 140.364 102.787 133.687 96.5975 132.028Z" fill="#090909"/>
<path opacity="0.25" fill-rule="evenodd" clip-rule="evenodd" d="M82.7346 140.621C86.3112 136.449 89.6819 132.517 96.2228 134.27C102.764 136.022 103.717 141.113 104.728 146.515C105.75 151.975 106.832 157.753 113.805 160.722C118.813 162.853 120.673 163.515 126.958 164.246C136.842 165.398 142.169 159.064 146.003 148.007C151.052 133.438 148.144 123.365 136.788 118.485C128.031 114.721 114.942 111.182 103.249 108.049C91.5557 104.915 78.4505 101.436 68.9846 100.317C56.7106 98.8651 49.1555 106.135 46.2438 121.276C44.0349 132.769 45.4814 140.918 54.6169 144.862C60.4257 147.372 62.3671 147.729 67.7699 148.386C75.2934 149.302 79.1192 144.839 82.7346 140.621Z" fill="#88C9F9"/>
<path d="M132.529 116.745C130.432 115.962 128.191 115.195 125.835 114.436L104.484 145.568C105.035 148.475 105.531 151.513 106.822 154.226L132.529 116.745ZM103.216 107.976C101.094 107.408 98.9184 106.828 96.7312 106.253L67.8196 148.415C82.6858 150.144 83.0631 130.734 96.1764 134.248C98.1507 134.777 99.5706 135.64 100.682 136.697L117.652 111.953C112.861 110.571 107.93 109.239 103.216 107.976Z" fill="white" fill-opacity="0.25"/>
<path d="M69.2363 156.057C78.6172 156.93 82.2892 151.413 85.3768 146.775L85.3768 146.775C87.8357 143.08 89.924 139.943 94.23 141.034C98.5098 142.244 98.7511 146.005 99.0352 150.434C99.392 155.996 99.8162 162.61 108.388 166.548L96.0383 171.181C94.1859 171.876 92.1624 171.974 90.2513 171.462L82.4731 169.378C80.5601 168.865 78.8555 167.767 77.5984 166.236L69.2363 156.057Z" fill="#3C3C3C"/>
<path fill-rule="evenodd" clip-rule="evenodd" d="M88.0089 148.527C87.9762 148.576 87.9433 148.625 87.9101 148.675C86.4235 150.91 84.4761 153.837 81.5587 156.016C79.8628 157.283 77.8982 158.261 75.5909 158.811L80.0417 164.229C80.8797 165.25 82.0161 165.982 83.2914 166.324L91.0697 168.408C92.3438 168.749 93.6927 168.684 94.9277 168.22L101.502 165.754C99.777 164.124 98.5632 162.295 97.7265 160.35C96.2867 157.003 96.0624 153.493 95.8912 150.815C95.8874 150.755 95.8836 150.696 95.8798 150.637C95.7282 148.274 95.6014 146.762 95.1786 145.659C94.8828 144.887 94.4926 144.403 93.4116 144.088C92.3222 143.822 91.7445 144.045 91.103 144.565C90.19 145.306 89.3278 146.546 88.0251 148.502C88.0197 148.51 88.0143 148.519 88.0089 148.527ZM85.3768 146.775C87.8357 143.08 89.924 139.943 94.23 141.034C98.5098 142.244 98.7511 146.005 99.0352 150.434C99.3353 155.113 99.6832 160.536 104.888 164.484C105.871 165.229 107.027 165.922 108.388 166.548L96.0383 171.181C94.1859 171.876 92.1624 171.974 90.2513 171.462L82.4731 169.378C80.5601 168.865 78.8555 167.767 77.5984 166.236L69.2363 156.057C70.727 156.196 72.0736 156.173 73.2965 156.018C79.7694 155.199 82.7798 150.676 85.3768 146.775Z" fill="#3C3C3C"/>
<path d="M94.2299 141.034C98.5097 142.244 98.751 146.005 99.0351 150.435C99.3919 155.996 101.824 164.789 108.388 166.548L92.7652 169.36C91.3908 169.607 89.7493 169.625 89.1666 168.356C87.1303 163.921 91.3975 150.371 94.2299 141.034Z" fill="black" fill-opacity="0.25"/>
<path d="M125.407 233.665C112.129 230.107 101.662 219.645 98.08 206.359C96.972 202.237 99.4121 197.998 103.534 196.89C107.664 195.78 111.9 198.219 113.007 202.345C115.155 210.318 121.438 216.598 129.408 218.734C141.76 222.043 154.496 214.69 157.806 202.338L199.815 45.5583C200.919 41.4372 205.16 38.9888 209.281 40.093C213.402 41.1972 215.851 45.4381 214.746 49.5591L172.737 206.339C167.222 226.922 145.99 239.18 125.407 233.665Z" fill="#82EB68"/>
<path fill-rule="evenodd" clip-rule="evenodd" d="M95.7903 206.976L95.7899 206.975C94.3421 201.589 97.5304 196.048 102.918 194.6L102.918 194.6C108.31 193.151 113.848 196.336 115.296 201.728C117.225 208.886 122.87 214.527 130.021 216.443C141.108 219.414 152.545 212.811 155.515 201.724L197.524 44.9447C198.967 39.5585 204.509 36.3594 209.895 37.8026C215.281 39.2458 218.48 44.7869 217.037 50.1731L175.028 206.953C169.174 228.801 146.641 241.81 124.793 235.956C110.697 232.179 99.5915 221.078 95.7903 206.976ZM113.007 202.345C111.899 198.219 107.664 195.78 103.534 196.89C99.4121 197.998 96.9719 202.237 98.08 206.359C101.661 219.645 112.129 230.108 125.407 233.665C145.99 239.181 167.222 226.922 172.737 206.339L214.746 49.5593C215.851 45.4382 213.402 41.1974 209.281 40.0932C205.16 38.9889 200.919 41.4374 199.815 45.5584L157.806 202.338C154.496 214.69 141.759 222.044 129.407 218.734C121.438 216.599 115.155 210.318 113.007 202.345Z" fill="black"/>
<path d="M176.958 130.863L191.889 134.864L187.888 149.795L172.957 145.794L176.958 130.863ZM169.956 156.993L184.887 160.994L180.887 175.925L165.955 171.924L169.956 156.993Z" fill="#FFED00"/>
<path fill-rule="evenodd" clip-rule="evenodd" d="M175.281 127.958L194.794 133.187L189.565 152.7L170.053 147.471L175.281 127.958ZM168.28 154.088L187.792 159.317L182.564 178.829L163.051 173.601L168.28 154.088ZM176.958 130.863L172.957 145.794L187.888 149.795L191.889 134.864L176.958 130.863ZM169.956 156.993L165.955 171.924L180.887 175.925L184.888 160.994L169.956 156.993Z" fill="black"/>
<path d="M97.6983 206.257C101.28 219.543 111.747 230.005 125.025 233.563C145.608 239.078 166.84 226.82 172.356 206.237L214.365 49.4571C215.469 45.336 213.02 41.0952 208.899 39.991L164.89 204.236C162.617 212.72 157.799 222.361 148.785 226.222C115.39 236.514 105.324 210.372 103.152 196.788C99.0304 197.896 96.5903 202.135 97.6983 206.257Z" fill="black" fill-opacity="0.25"/>
<path d="M114.785 207.398L99.4138 209.041C95.1878 209.493 91.3589 206.402 90.9069 202.176C90.4549 197.95 93.5453 194.122 97.7713 193.67L113.143 192.027C117.369 191.575 121.198 194.665 121.649 198.891C122.1 203.121 119.011 206.946 114.785 207.398Z" fill="#3C3C3C"/>
<path fill-rule="evenodd" clip-rule="evenodd" d="M114.785 207.398L99.4137 209.041C95.1877 209.493 91.3588 206.402 90.9068 202.176C90.4548 197.95 93.5452 194.121 97.7712 193.669L113.143 192.027C117.369 191.575 121.197 194.665 121.649 198.891C122.1 203.121 119.011 206.946 114.785 207.398ZM112.89 189.669L97.5193 191.311C91.9916 191.903 87.9575 196.9 88.5489 202.428C89.1401 207.956 94.1371 211.99 99.6659 211.399L115.037 209.756C120.565 209.165 124.597 204.172 124.007 198.64L124.007 198.639C123.416 193.111 118.419 189.078 112.89 189.669C112.89 189.669 112.89 189.669 112.89 189.669Z" fill="black"/>
<path d="M114.403 207.296L99.0319 208.939C94.8059 209.391 90.977 206.3 90.525 202.074C90.073 197.848 91.5267 200.128 95.7526 199.676L111.124 198.033C115.35 197.581 120.816 194.563 121.268 198.789C121.719 203.019 118.629 206.844 114.403 207.296Z" fill="black" fill-opacity="0.25"/>
<path d="M152.416 138.608L187.539 148.019C191.334 149.036 193.586 152.937 192.569 156.732L-nan -nanL192.569 156.732C191.552 160.527 187.651 162.78 183.856 161.763L148.733 152.352L152.416 138.608Z" fill="#3C3C3C"/>
<path fill-rule="evenodd" clip-rule="evenodd" d="M187.13 149.546L153.534 140.544L150.67 151.234L184.265 160.236C187.217 161.027 190.251 159.275 191.042 156.323C191.833 153.371 190.081 150.337 187.13 149.546ZM152.416 138.608L148.733 152.352L183.856 161.763C187.651 162.78 191.552 160.527 192.569 156.732C193.586 152.937 191.334 149.036 187.539 148.019L152.416 138.608Z" fill="#3C3C3C"/>
</svg>
