<svg width="240" height="241" viewBox="0 0 240 241" fill="none" xmlns="http://www.w3.org/2000/svg">
<path d="M131.307 240.593C70.8746 240.593 -2.22121e-05 159.667 -1.93152e-05 93.3933C-1.64183e-05 27.1191 70.8746 0.593254 131.307 0.593257C191.739 0.59326 240 89.5191 240 155.793C240 222.067 191.739 240.593 131.307 240.593Z" fill="#DD933C"/>
<path d="M139.699 22.3545L148.794 23.7562L117.525 226.661L108.43 225.26L139.699 22.3545Z" fill="#E40303"/>
<path fill-rule="evenodd" clip-rule="evenodd" d="M147.179 24.9399L140.882 23.9695L110.045 224.076L116.342 225.046L147.179 24.9399ZM139.699 22.3545L108.43 225.26L117.525 226.661L148.794 23.7562L139.699 22.3545Z" fill="black"/>
<path d="M74.0483 25.3921L210.835 46.4718L194.661 151.423L57.8747 130.343L74.0483 25.3921Z" fill="white"/>
<path fill-rule="evenodd" clip-rule="evenodd" d="M72.8647 23.7773L212.45 45.2883L195.845 153.038L56.2598 131.527L72.8647 23.7773ZM75.2321 27.0073L59.4898 129.16L193.477 149.808L209.22 47.6557L75.2321 27.0073Z" fill="black"/>
<rect x="74.0483" y="25.3921" width="7.07933" height="106.19" transform="rotate(8.76075 74.0483 25.3921)" fill="black" fill-opacity="0.25"/>
<path fill-rule="evenodd" clip-rule="evenodd" d="M127.653 62.2463C127.588 62.2609 127.524 62.2739 127.461 62.2854C124.853 62.7551 122.26 63.8322 120.086 65.2127C119.703 65.4559 119.25 65.6118 118.459 65.8397C118.405 65.8552 118.348 65.8712 118.29 65.8879L118.288 65.8885L118.288 65.8885C117.587 66.0882 116.586 66.3736 115.627 66.9076C113.732 67.9632 112.221 69.6729 111.144 70.8912L111.037 71.012C109.146 73.1499 107.121 75.4789 105.67 78.407C104.493 80.7826 104.129 84.1525 104.086 86.3122C104.06 87.5738 104.103 88.8833 104.245 90.2028C103.301 90.3237 102.344 90.4668 101.388 90.6487C99.9565 90.9212 98.4398 91.2798 96.9948 91.6214C96.1505 91.8211 95.3307 92.0149 94.5667 92.1823C93.2058 92.4807 92.3443 93.8258 92.6427 95.1868C92.941 96.5477 94.2861 97.4091 95.6471 97.1108C96.5951 96.903 97.4847 96.6919 98.3506 96.4864L98.352 96.486L98.3527 96.4859C99.6929 96.1677 100.976 95.8631 102.331 95.6053C103.309 95.4191 104.301 95.277 105.318 95.1535C105.375 95.3184 105.434 95.4828 105.496 95.6464C106.136 97.3499 106.881 99.2407 107.918 101L107.96 101.071C108.313 101.669 108.715 102.351 109.173 103.056C108.669 104.225 108.137 105.392 107.594 106.584L107.594 106.584C107.077 107.72 106.549 108.878 106.026 110.081C105.47 111.359 106.055 112.845 107.333 113.4C108.611 113.956 110.097 113.371 110.653 112.093C111.1 111.064 111.584 110.003 112.078 108.917L112.078 108.917C112.332 108.359 112.589 107.795 112.845 107.227C114.305 108.309 115.829 108.857 117.116 109.319C117.265 109.373 117.411 109.425 117.553 109.477C117.904 109.605 118.189 109.737 118.557 109.907L118.557 109.907L118.557 109.907C118.752 109.998 118.97 110.098 119.234 110.215C119.905 110.513 120.761 110.855 121.775 111.011C122.681 111.151 123.604 111.403 124.673 111.709L124.924 111.781C125.888 112.058 126.982 112.372 128.103 112.583C129.819 112.905 131.631 113.026 133.291 113.025C134.068 113.025 134.853 113.061 135.707 113.1L135.772 113.103C136.63 113.142 137.559 113.183 138.498 113.176C141.482 113.156 144.409 111.901 146.84 110.467C146.844 110.482 146.848 110.497 146.851 110.512C147.507 113.15 147.956 115.882 148.417 118.682C148.544 119.453 148.672 120.229 148.805 121.01C149.039 122.384 150.342 123.307 151.716 123.073C153.089 122.839 154.013 121.536 153.778 120.163C153.657 119.449 153.537 118.718 153.415 117.975L153.414 117.974C152.95 115.148 152.457 112.151 151.748 109.296C151.586 108.644 151.393 108.002 151.193 107.385C153.248 105.557 154.884 103.324 156.234 101.419L156.394 101.193C157.61 99.4786 159.055 97.4435 159.927 95.0557C161.339 91.1919 162.068 87.3256 161.844 83.1603C164.883 82.6164 167.89 81.9913 170.864 81.3731L171.556 81.2293C172.087 81.1191 172.585 80.979 173.007 80.858L173.177 80.8092L173.178 80.809L173.178 80.8089C173.511 80.7132 173.791 80.6324 174.072 80.5628L174.123 80.5575C174.172 80.5523 174.25 80.5436 174.339 80.5296C174.629 80.4844 175.62 80.3083 176.302 79.3467C177.107 78.21 176.839 76.6354 175.702 75.8298C174.944 75.2926 173.991 75.2329 173.202 75.5899C173.135 75.6016 173.061 75.6162 172.984 75.6347C172.554 75.7377 172.131 75.8596 171.772 75.9632L171.772 75.9633L171.616 76.0081C171.201 76.1271 170.861 76.2207 170.531 76.2892L169.854 76.4298L169.854 76.4298L169.854 76.4298C166.899 77.0439 163.99 77.6485 161.062 78.1745C160.591 76.5144 159.851 74.8145 158.701 73.4302C157.467 71.9447 156.114 70.6533 154.688 69.4688C153.543 68.5169 152.354 67.6267 151.19 66.7888C150.624 66.3813 150.012 66.0199 149.517 65.7271L149.516 65.7263C149.433 65.6773 149.353 65.6302 149.277 65.5851C148.698 65.2399 148.273 64.969 147.926 64.6775C147.495 64.316 147.014 64.0204 146.529 63.7777C146.455 63.7229 146.376 63.6716 146.295 63.6241C144.484 62.5743 142.586 61.7478 140.57 61.235C140.266 59.9572 139.969 58.6789 139.682 57.3983C139.569 56.8957 139.44 56.3876 139.319 55.9107L139.307 55.8628C139.187 55.3924 139.074 54.9489 138.973 54.5071C138.77 53.6284 138.641 52.8705 138.619 52.1983L138.62 52.1909L138.62 52.1851L138.626 52.13L138.626 52.1283C138.628 52.1131 138.633 52.0624 138.637 52.0066L138.637 52.0051C138.638 51.9896 138.645 51.8813 138.641 51.7495C138.639 51.7078 138.636 51.6332 138.625 51.5406C138.618 51.4756 138.592 51.2665 138.505 51.0129C138.462 50.8872 138.367 50.639 138.174 50.3679C137.984 50.1014 137.57 49.6346 136.849 49.4167C135.249 48.9327 134.262 50.1186 134.188 50.2079L134.185 50.2109C133.97 50.4675 133.859 50.7074 133.83 50.77L133.83 50.7713C133.784 50.8689 133.755 50.9495 133.74 50.9923C133.709 51.0794 133.689 51.1497 133.682 51.1776C133.672 51.2132 133.664 51.2453 133.659 51.2698L133.658 51.2713C133.651 51.2949 133.638 51.3311 133.622 51.3767C133.605 51.4214 133.588 51.4665 133.572 51.5063C133.555 51.5481 133.544 51.5723 133.541 51.578C131.885 55.1777 129.803 58.7073 127.653 62.2463ZM134.438 60.7114C134.705 60.6894 134.976 60.672 135.252 60.6612C135.176 60.3348 135.101 60.0083 135.026 59.6817C134.831 60.0262 134.635 60.3695 134.438 60.7114ZM136.462 65.7055C136.248 65.6969 136.032 65.6931 135.815 65.6944C134.884 65.6997 134.008 65.823 132.899 65.9791C132.846 65.9865 132.792 65.9941 132.738 66.0017C132.67 66.0112 132.601 66.0209 132.531 66.0306C132.113 66.089 131.66 66.2323 130.987 66.4704L130.795 66.7847C128.82 70.022 126.993 73.1732 125.534 76.5103C125.343 76.9471 125.151 77.3861 124.959 77.8266L124.959 77.8269L124.959 77.827C123.798 80.4922 122.611 83.215 121.305 85.8844C121.029 86.4479 120.763 87.013 120.505 87.5801C121.251 87.4116 122 87.2404 122.754 87.068L122.756 87.0675L122.756 87.0675C123.413 86.9172 124.074 86.766 124.741 86.6149C126.854 86.136 128.975 85.7391 131.051 85.3567L131.574 85.2605L131.574 85.2604C133.481 84.9094 135.347 84.5662 137.197 84.1696C138.406 83.9106 139.611 83.6423 140.814 83.3649C139.99 79.7744 139.094 76.1926 138.186 72.5878L137.949 71.6494C137.452 69.6757 136.952 67.6942 136.462 65.7055ZM142.139 67.6231C142.373 68.5571 142.609 69.4922 142.845 70.4291L142.845 70.4293L142.845 70.4299L143.078 71.3552C143.981 74.9371 144.884 78.5449 145.719 82.1805C146.589 81.9611 147.459 81.7369 148.329 81.5081C149.518 81.1954 150.794 80.8148 152.119 80.4197C153.419 80.032 154.766 79.6303 156.123 79.2651C155.804 78.2317 155.37 77.3167 154.82 76.6547C153.827 75.4597 152.709 74.3844 151.464 73.3494C150.443 72.5013 149.358 71.6868 148.243 70.8841C147.876 70.6198 147.486 70.3887 146.984 70.0912L146.983 70.0909C146.891 70.0363 146.795 69.9795 146.695 69.9198C146.101 69.5657 145.367 69.1174 144.681 68.5411C144.515 68.4015 144.117 68.1807 143.453 67.9623C143.023 67.8213 142.567 67.7083 142.139 67.6231ZM156.836 84.2969C155.898 84.5594 154.956 84.8418 153.993 85.1307L153.993 85.1307C152.597 85.5494 151.155 85.9818 149.612 86.3876C148.674 86.6345 147.735 86.8762 146.795 87.1126C147.262 89.4273 147.671 91.74 148.071 94.02L148.127 94.3365C148.574 96.888 149.015 99.3969 149.527 101.887C150.416 100.859 151.263 99.7067 152.117 98.5011C153.454 96.6148 154.552 95.0659 155.188 93.3242C156.299 90.2825 156.882 87.3612 156.836 84.2969ZM145.245 105.519C145.037 104.847 144.844 104.145 144.692 103.422C144.118 100.684 143.636 97.9364 143.162 95.2359L143.102 94.8924C142.711 92.6663 142.323 90.4715 141.886 88.2956C140.679 88.5737 139.469 88.843 138.254 89.1031C136.328 89.5159 134.392 89.8722 132.497 90.2208L132.497 90.2209L131.965 90.3187C129.887 90.7016 127.858 91.082 125.856 91.5357C125.215 91.681 124.572 91.828 123.927 91.9754L123.916 91.978L123.913 91.9788L123.913 91.9788C122.015 92.4128 120.104 92.8501 118.172 93.2577C117.414 95.2717 116.697 97.323 115.962 99.4261L115.962 99.4262L115.962 99.4263C115.793 99.9074 115.624 100.391 115.453 100.878C115.284 101.361 115.106 101.843 114.921 102.324C115.127 102.547 115.338 102.753 115.555 102.938C116.452 103.706 117.364 104.038 118.957 104.618L119.284 104.738C119.84 104.941 120.429 105.213 120.878 105.42C121.03 105.49 121.165 105.553 121.278 105.603C121.815 105.841 122.19 105.97 122.544 106.024C123.803 106.218 125.007 106.556 126.062 106.858L126.272 106.919C127.284 107.209 128.157 107.459 129.034 107.624C130.366 107.874 131.853 107.98 133.29 107.98C134.185 107.98 135.073 108.02 135.895 108.058L136.002 108.062C136.874 108.102 137.675 108.137 138.462 108.131C140.56 108.116 142.965 106.995 145.245 105.519ZM111.483 96.9475C111.787 96.0793 112.092 95.2091 112.404 94.3379C111.764 94.4335 111.125 94.5163 110.492 94.5912C110.812 95.419 111.133 96.2053 111.483 96.9475ZM109.261 89.6538C110.356 89.532 111.421 89.3971 112.477 89.2172C113.145 89.1033 113.809 88.9827 114.472 88.8564C115.174 87.1189 115.931 85.3863 116.773 83.6669C118.026 81.1055 119.163 78.4964 120.327 75.8261L120.329 75.8224L120.333 75.8135C120.524 75.3736 120.717 74.932 120.911 74.4887C121.748 72.5748 122.686 70.7356 123.677 68.9483C123.374 69.1145 123.079 69.2893 122.792 69.4715C121.727 70.148 120.625 70.4664 119.854 70.6883C118.995 70.9357 118.516 71.074 118.082 71.3156C117.014 71.9102 116.03 72.9829 114.816 74.355C112.901 76.5206 111.307 78.3941 110.191 80.6467C109.523 81.9958 109.17 84.446 109.13 86.4149C109.108 87.5055 109.147 88.5931 109.261 89.6538Z" fill="#FA0909"/>
</svg>
