<svg width="246" height="240" viewBox="0 0 246 240" fill="none" xmlns="http://www.w3.org/2000/svg">
<path d="M243 122.988C243 185.396 162.074 240 95.8 240C29.5258 240 3 185.396 3 122.988C3 60.579 29.5258 0 95.8 0C162.074 0 243 60.579 243 122.988Z" fill="#FFED00"/>
<g filter="url(#filter0_d_937_26684)">
<path d="M227.002 148.581C227.002 159.216 180.18 167.838 122.422 167.838C64.6646 167.838 17.8428 159.216 17.8428 148.581C17.8428 137.946 64.6646 129.324 122.422 129.324C180.18 129.324 227.002 137.946 227.002 148.581Z" fill="black" fill-opacity="0.25"/>
<path fill-rule="evenodd" clip-rule="evenodd" d="M60.5356 42.2059C61.6766 39.107 66.0469 39.0585 67.2401 42.1315L74.0086 59.5632C75.1967 62.6231 78.7072 64.0486 81.7726 62.8666C94.7172 57.8751 109.079 55.0973 124.2 55.0973C138.835 55.0973 152.759 57.6995 165.375 62.3924C168.467 63.5424 171.973 62.058 173.111 58.9655L179.254 42.2815C180.395 39.1827 184.765 39.1342 185.959 42.2072L202.699 85.3207C202.983 86.052 203.416 86.7159 203.961 87.2809C215.818 99.5743 223.867 114.656 226.564 131.203C226.942 133.526 228.596 135.451 230.84 136.168C238.603 138.648 242.974 141.464 243 144.471C243.09 154.989 189.975 163.853 124.363 164.268C58.752 164.683 5.49027 156.493 5.40002 145.975C5.37421 142.967 9.6997 140.094 17.4244 137.516C19.6674 136.767 21.2998 134.809 21.6405 132.472C24.0133 116.189 31.5611 101.28 42.8313 88.9896C43.3517 88.4221 43.7626 87.7621 44.0285 87.04L60.5356 42.2059Z" fill="#3C3C3C"/>
<path fill-rule="evenodd" clip-rule="evenodd" d="M63.4877 42.8369C63.3991 42.896 63.3 42.9943 63.2264 43.1942L46.7193 88.0283C46.3183 89.1173 45.7052 90.0952 44.9456 90.9236C34.0252 102.833 26.7598 117.223 24.4775 132.884C23.9817 136.286 21.6075 139.139 18.3331 140.232C14.5759 141.486 11.8585 142.746 10.1402 143.937C8.30858 145.206 8.26662 145.92 8.26688 145.95C8.26704 145.969 8.28565 146.518 9.59968 147.532C10.8638 148.508 12.902 149.569 15.7989 150.645C21.5618 152.786 30.0566 154.747 40.7475 156.391C62.084 159.672 91.6431 161.611 124.345 161.404C157.047 161.197 186.57 158.884 207.847 155.334C218.509 153.555 226.968 151.486 232.693 149.273C235.57 148.16 237.588 147.074 238.834 146.084C240.127 145.056 240.133 144.512 240.133 144.496C240.133 144.462 240.074 143.744 238.22 142.497C236.481 141.327 233.742 140.101 229.966 138.895C226.69 137.849 224.285 135.044 223.734 131.663C221.14 115.747 213.391 101.185 201.897 89.2675C201.101 88.4426 200.454 87.4589 200.026 86.3561L183.286 43.2426L185.959 42.2072L202.699 85.3207C202.983 86.052 203.416 86.716 203.961 87.2809C215.818 99.5743 223.867 114.656 226.564 131.203C226.942 133.526 228.596 135.451 230.84 136.168C238.603 138.648 242.974 141.464 243 144.471C243.09 154.989 189.975 163.853 124.363 164.268C58.752 164.683 5.49027 156.493 5.40002 145.975C5.37421 142.967 9.6997 140.094 17.4244 137.516C19.6674 136.767 21.2998 134.809 21.6405 132.472C24.0133 116.189 31.5611 101.28 42.8313 88.9896C43.3517 88.4221 43.7626 87.7621 44.0285 87.04L60.5356 42.2059C61.6766 39.107 66.0469 39.0585 67.2401 42.1315L74.0086 59.5632C75.1967 62.6231 78.7072 64.0486 81.7726 62.8666C94.7172 57.8751 109.079 55.0973 124.2 55.0973C138.835 55.0973 152.759 57.6995 165.375 62.3924C168.467 63.5424 171.973 62.058 173.111 58.9655L179.254 42.2815C180.395 39.1827 184.765 39.1342 185.959 42.2072L183.286 43.2426C183.21 43.0477 183.112 42.9555 183.027 42.901C182.926 42.8367 182.784 42.7914 182.619 42.7933C182.453 42.7951 182.31 42.8436 182.206 42.9126C182.118 42.9717 182.019 43.0699 181.945 43.2699L175.802 59.9539C174.081 64.6287 168.859 66.7439 164.375 65.0759C152.08 60.5025 138.494 57.9609 124.2 57.9609C109.431 57.9609 95.419 60.674 82.8051 65.5379C78.359 67.2524 73.1317 65.2243 71.3356 60.5986L64.5671 43.1669C64.4915 42.9721 64.3937 42.8798 64.3081 42.8254C64.2071 42.761 64.0654 42.7158 63.9001 42.7176C63.7348 42.7194 63.5913 42.7679 63.4877 42.8369Z" fill="black"/>
<path fill-rule="evenodd" clip-rule="evenodd" d="M215.575 138.542C221.127 137.108 224.623 135.558 226.212 134.064L228.187 136.118C226.016 138.158 221.865 139.846 216.299 141.283C210.653 142.741 203.287 144.002 194.431 145.036C176.713 147.106 152.898 148.285 124.658 148.285C96.4288 148.285 72.4179 147.359 54.6512 145.459C45.7722 144.509 38.4098 143.311 32.8437 141.849C30.0609 141.119 27.6915 140.313 25.7914 139.421C23.9104 138.538 22.3832 137.522 21.3979 136.319L23.6263 134.537C24.2247 135.268 25.3144 136.061 27.0208 136.862C28.7081 137.654 30.8966 138.407 33.5796 139.111C38.9451 140.52 46.1457 141.699 54.9596 142.642C72.5788 144.527 96.4735 145.452 124.658 145.452C152.832 145.452 176.526 144.275 194.095 142.223C202.882 141.196 210.105 139.954 215.575 138.542Z" fill="black"/>
<path d="M123.356 57.0371C70.848 57.0371 210.164 62.2624 193.781 121.162C191.148 130.63 197.057 141.779 206.795 140.478C212.163 139.761 217.651 139.087 223.918 138.689C225.105 138.614 226.098 137.728 226.216 136.544C229.894 99.5033 180.726 57.0371 123.356 57.0371Z" fill="black" fill-opacity="0.25"/>
<path opacity="0.5" d="M227.401 137.027C188.627 148.391 226.605 148.563 197.376 157.172C202.678 157.172 226.79 154.318 240.794 146.287C241.143 146.087 241.45 145.805 241.608 145.433C243.177 141.748 235.56 140.642 227.401 137.027Z" fill="black" fill-opacity="0.25"/>
<path opacity="0.5" d="M22.0274 138.212C30.9709 144.185 38.9207 140.203 32.9584 154.803C26.8484 154.03 12.9768 150.81 9.33991 146.885C8.86886 146.377 8.82782 145.626 9.23007 145.065C11.7436 141.558 19.09 141.584 22.0274 138.212Z" fill="white" fill-opacity="0.25"/>
<path opacity="0.5" d="M79.6508 66.3477C103.656 58.712 24.3604 95.1935 36.363 139.989C29.8698 138.802 26.7216 137.274 24.3604 135.408C28.886 96.2116 63.996 72.6411 79.6508 66.3477Z" fill="white" fill-opacity="0.25"/>
<path d="M93.9815 87.2554C101.017 87.2554 106.721 81.1539 106.721 73.6274C98.1761 88.2093 83.728 79.8963 81.2423 73.6274C81.2423 81.1539 86.9458 87.2554 93.9815 87.2554Z" fill="#FFED00"/>
<path fill-rule="evenodd" clip-rule="evenodd" d="M106.721 73.6274C106.185 74.5422 105.625 75.3669 105.047 76.1077C97.712 85.5064 87.3464 81.3897 82.9614 76.3361C82.1833 75.4393 81.5934 74.513 81.2423 73.6274C81.2423 74.7891 81.3782 75.9167 81.6338 76.9933C83.0346 82.892 88.0317 87.2554 93.9815 87.2554C100.023 87.2554 105.083 82.7561 106.391 76.7188C106.607 75.7256 106.721 74.6907 106.721 73.6274ZM103.925 79.4268C102.702 80.5267 101.412 81.3645 100.08 81.9666C97.1671 83.2839 94.1643 83.423 91.4143 82.8504C88.6761 82.2803 86.1708 81.003 84.1816 79.4517C84.1089 79.395 84.0368 79.3379 83.9652 79.2802C85.8686 83.197 89.6829 85.8211 93.9815 85.8211C98.2262 85.8211 101.999 83.2624 103.925 79.4268Z" fill="black"/>
<path d="M83.02 101.477C83.02 103.733 82.5756 105.967 81.712 108.052C80.8485 110.137 79.5828 112.031 77.9872 113.627C76.3916 115.222 74.4974 116.488 72.4126 117.352C70.3279 118.215 68.0935 118.66 65.837 118.66C63.5805 118.66 61.346 118.215 59.2613 117.352C57.1766 116.488 55.2823 115.222 53.6867 113.627C52.0911 112.031 50.8254 110.137 49.9619 108.052C49.0984 105.967 48.6539 103.733 48.6539 101.477L65.837 101.477H83.02Z" fill="#FFED00"/>
<path fill-rule="evenodd" clip-rule="evenodd" d="M84.7975 99.6992V101.128C84.7975 103.587 84.3067 106.022 83.3533 108.293C82.3999 110.564 81.0026 112.628 79.2416 114.365C77.4806 116.103 75.3904 117.481 73.0905 118.421C70.7907 119.361 68.3259 119.845 65.8369 119.845C63.348 119.845 60.8832 119.361 58.5833 118.421C56.2835 117.481 54.1933 116.103 52.4323 114.365C50.6713 112.628 49.274 110.564 48.3206 108.293C47.3672 106.022 46.8763 103.587 46.8763 101.128L46.8763 99.6992L84.7975 99.6992ZM48.3776 102.558C48.3377 102.083 48.3176 101.606 48.3176 101.128L83.3563 101.128C83.3563 101.606 83.3362 102.083 83.2963 102.558C83.1466 104.338 82.7178 106.088 82.0227 107.744C81.1422 109.841 79.8518 111.747 78.225 113.352C76.5981 114.958 74.6668 116.231 72.5413 117.1C70.4157 117.968 68.1376 118.416 65.8369 118.416C63.5363 118.416 61.2581 117.968 59.1326 117.1C57.0071 116.231 55.0757 114.958 53.4489 113.352C51.8221 111.747 50.5316 109.841 49.6512 107.744C48.9561 106.088 48.5273 104.338 48.3776 102.558Z" fill="black"/>
<path d="M78.28 101.477C78.28 103.111 77.9581 104.729 77.3328 106.238C76.7075 107.748 75.7909 109.12 74.6355 110.275C73.4801 111.43 72.1084 112.347 70.5987 112.972C69.0891 113.598 67.4711 113.919 65.8371 113.919C64.203 113.919 62.585 113.598 61.0754 112.972C59.5657 112.347 58.194 111.43 57.0386 110.275C55.8832 109.12 54.9666 107.748 54.3413 106.238C53.716 104.729 53.3942 103.111 53.3942 101.477L65.8371 101.477H78.28Z" fill="#090909"/>
<path fill-rule="evenodd" clip-rule="evenodd" d="M80.0574 99.6992V101.126C80.0574 102.963 79.6891 104.781 78.9739 106.478C78.2587 108.174 77.2106 109.715 75.8898 111.013C74.569 112.311 73.0013 113.34 71.2765 114.042C69.5517 114.744 67.7034 115.105 65.8369 115.105C63.9704 115.105 62.1221 114.744 60.3973 114.042C58.6725 113.34 57.1049 112.311 55.784 111.013C54.4632 109.715 53.4151 108.174 52.6999 106.478C51.9847 104.781 51.6165 102.963 51.6165 101.126L51.6165 99.6992L80.0574 99.6992ZM53.1444 102.553C53.0893 102.08 53.0616 101.604 53.0616 101.126L78.6122 101.126C78.6122 101.604 78.5845 102.08 78.5294 102.553C78.3945 103.711 78.0957 104.848 77.6398 105.929C76.9977 107.452 76.0567 108.836 74.8704 110.002C73.6841 111.167 72.2758 112.092 70.7258 112.722C69.1758 113.353 67.5146 113.678 65.8369 113.678C64.1592 113.678 62.498 113.353 60.948 112.722C59.398 112.092 57.9897 111.167 56.8034 110.002C55.6171 108.836 54.6761 107.452 54.0341 105.929C53.5781 104.848 53.2793 103.711 53.1444 102.553Z" fill="black"/>
<path fill-rule="evenodd" clip-rule="evenodd" d="M87.5196 100.829C87.1653 101.006 86.6987 100.883 86.4775 100.555L83.3377 95.8954C83.1164 95.5671 83.2243 95.1579 83.5786 94.9814C83.9329 94.8048 84.3995 94.9278 84.6207 95.2561L87.7606 99.9153C87.9818 100.244 87.8739 100.653 87.5196 100.829Z" fill="black"/>
<path d="M136.939 100.883C136.939 103.218 136.487 105.529 135.609 107.686C134.73 109.842 133.443 111.802 131.82 113.453C130.197 115.103 128.27 116.412 126.149 117.306C124.028 118.199 121.755 118.659 119.46 118.659C117.164 118.659 114.892 118.199 112.771 117.306C110.65 116.412 108.723 115.103 107.1 113.453C105.477 111.802 104.19 109.842 103.311 107.686C102.433 105.529 101.981 103.218 101.981 100.883L119.46 100.883H136.939Z" fill="#FFED00"/>
<path fill-rule="evenodd" clip-rule="evenodd" d="M138.124 99.6982V101.127C138.124 103.586 137.633 106.021 136.68 108.292C135.727 110.564 134.329 112.627 132.568 114.364C130.807 116.102 128.717 117.48 126.417 118.42C124.117 119.36 121.653 119.844 119.164 119.844C116.675 119.844 114.21 119.36 111.91 118.42C109.61 117.48 107.52 116.102 105.759 114.364C103.998 112.627 102.601 110.564 101.647 108.292C100.694 106.021 100.203 103.586 100.203 101.127L100.203 99.6982L138.124 99.6982ZM101.704 102.557C101.664 102.082 101.644 101.605 101.644 101.127L136.683 101.127C136.683 101.605 136.663 102.082 136.623 102.557C136.473 104.337 136.044 106.087 135.349 107.743C134.469 109.84 133.178 111.746 131.552 113.351C129.925 114.957 127.993 116.23 125.868 117.099C123.742 117.968 121.464 118.415 119.164 118.415C116.863 118.415 114.585 117.968 112.459 117.099C110.334 116.23 108.402 114.957 106.776 113.351C105.149 111.746 103.858 109.84 102.978 107.743C102.283 106.087 101.854 104.337 101.704 102.557Z" fill="black"/>
<path d="M132.199 100.883C132.199 102.595 131.87 104.29 131.229 105.872C130.589 107.453 129.651 108.89 128.468 110.101C127.285 111.311 125.881 112.271 124.335 112.926C122.789 113.582 121.133 113.919 119.46 113.919C117.787 113.919 116.13 113.582 114.585 112.926C113.039 112.271 111.635 111.311 110.452 110.101C109.269 108.89 108.331 107.453 107.69 105.872C107.05 104.29 106.721 102.595 106.721 100.883L119.46 100.883H132.199Z" fill="#090909"/>
<path fill-rule="evenodd" clip-rule="evenodd" d="M133.384 99.6982V101.125C133.384 102.962 133.016 104.78 132.301 106.477C131.585 108.173 130.537 109.714 129.216 111.012C127.896 112.31 126.328 113.339 124.603 114.041C122.878 114.743 121.03 115.104 119.164 115.104C117.297 115.104 115.449 114.743 113.724 114.041C111.999 113.339 110.432 112.31 109.111 111.012C107.79 109.714 106.742 108.173 106.027 106.477C105.311 104.78 104.943 102.962 104.943 101.125L104.943 99.6982L133.384 99.6982ZM106.471 102.552C106.416 102.079 106.388 101.603 106.388 101.125L131.939 101.125C131.939 101.603 131.911 102.079 131.856 102.552C131.721 103.71 131.422 104.847 130.966 105.928C130.324 107.451 129.383 108.835 128.197 110.001C127.011 111.166 125.602 112.091 124.052 112.721C122.502 113.352 120.841 113.677 119.164 113.677C117.486 113.677 115.825 113.352 114.275 112.721C112.725 112.091 111.316 111.166 110.13 110.001C108.944 108.835 108.003 107.451 107.361 105.928C106.905 104.847 106.606 103.71 106.471 102.552Z" fill="black"/>
<path fill-rule="evenodd" clip-rule="evenodd" d="M97.1438 100.83C97.4983 101.006 97.9646 100.883 98.1853 100.554L101.316 95.8907C101.537 95.562 101.429 95.1529 101.074 94.9769C100.719 94.8009 100.253 94.9246 100.032 95.2533L96.9013 99.9165C96.6807 100.245 96.7892 100.654 97.1438 100.83Z" fill="black"/>
<path d="M96.6478 118.555C96.6478 120.191 93.0665 122.214 88.6488 122.214C84.2311 122.214 80.6498 120.191 80.6498 118.555C80.6498 116.918 84.2311 116.289 88.6488 116.289C93.0665 116.289 96.6478 116.918 96.6478 118.555Z" fill="#3C3C3C"/>
<path fill-rule="evenodd" clip-rule="evenodd" d="M95.1028 118.656C94.8913 118.528 94.5251 118.375 93.9582 118.233C92.6793 117.913 90.816 117.756 88.6488 117.756C86.4815 117.756 84.6183 117.913 83.3393 118.233C82.7725 118.375 82.4063 118.528 82.1947 118.656C82.225 118.694 82.2639 118.739 82.3138 118.791C82.5686 119.055 83.0012 119.372 83.6236 119.677C84.862 120.285 86.6442 120.747 88.6488 120.747C90.6533 120.747 92.4356 120.285 93.674 119.677C94.2964 119.372 94.7289 119.055 94.9838 118.791C95.0336 118.739 95.0726 118.694 95.1028 118.656ZM88.6488 122.214C93.0665 122.214 96.6478 120.191 96.6478 118.555C96.6478 116.918 93.0665 116.289 88.6488 116.289C84.2311 116.289 80.6498 116.918 80.6498 118.555C80.6498 120.191 84.2311 122.214 88.6488 122.214Z" fill="#3C3C3C"/>
<path d="M91.3153 119.133C91.3153 119.903 89.5321 121.029 87.588 121.029C85.9785 121.029 83.628 120.313 82.6314 119.473C82.2803 119.177 82.4014 118.813 82.8511 118.704C83.7755 118.48 85.5223 118.188 86.9668 118.067C88.9109 118.067 91.3153 118.363 91.3153 119.133Z" fill="white" fill-opacity="0.25"/>
<path fill-rule="evenodd" clip-rule="evenodd" d="M87.4266 121.228C87.7813 121.404 87.8899 121.813 87.6694 122.142L82.528 129.805C82.3074 130.133 81.8411 130.257 81.4865 130.081C81.1319 129.905 81.0232 129.496 81.2438 129.168L86.3852 121.505C86.6058 121.176 87.072 121.052 87.4266 121.228Z" fill="black"/>
<path fill-rule="evenodd" clip-rule="evenodd" d="M96.0465 130.081C95.692 130.257 95.2257 130.133 95.005 129.804L89.8607 122.143C89.64 121.814 89.7486 121.405 90.1031 121.229C90.4577 121.053 90.924 121.177 91.1447 121.506L96.289 129.167C96.5096 129.496 96.4011 129.905 96.0465 130.081Z" fill="black"/>
</g>
<defs>
<filter id="filter0_d_937_26684" x="0.399902" y="39.854" width="245.6" height="138.984" filterUnits="userSpaceOnUse" color-interpolation-filters="sRGB">
<feFlood flood-opacity="0" result="BackgroundImageFix"/>
<feColorMatrix in="SourceAlpha" type="matrix" values="0 0 0 0 0 0 0 0 0 0 0 0 0 0 0 0 0 0 127 0" result="hardAlpha"/>
<feOffset dx="-1" dy="7"/>
<feGaussianBlur stdDeviation="2"/>
<feComposite in2="hardAlpha" operator="out"/>
<feColorMatrix type="matrix" values="0 0 0 0 0 0 0 0 0 0 0 0 0 0 0 0 0 0 0.25 0"/>
<feBlend mode="normal" in2="BackgroundImageFix" result="effect1_dropShadow_937_26684"/>
<feBlend mode="normal" in="SourceGraphic" in2="effect1_dropShadow_937_26684" result="shape"/>
</filter>
</defs>
</svg>
