<svg width="240" height="240" viewBox="0 0 240 240" fill="none" xmlns="http://www.w3.org/2000/svg">
<path d="M240 108.693C209.5 184.5 192.5 240 92.8 240C26.5258 240 0 169.125 0 108.693C0 48.2606 64 0 155.2 0C221.474 0 240 48.2606 240 108.693Z" fill="#9F50FF"/>
<path fill-rule="evenodd" clip-rule="evenodd" d="M214.975 115.658C214.975 131.628 210.743 146.649 203.295 159.748C202.435 161.261 202.572 163.129 203.295 164.712C204.758 167.916 205.304 172.11 204.588 176.544C203.982 180.293 202.57 183.616 200.695 186.142C199.999 187.079 199.586 188.209 199.587 189.377C199.587 189.388 199.587 189.4 199.587 189.412C199.587 196.045 197.291 201.422 194.458 201.422C191.871 201.422 189.731 196.936 189.379 191.104C189.358 190.755 189.157 190.454 188.848 190.292C188.053 189.876 186.742 190.533 186.76 191.429C186.763 191.578 186.764 191.727 186.764 191.876C186.764 200.89 181.382 208.197 174.743 208.197C170.981 208.197 167.624 205.852 165.419 202.181C164.037 199.877 161.165 198.523 158.705 199.601C158.665 199.618 158.626 199.635 158.587 199.652C157.296 200.215 156.37 201.367 155.938 202.708C153.632 209.868 147.635 214.972 140.601 214.972C136.106 214.972 132.035 212.888 129.079 209.515C128.057 208.348 126.593 207.603 125.044 207.698C122.98 207.825 120.898 207.889 118.801 207.889C110.076 207.889 101.622 206.775 93.586 204.687C90.9997 204.015 88.3282 205.901 86.5777 207.92C84.9606 209.785 82.5472 210.969 79.8511 210.969C75.7556 210.969 72.3123 208.237 71.3218 204.535C71.0746 203.612 70.0679 202.962 69.1117 202.962C65.9248 202.962 63.3413 199.998 63.3413 196.341C63.3413 195.081 63.6483 193.902 64.1813 192.899C64.4604 192.374 64.3498 191.695 63.8554 191.365C63.279 190.979 62.4883 191.26 62.1667 191.875C61.1044 193.904 59.1566 195.263 56.9297 195.263C53.5657 195.263 50.8387 192.161 50.8387 188.334C50.8387 186.545 51.4347 184.915 52.4132 183.685C52.7348 183.281 52.7328 182.683 52.3521 182.334C51.8663 181.889 51.0743 182.105 50.8528 182.726C49.186 187.399 46.3425 190.477 43.115 190.477C37.9805 190.477 33.8182 182.687 33.8182 173.078C33.8182 169.894 34.2752 166.909 35.0733 164.342C35.4779 163.041 35.3874 161.616 34.7035 160.438C27.0101 147.178 22.6277 131.909 22.6277 115.658C22.6277 64.7205 65.6861 23.4272 118.801 23.4272C171.917 23.4272 214.975 64.7205 214.975 115.658Z" fill="#FF7DEA"/>
<path fill-rule="evenodd" clip-rule="evenodd" d="M219.203 115.658C219.203 132.386 214.767 148.125 206.971 161.837C206.967 161.844 206.924 161.918 206.928 162.12C206.932 162.334 206.992 162.63 207.14 162.956C208.997 167.023 209.591 172.079 208.761 177.218C208.057 181.579 206.402 185.548 204.089 188.662C203.876 188.949 203.815 189.208 203.815 189.371L203.815 189.412C203.815 193.159 203.175 196.751 201.973 199.565C201.375 200.964 200.556 202.367 199.43 203.482C198.286 204.615 196.601 205.65 194.458 205.65C191.809 205.65 189.925 204.164 188.663 202.542C188.087 203.751 187.413 204.885 186.647 205.924C183.885 209.674 179.724 212.425 174.743 212.425C169.084 212.425 164.524 208.902 161.795 204.357C161.563 203.97 161.2 203.673 160.861 203.534C160.552 203.407 160.423 203.463 160.401 203.473L160.4 203.473L160.277 203.527C160.268 203.531 160.226 203.551 160.163 203.625C160.096 203.704 160.018 203.83 159.962 204.004C157.212 212.542 149.831 219.2 140.601 219.2C134.739 219.2 129.554 216.472 125.9 212.302C125.747 212.128 125.591 212.02 125.473 211.965C125.363 211.914 125.309 211.917 125.303 211.918C123.153 212.05 120.985 212.117 118.801 212.117C109.715 212.117 100.904 210.956 92.5227 208.778C92.5208 208.778 92.515 208.776 92.4994 208.776C92.4825 208.775 92.4456 208.776 92.385 208.787C92.2576 208.81 92.0432 208.874 91.745 209.031C91.1209 209.361 90.41 209.953 89.7718 210.689C87.3739 213.455 83.8063 215.196 79.8511 215.196C74.3919 215.196 69.6568 211.878 67.7269 207.092C63.464 206.481 60.4533 203.083 59.4652 199.155C58.6634 199.373 57.8154 199.491 56.9297 199.491C52.694 199.491 49.4263 196.908 47.7832 193.474C46.409 194.232 44.8434 194.704 43.115 194.704C38.2305 194.704 34.7867 191.068 32.8125 187.373C30.7422 183.499 29.5906 178.437 29.5906 173.078C29.5906 169.501 30.1026 166.091 31.0363 163.087C31.1388 162.757 31.0594 162.581 31.0468 162.559C22.9933 148.679 18.4001 132.681 18.4001 115.658C18.4001 62.2206 63.5198 19.1997 118.801 19.1997C174.083 19.1997 219.203 62.2206 219.203 115.658ZM46.6421 189.181C45.5544 190.016 44.3634 190.477 43.115 190.477C37.9805 190.477 33.8182 182.687 33.8182 173.078C33.8182 169.894 34.2753 166.909 35.0733 164.342C35.4779 163.041 35.3874 161.616 34.7035 160.438C27.0102 147.178 22.6277 131.909 22.6277 115.658C22.6277 64.7205 65.6861 23.4273 118.801 23.4273C171.917 23.4273 214.975 64.7205 214.975 115.658C214.975 131.628 210.743 146.649 203.295 159.748C202.435 161.261 202.572 163.129 203.295 164.712C204.758 167.916 205.304 172.11 204.588 176.544C203.982 180.293 202.57 183.616 200.695 186.142C199.999 187.079 199.586 188.209 199.587 189.377L199.587 189.412C199.587 196.045 197.291 201.422 194.458 201.422C192.857 201.422 191.427 199.704 190.486 197.012C190.167 196.098 189.904 195.071 189.709 193.96C189.593 193.293 189.501 192.596 189.437 191.876C189.422 191.711 189.409 191.545 189.397 191.377C189.391 191.286 189.385 191.195 189.379 191.104C189.358 190.755 189.157 190.454 188.848 190.292C188.104 189.903 186.907 190.453 186.772 191.261C186.763 191.316 186.759 191.372 186.76 191.429C186.763 191.578 186.764 191.727 186.764 191.876C186.764 192.566 186.733 193.246 186.671 193.914C186.568 195.047 186.378 196.143 186.112 197.191C184.488 203.596 180.011 208.197 174.743 208.197C170.981 208.197 167.624 205.852 165.419 202.181C164.037 199.877 161.165 198.523 158.705 199.601L158.587 199.652C157.296 200.215 156.37 201.367 155.938 202.708C153.632 209.868 147.635 214.972 140.601 214.972C136.106 214.972 132.035 212.888 129.079 209.515C128.057 208.348 126.593 207.603 125.044 207.698C122.98 207.825 120.898 207.889 118.801 207.889C110.076 207.889 101.622 206.775 93.586 204.687C90.9997 204.015 88.3282 205.901 86.5777 207.92C84.9606 209.785 82.5472 210.969 79.8511 210.969C75.7556 210.969 72.3123 208.237 71.3218 204.535C71.0746 203.612 70.0679 202.962 69.1117 202.962C66.134 202.962 63.6831 200.374 63.3742 197.052C63.3524 196.818 63.3413 196.581 63.3413 196.341C63.3413 196.026 63.3605 195.716 63.3976 195.412C63.5078 194.512 63.776 193.669 64.1688 192.923C64.173 192.915 64.1771 192.907 64.1813 192.899C64.4604 192.374 64.3499 191.695 63.8554 191.365C63.2903 190.987 62.5192 191.25 62.1861 191.839C62.1795 191.851 62.173 191.863 62.1667 191.875C61.7515 192.668 61.2011 193.359 60.5515 193.906C60.1436 194.25 59.6967 194.537 59.2196 194.757C58.5127 195.083 57.7397 195.263 56.9297 195.263C54.2824 195.263 52.0296 193.342 51.1898 190.659C50.9625 189.932 50.8387 189.15 50.8387 188.334C50.8387 187.619 50.934 186.929 51.111 186.28C51.3766 185.305 51.826 184.423 52.4132 183.685C52.495 183.583 52.5558 183.467 52.5949 183.347C52.7093 182.993 52.636 182.595 52.3522 182.334C51.9235 181.941 51.2565 182.063 50.9534 182.523C50.9129 182.585 50.8789 182.652 50.8528 182.726C50.5572 183.554 50.2245 184.333 49.8592 185.053C49.7748 185.22 49.6886 185.383 49.6007 185.544C49.0022 186.634 48.3255 187.575 47.5878 188.334C47.2826 188.649 46.9669 188.931 46.6421 189.181Z" fill="#090909"/>
<path fill-rule="evenodd" clip-rule="evenodd" d="M120.788 30.0233C70.5006 30.0233 29.8849 69.8771 29.8849 118.856C29.8849 121.045 28.1105 122.819 25.9216 122.819C23.7327 122.819 21.9583 121.045 21.9583 118.856C21.9583 65.3354 66.2886 22.0967 120.788 22.0967C122.977 22.0967 124.751 23.8711 124.751 26.06C124.751 28.2489 122.977 30.0233 120.788 30.0233Z" fill="white" fill-opacity="0.25"/>
<path fill-rule="evenodd" clip-rule="evenodd" d="M158.663 199.71C158.634 199.675 158.585 199.663 158.544 199.682C158.531 199.688 158.517 199.694 158.503 199.7C158.465 199.718 158.435 199.75 158.419 199.789C158.165 200.445 157.713 201.141 157.049 201.99C156.546 202.634 156.223 203.397 156.053 204.197C155.711 205.811 155.09 207.36 154.213 208.78C153.115 210.557 151.641 212.09 149.888 213.277C148.135 214.465 146.142 215.28 144.041 215.669C141.939 216.058 139.777 216.012 137.695 215.535C135.613 215.058 133.659 214.16 131.96 212.9C130.262 211.64 128.859 210.046 127.841 208.224C127.744 208.049 127.553 207.946 127.354 207.964C124.507 208.227 121.639 208.362 118.757 208.362C110.031 208.362 101.567 207.14 93.5163 204.907C90.9395 204.192 88.2336 206.035 86.4493 208.026C84.8335 209.83 82.4608 210.969 79.8161 210.969C75.7491 210.969 72.3254 208.276 71.3079 204.613C71.0341 203.628 69.9445 202.928 68.9218 202.928C65.6463 202.928 62.9911 199.926 62.9911 196.224C62.9911 195.646 62.0345 195.074 61.5253 195.346C60.4787 195.907 59.2867 196.224 58.0219 196.224C53.8612 196.224 50.4883 192.793 50.4883 188.562C50.4883 188.46 50.3684 188.401 50.2883 188.464C48.4852 189.882 46.3201 190.653 45.0449 190.772C44.8278 190.792 44.6089 190.818 44.3946 190.858C37.9734 192.062 32.8566 182.181 32.8566 173.675C32.8566 171.31 32.947 169.466 33.1979 168.035C33.6952 165.197 34.8754 161.217 33.4231 158.729C27.5721 148.705 23.8092 137.916 22.6667 127.113C22.4323 124.897 25.1309 123.946 26.4755 125.723C26.6794 125.993 26.8241 126.314 26.8971 126.644C46.2273 213.962 159.854 218.216 207.68 125.122C209.712 121.168 215.297 122.178 214.784 126.595C213.399 138.528 209.407 149.804 203.423 159.953C202.542 161.448 202.645 163.312 203.344 164.9C204.744 168.079 205.255 172.197 204.553 176.545C203.947 180.294 202.535 183.617 200.66 186.143C199.964 187.08 199.551 188.21 199.552 189.377C199.552 189.389 199.552 189.401 199.552 189.413C199.552 196.046 197.256 201.423 194.423 201.423C191.835 201.423 189.694 196.933 189.344 191.099C189.323 190.753 189.124 190.456 188.818 190.295C188.026 189.882 186.71 190.546 186.729 191.439C186.733 191.596 186.734 191.755 186.734 191.914C186.734 200.994 181.065 208.355 174.072 208.355C170.473 208.355 168.668 206.58 166.65 204.596C164.751 202.729 162.664 200.676 158.716 199.743C158.695 199.738 158.676 199.726 158.663 199.71Z" fill="black" fill-opacity="0.25"/>
</svg>
