<svg width="240" height="240" viewBox="0 0 240 240" fill="none" xmlns="http://www.w3.org/2000/svg">
<path d="M236.748 106.622C236.748 167.871 190.769 240 125.042 240C59.315 240 3.09375 150.844 3.09375 89.5946C3.09375 28.3456 59.1849 0 124.912 0C190.639 0 236.748 45.3726 236.748 106.622Z" fill="#55EAAB"/>
<g filter="url(#filter0_d_937_26701)">
<path d="M146.517 190.255C144.104 197.597 136.353 201.54 129.205 199.061C122.056 196.582 118.218 188.621 120.631 181.278C123.045 173.936 130.796 169.993 137.944 172.472C145.092 174.951 148.93 182.913 146.517 190.255Z" fill="#55EAAB"/>
<path fill-rule="evenodd" clip-rule="evenodd" d="M129.642 197.731C136.075 199.962 143.051 196.414 145.223 189.806C147.395 183.198 143.94 176.033 137.507 173.802C131.074 171.571 124.098 175.119 121.926 181.727C119.754 188.335 123.208 195.501 129.642 197.731ZM129.205 199.061C136.353 201.54 144.104 197.597 146.517 190.255C148.93 182.913 145.092 174.951 137.944 172.472C130.796 169.993 123.045 173.936 120.631 181.278C118.218 188.621 122.056 196.582 129.205 199.061Z" fill="#090909"/>
<path d="M130.542 196.424C136.11 198.354 142.147 195.284 144.026 189.566C144.929 186.819 144.708 183.962 143.619 181.519C143.007 180.148 141.281 180.715 140.962 182.187C139.143 190.591 133.453 192.386 128.698 191.947C127.143 191.803 125.924 193.43 127.122 194.458C128.105 195.303 129.255 195.977 130.542 196.424Z" fill="black" fill-opacity="0.25"/>
<path d="M134.608 175.193C130.093 173.627 125.136 176.303 123.536 181.169C123.394 181.602 123.283 182.037 123.202 182.472C122.703 185.16 124.946 184.482 125.824 181.899C127.148 178 130.251 176.948 133.271 177.225C134.84 177.369 136.1 175.71 134.608 175.193Z" fill="white" fill-opacity="0.25"/>
<path d="M132.963 183.238C133.768 182.73 134.605 182.627 135.472 182.928C137.227 183.536 137.773 184.892 137.109 186.995L135.36 192.318L133.199 191.568L134.928 186.307C135.085 185.831 135.1 185.445 134.975 185.151C134.851 184.851 134.558 184.621 134.094 184.46C133.461 184.241 132.92 184.333 132.471 184.736L130.529 190.643L128.368 189.893L132.246 178.095L134.407 178.845L132.963 183.238Z" fill="white" fill-opacity="0.7"/>
</g>
<g filter="url(#filter1_d_937_26701)">
<path d="M79.8157 94.3803C77.4024 101.723 69.6513 105.665 62.5032 103.186C55.3551 100.708 51.5167 92.746 53.9299 85.4037C56.3432 78.0615 64.0943 74.1188 71.2424 76.5977C78.3906 79.0765 82.2289 87.038 79.8157 94.3803Z" fill="#55EAAB"/>
<path fill-rule="evenodd" clip-rule="evenodd" d="M62.9402 101.857C69.3735 104.088 76.3494 100.54 78.5214 93.9315C80.6933 87.3234 77.2388 80.158 70.8055 77.9271C64.3721 75.6962 57.3962 79.2445 55.2242 85.8526C53.0523 92.4606 56.5068 99.626 62.9402 101.857ZM62.5032 103.186C69.6513 105.665 77.4024 101.723 79.8157 94.3803C82.2289 87.038 78.3906 79.0765 71.2424 76.5977C64.0943 74.1188 56.3432 78.0615 53.9299 85.4037C51.5167 92.746 55.3551 100.708 62.5032 103.186Z" fill="#090909"/>
<path d="M63.8411 100.549C69.4085 102.479 75.4455 99.409 77.3249 93.6907C78.2276 90.9444 78.0071 88.0868 76.9174 85.6445C76.3055 84.2731 74.5801 84.8398 74.2613 86.3124C72.4418 94.7158 66.7516 96.5108 61.997 96.0717C60.442 95.9282 59.223 97.555 60.421 98.5835C61.4043 99.4277 62.5538 100.102 63.8411 100.549Z" fill="black" fill-opacity="0.25"/>
<path d="M67.9069 79.3179C63.3915 77.7521 58.4344 80.4279 56.8349 85.2944C56.6927 85.7269 56.5819 86.1621 56.501 86.5973C56.0019 89.2848 58.2446 88.6074 59.1224 86.0242C60.4473 82.1253 63.5496 81.073 66.5697 81.3502C68.1385 81.4942 69.3992 79.8354 67.9069 79.3179Z" fill="white" fill-opacity="0.25"/>
<path d="M66.2617 87.3631C67.0673 86.8553 67.9038 86.7518 68.7712 87.0526C70.526 87.6611 71.0717 89.0168 70.4082 91.1198L68.6587 96.4427L66.4976 95.6933L68.2269 90.4318C68.3835 89.9556 68.3991 89.5703 68.2737 89.2758C68.15 88.9762 67.8564 88.7461 67.3928 88.5853C66.7596 88.3657 66.2185 88.4576 65.7694 88.8609L63.828 94.7675L61.6669 94.0181L65.5447 82.2202L67.7058 82.9696L66.2617 87.3631Z" fill="white" fill-opacity="0.7"/>
</g>
<g filter="url(#filter2_d_937_26701)">
<path d="M154.904 45.5894C159.251 51.9232 157.776 60.6774 151.61 65.1424C145.443 69.6073 136.921 68.0923 132.574 61.7585C128.227 55.4246 129.702 46.6705 135.868 42.2055C142.034 37.7405 150.557 39.2555 154.904 45.5894Z" fill="#E40303"/>
<path fill-rule="evenodd" clip-rule="evenodd" d="M150.823 63.9955C156.372 59.977 157.7 52.0983 153.788 46.3978C149.875 40.6974 142.205 39.3339 136.655 43.3523C131.105 47.3708 129.778 55.2496 133.69 60.95C137.602 66.6505 145.273 68.014 150.823 63.9955ZM151.61 65.1424C157.776 60.6774 159.251 51.9232 154.904 45.5894C150.557 39.2555 142.034 37.7405 135.868 42.2055C129.702 46.6705 128.227 55.4246 132.574 61.7585C136.921 68.0923 145.443 69.6073 151.61 65.1424Z" fill="#090909"/>
<path d="M150.244 62.3566C155.046 58.879 156.195 52.061 152.81 47.1281C151.184 44.759 148.808 43.2556 146.245 42.7181C144.806 42.4163 144.233 44.1815 145.203 45.3148C150.734 51.7824 148.787 57.5602 145.636 61.244C144.606 62.4488 145.165 64.4196 146.681 64.0331C147.924 63.7158 149.133 63.1607 150.244 62.3566Z" fill="black" fill-opacity="0.25"/>
<path d="M135.955 46.4567C132.06 49.2771 131.238 54.9668 134.119 59.165C134.375 59.538 134.652 59.8868 134.946 60.2106C136.764 62.2104 137.555 59.9508 136.043 57.6986C133.76 54.2992 134.764 51.1057 136.764 48.7648C137.803 47.5488 137.243 45.5245 135.955 46.4567Z" fill="white" fill-opacity="0.25"/>
<path d="M141.308 52.5681C141.384 51.6004 141.796 50.8456 142.545 50.3038C144.058 49.2077 145.446 49.5552 146.707 51.3463L149.859 55.9381L147.995 57.288L144.88 52.7492C144.598 52.3384 144.304 52.0981 143.999 52.0283C143.69 51.9541 143.336 52.0618 142.936 52.3514C142.39 52.7468 142.143 53.2498 142.195 53.8602L145.692 58.9555L143.827 60.3054L136.843 50.1279L138.707 48.778L141.308 52.5681Z" fill="white" fill-opacity="0.7"/>
</g>
<g filter="url(#filter3_d_937_26701)">
<path d="M118.012 133.662C122.359 139.996 120.884 148.75 114.718 153.215C108.552 157.68 100.029 156.165 95.6821 149.831C91.3352 143.497 92.8101 134.743 98.9765 130.278C105.143 125.813 113.666 127.328 118.012 133.662Z" fill="#E40303"/>
<path fill-rule="evenodd" clip-rule="evenodd" d="M113.931 152.068C119.481 148.05 120.808 140.171 116.896 134.471C112.984 128.77 105.313 127.407 99.7636 131.425C94.2138 135.444 92.8864 143.322 96.7986 149.023C100.711 154.723 108.381 156.087 113.931 152.068ZM114.718 153.215C120.884 148.75 122.359 139.996 118.012 133.662C113.666 127.328 105.143 125.813 98.9765 130.278C92.8101 134.743 91.3352 143.497 95.6821 149.831C100.029 156.165 108.552 157.68 114.718 153.215Z" fill="#090909"/>
<path d="M113.352 150.429C118.155 146.952 119.304 140.134 115.918 135.201C114.292 132.832 111.916 131.328 109.354 130.791C107.915 130.489 107.342 132.254 108.311 133.388C113.842 139.855 111.896 145.633 108.745 149.317C107.714 150.522 108.274 152.492 109.789 152.106C111.033 151.789 112.241 151.233 113.352 150.429Z" fill="black" fill-opacity="0.25"/>
<path d="M99.0637 134.529C95.1685 137.35 94.3465 143.04 97.2277 147.238C97.4838 147.611 97.7604 147.96 98.0548 148.283C99.8726 150.283 100.664 148.024 99.1512 145.771C96.8685 142.372 97.872 139.178 99.872 136.838C100.911 135.622 100.351 133.597 99.0637 134.529Z" fill="white" fill-opacity="0.25"/>
<path d="M104.416 140.641C104.493 139.673 104.905 138.918 105.653 138.377C107.167 137.28 108.554 137.628 109.816 139.419L112.967 144.011L111.103 145.361L107.988 140.822C107.706 140.411 107.412 140.171 107.107 140.101C106.799 140.027 106.444 140.135 106.044 140.424C105.498 140.82 105.251 141.323 105.303 141.933L108.8 147.028L106.936 148.378L99.9509 138.201L101.815 136.851L104.416 140.641Z" fill="white" fill-opacity="0.7"/>
</g>
<g filter="url(#filter4_d_937_26701)">
<path d="M42.8483 118.157C48.0603 123.76 47.8633 132.642 42.4085 137.995C36.9536 143.349 28.3065 143.147 23.0945 137.544C17.8826 131.941 18.0795 123.059 23.5344 117.705C28.9893 112.352 37.6364 112.554 42.8483 118.157Z" fill="#FF7DEA"/>
<path fill-rule="evenodd" clip-rule="evenodd" d="M41.4648 136.981C46.3742 132.163 46.5514 124.169 41.8607 119.126C37.1699 114.084 29.3875 113.901 24.4781 118.72C19.5687 123.538 19.3915 131.532 24.0822 136.574C28.7729 141.617 36.5554 141.799 41.4648 136.981ZM42.4085 137.995C47.8633 132.642 48.0603 123.76 42.8483 118.157C37.6364 112.554 28.9893 112.352 23.5344 117.705C18.0795 123.059 17.8826 131.941 23.0945 137.544C28.3065 143.147 36.9536 143.349 42.4085 137.995Z" fill="#090909"/>
<path d="M40.5569 135.342C44.8055 131.172 44.9592 124.254 40.9001 119.891C38.9506 117.795 36.3839 116.669 33.7719 116.527C32.3054 116.448 31.9934 118.281 33.1153 119.254C39.5179 124.809 38.4253 130.819 35.8402 134.942C34.9948 136.29 35.8321 138.154 37.2749 137.541C38.4593 137.038 39.5746 136.306 40.5569 135.342Z" fill="black" fill-opacity="0.25"/>
<path d="M24.1344 121.79C20.6887 125.172 20.6959 130.924 24.1504 134.638C24.4574 134.968 24.7813 135.271 25.1191 135.546C27.2051 137.247 27.6617 134.892 25.8413 132.895C23.0938 129.88 23.626 126.569 25.2665 123.95C26.1187 122.589 25.2732 120.673 24.1344 121.79Z" fill="white" fill-opacity="0.25"/>
<path d="M30.3094 127.02C30.2453 126.052 30.5442 125.243 31.2061 124.593C32.5453 123.279 33.9677 123.411 35.4733 124.991L39.2518 129.053L37.6026 130.671L33.8678 126.656C33.5298 126.293 33.2047 126.1 32.8926 126.077C32.5768 126.051 32.2421 126.211 31.8883 126.558C31.4051 127.033 31.2332 127.568 31.3726 128.163L35.5654 132.671L33.9163 134.289L25.5415 125.286L27.1907 123.668L30.3094 127.02Z" fill="white" fill-opacity="0.7"/>
</g>
<g filter="url(#filter5_d_937_26701)">
<path d="M200.679 79.7699C199.347 87.3976 192.248 92.4721 184.822 91.1042C177.396 89.7363 172.455 82.4438 173.787 74.8161C175.119 67.1884 182.218 62.1138 189.645 63.4818C197.071 64.8497 202.011 72.1421 200.679 79.7699Z" fill="#FFED00"/>
<path fill-rule="evenodd" clip-rule="evenodd" d="M185.063 89.7231C191.746 90.9542 198.136 86.3871 199.335 79.5222C200.533 72.6572 196.087 66.094 189.403 64.8629C182.72 63.6317 176.33 68.1988 175.132 75.0638C173.933 81.9287 178.379 88.4919 185.063 89.7231ZM184.822 91.1042C192.248 92.4721 199.347 87.3976 200.679 79.7699C202.011 72.1421 197.071 64.8497 189.645 63.4818C182.218 62.1138 175.119 67.1884 173.787 74.8161C172.455 82.4438 177.396 89.7363 184.822 91.1042Z" fill="#090909"/>
<path d="M185.841 87.8589C191.625 88.9243 197.154 84.9723 198.192 79.0317C198.69 76.1786 198.061 73.3858 196.632 71.1354C195.83 69.8718 194.205 70.6939 194.101 72.1986C193.509 80.7858 188.139 83.4239 183.374 83.7105C181.815 83.8042 180.843 85.5981 182.176 86.4336C183.27 87.1195 184.504 87.6125 185.841 87.8589Z" fill="black" fill-opacity="0.25"/>
<path d="M186.811 66.2437C182.12 65.3796 177.602 68.7776 176.719 73.8334C176.641 74.2827 176.594 74.73 176.576 75.1726C176.469 77.9064 178.59 76.8963 179.087 74.2084C179.837 70.1513 182.754 68.6402 185.781 68.4565C187.353 68.361 188.362 66.5293 186.811 66.2437Z" fill="white" fill-opacity="0.25"/>
<path d="M186.341 74.451C187.064 73.8266 187.877 73.5974 188.778 73.7634C190.601 74.0992 191.335 75.3574 190.981 77.5379L190.016 83.0677L187.771 82.6541L188.725 77.1882C188.812 76.6934 188.772 76.31 188.605 76.0377C188.44 75.7602 188.116 75.5771 187.635 75.4883C186.977 75.3672 186.455 75.5401 186.069 76.007L184.997 82.1433L182.752 81.7297L184.892 69.4731L187.137 69.8867L186.341 74.451Z" fill="white" fill-opacity="0.7"/>
</g>
<g filter="url(#filter6_d_937_26701)">
<path d="M96.606 109.433C95.2742 117.061 88.1746 122.136 80.7485 120.768C73.3225 119.4 68.3821 112.107 69.7139 104.48C71.0456 96.8519 78.1452 91.7774 85.5713 93.1453C92.9974 94.5133 97.9377 101.806 96.606 109.433Z" fill="#FFED00"/>
<path fill-rule="evenodd" clip-rule="evenodd" d="M80.9897 119.387C87.6731 120.618 94.0628 116.051 95.2614 109.186C96.46 102.321 92.0136 95.7576 85.3302 94.5265C78.6467 93.2953 72.2571 97.8624 71.0585 104.727C69.8599 111.592 74.3062 118.155 80.9897 119.387ZM80.7485 120.768C88.1746 122.136 95.2742 117.061 96.606 109.433C97.9377 101.806 92.9974 94.5133 85.5713 93.1453C78.1452 91.7774 71.0456 96.8519 69.7139 104.48C68.3821 112.107 73.3225 119.4 80.7485 120.768Z" fill="#090909"/>
<path d="M81.7682 117.521C87.5521 118.587 93.0817 114.635 94.1189 108.694C94.617 105.841 93.9883 103.048 92.5595 100.798C91.7573 99.5344 90.1323 100.356 90.0285 101.861C89.4365 110.448 84.0666 113.086 79.3009 113.373C77.7424 113.467 76.7705 115.261 78.1031 116.096C79.197 116.782 80.4308 117.275 81.7682 117.521Z" fill="black" fill-opacity="0.25"/>
<path d="M82.7385 95.9068C78.0476 95.0427 73.5293 98.4407 72.6466 103.496C72.5682 103.946 72.5211 104.393 72.5037 104.836C72.3962 107.569 74.517 106.559 75.014 103.871C75.7641 99.8144 78.6812 98.3033 81.708 98.1196C83.2803 98.0241 84.2888 96.1924 82.7385 95.9068Z" fill="white" fill-opacity="0.25"/>
<path d="M82.2675 104.114C82.9913 103.49 83.8038 103.26 84.7049 103.426C86.5279 103.762 87.2625 105.02 86.9085 107.201L85.943 112.731L83.6979 112.317L84.6522 106.851C84.7386 106.357 84.6986 105.973 84.5323 105.701C84.367 105.423 84.0435 105.24 83.5618 105.151C82.9041 105.03 82.3821 105.203 81.9959 105.67L80.9245 111.806L78.6794 111.393L80.8193 99.1362L83.0644 99.5498L82.2675 104.114Z" fill="white" fill-opacity="0.7"/>
</g>
<g filter="url(#filter7_d_937_26701)">
<path d="M224.754 98.5706C226.092 106.197 221.159 113.494 213.734 114.869C206.309 116.244 199.205 111.177 197.866 103.55C196.527 95.9237 201.461 88.6265 208.886 87.2514C216.311 85.8764 223.415 90.9441 224.754 98.5706Z" fill="#004DFF"/>
<path fill-rule="evenodd" clip-rule="evenodd" d="M213.491 113.488C220.174 112.251 224.614 105.683 223.409 98.8195C222.204 91.9557 215.811 87.3948 209.128 88.6323C202.446 89.8699 198.006 96.4373 199.21 103.301C200.415 110.165 206.809 114.726 213.491 113.488ZM213.734 114.869C221.159 113.494 226.092 106.197 224.754 98.5706C223.415 90.9441 216.311 85.8764 208.886 87.2514C201.461 88.6265 196.527 95.9237 197.866 103.55C199.205 111.177 206.309 116.244 213.734 114.869Z" fill="#090909"/>
<path d="M213.588 111.461C219.371 110.39 223.214 104.707 222.171 98.7675C221.671 95.9149 220.134 93.5219 218.032 91.9237C216.851 91.0264 215.607 92.3785 216.02 93.8261C218.377 102.087 214.239 106.482 209.869 108.456C208.44 109.101 208.137 111.13 209.669 111.437C210.927 111.688 212.251 111.709 213.588 111.461Z" fill="black" fill-opacity="0.25"/>
<path d="M207.167 90.853C202.477 91.7216 199.394 96.5236 200.281 101.579C200.36 102.028 200.468 102.464 200.602 102.885C201.428 105.486 203.073 103.78 202.628 101.083C201.955 97.0116 204.177 94.5513 206.951 93.296C208.393 92.6439 208.717 90.566 207.167 90.853Z" fill="white" fill-opacity="0.25"/>
<path d="M209.509 98.7147C209.976 97.8704 210.66 97.3648 211.561 97.198C213.383 96.8604 214.499 97.7769 214.906 99.9475L215.877 105.476L213.632 105.892L212.673 100.427C212.586 99.9324 212.418 99.5873 212.17 99.3916C211.921 99.1906 211.556 99.1347 211.074 99.2239C210.417 99.3457 209.986 99.6945 209.782 100.27L210.859 106.406L208.614 106.821L206.463 94.5669L208.708 94.1512L209.509 98.7147Z" fill="white" fill-opacity="0.7"/>
</g>
<g filter="url(#filter8_d_937_26701)">
<path d="M94.0587 60.8679C90.5897 67.7495 82.3463 70.4396 75.6466 66.8763C68.947 63.313 66.328 54.8458 69.7971 47.9642C73.2661 41.0826 81.5095 38.3925 88.2092 41.9558C94.9089 45.519 97.5278 53.9863 94.0587 60.8679Z" fill="#5F3016"/>
<path fill-rule="evenodd" clip-rule="evenodd" d="M76.2748 65.6303C82.3045 68.8372 89.7235 66.4161 92.8457 60.2227C95.9678 54.0292 93.6108 46.4087 87.5811 43.2018C81.5514 39.9949 74.1323 42.4159 71.0102 48.6094C67.888 54.8028 70.2451 62.4233 76.2748 65.6303ZM75.6466 66.8763C82.3463 70.4396 90.5897 67.7495 94.0587 60.8679C97.5278 53.9863 94.9089 45.519 88.2092 41.9558C81.5095 38.3925 73.2661 41.0826 69.7971 47.9642C66.328 54.8458 68.947 63.313 75.6466 66.8763Z" fill="#090909"/>
<path d="M77.2265 64.7387C82.4446 67.514 88.865 65.4191 91.5667 60.0597C92.8643 57.4857 93.0681 54.6268 92.3514 52.0429C91.949 50.5921 90.16 50.8836 89.6275 52.2895C86.5887 60.3124 80.6994 61.2006 76.0645 60.0263C74.5487 59.6422 73.1037 61.0605 74.136 62.2636C74.9834 63.2511 76.02 64.097 77.2265 64.7387Z" fill="black" fill-opacity="0.25"/>
<path d="M84.3786 44.3858C80.1465 42.135 74.8518 44.008 72.5524 48.5692C72.3481 48.9745 72.1743 49.3875 72.0302 49.805C71.1401 52.3838 73.4569 52.0634 74.7058 49.6467C76.5909 45.9992 79.8126 45.4422 82.7569 46.1864C84.2863 46.5731 85.7772 45.1297 84.3786 44.3858Z" fill="white" fill-opacity="0.25"/>
<path d="M81.5652 52.0828C82.4364 51.7063 83.2785 51.7342 84.0915 52.1666C85.7362 53.0414 86.0755 54.4664 85.1093 56.4418L82.5944 61.4307L80.5689 60.3534L83.0548 55.4221C83.2798 54.9757 83.352 54.5973 83.2716 54.2867C83.1936 53.9713 82.9373 53.6981 82.5027 53.467C81.9093 53.1514 81.3609 53.1579 80.8575 53.4866L78.0668 59.0226L76.0413 57.9454L81.6155 46.8877L83.641 47.965L81.5652 52.0828Z" fill="white" fill-opacity="0.7"/>
</g>
<g filter="url(#filter9_d_937_26701)">
<path d="M166.235 100.519C165.962 108.263 159.629 114.314 152.089 114.034C144.55 113.754 138.659 107.249 138.931 99.5048C139.204 91.7605 145.537 85.7094 153.077 85.9894C160.616 86.2695 166.507 92.7745 166.235 100.519Z" fill="#008026"/>
<path fill-rule="evenodd" clip-rule="evenodd" d="M152.139 112.632C158.924 112.884 164.624 107.438 164.87 100.468C165.115 93.4982 159.813 87.6437 153.027 87.3917C146.242 87.1397 140.542 92.5856 140.297 99.5555C140.051 106.525 145.353 112.38 152.139 112.632ZM152.089 114.034C159.629 114.314 165.962 108.263 166.235 100.519C166.507 92.7745 160.616 86.2695 153.077 85.9894C145.537 85.7094 139.204 91.7605 138.931 99.5048C138.659 107.249 144.55 113.754 152.089 114.034Z" fill="#090909"/>
<path d="M152.633 111.262C158.506 111.48 163.438 106.767 163.65 100.736C163.752 97.839 162.747 95.1649 161.024 93.1436C160.056 92.0087 158.56 93.0576 158.664 94.5624C159.255 103.15 154.301 106.538 149.622 107.511C148.092 107.83 147.375 109.746 148.809 110.381C149.986 110.902 151.275 111.211 152.633 111.262Z" fill="black" fill-opacity="0.25"/>
<path d="M150.63 89.7222C145.867 89.5453 141.86 93.5631 141.679 98.6962C141.663 99.1523 141.678 99.6019 141.721 100.043C141.99 102.765 143.951 101.458 144.075 98.7249C144.261 94.5998 146.942 92.6817 149.913 92.062C151.457 91.74 152.204 89.7806 150.63 89.7222Z" fill="white" fill-opacity="0.25"/>
<path d="M151.289 97.9145C151.92 97.1917 152.693 96.8472 153.608 96.8812C155.459 96.9499 156.359 98.0893 156.307 100.299L156.11 105.914L153.83 105.829L154.026 100.279C154.043 99.7771 153.951 99.4033 153.749 99.1578C153.547 98.907 153.202 98.7724 152.713 98.7543C152.045 98.7295 151.552 98.9762 151.234 99.4943L151.014 105.724L148.735 105.64L149.173 93.1958L151.453 93.2805L151.289 97.9145Z" fill="white" fill-opacity="0.7"/>
</g>
<g filter="url(#filter10_d_937_26701)">
<path d="M62.2234 170.282C57.5639 176.376 48.9764 177.437 43.0427 172.651C37.109 167.865 36.0761 159.045 40.7356 152.95C45.3951 146.855 53.9826 145.794 59.9163 150.58C65.85 155.366 66.8829 164.187 62.2234 170.282Z" fill="#004DFF"/>
<path fill-rule="evenodd" clip-rule="evenodd" d="M43.8864 171.548C49.2267 175.855 56.9554 174.9 61.149 169.415C65.3426 163.93 64.4129 155.991 59.0726 151.684C53.7323 147.376 46.0035 148.331 41.81 153.816C37.6164 159.302 38.546 167.24 43.8864 171.548ZM43.0427 172.651C48.9764 177.437 57.5639 176.376 62.2234 170.282C66.8829 164.187 65.85 155.366 59.9163 150.58C53.9826 145.794 45.3951 146.855 40.7356 152.95C36.0761 159.045 37.109 167.865 43.0427 172.651Z" fill="black"/>
<path d="M45.3374 170.392C49.959 174.12 56.6473 173.294 60.2761 168.547C62.019 166.267 62.7392 163.498 62.505 160.822C62.3735 159.319 60.563 159.262 59.7842 160.541C55.3398 167.84 49.3926 167.582 45.0529 165.539C43.6336 164.871 41.9561 165.987 42.7514 167.367C43.4043 168.5 44.2688 169.53 45.3374 170.392Z" fill="black" fill-opacity="0.25"/>
<path d="M56.0651 151.77C52.3169 148.747 46.7748 149.571 43.6864 153.611C43.4119 153.97 43.1661 154.342 42.9486 154.725C41.6052 157.087 43.9395 157.217 45.6059 155.083C48.1211 151.861 51.3875 151.932 54.1445 153.228C55.5767 153.901 57.3039 152.769 56.0651 151.77Z" fill="white" fill-opacity="0.25"/>
<path d="M51.9015 158.791C52.8259 158.589 53.6481 158.778 54.3681 159.358C55.8248 160.533 55.8989 161.998 54.5905 163.754L51.2125 168.172L49.4186 166.725L52.7576 162.358C53.0598 161.962 53.1996 161.604 53.1771 161.284C53.1578 160.959 52.9557 160.641 52.5709 160.331C52.0453 159.907 51.5053 159.808 50.951 160.035L47.2026 164.938L45.4086 163.491L52.8958 153.697L54.6897 155.144L51.9015 158.791Z" fill="white" fill-opacity="0.7"/>
</g>
<g filter="url(#filter11_d_937_26701)">
<path d="M148.505 151.518C143.587 157.395 134.962 158.064 129.241 153.012C123.52 147.961 122.869 139.102 127.787 133.225C132.705 127.348 141.329 126.68 147.051 131.731C152.772 136.783 153.423 145.642 148.505 151.518Z" fill="#750787"/>
<path fill-rule="evenodd" clip-rule="evenodd" d="M130.132 151.948C135.281 156.495 143.043 155.893 147.469 150.604C151.896 145.315 151.309 137.342 146.16 132.795C141.011 128.249 133.249 128.851 128.823 134.14C124.396 139.429 124.982 147.402 130.132 151.948ZM129.241 153.012C134.962 158.064 143.587 157.395 148.505 151.518C153.423 145.642 152.772 136.783 147.051 131.731C141.329 126.68 132.705 127.348 127.787 133.225C122.869 139.102 123.52 147.961 129.241 153.012Z" fill="#090909"/>
<path d="M131.724 150.748C136.18 154.683 142.898 154.162 146.728 149.585C148.567 147.387 149.406 144.653 149.288 141.969C149.221 140.462 147.415 140.323 146.582 141.565C141.827 148.654 135.897 148.126 131.649 145.888C130.26 145.156 128.536 146.194 129.271 147.609C129.874 148.77 130.694 149.839 131.724 150.748Z" fill="black" fill-opacity="0.25"/>
<path d="M143.245 132.633C139.631 129.442 134.059 130.013 130.799 133.908C130.509 134.254 130.248 134.615 130.014 134.987C128.57 137.286 130.896 137.522 132.653 135.466C135.305 132.362 138.565 132.581 141.263 134.002C142.665 134.74 144.439 133.688 143.245 132.633Z" fill="white" fill-opacity="0.25"/>
<path d="M138.782 139.458C139.715 139.297 140.528 139.524 141.222 140.137C142.627 141.377 142.638 142.844 141.255 144.538L137.689 148.798L135.96 147.271L139.484 143.06C139.803 142.678 139.958 142.327 139.949 142.006C139.944 141.681 139.756 141.354 139.385 141.026C138.878 140.579 138.343 140.456 137.779 140.657L133.823 145.384L132.093 143.857L139.996 134.414L141.725 135.941L138.782 139.458Z" fill="white" fill-opacity="0.7"/>
</g>
<g filter="url(#filter12_d_937_26701)">
<path d="M98.8168 166.008C104.431 171.185 104.897 180.056 99.8573 185.823C94.8176 191.59 86.1807 192.069 80.5664 186.892C74.952 181.715 74.4861 172.844 79.5258 167.077C84.5656 161.31 93.2024 160.832 98.8168 166.008Z" fill="#F72087"/>
<path fill-rule="evenodd" clip-rule="evenodd" d="M98.8407 184.886C103.376 179.696 102.957 171.712 97.9043 167.053C92.8513 162.394 85.0782 162.824 80.5424 168.015C76.0067 173.205 76.4259 181.189 81.4789 185.848C86.5318 190.507 94.305 190.076 98.8407 184.886ZM99.8573 185.823C104.897 180.056 104.431 171.185 98.8168 166.008C93.2024 160.832 84.5656 161.31 79.5258 167.077C74.4861 172.844 74.952 181.715 80.5664 186.892C86.1807 192.069 94.8176 191.59 99.8573 185.823Z" fill="#090909"/>
<path d="M97.9197 183.421C101.845 178.929 101.482 172.02 97.1098 167.988C95.0098 166.052 92.3668 165.132 89.7519 165.196C88.2837 165.232 88.1093 167.084 89.3005 167.966C96.0985 173.001 95.4572 179.08 93.1871 183.393C92.4446 184.804 93.4185 186.597 94.8113 185.872C95.9547 185.278 97.0121 184.459 97.9197 183.421Z" fill="black" fill-opacity="0.25"/>
<path d="M80.5353 171.201C77.3518 174.844 77.7878 180.579 81.5091 184.01C81.8398 184.315 82.1853 184.591 82.5426 184.839C84.7494 186.371 85.029 183.988 83.0651 182.139C80.1009 179.349 80.3847 176.006 81.8251 173.266C82.5734 171.842 81.5874 169.997 80.5353 171.201Z" fill="white" fill-opacity="0.25"/>
<path d="M87.0817 175.931C86.9455 174.97 87.1832 174.14 87.7948 173.44C89.032 172.024 90.4601 172.045 92.0792 173.501L96.1494 177.254L94.6257 178.997L90.6025 175.288C90.2383 174.952 89.8998 174.785 89.587 174.787C89.2702 174.786 88.9483 174.972 88.6215 175.346C88.1751 175.857 88.0436 176.404 88.227 176.987L92.7435 181.151L91.2199 182.895L82.1985 174.577L83.7221 172.833L87.0817 175.931Z" fill="white" fill-opacity="0.7"/>
</g>
<g filter="url(#filter13_d_937_26701)">
<path d="M210.795 127.413C207.25 134.253 198.977 136.847 192.317 133.206C185.658 129.564 183.133 121.067 186.678 114.226C190.223 107.386 198.495 104.792 205.155 108.433C211.815 112.075 214.34 120.572 210.795 127.413Z" fill="#88C9F9"/>
<path fill-rule="evenodd" clip-rule="evenodd" d="M192.959 131.967C198.953 135.244 206.398 132.91 209.589 126.753C212.779 120.597 210.507 112.949 204.513 109.672C198.519 106.395 191.074 108.729 187.883 114.886C184.693 121.042 186.965 128.69 192.959 131.967ZM192.317 133.206C198.977 136.847 207.25 134.253 210.795 127.413C214.34 120.572 211.815 112.075 205.155 108.433C198.495 104.792 190.223 107.386 186.678 114.226C183.133 121.067 185.658 129.564 192.317 133.206Z" fill="#090909"/>
<path d="M194.19 130.567C199.377 133.403 205.82 131.383 208.581 126.056C209.907 123.497 210.142 120.641 209.454 118.049C209.068 116.593 207.276 116.864 206.728 118.264C203.6 126.251 197.702 127.07 193.08 125.841C191.569 125.44 190.108 126.841 191.127 128.056C191.963 129.053 192.99 129.911 194.19 130.567Z" fill="black" fill-opacity="0.25"/>
<path d="M201.567 110.299C197.36 107.999 192.045 109.81 189.695 114.344C189.486 114.747 189.308 115.158 189.159 115.574C188.241 118.142 190.561 117.849 191.836 115.447C193.762 111.822 196.989 111.302 199.925 112.081C201.45 112.485 202.957 111.06 201.567 110.299Z" fill="white" fill-opacity="0.25"/>
<path d="M198.668 117.963C199.544 117.596 200.385 117.634 201.194 118.076C202.828 118.97 203.152 120.399 202.164 122.363L199.594 127.322L197.58 126.221L200.121 121.319C200.351 120.876 200.427 120.498 200.35 120.186C200.276 119.87 200.022 119.594 199.59 119.358C199.001 119.035 198.452 119.035 197.945 119.358L195.093 124.861L193.08 123.76L198.776 112.769L200.79 113.869L198.668 117.963Z" fill="white" fill-opacity="0.7"/>
</g>
<g filter="url(#filter14_d_937_26701)">
<path d="M135.638 74.6993C132.093 81.54 123.821 84.1336 117.161 80.4923C110.501 76.851 107.976 68.3537 111.521 61.513C115.066 54.6724 123.339 52.0788 129.999 55.7201C136.658 59.3614 139.183 67.8587 135.638 74.6993Z" fill="#88C9F9"/>
<path fill-rule="evenodd" clip-rule="evenodd" d="M117.803 79.2537C123.797 82.5308 131.242 80.1966 134.432 74.04C137.623 67.8834 135.35 60.2359 129.357 56.9587C123.363 53.6815 115.917 56.0158 112.727 62.1724C109.536 68.3289 111.809 75.9765 117.803 79.2537ZM117.161 80.4923C123.821 84.1336 132.093 81.54 135.638 74.6993C139.183 67.8587 136.658 59.3614 129.999 55.7201C123.339 52.0788 115.066 54.6724 111.521 61.513C107.976 68.3537 110.501 76.851 117.161 80.4923Z" fill="#090909"/>
<path d="M119.033 77.8543C124.22 80.6903 130.663 78.6706 133.424 73.343C134.75 70.7844 134.986 67.928 134.298 65.336C133.911 63.8806 132.119 64.1511 131.571 65.5507C128.444 73.5376 122.545 74.357 117.924 73.1286C116.412 72.7268 114.951 74.1281 115.97 75.3432C116.807 76.3406 117.834 77.1985 119.033 77.8543Z" fill="black" fill-opacity="0.25"/>
<path d="M126.41 57.5866C122.203 55.2864 116.888 57.0974 114.539 61.6315C114.33 62.0345 114.151 62.4453 114.003 62.8612C113.084 65.4294 115.404 65.136 116.68 62.7342C118.605 59.1089 121.833 58.5895 124.769 59.3681C126.294 59.7726 127.801 58.3468 126.41 57.5866Z" fill="white" fill-opacity="0.25"/>
<path d="M123.512 65.2498C124.387 64.8835 125.229 64.9213 126.037 65.3632C127.672 66.2571 127.995 67.686 127.007 69.6499L124.437 74.6091L122.424 73.5083L124.964 68.6063C125.194 68.1626 125.271 67.785 125.194 67.4735C125.119 67.1573 124.866 66.8811 124.434 66.6449C123.844 66.3224 123.296 66.3225 122.789 66.6453L119.937 72.1484L117.923 71.0475L123.62 60.0557L125.633 61.1565L123.512 65.2498Z" fill="white" fill-opacity="0.7"/>
</g>
<defs>
<filter id="filter0_d_937_26701" x="115.91" y="171.731" width="35.3286" height="36.0708" filterUnits="userSpaceOnUse" color-interpolation-filters="sRGB">
<feFlood flood-opacity="0" result="BackgroundImageFix"/>
<feColorMatrix in="SourceAlpha" type="matrix" values="0 0 0 0 0 0 0 0 0 0 0 0 0 0 0 0 0 0 127 0" result="hardAlpha"/>
<feOffset dy="4"/>
<feGaussianBlur stdDeviation="2"/>
<feComposite in2="hardAlpha" operator="out"/>
<feColorMatrix type="matrix" values="0 0 0 0 0 0 0 0 0 0 0 0 0 0 0 0 0 0 0.25 0"/>
<feBlend mode="normal" in2="BackgroundImageFix" result="effect1_dropShadow_937_26701"/>
<feBlend mode="normal" in="SourceGraphic" in2="effect1_dropShadow_937_26701" result="shape"/>
</filter>
<filter id="filter1_d_937_26701" x="49.2085" y="75.8564" width="35.3286" height="36.0708" filterUnits="userSpaceOnUse" color-interpolation-filters="sRGB">
<feFlood flood-opacity="0" result="BackgroundImageFix"/>
<feColorMatrix in="SourceAlpha" type="matrix" values="0 0 0 0 0 0 0 0 0 0 0 0 0 0 0 0 0 0 127 0" result="hardAlpha"/>
<feOffset dy="4"/>
<feGaussianBlur stdDeviation="2"/>
<feComposite in2="hardAlpha" operator="out"/>
<feColorMatrix type="matrix" values="0 0 0 0 0 0 0 0 0 0 0 0 0 0 0 0 0 0 0.25 0"/>
<feBlend mode="normal" in2="BackgroundImageFix" result="effect1_dropShadow_937_26701"/>
<feBlend mode="normal" in="SourceGraphic" in2="effect1_dropShadow_937_26701" result="shape"/>
</filter>
<filter id="filter2_d_937_26701" x="126.077" y="39.6411" width="35.3235" height="36.0654" filterUnits="userSpaceOnUse" color-interpolation-filters="sRGB">
<feFlood flood-opacity="0" result="BackgroundImageFix"/>
<feColorMatrix in="SourceAlpha" type="matrix" values="0 0 0 0 0 0 0 0 0 0 0 0 0 0 0 0 0 0 127 0" result="hardAlpha"/>
<feOffset dy="4"/>
<feGaussianBlur stdDeviation="2"/>
<feComposite in2="hardAlpha" operator="out"/>
<feColorMatrix type="matrix" values="0 0 0 0 0 0 0 0 0 0 0 0 0 0 0 0 0 0 0.25 0"/>
<feBlend mode="normal" in2="BackgroundImageFix" result="effect1_dropShadow_937_26701"/>
<feBlend mode="normal" in="SourceGraphic" in2="effect1_dropShadow_937_26701" result="shape"/>
</filter>
<filter id="filter3_d_937_26701" x="89.1855" y="127.714" width="35.3235" height="36.0654" filterUnits="userSpaceOnUse" color-interpolation-filters="sRGB">
<feFlood flood-opacity="0" result="BackgroundImageFix"/>
<feColorMatrix in="SourceAlpha" type="matrix" values="0 0 0 0 0 0 0 0 0 0 0 0 0 0 0 0 0 0 127 0" result="hardAlpha"/>
<feOffset dy="4"/>
<feGaussianBlur stdDeviation="2"/>
<feComposite in2="hardAlpha" operator="out"/>
<feColorMatrix type="matrix" values="0 0 0 0 0 0 0 0 0 0 0 0 0 0 0 0 0 0 0.25 0"/>
<feBlend mode="normal" in2="BackgroundImageFix" result="effect1_dropShadow_937_26701"/>
<feBlend mode="normal" in="SourceGraphic" in2="effect1_dropShadow_937_26701" result="shape"/>
</filter>
<filter id="filter4_d_937_26701" x="15.3108" y="113.819" width="35.3213" height="36.063" filterUnits="userSpaceOnUse" color-interpolation-filters="sRGB">
<feFlood flood-opacity="0" result="BackgroundImageFix"/>
<feColorMatrix in="SourceAlpha" type="matrix" values="0 0 0 0 0 0 0 0 0 0 0 0 0 0 0 0 0 0 127 0" result="hardAlpha"/>
<feOffset dy="4"/>
<feGaussianBlur stdDeviation="2"/>
<feComposite in2="hardAlpha" operator="out"/>
<feColorMatrix type="matrix" values="0 0 0 0 0 0 0 0 0 0 0 0 0 0 0 0 0 0 0.25 0"/>
<feBlend mode="normal" in2="BackgroundImageFix" result="effect1_dropShadow_937_26701"/>
<feBlend mode="normal" in="SourceGraphic" in2="effect1_dropShadow_937_26701" result="shape"/>
</filter>
<filter id="filter5_d_937_26701" x="169.57" y="63.2588" width="35.3257" height="36.0684" filterUnits="userSpaceOnUse" color-interpolation-filters="sRGB">
<feFlood flood-opacity="0" result="BackgroundImageFix"/>
<feColorMatrix in="SourceAlpha" type="matrix" values="0 0 0 0 0 0 0 0 0 0 0 0 0 0 0 0 0 0 127 0" result="hardAlpha"/>
<feOffset dy="4"/>
<feGaussianBlur stdDeviation="2"/>
<feComposite in2="hardAlpha" operator="out"/>
<feColorMatrix type="matrix" values="0 0 0 0 0 0 0 0 0 0 0 0 0 0 0 0 0 0 0.25 0"/>
<feBlend mode="normal" in2="BackgroundImageFix" result="effect1_dropShadow_937_26701"/>
<feBlend mode="normal" in="SourceGraphic" in2="effect1_dropShadow_937_26701" result="shape"/>
</filter>
<filter id="filter6_d_937_26701" x="65.4971" y="92.9224" width="35.3257" height="36.0684" filterUnits="userSpaceOnUse" color-interpolation-filters="sRGB">
<feFlood flood-opacity="0" result="BackgroundImageFix"/>
<feColorMatrix in="SourceAlpha" type="matrix" values="0 0 0 0 0 0 0 0 0 0 0 0 0 0 0 0 0 0 127 0" result="hardAlpha"/>
<feOffset dy="4"/>
<feGaussianBlur stdDeviation="2"/>
<feComposite in2="hardAlpha" operator="out"/>
<feColorMatrix type="matrix" values="0 0 0 0 0 0 0 0 0 0 0 0 0 0 0 0 0 0 0.25 0"/>
<feBlend mode="normal" in2="BackgroundImageFix" result="effect1_dropShadow_937_26701"/>
<feBlend mode="normal" in="SourceGraphic" in2="effect1_dropShadow_937_26701" result="shape"/>
</filter>
<filter id="filter7_d_937_26701" x="193.647" y="87.0264" width="35.3259" height="36.0679" filterUnits="userSpaceOnUse" color-interpolation-filters="sRGB">
<feFlood flood-opacity="0" result="BackgroundImageFix"/>
<feColorMatrix in="SourceAlpha" type="matrix" values="0 0 0 0 0 0 0 0 0 0 0 0 0 0 0 0 0 0 127 0" result="hardAlpha"/>
<feOffset dy="4"/>
<feGaussianBlur stdDeviation="2"/>
<feComposite in2="hardAlpha" operator="out"/>
<feColorMatrix type="matrix" values="0 0 0 0 0 0 0 0 0 0 0 0 0 0 0 0 0 0 0.25 0"/>
<feBlend mode="normal" in2="BackgroundImageFix" result="effect1_dropShadow_937_26701"/>
<feBlend mode="normal" in="SourceGraphic" in2="effect1_dropShadow_937_26701" result="shape"/>
</filter>
<filter id="filter8_d_937_26701" x="64.2644" y="40.3813" width="35.3269" height="36.0693" filterUnits="userSpaceOnUse" color-interpolation-filters="sRGB">
<feFlood flood-opacity="0" result="BackgroundImageFix"/>
<feColorMatrix in="SourceAlpha" type="matrix" values="0 0 0 0 0 0 0 0 0 0 0 0 0 0 0 0 0 0 127 0" result="hardAlpha"/>
<feOffset dy="4"/>
<feGaussianBlur stdDeviation="2"/>
<feComposite in2="hardAlpha" operator="out"/>
<feColorMatrix type="matrix" values="0 0 0 0 0 0 0 0 0 0 0 0 0 0 0 0 0 0 0.25 0"/>
<feBlend mode="normal" in2="BackgroundImageFix" result="effect1_dropShadow_937_26701"/>
<feBlend mode="normal" in="SourceGraphic" in2="effect1_dropShadow_937_26701" result="shape"/>
</filter>
<filter id="filter9_d_937_26701" x="134.922" y="85.98" width="35.3215" height="36.0635" filterUnits="userSpaceOnUse" color-interpolation-filters="sRGB">
<feFlood flood-opacity="0" result="BackgroundImageFix"/>
<feColorMatrix in="SourceAlpha" type="matrix" values="0 0 0 0 0 0 0 0 0 0 0 0 0 0 0 0 0 0 127 0" result="hardAlpha"/>
<feOffset dy="4"/>
<feGaussianBlur stdDeviation="2"/>
<feComposite in2="hardAlpha" operator="out"/>
<feColorMatrix type="matrix" values="0 0 0 0 0 0 0 0 0 0 0 0 0 0 0 0 0 0 0.25 0"/>
<feBlend mode="normal" in2="BackgroundImageFix" result="effect1_dropShadow_937_26701"/>
<feBlend mode="normal" in="SourceGraphic" in2="effect1_dropShadow_937_26701" result="shape"/>
</filter>
<filter id="filter10_d_937_26701" x="33.8184" y="147.583" width="35.3223" height="36.0645" filterUnits="userSpaceOnUse" color-interpolation-filters="sRGB">
<feFlood flood-opacity="0" result="BackgroundImageFix"/>
<feColorMatrix in="SourceAlpha" type="matrix" values="0 0 0 0 0 0 0 0 0 0 0 0 0 0 0 0 0 0 127 0" result="hardAlpha"/>
<feOffset dy="4"/>
<feGaussianBlur stdDeviation="2"/>
<feComposite in2="hardAlpha" operator="out"/>
<feColorMatrix type="matrix" values="0 0 0 0 0 0 0 0 0 0 0 0 0 0 0 0 0 0 0.25 0"/>
<feBlend mode="normal" in2="BackgroundImageFix" result="effect1_dropShadow_937_26701"/>
<feBlend mode="normal" in="SourceGraphic" in2="effect1_dropShadow_937_26701" result="shape"/>
</filter>
<filter id="filter11_d_937_26701" x="120.485" y="128.34" width="35.3215" height="36.064" filterUnits="userSpaceOnUse" color-interpolation-filters="sRGB">
<feFlood flood-opacity="0" result="BackgroundImageFix"/>
<feColorMatrix in="SourceAlpha" type="matrix" values="0 0 0 0 0 0 0 0 0 0 0 0 0 0 0 0 0 0 127 0" result="hardAlpha"/>
<feOffset dy="4"/>
<feGaussianBlur stdDeviation="2"/>
<feComposite in2="hardAlpha" operator="out"/>
<feColorMatrix type="matrix" values="0 0 0 0 0 0 0 0 0 0 0 0 0 0 0 0 0 0 0.25 0"/>
<feBlend mode="normal" in2="BackgroundImageFix" result="effect1_dropShadow_937_26701"/>
<feBlend mode="normal" in="SourceGraphic" in2="effect1_dropShadow_937_26701" result="shape"/>
</filter>
<filter id="filter12_d_937_26701" x="72.0308" y="162.418" width="35.3215" height="36.0635" filterUnits="userSpaceOnUse" color-interpolation-filters="sRGB">
<feFlood flood-opacity="0" result="BackgroundImageFix"/>
<feColorMatrix in="SourceAlpha" type="matrix" values="0 0 0 0 0 0 0 0 0 0 0 0 0 0 0 0 0 0 127 0" result="hardAlpha"/>
<feOffset dy="4"/>
<feGaussianBlur stdDeviation="2"/>
<feComposite in2="hardAlpha" operator="out"/>
<feColorMatrix type="matrix" values="0 0 0 0 0 0 0 0 0 0 0 0 0 0 0 0 0 0 0.25 0"/>
<feBlend mode="normal" in2="BackgroundImageFix" result="effect1_dropShadow_937_26701"/>
<feBlend mode="normal" in="SourceGraphic" in2="effect1_dropShadow_937_26701" result="shape"/>
</filter>
<filter id="filter13_d_937_26701" x="181.073" y="106.785" width="35.3264" height="36.0688" filterUnits="userSpaceOnUse" color-interpolation-filters="sRGB">
<feFlood flood-opacity="0" result="BackgroundImageFix"/>
<feColorMatrix in="SourceAlpha" type="matrix" values="0 0 0 0 0 0 0 0 0 0 0 0 0 0 0 0 0 0 127 0" result="hardAlpha"/>
<feOffset dy="4"/>
<feGaussianBlur stdDeviation="2"/>
<feComposite in2="hardAlpha" operator="out"/>
<feColorMatrix type="matrix" values="0 0 0 0 0 0 0 0 0 0 0 0 0 0 0 0 0 0 0.25 0"/>
<feBlend mode="normal" in2="BackgroundImageFix" result="effect1_dropShadow_937_26701"/>
<feBlend mode="normal" in="SourceGraphic" in2="effect1_dropShadow_937_26701" result="shape"/>
</filter>
<filter id="filter14_d_937_26701" x="105.917" y="54.0718" width="35.3264" height="36.0688" filterUnits="userSpaceOnUse" color-interpolation-filters="sRGB">
<feFlood flood-opacity="0" result="BackgroundImageFix"/>
<feColorMatrix in="SourceAlpha" type="matrix" values="0 0 0 0 0 0 0 0 0 0 0 0 0 0 0 0 0 0 127 0" result="hardAlpha"/>
<feOffset dy="4"/>
<feGaussianBlur stdDeviation="2"/>
<feComposite in2="hardAlpha" operator="out"/>
<feColorMatrix type="matrix" values="0 0 0 0 0 0 0 0 0 0 0 0 0 0 0 0 0 0 0.25 0"/>
<feBlend mode="normal" in2="BackgroundImageFix" result="effect1_dropShadow_937_26701"/>
<feBlend mode="normal" in="SourceGraphic" in2="effect1_dropShadow_937_26701" result="shape"/>
</filter>
</defs>
</svg>
