<svg width="1000" height="1000" viewBox="0 0 1000 1000" fill="none" xmlns="http://www.w3.org/2000/svg">
<mask id="path-1-outside-1_407_31484" maskUnits="userSpaceOnUse" x="200" y="201" width="600" height="599" fill="black">
<rect fill="white" x="200" y="201" width="600" height="599"/>
<path fill-rule="evenodd" clip-rule="evenodd" d="M791.939 489.283C791.939 538.983 778.463 585.663 754.828 626.137C753.169 628.979 753.402 632.514 754.992 635.394C760.531 645.426 762.806 659.423 760.404 674.31C758.429 686.545 753.633 697.286 747.302 705.136C745.916 706.855 745.14 708.999 745.196 711.206C745.214 711.937 745.224 712.673 745.224 713.415C745.224 733.572 738.252 749.913 729.652 749.913C721.796 749.913 715.299 736.278 714.234 718.554C714.17 717.495 713.56 716.582 712.621 716.09C710.209 714.826 706.227 716.818 706.281 719.54C706.29 719.993 706.295 720.447 706.295 720.902C706.295 748.295 689.955 770.501 669.798 770.501C656.667 770.501 645.156 761.077 638.727 746.934C636.622 742.304 631.158 739.795 626.542 741.93C623.846 743.177 621.126 744.386 618.384 745.555C615.933 746.6 614.163 748.776 613.452 751.344C607.07 774.394 588.305 791.089 566.149 791.089C551.545 791.089 538.414 783.836 529.332 772.29C527.515 769.98 524.722 768.586 521.791 768.794C514.586 769.305 507.31 769.565 499.969 769.565C471.408 769.565 443.804 765.628 417.715 758.289C412.846 756.919 407.857 760.319 405.486 764.786C401.027 773.186 392.059 778.924 381.722 778.924C369.286 778.924 358.832 770.62 355.827 759.367C355.078 756.563 352.021 754.592 349.119 754.592C339.444 754.592 331.601 745.584 331.601 734.471C331.601 730.639 332.534 727.057 334.153 724.008C335 722.414 334.664 720.354 333.164 719.35C331.413 718.178 329.011 719.032 328.034 720.899C324.809 727.065 318.896 731.196 312.136 731.196C301.923 731.196 293.645 721.769 293.645 710.14C293.645 704.702 295.455 699.745 298.427 696.009C299.402 694.783 299.396 692.968 298.242 691.908C296.766 690.554 294.359 691.21 293.687 693.096C288.627 707.297 279.995 716.65 270.196 716.65C254.609 716.65 241.973 692.978 241.973 663.777C241.973 653.104 243.661 643.17 246.564 634.86C247.414 632.428 247.232 629.731 245.92 627.514C221.783 586.722 208 539.548 208 489.283C208 334.487 338.719 209 499.969 209C661.22 209 791.939 334.487 791.939 489.283Z"/>
</mask>
<path fill-rule="evenodd" clip-rule="evenodd" d="M791.939 489.283C791.939 538.983 778.463 585.663 754.828 626.137C753.169 628.979 753.402 632.514 754.992 635.394C760.531 645.426 762.806 659.423 760.404 674.31C758.429 686.545 753.633 697.286 747.302 705.136C745.916 706.855 745.14 708.999 745.196 711.206C745.214 711.937 745.224 712.673 745.224 713.415C745.224 733.572 738.252 749.913 729.652 749.913C721.796 749.913 715.299 736.278 714.234 718.554C714.17 717.495 713.56 716.582 712.621 716.09C710.209 714.826 706.227 716.818 706.281 719.54C706.29 719.993 706.295 720.447 706.295 720.902C706.295 748.295 689.955 770.501 669.798 770.501C656.667 770.501 645.156 761.077 638.727 746.934C636.622 742.304 631.158 739.795 626.542 741.93C623.846 743.177 621.126 744.386 618.384 745.555C615.933 746.6 614.163 748.776 613.452 751.344C607.07 774.394 588.305 791.089 566.149 791.089C551.545 791.089 538.414 783.836 529.332 772.29C527.515 769.98 524.722 768.586 521.791 768.794C514.586 769.305 507.31 769.565 499.969 769.565C471.408 769.565 443.804 765.628 417.715 758.289C412.846 756.919 407.857 760.319 405.486 764.786C401.027 773.186 392.059 778.924 381.722 778.924C369.286 778.924 358.832 770.62 355.827 759.367C355.078 756.563 352.021 754.592 349.119 754.592C339.444 754.592 331.601 745.584 331.601 734.471C331.601 730.639 332.534 727.057 334.153 724.008C335 722.414 334.664 720.354 333.164 719.35C331.413 718.178 329.011 719.032 328.034 720.899C324.809 727.065 318.896 731.196 312.136 731.196C301.923 731.196 293.645 721.769 293.645 710.14C293.645 704.702 295.455 699.745 298.427 696.009C299.402 694.783 299.396 692.968 298.242 691.908C296.766 690.554 294.359 691.21 293.687 693.096C288.627 707.297 279.995 716.65 270.196 716.65C254.609 716.65 241.973 692.978 241.973 663.777C241.973 653.104 243.661 643.17 246.564 634.86C247.414 632.428 247.232 629.731 245.92 627.514C221.783 586.722 208 539.548 208 489.283C208 334.487 338.719 209 499.969 209C661.22 209 791.939 334.487 791.939 489.283Z" fill="#FFF2D0"/>
<path d="M760.404 674.31L768.302 675.584V675.584L760.404 674.31ZM245.92 627.514L252.805 623.44L245.92 627.514ZM293.687 693.096L301.223 695.781L293.687 693.096ZM298.427 696.009L292.166 691.029L298.427 696.009ZM334.153 724.008L327.088 720.255L334.153 724.008ZM417.715 758.289L415.548 765.99L417.715 758.289ZM405.486 764.786L398.419 761.036L405.486 764.786ZM529.332 772.29L523.044 777.236L529.332 772.29ZM521.791 768.794L522.357 776.774L521.791 768.794ZM706.281 719.54L698.283 719.699L706.281 719.54ZM355.827 759.367L348.098 761.432L355.827 759.367ZM714.234 718.554L722.219 718.073L714.234 718.554ZM747.302 705.136L753.529 710.159L747.302 705.136ZM745.196 711.206L737.198 711.41L745.196 711.206ZM328.034 720.899L335.123 724.607L328.034 720.899ZM638.727 746.934L646.01 743.623L638.727 746.934ZM626.542 741.93L623.184 734.669L626.542 741.93ZM618.384 745.555L615.246 738.196L618.384 745.555ZM613.452 751.344L621.162 753.479L613.452 751.344ZM754.828 626.137L761.737 630.171L754.828 626.137ZM754.992 635.394L747.988 639.261L754.992 635.394ZM761.737 630.171C786.06 588.518 799.939 540.452 799.939 489.283H783.939C783.939 537.514 770.866 582.808 747.92 622.103L761.737 630.171ZM768.302 675.584C770.937 659.256 768.545 643.39 761.995 631.528L747.988 639.261C752.516 647.462 754.676 659.59 752.506 673.035L768.302 675.584ZM753.529 710.159C760.82 701.119 766.129 689.05 768.302 675.584L752.506 673.035C750.73 684.039 746.446 693.454 741.075 700.114L753.529 710.159ZM753.224 713.415C753.224 712.606 753.214 711.801 753.193 711.003L737.198 711.41C737.215 712.073 737.224 712.741 737.224 713.415H753.224ZM729.652 757.913C734.52 757.913 738.481 755.566 741.346 752.726C744.177 749.919 746.36 746.255 748.021 742.362C751.356 734.547 753.224 724.307 753.224 713.415H737.224C737.224 722.68 735.606 730.689 733.305 736.083C732.148 738.795 730.975 740.477 730.081 741.363C729.22 742.217 729.084 741.913 729.652 741.913V757.913ZM706.248 719.034C706.825 728.633 708.885 737.567 712.204 744.383C715.202 750.537 720.796 757.913 729.652 757.913V741.913C730.653 741.913 729.07 742.471 726.589 737.376C724.43 732.944 722.708 726.198 722.219 718.073L706.248 719.034ZM698.283 719.699C698.291 720.098 698.295 720.499 698.295 720.902H714.295C714.295 720.394 714.29 719.887 714.28 719.382L698.283 719.699ZM698.295 720.902C698.295 733.07 694.655 743.767 689.161 751.233C683.666 758.701 676.728 762.501 669.798 762.501V778.501C683.026 778.501 694.335 771.198 702.049 760.715C709.765 750.229 714.295 736.127 714.295 720.902H698.295ZM669.798 762.501C660.833 762.501 651.628 755.983 646.01 743.623L631.444 750.244C638.684 766.171 652.501 778.501 669.798 778.501V762.501ZM621.522 752.914C624.338 751.713 627.131 750.472 629.901 749.191L623.184 734.669C620.56 735.883 617.914 737.059 615.246 738.196L621.522 752.914ZM566.149 799.089C592.631 799.089 614.03 779.236 621.162 753.479L605.742 749.209C600.11 769.551 583.978 783.089 566.149 783.089V799.089ZM523.044 777.236C533.427 790.435 548.762 799.089 566.149 799.089V783.089C554.328 783.089 543.401 777.236 535.619 767.343L523.044 777.236ZM499.969 777.565C507.499 777.565 514.964 777.299 522.357 776.774L521.225 760.814C514.209 761.312 507.121 761.565 499.969 761.565V777.565ZM415.548 765.99C442.338 773.526 470.67 777.565 499.969 777.565V761.565C472.145 761.565 445.271 757.73 419.881 750.588L415.548 765.99ZM381.722 786.924C395.072 786.924 406.731 779.504 412.552 768.537L398.419 761.036C395.324 766.868 389.046 770.924 381.722 770.924V786.924ZM348.098 761.432C352.041 776.198 365.676 786.924 381.722 786.924V770.924C372.897 770.924 365.623 765.043 363.556 757.303L348.098 761.432ZM323.601 734.471C323.601 748.926 334.021 762.592 349.119 762.592V746.592C344.867 746.592 339.601 742.242 339.601 734.471H323.601ZM327.088 720.255C324.85 724.468 323.601 729.34 323.601 734.471H339.601C339.601 731.937 340.217 729.645 341.218 727.76L327.088 720.255ZM312.136 739.196C322.356 739.196 330.757 732.955 335.123 724.607L320.945 717.191C318.862 721.175 315.437 723.196 312.136 723.196V739.196ZM285.645 710.14C285.645 725.179 296.56 739.196 312.136 739.196V723.196C307.286 723.196 301.645 718.358 301.645 710.14H285.645ZM292.166 691.029C288.044 696.211 285.645 702.932 285.645 710.14H301.645C301.645 706.472 302.866 703.28 304.688 700.989L292.166 691.029ZM270.196 724.65C277.822 724.65 284.375 720.978 289.443 715.786C294.48 710.626 298.424 703.634 301.223 695.781L286.151 690.41C283.889 696.758 280.987 701.543 277.994 704.61C275.031 707.645 272.368 708.65 270.196 708.65V724.65ZM233.973 663.777C233.973 679.426 237.341 693.99 243.182 704.931C248.84 715.53 258.013 724.65 270.196 724.65V708.65C266.792 708.65 261.854 705.934 257.297 697.397C252.922 689.201 249.973 677.329 249.973 663.777H233.973ZM239.011 632.222C235.785 641.458 233.973 652.292 233.973 663.777H249.973C249.973 653.916 251.537 644.882 254.116 637.499L239.011 632.222ZM200 489.283C200 541.034 214.196 589.609 239.035 631.587L252.805 623.44C229.371 583.836 216 538.062 216 489.283H200ZM499.969 201C334.612 201 200 329.764 200 489.283H216C216 339.21 342.826 217 499.969 217V201ZM799.939 489.283C799.939 329.764 665.327 201 499.969 201V217C657.112 217 783.939 339.21 783.939 489.283H799.939ZM254.116 637.499C255.677 633.032 255.418 627.856 252.805 623.44L239.035 631.587C239.046 631.606 239.151 631.823 239.011 632.222L254.116 637.499ZM303.651 686.014C297.731 680.581 288.642 683.419 286.151 690.41L301.223 695.781C300.076 699 295.801 700.527 292.832 697.802L303.651 686.014ZM304.688 700.989C307.851 697.012 308.38 690.354 303.651 686.014L292.832 697.802C290.413 695.582 290.954 692.553 292.166 691.029L304.688 700.989ZM341.218 727.76C343.632 723.216 343.124 716.39 337.614 712.702L328.714 725.998C327.513 725.194 326.889 724.019 326.69 723.005C326.499 722.036 326.65 721.078 327.088 720.255L341.218 727.76ZM419.881 750.588C409.957 747.796 401.748 754.763 398.419 761.036L412.552 768.537C413.084 767.534 413.898 766.717 414.65 766.284C415 766.083 415.252 766.013 415.383 765.992C415.495 765.973 415.532 765.985 415.548 765.99L419.881 750.588ZM535.619 767.343C532.355 763.193 527.098 760.398 521.225 760.814L522.357 776.774C522.367 776.773 522.43 776.769 522.558 776.829C522.696 776.895 522.878 777.024 523.044 777.236L535.619 767.343ZM716.334 709.004C712.091 706.78 707.607 707.761 704.795 709.243C702.026 710.704 698.173 714.163 698.283 719.699L714.28 719.382C714.307 720.752 713.806 721.799 713.36 722.407C712.94 722.98 712.513 723.262 712.257 723.397C711.993 723.536 711.647 723.659 711.182 723.692C710.72 723.726 709.875 723.683 708.907 723.176L716.334 709.004ZM363.556 757.303C361.703 750.367 354.946 746.592 349.119 746.592V762.592C348.947 762.592 348.852 762.565 348.823 762.555C348.792 762.545 348.767 762.534 348.733 762.51C348.713 762.496 348.306 762.212 348.098 761.432L363.556 757.303ZM722.219 718.073C721.981 714.116 719.666 710.75 716.334 709.004L708.907 723.176C707.454 722.414 706.359 720.874 706.248 719.034L722.219 718.073ZM741.075 700.114C738.576 703.212 737.091 707.185 737.198 711.41L753.193 711.003C753.188 710.813 753.256 710.497 753.529 710.159L741.075 700.114ZM337.614 712.702C331.142 708.37 323.677 711.969 320.945 717.191L335.123 724.607C334.608 725.592 333.75 726.284 332.741 726.607C331.671 726.948 330.121 726.94 328.714 725.998L337.614 712.702ZM646.01 743.623C642.369 735.615 632.458 730.379 623.184 734.669L629.901 749.191C629.933 749.176 630.081 749.102 630.443 749.256C630.848 749.428 631.237 749.79 631.444 750.244L646.01 743.623ZM615.246 738.196C610.348 740.285 607.04 744.522 605.742 749.209L621.162 753.479C621.219 753.273 621.309 753.122 621.387 753.029C621.461 752.942 621.511 752.919 621.522 752.914L615.246 738.196ZM747.92 622.103C744.584 627.816 745.301 634.393 747.988 639.261L761.995 631.528C761.779 631.136 761.696 630.766 761.688 630.503C761.68 630.261 761.734 630.176 761.737 630.171L747.92 622.103Z" fill="#090909" mask="url(#path-1-outside-1_407_31484)"/>
<mask id="mask0_407_31484" style="mask-type:alpha" maskUnits="userSpaceOnUse" x="208" y="209" width="584" height="583">
<path fill-rule="evenodd" clip-rule="evenodd" d="M791.939 489.283C791.939 538.983 778.463 585.663 754.828 626.137C753.169 628.979 753.402 632.514 754.992 635.394C760.531 645.426 762.806 659.423 760.404 674.31C758.429 686.545 753.633 697.286 747.302 705.136C745.916 706.855 745.14 708.999 745.196 711.206C745.214 711.937 745.224 712.673 745.224 713.415C745.224 733.572 738.252 749.913 729.652 749.913C721.796 749.913 715.299 736.278 714.234 718.554C714.17 717.495 713.56 716.582 712.621 716.09C710.209 714.826 706.227 716.818 706.281 719.54C706.29 719.993 706.295 720.447 706.295 720.902C706.295 748.295 689.955 770.501 669.798 770.501C656.667 770.501 645.156 761.077 638.727 746.934C636.622 742.304 631.158 739.795 626.542 741.93C623.846 743.177 621.126 744.386 618.384 745.555C615.933 746.6 614.163 748.776 613.452 751.344C607.07 774.394 588.305 791.089 566.149 791.089C551.545 791.089 538.414 783.836 529.332 772.29C527.515 769.98 524.722 768.586 521.791 768.794C514.586 769.305 507.31 769.565 499.969 769.565C471.408 769.565 443.804 765.628 417.715 758.289C412.846 756.919 407.857 760.319 405.486 764.786C401.027 773.186 392.059 778.924 381.722 778.924C369.286 778.924 358.832 770.62 355.827 759.367C355.078 756.563 352.021 754.592 349.119 754.592C339.444 754.592 331.601 745.584 331.601 734.471C331.601 730.639 332.534 727.057 334.153 724.008C335 722.414 334.664 720.354 333.164 719.35C331.413 718.178 329.011 719.032 328.034 720.899C324.809 727.065 318.896 731.196 312.136 731.196C301.923 731.196 293.645 721.769 293.645 710.14C293.645 704.702 295.455 699.745 298.427 696.009C299.402 694.783 299.396 692.968 298.242 691.908C296.766 690.554 294.359 691.21 293.687 693.096C288.627 707.297 279.995 716.65 270.196 716.65C254.609 716.65 241.973 692.978 241.973 663.777C241.973 653.104 243.661 643.17 246.564 634.86C247.414 632.428 247.232 629.731 245.92 627.514C221.783 586.722 208 539.548 208 489.283C208 334.487 338.719 209 499.969 209C661.22 209 791.939 334.487 791.939 489.283Z" fill="#FFF2D0"/>
</mask>
<g mask="url(#mask0_407_31484)">
<path fill-rule="evenodd" clip-rule="evenodd" d="M652.674 287.635C630.081 287.148 609.459 286.703 587.11 288.206C560.626 289.987 536.2 294.51 509.528 299.448C494.15 302.295 478.025 305.281 460.329 307.959C416.835 314.541 370.825 326.671 338.745 347.856C336.834 349.119 335.017 350.352 333.286 351.566C329.651 354.116 331.661 359.367 336.094 359.096C343.146 358.665 350.654 358.207 358.842 357.854C379.903 356.948 399.625 356.829 418.492 356.716C459.314 356.471 496.13 356.25 533.833 348.121L534.184 348.045C590.631 335.875 655.2 321.954 717.989 321.575C718.614 321.572 719.25 321.567 719.897 321.562C746.405 321.372 790.479 321.054 823.777 371.445C833.654 386.393 845.579 412.631 840.985 445.382C836.516 477.247 820.95 497.355 807.369 509.621C800.99 515.382 794.55 519.89 789.716 523.152C787.356 524.745 785.534 525.945 783.956 526.985C781.609 528.532 779.799 529.725 777.551 531.328C738.644 559.058 696.311 588.959 651.612 612.518C643.964 616.55 636.954 620.115 629.216 622.557C623.702 624.297 617.605 625.411 613.092 626.235C612.096 626.417 611.177 626.585 610.359 626.743C533.27 641.571 452.293 654.831 370.679 654.831C358.137 654.831 346.977 654.536 336.414 654.256C319.876 653.818 304.802 653.419 288.175 654.253C286.571 654.334 286.124 656.495 287.594 657.142C296.98 661.28 306.945 664.785 317.544 667.798C359.1 679.61 404.256 685.559 447.542 685.864C480.602 686.097 515.288 688.63 548.409 691.05C565.85 692.324 582.857 693.566 598.964 694.424C647.773 697.023 693.38 696.624 737.177 686.816C762.792 681.079 787.398 701.569 792.136 732.58C796.874 763.592 779.95 793.382 754.335 799.118C699.968 811.293 645.918 811.242 594.818 808.521C575.286 807.48 556.739 806.111 538.677 804.778C507.528 802.479 477.822 800.286 446.993 800.069C397.338 799.72 345.082 792.938 295.983 778.982C255.708 767.534 215.619 748.587 179.745 713.652C163.792 698.117 149.346 673.714 147.254 643.311C144.866 608.607 159.482 577.781 184.421 560.25C205.203 545.641 227.224 542.066 243.535 540.91C251.908 540.317 260.059 540.309 266.778 540.328C267.441 540.33 268.088 540.332 268.721 540.334C274.965 540.354 279.772 540.369 284.271 540.144C303.249 539.192 324.237 539.7 343.221 540.159C353.106 540.398 362.447 540.624 370.679 540.624C444.482 540.624 519.362 528.607 595.557 513.95C597.368 513.602 598.966 513.306 600.29 513.06L600.483 513.025C601.908 512.761 602.885 512.578 603.726 512.412C605.185 512.123 605.502 512.019 605.447 512.035C605.442 512.036 605.434 512.039 605.423 512.042C605.393 512.051 605.393 512.054 605.447 512.035C605.725 511.934 607.434 511.243 613.958 507.804C649.405 489.121 683.987 465.37 719.788 439.957C721.635 438.646 720.724 435.768 718.458 435.781C665.015 436.103 608.339 448.061 550.371 460.559C504.335 470.485 454.431 470.825 410.078 471.127C393.131 471.242 376.994 471.352 362.194 471.99C357.21 472.204 351.694 472.545 345.802 472.908C326.421 474.104 302.979 475.551 281.1 473.589C261.498 471.831 242.712 460.776 230.933 438.407C221.801 421.067 220.112 402.235 219.417 394.012C219.372 393.474 219.321 392.893 219.267 392.271C217.817 375.678 213.843 330.185 240.449 295.587C257.452 273.477 276.074 259.151 293.574 247.594C341.749 215.781 402.308 201.644 448.628 194.634C460.948 192.769 474.526 190.284 488.793 187.672C518.541 182.227 551.286 176.232 581.877 174.175C607.577 172.446 634.198 172.996 658.835 173.504C669.946 173.734 680.653 173.955 690.691 173.955C716.74 173.955 737.857 199.521 737.857 231.058C737.857 262.596 716.74 288.162 690.691 288.162C677.104 288.162 664.614 287.892 652.674 287.635ZM238.478 624.223C238.485 624.22 238.564 624.303 238.691 624.482C238.533 624.316 238.47 624.226 238.478 624.223Z" fill="#5F3016"/>
</g>
<path d="M218 499C218 343.256 346.942 217 506 217" stroke="white" stroke-opacity="0.25" stroke-width="15" stroke-linecap="round"/>
<path fill-rule="evenodd" clip-rule="evenodd" d="M620.982 744.707C620.895 744.601 620.748 744.566 620.623 744.622C620.581 744.641 620.54 744.66 620.498 744.679C620.381 744.731 620.29 744.829 620.244 744.949C619.362 747.221 617.697 749.656 615.191 752.762C614.221 753.965 613.606 755.41 613.336 756.932C612.374 762.344 610.389 767.544 607.474 772.269C604.14 777.672 599.665 782.33 594.343 785.938C589.021 789.546 582.971 792.023 576.592 793.205C570.212 794.388 563.647 794.249 557.326 792.799C551.006 791.349 545.073 788.619 539.918 784.79C534.763 780.961 530.501 776.118 527.413 770.58C527.117 770.049 526.539 769.735 525.933 769.791C517.291 770.591 508.583 771 499.835 771C471.281 771 443.655 766.685 417.524 758.86C412.675 757.407 407.624 760.726 405.178 765.158C400.655 773.355 391.799 778.924 381.615 778.924C369.267 778.924 358.871 770.735 355.784 759.602C354.955 756.611 351.646 754.486 348.542 754.486C338.598 754.486 330.537 745.364 330.537 734.113C330.537 732.358 327.63 730.621 326.084 731.449C322.907 733.15 319.29 734.113 315.452 734.113C302.82 734.113 292.581 723.688 292.581 710.829C292.581 710.52 292.216 710.341 291.973 710.533C286.484 714.853 279.889 717.197 276.022 717.549C275.385 717.607 274.742 717.683 274.114 717.802C254.605 721.498 239.053 691.454 239.053 665.588C239.053 654.196 239.743 646.781 241.969 642.035C244.283 637.101 247.077 630.565 244.222 625.924C224.487 593.858 211.805 558.993 208.118 524.085C207.407 517.356 215.602 514.473 219.682 519.87C220.301 520.688 220.739 521.664 220.961 522.665C280.878 793.604 639.247 801.378 778.69 499.785C782.221 492.147 793.144 493.969 792.862 502.379C791.357 547.236 777.679 589.537 755.176 626.723C753.477 629.53 753.648 633.058 755.19 635.954C760.507 645.943 762.656 659.698 760.298 674.31C758.323 686.545 753.527 697.287 747.195 705.137C745.809 706.856 745.033 709 745.089 711.207C745.108 711.938 745.117 712.674 745.117 713.415C745.117 733.572 738.145 749.913 729.545 749.913C721.687 749.913 715.188 736.269 714.126 718.536C714.063 717.488 713.459 716.584 712.529 716.098C710.127 714.841 706.129 716.857 706.188 719.567C706.199 720.048 706.204 720.531 706.204 721.016C706.204 748.609 688.993 770.978 667.761 770.978C656.837 770.978 651.358 765.585 645.232 759.556C639.467 753.882 633.13 747.645 621.145 744.808C621.082 744.793 621.023 744.757 620.982 744.707Z" fill="black" fill-opacity="0.25"/>
</svg>
