<svg width="1000" height="1000" viewBox="0 0 1000 1000" fill="none" xmlns="http://www.w3.org/2000/svg">
<path fill-rule="evenodd" clip-rule="evenodd" d="M659.141 318.028C657.028 318.225 654.89 318.305 652.734 318.262L615.757 317.532C584.746 316.92 554.83 294.63 555.001 261.66C555.268 209.935 582.178 176.065 611.837 155.981C638.202 138.128 671.372 155.086 686.985 185.003L705.98 221.401C707.063 223.475 708.033 225.593 708.892 227.745C723.753 231.428 736.141 242.027 742.942 256.205C748.025 254.591 753.355 253.699 758.804 253.602L762.474 253.537C800.543 252.857 834.941 286.525 821.363 324.487C811.388 352.375 794.975 373.939 777.154 389.976C747.626 416.55 707.325 392.119 696.809 351.54L695.414 346.158C694.55 342.824 693.939 339.454 693.576 336.078C679.93 335.036 667.759 328.279 659.141 318.028Z" fill="black" fill-opacity="0.25"/>
<path d="M703.385 290.732L719.221 267.057C726.839 255.668 739.059 248.851 752.275 248.616L779.228 248.137C792.868 247.895 805.672 253.664 814.143 262.833C822.547 271.928 826.678 284.307 823.367 297.833C813.029 340.065 787.889 369.469 762.211 388.29C751.214 396.35 738.949 396.189 728.377 390.49C717.709 384.74 708.734 373.295 704.966 358.828L697.211 329.052C693.76 315.804 696.028 301.731 703.385 290.732Z" fill="#E40303" stroke="black" stroke-width="8"/>
<path d="M772.731 371C742.654 401.077 707.346 363.808 702.115 323.923C718.243 350.949 763.315 384.992 814.577 304.962C804.115 338.962 782.32 363.154 772.731 371Z" fill="black" fill-opacity="0.25"/>
<path d="M706.686 265.751L697.326 283.241C689.894 297.128 675.882 305.505 660.587 305.204L602.685 304.067C580.209 303.625 560.042 287.834 558.279 265.354C553.281 201.622 588.423 163.34 623.903 143.519C642.799 132.963 665.883 144.018 677.193 165.583L706.538 221.536C713.859 235.495 713.915 252.243 706.686 265.751Z" fill="#E40303" stroke="black" stroke-width="8"/>
<path d="M697.283 272.86L698.545 270.502C587.935 321.918 556.961 230.423 614.111 156.198C587.569 174.082 563.489 204.242 563.249 250.301C563.096 279.66 589.868 299.508 617.619 300.053L650.709 300.703C670.099 301.084 687.861 290.465 697.283 272.86Z" fill="black" fill-opacity="0.25"/>
<path d="M676.818 246.258C676.818 262.657 664.297 275.565 649.314 275.565C634.331 275.565 621.811 262.657 621.811 246.258C621.811 229.86 634.331 216.951 649.314 216.951C664.297 216.951 676.818 229.86 676.818 246.258Z" fill="#E40303" stroke="black" stroke-width="8"/>
<path d="M766.289 299.278C766.289 315.676 753.768 328.585 738.785 328.585C723.802 328.585 711.281 315.676 711.281 299.278C711.281 282.879 723.802 269.97 738.785 269.97C753.768 269.97 766.289 282.879 766.289 299.278Z" fill="#E40303" stroke="black" stroke-width="8"/>
<path d="M744.867 272.088C744.867 300.531 723.29 323.147 697.2 323.147C671.111 323.147 649.534 300.531 649.534 272.088C649.534 243.646 671.111 221.03 697.2 221.03C723.29 221.03 744.867 243.646 744.867 272.088Z" fill="#E40303" stroke="black" stroke-width="8"/>
<circle cx="689.692" cy="249.385" r="13.0769" fill="white" fill-opacity="0.25"/>
<path d="M697.539 317.385C720.65 317.385 739.385 297.479 739.385 272.923C706.954 318.431 670.077 291.885 655.692 272.923C655.692 297.479 674.428 317.385 697.539 317.385Z" fill="black" fill-opacity="0.25"/>
</svg>
