<svg width="1000" height="1000" viewBox="0 0 1000 1000" fill="none" xmlns="http://www.w3.org/2000/svg">
<g clip-path="url(#clip0_249_3746)">
<path d="M306.22 705.667C303.124 695.381 310.841 685.028 321.582 685.055L678.77 685.973C689.406 686 697.055 696.204 694.099 706.421L585.577 1081.45C583.596 1088.29 577.331 1093 570.207 1093H434.688C427.627 1093 421.401 1088.37 419.367 1081.61L306.22 705.667Z" fill="#DD933C"/>
<mask id="mask0_249_3746" style="mask-type:alpha" maskUnits="userSpaceOnUse" x="305" y="685" width="390" height="407">
<path d="M306.253 705.722C303.149 695.435 310.852 685.028 321.598 685.055L678.756 685.973C689.395 686 697.045 696.212 694.081 706.431L585.582 1080.43C583.598 1087.27 577.335 1091.97 570.216 1091.97H434.679C427.623 1091.97 421.389 1087.32 419.351 1080.56C375.607 935.582 349.261 848.263 306.253 705.722Z" fill="#FFBF74"/>
</mask>
<g mask="url(#mask0_249_3746)">
<line y1="-5" x2="546.2" y2="-5" transform="matrix(0.72 0.693974 -0.562748 0.826628 112.615 752.026)" stroke="#FFBF74" stroke-width="10"/>
<line y1="-5" x2="546.247" y2="-5" transform="matrix(0.719661 0.694326 -0.562183 0.827013 154.879 726.054)" stroke="#FFBF74" stroke-width="10"/>
<line y1="-5" x2="546.247" y2="-5" transform="matrix(0.719661 0.694326 -0.562183 0.827013 196.992 700.08)" stroke="#FFBF74" stroke-width="10"/>
<line y1="-5" x2="546.247" y2="-5" transform="matrix(0.719661 0.694326 -0.562183 0.827013 239.105 674.106)" stroke="#FFBF74" stroke-width="10"/>
<line y1="-5" x2="546.247" y2="-5" transform="matrix(0.719661 0.694326 -0.562183 0.827013 281.218 648.134)" stroke="#FFBF74" stroke-width="10"/>
<line y1="-5" x2="546.247" y2="-5" transform="matrix(0.719661 0.694326 -0.562183 0.827013 323.331 622.16)" stroke="#FFBF74" stroke-width="10"/>
<line y1="-5" x2="546.247" y2="-5" transform="matrix(0.719661 0.694326 -0.562183 0.827013 365.443 596.187)" stroke="#FFBF74" stroke-width="10"/>
<line y1="-5" x2="546.247" y2="-5" transform="matrix(0.719661 0.694326 -0.562183 0.827013 407.556 570.214)" stroke="#FFBF74" stroke-width="10"/>
<line y1="-5" x2="546.247" y2="-5" transform="matrix(0.719661 0.694326 -0.562183 0.827013 449.669 544.24)" stroke="#FFBF74" stroke-width="10"/>
<line y1="-5" x2="440.646" y2="-5" transform="matrix(-0.280881 0.959743 0.901346 0.433099 668.8 685.017)" stroke="#FFBF74" stroke-width="10"/>
<line y1="-5" x2="440.683" y2="-5" transform="matrix(-0.280419 0.959878 0.901044 0.433727 628.072 685.017)" stroke="#FFBF74" stroke-width="10"/>
<line y1="-5" x2="440.683" y2="-5" transform="matrix(-0.280419 0.959878 0.901044 0.433727 587.345 685.017)" stroke="#FFBF74" stroke-width="10"/>
<line y1="-5" x2="440.683" y2="-5" transform="matrix(-0.280419 0.959878 0.901044 0.433727 546.618 685.017)" stroke="#FFBF74" stroke-width="10"/>
<line y1="-5" x2="440.683" y2="-5" transform="matrix(-0.280419 0.959878 0.901044 0.433727 505.891 685.017)" stroke="#FFBF74" stroke-width="10"/>
<line y1="-5" x2="440.683" y2="-5" transform="matrix(-0.280419 0.959878 0.901044 0.433727 465.164 685.017)" stroke="#FFBF74" stroke-width="10"/>
<line y1="-5" x2="440.683" y2="-5" transform="matrix(-0.280419 0.959878 0.901044 0.433727 424.436 685.017)" stroke="#FFBF74" stroke-width="10"/>
<line y1="-5" x2="440.683" y2="-5" transform="matrix(-0.280419 0.959878 0.901044 0.433727 383.709 685.017)" stroke="#FFBF74" stroke-width="10"/>
<line y1="-5" x2="440.683" y2="-5" transform="matrix(-0.280419 0.959878 0.901044 0.433727 342.981 685.017)" stroke="#FFBF74" stroke-width="10"/>
</g>
<path d="M310.05 704.514C307.729 696.8 313.516 689.035 321.572 689.055L678.76 689.973C686.737 689.994 692.474 697.646 690.256 705.309L581.734 1080.34C580.249 1085.47 575.55 1089 570.207 1089H434.688C429.392 1089 424.723 1085.53 423.197 1080.46L310.05 704.514Z" stroke="black" stroke-width="8"/>
<path d="M318.845 730.071C315.916 719.847 323.592 709.665 334.226 709.665H667.935C678.52 709.665 686.188 719.76 683.348 729.958L585.494 1081.29C583.567 1088.21 577.264 1093 570.081 1093H434.855C427.715 1093 421.439 1088.27 419.473 1081.41L318.845 730.071Z" fill="black" fill-opacity="0.25"/>
<path d="M305.152 702.133C302.585 693.605 308.969 685.017 317.874 685.017C320.562 685.017 323.185 685.831 325.4 687.353L627.804 895.183C633.572 899.147 636.094 906.4 634.03 913.088L581.982 1081.72C579.912 1088.43 573.713 1093 566.694 1093H434.688C427.627 1093 421.401 1088.37 419.367 1081.61L305.152 702.133Z" fill="#DD933C"/>
<mask id="mask1_249_3746" style="mask-type:alpha" maskUnits="userSpaceOnUse" x="304" y="685" width="331" height="407">
<path d="M305.16 702.115C302.59 693.59 308.972 685 317.876 685C320.562 685 323.185 685.814 325.399 687.336L627.96 895.289C633.653 899.202 636.192 906.327 634.256 912.959L585.362 1080.46C583.37 1087.28 577.113 1091.97 570.003 1091.97H434.58C427.523 1091.97 421.298 1087.35 419.261 1080.59L305.16 702.115Z" fill="#FFBF74"/>
</mask>
<g mask="url(#mask1_249_3746)">
<line y1="-5" x2="437.603" y2="-5" transform="matrix(0.719621 0.694367 -0.562117 0.827058 76 828.004)" stroke="#FFBF74" stroke-width="10"/>
<line y1="-5" x2="437.642" y2="-5" transform="matrix(0.719282 0.694718 -0.561551 0.827442 120.909 807.233)" stroke="#FFBF74" stroke-width="10"/>
<line y1="-5" x2="437.642" y2="-5" transform="matrix(0.719282 0.694718 -0.561551 0.827442 165.696 786.463)" stroke="#FFBF74" stroke-width="10"/>
<line y1="-5" x2="437.642" y2="-5" transform="matrix(0.719282 0.694718 -0.561551 0.827442 210.484 765.691)" stroke="#FFBF74" stroke-width="10"/>
<line y1="-5" x2="437.642" y2="-5" transform="matrix(0.719282 0.694718 -0.561551 0.827442 255.271 744.921)" stroke="#FFBF74" stroke-width="10"/>
<line y1="-5" x2="437.642" y2="-5" transform="matrix(0.719282 0.694718 -0.561551 0.827442 300.059 724.149)" stroke="#FFBF74" stroke-width="10"/>
<line y1="-5" x2="437.642" y2="-5" transform="matrix(0.719282 0.694718 -0.561551 0.827442 344.847 703.379)" stroke="#FFBF74" stroke-width="10"/>
<line y1="-5" x2="437.642" y2="-5" transform="matrix(0.719282 0.694718 -0.561551 0.827442 389.634 682.608)" stroke="#FFBF74" stroke-width="10"/>
<line y1="-5" x2="437.642" y2="-5" transform="matrix(0.719282 0.694718 -0.561551 0.827442 434.422 661.837)" stroke="#FFBF74" stroke-width="10"/>
<line y1="-5" x2="441.457" y2="-5" transform="matrix(-0.280365 0.959893 0.901009 0.433801 638.8 685.017)" stroke="#FFBF74" stroke-width="10"/>
<line y1="-5" x2="441.494" y2="-5" transform="matrix(-0.279904 0.960028 0.900706 0.43443 598.072 685.017)" stroke="#FFBF74" stroke-width="10"/>
<line y1="-5" x2="441.494" y2="-5" transform="matrix(-0.279904 0.960028 0.900706 0.43443 557.345 685.017)" stroke="#FFBF74" stroke-width="10"/>
<line y1="-5" x2="441.494" y2="-5" transform="matrix(-0.279904 0.960028 0.900706 0.43443 516.618 685.017)" stroke="#FFBF74" stroke-width="10"/>
<line y1="-5" x2="441.494" y2="-5" transform="matrix(-0.279904 0.960028 0.900706 0.43443 475.891 685.017)" stroke="#FFBF74" stroke-width="10"/>
<line y1="-5" x2="441.494" y2="-5" transform="matrix(-0.279904 0.960028 0.900706 0.43443 435.164 685.017)" stroke="#FFBF74" stroke-width="10"/>
<line y1="-5" x2="441.494" y2="-5" transform="matrix(-0.279904 0.960028 0.900706 0.43443 394.436 685.017)" stroke="#FFBF74" stroke-width="10"/>
<line y1="-5" x2="441.494" y2="-5" transform="matrix(-0.279904 0.960028 0.900706 0.43443 353.709 685.017)" stroke="#FFBF74" stroke-width="10"/>
<line y1="-5" x2="441.494" y2="-5" transform="matrix(-0.279904 0.960028 0.900706 0.43443 312.981 685.017)" stroke="#FFBF74" stroke-width="10"/>
</g>
<path d="M308.982 700.98C307.188 695.02 311.65 689.017 317.874 689.017C319.753 689.017 321.587 689.586 323.134 690.65L625.539 898.479C629.865 901.453 631.756 906.892 630.208 911.908L578.16 1080.54C576.607 1085.57 571.958 1089 566.694 1089H434.688C429.392 1089 424.723 1085.53 423.197 1080.46L308.982 700.98Z" stroke="black" stroke-width="8"/>
<path opacity="0.5" d="M316.5 708.123L498 844.294L613.989 928.69C619.404 932.63 621.793 939.526 619.975 945.972L581.788 1081.34C579.843 1088.24 573.553 1093 566.389 1093H434.974C427.778 1093 421.467 1088.2 419.552 1081.26L316.5 708.123Z" fill="black" fill-opacity="0.25"/>
<path d="M692.039 713.431C695.524 701.424 684.509 690.239 672.45 693.539L346.828 782.641C338.152 785.015 333.137 794.072 335.73 802.686L423 1092.6L494.839 1331.52C497.123 1339.12 507.877 1339.12 510.161 1331.52L582 1092.6L692.039 713.431Z" fill="#DD933C"/>
<mask id="mask2_249_3746" style="mask-type:alpha" maskUnits="userSpaceOnUse" x="335" y="692" width="358" height="649">
<path d="M692.023 713.441C695.514 701.433 684.498 690.242 672.436 693.542L346.814 782.645C338.143 785.018 333.128 794.066 335.711 802.676L422.5 1091.94L500.342 1338.95C500.93 1340.81 503.57 1340.81 504.158 1338.95L582 1091.94L692.023 713.441Z" fill="#FFBF74"/>
</mask>
<g mask="url(#mask2_249_3746)">
<line y1="-5" x2="651.177" y2="-5" transform="matrix(-0.19007 0.981771 0.809082 0.587696 660.633 695.78)" stroke="#FFBF74" stroke-width="10"/>
<line y1="-5" x2="651.281" y2="-5" transform="matrix(-0.189743 0.981834 0.808583 0.588382 619.906 695.78)" stroke="#FFBF74" stroke-width="10"/>
<line y1="-5" x2="651.281" y2="-5" transform="matrix(-0.189743 0.981834 0.808583 0.588382 579.178 695.78)" stroke="#FFBF74" stroke-width="10"/>
<line y1="-5" x2="651.281" y2="-5" transform="matrix(-0.189743 0.981834 0.808583 0.588382 538.451 695.78)" stroke="#FFBF74" stroke-width="10"/>
<line y1="-5" x2="651.281" y2="-5" transform="matrix(-0.189743 0.981834 0.808583 0.588382 497.723 695.78)" stroke="#FFBF74" stroke-width="10"/>
<line y1="-5" x2="651.281" y2="-5" transform="matrix(-0.189743 0.981834 0.808583 0.588382 456.996 695.78)" stroke="#FFBF74" stroke-width="10"/>
<line y1="-5" x2="651.281" y2="-5" transform="matrix(-0.189743 0.981834 0.808583 0.588382 416.27 695.78)" stroke="#FFBF74" stroke-width="10"/>
<line y1="-5" x2="651.281" y2="-5" transform="matrix(-0.189743 0.981834 0.808583 0.588382 375.543 695.78)" stroke="#FFBF74" stroke-width="10"/>
<line y1="-5" x2="555.987" y2="-5" transform="matrix(0.566055 0.824368 -0.410687 0.911776 253.748 911.662)" stroke="#FFBF74" stroke-width="10"/>
<line y1="-5" x2="555.987" y2="-5" transform="matrix(0.566055 0.824368 -0.410687 0.911776 193 911.662)" stroke="#FFBF74" stroke-width="10"/>
<line y1="-5" x2="556.143" y2="-5" transform="matrix(0.565678 0.824626 -0.410185 0.912002 298.467 880.297)" stroke="#FFBF74" stroke-width="10"/>
<line y1="-5" x2="556.143" y2="-5" transform="matrix(0.565678 0.824626 -0.410185 0.912002 343.066 848.932)" stroke="#FFBF74" stroke-width="10"/>
<line y1="-5" x2="556.143" y2="-5" transform="matrix(0.565678 0.824626 -0.410185 0.912002 387.664 817.566)" stroke="#FFBF74" stroke-width="10"/>
<line y1="-5" x2="556.143" y2="-5" transform="matrix(0.565678 0.824626 -0.410185 0.912002 432.262 786.201)" stroke="#FFBF74" stroke-width="10"/>
<line y1="-5" x2="556.143" y2="-5" transform="matrix(0.565678 0.824626 -0.410185 0.912002 476.859 754.836)" stroke="#FFBF74" stroke-width="10"/>
<line y1="-5" x2="556.143" y2="-5" transform="matrix(0.565678 0.824626 -0.410185 0.912002 521.457 723.471)" stroke="#FFBF74" stroke-width="10"/>
<line y1="-5" x2="556.143" y2="-5" transform="matrix(0.565678 0.824626 -0.410185 0.912002 566.057 692.104)" stroke="#FFBF74" stroke-width="10"/>
<line y1="-5" x2="556.143" y2="-5" transform="matrix(0.565678 0.824626 -0.410185 0.912002 610.654 660.739)" stroke="#FFBF74" stroke-width="10"/>
</g>
<path d="M426.83 1091.45L426.836 1091.47L426.843 1091.49L496.736 1333.17C498.407 1338.95 506.593 1338.95 508.264 1333.17L578.157 1091.49L578.159 1091.49L691.183 702.029C692.49 697.527 688.359 693.332 683.837 694.57L347.884 786.499C341.377 788.28 337.616 795.073 339.56 801.533L426.83 1091.45Z" stroke="black" stroke-width="8"/>
<path d="M694.685 704.408C696.927 696.644 689.51 689.566 681.859 692.166L618.084 713.844C613.032 715.562 609.168 719.685 607.782 724.838L469.5 1239L492.557 1330.53C495.3 1341.42 510.677 1341.68 513.792 1330.89L694.685 704.408Z" fill="black" fill-opacity="0.25"/>
</g>
<defs>
<clipPath id="clip0_249_3746">
<rect width="1000" height="1000" fill="white"/>
</clipPath>
</defs>
</svg>
