<svg width="1000" height="1000" viewBox="0 0 1000 1000" fill="none" xmlns="http://www.w3.org/2000/svg">
<g clip-path="url(#clip0_814_34383)">
<path d="M961.159 1047.51C961.159 1091.76 950.936 1093.03 931.105 1131.15C930.895 1131.55 930.716 1131.98 930.58 1132.41C910.225 1197.41 908.759 1309.82 877.136 1356.28C853.275 1356.28 818.059 1356.28 808.732 1356.28C773.555 1356.28 873.328 1264.17 819.877 1026.58C811.403 941.8 860.265 925.623 897.815 931.335C942.219 938.09 961.159 1003.03 961.159 1047.51Z" fill="#DD933C" stroke="black" stroke-width="6"/>
<path d="M897.818 931.335C860.268 925.623 811.405 941.8 819.879 1026.58C833.635 1087.72 837.243 1139.23 835.614 1182.01C835.614 1217.52 893.396 1321.8 926.401 1132.53C926.542 1131.72 926.822 1130.86 927.203 1130.14C946.944 1092.51 961.162 1091.57 961.162 1047.51C961.162 1003.03 942.221 938.09 897.818 931.335Z" fill="black" fill-opacity="0.25"/>
<path d="M1162.69 1036.01C1162.69 1080.49 1162.69 1125.5 1162.69 1181.49C1162.69 1237.49 1165.12 1251.61 1165.12 1356.49C1137.09 1356.49 1115.92 1356.49 1099.94 1356.49C1058.38 1356.49 1135.42 1303.6 1052.11 1181.49C906.092 967.459 1034.31 925.858 1078.43 931.57C1130.6 938.324 1162.69 991.531 1162.69 1036.01Z" fill="#DD933C" stroke="black" stroke-width="6"/>
<path d="M1078.43 931.57C1034.31 925.858 906.092 967.459 1052.11 1181.49C1087.8 1224.4 1170.48 1390.81 1162.69 1181.49C1154.89 972.168 1162.69 1080.49 1162.69 1036.01C1162.69 991.531 1130.6 938.324 1078.43 931.57Z" fill="black" fill-opacity="0.25"/>
<path d="M577.594 617.088C582.196 602.591 593.923 583.891 603.856 574.455C614.212 566.082 635.144 548.29 687.585 548.29C824.169 564.513 809.516 627.833 830.971 719.935C830.971 808.374 929.877 808.374 965.461 808.374C1001.05 808.374 1204.61 806.804 1236.01 808.374C1260.64 808.374 1388.3 795.394 1403.89 661.674C1404.42 657.116 1411.37 656.366 1412.44 660.829C1447.63 807.757 1375.95 870.124 1261.13 870.124C1273.2 909.895 1287.28 1008.07 1247 1082.59C1204.44 1076.83 1097.02 1068.77 1007.85 1082.59C845.101 1117.65 767.128 1091.48 718.984 1047.53C680.468 1012.36 654.33 921.583 653.981 861.751C653.804 831.399 687.585 758.66 651.89 770.696C590.14 778.545 556.011 757.613 517.92 737.727C476.697 712.089 475.414 670.649 477.661 636.146C477.956 631.606 482.016 628.285 486.541 628.749C508.977 631.05 544.18 633.316 564.948 630.341C571.492 629.404 575.593 623.389 577.594 617.088Z" fill="#FFBF74" stroke="black" stroke-width="6"/>
<path d="M513.21 720.458C561.355 759.21 644.973 759.706 657.643 747.67C668.633 742.961 714.684 708.946 696.891 770.695C686.948 832.969 683.922 1082.06 965.461 1041.25C1151.12 1030.26 1043.32 855.472 1230.14 855.472C1250.79 855.472 1409.95 878.094 1407.94 676.999C1407.89 672.151 1414.78 671.057 1415.71 675.813C1442.6 812.008 1371.97 870.123 1261.13 870.123C1273.2 909.895 1287.28 1008.07 1247 1082.59C1204.44 1076.83 1097.02 1068.77 1007.85 1082.59C845.101 1117.65 767.128 1091.48 718.984 1047.52C680.468 1012.36 654.33 921.582 653.981 861.75C653.804 831.399 687.585 758.659 651.89 770.695C590.14 778.545 556.011 757.612 517.92 737.727C491.849 721.511 481.753 698.976 478.422 675.872C477.132 666.924 485.738 666.206 487.642 675.044C491.723 693.991 497.724 710.081 513.21 720.458Z" fill="black" fill-opacity="0.25"/>
<path d="M653.458 627.834C653.458 616.851 644.087 607.948 632.526 607.948C620.965 607.948 611.594 616.851 611.594 627.834" stroke="black" stroke-width="10" stroke-linecap="round"/>
<path d="M486.546 628.75C495.123 629.629 505.563 630.504 516.35 631.082C518.566 648.315 514.171 680.373 478.857 670.744C477.634 658.182 477.419 646.181 477.789 636.157C477.957 631.612 482.021 628.286 486.546 628.75Z" fill="#5F3016" stroke="black" stroke-width="6"/>
<g filter="url(#filter0_d_814_34383)">
<path d="M814.432 602.534C817.312 653.609 790.379 696.663 752.247 698.813C696.267 701.97 711.83 670.04 708.949 618.965C706.069 567.891 640.576 541.579 696.556 538.423C752.536 535.266 811.551 551.46 814.432 602.534Z" fill="#FFBF74"/>
<path d="M814.432 602.534C817.312 653.609 790.379 696.663 752.247 698.813C696.267 701.97 711.83 670.04 708.949 618.965C706.069 567.891 640.576 541.579 696.556 538.423C752.536 535.266 811.551 551.46 814.432 602.534Z" stroke="black" stroke-width="6"/>
</g>
<path d="M814.748 602.916C817.628 653.99 790.696 697.045 752.564 699.195C696.584 702.352 773.35 673.002 770.47 621.928C767.589 570.853 680.146 527.359 752.565 543.433C770.481 550.235 811.868 551.841 814.748 602.916Z" fill="white" fill-opacity="0.25"/>
<path d="M885.975 1056.11C885.975 1100.34 864.249 1093.35 840.855 1131.33C840.589 1131.76 840.362 1132.22 840.187 1132.7C816.293 1197.7 814.561 1310.05 777.418 1356.49C749.383 1356.49 708.007 1356.49 697.048 1356.49C655.719 1356.49 772.944 1264.39 710.143 1026.81C700.187 942.031 715.203 906.756 759.689 906.756C840.448 906.756 885.975 1011.63 885.975 1056.11Z" fill="#FFBF74" stroke="black" stroke-width="6"/>
<path d="M885.975 1056.11C885.975 1100.34 864.249 1093.35 840.855 1131.33C840.589 1131.76 840.362 1132.22 840.187 1132.7C816.293 1197.7 814.561 1310.05 777.418 1356.49C749.383 1356.49 730.383 1356.49 719.424 1356.49C678.095 1356.49 840.449 1277.26 792.657 1038.63C782.701 953.853 715.203 906.756 759.689 906.756C840.448 906.756 885.975 1011.63 885.975 1056.11Z" fill="black" fill-opacity="0.25"/>
<mask id="path-13-outside-1_814_34383" maskUnits="userSpaceOnUse" x="636.969" y="793.479" width="364" height="318" fill="black">
<rect fill="white" x="636.969" y="793.479" width="364" height="318"/>
<path fill-rule="evenodd" clip-rule="evenodd" d="M968.176 1097.67C967.692 1099.28 966.241 1100.44 964.565 1100.53L881.986 1105.08C878.409 1105.27 876.239 1100.9 878.3 1097.97C899.612 1067.66 914.098 1006.99 914.604 922.816C914.618 920.605 912.825 918.792 910.615 918.792H691.275C688.743 918.792 686.848 921.115 687.357 923.596L711.348 1040.49C712.038 1043.85 708.476 1046.4 705.615 1044.51C640.982 1001.71 639.369 911.695 645.086 870.658V870.649C645.086 870.648 645.087 870.647 645.088 870.647V870.647H676.49H909.004C911.302 870.647 913.128 868.716 912.988 866.423C911.779 846.576 909.876 825.74 907.212 803.982C906.92 801.591 908.781 799.479 911.19 799.479L964.855 799.479C966.385 799.479 967.766 800.313 968.417 801.697C988.435 844.252 1014.77 942.911 968.176 1097.67Z"/>
</mask>
<path fill-rule="evenodd" clip-rule="evenodd" d="M968.176 1097.67C967.692 1099.28 966.241 1100.44 964.565 1100.53L881.986 1105.08C878.409 1105.27 876.239 1100.9 878.3 1097.97C899.612 1067.66 914.098 1006.99 914.604 922.816C914.618 920.605 912.825 918.792 910.615 918.792H691.275C688.743 918.792 686.848 921.115 687.357 923.596L711.348 1040.49C712.038 1043.85 708.476 1046.4 705.615 1044.51C640.982 1001.71 639.369 911.695 645.086 870.658V870.649C645.086 870.648 645.087 870.647 645.088 870.647V870.647H676.49H909.004C911.302 870.647 913.128 868.716 912.988 866.423C911.779 846.576 909.876 825.74 907.212 803.982C906.92 801.591 908.781 799.479 911.19 799.479L964.855 799.479C966.385 799.479 967.766 800.313 968.417 801.697C988.435 844.252 1014.77 942.911 968.176 1097.67Z" fill="#5F3016"/>
<path d="M645.086 870.658L651.029 871.486L651.086 871.074V870.658H645.086ZM907.212 803.982L901.257 804.711L907.212 803.982ZM912.988 866.423L907 866.788L912.988 866.423ZM711.348 1040.49L717.226 1039.29L711.348 1040.49ZM705.615 1044.51L708.928 1039.5L705.615 1044.51ZM687.357 923.596L681.48 924.802L687.357 923.596ZM914.604 922.816L908.605 922.779L914.604 922.816ZM964.565 1100.53L964.895 1106.52L964.565 1100.53ZM968.176 1097.67L973.921 1099.4L968.176 1097.67ZM968.418 801.697L962.988 804.251L968.418 801.697ZM881.986 1105.08L881.657 1099.08L881.986 1105.08ZM878.3 1097.97L883.208 1101.42L878.3 1097.97ZM882.316 1111.07L964.895 1106.52L964.236 1094.54L881.657 1099.08L882.316 1111.07ZM908.605 922.779C908.1 1006.68 893.605 1065.77 873.392 1094.52L883.208 1101.42C905.619 1069.55 920.096 1007.31 920.604 922.852L908.605 922.779ZM691.275 924.792H910.615V912.792H691.275V924.792ZM717.226 1039.29L693.235 922.39L681.48 924.802L705.471 1041.7L717.226 1039.29ZM639.144 869.831C636.21 890.892 635.152 924.426 643.129 958.297C651.111 992.19 668.292 1026.99 702.302 1049.51L708.928 1039.5C678.305 1019.23 662.363 987.618 654.81 955.546C647.251 923.452 648.246 891.462 651.029 871.486L639.144 869.831ZM639.086 870.649V870.658H651.086V870.649H639.086ZM676.49 864.647H645.088V876.647H676.49V864.647ZM909.004 864.647H676.49V876.647H909.004V864.647ZM901.257 804.711C903.907 826.353 905.798 847.067 907 866.788L918.977 866.058C917.76 846.084 915.846 825.127 913.168 803.253L901.257 804.711ZM964.855 793.479L911.19 793.479V805.479L964.855 805.479V793.479ZM973.921 1099.4C1020.92 943.285 994.522 843.096 973.847 799.143L962.988 804.251C982.348 845.407 1008.61 942.536 962.431 1095.94L973.921 1099.4ZM913.168 803.253C913.311 804.422 912.401 805.479 911.19 805.479V793.479C905.161 793.479 900.528 798.761 901.257 804.711L913.168 803.253ZM909.004 876.647C914.741 876.647 919.328 871.82 918.977 866.058L907 866.788C906.928 865.612 907.863 864.647 909.004 864.647V876.647ZM651.086 870.649C651.086 873.962 648.401 876.647 645.088 876.647V864.647C641.773 864.647 639.086 867.334 639.086 870.649H651.086ZM705.471 1041.7C705.308 1040.91 705.685 1040.04 706.353 1039.57C706.677 1039.34 707.106 1039.17 707.608 1039.16C708.144 1039.14 708.613 1039.3 708.928 1039.5L702.302 1049.51C709.981 1054.59 718.905 1047.47 717.226 1039.29L705.471 1041.7ZM691.275 912.792C684.944 912.792 680.207 918.6 681.48 924.802L693.235 922.39C693.489 923.63 692.542 924.792 691.275 924.792V912.792ZM920.604 922.852C920.637 917.334 916.173 912.792 910.615 912.792V924.792C909.477 924.792 908.598 923.877 908.605 922.779L920.604 922.852ZM964.895 1106.52C969.138 1106.29 972.722 1103.39 973.921 1099.4L962.431 1095.94C962.662 1095.18 963.344 1094.59 964.236 1094.54L964.895 1106.52ZM964.855 805.479C964.179 805.479 963.376 805.075 962.988 804.251L973.847 799.143C972.157 795.55 968.591 793.479 964.855 793.479V805.479ZM881.657 1099.08C882.062 1099.06 882.487 1099.18 882.825 1099.39C883.13 1099.59 883.292 1099.81 883.373 1099.97C883.508 1100.23 883.63 1100.82 883.208 1101.42L873.392 1094.52C870.909 1098.05 871.086 1102.29 872.685 1105.42C874.302 1108.59 877.758 1111.32 882.316 1111.07L881.657 1099.08Z" fill="#090909" mask="url(#path-13-outside-1_814_34383)"/>
<path d="M648.883 825.285L648.883 804.965C648.883 799.734 652.566 795.23 657.688 794.183C716.85 782.095 780.695 767.552 825.794 727.638C831.341 722.729 840.398 724.124 843.685 731.087L853.988 752.915C855.753 756.654 855.382 761.317 852.249 764.524C840.483 776.564 817.623 790.488 785.477 803.352C753.246 816.251 711.428 828.186 661.508 836.105C654.848 837.162 648.883 831.985 648.883 825.285Z" fill="#004DFF" stroke="black" stroke-width="6"/>
<path d="M651.883 825.285L651.883 804.965C651.883 801.161 654.562 797.884 658.289 797.123C690.766 790.487 724.942 783.069 756.743 770.993C760.749 769.472 765.283 771.26 767.068 775.156L776.03 794.714C777.951 798.907 775.947 803.854 771.613 805.43C741.582 816.349 704.395 826.265 661.03 833.144C656.213 833.908 651.883 830.163 651.883 825.285Z" fill="black" fill-opacity="0.25"/>
<mask id="path-17-inside-2_814_34383" fill="white">
<path fill-rule="evenodd" clip-rule="evenodd" d="M1055.48 698.627C1055.38 698.812 1055.27 698.996 1055.17 699.181L1055.16 699.179L945.082 889.848C941.035 896.856 932.074 899.257 925.066 895.211C918.058 891.165 915.656 882.203 919.703 875.195L1029.79 684.526L1029.67 684.457C1034.09 676.797 1035.29 667.694 1033 659.15C1030.71 650.607 1025.12 643.322 1017.46 638.9C1009.8 634.477 1000.7 633.279 992.152 635.568C983.608 637.857 976.324 643.447 971.901 651.107L971.744 651.016L884.152 799.938L859.643 786.919L948.544 632.657L948.677 632.734C957.115 620.188 969.833 611.063 984.53 607.125C1000.62 602.815 1017.76 605.071 1032.18 613.399C1046.61 621.726 1057.13 635.442 1061.44 651.529C1065.56 666.907 1063.68 683.248 1056.23 697.258L1056.26 697.276L1055.48 698.627Z"/>
</mask>
<path fill-rule="evenodd" clip-rule="evenodd" d="M1055.48 698.627C1055.38 698.812 1055.27 698.996 1055.17 699.181L1055.16 699.179L945.082 889.848C941.035 896.856 932.074 899.257 925.066 895.211C918.058 891.165 915.656 882.203 919.703 875.195L1029.79 684.526L1029.67 684.457C1034.09 676.797 1035.29 667.694 1033 659.15C1030.71 650.607 1025.12 643.322 1017.46 638.9C1009.8 634.477 1000.7 633.279 992.152 635.568C983.608 637.857 976.324 643.447 971.901 651.107L971.744 651.016L884.152 799.938L859.643 786.919L948.544 632.657L948.677 632.734C957.115 620.188 969.833 611.063 984.53 607.125C1000.62 602.815 1017.76 605.071 1032.18 613.399C1046.61 621.726 1057.13 635.442 1061.44 651.529C1065.56 666.907 1063.68 683.248 1056.23 697.258L1056.26 697.276L1055.48 698.627Z" fill="#C4C4C4"/>
<path d="M1055.17 699.181L1052.17 704.377L1057.36 707.377L1060.36 702.181L1055.17 699.181ZM1055.48 698.627L1050.29 695.627L1050.27 695.654L1050.26 695.68L1055.48 698.627ZM1055.16 699.179L1058.16 693.983L1052.97 690.983L1049.97 696.179L1055.16 699.179ZM945.082 889.848L950.278 892.848L945.082 889.848ZM1029.79 684.526L1034.98 687.526L1037.98 682.33L1032.79 679.33L1029.79 684.526ZM1029.67 684.457L1024.47 681.457L1021.47 686.654L1026.67 689.654L1029.67 684.457ZM1033 659.15L1038.79 657.598L1038.79 657.598L1033 659.15ZM992.152 635.568L990.599 629.773L990.599 629.773L992.152 635.568ZM971.901 651.107L968.901 656.303L974.097 659.303L977.097 654.107L971.901 651.107ZM971.744 651.016L974.744 645.82L969.589 642.844L966.572 647.974L971.744 651.016ZM884.152 799.938L881.337 805.237L886.411 807.932L889.324 802.98L884.152 799.938ZM859.643 786.919L854.444 783.923L851.343 789.304L856.828 792.218L859.643 786.919ZM948.544 632.657L951.544 627.461L946.344 624.459L943.346 629.661L948.544 632.657ZM948.677 632.734L945.677 637.93L950.529 640.731L953.656 636.082L948.677 632.734ZM984.53 607.125L982.977 601.33L984.53 607.125ZM1061.44 651.529L1055.64 653.082L1061.44 651.529ZM1056.23 697.258L1050.93 694.442L1048.22 699.557L1053.23 702.454L1056.23 697.258ZM1056.26 697.276L1061.46 700.276L1064.46 695.08L1059.26 692.08L1056.26 697.276ZM1060.36 702.181C1060.48 701.979 1060.59 701.777 1060.71 701.574L1050.26 695.68C1050.16 695.847 1050.07 696.014 1049.97 696.181L1060.36 702.181ZM1052.16 704.375L1052.17 704.377L1058.17 693.984L1058.16 693.983L1052.16 704.375ZM950.278 892.848L1060.36 702.179L1049.97 696.179L939.886 886.848L950.278 892.848ZM922.066 900.407C931.944 906.11 944.575 902.726 950.278 892.848L939.886 886.848C937.496 890.986 932.204 892.404 928.066 890.015L922.066 900.407ZM914.507 872.195C908.803 882.073 912.188 894.704 922.066 900.407L928.066 890.015C923.927 887.625 922.509 882.334 924.899 878.195L914.507 872.195ZM1024.59 681.526L914.507 872.195L924.899 878.195L1034.98 687.526L1024.59 681.526ZM1026.67 689.654L1026.79 689.723L1032.79 679.33L1032.67 679.261L1026.67 689.654ZM1027.2 660.703C1029.08 667.71 1028.1 675.175 1024.47 681.457L1034.86 687.457C1040.08 678.419 1041.49 667.678 1038.79 657.598L1027.2 660.703ZM1014.46 644.096C1020.74 647.723 1025.32 653.697 1027.2 660.703L1038.79 657.598C1036.09 647.517 1029.5 638.922 1020.46 633.704L1014.46 644.096ZM993.705 641.364C1000.71 639.486 1008.18 640.469 1014.46 644.096L1020.46 633.704C1011.42 628.486 1000.68 627.072 990.599 629.773L993.705 641.364ZM977.097 654.107C980.724 647.825 986.698 643.241 993.705 641.364L990.599 629.773C980.518 632.474 971.923 639.069 966.705 648.107L977.097 654.107ZM968.744 656.212L968.901 656.303L974.901 645.911L974.744 645.82L968.744 656.212ZM889.324 802.98L976.915 654.058L966.572 647.974L878.98 796.896L889.324 802.98ZM856.828 792.218L881.337 805.237L886.967 794.639L862.458 781.62L856.828 792.218ZM943.346 629.661L854.444 783.923L864.841 789.915L953.743 635.653L943.346 629.661ZM951.677 627.538L951.544 627.461L945.544 637.853L945.677 637.93L951.677 627.538ZM982.977 601.33C966.876 605.644 952.943 615.641 943.698 629.385L953.656 636.082C961.287 624.735 972.79 616.482 986.083 612.921L982.977 601.33ZM1035.18 608.202C1019.38 599.079 1000.6 596.607 982.977 601.33L986.083 612.921C1000.63 609.022 1016.14 611.063 1029.18 618.595L1035.18 608.202ZM1067.24 649.976C1062.51 632.352 1050.98 617.325 1035.18 608.202L1029.18 618.595C1042.23 626.126 1051.75 638.532 1055.64 653.082L1067.24 649.976ZM1061.53 700.075C1069.69 684.726 1071.75 666.824 1067.24 649.976L1055.64 653.082C1059.37 666.991 1057.67 681.771 1050.93 694.442L1061.53 700.075ZM1059.26 692.08L1059.23 692.062L1053.23 702.454L1053.26 702.472L1059.26 692.08ZM1060.68 701.627L1061.46 700.276L1051.07 694.276L1050.29 695.627L1060.68 701.627Z" fill="black" mask="url(#path-17-inside-2_814_34383)"/>
</g>
<defs>
<filter id="filter0_d_814_34383" x="666" y="535.045" width="154.641" height="177.983" filterUnits="userSpaceOnUse" color-interpolation-filters="sRGB">
<feFlood flood-opacity="0" result="BackgroundImageFix"/>
<feColorMatrix in="SourceAlpha" type="matrix" values="0 0 0 0 0 0 0 0 0 0 0 0 0 0 0 0 0 0 127 0" result="hardAlpha"/>
<feOffset dx="-1" dy="7"/>
<feGaussianBlur stdDeviation="2"/>
<feComposite in2="hardAlpha" operator="out"/>
<feColorMatrix type="matrix" values="0 0 0 0 0 0 0 0 0 0 0 0 0 0 0 0 0 0 0.25 0"/>
<feBlend mode="normal" in2="BackgroundImageFix" result="effect1_dropShadow_814_34383"/>
<feBlend mode="normal" in="SourceGraphic" in2="effect1_dropShadow_814_34383" result="shape"/>
</filter>
<clipPath id="clip0_814_34383">
<rect width="1000" height="1000" fill="white"/>
</clipPath>
</defs>
</svg>
