<svg width="1000" height="1000" viewBox="0 0 1000 1000" fill="none" xmlns="http://www.w3.org/2000/svg">
<g clip-path="url(#clip0_964_30834)">
<path d="M498.343 1252.85C504.895 1282.2 510.694 1308.18 516.011 1328.85C497.714 1329.9 487.55 1342.16 483.258 1354.21C481.024 1360.48 480.325 1366.82 480.912 1371.69C481.203 1374.11 481.83 1376.31 482.871 1377.97C483.932 1379.66 485.572 1380.98 487.778 1380.98C493.151 1380.98 499.824 1380.97 506.58 1380.97C520.335 1380.95 534.432 1380.94 538.59 1380.98L538.591 1380.98C547.743 1381.07 555.086 1373.36 560.94 1361.75C566.88 1349.97 571.722 1333.37 575.549 1313.94C583.21 1275.04 586.899 1224.31 586.899 1176.93C586.899 1174.48 586.835 1170.89 586.773 1167.91C586.751 1166.88 586.729 1165.92 586.71 1165.11C588.122 1165.39 590.12 1165.75 592.711 1166.14C598.384 1166.97 606.901 1167.91 618.351 1168.34C641.252 1169.19 675.878 1168 722.936 1159.83C778.001 1150.28 835.96 1179 851.96 1230.68C858.016 1250.25 866.047 1269.2 873.882 1286.59C876.283 1291.92 878.661 1297.1 880.959 1302.09C885.692 1312.39 890.082 1321.94 893.622 1330.57C885.515 1331.13 879.231 1334.03 874.543 1338.25C869.339 1342.93 866.222 1349.13 864.663 1355.23C863.108 1361.32 863.067 1367.46 864.154 1372.16C864.696 1374.51 865.547 1376.62 866.739 1378.19C867.943 1379.78 869.64 1380.98 871.782 1380.98C877.887 1380.98 884.616 1381.02 891.181 1381.06C903.87 1381.13 915.946 1381.19 921.729 1380.98L921.73 1380.98C926.936 1380.79 930.819 1377.25 933.685 1372.04C936.554 1366.83 938.65 1359.54 940.207 1350.88C943.326 1333.53 944.39 1310.01 944.683 1284.86C944.865 1269.2 944.748 1252.82 944.634 1236.86C944.565 1227.2 944.497 1217.69 944.497 1208.58C944.497 1184.34 944.981 1162.96 947.164 1148.73C948.414 1140.6 949.895 1132.19 951.419 1123.54C960.54 1071.79 971.176 1011.45 942.547 948.414C1016.15 907.055 1042 821.704 1042 752.041C1042 695.214 1018.05 652.117 980.029 623.282C942.069 594.493 890.205 580 834.382 580C820.643 580 809.536 591.125 809.536 604.834C809.536 618.542 820.643 629.667 834.382 629.667C854.75 629.667 892.762 634.955 925.606 652.965C958.352 670.921 985.842 701.426 985.842 752.041C985.842 781.8 980.115 811.151 969.198 835.35C958.276 859.563 942.237 878.456 921.705 887.617C914.41 890.872 905.954 889.843 898.446 886.194C895.315 884.673 892.491 883.27 891.028 882.486C807.759 837.456 730.359 842.669 668.875 855.647C653.511 858.89 639.135 862.619 625.921 866.168C623.033 866.943 620.203 867.71 617.431 868.46C607.499 871.149 598.315 873.636 589.908 875.619C579.15 878.156 569.799 879.834 561.932 880.057C554.057 880.281 547.9 879.038 543.339 875.967C525.079 863.655 521.465 847.077 517.182 827.44C516.952 826.382 516.719 825.315 516.482 824.239C511.882 803.361 505.69 779.84 479.547 756.865C475.755 735.909 469.657 710.575 462.443 690.361C458.801 680.155 454.84 671.155 450.695 664.668C448.624 661.427 446.453 658.729 444.185 656.821C441.917 654.915 439.409 653.684 436.717 653.684C434.583 653.684 432.548 654.569 430.671 655.942C428.792 657.317 426.948 659.27 425.148 661.638C421.547 666.374 417.914 673.047 414.381 680.927C407.931 695.313 401.681 714.024 396.504 733.101C390.289 719.082 383.35 705.391 376.598 694.799C372.803 688.847 369.021 683.798 365.41 680.213C361.887 676.716 358.155 674.234 354.469 674.234C352.022 674.234 349.758 675.323 347.724 677.014C345.693 678.702 343.766 681.092 341.938 683.971C338.279 689.731 334.8 697.79 331.593 707.135C325.25 725.619 319.836 749.539 316.215 771.769C277.878 798.159 249.66 836.454 249.66 881.736C249.66 913.793 273.772 933.462 300.989 945.172C328.27 956.909 359.373 960.997 374.951 961.619C381.869 961.896 389.575 966.658 397.612 974.794C405.581 982.861 413.559 993.922 421.029 1006.11C435.942 1030.43 448.64 1058.9 455.034 1076.06C469.196 1125.83 480.895 1175.42 490.902 1219.67C493.49 1231.11 495.966 1242.2 498.343 1252.85Z" fill="#A75D33" stroke="black" stroke-width="4"/>
<path d="M316.293 767.614L315.589 772.133L319.385 769.582L319.385 769.582L319.386 769.581L319.391 769.578L319.409 769.566L319.482 769.517C319.548 769.473 319.645 769.408 319.774 769.322C320.032 769.15 320.415 768.897 320.909 768.571C321.898 767.92 323.336 766.981 325.127 765.832C328.705 763.536 333.69 760.404 339.322 757.055L360.014 745.598C363.536 743.75 364.338 743.423 366.437 742.567C367.111 742.291 367.919 741.962 368.994 741.51L370.288 740.965L370.216 739.563L368.218 739.666C370.216 739.563 370.216 739.562 370.215 739.562L370.215 739.559L370.215 739.551L370.213 739.52L370.207 739.405C370.201 739.305 370.192 739.159 370.179 738.969C370.154 738.59 370.115 738.037 370.056 737.334C369.94 735.929 369.749 733.92 369.449 731.496C368.85 726.653 367.813 720.122 366.062 713.406C364.316 706.708 361.832 699.722 358.293 694.031C354.76 688.35 350.027 683.733 343.716 682.24L342.238 681.891L341.504 683.22L343.255 684.187C341.504 683.22 341.504 683.221 341.504 683.221L341.502 683.223L341.499 683.229L341.488 683.249L341.448 683.323C341.414 683.387 341.364 683.48 341.299 683.602C341.17 683.846 340.982 684.206 340.741 684.681C340.259 685.63 339.566 687.039 338.711 688.893C337 692.601 334.639 698.092 332.018 705.263C326.777 719.603 320.495 740.664 316.293 767.614Z" fill="#FFF2D0" stroke="black" stroke-width="4"/>
<path d="M368.22 739.666C363.836 741.51 363.836 741.335 359.066 743.838L338.328 755.32C357.302 729.427 349.52 697.109 343.257 684.187C365.631 689.478 368.22 739.666 368.22 739.666Z" fill="black" fill-opacity="0.25"/>
<path d="M395.385 734.232L394.718 736.883L397.447 736.716C402.395 736.413 410.798 736.595 419.753 738.151C428.734 739.711 438.067 742.618 445.038 747.629L448.162 749.874L448.205 746.027L446.205 746.005C448.205 746.027 448.205 746.027 448.205 746.026L448.205 746.023L448.205 746.011L448.206 745.968L448.207 745.8C448.208 745.653 448.209 745.436 448.21 745.154C448.211 744.588 448.211 743.761 448.202 742.706C448.186 740.597 448.139 737.578 448.019 733.931C447.779 726.642 447.245 716.823 446.065 706.734C444.888 696.665 443.057 686.234 440.194 677.76C438.763 673.523 437.049 669.7 434.978 666.636C432.912 663.579 430.404 661.153 427.346 659.929L427.015 660.756C426.191 660.318 425.269 660.315 425.071 660.5C425.044 660.533 425.008 660.58 424.998 660.593C424.985 660.611 424.974 660.626 424.972 660.628L424.951 660.658C424.939 660.675 424.924 660.697 424.906 660.724C424.869 660.777 424.817 660.855 424.749 660.955C424.614 661.157 424.418 661.455 424.165 661.849C423.66 662.637 422.93 663.81 422.018 665.366C420.194 668.479 417.644 673.123 414.715 679.281C408.856 691.597 401.484 709.966 395.385 734.232Z" fill="#FFF2D0" stroke="black" stroke-width="4"/>
<path d="M426.609 661.787C447.074 669.976 446.211 746.006 446.211 746.006C440.879 741.572 428.436 737.546 415.992 735.716C428.292 721.369 431.734 681.062 426.609 661.787Z" fill="black" fill-opacity="0.25"/>
<path d="M811.535 604.834C811.535 592.229 821.747 582 834.382 582C887.606 582 937.059 595.253 974.123 621.437C977.295 640.363 971.707 672.535 923.982 649.825C891.383 632.727 854.457 627.667 834.382 627.667C821.747 627.667 811.535 617.438 811.535 604.834Z" fill="#5F3016"/>
<path d="M342.415 773.046C362.918 778.1 416.711 783.66 416.711 893.823C412.527 896.545 305.616 863.08 292.279 842.585C285.036 831.456 273.617 811.844 295.946 789.514C305.57 779.89 317.168 766.824 342.415 773.046Z" fill="#5F3016"/>
<path d="M735.278 863.849C750.711 880.322 758.089 1027.61 753.514 1029.61C748.94 1031.6 736.024 920.198 719.478 895.547C709.966 881.372 684.278 846.98 716.833 849.814C725.948 850.607 724.676 849.635 735.278 863.849Z" fill="#5F3016"/>
<path d="M778.3 860.145C788.913 873.217 784.367 983.171 780.746 984.414C777.126 985.658 774.979 902.101 764.084 882.887C757.819 871.839 740.635 844.895 765.225 848.727C772.11 849.8 771.209 849.009 778.3 860.145Z" fill="#5F3016"/>
<path d="M645.248 879.748C648.558 896.354 708.923 985.189 712.621 984.198C716.319 983.207 671.434 912.697 669.742 890.674C668.768 878.01 664.296 852.435 649.717 862.975C644.07 867.057 644.364 871.131 645.248 879.748Z" fill="#5F3016"/>
<path d="M838.033 868.041C846.239 877.503 829.67 958.045 826.226 958.992C822.782 959.939 830.263 898.791 822.493 884.834C818.025 876.81 812.017 856.899 825.483 858.463C831.643 859.179 833.819 860.085 838.033 868.041Z" fill="#5F3016"/>
<path d="M599.463 885.775C598.146 896.601 640.371 957.179 643.916 956.745C647.462 956.311 621.845 908.47 620.071 894.16C619 885.531 617.395 869.445 607.352 873.145C601.569 875.275 600.443 877.714 599.463 885.775Z" fill="#5F3016"/>
<path d="M834.382 582C945.393 582 1040 639.655 1040 752.041C1040 821.866 1013.89 907.058 939.956 947.565C974.134 1021.07 954.029 1090.82 945.187 1148.43C936.346 1206.04 955.194 1377.73 921.656 1378.98C912.928 1379.3 889.762 1378.98 871.782 1378.98C861.249 1378.98 860.244 1332.47 896.547 1332.47C885.832 1305.55 865.91 1268.99 853.87 1230.08C837.512 1177.25 778.431 1148.18 722.594 1157.86C628.741 1174.14 584.647 1162.61 584.647 1162.61C584.647 1162.61 584.899 1172.09 584.899 1176.93C584.899 1271.53 570.163 1379.3 538.612 1378.98C532.397 1378.91 504.068 1378.98 487.778 1378.98C477.36 1378.98 480.902 1330.78 518.575 1330.78C503.794 1274.06 485.311 1175.15 456.936 1075.43C444.096 1040.95 405.874 960.854 375.031 959.621C344.188 958.388 251.66 943.386 251.66 881.736C286.063 936.259 327.054 919.442 375.031 919.442C405.009 919.442 472.717 1068.35 538.612 1097.68C718.694 1177.83 896.547 1148.43 909.762 983.856C922.641 876.157 754.885 860.559 622.748 869.094C584.996 879.289 556.903 887.513 542.221 877.626C565.713 874.086 593.349 870.993 622.748 869.094C688.923 851.223 784.773 827.298 890.082 884.247C891.584 885.053 894.443 886.473 897.572 887.993C905.439 891.816 914.532 893.008 922.52 889.443C964.762 870.596 987.842 812.036 987.842 752.041C987.842 648.994 875.597 627.667 834.382 627.667C821.748 627.667 811.536 617.438 811.536 604.834C811.536 592.229 821.748 582 834.382 582Z" fill="black" fill-opacity="0.25"/>
<path d="M325.39 845.968C332.045 845.311 337.996 842.998 342.23 839.684C346.442 836.387 349.179 831.889 348.691 826.947C348.203 822.006 344.639 818.129 339.864 815.72C335.064 813.298 328.776 812.193 322.12 812.85C315.465 813.507 309.515 815.82 305.28 819.134C301.069 822.431 298.331 826.929 298.819 831.871C299.307 836.812 302.871 840.689 307.646 843.098C312.447 845.52 318.734 846.625 325.39 845.968Z" fill="#FFED00" stroke="black" stroke-width="4"/>
<path d="M313.353 816.965C313.353 816.965 318.473 822.325 318.258 828.984C318.042 835.626 314.414 841.852 314.414 841.852C314.414 841.852 309.924 836.492 309.509 829.092C309.094 821.677 313.353 816.965 313.353 816.965Z" fill="#090909"/>
<path d="M389.104 997.026L383.883 977.795C382.637 973.206 384.795 968.377 389.04 966.239C442.292 939.412 499.636 908.912 532.504 858.956C536.235 853.285 544.547 852.387 549.08 857.702L564.456 875.731C566.906 878.605 567.659 882.755 565.703 886.255C557.673 900.621 539.589 919.724 512.298 940.286C484.958 960.885 448.234 983.057 402.747 1003.51C397.163 1006.02 390.7 1002.91 389.104 997.026Z" fill="#E40303" stroke="black" stroke-width="4"/>
<path d="M391.031 996.502L385.81 977.272C384.814 973.601 386.54 969.737 389.938 968.025C419.176 953.296 449.826 937.382 477.015 917.651C480.483 915.134 485.327 915.672 488.07 918.964L501.581 935.176C504.534 938.718 503.896 944.018 500.125 946.674C474.32 964.849 441.449 983.915 401.917 1001.69C397.468 1003.69 392.309 1001.21 391.031 996.502Z" fill="black" fill-opacity="0.25"/>
<path d="M254.178 908.071L254.199 908.126L254.224 908.18C265.653 933.047 291.041 944.713 309.784 944.713C321.764 944.713 329.621 936.891 334.375 927.129C339.12 917.387 341 905.342 341 895.82C341 885.911 338.163 880.211 332.863 876.991C330.33 875.452 327.376 874.572 324.248 873.962C321.609 873.447 318.722 873.103 315.753 872.75C315.214 872.686 314.672 872.621 314.128 872.555C306.974 871.688 299.196 870.54 291.451 866.752C283.751 862.987 275.963 856.548 268.978 844.903C268.063 843.379 266.694 841.953 265.047 841.138C263.346 840.296 261.242 840.078 259.263 841.277C255.56 843.522 253.106 847.889 251.513 852.983C249.9 858.143 249.059 864.406 248.84 870.933C248.403 883.959 250.435 898.467 254.178 908.071Z" fill="#FFF2D0" stroke="black" stroke-width="4"/>
<path d="M249.354 873.825C254.721 874.027 262.538 874.177 270.696 874.083C272.305 881.215 270.542 894.728 250.612 891.725C249.377 884.977 249.107 878.573 249.354 873.825Z" fill="#3C3C3C" stroke="black" stroke-width="4"/>
<path d="M254.121 905.481C261.841 919.647 282.668 917.684 282.668 903.457" stroke="black" stroke-width="4" stroke-linecap="round"/>
<path d="M299.238 903.34C319.068 903.34 336.788 903.34 359.992 903.34" stroke="black" stroke-width="4" stroke-linecap="round"/>
<path d="M297.773 916.515C312.671 925.115 325.983 932.801 343.415 942.866" stroke="black" stroke-width="4" stroke-linecap="round"/>
</g>
<defs>
<clipPath id="clip0_964_30834">
<rect width="1000" height="1000" fill="white"/>
</clipPath>
</defs>
</svg>
