<svg width="1000" height="1000" viewBox="0 0 1000 1000" fill="none" xmlns="http://www.w3.org/2000/svg">
<g clip-path="url(#clip0_421_11926)">
<mask id="path-1-inside-1_421_11926" fill="white">
<path fill-rule="evenodd" clip-rule="evenodd" d="M452 838.073C452.001 796.191 569.749 762.239 715 762.239C860.251 762.239 978 796.191 978 838.074V848.426C978 984.84 867.414 1095.43 731 1095.43H699C562.585 1095.43 452 984.84 452 848.426V838.074C452 838.073 452 838.073 452 838.073Z"/>
</mask>
<path fill-rule="evenodd" clip-rule="evenodd" d="M452 838.073C452.001 796.191 569.749 762.239 715 762.239C860.251 762.239 978 796.191 978 838.074V848.426C978 984.84 867.414 1095.43 731 1095.43H699C562.585 1095.43 452 984.84 452 848.426V838.074C452 838.073 452 838.073 452 838.073Z" fill="#D7D6DC"/>
<path d="M452 838.073L446 838.073V838.073H452ZM458 838.073C458 830.622 463.281 822.216 476.048 813.513C488.616 804.945 507.195 796.991 530.694 790.216C577.609 776.688 642.773 768.239 715 768.239V756.239C641.976 756.239 575.64 764.767 527.369 778.685C503.273 785.633 483.338 794.02 469.288 803.598C455.438 813.04 446 824.583 446 838.073L458 838.073ZM715 768.239C787.227 768.239 852.391 776.688 899.306 790.216C922.805 796.991 941.384 804.945 953.952 813.513C966.719 822.216 972 830.622 972 838.074H984C984 824.584 974.562 813.04 960.711 803.598C946.662 794.02 926.727 785.633 902.631 778.685C854.36 764.767 788.024 756.239 715 756.239V768.239ZM972 838.074V848.426H984V838.074H972ZM972 848.426C972 981.526 864.1 1089.43 731 1089.43V1101.43C870.728 1101.43 984 988.154 984 848.426H972ZM731 1089.43H699V1101.43H731V1089.43ZM699 1089.43C565.899 1089.43 458 981.526 458 848.426H446C446 988.154 559.272 1101.43 699 1101.43V1089.43ZM458 848.426V838.074H446V848.426H458ZM458 838.074C458 838.074 458 838.074 458 838.074C458 838.074 458 838.074 458 838.074V838.074C458 838.074 458 838.074 458 838.074C458 838.074 458 838.074 458 838.074V838.074C458 838.074 458 838.074 458 838.074V838.073C458 838.073 458 838.073 458 838.073V838.073C458 838.073 458 838.073 458 838.073V838.073C458 838.073 458 838.073 458 838.073V838.073C458 838.073 458 838.073 458 838.073C458 838.073 458 838.073 458 838.073V838.073C458 838.073 458 838.073 458 838.073C458 838.073 458 838.073 458 838.073V838.073C458 838.073 458 838.073 458 838.073V838.073C458 838.073 458 838.073 458 838.073C458 838.073 458 838.073 458 838.073V838.073C458 838.073 458 838.073 458 838.073C458 838.073 458 838.073 458 838.073V838.073C458 838.073 458 838.073 458 838.073V838.073C458 838.073 458 838.073 458 838.073V838.073C458 838.073 458 838.073 458 838.073V838.073C458 838.073 458 838.073 458 838.073V838.073C458 838.073 458 838.073 458 838.073C458 838.073 458 838.073 458 838.073V838.073C458 838.073 458 838.073 458 838.073C458 838.073 458 838.073 458 838.073H446C446 838.073 446 838.073 446 838.073C446 838.073 446 838.073 446 838.073V838.073C446 838.073 446 838.073 446 838.073C446 838.073 446 838.073 446 838.073V838.073C446 838.073 446 838.073 446 838.073V838.073C446 838.073 446 838.073 446 838.073V838.073C446 838.073 446 838.073 446 838.073V838.073C446 838.073 446 838.073 446 838.073V838.073C446 838.073 446 838.073 446 838.073C446 838.073 446 838.073 446 838.073V838.073C446 838.073 446 838.073 446 838.073C446 838.073 446 838.073 446 838.073V838.073C446 838.073 446 838.073 446 838.073V838.073C446 838.073 446 838.073 446 838.073C446 838.073 446 838.073 446 838.073V838.073C446 838.073 446 838.073 446 838.073C446 838.073 446 838.073 446 838.073V838.073C446 838.073 446 838.073 446 838.073V838.073C446 838.073 446 838.073 446 838.073V838.073C446 838.073 446 838.073 446 838.073V838.074C446 838.074 446 838.074 446 838.074V838.074C446 838.074 446 838.074 446 838.074C446 838.074 446 838.074 446 838.074V838.074C446 838.074 446 838.074 446 838.074C446 838.074 446 838.074 446 838.074H458Z" fill="black" mask="url(#path-1-inside-1_421_11926)"/>
<path d="M483.947 884.801C483.947 875.821 491.509 868.695 500.473 869.226L717.373 882.089C725.827 882.591 732.426 889.593 732.426 898.061V1079.43C732.426 1088.26 725.262 1095.43 716.426 1095.43H694.573C578.248 1095.43 483.947 1001.13 483.947 884.801V884.801Z" fill="white" fill-opacity="0.25"/>
<path opacity="0.2" d="M957.83 868.246L870.863 878.07V1054.57L906.723 1024.29C939.132 996.933 957.83 956.676 957.83 914.262V868.246Z" fill="black" fill-opacity="0.25"/>
<path d="M975 838.074C975 847.034 968.68 856.225 955.642 865.113C942.704 873.933 923.785 881.995 900.138 888.814C852.883 902.439 787.426 910.908 715 910.908C642.574 910.908 577.117 902.439 529.862 888.814C506.215 881.995 487.296 873.933 474.358 865.113C461.32 856.225 455 847.034 455 838.074C455 829.113 461.32 819.922 474.358 811.034C487.296 802.214 506.215 794.152 529.862 787.333C577.117 773.708 642.574 765.239 715 765.239C787.426 765.239 852.883 773.708 900.138 787.333C923.785 794.152 942.704 802.214 955.642 811.034C968.68 819.922 975 829.113 975 838.074Z" fill="white" fill-opacity="0.25" stroke="black" stroke-width="6"/>
<path d="M942.729 835.654C942.729 838.46 941.528 841.43 938.782 844.573C936.019 847.737 931.809 850.931 926.144 854.069C914.816 860.343 898.225 866.09 877.466 870.953C835.996 880.668 778.554 886.706 714.999 886.706C651.445 886.706 594.003 880.668 552.533 870.953C531.774 866.09 515.183 860.343 503.855 854.069C498.19 850.931 493.98 847.737 491.217 844.573C488.47 841.43 487.27 838.46 487.27 835.654C487.27 832.847 488.47 829.878 491.217 826.734C493.98 823.571 498.19 820.376 503.855 817.239C515.183 810.964 531.774 805.217 552.533 800.354C594.003 790.639 651.445 784.602 714.999 784.602C778.554 784.602 835.996 790.639 877.466 800.354C898.225 805.217 914.816 810.964 926.144 817.239C931.809 820.376 936.019 823.571 938.782 826.734C941.528 829.878 942.729 832.847 942.729 835.654Z" fill="#929292" stroke="black" stroke-width="6"/>
<mask id="mask0_421_11926" style="mask-type:alpha" maskUnits="userSpaceOnUse" x="484" y="771" width="462" height="114">
<path d="M942.927 828.032C942.927 834.047 937.841 840.676 926.295 847.331C914.971 853.859 898.385 859.838 877.63 864.898C836.166 875.007 778.727 881.29 715.173 881.29C651.619 881.29 594.181 875.007 552.717 864.898C531.961 859.838 515.376 853.859 504.052 847.331C492.505 840.676 487.42 834.047 487.42 828.032C487.42 822.017 492.505 815.389 504.052 808.733C515.376 802.206 531.961 796.227 552.717 791.167C594.181 781.058 651.619 774.774 715.173 774.774C778.727 774.774 836.166 781.058 877.63 791.167C898.385 796.227 914.971 802.206 926.295 808.733C937.841 815.389 942.927 822.017 942.927 828.032Z" fill="#929292" stroke="black" stroke-width="6"/>
</mask>
<g mask="url(#mask0_421_11926)">
<path d="M934.798 864.743C934.798 872.328 929.659 880.256 918.664 888.055C907.76 895.789 891.754 902.897 871.661 908.925C831.519 920.967 775.854 928.467 714.219 928.467C652.584 928.467 596.919 920.967 556.777 908.925C536.684 902.897 520.679 895.789 509.775 888.055C498.78 880.256 493.641 872.328 493.641 864.743C493.641 857.158 498.78 849.23 509.775 841.431C520.679 833.697 536.684 826.589 556.777 820.561C596.919 808.519 652.584 801.02 714.219 801.02C775.854 801.02 831.519 808.519 871.661 820.561C891.754 826.589 907.76 833.697 918.664 841.431C929.659 849.23 934.798 857.158 934.798 864.743Z" fill="white" stroke="black" stroke-width="7"/>
<path opacity="0.5" d="M904.985 896.667C918.921 887.717 924.943 877.921 922.519 868.145C920.094 858.369 909.298 848.916 891.086 840.622C872.874 832.328 847.809 825.45 818.11 820.597C788.412 815.743 754.997 813.065 720.825 812.798C686.654 812.532 652.78 814.686 622.206 819.069C591.631 823.452 565.298 829.929 545.541 837.927C525.783 845.925 513.211 855.196 508.936 864.92C504.662 874.644 508.818 884.519 521.036 893.672L552.973 890.168C542.765 882.521 539.292 874.27 542.864 866.146C546.435 858.022 556.939 850.276 573.447 843.594C589.954 836.912 611.955 831.5 637.5 827.838C663.045 824.175 691.346 822.376 719.896 822.599C748.446 822.821 776.364 825.059 801.177 829.114C825.989 833.169 846.931 838.916 862.147 845.845C877.363 852.774 886.383 860.673 888.409 868.84C890.434 877.008 885.403 885.193 873.76 892.67L904.985 896.667Z" fill="black" fill-opacity="0.25"/>
</g>
<mask id="path-10-outside-2_421_11926" maskUnits="userSpaceOnUse" x="783.773" y="663" width="201" height="175" fill="black">
<rect fill="white" x="783.773" y="663" width="201" height="175"/>
<path fill-rule="evenodd" clip-rule="evenodd" d="M832.222 811.644C853.794 778.947 886.012 730.117 962.174 700.132C991.14 688.728 986.367 652.801 934.174 673.097C899.416 686.614 862.749 726.762 828.933 768.379C817.294 782.705 792.552 815.5 788.773 833.373H816.875C821.659 827.653 826.576 820.201 832.222 811.644Z"/>
</mask>
<path fill-rule="evenodd" clip-rule="evenodd" d="M832.222 811.644C853.794 778.947 886.012 730.117 962.174 700.132C991.14 688.728 986.367 652.801 934.174 673.097C899.416 686.614 862.749 726.762 828.933 768.379C817.294 782.705 792.552 815.5 788.773 833.373H816.875C821.659 827.653 826.576 820.201 832.222 811.644Z" fill="#C4C4C4"/>
<path d="M962.174 700.132L963.64 703.854L963.64 703.854L962.174 700.132ZM832.222 811.644L835.56 813.847L832.222 811.644ZM934.174 673.097L935.624 676.825L934.174 673.097ZM828.933 768.379L825.829 765.857L825.829 765.857L828.933 768.379ZM788.773 833.373L784.86 832.546L783.839 837.373H788.773V833.373ZM816.875 833.373V837.373H818.744L819.943 835.939L816.875 833.373ZM960.709 696.41C883.349 726.867 850.559 776.587 828.883 809.441L835.56 813.847C857.03 781.307 888.674 733.367 963.64 703.854L960.709 696.41ZM935.624 676.825C948.341 671.88 957.771 670.525 964.266 671.138C970.745 671.749 973.839 674.227 975.061 676.574C976.299 678.953 976.232 682.37 973.935 686.175C971.651 689.957 967.275 693.825 960.709 696.41L963.64 703.854C971.556 700.737 977.446 695.837 980.783 690.31C984.106 684.805 985.015 678.371 982.157 672.88C979.282 667.357 973.206 663.946 965.017 663.173C956.843 662.401 946.104 664.166 932.725 669.369L935.624 676.825ZM832.038 770.902C848.912 750.134 866.407 729.847 883.962 713.094C901.558 696.301 918.965 683.303 935.624 676.825L932.725 669.369C914.625 676.408 896.319 690.243 878.438 707.307C860.516 724.411 842.77 745.007 825.829 765.857L832.038 770.902ZM792.687 834.2C794.398 826.105 801.098 814.023 809.238 801.758C817.258 789.674 826.27 778.001 832.038 770.902L825.829 765.857C819.958 773.083 810.778 784.97 802.573 797.334C794.487 809.516 786.927 822.768 784.86 832.546L792.687 834.2ZM788.773 837.373H816.875V829.373H788.773V837.373ZM828.883 809.441C823.195 818.061 818.414 825.298 813.807 830.807L819.943 835.939C824.905 830.008 829.956 822.341 835.56 813.847L828.883 809.441Z" fill="black" mask="url(#path-10-outside-2_421_11926)"/>
<path fill-rule="evenodd" clip-rule="evenodd" d="M834.951 811.881C858.599 778.048 894.414 726.809 962.175 700.131C985.501 690.948 980.212 674.408 962.175 683.5C922.5 703.5 900.5 722.5 851 768.5C839.273 782.933 815.69 815.782 805.932 833.372H819.157C823.866 827.741 829.027 820.357 834.951 811.881Z" fill="black" fill-opacity="0.25"/>
<path d="M756 836.202C759.26 834.66 767.987 832.04 776.819 833.889C787.859 836.202 810.57 838.514 816.564 836.202C822.557 833.889 838.96 829.522 850 838" stroke="black" stroke-width="6" stroke-linecap="round"/>
<g filter="url(#filter0_d_421_11926)">
<path d="M567.589 826.573L556.808 817.119C555.487 815.961 553.513 815.961 552.192 817.119L541.411 826.573C541.342 826.633 541.259 826.673 541.169 826.689L524.895 829.572C521.912 830.1 520.964 833.912 523.351 835.777L532.505 842.926C532.633 843.026 532.704 843.181 532.697 843.343L532.254 853.026C532.149 855.317 534.239 857.088 536.481 856.608L554.396 852.78C554.464 852.766 554.536 852.766 554.604 852.78L572.519 856.608C574.761 857.088 576.851 855.317 576.746 853.026L576.303 843.343C576.296 843.181 576.367 843.026 576.495 842.926L585.649 835.777C588.036 833.912 587.088 830.1 584.105 829.572L567.831 826.689C567.741 826.673 567.658 826.633 567.589 826.573Z" fill="#3C3C3C" stroke="black" stroke-width="3"/>
<g filter="url(#filter1_i_421_11926)">
<path d="M553.89 820.74C554.562 820.292 555.438 820.292 556.11 820.74L566.959 827.977C567.212 828.146 567.5 828.255 567.802 828.295L582.594 830.289C584.472 830.542 584.978 833.022 583.348 833.99L576.02 838.344C575.377 838.726 575 839.436 575.045 840.183L575.422 846.449C575.499 847.728 574.37 848.749 573.105 848.543L555.321 845.652C555.108 845.618 554.892 845.618 554.679 845.652L536.895 848.543C535.63 848.749 534.501 847.728 534.578 846.449L534.955 840.183C535 839.436 534.623 838.726 533.98 838.344L526.652 833.99C525.022 833.022 525.528 830.542 527.406 830.289L542.198 828.295C542.5 828.255 542.788 828.146 543.041 827.977L553.89 820.74Z" fill="#55EAAB"/>
</g>
<path d="M567.791 826.729L556.942 819.492C555.766 818.708 554.234 818.708 553.058 819.492L542.209 826.729C542.145 826.771 542.073 826.798 541.998 826.809L527.206 828.802C523.919 829.245 523.034 833.585 525.886 835.28L533.214 839.633C533.375 839.729 533.469 839.907 533.457 840.093L533.08 846.359C532.946 848.598 534.922 850.384 537.136 850.024L554.92 847.133C554.973 847.124 555.027 847.124 555.08 847.133L572.864 850.024C575.078 850.384 577.054 848.598 576.92 846.359L576.543 840.093C576.531 839.907 576.625 839.729 576.786 839.633L584.114 835.28C586.966 833.585 586.081 829.245 582.794 828.802L568.002 826.809C567.927 826.798 567.855 826.771 567.791 826.729Z" stroke="black" stroke-width="3"/>
</g>
<g filter="url(#filter2_d_421_11926)">
<path d="M662.589 806.573L651.808 797.119C650.487 795.961 648.513 795.961 647.192 797.119L636.411 806.573C636.342 806.633 636.259 806.673 636.169 806.689L619.895 809.572C616.912 810.1 615.964 813.912 618.351 815.777L627.505 822.926C627.633 823.026 627.704 823.181 627.697 823.343L627.254 833.026C627.149 835.317 629.239 837.088 631.481 836.608L649.396 832.78C649.464 832.766 649.536 832.766 649.604 832.78L667.519 836.608C669.761 837.088 671.851 835.317 671.746 833.026L671.303 823.343C671.296 823.181 671.367 823.026 671.495 822.926L680.649 815.777C683.036 813.912 682.088 810.1 679.105 809.572L662.831 806.689C662.741 806.673 662.658 806.633 662.589 806.573Z" fill="#3C3C3C" stroke="black" stroke-width="3"/>
<g filter="url(#filter3_i_421_11926)">
<path d="M648.89 800.74C649.562 800.292 650.438 800.292 651.11 800.74L661.959 807.977C662.212 808.146 662.5 808.255 662.802 808.295L677.594 810.289C679.472 810.542 679.978 813.022 678.348 813.99L671.02 818.344C670.377 818.726 670 819.436 670.045 820.183L670.422 826.449C670.499 827.728 669.37 828.749 668.105 828.543L650.321 825.652C650.108 825.618 649.892 825.618 649.679 825.652L631.895 828.543C630.63 828.749 629.501 827.728 629.578 826.449L629.955 820.183C630 819.436 629.623 818.726 628.98 818.344L621.652 813.99C620.022 813.022 620.528 810.542 622.406 810.289L637.198 808.295C637.5 808.255 637.788 808.146 638.041 807.977L648.89 800.74Z" fill="#FF7DEA"/>
</g>
<path d="M662.791 806.729L651.942 799.492C650.766 798.708 649.234 798.708 648.058 799.492L637.209 806.729C637.145 806.771 637.073 806.798 636.998 806.809L622.206 808.802C618.919 809.245 618.034 813.585 620.886 815.28L628.214 819.633C628.375 819.729 628.469 819.907 628.457 820.093L628.08 826.359C627.946 828.598 629.922 830.384 632.136 830.024L649.92 827.133C649.973 827.124 650.027 827.124 650.08 827.133L667.864 830.024C670.078 830.384 672.054 828.598 671.92 826.359L671.543 820.093C671.531 819.907 671.625 819.729 671.786 819.633L679.114 815.28C681.966 813.585 681.081 809.245 677.794 808.802L663.002 806.809C662.927 806.798 662.855 806.771 662.791 806.729Z" stroke="black" stroke-width="3"/>
</g>
<g filter="url(#filter4_d_421_11926)">
<path d="M682.589 844.573L671.808 835.119C670.487 833.961 668.513 833.961 667.192 835.119L656.411 844.573C656.342 844.633 656.259 844.673 656.169 844.689L639.895 847.572C636.912 848.1 635.964 851.912 638.351 853.777L647.505 860.926C647.633 861.026 647.704 861.181 647.697 861.343L647.254 871.026C647.149 873.317 649.239 875.088 651.481 874.608L669.396 870.78C669.464 870.766 669.536 870.766 669.604 870.78L687.519 874.608C689.761 875.088 691.851 873.317 691.746 871.026L691.303 861.343C691.296 861.181 691.367 861.026 691.495 860.926L700.649 853.777C703.036 851.912 702.088 848.1 699.105 847.572L682.831 844.689C682.741 844.673 682.658 844.633 682.589 844.573Z" fill="#3C3C3C" stroke="black" stroke-width="3"/>
<g filter="url(#filter5_i_421_11926)">
<path d="M668.89 838.74C669.562 838.292 670.438 838.292 671.11 838.74L681.959 845.977C682.212 846.146 682.5 846.255 682.802 846.295L697.594 848.289C699.472 848.542 699.978 851.022 698.348 851.99L691.02 856.344C690.377 856.726 690 857.436 690.045 858.183L690.422 864.449C690.499 865.728 689.37 866.749 688.105 866.543L670.321 863.652C670.108 863.618 669.892 863.618 669.679 863.652L651.895 866.543C650.63 866.749 649.501 865.728 649.578 864.449L649.955 858.183C650 857.436 649.623 856.726 648.98 856.344L641.652 851.99C640.022 851.022 640.528 848.542 642.406 848.289L657.198 846.295C657.5 846.255 657.788 846.146 658.041 845.977L668.89 838.74Z" fill="#FFED00"/>
</g>
<path d="M682.791 844.729L671.942 837.492C670.766 836.708 669.234 836.708 668.058 837.492L657.209 844.729C657.145 844.771 657.073 844.798 656.998 844.809L642.206 846.802C638.919 847.245 638.034 851.585 640.886 853.28L648.214 857.633C648.375 857.729 648.469 857.907 648.457 858.093L648.08 864.359C647.946 866.598 649.922 868.384 652.136 868.024L669.92 865.133C669.973 865.124 670.027 865.124 670.08 865.133L687.864 868.024C690.078 868.384 692.054 866.598 691.92 864.359L691.543 858.093C691.531 857.907 691.625 857.729 691.786 857.633L699.114 853.28C701.966 851.585 701.081 847.245 697.794 846.802L683.002 844.809C682.927 844.798 682.855 844.771 682.791 844.729Z" stroke="black" stroke-width="3"/>
</g>
<g filter="url(#filter6_d_421_11926)">
<path d="M759.426 805.851L746.348 799.971C744.746 799.251 742.859 799.83 741.936 801.323L734.397 813.521C734.349 813.599 734.281 813.662 734.199 813.703L719.485 821.228C716.788 822.607 716.997 826.529 719.827 827.612L730.673 831.766C730.825 831.824 730.938 831.951 730.979 832.108L733.392 841.496C733.963 843.717 736.48 844.798 738.484 843.683L754.49 834.774C754.552 834.74 754.62 834.719 754.69 834.713L772.94 833.124C775.224 832.925 776.704 830.62 775.932 828.46L772.671 819.332C772.617 819.179 772.64 819.01 772.733 818.877L779.39 809.36C781.126 806.877 779.103 803.511 776.096 803.88L759.692 805.891C759.601 805.902 759.509 805.889 759.426 805.851Z" fill="#3C3C3C" stroke="black" stroke-width="3"/>
<g filter="url(#filter7_i_421_11926)">
<path d="M744.62 804.288C745.131 803.663 745.968 803.406 746.742 803.638L759.235 807.378C759.527 807.465 759.834 807.485 760.134 807.435L774.861 805.007C776.731 804.699 777.941 806.922 776.667 808.325L770.936 814.635C770.433 815.189 770.281 815.978 770.543 816.68L772.739 822.56C773.188 823.76 772.407 825.067 771.137 825.241L753.287 827.687C753.073 827.717 752.866 827.78 752.673 827.875L736.516 835.85C735.367 836.417 733.988 835.773 733.687 834.527L732.212 828.426C732.036 827.698 731.468 827.13 730.741 826.953L722.459 824.937C720.617 824.489 720.374 821.969 722.096 821.177L735.655 814.937C735.931 814.81 736.175 814.621 736.367 814.386L744.62 804.288Z" fill="#55EAAB"/>
</g>
<path d="M759.665 805.941L747.172 802.201C745.818 801.795 744.353 802.244 743.458 803.339L735.206 813.437C735.158 813.495 735.097 813.543 735.028 813.574L721.469 819.814C718.456 821.201 718.881 825.61 722.104 826.394L730.386 828.41C730.568 828.454 730.71 828.596 730.754 828.778L732.229 834.879C732.756 837.059 735.169 838.188 737.18 837.195L753.337 829.221C753.385 829.197 753.437 829.181 753.49 829.174L771.341 826.727C773.563 826.422 774.929 824.136 774.145 822.035L771.948 816.155C771.883 815.979 771.921 815.782 772.047 815.644L777.778 809.334C780.007 806.879 777.89 802.988 774.617 803.527L759.89 805.955C759.815 805.968 759.738 805.963 759.665 805.941Z" stroke="black" stroke-width="3"/>
</g>
<g filter="url(#filter8_d_421_11926)">
<path d="M759.426 805.851L746.348 799.971C744.746 799.251 742.859 799.83 741.936 801.323L734.397 813.521C734.349 813.599 734.281 813.662 734.199 813.703L719.485 821.228C716.788 822.607 716.997 826.529 719.827 827.612L730.673 831.766C730.825 831.824 730.938 831.951 730.979 832.108L733.392 841.496C733.963 843.717 736.48 844.798 738.484 843.683L754.49 834.774C754.552 834.74 754.62 834.719 754.69 834.713L772.94 833.124C775.224 832.925 776.704 830.62 775.932 828.46L772.671 819.332C772.617 819.179 772.64 819.01 772.733 818.877L779.39 809.36C781.126 806.877 779.103 803.511 776.096 803.88L759.692 805.891C759.601 805.902 759.509 805.889 759.426 805.851Z" fill="#3C3C3C" stroke="black" stroke-width="3"/>
<g filter="url(#filter9_i_421_11926)">
<path d="M744.62 804.288C745.131 803.663 745.968 803.406 746.742 803.638L759.235 807.378C759.527 807.465 759.834 807.485 760.134 807.435L774.861 805.007C776.731 804.699 777.941 806.922 776.667 808.325L770.936 814.635C770.433 815.189 770.281 815.978 770.543 816.68L772.739 822.56C773.188 823.76 772.407 825.067 771.137 825.241L753.287 827.687C753.073 827.717 752.866 827.78 752.673 827.875L736.516 835.85C735.367 836.417 733.988 835.773 733.687 834.527L732.212 828.426C732.036 827.698 731.468 827.13 730.741 826.953L722.459 824.937C720.617 824.489 720.374 821.969 722.096 821.177L735.655 814.937C735.931 814.81 736.175 814.621 736.367 814.386L744.62 804.288Z" fill="#FF8C00"/>
</g>
<path d="M759.665 805.941L747.172 802.201C745.818 801.795 744.353 802.244 743.458 803.339L735.206 813.437C735.158 813.495 735.097 813.543 735.028 813.574L721.469 819.814C718.456 821.201 718.881 825.61 722.104 826.394L730.386 828.41C730.568 828.454 730.71 828.596 730.754 828.778L732.229 834.879C732.756 837.059 735.169 838.188 737.18 837.195L753.337 829.221C753.385 829.197 753.437 829.181 753.49 829.174L771.341 826.727C773.563 826.422 774.929 824.136 774.145 822.035L771.948 816.155C771.883 815.979 771.921 815.782 772.047 815.644L777.778 809.334C780.007 806.879 777.89 802.988 774.617 803.527L759.89 805.955C759.815 805.968 759.738 805.963 759.665 805.941Z" stroke="black" stroke-width="3"/>
</g>
<g filter="url(#filter10_d_421_11926)">
<path d="M797.589 844.573L786.808 835.119C785.487 833.961 783.513 833.961 782.192 835.119L771.411 844.573C771.342 844.633 771.259 844.673 771.169 844.689L754.895 847.572C751.912 848.1 750.964 851.912 753.351 853.777L762.505 860.926C762.633 861.026 762.704 861.181 762.697 861.343L762.254 871.026C762.149 873.317 764.239 875.088 766.481 874.608L784.396 870.78C784.464 870.766 784.536 870.766 784.604 870.78L802.519 874.608C804.761 875.088 806.851 873.317 806.746 871.026L806.303 861.343C806.296 861.181 806.367 861.026 806.495 860.926L815.649 853.777C818.036 851.912 817.088 848.1 814.105 847.572L797.831 844.689C797.741 844.673 797.658 844.633 797.589 844.573Z" fill="#3C3C3C" stroke="black" stroke-width="3"/>
<g filter="url(#filter11_i_421_11926)">
<path d="M783.89 838.74C784.562 838.292 785.438 838.292 786.11 838.74L796.959 845.977C797.212 846.146 797.5 846.255 797.802 846.295L812.594 848.289C814.472 848.542 814.978 851.022 813.348 851.99L806.02 856.344C805.377 856.726 805 857.436 805.045 858.183L805.422 864.449C805.499 865.728 804.37 866.749 803.105 866.543L785.321 863.652C785.108 863.618 784.892 863.618 784.679 863.652L766.895 866.543C765.63 866.749 764.501 865.728 764.578 864.449L764.955 858.183C765 857.436 764.623 856.726 763.98 856.344L756.652 851.99C755.022 851.022 755.528 848.542 757.406 848.289L772.198 846.295C772.5 846.255 772.788 846.146 773.041 845.977L783.89 838.74Z" fill="#F72087"/>
</g>
<path d="M797.791 844.729L786.942 837.492C785.766 836.708 784.234 836.708 783.058 837.492L772.209 844.729C772.145 844.771 772.073 844.798 771.998 844.809L757.206 846.802C753.919 847.245 753.034 851.585 755.886 853.28L763.214 857.633C763.375 857.729 763.469 857.907 763.457 858.093L763.08 864.359C762.946 866.598 764.922 868.384 767.136 868.024L784.92 865.133C784.973 865.124 785.027 865.124 785.08 865.133L802.864 868.024C805.078 868.384 807.054 866.598 806.92 864.359L806.543 858.093C806.531 857.907 806.625 857.729 806.786 857.633L814.114 853.28C816.966 851.585 816.081 847.245 812.794 846.802L798.002 844.809C797.927 844.798 797.855 844.771 797.791 844.729Z" stroke="black" stroke-width="3"/>
</g>
<g filter="url(#filter12_d_421_11926)">
<path d="M869.789 831.313L861.938 819.314C860.977 817.844 859.075 817.315 857.492 818.076L844.57 824.292C844.488 824.331 844.396 824.348 844.306 824.339L827.855 822.751C824.84 822.46 822.904 825.878 824.704 828.315L831.605 837.657C831.701 837.787 831.728 837.956 831.677 838.11L828.654 847.32C827.938 849.498 829.476 851.765 831.765 851.905L850.05 853.022C850.12 853.026 850.189 853.045 850.251 853.078L866.482 861.57C868.514 862.634 871.003 861.488 871.516 859.253L873.686 849.806C873.722 849.648 873.833 849.517 873.983 849.456L884.718 845.023C887.519 843.867 887.627 839.941 884.895 838.632L869.991 831.49C869.909 831.451 869.839 831.389 869.789 831.313Z" fill="#3C3C3C" stroke="black" stroke-width="3"/>
<g filter="url(#filter13_i_421_11926)">
<path d="M858.157 822.02C858.925 821.768 859.768 822.003 860.295 822.615L868.806 832.496C869.004 832.727 869.253 832.909 869.532 833.029L883.248 838.916C884.99 839.664 884.811 842.189 882.982 842.685L874.755 844.914C874.032 845.109 873.479 845.692 873.322 846.424L872.005 852.561C871.736 853.814 870.374 854.495 869.211 853.957L852.854 846.402C852.658 846.312 852.449 846.254 852.235 846.23L834.327 844.246C833.054 844.104 832.24 842.818 832.657 841.607L834.7 835.672C834.944 834.964 834.772 834.179 834.255 833.638L828.363 827.478C827.053 826.109 828.205 823.855 830.082 824.115L844.867 826.162C845.169 826.204 845.475 826.176 845.764 826.081L858.157 822.02Z" fill="#9F50FF"/>
</g>
<path d="M869.943 831.517L861.432 821.636C860.509 820.565 859.033 820.154 857.69 820.594L845.297 824.656C845.225 824.68 845.148 824.686 845.073 824.676L830.288 822.629C827.003 822.174 824.986 826.118 827.279 828.515L833.171 834.675C833.3 834.81 833.343 835.006 833.282 835.183L831.239 841.118C830.508 843.239 831.933 845.489 834.162 845.736L852.07 847.721C852.124 847.727 852.176 847.742 852.225 847.764L868.582 855.319C870.618 856.26 873.001 855.069 873.472 852.876L874.789 846.739C874.828 846.556 874.966 846.41 875.147 846.361L883.374 844.132C886.576 843.265 886.887 838.846 883.84 837.538L870.124 831.65C870.054 831.62 869.992 831.575 869.943 831.517Z" stroke="black" stroke-width="3"/>
</g>
<g filter="url(#filter14_d_421_11926)">
<path d="M629.589 839.573L618.808 830.119C617.487 828.961 615.513 828.961 614.192 830.119L603.411 839.573C603.342 839.633 603.259 839.673 603.169 839.689L586.895 842.572C583.912 843.1 582.964 846.912 585.351 848.777L594.505 855.926C594.633 856.026 594.704 856.181 594.697 856.343L594.254 866.026C594.149 868.317 596.239 870.088 598.481 869.608L616.396 865.78C616.464 865.766 616.536 865.766 616.604 865.78L634.519 869.608C636.761 870.088 638.851 868.317 638.746 866.026L638.303 856.343C638.296 856.181 638.367 856.026 638.495 855.926L647.649 848.777C650.036 846.912 649.088 843.1 646.105 842.572L629.831 839.689C629.741 839.673 629.658 839.633 629.589 839.573Z" fill="#3C3C3C" stroke="black" stroke-width="3"/>
<g filter="url(#filter15_i_421_11926)">
<path d="M615.89 833.74C616.562 833.292 617.438 833.292 618.11 833.74L628.959 840.977C629.212 841.146 629.5 841.255 629.802 841.295L644.594 843.289C646.472 843.542 646.978 846.022 645.348 846.99L638.02 851.344C637.377 851.726 637 852.436 637.045 853.183L637.422 859.449C637.499 860.728 636.37 861.749 635.105 861.543L617.321 858.652C617.108 858.618 616.892 858.618 616.679 858.652L598.895 861.543C597.63 861.749 596.501 860.728 596.578 859.449L596.955 853.183C597 852.436 596.623 851.726 595.98 851.344L588.652 846.99C587.022 846.022 587.528 843.542 589.406 843.289L604.198 841.295C604.5 841.255 604.788 841.146 605.041 840.977L615.89 833.74Z" fill="#E40303"/>
</g>
<path d="M629.791 839.729L618.942 832.492C617.766 831.708 616.234 831.708 615.058 832.492L604.209 839.729C604.145 839.771 604.073 839.798 603.998 839.809L589.206 841.802C585.919 842.245 585.034 846.585 587.886 848.28L595.214 852.633C595.375 852.729 595.469 852.907 595.457 853.093L595.08 859.359C594.946 861.598 596.922 863.384 599.136 863.024L616.92 860.133C616.973 860.124 617.027 860.124 617.08 860.133L634.864 863.024C637.078 863.384 639.054 861.598 638.92 859.359L638.543 853.093C638.531 852.907 638.625 852.729 638.786 852.633L646.114 848.28C648.966 846.585 648.081 842.245 644.794 841.802L630.002 839.809C629.927 839.798 629.855 839.771 629.791 839.729Z" stroke="black" stroke-width="3"/>
</g>
<g filter="url(#filter16_d_421_11926)">
<path d="M746.589 837.573L735.808 828.119C734.487 826.961 732.513 826.961 731.192 828.119L720.411 837.573C720.342 837.633 720.259 837.673 720.169 837.689L703.895 840.572C700.912 841.1 699.964 844.912 702.351 846.777L711.505 853.926C711.633 854.026 711.704 854.181 711.697 854.343L711.254 864.026C711.149 866.317 713.239 868.088 715.481 867.608L733.396 863.78C733.464 863.766 733.536 863.766 733.604 863.78L751.519 867.608C753.761 868.088 755.851 866.317 755.746 864.026L755.303 854.343C755.296 854.181 755.367 854.026 755.495 853.926L764.649 846.777C767.036 844.912 766.088 841.1 763.105 840.572L746.831 837.689C746.741 837.673 746.658 837.633 746.589 837.573Z" fill="#3C3C3C" stroke="black" stroke-width="3"/>
<g filter="url(#filter17_i_421_11926)">
<path d="M732.89 831.74C733.562 831.292 734.438 831.292 735.11 831.74L745.959 838.977C746.212 839.146 746.5 839.255 746.802 839.295L761.594 841.289C763.472 841.542 763.978 844.022 762.348 844.99L755.02 849.344C754.377 849.726 754 850.436 754.045 851.183L754.422 857.449C754.499 858.728 753.37 859.749 752.105 859.543L734.321 856.652C734.108 856.618 733.892 856.618 733.679 856.652L715.895 859.543C714.63 859.749 713.501 858.728 713.578 857.449L713.955 851.183C714 850.436 713.623 849.726 712.98 849.344L705.652 844.99C704.022 844.022 704.528 841.542 706.406 841.289L721.198 839.295C721.5 839.255 721.788 839.146 722.041 838.977L732.89 831.74Z" fill="#FFED00"/>
</g>
<path d="M746.791 837.729L735.942 830.492C734.766 829.708 733.234 829.708 732.058 830.492L721.209 837.729C721.145 837.771 721.073 837.798 720.998 837.809L706.206 839.802C702.919 840.245 702.034 844.585 704.886 846.28L712.214 850.633C712.375 850.729 712.469 850.907 712.457 851.093L712.08 857.359C711.946 859.598 713.922 861.384 716.136 861.024L733.92 858.133C733.973 858.124 734.027 858.124 734.08 858.133L751.864 861.024C754.078 861.384 756.054 859.598 755.92 857.359L755.543 851.093C755.531 850.907 755.625 850.729 755.786 850.633L763.114 846.28C765.966 844.585 765.081 840.245 761.794 839.802L747.002 837.809C746.927 837.798 746.855 837.771 746.791 837.729Z" stroke="black" stroke-width="3"/>
</g>
</g>
<defs>
<filter id="filter0_d_421_11926" x="515" y="814.751" width="78" height="54.4365" filterUnits="userSpaceOnUse" color-interpolation-filters="sRGB">
<feFlood flood-opacity="0" result="BackgroundImageFix"/>
<feColorMatrix in="SourceAlpha" type="matrix" values="0 0 0 0 0 0 0 0 0 0 0 0 0 0 0 0 0 0 127 0" result="hardAlpha"/>
<feOffset dx="-1" dy="7"/>
<feGaussianBlur stdDeviation="2"/>
<feComposite in2="hardAlpha" operator="out"/>
<feColorMatrix type="matrix" values="0 0 0 0 0 0 0 0 0 0 0 0 0 0 0 0 0 0 0.25 0"/>
<feBlend mode="normal" in2="BackgroundImageFix" result="effect1_dropShadow_421_11926"/>
<feBlend mode="normal" in="SourceGraphic" in2="effect1_dropShadow_421_11926" result="shape"/>
</filter>
<filter id="filter1_i_421_11926" x="522.67" y="817.404" width="64.6602" height="34.166" filterUnits="userSpaceOnUse" color-interpolation-filters="sRGB">
<feFlood flood-opacity="0" result="BackgroundImageFix"/>
<feBlend mode="normal" in="SourceGraphic" in2="BackgroundImageFix" result="shape"/>
<feColorMatrix in="SourceAlpha" type="matrix" values="0 0 0 0 0 0 0 0 0 0 0 0 0 0 0 0 0 0 127 0" result="hardAlpha"/>
<feOffset dx="-5" dy="-8"/>
<feComposite in2="hardAlpha" operator="arithmetic" k2="-1" k3="1"/>
<feColorMatrix type="matrix" values="0 0 0 0 0 0 0 0 0 0 0 0 0 0 0 0 0 0 0.25 0"/>
<feBlend mode="normal" in2="shape" result="effect1_innerShadow_421_11926"/>
</filter>
<filter id="filter2_d_421_11926" x="610" y="794.751" width="78" height="54.4365" filterUnits="userSpaceOnUse" color-interpolation-filters="sRGB">
<feFlood flood-opacity="0" result="BackgroundImageFix"/>
<feColorMatrix in="SourceAlpha" type="matrix" values="0 0 0 0 0 0 0 0 0 0 0 0 0 0 0 0 0 0 127 0" result="hardAlpha"/>
<feOffset dx="-1" dy="7"/>
<feGaussianBlur stdDeviation="2"/>
<feComposite in2="hardAlpha" operator="out"/>
<feColorMatrix type="matrix" values="0 0 0 0 0 0 0 0 0 0 0 0 0 0 0 0 0 0 0.25 0"/>
<feBlend mode="normal" in2="BackgroundImageFix" result="effect1_dropShadow_421_11926"/>
<feBlend mode="normal" in="SourceGraphic" in2="effect1_dropShadow_421_11926" result="shape"/>
</filter>
<filter id="filter3_i_421_11926" x="617.67" y="797.404" width="64.6602" height="34.166" filterUnits="userSpaceOnUse" color-interpolation-filters="sRGB">
<feFlood flood-opacity="0" result="BackgroundImageFix"/>
<feBlend mode="normal" in="SourceGraphic" in2="BackgroundImageFix" result="shape"/>
<feColorMatrix in="SourceAlpha" type="matrix" values="0 0 0 0 0 0 0 0 0 0 0 0 0 0 0 0 0 0 127 0" result="hardAlpha"/>
<feOffset dx="-5" dy="-8"/>
<feComposite in2="hardAlpha" operator="arithmetic" k2="-1" k3="1"/>
<feColorMatrix type="matrix" values="0 0 0 0 0 0 0 0 0 0 0 0 0 0 0 0 0 0 0.25 0"/>
<feBlend mode="normal" in2="shape" result="effect1_innerShadow_421_11926"/>
</filter>
<filter id="filter4_d_421_11926" x="630" y="832.751" width="78" height="54.4365" filterUnits="userSpaceOnUse" color-interpolation-filters="sRGB">
<feFlood flood-opacity="0" result="BackgroundImageFix"/>
<feColorMatrix in="SourceAlpha" type="matrix" values="0 0 0 0 0 0 0 0 0 0 0 0 0 0 0 0 0 0 127 0" result="hardAlpha"/>
<feOffset dx="-1" dy="7"/>
<feGaussianBlur stdDeviation="2"/>
<feComposite in2="hardAlpha" operator="out"/>
<feColorMatrix type="matrix" values="0 0 0 0 0 0 0 0 0 0 0 0 0 0 0 0 0 0 0.25 0"/>
<feBlend mode="normal" in2="BackgroundImageFix" result="effect1_dropShadow_421_11926"/>
<feBlend mode="normal" in="SourceGraphic" in2="effect1_dropShadow_421_11926" result="shape"/>
</filter>
<filter id="filter5_i_421_11926" x="637.67" y="835.404" width="64.6602" height="34.166" filterUnits="userSpaceOnUse" color-interpolation-filters="sRGB">
<feFlood flood-opacity="0" result="BackgroundImageFix"/>
<feBlend mode="normal" in="SourceGraphic" in2="BackgroundImageFix" result="shape"/>
<feColorMatrix in="SourceAlpha" type="matrix" values="0 0 0 0 0 0 0 0 0 0 0 0 0 0 0 0 0 0 127 0" result="hardAlpha"/>
<feOffset dx="-5" dy="-8"/>
<feComposite in2="hardAlpha" operator="arithmetic" k2="-1" k3="1"/>
<feColorMatrix type="matrix" values="0 0 0 0 0 0 0 0 0 0 0 0 0 0 0 0 0 0 0.25 0"/>
<feBlend mode="normal" in2="shape" result="effect1_innerShadow_421_11926"/>
</filter>
<filter id="filter6_d_421_11926" x="707" y="793" width="84.3047" height="63.6279" filterUnits="userSpaceOnUse" color-interpolation-filters="sRGB">
<feFlood flood-opacity="0" result="BackgroundImageFix"/>
<feColorMatrix in="SourceAlpha" type="matrix" values="0 0 0 0 0 0 0 0 0 0 0 0 0 0 0 0 0 0 127 0" result="hardAlpha"/>
<feOffset dx="-1" dy="7"/>
<feGaussianBlur stdDeviation="2"/>
<feComposite in2="hardAlpha" operator="out"/>
<feColorMatrix type="matrix" values="0 0 0 0 0 0 0 0 0 0 0 0 0 0 0 0 0 0 0.25 0"/>
<feBlend mode="normal" in2="BackgroundImageFix" result="effect1_dropShadow_421_11926"/>
<feBlend mode="normal" in="SourceGraphic" in2="effect1_dropShadow_421_11926" result="shape"/>
</filter>
<filter id="filter7_i_421_11926" x="717.932" y="800.554" width="62.2715" height="38.5059" filterUnits="userSpaceOnUse" color-interpolation-filters="sRGB">
<feFlood flood-opacity="0" result="BackgroundImageFix"/>
<feBlend mode="normal" in="SourceGraphic" in2="BackgroundImageFix" result="shape"/>
<feColorMatrix in="SourceAlpha" type="matrix" values="0 0 0 0 0 0 0 0 0 0 0 0 0 0 0 0 0 0 127 0" result="hardAlpha"/>
<feOffset dx="-5" dy="-8"/>
<feComposite in2="hardAlpha" operator="arithmetic" k2="-1" k3="1"/>
<feColorMatrix type="matrix" values="0 0 0 0 0 0 0 0 0 0 0 0 0 0 0 0 0 0 0.25 0"/>
<feBlend mode="normal" in2="shape" result="effect1_innerShadow_421_11926"/>
</filter>
<filter id="filter8_d_421_11926" x="707" y="793" width="84.3047" height="63.6279" filterUnits="userSpaceOnUse" color-interpolation-filters="sRGB">
<feFlood flood-opacity="0" result="BackgroundImageFix"/>
<feColorMatrix in="SourceAlpha" type="matrix" values="0 0 0 0 0 0 0 0 0 0 0 0 0 0 0 0 0 0 127 0" result="hardAlpha"/>
<feOffset dx="-1" dy="7"/>
<feGaussianBlur stdDeviation="2"/>
<feComposite in2="hardAlpha" operator="out"/>
<feColorMatrix type="matrix" values="0 0 0 0 0 0 0 0 0 0 0 0 0 0 0 0 0 0 0.25 0"/>
<feBlend mode="normal" in2="BackgroundImageFix" result="effect1_dropShadow_421_11926"/>
<feBlend mode="normal" in="SourceGraphic" in2="effect1_dropShadow_421_11926" result="shape"/>
</filter>
<filter id="filter9_i_421_11926" x="717.932" y="800.554" width="62.2715" height="38.5059" filterUnits="userSpaceOnUse" color-interpolation-filters="sRGB">
<feFlood flood-opacity="0" result="BackgroundImageFix"/>
<feBlend mode="normal" in="SourceGraphic" in2="BackgroundImageFix" result="shape"/>
<feColorMatrix in="SourceAlpha" type="matrix" values="0 0 0 0 0 0 0 0 0 0 0 0 0 0 0 0 0 0 127 0" result="hardAlpha"/>
<feOffset dx="-5" dy="-8"/>
<feComposite in2="hardAlpha" operator="arithmetic" k2="-1" k3="1"/>
<feColorMatrix type="matrix" values="0 0 0 0 0 0 0 0 0 0 0 0 0 0 0 0 0 0 0.25 0"/>
<feBlend mode="normal" in2="shape" result="effect1_innerShadow_421_11926"/>
</filter>
<filter id="filter10_d_421_11926" x="745" y="832.751" width="78" height="54.4365" filterUnits="userSpaceOnUse" color-interpolation-filters="sRGB">
<feFlood flood-opacity="0" result="BackgroundImageFix"/>
<feColorMatrix in="SourceAlpha" type="matrix" values="0 0 0 0 0 0 0 0 0 0 0 0 0 0 0 0 0 0 127 0" result="hardAlpha"/>
<feOffset dx="-1" dy="7"/>
<feGaussianBlur stdDeviation="2"/>
<feComposite in2="hardAlpha" operator="out"/>
<feColorMatrix type="matrix" values="0 0 0 0 0 0 0 0 0 0 0 0 0 0 0 0 0 0 0.25 0"/>
<feBlend mode="normal" in2="BackgroundImageFix" result="effect1_dropShadow_421_11926"/>
<feBlend mode="normal" in="SourceGraphic" in2="effect1_dropShadow_421_11926" result="shape"/>
</filter>
<filter id="filter11_i_421_11926" x="752.67" y="835.404" width="64.6602" height="34.166" filterUnits="userSpaceOnUse" color-interpolation-filters="sRGB">
<feFlood flood-opacity="0" result="BackgroundImageFix"/>
<feBlend mode="normal" in="SourceGraphic" in2="BackgroundImageFix" result="shape"/>
<feColorMatrix in="SourceAlpha" type="matrix" values="0 0 0 0 0 0 0 0 0 0 0 0 0 0 0 0 0 0 127 0" result="hardAlpha"/>
<feOffset dx="-5" dy="-8"/>
<feComposite in2="hardAlpha" operator="arithmetic" k2="-1" k3="1"/>
<feColorMatrix type="matrix" values="0 0 0 0 0 0 0 0 0 0 0 0 0 0 0 0 0 0 0.25 0"/>
<feBlend mode="normal" in2="shape" result="effect1_innerShadow_421_11926"/>
</filter>
<filter id="filter12_d_421_11926" x="812.125" y="812.217" width="84.0176" height="62.2559" filterUnits="userSpaceOnUse" color-interpolation-filters="sRGB">
<feFlood flood-opacity="0" result="BackgroundImageFix"/>
<feColorMatrix in="SourceAlpha" type="matrix" values="0 0 0 0 0 0 0 0 0 0 0 0 0 0 0 0 0 0 127 0" result="hardAlpha"/>
<feOffset dx="-1" dy="7"/>
<feGaussianBlur stdDeviation="2"/>
<feComposite in2="hardAlpha" operator="out"/>
<feColorMatrix type="matrix" values="0 0 0 0 0 0 0 0 0 0 0 0 0 0 0 0 0 0 0.25 0"/>
<feBlend mode="normal" in2="BackgroundImageFix" result="effect1_dropShadow_421_11926"/>
<feBlend mode="normal" in="SourceGraphic" in2="effect1_dropShadow_421_11926" result="shape"/>
</filter>
<filter id="filter13_i_421_11926" x="824.793" y="818.92" width="62.666" height="38.2246" filterUnits="userSpaceOnUse" color-interpolation-filters="sRGB">
<feFlood flood-opacity="0" result="BackgroundImageFix"/>
<feBlend mode="normal" in="SourceGraphic" in2="BackgroundImageFix" result="shape"/>
<feColorMatrix in="SourceAlpha" type="matrix" values="0 0 0 0 0 0 0 0 0 0 0 0 0 0 0 0 0 0 127 0" result="hardAlpha"/>
<feOffset dx="-5" dy="-8"/>
<feComposite in2="hardAlpha" operator="arithmetic" k2="-1" k3="1"/>
<feColorMatrix type="matrix" values="0 0 0 0 0 0 0 0 0 0 0 0 0 0 0 0 0 0 0.25 0"/>
<feBlend mode="normal" in2="shape" result="effect1_innerShadow_421_11926"/>
</filter>
<filter id="filter14_d_421_11926" x="577" y="827.751" width="78" height="54.4365" filterUnits="userSpaceOnUse" color-interpolation-filters="sRGB">
<feFlood flood-opacity="0" result="BackgroundImageFix"/>
<feColorMatrix in="SourceAlpha" type="matrix" values="0 0 0 0 0 0 0 0 0 0 0 0 0 0 0 0 0 0 127 0" result="hardAlpha"/>
<feOffset dx="-1" dy="7"/>
<feGaussianBlur stdDeviation="2"/>
<feComposite in2="hardAlpha" operator="out"/>
<feColorMatrix type="matrix" values="0 0 0 0 0 0 0 0 0 0 0 0 0 0 0 0 0 0 0.25 0"/>
<feBlend mode="normal" in2="BackgroundImageFix" result="effect1_dropShadow_421_11926"/>
<feBlend mode="normal" in="SourceGraphic" in2="effect1_dropShadow_421_11926" result="shape"/>
</filter>
<filter id="filter15_i_421_11926" x="584.67" y="830.404" width="64.6602" height="34.166" filterUnits="userSpaceOnUse" color-interpolation-filters="sRGB">
<feFlood flood-opacity="0" result="BackgroundImageFix"/>
<feBlend mode="normal" in="SourceGraphic" in2="BackgroundImageFix" result="shape"/>
<feColorMatrix in="SourceAlpha" type="matrix" values="0 0 0 0 0 0 0 0 0 0 0 0 0 0 0 0 0 0 127 0" result="hardAlpha"/>
<feOffset dx="-5" dy="-8"/>
<feComposite in2="hardAlpha" operator="arithmetic" k2="-1" k3="1"/>
<feColorMatrix type="matrix" values="0 0 0 0 0 0 0 0 0 0 0 0 0 0 0 0 0 0 0.25 0"/>
<feBlend mode="normal" in2="shape" result="effect1_innerShadow_421_11926"/>
</filter>
<filter id="filter16_d_421_11926" x="694" y="825.751" width="78" height="54.4365" filterUnits="userSpaceOnUse" color-interpolation-filters="sRGB">
<feFlood flood-opacity="0" result="BackgroundImageFix"/>
<feColorMatrix in="SourceAlpha" type="matrix" values="0 0 0 0 0 0 0 0 0 0 0 0 0 0 0 0 0 0 127 0" result="hardAlpha"/>
<feOffset dx="-1" dy="7"/>
<feGaussianBlur stdDeviation="2"/>
<feComposite in2="hardAlpha" operator="out"/>
<feColorMatrix type="matrix" values="0 0 0 0 0 0 0 0 0 0 0 0 0 0 0 0 0 0 0.25 0"/>
<feBlend mode="normal" in2="BackgroundImageFix" result="effect1_dropShadow_421_11926"/>
<feBlend mode="normal" in="SourceGraphic" in2="effect1_dropShadow_421_11926" result="shape"/>
</filter>
<filter id="filter17_i_421_11926" x="701.67" y="828.404" width="64.6602" height="34.166" filterUnits="userSpaceOnUse" color-interpolation-filters="sRGB">
<feFlood flood-opacity="0" result="BackgroundImageFix"/>
<feBlend mode="normal" in="SourceGraphic" in2="BackgroundImageFix" result="shape"/>
<feColorMatrix in="SourceAlpha" type="matrix" values="0 0 0 0 0 0 0 0 0 0 0 0 0 0 0 0 0 0 127 0" result="hardAlpha"/>
<feOffset dx="-5" dy="-8"/>
<feComposite in2="hardAlpha" operator="arithmetic" k2="-1" k3="1"/>
<feColorMatrix type="matrix" values="0 0 0 0 0 0 0 0 0 0 0 0 0 0 0 0 0 0 0.25 0"/>
<feBlend mode="normal" in2="shape" result="effect1_innerShadow_421_11926"/>
</filter>
<clipPath id="clip0_421_11926">
<rect width="1000" height="1000" fill="white"/>
</clipPath>
</defs>
</svg>
