<svg width="1408" height="517" viewBox="0 0 1408 517" fill="none" xmlns="http://www.w3.org/2000/svg">
<path fill-rule="evenodd" clip-rule="evenodd" d="M1193.45 158C1216.06 158 1235.38 172.448 1243.13 192.836C1251.06 186.401 1261.09 182.56 1272 182.56C1293.94 182.56 1312.34 198.112 1317.27 219.047C1322.07 213.171 1329.28 209.436 1337.33 209.436C1351.79 209.436 1363.52 221.469 1363.52 236.312C1363.52 238.884 1363.16 241.371 1362.51 243.726H1384.83C1397.63 243.726 1408 254.099 1408 266.895C1408 279.691 1397.63 290.064 1384.83 290.064H1064.17C1051.37 290.064 1041 279.691 1041 266.895C1041 254.099 1051.37 243.726 1064.17 243.726H1080.47C1078.62 238.84 1077.61 233.527 1077.61 227.971C1077.61 203.915 1096.59 184.413 1120.01 184.413C1128.94 184.413 1137.23 187.252 1144.07 192.1C1151.99 172.101 1171.12 158 1193.45 158Z" fill="white"/>
<path fill-rule="evenodd" clip-rule="evenodd" d="M671.803 18.207C657.293 18.207 644.094 24.9717 634.256 36.028C621.523 14.229 600.558 0 576.852 0C544.002 0 516.415 27.3243 508.704 64.2525C500.047 52.0169 487.255 44.2754 472.984 44.2754C446.909 44.2754 425.771 70.1194 425.771 102C425.771 104.453 425.896 106.871 426.139 109.245C404.795 110.928 388 128.781 388 150.557C388 173.445 406.555 192 429.443 192H812.393C835.282 192 853.836 173.445 853.836 150.557C853.836 127.669 835.282 109.115 812.393 109.115H798.502C797.218 84.0134 780.05 64.1377 759.06 64.1377C745.792 64.1377 734.052 72.0792 726.884 84.2621C726.724 47.7478 702.125 18.207 671.803 18.207Z" fill="white"/>
<path fill-rule="evenodd" clip-rule="evenodd" d="M174.241 386.3C165.333 386.3 157.229 390.453 151.189 397.241C143.371 383.858 130.5 375.122 115.946 375.122C95.7776 375.122 78.8404 391.897 74.1064 414.57C68.7912 407.058 60.9374 402.305 52.1757 402.305C36.1669 402.305 23.1892 418.172 23.1892 437.744C23.1892 439.251 23.2661 440.735 23.4153 442.192C10.3115 443.226 0 454.187 0 467.556C0 481.609 11.3915 493 25.4437 493H260.556C274.608 493 286 481.609 286 467.556C286 453.504 274.608 442.113 260.556 442.113H252.028C251.239 426.702 240.699 414.499 227.812 414.499C219.667 414.499 212.458 419.375 208.058 426.854C207.96 404.436 192.857 386.3 174.241 386.3Z" fill="white"/>
<path fill-rule="evenodd" clip-rule="evenodd" d="M804.297 482.817C804.509 482.475 804.716 482.129 804.917 481.777C805.064 482.126 805.217 482.473 805.374 482.817H804.297ZM899 438.817C890.033 438.817 881.985 442.292 876.487 447.801C869.533 436.44 856.691 428.817 842 428.817C827.499 428.817 814.8 436.244 807.785 447.362C803.331 434.793 793.093 426 781.176 426C765.167 426 752.189 441.867 752.189 461.44C752.189 469.469 754.373 476.874 758.054 482.817H746C736.611 482.817 729 490.428 729 499.817C729 509.206 736.611 516.817 746 516.817H998C1007.39 516.817 1015 509.206 1015 499.817C1015 490.428 1007.39 482.817 998 482.817H967.38C967.786 481.049 968 479.208 968 477.317C968 463.786 957.031 452.817 943.5 452.817C937.601 452.817 932.189 454.902 927.96 458.375C924.507 447.106 912.849 438.817 899 438.817Z" fill="white"/>
</svg>
