<svg width="1096" height="574" viewBox="0 0 1096 574" fill="none" xmlns="http://www.w3.org/2000/svg">
<g filter="url(#filter0_b_930_40961)">
<rect width="1080" height="554" rx="16" fill="#BFE5F1" fill-opacity="0.7"/>
</g>
<g filter="url(#filter1_d_930_40961)">
<rect width="1080" height="554" rx="16" fill="white" fill-opacity="0.25" shape-rendering="crispEdges"/>
</g>
<g style="mix-blend-mode:soft-light">
<path d="M7.29736 482.154C7.29736 474.182 13.1658 467.427 21.0592 466.311L1043.52 321.867C1053.15 320.506 1061.76 327.982 1061.76 337.709V524.256C1061.76 533.092 1054.59 540.256 1045.76 540.256H23.2974C14.4608 540.256 7.29736 533.092 7.29736 524.256L7.29736 482.154Z" fill="white" fill-opacity="0.25"/>
</g>
<g style="mix-blend-mode:overlay">
<path d="M1061.76 26.6911C1061.76 34.6737 1055.53 41.2698 1047.56 41.7277L24.215 100.524C15.0329 101.052 7.29727 93.7478 7.29727 84.5504V27.6297C7.29727 18.7931 14.4607 11.6297 23.2973 11.6297H1046.7C1055.01 11.6297 1061.76 18.3729 1061.76 26.6911V26.6911Z" fill="white" fill-opacity="0.25"/>
</g>
<defs>
<filter id="filter0_b_930_40961" x="-12" y="-12" width="1104" height="578" filterUnits="userSpaceOnUse" color-interpolation-filters="sRGB">
<feFlood flood-opacity="0" result="BackgroundImageFix"/>
<feGaussianBlur in="BackgroundImage" stdDeviation="6"/>
<feComposite in2="SourceAlpha" operator="in" result="effect1_backgroundBlur_930_40961"/>
<feBlend mode="normal" in="SourceGraphic" in2="effect1_backgroundBlur_930_40961" result="shape"/>
</filter>
<filter id="filter1_d_930_40961" x="0" y="0" width="1096" height="574" filterUnits="userSpaceOnUse" color-interpolation-filters="sRGB">
<feFlood flood-opacity="0" result="BackgroundImageFix"/>
<feColorMatrix in="SourceAlpha" type="matrix" values="0 0 0 0 0 0 0 0 0 0 0 0 0 0 0 0 0 0 127 0" result="hardAlpha"/>
<feOffset dx="16" dy="20"/>
<feComposite in2="hardAlpha" operator="out"/>
<feColorMatrix type="matrix" values="0 0 0 0 0 0 0 0 0 0 0 0 0 0 0 0 0 0 1 0"/>
<feBlend mode="normal" in2="BackgroundImageFix" result="effect1_dropShadow_930_40961"/>
<feBlend mode="normal" in="SourceGraphic" in2="effect1_dropShadow_930_40961" result="shape"/>
</filter>
</defs>
</svg>
