<svg width="272" height="834" viewBox="0 0 272 834" fill="none" xmlns="http://www.w3.org/2000/svg">
<path d="M176.085 107.476C176.826 104.766 161.711 98.274 142.325 92.9752C122.939 87.6765 106.623 85.5777 105.882 88.2876C105.142 90.9974 120.257 97.4897 139.643 102.788C159.028 108.087 175.344 110.186 176.085 107.476Z" fill="black" fill-opacity="0.25"/>
<path fill-rule="evenodd" clip-rule="evenodd" d="M168.897 55.7719C166.548 55.3623 165.516 52.5192 166.643 50.417C167.554 48.7159 168.29 46.8865 168.82 44.9458C172.623 31.034 164.428 16.6736 150.516 12.8711C136.604 9.06851 122.244 17.2637 118.441 31.1756C117.145 35.9179 117.243 40.7124 118.486 45.123C118.98 46.874 118.12 48.7774 116.531 49.6637C112.311 52.0178 108.893 56.1485 107.113 62.6625C102.936 77.9439 111.562 95.6299 155.699 102.913C199.835 110.196 223.655 50.4175 201.467 57.1962C194.624 59.2865 181.702 58.0043 168.897 55.7719Z" fill="#FFED00"/>
<path fill-rule="evenodd" clip-rule="evenodd" d="M163.884 48.9387C164.685 47.4433 165.333 45.8328 165.801 44.1205C169.148 31.8763 161.935 19.2372 149.691 15.8905C137.446 12.5438 124.807 19.7566 121.461 32.0009C120.318 36.1796 120.406 40.395 121.499 44.2737C122.412 47.5116 120.825 50.8528 118.056 52.3973C114.652 54.2962 111.717 57.6897 110.132 63.4878C108.302 70.1837 109.24 77.2335 115.515 83.5877C121.987 90.1413 134.404 96.2267 156.208 99.8245C176.635 103.195 192.551 91.0888 200.842 78.5202C205.026 72.1774 206.912 66.2331 206.756 62.64C206.679 60.872 206.154 60.2654 205.884 60.0763C205.616 59.8882 204.7 59.4814 202.381 60.1899C198.401 61.4058 192.993 61.5725 187.232 61.2298C181.383 60.8818 174.824 59.9826 168.36 58.8556C165.953 58.436 164.31 56.7609 163.561 54.8939C162.826 53.0593 162.859 50.8516 163.884 48.9387ZM166.643 50.417C165.516 52.5192 166.548 55.3623 168.897 55.7719C181.702 58.0043 194.624 59.2865 201.467 57.1962C223.655 50.4175 199.835 110.196 155.699 102.913C111.562 95.6299 102.936 77.9439 107.113 62.6625C108.893 56.1485 112.311 52.0178 116.531 49.6637C118.12 48.7774 118.98 46.874 118.486 45.123C117.243 40.7124 117.145 35.9179 118.441 31.1756C122.244 17.2637 136.604 9.06851 150.516 12.8711C164.428 16.6736 172.623 31.034 168.82 44.9458C168.29 46.8865 167.554 48.7159 166.643 50.417Z" fill="black"/>
<path d="M205.842 59.4506C214.461 57.5945 198.79 106.827 156.224 101.544C113.658 96.2615 104.126 78.0168 108.303 62.7354C112.48 47.454 109.091 94.7108 167.298 90.3548C206.007 84.2989 197.485 61.2501 205.842 59.4506Z" fill="black" fill-opacity="0.25"/>
<path fill-rule="evenodd" clip-rule="evenodd" d="M178.3 67.5051C178.236 67.4756 177.918 67.3661 177.073 67.622C175.18 68.1947 172.594 68.2524 169.864 68.0716C167.086 67.8876 163.976 67.4416 160.938 66.8955C154.858 65.803 148.947 64.288 146.323 63.571L147.149 60.5515C149.724 61.2553 155.537 62.7446 161.492 63.8147C164.47 64.3499 167.454 64.7748 170.071 64.9482C172.734 65.1246 174.843 65.0261 176.166 64.6258C177.627 64.1841 179.197 64.1446 180.344 65.1303C181.489 66.115 181.633 67.6241 181.436 68.8926C181.036 71.4713 179.045 74.7546 175.863 77.6839C169.376 83.6558 157.419 88.6722 140.711 84.1052L141.536 81.0858C157.207 85.3691 168.05 80.6215 173.743 75.381C176.65 72.704 178.094 70.0189 178.343 68.4129C178.44 67.7832 178.33 67.5545 178.3 67.5051Z" fill="black"/>
<path d="M141.123 82.596C173.503 91.4463 181.52 66.5179 178.072 66.9842C172.889 67.6851 172.078 82.7388 142.662 76.967L141.123 82.596Z" fill="black" fill-opacity="0.25"/>
<path fill-rule="evenodd" clip-rule="evenodd" d="M146.91 27.7243C145.163 27.2469 143.56 28.2106 143.175 29.6181C142.947 30.4519 142.086 30.9431 141.252 30.7152C140.419 30.4873 139.927 29.6266 140.155 28.7928C141.045 25.5371 144.507 23.8227 147.735 24.7049C150.962 25.5871 153.071 28.8241 152.181 32.0798C151.953 32.9136 151.093 33.4048 150.259 33.1769C149.425 32.949 148.934 32.0883 149.162 31.2545C149.546 29.847 148.656 28.2017 146.91 27.7243Z" fill="black"/>
<path d="M139.752 38.6944C141.377 39.2847 142.322 41.041 141.057 42.2196C136.729 46.2533 125.496 48.3791 115.822 45.735C104.242 42.5698 96.0945 35.4675 97.624 29.8717C98.9841 24.8955 110.501 32.207 118.545 27.7354C120.505 26.6453 122.748 25.7124 124.893 26.3677C136.239 29.8326 128.602 34.6435 139.752 38.6944Z" fill="#FF8C00"/>
<path fill-rule="evenodd" clip-rule="evenodd" d="M137.283 41.0877C134.963 40.106 133.294 38.9991 132.061 37.7117C130.649 36.2372 130.008 34.7107 129.57 33.6671C129.55 33.6193 129.531 33.5726 129.511 33.5269C129.07 32.4801 128.819 31.9696 128.277 31.4547C127.703 30.9092 126.555 30.1481 123.979 29.3614C123.197 29.1225 122.013 29.3885 120.065 30.4713C114.998 33.2881 109.061 32.3402 105.199 31.7236C105.16 31.7175 105.122 31.7115 105.085 31.7054C102.93 31.3617 101.542 31.1417 100.577 31.189C100.557 32.2792 101.257 34.0828 103.864 36.3552C106.73 38.8534 111.211 41.2295 116.648 42.7156C121.01 43.9079 125.788 44.0344 129.966 43.3881C133.05 42.9109 135.559 42.0538 137.283 41.0877ZM138.726 41.6555C138.738 41.6622 138.743 41.6669 138.742 41.6675C138.742 41.6682 138.736 41.6648 138.726 41.6555ZM141.057 42.2196C142.322 41.041 141.377 39.2847 139.752 38.6944C134.241 36.6921 133.319 34.5041 132.427 32.3847C131.514 30.2164 130.631 28.1199 124.893 26.3677C122.748 25.7124 120.505 26.6453 118.545 27.7354C114.419 30.0289 109.38 29.2226 105.266 28.5644C101.359 27.9393 98.2865 27.4478 97.624 29.8717C96.0945 35.4675 104.242 42.5698 115.822 45.735C125.496 48.3791 136.729 46.2533 141.057 42.2196Z" fill="black"/>
<path d="M117.278 43.713C124.543 45.6988 132.72 44.9386 137.369 42.7296C139.501 41.7164 138.248 39.8598 135.907 40.1663C121.922 41.9972 111.267 37.9148 105.134 33.8707C103.093 32.5251 100.891 33.5816 102.443 35.4706C105.106 38.7125 110.566 41.8786 117.278 43.713Z" fill="black" fill-opacity="0.25"/>
<g filter="url(#filter0_d_1131_28750)">
<g filter="url(#filter1_i_1131_28750)">
<circle cx="55" cy="779" r="40" transform="rotate(31.4073 55 779)" fill="#FF8C00"/>
</g>
<circle cx="55" cy="779" r="38" transform="rotate(31.4073 55 779)" stroke="black" stroke-width="4"/>
<path d="M65.2607 749.195C53.3506 741.923 37.5098 746.159 29.8793 758.656C29.2012 759.766 28.6108 760.905 28.1062 762.062C24.9895 769.212 31.8208 768.778 35.9532 762.163C42.1903 752.179 51.7124 751.259 60.163 753.981C64.5528 755.395 69.197 751.598 65.2607 749.195Z" fill="white" fill-opacity="0.25"/>
<path d="M71.0373 783.717C73.9464 780.224 72.3241 776.4 69.223 772.617L73.6776 768.2L71.0368 765.505L66.6988 769.806C66.0054 769.098 65.2829 768.387 64.5631 767.683L68.9262 763.351L66.2885 760.658L61.8389 765.076L56.5087 759.651L53.6138 762.525C53.6138 762.525 55.6013 764.477 55.5319 764.481C56.6006 765.573 56.3121 766.561 55.8627 767.21L43.6633 779.314C43.2708 779.609 42.5224 779.953 41.7752 779.19C41.7783 779.256 39.8585 777.228 39.8585 777.228L36.0935 779.91L41.3973 785.358L36.8939 789.829L39.5301 792.521L43.9871 788.1C44.6975 788.855 45.3903 789.575 46.0744 790.272L41.6373 794.673L44.2775 797.367L48.7748 792.907C53.4745 797.178 57.729 799.21 62.39 795.359C66.147 792.258 66.1072 789.122 64.2095 785.932C66.5415 786.699 68.9078 786.277 71.0335 783.717L71.0373 783.717ZM57.711 789.502C54.3443 792.841 49.1169 786.734 47.3258 784.908L53.294 778.987C55.0829 780.814 61.2202 786.017 57.7125 789.502L57.711 789.502ZM64.9053 779.896C61.8414 782.935 57.5185 777.801 56.0277 776.279L61.4391 770.906C62.9301 772.429 68.0979 776.726 64.9032 779.895" fill="white"/>
</g>
<g filter="url(#filter2_d_1131_28750)">
<path fill-rule="evenodd" clip-rule="evenodd" d="M193.272 336.542L194.219 333.596C195.768 328.775 196.285 323.672 195.738 318.576C195.19 313.479 193.588 308.485 191.016 303.88C188.444 299.275 184.952 295.149 180.737 291.743C176.521 288.337 171.666 285.72 166.451 284.043C161.235 282.366 155.764 281.665 150.353 281.977C144.943 282.289 139.701 283.607 134.928 285.851C130.154 288.095 125.942 291.22 122.528 295.044C119.113 298.866 116.56 303.315 115.01 308.135L114.063 311.081L107.97 309.123L108.917 306.177C110.725 300.553 113.703 295.368 117.677 290.919C121.65 286.47 126.54 282.847 132.062 280.251C137.583 277.655 143.628 276.138 149.852 275.779C156.075 275.421 162.358 276.227 168.344 278.151C174.33 280.076 179.907 283.081 184.755 286.998C189.604 290.916 193.633 295.672 196.608 300.998C199.583 306.325 201.446 312.119 202.083 318.05C202.721 323.981 202.12 329.93 200.312 335.554L199.365 338.5L193.272 336.542Z" fill="#E40303"/>
<path fill-rule="evenodd" clip-rule="evenodd" d="M187.941 334.828L188.888 331.882C190.253 327.635 190.722 323.145 190.267 318.666C189.812 314.187 188.441 309.805 186.23 305.771C184.018 301.737 181.009 298.13 177.371 295.159C173.733 292.187 169.54 289.911 165.03 288.462C160.521 287.012 155.787 286.419 151.099 286.714C146.411 287.009 141.864 288.187 137.716 290.177C133.568 292.167 129.901 294.929 126.921 298.304C123.942 301.679 121.707 305.602 120.342 309.849L119.395 312.795L113.302 310.836L114.249 307.891C115.868 302.853 118.518 298.203 122.047 294.206C125.575 290.209 129.911 286.945 134.805 284.598C139.698 282.25 145.053 280.865 150.563 280.518C156.072 280.171 161.632 280.869 166.924 282.57C172.216 284.271 177.141 286.943 181.417 290.436C185.692 293.928 189.237 298.174 191.846 302.933C194.455 307.692 196.077 312.871 196.616 318.175C197.155 323.479 196.6 328.803 194.981 333.84L194.034 336.786L187.941 334.828Z" fill="#FF8C00"/>
<path fill-rule="evenodd" clip-rule="evenodd" d="M181.857 332.876L182.802 329.929C183.916 326.457 184.295 322.785 183.915 319.121C183.535 315.456 182.403 311.869 180.581 308.565C178.758 305.26 176.279 302.303 173.284 299.866C170.288 297.429 166.836 295.56 163.124 294.369C159.412 293.179 155.518 292.69 151.663 292.929C147.809 293.169 144.073 294.132 140.668 295.759C137.263 297.386 134.256 299.645 131.815 302.405C129.375 305.164 127.546 308.372 126.432 311.844L125.487 314.79L119.393 312.835L120.338 309.888C121.707 305.622 123.953 301.685 126.945 298.302C129.936 294.92 133.614 292.159 137.765 290.176C141.916 288.192 146.458 287.024 151.133 286.733C155.806 286.443 160.523 287.036 165.014 288.477C169.506 289.918 173.687 292.18 177.32 295.135C180.952 298.091 183.967 301.684 186.189 305.712C188.412 309.741 189.797 314.126 190.263 318.618C190.729 323.11 190.265 327.618 188.896 331.885L187.951 334.831L181.857 332.876Z" fill="#FFED00"/>
<path fill-rule="evenodd" clip-rule="evenodd" d="M175.768 330.919L176.713 327.972C177.6 325.208 177.901 322.284 177.599 319.365C177.296 316.447 176.395 313.589 174.942 310.955C173.489 308.321 171.513 305.963 169.124 304.019C166.734 302.075 163.98 300.584 161.018 299.634C158.057 298.684 154.95 298.294 151.875 298.485C148.801 298.676 145.822 299.444 143.108 300.741C140.394 302.038 137.999 303.838 136.055 306.036C134.111 308.234 132.655 310.788 131.768 313.552L130.823 316.498L124.729 314.543L125.674 311.597C126.816 308.038 128.689 304.755 131.184 301.934C133.679 299.113 136.746 296.811 140.206 295.158C143.665 293.505 147.451 292.531 151.345 292.289C155.239 292.047 159.168 292.541 162.909 293.742C166.65 294.942 170.133 296.826 173.16 299.288C176.186 301.751 178.699 304.745 180.551 308.102C182.403 311.46 183.558 315.116 183.947 318.862C184.335 322.608 183.948 326.369 182.807 329.927L181.862 332.874L175.768 330.919Z" fill="#008026"/>
<path fill-rule="evenodd" clip-rule="evenodd" d="M170.434 329.204L171.379 326.258C172.054 324.154 172.284 321.928 172.053 319.706C171.823 317.484 171.137 315.307 170.029 313.299C168.922 311.291 167.415 309.493 165.591 308.009C163.767 306.525 161.665 305.387 159.404 304.662C157.143 303.936 154.771 303.639 152.424 303.784C150.078 303.93 147.806 304.516 145.737 305.505C143.668 306.494 141.843 307.865 140.363 309.539C138.883 311.212 137.775 313.156 137.1 315.26L136.155 318.206L130.061 316.251L131.006 313.304C131.936 310.407 133.461 307.733 135.493 305.436C137.524 303.14 140.02 301.267 142.834 299.922C145.649 298.577 148.728 297.785 151.894 297.588C155.06 297.392 158.253 297.793 161.294 298.769C164.335 299.745 167.166 301.276 169.627 303.278C172.088 305.28 174.131 307.715 175.638 310.446C177.145 313.178 178.085 316.154 178.402 319.203C178.718 322.253 178.403 325.315 177.473 328.213L176.528 331.159L170.434 329.204Z" fill="#004DFF"/>
<path fill-rule="evenodd" clip-rule="evenodd" d="M166.105 327.812L166.831 325.547C167.35 323.93 167.53 322.22 167.36 320.514C167.19 318.808 166.672 317.137 165.834 315.598C164.995 314.058 163.852 312.68 162.467 311.545C161.082 310.41 159.483 309.541 157.763 308.989C156.043 308.437 154.238 308.214 152.451 308.332C150.664 308.449 148.933 308.905 147.355 309.669C145.778 310.433 144.385 311.491 143.254 312.779C142.123 314.068 141.275 315.563 140.756 317.181L140.029 319.446L135.394 317.958L136.12 315.693C136.835 313.466 138.003 311.409 139.555 309.64C141.107 307.871 143.012 306.427 145.158 305.388C147.304 304.348 149.65 303.733 152.062 303.574C154.473 303.416 156.904 303.717 159.217 304.459C161.53 305.201 163.682 306.371 165.551 307.902C167.42 309.434 168.97 311.299 170.111 313.394C171.252 315.488 171.961 317.771 172.195 320.112C172.428 322.454 172.182 324.806 171.467 327.034L170.74 329.299L166.105 327.812Z" fill="#750787"/>
</g>
<path d="M278.874 596.183L278.873 596.178C278.44 594.538 277.106 592.721 274.934 592.721H251.971L265.887 554.471L265.887 554.471C266.564 552.609 266.295 550.227 264.917 548.695C264.207 547.901 263.221 547.38 262.105 547.38C260.904 547.38 259.871 547.984 259.163 548.845L259.161 548.848L243.452 568.027L243.452 568.027L212.122 606.28L212.121 606.28C210.977 607.677 210.679 609.697 211.128 611.398L213.056 610.889L211.128 611.398C211.559 613.031 212.887 614.858 215.065 614.858H238.028L224.112 653.108L224.112 653.108C223.434 654.97 223.704 657.351 225.081 658.884C225.792 659.678 226.778 660.199 227.894 660.199C229.095 660.199 230.128 659.596 230.836 658.734L230.838 658.732L246.547 639.552L244.999 638.285L246.547 639.552L277.875 601.302C279.026 599.901 279.318 597.881 278.874 596.183Z" fill="#FFC700" stroke="black" stroke-width="4"/>
<path d="M272.644 594.268H266.517L224.054 665L275.76 600.777C277.867 598.159 276.004 594.268 272.644 594.268Z" fill="black" fill-opacity="0.25"/>
<path d="M217.513 613.311H223.15L263.982 547L214.434 606.758C212.272 609.365 214.126 613.311 217.513 613.311Z" fill="white" fill-opacity="0.25"/>
<defs>
<filter id="filter0_d_1131_28750" x="10.9941" y="738.994" width="88.0115" height="88.0115" filterUnits="userSpaceOnUse" color-interpolation-filters="sRGB">
<feFlood flood-opacity="0" result="BackgroundImageFix"/>
<feColorMatrix in="SourceAlpha" type="matrix" values="0 0 0 0 0 0 0 0 0 0 0 0 0 0 0 0 0 0 127 0" result="hardAlpha"/>
<feOffset dy="4"/>
<feGaussianBlur stdDeviation="2"/>
<feComposite in2="hardAlpha" operator="out"/>
<feColorMatrix type="matrix" values="0 0 0 0 0 0 0 0 0 0 0 0 0 0 0 0 0 0 0.25 0"/>
<feBlend mode="normal" in2="BackgroundImageFix" result="effect1_dropShadow_1131_28750"/>
<feBlend mode="normal" in="SourceGraphic" in2="effect1_dropShadow_1131_28750" result="shape"/>
</filter>
<filter id="filter1_i_1131_28750" x="14.9941" y="738.994" width="80.0115" height="80.0115" filterUnits="userSpaceOnUse" color-interpolation-filters="sRGB">
<feFlood flood-opacity="0" result="BackgroundImageFix"/>
<feBlend mode="normal" in="SourceGraphic" in2="BackgroundImageFix" result="shape"/>
<feColorMatrix in="SourceAlpha" type="matrix" values="0 0 0 0 0 0 0 0 0 0 0 0 0 0 0 0 0 0 127 0" result="hardAlpha"/>
<feOffset dx="-5" dy="-8"/>
<feComposite in2="hardAlpha" operator="arithmetic" k2="-1" k3="1"/>
<feColorMatrix type="matrix" values="0 0 0 0 0 0 0 0 0 0 0 0 0 0 0 0 0 0 0.25 0"/>
<feBlend mode="normal" in2="shape" result="effect1_innerShadow_1131_28750"/>
</filter>
<filter id="filter2_d_1131_28750" x="102.958" y="263.463" width="114.083" height="86.0737" filterUnits="userSpaceOnUse" color-interpolation-filters="sRGB">
<feFlood flood-opacity="0" result="BackgroundImageFix"/>
<feColorMatrix in="SourceAlpha" type="matrix" values="0 0 0 0 0 0 0 0 0 0 0 0 0 0 0 0 0 0 127 0" result="hardAlpha"/>
<feOffset dx="-1" dy="7"/>
<feGaussianBlur stdDeviation="2"/>
<feComposite in2="hardAlpha" operator="out"/>
<feColorMatrix type="matrix" values="0 0 0 0 0 0 0 0 0 0 0 0 0 0 0 0 0 0 0.25 0"/>
<feBlend mode="normal" in2="BackgroundImageFix" result="effect1_dropShadow_1131_28750"/>
<feBlend mode="normal" in="SourceGraphic" in2="effect1_dropShadow_1131_28750" result="shape"/>
</filter>
</defs>
</svg>
