<svg width="330" height="795" viewBox="0 0 330 795" fill="none" xmlns="http://www.w3.org/2000/svg">
<mask id="path-1-inside-1_1131_28749" fill="white">
<path fill-rule="evenodd" clip-rule="evenodd" d="M277.469 693.529C273.332 682.1 261.304 675.569 249.466 678.322L225.817 683.821C213.979 686.574 206.067 697.743 207.398 709.824L213.833 768.278C213.834 768.284 213.84 768.289 213.847 768.287C213.853 768.286 213.86 768.29 213.86 768.297C213.872 768.415 213.891 768.532 213.918 768.647C215.248 774.367 235.053 774.648 258.154 769.276C281.255 763.904 298.904 754.912 297.574 749.193C297.547 749.077 297.512 748.964 297.471 748.853C297.468 748.847 297.472 748.84 297.478 748.838C297.485 748.837 297.489 748.83 297.486 748.824L277.469 693.529Z"/>
</mask>
<path fill-rule="evenodd" clip-rule="evenodd" d="M277.469 693.529C273.332 682.1 261.304 675.569 249.466 678.322L225.817 683.821C213.979 686.574 206.067 697.743 207.398 709.824L213.833 768.278C213.834 768.284 213.84 768.289 213.847 768.287C213.853 768.286 213.86 768.29 213.86 768.297C213.872 768.415 213.891 768.532 213.918 768.647C215.248 774.367 235.053 774.648 258.154 769.276C281.255 763.904 298.904 754.912 297.574 749.193C297.547 749.077 297.512 748.964 297.471 748.853C297.468 748.847 297.472 748.84 297.478 748.838C297.485 748.837 297.489 748.83 297.486 748.824L277.469 693.529Z" fill="#3C3C3C"/>
<path d="M297.486 748.824L295.606 749.505L297.486 748.824ZM213.86 768.297L211.87 768.491L213.86 768.297ZM297.471 748.853L299.342 748.149L297.471 748.853ZM213.833 768.278L215.821 768.059L213.833 768.278ZM226.27 685.769L249.919 680.27L249.013 676.374L225.364 681.873L226.27 685.769ZM215.821 768.059L209.386 709.605L205.41 710.043L211.845 768.497L215.821 768.059ZM215.866 768.194C215.859 768.165 215.854 768.135 215.851 768.103L211.87 768.491C211.89 768.695 211.923 768.899 211.97 769.1L215.866 768.194ZM257.701 767.328C246.261 769.989 235.701 771.232 227.9 771.121C223.984 771.066 220.878 770.669 218.735 770.004C216.438 769.291 215.937 768.501 215.866 768.194L211.97 769.1C212.563 771.653 215.037 773.044 217.549 773.824C220.216 774.652 223.755 775.063 227.843 775.121C236.053 775.238 246.946 773.936 258.607 771.224L257.701 767.328ZM295.626 749.646C295.697 749.952 295.596 750.882 293.849 752.536C292.22 754.079 289.607 755.805 286.118 757.583C279.166 761.124 269.141 764.668 257.701 767.328L258.607 771.224C270.268 768.512 280.618 764.874 287.933 761.147C291.577 759.29 294.571 757.36 296.599 755.441C298.509 753.632 300.115 751.293 299.522 748.74L295.626 749.646ZM295.599 749.558C295.61 749.587 295.619 749.616 295.626 749.646L299.522 748.74C299.475 748.538 299.415 748.341 299.342 748.149L295.599 749.558ZM275.589 694.209L295.606 749.505L299.367 748.143L279.35 692.848L275.589 694.209ZM297.931 750.786C299.106 750.513 299.777 749.276 299.367 748.143L295.606 749.505C295.2 748.384 295.864 747.16 297.025 746.89L297.931 750.786ZM214.3 770.235C213.123 770.509 211.986 769.681 211.87 768.491L215.851 768.103C215.734 766.9 214.584 766.063 213.394 766.339L214.3 770.235ZM299.342 748.149C299.764 749.268 299.108 750.513 297.931 750.786L297.025 746.89C295.835 747.167 295.173 748.426 295.599 749.558L299.342 748.149ZM211.845 768.497C211.977 769.695 213.126 770.508 214.3 770.235L213.394 766.339C214.555 766.069 215.691 766.874 215.821 768.059L211.845 768.497ZM249.919 680.27C260.771 677.746 271.796 683.733 275.589 694.209L279.35 692.848C274.868 680.467 261.838 673.391 249.013 676.374L249.919 680.27ZM225.364 681.873C212.539 684.856 203.969 696.955 205.41 710.043L209.386 709.605C208.166 698.531 215.418 688.293 226.27 685.769L225.364 681.873Z" fill="black" mask="url(#path-1-inside-1_1131_28749)"/>
<path d="M297.574 749.193C297.547 749.077 297.512 748.964 297.471 748.854C297.468 748.847 297.472 748.84 297.479 748.838C297.485 748.837 297.489 748.83 297.486 748.823L273.079 681.401C271.445 676.886 266.839 674.281 262.339 675.328L250.824 678.006L271.214 765.686C287.538 760.448 298.638 753.772 297.574 749.193Z" fill="black" fill-opacity="0.25"/>
<path d="M307.434 661.46C307.961 663.723 306.864 666.49 303.862 669.659C300.892 672.795 296.245 676.117 290.222 679.415C278.19 686.006 260.877 692.391 241.139 696.981C221.4 701.571 203.046 703.481 189.341 702.876C182.481 702.573 176.844 701.643 172.796 700.139C168.703 698.619 166.499 696.621 165.972 694.358C165.446 692.094 166.542 689.328 169.545 686.158C172.514 683.023 177.162 679.701 183.184 676.402C195.216 669.812 212.53 663.426 232.268 658.836C252.006 654.246 270.36 652.337 284.066 652.942C290.926 653.244 296.562 654.175 300.611 655.678C304.703 657.198 306.908 659.196 307.434 661.46Z" fill="#929292" stroke="black" stroke-width="2"/>
<path d="M280.52 664.55C280.601 664.9 280.542 665.372 280.167 666.012C279.789 666.657 279.131 667.397 278.164 668.213C276.231 669.843 273.235 671.633 269.358 673.463C261.621 677.117 250.575 680.841 238.061 683.751C225.547 686.661 213.992 688.193 205.437 688.328C201.15 688.396 197.672 688.112 195.218 687.503C193.99 687.197 193.073 686.824 192.449 686.411C191.83 686.003 191.569 685.605 191.487 685.254C191.406 684.904 191.465 684.432 191.84 683.792C192.218 683.147 192.876 682.407 193.844 681.591C195.776 679.961 198.773 678.171 202.649 676.341C210.386 672.687 221.432 668.963 233.946 666.053C246.46 663.143 258.015 661.611 266.571 661.476C270.857 661.408 274.335 661.692 276.789 662.301C278.017 662.607 278.934 662.98 279.558 663.393C280.177 663.802 280.438 664.199 280.52 664.55Z" fill="#3C3C3C" stroke="black" stroke-width="2"/>
<mask id="path-6-inside-2_1131_28749" fill="white">
<path fill-rule="evenodd" clip-rule="evenodd" d="M217.323 635.158C219.952 640.083 222.069 644.932 223.618 649.399C225.556 648.583 227.563 647.932 229.621 647.453C231.475 647.022 233.355 646.735 235.245 646.592C234.673 641.925 234.438 636.675 234.623 631.135C235.26 612.019 240.646 596.684 246.654 596.884C252.662 597.085 257.016 612.744 256.379 631.86C256.155 638.592 255.342 644.856 254.119 650.137C255.35 650.726 256.55 651.384 257.713 652.108C261.861 654.691 265.459 658.065 268.303 662.038C269.044 663.074 269.661 663.844 270.186 664.501C271.676 666.362 272.437 667.313 273.255 670.831C259.682 678.864 224.494 688.266 200.779 687.686C200.764 687.08 200.75 686.543 200.737 686.062C200.683 684.028 200.656 682.996 200.725 681.97C200.796 680.911 200.971 679.86 201.325 677.724L201.344 677.609C202.142 672.789 203.883 668.174 206.465 664.026C207.088 663.026 207.756 662.058 208.468 661.125C204.959 656.875 201.37 651.5 198.119 645.409C189.112 628.535 186.11 612.562 191.413 609.731C196.716 606.9 208.317 618.285 217.323 635.158Z"/>
</mask>
<path fill-rule="evenodd" clip-rule="evenodd" d="M217.323 635.158C219.952 640.083 222.069 644.932 223.618 649.399C225.556 648.583 227.563 647.932 229.621 647.453C231.475 647.022 233.355 646.735 235.245 646.592C234.673 641.925 234.438 636.675 234.623 631.135C235.26 612.019 240.646 596.684 246.654 596.884C252.662 597.085 257.016 612.744 256.379 631.86C256.155 638.592 255.342 644.856 254.119 650.137C255.35 650.726 256.55 651.384 257.713 652.108C261.861 654.691 265.459 658.065 268.303 662.038C269.044 663.074 269.661 663.844 270.186 664.501C271.676 666.362 272.437 667.313 273.255 670.831C259.682 678.864 224.494 688.266 200.779 687.686C200.764 687.08 200.75 686.543 200.737 686.062C200.683 684.028 200.656 682.996 200.725 681.97C200.796 680.911 200.971 679.86 201.325 677.724L201.344 677.609C202.142 672.789 203.883 668.174 206.465 664.026C207.088 663.026 207.756 662.058 208.468 661.125C204.959 656.875 201.37 651.5 198.119 645.409C189.112 628.535 186.11 612.562 191.413 609.731C196.716 606.9 208.317 618.285 217.323 635.158Z" fill="white"/>
<path d="M223.618 649.399L221.728 650.054L222.427 652.07L224.394 651.242L223.618 649.399ZM217.323 635.158L215.559 636.1L217.323 635.158ZM235.245 646.592L235.396 648.586L237.485 648.428L237.23 646.349L235.245 646.592ZM234.623 631.135L232.624 631.069L234.623 631.135ZM246.654 596.884L246.721 594.886L246.721 594.886L246.654 596.884ZM256.379 631.86L254.381 631.793L256.379 631.86ZM254.119 650.137L252.171 649.686L251.809 651.248L253.256 651.94L254.119 650.137ZM257.713 652.108L258.77 650.41L258.77 650.41L257.713 652.108ZM268.303 662.038L269.929 660.874L269.929 660.874L268.303 662.038ZM270.186 664.501L268.625 665.75L270.186 664.501ZM273.255 670.831L274.274 672.552L275.535 671.806L275.203 670.378L273.255 670.831ZM200.779 687.686L198.78 687.735L198.826 689.638L200.73 689.685L200.779 687.686ZM200.737 686.062L198.738 686.115L198.738 686.115L200.737 686.062ZM200.725 681.97L198.73 681.835L198.73 681.835L200.725 681.97ZM201.325 677.724L203.298 678.051L203.298 678.051L201.325 677.724ZM201.344 677.609L203.317 677.936L203.317 677.936L201.344 677.609ZM206.465 664.026L208.163 665.083L206.465 664.026ZM208.468 661.125L210.058 662.338L211.021 661.076L210.01 659.852L208.468 661.125ZM198.119 645.409L199.883 644.467L198.119 645.409ZM191.413 609.731L192.355 611.495L192.355 611.495L191.413 609.731ZM225.508 648.744C223.922 644.17 221.762 639.226 219.088 634.216L215.559 636.1C218.142 640.94 220.217 645.693 221.728 650.054L225.508 648.744ZM229.168 645.505C227 646.009 224.884 646.696 222.842 647.555L224.394 651.242C226.227 650.471 228.127 649.854 230.074 649.401L229.168 645.505ZM235.095 644.598C233.103 644.748 231.122 645.051 229.168 645.505L230.074 649.401C231.828 648.993 233.608 648.721 235.396 648.586L235.095 644.598ZM232.624 631.069C232.436 636.704 232.674 642.058 233.26 646.836L237.23 646.349C236.671 641.792 236.44 636.646 236.621 631.202L232.624 631.069ZM246.721 594.886C244.292 594.805 242.289 596.303 240.765 598.218C239.211 600.169 237.864 602.896 236.737 606.103C234.476 612.541 232.947 621.365 232.624 631.069L236.621 631.202C236.935 621.789 238.418 613.387 240.511 607.429C241.562 604.438 242.728 602.174 243.894 600.709C245.089 599.208 246.013 598.864 246.588 598.883L246.721 594.886ZM258.378 631.927C258.702 622.223 257.764 613.317 255.936 606.743C255.025 603.468 253.863 600.658 252.442 598.607C251.048 596.595 249.15 594.967 246.721 594.886L246.588 598.883C247.163 598.903 248.061 599.307 249.154 600.884C250.22 602.423 251.233 604.76 252.082 607.815C253.774 613.899 254.694 622.381 254.381 631.793L258.378 631.927ZM256.068 650.587C257.323 645.166 258.15 638.772 258.378 631.927L254.381 631.793C254.16 638.412 253.361 644.546 252.171 649.686L256.068 650.587ZM258.77 650.41C257.545 649.647 256.28 648.954 254.983 648.333L253.256 651.94C254.42 652.498 255.556 653.121 256.656 653.806L258.77 650.41ZM269.929 660.874C266.933 656.687 263.141 653.132 258.77 650.41L256.656 653.806C260.581 656.25 263.986 659.442 266.676 663.202L269.929 660.874ZM271.748 663.251C271.224 662.597 270.637 661.863 269.929 660.874L266.676 663.202C267.452 664.285 268.097 665.091 268.625 665.75L271.748 663.251ZM275.203 670.378C274.774 668.53 274.331 667.232 273.743 666.114C273.161 665.007 272.475 664.16 271.748 663.251L268.625 665.75C269.387 666.703 269.827 667.262 270.203 667.976C270.572 668.678 270.919 669.614 271.307 671.284L275.203 670.378ZM200.73 689.685C212.829 689.981 227.743 687.736 241.294 684.431C254.817 681.133 267.233 676.719 274.274 672.552L272.237 669.11C265.704 672.976 253.739 677.279 240.346 680.545C226.982 683.805 212.445 685.971 200.828 685.686L200.73 689.685ZM198.738 686.115C198.751 686.596 198.765 687.131 198.78 687.735L202.779 687.637C202.764 687.028 202.749 686.49 202.737 686.009L198.738 686.115ZM198.73 681.835C198.653 682.976 198.685 684.116 198.738 686.115L202.737 686.009C202.682 683.94 202.659 683.015 202.721 682.104L198.73 681.835ZM199.351 677.397C199.004 679.496 198.809 680.658 198.73 681.835L202.721 682.104C202.784 681.165 202.938 680.224 203.298 678.051L199.351 677.397ZM199.371 677.283L199.351 677.397L203.298 678.051L203.317 677.936L199.371 677.283ZM204.767 662.969C202.046 667.34 200.212 672.203 199.371 677.283L203.317 677.936C204.072 673.375 205.719 669.008 208.163 665.083L204.767 662.969ZM206.878 659.912C206.128 660.896 205.423 661.916 204.767 662.969L208.163 665.083C208.752 664.137 209.384 663.221 210.058 662.338L206.878 659.912ZM196.354 646.351C199.66 652.544 203.321 658.033 206.926 662.399L210.01 659.852C206.597 655.717 203.08 650.456 199.883 644.467L196.354 646.351ZM190.471 607.967C188.328 609.111 187.342 611.41 186.979 613.831C186.61 616.298 186.806 619.332 187.434 622.673C188.695 629.379 191.783 637.785 196.354 646.351L199.883 644.467C195.449 636.159 192.532 628.141 191.365 621.934C190.78 618.819 190.658 616.275 190.935 614.423C191.219 612.526 191.847 611.766 192.355 611.495L190.471 607.967ZM219.088 634.216C214.516 625.651 209.25 618.407 204.38 613.628C201.954 611.247 199.542 609.395 197.287 608.329C195.074 607.283 192.615 606.822 190.471 607.967L192.355 611.495C192.863 611.224 193.843 611.125 195.578 611.945C197.27 612.745 199.316 614.263 201.579 616.483C206.086 620.906 211.124 627.792 215.559 636.1L219.088 634.216Z" fill="black" mask="url(#path-6-inside-2_1131_28749)"/>
<path d="M230.912 673.973C230.318 671.418 227.075 669.989 223.668 670.781C220.261 671.574 217.981 674.287 218.576 676.842" stroke="black" stroke-width="2" stroke-linecap="round"/>
<path d="M252.5 668.953C251.906 666.398 248.663 664.969 245.256 665.761C241.85 666.553 239.57 669.267 240.164 671.821" stroke="black" stroke-width="2" stroke-linecap="round"/>
<path d="M157.55 634.566L167.491 632.254L200.01 772.089C200.649 774.834 198.941 777.577 196.196 778.215C193.451 778.854 190.708 777.146 190.069 774.401L157.55 634.566Z" fill="#3C3C3C" stroke="black" stroke-width="2"/>
<path d="M146.61 587.522C145.972 584.777 147.679 582.034 150.425 581.396C153.17 580.758 155.912 582.465 156.551 585.21L167.038 630.306L157.097 632.618L146.61 587.522Z" fill="white" stroke="black" stroke-width="2"/>
<path d="M169.438 555.381L175.004 564.612L175.38 565.234L176.087 565.069L186.586 562.628L179.527 570.774L179.052 571.323L179.427 571.945L184.993 581.176L175.064 576.98L174.395 576.697L173.919 577.246L166.861 585.393L167.783 574.653L167.845 573.929L167.176 573.646L157.247 569.451L167.746 567.009L168.454 566.845L168.516 566.121L169.438 555.381Z" fill="#FFED00" stroke="black" stroke-width="2"/>
<path d="M125.036 605.261L130.602 614.491L130.977 615.113L131.685 614.949L142.184 612.507L135.125 620.654L134.65 621.203L135.025 621.825L140.591 631.055L130.662 626.86L129.993 626.577L129.517 627.126L122.459 635.272L123.381 624.533L123.443 623.809L122.774 623.526L112.845 619.33L123.344 616.889L124.051 616.724L124.114 616L125.036 605.261Z" fill="#FFED00" stroke="black" stroke-width="2"/>
<path d="M178.527 604.57L184.094 613.8L184.469 614.422L185.176 614.258L195.675 611.816L188.617 619.963L188.141 620.512L188.516 621.134L194.082 630.364L184.154 626.169L183.484 625.886L183.009 626.435L175.95 634.581L176.872 623.842L176.934 623.118L176.265 622.835L166.336 618.639L176.835 616.198L177.543 616.033L177.605 615.309L178.527 604.57Z" fill="#FFED00" stroke="black" stroke-width="2"/>
<g filter="url(#filter0_d_1131_28749)">
<path d="M137.902 61.7059L127.951 101.403L93.6703 79.0481L119.725 83.2026L120.887 83.3879L121.614 82.4622L137.902 61.7059Z" fill="#C4C4C4" stroke="black" stroke-width="4"/>
<path d="M127.207 99.6049L138.602 62.0184L121.427 84.8641L127.207 99.6049Z" fill="#3C3C3C"/>
<path d="M92.7059 11.5109L140.597 49.1877L117.833 75.5983L83.1853 71.6976L92.7059 11.5109Z" fill="#C4C4C4"/>
<path d="M109.594 49.1033L97.2551 17.6348L137.716 49.4664L118.484 71.7796L109.594 49.1033Z" fill="#929292" stroke="black" stroke-width="4"/>
<path d="M111.146 49.5106L137.879 49.2033L119.664 71.2339L111.146 49.5106Z" fill="#3C3C3C"/>
<path d="M108.156 50.9162L85.1734 70.1687L117.154 73.8662L108.156 50.9162Z" fill="#929292"/>
<path d="M117.008 73.4927L85.4875 69.9441L94.1486 15.1907L137.716 49.4663L117.008 73.4927Z" stroke="black" stroke-width="4"/>
</g>
<path fill-rule="evenodd" clip-rule="evenodd" d="M139.306 324.125L190.274 309.458C192.619 308.783 195.084 310.193 195.779 312.607C196.474 315.021 195.135 317.525 192.79 318.201L141.822 332.868L139.306 324.125Z" fill="#090909"/>
<path d="M178.494 322.314L184.153 320.686C186.186 320.101 187.36 317.978 186.775 315.945L186.378 314.565C185.793 312.532 183.671 311.358 181.638 311.943L131.944 326.244L178.494 322.314Z" fill="white" fill-opacity="0.25"/>
<path d="M108.358 327.388C95.2227 312.852 72.9971 323.971 78.8999 344.484C84.2919 363.221 123.629 380.452 123.629 380.452C123.629 380.452 147.789 344.948 142.397 326.211C136.495 305.699 111.759 308.094 108.358 327.388Z" fill="#DD2E44" fill-opacity="0.75"/>
<path fill-rule="evenodd" clip-rule="evenodd" d="M111.373 337.865L104.806 330.598C99.6819 324.928 93.2474 324.559 88.784 326.995C84.4328 329.371 81.1245 334.9 83.5012 343.16C84.5055 346.649 87.269 350.529 91.4721 354.548C95.6037 358.497 100.739 362.216 105.847 365.449C110.935 368.669 115.879 371.333 119.559 373.195C120.402 373.621 121.177 374.005 121.87 374.342C122.278 373.688 122.73 372.951 123.218 372.142C125.346 368.609 128.117 363.724 130.716 358.292C133.324 352.839 135.697 346.96 137.097 341.418C138.522 335.78 138.8 331.025 137.796 327.535C135.419 319.276 129.678 316.351 124.73 316.651C119.654 316.96 114.4 320.693 113.073 328.219L111.373 337.865ZM123.629 380.452C123.629 380.452 84.2919 363.221 78.8999 344.484C73.5764 325.984 91.1315 315.125 104.264 323.834C105.693 324.782 107.069 325.961 108.358 327.388C108.692 325.494 109.231 323.764 109.938 322.201C116.432 307.844 137.074 307.712 142.397 326.211C147.789 344.948 123.629 380.452 123.629 380.452Z" fill="#090909"/>
<path d="M94.2231 333.222C94.7277 334.976 93.7153 336.806 91.9619 337.311C90.2084 337.815 88.3779 336.803 87.8733 335.05C87.3688 333.296 88.3812 331.466 90.1346 330.961C91.888 330.456 93.7185 331.469 94.2231 333.222Z" fill="white" fill-opacity="0.7"/>
<path fill-rule="evenodd" clip-rule="evenodd" d="M109.202 360.615L128.699 324.931L130.788 326.101L111.291 361.784L109.202 360.615Z" fill="white" fill-opacity="0.25"/>
<path fill-rule="evenodd" clip-rule="evenodd" d="M116.71 361.289L128.395 339.904L130.484 341.073L118.799 362.459L116.71 361.289Z" fill="white" fill-opacity="0.25"/>
<path d="M48.5417 344.601C35.4063 330.066 13.1807 341.185 19.0835 361.697C24.4755 380.434 63.8121 397.666 63.8121 397.666C63.8121 397.666 87.973 362.162 82.581 343.424C76.6782 322.912 51.9421 325.307 48.5417 344.601Z" fill="#DD2E44" fill-opacity="0.75"/>
<path fill-rule="evenodd" clip-rule="evenodd" d="M51.5568 355.079L44.9893 347.811C39.8655 342.141 33.431 341.772 28.9675 344.209C24.6164 346.584 21.3081 352.114 23.6848 360.373C24.6891 363.863 27.4526 367.743 31.6557 371.761C35.7873 375.711 40.9221 379.429 46.0303 382.662C51.1185 385.882 56.0625 388.546 59.7429 390.408C60.586 390.835 61.3609 391.218 62.0538 391.556C62.4614 390.902 62.9139 390.165 63.4014 389.356C65.5292 385.822 68.3009 380.938 70.8993 375.506C73.5079 370.052 75.8808 364.173 77.281 358.632C78.7055 352.994 78.984 348.238 77.9797 344.749C75.603 336.49 69.8615 333.564 64.9134 333.865C59.8375 334.173 54.5835 337.906 53.257 345.432L51.5568 355.079ZM63.8121 397.666C63.8121 397.666 24.4755 380.434 19.0835 361.697C13.76 343.198 31.3151 332.339 44.4472 341.048C45.8761 341.995 47.2527 343.175 48.5417 344.601C48.8754 342.708 49.4145 340.977 50.1212 339.415C56.6156 325.058 77.2575 324.925 82.581 343.425C87.973 362.162 63.8121 397.666 63.8121 397.666Z" fill="#090909"/>
<path d="M34.4067 350.436C34.9113 352.189 33.8989 354.02 32.1454 354.524C30.392 355.029 28.5615 354.016 28.0569 352.263C27.5524 350.51 28.5647 348.679 30.3182 348.175C32.0716 347.67 33.9021 348.682 34.4067 350.436Z" fill="white" fill-opacity="0.7"/>
<path fill-rule="evenodd" clip-rule="evenodd" d="M49.3852 377.828L68.8825 342.145L70.9714 343.314L51.4741 378.998L49.3852 377.828Z" fill="white" fill-opacity="0.25"/>
<path fill-rule="evenodd" clip-rule="evenodd" d="M56.8939 378.503L68.5788 357.117L70.6677 358.287L58.9829 379.672L56.8939 378.503Z" fill="white" fill-opacity="0.25"/>
<defs>
<filter id="filter0_d_1131_28749" x="60" y="0.134338" width="102.224" height="123.731" filterUnits="userSpaceOnUse" color-interpolation-filters="sRGB">
<feFlood flood-opacity="0" result="BackgroundImageFix"/>
<feColorMatrix in="SourceAlpha" type="matrix" values="0 0 0 0 0 0 0 0 0 0 0 0 0 0 0 0 0 0 127 0" result="hardAlpha"/>
<feOffset dy="4"/>
<feGaussianBlur stdDeviation="2"/>
<feComposite in2="hardAlpha" operator="out"/>
<feColorMatrix type="matrix" values="0 0 0 0 0 0 0 0 0 0 0 0 0 0 0 0 0 0 0.25 0"/>
<feBlend mode="normal" in2="BackgroundImageFix" result="effect1_dropShadow_1131_28749"/>
<feBlend mode="normal" in="SourceGraphic" in2="effect1_dropShadow_1131_28749" result="shape"/>
</filter>
</defs>
</svg>
