<svg width="600" height="1232" viewBox="0 0 600 1232" fill="none" xmlns="http://www.w3.org/2000/svg">
<mask id="mask0_1151_28792" style="mask-type:alpha" maskUnits="userSpaceOnUse" x="0" y="0" width="600" height="1232">
<rect width="600" height="1232" fill="#C4C4C4"/>
</mask>
<g mask="url(#mask0_1151_28792)">
<path d="M44.265 0C-4.50027 11.5 33.2652 29.7614 70.2804 29.7614C170 29.7614 116.854 51.5076 87.9998 54.0002C23.2931 53.5149 24.7861 89.4622 33 102C76 164 321 129.5 332.787 245.926C347.322 291.557 388.687 292.966 395.484 367.941C431.929 479.159 467.355 320.393 473.621 349.726C494.775 448.741 457.43 709.697 482.921 726.885C500.471 745.785 510.661 680.734 522.13 743.329C532.058 778.789 513.481 860.467 523.307 916.26C535.953 979.915 563.476 880.549 567.365 904.589C574.581 949.195 532.69 1043.57 567.365 1088.66C596.655 1126.75 600 1320.64 600 1061.08L600 0H44.265Z" fill="#FF8C00"/>
<path d="M586.202 197.613C588.09 197.107 589.2 195.075 588.535 193.12C586.444 186.973 583.304 181.214 579.235 176.079C574.385 169.96 568.31 164.847 561.357 161.031C554.404 157.216 546.709 154.774 538.711 153.844C530.712 152.915 522.568 153.515 514.742 155.612C506.917 157.709 499.563 161.261 493.101 166.065C486.64 170.87 481.196 176.832 477.082 183.613C472.968 190.393 470.264 197.859 469.124 205.583C467.984 213.307 468.43 221.139 470.438 228.631L530.029 212.664L586.202 197.613Z" fill="#FF8C00"/>
<path fill-rule="evenodd" clip-rule="evenodd" d="M469.329 230.676L468.963 229.309C466.883 221.549 466.414 213.442 467.579 205.455C468.743 197.468 471.517 189.761 475.734 182.772C479.952 175.783 485.53 169.647 492.148 164.71C498.765 159.773 506.294 156.129 514.306 153.982C522.318 151.835 530.661 151.227 538.86 152.194C547.059 153.161 554.959 155.685 562.105 159.629C569.252 163.573 575.508 168.86 580.51 175.195C584.707 180.511 587.951 186.475 590.114 192.842C591.07 195.653 589.465 198.485 586.883 199.177L469.329 230.676ZM469.901 227.593C468.175 220.45 467.835 213.031 468.902 205.709C470.038 197.917 472.746 190.388 476.871 183.553C480.996 176.717 486.457 170.708 492.943 165.868C499.429 161.029 506.813 157.454 514.672 155.348C522.532 153.242 530.714 152.646 538.75 153.594C546.787 154.542 554.521 157.016 561.512 160.873C568.502 164.731 574.611 169.897 579.491 176.077C583.586 181.263 586.747 187.077 588.855 193.281C589.526 195.254 588.413 197.302 586.517 197.811L470.25 228.964C470.128 228.508 470.012 228.051 469.901 227.593Z" fill="black"/>
<path d="M579.293 176.299C583.347 181.375 586.47 187.073 588.545 193.157C589.204 195.091 588.09 197.107 586.202 197.613L530.029 212.664L470.438 228.632C468.451 221.215 468.024 213.457 469.183 205.803C540.67 202.358 560.492 174.791 561.466 161.437C568.405 165.199 574.463 170.249 579.293 176.299Z" fill="black" fill-opacity="0.25"/>
<path d="M469.085 228.12L564.504 202.552C565.354 202.324 565.931 203.303 565.256 203.882C548.416 218.315 484.69 232.177 471.144 235.807C459.784 238.851 463.282 229.674 469.085 228.12Z" fill="#FF8C00"/>
<path fill-rule="evenodd" clip-rule="evenodd" d="M468.645 227.365L564.536 201.671C565.504 201.412 566.491 201.809 566.986 202.652C567.509 203.545 567.323 204.672 566.492 205.367C562.066 209.066 554.706 212.669 546.086 216.045C537.429 219.436 527.366 222.648 517.432 225.522C503.406 229.581 489.527 232.997 480.23 235.285C476.387 236.231 473.327 236.984 471.363 237.51C468.435 238.295 466.191 238.394 464.62 237.813C463.8 237.51 463.121 237.004 462.683 236.282C462.249 235.565 462.131 234.766 462.203 234.015C462.342 232.564 463.193 231.118 464.29 229.98C465.412 228.817 466.93 227.825 468.645 227.365ZM564.893 203.004L469.002 228.697C463.171 230.26 459.59 239.237 471.007 236.178C473.007 235.642 476.096 234.882 479.965 233.93C502.42 228.404 551.133 216.416 565.636 204.294C566.318 203.724 565.747 202.775 564.893 203.004Z" fill="black"/>
<path d="M499.52 219.964L565.286 202.342C566.06 202.135 566.655 202.985 566.13 203.611C555.329 216.47 510.951 225.14 501.58 227.651C493.731 229.754 495.511 221.039 499.52 219.964Z" fill="black" fill-opacity="0.25"/>
<path d="M527.512 156.183C528.959 154.468 525.048 152.268 524.417 152.147C518.529 156.756 509.48 162.972 505.644 203.072C504.082 215.972 500.64 213.26 495.129 215.621C507.879 213.785 509.484 207.902 509.376 203.952C509.174 167.312 527.512 156.183 527.512 156.183Z" fill="#FF8C00"/>
<path fill-rule="evenodd" clip-rule="evenodd" d="M523.497 150.646L524.066 150.757C524.31 150.804 524.562 150.911 524.74 150.993C524.951 151.09 525.189 151.214 525.437 151.359C525.93 151.646 526.516 152.043 527.044 152.515C527.546 152.964 528.121 153.594 528.42 154.37C528.577 154.78 528.669 155.262 528.6 155.78C528.53 156.305 528.308 156.769 527.982 157.158L527.844 157.322L527.666 157.43L527.665 157.431L527.664 157.432L527.663 157.433C527.658 157.436 527.649 157.441 527.636 157.45C527.61 157.466 527.567 157.494 527.508 157.534C527.391 157.613 527.212 157.739 526.979 157.914C526.513 158.265 525.834 158.815 525.013 159.593C523.371 161.147 521.159 163.61 518.947 167.206C514.532 174.383 510.074 186.14 510.198 204.327C510.26 206.549 509.836 209.421 507.549 211.967C505.288 214.485 501.365 216.503 494.818 217.44L494.064 214.744C495.388 214.176 496.609 213.877 497.627 213.628C497.759 213.596 497.887 213.565 498.012 213.534C499.139 213.253 499.925 213.01 500.583 212.544C501.817 211.671 503.023 209.684 503.794 203.222C505.694 182.955 508.928 171.107 512.506 163.702C515.963 156.548 519.718 153.608 522.648 151.313C522.781 151.209 522.913 151.106 523.042 151.004L523.497 150.646ZM505.121 203.419C504.584 207.937 503.816 210.553 502.81 212.143C501.564 214.116 499.952 214.511 497.962 214.999C496.942 215.249 495.821 215.523 494.6 216.048C498.686 215.462 501.63 214.458 503.739 213.233C508.225 210.626 508.941 207.019 508.863 204.312C508.606 167.396 526.969 156.211 526.969 156.211C528.418 154.485 524.494 152.262 523.861 152.139C523.731 152.241 523.599 152.345 523.466 152.449C517.569 157.067 508.822 163.916 505.121 203.419Z" fill="black"/>
<path d="M527.512 156.183C528.959 154.468 525.048 152.268 524.417 152.147C518.529 156.756 509.028 161.136 505.304 203.384C504.346 214.257 500.64 213.26 495.129 215.621C507.879 213.785 509.484 207.902 509.376 203.952C509.174 167.312 527.512 156.183 527.512 156.183Z" fill="black" fill-opacity="0.25"/>
<path d="M497.232 215.337L495.718 215.742C490.248 217.208 484.45 213.84 484.145 207.865C483.05 186.368 495.142 159.628 503.413 156.28C509.377 154.156 519.308 151.824 522.998 151.689C523.867 151.657 523.85 152.238 523.1 152.68C509.852 160.479 506.494 186.863 505.022 205.552C504.651 210.262 501.569 214.174 497.232 215.337Z" fill="#FF8C00"/>
<path fill-rule="evenodd" clip-rule="evenodd" d="M503.433 155.407L503.458 155.398C506.483 154.321 510.485 153.2 514.185 152.332C517.856 151.471 521.351 150.83 523.322 150.757C523.648 150.745 524.064 150.779 524.458 150.985C524.911 151.222 525.354 151.717 525.393 152.435C525.425 153.033 525.154 153.478 524.957 153.723C524.739 153.993 524.465 154.206 524.185 154.371C518.063 157.975 514.051 166.014 511.403 175.802C508.773 185.524 507.579 196.623 506.847 205.905C506.433 211.16 502.991 215.541 498.131 216.844L496.624 217.247C490.611 218.858 483.775 215.187 483.414 208.086C482.855 197.122 485.654 184.911 489.606 175.043C491.585 170.101 493.871 165.699 496.209 162.301C498.511 158.956 500.988 156.396 503.408 155.417L503.433 155.407ZM522.765 153.607C510.199 161.901 506.956 187.509 505.519 205.75C505.149 210.436 502.083 214.329 497.767 215.485L496.26 215.889C490.817 217.347 485.048 213.996 484.745 208.052C483.656 186.663 495.689 160.058 503.918 156.726C509.331 154.799 518.024 152.7 522.298 152.243C522.457 152.226 522.61 152.211 522.756 152.199C522.832 152.192 522.906 152.186 522.978 152.181C523.129 152.171 523.272 152.163 523.407 152.158C524.272 152.126 524.255 152.704 523.508 153.144C523.495 153.152 523.481 153.16 523.468 153.167C523.359 153.232 523.252 153.297 523.144 153.364C523.017 153.443 522.891 153.524 522.765 153.607ZM523.537 153.559C523.537 153.559 523.533 153.559 523.526 153.558C523.533 153.558 523.537 153.559 523.537 153.559Z" fill="black"/>
<path fill-rule="evenodd" clip-rule="evenodd" d="M498.392 218.52C507.36 216.117 512.625 206.689 510.152 197.461C507.68 188.234 498.406 182.701 489.438 185.104C489.231 185.159 489.026 185.219 488.823 185.282L488.82 185.27L483.614 186.665L483.911 187.772C478.466 191.813 475.772 199.047 477.678 206.163C479.585 213.278 485.536 218.196 492.271 218.973L492.568 220.081L497.774 218.686L497.771 218.674C497.978 218.627 498.185 218.575 498.392 218.52Z" fill="#3C3C3C"/>
<path fill-rule="evenodd" clip-rule="evenodd" d="M492.576 219.986L492.281 218.885C485.581 218.111 479.662 213.218 477.765 206.14C475.869 199.061 478.548 191.864 483.963 187.845L483.668 186.743L488.846 185.356L488.849 185.368C489.051 185.305 489.255 185.246 489.461 185.191C489.543 185.169 489.625 185.148 489.707 185.127C498.549 182.903 507.628 188.39 510.065 197.485C512.502 206.58 507.383 215.872 498.613 218.366C498.532 218.389 498.451 218.412 498.369 218.434C498.163 218.489 497.957 218.54 497.75 218.587L497.753 218.599L492.576 219.986ZM498.855 219.268C508.086 216.65 513.5 206.863 510.925 197.254C508.351 187.646 498.769 181.877 489.465 184.225L489.465 184.224L482.566 186.072L482.939 187.464C477.573 191.757 474.961 199.116 476.905 206.37C478.849 213.625 484.79 218.691 491.584 219.727L491.957 221.118L498.856 219.27L498.855 219.268Z" fill="black"/>
<path d="M510.043 197.053C511.259 201.592 510.715 206.404 508.53 210.43C506.345 214.456 502.698 217.365 498.392 218.519C494.086 219.673 489.473 218.976 485.567 216.583C481.662 214.189 478.785 210.294 477.569 205.754L493.806 201.404L510.043 197.053Z" fill="black" fill-opacity="0.25"/>
<path d="M503.966 199.12C506.439 208.347 501.347 217.729 492.593 220.075C483.839 222.42 474.738 216.841 472.265 207.614C469.793 198.386 474.885 189.004 483.639 186.659C492.393 184.313 501.494 189.892 503.966 199.12Z" fill="#3C3C3C"/>
<path fill-rule="evenodd" clip-rule="evenodd" d="M504.739 198.912C507.337 208.605 501.978 218.433 492.811 220.889C483.644 223.345 474.089 217.513 471.492 207.82C468.895 198.128 474.254 188.299 483.421 185.843C492.587 183.387 502.142 189.219 504.739 198.912ZM492.569 219.987C501.286 217.652 506.358 208.317 503.898 199.137C501.439 189.957 492.379 184.409 483.662 186.745C474.946 189.08 469.873 198.415 472.333 207.595C474.793 216.775 483.853 222.323 492.569 219.987Z" fill="black"/>
<path d="M503.857 198.713C504.867 202.48 504.674 206.457 503.31 210.027C501.945 213.596 499.484 216.558 496.31 218.454C493.135 220.35 489.423 221.074 485.75 220.512C482.077 219.951 478.649 218.137 475.996 215.35L487.697 203.043L503.857 198.713Z" fill="black" fill-opacity="0.25"/>
<path d="M499.992 199.748C501.921 206.95 497.774 214.319 490.728 216.207C483.682 218.095 476.406 213.787 474.476 206.585C472.547 199.383 476.694 192.014 483.74 190.126C490.786 188.238 498.062 192.546 499.992 199.748Z" fill="#D7D6DC"/>
<path fill-rule="evenodd" clip-rule="evenodd" d="M500.764 199.541C502.819 207.208 498.404 215.024 490.946 217.022C483.488 219.021 475.757 214.46 473.703 206.792C471.648 199.125 476.063 191.31 483.521 189.311C490.979 187.313 498.71 191.874 500.764 199.541ZM490.706 216.128C497.705 214.253 501.824 206.93 499.905 199.771C497.987 192.613 490.759 188.33 483.76 190.206C476.762 192.081 472.643 199.404 474.561 206.562C476.479 213.721 483.708 218.003 490.706 216.128Z" fill="black"/>
<path d="M490.896 215.288C493.972 214.464 496.577 212.385 498.138 209.51C499.698 206.634 500.087 203.197 499.218 199.955C498.35 196.713 496.294 193.93 493.505 192.22C490.716 190.511 487.421 190.013 484.345 190.837L486.009 197.047C487.522 196.641 489.144 196.886 490.516 197.727C491.889 198.569 492.9 199.938 493.328 201.533C493.755 203.129 493.564 204.82 492.796 206.235C492.028 207.65 490.746 208.673 489.232 209.078L490.896 215.288Z" fill="black" fill-opacity="0.25"/>
<path d="M476.022 206.17C476.891 209.412 478.946 212.195 481.735 213.905C484.525 215.614 487.82 216.112 490.896 215.288C493.972 214.464 496.577 212.385 498.137 209.51C499.698 206.634 500.087 203.197 499.218 199.955L493.327 201.533C493.754 203.129 493.563 204.82 492.795 206.235C492.027 207.65 490.745 208.673 489.232 209.078C487.718 209.484 486.097 209.239 484.724 208.398C483.352 207.556 482.341 206.187 481.913 204.592L476.022 206.17Z" fill="white" fill-opacity="0.25"/>
<path d="M491.486 202.027C492.089 204.278 490.847 206.566 488.712 207.138C486.577 207.71 484.357 206.35 483.754 204.099C483.151 201.848 484.393 199.56 486.528 198.988C488.663 198.416 490.883 199.777 491.486 202.027Z" fill="#D7D6DC"/>
<path fill-rule="evenodd" clip-rule="evenodd" d="M492.259 201.819C492.987 204.534 491.305 207.316 488.544 208.056C485.783 208.795 482.935 207.228 482.208 204.512C481.48 201.797 483.162 199.015 485.923 198.275C488.684 197.536 491.532 199.104 492.259 201.819ZM488.312 207.189C490.603 206.575 491.977 204.276 491.382 202.054C490.786 199.832 488.446 198.528 486.155 199.142C483.864 199.756 482.49 202.055 483.085 204.277C483.681 206.499 486.021 207.803 488.312 207.189Z" fill="black"/>
<g filter="url(#filter0_i_1151_28792)">
<path d="M489.94 202.442C490.301 203.793 489.556 205.166 488.275 205.509C486.994 205.852 485.662 205.036 485.3 203.685C484.939 202.335 485.684 200.962 486.965 200.619C488.246 200.275 489.578 201.092 489.94 202.442Z" fill="#FFC700"/>
</g>
<g filter="url(#filter1_i_1151_28792)">
<path fill-rule="evenodd" clip-rule="evenodd" d="M490.713 202.235C491.198 204.044 490.195 205.868 488.494 206.324C486.794 206.779 485.012 205.701 484.528 203.892C484.043 202.084 485.047 200.259 486.747 199.804C488.448 199.348 490.229 200.426 490.713 202.235ZM488.256 205.435C489.502 205.102 490.227 203.769 489.876 202.459C489.525 201.149 488.231 200.358 486.985 200.692C485.739 201.026 485.014 202.358 485.365 203.668C485.716 204.978 487.01 205.769 488.256 205.435Z" fill="black"/>
</g>
<path d="M480.294 178.818L487.926 198.848L503.673 185.656L491.071 202.136L510.225 210.107L489.991 206.556L493.398 227.719L485.766 207.688L470.019 220.88L482.621 204.4L463.467 196.429L483.701 199.98L480.294 178.818Z" fill="white" fill-opacity="0.25"/>
<path fill-rule="evenodd" clip-rule="evenodd" d="M485.555 429.111C479.983 432.328 478.03 439.376 481.191 444.852L484.233 450.12C487.395 455.597 494.475 457.429 500.047 454.212L508.055 449.588L513.578 455.077L517.992 452.528L516 445.001L516.567 444.674L522.09 450.162L526.504 447.614L524.512 440.087L540.087 431.095C545.659 427.878 548.653 422.633 545.491 417.156L540.369 408.283C537.207 402.806 531.167 402.777 525.595 405.994L485.555 429.111Z" fill="#3C3C3C"/>
<path fill-rule="evenodd" clip-rule="evenodd" d="M508.339 447.406L513.862 452.894L515.959 451.683L513.968 444.156L516.851 442.491L522.374 447.979L524.472 446.768L522.48 439.241L539.213 429.581C541.786 428.095 543.607 426.228 544.463 424.272C545.287 422.39 545.284 420.294 543.977 418.03L538.854 409.157C537.547 406.893 535.733 405.843 533.692 405.616C531.57 405.38 529.042 406.023 526.469 407.508L486.429 430.625C481.669 433.374 480.041 439.362 482.706 443.978L485.747 449.246C488.412 453.862 494.412 455.446 499.173 452.698L508.339 447.406ZM526.504 447.614L522.09 450.162L516.567 444.674L516 445.001L517.992 452.528L513.578 455.077L508.055 449.588L500.047 454.212C494.475 457.429 487.395 455.597 484.233 450.12L481.191 444.852C478.03 439.376 479.983 432.328 485.555 429.111L525.595 405.994C531.167 402.777 537.207 402.806 540.369 408.283L545.491 417.156C548.653 422.633 545.659 427.878 540.087 431.095L524.512 440.087L526.504 447.614Z" fill="#3C3C3C"/>
<path fill-rule="evenodd" clip-rule="evenodd" d="M474.724 451.816C470.862 445.126 473.154 436.572 479.843 432.709L519.832 409.622C526.522 405.759 535.076 408.051 538.938 414.741L539.443 415.616C543.306 422.306 541.014 430.86 534.324 434.722L521.044 442.39L522.83 449.734L518.064 452.486L512.597 447.266L511.852 447.696L513.639 455.041L508.873 457.793L503.406 452.573L494.335 457.81C487.645 461.672 479.091 459.38 475.229 452.69L474.724 451.816Z" fill="#C4C4C4"/>
<path fill-rule="evenodd" clip-rule="evenodd" d="M519.035 441.531L533.45 433.208C539.303 429.829 541.309 422.344 537.929 416.49L537.424 415.615C534.045 409.762 526.56 407.756 520.706 411.136L480.718 434.223C474.864 437.603 472.858 445.088 476.238 450.941L476.743 451.816C480.123 457.67 487.608 459.675 493.461 456.296L503.666 450.404L509.133 455.624L511.631 454.182L509.844 446.837L512.857 445.097L518.324 450.317L520.822 448.875L519.035 441.531ZM522.83 449.734L518.064 452.486L512.597 447.266L511.852 447.696L513.639 455.041L508.873 457.793L503.406 452.573L494.335 457.81C487.645 461.672 479.091 459.38 475.229 452.69L474.724 451.816C470.862 445.126 473.154 436.572 479.843 432.709L519.832 409.622C526.522 405.759 535.076 408.051 538.938 414.741L539.443 415.616C543.306 422.306 541.014 430.86 534.324 434.722L521.044 442.39L522.83 449.734Z" fill="black"/>
<path fill-rule="evenodd" clip-rule="evenodd" d="M515.169 413.666L520.57 410.547C526.424 407.168 533.909 409.174 537.288 415.027L538.11 416.451C541.49 422.305 539.484 429.79 533.631 433.169L519.253 441.47L520.968 448.743L519.893 449.364L517.605 442.421L510.016 446.803L511.544 454.184L510.362 454.867L508.202 447.85L492.996 456.629L515.169 413.666Z" fill="white" fill-opacity="0.25"/>
<path d="M483.232 447.186C481.207 443.678 482.409 439.191 485.917 437.166L522.232 416.199C525.741 414.174 530.227 415.376 532.253 418.884V418.884C534.278 422.393 533.076 426.879 529.568 428.904L493.252 449.871C489.744 451.897 485.258 450.695 483.232 447.186V447.186Z" fill="#929292"/>
<path fill-rule="evenodd" clip-rule="evenodd" d="M523.107 417.713L486.791 438.68C484.119 440.223 483.203 443.64 484.746 446.312C486.289 448.984 489.706 449.9 492.378 448.357L528.694 427.39C531.366 425.848 532.281 422.431 530.739 419.758C529.196 417.086 525.779 416.17 523.107 417.713ZM485.917 437.166C482.409 439.191 481.207 443.678 483.232 447.186C485.258 450.695 489.744 451.897 493.252 449.871L529.568 428.904C533.076 426.879 534.278 422.393 532.253 418.884C530.227 415.376 525.741 414.174 522.232 416.199L485.917 437.166Z" fill="black"/>
<path d="M486.864 445.265C485.499 442.901 486.309 439.877 488.673 438.512L523.372 418.479C525.736 417.114 528.759 417.924 530.124 420.289V420.289C531.489 422.653 530.679 425.676 528.315 427.041L493.617 447.074C491.252 448.439 488.229 447.629 486.864 445.265V445.265Z" fill="#090909"/>
<path d="M485.19 437.999L491.999 434.068L498.294 448.733C498.707 449.694 498.335 450.813 497.429 451.336Lnan nanLnan nanL497.429 451.336C496.523 451.859 495.369 451.622 494.742 450.783L485.19 437.999Z" fill="#929292"/>
<path fill-rule="evenodd" clip-rule="evenodd" d="M485.19 437.999L494.742 450.783C495.369 451.622 496.523 451.859 497.429 451.336C498.335 450.813 498.707 449.694 498.294 448.733L491.999 434.068L485.19 437.999ZM487.124 438.397L495.793 449.999C496.021 450.304 496.443 450.391 496.773 450.2C497.104 450.009 497.24 449.601 497.089 449.25L491.376 435.942L487.124 438.397Z" fill="#090909"/>
<path d="M487.896 438.987L489.699 437.946L496.439 448.861C496.563 449.061 496.497 449.324 496.293 449.441Lnan nanLnan nanL496.293 449.441C496.111 449.546 495.879 449.5 495.752 449.332L487.896 438.987Z" fill="white" fill-opacity="0.25"/>
<path d="M513.785 421.489L520.594 417.558L526.889 432.223C527.302 433.185 526.93 434.303 526.024 434.826Lnan nanLnan nanL526.024 434.826C525.118 435.349 523.964 435.112 523.338 434.274L513.785 421.489Z" fill="#929292"/>
<path fill-rule="evenodd" clip-rule="evenodd" d="M513.785 421.489L523.338 434.274C523.964 435.112 525.118 435.349 526.024 434.826C526.93 434.303 527.302 433.185 526.889 432.223L520.594 417.558L513.785 421.489ZM515.719 421.887L524.388 433.489C524.617 433.795 525.038 433.881 525.369 433.69C525.699 433.499 525.835 433.091 525.684 432.74L519.971 419.432L515.719 421.887Z" fill="#090909"/>
<path d="M516.492 422.477L518.294 421.437L525.034 432.351C525.158 432.551 525.092 432.814 524.888 432.932Lnan nanLnan nanL524.888 432.932C524.706 433.037 524.474 432.99 524.347 432.822L516.492 422.477Z" fill="white" fill-opacity="0.25"/>
<path d="M485.117 429.75C493.828 424.721 496.754 413.482 491.653 404.647C486.552 395.812 475.356 392.727 466.645 397.756C457.934 402.785 455.008 414.024 460.109 422.859C465.21 431.694 476.406 434.78 485.117 429.75Z" fill="#3C3C3C"/>
<path fill-rule="evenodd" clip-rule="evenodd" d="M493.167 403.773C498.739 413.424 495.558 425.741 485.991 431.264C476.424 436.788 464.167 433.384 458.595 423.733C453.023 414.082 456.204 401.765 465.771 396.242C475.338 390.718 487.595 394.122 493.167 403.773ZM491.653 404.647C496.754 413.482 493.828 424.721 485.117 429.75C476.406 434.779 465.21 431.694 460.109 422.859C455.008 414.024 457.934 402.785 466.645 397.756C475.356 392.727 486.552 395.812 491.653 404.647Z" fill="black"/>
<path d="M460.492 400.106L465.899 396.984L484.892 429.88L479.484 433.002L460.492 400.106Z" fill="#929292"/>
<path fill-rule="evenodd" clip-rule="evenodd" d="M465.259 399.373L462.88 400.746L480.124 430.614L482.503 429.24L465.259 399.373ZM460.492 400.106L479.484 433.002L484.892 429.88L465.899 396.984L460.492 400.106Z" fill="black"/>
<path d="M479.709 432.873C488.42 427.843 491.346 416.604 486.245 407.769C481.144 398.934 469.948 395.849 461.237 400.878C452.527 405.907 449.6 417.146 454.701 425.981C459.802 434.816 470.999 437.902 479.709 432.873Z" fill="#929292"/>
<path fill-rule="evenodd" clip-rule="evenodd" d="M487.76 406.895C493.332 416.546 490.151 428.863 480.584 434.386C471.017 439.91 458.759 436.506 453.187 426.855C447.615 417.204 450.796 404.887 460.363 399.364C469.93 393.84 482.188 397.244 487.76 406.895ZM486.245 407.769C491.346 416.604 488.42 427.843 479.71 432.872C470.999 437.901 459.802 434.816 454.701 425.981C449.601 417.146 452.527 405.907 461.237 400.878C469.948 395.849 481.145 398.934 486.245 407.769Z" fill="black"/>
<path d="M479.701 432.913C488.408 427.886 491.38 416.736 486.341 408.008C481.301 399.279 470.159 396.278 461.452 401.305L479.701 432.913Z" fill="black" fill-opacity="0.25"/>
<path d="M475.139 425.01C479.493 422.497 480.979 416.922 478.459 412.558C475.939 408.193 470.368 406.693 466.015 409.206C461.662 411.719 460.176 417.295 462.695 421.659C465.215 426.023 470.786 427.524 475.139 425.01Z" fill="#3C3C3C"/>
<path fill-rule="evenodd" clip-rule="evenodd" d="M479.973 411.684C482.973 416.881 481.206 423.527 476.013 426.525C470.821 429.523 464.181 427.73 461.181 422.533C458.181 417.337 459.948 410.691 465.141 407.692C470.334 404.694 476.973 406.487 479.973 411.684ZM478.459 412.558C480.979 416.922 479.492 422.497 475.139 425.011C470.786 427.524 465.215 426.023 462.695 421.659C460.176 417.295 461.662 411.72 466.015 409.207C470.368 406.693 475.939 408.194 478.459 412.558Z" fill="black"/>
<path d="M475.67 423.018C479.327 420.907 480.575 416.224 478.459 412.558C476.342 408.892 471.662 407.632 468.006 409.743C464.349 411.854 463.101 416.537 465.217 420.203C467.334 423.869 472.014 425.129 475.67 423.018Z" fill="#090909"/>
<path d="M475.207 388.306L481.062 384.926L513.021 419.997L492.528 431.829L475.207 388.306Z" fill="#C4C4C4"/>
<path fill-rule="evenodd" clip-rule="evenodd" d="M477.39 389.064L493.405 429.304L510.265 419.569L480.717 387.143L477.39 389.064ZM481.062 384.926L475.207 388.306L492.528 431.829L513.021 419.997L481.062 384.926Z" fill="#090909"/>
<path d="M477.768 386.827L481.062 384.926L513.021 419.997L500.945 426.97L477.768 386.827Z" fill="black" fill-opacity="0.25"/>
<path fill-rule="evenodd" clip-rule="evenodd" d="M480.717 387.143L480.157 387.467L501.584 424.581L510.265 419.569L480.717 387.143ZM481.062 384.926L477.768 386.827L500.945 426.97L513.021 419.997L481.062 384.926Z" fill="#090909"/>
<path d="M522.529 408.968C531.24 403.939 534.166 392.7 529.065 383.864C523.964 375.029 512.768 371.944 504.057 376.973C495.347 382.002 492.421 393.241 497.521 402.076C502.622 410.911 513.819 413.997 522.529 408.968Z" fill="#3C3C3C"/>
<path fill-rule="evenodd" clip-rule="evenodd" d="M530.579 382.99C536.151 392.641 532.971 404.958 523.404 410.482C513.836 416.005 501.579 412.601 496.007 402.95C490.435 393.299 493.616 380.982 503.183 375.459C512.75 369.935 525.007 373.339 530.579 382.99ZM529.065 383.864C534.166 392.699 531.24 403.938 522.529 408.968C513.819 413.997 502.622 410.911 497.521 402.076C492.42 393.241 495.347 382.002 504.057 376.973C512.768 371.944 523.964 375.029 529.065 383.864Z" fill="black"/>
<path d="M497.904 379.324L503.762 375.942L523.145 409.513L517.287 412.896L497.904 379.324Z" fill="#929292"/>
<path fill-rule="evenodd" clip-rule="evenodd" d="M503.122 378.33L500.292 379.964L517.927 410.507L520.757 408.873L503.122 378.33ZM497.904 379.324L517.287 412.896L523.145 409.513L503.762 375.942L497.904 379.324Z" fill="black"/>
<path d="M516.862 411.639C525.572 406.61 528.557 395.471 523.528 386.761C518.499 378.05 507.36 375.066 498.65 380.095C489.939 385.124 486.955 396.262 491.984 404.973C497.013 413.683 508.151 416.668 516.862 411.639Z" fill="#929292"/>
<path fill-rule="evenodd" clip-rule="evenodd" d="M525.042 385.887C530.554 395.434 527.283 407.641 517.736 413.153C508.189 418.665 495.982 415.394 490.47 405.847C484.958 396.3 488.229 384.093 497.776 378.581C507.322 373.069 519.53 376.34 525.042 385.887ZM523.528 386.761C528.557 395.472 525.572 406.61 516.862 411.639C508.151 416.668 497.013 413.684 491.984 404.973C486.955 396.262 489.939 385.124 498.65 380.095C507.36 375.066 518.499 378.05 523.528 386.761Z" fill="black"/>
<path d="M516.904 411.709C525.61 406.682 528.583 395.532 523.543 386.803C518.504 378.075 507.361 375.074 498.655 380.101L516.904 411.709Z" fill="black" fill-opacity="0.25"/>
<path d="M512.342 403.807C516.695 401.293 518.181 395.718 515.661 391.354C513.142 386.99 507.57 385.489 503.217 388.003C498.864 390.516 497.378 396.091 499.897 400.455C502.417 404.819 507.989 406.32 512.342 403.807Z" fill="#3C3C3C"/>
<path fill-rule="evenodd" clip-rule="evenodd" d="M517.175 390.48C520.176 395.677 518.409 402.323 513.216 405.321C508.023 408.319 501.384 406.526 498.383 401.33C495.383 396.133 497.15 389.487 502.343 386.489C507.536 383.491 514.175 385.283 517.175 390.48ZM515.661 391.354C518.181 395.719 516.695 401.294 512.342 403.807C507.989 406.32 502.417 404.82 499.898 400.456C497.378 396.091 498.864 390.516 503.217 388.003C507.57 385.49 513.142 386.99 515.661 391.354Z" fill="black"/>
<path d="M512.873 401.814C516.53 399.703 517.778 395.02 515.662 391.354C513.545 387.688 508.865 386.428 505.208 388.539C501.552 390.65 500.303 395.333 502.42 398.999C504.536 402.665 509.216 403.925 512.873 401.814Z" fill="#090909"/>
<path fill-rule="evenodd" clip-rule="evenodd" d="M561.207 502.747C560.773 496.095 568.156 491.832 573.7 495.534L593.647 508.854C595.849 510.324 598.633 510.616 601.092 509.636L623.373 500.755C629.566 498.287 635.901 503.991 634.093 510.408L627.59 533.494C626.872 536.043 627.454 538.781 629.146 540.817L629.346 541.058C628.705 541.361 628.071 541.694 627.446 542.054C616.377 548.445 611.75 561.709 615.843 573.342L614.644 573.39C611.998 573.495 609.574 574.894 608.161 577.133L595.355 597.414C591.796 603.051 583.318 602.16 581.009 595.906L572.7 573.406C571.783 570.922 569.703 569.049 567.137 568.397L543.892 562.486C537.431 560.843 535.658 552.504 540.892 548.375L559.724 533.52C561.802 531.881 562.941 529.323 562.769 526.682L561.207 502.747Z" fill="#FFED00"/>
<path fill-rule="evenodd" clip-rule="evenodd" d="M634.093 510.408L627.59 533.494C627.092 535.262 627.219 537.121 627.909 538.774C628.214 539.504 628.628 540.193 629.146 540.817L629.346 541.058C628.924 541.258 628.505 541.47 628.09 541.695C627.874 541.811 627.66 541.931 627.446 542.054C627.276 542.153 627.108 542.253 626.941 542.354C617.056 548.356 612.527 559.932 615.066 570.69C615.276 571.581 615.535 572.466 615.843 573.342L614.644 573.39C614.118 573.411 613.602 573.483 613.1 573.602C611.075 574.084 609.293 575.339 608.161 577.133L595.355 597.414C591.796 603.051 583.318 602.16 581.009 595.906L572.7 573.406C571.783 570.922 569.703 569.049 567.137 568.397L543.892 562.486C537.431 560.843 535.658 552.504 540.892 548.375L559.724 533.52C561.802 531.881 562.941 529.323 562.769 526.682L561.207 502.747C560.773 496.095 568.156 491.832 573.7 495.534L593.647 508.854C595.849 510.324 598.633 510.616 601.092 509.636L623.373 500.755C629.566 498.287 635.901 503.991 634.093 510.408ZM612.389 571.015C609.727 571.673 607.387 573.336 605.893 575.702L593.088 595.982C590.716 599.741 585.063 599.147 583.524 594.977L575.215 572.477C573.993 569.166 571.219 566.668 567.798 565.798L544.552 559.887C540.245 558.792 539.063 553.233 542.553 550.48L561.384 535.625C564.156 533.439 565.674 530.029 565.444 526.507L563.883 502.573C563.593 498.138 568.515 495.296 572.211 497.764L592.158 511.083C595.094 513.044 598.806 513.434 602.085 512.127L624.365 503.246C628.494 501.6 632.717 505.403 631.512 509.681L625.009 532.768C624.319 535.217 624.53 537.797 625.546 540.064C614.736 546.628 609.739 559.236 612.389 571.015Z" fill="black"/>
<path fill-rule="evenodd" clip-rule="evenodd" d="M564.538 497.423C563.061 497.522 561.943 498.8 562.042 500.278L563.92 528.296C564.038 530.054 563.285 531.757 561.906 532.853L541.124 549.373C536.844 552.775 538.218 559.593 543.48 561.073L569.808 568.476C571.447 568.936 572.77 570.148 573.372 571.741L582.041 594.657C584.07 600.021 591.317 600.837 594.488 596.059L607.277 576.789C608.095 575.555 607.759 573.891 606.525 573.072C605.292 572.253 603.628 572.59 602.809 573.824L590.02 593.094C589.265 594.231 587.539 594.037 587.056 592.76L578.388 569.843C577.183 566.659 574.537 564.235 571.259 563.313L544.932 555.911C543.879 555.615 543.604 554.251 544.46 553.571L565.243 537.05C568 534.859 569.506 531.452 569.27 527.938L567.393 499.919C567.294 498.442 566.016 497.324 564.538 497.423Z" fill="black" fill-opacity="0.25"/>
<path fill-rule="evenodd" clip-rule="evenodd" d="M568.37 498.133C569.177 496.891 570.838 496.539 572.08 497.347L595.234 512.4C596.692 513.348 598.518 513.53 600.135 512.889L621.955 504.231C627.106 502.187 632.371 506.923 630.883 512.261L623.546 538.584C623.149 540.01 621.67 540.844 620.244 540.447C618.817 540.049 617.983 538.571 618.381 537.144L625.718 510.822C626.016 509.754 624.962 508.807 623.932 509.216L602.112 517.873C598.88 519.156 595.227 518.791 592.311 516.896L569.157 501.842C567.915 501.035 567.563 499.374 568.37 498.133Z" fill="white" fill-opacity="0.25"/>
<path fill-rule="evenodd" clip-rule="evenodd" d="M600.214 541.137C599.573 541.507 599.353 542.327 599.723 542.968C600.119 543.654 600.377 544.411 600.48 545.197C600.583 545.982 600.531 546.78 600.326 547.546C600.121 548.311 599.767 549.028 599.285 549.657C598.803 550.285 598.201 550.812 597.515 551.209C596.829 551.605 596.072 551.862 595.286 551.965C594.501 552.069 593.703 552.016 592.938 551.811C592.172 551.606 591.455 551.252 590.827 550.77C590.198 550.288 589.671 549.687 589.275 549C588.904 548.359 588.084 548.14 587.443 548.51C586.802 548.88 586.582 549.7 586.953 550.341C587.525 551.332 588.286 552.201 589.194 552.897C590.102 553.594 591.138 554.105 592.244 554.401C593.349 554.697 594.502 554.773 595.636 554.623C596.771 554.474 597.865 554.103 598.856 553.531C599.847 552.958 600.715 552.197 601.412 551.289C602.109 550.381 602.62 549.345 602.916 548.239C603.212 547.134 603.288 545.981 603.138 544.847C602.989 543.712 602.617 542.618 602.045 541.627C601.675 540.986 600.855 540.766 600.214 541.137Z" fill="black"/>
<path d="M585.432 545.027C583.508 546.137 580.674 544.828 579.1 542.103C577.527 539.378 577.811 536.269 579.735 535.158C581.658 534.048 584.493 535.357 586.066 538.082C587.64 540.807 587.356 543.916 585.432 545.027Z" fill="black"/>
<path d="M585.486 538.417C586.134 539.539 586.139 540.749 585.498 541.119C584.857 541.489 583.812 540.879 583.164 539.757C582.516 538.635 582.511 537.425 583.152 537.055C583.793 536.685 584.838 537.295 585.486 538.417Z" fill="white"/>
<path d="M598.203 537.654C596.279 538.764 593.445 537.455 591.871 534.73C590.298 532.005 590.582 528.896 592.506 527.785C594.429 526.675 597.264 527.984 598.837 530.709C600.411 533.434 600.127 536.543 598.203 537.654Z" fill="black"/>
<path d="M598.257 531.044C598.905 532.166 598.91 533.375 598.269 533.746C597.628 534.116 596.583 533.506 595.935 532.384C595.287 531.262 595.282 530.052 595.923 529.682C596.564 529.312 597.609 529.922 598.257 531.044Z" fill="white"/>
<g filter="url(#filter2_d_1151_28792)">
<mask id="path-76-outside-1_1151_28792" maskUnits="userSpaceOnUse" x="524.776" y="286.959" width="92.9922" height="87.0132" fill="black">
<rect fill="white" x="524.776" y="286.959" width="92.9922" height="87.0132"/>
<path d="M614.956 340.045C608.289 348.297 598.617 353.563 588.068 354.684C577.519 355.806 566.956 352.69 558.704 346.024C550.452 339.357 545.186 329.685 544.065 319.136C542.943 308.587 546.059 298.024 552.725 289.772L583.841 314.908L614.956 340.045Z"/>
</mask>
<path d="M614.956 340.045C608.289 348.297 598.617 353.563 588.068 354.684C577.519 355.806 566.956 352.69 558.704 346.024C550.452 339.357 545.186 329.685 544.065 319.136C542.943 308.587 546.059 298.024 552.725 289.772L583.841 314.908L614.956 340.045Z" fill="#008026"/>
<path d="M614.956 340.045C608.289 348.297 598.617 353.563 588.068 354.684C577.519 355.806 566.956 352.69 558.704 346.024C550.452 339.357 545.186 329.685 544.065 319.136C542.943 308.587 546.059 298.024 552.725 289.772L583.841 314.908L614.956 340.045Z" stroke="black" stroke-width="4" mask="url(#path-76-outside-1_1151_28792)"/>
<path d="M614.956 340.045C611.655 344.131 607.581 347.527 602.968 350.039C598.355 352.551 593.292 354.129 588.068 354.684C582.845 355.24 577.563 354.76 572.525 353.274C567.487 351.789 562.79 349.325 558.704 346.024L583.841 314.908L614.956 340.045Z" fill="black" fill-opacity="0.25"/>
<mask id="path-78-outside-2_1151_28792" maskUnits="userSpaceOnUse" x="533.218" y="289.99" width="80.5155" height="75.5829" fill="black">
<rect fill="white" x="533.218" y="289.99" width="80.5155" height="75.5829"/>
<path d="M610.267 336.257C604.605 343.266 596.391 347.738 587.431 348.691C578.472 349.643 569.501 346.997 562.492 341.335C555.483 335.673 551.01 327.459 550.058 318.499C549.106 309.539 551.752 300.568 557.414 293.56L583.84 314.908L610.267 336.257Z"/>
</mask>
<path d="M610.267 336.257C604.605 343.266 596.391 347.738 587.431 348.691C578.472 349.643 569.501 346.997 562.492 341.335C555.483 335.673 551.01 327.459 550.058 318.499C549.106 309.539 551.752 300.568 557.414 293.56L583.84 314.908L610.267 336.257Z" fill="#FFF2D0"/>
<path d="M610.267 336.257C604.605 343.266 596.391 347.738 587.431 348.691C578.472 349.643 569.501 346.997 562.492 341.335C555.483 335.673 551.01 327.459 550.058 318.499C549.106 309.539 551.752 300.568 557.414 293.56L583.84 314.908L610.267 336.257Z" stroke="black" stroke-width="4" mask="url(#path-78-outside-2_1151_28792)"/>
<path d="M610.267 336.257C605.111 342.639 597.819 346.94 589.739 348.365C581.658 349.789 573.335 348.241 566.307 344.007L583.84 314.908L610.267 336.257Z" fill="black" fill-opacity="0.25"/>
<mask id="path-80-outside-3_1151_28792" maskUnits="userSpaceOnUse" x="539.611" y="293.814" width="70.3725" height="66.0378" fill="black">
<rect fill="white" x="539.611" y="293.814" width="70.3725" height="66.0378"/>
<path d="M606.431 333.158C601.591 339.15 594.569 342.973 586.91 343.787C579.251 344.601 571.582 342.339 565.591 337.499C559.6 332.659 555.776 325.637 554.962 317.978C554.148 310.319 556.41 302.65 561.25 296.659L583.841 314.909L606.431 333.158Z"/>
</mask>
<path d="M606.431 333.158C601.591 339.15 594.569 342.973 586.91 343.787C579.251 344.601 571.582 342.339 565.591 337.499C559.6 332.659 555.776 325.637 554.962 317.978C554.148 310.319 556.41 302.65 561.25 296.659L583.841 314.909L606.431 333.158Z" fill="#F86848"/>
<path d="M606.431 333.158C601.591 339.15 594.569 342.973 586.91 343.787C579.251 344.601 571.582 342.339 565.591 337.499C559.6 332.659 555.776 325.637 554.962 317.978C554.148 310.319 556.41 302.65 561.25 296.659L583.841 314.909L606.431 333.158Z" stroke="black" stroke-width="4" mask="url(#path-80-outside-3_1151_28792)"/>
<path d="M606.431 333.158C604.034 336.124 601.077 338.59 597.727 340.414C594.378 342.237 590.702 343.383 586.91 343.787C583.117 344.19 579.283 343.842 575.625 342.763C571.967 341.684 568.557 339.895 565.591 337.499L583.84 314.908L606.431 333.158Z" fill="black" fill-opacity="0.25"/>
<path d="M565.749 306.718C564.466 307.119 563.266 306.925 563.065 306.284C562.864 305.644 563.739 304.8 565.022 304.399C566.306 303.999 567.505 304.193 567.706 304.833C567.908 305.474 567.033 306.317 565.749 306.718ZM596.979 332.255C595.695 332.655 594.496 332.461 594.295 331.821C594.093 331.18 594.968 330.337 596.252 329.936C597.535 329.535 598.735 329.729 598.936 330.37C599.137 331.01 598.262 331.854 596.979 332.255ZM583.542 327.567C582.794 328.685 581.74 329.286 581.183 328.915C580.625 328.542 580.777 327.337 581.524 326.218C582.27 325.098 583.326 324.499 583.881 324.872C584.441 325.243 584.29 326.446 583.542 327.567ZM565.182 316.346C564.435 317.465 563.381 318.066 562.824 317.695C562.266 317.322 562.418 316.116 563.165 314.998C563.912 313.88 564.967 313.278 565.522 313.652C566.083 314.024 565.931 315.226 565.182 316.346ZM567.147 329.006C565.844 329.332 564.659 329.068 564.497 328.418C564.332 327.767 565.258 326.977 566.563 326.653C567.867 326.328 569.053 326.593 569.214 327.241C569.378 327.893 568.456 328.682 567.147 329.006ZM582.094 338.978C581.875 340.304 581.163 341.286 580.504 341.178C579.839 341.069 579.482 339.905 579.7 338.579C579.917 337.254 580.63 336.27 581.292 336.38C581.959 336.487 582.315 337.647 582.094 338.978ZM577.456 316.7C577.322 318.038 576.677 319.064 576.01 318.997C575.341 318.931 574.909 317.795 575.041 316.458C575.174 315.122 575.822 314.095 576.486 314.163C577.158 314.224 577.592 315.359 577.456 316.7ZM591.838 338.873C590.535 339.198 589.35 338.935 589.186 338.283C589.022 337.632 589.947 336.842 591.253 336.518C592.558 336.191 593.741 336.456 593.903 337.106C594.069 337.759 593.147 338.549 591.838 338.873Z" fill="black"/>
</g>
<path d="M265.784 293.215L310.258 238.063C311.107 237.01 312.772 237.226 313.344 238.452C323.963 261.22 344.926 289.827 356.391 299.072L337.534 322.456C326.412 313.487 286.543 302.804 266.58 296.027C265.403 295.627 265.004 294.183 265.784 293.215Z" fill="#D7D6DC"/>
<path fill-rule="evenodd" clip-rule="evenodd" d="M312.731 238.737C312.367 237.956 311.314 237.831 310.785 238.487L266.311 293.639C265.817 294.252 266.078 295.141 266.798 295.386C271.6 297.016 277.559 298.874 284.004 300.883L284.726 301.108C291.444 303.203 298.653 305.456 305.587 307.778C312.52 310.099 319.189 312.494 324.826 314.872C330.11 317.102 334.538 319.338 337.425 321.513L355.444 299.169C349.677 294.349 341.772 285.06 334.001 274.227C325.983 263.05 318.063 250.17 312.731 238.737ZM309.732 237.638C310.901 236.189 313.177 236.495 313.957 238.166C319.244 249.501 327.116 262.308 335.1 273.438C343.094 284.581 351.157 293.982 356.815 298.545L357.342 298.969L337.636 323.406L337.11 322.982C334.408 320.803 329.906 318.484 324.3 316.118C318.709 313.759 312.078 311.378 305.158 309.06C298.239 306.743 291.043 304.494 284.324 302.399L283.592 302.171C277.155 300.165 271.182 298.302 266.363 296.666C264.728 296.111 264.191 294.113 265.258 292.79L309.732 237.638Z" fill="black"/>
<path d="M266.998 291.709L274.41 282.518C274.927 281.877 275.8 281.662 276.553 281.998C289.31 287.706 338.463 308.38 346.867 310.881L338.482 321.28C322.846 308.671 286.714 298.652 268.028 294.626C266.705 294.341 266.149 292.763 266.998 291.709Z" fill="black" fill-opacity="0.25"/>
<path d="M308.497 240.248L302.846 247.256C302.328 247.898 302.302 248.797 302.812 249.445C311.411 260.365 346.429 299.166 352.419 303.997L355.94 299.631C340.31 287.026 319.817 257.641 311.601 240.622C311.012 239.403 309.346 239.194 308.497 240.248Z" fill="white" fill-opacity="0.25"/>
<path d="M304.139 278.643C289.93 296.264 271.494 304.971 262.962 298.09C254.429 291.21 259.032 271.348 273.241 253.727C287.451 236.106 305.886 227.399 314.419 234.279C322.951 241.16 318.349 261.022 304.139 278.643Z" fill="white"/>
<path fill-rule="evenodd" clip-rule="evenodd" d="M280.844 296.332C288.074 292.917 296.081 286.481 303.086 277.794C310.092 269.107 314.685 259.917 316.489 252.128C318.318 244.237 317.204 238.263 313.57 235.332C309.935 232.401 303.861 232.579 296.537 236.038C289.307 239.453 281.299 245.889 274.294 254.576C267.289 263.263 262.696 272.452 260.891 280.242C259.063 288.132 260.176 294.106 263.811 297.037C267.445 299.968 273.52 299.791 280.844 296.332ZM262.962 298.09C271.494 304.971 289.93 296.264 304.139 278.643C318.349 261.022 322.951 241.16 314.419 234.279C305.886 227.399 287.451 236.106 273.241 253.727C259.032 271.348 254.429 291.21 262.962 298.09Z" fill="black"/>
<path d="M300.11 275.392C288.294 290.045 273.527 297.741 267.128 292.581C260.729 287.42 265.12 271.358 276.937 256.705C288.753 242.052 303.519 234.357 309.919 239.517C316.318 244.677 311.926 260.739 300.11 275.392Z" fill="#3C3C3C"/>
<path fill-rule="evenodd" clip-rule="evenodd" d="M281.171 290.617C287.005 287.576 293.559 282.08 299.408 274.826C305.257 267.573 309.24 260.003 310.975 253.657C311.843 250.482 312.137 247.657 311.852 245.349C311.568 243.048 310.72 241.321 309.353 240.219C307.985 239.116 306.118 238.653 303.809 238.863C301.494 239.074 298.794 239.96 295.876 241.481C290.041 244.521 283.487 250.018 277.638 257.271C271.789 264.525 267.806 272.094 266.071 278.441C265.203 281.615 264.909 284.441 265.194 286.748C265.478 289.05 266.327 290.776 267.694 291.879C269.061 292.981 270.928 293.445 273.238 293.235C275.553 293.024 278.252 292.138 281.171 290.617ZM267.128 292.581C273.527 297.741 288.294 290.045 300.11 275.392C311.926 260.739 316.318 244.677 309.919 239.517C303.519 234.357 288.753 242.052 276.937 256.705C265.12 271.358 260.729 287.42 267.128 292.581Z" fill="black"/>
<path fill-rule="evenodd" clip-rule="evenodd" d="M280.506 291.07C286.534 287.968 293.346 282.298 299.432 274.752C305.517 267.205 309.615 259.346 311.369 252.798C312.247 249.521 312.515 246.657 312.216 244.362C311.918 242.081 311.08 240.474 309.834 239.469C308.589 238.465 306.841 237.986 304.548 238.179C302.242 238.372 299.5 239.242 296.483 240.794C290.455 243.896 283.643 249.566 277.557 257.112C271.472 264.659 267.375 272.518 265.62 279.066C264.743 282.343 264.474 285.207 264.774 287.502C265.071 289.784 265.91 291.391 267.155 292.395C268.4 293.399 270.149 293.878 272.442 293.685C274.747 293.492 277.49 292.622 280.506 291.07ZM266.023 293.799C272.839 299.295 288.425 291.274 300.836 275.884C313.246 260.493 317.782 243.562 310.966 238.065C304.15 232.569 288.564 240.59 276.154 255.98C263.743 271.371 259.207 288.303 266.023 293.799Z" fill="black" fill-opacity="0.25"/>
<path d="M352.032 293.481C352.345 293.094 352.912 293.033 353.3 293.345L371.711 308.192C372.099 308.505 372.16 309.072 371.847 309.46L350.771 335.596C350.459 335.983 349.891 336.044 349.504 335.732L331.092 320.885C330.705 320.572 330.644 320.005 330.956 319.617L352.032 293.481Z" fill="#E40303"/>
<path fill-rule="evenodd" clip-rule="evenodd" d="M351.506 293.056C352.053 292.378 353.046 292.272 353.725 292.819L372.136 307.665C372.814 308.212 372.921 309.206 372.374 309.884L351.298 336.02C350.751 336.698 349.757 336.805 349.079 336.258L330.668 321.411C329.99 320.864 329.883 319.87 330.43 319.192L351.506 293.056ZM352.876 293.871C352.779 293.793 352.637 293.809 352.559 293.905L331.483 320.041C331.405 320.138 331.42 320.28 331.517 320.358L349.928 335.205C350.025 335.283 350.167 335.268 350.245 335.171L371.321 309.035C371.399 308.938 371.384 308.796 371.287 308.718L352.876 293.871Z" fill="black"/>
<path d="M371.847 309.459C372.159 309.072 372.727 309.011 373.114 309.323L376.903 312.378C379.617 314.567 380.042 318.54 377.854 321.254L363.571 338.967C361.382 341.68 357.409 342.106 354.695 339.918L350.907 336.863C350.519 336.55 350.458 335.983 350.771 335.595L371.847 309.459Z" fill="#E40303"/>
<path fill-rule="evenodd" clip-rule="evenodd" d="M371.32 309.034C371.867 308.356 372.861 308.25 373.539 308.797L377.328 311.852C380.332 314.274 380.803 318.674 378.381 321.678L364.097 339.391C361.674 342.395 357.275 342.867 354.271 340.444L350.482 337.389C349.804 336.842 349.698 335.849 350.245 335.17L371.32 309.034ZM372.69 309.849C372.593 309.771 372.451 309.787 372.373 309.883L351.297 336.019C351.219 336.116 351.234 336.258 351.331 336.336L355.12 339.391C357.543 341.345 361.091 340.965 363.044 338.542L377.328 320.829C379.282 318.406 378.901 314.858 376.479 312.905L372.69 309.849Z" fill="black"/>
<path d="M342.557 310.73L366.066 329.688L361.018 335.949C359.768 337.499 357.497 337.743 355.946 336.492L335.245 319.798L342.557 310.73Z" fill="black" fill-opacity="0.25"/>
<path d="M349.598 301.999L373.108 320.956L374.364 319.398C375.615 317.847 375.371 315.577 373.821 314.326L353.119 297.633L349.598 301.999Z" fill="white" fill-opacity="0.25"/>
<path d="M333.607 323.468C333.903 323.362 334.233 323.417 334.479 323.615L343.829 331.155C344.316 331.548 344.265 332.305 343.729 332.629L310.792 352.525C310.467 352.721 310.055 352.693 309.76 352.455L294.78 340.375C293.685 339.492 293.977 337.751 295.3 337.275L333.607 323.468Z" fill="#E40303"/>
<path fill-rule="evenodd" clip-rule="evenodd" d="M333.377 322.832C333.896 322.645 334.474 322.742 334.903 323.088L344.253 330.628C345.105 331.316 345.016 332.641 344.078 333.207L311.141 353.103C310.573 353.446 309.851 353.397 309.335 352.981L294.355 340.901C292.849 339.687 293.251 337.294 295.071 336.638L333.377 322.832ZM334.054 324.141C333.992 324.092 333.91 324.078 333.836 324.105L295.529 337.911C294.702 338.209 294.52 339.297 295.204 339.848L310.184 351.928C310.258 351.988 310.361 351.995 310.442 351.946L343.379 332.05C343.513 331.969 343.526 331.779 343.404 331.681L334.054 324.141Z" fill="black"/>
<path d="M339.979 331.099L333.806 326.121C333.56 325.923 333.229 325.868 332.932 325.975L331.237 326.59C330.576 326.83 330.431 327.699 330.978 328.14L334.319 330.834C334.818 331.236 334.749 332.016 334.188 332.325L313.507 343.725C312.545 344.256 311.358 344.152 310.503 343.462L302.535 337.037C302.28 336.831 301.933 336.78 301.63 336.903L299.333 337.834C298.058 338.351 297.808 340.046 298.878 340.909L309.776 349.697C310.069 349.933 310.477 349.963 310.801 349.771L339.872 332.577C340.414 332.257 340.469 331.494 339.979 331.099Z" fill="black" fill-opacity="0.25"/>
<path d="M328.954 319.719C329.251 319.611 329.582 319.666 329.828 319.865L332.527 322.041C333.069 322.478 332.933 323.338 332.282 323.586L320.231 328.178C319.931 328.292 319.594 328.239 319.344 328.037L317.703 326.714C316.609 325.832 316.899 324.094 318.22 323.615L328.954 319.719Z" fill="#FF8C00"/>
<path fill-rule="evenodd" clip-rule="evenodd" d="M328.724 319.084C329.243 318.895 329.823 318.992 330.252 319.339L332.952 321.515C333.9 322.28 333.661 323.784 332.523 324.218L320.472 328.81C319.947 329.01 319.356 328.917 318.919 328.564L317.278 327.241C315.775 326.029 316.173 323.639 317.989 322.98L328.724 319.084ZM329.403 320.391C329.342 320.342 329.259 320.328 329.185 320.355L318.45 324.251C317.625 324.551 317.444 325.637 318.127 326.188L319.768 327.511C319.831 327.562 319.915 327.575 319.99 327.547L332.041 322.954C332.204 322.892 332.238 322.677 332.103 322.568L329.403 320.391Z" fill="black"/>
<path d="M280.749 272.253L295.374 254.116C299.578 256.12 302.607 257.177 308.457 260.232C307.969 264.273 295.473 280.8 291.923 282.648C288.54 279.088 283.702 275.465 280.749 272.253Z" fill="#D7D6DC"/>
<path fill-rule="evenodd" clip-rule="evenodd" d="M308.942 259.977L308.904 260.286C308.834 260.866 308.559 261.62 308.16 262.471C307.756 263.332 307.206 264.331 306.553 265.412C305.248 267.575 303.52 270.09 301.7 272.532C299.88 274.974 297.961 277.35 296.272 279.235C295.427 280.177 294.636 281 293.941 281.649C293.253 282.291 292.632 282.787 292.131 283.048L291.83 283.204L291.597 282.958C289.94 281.215 287.926 279.452 285.941 277.714L285.878 277.659C283.881 275.911 281.914 274.186 280.417 272.558L280.155 272.272L295.247 253.556L295.569 253.709C297.067 254.424 298.427 255.022 299.827 255.637C302.312 256.73 304.925 257.879 308.666 259.832L308.942 259.977ZM295.502 254.676L281.346 272.232C282.767 273.734 284.584 275.328 286.472 276.981L286.552 277.051C288.428 278.694 290.366 280.39 292.001 282.078C292.355 281.844 292.801 281.479 293.326 280.99C293.995 280.366 294.766 279.563 295.6 278.633C297.268 276.773 299.169 274.419 300.977 271.993C302.786 269.567 304.495 267.077 305.781 264.946C306.424 263.881 306.958 262.911 307.344 262.088C307.653 261.43 307.856 260.889 307.954 260.478C304.389 258.628 301.905 257.536 299.509 256.483C298.201 255.908 296.919 255.345 295.502 254.676Z" fill="black"/>
<path d="M291.253 265.758C287.439 270.488 282.693 272.988 280.653 271.343C278.613 269.698 280.051 264.53 283.865 259.8C287.679 255.07 292.425 252.57 294.465 254.215C296.505 255.86 295.067 261.028 291.253 265.758Z" fill="white"/>
<path fill-rule="evenodd" clip-rule="evenodd" d="M282.721 272.727C281.77 272.819 280.833 272.646 280.087 272.045C279.341 271.443 278.973 270.564 278.862 269.615C278.752 268.673 278.884 267.601 279.195 266.486C279.816 264.253 281.197 261.671 283.163 259.234C285.128 256.797 287.359 254.899 289.41 253.819C290.434 253.279 291.452 252.923 292.397 252.831C293.347 252.738 294.285 252.911 295.031 253.513C295.777 254.114 296.145 254.994 296.256 255.942C296.366 256.885 296.233 257.956 295.923 259.071C295.302 261.304 293.92 263.887 291.955 266.324C289.99 268.761 287.759 270.658 285.708 271.739C284.684 272.278 283.666 272.635 282.721 272.727ZM280.653 271.343C282.693 272.988 287.439 270.488 291.253 265.758C295.067 261.028 296.505 255.86 294.465 254.215C292.425 252.569 287.679 255.07 283.865 259.8C280.05 264.53 278.613 269.698 280.653 271.343Z" fill="black"/>
<path d="M280.308 271.065C280.839 271.492 281.543 271.694 282.38 271.659C283.217 271.624 284.171 271.352 285.188 270.86C286.204 270.367 287.263 269.663 288.304 268.788C289.345 267.912 290.347 266.883 291.254 265.758C292.161 264.634 292.955 263.436 293.59 262.233C294.224 261.03 294.688 259.846 294.954 258.748C295.22 257.65 295.284 256.661 295.141 255.835C294.998 255.009 294.651 254.364 294.12 253.936L290.438 258.503C290.685 258.703 290.847 259.004 290.914 259.389C290.981 259.775 290.951 260.237 290.827 260.749C290.703 261.262 290.486 261.814 290.19 262.376C289.893 262.937 289.443 263.523 289.02 264.048C288.597 264.572 288.209 265.026 287.723 265.435C287.237 265.843 286.743 266.172 286.268 266.402C285.794 266.632 285.349 266.759 284.958 266.775C284.567 266.791 284.239 266.697 283.991 266.497L280.308 271.065Z" fill="black" fill-opacity="0.25"/>
<path d="M289.038 263.694C286.645 266.662 283.802 268.34 282.689 267.442C281.577 266.545 282.614 263.412 285.008 260.444C287.401 257.476 290.243 255.798 291.356 256.695C292.469 257.593 291.431 260.726 289.038 263.694Z" fill="#E40303"/>
<path fill-rule="evenodd" clip-rule="evenodd" d="M288.777 257.314C287.657 257.976 286.367 259.117 285.183 260.585C283.999 262.054 283.157 263.556 282.748 264.79C282.543 265.409 282.451 265.948 282.471 266.377C282.491 266.806 282.621 267.098 282.831 267.267C283.041 267.436 283.353 267.502 283.777 267.43C284.201 267.359 284.708 267.155 285.269 266.823C286.389 266.162 287.678 265.021 288.863 263.552C290.047 262.084 290.889 260.582 291.298 259.347C291.503 258.729 291.595 258.19 291.575 257.761C291.555 257.331 291.425 257.04 291.215 256.871C291.005 256.701 290.693 256.636 290.269 256.707C289.845 256.779 289.338 256.983 288.777 257.314ZM290.194 256.263C290.691 256.179 291.151 256.241 291.498 256.52C291.844 256.799 292.002 257.236 292.025 257.74C292.049 258.243 291.941 258.841 291.726 259.489C291.296 260.787 290.423 262.336 289.214 263.835C288.004 265.335 286.676 266.516 285.498 267.212C284.91 267.559 284.349 267.791 283.852 267.875C283.355 267.959 282.895 267.897 282.548 267.618C282.202 267.339 282.044 266.902 282.021 266.398C281.997 265.895 282.105 265.297 282.32 264.649C282.75 263.351 283.623 261.802 284.832 260.302C286.041 258.803 287.37 257.621 288.548 256.926C289.136 256.579 289.697 256.347 290.194 256.263Z" fill="black"/>
<path d="M287.695 262.611C285.9 264.837 283.918 266.217 283.269 265.693C282.62 265.17 283.549 262.941 285.344 260.715C287.138 258.489 289.12 257.109 289.769 257.633C290.418 258.156 289.489 260.385 287.695 262.611Z" fill="black" fill-opacity="0.25"/>
<path d="M269.756 289.614C269.131 290.389 269.251 291.55 270.171 291.932C271.355 292.423 272.755 292.609 274.337 292.481C276.675 292.292 279.364 291.419 282.252 289.913C285.139 288.407 288.167 286.297 291.163 283.704C294.16 281.11 297.066 278.084 299.716 274.799C302.365 271.513 304.706 268.032 306.606 264.554C308.505 261.076 309.926 257.669 310.786 254.528C311.646 251.388 311.928 248.574 311.618 246.249C311.408 244.676 310.93 243.347 310.198 242.294C309.63 241.476 308.47 241.605 307.845 242.38L301.41 250.359C300.785 251.135 300.946 252.281 301.353 253.19C301.559 253.652 301.703 254.178 301.781 254.763C301.957 256.086 301.796 257.686 301.307 259.473C300.818 261.259 300.01 263.197 298.929 265.176C297.849 267.154 296.517 269.135 295.01 271.004C293.502 272.873 291.849 274.594 290.145 276.07C288.44 277.545 286.717 278.745 285.075 279.602C283.433 280.459 281.903 280.955 280.572 281.063C279.984 281.111 279.44 281.082 278.945 280.978C277.97 280.773 276.816 280.859 276.191 281.634L269.756 289.614Z" fill="black" fill-opacity="0.5"/>
<path d="M348.71 305.163C349.309 304.421 350.395 304.304 351.137 304.903L361.884 313.569C362.626 314.167 362.743 315.254 362.144 315.996V315.996C361.546 316.738 360.46 316.854 359.718 316.256L348.97 307.589C348.229 306.991 348.112 305.905 348.71 305.163V305.163Z" fill="black" fill-opacity="0.5"/>
<path fill-rule="evenodd" clip-rule="evenodd" d="M361.318 314.271L350.571 305.605C350.217 305.319 349.698 305.374 349.412 305.729C349.127 306.083 349.182 306.602 349.536 306.888L360.284 315.554C360.638 315.84 361.157 315.784 361.442 315.43C361.728 315.075 361.673 314.557 361.318 314.271ZM351.137 304.903C350.395 304.304 349.309 304.421 348.71 305.163C348.112 305.905 348.229 306.991 348.97 307.589L359.718 316.256C360.46 316.854 361.546 316.738 362.144 315.996C362.743 315.254 362.626 314.167 361.884 313.569L351.137 304.903Z" fill="black"/>
<path d="M345.46 309.193C346.058 308.452 347.145 308.335 347.887 308.933L358.634 317.6C359.376 318.198 359.492 319.285 358.894 320.027V320.027C358.296 320.768 357.209 320.885 356.467 320.287L345.72 311.62C344.978 311.022 344.862 309.935 345.46 309.193V309.193Z" fill="black" fill-opacity="0.5"/>
<path fill-rule="evenodd" clip-rule="evenodd" d="M358.068 318.302L347.321 309.635C346.967 309.35 346.448 309.405 346.162 309.759C345.876 310.114 345.932 310.633 346.286 310.918L357.033 319.585C357.388 319.87 357.906 319.815 358.192 319.461C358.478 319.106 358.422 318.587 358.068 318.302ZM347.887 308.933C347.145 308.335 346.058 308.452 345.46 309.193C344.862 309.935 344.978 311.022 345.72 311.62L356.467 320.287C357.209 320.885 358.296 320.768 358.894 320.027C359.492 319.285 359.376 318.198 358.634 317.6L347.887 308.933Z" fill="black"/>
<path d="M342.21 313.223C342.809 312.481 343.895 312.364 344.637 312.963L355.384 321.629C356.126 322.227 356.243 323.314 355.644 324.056V324.056C355.046 324.798 353.96 324.914 353.218 324.316L342.47 315.649C341.729 315.051 341.612 313.965 342.21 313.223V313.223Z" fill="black" fill-opacity="0.5"/>
<path fill-rule="evenodd" clip-rule="evenodd" d="M354.818 322.331L344.071 313.665C343.717 313.379 343.198 313.434 342.912 313.789C342.627 314.143 342.682 314.662 343.036 314.948L353.784 323.614C354.138 323.9 354.657 323.844 354.942 323.49C355.228 323.136 355.173 322.617 354.818 322.331ZM344.637 312.963C343.895 312.364 342.809 312.481 342.21 313.223C341.612 313.965 341.729 315.051 342.47 315.649L353.218 324.316C353.96 324.914 355.046 324.798 355.644 324.056C356.243 323.314 356.126 322.227 355.384 321.629L344.637 312.963Z" fill="black"/>
</g>
<defs>
<filter id="filter0_i_1151_28792" x="485.209" y="200.541" width="4.82202" height="5.04688" filterUnits="userSpaceOnUse" color-interpolation-filters="sRGB">
<feFlood flood-opacity="0" result="BackgroundImageFix"/>
<feBlend mode="normal" in="SourceGraphic" in2="BackgroundImageFix" result="shape"/>
<feColorMatrix in="SourceAlpha" type="matrix" values="0 0 0 0 0 0 0 0 0 0 0 0 0 0 0 0 0 0 127 0" result="hardAlpha"/>
<feOffset dx="-5" dy="-8"/>
<feComposite in2="hardAlpha" operator="arithmetic" k2="-1" k3="1"/>
<feColorMatrix type="matrix" values="0 0 0 0 0 0 0 0 0 0 0 0 0 0 0 0 0 0 0.25 0"/>
<feBlend mode="normal" in2="shape" result="effect1_innerShadow_1151_28792"/>
</filter>
<filter id="filter1_i_1151_28792" x="484.406" y="199.699" width="6.42969" height="6.729" filterUnits="userSpaceOnUse" color-interpolation-filters="sRGB">
<feFlood flood-opacity="0" result="BackgroundImageFix"/>
<feBlend mode="normal" in="SourceGraphic" in2="BackgroundImageFix" result="shape"/>
<feColorMatrix in="SourceAlpha" type="matrix" values="0 0 0 0 0 0 0 0 0 0 0 0 0 0 0 0 0 0 127 0" result="hardAlpha"/>
<feOffset dx="-5" dy="-8"/>
<feComposite in2="hardAlpha" operator="arithmetic" k2="-1" k3="1"/>
<feColorMatrix type="matrix" values="0 0 0 0 0 0 0 0 0 0 0 0 0 0 0 0 0 0 0.25 0"/>
<feBlend mode="normal" in2="shape" result="effect1_innerShadow_1151_28792"/>
</filter>
<filter id="filter2_d_1151_28792" x="522.589" y="258.657" width="120.503" height="123.503" filterUnits="userSpaceOnUse" color-interpolation-filters="sRGB">
<feFlood flood-opacity="0" result="BackgroundImageFix"/>
<feColorMatrix in="SourceAlpha" type="matrix" values="0 0 0 0 0 0 0 0 0 0 0 0 0 0 0 0 0 0 127 0" result="hardAlpha"/>
<feOffset dx="-1" dy="7"/>
<feGaussianBlur stdDeviation="2"/>
<feComposite in2="hardAlpha" operator="out"/>
<feColorMatrix type="matrix" values="0 0 0 0 0 0 0 0 0 0 0 0 0 0 0 0 0 0 0.25 0"/>
<feBlend mode="normal" in2="BackgroundImageFix" result="effect1_dropShadow_1151_28792"/>
<feBlend mode="normal" in="SourceGraphic" in2="effect1_dropShadow_1151_28792" result="shape"/>
</filter>
</defs>
</svg>
