<svg width="1000" height="1000" viewBox="0 0 1000 1000" fill="none" xmlns="http://www.w3.org/2000/svg">
<g filter="url(#filter0_d_252_3904)">
<g filter="url(#filter1_i_252_3904)">
<circle cx="416" cy="344" r="40" transform="rotate(31.921 416 344)" fill="#FF8C00"/>
</g>
<circle cx="416" cy="344" r="38" transform="rotate(31.921 416 344)" stroke="black" stroke-width="4"/>
<path d="M426.527 314.288C414.683 306.909 398.805 311.003 391.062 323.431C390.374 324.536 389.774 325.669 389.259 326.822C386.078 333.944 392.913 333.571 397.105 326.993C403.431 317.065 412.961 316.23 421.387 319.028C425.764 320.482 430.442 316.727 426.527 314.288Z" fill="white" fill-opacity="0.25"/>
<path d="M431.994 348.86C434.934 345.394 433.346 341.556 430.279 337.745L434.773 333.368L432.157 330.649L427.78 334.911C427.093 334.197 426.377 333.48 425.664 332.769L430.066 328.477L427.452 325.76L422.963 330.138L417.682 324.665L414.761 327.513C414.761 327.513 416.731 329.483 416.662 329.486C417.721 330.587 417.423 331.573 416.968 332.218L404.661 344.212C404.266 344.504 403.514 344.841 402.774 344.072C402.776 344.137 400.875 342.093 400.875 342.093L397.086 344.741L402.341 350.236L397.797 354.666L400.409 357.382L404.906 353.001C405.609 353.762 406.296 354.488 406.973 355.192L402.497 359.552L405.113 362.27L409.65 357.85C414.311 362.163 418.547 364.234 423.243 360.425C427.027 357.358 427.016 354.221 425.147 351.015C427.472 351.802 429.842 351.401 431.99 348.861L431.994 348.86ZM418.617 354.526C415.22 357.835 410.048 351.681 408.273 349.839L414.294 343.972C416.066 345.815 422.157 351.073 418.618 354.526L418.617 354.526ZM425.897 344.985C422.806 347.997 418.529 342.824 417.052 341.288L422.511 335.964C423.988 337.5 429.117 341.843 425.895 344.983" fill="white"/>
</g>
<g filter="url(#filter2_d_252_3904)">
<g filter="url(#filter3_i_252_3904)">
<circle cx="696" cy="621" r="40" fill="#FF8C00"/>
</g>
<circle cx="696" cy="621" r="38" stroke="black" stroke-width="4"/>
<path d="M689.225 590.215C675.271 590.215 663.958 602.085 663.958 616.727C663.958 618.029 664.048 619.308 664.22 620.559C665.286 628.285 670.89 624.355 670.97 616.556C671.09 604.784 678.738 599.036 687.369 596.956C691.853 595.876 693.837 590.215 689.225 590.215Z" fill="white" fill-opacity="0.25"/>
<path d="M712.146 616.668C712.808 612.171 709.431 609.753 704.813 608.141L706.313 602.049L702.655 601.125L701.193 607.057C700.233 606.814 699.246 606.583 698.264 606.358L699.731 600.387L696.076 599.463L694.581 605.552L687.204 603.7L686.231 607.661C686.231 607.661 688.945 608.291 688.888 608.331C690.369 608.706 690.637 609.699 690.592 610.488L686.488 627.176C686.307 627.632 685.847 628.316 684.812 628.054C684.849 628.108 682.154 627.378 682.154 627.378L680.338 631.63L687.704 633.515L686.19 639.678L689.843 640.602L691.343 634.506C692.342 634.78 693.309 635.033 694.256 635.272L692.762 641.34L696.42 642.264L697.934 636.113C704.171 637.31 708.861 636.827 710.832 631.111C712.423 626.507 710.754 623.851 707.473 622.117C709.862 621.556 711.662 619.963 712.143 616.671L712.146 616.668ZM703.786 628.55C702.653 633.155 695.009 630.667 692.529 630.041L694.537 621.878C697.016 622.505 704.966 623.748 703.788 628.55L703.786 628.55ZM704.921 616.603C703.89 620.794 697.525 618.665 695.459 618.142L697.278 610.736C699.344 611.259 705.994 612.233 704.918 616.603" fill="white"/>
</g>
<g filter="url(#filter4_d_252_3904)">
<g filter="url(#filter5_i_252_3904)">
<circle cx="726.654" cy="477.654" r="40" transform="rotate(-59.9492 726.654 477.654)" fill="#FF8C00"/>
</g>
<circle cx="726.654" cy="477.654" r="38" transform="rotate(-59.9492 726.654 477.654)" stroke="black" stroke-width="4"/>
<path d="M696.614 468.102C689.626 480.181 694.235 495.917 706.91 503.249C708.036 503.901 709.188 504.464 710.357 504.941C717.579 507.888 716.983 501.069 710.273 497.094C700.144 491.095 698.998 481.597 701.52 473.085C702.83 468.663 698.923 464.11 696.614 468.102Z" fill="white" fill-opacity="0.25"/>
<path d="M730.99 461.51C727.429 458.684 723.645 460.396 719.937 463.586L715.415 459.237L712.783 461.941L717.186 466.176C716.494 466.886 715.801 467.625 715.114 468.362L710.68 464.102L708.05 466.803L712.572 471.147L707.275 476.604L710.216 479.43C710.216 479.43 712.121 477.397 712.126 477.466C713.192 476.372 714.187 476.637 714.846 477.071L727.236 488.98C727.54 489.365 727.902 490.106 727.157 490.871C727.223 490.866 725.241 492.833 725.241 492.833L728.012 496.534L733.332 491.102L737.909 495.499L740.538 492.8L736.012 488.448C736.75 487.72 737.453 487.011 738.134 486.31L742.639 490.642L745.27 487.939L740.704 483.548C744.863 478.749 746.794 474.447 742.834 469.879C739.645 466.196 736.51 466.31 733.366 468.283C734.078 465.934 733.6 463.578 730.99 461.513L730.99 461.51ZM737.089 474.695C740.507 477.982 734.525 483.352 732.742 485.186L726.682 479.36C728.466 477.528 733.522 471.269 737.089 474.694L737.089 474.695ZM727.315 467.73C730.426 470.721 725.396 475.165 723.909 476.691L718.41 471.408C719.897 469.882 724.07 464.614 727.314 467.732" fill="white"/>
</g>
<g filter="url(#filter6_d_252_3904)">
<g filter="url(#filter7_i_252_3904)">
<circle cx="607.796" cy="392.796" r="40" transform="rotate(26.9888 607.796 392.796)" fill="#FF8C00"/>
</g>
<circle cx="607.796" cy="392.796" r="38" transform="rotate(26.9888 607.796 392.796)" stroke="black" stroke-width="4"/>
<path d="M615.73 362.289C603.295 355.956 587.828 361.4 581.183 374.448C580.592 375.608 580.091 376.788 579.677 377.981C577.121 385.35 583.898 384.391 587.509 377.477C592.958 367.042 602.381 365.391 611.016 367.454C615.502 368.526 619.84 364.382 615.73 362.289Z" fill="white" fill-opacity="0.25"/>
<path d="M624.149 396.264C626.781 392.557 624.869 388.87 621.485 385.337L625.586 380.59L622.746 378.106L618.752 382.728C618.006 382.076 617.231 381.423 616.459 380.776L620.476 376.122L617.638 373.64L613.542 378.387L607.81 373.389L605.145 376.477C605.145 376.477 607.277 378.27 607.208 378.279C608.358 379.286 608.146 380.293 607.748 380.975L596.518 393.983C596.149 394.307 595.429 394.708 594.626 394.005C594.634 394.07 592.563 392.197 592.563 392.197L589.016 395.161L594.724 400.184L590.578 404.988L593.414 407.469L597.517 402.718C598.284 403.416 599.03 404.08 599.766 404.723L595.681 409.452L598.521 411.935L602.661 407.141C607.676 411.038 612.074 412.736 616.425 408.538C619.932 405.156 619.65 402.032 617.513 398.999C619.897 399.583 622.223 398.98 624.146 396.264L624.149 396.264ZM611.308 403.058C608.209 406.647 602.527 400.961 600.6 399.278L606.094 392.915C608.019 394.599 614.539 399.314 611.31 403.058L611.308 403.058ZM617.741 392.927C614.921 396.193 610.215 391.407 608.611 390.004L613.593 384.23C615.197 385.634 620.68 389.52 617.739 392.925" fill="white"/>
</g>
<g filter="url(#filter8_d_252_3904)">
<g filter="url(#filter9_i_252_3904)">
<circle cx="480.562" cy="745.562" r="40" transform="rotate(-44.1225 480.562 745.562)" fill="#FF8C00"/>
</g>
<circle cx="480.562" cy="745.562" r="38" transform="rotate(-44.1225 480.562 745.562)" stroke="black" stroke-width="4"/>
<path d="M454.266 728.179C444.249 737.894 444.392 754.291 454.586 764.802C455.492 765.736 456.447 766.592 457.442 767.37C463.586 772.175 464.873 765.452 459.5 759.798C451.391 751.263 452.879 741.813 457.627 734.311C460.093 730.414 457.577 724.968 454.266 728.179Z" fill="white" fill-opacity="0.25"/>
<path d="M489.137 731.212C486.481 727.522 482.374 728.138 477.936 730.195L474.772 724.778L471.502 726.662L474.583 731.937C473.725 732.432 472.855 732.953 471.994 733.474L468.89 728.167L465.623 730.048L468.789 735.461L462.204 739.266L464.263 742.787C464.263 742.787 466.65 741.351 466.636 741.419C467.961 740.657 468.845 741.183 469.361 741.781L478.033 756.617C478.221 757.071 478.367 757.882 477.442 758.415C477.506 758.428 475.063 759.78 475.063 759.78L476.719 764.096L483.32 760.322L486.523 765.8L489.789 763.92L486.621 758.499C487.53 758 488.4 757.509 489.246 757.021L492.399 762.417L495.667 760.534L492.472 755.065C497.782 751.581 500.813 747.97 498.249 742.494C496.185 738.082 493.138 737.336 489.576 738.377C490.901 736.31 491.084 733.914 489.136 731.216L489.137 731.212ZM491.408 745.561C493.801 749.655 486.581 753.191 484.365 754.469L480.124 747.211C482.34 745.935 488.911 741.293 491.409 745.56L491.408 745.561ZM483.905 736.195C486.082 739.921 480.031 742.824 478.184 743.887L474.334 737.305C476.181 736.242 481.633 732.311 483.903 736.196" fill="white"/>
</g>
<g filter="url(#filter10_d_252_3904)">
<g filter="url(#filter11_i_252_3904)">
<circle cx="402.807" cy="660.807" r="40" transform="rotate(-16.7003 402.807 660.807)" fill="#FF8C00"/>
</g>
<circle cx="402.807" cy="660.807" r="38" transform="rotate(-16.7003 402.807 660.807)" stroke="black" stroke-width="4"/>
<path d="M387.472 633.267C374.106 637.278 366.682 651.898 370.889 665.923C371.263 667.169 371.716 668.369 372.241 669.517C375.482 676.612 379.721 671.237 377.556 663.744C374.289 652.434 379.961 644.731 387.631 640.258C391.615 637.935 391.889 631.942 387.472 633.267Z" fill="white" fill-opacity="0.25"/>
<path d="M417.027 652.019C416.37 647.521 412.44 646.176 407.554 645.958L407.24 639.692L403.47 639.859L403.775 645.96C402.785 646.003 401.774 646.066 400.769 646.132L400.458 639.992L396.692 640.157L397.009 646.419L389.412 646.764L389.618 650.838C389.618 650.838 392.398 650.662 392.354 650.716C393.881 650.65 394.424 651.525 394.607 652.292L395.471 669.456C395.429 669.945 395.185 670.732 394.119 670.779C394.169 670.821 391.378 670.896 391.378 670.896L390.861 675.489L398.458 675.179L398.779 681.517L402.543 681.352L402.228 675.082C403.264 675.057 404.263 675.022 405.239 674.979L405.552 681.22L409.32 681.054L409.003 674.727C415.321 674.081 419.674 672.271 419.92 666.23C420.12 661.363 417.759 659.298 414.118 658.581C416.245 657.357 417.511 655.314 417.025 652.022L417.027 652.019ZM412.435 665.802C412.673 670.538 404.636 670.351 402.081 670.465L401.659 662.069C404.214 661.957 412.185 660.863 412.437 665.801L412.435 665.802ZM410.089 654.032C410.305 658.343 403.597 658.132 401.468 658.226L401.082 650.609C403.211 650.517 409.86 649.539 410.086 654.033" fill="white"/>
</g>
<g filter="url(#filter12_d_252_3904)">
<g filter="url(#filter13_i_252_3904)">
<circle cx="606.195" cy="691.195" r="40" transform="rotate(-32.3505 606.195 691.195)" fill="#FF8C00"/>
</g>
<circle cx="606.195" cy="691.195" r="38" transform="rotate(-32.3505 606.195 691.195)" stroke="black" stroke-width="4"/>
<path d="M583.999 668.813C572.21 676.281 569.005 692.362 576.84 704.732C577.536 705.831 578.296 706.864 579.112 707.828C584.147 713.785 586.778 707.466 582.672 700.835C576.475 690.826 579.859 681.878 586.038 675.502C589.247 672.19 587.895 666.346 583.999 668.813Z" fill="white" fill-opacity="0.25"/>
<path d="M617.517 678.897C615.671 674.743 611.524 674.508 606.76 675.616L604.767 669.668L601.182 670.845L603.122 676.637C602.18 676.946 601.223 677.28 600.273 677.614L598.317 671.785L594.736 672.96L596.731 678.905L589.508 681.287L590.805 685.154C590.805 685.154 593.435 684.235 593.408 684.298C594.86 683.823 595.618 684.518 596.002 685.208L601.464 701.503C601.555 701.985 601.533 702.809 600.519 703.142C600.579 703.168 597.911 703.993 597.911 703.993L598.652 708.556L605.884 706.208L607.902 712.224L611.483 711.05L609.488 705.097C610.479 704.794 611.431 704.491 612.359 704.185L614.344 710.111L617.929 708.934L615.916 702.928C621.825 700.601 625.529 697.684 624.136 691.801C623.016 687.06 620.185 685.709 616.485 686.001C618.204 684.248 618.872 681.939 617.516 678.9L617.517 678.897ZM616.814 693.408C618.32 697.904 610.531 699.892 608.101 700.691L605.43 692.72C607.86 691.924 615.24 688.719 616.814 693.406L616.814 693.408ZM611.379 682.707C612.75 686.799 606.234 688.407 604.209 689.071L601.783 681.841C603.808 681.177 609.947 678.442 611.377 682.709" fill="white"/>
</g>
<g filter="url(#filter14_d_252_3904)">
<g filter="url(#filter15_i_252_3904)">
<circle cx="258.568" cy="564.568" r="40" transform="rotate(-44.6552 258.568 564.568)" fill="#FF8C00"/>
</g>
<circle cx="258.568" cy="564.568" r="38" transform="rotate(-44.6552 258.568 564.568)" stroke="black" stroke-width="4"/>
<path d="M232.111 547.43C222.184 557.238 222.48 573.633 232.771 584.048C233.686 584.974 234.649 585.821 235.651 586.59C241.839 591.337 243.064 584.602 237.639 578.998C229.451 570.54 230.851 561.076 235.529 553.53C237.959 549.611 235.392 544.188 232.111 547.43Z" fill="white" fill-opacity="0.25"/>
<path d="M267.008 550.138C264.319 546.474 260.217 547.127 255.799 549.226L252.584 543.839L249.333 545.752L252.462 550.999C251.608 551.501 250.744 552.031 249.887 552.56L246.734 547.282L243.485 549.194L246.701 554.576L240.152 558.443L242.243 561.945C242.243 561.945 244.617 560.486 244.604 560.554C245.921 559.78 246.811 560.298 247.332 560.89L256.142 575.646C256.333 576.098 256.487 576.907 255.567 577.449C255.631 577.462 253.201 578.837 253.201 578.837L254.897 583.137L261.462 579.301L264.717 584.749L267.965 582.839L264.747 577.448C265.651 576.94 266.517 576.441 267.358 575.945L270.56 581.312L273.812 579.398L270.565 573.959C275.843 570.427 278.84 566.787 276.225 561.336C274.121 556.942 271.067 556.225 267.514 557.299C268.82 555.22 268.98 552.822 267.008 550.142L267.008 550.138ZM269.413 564.466C271.844 568.538 264.657 572.14 262.453 573.439L258.144 566.22C260.349 564.924 266.877 560.221 269.414 564.464L269.413 564.466ZM261.823 555.17C264.035 558.875 258.011 561.834 256.174 562.915L252.263 556.368C254.1 555.288 259.515 551.307 261.821 555.171" fill="white"/>
</g>
<g filter="url(#filter16_d_252_3904)">
<g filter="url(#filter17_i_252_3904)">
<circle cx="511" cy="614" r="40" fill="#FF8C00"/>
</g>
<circle cx="511" cy="614" r="38" stroke="black" stroke-width="4"/>
<path d="M504.225 583.215C490.271 583.215 478.958 595.085 478.958 609.727C478.958 611.029 479.048 612.308 479.22 613.559C480.286 621.285 485.89 617.355 485.97 609.556C486.09 597.784 493.738 592.036 502.369 589.956C506.853 588.876 508.837 583.215 504.225 583.215Z" fill="white" fill-opacity="0.25"/>
<path d="M527.146 609.668C527.808 605.171 524.431 602.753 519.813 601.141L521.313 595.049L517.655 594.125L516.193 600.057C515.233 599.814 514.246 599.583 513.264 599.358L514.731 593.387L511.076 592.463L509.581 598.552L502.204 596.7L501.231 600.661C501.231 600.661 503.945 601.291 503.888 601.331C505.369 601.706 505.637 602.699 505.592 603.488L501.488 620.176C501.307 620.632 500.847 621.316 499.812 621.054C499.849 621.108 497.154 620.378 497.154 620.378L495.338 624.63L502.704 626.515L501.19 632.678L504.843 633.602L506.343 627.506C507.342 627.78 508.309 628.033 509.256 628.272L507.762 634.34L511.42 635.264L512.934 629.113C519.171 630.31 523.861 629.827 525.832 624.111C527.423 619.507 525.754 616.851 522.473 615.117C524.862 614.556 526.662 612.963 527.143 609.671L527.146 609.668ZM518.786 621.55C517.653 626.155 510.009 623.667 507.529 623.041L509.537 614.878C512.016 615.505 519.966 616.748 518.788 621.55L518.786 621.55ZM519.921 609.603C518.89 613.794 512.525 611.665 510.459 611.142L512.278 603.736C514.344 604.259 520.994 605.233 519.918 609.603" fill="white"/>
</g>
<g filter="url(#filter18_d_252_3904)">
<g filter="url(#filter19_i_252_3904)">
<circle cx="228" cy="457" r="40" fill="#FF8C00"/>
</g>
<circle cx="228" cy="457" r="38" stroke="black" stroke-width="4"/>
<path d="M221.225 426.215C207.271 426.215 195.958 438.085 195.958 452.727C195.958 454.029 196.048 455.308 196.22 456.559C197.286 464.285 202.89 460.355 202.97 452.556C203.09 440.784 210.738 435.036 219.369 432.956C223.853 431.876 225.837 426.215 221.225 426.215Z" fill="white" fill-opacity="0.25"/>
<path d="M244.146 452.668C244.808 448.171 241.431 445.753 236.813 444.141L238.313 438.049L234.655 437.125L233.193 443.057C232.233 442.814 231.246 442.583 230.264 442.358L231.731 436.387L228.076 435.463L226.581 441.552L219.204 439.7L218.231 443.661C218.231 443.661 220.945 444.291 220.888 444.331C222.369 444.706 222.637 445.699 222.592 446.488L218.488 463.176C218.307 463.632 217.847 464.316 216.812 464.054C216.849 464.108 214.154 463.378 214.154 463.378L212.338 467.63L219.704 469.515L218.19 475.678L221.843 476.602L223.343 470.506C224.342 470.78 225.309 471.033 226.256 471.272L224.762 477.34L228.42 478.264L229.934 472.113C236.171 473.31 240.861 472.827 242.832 467.111C244.423 462.507 242.754 459.851 239.473 458.117C241.862 457.556 243.662 455.963 244.143 452.671L244.146 452.668ZM235.786 464.55C234.653 469.155 227.009 466.667 224.529 466.041L226.537 457.878C229.016 458.505 236.966 459.748 235.788 464.55L235.786 464.55ZM236.921 452.603C235.89 456.794 229.525 454.665 227.459 454.142L229.278 446.736C231.344 447.259 237.994 448.233 236.918 452.603" fill="white"/>
</g>
<g filter="url(#filter20_d_252_3904)">
<g filter="url(#filter21_i_252_3904)">
<circle cx="573" cy="502" r="40" transform="rotate(58.7202 573 502)" fill="#FF8C00"/>
</g>
<circle cx="573" cy="502" r="38" transform="rotate(58.7202 573 502)" stroke="black" stroke-width="4"/>
<path d="M595.793 480.226C588.547 468.3 572.529 464.795 560.015 472.397C558.903 473.073 557.856 473.813 556.876 474.611C550.826 479.533 557.095 482.282 563.802 478.301C573.925 472.292 582.808 475.843 589.067 482.139C592.319 485.41 598.188 484.167 595.793 480.226Z" fill="white" fill-opacity="0.25"/>
<path d="M585.085 513.55C589.273 511.781 589.586 507.639 588.566 502.855L594.551 500.974L593.441 497.368L587.613 499.199C587.322 498.252 587.006 497.289 586.69 496.333L592.554 494.486L591.446 490.883L585.466 492.767L583.219 485.5L579.328 486.725C579.328 486.725 580.198 489.372 580.135 489.343C580.583 490.804 579.874 491.549 579.177 491.92L562.783 497.077C562.299 497.159 561.476 497.122 561.162 496.101C561.135 496.16 560.36 493.478 560.36 493.478L555.784 494.134L557.996 501.408L551.944 503.314L553.051 506.915L559.04 505.032C559.324 506.029 559.609 506.987 559.897 507.92L553.936 509.794L555.045 513.4L561.088 511.5C563.304 517.451 566.151 521.209 572.06 519.926C576.821 518.895 578.225 516.09 578.002 512.385C579.722 514.136 582.018 514.847 585.082 513.548L585.085 513.55ZM570.59 512.575C566.066 513.997 564.224 506.172 563.471 503.728L571.49 501.206C572.241 503.65 575.307 511.089 570.591 512.576L570.59 512.575ZM581.39 507.341C577.273 508.636 575.788 502.091 575.162 500.054L582.435 497.763C583.061 499.8 585.681 505.989 581.389 507.339" fill="white"/>
</g>
<g filter="url(#filter22_d_252_3904)">
<g filter="url(#filter23_i_252_3904)">
<circle cx="307.008" cy="678.008" r="40" transform="rotate(62.3046 307.008 678.008)" fill="#FF8C00"/>
</g>
<circle cx="307.008" cy="678.008" r="38" transform="rotate(62.3046 307.008 678.008)" stroke="black" stroke-width="4"/>
<path d="M331.117 657.701C324.632 645.346 308.864 640.846 295.899 647.651C294.747 648.256 293.655 648.93 292.628 649.664C286.282 654.199 292.367 657.334 299.309 653.78C309.788 648.416 318.432 652.515 324.285 659.191C327.326 662.659 333.261 661.785 331.117 657.701Z" fill="white" fill-opacity="0.25"/>
<path d="M318.348 690.291C322.637 688.787 323.209 684.673 322.49 679.835L328.581 678.332L327.699 674.663L321.768 676.126C321.536 675.163 321.282 674.182 321.025 673.208L326.994 671.731L326.113 668.066L320.026 669.572L318.239 662.18L314.279 663.159C314.279 663.159 314.982 665.855 314.92 665.822C315.277 667.308 314.522 668.008 313.803 668.334L297.119 672.456C296.631 672.507 295.812 672.419 295.562 671.381C295.531 671.438 294.925 668.713 294.925 668.713L290.317 669.081L292.071 676.479L285.911 678.003L286.79 681.667L292.885 680.161C293.107 681.174 293.332 682.148 293.561 683.097L287.494 684.595L288.376 688.263L294.525 686.744C296.365 692.823 298.972 696.751 304.949 695.841C309.765 695.109 311.342 692.397 311.351 688.686C312.958 690.541 315.205 691.394 318.344 690.289L318.348 690.291ZM303.942 688.412C299.338 689.548 297.989 681.624 297.389 679.137L305.551 677.121C306.148 679.608 308.742 687.224 303.943 688.413L303.942 688.412ZM315.048 683.863C310.858 684.898 309.785 678.273 309.287 676.201L316.69 674.369C317.187 676.442 319.415 682.782 315.047 683.861" fill="white"/>
</g>
<defs>
<filter id="filter0_d_252_3904" x="371.995" y="303.995" width="88.0107" height="88.0108" filterUnits="userSpaceOnUse" color-interpolation-filters="sRGB">
<feFlood flood-opacity="0" result="BackgroundImageFix"/>
<feColorMatrix in="SourceAlpha" type="matrix" values="0 0 0 0 0 0 0 0 0 0 0 0 0 0 0 0 0 0 127 0" result="hardAlpha"/>
<feOffset dy="4"/>
<feGaussianBlur stdDeviation="2"/>
<feComposite in2="hardAlpha" operator="out"/>
<feColorMatrix type="matrix" values="0 0 0 0 0 0 0 0 0 0 0 0 0 0 0 0 0 0 0.25 0"/>
<feBlend mode="normal" in2="BackgroundImageFix" result="effect1_dropShadow_252_3904"/>
<feBlend mode="normal" in="SourceGraphic" in2="effect1_dropShadow_252_3904" result="shape"/>
</filter>
<filter id="filter1_i_252_3904" x="375.995" y="303.995" width="80.0107" height="80.0108" filterUnits="userSpaceOnUse" color-interpolation-filters="sRGB">
<feFlood flood-opacity="0" result="BackgroundImageFix"/>
<feBlend mode="normal" in="SourceGraphic" in2="BackgroundImageFix" result="shape"/>
<feColorMatrix in="SourceAlpha" type="matrix" values="0 0 0 0 0 0 0 0 0 0 0 0 0 0 0 0 0 0 127 0" result="hardAlpha"/>
<feOffset dx="-5" dy="-8"/>
<feComposite in2="hardAlpha" operator="arithmetic" k2="-1" k3="1"/>
<feColorMatrix type="matrix" values="0 0 0 0 0 0 0 0 0 0 0 0 0 0 0 0 0 0 0.25 0"/>
<feBlend mode="normal" in2="shape" result="effect1_innerShadow_252_3904"/>
</filter>
<filter id="filter2_d_252_3904" x="652" y="581" width="88" height="88" filterUnits="userSpaceOnUse" color-interpolation-filters="sRGB">
<feFlood flood-opacity="0" result="BackgroundImageFix"/>
<feColorMatrix in="SourceAlpha" type="matrix" values="0 0 0 0 0 0 0 0 0 0 0 0 0 0 0 0 0 0 127 0" result="hardAlpha"/>
<feOffset dy="4"/>
<feGaussianBlur stdDeviation="2"/>
<feComposite in2="hardAlpha" operator="out"/>
<feColorMatrix type="matrix" values="0 0 0 0 0 0 0 0 0 0 0 0 0 0 0 0 0 0 0.25 0"/>
<feBlend mode="normal" in2="BackgroundImageFix" result="effect1_dropShadow_252_3904"/>
<feBlend mode="normal" in="SourceGraphic" in2="effect1_dropShadow_252_3904" result="shape"/>
</filter>
<filter id="filter3_i_252_3904" x="656" y="581" width="80" height="80" filterUnits="userSpaceOnUse" color-interpolation-filters="sRGB">
<feFlood flood-opacity="0" result="BackgroundImageFix"/>
<feBlend mode="normal" in="SourceGraphic" in2="BackgroundImageFix" result="shape"/>
<feColorMatrix in="SourceAlpha" type="matrix" values="0 0 0 0 0 0 0 0 0 0 0 0 0 0 0 0 0 0 127 0" result="hardAlpha"/>
<feOffset dx="-5" dy="-8"/>
<feComposite in2="hardAlpha" operator="arithmetic" k2="-1" k3="1"/>
<feColorMatrix type="matrix" values="0 0 0 0 0 0 0 0 0 0 0 0 0 0 0 0 0 0 0.25 0"/>
<feBlend mode="normal" in2="shape" result="effect1_innerShadow_252_3904"/>
</filter>
<filter id="filter4_d_252_3904" x="682.647" y="437.647" width="88.0132" height="88.0133" filterUnits="userSpaceOnUse" color-interpolation-filters="sRGB">
<feFlood flood-opacity="0" result="BackgroundImageFix"/>
<feColorMatrix in="SourceAlpha" type="matrix" values="0 0 0 0 0 0 0 0 0 0 0 0 0 0 0 0 0 0 127 0" result="hardAlpha"/>
<feOffset dy="4"/>
<feGaussianBlur stdDeviation="2"/>
<feComposite in2="hardAlpha" operator="out"/>
<feColorMatrix type="matrix" values="0 0 0 0 0 0 0 0 0 0 0 0 0 0 0 0 0 0 0.25 0"/>
<feBlend mode="normal" in2="BackgroundImageFix" result="effect1_dropShadow_252_3904"/>
<feBlend mode="normal" in="SourceGraphic" in2="effect1_dropShadow_252_3904" result="shape"/>
</filter>
<filter id="filter5_i_252_3904" x="686.647" y="437.647" width="80.0132" height="80.0133" filterUnits="userSpaceOnUse" color-interpolation-filters="sRGB">
<feFlood flood-opacity="0" result="BackgroundImageFix"/>
<feBlend mode="normal" in="SourceGraphic" in2="BackgroundImageFix" result="shape"/>
<feColorMatrix in="SourceAlpha" type="matrix" values="0 0 0 0 0 0 0 0 0 0 0 0 0 0 0 0 0 0 127 0" result="hardAlpha"/>
<feOffset dx="-5" dy="-8"/>
<feComposite in2="hardAlpha" operator="arithmetic" k2="-1" k3="1"/>
<feColorMatrix type="matrix" values="0 0 0 0 0 0 0 0 0 0 0 0 0 0 0 0 0 0 0.25 0"/>
<feBlend mode="normal" in2="shape" result="effect1_innerShadow_252_3904"/>
</filter>
<filter id="filter6_d_252_3904" x="563.788" y="352.788" width="88.0171" height="88.0171" filterUnits="userSpaceOnUse" color-interpolation-filters="sRGB">
<feFlood flood-opacity="0" result="BackgroundImageFix"/>
<feColorMatrix in="SourceAlpha" type="matrix" values="0 0 0 0 0 0 0 0 0 0 0 0 0 0 0 0 0 0 127 0" result="hardAlpha"/>
<feOffset dy="4"/>
<feGaussianBlur stdDeviation="2"/>
<feComposite in2="hardAlpha" operator="out"/>
<feColorMatrix type="matrix" values="0 0 0 0 0 0 0 0 0 0 0 0 0 0 0 0 0 0 0.25 0"/>
<feBlend mode="normal" in2="BackgroundImageFix" result="effect1_dropShadow_252_3904"/>
<feBlend mode="normal" in="SourceGraphic" in2="effect1_dropShadow_252_3904" result="shape"/>
</filter>
<filter id="filter7_i_252_3904" x="567.788" y="352.788" width="80.0171" height="80.0171" filterUnits="userSpaceOnUse" color-interpolation-filters="sRGB">
<feFlood flood-opacity="0" result="BackgroundImageFix"/>
<feBlend mode="normal" in="SourceGraphic" in2="BackgroundImageFix" result="shape"/>
<feColorMatrix in="SourceAlpha" type="matrix" values="0 0 0 0 0 0 0 0 0 0 0 0 0 0 0 0 0 0 127 0" result="hardAlpha"/>
<feOffset dx="-5" dy="-8"/>
<feComposite in2="hardAlpha" operator="arithmetic" k2="-1" k3="1"/>
<feColorMatrix type="matrix" values="0 0 0 0 0 0 0 0 0 0 0 0 0 0 0 0 0 0 0.25 0"/>
<feBlend mode="normal" in2="shape" result="effect1_innerShadow_252_3904"/>
</filter>
<filter id="filter8_d_252_3904" x="436.562" y="705.562" width="88" height="88.0001" filterUnits="userSpaceOnUse" color-interpolation-filters="sRGB">
<feFlood flood-opacity="0" result="BackgroundImageFix"/>
<feColorMatrix in="SourceAlpha" type="matrix" values="0 0 0 0 0 0 0 0 0 0 0 0 0 0 0 0 0 0 127 0" result="hardAlpha"/>
<feOffset dy="4"/>
<feGaussianBlur stdDeviation="2"/>
<feComposite in2="hardAlpha" operator="out"/>
<feColorMatrix type="matrix" values="0 0 0 0 0 0 0 0 0 0 0 0 0 0 0 0 0 0 0.25 0"/>
<feBlend mode="normal" in2="BackgroundImageFix" result="effect1_dropShadow_252_3904"/>
<feBlend mode="normal" in="SourceGraphic" in2="effect1_dropShadow_252_3904" result="shape"/>
</filter>
<filter id="filter9_i_252_3904" x="440.562" y="705.562" width="80" height="80.0001" filterUnits="userSpaceOnUse" color-interpolation-filters="sRGB">
<feFlood flood-opacity="0" result="BackgroundImageFix"/>
<feBlend mode="normal" in="SourceGraphic" in2="BackgroundImageFix" result="shape"/>
<feColorMatrix in="SourceAlpha" type="matrix" values="0 0 0 0 0 0 0 0 0 0 0 0 0 0 0 0 0 0 127 0" result="hardAlpha"/>
<feOffset dx="-5" dy="-8"/>
<feComposite in2="hardAlpha" operator="arithmetic" k2="-1" k3="1"/>
<feColorMatrix type="matrix" values="0 0 0 0 0 0 0 0 0 0 0 0 0 0 0 0 0 0 0.25 0"/>
<feBlend mode="normal" in2="shape" result="effect1_innerShadow_252_3904"/>
</filter>
<filter id="filter10_d_252_3904" x="358.797" y="620.797" width="88.021" height="88.0211" filterUnits="userSpaceOnUse" color-interpolation-filters="sRGB">
<feFlood flood-opacity="0" result="BackgroundImageFix"/>
<feColorMatrix in="SourceAlpha" type="matrix" values="0 0 0 0 0 0 0 0 0 0 0 0 0 0 0 0 0 0 127 0" result="hardAlpha"/>
<feOffset dy="4"/>
<feGaussianBlur stdDeviation="2"/>
<feComposite in2="hardAlpha" operator="out"/>
<feColorMatrix type="matrix" values="0 0 0 0 0 0 0 0 0 0 0 0 0 0 0 0 0 0 0.25 0"/>
<feBlend mode="normal" in2="BackgroundImageFix" result="effect1_dropShadow_252_3904"/>
<feBlend mode="normal" in="SourceGraphic" in2="effect1_dropShadow_252_3904" result="shape"/>
</filter>
<filter id="filter11_i_252_3904" x="362.797" y="620.797" width="80.021" height="80.0211" filterUnits="userSpaceOnUse" color-interpolation-filters="sRGB">
<feFlood flood-opacity="0" result="BackgroundImageFix"/>
<feBlend mode="normal" in="SourceGraphic" in2="BackgroundImageFix" result="shape"/>
<feColorMatrix in="SourceAlpha" type="matrix" values="0 0 0 0 0 0 0 0 0 0 0 0 0 0 0 0 0 0 127 0" result="hardAlpha"/>
<feOffset dx="-5" dy="-8"/>
<feComposite in2="hardAlpha" operator="arithmetic" k2="-1" k3="1"/>
<feColorMatrix type="matrix" values="0 0 0 0 0 0 0 0 0 0 0 0 0 0 0 0 0 0 0.25 0"/>
<feBlend mode="normal" in2="shape" result="effect1_innerShadow_252_3904"/>
</filter>
<filter id="filter12_d_252_3904" x="562.19" y="651.19" width="88.0103" height="88.0103" filterUnits="userSpaceOnUse" color-interpolation-filters="sRGB">
<feFlood flood-opacity="0" result="BackgroundImageFix"/>
<feColorMatrix in="SourceAlpha" type="matrix" values="0 0 0 0 0 0 0 0 0 0 0 0 0 0 0 0 0 0 127 0" result="hardAlpha"/>
<feOffset dy="4"/>
<feGaussianBlur stdDeviation="2"/>
<feComposite in2="hardAlpha" operator="out"/>
<feColorMatrix type="matrix" values="0 0 0 0 0 0 0 0 0 0 0 0 0 0 0 0 0 0 0.25 0"/>
<feBlend mode="normal" in2="BackgroundImageFix" result="effect1_dropShadow_252_3904"/>
<feBlend mode="normal" in="SourceGraphic" in2="effect1_dropShadow_252_3904" result="shape"/>
</filter>
<filter id="filter13_i_252_3904" x="566.19" y="651.19" width="80.0103" height="80.0103" filterUnits="userSpaceOnUse" color-interpolation-filters="sRGB">
<feFlood flood-opacity="0" result="BackgroundImageFix"/>
<feBlend mode="normal" in="SourceGraphic" in2="BackgroundImageFix" result="shape"/>
<feColorMatrix in="SourceAlpha" type="matrix" values="0 0 0 0 0 0 0 0 0 0 0 0 0 0 0 0 0 0 127 0" result="hardAlpha"/>
<feOffset dx="-5" dy="-8"/>
<feComposite in2="hardAlpha" operator="arithmetic" k2="-1" k3="1"/>
<feColorMatrix type="matrix" values="0 0 0 0 0 0 0 0 0 0 0 0 0 0 0 0 0 0 0.25 0"/>
<feBlend mode="normal" in2="shape" result="effect1_innerShadow_252_3904"/>
</filter>
<filter id="filter14_d_252_3904" x="214.567" y="524.568" width="88" height="88" filterUnits="userSpaceOnUse" color-interpolation-filters="sRGB">
<feFlood flood-opacity="0" result="BackgroundImageFix"/>
<feColorMatrix in="SourceAlpha" type="matrix" values="0 0 0 0 0 0 0 0 0 0 0 0 0 0 0 0 0 0 127 0" result="hardAlpha"/>
<feOffset dy="4"/>
<feGaussianBlur stdDeviation="2"/>
<feComposite in2="hardAlpha" operator="out"/>
<feColorMatrix type="matrix" values="0 0 0 0 0 0 0 0 0 0 0 0 0 0 0 0 0 0 0.25 0"/>
<feBlend mode="normal" in2="BackgroundImageFix" result="effect1_dropShadow_252_3904"/>
<feBlend mode="normal" in="SourceGraphic" in2="effect1_dropShadow_252_3904" result="shape"/>
</filter>
<filter id="filter15_i_252_3904" x="218.567" y="524.568" width="80" height="80" filterUnits="userSpaceOnUse" color-interpolation-filters="sRGB">
<feFlood flood-opacity="0" result="BackgroundImageFix"/>
<feBlend mode="normal" in="SourceGraphic" in2="BackgroundImageFix" result="shape"/>
<feColorMatrix in="SourceAlpha" type="matrix" values="0 0 0 0 0 0 0 0 0 0 0 0 0 0 0 0 0 0 127 0" result="hardAlpha"/>
<feOffset dx="-5" dy="-8"/>
<feComposite in2="hardAlpha" operator="arithmetic" k2="-1" k3="1"/>
<feColorMatrix type="matrix" values="0 0 0 0 0 0 0 0 0 0 0 0 0 0 0 0 0 0 0.25 0"/>
<feBlend mode="normal" in2="shape" result="effect1_innerShadow_252_3904"/>
</filter>
<filter id="filter16_d_252_3904" x="467" y="574" width="88" height="88" filterUnits="userSpaceOnUse" color-interpolation-filters="sRGB">
<feFlood flood-opacity="0" result="BackgroundImageFix"/>
<feColorMatrix in="SourceAlpha" type="matrix" values="0 0 0 0 0 0 0 0 0 0 0 0 0 0 0 0 0 0 127 0" result="hardAlpha"/>
<feOffset dy="4"/>
<feGaussianBlur stdDeviation="2"/>
<feComposite in2="hardAlpha" operator="out"/>
<feColorMatrix type="matrix" values="0 0 0 0 0 0 0 0 0 0 0 0 0 0 0 0 0 0 0.25 0"/>
<feBlend mode="normal" in2="BackgroundImageFix" result="effect1_dropShadow_252_3904"/>
<feBlend mode="normal" in="SourceGraphic" in2="effect1_dropShadow_252_3904" result="shape"/>
</filter>
<filter id="filter17_i_252_3904" x="471" y="574" width="80" height="80" filterUnits="userSpaceOnUse" color-interpolation-filters="sRGB">
<feFlood flood-opacity="0" result="BackgroundImageFix"/>
<feBlend mode="normal" in="SourceGraphic" in2="BackgroundImageFix" result="shape"/>
<feColorMatrix in="SourceAlpha" type="matrix" values="0 0 0 0 0 0 0 0 0 0 0 0 0 0 0 0 0 0 127 0" result="hardAlpha"/>
<feOffset dx="-5" dy="-8"/>
<feComposite in2="hardAlpha" operator="arithmetic" k2="-1" k3="1"/>
<feColorMatrix type="matrix" values="0 0 0 0 0 0 0 0 0 0 0 0 0 0 0 0 0 0 0.25 0"/>
<feBlend mode="normal" in2="shape" result="effect1_innerShadow_252_3904"/>
</filter>
<filter id="filter18_d_252_3904" x="184" y="417" width="88" height="88" filterUnits="userSpaceOnUse" color-interpolation-filters="sRGB">
<feFlood flood-opacity="0" result="BackgroundImageFix"/>
<feColorMatrix in="SourceAlpha" type="matrix" values="0 0 0 0 0 0 0 0 0 0 0 0 0 0 0 0 0 0 127 0" result="hardAlpha"/>
<feOffset dy="4"/>
<feGaussianBlur stdDeviation="2"/>
<feComposite in2="hardAlpha" operator="out"/>
<feColorMatrix type="matrix" values="0 0 0 0 0 0 0 0 0 0 0 0 0 0 0 0 0 0 0.25 0"/>
<feBlend mode="normal" in2="BackgroundImageFix" result="effect1_dropShadow_252_3904"/>
<feBlend mode="normal" in="SourceGraphic" in2="effect1_dropShadow_252_3904" result="shape"/>
</filter>
<filter id="filter19_i_252_3904" x="188" y="417" width="80" height="80" filterUnits="userSpaceOnUse" color-interpolation-filters="sRGB">
<feFlood flood-opacity="0" result="BackgroundImageFix"/>
<feBlend mode="normal" in="SourceGraphic" in2="BackgroundImageFix" result="shape"/>
<feColorMatrix in="SourceAlpha" type="matrix" values="0 0 0 0 0 0 0 0 0 0 0 0 0 0 0 0 0 0 127 0" result="hardAlpha"/>
<feOffset dx="-5" dy="-8"/>
<feComposite in2="hardAlpha" operator="arithmetic" k2="-1" k3="1"/>
<feColorMatrix type="matrix" values="0 0 0 0 0 0 0 0 0 0 0 0 0 0 0 0 0 0 0.25 0"/>
<feBlend mode="normal" in2="shape" result="effect1_innerShadow_252_3904"/>
</filter>
<filter id="filter20_d_252_3904" x="528.994" y="461.994" width="88.0117" height="88.0117" filterUnits="userSpaceOnUse" color-interpolation-filters="sRGB">
<feFlood flood-opacity="0" result="BackgroundImageFix"/>
<feColorMatrix in="SourceAlpha" type="matrix" values="0 0 0 0 0 0 0 0 0 0 0 0 0 0 0 0 0 0 127 0" result="hardAlpha"/>
<feOffset dy="4"/>
<feGaussianBlur stdDeviation="2"/>
<feComposite in2="hardAlpha" operator="out"/>
<feColorMatrix type="matrix" values="0 0 0 0 0 0 0 0 0 0 0 0 0 0 0 0 0 0 0.25 0"/>
<feBlend mode="normal" in2="BackgroundImageFix" result="effect1_dropShadow_252_3904"/>
<feBlend mode="normal" in="SourceGraphic" in2="effect1_dropShadow_252_3904" result="shape"/>
</filter>
<filter id="filter21_i_252_3904" x="532.994" y="461.994" width="80.0117" height="80.0117" filterUnits="userSpaceOnUse" color-interpolation-filters="sRGB">
<feFlood flood-opacity="0" result="BackgroundImageFix"/>
<feBlend mode="normal" in="SourceGraphic" in2="BackgroundImageFix" result="shape"/>
<feColorMatrix in="SourceAlpha" type="matrix" values="0 0 0 0 0 0 0 0 0 0 0 0 0 0 0 0 0 0 127 0" result="hardAlpha"/>
<feOffset dx="-5" dy="-8"/>
<feComposite in2="hardAlpha" operator="arithmetic" k2="-1" k3="1"/>
<feColorMatrix type="matrix" values="0 0 0 0 0 0 0 0 0 0 0 0 0 0 0 0 0 0 0.25 0"/>
<feBlend mode="normal" in2="shape" result="effect1_innerShadow_252_3904"/>
</filter>
<filter id="filter22_d_252_3904" x="263" y="638" width="88.0161" height="88.0162" filterUnits="userSpaceOnUse" color-interpolation-filters="sRGB">
<feFlood flood-opacity="0" result="BackgroundImageFix"/>
<feColorMatrix in="SourceAlpha" type="matrix" values="0 0 0 0 0 0 0 0 0 0 0 0 0 0 0 0 0 0 127 0" result="hardAlpha"/>
<feOffset dy="4"/>
<feGaussianBlur stdDeviation="2"/>
<feComposite in2="hardAlpha" operator="out"/>
<feColorMatrix type="matrix" values="0 0 0 0 0 0 0 0 0 0 0 0 0 0 0 0 0 0 0.25 0"/>
<feBlend mode="normal" in2="BackgroundImageFix" result="effect1_dropShadow_252_3904"/>
<feBlend mode="normal" in="SourceGraphic" in2="effect1_dropShadow_252_3904" result="shape"/>
</filter>
<filter id="filter23_i_252_3904" x="267" y="638" width="80.0161" height="80.0162" filterUnits="userSpaceOnUse" color-interpolation-filters="sRGB">
<feFlood flood-opacity="0" result="BackgroundImageFix"/>
<feBlend mode="normal" in="SourceGraphic" in2="BackgroundImageFix" result="shape"/>
<feColorMatrix in="SourceAlpha" type="matrix" values="0 0 0 0 0 0 0 0 0 0 0 0 0 0 0 0 0 0 127 0" result="hardAlpha"/>
<feOffset dx="-5" dy="-8"/>
<feComposite in2="hardAlpha" operator="arithmetic" k2="-1" k3="1"/>
<feColorMatrix type="matrix" values="0 0 0 0 0 0 0 0 0 0 0 0 0 0 0 0 0 0 0.25 0"/>
<feBlend mode="normal" in2="shape" result="effect1_innerShadow_252_3904"/>
</filter>
</defs>
</svg>
