<svg width="1000" height="1000" viewBox="0 0 1000 1000" fill="none" xmlns="http://www.w3.org/2000/svg">
<g filter="url(#filter0_d_81_14208)">
<ellipse cx="494.528" cy="345.802" rx="292.28" ry="53.208" fill="black" fill-opacity="0.25"/>
<mask id="path-2-inside-1_81_14208" fill="white">
<path fill-rule="evenodd" clip-rule="evenodd" d="M321.851 48.4975C325.035 39.84 337.23 39.7046 340.56 48.2898L359.446 96.9895C362.762 105.538 372.557 109.52 381.111 106.218C417.232 92.2732 457.308 84.513 499.5 84.513C540.337 84.513 579.192 91.7826 614.396 104.894C623.023 108.106 632.806 103.959 635.983 95.3197L653.124 48.7089C656.308 40.0514 668.503 39.916 671.832 48.5012L718.545 168.949C719.337 170.992 720.546 172.847 722.067 174.425C755.153 208.77 777.613 250.904 785.136 297.134C786.192 303.622 790.807 309.001 797.069 311.003C818.731 317.931 830.928 325.8 831 334.2C831.252 363.585 683.039 388.347 499.956 389.507C316.874 390.667 168.253 367.786 168.001 338.401C167.929 329.998 179.999 321.973 201.554 314.769C207.813 312.677 212.368 307.207 213.318 300.677C219.939 255.186 241.001 213.537 272.449 179.199C273.901 177.614 275.048 175.77 275.79 173.752L321.851 48.4975Z"/>
</mask>
<path fill-rule="evenodd" clip-rule="evenodd" d="M321.851 48.4975C325.035 39.84 337.23 39.7046 340.56 48.2898L359.446 96.9895C362.762 105.538 372.557 109.52 381.111 106.218C417.232 92.2732 457.308 84.513 499.5 84.513C540.337 84.513 579.192 91.7826 614.396 104.894C623.023 108.106 632.806 103.959 635.983 95.3197L653.124 48.7089C656.308 40.0514 668.503 39.916 671.832 48.5012L718.545 168.949C719.337 170.992 720.546 172.847 722.067 174.425C755.153 208.77 777.613 250.904 785.136 297.134C786.192 303.622 790.807 309.001 797.069 311.003C818.731 317.931 830.928 325.8 831 334.2C831.252 363.585 683.039 388.347 499.956 389.507C316.874 390.667 168.253 367.786 168.001 338.401C167.929 329.998 179.999 321.973 201.554 314.769C207.813 312.677 212.368 307.207 213.318 300.677C219.939 255.186 241.001 213.537 272.449 179.199C273.901 177.614 275.048 175.77 275.79 173.752L321.851 48.4975Z" fill="#3C3C3C"/>
<path d="M340.56 48.2898L333.101 51.1824V51.1824L340.56 48.2898ZM321.851 48.4975L314.343 45.7363V45.7363L321.851 48.4975ZM653.124 48.7089L660.632 51.4701V51.4701L653.124 48.7089ZM671.832 48.5012L664.373 51.3939V51.3939L671.832 48.5012ZM831 334.2L839 334.132L831 334.2ZM499.956 389.507L499.906 381.507L499.956 389.507ZM168.001 338.401L160.001 338.47L168.001 338.401ZM785.136 297.134L777.24 298.419L785.136 297.134ZM797.069 311.003L799.506 303.383L797.069 311.003ZM635.983 95.3197L628.475 92.5585L635.983 95.3197ZM201.554 314.769L204.089 322.357L201.554 314.769ZM718.545 168.949L711.086 171.842L718.545 168.949ZM722.067 174.425L727.828 168.875L722.067 174.425ZM272.449 179.199L266.55 173.796L272.449 179.199ZM275.79 173.752L268.281 170.991L275.79 173.752ZM348.018 45.3971C341.998 29.8727 320.047 30.2245 314.343 45.7363L329.36 51.2586C329.565 50.7 329.842 50.4255 330.089 50.2605C330.378 50.0677 330.779 49.9323 331.24 49.9271C331.701 49.922 332.096 50.0485 332.378 50.2282C332.617 50.3804 332.89 50.638 333.101 51.1824L348.018 45.3971ZM366.905 94.0969L348.018 45.3971L333.101 51.1824L351.988 99.8822L366.905 94.0969ZM499.5 76.513C456.327 76.513 415.273 84.4537 378.23 98.7551L383.992 113.681C419.19 100.093 458.289 92.513 499.5 92.513V76.513ZM617.188 97.3966C581.087 83.9518 541.287 76.513 499.5 76.513V92.513C539.387 92.513 577.296 99.6135 611.604 112.391L617.188 97.3966ZM643.492 98.0808L660.632 51.4701L645.616 45.9478L628.475 92.5585L643.492 98.0808ZM660.632 51.4701C660.838 50.9115 661.114 50.6369 661.361 50.472C661.651 50.2791 662.051 50.1437 662.512 50.1386C662.973 50.1335 663.369 50.2599 663.651 50.4396C663.889 50.5918 664.162 50.8494 664.373 51.3939L679.291 45.6086C673.27 30.0841 651.32 30.436 645.616 45.9478L660.632 51.4701ZM664.373 51.3939L711.086 171.842L726.003 166.057L679.291 45.6086L664.373 51.3939ZM793.032 295.849C785.222 247.856 761.927 204.271 727.828 168.875L716.305 179.976C748.379 213.269 770.004 253.952 777.24 298.419L793.032 295.849ZM839 334.132C838.929 325.826 832.957 319.696 826.599 315.414C819.92 310.915 810.631 306.941 799.506 303.383L794.632 318.623C805.168 321.993 812.809 325.417 817.662 328.685C822.836 332.17 823 334.174 823 334.269L839 334.132ZM500.007 397.507C591.837 396.925 675.105 390.427 735.547 380.329C765.704 375.29 790.547 369.297 808.014 362.536C816.705 359.173 824.042 355.442 829.34 351.225C834.503 347.115 839.062 341.433 839 334.132L823 334.269C823.001 334.314 822.984 335.834 819.375 338.707C815.9 341.473 810.269 344.507 802.239 347.615C786.265 353.798 762.66 359.577 732.91 364.548C673.537 374.467 591.158 380.929 499.906 381.507L500.007 397.507ZM160.001 338.47C160.064 345.763 164.711 351.374 169.936 355.412C175.299 359.557 182.695 363.192 191.44 366.445C209.018 372.982 233.96 378.66 264.2 383.316C324.807 392.646 408.177 398.089 500.007 397.507L499.906 381.507C408.654 382.086 326.172 376.668 266.635 367.502C236.803 362.909 213.099 357.429 197.018 351.448C188.934 348.442 183.247 345.478 179.72 342.752C176.053 339.918 176.001 338.386 176.001 338.333L160.001 338.47ZM199.018 307.182C187.947 310.881 178.717 314.975 172.106 319.563C165.812 323.93 159.93 330.151 160.001 338.47L176.001 338.333C176 338.249 176.117 336.254 181.228 332.708C186.022 329.381 193.605 325.86 204.089 322.357L199.018 307.182ZM266.55 173.796C234.125 209.199 212.276 252.297 205.402 299.525L221.235 301.829C227.603 258.076 247.877 217.874 278.349 184.602L266.55 173.796ZM314.343 45.7363L268.281 170.991L283.298 176.514L329.36 51.2586L314.343 45.7363ZM777.24 298.419C778.777 307.863 785.49 315.699 794.632 318.623L799.506 303.383C796.125 302.302 793.607 299.381 793.032 295.849L777.24 298.419ZM611.604 112.391C624.117 117.05 638.689 111.141 643.492 98.0808L628.475 92.5585C626.923 96.7774 621.929 99.162 617.188 97.3966L611.604 112.391ZM204.089 322.357C213.226 319.303 219.851 311.334 221.235 301.829L205.402 299.525C204.884 303.08 202.399 306.052 199.018 307.182L204.089 322.357ZM711.086 171.842C712.281 174.923 714.085 177.671 716.305 179.976L727.828 168.875C727.008 168.023 726.393 167.062 726.003 166.057L711.086 171.842ZM278.349 184.602C280.468 182.288 282.179 179.556 283.298 176.514L268.281 170.991C267.916 171.984 267.334 172.94 266.55 173.796L278.349 184.602ZM351.988 99.8822C356.999 112.805 371.586 118.471 383.992 113.681L378.23 98.7551C373.529 100.57 368.524 98.2712 366.905 94.0969L351.988 99.8822Z" fill="black" mask="url(#path-2-inside-1_81_14208)"/>
<path d="M786.807 308.747C765.812 328.7 658.06 342.002 500.605 342.002C343.15 342.002 233.188 331.55 215.507 309.697" stroke="black" stroke-width="8"/>
<path d="M496.473 91.1643C349.872 91.1643 738.838 105.748 693.098 270.133C685.745 296.559 702.244 327.675 729.433 324.045C744.42 322.045 759.74 320.162 777.239 319.053C780.552 318.842 783.325 316.369 783.653 313.065C793.922 209.686 656.649 91.1643 496.473 91.1643Z" fill="black" fill-opacity="0.25"/>
<path opacity="0.5" d="M787.359 313.972C679.619 345.327 785.149 345.802 703.93 369.555C718.662 369.555 785.662 361.679 824.577 339.521C825.547 338.969 826.399 338.192 826.839 337.166C831.197 326.998 810.033 323.947 787.359 313.972Z" fill="black" fill-opacity="0.25"/>
<path opacity="0.5" d="M214.955 316.348C239.818 333.45 261.919 322.049 245.343 363.855C228.357 361.642 189.794 352.42 179.684 341.182C178.374 339.727 178.26 337.577 179.378 335.97C186.366 325.928 206.789 326.002 214.955 316.348Z" fill="white" fill-opacity="0.25"/>
<path opacity="0.5" d="M375.737 115.868C443.144 94.4894 220.48 196.63 254.184 322.048C235.951 318.723 227.111 314.447 220.481 309.222C233.188 199.48 331.778 133.488 375.737 115.868Z" fill="white" fill-opacity="0.25"/>
<path d="M447.571 145.489C444.27 161.724 430.838 173.727 414.986 173.727C399.364 173.727 386.093 162.069 382.552 146.192C384.383 148.371 386.57 150.472 389.018 152.39C394.329 156.551 401.007 159.965 408.27 161.485C415.55 163.007 423.444 162.629 431.089 159.157C436.928 156.504 442.533 152.086 447.571 145.489Z" fill="#FFED00" stroke="black" stroke-width="4"/>
<mask id="path-10-outside-2_81_14208" maskUnits="userSpaceOnUse" x="283.908" y="209.425" width="106" height="57" fill="black">
<rect fill="white" x="283.908" y="209.425" width="106" height="57"/>
<path d="M385.15 213.807C385.15 220.161 383.893 226.452 381.449 232.323C379.006 238.193 375.424 243.526 370.909 248.019C366.395 252.512 361.035 256.075 355.136 258.507C349.237 260.938 342.914 262.19 336.529 262.19C330.144 262.19 323.821 260.938 317.922 258.507C312.023 256.075 306.663 252.512 302.149 248.019C297.634 243.526 294.052 238.193 291.609 232.323C289.165 226.452 287.908 220.161 287.908 213.807L336.529 213.807H385.15Z"/>
</mask>
<path d="M385.15 213.807C385.15 220.161 383.893 226.452 381.449 232.323C379.006 238.193 375.424 243.526 370.909 248.019C366.395 252.512 361.035 256.075 355.136 258.507C349.237 260.938 342.914 262.19 336.529 262.19C330.144 262.19 323.821 260.938 317.922 258.507C312.023 256.075 306.663 252.512 302.149 248.019C297.634 243.526 294.052 238.193 291.609 232.323C289.165 226.452 287.908 220.161 287.908 213.807L336.529 213.807H385.15Z" fill="#FFED00"/>
<path d="M385.15 213.807C385.15 220.161 383.893 226.452 381.449 232.323C379.006 238.193 375.424 243.526 370.909 248.019C366.395 252.512 361.035 256.075 355.136 258.507C349.237 260.938 342.914 262.19 336.529 262.19C330.144 262.19 323.821 260.938 317.922 258.507C312.023 256.075 306.663 252.512 302.149 248.019C297.634 243.526 294.052 238.193 291.609 232.323C289.165 226.452 287.908 220.161 287.908 213.807L336.529 213.807H385.15Z" stroke="black" stroke-width="8" mask="url(#path-10-outside-2_81_14208)"/>
<mask id="path-11-outside-3_81_14208" maskUnits="userSpaceOnUse" x="297.169" y="209.62" width="79" height="44" fill="black">
<rect fill="white" x="297.169" y="209.62" width="79" height="44"/>
<path d="M371.891 213.807C371.891 218.428 370.976 223.004 369.199 227.273C367.422 231.542 364.817 235.421 361.534 238.689C358.25 241.956 354.352 244.548 350.062 246.316C345.772 248.085 341.174 248.995 336.53 248.995C331.886 248.995 327.288 248.085 322.998 246.316C318.708 244.548 314.809 241.956 311.526 238.689C308.242 235.421 305.638 231.542 303.861 227.273C302.084 223.004 301.169 218.428 301.169 213.807L336.53 213.807H371.891Z"/>
</mask>
<path d="M371.891 213.807C371.891 218.428 370.976 223.004 369.199 227.273C367.422 231.542 364.817 235.421 361.534 238.689C358.25 241.956 354.352 244.548 350.062 246.316C345.772 248.085 341.174 248.995 336.53 248.995C331.886 248.995 327.288 248.085 322.998 246.316C318.708 244.548 314.809 241.956 311.526 238.689C308.242 235.421 305.638 231.542 303.861 227.273C302.084 223.004 301.169 218.428 301.169 213.807L336.53 213.807H371.891Z" fill="#090909"/>
<path d="M371.891 213.807C371.891 218.428 370.976 223.004 369.199 227.273C367.422 231.542 364.817 235.421 361.534 238.689C358.25 241.956 354.352 244.548 350.062 246.316C345.772 248.085 341.174 248.995 336.53 248.995C331.886 248.995 327.288 248.085 322.998 246.316C318.708 244.548 314.809 241.956 311.526 238.689C308.242 235.421 305.638 231.542 303.861 227.273C302.084 223.004 301.169 218.428 301.169 213.807L336.53 213.807H371.891Z" stroke="black" stroke-width="8" mask="url(#path-11-outside-3_81_14208)"/>
<line x1="2" y1="-2" x2="17.6777" y2="-2" transform="matrix(-0.558849 -0.82927 0.895061 -0.445944 398.938 211.915)" stroke="black" stroke-width="4" stroke-linecap="round"/>
<mask id="path-13-outside-4_81_14208" maskUnits="userSpaceOnUse" x="433.089" y="209.275" width="106" height="57" fill="black">
<rect fill="white" x="433.089" y="209.275" width="106" height="57"/>
<path d="M534.331 213.658C534.331 220.012 533.074 226.303 530.63 232.173C528.187 238.043 524.605 243.377 520.091 247.87C515.576 252.362 510.216 255.926 504.317 258.358C498.418 260.789 492.095 262.04 485.71 262.04C479.325 262.04 473.003 260.789 467.104 258.358C461.205 255.926 455.845 252.362 451.33 247.87C446.815 243.377 443.233 238.043 440.79 232.173C438.346 226.303 437.089 220.012 437.089 213.658L485.71 213.658H534.331Z"/>
</mask>
<path d="M534.331 213.658C534.331 220.012 533.074 226.303 530.63 232.173C528.187 238.043 524.605 243.377 520.091 247.87C515.576 252.362 510.216 255.926 504.317 258.358C498.418 260.789 492.095 262.04 485.71 262.04C479.325 262.04 473.003 260.789 467.104 258.358C461.205 255.926 455.845 252.362 451.33 247.87C446.815 243.377 443.233 238.043 440.79 232.173C438.346 226.303 437.089 220.012 437.089 213.658L485.71 213.658H534.331Z" fill="#FFED00"/>
<path d="M534.331 213.658C534.331 220.012 533.074 226.303 530.63 232.173C528.187 238.043 524.605 243.377 520.091 247.87C515.576 252.362 510.216 255.926 504.317 258.358C498.418 260.789 492.095 262.04 485.71 262.04C479.325 262.04 473.003 260.789 467.104 258.358C461.205 255.926 455.845 252.362 451.33 247.87C446.815 243.377 443.233 238.043 440.79 232.173C438.346 226.303 437.089 220.012 437.089 213.658L485.71 213.658H534.331Z" stroke="black" stroke-width="8" mask="url(#path-13-outside-4_81_14208)"/>
<mask id="path-14-outside-5_81_14208" maskUnits="userSpaceOnUse" x="446.347" y="209.471" width="79" height="44" fill="black">
<rect fill="white" x="446.347" y="209.471" width="79" height="44"/>
<path d="M521.069 213.658C521.069 218.279 520.154 222.854 518.377 227.124C516.6 231.393 513.996 235.272 510.712 238.539C507.428 241.807 503.53 244.398 499.24 246.167C494.95 247.935 490.352 248.845 485.708 248.845C481.064 248.845 476.466 247.935 472.176 246.167C467.886 244.398 463.988 241.807 460.704 238.539C457.421 235.272 454.816 231.393 453.039 227.124C451.262 222.854 450.347 218.279 450.347 213.658L485.708 213.658H521.069Z"/>
</mask>
<path d="M521.069 213.658C521.069 218.279 520.154 222.854 518.377 227.124C516.6 231.393 513.996 235.272 510.712 238.539C507.428 241.807 503.53 244.398 499.24 246.167C494.95 247.935 490.352 248.845 485.708 248.845C481.064 248.845 476.466 247.935 472.176 246.167C467.886 244.398 463.988 241.807 460.704 238.539C457.421 235.272 454.816 231.393 453.039 227.124C451.262 222.854 450.347 218.279 450.347 213.658L485.708 213.658H521.069Z" fill="#090909"/>
<path d="M521.069 213.658C521.069 218.279 520.154 222.854 518.377 227.124C516.6 231.393 513.996 235.272 510.712 238.539C507.428 241.807 503.53 244.398 499.24 246.167C494.95 247.935 490.352 248.845 485.708 248.845C481.064 248.845 476.466 247.935 472.176 246.167C467.886 244.398 463.988 241.807 460.704 238.539C457.421 235.272 454.816 231.393 453.039 227.124C451.262 222.854 450.347 218.279 450.347 213.658L485.708 213.658H521.069Z" stroke="black" stroke-width="8" mask="url(#path-14-outside-5_81_14208)"/>
<line x1="2" y1="-2" x2="17.6733" y2="-2" transform="matrix(0.557446 -0.830213 -0.895699 -0.44466 422.211 211.923)" stroke="black" stroke-width="4" stroke-linecap="round"/>
<path d="M420.722 262.665C420.722 263.04 420.495 263.745 419.555 264.707C418.643 265.64 417.237 266.625 415.377 267.526C411.666 269.322 406.442 270.641 400.621 270.641C394.8 270.641 389.576 269.322 385.865 267.526C384.006 266.625 382.599 265.64 381.688 264.707C380.747 263.745 380.521 263.04 380.521 262.665C380.521 262.415 380.618 262.01 381.409 261.453C382.234 260.872 383.576 260.314 385.473 259.846C389.239 258.917 394.576 258.489 400.621 258.489C406.666 258.489 412.003 258.917 415.77 259.846C417.666 260.314 419.009 260.872 419.833 261.453C420.624 262.01 420.722 262.415 420.722 262.665Z" fill="#3C3C3C" stroke="black" stroke-width="4"/>
<path d="M407.25 263.196C407.25 265.295 402.493 268.366 397.305 268.366C393.011 268.366 386.739 266.412 384.08 264.122C383.144 263.316 383.467 262.323 384.667 262.025C387.133 261.414 391.794 260.621 395.648 260.289C400.835 260.289 407.25 261.097 407.25 263.196Z" fill="white" fill-opacity="0.25"/>
<line x1="2" y1="-2" x2="27.749" y2="-2" transform="matrix(-0.557171 0.830397 -0.895835 -0.444387 395.097 268.841)" stroke="black" stroke-width="4" stroke-linecap="round"/>
<line x1="2" y1="-2" x2="27.7504" y2="-2" transform="matrix(-0.557456 -0.830207 0.895704 -0.444651 422.732 293.542)" stroke="black" stroke-width="4" stroke-linecap="round"/>
</g>
<defs>
<filter id="filter0_d_81_14208" x="163" y="41.927" width="671" height="368.083" filterUnits="userSpaceOnUse" color-interpolation-filters="sRGB">
<feFlood flood-opacity="0" result="BackgroundImageFix"/>
<feColorMatrix in="SourceAlpha" type="matrix" values="0 0 0 0 0 0 0 0 0 0 0 0 0 0 0 0 0 0 127 0" result="hardAlpha"/>
<feOffset dx="-1" dy="7"/>
<feGaussianBlur stdDeviation="2"/>
<feComposite in2="hardAlpha" operator="out"/>
<feColorMatrix type="matrix" values="0 0 0 0 0 0 0 0 0 0 0 0 0 0 0 0 0 0 0.25 0"/>
<feBlend mode="normal" in2="BackgroundImageFix" result="effect1_dropShadow_81_14208"/>
<feBlend mode="normal" in="SourceGraphic" in2="effect1_dropShadow_81_14208" result="shape"/>
</filter>
</defs>
</svg>
