<svg width="1000" height="1000" viewBox="0 0 1000 1000" fill="none" xmlns="http://www.w3.org/2000/svg">
<g clip-path="url(#clip0_709_58222)">
<path d="M797.341 680.871C797.341 708.473 775.062 730.828 747.606 730.828C720.15 730.828 697.871 708.473 697.871 680.871C697.871 653.269 720.15 630.915 747.606 630.915C775.062 630.915 797.341 653.269 797.341 680.871Z" fill="#82EB68" stroke="black" stroke-width="6"/>
<path d="M738.255 690.288C754.73 706.833 794.178 694.043 777.703 710.588C761.228 727.132 734.516 727.132 718.04 710.588C701.565 694.043 701.565 667.219 718.04 650.674C734.516 634.13 721.78 673.743 738.255 690.288Z" fill="black" fill-opacity="0.25"/>
<ellipse cx="762.593" cy="660.246" rx="14.9878" ry="15.0508" fill="white" fill-opacity="0.25"/>
<path d="M645.965 701.76C645.965 719.125 631.95 733.181 614.688 733.181C597.425 733.181 583.41 719.125 583.41 701.76C583.41 684.394 597.425 670.338 614.688 670.338C631.95 670.338 645.965 684.394 645.965 701.76Z" fill="#82EB68" stroke="black" stroke-width="6"/>
<path d="M608.61 707.881C619.319 718.635 644.96 710.321 634.251 721.075C623.542 731.829 606.179 731.829 595.47 721.075C584.761 710.321 584.761 692.886 595.47 682.132C606.179 671.378 597.901 697.127 608.61 707.881Z" fill="black" fill-opacity="0.25"/>
<ellipse cx="624.43" cy="688.353" rx="9.74207" ry="9.783" fill="white" fill-opacity="0.25"/>
<path d="M721.251 692.909C721.251 710.275 707.235 724.331 689.973 724.331C672.711 724.331 658.695 710.275 658.695 692.909C658.695 675.543 672.711 661.487 689.973 661.487C707.235 661.487 721.251 675.543 721.251 692.909Z" fill="#82EB68" stroke="black" stroke-width="6"/>
<path d="M683.895 699.03C694.604 709.784 720.245 701.471 709.536 712.225C698.827 722.979 681.465 722.979 670.756 712.225C660.047 701.471 660.047 684.035 670.756 673.281C681.465 662.527 673.186 688.276 683.895 699.03Z" fill="black" fill-opacity="0.25"/>
<ellipse cx="699.715" cy="679.503" rx="9.74207" ry="9.783" fill="white" fill-opacity="0.25"/>
<path d="M886.239 697.527C886.239 723.667 865.141 744.836 839.141 744.836C813.141 744.836 792.043 723.667 792.043 697.527C792.043 671.388 813.141 650.219 839.141 650.219C865.141 650.219 886.239 671.388 886.239 697.527Z" fill="#82EB68" stroke="black" stroke-width="6"/>
<path d="M830.259 706.473C845.91 722.19 883.386 710.04 867.734 725.758C852.082 741.475 826.706 741.475 811.055 725.758C795.403 710.04 795.403 684.557 811.055 668.84C826.706 653.123 814.607 690.756 830.259 706.473Z" fill="black" fill-opacity="0.25"/>
<ellipse cx="853.379" cy="677.933" rx="14.2384" ry="14.2982" fill="white" fill-opacity="0.25"/>
<path d="M810.954 562.87C810.954 577.729 798.963 589.752 784.197 589.752C769.431 589.752 757.439 577.729 757.439 562.87C757.439 548.011 769.431 535.987 784.197 535.987C798.963 535.987 810.954 548.011 810.954 562.87Z" fill="#82EB68" stroke="black" stroke-width="6"/>
<path d="M778.92 568.184C788.217 577.52 810.477 570.303 801.18 579.639C791.883 588.974 776.81 588.974 767.513 579.639C758.216 570.303 758.216 555.166 767.513 545.83C776.81 536.494 769.623 558.848 778.92 568.184Z" fill="black" fill-opacity="0.25"/>
<ellipse cx="792.653" cy="551.231" rx="8.4574" ry="8.49294" fill="white" fill-opacity="0.25"/>
<path d="M678.801 635.414C678.801 645.468 670.688 653.597 660.707 653.597C650.726 653.597 642.613 645.468 642.613 635.414C642.613 625.36 650.726 617.231 660.707 617.231C670.688 617.231 678.801 625.36 678.801 635.414Z" fill="#82EB68" stroke="black" stroke-width="6"/>
<path d="M656.968 639.18C663.558 645.798 679.337 640.682 672.747 647.3C666.157 653.918 655.472 653.918 648.882 647.3C642.292 640.682 642.292 629.953 648.882 623.335C655.472 616.717 650.377 632.562 656.968 639.18Z" fill="black" fill-opacity="0.25"/>
<ellipse cx="666.702" cy="627.164" rx="5.99512" ry="6.02031" fill="white" fill-opacity="0.25"/>
<path d="M922.284 684.36C922.284 692.115 916.026 698.381 908.333 698.381C900.641 698.381 894.383 692.115 894.383 684.36C894.383 676.604 900.641 670.338 908.333 670.338C916.026 670.338 922.284 676.604 922.284 684.36Z" fill="#82EB68" stroke="black" stroke-width="6"/>
<path d="M905.328 687.386C910.624 692.704 923.304 688.593 918.008 693.911C912.712 699.229 904.126 699.229 898.831 693.911C893.535 688.593 893.535 679.971 898.831 674.653C904.126 669.335 900.033 682.068 905.328 687.386Z" fill="black" fill-opacity="0.25"/>
<ellipse cx="913.151" cy="677.73" rx="4.81751" ry="4.83775" fill="white" fill-opacity="0.25"/>
<path d="M710.839 560.98C710.839 567.691 705.425 573.11 698.772 573.11C692.12 573.11 686.705 567.691 686.705 560.98C686.705 554.269 692.12 548.85 698.772 548.85C705.425 548.85 710.839 554.269 710.839 560.98Z" fill="#82EB68" stroke="black" stroke-width="6"/>
<path d="M696.102 563.67C700.809 568.397 712.08 564.743 707.372 569.47C702.665 574.197 695.033 574.197 690.326 569.47C685.619 564.743 685.619 557.079 690.326 552.352C695.033 547.625 691.394 558.943 696.102 563.67Z" fill="black" fill-opacity="0.25"/>
<ellipse cx="703.056" cy="555.087" rx="4.28223" ry="4.30022" fill="white" fill-opacity="0.25"/>
<path d="M769.311 513.239C769.311 518.906 764.74 523.478 759.127 523.478C753.515 523.478 748.943 518.906 748.943 513.239C748.943 507.572 753.515 503 759.127 503C764.74 503 769.311 507.572 769.311 513.239Z" fill="#82EB68" stroke="black" stroke-width="6"/>
<path d="M756.789 515.593C760.908 519.729 770.77 516.532 766.651 520.668C762.532 524.804 755.854 524.804 751.735 520.668C747.616 516.532 747.616 509.826 751.735 505.69C755.854 501.553 752.67 511.457 756.789 515.593Z" fill="black" fill-opacity="0.25"/>
<ellipse cx="762.874" cy="508.083" rx="3.74695" ry="3.76269" fill="white" fill-opacity="0.25"/>
<path d="M769.309 583.548C769.309 593.393 761.365 601.353 751.592 601.353C741.819 601.353 733.875 593.393 733.875 583.548C733.875 573.704 741.819 565.744 751.592 565.744C761.365 565.744 769.309 573.704 769.309 583.548Z" fill="#82EB68" stroke="black" stroke-width="6"/>
<path d="M747.919 587.248C754.391 593.748 769.889 588.723 763.416 595.223C756.944 601.722 746.45 601.722 739.977 595.223C733.505 588.723 733.505 578.185 739.977 571.685C746.45 565.186 741.446 580.748 747.919 587.248Z" fill="black" fill-opacity="0.25"/>
<ellipse cx="757.48" cy="575.446" rx="5.88806" ry="5.9128" fill="white" fill-opacity="0.25"/>
<path d="M947.812 847.171C950.229 856.23 949.427 854.332 953.396 856.355C960.575 860.014 971.694 860.733 983.304 857.608C994.915 854.483 1004.19 848.276 1008.58 841.502C1011.01 837.757 1011.45 838.611 1009.32 830.618C1007.18 822.625 1007.23 823.583 1003.26 821.56C996.084 817.902 984.965 817.183 973.354 820.308C961.743 823.433 952.472 829.639 948.076 836.413C945.646 840.158 945.396 838.113 947.812 847.171Z" fill="#3C3C3C" stroke="black" stroke-width="6"/>
<path d="M948.869 851.129C950.773 858.267 950.083 856.788 953.888 858.199C960.773 860.752 971.696 860.737 983.307 857.612C994.917 854.487 1004.38 849.014 1009.08 843.346C1011.67 840.212 1012.05 840.874 1010.37 834.575C1008.69 828.277 1008.69 829.043 1004.88 827.632C997.999 825.079 987.076 825.094 975.466 828.219C963.855 831.344 954.388 836.816 949.696 842.485C947.103 845.619 946.965 843.99 948.869 851.129Z" fill="black" fill-opacity="0.25"/>
<mask id="path-33-outside-1_709_58222" maskUnits="userSpaceOnUse" x="923.184" y="818.386" width="131.287" height="125.916" fill="black">
<rect fill="white" x="923.184" y="818.386" width="131.287" height="125.916"/>
<path d="M999.338 835.184C1000.03 832.603 1002.69 831.046 1005.18 831.995C1013.5 835.163 1020.82 840.604 1026.27 847.746C1032.71 856.176 1036.2 866.505 1036.2 877.131C1036.2 887.756 1032.71 898.085 1026.27 906.515C1019.83 914.945 1010.8 921.005 1000.59 923.756C990.368 926.506 979.531 925.792 969.758 921.726C959.984 917.66 951.82 910.468 946.53 901.266C941.241 892.063 939.122 881.365 940.503 870.83C941.673 861.905 945.299 853.519 950.929 846.596C952.615 844.523 955.696 844.534 957.577 846.423V846.423C959.449 848.304 959.418 851.333 957.791 853.436C953.619 858.829 950.927 865.262 950.032 872.09C948.928 880.518 950.622 889.077 954.854 896.439C959.085 903.8 965.617 909.554 973.436 912.807C981.255 916.06 989.924 916.631 998.098 914.431C1006.27 912.23 1013.5 907.382 1018.65 900.638C1023.8 893.894 1026.59 885.631 1026.59 877.131C1026.59 868.63 1023.8 860.367 1018.65 853.623C1014.47 848.159 1008.94 843.94 1002.64 841.365C1000.19 840.361 998.653 837.753 999.338 835.184V835.184Z"/>
</mask>
<path d="M999.338 835.184C1000.03 832.603 1002.69 831.046 1005.18 831.995C1013.5 835.163 1020.82 840.604 1026.27 847.746C1032.71 856.176 1036.2 866.505 1036.2 877.131C1036.2 887.756 1032.71 898.085 1026.27 906.515C1019.83 914.945 1010.8 921.005 1000.59 923.756C990.368 926.506 979.531 925.792 969.758 921.726C959.984 917.66 951.82 910.468 946.53 901.266C941.241 892.063 939.122 881.365 940.503 870.83C941.673 861.905 945.299 853.519 950.929 846.596C952.615 844.523 955.696 844.534 957.577 846.423V846.423C959.449 848.304 959.418 851.333 957.791 853.436C953.619 858.829 950.927 865.262 950.032 872.09C948.928 880.518 950.622 889.077 954.854 896.439C959.085 903.8 965.617 909.554 973.436 912.807C981.255 916.06 989.924 916.631 998.098 914.431C1006.27 912.23 1013.5 907.382 1018.65 900.638C1023.8 893.894 1026.59 885.631 1026.59 877.131C1026.59 868.63 1023.8 860.367 1018.65 853.623C1014.47 848.159 1008.94 843.94 1002.64 841.365C1000.19 840.361 998.653 837.753 999.338 835.184V835.184Z" fill="#D7D6DC"/>
<path d="M999.338 835.184C1000.03 832.603 1002.69 831.046 1005.18 831.995C1013.5 835.163 1020.82 840.604 1026.27 847.746C1032.71 856.176 1036.2 866.505 1036.2 877.131C1036.2 887.756 1032.71 898.085 1026.27 906.515C1019.83 914.945 1010.8 921.005 1000.59 923.756C990.368 926.506 979.531 925.792 969.758 921.726C959.984 917.66 951.82 910.468 946.53 901.266C941.241 892.063 939.122 881.365 940.503 870.83C941.673 861.905 945.299 853.519 950.929 846.596C952.615 844.523 955.696 844.534 957.577 846.423V846.423C959.449 848.304 959.418 851.333 957.791 853.436C953.619 858.829 950.927 865.262 950.032 872.09C948.928 880.518 950.622 889.077 954.854 896.439C959.085 903.8 965.617 909.554 973.436 912.807C981.255 916.06 989.924 916.631 998.098 914.431C1006.27 912.23 1013.5 907.382 1018.65 900.638C1023.8 893.894 1026.59 885.631 1026.59 877.131C1026.59 868.63 1023.8 860.367 1018.65 853.623C1014.47 848.159 1008.94 843.94 1002.64 841.365C1000.19 840.361 998.653 837.753 999.338 835.184V835.184Z" stroke="black" stroke-width="12" mask="url(#path-33-outside-1_709_58222)"/>
<path d="M1023.8 954.972C1023.8 1100.2 901.521 1207.15 750.681 1207.15C599.842 1207.15 477.562 1100.2 477.562 954.972C477.562 809.747 599.842 781.574 750.681 781.574C901.521 781.574 1023.8 809.747 1023.8 954.972Z" fill="#3C3C3C" stroke="black" stroke-width="8"/>
<path d="M1023.8 954.972C1023.8 1100.2 901.521 1207.15 750.682 1207.15C599.843 1207.15 883.637 1118.27 883.637 973.044C883.637 827.818 599.843 781.574 750.682 781.574C901.521 781.574 1023.8 809.747 1023.8 954.972Z" fill="black" fill-opacity="0.25"/>
<path d="M936.497 742.558H564.463C588.491 766.692 586.889 788.012 564.463 810.537C660.575 845.935 843.188 844.728 936.497 810.537C916.073 790.023 913.27 765.888 936.497 742.558Z" fill="#3C3C3C" stroke="black" stroke-width="8"/>
<path d="M930.091 743.763H733.061C745.734 767.704 744.889 813.532 733.061 835.877C797.536 839.497 876.428 830.792 931.292 810.133C915.273 787.205 913.271 767.898 930.091 743.763Z" fill="black" fill-opacity="0.25"/>
<rect x="524.016" y="695.495" width="439.713" height="48.2696" rx="24" fill="#3C3C3C" stroke="black" stroke-width="8"/>
<rect x="535.23" y="701.124" width="164.993" height="10.4584" rx="5.22921" fill="white" fill-opacity="0.25"/>
<rect x="772.307" y="695.495" width="191.423" height="48.2696" rx="24" fill="black" fill-opacity="0.25"/>
<path d="M547.549 919.602C534.87 967.131 562.805 1044.74 545.239 1040.02C527.672 1035.29 496.59 963.338 509.269 915.809C521.948 868.281 557.129 834.759 574.695 839.486C592.262 844.214 560.228 872.073 547.549 919.602Z" fill="white" fill-opacity="0.25"/>
<path d="M593.937 780.461C593.937 767.287 580.902 750.792 589.562 750.792C597.61 752.958 611.338 766.383 611.338 780.461C611.338 794.54 593.937 807.583 585.425 807.583C576.912 807.583 593.937 793.635 593.937 780.461Z" fill="white" fill-opacity="0.25"/>
<path d="M554.19 853.611C551.773 862.669 552.575 860.772 548.606 862.795C541.427 866.453 530.308 867.172 518.697 864.047C507.087 860.922 497.815 854.716 493.419 847.941C490.989 844.196 490.553 845.05 492.685 837.057C494.817 829.064 494.77 830.023 498.739 828C505.918 824.341 517.037 823.622 528.648 826.747C540.259 829.872 549.53 836.079 553.926 842.853C556.356 846.598 556.606 844.552 554.19 853.611Z" fill="#3C3C3C" stroke="black" stroke-width="6"/>
<path d="M551.671 856.117C549.935 862.624 550.572 861.278 547.02 862.542C540.595 864.829 530.375 864.744 519.49 861.815C508.606 858.885 499.713 853.826 495.287 848.618C492.84 845.74 492.484 846.341 494.016 840.6C495.548 834.858 495.556 835.558 499.108 834.294C505.533 832.007 515.754 832.092 526.638 835.021C537.522 837.95 546.416 843.01 550.841 848.217C553.288 851.096 553.407 849.61 551.671 856.117Z" fill="black" fill-opacity="0.25"/>
<mask id="path-45-outside-2_709_58222" maskUnits="userSpaceOnUse" x="447.533" y="824.819" width="131.287" height="125.916" fill="black">
<rect fill="white" x="447.533" y="824.819" width="131.287" height="125.916"/>
<path d="M502.666 841.617C501.977 839.036 499.314 837.48 496.823 838.428C488.501 841.596 481.186 847.037 475.73 854.18C469.29 862.61 465.8 872.938 465.8 883.564C465.8 894.19 469.29 904.519 475.73 912.949C482.17 921.379 491.2 927.439 501.418 930.189C511.636 932.939 522.473 932.226 532.246 928.16C542.02 924.093 550.184 916.901 555.474 907.699C560.763 898.497 562.882 887.799 561.501 877.264C560.331 868.338 556.705 859.953 551.075 853.03C549.389 850.957 546.308 850.968 544.427 852.857V852.857C542.555 854.738 542.586 857.767 544.213 859.87C548.385 865.263 551.077 871.696 551.972 878.524C553.076 886.952 551.382 895.51 547.15 902.872C542.919 910.234 536.387 915.987 528.568 919.241C520.749 922.494 512.08 923.064 503.906 920.864C495.731 918.664 488.507 913.816 483.355 907.072C478.203 900.328 475.411 892.065 475.411 883.564C475.411 875.064 478.203 866.801 483.355 860.057C487.529 854.593 493.063 850.373 499.36 847.798C501.817 846.794 503.351 844.186 502.666 841.617V841.617Z"/>
</mask>
<path d="M502.666 841.617C501.977 839.036 499.314 837.48 496.823 838.428C488.501 841.596 481.186 847.037 475.73 854.18C469.29 862.61 465.8 872.938 465.8 883.564C465.8 894.19 469.29 904.519 475.73 912.949C482.17 921.379 491.2 927.439 501.418 930.189C511.636 932.939 522.473 932.226 532.246 928.16C542.02 924.093 550.184 916.901 555.474 907.699C560.763 898.497 562.882 887.799 561.501 877.264C560.331 868.338 556.705 859.953 551.075 853.03C549.389 850.957 546.308 850.968 544.427 852.857V852.857C542.555 854.738 542.586 857.767 544.213 859.87C548.385 865.263 551.077 871.696 551.972 878.524C553.076 886.952 551.382 895.51 547.15 902.872C542.919 910.234 536.387 915.987 528.568 919.241C520.749 922.494 512.08 923.064 503.906 920.864C495.731 918.664 488.507 913.816 483.355 907.072C478.203 900.328 475.411 892.065 475.411 883.564C475.411 875.064 478.203 866.801 483.355 860.057C487.529 854.593 493.063 850.373 499.36 847.798C501.817 846.794 503.351 844.186 502.666 841.617V841.617Z" fill="#D7D6DC"/>
<path d="M502.666 841.617C501.977 839.036 499.314 837.48 496.823 838.428C488.501 841.596 481.186 847.037 475.73 854.18C469.29 862.61 465.8 872.938 465.8 883.564C465.8 894.19 469.29 904.519 475.73 912.949C482.17 921.379 491.2 927.439 501.418 930.189C511.636 932.939 522.473 932.226 532.246 928.16C542.02 924.093 550.184 916.901 555.474 907.699C560.763 898.497 562.882 887.799 561.501 877.264C560.331 868.338 556.705 859.953 551.075 853.03C549.389 850.957 546.308 850.968 544.427 852.857V852.857C542.555 854.738 542.586 857.767 544.213 859.87C548.385 865.263 551.077 871.696 551.972 878.524C553.076 886.952 551.382 895.51 547.15 902.872C542.919 910.234 536.387 915.987 528.568 919.241C520.749 922.494 512.08 923.064 503.906 920.864C495.731 918.664 488.507 913.816 483.355 907.072C478.203 900.328 475.411 892.065 475.411 883.564C475.411 875.064 478.203 866.801 483.355 860.057C487.529 854.593 493.063 850.373 499.36 847.798C501.817 846.794 503.351 844.186 502.666 841.617V841.617Z" stroke="black" stroke-width="12" mask="url(#path-45-outside-2_709_58222)"/>
</g>
<defs>
<clipPath id="clip0_709_58222">
<rect width="1000" height="1000" fill="white"/>
</clipPath>
</defs>
</svg>
