<svg width="1000" height="1000" viewBox="0 0 1000 1000" fill="none" xmlns="http://www.w3.org/2000/svg">
<path d="M273.714 279.4C273.714 268.575 282.489 259.799 293.314 259.799H702.125C712.95 259.799 721.725 268.575 721.725 279.4C721.725 290.225 712.95 299 702.125 299H293.314C282.489 299 273.714 290.225 273.714 279.4Z" fill="black" fill-opacity="0.25"/>
<rect x="288.249" y="192.12" width="420.173" height="81.9861" fill="#FFC700" stroke="black" stroke-width="8"/>
<path d="M282.165 239.547C269.217 239.547 258.72 250.044 258.72 262.992C258.72 275.94 269.217 286.437 282.165 286.437H713.275C726.223 286.437 736.72 275.94 736.72 262.992C736.72 250.044 726.223 239.547 713.275 239.547H282.165Z" fill="#FFA800" stroke="black" stroke-width="8"/>
<path d="M352.198 41.3018H349.435L348.457 43.8859L288.508 202.292L286.458 207.708H292.249H704.981H710.871L708.699 202.233L645.861 43.8268L644.859 41.3018H642.143H620.474H617.711L616.733 43.8859L574.01 156.774C570.454 166.17 557.202 166.275 553.497 156.937L508.627 43.8268L507.626 41.3018H504.909H483.241H480.478L479.5 43.8859L439.799 148.788C436.244 158.183 422.991 158.288 419.287 148.95L377.585 43.8268L376.583 41.3018H373.867H352.198Z" fill="#FFC700" stroke="black" stroke-width="8"/>
<path d="M640.443 53.8389L703.281 212.245" stroke="black" stroke-opacity="0.25" stroke-width="10"/>
<path d="M502.642 53.8389L542.013 151.538" stroke="black" stroke-opacity="0.25" stroke-width="10" stroke-linecap="round"/>
<path d="M370.992 53.8389L410.363 151.538" stroke="black" stroke-opacity="0.25" stroke-width="10" stroke-linecap="round"/>
<path d="M498.279 247.546C522.754 247.546 543.105 229.039 543.105 205.605C543.105 182.17 522.754 163.663 498.279 163.663C473.803 163.663 453.453 182.17 453.453 205.605C453.453 229.039 473.803 247.546 498.279 247.546Z" fill="#07D57E" stroke="black" stroke-width="8"/>
<ellipse cx="482.956" cy="186.634" rx="12.3037" ry="9.4854" fill="white" fill-opacity="0.7"/>
<path d="M498.28 243.546C520.828 243.546 539.106 226.559 539.106 205.605C539.106 184.65 520.828 167.663 498.28 167.663" stroke="black" stroke-opacity="0.25" stroke-width="10" stroke-linecap="round"/>
<path d="M693.349 281.488C713.734 281.488 730.26 272.995 730.26 262.518C730.26 252.04 713.734 243.547 693.349 243.547" stroke="black" stroke-opacity="0.25" stroke-width="10" stroke-linecap="round"/>
<path d="M602.861 231.422C618.965 231.422 632.586 219.314 632.586 203.708C632.586 188.102 618.965 175.995 602.861 175.995C586.756 175.995 573.135 188.102 573.135 203.708C573.135 219.314 586.756 231.422 602.861 231.422Z" fill="#F72087" fill-opacity="0.99" stroke="black" stroke-width="8"/>
<ellipse cx="592.459" cy="191.377" rx="6.15183" ry="4.7427" fill="white" fill-opacity="0.7"/>
<path d="M393.698 231.422C409.803 231.422 423.424 219.314 423.424 203.708C423.424 188.102 409.803 175.995 393.698 175.995C377.594 175.995 363.973 188.102 363.973 203.708C363.973 219.314 377.594 231.422 393.698 231.422Z" fill="#F72087" fill-opacity="0.99" stroke="black" stroke-width="8"/>
<path d="M292.473 231.422C305.75 231.422 314.929 218.023 314.929 203.708C314.929 189.394 305.75 175.995 292.473 175.995C279.196 175.995 270.018 189.394 270.018 203.708C270.018 218.023 279.196 231.422 292.473 231.422Z" fill="#07D57E" stroke="black" stroke-width="8"/>
<path d="M702.968 231.422C716.245 231.422 725.423 218.023 725.423 203.708C725.423 189.394 716.245 175.995 702.968 175.995C689.691 175.995 680.512 189.394 680.512 203.708C680.512 218.023 689.691 231.422 702.968 231.422Z" fill="#07D57E" stroke="black" stroke-width="8"/>
<ellipse cx="698.27" cy="191.377" rx="6.15183" ry="4.7427" fill="white" fill-opacity="0.7"/>
<ellipse cx="286.098" cy="191.377" rx="6.15183" ry="4.7427" fill="white" fill-opacity="0.7"/>
<ellipse cx="384.526" cy="191.377" rx="6.15183" ry="4.7427" fill="white" fill-opacity="0.7"/>
<path d="M495.483 65.427C511.587 65.427 525.209 53.3197 525.209 37.7135C525.209 22.1072 511.587 10 495.483 10C479.379 10 465.757 22.1072 465.757 37.7135C465.757 53.3197 479.379 65.427 495.483 65.427Z" fill="#FFC700" stroke="black" stroke-width="8"/>
<path d="M363.498 65.427C379.602 65.427 393.224 53.3197 393.224 37.7135C393.224 22.1072 379.602 10 363.498 10C347.394 10 333.772 22.1072 333.772 37.7135C333.772 53.3197 347.394 65.427 363.498 65.427Z" fill="#FFC700" stroke="black" stroke-width="8"/>
<path d="M630.823 65.427C646.928 65.427 660.549 53.3197 660.549 37.7135C660.549 22.1072 646.928 10 630.823 10C614.719 10 601.098 22.1072 601.098 37.7135C601.098 53.3197 614.719 65.427 630.823 65.427Z" fill="#FFC700" stroke="black" stroke-width="8"/>
<path d="M633.06 57.6329C644.611 57.6329 653.976 48.7147 653.976 37.7135C653.976 26.7124 644.611 17.7942 633.06 17.7942" stroke="#BF9500" stroke-width="8" stroke-linecap="round"/>
<path d="M495.26 57.6329C506.811 57.6329 516.176 48.7147 516.176 37.7135C516.176 26.7124 506.811 17.7942 495.26 17.7942" stroke="#BF9500" stroke-width="8" stroke-linecap="round"/>
<path d="M364.841 57.6329C376.393 57.6329 385.757 48.7147 385.757 37.7135C385.757 26.7124 376.393 17.7942 364.841 17.7942" stroke="#BF9500" stroke-width="8" stroke-linecap="round"/>
<path d="M602.301 225.524C615.212 225.524 625.678 215.757 625.678 203.708C625.678 191.659 615.212 181.892 602.301 181.892" stroke="black" stroke-opacity="0.25" stroke-width="10" stroke-linecap="round"/>
<path d="M698.269 225.524C711.18 225.524 721.646 215.757 721.646 203.708C721.646 191.659 711.18 181.892 698.269 181.892" stroke="black" stroke-opacity="0.25" stroke-width="10" stroke-linecap="round"/>
<path d="M390.678 225.524C403.588 225.524 414.055 215.757 414.055 203.708C414.055 191.659 403.588 181.892 390.678 181.892" stroke="black" stroke-opacity="0.25" stroke-width="10" stroke-linecap="round"/>
<path d="M283.636 225.524C296.546 225.524 307.013 215.757 307.013 203.708C307.013 191.659 296.546 181.892 283.636 181.892" stroke="black" stroke-opacity="0.25" stroke-width="10" stroke-linecap="round"/>
</svg>
