<svg width="1000" height="1000" viewBox="0 0 1000 1000" fill="none" xmlns="http://www.w3.org/2000/svg">
<g filter="url(#filter0_d_561_6104)">
<path d="M821.011 307.041C821.902 337.022 820.809 369.095 810.083 398.001C806.198 408.469 792.96 410.253 784.459 403.013C642.365 282.019 362.608 283.931 239.613 302.67C240.526 265.573 251.112 229.119 270.595 195.976C290.079 162.832 317.968 133.838 352.223 111.113C386.478 88.3873 426.231 72.5062 468.577 64.6309C510.922 56.7557 554.787 57.0855 596.964 65.5961C639.141 74.1068 678.563 90.5831 712.347 113.82C746.13 137.057 773.421 166.466 792.222 199.897C811.023 233.328 820.859 269.935 821.011 307.041Z" fill="#750787"/>
<path d="M818.011 307.053L818.012 307.092L818.013 307.13C818.901 337.036 817.785 368.622 807.27 396.957C805.734 401.095 802.397 403.508 798.485 404.192C794.518 404.886 789.983 403.777 786.404 400.729C714.684 339.659 608.51 309.791 505.229 297.463C403.838 285.36 304.755 290.106 242.731 299.172C244.201 263.835 254.573 229.151 273.182 197.496C292.419 164.772 319.979 136.104 353.881 113.612C387.784 91.1207 427.157 75.3855 469.125 67.5804C511.093 59.7753 554.571 60.1023 596.371 68.5369C638.171 76.9715 677.213 93.2955 710.647 116.292C744.079 139.287 771.046 168.363 789.607 201.368C808.166 234.369 817.862 270.476 818.011 307.053Z" stroke="black" stroke-width="6"/>
</g>
<path d="M821.012 307.3C821.15 340.857 818.376 372.181 803.991 402.674C801.728 407.471 795.428 408.363 791.51 404.787C768.551 383.829 740.918 366.278 711.858 351.933C794.489 311.957 744.672 177.851 711.857 114.547C745.793 137.727 773.206 167.066 792.092 200.416C810.978 233.766 820.859 270.285 821.012 307.3Z" fill="black" fill-opacity="0.25"/>
<path d="M456.818 68.5779C498.713 60.7792 554.029 60.1138 595.708 68.4973C662.199 90.7991 689.052 144.272 695.659 199.548C702.102 253.449 689.182 308.546 675.228 336.733C530.669 278.937 341.397 284.562 242.706 299.068C243.707 263.272 246.723 228.794 265.141 197.435C284.337 164.752 312.778 135.999 346.661 113.499C380.553 90.9942 414.949 76.3717 456.818 68.5779Z" fill="#929292" stroke="black" stroke-width="6"/>
<path d="M589.407 65.2267C726.088 110.784 699.429 284.636 669.906 340.542C638.903 327.975 605.775 318.353 571.877 311.136C630.002 163 589.407 79.5 519.865 65.2267C520.145 60.4971 534.446 53.8757 589.407 65.2267Z" fill="black" fill-opacity="0.25"/>
<g filter="url(#filter1_d_561_6104)">
<path d="M679.938 333.708C529.363 255.338 342.554 262.877 243.232 279.895C218.362 283.66 142.372 305.003 109.213 338.264C266.72 294.067 420.479 351.952 575.002 372C609.002 376.411 654.288 368.792 679.938 333.708Z" fill="#929292"/>
<path d="M243.681 282.861L243.71 282.857L243.738 282.852C342.093 266 526.208 258.546 675.382 334.734C650.316 366.186 607.906 373.244 575.388 369.025C536.864 364.027 498.368 356.668 459.758 349.112C456.7 348.513 453.641 347.913 450.581 347.313C415.04 340.345 379.395 333.356 343.665 328.073C270.072 317.189 195.878 313.497 120.767 332.11C136.851 319.593 158.835 309.007 180.396 300.823C206.49 290.919 231.497 284.706 243.681 282.861Z" stroke="black" stroke-width="6"/>
</g>
<path d="M572.502 368C640.002 368 647.118 363.404 673.765 332.34C631.35 312.968 589.877 300.397 543.14 291.789C567.84 347.376 434.098 334.859 281.502 318C323.33 329.8 528.415 362.395 572.502 368Z" fill="black" fill-opacity="0.25"/>
<path d="M185.342 373.259C95.0016 385.5 88.0339 351.933 116.59 336.441C154.396 319.914 221.501 312.5 311.001 323.5C281.501 326 252.001 345.5 234.001 358.5C219.501 366.5 203.736 370.766 185.342 373.259Z" fill="#929292" stroke="black" stroke-width="6"/>
<path d="M129.002 333.5C156.865 303 251.501 304.5 364.501 330C252 312.175 251.5 377.5 154.5 374C129.002 374 114.416 349.466 129.002 333.5Z" fill="black" fill-opacity="0.25"/>
<g filter="url(#filter2_d_561_6104)">
<mask id="path-11-outside-1_561_6104" maskUnits="userSpaceOnUse" x="352.386" y="140.494" width="107.649" height="106.366" fill="black">
<rect fill="white" x="352.386" y="140.494" width="107.649" height="106.366"/>
<path d="M409.347 177.266C409.731 172.073 410.802 167.487 412.559 163.509C413.25 161.836 414.152 160.174 415.267 158.524C416.381 156.873 417.737 155.44 419.336 154.223C420.935 153.007 422.774 152.047 424.853 151.346C426.931 150.644 429.368 150.369 432.162 150.521C435.366 150.939 438.313 152.118 441.004 154.056C443.287 155.728 445.39 158.286 447.315 161.731C449.33 165.099 450.548 169.768 450.969 175.739C451.315 181.542 451.383 187.004 451.173 192.125C450.964 197.246 450.662 201.751 450.268 205.64C449.753 210.175 449.171 214.379 448.524 218.255C447.787 222.207 446.523 225.723 444.732 228.803C443.975 230.147 443.051 231.441 441.961 232.685C440.874 233.848 439.581 234.918 438.081 235.896C436.67 236.797 435.06 237.483 433.249 237.955C431.438 238.427 429.389 238.601 427.103 238.477C424.563 238.339 422.343 237.811 420.442 236.893C418.541 235.975 416.909 234.827 415.544 233.45C414.184 231.991 413.042 230.422 412.12 228.742C411.287 226.986 410.58 225.237 410.001 223.495C408.71 219.351 408.043 214.712 407.999 209.577L403.299 209.321C402.492 214.492 401.128 219.021 399.205 222.908C398.345 224.572 397.316 226.227 396.117 227.873C395.007 229.442 393.696 230.837 392.181 232.058C390.672 233.198 388.92 234.122 386.926 234.828C384.932 235.534 382.707 235.821 380.252 235.688C376.785 235.418 373.701 234.395 371 232.619C369.857 231.823 368.68 230.863 367.471 229.739C366.346 228.618 365.323 227.219 364.4 225.539C363.482 223.778 362.705 221.781 362.069 219.547C361.523 217.236 361.209 214.571 361.128 211.552C360.857 204.45 360.875 198.218 361.184 192.858C361.581 187.421 362.017 182.801 362.49 178.998C363.086 174.55 363.773 170.717 364.553 167.501C365.45 163.72 366.789 160.371 368.571 157.454C369.323 156.191 370.2 154.976 371.201 153.808C372.287 152.645 373.493 151.611 374.82 150.705C376.23 149.804 377.756 149.113 379.398 148.632C381.124 148.156 383.003 147.973 385.035 148.083C387.829 148.235 390.219 148.772 392.205 149.694C394.19 150.617 395.907 151.769 397.357 153.152C398.806 154.534 399.947 156.103 400.781 157.859C401.703 159.539 402.454 161.25 403.034 162.992C404.324 167.135 404.82 171.806 404.521 177.004L409.347 177.266Z"/>
</mask>
<path d="M409.347 177.266C409.731 172.073 410.802 167.487 412.559 163.509C413.25 161.836 414.152 160.174 415.267 158.524C416.381 156.873 417.737 155.44 419.336 154.223C420.935 153.007 422.774 152.047 424.853 151.346C426.931 150.644 429.368 150.369 432.162 150.521C435.366 150.939 438.313 152.118 441.004 154.056C443.287 155.728 445.39 158.286 447.315 161.731C449.33 165.099 450.548 169.768 450.969 175.739C451.315 181.542 451.383 187.004 451.173 192.125C450.964 197.246 450.662 201.751 450.268 205.64C449.753 210.175 449.171 214.379 448.524 218.255C447.787 222.207 446.523 225.723 444.732 228.803C443.975 230.147 443.051 231.441 441.961 232.685C440.874 233.848 439.581 234.918 438.081 235.896C436.67 236.797 435.06 237.483 433.249 237.955C431.438 238.427 429.389 238.601 427.103 238.477C424.563 238.339 422.343 237.811 420.442 236.893C418.541 235.975 416.909 234.827 415.544 233.45C414.184 231.991 413.042 230.422 412.12 228.742C411.287 226.986 410.58 225.237 410.001 223.495C408.71 219.351 408.043 214.712 407.999 209.577L403.299 209.321C402.492 214.492 401.128 219.021 399.205 222.908C398.345 224.572 397.316 226.227 396.117 227.873C395.007 229.442 393.696 230.837 392.181 232.058C390.672 233.198 388.92 234.122 386.926 234.828C384.932 235.534 382.707 235.821 380.252 235.688C376.785 235.418 373.701 234.395 371 232.619C369.857 231.823 368.68 230.863 367.471 229.739C366.346 228.618 365.323 227.219 364.4 225.539C363.482 223.778 362.705 221.781 362.069 219.547C361.523 217.236 361.209 214.571 361.128 211.552C360.857 204.45 360.875 198.218 361.184 192.858C361.581 187.421 362.017 182.801 362.49 178.998C363.086 174.55 363.773 170.717 364.553 167.501C365.45 163.72 366.789 160.371 368.571 157.454C369.323 156.191 370.2 154.976 371.201 153.808C372.287 152.645 373.493 151.611 374.82 150.705C376.23 149.804 377.756 149.113 379.398 148.632C381.124 148.156 383.003 147.973 385.035 148.083C387.829 148.235 390.219 148.772 392.205 149.694C394.19 150.617 395.907 151.769 397.357 153.152C398.806 154.534 399.947 156.103 400.781 157.859C401.703 159.539 402.454 161.25 403.034 162.992C404.324 167.135 404.82 171.806 404.521 177.004L409.347 177.266Z" fill="white"/>
<path d="M409.347 177.266L409.003 183.256L414.897 183.576L415.332 177.689L409.347 177.266ZM412.559 163.509L418.047 165.919L418.077 165.851L418.105 165.783L412.559 163.509ZM415.267 158.524L410.296 155.179L410.296 155.179L415.267 158.524ZM419.336 154.223L415.711 149.454L415.711 149.454L419.336 154.223ZM424.853 151.346L426.756 157.029L426.756 157.029L424.853 151.346ZM432.162 150.521L432.958 144.572L432.733 144.543L432.507 144.531L432.162 150.521ZM441.004 154.056L444.562 149.214L444.542 149.199L444.523 149.185L441.004 154.056ZM447.315 161.731L442.074 164.67L442.117 164.746L442.162 164.822L447.315 161.731ZM450.969 175.739L456.959 175.363L456.958 175.33L456.955 175.298L450.969 175.739ZM451.173 192.125L445.177 191.899L451.173 192.125ZM450.268 205.64L456.231 206.299L456.235 206.262L456.239 206.225L450.268 205.64ZM448.524 218.255L454.423 219.336L454.433 219.281L454.443 219.225L448.524 218.255ZM444.732 228.803L439.546 225.8L439.525 225.836L439.505 225.873L444.732 228.803ZM441.961 232.685L446.341 236.771L446.406 236.702L446.468 236.631L441.961 232.685ZM438.081 235.896L441.301 240.948L441.324 240.933L441.347 240.918L438.081 235.896ZM433.249 237.955L431.752 232.151L431.752 232.151L433.249 237.955ZM420.442 236.893L417.818 242.296L417.818 242.296L420.442 236.893ZM415.544 233.45L411.148 237.547L411.209 237.613L411.273 237.678L415.544 233.45ZM412.12 228.742L406.696 231.327L406.772 231.487L406.858 231.643L412.12 228.742ZM410.001 223.495L404.271 225.294L404.288 225.349L404.306 225.403L410.001 223.495ZM407.999 209.577L413.999 209.506L413.951 203.891L408.343 203.587L407.999 209.577ZM403.299 209.321L403.644 203.331L398.21 203.036L397.37 208.415L403.299 209.321ZM399.205 222.908L404.535 225.648L404.56 225.601L404.583 225.553L399.205 222.908ZM396.117 227.873L391.27 224.352L391.245 224.386L391.22 224.421L396.117 227.873ZM392.181 232.058L395.789 236.841L395.866 236.783L395.941 236.723L392.181 232.058ZM386.926 234.828L388.914 240.482L386.926 234.828ZM380.252 235.688L379.767 241.668L379.837 241.674L379.907 241.678L380.252 235.688ZM371 232.619L367.562 237.546L367.626 237.591L367.691 237.634L371 232.619ZM367.471 229.739L363.229 233.995L363.301 234.067L363.376 234.137L367.471 229.739ZM364.4 225.539L359.076 228.325L359.107 228.382L359.138 228.439L364.4 225.539ZM362.069 219.547L356.229 220.945L356.26 221.076L356.297 221.205L362.069 219.547ZM361.128 211.552L367.126 211.372L367.126 211.338L367.124 211.305L361.128 211.552ZM361.184 192.858L355.198 192.44L355.195 192.486L355.192 192.533L361.184 192.858ZM362.49 178.998L356.542 178.221L356.539 178.248L356.535 178.276L362.49 178.998ZM364.553 167.501L370.385 168.896L370.389 168.882L370.392 168.868L364.553 167.501ZM368.571 157.454L373.69 160.568L373.708 160.539L373.724 160.511L368.571 157.454ZM371.201 153.808L366.821 149.722L366.734 149.815L366.651 149.912L371.201 153.808ZM374.82 150.705L371.6 145.653L371.522 145.703L371.445 145.755L374.82 150.705ZM379.398 148.632L377.817 142.85L377.772 142.863L377.726 142.876L379.398 148.632ZM392.205 149.694L389.661 155.136L389.661 155.136L392.205 149.694ZM397.357 153.152L401.506 148.805L401.506 148.805L397.357 153.152ZM400.781 157.859L395.357 160.444L395.433 160.604L395.519 160.76L400.781 157.859ZM403.034 162.992L408.764 161.192L408.747 161.138L408.729 161.084L403.034 162.992ZM404.521 177.004L398.53 176.678L398.185 182.669L404.177 182.994L404.521 177.004ZM415.332 177.689C415.675 173.049 416.617 169.156 418.047 165.919L407.071 161.1C404.986 165.818 403.787 171.097 403.363 176.843L415.332 177.689ZM418.105 165.783C418.627 164.52 419.329 163.215 420.238 161.869L410.296 155.179C408.976 157.133 407.873 159.152 407.013 161.236L418.105 165.783ZM420.238 161.869C420.981 160.768 421.881 159.814 422.961 158.992L415.711 149.454C413.593 151.066 411.781 152.979 410.296 155.179L420.238 161.869ZM422.961 158.992C423.994 158.207 425.24 157.541 426.756 157.029L422.949 145.663C420.308 146.554 417.876 147.807 415.711 149.454L422.961 158.992ZM426.756 157.029C427.942 156.628 429.583 156.389 431.818 156.511L432.507 144.531C429.153 144.348 425.921 144.659 422.949 145.663L426.756 157.029ZM431.366 156.469C433.558 156.755 435.575 157.551 437.486 158.927L444.523 149.185C441.051 146.685 437.173 145.123 432.958 144.572L431.366 156.469ZM437.447 158.899C438.821 159.905 440.413 161.697 442.074 164.67L452.557 158.793C450.368 154.876 447.752 151.551 444.562 149.214L437.447 158.899ZM442.162 164.822C443.509 167.073 444.596 170.7 444.983 176.179L456.955 175.298C456.5 168.837 455.151 163.126 452.469 158.641L442.162 164.822ZM444.979 176.114C445.314 181.743 445.378 187.003 445.177 191.899L457.169 192.351C457.388 187.005 457.316 181.34 456.959 175.363L444.979 176.114ZM445.177 191.899C444.971 196.935 444.676 201.316 444.298 205.055L456.239 206.225C456.648 202.187 456.956 197.558 457.169 192.351L445.177 191.899ZM444.306 204.982C443.8 209.428 443.233 213.528 442.605 217.285L454.443 219.225C455.11 215.231 455.705 210.922 456.231 206.299L444.306 204.982ZM442.624 217.174C441.997 220.536 440.949 223.387 439.546 225.8L449.918 231.805C452.096 228.058 453.576 223.878 454.423 219.336L442.624 217.174ZM439.505 225.873C438.966 226.829 438.289 227.785 437.453 228.739L446.468 236.631C447.814 235.096 448.984 233.464 449.959 231.733L439.505 225.873ZM437.58 228.599C436.865 229.365 435.957 230.129 434.815 230.874L441.347 240.918C443.205 239.707 444.884 238.331 446.341 236.771L437.58 228.599ZM434.862 230.844C434.041 231.367 433.024 231.819 431.752 232.151L434.745 243.76C437.095 243.148 439.299 242.226 441.301 240.948L434.862 230.844ZM431.752 232.151C430.659 232.435 429.248 232.585 427.448 232.487L426.759 244.467C429.531 244.618 432.217 244.419 434.745 243.76L431.752 232.151ZM427.448 232.487C425.542 232.383 424.124 232.001 423.066 231.49L417.818 242.296C420.561 243.621 423.585 244.295 426.759 244.467L427.448 232.487ZM423.066 231.49C421.724 230.841 420.661 230.076 419.815 229.222L411.273 237.678C413.156 239.578 415.359 241.109 417.818 242.296L423.066 231.49ZM419.94 229.352C418.903 228.24 418.057 227.071 417.382 225.842L406.858 231.643C408.028 233.773 409.464 235.741 411.148 237.547L419.94 229.352ZM417.543 226.157C416.808 224.608 416.195 223.085 415.696 221.586L404.306 225.403C404.966 227.389 405.765 229.364 406.696 231.327L417.543 226.157ZM415.731 221.695C414.643 218.202 414.04 214.158 413.999 209.506L401.998 209.648C402.046 215.266 402.777 220.5 404.271 225.294L415.731 221.695ZM408.343 203.587L403.644 203.331L402.955 215.312L407.654 215.567L408.343 203.587ZM397.37 208.415C396.638 213.102 395.429 217.024 393.827 220.264L404.583 225.553C406.826 221.017 408.346 215.881 409.229 210.228L397.37 208.415ZM393.876 220.168C393.168 221.537 392.303 222.933 391.27 224.352L400.964 231.394C402.328 229.522 403.523 227.607 404.535 225.648L393.876 220.168ZM391.22 224.421C390.436 225.53 389.508 226.518 388.422 227.394L395.941 236.723C397.883 235.156 399.579 233.354 401.014 231.325L391.22 224.421ZM388.574 227.276C387.611 228.003 386.419 228.65 384.938 229.174L388.914 240.482C391.421 239.594 393.733 238.394 395.789 236.841L388.574 227.276ZM384.938 229.174C383.804 229.576 382.388 229.795 380.596 229.697L379.907 241.678C383.026 241.847 386.06 241.493 388.914 240.482L384.938 229.174ZM380.736 229.707C378.201 229.509 376.103 228.784 374.309 227.604L367.691 237.634C371.298 240.006 375.369 241.326 379.767 241.668L380.736 229.707ZM374.438 227.691C373.564 227.083 372.606 226.308 371.566 225.341L363.376 234.137C364.755 235.419 366.15 236.564 367.562 237.546L374.438 227.691ZM371.713 225.482C371.065 224.836 370.366 223.919 369.662 222.639L359.138 228.439C360.28 230.518 361.628 232.401 363.229 233.995L371.713 225.482ZM369.724 222.753C369.021 221.406 368.385 219.796 367.842 217.888L356.297 221.205C357.026 223.766 357.943 226.15 359.076 228.325L369.724 222.753ZM367.909 218.149C367.479 216.328 367.199 214.085 367.126 211.372L355.129 211.732C355.218 215.057 355.567 218.144 356.229 220.945L367.909 218.149ZM367.124 211.305C366.858 204.336 366.88 198.303 367.175 193.184L355.192 192.533C354.87 198.133 354.855 204.563 355.131 211.8L367.124 211.305ZM367.169 193.277C367.562 187.903 367.988 183.39 368.445 179.72L356.535 178.276C356.045 182.212 355.601 186.94 355.198 192.44L367.169 193.277ZM368.438 179.775C369.015 175.467 369.669 171.851 370.385 168.896L358.721 166.106C357.878 169.583 357.157 173.632 356.542 178.221L368.438 179.775ZM370.392 168.868C371.162 165.62 372.281 162.876 373.69 160.568L363.451 154.34C361.297 157.867 359.738 161.82 358.714 166.134L370.392 168.868ZM373.724 160.511C374.292 159.558 374.965 158.622 375.752 157.705L366.651 149.912C365.435 151.33 364.354 152.824 363.417 154.397L373.724 160.511ZM375.582 157.895C376.362 157.059 377.231 156.313 378.194 155.655L371.445 145.755C369.756 146.909 368.212 148.232 366.821 149.722L375.582 157.895ZM378.039 155.758C378.959 155.17 379.962 154.713 381.07 154.388L377.726 142.876C375.551 143.514 373.502 144.439 371.6 145.653L378.039 155.758ZM380.978 154.414C381.998 154.133 383.219 153.993 384.691 154.073L385.38 142.093C382.787 141.952 380.25 142.179 377.817 142.85L380.978 154.414ZM384.691 154.073C386.925 154.194 388.529 154.61 389.661 155.136L394.748 144.253C391.91 142.934 388.734 142.275 385.38 142.093L384.691 154.073ZM389.661 155.136C391.109 155.809 392.271 156.606 393.207 157.498L401.506 148.805C399.544 146.933 397.271 145.425 394.748 144.253L389.661 155.136ZM393.207 157.498C394.144 158.392 394.847 159.369 395.357 160.444L406.204 155.274C405.048 152.837 403.468 150.676 401.506 148.805L393.207 157.498ZM395.519 160.76C396.275 162.136 396.878 163.516 397.338 164.9L408.729 161.084C408.031 158.983 407.132 156.941 406.043 154.959L395.519 160.76ZM397.303 164.792C398.342 168.127 398.795 172.061 398.53 176.678L410.512 177.329C410.845 171.552 410.306 166.143 408.764 161.192L397.303 164.792ZM404.177 182.994L409.003 183.256L409.692 171.276L404.866 171.014L404.177 182.994Z" fill="black" mask="url(#path-11-outside-1_561_6104)"/>
<path d="M369.01 168.333C365.703 179.689 363.837 200.591 362.575 199.462C361.151 199.385 364.998 170.354 366.811 164.261C368.624 158.169 375.558 150.629 379.594 149.68C382.681 149.848 374.965 153.248 369.01 168.333Z" fill="white" fill-opacity="0.7"/>
<path d="M448.475 163.712C446.549 160.267 443.755 156.092 441.473 154.421C447.951 172.806 446.443 199.032 444.146 216.825C442.764 240.839 415.71 240.855 412.79 217.077C411.455 198.192 399.77 202.649 396.008 214.21C384.747 236.94 368.053 231.071 361.083 212.313C361.164 215.332 361.478 217.997 362.024 220.308C362.66 222.542 363.437 224.539 364.355 226.3C365.278 227.98 366.301 229.379 367.426 230.5C368.635 231.624 369.812 232.584 370.955 233.38C373.656 235.156 376.74 236.179 380.207 236.449C382.662 236.582 384.887 236.295 386.881 235.589C388.875 234.883 390.627 233.959 392.137 232.819C393.651 231.598 394.963 230.203 396.072 228.634C397.271 226.988 398.3 225.333 399.16 223.669C401.083 219.781 402.447 215.253 403.254 210.082L407.954 210.338C407.998 215.473 408.666 220.112 409.956 224.255C410.535 225.998 411.242 227.747 412.075 229.503C412.998 231.183 414.139 232.752 415.499 234.211C416.864 235.588 418.496 236.736 420.397 237.654C422.298 238.572 424.518 239.1 427.058 239.238C429.345 239.362 431.393 239.188 433.204 238.716C435.015 238.244 436.625 237.558 438.036 236.657C439.536 235.679 440.829 234.609 441.916 233.446C443.006 232.202 443.93 230.908 444.687 229.564C446.478 226.484 447.742 222.968 448.479 219.016C449.126 215.14 449.708 210.936 450.224 206.401C450.617 202.512 450.919 198.007 451.128 192.886C451.338 187.765 451.27 182.303 450.924 176.5C450.503 170.529 450.489 167.08 448.475 163.712Z" fill="black" fill-opacity="0.25"/>
<path d="M422.791 160.089C421.559 162.138 415.291 174.57 413.823 173.831C411.662 173.501 416.303 160.652 418.919 158.181C422.392 153.122 427.616 153.383 428.108 153.596C428.6 153.809 424.221 158.232 422.791 160.089Z" fill="white" fill-opacity="0.7"/>
</g>
<path d="M628.931 72.0133L628.931 72.0518L628.932 72.0902C628.974 73.4926 628.623 74.4235 628.167 75.0524C627.702 75.6952 626.981 76.2225 625.969 76.5566C623.877 77.2477 620.807 76.9938 617.889 75.4371C601.127 66.497 578.903 63.021 563.151 63.0007C560.951 62.9979 559.513 62.1818 558.887 61.3878C558.402 60.7737 558.103 59.826 559 58.3004C561.426 54.1776 564.924 50.5295 569.271 47.6486C573.619 44.7672 578.692 42.7362 584.125 41.7269C589.558 40.7175 595.189 40.76 600.599 41.8505C606.009 42.941 611.038 45.0472 615.323 47.9915C619.607 50.9353 623.027 54.6327 625.366 58.7881C627.704 62.9401 628.912 67.457 628.931 72.0133Z" fill="#929292" stroke="black" stroke-width="6"/>
<path d="M624.14 58.6176C626.131 62.162 627.173 66.0431 627.189 69.977C627.37 76.0896 620.642 77.5566 615.248 74.6752C612.56 73.2393 609.676 71.9896 606.685 70.9123C612.237 66.7669 619.366 55.6566 603.465 44.3789C607.931 45.2812 612.105 47.028 615.683 49.4916C619.26 51.9552 622.15 55.0732 624.14 58.6176Z" fill="black" fill-opacity="0.25"/>
<defs>
<filter id="filter0_d_561_6104" x="234.613" y="58.9592" width="589.643" height="359.433" filterUnits="userSpaceOnUse" color-interpolation-filters="sRGB">
<feFlood flood-opacity="0" result="BackgroundImageFix"/>
<feColorMatrix in="SourceAlpha" type="matrix" values="0 0 0 0 0 0 0 0 0 0 0 0 0 0 0 0 0 0 127 0" result="hardAlpha"/>
<feOffset dx="-1" dy="7"/>
<feGaussianBlur stdDeviation="2"/>
<feComposite in2="hardAlpha" operator="out"/>
<feColorMatrix type="matrix" values="0 0 0 0 0 0 0 0 0 0 0 0 0 0 0 0 0 0 0.25 0"/>
<feBlend mode="normal" in2="BackgroundImageFix" result="effect1_dropShadow_561_6104"/>
<feBlend mode="normal" in="SourceGraphic" in2="effect1_dropShadow_561_6104" result="shape"/>
</filter>
<filter id="filter1_d_561_6104" x="104.213" y="268.765" width="578.725" height="115.366" filterUnits="userSpaceOnUse" color-interpolation-filters="sRGB">
<feFlood flood-opacity="0" result="BackgroundImageFix"/>
<feColorMatrix in="SourceAlpha" type="matrix" values="0 0 0 0 0 0 0 0 0 0 0 0 0 0 0 0 0 0 127 0" result="hardAlpha"/>
<feOffset dx="-1" dy="7"/>
<feGaussianBlur stdDeviation="2"/>
<feComposite in2="hardAlpha" operator="out"/>
<feColorMatrix type="matrix" values="0 0 0 0 0 0 0 0 0 0 0 0 0 0 0 0 0 0 0.25 0"/>
<feBlend mode="normal" in2="BackgroundImageFix" result="effect1_dropShadow_561_6104"/>
<feBlend mode="normal" in="SourceGraphic" in2="effect1_dropShadow_561_6104" result="shape"/>
</filter>
<filter id="filter2_d_561_6104" x="349.936" y="142.053" width="110.357" height="113.462" filterUnits="userSpaceOnUse" color-interpolation-filters="sRGB">
<feFlood flood-opacity="0" result="BackgroundImageFix"/>
<feColorMatrix in="SourceAlpha" type="matrix" values="0 0 0 0 0 0 0 0 0 0 0 0 0 0 0 0 0 0 127 0" result="hardAlpha"/>
<feOffset dx="-1" dy="7"/>
<feGaussianBlur stdDeviation="2"/>
<feComposite in2="hardAlpha" operator="out"/>
<feColorMatrix type="matrix" values="0 0 0 0 0 0 0 0 0 0 0 0 0 0 0 0 0 0 0.25 0"/>
<feBlend mode="normal" in2="BackgroundImageFix" result="effect1_dropShadow_561_6104"/>
<feBlend mode="normal" in="SourceGraphic" in2="effect1_dropShadow_561_6104" result="shape"/>
</filter>
</defs>
</svg>
