<svg width="1000" height="1000" viewBox="0 0 1000 1000" fill="none" xmlns="http://www.w3.org/2000/svg">
<path d="M746.685 271.216C742.609 318.175 634.493 335.819 511.314 315.102C388.135 294.385 296.517 243.384 300.614 196.193C304.57 150.616 408.619 159.584 531.798 180.301C654.978 201.018 750.762 224.258 746.685 271.216Z" fill="black" fill-opacity="0.25"/>
<path d="M838.812 275.568C838.492 283.291 831.375 290.696 814.916 296.7C798.834 302.567 775.515 306.416 746.638 308.091C688.968 311.436 610.184 306.058 525.348 291.79C440.515 277.522 365.961 257.162 312.931 235.225C286.391 224.247 265.435 212.951 251.294 201.951C236.915 190.765 230.616 180.704 230.965 172.323L226.972 172.157L230.965 172.323C231.117 168.646 232.805 165.519 236.425 162.754C240.177 159.888 245.931 157.495 253.816 155.71C269.567 152.143 292.466 151.287 320.986 152.609C377.925 155.25 455.965 166.494 540.996 180.795C626.039 195.098 701.54 209.37 755.528 225.232C782.554 233.172 803.912 241.433 818.33 250.151C833.001 259.022 839.147 267.524 838.812 275.568Z" fill="#C4C4C4" stroke="black" stroke-width="8"/>
<path d="M842.305 278.734C840.861 318.685 695.559 316.184 525.499 287.582C420.139 267.184 321.035 246.385 289.202 220.595C687.553 319.175 802.237 199.695 540.824 181.819C710.884 210.421 843.748 238.782 842.305 278.734Z" fill="black" fill-opacity="0.25"/>
<path d="M900.895 62.5641C835.209 54.2182 711.789 171.47 658.289 231.139C660.394 231.493 672.027 226.02 701.723 201.296C773.439 220.112 864.386 116.648 900.895 62.5641Z" fill="#FFED00" stroke="black" stroke-width="8"/>
<path d="M898.424 62.1483C703.173 238.687 724.769 158.113 655.818 230.723C657.923 231.077 669.556 225.604 699.252 200.88C770.968 219.696 861.915 116.232 898.424 62.1483Z" fill="black" fill-opacity="0.5"/>
<path d="M428.246 85.8176C434.507 48.5925 477.122 30.249 508.483 51.2512L547.656 78.9318C551.477 81.6317 555.704 83.705 560.178 85.0734L615.354 101.951C622.179 104.038 629.526 103.614 636.066 100.754C666.122 87.6074 698.765 113.075 693.324 145.426L679.511 227.551L411.976 182.555L428.246 85.8176Z" fill="#C4C4C4" stroke="black" stroke-width="8"/>
<path d="M678.92 230.093C539.35 246.579 418.65 195.241 412.758 182.568C413.015 179.019 414.993 164.434 420.845 134.483C512.698 111.389 636.354 154.67 686.7 179.196C685.975 183.512 683.648 201.982 678.92 230.093Z" fill="#FF7DEA" stroke="black" stroke-width="8"/>
<path d="M686.727 179.039L678.613 227.281C657.109 220.323 633.458 231.335 613.546 225.786L625.547 154.564C650.192 162.296 670.884 172.636 686.727 179.039Z" fill="black" fill-opacity="0.25"/>
<path d="M685.534 124.5C689.145 129.548 687.966 145.5 683 173.5C664.746 166.785 651.357 158.454 633.774 153.416C655.097 129.96 641.94 104.865 641.94 104.865C655.251 100.864 668.053 100.065 685.534 124.5Z" fill="black" fill-opacity="0.25"/>
</svg>
