<svg width="1000" height="1000" viewBox="0 0 1000 1000" fill="none" xmlns="http://www.w3.org/2000/svg">
<g filter="url(#filter0_d_584_30966)">
<mask id="path-2-outside-1_584_30966" maskUnits="userSpaceOnUse" x="200" y="201" width="600" height="599" fill="black">
<rect fill="white" x="200" y="201" width="600" height="599"/>
<path fill-rule="evenodd" clip-rule="evenodd" d="M791.939 489.283C791.939 538.983 778.463 585.663 754.828 626.137C753.169 628.979 753.402 632.514 754.992 635.394C760.531 645.426 762.806 659.423 760.404 674.31C758.429 686.545 753.633 697.286 747.302 705.136C745.916 706.855 745.14 708.999 745.196 711.206C745.214 711.937 745.224 712.673 745.224 713.415C745.224 733.572 738.252 749.913 729.652 749.913C721.796 749.913 715.299 736.278 714.234 718.554C714.17 717.495 713.56 716.582 712.621 716.09C710.209 714.826 706.227 716.818 706.281 719.54C706.29 719.993 706.295 720.447 706.295 720.902C706.295 748.295 689.955 770.501 669.798 770.501C656.667 770.501 645.156 761.077 638.727 746.934C636.622 742.304 631.158 739.795 626.542 741.93C623.846 743.177 621.126 744.386 618.384 745.555C615.933 746.6 614.163 748.776 613.452 751.344C607.07 774.394 588.305 791.089 566.149 791.089C551.545 791.089 538.414 783.836 529.332 772.29C527.515 769.98 524.722 768.586 521.791 768.794C514.586 769.305 507.31 769.565 499.969 769.565C471.408 769.565 443.804 765.628 417.715 758.289C412.846 756.919 407.857 760.319 405.486 764.786C401.027 773.186 392.059 778.924 381.722 778.924C369.286 778.924 358.832 770.62 355.827 759.367C355.078 756.563 352.021 754.592 349.119 754.592C339.444 754.592 331.601 745.584 331.601 734.471C331.601 730.639 332.534 727.057 334.153 724.008C335 722.414 334.664 720.354 333.164 719.35C331.413 718.178 329.011 719.032 328.034 720.899C324.809 727.065 318.896 731.196 312.136 731.196C301.923 731.196 293.645 721.769 293.645 710.14C293.645 704.702 295.455 699.745 298.427 696.009C299.402 694.783 299.396 692.968 298.242 691.908C296.766 690.554 294.359 691.21 293.687 693.096C288.627 707.297 279.995 716.65 270.196 716.65C254.609 716.65 241.973 692.978 241.973 663.777C241.973 653.104 243.661 643.17 246.564 634.86C247.414 632.428 247.232 629.731 245.92 627.514C221.783 586.722 208 539.548 208 489.283C208 334.487 338.719 209 499.969 209C661.22 209 791.939 334.487 791.939 489.283Z"/>
</mask>
<path fill-rule="evenodd" clip-rule="evenodd" d="M791.939 489.283C791.939 538.983 778.463 585.663 754.828 626.137C753.169 628.979 753.402 632.514 754.992 635.394C760.531 645.426 762.806 659.423 760.404 674.31C758.429 686.545 753.633 697.286 747.302 705.136C745.916 706.855 745.14 708.999 745.196 711.206C745.214 711.937 745.224 712.673 745.224 713.415C745.224 733.572 738.252 749.913 729.652 749.913C721.796 749.913 715.299 736.278 714.234 718.554C714.17 717.495 713.56 716.582 712.621 716.09C710.209 714.826 706.227 716.818 706.281 719.54C706.29 719.993 706.295 720.447 706.295 720.902C706.295 748.295 689.955 770.501 669.798 770.501C656.667 770.501 645.156 761.077 638.727 746.934C636.622 742.304 631.158 739.795 626.542 741.93C623.846 743.177 621.126 744.386 618.384 745.555C615.933 746.6 614.163 748.776 613.452 751.344C607.07 774.394 588.305 791.089 566.149 791.089C551.545 791.089 538.414 783.836 529.332 772.29C527.515 769.98 524.722 768.586 521.791 768.794C514.586 769.305 507.31 769.565 499.969 769.565C471.408 769.565 443.804 765.628 417.715 758.289C412.846 756.919 407.857 760.319 405.486 764.786C401.027 773.186 392.059 778.924 381.722 778.924C369.286 778.924 358.832 770.62 355.827 759.367C355.078 756.563 352.021 754.592 349.119 754.592C339.444 754.592 331.601 745.584 331.601 734.471C331.601 730.639 332.534 727.057 334.153 724.008C335 722.414 334.664 720.354 333.164 719.35C331.413 718.178 329.011 719.032 328.034 720.899C324.809 727.065 318.896 731.196 312.136 731.196C301.923 731.196 293.645 721.769 293.645 710.14C293.645 704.702 295.455 699.745 298.427 696.009C299.402 694.783 299.396 692.968 298.242 691.908C296.766 690.554 294.359 691.21 293.687 693.096C288.627 707.297 279.995 716.65 270.196 716.65C254.609 716.65 241.973 692.978 241.973 663.777C241.973 653.104 243.661 643.17 246.564 634.86C247.414 632.428 247.232 629.731 245.92 627.514C221.783 586.722 208 539.548 208 489.283C208 334.487 338.719 209 499.969 209C661.22 209 791.939 334.487 791.939 489.283Z" fill="#88C9F9"/>
<path d="M760.404 674.31L768.302 675.584V675.584L760.404 674.31ZM245.92 627.514L252.805 623.44L245.92 627.514ZM293.687 693.096L301.223 695.781L293.687 693.096ZM298.427 696.009L292.166 691.029L298.427 696.009ZM334.153 724.008L327.088 720.255L334.153 724.008ZM417.715 758.289L415.548 765.99L417.715 758.289ZM405.486 764.786L398.419 761.036L405.486 764.786ZM529.332 772.29L523.044 777.236L529.332 772.29ZM521.791 768.794L522.357 776.774L521.791 768.794ZM706.281 719.54L698.283 719.699L706.281 719.54ZM355.827 759.367L348.098 761.432L355.827 759.367ZM714.234 718.554L722.219 718.073L714.234 718.554ZM747.302 705.136L753.529 710.159L747.302 705.136ZM745.196 711.206L737.198 711.41L745.196 711.206ZM328.034 720.899L335.123 724.607L328.034 720.899ZM638.727 746.934L646.01 743.623L638.727 746.934ZM626.542 741.93L623.184 734.669L626.542 741.93ZM618.384 745.555L615.246 738.196L618.384 745.555ZM613.452 751.344L621.162 753.479L613.452 751.344ZM754.828 626.137L761.737 630.171L754.828 626.137ZM754.992 635.394L747.988 639.261L754.992 635.394ZM761.737 630.171C786.06 588.518 799.939 540.452 799.939 489.283H783.939C783.939 537.514 770.866 582.808 747.92 622.103L761.737 630.171ZM768.302 675.584C770.937 659.256 768.545 643.39 761.995 631.528L747.988 639.261C752.516 647.462 754.676 659.59 752.506 673.035L768.302 675.584ZM753.529 710.159C760.82 701.119 766.129 689.05 768.302 675.584L752.506 673.035C750.73 684.039 746.446 693.454 741.075 700.114L753.529 710.159ZM753.224 713.415C753.224 712.606 753.214 711.801 753.193 711.003L737.198 711.41C737.215 712.073 737.224 712.741 737.224 713.415H753.224ZM729.652 757.913C734.52 757.913 738.481 755.566 741.346 752.726C744.177 749.919 746.36 746.255 748.021 742.362C751.356 734.547 753.224 724.307 753.224 713.415H737.224C737.224 722.68 735.606 730.689 733.305 736.083C732.148 738.795 730.975 740.477 730.081 741.363C729.22 742.217 729.084 741.913 729.652 741.913V757.913ZM706.248 719.034C706.825 728.633 708.885 737.567 712.204 744.383C715.202 750.537 720.796 757.913 729.652 757.913V741.913C730.653 741.913 729.07 742.471 726.589 737.376C724.43 732.944 722.708 726.198 722.219 718.073L706.248 719.034ZM698.283 719.699C698.291 720.098 698.295 720.499 698.295 720.902H714.295C714.295 720.394 714.29 719.887 714.28 719.382L698.283 719.699ZM698.295 720.902C698.295 733.07 694.655 743.767 689.161 751.233C683.666 758.701 676.728 762.501 669.798 762.501V778.501C683.026 778.501 694.335 771.198 702.049 760.715C709.765 750.229 714.295 736.127 714.295 720.902H698.295ZM669.798 762.501C660.833 762.501 651.628 755.983 646.01 743.623L631.444 750.244C638.684 766.171 652.501 778.501 669.798 778.501V762.501ZM621.522 752.914C624.338 751.713 627.131 750.472 629.901 749.191L623.184 734.669C620.56 735.883 617.914 737.059 615.246 738.196L621.522 752.914ZM566.149 799.089C592.631 799.089 614.03 779.236 621.162 753.479L605.742 749.209C600.11 769.551 583.978 783.089 566.149 783.089V799.089ZM523.044 777.236C533.427 790.435 548.762 799.089 566.149 799.089V783.089C554.328 783.089 543.401 777.236 535.619 767.343L523.044 777.236ZM499.969 777.565C507.499 777.565 514.964 777.299 522.357 776.774L521.225 760.814C514.209 761.312 507.121 761.565 499.969 761.565V777.565ZM415.548 765.99C442.338 773.526 470.67 777.565 499.969 777.565V761.565C472.145 761.565 445.271 757.73 419.881 750.588L415.548 765.99ZM381.722 786.924C395.072 786.924 406.731 779.504 412.552 768.537L398.419 761.036C395.324 766.868 389.046 770.924 381.722 770.924V786.924ZM348.098 761.432C352.041 776.198 365.676 786.924 381.722 786.924V770.924C372.897 770.924 365.623 765.043 363.556 757.303L348.098 761.432ZM323.601 734.471C323.601 748.926 334.021 762.592 349.119 762.592V746.592C344.867 746.592 339.601 742.242 339.601 734.471H323.601ZM327.088 720.255C324.85 724.468 323.601 729.34 323.601 734.471H339.601C339.601 731.937 340.217 729.645 341.218 727.76L327.088 720.255ZM312.136 739.196C322.356 739.196 330.757 732.955 335.123 724.607L320.945 717.191C318.862 721.175 315.437 723.196 312.136 723.196V739.196ZM285.645 710.14C285.645 725.179 296.56 739.196 312.136 739.196V723.196C307.286 723.196 301.645 718.358 301.645 710.14H285.645ZM292.166 691.029C288.044 696.211 285.645 702.932 285.645 710.14H301.645C301.645 706.472 302.866 703.28 304.688 700.989L292.166 691.029ZM270.196 724.65C277.822 724.65 284.375 720.978 289.443 715.786C294.48 710.626 298.424 703.634 301.223 695.781L286.151 690.41C283.889 696.758 280.987 701.543 277.994 704.61C275.031 707.645 272.368 708.65 270.196 708.65V724.65ZM233.973 663.777C233.973 679.426 237.341 693.99 243.182 704.931C248.84 715.53 258.013 724.65 270.196 724.65V708.65C266.792 708.65 261.854 705.934 257.297 697.397C252.922 689.201 249.973 677.329 249.973 663.777H233.973ZM239.011 632.222C235.785 641.458 233.973 652.292 233.973 663.777H249.973C249.973 653.916 251.537 644.882 254.116 637.499L239.011 632.222ZM200 489.283C200 541.034 214.196 589.609 239.035 631.587L252.805 623.44C229.371 583.836 216 538.062 216 489.283H200ZM499.969 201C334.612 201 200 329.764 200 489.283H216C216 339.21 342.826 217 499.969 217V201ZM799.939 489.283C799.939 329.764 665.327 201 499.969 201V217C657.112 217 783.939 339.21 783.939 489.283H799.939ZM254.116 637.499C255.677 633.032 255.418 627.856 252.805 623.44L239.035 631.587C239.046 631.606 239.151 631.823 239.011 632.222L254.116 637.499ZM303.651 686.014C297.731 680.581 288.642 683.419 286.151 690.41L301.223 695.781C300.076 699 295.801 700.527 292.832 697.802L303.651 686.014ZM304.688 700.989C307.851 697.012 308.38 690.354 303.651 686.014L292.832 697.802C290.413 695.582 290.954 692.553 292.166 691.029L304.688 700.989ZM341.218 727.76C343.632 723.216 343.124 716.39 337.614 712.702L328.714 725.998C327.513 725.194 326.889 724.019 326.69 723.005C326.499 722.036 326.65 721.078 327.088 720.255L341.218 727.76ZM419.881 750.588C409.957 747.796 401.748 754.763 398.419 761.036L412.552 768.537C413.084 767.534 413.898 766.717 414.65 766.284C415 766.083 415.252 766.013 415.383 765.992C415.495 765.973 415.532 765.985 415.548 765.99L419.881 750.588ZM535.619 767.343C532.355 763.193 527.098 760.398 521.225 760.814L522.357 776.774C522.367 776.773 522.43 776.769 522.558 776.829C522.696 776.895 522.878 777.024 523.044 777.236L535.619 767.343ZM716.334 709.004C712.091 706.78 707.607 707.761 704.795 709.243C702.026 710.704 698.173 714.163 698.283 719.699L714.28 719.382C714.307 720.752 713.806 721.799 713.36 722.407C712.94 722.98 712.513 723.262 712.257 723.397C711.993 723.536 711.647 723.659 711.182 723.692C710.72 723.726 709.875 723.683 708.907 723.176L716.334 709.004ZM363.556 757.303C361.703 750.367 354.946 746.592 349.119 746.592V762.592C348.947 762.592 348.852 762.565 348.823 762.555C348.792 762.545 348.767 762.534 348.733 762.51C348.713 762.496 348.306 762.212 348.098 761.432L363.556 757.303ZM722.219 718.073C721.981 714.116 719.666 710.75 716.334 709.004L708.907 723.176C707.454 722.414 706.359 720.874 706.248 719.034L722.219 718.073ZM741.075 700.114C738.576 703.212 737.091 707.185 737.198 711.41L753.193 711.003C753.188 710.813 753.256 710.497 753.529 710.159L741.075 700.114ZM337.614 712.702C331.142 708.37 323.677 711.969 320.945 717.191L335.123 724.607C334.608 725.592 333.75 726.284 332.741 726.607C331.671 726.948 330.121 726.94 328.714 725.998L337.614 712.702ZM646.01 743.623C642.369 735.615 632.458 730.379 623.184 734.669L629.901 749.191C629.933 749.176 630.081 749.102 630.443 749.256C630.848 749.428 631.237 749.79 631.444 750.244L646.01 743.623ZM615.246 738.196C610.348 740.285 607.04 744.522 605.742 749.209L621.162 753.479C621.219 753.273 621.309 753.122 621.387 753.029C621.461 752.942 621.511 752.919 621.522 752.914L615.246 738.196ZM747.92 622.103C744.584 627.816 745.301 634.393 747.988 639.261L761.995 631.528C761.779 631.136 761.696 630.766 761.688 630.503C761.68 630.261 761.734 630.176 761.737 630.171L747.92 622.103Z" fill="#090909" mask="url(#path-2-outside-1_584_30966)"/>
<g filter="url(#filter1_d_584_30966)">
<path d="M615.5 225C596.17 235.233 576.468 253.527 554.603 247.276C519.139 237.151 486.736 219.136 456 247.276C425.264 275.416 403.289 296.818 441.118 295.701C478.946 294.584 494.086 254.985 513 273C531.914 291.015 538.034 302.456 493.132 308.077C448.229 313.698 399.733 320.472 373.726 320.472C347.719 320.472 341.799 335.1 359.54 350.881C377.282 366.663 348.891 367.762 319.347 383.525C289.803 399.288 326.166 400.489 351 414C375.834 427.511 405.851 417.303 416.5 394.784C427.149 372.265 459.037 345.108 478.121 348.494C500 360 488.403 400.255 484.847 416C481.292 431.745 517.327 419.015 518.5 401C519.673 382.985 523.868 336.235 551.029 336.235C567.56 335.118 581.764 357.637 562.85 368.879C543.936 380.12 525.021 389.146 548.664 394.784C572.307 400.423 588.857 429.698 561.677 442.074C534.497 454.451 487.212 462.341 465.933 452.199C444.655 442.056 396.177 427.428 383.183 435.301C370.189 443.173 363.096 451.334 347.719 456.829C332.36 462.323 269.697 489.346 268.506 524.26C267.314 559.173 266.16 598.59 290.976 599.707C315.791 600.824 378.586 605.146 397.5 590.5C416.414 575.854 426.234 569.12 434.5 586C442.766 602.88 442.766 604.477 434.5 631.5C426.234 658.523 447.7 670.633 460.959 694.269C474.218 717.905 484.847 731.416 484.847 748.315C484.847 765.213 507.629 776.472 536 748.315C564.371 720.157 586.512 670.615 598.333 650.348C610.155 630.081 619.612 585.043 633.798 576.035C647.983 567.028 670.453 545.626 653.885 549.012C637.316 552.399 604.235 547.896 595.969 525.377C587.703 502.858 558.969 467.368 575.5 462.864C592.031 458.36 604.235 480.609 611.327 494.553C618.42 508.496 627.814 531.496 642 536C656.186 540.504 690 518 696.442 494.553C704 480 698.806 467.962 679.892 470.214C660.977 472.466 642 463.44 642 452.199C642 440.957 659.805 433.067 678.719 436.454C697.633 439.84 711.819 445.461 723.64 458.973C735.462 472.484 751.043 496.237 760.5 512C769.957 527.763 785.112 531.033 789.841 502.894C792.98 484.194 793.66 473.907 797.5 462.864C777.5 329.5 692.5 254 615.5 225Z" fill="#008026"/>
<path d="M479.285 346.282L478.941 346.101L478.558 346.033C473.134 345.07 467.051 346.306 460.982 348.822C454.879 351.353 448.575 355.268 442.603 359.959C430.691 369.315 419.769 382.023 414.24 393.716C404.239 414.864 375.839 424.668 352.195 411.804C345.798 408.324 338.708 405.661 332.25 403.396C330.811 402.891 329.41 402.408 328.058 401.942C323.245 400.282 319.04 398.832 315.837 397.341C313.786 396.385 312.385 395.516 311.561 394.727C310.78 393.979 310.785 393.583 310.812 393.385C310.866 393.002 311.231 392.112 312.856 390.684C314.433 389.3 316.904 387.662 320.524 385.731C327.78 381.859 334.987 378.877 341.5 376.321C342.874 375.781 344.225 375.258 345.544 374.747C350.401 372.867 354.811 371.16 358.28 369.453C360.499 368.361 362.48 367.202 364.023 365.899C365.565 364.596 366.842 363.003 367.328 361.017C368.33 356.921 365.652 352.972 361.202 349.013C352.48 341.255 350.72 334.788 352.51 330.778C353.43 328.716 355.457 326.77 358.993 325.316C362.535 323.86 367.433 322.972 373.726 322.972C395.982 322.972 434.478 318.062 472.993 313.15C479.839 312.277 486.686 311.404 493.442 310.558C504.735 309.144 513.018 307.344 518.755 305.085C524.408 302.859 528.199 299.942 529.395 295.895C530.587 291.86 528.892 287.729 526.252 283.877C523.56 279.95 519.464 275.704 514.724 271.19C512.133 268.722 509.479 267.121 506.702 266.349C503.913 265.573 501.172 265.681 498.488 266.368C493.282 267.702 488.051 271.309 482.696 275.143C482.203 275.497 481.705 275.854 481.205 276.214C470.564 283.858 458.265 292.693 441.044 293.202C436.412 293.339 432.806 293.126 430.079 292.635C427.32 292.137 425.673 291.392 424.751 290.633C423.937 289.962 423.609 289.226 423.598 288.261C423.586 287.159 423.997 285.636 425.058 283.627C427.181 279.605 431.403 274.546 437.179 268.615C442.914 262.727 450 256.159 457.688 249.12C472.399 235.651 487.39 233.231 503.188 235.404C511.161 236.5 519.335 238.77 527.808 241.432C530.708 242.344 533.658 243.307 536.645 244.281C542.303 246.128 548.091 248.017 553.916 249.68C565.738 253.059 576.828 249.736 587.126 244.552C592.278 241.959 597.326 238.851 602.226 235.799C602.571 235.584 602.915 235.37 603.258 235.156C607.485 232.521 611.597 229.957 615.678 227.741C691.53 256.706 775.013 331.248 794.937 462.631C792.246 470.58 791.088 478.308 789.531 488.703C788.915 492.818 788.236 497.35 787.375 502.479C786.224 509.328 784.474 514.026 782.501 517.033C780.553 520.002 778.495 521.185 776.618 521.432C774.683 521.686 772.392 521.016 769.893 519.173C767.403 517.336 764.888 514.455 762.644 510.714C753.171 494.925 737.497 471.013 725.522 457.326C713.18 443.22 698.364 437.431 679.16 433.993C669.27 432.222 659.585 433.377 652.272 436.547C645.077 439.666 639.5 445.106 639.5 452.199C639.5 459.307 645.399 465.015 652.779 468.524C660.33 472.114 670.28 473.876 680.187 472.696C689.21 471.622 693.968 474.051 695.948 477.364C698.014 480.82 697.834 486.449 694.223 493.4L694.101 493.635L694.031 493.89C691.021 504.846 681.457 515.909 670.658 523.734C665.296 527.619 659.751 530.615 654.759 532.362C649.686 534.137 645.538 534.5 642.757 533.617C636.588 531.659 631.102 525.498 626.127 517.496C622.525 511.702 619.415 505.336 616.587 499.545C615.542 497.405 614.535 495.344 613.556 493.419C610.016 486.46 605.065 477.14 598.82 470.128C592.616 463.16 584.515 457.817 574.843 460.452C572.246 461.159 570.258 462.575 569.094 464.732C567.977 466.801 567.798 469.225 568.078 471.652C568.633 476.448 571.127 482.362 574.202 488.486C576.428 492.921 579.067 497.668 581.697 502.396C582.73 504.255 583.762 506.111 584.767 507.944C588.365 514.509 591.627 520.803 593.622 526.238C598.134 538.531 609.328 545.665 621.074 549.298C632.836 552.935 645.675 553.242 654.385 551.462C655.672 551.199 656.526 551.138 657.058 551.155C656.924 551.489 656.716 551.904 656.413 552.402C655.761 553.477 654.774 554.771 653.496 556.226C648.355 562.076 639.38 569.529 632.457 573.925C628.326 576.548 624.823 581.56 621.723 587.429C618.58 593.382 615.653 600.613 612.839 608.089C611.564 611.475 610.315 614.903 609.078 618.295C604.787 630.068 600.653 641.409 596.174 649.088C593.478 653.711 590.258 659.825 586.597 666.778C586.198 667.536 585.794 668.303 585.385 669.08C581.204 677.012 576.46 685.952 571.203 695.13C560.671 713.521 548.178 732.706 534.239 746.54C520.35 760.324 508.313 763.981 500.161 762.739C492.133 761.517 487.347 755.521 487.347 748.315C487.347 739.302 484.5 731.29 480.101 722.681C477.575 717.737 474.436 712.42 470.965 706.541C468.491 702.35 465.848 697.875 463.139 693.046C459.732 686.973 455.814 681.668 452.052 676.768C451.39 675.906 450.735 675.059 450.09 674.224C447.03 670.267 444.175 666.575 441.763 662.807C438.865 658.278 436.709 653.788 435.734 648.895C434.765 644.029 434.935 638.625 436.891 632.231C440.977 618.87 443.199 611.296 443.199 604.947C443.199 598.393 440.842 593.267 436.745 584.901C434.589 580.497 432.171 577.282 429.234 575.413C426.181 573.47 422.867 573.167 419.41 573.997C416.06 574.8 412.511 576.678 408.73 579.152C404.925 581.642 400.689 584.868 395.969 588.523C391.731 591.806 384.752 594.196 375.915 595.816C367.157 597.42 356.899 598.212 346.379 598.516C328.453 599.033 309.998 598.129 297.216 597.503C294.991 597.394 292.937 597.293 291.088 597.21C285.659 596.965 281.75 594.678 278.814 590.838C275.795 586.89 273.747 581.211 272.446 574.201C269.842 560.167 270.406 541.885 271.004 524.345C271.276 516.369 275.068 508.652 281.145 501.369C287.217 494.092 295.428 487.423 304.185 481.593C321.7 469.932 341.007 461.885 348.561 459.183C356.53 456.335 362.35 452.792 367.775 449.007C369.501 447.802 371.161 446.595 372.824 445.384C376.445 442.75 380.085 440.101 384.479 437.439C387.013 435.903 391.782 435.268 398.445 435.688C404.951 436.099 412.741 437.472 420.867 439.425C437.127 443.331 454.398 449.47 464.857 454.456C476.182 459.853 493.94 460.324 511.905 458.062C529.991 455.784 548.858 450.659 562.713 444.349C569.937 441.06 574.545 436.507 576.744 431.217C578.94 425.933 578.591 420.259 576.562 415.002C572.542 404.593 561.789 395.344 549.244 392.353C546.38 391.67 544.273 390.96 542.779 390.254C541.254 389.532 540.574 388.908 540.302 388.516C540.116 388.247 540.091 388.07 540.179 387.761C540.307 387.315 540.701 386.614 541.613 385.652C543.435 383.729 546.579 381.518 550.645 379.002C553.164 377.443 555.91 375.841 558.783 374.165C560.525 373.149 562.314 372.105 564.127 371.028C569.307 367.949 572.432 363.957 573.707 359.577C574.975 355.223 574.334 350.759 572.492 346.856C568.87 339.179 560.335 333.14 550.945 333.735C535.612 333.783 527.26 347.063 522.644 361.08C517.945 375.349 516.592 391.822 516.005 400.838C515.765 404.524 513.716 408.16 510.481 411.389C507.261 414.602 503.055 417.214 498.976 418.837C494.801 420.499 491.194 420.955 489.059 420.41C488.066 420.156 487.612 419.751 487.391 419.367C487.157 418.961 486.928 418.135 487.286 416.551C487.553 415.367 487.871 414.028 488.219 412.561C490.14 404.455 492.993 392.417 493.52 380.77C494.134 367.19 491.644 352.781 479.285 346.282Z" stroke="black" stroke-width="5"/>
</g>
<path d="M218 499C218 343.256 346.942 217 506 217" stroke="white" stroke-opacity="0.25" stroke-width="15" stroke-linecap="round"/>
<path fill-rule="evenodd" clip-rule="evenodd" d="M620.982 744.707C620.895 744.601 620.748 744.566 620.623 744.622C620.581 744.641 620.54 744.66 620.498 744.679C620.381 744.731 620.29 744.829 620.244 744.949C619.362 747.221 617.697 749.656 615.191 752.762C614.221 753.965 613.606 755.41 613.336 756.932C612.374 762.344 610.389 767.544 607.474 772.269C604.14 777.672 599.665 782.33 594.343 785.938C589.021 789.546 582.971 792.023 576.592 793.205C570.212 794.388 563.647 794.249 557.326 792.799C551.006 791.349 545.073 788.619 539.918 784.79C534.763 780.961 530.501 776.118 527.413 770.58C527.117 770.049 526.539 769.735 525.933 769.791C517.291 770.591 508.583 771 499.835 771C471.281 771 443.655 766.685 417.524 758.86C412.675 757.407 407.624 760.726 405.178 765.158C400.655 773.355 391.799 778.924 381.615 778.924C369.267 778.924 358.871 770.735 355.784 759.602C354.955 756.611 351.646 754.486 348.542 754.486C338.598 754.486 330.537 745.364 330.537 734.113C330.537 732.358 327.63 730.621 326.084 731.449C322.907 733.15 319.29 734.113 315.452 734.113C302.82 734.113 292.581 723.688 292.581 710.829C292.581 710.52 292.216 710.341 291.973 710.533C286.484 714.853 279.889 717.197 276.022 717.549C275.385 717.607 274.742 717.683 274.114 717.802C254.605 721.498 239.053 691.454 239.053 665.588C239.053 654.196 239.743 646.781 241.969 642.035C244.283 637.101 247.077 630.565 244.222 625.924C224.487 593.858 211.805 558.993 208.118 524.085C207.407 517.356 215.602 514.473 219.682 519.87C220.301 520.688 220.739 521.664 220.961 522.665C280.878 793.604 639.247 801.378 778.69 499.785C782.221 492.147 793.144 493.969 792.862 502.379C791.357 547.236 777.679 589.537 755.176 626.723C753.477 629.53 753.648 633.058 755.19 635.954C760.507 645.943 762.656 659.698 760.298 674.31C758.323 686.545 753.527 697.287 747.195 705.137C745.809 706.856 745.033 709 745.089 711.207C745.108 711.938 745.117 712.674 745.117 713.415C745.117 733.572 738.145 749.913 729.545 749.913C721.687 749.913 715.188 736.269 714.126 718.536C714.063 717.488 713.459 716.584 712.529 716.098C710.127 714.841 706.129 716.857 706.188 719.567C706.199 720.048 706.204 720.531 706.204 721.016C706.204 748.609 688.993 770.978 667.761 770.978C656.837 770.978 651.358 765.585 645.232 759.556C639.467 753.882 633.13 747.645 621.145 744.808C621.082 744.793 621.023 744.757 620.982 744.707Z" fill="black" fill-opacity="0.16"/>
</g>
<defs>
<filter id="filter0_d_584_30966" x="195" y="201" width="608" height="610" filterUnits="userSpaceOnUse" color-interpolation-filters="sRGB">
<feFlood flood-opacity="0" result="BackgroundImageFix"/>
<feColorMatrix in="SourceAlpha" type="matrix" values="0 0 0 0 0 0 0 0 0 0 0 0 0 0 0 0 0 0 127 0" result="hardAlpha"/>
<feOffset dx="-1" dy="7"/>
<feGaussianBlur stdDeviation="2"/>
<feComposite in2="hardAlpha" operator="out"/>
<feColorMatrix type="matrix" values="0 0 0 0 0 0 0 0 0 0 0 0 0 0 0 0 0 0 0.25 0"/>
<feBlend mode="normal" in2="BackgroundImageFix" result="effect1_dropShadow_584_30966"/>
<feBlend mode="normal" in="SourceGraphic" in2="effect1_dropShadow_584_30966" result="shape"/>
</filter>
<filter id="filter1_d_584_30966" x="263" y="225" width="537.5" height="551.467" filterUnits="userSpaceOnUse" color-interpolation-filters="sRGB">
<feFlood flood-opacity="0" result="BackgroundImageFix"/>
<feColorMatrix in="SourceAlpha" type="matrix" values="0 0 0 0 0 0 0 0 0 0 0 0 0 0 0 0 0 0 127 0" result="hardAlpha"/>
<feOffset dx="-1" dy="7"/>
<feGaussianBlur stdDeviation="2"/>
<feComposite in2="hardAlpha" operator="out"/>
<feColorMatrix type="matrix" values="0 0 0 0 0 0 0 0 0 0 0 0 0 0 0 0 0 0 0.25 0"/>
<feBlend mode="normal" in2="BackgroundImageFix" result="effect1_dropShadow_584_30966"/>
<feBlend mode="normal" in="SourceGraphic" in2="effect1_dropShadow_584_30966" result="shape"/>
</filter>
</defs>
</svg>
