<svg width="1000" height="1000" viewBox="0 0 1000 1000" fill="none" xmlns="http://www.w3.org/2000/svg">
<ellipse cx="407" cy="550" rx="16" ry="16" transform="rotate(90 407 550)" fill="#090909"/>
<path opacity="0.7" fill-rule="evenodd" clip-rule="evenodd" d="M402.638 563.423C396.456 583.352 377.875 597.826 355.913 597.826C328.899 597.826 307 575.927 307 548.913C307 521.899 328.899 500 355.913 500C377.875 500 396.456 514.474 402.638 534.403C403.719 534.24 404.819 534.198 405.918 534.28C408.325 534.459 410.65 535.23 412.687 536.522C414.725 537.815 416.412 539.591 417.6 541.691C418.787 543.792 419.439 546.153 419.496 548.565C419.553 550.978 419.014 553.367 417.928 555.522C416.841 557.676 415.239 559.53 413.265 560.917C411.291 562.305 409.005 563.185 406.61 563.478C405.285 563.64 403.949 563.621 402.638 563.423Z" fill="#FF7DEA"/>
<circle r="8.15217" transform="matrix(-1 0 0 1 334.717 526.631)" fill="white" fill-opacity="0.7"/>
<mask id="path-4-inside-1_392_6260" fill="white">
<path fill-rule="evenodd" clip-rule="evenodd" d="M402.638 563.423C396.456 583.352 377.875 597.826 355.913 597.826C328.899 597.826 307 575.927 307 548.913C307 521.899 328.899 500 355.913 500C377.875 500 396.456 514.474 402.638 534.403C403.719 534.24 404.819 534.198 405.918 534.28C408.325 534.459 410.65 535.23 412.687 536.522C414.725 537.815 416.412 539.591 417.6 541.691C418.787 543.792 419.439 546.153 419.496 548.565C419.553 550.978 419.014 553.367 417.928 555.522C416.841 557.676 415.239 559.53 413.265 560.917C411.291 562.305 409.005 563.185 406.61 563.478C405.285 563.64 403.949 563.621 402.638 563.423Z"/>
</mask>
<path d="M402.638 563.423L403.533 557.49L398.435 556.721L396.907 561.645L402.638 563.423ZM402.638 534.403L396.907 536.181L398.435 541.105L403.533 540.336L402.638 534.403ZM405.918 534.28L405.472 540.263H405.472L405.918 534.28ZM417.6 541.691L412.377 544.644V544.644L417.6 541.691ZM419.496 548.565L413.498 548.708L419.496 548.565ZM417.928 555.522L412.571 552.82V552.82L417.928 555.522ZM413.265 560.917L416.716 565.826L416.716 565.826L413.265 560.917ZM406.61 563.478L407.339 569.434L406.61 563.478ZM396.907 561.645C391.482 579.135 375.172 591.826 355.913 591.826V603.826C380.578 603.826 401.43 587.569 408.369 565.201L396.907 561.645ZM355.913 591.826C332.213 591.826 313 572.613 313 548.913H301C301 579.241 325.585 603.826 355.913 603.826V591.826ZM313 548.913C313 525.213 332.213 506 355.913 506V494C325.585 494 301 518.585 301 548.913H313ZM355.913 506C375.172 506 391.482 518.691 396.907 536.181L408.369 532.626C401.43 510.257 380.578 494 355.913 494V506ZM406.365 528.296C404.817 528.181 403.267 528.241 401.743 528.47L403.533 540.336C404.172 540.24 404.822 540.215 405.472 540.263L406.365 528.296ZM415.902 531.456C413.031 529.635 409.755 528.549 406.365 528.296L405.472 540.263C406.894 540.369 408.268 540.825 409.473 541.589L415.902 531.456ZM422.823 538.738C421.15 535.779 418.772 533.277 415.902 531.456L409.473 541.589C410.677 542.353 411.675 543.402 412.377 544.644L422.823 538.738ZM425.494 548.423C425.414 545.024 424.496 541.698 422.823 538.738L412.377 544.644C413.079 545.886 413.464 547.282 413.498 548.708L425.494 548.423ZM423.285 558.224C424.816 555.189 425.575 551.822 425.494 548.423L413.498 548.708C413.531 550.134 413.213 551.546 412.571 552.82L423.285 558.224ZM416.716 565.826C419.497 563.871 421.753 561.26 423.285 558.224L412.571 552.82C411.928 554.093 410.981 555.189 409.815 556.009L416.716 565.826ZM407.339 569.434C410.714 569.02 413.935 567.781 416.716 565.826L409.815 556.009C408.648 556.829 407.296 557.349 405.881 557.523L407.339 569.434ZM401.743 569.356C403.59 569.634 405.472 569.662 407.339 569.434L405.881 557.523C405.097 557.619 404.307 557.607 403.533 557.49L401.743 569.356Z" fill="black" mask="url(#path-4-inside-1_392_6260)"/>
<path d="M355.913 597.826C377.875 597.826 396.456 583.352 402.638 563.423C403.948 563.621 405.284 563.641 406.61 563.478C409.005 563.185 411.291 562.305 413.265 560.918C415.239 559.53 416.841 557.676 417.927 555.522C419.014 553.367 419.553 550.978 419.496 548.566C419.439 546.153 418.787 543.792 417.6 541.691C416.412 539.591 414.725 537.815 412.687 536.523C410.649 535.23 408.324 534.46 405.918 534.28C404.819 534.198 403.719 534.24 402.638 534.403C390.686 559.167 354.826 596.739 307 548.913C307 575.927 328.899 597.826 355.913 597.826Z" fill="black" fill-opacity="0.16"/>
<path d="M457 518C437.67 518 422 531.879 422 549C422 566.121 437.67 580 457 580" stroke="black" stroke-width="6" stroke-linecap="round"/>
</svg>
