<svg width="1000" height="1000" viewBox="0 0 1000 1000" fill="none" xmlns="http://www.w3.org/2000/svg">
<g clip-path="url(#clip0_406_25725)">
<path d="M337 503C364.062 503 386 481.062 386 454C386 426.938 364.062 405 337 405C309.938 405 288 426.938 288 454C288 481.062 309.938 503 337 503Z" fill="#004DFF" stroke="black" stroke-width="4"/>
<path d="M452.5 503C479.306 503 501 481.042 501 454C501 426.958 479.306 405 452.5 405C425.694 405 404 426.958 404 454C404 481.042 425.694 503 452.5 503Z" fill="#004DFF" stroke="black" stroke-width="4"/>
<path opacity="0.5" d="M336 384L340.206 435.574L366.372 390.932L347.784 439.223L390.728 410.356L353.028 445.8L404.245 438.424L354.9 454L404.245 469.576L353.028 462.2L390.728 497.644L347.784 468.777L366.372 517.068L340.206 472.426L336 524L331.794 472.426L305.628 517.068L324.216 468.777L281.272 497.644L318.972 462.2L267.755 469.576L317.1 454L267.755 438.424L318.972 445.8L281.272 410.356L324.216 439.223L305.628 390.932L331.794 435.574L336 384Z" fill="white" fill-opacity="0.7"/>
<path opacity="0.5" d="M448 384L452.206 435.574L478.372 390.932L459.784 439.223L502.728 410.356L465.028 445.8L516.245 438.424L466.9 454L516.245 469.576L465.028 462.2L502.728 497.644L459.784 468.777L478.372 517.068L452.206 472.426L448 524L443.794 472.426L417.628 517.068L436.216 468.777L393.272 497.644L430.972 462.2L379.755 469.576L429.1 454L379.755 438.424L430.972 445.8L393.272 410.356L436.216 439.223L417.628 390.932L443.794 435.574L448 384Z" fill="white" fill-opacity="0.7"/>
<path d="M0 437H-2V439V469V471H0H439C448.389 471 456 463.389 456 454C456 444.611 448.389 437 439 437H0Z" fill="#004DFF" stroke="black" stroke-width="4"/>
</g>
<defs>
<clipPath id="clip0_406_25725">
<rect width="1000" height="1000" fill="white"/>
</clipPath>
</defs>
</svg>
