<svg width="1000" height="1000" viewBox="0 0 1000 1000" fill="none" xmlns="http://www.w3.org/2000/svg">
<g filter="url(#filter0_d_445_37320)">
<mask id="path-1-outside-1_445_37320" maskUnits="userSpaceOnUse" x="200" y="201" width="600" height="599" fill="black">
<rect fill="white" x="200" y="201" width="600" height="599"/>
<path fill-rule="evenodd" clip-rule="evenodd" d="M791.939 489.283C791.939 538.983 778.463 585.663 754.828 626.137C753.169 628.979 753.402 632.514 754.992 635.394C760.531 645.426 762.806 659.423 760.404 674.31C758.429 686.545 753.633 697.286 747.302 705.136C745.916 706.855 745.14 708.999 745.196 711.206C745.214 711.937 745.224 712.673 745.224 713.415C745.224 733.572 738.252 749.913 729.652 749.913C721.796 749.913 715.299 736.278 714.234 718.554C714.17 717.495 713.56 716.582 712.621 716.09V716.09C710.209 714.826 706.227 716.818 706.281 719.54C706.29 719.993 706.295 720.447 706.295 720.902C706.295 748.295 689.955 770.501 669.798 770.501C656.667 770.501 645.156 761.077 638.727 746.934C636.622 742.304 631.158 739.795 626.542 741.93C623.846 743.177 621.126 744.386 618.384 745.555C615.933 746.6 614.163 748.776 613.452 751.344C607.07 774.394 588.305 791.089 566.149 791.089C551.545 791.089 538.414 783.836 529.332 772.29C527.515 769.98 524.722 768.586 521.791 768.794C514.586 769.305 507.31 769.565 499.969 769.565C471.408 769.565 443.804 765.628 417.715 758.289C412.846 756.919 407.857 760.319 405.486 764.786C401.027 773.186 392.059 778.924 381.722 778.924C369.286 778.924 358.832 770.62 355.827 759.367C355.078 756.563 352.021 754.592 349.119 754.592V754.592C339.444 754.592 331.601 745.584 331.601 734.471C331.601 730.639 332.534 727.057 334.153 724.008C335 722.414 334.664 720.354 333.164 719.35V719.35C331.413 718.178 329.011 719.032 328.034 720.899C324.809 727.065 318.896 731.196 312.136 731.196C301.923 731.196 293.645 721.769 293.645 710.14C293.645 704.702 295.455 699.745 298.427 696.009C299.402 694.783 299.396 692.968 298.242 691.908V691.908C296.766 690.554 294.359 691.209 293.687 693.096C288.627 707.297 279.995 716.65 270.196 716.65C254.609 716.65 241.973 692.978 241.973 663.777C241.973 653.104 243.661 643.17 246.564 634.86C247.414 632.428 247.232 629.731 245.92 627.514C221.783 586.722 208 539.548 208 489.283C208 334.487 338.719 209 499.969 209C661.22 209 791.939 334.487 791.939 489.283Z"/>
</mask>
<path fill-rule="evenodd" clip-rule="evenodd" d="M791.939 489.283C791.939 538.983 778.463 585.663 754.828 626.137C753.169 628.979 753.402 632.514 754.992 635.394C760.531 645.426 762.806 659.423 760.404 674.31C758.429 686.545 753.633 697.286 747.302 705.136C745.916 706.855 745.14 708.999 745.196 711.206C745.214 711.937 745.224 712.673 745.224 713.415C745.224 733.572 738.252 749.913 729.652 749.913C721.796 749.913 715.299 736.278 714.234 718.554C714.17 717.495 713.56 716.582 712.621 716.09V716.09C710.209 714.826 706.227 716.818 706.281 719.54C706.29 719.993 706.295 720.447 706.295 720.902C706.295 748.295 689.955 770.501 669.798 770.501C656.667 770.501 645.156 761.077 638.727 746.934C636.622 742.304 631.158 739.795 626.542 741.93C623.846 743.177 621.126 744.386 618.384 745.555C615.933 746.6 614.163 748.776 613.452 751.344C607.07 774.394 588.305 791.089 566.149 791.089C551.545 791.089 538.414 783.836 529.332 772.29C527.515 769.98 524.722 768.586 521.791 768.794C514.586 769.305 507.31 769.565 499.969 769.565C471.408 769.565 443.804 765.628 417.715 758.289C412.846 756.919 407.857 760.319 405.486 764.786C401.027 773.186 392.059 778.924 381.722 778.924C369.286 778.924 358.832 770.62 355.827 759.367C355.078 756.563 352.021 754.592 349.119 754.592V754.592C339.444 754.592 331.601 745.584 331.601 734.471C331.601 730.639 332.534 727.057 334.153 724.008C335 722.414 334.664 720.354 333.164 719.35V719.35C331.413 718.178 329.011 719.032 328.034 720.899C324.809 727.065 318.896 731.196 312.136 731.196C301.923 731.196 293.645 721.769 293.645 710.14C293.645 704.702 295.455 699.745 298.427 696.009C299.402 694.783 299.396 692.968 298.242 691.908V691.908C296.766 690.554 294.359 691.209 293.687 693.096C288.627 707.297 279.995 716.65 270.196 716.65C254.609 716.65 241.973 692.978 241.973 663.777C241.973 653.104 243.661 643.17 246.564 634.86C247.414 632.428 247.232 629.731 245.92 627.514C221.783 586.722 208 539.548 208 489.283C208 334.487 338.719 209 499.969 209C661.22 209 791.939 334.487 791.939 489.283Z" fill="#88C9F9"/>
<path d="M760.404 674.31L768.302 675.584V675.584L760.404 674.31ZM245.92 627.514L252.805 623.44L245.92 627.514ZM293.687 693.096L301.223 695.781L293.687 693.096ZM298.427 696.009L292.166 691.029L298.427 696.009ZM334.153 724.008L327.088 720.255L334.153 724.008ZM417.715 758.289L415.548 765.99L417.715 758.289ZM405.486 764.786L398.419 761.036L405.486 764.786ZM529.332 772.29L523.044 777.236L529.332 772.29ZM521.791 768.794L522.357 776.774L521.791 768.794ZM706.281 719.54L698.283 719.699L706.281 719.54ZM355.827 759.367L348.098 761.432L355.827 759.367ZM714.234 718.554L722.219 718.073L714.234 718.554ZM747.302 705.136L753.529 710.159L747.302 705.136ZM745.196 711.206L737.198 711.41L745.196 711.206ZM328.034 720.899L335.123 724.607L328.034 720.899ZM638.727 746.934L646.01 743.623L638.727 746.934ZM626.542 741.93L623.184 734.669L626.542 741.93ZM618.384 745.555L615.246 738.196L618.384 745.555ZM613.452 751.344L621.162 753.479L613.452 751.344ZM754.828 626.137L761.737 630.171L754.828 626.137ZM754.992 635.394L747.988 639.261L754.992 635.394ZM761.737 630.171C786.06 588.518 799.939 540.452 799.939 489.283H783.939C783.939 537.514 770.866 582.808 747.92 622.103L761.737 630.171ZM768.302 675.584C770.937 659.256 768.545 643.39 761.995 631.528L747.988 639.261C752.516 647.462 754.676 659.59 752.506 673.035L768.302 675.584ZM753.529 710.159C760.82 701.119 766.129 689.05 768.302 675.584L752.506 673.035C750.73 684.039 746.446 693.454 741.075 700.114L753.529 710.159ZM753.224 713.415C753.224 712.606 753.214 711.801 753.193 711.003L737.198 711.41C737.215 712.073 737.224 712.741 737.224 713.415H753.224ZM729.652 757.913C734.52 757.913 738.481 755.566 741.346 752.726C744.177 749.919 746.36 746.255 748.021 742.362C751.356 734.547 753.224 724.307 753.224 713.415H737.224C737.224 722.68 735.606 730.689 733.305 736.083C732.148 738.795 730.975 740.477 730.081 741.363C729.22 742.217 729.084 741.913 729.652 741.913V757.913ZM706.248 719.034C706.825 728.633 708.885 737.567 712.204 744.383C715.202 750.537 720.796 757.913 729.652 757.913V741.913C730.653 741.913 729.07 742.471 726.589 737.376C724.43 732.944 722.708 726.198 722.219 718.073L706.248 719.034ZM698.283 719.699C698.291 720.098 698.295 720.499 698.295 720.902H714.295C714.295 720.394 714.29 719.887 714.28 719.382L698.283 719.699ZM698.295 720.902C698.295 733.07 694.655 743.767 689.161 751.233C683.666 758.701 676.728 762.501 669.798 762.501V778.501C683.026 778.501 694.335 771.198 702.049 760.715C709.765 750.229 714.295 736.127 714.295 720.902H698.295ZM669.798 762.501C660.833 762.501 651.628 755.983 646.01 743.623L631.444 750.244C638.684 766.171 652.501 778.501 669.798 778.501V762.501ZM621.522 752.914C624.338 751.713 627.131 750.472 629.901 749.191L623.184 734.669C620.56 735.883 617.914 737.059 615.246 738.196L621.522 752.914ZM566.149 799.089C592.631 799.089 614.03 779.236 621.162 753.479L605.742 749.209C600.11 769.551 583.978 783.089 566.149 783.089V799.089ZM523.044 777.236C533.427 790.435 548.762 799.089 566.149 799.089V783.089C554.328 783.089 543.401 777.236 535.619 767.343L523.044 777.236ZM499.969 777.565C507.499 777.565 514.964 777.299 522.357 776.774L521.225 760.814C514.209 761.312 507.121 761.565 499.969 761.565V777.565ZM415.548 765.99C442.338 773.526 470.67 777.565 499.969 777.565V761.565C472.145 761.565 445.271 757.73 419.881 750.588L415.548 765.99ZM381.722 786.924C395.072 786.924 406.731 779.504 412.552 768.537L398.419 761.036C395.324 766.868 389.046 770.924 381.722 770.924V786.924ZM348.098 761.432C352.041 776.198 365.676 786.924 381.722 786.924V770.924C372.897 770.924 365.623 765.043 363.556 757.303L348.098 761.432ZM323.601 734.471C323.601 748.926 334.021 762.592 349.119 762.592V746.592C344.867 746.592 339.601 742.242 339.601 734.471H323.601ZM327.088 720.255C324.85 724.468 323.601 729.34 323.601 734.471H339.601C339.601 731.937 340.217 729.645 341.218 727.76L327.088 720.255ZM312.136 739.196C322.356 739.196 330.757 732.955 335.123 724.607L320.945 717.191C318.862 721.175 315.437 723.196 312.136 723.196V739.196ZM285.645 710.14C285.645 725.179 296.56 739.196 312.136 739.196V723.196C307.286 723.196 301.645 718.358 301.645 710.14H285.645ZM292.166 691.029C288.044 696.211 285.645 702.932 285.645 710.14H301.645C301.645 706.472 302.866 703.28 304.688 700.989L292.166 691.029ZM270.196 724.65C277.822 724.65 284.375 720.978 289.443 715.786C294.48 710.626 298.424 703.634 301.223 695.781L286.151 690.41C283.889 696.758 280.987 701.543 277.994 704.61C275.031 707.645 272.368 708.65 270.196 708.65V724.65ZM233.973 663.777C233.973 679.426 237.341 693.99 243.182 704.931C248.84 715.53 258.013 724.65 270.196 724.65V708.65C266.792 708.65 261.854 705.934 257.297 697.397C252.922 689.201 249.973 677.329 249.973 663.777H233.973ZM239.011 632.222C235.785 641.458 233.973 652.292 233.973 663.777H249.973C249.973 653.916 251.537 644.882 254.116 637.499L239.011 632.222ZM200 489.283C200 541.034 214.196 589.609 239.035 631.587L252.805 623.44C229.371 583.836 216 538.062 216 489.283H200ZM499.969 201C334.612 201 200 329.764 200 489.283H216C216 339.21 342.826 217 499.969 217V201ZM799.939 489.283C799.939 329.764 665.327 201 499.969 201V217C657.112 217 783.939 339.21 783.939 489.283H799.939ZM254.116 637.499C255.677 633.032 255.418 627.856 252.805 623.44L239.035 631.587C239.046 631.606 239.151 631.823 239.011 632.222L254.116 637.499ZM303.651 686.014C297.731 680.581 288.642 683.419 286.151 690.41L301.223 695.781C300.076 699 295.801 700.527 292.832 697.802L303.651 686.014ZM304.688 700.989C307.851 697.012 308.38 690.354 303.651 686.014L292.832 697.802C290.413 695.582 290.954 692.553 292.166 691.029L304.688 700.989ZM341.218 727.76C343.632 723.216 343.124 716.39 337.614 712.702L328.714 725.998C327.513 725.194 326.889 724.019 326.69 723.005C326.499 722.036 326.65 721.078 327.088 720.255L341.218 727.76ZM419.881 750.588C409.957 747.796 401.748 754.763 398.419 761.036L412.552 768.537C413.084 767.534 413.898 766.717 414.65 766.284C415 766.083 415.252 766.013 415.383 765.992C415.495 765.973 415.532 765.985 415.548 765.99L419.881 750.588ZM535.619 767.343C532.355 763.193 527.098 760.398 521.225 760.814L522.357 776.774C522.367 776.773 522.43 776.769 522.558 776.829C522.696 776.895 522.878 777.024 523.044 777.236L535.619 767.343ZM716.334 709.004C712.091 706.78 707.607 707.761 704.795 709.243C702.026 710.704 698.173 714.163 698.283 719.699L714.28 719.382C714.307 720.752 713.806 721.799 713.36 722.407C712.94 722.98 712.513 723.262 712.257 723.397C711.993 723.536 711.647 723.659 711.182 723.692C710.72 723.726 709.875 723.683 708.907 723.176L716.334 709.004ZM363.556 757.303C361.703 750.367 354.946 746.592 349.119 746.592V762.592C348.947 762.592 348.852 762.565 348.823 762.555C348.792 762.545 348.767 762.534 348.733 762.51C348.713 762.496 348.306 762.212 348.098 761.432L363.556 757.303ZM722.219 718.073C721.981 714.116 719.666 710.75 716.334 709.004L708.907 723.176C707.454 722.414 706.359 720.874 706.248 719.034L722.219 718.073ZM741.075 700.114C738.576 703.212 737.091 707.185 737.198 711.41L753.193 711.003C753.188 710.813 753.256 710.497 753.529 710.159L741.075 700.114ZM337.614 712.702C331.142 708.37 323.677 711.969 320.945 717.191L335.123 724.607C334.608 725.592 333.75 726.284 332.741 726.607C331.671 726.948 330.121 726.94 328.714 725.998L337.614 712.702ZM646.01 743.623C642.369 735.615 632.458 730.379 623.184 734.669L629.901 749.191C629.933 749.176 630.081 749.102 630.443 749.256C630.848 749.428 631.237 749.79 631.444 750.244L646.01 743.623ZM615.246 738.196C610.348 740.285 607.04 744.522 605.742 749.209L621.162 753.479C621.219 753.273 621.309 753.122 621.387 753.029C621.461 752.942 621.511 752.919 621.522 752.914L615.246 738.196ZM747.92 622.103C744.584 627.816 745.301 634.393 747.988 639.261L761.995 631.528C761.779 631.136 761.696 630.766 761.688 630.503C761.68 630.261 761.734 630.176 761.737 630.171L747.92 622.103Z" fill="#090909" mask="url(#path-1-outside-1_445_37320)"/>
<g filter="url(#filter1_d_445_37320)">
<path d="M698.808 576.705C709.486 599.44 706.404 597.018 723.723 603.669C769.926 623.339 730 671 713 671C700.352 671 685.871 687.927 678.951 698.168C677.976 699.61 676.876 700.959 675.593 702.135C657.485 718.721 638.668 732.767 619.328 744.412C608.82 750.722 582.525 779.717 566.823 789.899C560.854 793.777 556.645 794.395 553.77 793.809C549.4 792.918 548.923 787.55 550.134 783.257C553.193 772.406 560.026 751.207 568.814 742.443C580.225 730.999 592.73 687.493 581.491 680.768C580.33 680.073 578.891 680.038 577.537 680.038C548.631 680.03 557.795 679.677 535.5 664C518.187 651.826 520.978 629.43 525.002 618.21C525.417 617.055 525.795 615.845 526.057 614.646C531.685 588.905 537.306 585.424 542.387 583.883C549.741 581.654 548.364 573.133 540.973 571.03C534.356 569.147 526.399 568.109 520.716 567.671L520.615 567.663C518.893 567.53 517.031 567.387 515.852 566.133C512.891 562.982 514.462 556.21 508.102 549.674C503.742 545.193 496.699 546.11 490.458 546.486C469.37 547.757 443.451 525.532 430.768 511.495C429.915 510.551 428.994 509.682 428.005 508.882C417.884 500.7 406.208 488.184 403.997 475.844C403.316 472.044 402.754 468.12 400.913 464.727C371.744 410.995 377.03 448.171 378 469.954C378 477.763 377.147 482.03 375.887 484.016C372.039 490.081 364.476 476.341 362.793 469.358C360.031 457.896 356.987 439.245 350 427C339.322 408.273 317.773 387.03 323.12 373.675C328.451 360.304 329.779 344.22 327.105 329.519C324.448 314.817 304.421 309.461 300.419 313.469C297.605 316.287 281.999 323.754 272.308 322.071C266.065 320.986 267.211 312.983 271.266 308.114C295.636 278.848 327.861 255.35 361.202 236.498C364.013 234.908 367.206 233.936 370.386 234.502C376.678 235.623 382.786 238.918 383.731 242.689C386.388 253.4 389.027 267.607 403.707 262.269C418.404 256.93 455.548 252.752 472.918 239.397C490.272 226.025 511.117 225.974 528.488 231.33C545.859 236.668 594.532 235.201 583.837 251.234C573.159 267.283 552.773 265.356 542.112 284.066C531.417 302.793 545.042 315.192 559.705 315.192C574.436 315.192 588.809 317.494 598.193 302.793C607.543 288.091 591.688 260.802 603.711 262.61C614.619 264.234 624.792 280.006 633.618 297.896C635.391 301.489 638.091 304.597 641.7 306.337C651.237 310.937 663.663 314.329 663 303.437C662.284 291.663 672.204 293.675 678.834 296.857C680.302 297.562 681.594 298.557 682.727 299.728C693.508 310.871 707.157 331.667 693.954 344.049C690.399 347.384 685.112 347.462 680.348 346.431C668.352 343.833 657.609 344.038 654.291 356.279C650.272 370.981 660.916 385.7 650.272 384.352C642.363 383.354 638.117 384.667 630.475 384.826C624.413 384.953 619.371 381.005 614.791 377.032C603.29 367.055 596.157 384.42 583.837 384.42C572.869 384.42 562.965 430.368 558.851 456.448C558.479 458.806 558.698 461.2 558.715 463.587C558.829 479.296 535.5 482.471 535.5 467.5C535.5 451.468 520.506 444.839 508.5 447.5C496.477 450.178 487.377 456.565 488.723 469.954C490.051 483.326 483.358 499.375 494.053 510.069C504.731 520.797 523.307 499.509 530 503.5C536.693 507.542 549.384 513.156 542.691 519.859C535.999 526.527 512.718 534.884 526.07 545.595C539.456 556.272 552.944 559.734 558.308 561.065C563.656 562.429 559.364 547.864 576.752 541.178C594.089 534.475 621.167 519.176 627.843 531.218C634.519 543.242 633.616 541.366 657.646 544.009C681.659 546.67 688.13 553.987 698.808 576.705Z" fill="#008026"/>
<path d="M619.328 744.412C614.405 747.368 606.017 755.304 596.877 763.951C586.507 773.761 575.169 784.487 566.823 789.899C560.854 793.777 556.645 794.395 553.77 793.809C549.4 792.918 548.923 787.55 550.134 783.257C553.193 772.406 560.026 751.207 568.814 742.443C580.225 730.999 592.73 687.493 581.491 680.768C580.33 680.073 578.891 680.038 577.537 680.038C555.836 680.032 555.592 679.831 547.385 673.098C544.66 670.863 541.057 667.908 535.5 664C518.187 651.826 520.978 629.43 525.002 618.21C525.417 617.055 525.795 615.845 526.057 614.646C531.685 588.905 537.306 585.424 542.387 583.883C549.741 581.654 548.364 573.133 540.973 571.03C534.356 569.147 526.399 568.109 520.716 567.671L520.615 567.663C518.893 567.53 517.031 567.387 515.852 566.133C514.656 564.859 514.199 562.994 513.66 560.792C512.865 557.546 511.891 553.568 508.102 549.674C504.114 545.576 497.881 545.993 492.071 546.382C491.529 546.418 490.99 546.454 490.458 546.486C469.37 547.757 443.451 525.532 430.768 511.495C429.915 510.551 428.994 509.682 428.005 508.882M619.328 744.412C638.668 732.767 657.485 718.721 675.593 702.135C676.876 700.959 677.976 699.61 678.951 698.168C685.871 687.927 700.352 671 713 671C730 671 769.926 623.339 723.723 603.669M619.328 744.412L618.038 742.27M619.328 744.412L618.041 742.269C618.04 742.269 618.039 742.27 618.038 742.27M723.723 603.669C716.089 600.737 712.418 599.568 709.786 597.23C706.447 594.265 704.779 589.418 698.808 576.705M723.723 603.669L722.827 606.003C722.813 605.998 722.799 605.992 722.785 605.987M723.723 603.669L722.744 605.97C722.758 605.976 722.771 605.981 722.785 605.987M698.808 576.705C688.13 553.987 681.659 546.67 657.646 544.009M698.808 576.705L696.546 577.768C696.545 577.768 696.545 577.768 696.545 577.767M698.808 576.705L696.545 577.767M657.646 544.009C654.381 543.65 651.576 543.374 649.15 543.136C633.721 541.619 633.612 541.608 627.843 531.218C622.442 521.476 603.689 529.628 587.543 536.646C583.731 538.304 580.064 539.898 576.752 541.178C566.031 545.3 563.552 552.419 561.973 556.951C560.992 559.769 560.358 561.588 558.308 561.065M657.646 544.009L657.372 546.494C657.372 546.494 657.371 546.494 657.371 546.494M657.646 544.009L657.371 546.494M558.308 561.065C552.944 559.734 539.456 556.272 526.07 545.595C516.159 537.645 526.432 530.991 535.122 525.362C538.14 523.408 540.967 521.577 542.691 519.859M558.308 561.065L557.706 563.491C557.705 563.491 557.703 563.491 557.702 563.49M558.308 561.065L557.69 563.487C557.694 563.488 557.698 563.489 557.702 563.49M542.691 519.859C548.503 514.039 539.7 509.04 532.899 505.178C531.867 504.592 530.882 504.032 530 503.5M542.691 519.859L540.922 518.092C540.923 518.091 540.924 518.09 540.925 518.089M542.691 519.859L540.927 518.088C540.926 518.088 540.926 518.089 540.925 518.089M530 503.5C527.293 501.886 522.642 504.407 517.355 507.273C509.572 511.492 500.412 516.457 494.053 510.069M530 503.5L528.72 505.647C528.718 505.646 528.717 505.646 528.716 505.645M530 503.5L528.708 505.64C528.71 505.642 528.713 505.643 528.716 505.645M494.053 510.069C486.729 502.746 487.559 492.911 488.384 483.145C488.763 478.649 489.141 474.169 488.723 469.954M494.053 510.069L492.285 511.837C492.284 511.835 492.283 511.834 492.281 511.832M494.053 510.069L492.281 511.832M488.723 469.954C487.377 456.565 496.477 450.178 508.5 447.5C520.506 444.839 535.5 451.468 535.5 467.5C535.5 482.471 558.829 479.296 558.715 463.587C558.711 462.98 558.693 462.373 558.676 461.766C558.625 459.985 558.574 458.206 558.851 456.448C562.965 430.368 572.869 384.42 583.837 384.42C588.868 384.42 593.035 381.524 596.987 378.777C602.712 374.797 607.987 371.13 614.791 377.032C619.371 381.005 624.413 384.953 630.475 384.826C633.192 384.77 635.481 384.567 637.657 384.375C641.6 384.026 645.176 383.709 650.272 384.352C656.227 385.106 655.518 380.83 654.442 374.341C653.595 369.233 652.521 362.754 654.291 356.279M488.723 469.954L486.235 470.204M488.723 469.954L486.235 470.201C486.235 470.202 486.235 470.203 486.235 470.204M654.291 356.279C657.609 344.038 668.352 343.833 680.348 346.431C685.112 347.462 690.399 347.384 693.954 344.049C707.157 331.667 693.508 310.871 682.727 299.728C681.594 298.557 680.302 297.562 678.834 296.857C672.204 293.675 662.284 291.663 663 303.437C663.663 314.329 651.237 310.937 641.7 306.337C638.091 304.597 635.391 301.489 633.618 297.896C624.792 280.006 614.619 264.234 603.711 262.61C597.681 261.703 598.663 268.115 599.961 276.588C601.252 285.009 602.854 295.464 598.193 302.793C589.937 315.728 577.818 315.5 564.991 315.258C563.239 315.225 561.475 315.192 559.705 315.192C545.042 315.192 531.417 302.793 542.112 284.066M654.291 356.279L651.878 355.625M654.291 356.279L651.879 355.619C651.879 355.621 651.878 355.623 651.878 355.625M542.112 284.066C547.738 274.193 556.071 270.066 564.257 266.013C571.584 262.384 578.793 258.814 583.837 251.234C591.318 240.019 569.751 237.367 550.169 234.958C541.756 233.924 533.708 232.934 528.488 231.33C511.117 225.974 490.272 226.025 472.918 239.397C461.015 248.549 439.826 253.391 422.938 257.251C415.182 259.023 408.333 260.588 403.707 262.269C389.75 267.344 386.677 254.751 384.124 244.293C383.992 243.752 383.862 243.216 383.731 242.689M542.112 284.066L539.94 282.828C539.941 282.827 539.941 282.826 539.941 282.826M542.112 284.066L539.941 282.826M383.731 242.689C382.786 238.918 376.678 235.623 370.386 234.502C367.206 233.936 364.013 234.908 361.202 236.498C327.861 255.35 295.636 278.848 271.266 308.114C267.211 312.983 266.065 320.986 272.308 322.071C281.999 323.754 297.605 316.287 300.419 313.469C304.421 309.461 324.448 314.817 327.105 329.519M383.731 242.689L381.306 243.296C381.306 243.296 381.306 243.295 381.305 243.295M383.731 242.689L381.304 243.291C381.305 243.292 381.305 243.293 381.305 243.295M327.105 329.519C329.779 344.22 328.451 360.304 323.12 373.675C319.372 383.035 328.836 396.27 338.51 409.797C342.639 415.571 346.806 421.398 350 427M327.105 329.519L329.565 329.071C329.565 329.072 329.565 329.073 329.565 329.074M327.105 329.519L329.565 329.074M350 427C355.626 436.861 358.696 450.877 361.121 461.946C361.707 464.623 362.256 467.127 362.793 469.358C364.476 476.341 372.039 490.081 375.887 484.016C377.147 482.03 378 477.763 378 469.954M350 427L352.171 425.761M350 427L352.172 425.762C352.172 425.761 352.171 425.761 352.171 425.761M378 469.954C377.899 467.675 377.75 465.228 377.598 462.734C376.301 441.388 374.796 416.616 400.913 464.727C402.583 467.803 403.2 471.316 403.808 474.778C403.871 475.134 403.934 475.489 403.997 475.844C406.208 488.184 417.884 500.7 428.005 508.882M378 469.954H375.5C375.5 469.973 375.5 469.991 375.5 470.01M378 469.954L375.502 470.065C375.502 470.047 375.501 470.028 375.5 470.01M428.005 508.882L429.577 506.938C424.622 502.933 419.318 497.89 415.003 492.38C410.666 486.843 407.462 481.007 406.458 475.403C406.394 475.049 406.331 474.688 406.267 474.32C405.673 470.918 404.987 466.992 403.11 463.534C395.821 450.108 390.544 442.08 386.692 438.078C385.712 437.061 384.759 436.233 383.824 435.636C382.901 435.046 381.857 434.593 380.731 434.529C379.521 434.46 378.425 434.854 377.549 435.597C376.736 436.287 376.207 437.193 375.846 438.063C375.133 439.779 374.798 442.03 374.638 444.391C374.475 446.807 374.481 449.58 374.57 452.469C374.673 455.791 374.895 459.453 375.108 462.974C375.258 465.444 375.403 467.845 375.5 470.01M428.005 508.882L429.577 506.938C430.665 507.818 431.681 508.776 432.623 509.819C438.86 516.721 448.357 525.64 458.85 532.653C469.427 539.721 480.603 544.575 490.308 543.991C490.803 543.961 491.316 543.926 491.841 543.891C494.474 543.713 497.437 543.514 500.215 543.769C503.617 544.082 507.139 545.1 509.894 547.931C513.494 551.63 514.84 555.42 515.668 558.53C515.848 559.209 515.99 559.79 516.118 560.318C516.304 561.082 516.463 561.734 516.673 562.406C516.998 563.446 517.315 564.038 517.674 564.421C517.827 564.583 518.092 564.756 518.642 564.895C519.226 565.042 519.904 565.101 520.806 565.17L520.907 565.178L520.908 565.178C526.674 565.623 534.815 566.678 541.657 568.625C546.159 569.906 549.19 573.274 549.688 577.085C549.938 578.996 549.528 580.964 548.366 582.649C547.205 584.333 545.401 585.582 543.112 586.276C541.981 586.619 540.958 587.028 539.932 587.758C538.903 588.489 537.76 589.622 536.532 591.539C534.032 595.439 531.295 602.393 528.5 615.18C528.207 616.52 527.791 617.839 527.355 619.054C525.44 624.397 523.824 632.41 524.734 640.467C525.638 648.465 529.004 656.376 536.938 661.955C542.571 665.916 546.23 668.918 548.969 671.164L548.995 671.186C551.789 673.478 553.405 674.785 555.155 675.657C556.812 676.484 558.72 676.975 562.105 677.241C565.54 677.511 570.276 677.536 577.538 677.538H577.596C578.861 677.538 580.962 677.538 582.775 678.623C584.802 679.836 586.133 681.786 586.975 683.985C587.816 686.176 588.232 688.761 588.354 691.522C588.598 697.045 587.681 703.722 586.077 710.418C584.469 717.137 582.138 724.007 579.47 729.948C576.827 735.834 573.757 741.026 570.584 744.208L570.579 744.214C566.562 748.219 562.81 755.306 559.637 763.018C556.499 770.645 554.056 778.556 552.54 783.935C552.014 785.799 551.908 787.746 552.28 789.183C552.624 790.517 553.265 791.155 554.27 791.359C556.279 791.769 559.817 791.47 565.461 787.803L565.463 787.802C573.08 782.862 583.395 773.255 593.306 763.887C593.925 763.301 594.543 762.717 595.158 762.136C599.417 758.106 603.542 754.204 607.228 750.89C611.404 747.136 615.18 743.987 618.038 742.27M375.5 470.01C375.498 473.808 375.288 476.665 374.948 478.769C374.599 480.924 374.141 482.101 373.776 482.677C373.667 482.848 373.582 482.947 373.526 483.002M373.526 483.002L352.171 425.761M373.526 483.002C373.495 483.033 373.473 483.05 373.462 483.057M373.526 483.002C373.566 483.015 373.591 483.021 373.603 483.023M618.038 742.27C637.231 730.715 655.914 716.769 673.904 700.291C675.011 699.278 675.987 698.089 676.879 696.768C680.415 691.536 685.891 684.577 692.146 678.893C698.289 673.312 705.681 668.5 713 668.5C714.583 668.5 716.664 667.93 719.1 666.687C721.506 665.459 724.108 663.65 726.691 661.371C731.865 656.805 736.773 650.52 739.775 643.703C742.78 636.881 743.786 629.754 741.566 623.301C739.37 616.915 733.845 610.705 722.785 605.987M722.785 605.987C721.756 605.592 720.789 605.225 719.879 604.88C717.06 603.812 714.797 602.954 712.981 602.119C710.482 600.97 708.579 599.76 706.907 597.88C705.294 596.067 704.013 593.757 702.519 590.66C701.755 589.079 700.886 587.18 699.863 584.944C698.905 582.852 697.812 580.465 696.545 577.767M696.545 577.767C691.201 566.396 687.108 559.36 681.62 554.75C676.22 550.214 669.182 547.803 657.371 546.494M657.371 546.494C654.383 546.165 651.781 545.907 649.495 545.682L648.901 545.623C646.869 545.424 645.08 545.248 643.51 545.07C640.118 544.687 637.484 544.275 635.353 543.47C630.835 541.763 628.964 538.391 625.887 532.845L625.657 532.431L625.656 532.43C624.55 530.433 622.588 529.381 619.379 529.249C616.081 529.114 611.87 529.995 607.064 531.548C602.3 533.087 597.174 535.211 592.099 537.397C590.922 537.904 589.745 538.416 588.576 538.924C584.752 540.586 581.018 542.209 577.654 543.51L577.649 543.511C569.748 546.549 566.904 551.253 565.327 555.09C564.942 556.029 564.632 556.92 564.33 557.786L564.27 557.958C563.965 558.832 563.636 559.771 563.249 560.566C562.874 561.337 562.291 562.313 561.293 562.967C560.164 563.708 558.897 563.792 557.702 563.49M557.702 563.49C552.235 562.134 538.323 558.567 524.511 547.55L524.506 547.545C520.778 544.555 519.008 541.202 519.629 537.572C520.195 534.26 522.667 531.509 525.24 529.31C527.786 527.135 530.915 525.109 533.707 523.301L534.034 523.089C537.028 521.149 539.479 519.53 540.925 518.089M540.925 518.089C542.148 516.863 542.15 516.097 542.037 515.605C541.865 514.858 541.192 513.838 539.729 512.572C538.318 511.35 536.471 510.152 534.474 508.97C533.636 508.474 532.676 507.927 531.728 507.388C530.637 506.767 529.563 506.156 528.716 505.645M528.716 505.645C528.551 505.548 528.18 505.42 527.35 505.548C526.504 505.677 525.423 506.037 524.077 506.636C522.385 507.388 520.626 508.343 518.692 509.393C517.431 510.078 516.097 510.802 514.658 511.537C511.214 513.297 507.354 515.004 503.548 515.487C499.607 515.987 495.611 515.178 492.281 511.832M492.281 511.832C486.211 505.76 485.2 498.215 485.376 490.955C485.441 488.278 485.673 485.527 485.898 482.87C485.975 481.956 486.051 481.052 486.119 480.167C486.391 476.64 486.544 473.315 486.235 470.204M486.235 470.204C485.494 462.828 487.646 457.122 491.831 452.942C495.914 448.863 501.718 446.449 507.957 445.06L507.959 445.059C514.558 443.597 521.992 444.67 527.841 448.379C533.783 452.147 538 458.593 538 467.5C538 470.526 539.139 472.337 540.597 473.38C542.141 474.483 544.358 474.945 546.774 474.577C551.617 473.839 556.261 469.977 556.215 463.605C556.212 463.111 556.196 462.579 556.18 462.019C556.126 460.191 556.065 458.07 556.382 456.058C558.447 442.964 561.972 424.839 566.376 409.945C568.573 402.517 571.025 395.765 573.682 390.823C575.007 388.359 576.449 386.219 578.029 384.664C579.598 383.12 581.548 381.92 583.837 381.92C586.31 381.92 588.626 381.054 591.015 379.691C592.576 378.801 593.958 377.838 595.409 376.827C596.312 376.198 597.242 375.549 598.259 374.889C600.698 373.303 603.487 371.771 606.609 371.487C609.892 371.189 613.146 372.294 616.429 375.143C621.094 379.189 625.448 382.431 630.422 382.327C633.052 382.272 635.211 382.081 637.356 381.891C638.258 381.811 639.157 381.731 640.088 381.662C643.199 381.431 646.415 381.346 650.585 381.872L650.586 381.872C651.71 382.014 652.215 381.893 652.385 381.823C652.393 381.82 652.399 381.818 652.405 381.816C652.441 381.803 652.454 381.799 652.5 381.682C652.597 381.438 652.691 380.938 652.662 380.017C652.634 379.122 652.499 378.036 652.295 376.716C652.202 376.113 652.094 375.469 651.98 374.789C651.133 369.721 649.954 362.669 651.878 355.625M651.878 355.625C652.797 352.232 654.275 349.523 656.287 347.464C658.304 345.4 660.744 344.106 663.406 343.379C668.622 341.954 674.812 342.674 680.877 343.987C685.422 344.971 689.621 344.686 692.244 342.226C697.783 337.03 697.935 330.001 694.999 322.316C692.056 314.613 686.196 306.909 680.93 301.466C679.965 300.468 678.907 299.665 677.752 299.111C674.53 297.565 671.003 296.574 668.599 297C667.524 297.191 666.811 297.635 666.328 298.369C665.799 299.172 665.335 300.648 665.495 303.285C665.688 306.454 664.951 309.133 663 310.958C661.109 312.727 658.558 313.231 656.138 313.196C651.344 313.126 645.435 310.914 640.614 308.589C636.386 306.55 633.331 302.965 631.376 299.002C626.988 290.109 622.329 281.876 617.479 275.697C612.555 269.424 607.801 265.746 603.343 265.082L603.339 265.082C602.787 264.999 602.438 265.019 602.238 265.057C602.059 265.091 602.002 265.138 601.989 265.149L601.989 265.149C601.958 265.174 601.705 265.409 601.568 266.401C601.434 267.369 601.462 268.691 601.634 270.403C601.804 272.095 602.095 274.007 602.421 276.131L602.445 276.289C603.08 280.436 603.826 285.301 603.809 290.066C603.792 294.893 602.998 299.895 600.303 304.134L600.301 304.138C595.187 312.149 588.607 315.589 581.423 316.961C576.122 317.974 570.346 317.863 564.751 317.757C563.046 317.724 561.358 317.692 559.705 317.692C551.74 317.692 543.832 314.333 539.368 308.108C534.783 301.716 534.213 292.856 539.941 282.826M539.941 282.826C545.673 272.768 554.054 268.295 561.854 264.414C562.242 264.221 562.627 264.03 563.01 263.84C570.451 260.15 577.094 256.855 581.755 249.849L581.757 249.846C582.87 248.177 582.94 247.15 582.803 246.547C582.66 245.914 582.145 245.108 580.765 244.197C577.916 242.314 572.774 240.889 566.251 239.733C561.135 238.826 555.476 238.13 549.898 237.444C548.475 237.269 547.058 237.095 545.656 236.918C538.86 236.059 532.34 235.129 527.754 233.719L527.752 233.719C510.877 228.516 490.954 228.656 474.444 241.377L474.442 241.379C465.302 248.406 451.203 252.885 437.926 256.262C432.968 257.523 428.043 258.648 423.47 259.693C421.881 260.057 420.335 260.41 418.844 260.756C413.005 262.112 408.072 263.343 404.562 264.618M404.562 264.618L403.708 262.269L404.561 264.618C404.561 264.618 404.561 264.618 404.562 264.618ZM404.562 264.618C400.543 266.08 397.038 266.313 394.009 265.35C390.968 264.383 388.763 262.323 387.133 259.888C385.522 257.481 384.398 254.601 383.52 251.755C382.812 249.463 382.228 247.066 381.688 244.853C381.558 244.322 381.431 243.801 381.305 243.295M381.305 243.295C381.08 242.398 380.042 241.082 377.793 239.755C375.652 238.491 372.841 237.479 369.948 236.964C367.55 236.537 364.96 237.245 362.432 238.674C329.245 257.439 297.296 280.761 273.187 309.713C271.459 311.789 270.435 314.462 270.425 316.523C270.421 317.527 270.653 318.218 270.968 318.653C271.248 319.041 271.739 319.434 272.736 319.608C276.906 320.332 282.71 319.085 288.08 317.112C290.708 316.146 293.12 315.047 295.027 314.032C297.014 312.974 298.229 312.124 298.65 311.703C299.603 310.748 300.856 310.233 302.062 309.965C303.291 309.691 304.663 309.629 306.072 309.724C308.893 309.915 312.149 310.758 315.308 312.205C321.575 315.077 328.039 320.629 329.565 329.074M329.565 329.074C332.315 344.196 330.961 360.758 325.442 374.601L325.441 374.605C324.418 377.16 324.589 380.316 325.926 384.193C327.261 388.064 329.654 392.353 332.647 396.961C335.045 400.654 337.759 404.449 340.528 408.322C341.21 409.275 341.896 410.234 342.58 411.196C346.02 416.032 349.434 420.96 352.171 425.761M373.462 483.057C373.457 483.06 373.454 483.062 373.454 483.062C373.454 483.062 373.457 483.061 373.462 483.057ZM373.462 483.057C373.47 483.053 373.484 483.047 373.504 483.04C373.553 483.024 373.587 483.022 373.603 483.023M373.603 483.023C373.608 483.023 373.611 483.024 373.612 483.023C373.612 483.023 373.609 483.023 373.603 483.023Z" stroke="black" stroke-width="5"/>
</g>
<path d="M218 499C218 343.256 346.942 217 506 217" stroke="white" stroke-opacity="0.25" stroke-width="15" stroke-linecap="round"/>
<path fill-rule="evenodd" clip-rule="evenodd" d="M620.982 744.707C620.895 744.601 620.748 744.566 620.623 744.622C620.581 744.641 620.54 744.66 620.498 744.679C620.381 744.731 620.29 744.829 620.244 744.949C619.362 747.221 617.697 749.656 615.191 752.762C614.221 753.965 613.606 755.41 613.336 756.932C612.374 762.344 610.389 767.544 607.474 772.269C604.14 777.672 599.665 782.33 594.343 785.938C589.021 789.546 582.971 792.023 576.592 793.205C570.212 794.388 563.647 794.249 557.326 792.799C551.006 791.349 545.073 788.619 539.918 784.79C534.763 780.961 530.501 776.118 527.413 770.58V770.58C527.117 770.049 526.539 769.735 525.933 769.791C517.291 770.591 508.583 771 499.835 771C471.281 771 443.655 766.685 417.524 758.86C412.675 757.407 407.624 760.726 405.178 765.158C400.655 773.355 391.799 778.924 381.615 778.924C369.267 778.924 358.871 770.735 355.784 759.602C354.955 756.611 351.646 754.486 348.542 754.486V754.486C338.598 754.486 330.537 745.364 330.537 734.113V734.113C330.537 732.358 327.63 730.621 326.084 731.449C322.907 733.15 319.29 734.113 315.452 734.113C302.82 734.113 292.581 723.688 292.581 710.829V710.829C292.581 710.52 292.216 710.341 291.973 710.533C286.484 714.853 279.889 717.197 276.022 717.549C275.385 717.607 274.742 717.683 274.114 717.802C254.605 721.498 239.053 691.454 239.053 665.588C239.053 654.196 239.743 646.781 241.969 642.035C244.283 637.101 247.077 630.565 244.222 625.924C224.487 593.858 211.805 558.993 208.118 524.085C207.407 517.356 215.602 514.473 219.682 519.87V519.87C220.301 520.688 220.739 521.664 220.961 522.665C280.878 793.605 639.247 801.378 778.689 499.785C782.221 492.147 793.144 493.969 792.862 502.379C791.357 547.236 777.679 589.537 755.176 626.723C753.477 629.53 753.648 633.058 755.19 635.954C760.507 645.943 762.656 659.698 760.298 674.31C758.323 686.545 753.527 697.287 747.195 705.137C745.809 706.856 745.033 709 745.089 711.207C745.108 711.938 745.117 712.674 745.117 713.415C745.117 733.572 738.145 749.913 729.545 749.913C721.687 749.913 715.188 736.269 714.126 718.536C714.063 717.488 713.459 716.584 712.529 716.098V716.098C710.127 714.841 706.129 716.857 706.188 719.567C706.199 720.048 706.204 720.531 706.204 721.016C706.204 748.609 688.993 770.978 667.761 770.978C656.837 770.978 651.358 765.585 645.232 759.556C639.467 753.882 633.13 747.645 621.145 744.808C621.082 744.793 621.023 744.757 620.982 744.707V744.707Z" fill="black" fill-opacity="0.16"/>
</g>
<defs>
<filter id="filter0_d_445_37320" x="195" y="201" width="608" height="610" filterUnits="userSpaceOnUse" color-interpolation-filters="sRGB">
<feFlood flood-opacity="0" result="BackgroundImageFix"/>
<feColorMatrix in="SourceAlpha" type="matrix" values="0 0 0 0 0 0 0 0 0 0 0 0 0 0 0 0 0 0 127 0" result="hardAlpha"/>
<feOffset dx="-1" dy="7"/>
<feGaussianBlur stdDeviation="2"/>
<feComposite in2="hardAlpha" operator="out"/>
<feColorMatrix type="matrix" values="0 0 0 0 0 0 0 0 0 0 0 0 0 0 0 0 0 0 0.25 0"/>
<feBlend mode="normal" in2="BackgroundImageFix" result="effect1_dropShadow_445_37320"/>
<feBlend mode="normal" in="SourceGraphic" in2="effect1_dropShadow_445_37320" result="shape"/>
</filter>
<filter id="filter1_d_445_37320" x="262.925" y="228" width="485.343" height="577" filterUnits="userSpaceOnUse" color-interpolation-filters="sRGB">
<feFlood flood-opacity="0" result="BackgroundImageFix"/>
<feColorMatrix in="SourceAlpha" type="matrix" values="0 0 0 0 0 0 0 0 0 0 0 0 0 0 0 0 0 0 127 0" result="hardAlpha"/>
<feOffset dx="-1" dy="7"/>
<feGaussianBlur stdDeviation="2"/>
<feComposite in2="hardAlpha" operator="out"/>
<feColorMatrix type="matrix" values="0 0 0 0 0 0 0 0 0 0 0 0 0 0 0 0 0 0 0.25 0"/>
<feBlend mode="normal" in2="BackgroundImageFix" result="effect1_dropShadow_445_37320"/>
<feBlend mode="normal" in="SourceGraphic" in2="effect1_dropShadow_445_37320" result="shape"/>
</filter>
</defs>
</svg>
