<svg width="1000" height="1000" viewBox="0 0 1000 1000" fill="none" xmlns="http://www.w3.org/2000/svg">
<g filter="url(#filter0_d_643_21026)">
<rect x="237" y="505" width="303" height="101" rx="40" fill="#3C3C3C"/>
<rect x="240" y="508" width="297" height="95" rx="37" stroke="black" stroke-width="6"/>
</g>
<path d="M308.406 547.623L306.054 559.439H311.99V564.031H305.158L303.254 573.719H298.382L300.286 564.031H293.118L291.214 573.719H286.342L288.246 564.031H284.214V559.439H289.142L291.494 547.623H285.446V543.087H292.39L294.182 533.847H299.054L297.262 543.087H304.43L306.222 533.847H311.094L309.302 543.087H313.278V547.623H308.406ZM303.534 547.623H296.366L294.014 559.439H301.182L303.534 547.623ZM328.199 557.647C325.063 557.647 322.599 556.62 320.807 554.567C319.052 552.476 318.175 549.433 318.175 545.439C318.175 541.481 319.052 538.476 320.807 536.423C322.599 534.332 325.063 533.287 328.199 533.287C331.372 533.287 333.855 534.332 335.647 536.423C337.439 538.476 338.335 541.481 338.335 545.439C338.335 549.433 337.439 552.476 335.647 554.567C333.855 556.62 331.372 557.647 328.199 557.647ZM327.807 573.719L350.879 533.847H357.095L333.967 573.719H327.807ZM328.199 553.111C329.655 553.111 330.719 552.513 331.391 551.319C332.063 550.124 332.399 548.164 332.399 545.439C332.399 542.788 332.044 540.865 331.335 539.671C330.663 538.439 329.617 537.823 328.199 537.823C326.817 537.823 325.791 538.439 325.119 539.671C324.447 540.865 324.111 542.788 324.111 545.439C324.111 548.127 324.447 550.087 325.119 551.319C325.791 552.513 326.817 553.111 328.199 553.111ZM356.647 574.111C353.473 574.111 350.991 573.084 349.199 571.031C347.444 568.94 346.567 565.879 346.567 561.847C346.567 557.889 347.444 554.884 349.199 552.831C350.991 550.777 353.473 549.751 356.647 549.751C359.82 549.751 362.284 550.777 364.039 552.831C365.831 554.884 366.727 557.908 366.727 561.903C366.727 565.897 365.831 568.94 364.039 571.031C362.284 573.084 359.82 574.111 356.647 574.111ZM356.647 569.575C358.065 569.575 359.111 568.977 359.783 567.783C360.455 566.551 360.791 564.591 360.791 561.903C360.791 559.252 360.436 557.329 359.727 556.135C359.055 554.903 358.028 554.287 356.647 554.287C355.228 554.287 354.183 554.903 353.511 556.135C352.839 557.329 352.503 559.252 352.503 561.903C352.503 564.591 352.839 566.551 353.511 567.783C354.183 568.977 355.228 569.575 356.647 569.575ZM371.827 533.791L380.507 533.847L378.323 561.735H374.067L371.827 533.791ZM380.115 565.879V573.719H372.275V565.879H380.115ZM419.426 574.223C416.215 573.103 413.452 571.497 411.138 569.407C407.666 572.58 403.671 574.167 399.154 574.167C396.466 574.167 394.076 573.719 391.986 572.823C389.932 571.889 388.327 570.601 387.17 568.959C386.05 567.316 385.49 565.431 385.49 563.303C385.49 560.876 386.162 558.729 387.506 556.863C388.85 554.996 390.996 553.241 393.946 551.599C392.452 549.956 391.37 548.444 390.698 547.063C390.026 545.681 389.69 544.263 389.69 542.807C389.69 540.007 390.698 537.748 392.714 536.031C394.73 534.313 397.362 533.455 400.61 533.455C403.596 533.455 405.986 534.239 407.778 535.807C409.57 537.375 410.466 539.465 410.466 542.079C410.466 544.095 409.868 545.924 408.674 547.567C407.516 549.209 405.594 550.815 402.906 552.383L410.802 560.559C412.37 557.385 413.228 553.783 413.378 549.751H419.314C419.052 555.575 417.596 560.596 414.946 564.815C417.148 566.868 419.799 568.399 422.898 569.407L419.426 574.223ZM400.666 538.271C399.284 538.271 398.164 538.681 397.306 539.503C396.484 540.324 396.074 541.425 396.074 542.807C396.074 543.665 396.298 544.505 396.746 545.327C397.231 546.148 398.108 547.268 399.378 548.687C401.356 547.529 402.738 546.484 403.522 545.551C404.343 544.58 404.754 543.516 404.754 542.359C404.754 541.127 404.38 540.137 403.634 539.391C402.887 538.644 401.898 538.271 400.666 538.271ZM392.322 562.911C392.322 564.703 392.956 566.121 394.226 567.167C395.495 568.212 397.212 568.735 399.378 568.735C402.29 568.735 404.922 567.652 407.274 565.487L397.474 555.351C395.682 556.471 394.375 557.628 393.554 558.823C392.732 560.017 392.322 561.38 392.322 562.911ZM432.053 550.927C429.066 550.927 426.77 550.105 425.165 548.463C423.597 546.82 422.813 544.729 422.813 542.191C422.813 539.689 423.597 537.636 425.165 536.031C426.77 534.388 429.066 533.567 432.053 533.567C435.002 533.567 437.261 534.388 438.829 536.031C440.434 537.636 441.237 539.689 441.237 542.191C441.237 544.729 440.434 546.82 438.829 548.463C437.261 550.105 435.002 550.927 432.053 550.927ZM432.053 546.279C433.135 546.279 433.975 545.924 434.573 545.215C435.17 544.505 435.469 543.497 435.469 542.191C435.469 540.884 435.17 539.895 434.573 539.223C433.975 538.513 433.135 538.159 432.053 538.159C430.97 538.159 430.13 538.513 429.533 539.223C428.935 539.895 428.637 540.884 428.637 542.191C428.637 543.497 428.935 544.505 429.533 545.215C430.13 545.924 430.97 546.279 432.053 546.279ZM469.414 582.567C464.448 582.567 460.118 581.559 456.422 579.543C452.726 577.527 449.87 574.708 447.854 571.087C445.875 567.465 444.886 563.284 444.886 558.543C444.886 553.428 445.95 548.985 448.078 545.215C450.206 541.444 453.118 538.551 456.814 536.535C460.547 534.519 464.766 533.511 469.47 533.511C474.36 533.511 478.56 534.463 482.07 536.367C485.579 538.233 488.23 540.753 490.022 543.927C491.851 547.1 492.766 550.591 492.766 554.399C492.766 557.833 492.243 560.727 491.198 563.079C490.152 565.431 488.752 567.204 486.998 568.399C485.243 569.556 483.302 570.135 481.174 570.135C479.158 570.135 477.552 569.705 476.358 568.847C475.163 567.988 474.454 566.793 474.23 565.263H474.118C471.99 568.511 469.208 570.135 465.774 570.135C463.086 570.135 460.958 569.239 459.39 567.447C457.859 565.617 457.094 563.153 457.094 560.055C457.094 557.404 457.598 554.977 458.606 552.775C459.614 550.535 461.014 548.761 462.806 547.455C464.635 546.148 466.707 545.495 469.022 545.495C470.627 545.495 472.046 545.868 473.278 546.615C474.51 547.324 475.35 548.295 475.798 549.527H475.91L476.526 546.055H481.734L479.214 560.111C479.064 560.895 478.99 561.697 478.99 562.519C478.99 563.713 479.232 564.591 479.718 565.151C480.24 565.673 481.043 565.935 482.126 565.935C482.984 565.935 483.843 565.561 484.702 564.815C485.598 564.031 486.344 562.78 486.942 561.063C487.539 559.345 487.838 557.124 487.838 554.399C487.838 551.3 487.147 548.519 485.766 546.055C484.384 543.591 482.312 541.631 479.55 540.175C476.787 538.719 473.427 537.991 469.47 537.991C465.774 537.991 462.451 538.812 459.502 540.455C456.59 542.06 454.294 544.412 452.614 547.511C450.934 550.609 450.094 554.287 450.094 558.543C450.094 562.463 450.859 565.897 452.39 568.847C453.958 571.759 456.179 574.017 459.054 575.623C461.966 577.228 465.419 578.031 469.414 578.031C472.363 578.031 474.883 577.639 476.974 576.855C479.102 576.108 480.688 575.063 481.734 573.719H488.51C486.979 576.407 484.552 578.553 481.23 580.159C477.944 581.764 474.006 582.567 469.414 582.567ZM466.894 565.935C468.536 565.935 469.955 565.431 471.15 564.423C472.344 563.415 473.24 562.108 473.838 560.503C474.472 558.897 474.79 557.199 474.79 555.407C474.79 553.54 474.342 552.121 473.446 551.151C472.587 550.18 471.392 549.695 469.862 549.695C468.294 549.695 466.931 550.199 465.774 551.207C464.654 552.215 463.795 553.521 463.198 555.127C462.6 556.695 462.302 558.319 462.302 559.999C462.302 561.828 462.712 563.284 463.534 564.367C464.392 565.412 465.512 565.935 466.894 565.935Z" fill="white"/>
<defs>
<filter id="filter0_d_643_21026" x="232" y="505" width="311" height="112" filterUnits="userSpaceOnUse" color-interpolation-filters="sRGB">
<feFlood flood-opacity="0" result="BackgroundImageFix"/>
<feColorMatrix in="SourceAlpha" type="matrix" values="0 0 0 0 0 0 0 0 0 0 0 0 0 0 0 0 0 0 127 0" result="hardAlpha"/>
<feOffset dx="-1" dy="7"/>
<feGaussianBlur stdDeviation="2"/>
<feComposite in2="hardAlpha" operator="out"/>
<feColorMatrix type="matrix" values="0 0 0 0 0 0 0 0 0 0 0 0 0 0 0 0 0 0 0.25 0"/>
<feBlend mode="normal" in2="BackgroundImageFix" result="effect1_dropShadow_643_21026"/>
<feBlend mode="normal" in="SourceGraphic" in2="effect1_dropShadow_643_21026" result="shape"/>
</filter>
</defs>
</svg>
