<svg width="1000" height="1000" viewBox="0 0 1000 1000" fill="none" xmlns="http://www.w3.org/2000/svg">
<g clip-path="url(#clip0_463_22338)">
<path d="M193 786H243V1004.5C243 1018.31 231.807 1029.5 218 1029.5C204.193 1029.5 193 1018.31 193 1004.5V786Z" fill="#929292" stroke="black" stroke-width="6"/>
<rect x="223" y="798" width="27.2713" height="58.5427" rx="6" fill="#929292" stroke="black" stroke-width="4"/>
<rect x="230" y="801" width="19" height="52" rx="6" fill="#929292" stroke="black" stroke-width="4"/>
<rect x="236.5" y="808.5" width="7" height="36" rx="3.5" fill="#3C3C3C" stroke="black" stroke-width="3"/>
<mask id="path-5-inside-1_463_22338" fill="white">
<path d="M232 588C254.091 588 272 605.909 272 628L272 678C272 685.18 266.18 691 259 691L182 691C174.82 691 169 685.18 169 678L169 628C169 605.909 186.909 588 209 588L232 588Z"/>
</mask>
<path d="M232 588C254.091 588 272 605.909 272 628L272 678C272 685.18 266.18 691 259 691L182 691C174.82 691 169 685.18 169 678L169 628C169 605.909 186.909 588 209 588L232 588Z" fill="#3C3C3C"/>
<path d="M169 628L163 628L169 628ZM169 678L175 678L169 678ZM266 628L266 678L278 678L278 628L266 628ZM259 685L182 685L182 697L259 697L259 685ZM175 678L175 628L163 628L163 678L175 678ZM209 594L232 594L232 582L209 582L209 594ZM175 628C175 609.222 190.222 594 209 594L209 582C183.595 582 163 602.595 163 628L175 628ZM182 685C178.134 685 175 681.866 175 678L163 678C163 688.493 171.507 697 182 697L182 685ZM266 678C266 681.866 262.866 685 259 685L259 697C269.493 697 278 688.493 278 678L266 678ZM278 628C278 602.595 257.405 582 232 582L232 594C250.778 594 266 609.222 266 628L278 628Z" fill="black" mask="url(#path-5-inside-1_463_22338)"/>
<path d="M201 593L201 689L178.592 689C174.195 689 170.622 685.451 170.592 681.054L170.196 622.195C170.088 606.103 183.103 593 199.196 593L201 593Z" fill="black" fill-opacity="0.25"/>
<path d="M215 1033L215 788L198.504 788C194.092 788 190.513 791.571 190.504 795.983L190.053 1008C190.024 1021.8 201.201 1033 215 1033V1033Z" fill="black" fill-opacity="0.25"/>
<path d="M216.889 686L216.889 785L159 785C156.238 785 154 782.761 154 780L154 691C154 688.239 156.238 686 159 686L216.889 686Z" fill="#E40303" stroke="black" stroke-width="6"/>
<path d="M288 691L288 780C288 782.761 285.761 785 283 785L217.333 785L217.333 686L283 686C285.761 686 288 688.239 288 691Z" fill="#E40303" stroke="black" stroke-width="6"/>
<path d="M214.334 686L214.334 782L160.211 782C155.836 782 152.272 778.485 152.212 774.11L151.224 702.22C151.101 693.298 158.3 686 167.222 686L214.334 686Z" fill="black" fill-opacity="0.25"/>
<path d="M249.564 729.172C251.04 727.375 252.894 726.477 255.127 726.477C259.645 726.477 261.936 729.139 262 734.465V748H256.436V734.621C256.436 733.41 256.18 732.518 255.666 731.945C255.153 731.359 254.299 731.066 253.106 731.066C251.476 731.066 250.295 731.704 249.564 732.98V748H244V718H249.564V729.172Z" fill="white" fill-opacity="0.7"/>
<path d="M181.564 729.172C183.04 727.375 184.894 726.477 187.127 726.477C191.645 726.477 193.936 729.139 194 734.465V748H188.436V734.621C188.436 733.41 188.18 732.518 187.666 731.945C187.153 731.359 186.299 731.066 185.106 731.066C183.476 731.066 182.295 731.704 181.564 732.98V748H176V718H181.564V729.172Z" fill="white" fill-opacity="0.7"/>
<mask id="path-14-inside-2_463_22338" fill="white">
<path fill-rule="evenodd" clip-rule="evenodd" d="M1057.22 649.33H987.111V709.068H1057.22H1057.44V709.066C1067.11 708.868 1074.91 695.572 1074.91 679.199C1074.91 662.826 1067.11 649.53 1057.44 649.332V649.33H1057.22Z"/>
</mask>
<path fill-rule="evenodd" clip-rule="evenodd" d="M1057.22 649.33H987.111V709.068H1057.22H1057.44V709.066C1067.11 708.868 1074.91 695.572 1074.91 679.199C1074.91 662.826 1067.11 649.53 1057.44 649.332V649.33H1057.22Z" fill="#3C3C3C"/>
<path d="M987.111 649.33V643.33H981.111V649.33H987.111ZM987.111 709.068H981.111V715.068H987.111V709.068ZM1057.44 709.068V715.068H1063.44V709.068H1057.44ZM1057.44 709.066L1057.31 703.067L1051.44 703.187V709.066H1057.44ZM1057.44 649.332H1051.44V655.211L1057.31 655.331L1057.44 649.332ZM1057.44 649.33H1063.44V643.33H1057.44V649.33ZM987.111 655.33H1057.22V643.33H987.111V655.33ZM993.111 709.068V649.33H981.111V709.068H993.111ZM1057.22 703.068H987.111V715.068H1057.22V703.068ZM1057.44 703.068H1057.22V715.068H1057.44V703.068ZM1051.44 709.066V709.068H1063.44V709.066H1051.44ZM1068.91 679.199C1068.91 686.504 1067.16 692.837 1064.62 697.167C1062.01 701.63 1059.22 703.028 1057.31 703.067L1057.56 715.065C1065.32 714.906 1071.27 709.557 1074.98 703.23C1078.76 696.769 1080.91 688.268 1080.91 679.199H1068.91ZM1057.31 655.331C1059.22 655.37 1062.01 656.768 1064.62 661.232C1067.16 665.561 1068.91 671.895 1068.91 679.199H1080.91C1080.91 670.131 1078.76 661.63 1074.98 655.168C1071.27 648.841 1065.32 643.492 1057.56 643.334L1057.31 655.331ZM1051.44 649.33V649.332H1063.44V649.33H1051.44ZM1057.22 655.33H1057.44V643.33H1057.22V655.33Z" fill="black" mask="url(#path-14-inside-2_463_22338)"/>
<rect x="721.627" y="594.402" width="58.2638" height="24.7742" transform="rotate(90 721.627 594.402)" fill="#3C3C3C" stroke="black" stroke-width="6"/>
<path d="M830.036 557.292L859.761 557.292L927.866 652.214L898.141 652.214L830.036 557.292Z" fill="#3C3C3C" stroke="black" stroke-width="6"/>
<rect x="576.564" y="653.33" width="295.216" height="223.712" rx="46" fill="#C4C4C4" stroke="black" stroke-width="8"/>
<rect x="576.564" y="709.447" width="163.973" height="111.476" rx="22" fill="#3C3C3C" stroke="black" stroke-width="8"/>
<path d="M572.564 788.719H741.823V788.719C741.823 807.215 726.829 822.208 708.333 822.208H606.054C587.558 822.208 572.564 807.215 572.564 788.719V788.719Z" fill="black" fill-opacity="0.25"/>
<path d="M653.562 696.221L656.798 696.969C683.565 703.149 702.524 726.985 702.524 754.456V769.427C702.524 793.477 687.927 815.119 665.629 824.13L656.556 827.796C643.409 833.109 629.062 823.432 629.062 809.253V715.709C629.062 702.846 641.029 693.327 653.562 696.221Z" fill="#929292" stroke="black" stroke-width="8"/>
<path d="M670.845 755.264V762.503C670.845 796.023 649.68 825.889 618.055 836.997L616.914 837.397C605.605 841.369 593.764 832.977 593.764 820.992V700.173C593.764 691.102 601.834 684.156 610.804 685.506C645.319 690.703 670.845 720.359 670.845 755.264Z" fill="#3C3C3C" stroke="black" stroke-width="8"/>
<path d="M555.748 855.137V673.398L578.092 678.7C616.543 687.823 643.691 722.166 643.691 761.685C643.691 796.155 622.943 827.235 591.109 840.454L555.748 855.137Z" fill="#3C3C3C" stroke="black" stroke-width="8"/>
<path d="M462.642 654.015L536.74 667.792C579.844 675.807 611.106 713.416 611.106 757.259V774.692C611.106 814.217 585.593 849.222 547.967 861.323L465.11 887.97C452.199 892.122 438.986 882.493 438.986 868.93V673.678C438.986 661.168 450.343 651.728 462.642 654.015Z" fill="#929292" stroke="black" stroke-width="8"/>
<path d="M537.791 770.617C537.791 804.557 527.246 835.136 510.382 857.147C493.522 879.153 470.51 892.429 445.396 892.429C420.281 892.429 397.27 879.153 380.409 857.147C363.545 835.136 353 804.557 353 770.617C353 736.677 363.545 706.097 380.409 684.087C397.27 662.081 420.281 648.805 445.396 648.805C470.51 648.805 493.522 662.081 510.382 684.087C527.246 706.097 537.791 736.677 537.791 770.617Z" fill="#3C3C3C" stroke="black" stroke-width="8"/>
<path d="M536.887 769.711C536.887 800.164 527.55 827.583 512.644 847.301C497.739 867.016 477.445 878.851 455.353 878.851C433.261 878.851 412.966 867.016 398.062 847.301C383.155 827.583 373.818 800.164 373.818 769.711C373.818 739.257 383.155 711.838 398.062 692.121C412.966 672.405 433.261 660.57 455.353 660.57C477.445 660.57 497.739 672.405 512.644 692.121C527.55 711.838 536.887 739.257 536.887 769.711Z" fill="#3C3C3C" stroke="black" stroke-width="8"/>
<ellipse cx="451.28" cy="768.355" rx="51.592" ry="71.9573" fill="black" fill-opacity="0.25"/>
<path d="M498.872 768.354C498.872 783.927 494.049 797.877 486.437 807.848C478.828 817.816 468.602 823.64 457.616 823.64C446.629 823.64 436.403 817.816 428.794 807.848C421.182 797.877 416.359 783.927 416.359 768.354C416.359 752.781 421.182 738.831 428.794 728.86C436.403 718.892 446.629 713.068 457.616 713.068C468.602 713.068 478.828 718.892 486.437 728.86C494.049 738.831 498.872 752.781 498.872 768.354Z" fill="#4E9AE9" stroke="black" stroke-width="8"/>
<ellipse cx="448.564" cy="772.879" rx="22.6281" ry="29.4165" fill="white" fill-opacity="0.25"/>
<ellipse cx="448.564" cy="772.879" rx="22.6281" ry="29.4165" fill="white" fill-opacity="0.25"/>
<path d="M491.105 772.775C491.105 788.397 476.44 817.752 460.626 813.68C448.798 810.634 475.638 794.968 475.638 772.775C475.638 752.323 467.45 736.223 477.003 736.223C486.556 736.223 491.105 757.154 491.105 772.775Z" fill="black" fill-opacity="0.25"/>
<circle cx="462.141" cy="732.602" r="10.8615" fill="white" fill-opacity="0.25"/>
<rect x="728.627" y="653.33" width="295.216" height="223.712" rx="46" fill="#C4C4C4" stroke="black" stroke-width="8"/>
<rect x="721.385" y="709.447" width="315.129" height="111.476" rx="22" fill="#3C3C3C" stroke="black" stroke-width="8"/>
<path d="M717.385 788.719H1039.61V788.719C1039.61 807.215 1024.61 822.208 1006.12 822.208H750.874C732.379 822.208 717.385 807.215 717.385 788.719V788.719Z" fill="black" fill-opacity="0.25"/>
<path d="M584 852H1028V852C1028 865.807 1016.81 877 1003 877H609C595.193 877 584 865.807 584 852V852Z" fill="black" fill-opacity="0.25"/>
<mask id="path-37-inside-3_463_22338" fill="white">
<path fill-rule="evenodd" clip-rule="evenodd" d="M894.655 554.293C904.966 554.293 914.645 559.261 920.655 567.638L983.49 655.215H924.657L884.069 598.644H761.699C761.722 598.894 761.734 599.147 761.734 599.403V655.667H717.383V598.644H632.301V554.293L852.247 554.293L894.655 554.293Z"/>
</mask>
<path fill-rule="evenodd" clip-rule="evenodd" d="M894.655 554.293C904.966 554.293 914.645 559.261 920.655 567.638L983.49 655.215H924.657L884.069 598.644H761.699C761.722 598.894 761.734 599.147 761.734 599.403V655.667H717.383V598.644H632.301V554.293L852.247 554.293L894.655 554.293Z" fill="#929292"/>
<path d="M920.655 567.638L925.53 564.141L920.655 567.638ZM894.655 554.293V548.293V554.293ZM983.49 655.215V661.215H995.18L988.365 651.717L983.49 655.215ZM924.657 655.215L919.782 658.713L921.578 661.215H924.657V655.215ZM884.069 598.644L888.944 595.146L887.148 592.644H884.069V598.644ZM761.699 598.644V592.644H755.107L755.725 599.206L761.699 598.644ZM761.734 655.667V661.667H767.734V655.667H761.734ZM717.383 655.667H711.383V661.667H717.383V655.667ZM717.383 598.644H723.383V592.644H717.383V598.644ZM632.301 598.644H626.301V604.644H632.301V598.644ZM632.301 554.293L632.301 548.293L626.301 548.293V554.293H632.301ZM852.247 554.293V548.293V554.293ZM925.53 564.141C918.393 554.192 906.899 548.293 894.655 548.293V560.293C903.033 560.293 910.897 564.329 915.78 571.136L925.53 564.141ZM988.365 651.717L925.53 564.141L915.78 571.136L978.615 658.713L988.365 651.717ZM924.657 661.215H983.49V649.215H924.657V661.215ZM879.194 602.142L919.782 658.713L929.532 651.717L888.944 595.146L879.194 602.142ZM761.699 604.644H884.069V592.644H761.699V604.644ZM755.725 599.206C755.731 599.27 755.734 599.335 755.734 599.403H767.734C767.734 598.959 767.713 598.518 767.672 598.082L755.725 599.206ZM755.734 599.403V655.667H767.734V599.403H755.734ZM761.734 649.667H717.383V661.667H761.734V649.667ZM723.383 655.667V598.644H711.383V655.667H723.383ZM632.301 604.644H717.383V592.644H632.301V604.644ZM626.301 554.293V598.644H638.301V554.293H626.301ZM852.247 548.293L632.301 548.293L632.301 560.293L852.247 560.293V548.293ZM894.655 548.293L852.247 548.293V560.293L894.655 560.293V548.293Z" fill="black" mask="url(#path-37-inside-3_463_22338)"/>
<mask id="path-39-inside-4_463_22338" fill="white">
<path fill-rule="evenodd" clip-rule="evenodd" d="M634.566 538H489.293V614.03H634.566H635.018V614.028C655.055 613.776 671.223 596.854 671.223 576.015C671.223 555.176 655.055 538.254 635.018 538.003V538H634.566Z"/>
</mask>
<path fill-rule="evenodd" clip-rule="evenodd" d="M634.566 538H489.293V614.03H634.566H635.018V614.028C655.055 613.776 671.223 596.854 671.223 576.015C671.223 555.176 655.055 538.254 635.018 538.003V538H634.566Z" fill="#3C3C3C"/>
<path d="M489.293 538V532H483.293V538H489.293ZM489.293 614.03H483.293V620.03H489.293V614.03ZM635.018 614.03V620.03H641.018V614.03H635.018ZM635.018 614.028L634.943 608.028L629.018 608.102V614.028H635.018ZM635.018 538.003H629.018V543.928L634.943 544.002L635.018 538.003ZM635.018 538H641.018V532H635.018V538ZM489.293 544H634.566V532H489.293V544ZM495.293 614.03V538H483.293V614.03H495.293ZM634.566 608.03H489.293V620.03H634.566V608.03ZM635.018 608.03H634.566V620.03H635.018V608.03ZM629.018 614.028V614.03H641.018V614.028H629.018ZM665.223 576.015C665.223 593.769 651.499 607.82 634.943 608.028L635.093 620.027C658.61 619.732 677.223 599.939 677.223 576.015H665.223ZM634.943 544.002C651.499 544.21 665.223 558.261 665.223 576.015H677.223C677.223 552.092 658.61 532.298 635.093 532.003L634.943 544.002ZM629.018 538V538.003H641.018V538H629.018ZM634.566 544H635.018V532H634.566V544Z" fill="black" mask="url(#path-39-inside-4_463_22338)"/>
<path d="M515.258 576.015C515.258 595.846 501.762 611.03 486.126 611.03C470.49 611.03 456.994 595.846 456.994 576.015C456.994 556.184 470.49 541 486.126 541C501.762 541 515.258 556.184 515.258 576.015Z" fill="#3C3C3C" stroke="black" stroke-width="6"/>
<path d="M741.822 668.338H1008.83V668.338C1000.38 660.761 989.433 656.571 978.083 656.571H771.394C763.333 656.571 755.46 659.007 748.807 663.559L741.822 668.338Z" fill="white" fill-opacity="0.25"/>
<path d="M588.859 668.338H731.869L743.635 656.571H618.919C611.254 656.571 603.751 658.773 597.302 662.915L588.859 668.338Z" fill="white" fill-opacity="0.25"/>
<rect x="778.408" y="548.336" width="96.0892" height="55.3586" rx="9" fill="#3C3C3C" stroke="black" stroke-width="8"/>
<path d="M772.251 548.336H781.319C786.29 548.336 790.319 552.365 790.319 557.336V594.695C790.319 599.665 786.29 603.695 781.319 603.695H771.494C769.741 603.695 768.255 602.552 767.739 600.971C771.799 599.876 774.786 596.168 774.786 591.763V561.258C774.786 556.822 771.757 553.093 767.655 552.027C768.119 549.916 770 548.336 772.251 548.336Z" fill="#3C3C3C" stroke="black" stroke-width="8"/>
<rect x="871.541" y="723.835" width="139.725" height="82.7021" rx="13" fill="#C4C4C4" stroke="black" stroke-width="6"/>
<rect x="975.629" y="739.223" width="22.9639" height="51.9279" rx="5" fill="#929292" stroke="black" stroke-width="6"/>
<path d="M873.971 794.149H1008.83V797.916C1008.83 802.334 1005.25 805.916 1000.83 805.916H881.971C877.552 805.916 873.971 802.334 873.971 797.916V794.149Z" fill="black" fill-opacity="0.25"/>
<path d="M873.971 736.223H1008.83V732.456C1008.83 728.038 1005.25 724.456 1000.83 724.456H881.971C877.552 724.456 873.971 728.038 873.971 732.456V736.223Z" fill="white" fill-opacity="0.25"/>
<path d="M582.523 847.552L480.244 886.02C513.915 866.469 524.143 845.893 525.048 838.048C527.311 835.484 564.602 824.291 695.663 800.033C691.138 828.997 642.714 875.158 617.37 875.158C596.734 875.158 585.54 856.754 582.523 847.552Z" fill="black" fill-opacity="0.25"/>
<path d="M457.615 576.92H668.509V576.92C668.509 595.416 653.515 610.409 635.019 610.409H491.105C472.609 610.409 457.615 595.416 457.615 576.92V576.92Z" fill="black" fill-opacity="0.25"/>
<circle cx="706.062" cy="685.268" r="9.11456" fill="#E40303" stroke="black" stroke-width="4"/>
<rect x="775.025" y="920.247" width="91.7533" height="24.7742" transform="rotate(90 775.025 920.247)" fill="#3C3C3C" stroke="black" stroke-width="6"/>
<path d="M812.135 920.247L812.135 1012L773.784 1012L773.784 920.247L812.135 920.247Z" fill="#929292" stroke="black" stroke-width="6"/>
<rect x="698.66" y="884.042" width="166.879" height="32.0152" rx="13" fill="#3C3C3C" stroke="black" stroke-width="6"/>
<path d="M697.471 900.049H864.919V900.049C864.919 909.547 857.219 917.246 847.721 917.246H714.668C705.17 917.246 697.471 909.547 697.471 900.049V900.049Z" fill="black" fill-opacity="0.25"/>
<path d="M784.776 916.627L814.501 916.627L882.606 1011.55L852.881 1011.55L784.776 916.627Z" fill="#3C3C3C" stroke="black" stroke-width="6"/>
<path d="M785.757 916.627L756.032 916.627L687.927 1011.55L717.652 1011.55L785.757 916.627Z" fill="#3C3C3C" stroke="black" stroke-width="6"/>
<path d="M812.834 916.627L864.283 916.627L932.388 1011.55L880.939 1011.55L812.834 916.627Z" fill="#929292" stroke="black" stroke-width="6"/>
<path d="M757.699 916.627L706.25 916.627L638.146 1011.55L689.594 1011.55L757.699 916.627Z" fill="#929292" stroke="black" stroke-width="6"/>
</g>
<defs>
<clipPath id="clip0_463_22338">
<rect width="1000" height="1000" fill="white"/>
</clipPath>
</defs>
</svg>
