<svg width="1000" height="1000" viewBox="0 0 1000 1000" fill="none" xmlns="http://www.w3.org/2000/svg">
<g clip-path="url(#clip0_254_366793)">
<g filter="url(#filter0_d_254_366793)">
<path fill-rule="evenodd" clip-rule="evenodd" d="M555.365 268.421C554.781 267.54 553.422 267.4 552.751 268.217C552.697 268.284 552.642 268.351 552.586 268.418C552.4 268.642 552.283 268.915 552.242 269.203C551.817 272.178 550.777 275.041 549.184 277.621C547.511 280.328 545.267 282.663 542.597 284.471C539.927 286.279 536.893 287.52 533.693 288.113C530.493 288.706 527.199 288.636 524.029 287.909C520.858 287.182 517.882 285.815 515.296 283.896C512.71 281.977 510.573 279.55 509.024 276.774C508.735 276.257 508.181 275.939 507.59 275.978C504.929 276.151 502.256 276.239 499.574 276.239C488.411 276.239 477.553 274.728 467.157 271.942C462.028 270.567 456.504 274.584 452.447 278.01C450.314 279.81 447.602 280.888 444.65 280.888C438.85 280.888 433.977 276.729 432.604 271.103C432.266 269.714 430.717 268.748 429.287 268.748C424.669 268.748 420.924 264.217 420.924 258.628C420.924 257.725 419.439 256.843 418.634 257.252C417.238 257.961 415.677 258.358 414.029 258.358C409.311 258.358 402.56 258.575 399.753 262.367C398.35 264.263 397.049 265.715 396.028 266.441C395.305 266.956 394.388 267.148 393.51 267.286C381.538 269.166 378.081 237.224 378.081 224.679C378.081 222.12 378.156 219.967 378.346 218.16C378.917 212.756 380.974 204.954 378.42 200.158C370.589 185.45 365.559 169.689 364.017 153.913C363.708 150.746 367.601 149.444 369.443 152.039C369.706 152.41 369.892 152.848 369.985 153.294C396.658 282.022 551.151 290.774 620.833 159.333C624.829 151.796 635.251 153.797 633.744 162.194C631.15 176.649 626.172 190.358 619.29 202.927C617.779 205.687 617.983 209.05 619.095 211.994C620.872 216.697 621.488 222.65 620.542 228.92C619.686 234.594 617.687 239.622 615.032 243.438C613.616 245.474 612.752 247.909 613.007 250.376C613.503 255.168 613.783 260.574 613.783 266.294C613.783 286.014 610.464 302.001 606.371 302.001C602.277 302.001 598.959 286.014 598.959 266.294C598.959 260.904 599.206 255.793 599.65 251.211C599.701 250.689 599.412 250.209 598.939 249.982C597.936 249.5 596.44 250.34 596.546 251.448C596.671 252.763 596.735 254.107 596.735 255.475C596.735 270.974 588.43 291.685 578.186 291.685C573.059 291.685 570.418 286.78 567.557 281.469C564.776 276.305 561.788 270.757 556.108 268.962C555.81 268.868 555.538 268.681 555.365 268.421Z" fill="black" fill-opacity="0.25"/>
<mask id="path-2-outside-1_254_366793" maskUnits="userSpaceOnUse" x="357.49" y="-28" width="288" height="327" fill="black">
<rect fill="white" x="357.49" y="-28" width="288" height="327"/>
<path fill-rule="evenodd" clip-rule="evenodd" d="M472.35 9.16347C474.754 8.666 476.549 6.65117 477.113 4.26097C477.84 1.17753 479.114 -2.05929 480.937 -5.2167C487.057 -15.818 497.046 -21.5097 503.248 -17.9293C506.73 -15.9189 508.277 -11.4126 507.881 -5.97032C507.451 -0.058157 511.151 6.46351 517.042 7.12417C584.43 14.6819 636.721 69.5768 636.721 136.174C636.721 158.178 631.013 178.904 620.937 197.068C619.338 199.95 619.615 203.493 620.791 206.572C622.441 210.894 622.99 216.283 622.074 221.951C621.239 227.116 619.317 231.706 616.76 235.234C615.226 237.348 614.272 239.909 614.547 242.506C615.007 246.845 615.265 251.702 615.265 256.829C615.265 275.233 611.946 290.152 607.853 290.152C603.759 290.152 600.441 275.233 600.441 256.829C600.441 251.838 600.685 247.103 601.122 242.852C601.179 242.3 600.886 241.798 600.381 241.566C599.158 241.004 596.313 242.511 596.458 243.85C596.64 245.537 596.735 247.276 596.735 249.054C596.735 264.799 589.268 277.563 580.058 277.563C572.89 277.563 566.779 269.833 564.42 258.983C563.673 255.542 559.925 253.336 556.692 254.73C555.195 255.375 554.111 256.709 553.642 258.27C550.521 268.64 541.941 276.089 531.845 276.089C525.914 276.089 520.507 273.518 516.422 269.295C514.381 267.185 511.629 265.755 508.698 265.91C506.185 266.043 503.654 266.111 501.106 266.111C489.673 266.111 478.571 264.755 467.965 262.203C463.05 261.02 457.863 264.783 453.853 267.861C451.74 269.482 449.076 270.449 446.181 270.449C440.407 270.449 435.552 266.602 434.155 261.387C433.806 260.085 432.386 259.169 431.038 259.169C426.544 259.169 422.901 254.993 422.901 249.841C422.901 248.066 423.334 246.406 424.084 244.994C424.478 244.253 424.322 243.296 423.625 242.83C422.812 242.287 421.698 242.683 421.245 243.549C419.747 246.408 417 248.323 413.86 248.323C410.697 248.323 403.426 249.439 401.769 252.133C399.655 255.568 397.117 257.57 394.387 257.57C387.019 257.57 381.046 242.982 381.046 224.987C381.046 218.14 381.911 211.787 383.388 206.542C384.067 204.131 383.837 201.525 382.576 199.359C371.692 180.656 365.49 159.108 365.49 136.174C365.49 87.3951 393.543 44.8943 435.034 22.6739C435.897 22.212 436.168 21.0996 435.635 20.2795C427.05 7.08023 426.35 -7.69085 434.071 -12.7126C441.792 -17.7343 455.01 -11.1051 463.595 2.09419C464.426 3.37186 465.183 4.66427 465.866 5.96113C467.111 8.3248 469.734 9.7046 472.35 9.16347ZM407.503 230.993C407.478 231.321 407.921 231.5 408.153 231.266C408.288 231.129 408.285 230.907 408.141 230.778C408.121 230.759 408.101 230.741 408.08 230.722C407.868 230.531 407.527 230.668 407.506 230.953C407.505 230.966 407.504 230.979 407.503 230.993Z"/>
</mask>
<path fill-rule="evenodd" clip-rule="evenodd" d="M472.35 9.16347C474.754 8.666 476.549 6.65117 477.113 4.26097C477.84 1.17753 479.114 -2.05929 480.937 -5.2167C487.057 -15.818 497.046 -21.5097 503.248 -17.9293C506.73 -15.9189 508.277 -11.4126 507.881 -5.97032C507.451 -0.058157 511.151 6.46351 517.042 7.12417C584.43 14.6819 636.721 69.5768 636.721 136.174C636.721 158.178 631.013 178.904 620.937 197.068C619.338 199.95 619.615 203.493 620.791 206.572C622.441 210.894 622.99 216.283 622.074 221.951C621.239 227.116 619.317 231.706 616.76 235.234C615.226 237.348 614.272 239.909 614.547 242.506C615.007 246.845 615.265 251.702 615.265 256.829C615.265 275.233 611.946 290.152 607.853 290.152C603.759 290.152 600.441 275.233 600.441 256.829C600.441 251.838 600.685 247.103 601.122 242.852C601.179 242.3 600.886 241.798 600.381 241.566C599.158 241.004 596.313 242.511 596.458 243.85C596.64 245.537 596.735 247.276 596.735 249.054C596.735 264.799 589.268 277.563 580.058 277.563C572.89 277.563 566.779 269.833 564.42 258.983C563.673 255.542 559.925 253.336 556.692 254.73C555.195 255.375 554.111 256.709 553.642 258.27C550.521 268.64 541.941 276.089 531.845 276.089C525.914 276.089 520.507 273.518 516.422 269.295C514.381 267.185 511.629 265.755 508.698 265.91C506.185 266.043 503.654 266.111 501.106 266.111C489.673 266.111 478.571 264.755 467.965 262.203C463.05 261.02 457.863 264.783 453.853 267.861C451.74 269.482 449.076 270.449 446.181 270.449C440.407 270.449 435.552 266.602 434.155 261.387C433.806 260.085 432.386 259.169 431.038 259.169C426.544 259.169 422.901 254.993 422.901 249.841C422.901 248.066 423.334 246.406 424.084 244.994C424.478 244.253 424.322 243.296 423.625 242.83C422.812 242.287 421.698 242.683 421.245 243.549C419.747 246.408 417 248.323 413.86 248.323C410.697 248.323 403.426 249.439 401.769 252.133C399.655 255.568 397.117 257.57 394.387 257.57C387.019 257.57 381.046 242.982 381.046 224.987C381.046 218.14 381.911 211.787 383.388 206.542C384.067 204.131 383.837 201.525 382.576 199.359C371.692 180.656 365.49 159.108 365.49 136.174C365.49 87.3951 393.543 44.8943 435.034 22.6739C435.897 22.212 436.168 21.0996 435.635 20.2795C427.05 7.08023 426.35 -7.69085 434.071 -12.7126C441.792 -17.7343 455.01 -11.1051 463.595 2.09419C464.426 3.37186 465.183 4.66427 465.866 5.96113C467.111 8.3248 469.734 9.7046 472.35 9.16347ZM407.503 230.993C407.478 231.321 407.921 231.5 408.153 231.266C408.288 231.129 408.285 230.907 408.141 230.778C408.121 230.759 408.101 230.741 408.08 230.722C407.868 230.531 407.527 230.668 407.506 230.953C407.505 230.966 407.504 230.979 407.503 230.993Z" fill="#FFED00"/>
<path d="M480.937 -5.2167L474.009 -9.21671L474.009 -9.2167L480.937 -5.2167ZM503.248 -17.9293L507.248 -24.8575V-24.8575L503.248 -17.9293ZM622.074 221.951L629.971 223.228L622.074 221.951ZM434.071 -12.7126L438.433 -6.00626V-6.00626L434.071 -12.7126ZM463.595 2.09419L470.302 -2.26759L470.302 -2.26759L463.595 2.09419ZM408.08 230.722L402.717 236.658L408.08 230.722ZM407.506 230.953L415.483 231.557L407.506 230.953ZM465.866 5.96113L472.945 2.23433L465.866 5.96113ZM435.034 22.6739L431.257 15.6215L435.034 22.6739ZM383.388 206.542L375.688 204.373L383.388 206.542ZM382.576 199.359L375.662 203.383L382.576 199.359ZM424.084 244.994L431.148 248.749L424.084 244.994ZM467.965 262.203L466.093 269.981L467.965 262.203ZM453.853 267.861L458.723 274.208L453.853 267.861ZM408.141 230.778L402.782 236.717L408.141 230.778ZM564.42 258.983L556.603 260.682L564.42 258.983ZM596.458 243.85L604.412 242.992L596.458 243.85ZM434.155 261.387L441.882 259.316L434.155 261.387ZM477.113 4.26097L469.326 2.42557L477.113 4.26097ZM601.122 242.852L609.08 243.671L601.122 242.852ZM516.422 269.295L510.671 274.857L516.422 269.295ZM508.698 265.91L509.12 273.899L508.698 265.91ZM616.76 235.234L623.236 239.929L616.76 235.234ZM614.547 242.506L622.503 241.663L614.547 242.506ZM421.245 243.549L428.331 247.261L421.245 243.549ZM507.881 -5.97032L515.86 -5.38973L507.881 -5.97032ZM517.042 7.12417L516.15 15.0743L517.042 7.12417ZM553.642 258.27L561.302 260.575L553.642 258.27ZM401.769 252.133L408.582 256.326L401.769 252.133ZM620.937 197.068L613.941 193.188L620.937 197.068ZM620.791 206.572L628.264 203.718L620.791 206.572ZM484.899 6.09637C485.438 3.81184 486.411 1.30085 487.865 -1.21671L474.009 -9.2167C471.816 -5.41943 470.241 -1.45678 469.326 2.42557L484.899 6.09637ZM487.865 -1.2167C490.342 -5.50795 493.422 -8.4586 496.023 -9.94032C498.817 -11.5325 499.625 -10.7836 499.248 -11.0011L507.248 -24.8575C500.67 -28.6554 493.382 -26.8509 488.101 -23.842C482.627 -20.7226 477.652 -15.5268 474.009 -9.21671L487.865 -1.2167ZM499.248 -11.0011C499.091 -11.0916 499.278 -11.0938 499.529 -10.4252C499.802 -9.69772 500.038 -8.41725 499.902 -6.55092L515.86 -5.38973C516.35 -12.1217 514.637 -20.5916 507.248 -24.8575L499.248 -11.0011ZM644.721 136.174C644.721 65.1897 589.05 7.14981 517.933 -0.825985L516.15 15.0743C579.811 22.2139 628.721 73.9639 628.721 136.174H644.721ZM627.933 200.949C638.644 181.639 644.721 159.582 644.721 136.174H628.721C628.721 156.773 623.381 176.17 613.941 193.188L627.933 200.949ZM629.971 223.228C631.087 216.329 630.472 209.499 628.264 203.718L613.317 209.426C614.41 212.289 614.894 216.237 614.176 220.674L629.971 223.228ZM623.236 239.929C626.586 235.31 628.953 229.527 629.971 223.228L614.176 220.674C613.525 224.704 612.048 228.103 610.283 230.538L623.236 239.929ZM623.265 256.829C623.265 251.442 622.995 246.303 622.503 241.663L606.592 243.35C607.02 247.388 607.265 251.962 607.265 256.829H623.265ZM607.853 298.152C610.97 298.152 613.314 296.696 614.763 295.363C616.169 294.069 617.141 292.545 617.819 291.257C619.182 288.665 620.167 285.441 620.903 282.129C622.405 275.377 623.265 266.436 623.265 256.829H607.265C607.265 265.627 606.465 273.347 605.285 278.655C604.68 281.374 604.068 283.029 603.657 283.81C603.448 284.209 603.489 283.994 603.93 283.588C604.415 283.142 605.759 282.152 607.853 282.152V298.152ZM592.441 256.829C592.441 266.436 593.301 275.377 594.803 282.129C595.539 285.441 596.524 288.665 597.887 291.257C598.564 292.545 599.536 294.069 600.943 295.363C602.392 296.696 604.736 298.152 607.853 298.152V282.152C609.947 282.152 611.291 283.142 611.776 283.588C612.217 283.994 612.258 284.209 612.048 283.81C611.638 283.029 611.026 281.374 610.421 278.655C609.24 273.347 608.441 265.627 608.441 256.829H592.441ZM593.165 242.033C592.697 246.575 592.441 251.584 592.441 256.829H608.441C608.441 252.091 608.673 247.63 609.08 243.671L593.165 242.033ZM604.735 249.054C604.735 246.992 604.625 244.966 604.412 242.992L588.504 244.708C588.655 246.108 588.735 247.561 588.735 249.054H604.735ZM580.058 285.563C588.679 285.563 595.015 279.647 598.756 273.252C602.609 266.666 604.735 258.092 604.735 249.054H588.735C588.735 255.761 587.128 261.442 584.945 265.174C582.65 269.098 580.648 269.563 580.058 269.563V285.563ZM556.603 260.682C557.984 267.036 560.552 272.941 564.27 277.439C567.987 281.936 573.376 285.563 580.058 285.563V269.563C579.572 269.563 578.322 269.326 576.602 267.245C574.882 265.165 573.215 261.779 572.238 257.284L556.603 260.682ZM531.845 284.089C546.17 284.089 557.381 273.606 561.302 260.575L545.981 255.964C543.661 263.675 537.711 268.089 531.845 268.089V284.089ZM510.671 274.857C516.086 280.455 523.504 284.089 531.845 284.089V268.089C528.325 268.089 524.927 266.582 522.172 263.733L510.671 274.857ZM501.106 274.111C503.794 274.111 506.467 274.04 509.12 273.899L508.276 257.922C505.903 258.047 503.513 258.111 501.106 258.111V274.111ZM466.093 269.981C477.309 272.68 489.039 274.111 501.106 274.111V258.111C490.307 258.111 479.833 256.831 469.836 254.425L466.093 269.981ZM446.181 278.449C450.883 278.449 455.249 276.873 458.723 274.208L448.983 261.514C448.231 262.091 447.27 262.449 446.181 262.449V278.449ZM426.428 263.458C428.768 272.191 436.809 278.449 446.181 278.449V262.449C444.006 262.449 442.337 261.012 441.882 259.316L426.428 263.458ZM414.901 249.841C414.901 258.35 421.135 267.169 431.038 267.169V251.169C431.174 251.169 431.293 251.204 431.361 251.237C431.418 251.265 431.389 251.265 431.313 251.178C431.15 250.991 430.901 250.543 430.901 249.841H414.901ZM417.021 241.239C415.651 243.816 414.901 246.766 414.901 249.841H430.901C430.901 249.366 431.016 248.997 431.148 248.749L417.021 241.239ZM413.86 256.323C420.452 256.323 425.688 252.306 428.331 247.261L414.159 239.836C413.996 240.147 413.825 240.289 413.76 240.332C413.731 240.351 413.729 240.347 413.757 240.339C413.787 240.329 413.825 240.323 413.86 240.323V256.323ZM394.387 265.57C401.33 265.57 405.969 260.571 408.582 256.326L394.955 247.94C394.252 249.084 393.717 249.583 393.509 249.739C393.423 249.804 393.461 249.759 393.628 249.697C393.808 249.631 394.073 249.57 394.387 249.57V265.57ZM373.046 224.987C373.046 234.762 374.653 243.983 377.55 251.058C378.991 254.576 380.908 257.951 383.446 260.574C386.008 263.22 389.707 265.57 394.387 265.57V249.57C395.384 249.57 395.573 250.096 394.942 249.445C394.288 248.769 393.331 247.373 392.357 244.995C390.425 240.277 389.046 233.207 389.046 224.987H373.046ZM375.688 204.373C373.987 210.411 373.046 217.503 373.046 224.987H389.046C389.046 218.777 389.834 213.163 391.088 208.711L375.688 204.373ZM357.49 136.174C357.49 160.574 364.093 183.503 375.662 203.383L389.491 195.335C379.291 177.808 373.49 157.643 373.49 136.174H357.49ZM431.257 15.6215C387.383 39.1182 357.49 84.2072 357.49 136.174H373.49C373.49 90.5829 399.703 50.6703 438.811 29.7262L431.257 15.6215ZM429.709 -19.4189C422.483 -14.7188 420.396 -6.304 420.747 1.0957C421.109 8.7182 424.001 17.0646 428.929 24.6413L442.341 15.9178C438.684 10.2952 436.934 4.65638 436.729 0.338083C436.514 -4.20303 437.938 -5.68469 438.433 -6.00626L429.709 -19.4189ZM470.302 -2.26759C465.374 -9.84434 458.917 -15.8722 452.096 -19.2932C445.474 -22.6141 436.936 -24.1191 429.709 -19.4189L438.433 -6.00626C438.927 -6.32783 440.859 -7.02905 444.923 -4.99101C448.787 -3.05296 453.232 0.833416 456.889 6.45597L470.302 -2.26759ZM472.945 2.23433C472.147 0.71924 471.266 -0.784996 470.302 -2.26759L456.889 6.45597C457.587 7.52873 458.219 8.60929 458.787 9.68793L472.945 2.23433ZM402.717 236.658C402.738 236.678 402.76 236.697 402.782 236.717L413.501 224.838C413.482 224.821 413.463 224.804 413.443 224.787L402.717 236.658ZM415.48 231.601C415.481 231.587 415.482 231.572 415.483 231.557L399.529 230.348C399.528 230.36 399.527 230.372 399.526 230.384L415.48 231.601ZM413.443 224.787C408.275 220.117 400.05 223.463 399.529 230.348L415.483 231.557C415.005 237.873 407.462 240.946 402.717 236.658L413.443 224.787ZM458.787 9.68793C461.534 14.9052 467.541 18.3276 473.97 16.9976L470.729 1.32934C471.926 1.08164 472.687 1.74442 472.945 2.23433L458.787 9.68793ZM438.811 29.7262C443.907 26.9972 445.366 20.5682 442.341 15.9178L428.929 24.6413C426.971 21.631 427.886 17.4269 431.257 15.6215L438.811 29.7262ZM391.088 208.711C392.29 204.444 391.955 199.571 389.491 195.335L375.662 203.383C375.718 203.479 375.844 203.817 375.688 204.373L391.088 208.711ZM431.148 248.749C433.111 245.058 432.784 239.328 428.069 236.178L419.18 249.481C415.861 247.263 415.846 243.448 417.021 241.239L431.148 248.749ZM469.836 254.425C464.806 253.214 460.264 254.681 457.06 256.245C453.84 257.817 450.965 259.993 448.983 261.514L458.723 274.208C460.751 272.651 462.474 271.407 464.079 270.623C465.7 269.832 466.208 270.009 466.093 269.981L469.836 254.425ZM413.841 236.892C417.107 233.588 417.111 228.097 413.501 224.838L402.782 236.717C399.458 233.717 399.469 228.67 402.464 225.641L413.841 236.892ZM572.238 257.284C570.558 249.553 561.954 243.75 553.525 247.383L559.859 262.076C558.906 262.487 558.028 262.276 557.564 262.015C557.137 261.774 556.745 261.336 556.603 260.682L572.238 257.284ZM603.721 234.297C601.269 233.171 598.952 233.407 597.735 233.639C596.339 233.905 595.064 234.418 593.998 235.015C592.956 235.599 591.725 236.48 590.675 237.748C589.711 238.913 588.143 241.36 588.504 244.708L604.412 242.992C604.701 245.671 603.433 247.428 603.001 247.95C602.482 248.577 602.011 248.866 601.816 248.975C601.595 249.099 601.252 249.257 600.729 249.357C600.385 249.422 598.881 249.681 597.042 248.836L603.721 234.297ZM441.882 259.316C440.428 253.891 435.316 251.169 431.038 251.169V267.169C429.969 267.169 429.092 266.833 428.423 266.371C427.75 265.906 426.837 264.985 426.428 263.458L441.882 259.316ZM469.326 2.42557C469.359 2.28535 469.434 2.10979 469.616 1.91788C469.813 1.71028 470.184 1.44199 470.729 1.32934L473.97 16.9976C479.907 15.7696 483.743 11.0021 484.899 6.09637L469.326 2.42557ZM609.08 243.671C609.496 239.634 607.266 235.926 603.721 234.297L597.042 248.836C594.506 247.671 592.863 244.965 593.165 242.033L609.08 243.671ZM522.172 263.733C519.007 260.461 514.135 257.612 508.276 257.922L509.12 273.899C509.133 273.899 509.268 273.891 509.553 274.022C509.856 274.162 510.257 274.428 510.671 274.857L522.172 263.733ZM610.283 230.538C607.952 233.753 606.051 238.249 606.592 243.35L622.503 241.663C622.498 241.616 622.49 241.453 622.59 241.141C622.694 240.819 622.897 240.398 623.236 239.929L610.283 230.538ZM428.069 236.178C422.536 232.481 416.367 235.621 414.159 239.836L428.331 247.261C427.554 248.744 426.246 249.799 424.733 250.282C423.161 250.784 421.056 250.735 419.18 249.481L428.069 236.178ZM499.902 -6.55092C499.559 -1.83244 500.836 3.01977 503.401 6.93236C505.993 10.8869 510.311 14.4195 516.15 15.0743L517.933 -0.825985C517.881 -0.831848 517.404 -0.890354 516.782 -1.83988C516.132 -2.83133 515.773 -4.19604 515.86 -5.38973L499.902 -6.55092ZM402.464 225.641C405.085 222.991 408.564 223.025 410.794 223.95C413.07 224.893 415.789 227.542 415.48 231.601L399.526 230.384C399.191 234.772 402.12 237.675 404.669 238.731C407.173 239.769 410.989 239.776 413.841 236.892L402.464 225.641ZM553.525 247.383C549.6 249.075 547.045 252.428 545.981 255.964L561.302 260.575C561.177 260.99 560.79 261.674 559.859 262.076L553.525 247.383ZM413.86 240.323C411.591 240.323 408.32 240.691 405.277 241.465C403.739 241.856 401.981 242.42 400.327 243.25C398.83 244 396.513 245.409 394.955 247.94L408.582 256.326C408.18 256.979 407.767 257.336 407.605 257.464C407.435 257.599 407.373 257.615 407.498 257.553C407.772 257.415 408.34 257.195 409.222 256.971C411.02 256.513 412.966 256.323 413.86 256.323V240.323ZM613.941 193.188C610.777 198.892 611.667 205.106 613.317 209.426L628.264 203.718C627.954 202.906 627.828 202.193 627.823 201.667C627.818 201.164 627.92 200.972 627.933 200.949L613.941 193.188Z" fill="#090909" mask="url(#path-2-outside-1_254_366793)"/>
<path d="M370.135 140.679C370.135 68.4768 430.027 9.94556 503.907 9.94556" stroke="white" stroke-opacity="0.25" stroke-width="15" stroke-linecap="round"/>
<path fill-rule="evenodd" clip-rule="evenodd" d="M556.838 258.8C556.242 257.959 554.939 257.822 554.259 258.596C554.205 258.657 554.151 258.718 554.096 258.78C553.893 259.01 553.763 259.295 553.716 259.598C553.285 262.355 552.249 265.008 550.666 267.4C548.994 269.927 546.749 272.105 544.079 273.793C541.41 275.48 538.375 276.639 535.175 277.192C531.975 277.745 528.682 277.68 525.511 277.002C522.341 276.323 519.365 275.047 516.779 273.256C514.193 271.465 512.055 269.2 510.506 266.61C510.216 266.125 509.687 265.829 509.123 265.863C506.445 266.027 503.755 266.11 501.056 266.11C489.817 266.11 478.886 264.681 468.425 262.046C463.36 260.771 457.894 264.774 453.724 267.921C451.624 269.506 448.991 270.449 446.132 270.449C440.398 270.449 435.571 266.656 434.135 261.497C433.749 260.107 432.212 259.12 430.77 259.12C426.151 259.12 422.407 254.891 422.407 249.675C422.407 248.81 421.023 247.947 420.247 248.328C418.818 249.03 417.211 249.424 415.512 249.424C410.726 249.424 404.044 249.678 401.042 253.406C399.686 255.09 398.436 256.37 397.453 257.005C396.754 257.456 395.896 257.613 395.074 257.743C383.036 259.645 379.563 229.727 379.563 217.993C379.563 216.08 379.611 214.409 379.728 212.953C380.178 207.375 382.083 199.021 379.353 194.136C371.864 180.741 367.042 166.437 365.517 152.117C365.185 148.995 368.984 147.652 370.885 150.151C371.175 150.532 371.38 150.986 371.484 151.453C398.228 271.604 552.889 279.661 622.479 156.723C626.618 149.41 636.806 151.487 635.215 159.738C632.658 172.999 627.797 185.587 621.088 197.152C619.416 200.035 619.646 203.627 620.809 206.75C622.407 211.041 622.928 216.361 622.025 221.951C621.192 227.097 619.281 231.674 616.738 235.196C615.213 237.308 614.266 239.862 614.542 242.452C615.005 246.805 615.265 251.681 615.265 256.829C615.265 275.233 611.947 290.152 607.853 290.152C603.759 290.152 600.441 275.233 600.441 256.829C600.441 251.834 600.685 247.095 601.124 242.842C601.179 242.306 600.87 241.81 600.379 241.588C599.375 241.132 597.931 241.991 598.039 243.088C598.157 244.279 598.217 245.496 598.217 246.733C598.217 261.196 589.912 280.525 579.668 280.525C574.542 280.525 571.9 275.948 569.04 270.992C566.258 266.171 563.269 260.992 557.585 259.318C557.29 259.231 557.016 259.052 556.838 258.8Z" fill="black" fill-opacity="0.25"/>
<path d="M435.788 122.124C443.098 122.124 449.024 115.907 449.024 108.238C449.024 100.569 443.098 94.3516 435.788 94.3516C428.479 94.3516 422.553 100.569 422.553 108.238C422.553 115.907 428.479 122.124 435.788 122.124Z" fill="#5F3016"/>
<path d="M509.909 122.124C517.218 122.124 523.144 115.907 523.144 108.238C523.144 100.569 517.218 94.3516 509.909 94.3516C502.599 94.3516 496.673 100.569 496.673 108.238C496.673 115.907 502.599 122.124 509.909 122.124Z" fill="#5F3016"/>
<ellipse rx="5.559" ry="5.55384" transform="matrix(-1 0 0 1 429.812 108.356)" fill="white"/>
<ellipse rx="5.55901" ry="5.55384" transform="matrix(-1 0 0 1 504.673 108.356)" fill="white"/>
<path d="M437.541 145.816V145.816C437.541 140.74 440.175 137.277 444.856 134.96C449.659 132.582 456.493 131.511 464.315 131.511C471.98 131.511 478.82 133.276 483.675 136.027C488.59 138.811 491.089 142.349 491.089 145.816C491.089 147.235 490.175 149.033 487.972 151.068C485.819 153.057 482.71 155.01 479.019 156.732C471.631 160.182 462.327 162.519 454.723 162.519C447.203 162.519 443.069 160.245 440.741 157.304C438.341 154.27 437.54 150.134 437.541 145.816Z" fill="#FF8C00" stroke="black" stroke-width="4"/>
<path d="M493.089 145.816C493.089 154.821 472.533 161.162 456.642 161.162C440.75 161.162 479.181 154.821 479.181 145.816C479.181 136.811 448.903 132.388 464.794 132.388C480.686 132.388 493.089 136.811 493.089 145.816Z" fill="black" fill-opacity="0.25"/>
</g>
</g>
<defs>
<filter id="filter0_d_254_366793" x="352.49" y="-27.0073" width="295.231" height="340.008" filterUnits="userSpaceOnUse" color-interpolation-filters="sRGB">
<feFlood flood-opacity="0" result="BackgroundImageFix"/>
<feColorMatrix in="SourceAlpha" type="matrix" values="0 0 0 0 0 0 0 0 0 0 0 0 0 0 0 0 0 0 127 0" result="hardAlpha"/>
<feOffset dx="-1" dy="7"/>
<feGaussianBlur stdDeviation="2"/>
<feComposite in2="hardAlpha" operator="out"/>
<feColorMatrix type="matrix" values="0 0 0 0 0 0 0 0 0 0 0 0 0 0 0 0 0 0 0.25 0"/>
<feBlend mode="normal" in2="BackgroundImageFix" result="effect1_dropShadow_254_366793"/>
<feBlend mode="normal" in="SourceGraphic" in2="effect1_dropShadow_254_366793" result="shape"/>
</filter>
<clipPath id="clip0_254_366793">
<rect width="1000" height="1000" fill="white"/>
</clipPath>
</defs>
</svg>
