<svg width="1000" height="1000" viewBox="0 0 1000 1000" fill="none" xmlns="http://www.w3.org/2000/svg">
<g clip-path="url(#clip0_720_47920)">
<path d="M306.22 787.667C303.124 777.381 310.841 767.028 321.582 767.055L678.77 767.973C689.406 768 697.055 778.204 694.099 788.421L585.577 1163.45C583.596 1170.29 577.331 1175 570.207 1175H434.688C427.627 1175 421.401 1170.37 419.367 1163.61L306.22 787.667Z" fill="#DD933C"/>
<mask id="mask0_720_47920" style="mask-type:alpha" maskUnits="userSpaceOnUse" x="305" y="767" width="390" height="407">
<path d="M306.253 787.722C303.149 777.435 310.852 767.028 321.598 767.055L678.756 767.973C689.395 768 697.045 778.212 694.081 788.431L585.582 1162.43C583.598 1169.27 577.335 1173.97 570.216 1173.97H434.679C427.623 1173.97 421.389 1169.32 419.351 1162.56C375.607 1017.58 349.261 930.263 306.253 787.722Z" fill="#FFBF74"/>
</mask>
<g mask="url(#mask0_720_47920)">
<line y1="-5" x2="546.2" y2="-5" transform="matrix(0.72 0.693974 -0.562748 0.826628 112.615 834.026)" stroke="#FFBF74" stroke-width="10"/>
<line y1="-5" x2="546.247" y2="-5" transform="matrix(0.719661 0.694326 -0.562183 0.827013 154.879 808.054)" stroke="#FFBF74" stroke-width="10"/>
<line y1="-5" x2="546.247" y2="-5" transform="matrix(0.719661 0.694326 -0.562183 0.827013 196.992 782.08)" stroke="#FFBF74" stroke-width="10"/>
<line y1="-5" x2="546.247" y2="-5" transform="matrix(0.719661 0.694326 -0.562183 0.827013 239.105 756.106)" stroke="#FFBF74" stroke-width="10"/>
<line y1="-5" x2="546.247" y2="-5" transform="matrix(0.719661 0.694326 -0.562183 0.827013 281.218 730.134)" stroke="#FFBF74" stroke-width="10"/>
<line y1="-5" x2="546.247" y2="-5" transform="matrix(0.719661 0.694326 -0.562183 0.827013 323.331 704.16)" stroke="#FFBF74" stroke-width="10"/>
<line y1="-5" x2="546.247" y2="-5" transform="matrix(0.719661 0.694326 -0.562183 0.827013 365.443 678.187)" stroke="#FFBF74" stroke-width="10"/>
<line y1="-5" x2="546.247" y2="-5" transform="matrix(0.719661 0.694326 -0.562183 0.827013 407.556 652.214)" stroke="#FFBF74" stroke-width="10"/>
<line y1="-5" x2="546.247" y2="-5" transform="matrix(0.719661 0.694326 -0.562183 0.827013 449.669 626.24)" stroke="#FFBF74" stroke-width="10"/>
<line y1="-5" x2="440.646" y2="-5" transform="matrix(-0.280881 0.959743 0.901346 0.433099 668.8 767.017)" stroke="#FFBF74" stroke-width="10"/>
<line y1="-5" x2="440.683" y2="-5" transform="matrix(-0.280419 0.959878 0.901044 0.433727 628.072 767.017)" stroke="#FFBF74" stroke-width="10"/>
<line y1="-5" x2="440.683" y2="-5" transform="matrix(-0.280419 0.959878 0.901044 0.433727 587.345 767.017)" stroke="#FFBF74" stroke-width="10"/>
<line y1="-5" x2="440.683" y2="-5" transform="matrix(-0.280419 0.959878 0.901044 0.433727 546.618 767.017)" stroke="#FFBF74" stroke-width="10"/>
<line y1="-5" x2="440.683" y2="-5" transform="matrix(-0.280419 0.959878 0.901044 0.433727 505.891 767.017)" stroke="#FFBF74" stroke-width="10"/>
<line y1="-5" x2="440.683" y2="-5" transform="matrix(-0.280419 0.959878 0.901044 0.433727 465.164 767.017)" stroke="#FFBF74" stroke-width="10"/>
<line y1="-5" x2="440.683" y2="-5" transform="matrix(-0.280419 0.959878 0.901044 0.433727 424.436 767.017)" stroke="#FFBF74" stroke-width="10"/>
<line y1="-5" x2="440.683" y2="-5" transform="matrix(-0.280419 0.959878 0.901044 0.433727 383.709 767.017)" stroke="#FFBF74" stroke-width="10"/>
<line y1="-5" x2="440.683" y2="-5" transform="matrix(-0.280419 0.959878 0.901044 0.433727 342.981 767.017)" stroke="#FFBF74" stroke-width="10"/>
</g>
<path d="M310.05 786.514C307.729 778.8 313.516 771.035 321.572 771.055L678.76 771.973C686.737 771.994 692.474 779.646 690.256 787.309L581.734 1162.34C580.249 1167.47 575.55 1171 570.207 1171H434.688C429.392 1171 424.723 1167.53 423.197 1162.46L310.05 786.514Z" stroke="black" stroke-width="8"/>
<path d="M318.845 812.071C315.916 801.847 323.592 791.665 334.226 791.665H667.935C678.52 791.665 686.188 801.76 683.348 811.958L585.494 1163.29C583.567 1170.21 577.264 1175 570.081 1175H434.855C427.715 1175 421.439 1170.27 419.473 1163.41L318.845 812.071Z" fill="black" fill-opacity="0.25"/>
<path d="M305.152 784.133C302.585 775.605 308.969 767.017 317.874 767.017C320.562 767.017 323.185 767.831 325.4 769.353L627.804 977.183C633.572 981.147 636.094 988.4 634.03 995.088L581.982 1163.72C579.912 1170.43 573.713 1175 566.694 1175H434.688C427.627 1175 421.401 1170.37 419.367 1163.61L305.152 784.133Z" fill="#DD933C"/>
<mask id="mask1_720_47920" style="mask-type:alpha" maskUnits="userSpaceOnUse" x="304" y="767" width="331" height="407">
<path d="M305.16 784.115C302.59 775.59 308.972 767 317.876 767C320.562 767 323.185 767.814 325.399 769.336L627.96 977.289C633.653 981.202 636.192 988.327 634.256 994.959L585.362 1162.46C583.37 1169.28 577.113 1173.97 570.003 1173.97H434.58C427.523 1173.97 421.298 1169.35 419.261 1162.59L305.16 784.115Z" fill="#FFBF74"/>
</mask>
<g mask="url(#mask1_720_47920)">
<line y1="-5" x2="437.603" y2="-5" transform="matrix(0.719621 0.694367 -0.562117 0.827058 76 910.004)" stroke="#FFBF74" stroke-width="10"/>
<line y1="-5" x2="437.642" y2="-5" transform="matrix(0.719282 0.694718 -0.561551 0.827442 120.909 889.233)" stroke="#FFBF74" stroke-width="10"/>
<line y1="-5" x2="437.642" y2="-5" transform="matrix(0.719282 0.694718 -0.561551 0.827442 165.696 868.463)" stroke="#FFBF74" stroke-width="10"/>
<line y1="-5" x2="437.642" y2="-5" transform="matrix(0.719282 0.694718 -0.561551 0.827442 210.484 847.691)" stroke="#FFBF74" stroke-width="10"/>
<line y1="-5" x2="437.642" y2="-5" transform="matrix(0.719282 0.694718 -0.561551 0.827442 255.271 826.921)" stroke="#FFBF74" stroke-width="10"/>
<line y1="-5" x2="437.642" y2="-5" transform="matrix(0.719282 0.694718 -0.561551 0.827442 300.059 806.149)" stroke="#FFBF74" stroke-width="10"/>
<line y1="-5" x2="437.642" y2="-5" transform="matrix(0.719282 0.694718 -0.561551 0.827442 344.847 785.379)" stroke="#FFBF74" stroke-width="10"/>
<line y1="-5" x2="437.642" y2="-5" transform="matrix(0.719282 0.694718 -0.561551 0.827442 389.634 764.608)" stroke="#FFBF74" stroke-width="10"/>
<line y1="-5" x2="437.642" y2="-5" transform="matrix(0.719282 0.694718 -0.561551 0.827442 434.422 743.837)" stroke="#FFBF74" stroke-width="10"/>
<line y1="-5" x2="441.457" y2="-5" transform="matrix(-0.280365 0.959893 0.901009 0.433801 638.8 767.017)" stroke="#FFBF74" stroke-width="10"/>
<line y1="-5" x2="441.494" y2="-5" transform="matrix(-0.279904 0.960028 0.900706 0.43443 598.072 767.017)" stroke="#FFBF74" stroke-width="10"/>
<line y1="-5" x2="441.494" y2="-5" transform="matrix(-0.279904 0.960028 0.900706 0.43443 557.345 767.017)" stroke="#FFBF74" stroke-width="10"/>
<line y1="-5" x2="441.494" y2="-5" transform="matrix(-0.279904 0.960028 0.900706 0.43443 516.618 767.017)" stroke="#FFBF74" stroke-width="10"/>
<line y1="-5" x2="441.494" y2="-5" transform="matrix(-0.279904 0.960028 0.900706 0.43443 475.891 767.017)" stroke="#FFBF74" stroke-width="10"/>
<line y1="-5" x2="441.494" y2="-5" transform="matrix(-0.279904 0.960028 0.900706 0.43443 435.164 767.017)" stroke="#FFBF74" stroke-width="10"/>
<line y1="-5" x2="441.494" y2="-5" transform="matrix(-0.279904 0.960028 0.900706 0.43443 394.436 767.017)" stroke="#FFBF74" stroke-width="10"/>
<line y1="-5" x2="441.494" y2="-5" transform="matrix(-0.279904 0.960028 0.900706 0.43443 353.709 767.017)" stroke="#FFBF74" stroke-width="10"/>
<line y1="-5" x2="441.494" y2="-5" transform="matrix(-0.279904 0.960028 0.900706 0.43443 312.981 767.017)" stroke="#FFBF74" stroke-width="10"/>
</g>
<path d="M308.982 782.98C307.188 777.02 311.65 771.017 317.874 771.017C319.753 771.017 321.587 771.586 323.134 772.65L625.539 980.479C629.865 983.453 631.756 988.892 630.208 993.908L578.16 1162.54C576.607 1167.57 571.958 1171 566.694 1171H434.688C429.392 1171 424.723 1167.53 423.197 1162.46L308.982 782.98Z" stroke="black" stroke-width="8"/>
<path opacity="0.5" d="M316.5 790.123L498 926.294L613.989 1010.69C619.404 1014.63 621.793 1021.53 619.975 1027.97L581.788 1163.34C579.843 1170.24 573.553 1175 566.389 1175H434.974C427.778 1175 421.467 1170.2 419.552 1163.26L316.5 790.123Z" fill="black" fill-opacity="0.25"/>
<path d="M282.22 705.667C279.124 695.381 286.841 685.028 297.582 685.055L702.77 686.096C713.406 686.124 721.055 696.328 718.099 706.544L595.445 1130.41C593.465 1137.25 587.199 1141.96 580.075 1141.96H425.423C418.363 1141.96 412.137 1137.33 410.102 1130.57L282.22 705.667Z" fill="#5F3016"/>
<mask id="mask2_720_47920" style="mask-type:alpha" maskUnits="userSpaceOnUse" x="281" y="685" width="438" height="456">
<path d="M282.251 705.718C279.147 695.43 286.852 685.028 297.598 685.055L702.756 686.096C713.396 686.124 721.045 696.336 718.081 706.554L595.45 1129.27C593.466 1136.1 587.203 1140.81 580.084 1140.81H425.414C418.358 1140.81 412.121 1136.14 410.082 1129.38C360.589 965.351 331.001 867.287 282.251 705.718Z" fill="#FFBF74"/>
</mask>
<g mask="url(#mask2_720_47920)">
<line y1="-5" x2="611.744" y2="-5" transform="matrix(0.72 0.693974 -0.562748 0.826628 66.1294 760.069)" stroke="#371502" stroke-width="10"/>
<line y1="-5" x2="611.797" y2="-5" transform="matrix(0.719661 0.694326 -0.562183 0.827013 113.465 730.979)" stroke="#371502" stroke-width="10"/>
<line y1="-5" x2="611.797" y2="-5" transform="matrix(0.719661 0.694326 -0.562183 0.827013 160.632 701.89)" stroke="#371502" stroke-width="10"/>
<line y1="-5" x2="611.797" y2="-5" transform="matrix(0.719661 0.694326 -0.562183 0.827013 207.798 672.799)" stroke="#371502" stroke-width="10"/>
<line y1="-5" x2="611.797" y2="-5" transform="matrix(0.719661 0.694326 -0.562183 0.827013 254.964 643.709)" stroke="#371502" stroke-width="10"/>
<line y1="-5" x2="611.797" y2="-5" transform="matrix(0.719661 0.694326 -0.562183 0.827013 302.13 614.619)" stroke="#371502" stroke-width="10"/>
<line y1="-5" x2="611.797" y2="-5" transform="matrix(0.719661 0.694326 -0.562183 0.827013 349.297 585.528)" stroke="#371502" stroke-width="10"/>
<line y1="-5" x2="611.797" y2="-5" transform="matrix(0.719661 0.694326 -0.562183 0.827013 396.463 556.438)" stroke="#371502" stroke-width="10"/>
<line y1="-5" x2="611.797" y2="-5" transform="matrix(0.719661 0.694326 -0.562183 0.827013 443.63 527.349)" stroke="#371502" stroke-width="10"/>
<line y1="-5" x2="493.524" y2="-5" transform="matrix(-0.280881 0.959743 0.901346 0.433099 689.056 685.02)" stroke="#371502" stroke-width="10"/>
<line y1="-5" x2="493.565" y2="-5" transform="matrix(-0.280419 0.959878 0.901044 0.433727 643.441 685.02)" stroke="#371502" stroke-width="10"/>
<line y1="-5" x2="493.565" y2="-5" transform="matrix(-0.280419 0.959878 0.901044 0.433727 597.828 685.02)" stroke="#371502" stroke-width="10"/>
<line y1="-5" x2="493.565" y2="-5" transform="matrix(-0.280419 0.959878 0.901044 0.433727 552.212 685.02)" stroke="#371502" stroke-width="10"/>
<line y1="-5" x2="493.565" y2="-5" transform="matrix(-0.280419 0.959878 0.901044 0.433727 506.598 685.02)" stroke="#371502" stroke-width="10"/>
<line y1="-5" x2="493.565" y2="-5" transform="matrix(-0.280419 0.959878 0.901044 0.433727 460.984 685.02)" stroke="#371502" stroke-width="10"/>
<line y1="-5" x2="493.565" y2="-5" transform="matrix(-0.280419 0.959878 0.901044 0.433727 415.368 685.02)" stroke="#371502" stroke-width="10"/>
<line y1="-5" x2="493.565" y2="-5" transform="matrix(-0.280419 0.959878 0.901044 0.433727 369.754 685.02)" stroke="#371502" stroke-width="10"/>
<line y1="-5" x2="493.565" y2="-5" transform="matrix(-0.280419 0.959878 0.901044 0.433727 324.14 685.02)" stroke="#371502" stroke-width="10"/>
</g>
<path d="M286.05 704.514C283.729 696.8 289.516 689.035 297.572 689.055L702.76 690.096C710.737 690.117 716.474 697.77 714.256 705.432L591.602 1129.3C590.117 1134.43 585.418 1137.96 580.075 1137.96H425.423C420.128 1137.96 415.458 1134.49 413.932 1129.42L286.05 704.514Z" stroke="black" stroke-width="8"/>
<path d="M296.404 733.031C293.476 722.807 301.151 712.625 311.786 712.625H690.614C701.2 712.625 708.868 722.72 706.028 732.918L595.362 1130.25C593.435 1137.17 587.132 1141.96 579.949 1141.96H425.59C418.45 1141.96 412.174 1137.23 410.208 1130.37L296.404 733.031Z" fill="black" fill-opacity="0.25"/>
<path d="M281.77 704.189C278.895 694.638 286.046 685.019 296.019 685.019C299.029 685.019 301.968 685.931 304.448 687.636L644.304 921.204C650.072 925.169 652.594 932.422 650.53 939.109L591.402 1130.68C589.332 1137.39 583.133 1141.96 576.114 1141.96H425.423C418.362 1141.96 412.137 1137.33 410.102 1130.57L281.77 704.189Z" fill="#5F3016"/>
<mask id="mask3_720_47920" style="mask-type:alpha" maskUnits="userSpaceOnUse" x="281" y="685" width="371" height="456">
<path d="M281.779 704.169C278.9 694.621 286.048 685 296.021 685C299.029 685 301.967 685.912 304.447 687.616L644.46 921.311C650.153 925.224 652.692 932.349 650.756 938.98L595.202 1129.29C593.21 1136.12 586.953 1140.81 579.843 1140.81H425.303C418.246 1140.81 412.022 1136.18 409.984 1129.43L281.779 704.169Z" fill="#FFBF74"/>
</mask>
<g mask="url(#mask3_720_47920)">
<line y1="-5" x2="490.116" y2="-5" transform="matrix(0.719621 0.694367 -0.562117 0.827058 25.1211 845.165)" stroke="#371502" stroke-width="10"/>
<line y1="-5" x2="490.159" y2="-5" transform="matrix(0.719282 0.694718 -0.561551 0.827442 75.418 821.901)" stroke="#371502" stroke-width="10"/>
<line y1="-5" x2="490.159" y2="-5" transform="matrix(0.719282 0.694718 -0.561551 0.827442 125.581 798.639)" stroke="#371502" stroke-width="10"/>
<line y1="-5" x2="490.159" y2="-5" transform="matrix(0.719282 0.694718 -0.561551 0.827442 175.743 775.375)" stroke="#371502" stroke-width="10"/>
<line y1="-5" x2="490.159" y2="-5" transform="matrix(0.719282 0.694718 -0.561551 0.827442 225.905 752.111)" stroke="#371502" stroke-width="10"/>
<line y1="-5" x2="490.159" y2="-5" transform="matrix(0.719282 0.694718 -0.561551 0.827442 276.067 728.848)" stroke="#371502" stroke-width="10"/>
<line y1="-5" x2="490.159" y2="-5" transform="matrix(0.719282 0.694718 -0.561551 0.827442 326.229 705.585)" stroke="#371502" stroke-width="10"/>
<line y1="-5" x2="490.159" y2="-5" transform="matrix(0.719282 0.694718 -0.561551 0.827442 376.393 682.321)" stroke="#371502" stroke-width="10"/>
<line y1="-5" x2="490.159" y2="-5" transform="matrix(0.719282 0.694718 -0.561551 0.827442 426.554 659.058)" stroke="#371502" stroke-width="10"/>
<line y1="-5" x2="494.432" y2="-5" transform="matrix(-0.280365 0.959893 0.901009 0.433801 655.457 685.02)" stroke="#371502" stroke-width="10"/>
<line y1="-5" x2="494.473" y2="-5" transform="matrix(-0.279904 0.960028 0.900706 0.43443 609.842 685.02)" stroke="#371502" stroke-width="10"/>
<line y1="-5" x2="494.473" y2="-5" transform="matrix(-0.279904 0.960028 0.900706 0.43443 564.229 685.02)" stroke="#371502" stroke-width="10"/>
<line y1="-5" x2="494.473" y2="-5" transform="matrix(-0.279904 0.960028 0.900706 0.43443 518.613 685.02)" stroke="#371502" stroke-width="10"/>
<line y1="-5" x2="494.473" y2="-5" transform="matrix(-0.279904 0.960028 0.900706 0.43443 472.999 685.02)" stroke="#371502" stroke-width="10"/>
<line y1="-5" x2="494.473" y2="-5" transform="matrix(-0.279904 0.960028 0.900706 0.43443 427.385 685.02)" stroke="#371502" stroke-width="10"/>
<line y1="-5" x2="494.473" y2="-5" transform="matrix(-0.279904 0.960028 0.900706 0.43443 381.769 685.02)" stroke="#371502" stroke-width="10"/>
<line y1="-5" x2="494.473" y2="-5" transform="matrix(-0.279904 0.960028 0.900706 0.43443 336.155 685.02)" stroke="#371502" stroke-width="10"/>
<line y1="-5" x2="494.473" y2="-5" transform="matrix(-0.279904 0.960028 0.900706 0.43443 290.54 685.02)" stroke="#371502" stroke-width="10"/>
</g>
<path d="M285.6 703.036C283.498 696.052 288.726 689.019 296.019 689.019C298.22 689.019 300.369 689.686 302.182 690.932L642.039 924.501C646.365 927.474 648.256 932.914 646.708 937.93L587.58 1129.5C586.027 1134.53 581.378 1137.96 576.114 1137.96H425.423C420.128 1137.96 415.458 1134.49 413.932 1129.42L285.6 703.036Z" stroke="black" stroke-width="8"/>
<path opacity="0.5" d="M294.48 710.897L497.76 863.409L628.749 958.719C634.164 962.66 636.553 969.555 634.735 976.001L591.208 1130.3C589.263 1137.2 582.973 1141.96 575.809 1141.96H425.71C418.514 1141.96 412.203 1137.16 410.287 1130.22L294.48 710.897Z" fill="black" fill-opacity="0.25"/>
<path d="M716.04 713.552C719.524 701.545 708.51 690.36 696.451 693.66L326.549 794.879C317.872 797.253 312.858 806.31 315.451 814.923L413.76 1141.51L495.139 1412.16C497.423 1419.76 508.178 1419.76 510.462 1412.16L591.84 1141.51L716.04 713.552Z" fill="#5F3016"/>
<mask id="mask4_720_47920" style="mask-type:alpha" maskUnits="userSpaceOnUse" x="314" y="693" width="403" height="727">
<path d="M716.024 713.562C719.515 701.554 708.499 690.363 696.437 693.664L326.535 794.883C317.864 797.255 312.849 806.303 315.432 814.913L413.201 1140.78L500.613 1418.15C501.201 1420.01 503.841 1420.01 504.428 1418.15L591.841 1140.78L716.024 713.562Z" fill="#FFBF74"/>
</mask>
<g mask="url(#mask4_720_47920)">
<line y1="-5" x2="729.319" y2="-5" transform="matrix(-0.19007 0.981771 0.809082 0.587696 679.91 697.075)" stroke="#371502" stroke-width="10"/>
<line y1="-5" x2="729.435" y2="-5" transform="matrix(-0.189743 0.981834 0.808583 0.588382 634.296 697.075)" stroke="#371502" stroke-width="10"/>
<line y1="-5" x2="729.435" y2="-5" transform="matrix(-0.189743 0.981834 0.808583 0.588382 588.68 697.075)" stroke="#371502" stroke-width="10"/>
<line y1="-5" x2="729.435" y2="-5" transform="matrix(-0.189743 0.981834 0.808583 0.588382 543.066 697.075)" stroke="#371502" stroke-width="10"/>
<line y1="-5" x2="729.435" y2="-5" transform="matrix(-0.189743 0.981834 0.808583 0.588382 497.451 697.075)" stroke="#371502" stroke-width="10"/>
<line y1="-5" x2="729.435" y2="-5" transform="matrix(-0.189743 0.981834 0.808583 0.588382 451.837 697.075)" stroke="#371502" stroke-width="10"/>
<line y1="-5" x2="729.435" y2="-5" transform="matrix(-0.189743 0.981834 0.808583 0.588382 406.223 697.075)" stroke="#371502" stroke-width="10"/>
<line y1="-5" x2="729.435" y2="-5" transform="matrix(-0.189743 0.981834 0.808583 0.588382 360.609 697.075)" stroke="#371502" stroke-width="10"/>
<line y1="-5" x2="729.435" y2="-5" transform="matrix(-0.189743 0.981834 0.808583 0.588382 314.993 697.075)" stroke="#371502" stroke-width="10"/>
<line y1="-5" x2="622.705" y2="-5" transform="matrix(0.566055 0.824368 -0.410687 0.911776 224.199 938.862)" stroke="#371502" stroke-width="10"/>
<line y1="-5" x2="622.705" y2="-5" transform="matrix(0.566055 0.824368 -0.410687 0.911776 156.161 938.862)" stroke="#371502" stroke-width="10"/>
<line y1="-5" x2="622.88" y2="-5" transform="matrix(0.565678 0.824626 -0.410185 0.912002 274.283 903.733)" stroke="#371502" stroke-width="10"/>
<line y1="-5" x2="622.88" y2="-5" transform="matrix(0.565678 0.824626 -0.410185 0.912002 324.234 868.604)" stroke="#371502" stroke-width="10"/>
<line y1="-5" x2="622.88" y2="-5" transform="matrix(0.565678 0.824626 -0.410185 0.912002 374.185 833.476)" stroke="#371502" stroke-width="10"/>
<line y1="-5" x2="622.88" y2="-5" transform="matrix(0.565678 0.824626 -0.410185 0.912002 424.134 798.347)" stroke="#371502" stroke-width="10"/>
<line y1="-5" x2="622.88" y2="-5" transform="matrix(0.565678 0.824626 -0.410185 0.912002 474.083 763.218)" stroke="#371502" stroke-width="10"/>
<line y1="-5" x2="622.88" y2="-5" transform="matrix(0.565678 0.824626 -0.410185 0.912002 524.033 728.088)" stroke="#371502" stroke-width="10"/>
<line y1="-5" x2="622.88" y2="-5" transform="matrix(0.565678 0.824626 -0.410185 0.912002 573.984 692.958)" stroke="#371502" stroke-width="10"/>
<line y1="-5" x2="622.88" y2="-5" transform="matrix(0.565678 0.824626 -0.410185 0.912002 623.934 657.829)" stroke="#371502" stroke-width="10"/>
</g>
<path d="M417.591 1140.36L417.597 1140.38L417.603 1140.4L497.037 1415.07C498.708 1420.85 506.893 1420.85 508.564 1415.07L587.998 1140.4L587.999 1140.4L715.184 702.15C716.49 697.648 712.36 693.453 707.838 694.691L327.604 798.737C321.097 800.518 317.336 807.311 319.281 813.77L417.591 1140.36Z" stroke="black" stroke-width="8"/>
<path d="M718.685 704.53C720.927 696.766 713.511 689.687 705.859 692.288L631.285 717.637C626.232 719.354 622.369 723.477 620.983 728.63L465.841 1305.48L492.857 1412.73C495.6 1423.62 510.977 1423.88 514.092 1413.09L718.685 704.53Z" fill="black" fill-opacity="0.25"/>
<path d="M692.039 795.431C695.524 783.424 684.509 772.239 672.45 775.539L346.828 864.641C338.152 867.015 333.137 876.072 335.73 884.686L423 1174.6L494.839 1413.52C497.123 1421.12 507.877 1421.12 510.161 1413.52L582 1174.6L692.039 795.431Z" fill="#DD933C"/>
<mask id="mask5_720_47920" style="mask-type:alpha" maskUnits="userSpaceOnUse" x="335" y="774" width="358" height="649">
<path d="M692.023 795.441C695.514 783.433 684.498 772.242 672.436 775.542L346.814 864.645C338.143 867.018 333.128 876.066 335.711 884.676L422.5 1173.94L500.342 1420.95C500.93 1422.81 503.57 1422.81 504.158 1420.95L582 1173.94L692.023 795.441Z" fill="#FFBF74"/>
</mask>
<g mask="url(#mask5_720_47920)">
<line y1="-5" x2="651.177" y2="-5" transform="matrix(-0.19007 0.981771 0.809082 0.587696 660.633 777.78)" stroke="#FFBF74" stroke-width="10"/>
<line y1="-5" x2="651.281" y2="-5" transform="matrix(-0.189743 0.981834 0.808583 0.588382 619.906 777.78)" stroke="#FFBF74" stroke-width="10"/>
<line y1="-5" x2="651.281" y2="-5" transform="matrix(-0.189743 0.981834 0.808583 0.588382 579.178 777.78)" stroke="#FFBF74" stroke-width="10"/>
<line y1="-5" x2="651.281" y2="-5" transform="matrix(-0.189743 0.981834 0.808583 0.588382 538.451 777.78)" stroke="#FFBF74" stroke-width="10"/>
<line y1="-5" x2="651.281" y2="-5" transform="matrix(-0.189743 0.981834 0.808583 0.588382 497.723 777.78)" stroke="#FFBF74" stroke-width="10"/>
<line y1="-5" x2="651.281" y2="-5" transform="matrix(-0.189743 0.981834 0.808583 0.588382 456.996 777.78)" stroke="#FFBF74" stroke-width="10"/>
<line y1="-5" x2="651.281" y2="-5" transform="matrix(-0.189743 0.981834 0.808583 0.588382 416.27 777.78)" stroke="#FFBF74" stroke-width="10"/>
<line y1="-5" x2="651.281" y2="-5" transform="matrix(-0.189743 0.981834 0.808583 0.588382 375.543 777.78)" stroke="#FFBF74" stroke-width="10"/>
<line y1="-5" x2="555.987" y2="-5" transform="matrix(0.566055 0.824368 -0.410687 0.911776 253.748 993.662)" stroke="#FFBF74" stroke-width="10"/>
<line y1="-5" x2="555.987" y2="-5" transform="matrix(0.566055 0.824368 -0.410687 0.911776 193 993.662)" stroke="#FFBF74" stroke-width="10"/>
<line y1="-5" x2="556.143" y2="-5" transform="matrix(0.565678 0.824626 -0.410185 0.912002 298.467 962.297)" stroke="#FFBF74" stroke-width="10"/>
<line y1="-5" x2="556.143" y2="-5" transform="matrix(0.565678 0.824626 -0.410185 0.912002 343.066 930.932)" stroke="#FFBF74" stroke-width="10"/>
<line y1="-5" x2="556.143" y2="-5" transform="matrix(0.565678 0.824626 -0.410185 0.912002 387.664 899.566)" stroke="#FFBF74" stroke-width="10"/>
<line y1="-5" x2="556.143" y2="-5" transform="matrix(0.565678 0.824626 -0.410185 0.912002 432.262 868.201)" stroke="#FFBF74" stroke-width="10"/>
<line y1="-5" x2="556.143" y2="-5" transform="matrix(0.565678 0.824626 -0.410185 0.912002 476.859 836.836)" stroke="#FFBF74" stroke-width="10"/>
<line y1="-5" x2="556.143" y2="-5" transform="matrix(0.565678 0.824626 -0.410185 0.912002 521.457 805.471)" stroke="#FFBF74" stroke-width="10"/>
<line y1="-5" x2="556.143" y2="-5" transform="matrix(0.565678 0.824626 -0.410185 0.912002 566.057 774.104)" stroke="#FFBF74" stroke-width="10"/>
<line y1="-5" x2="556.143" y2="-5" transform="matrix(0.565678 0.824626 -0.410185 0.912002 610.654 742.739)" stroke="#FFBF74" stroke-width="10"/>
</g>
<path d="M426.83 1173.45L426.836 1173.47L426.843 1173.49L496.736 1415.17C498.407 1420.95 506.593 1420.95 508.264 1415.17L578.157 1173.49L578.159 1173.49L691.183 784.029C692.49 779.527 688.359 775.332 683.837 776.57L347.884 868.499C341.377 870.28 337.616 877.073 339.56 883.533L426.83 1173.45Z" stroke="black" stroke-width="8"/>
<path d="M694.685 786.408C696.927 778.644 689.51 771.566 681.859 774.166L618.084 795.844C613.032 797.562 609.168 801.685 607.782 806.838L469.5 1321L492.557 1412.53C495.3 1423.42 510.677 1423.68 513.792 1412.89L694.685 786.408Z" fill="black" fill-opacity="0.25"/>
</g>
<defs>
<clipPath id="clip0_720_47920">
<rect width="1000" height="1000" fill="white"/>
</clipPath>
</defs>
</svg>
