<svg width="1000" height="1000" viewBox="0 0 1000 1000" fill="none" xmlns="http://www.w3.org/2000/svg">
<g clip-path="url(#clip0_25_9)">
<path d="M306.639 724.869C303.354 714.55 311.055 704.016 321.885 704.016H678.386C689.136 704.016 696.828 714.406 693.688 724.688L582.234 1089.73L517.678 1281.46C512.787 1295.99 492.241 1295.99 487.35 1281.46L422.794 1089.73L306.639 724.869Z" fill="#DD933C"/>
<mask id="mask0_25_9" style="mask-type:alpha" maskUnits="userSpaceOnUse" x="300" y="704" width="400" height="589">
<path d="M300 704.016H700L582.234 1089.73L517.669 1281.86C512.784 1296.4 492.22 1296.4 487.336 1281.86L422.794 1089.73L300 704.016Z" fill="#FFBF74"/>
</mask>
<g mask="url(#mask0_25_9)">
<line y1="-5" x2="604.656" y2="-5" transform="matrix(0.204693 0.978826 -0.829826 0.558022 335.6 704.016)" stroke="#FFBF74" stroke-width="10"/>
<line y1="-5" x2="604.746" y2="-5" transform="matrix(0.204344 0.978899 -0.829365 0.558708 376.326 704.016)" stroke="#FFBF74" stroke-width="10"/>
<line y1="-5" x2="604.746" y2="-5" transform="matrix(0.204344 0.978899 -0.829365 0.558708 417.054 704.016)" stroke="#FFBF74" stroke-width="10"/>
<line y1="-5" x2="604.746" y2="-5" transform="matrix(0.204344 0.978899 -0.829365 0.558708 457.781 704.016)" stroke="#FFBF74" stroke-width="10"/>
<line y1="-5" x2="604.746" y2="-5" transform="matrix(0.204344 0.978899 -0.829365 0.558708 498.509 704.016)" stroke="#FFBF74" stroke-width="10"/>
<line y1="-5" x2="604.746" y2="-5" transform="matrix(0.204344 0.978899 -0.829365 0.558708 539.236 704.016)" stroke="#FFBF74" stroke-width="10"/>
<line y1="-5" x2="604.746" y2="-5" transform="matrix(0.204344 0.978899 -0.829365 0.558708 579.963 704.016)" stroke="#FFBF74" stroke-width="10"/>
<line y1="-5" x2="604.746" y2="-5" transform="matrix(0.204344 0.978899 -0.829365 0.558708 620.69 704.016)" stroke="#FFBF74" stroke-width="10"/>
<line y1="-5" x2="604.746" y2="-5" transform="matrix(0.204344 0.978899 -0.829365 0.558708 661.418 704.016)" stroke="#FFBF74" stroke-width="10"/>
<line y1="-5" x2="604.656" y2="-5" transform="matrix(-0.204693 0.978826 0.829826 0.558022 668.8 704.016)" stroke="#FFBF74" stroke-width="10"/>
<line y1="-5" x2="604.746" y2="-5" transform="matrix(-0.204344 0.978899 0.829365 0.558708 628.072 704.016)" stroke="#FFBF74" stroke-width="10"/>
<line y1="-5" x2="604.746" y2="-5" transform="matrix(-0.204344 0.978899 0.829365 0.558708 587.346 704.016)" stroke="#FFBF74" stroke-width="10"/>
<line y1="-5" x2="604.746" y2="-5" transform="matrix(-0.204344 0.978899 0.829365 0.558708 546.618 704.016)" stroke="#FFBF74" stroke-width="10"/>
<line y1="-5" x2="604.746" y2="-5" transform="matrix(-0.204344 0.978899 0.829365 0.558708 505.891 704.016)" stroke="#FFBF74" stroke-width="10"/>
<line y1="-5" x2="604.746" y2="-5" transform="matrix(-0.204344 0.978899 0.829365 0.558708 465.164 704.016)" stroke="#FFBF74" stroke-width="10"/>
<line y1="-5" x2="604.746" y2="-5" transform="matrix(-0.204344 0.978899 0.829365 0.558708 424.437 704.016)" stroke="#FFBF74" stroke-width="10"/>
<line y1="-5" x2="604.746" y2="-5" transform="matrix(-0.204344 0.978899 0.829365 0.558708 383.709 704.016)" stroke="#FFBF74" stroke-width="10"/>
<line y1="-5" x2="604.746" y2="-5" transform="matrix(-0.204344 0.978899 0.829365 0.558708 342.981 704.016)" stroke="#FFBF74" stroke-width="10"/>
</g>
<path d="M426.595 1091.75L305.457 708H694.61L578.425 1091.77L513.873 1281.25C510.18 1292.09 494.848 1292.09 491.155 1281.25L426.595 1091.75Z" stroke="black" stroke-width="8"/>
<path fill-rule="evenodd" clip-rule="evenodd" d="M470 1216L623.5 718.5H691L517.821 1275.6C513.111 1290.76 491.589 1290.55 487.174 1275.3L470 1216Z" fill="black" fill-opacity="0.25"/>
<rect x="300" y="689" width="400" height="26" rx="13" fill="#DD933C" stroke="black" stroke-width="8"/>
<path d="M596 685L679 685C688.389 685 696 692.611 696 702C696 711.389 688.389 719 679 719H596V685Z" fill="black" fill-opacity="0.25"/>
</g>
<defs>
<clipPath id="clip0_25_9">
<rect width="1000" height="1000" fill="white"/>
</clipPath>
</defs>
</svg>
