<svg width="1000" height="1000" viewBox="0 0 1000 1000" fill="none" xmlns="http://www.w3.org/2000/svg">
<g clip-path="url(#clip0_421_78044)">
<path d="M333 829H668L569.371 1154L502.605 1359L435.84 1154L333 829Z" fill="#DD933C"/>
<mask id="mask0_421_78044" style="mask-type:alpha" maskUnits="userSpaceOnUse" x="333" y="828" width="335" height="531">
<path d="M333 828.939H667.872L569.281 1153.11L502.541 1359L435.801 1153.11L333 828.939Z" fill="#DD933C"/>
</mask>
<g mask="url(#mask0_421_78044)">
<line y1="-5" x2="528.168" y2="-5" transform="matrix(0.153061 0.988217 -0.74037 0.672199 293.924 828.939)" stroke="#FFBF74" stroke-width="10"/>
<line y1="-5" x2="528.264" y2="-5" transform="matrix(0.152795 0.988258 -0.739773 0.672857 335.576 828.939)" stroke="#FFBF74" stroke-width="10"/>
<line y1="-5" x2="528.264" y2="-5" transform="matrix(0.152795 0.988258 -0.739773 0.672857 377.102 828.939)" stroke="#FFBF74" stroke-width="10"/>
<line y1="-5" x2="528.264" y2="-5" transform="matrix(0.152795 0.988258 -0.739773 0.672857 418.629 828.939)" stroke="#FFBF74" stroke-width="10"/>
<line y1="-5" x2="528.264" y2="-5" transform="matrix(0.152795 0.988258 -0.739773 0.672857 460.154 828.939)" stroke="#FFBF74" stroke-width="10"/>
<line y1="-5" x2="528.264" y2="-5" transform="matrix(0.152795 0.988258 -0.739773 0.672857 501.68 828.939)" stroke="#FFBF74" stroke-width="10"/>
<line y1="-5" x2="528.264" y2="-5" transform="matrix(0.152795 0.988258 -0.739773 0.672857 543.205 828.939)" stroke="#FFBF74" stroke-width="10"/>
<line y1="-5" x2="528.264" y2="-5" transform="matrix(0.152795 0.988258 -0.739773 0.672857 584.732 828.939)" stroke="#FFBF74" stroke-width="10"/>
<line y1="-5" x2="528.264" y2="-5" transform="matrix(0.152795 0.988258 -0.739773 0.672857 626.258 828.939)" stroke="#FFBF74" stroke-width="10"/>
<line y1="-5" x2="528.168" y2="-5" transform="matrix(-0.153061 0.988217 0.74037 0.672199 706.924 828.939)" stroke="#FFBF74" stroke-width="10"/>
<line y1="-5" x2="528.264" y2="-5" transform="matrix(-0.152795 0.988258 0.739773 0.672857 665.271 828.939)" stroke="#FFBF74" stroke-width="10"/>
<line y1="-5" x2="528.264" y2="-5" transform="matrix(-0.152795 0.988258 0.739773 0.672857 623.746 828.939)" stroke="#FFBF74" stroke-width="10"/>
<line y1="-5" x2="528.264" y2="-5" transform="matrix(-0.152795 0.988258 0.739773 0.672857 582.219 828.939)" stroke="#FFBF74" stroke-width="10"/>
<line y1="-5" x2="528.264" y2="-5" transform="matrix(-0.152795 0.988258 0.739773 0.672857 540.693 828.939)" stroke="#FFBF74" stroke-width="10"/>
<line y1="-5" x2="528.264" y2="-5" transform="matrix(-0.152795 0.988258 0.739773 0.672857 499.168 828.939)" stroke="#FFBF74" stroke-width="10"/>
<line y1="-5" x2="528.264" y2="-5" transform="matrix(-0.152795 0.988258 0.739773 0.672857 457.643 828.939)" stroke="#FFBF74" stroke-width="10"/>
<line y1="-5" x2="528.264" y2="-5" transform="matrix(-0.152795 0.988258 0.739773 0.672857 416.115 828.939)" stroke="#FFBF74" stroke-width="10"/>
<line y1="-5" x2="528.264" y2="-5" transform="matrix(-0.152795 0.988258 0.739773 0.672857 374.59 828.939)" stroke="#FFBF74" stroke-width="10"/>
</g>
<path d="M439.64 1154.75L338.451 833H662.616L565.555 1154.8L502.605 1346.2L439.656 1154.8L439.64 1154.75Z" stroke="black" stroke-width="8"/>
<path fill-rule="evenodd" clip-rule="evenodd" d="M478 1257.77L603.37 838H670L502.935 1340L478 1257.77Z" fill="black" fill-opacity="0.25"/>
<mask id="path-23-inside-1_421_78044" fill="white">
<path fill-rule="evenodd" clip-rule="evenodd" d="M686.553 711H313V826H313.952C315.751 832.39 320.234 838.665 327.283 844.619C336.68 852.555 350.452 859.767 367.814 865.841C385.177 871.915 405.789 876.733 428.473 880.021C451.158 883.308 475.472 885 500.025 885C524.579 885 548.893 883.308 571.578 880.021C594.262 876.733 614.874 871.915 632.237 865.841C649.599 859.767 663.371 852.555 672.768 844.619C679.817 838.665 684.3 832.39 686.099 826H686.553V824.106C686.851 822.604 687 821.096 687 819.586H686.553V711Z"/>
</mask>
<path fill-rule="evenodd" clip-rule="evenodd" d="M686.553 711H313V826H313.952C315.751 832.39 320.234 838.665 327.283 844.619C336.68 852.555 350.452 859.767 367.814 865.841C385.177 871.915 405.789 876.733 428.473 880.021C451.158 883.308 475.472 885 500.025 885C524.579 885 548.893 883.308 571.578 880.021C594.262 876.733 614.874 871.915 632.237 865.841C649.599 859.767 663.371 852.555 672.768 844.619C679.817 838.665 684.3 832.39 686.099 826H686.553V824.106C686.851 822.604 687 821.096 687 819.586H686.553V711Z" fill="#DD933C"/>
<path d="M313 711V705H307V711H313ZM686.553 711H692.553V705H686.553V711ZM313 826H307V832H313V826ZM313.952 826L319.727 824.374L318.495 820H313.952V826ZM327.283 844.619L323.412 849.203H323.412L327.283 844.619ZM367.814 865.841L365.833 871.504H365.833L367.814 865.841ZM428.473 880.021L429.334 874.083L428.473 880.021ZM672.768 844.619L668.896 840.035L672.768 844.619ZM686.099 826V820H681.556L680.324 824.374L686.099 826ZM686.553 826V832H692.553V826H686.553ZM686.553 824.106L680.668 822.941L680.553 823.518V824.106H686.553ZM687 819.586H693V813.586H687V819.586ZM686.553 819.586H680.553V825.586H686.553V819.586ZM313 717H686.553V705H313V717ZM319 826V711H307V826H319ZM313.952 820H313V832H313.952V820ZM331.155 840.035C324.682 834.568 321.099 829.246 319.727 824.374L308.176 827.626C310.403 835.535 315.786 842.762 323.412 849.203L331.155 840.035ZM369.796 860.177C352.815 854.237 339.787 847.326 331.155 840.035L323.412 849.203C333.572 857.784 348.089 865.296 365.833 871.504L369.796 860.177ZM429.334 874.083C406.942 870.838 386.718 866.098 369.796 860.177L365.833 871.504C383.635 877.732 404.635 882.629 427.613 885.959L429.334 874.083ZM500.025 879C475.739 879 451.714 877.326 429.334 874.083L427.613 885.959C450.602 889.29 475.204 891 500.025 891V879ZM570.717 874.083C548.337 877.326 524.312 879 500.025 879V891C524.847 891 549.449 889.29 572.438 885.959L570.717 874.083ZM630.255 860.177C613.333 866.098 593.109 870.838 570.717 874.083L572.438 885.959C595.416 882.629 616.416 877.732 634.218 871.504L630.255 860.177ZM668.896 840.035C660.264 847.326 647.236 854.237 630.255 860.177L634.218 871.504C651.962 865.296 666.479 857.784 676.639 849.203L668.896 840.035ZM680.324 824.374C678.952 829.246 675.369 834.568 668.896 840.035L676.639 849.203C684.265 842.762 689.648 835.535 691.875 827.626L680.324 824.374ZM686.553 820H686.099V832H686.553V820ZM680.553 824.106V826H692.553V824.106H680.553ZM681 819.586C681 820.698 680.89 821.815 680.668 822.941L692.439 825.271C692.811 823.392 693 821.495 693 819.586H681ZM686.553 825.586H687V813.586H686.553V825.586ZM680.553 711V819.586H692.553V711H680.553Z" fill="black" mask="url(#path-23-inside-1_421_78044)"/>
<path d="M322 819.586C322 828.177 326.682 836.683 335.778 844.619C344.874 852.555 358.206 859.767 375.014 865.841C391.821 871.915 411.774 876.733 433.734 880.021C455.694 883.308 479.231 885 503 885C526.769 885 550.306 883.308 572.266 880.021C594.226 876.733 614.179 871.915 630.986 865.841C647.794 859.767 661.126 852.555 670.222 844.619C679.318 836.683 684 828.177 684 819.586V711H670.222C663.986 776.195 585.61 889.186 322 819.586Z" fill="black" fill-opacity="0.25"/>
<rect x="302.5" y="733.5" width="395" height="15" rx="7.5" fill="#DD933C" stroke="black" stroke-width="5"/>
<rect x="302.5" y="825.5" width="395" height="15" rx="7.5" fill="#DD933C" stroke="black" stroke-width="5"/>
<path d="M556 823L694 823C699.523 823 704 827.477 704 833C704 838.523 699.523 843 694 843H556V823Z" fill="black" fill-opacity="0.25"/>
<path d="M563 731L694 731C699.523 731 704 735.477 704 741C704 746.523 699.523 751 694 751H563V731Z" fill="black" fill-opacity="0.25"/>
<rect x="278" y="688" width="444" height="28" rx="14" fill="#DD933C" stroke="black" stroke-width="6"/>
<path d="M613.346 685L708 685C717.389 685 725 692.611 725 702C725 711.389 717.389 719 708 719H613.346V685Z" fill="black" fill-opacity="0.25"/>
<line x1="499.597" y1="756" x2="499.597" y2="775.672" stroke="#FFBF74" stroke-width="5"/>
<line x1="499.597" y1="796.328" x2="499.597" y2="816" stroke="#FFBF74" stroke-width="5"/>
<line x1="530" y1="787.024" x2="510.645" y2="787.024" stroke="#FFBF74" stroke-width="5"/>
<line x1="489.355" y1="787.024" x2="470" y2="787.024" stroke="#FFBF74" stroke-width="5"/>
<line y1="-2.5" x2="19.5141" y2="-2.5" transform="matrix(-0.701335 0.712832 -0.701335 -0.712832 518.525 763.869)" stroke="#FFBF74" stroke-width="5"/>
<line y1="-2.5" x2="19.5141" y2="-2.5" transform="matrix(-0.701335 0.712832 -0.701335 -0.712832 491.222 791.48)" stroke="#FFBF74" stroke-width="5"/>
<line y1="-2.5" x2="19.5141" y2="-2.5" transform="matrix(-0.701335 -0.712832 0.701335 -0.712832 522.396 805.32)" stroke="#FFBF74" stroke-width="5"/>
<line y1="-2.5" x2="19.5141" y2="-2.5" transform="matrix(-0.701335 -0.712832 0.701335 -0.712832 494.332 777.779)" stroke="#FFBF74" stroke-width="5"/>
</g>
<defs>
<clipPath id="clip0_421_78044">
<rect width="1000" height="1000" fill="white"/>
</clipPath>
</defs>
</svg>
