<svg width="1000" height="1000" viewBox="0 0 1000 1000" fill="none" xmlns="http://www.w3.org/2000/svg">
<g clip-path="url(#clip0_930_28522)">
<path d="M499.627 699.869L499.803 699.877L499.98 699.869L655.541 692.922C661.591 717.254 664.737 739.661 660.165 763.936C655.344 789.534 644.975 813.628 629.863 834.376C614.752 855.123 595.302 871.969 573.014 883.637C550.726 895.304 526.185 901.487 501.27 901.721C476.354 901.955 451.711 896.233 429.227 884.987C406.742 873.74 387.006 857.262 371.541 836.803C356.075 816.344 345.293 792.449 340.031 766.947C334.992 742.522 335.148 717.253 340.471 692.922L499.627 699.869Z" fill="#9FEF8B" stroke="black" stroke-width="8"/>
<path d="M664.096 764.677C669.026 738.504 664.114 728.764 657.5 703C657.5 769.836 557.605 836.73 368.35 839.215C384.18 860.156 404.392 877.036 427.438 888.564C450.484 900.092 475.752 905.96 501.307 905.721C526.862 905.481 552.025 899.139 574.869 887.18C597.713 875.222 617.631 857.965 633.097 836.73C648.563 815.496 659.167 790.849 664.096 764.677Z" fill="black" fill-opacity="0.25"/>
<path d="M371.197 839.7H630.097L539.367 1190.32C535.713 1204.44 522.973 1214.31 508.387 1214.31H495.954C481.465 1214.31 468.784 1204.57 465.04 1190.57L371.197 839.7Z" fill="#9FEF8B"/>
<mask id="mask0_930_28522" style="mask-type:alpha" maskUnits="userSpaceOnUse" x="371" y="839" width="260" height="376">
<path d="M371.197 839.714H630.097L539.368 1190.21C535.714 1204.33 522.974 1214.19 508.39 1214.19H471.388L371.197 839.714Z" fill="#DD933C"/>
</mask>
<g mask="url(#mask0_930_28522)">
<line y1="-5" x2="397.111" y2="-5" transform="matrix(-0.202214 0.979341 0.826519 0.562909 662.257 839.715)" stroke="black" stroke-opacity="0.25" stroke-width="10"/>
<line y1="-5" x2="397.171" y2="-5" transform="matrix(-0.201385 0.979512 0.825395 0.564555 620.982 839.715)" stroke="black" stroke-opacity="0.25" stroke-width="10"/>
<line y1="-5" x2="397.171" y2="-5" transform="matrix(-0.201385 0.979512 0.825395 0.564555 579.833 839.715)" stroke="black" stroke-opacity="0.25" stroke-width="10"/>
<line y1="-5" x2="397.171" y2="-5" transform="matrix(-0.201385 0.979512 0.825395 0.564555 538.683 839.715)" stroke="black" stroke-opacity="0.25" stroke-width="10"/>
<line y1="-5" x2="397.171" y2="-5" transform="matrix(-0.201385 0.979512 0.825395 0.564555 497.534 839.715)" stroke="black" stroke-opacity="0.25" stroke-width="10"/>
<line y1="-5" x2="397.171" y2="-5" transform="matrix(-0.201385 0.979512 0.825395 0.564555 456.383 839.715)" stroke="black" stroke-opacity="0.25" stroke-width="10"/>
<line y1="-5" x2="397.171" y2="-5" transform="matrix(-0.201385 0.979512 0.825395 0.564555 415.234 839.715)" stroke="black" stroke-opacity="0.25" stroke-width="10"/>
</g>
<path d="M467.36 1186.25L376.398 843.7H624.939L537.004 1185.97C532.917 1201.88 518.573 1213 502.145 1213C485.826 1213 471.548 1202.02 467.36 1186.25Z" stroke="black" stroke-width="8"/>
<path fill-rule="evenodd" clip-rule="evenodd" d="M502 1214L578.66 848H624L536.012 1189.97C532.373 1204.12 519.623 1214 505.021 1214H502Z" fill="black" fill-opacity="0.25"/>
<rect x="304" y="682" width="392" height="37.815" rx="18.9075" fill="#9FEF8B" stroke="black" stroke-width="8"/>
<path d="M555.016 678L675.798 678C688.449 678 698.705 688.256 698.705 700.908C698.705 713.559 688.449 723.815 675.798 723.815H555.016V678Z" fill="black" fill-opacity="0.25"/>
</g>
<defs>
<clipPath id="clip0_930_28522">
<rect width="1000" height="1000" fill="white"/>
</clipPath>
</defs>
</svg>
