<svg width="1000" height="1000" viewBox="0 0 1000 1000" fill="none" xmlns="http://www.w3.org/2000/svg">
<g clip-path="url(#clip0_1275_39892)">
<path d="M499.627 699.869L499.803 699.877L499.98 699.869L655.541 692.922C661.591 717.254 664.737 739.661 660.165 763.936C655.344 789.534 644.975 813.628 629.863 834.376C614.752 855.123 595.302 871.969 573.014 883.637C550.726 895.304 526.185 901.487 501.27 901.721C476.354 901.955 451.711 896.233 429.227 884.987C406.742 873.74 387.006 857.262 371.541 836.803C356.075 816.344 345.293 792.449 340.031 766.947C334.992 742.522 335.148 717.253 340.471 692.922L499.627 699.869Z" fill="#DD933C" stroke="black" stroke-width="8"/>
<path d="M664.096 764.677C669.026 738.504 664.114 728.764 657.5 703C657.5 769.836 557.605 836.73 368.35 839.215C384.18 860.156 404.392 877.036 427.438 888.564C450.484 900.092 475.752 905.96 501.307 905.721C526.862 905.481 552.025 899.139 574.869 887.18C597.713 875.222 617.631 857.965 633.097 836.73C648.563 815.496 659.167 790.849 664.096 764.677Z" fill="black" fill-opacity="0.25"/>
<path d="M406.973 872L592 872V1091.06H406.972L406.973 872Z" fill="#DD933C"/>
<mask id="mask0_1275_39892" style="mask-type:alpha" maskUnits="userSpaceOnUse" x="406" y="872" width="186" height="220">
<path d="M406.973 872.008H592V1091.1H406.972L406.973 872.008Z" fill="#FFBF74"/>
</mask>
<g mask="url(#mask0_1275_39892)">
<line y1="-5" x2="269.096" y2="-5" transform="matrix(0.533758 0.845637 -0.976069 0.217461 305.785 872.008)" stroke="#FFBF74" stroke-width="10"/>
<line y1="-5" x2="269.02" y2="-5" transform="matrix(0.533078 0.846066 -0.975986 0.217831 353.048 872.008)" stroke="#FFBF74" stroke-width="10"/>
<line y1="-5" x2="269.02" y2="-5" transform="matrix(0.533078 0.846066 -0.975986 0.217831 400.312 872.008)" stroke="#FFBF74" stroke-width="10"/>
<line y1="-5" x2="269.02" y2="-5" transform="matrix(0.533078 0.846066 -0.975986 0.217831 447.575 872.008)" stroke="#FFBF74" stroke-width="10"/>
<line y1="-5" x2="269.02" y2="-5" transform="matrix(0.533078 0.846066 -0.975986 0.217831 494.838 872.008)" stroke="#FFBF74" stroke-width="10"/>
<line y1="-5" x2="269.02" y2="-5" transform="matrix(0.533078 0.846066 -0.975986 0.217831 542.102 872.008)" stroke="#FFBF74" stroke-width="10"/>
<line y1="-5" x2="269.02" y2="-5" transform="matrix(0.533078 0.846066 -0.975986 0.217831 589.366 872.008)" stroke="#FFBF74" stroke-width="10"/>
<line y1="-5" x2="269.096" y2="-5" transform="matrix(-0.533758 0.845637 0.976069 0.217461 692.459 872.008)" stroke="#FFBF74" stroke-width="10"/>
<line y1="-5" x2="269.02" y2="-5" transform="matrix(-0.533078 0.846066 0.975986 0.217831 645.195 872.008)" stroke="#FFBF74" stroke-width="10"/>
<line y1="-5" x2="269.02" y2="-5" transform="matrix(-0.533078 0.846066 0.975986 0.217831 597.932 872.008)" stroke="#FFBF74" stroke-width="10"/>
<line y1="-5" x2="269.02" y2="-5" transform="matrix(-0.533078 0.846066 0.975986 0.217831 550.668 872.008)" stroke="#FFBF74" stroke-width="10"/>
<line y1="-5" x2="269.02" y2="-5" transform="matrix(-0.533078 0.846066 0.975986 0.217831 503.405 872.008)" stroke="#FFBF74" stroke-width="10"/>
<line y1="-5" x2="269.02" y2="-5" transform="matrix(-0.533078 0.846066 0.975986 0.217831 456.141 872.008)" stroke="#FFBF74" stroke-width="10"/>
<line y1="-5" x2="269.02" y2="-5" transform="matrix(-0.533078 0.846066 0.975986 0.217831 408.878 872.008)" stroke="#FFBF74" stroke-width="10"/>
</g>
<path d="M410.972 876H588V1088.73H410.973L410.972 876Z" stroke="black" stroke-width="8"/>
<path fill-rule="evenodd" clip-rule="evenodd" d="M514 1092L514 878H587V1091.46L514 1092Z" fill="black" fill-opacity="0.25"/>
<rect x="304" y="682" width="392" height="37.815" rx="18.9075" fill="#DD933C" stroke="black" stroke-width="8"/>
<path d="M555.016 678L675.798 678C688.449 678 698.705 688.256 698.705 700.908C698.705 713.559 688.449 723.815 675.798 723.815H555.016V678Z" fill="black" fill-opacity="0.25"/>
</g>
<defs>
<clipPath id="clip0_1275_39892">
<rect width="1000" height="1000" fill="white"/>
</clipPath>
</defs>
</svg>
