<svg width="1000" height="1000" viewBox="0 0 1000 1000" fill="none" xmlns="http://www.w3.org/2000/svg">
<g clip-path="url(#clip0_269_191933)">
<path d="M652.795 1138.4C641.596 1127.66 755.441 1035.92 755.441 951.147C755.441 866.377 835.688 951.147 848.752 960.356C858.083 977.24 841.287 1041.7 742.375 1119.98C687.438 1163.46 665.859 1146.08 652.795 1138.4Z" fill="#DD933C" stroke="black" stroke-width="7" stroke-linecap="round"/>
<path d="M720.879 1105.66C761.937 1055.01 776.867 1012.04 788.065 981.339L788.065 923.014C758.205 979.804 713.414 1070.36 666.758 1137.9C683.554 1147.11 665.942 1149.14 720.879 1105.66Z" fill="black" fill-opacity="0.25"/>
<path d="M503.875 1268.13C400.805 1268.13 248.198 1136.13 203.408 878.269C203.408 793.499 367.212 910.733 470.283 910.733C724.094 938.361 783.814 808.848 783.814 893.618C783.814 978.387 595.322 1268.13 503.875 1268.13Z" fill="#DD933C" stroke="black" stroke-width="7" stroke-linecap="round"/>
<path d="M503.875 1268.13C400.805 1268.13 248.198 1136.13 203.408 878.269C203.408 774.129 368.155 1202.36 463.334 1202.36C668.623 1229.99 783.814 808.849 783.814 893.618C783.814 978.387 595.322 1268.13 503.875 1268.13Z" fill="black" fill-opacity="0.25"/>
<ellipse cx="439.071" cy="1064.22" rx="61.3953" ry="83.9816" transform="rotate(90 439.071 1064.22)" fill="#DD933C" stroke="black" stroke-width="6" stroke-linecap="round"/>
<ellipse cx="375.619" cy="1016.64" rx="53.7209" ry="72.7841" transform="rotate(90 375.619 1016.64)" fill="#DD933C" stroke="black" stroke-width="6" stroke-linecap="round"/>
<path d="M375.233 986.206C363.416 986.206 351.966 988.861 342.844 993.716C333.721 998.571 327.495 1005.32 325.229 1012.82C322.964 1020.32 324.801 1028.09 330.426 1034.8C336.05 1041.52 345.113 1046.76 356.062 1049.64L375.233 1019.13L375.233 986.206Z" fill="black" fill-opacity="0.25"/>
<ellipse cx="636.894" cy="1053.48" rx="59.8604" ry="80.2491" transform="rotate(90 636.894 1053.48)" fill="#DD933C" stroke="black" stroke-width="6" stroke-linecap="round"/>
<ellipse cx="521.186" cy="1028.92" rx="44.5116" ry="72.7841" transform="rotate(90 521.186 1028.92)" fill="#DD933C" stroke="black" stroke-width="6" stroke-linecap="round"/>
<ellipse cx="683.551" cy="984.409" rx="55.2557" ry="78.3829" transform="rotate(90 683.551 984.409)" fill="#DD933C" stroke="black" stroke-width="6" stroke-linecap="round"/>
<path d="M683.135 1027.97C649.947 1027.97 623.042 1008.81 623.042 985.188" stroke="white" stroke-opacity="0.25" stroke-width="8" stroke-linecap="round"/>
<path d="M683.135 953.104C670.409 953.104 658.078 955.835 648.254 960.829C638.43 965.823 631.725 972.769 629.285 980.479C626.845 988.189 628.824 996.182 634.881 1003.09C640.939 1010 650.698 1015.39 662.49 1018.35L683.135 986.971L683.135 953.104Z" fill="black" fill-opacity="0.25"/>
<ellipse cx="724.09" cy="912.269" rx="47.5813" ry="55.9878" transform="rotate(90 724.09 912.269)" fill="#DD933C" stroke="black" stroke-width="6" stroke-linecap="round"/>
<path d="M723.793 949.778C700.087 949.778 680.87 933.285 680.87 912.94" stroke="white" stroke-opacity="0.25" stroke-width="8" stroke-linecap="round"/>
<path d="M723.793 885.312C714.703 885.312 705.895 887.664 698.878 891.964C691.861 896.264 687.071 902.246 685.329 908.885C683.586 915.524 684.999 922.407 689.326 928.356C693.653 934.305 700.624 938.95 709.047 941.495L723.793 914.475L723.793 885.312Z" fill="black" fill-opacity="0.25"/>
<ellipse cx="601.436" cy="989.014" rx="44.5116" ry="78.3829" transform="rotate(90 601.436 989.014)" fill="#DD933C" stroke="black" stroke-width="6" stroke-linecap="round"/>
<path d="M601.02 1024.1C567.831 1024.1 540.926 1008.67 540.926 989.642" stroke="white" stroke-opacity="0.25" stroke-width="8" stroke-linecap="round"/>
<path d="M601.02 963.796C588.294 963.796 575.963 965.996 566.139 970.018C556.315 974.041 549.609 979.637 547.17 985.848C544.73 992.058 546.708 998.497 552.766 1004.06C558.823 1009.63 568.583 1013.97 580.375 1016.35L601.02 991.077L601.02 963.796Z" fill="black" fill-opacity="0.25"/>
<ellipse cx="640.628" cy="936.828" rx="47.5814" ry="69.0516" transform="rotate(90 640.628 936.828)" fill="#DD933C" stroke="black" stroke-width="4" stroke-linecap="round"/>
<path d="M640.261 974.337C611.024 974.337 587.322 957.845 587.322 937.5" stroke="white" stroke-opacity="0.25" stroke-width="8" stroke-linecap="round"/>
<path d="M640.262 909.872C629.05 909.872 618.187 912.223 609.533 916.524C600.879 920.824 594.971 926.806 592.822 933.445C590.673 940.083 592.415 946.966 597.752 952.915C603.088 958.864 611.686 963.509 622.074 966.054L640.262 939.035L640.262 909.872Z" fill="black" fill-opacity="0.25"/>
<ellipse cx="450.269" cy="982.874" rx="44.5116" ry="72.7841" transform="rotate(90 450.269 982.874)" fill="#DD933C" stroke="black" stroke-width="6" stroke-linecap="round"/>
<path d="M449.882 1017.96C419.064 1017.96 394.081 1002.53 394.081 983.502" stroke="white" stroke-opacity="0.25" stroke-width="8" stroke-linecap="round"/>
<path d="M449.883 957.656C438.065 957.656 426.615 959.856 417.493 963.879C408.371 967.902 402.144 973.497 399.879 979.708C397.613 985.918 399.45 992.357 405.075 997.923C410.7 1003.49 419.763 1007.83 430.712 1010.21L449.883 984.938L449.883 957.656Z" fill="black" fill-opacity="0.25"/>
<ellipse cx="511.856" cy="949.107" rx="44.5116" ry="63.4528" transform="rotate(90 511.856 949.107)" fill="#DD933C" stroke="black" stroke-width="6" stroke-linecap="round"/>
<path d="M511.519 984.196C484.652 984.196 462.872 968.767 462.872 949.735" stroke="white" stroke-opacity="0.25" stroke-width="8" stroke-linecap="round"/>
<path d="M511.519 923.89C501.217 923.89 491.234 926.089 483.282 930.112C475.329 934.135 469.901 939.731 467.926 945.941C465.951 952.152 467.552 958.591 472.456 964.156C477.36 969.721 485.261 974.066 494.806 976.447L511.519 951.171L511.519 923.89Z" fill="black" fill-opacity="0.25"/>
<ellipse cx="388.682" cy="939.897" rx="44.5116" ry="63.4528" transform="rotate(90 388.682 939.897)" fill="#DD933C" stroke="black" stroke-width="6" stroke-linecap="round"/>
<path d="M388.346 974.986C361.479 974.986 339.699 959.557 339.699 940.525" stroke="white" stroke-opacity="0.25" stroke-width="8" stroke-linecap="round"/>
<path d="M388.346 914.68C378.043 914.68 368.061 916.879 360.109 920.902C352.156 924.925 346.727 930.521 344.752 936.731C342.778 942.942 344.379 949.381 349.283 954.946C354.186 960.511 362.087 964.856 371.633 967.237L388.346 941.961L388.346 914.68Z" fill="black" fill-opacity="0.25"/>
<path d="M786.124 662.433C786.124 692.533 638.835 762.522 499.503 762.522C360.171 762.522 202.742 706.511 202.742 676.411C207.754 643.711 371.194 703.369 510.526 703.369C684.845 703.369 786.124 632.334 786.124 662.433Z" fill="#090909"/>
<path d="M779.468 714.57L779.407 714.272C579.718 861.621 393.091 769.528 210.198 714.272C195.268 755.714 190.344 789.482 199.675 837.063C546.799 1010.5 743.947 889.249 786.872 866.226C797.295 802.546 786.928 751.385 779.468 714.57Z" fill="#DD933C" stroke="black" stroke-width="7" stroke-linecap="round"/>
<path d="M773.268 853.08C773.268 790.15 769.958 765.273 764.981 725.348C703.76 771.731 731.895 759.452 678.938 776.336C672.976 819.061 721.966 853.08 678.937 894.522C720.311 894.522 768.291 866.389 773.268 853.08Z" fill="black" fill-opacity="0.25"/>
<path d="M202.058 844.818C202.058 782.013 204.533 757.186 208.254 717.34C254.313 746.503 232.994 740.397 272.593 757.247C277.051 799.887 213.255 807.898 272.593 886.177C241.656 886.177 205.779 858.1 202.058 844.818Z" fill="white" fill-opacity="0.25"/>
<path fill-rule="evenodd" clip-rule="evenodd" d="M792.495 659.847C806.367 667.181 810.384 682.375 801.466 693.784C769.147 735.132 700.227 782.955 597.155 799.32C493.468 815.782 358.175 800.017 193.59 718.42C179.466 711.418 174.919 696.326 183.432 684.71C191.946 673.094 210.297 669.354 224.421 676.356C379.339 753.159 499.724 764.766 585.835 751.094C672.562 737.324 727.562 697.505 751.23 667.224C760.148 655.816 778.623 652.512 792.495 659.847Z" fill="#DD933C" stroke="black" stroke-width="7" stroke-linecap="round"/>
<path d="M796.878 672.828C810.75 680.162 810.385 682.377 801.468 693.786C769.149 735.133 700.228 782.956 597.157 799.321C493.47 815.784 358.177 800.018 193.591 718.422C179.468 711.42 178.098 698.258 186.611 686.642C492.123 878.898 736.499 755.17 796.878 672.828Z" fill="black" fill-opacity="0.25"/>
<path d="M760.066 665.153C774.996 662.084 779.241 669.394 771.059 678.127C741.405 709.78 677.343 755.463 582.772 767.991C435.338 778.735 284.171 734.223 211.387 691.246C198.428 685.886 203.861 681.342 216.985 678.967C497.302 826.146 700.346 751.107 760.066 665.153Z" fill="white" fill-opacity="0.25"/>
<path fill-rule="evenodd" clip-rule="evenodd" d="M796 864.638C809.3 870.579 812.224 881.14 802.53 888.227C767.397 913.91 695.34 941.386 591.491 945.17C487.021 948.977 353.349 928.751 195.163 861.926C181.589 856.191 178.128 845.661 187.435 838.406C196.741 831.151 215.29 829.918 228.864 835.652C377.758 898.552 496.872 914.912 583.634 911.75C671.016 908.566 728.636 885.52 754.365 866.711C764.059 859.625 782.7 858.696 796 864.638Z" fill="#DD933C" stroke="black" stroke-width="7" stroke-linecap="round"/>
<ellipse cx="634.747" cy="852.113" rx="33.616" ry="33.1924" transform="rotate(90 634.747 852.113)" fill="#DD933C" stroke="black" stroke-width="7" stroke-linecap="round"/>
<ellipse cx="634.243" cy="852.614" rx="26.09" ry="25.6487" transform="rotate(90 634.243 852.614)" fill="#DD933C" stroke="white" stroke-opacity="0.25" stroke-width="7" stroke-linecap="round"/>
<ellipse cx="634.747" cy="852.113" rx="15.5537" ry="15.0875" transform="rotate(90 634.747 852.113)" fill="#DD933C" stroke="black" stroke-width="7" stroke-linecap="round"/>
<ellipse cx="632.735" cy="854.621" rx="9.03117" ry="9.05247" transform="rotate(90 632.735 854.621)" fill="black" fill-opacity="0.25"/>
<path d="M374.693 978.27C341.874 893.918 272.221 888.404 234.947 886.294C233.8 886.229 232.865 887.153 232.817 888.301C232.2 902.968 224.895 904.743 209.344 908.996C208.855 909.129 208.368 909.373 207.965 909.679C119.308 976.931 180.639 1018.18 195.534 1019.71C238.048 1004.51 232.962 1042.01 254.62 1051.67C255.024 1051.85 255.499 1051.88 255.927 1051.76C306.142 1038.25 329.097 1060.7 330.256 1075.28C330.44 1077.61 331.93 1079.95 334.223 1080.38C419.396 1096.13 416.4 1085.47 374.693 978.27Z" fill="#DD933C" stroke="black" stroke-width="7" stroke-linecap="round"/>
<path d="M334.227 1080.38C419.184 1096.18 409.86 1087 368.154 979.804C365.457 1114.06 211.326 993.53 202.408 924.909C201.982 921.624 198.122 919.62 195.513 921.661C137.985 966.662 181.118 1018.23 195.534 1019.71C238.048 1004.51 232.962 1042 254.62 1051.67C255.024 1051.85 255.5 1051.88 255.927 1051.76C306.143 1038.25 329.097 1060.7 330.256 1075.28C330.441 1077.61 331.935 1079.95 334.227 1080.38Z" fill="black" fill-opacity="0.25"/>
<path d="M644.805 854.621C644.805 847.971 639.401 842.58 632.735 842.58" stroke="white" stroke-opacity="0.7" stroke-width="7" stroke-linecap="round"/>
<path d="M321.5 941.433C332.531 952.89 353.898 991.647 351.111 1055.01" stroke="white" stroke-opacity="0.25" stroke-width="7" stroke-linecap="round"/>
<path d="M325.283 939.353C337.102 951.12 359.995 990.925 357.009 1056" stroke="black" stroke-width="7" stroke-linecap="round"/>
<path d="M791.797 944.502C802.435 955.834 810.273 953.37 825.39 984.409" stroke="white" stroke-opacity="0.25" stroke-width="7" stroke-linecap="round"/>
<path d="M780.6 978.269C790.055 987.857 795.53 989.013 810.46 1012.04" stroke="white" stroke-opacity="0.25" stroke-width="7" stroke-linecap="round"/>
<path d="M791.797 941.433C803.617 953.2 812.326 950.642 829.122 982.874" stroke="black" stroke-width="7" stroke-linecap="round"/>
<path d="M780.6 975.2C791.797 984.409 789.931 979.805 814.192 1010.5" stroke="black" stroke-width="7" stroke-linecap="round"/>
<path d="M293.506 926.083C297.239 981.339 293.506 987.478 284.175 1024.32" stroke="white" stroke-opacity="0.25" stroke-width="7" stroke-linecap="round"/>
<path d="M299.156 927.073C302.889 982.329 299.156 988.469 289.825 1025.31" stroke="black" stroke-width="7" stroke-linecap="round"/>
<path d="M266.617 924.821C253.423 964.446 249.037 968.045 231.92 992.173" stroke="white" stroke-opacity="0.25" stroke-width="7" stroke-linecap="round"/>
<path d="M235.649 916.874C218.852 953.711 211.577 957.783 190.364 980.784" stroke="white" stroke-opacity="0.25" stroke-width="7" stroke-linecap="round"/>
<path d="M270.991 923.956C257.798 963.58 253.412 967.18 236.295 991.307" stroke="black" stroke-width="7" stroke-linecap="round"/>
<path d="M239.587 918.431C220.907 956.534 216.044 959.692 195.647 982.028" stroke="black" stroke-width="7" stroke-linecap="round"/>
</g>
<defs>
<clipPath id="clip0_269_191933">
<rect width="1000" height="1000" fill="white"/>
</clipPath>
</defs>
</svg>
