<svg width="1000" height="1000" viewBox="0 0 1000 1000" fill="none" xmlns="http://www.w3.org/2000/svg">
<g clip-path="url(#clip0_765_35754)">
<mask id="path-1-outside-1_765_35754" maskUnits="userSpaceOnUse" x="390" y="592.368" width="331" height="528" fill="black">
<rect fill="white" x="390" y="592.368" width="331" height="528"/>
<path fill-rule="evenodd" clip-rule="evenodd" d="M496.895 624.163C496.895 628.229 500.191 631.526 504.258 631.526V631.526C508.324 631.526 511.621 634.823 511.621 638.889V815.736C511.621 815.736 511.621 815.736 511.621 815.736V815.736C511.621 815.736 511.621 815.736 511.621 815.736L401.783 1044.66C386.494 1076.52 409.718 1113.42 445.059 1113.42H666.531C701.873 1113.42 725.096 1076.52 709.808 1044.66L599.97 815.737C599.97 815.737 599.97 815.736 599.971 815.736V815.736C599.971 815.736 599.971 815.736 599.971 815.736V638.887C599.971 634.822 603.267 631.526 607.332 631.526V631.526C611.398 631.526 614.694 628.23 614.694 624.165V614.368C614.694 605.532 607.53 598.368 598.694 598.368H512.895C504.058 598.368 496.895 605.532 496.895 614.368V624.163Z"/>
</mask>
<path fill-rule="evenodd" clip-rule="evenodd" d="M496.895 624.163C496.895 628.229 500.191 631.526 504.258 631.526V631.526C508.324 631.526 511.621 634.823 511.621 638.889V815.736C511.621 815.736 511.621 815.736 511.621 815.736V815.736C511.621 815.736 511.621 815.736 511.621 815.736L401.783 1044.66C386.494 1076.52 409.718 1113.42 445.059 1113.42H666.531C701.873 1113.42 725.096 1076.52 709.808 1044.66L599.97 815.737C599.97 815.737 599.97 815.736 599.971 815.736V815.736C599.971 815.736 599.971 815.736 599.971 815.736V638.887C599.971 634.822 603.267 631.526 607.332 631.526V631.526C611.398 631.526 614.694 628.23 614.694 624.165V614.368C614.694 605.532 607.53 598.368 598.694 598.368H512.895C504.058 598.368 496.895 605.532 496.895 614.368V624.163Z" fill="white" fill-opacity="0.7"/>
<path d="M401.783 1044.66L407.192 1047.25H407.192L401.783 1044.66ZM709.808 1044.66L715.217 1042.06L709.808 1044.66ZM599.97 815.737L605.38 813.141L599.97 815.737ZM511.62 815.736L517.03 818.332L511.62 815.736ZM517.621 815.736V638.889H505.621V815.736H517.621ZM407.192 1047.25L517.03 818.332L506.211 813.141L396.373 1042.06L407.192 1047.25ZM445.059 1107.42C414.135 1107.42 393.815 1075.13 407.192 1047.25L396.373 1042.06C379.174 1077.91 405.3 1119.42 445.059 1119.42V1107.42ZM666.531 1107.42H445.059V1119.42H666.531V1107.42ZM704.398 1047.25C717.776 1075.13 697.455 1107.42 666.531 1107.42V1119.42C706.291 1119.42 732.417 1077.91 715.217 1042.06L704.398 1047.25ZM594.561 818.332L704.398 1047.25L715.217 1042.06L605.38 813.141L594.561 818.332ZM593.971 638.887V815.736H605.971V638.887H593.971ZM608.694 614.368V624.165H620.694V614.368H608.694ZM512.895 604.368H598.694V592.368H512.895V604.368ZM502.895 624.163V614.368H490.895V624.163H502.895ZM605.971 638.887C605.971 638.136 606.581 637.526 607.332 637.526V625.526C599.953 625.526 593.971 631.508 593.971 638.887H605.971ZM599.971 821.736C603.091 821.736 605.971 819.24 605.971 815.736H593.971C593.971 812.232 596.851 809.736 599.971 809.736V821.736ZM605.38 813.141C607.291 817.124 604.388 821.736 599.971 821.736V809.736C595.553 809.736 592.65 814.349 594.561 818.332L605.38 813.141ZM511.621 809.736C509.478 809.736 507.279 810.915 506.211 813.141L517.03 818.332C515.962 820.557 513.763 821.736 511.621 821.736V809.736ZM512.895 592.368C500.744 592.368 490.895 602.218 490.895 614.368H502.895C502.895 608.845 507.372 604.368 512.895 604.368V592.368ZM505.621 815.736C505.621 812.422 508.307 809.736 511.621 809.736V821.736C514.935 821.736 517.621 819.05 517.621 815.736H505.621ZM620.694 614.368C620.694 602.218 610.844 592.368 598.694 592.368V604.368C604.217 604.368 608.694 608.845 608.694 614.368H620.694ZM504.258 625.526C503.505 625.526 502.895 624.916 502.895 624.163H490.895C490.895 631.543 496.877 637.526 504.258 637.526V625.526ZM607.332 637.526C614.712 637.526 620.694 631.544 620.694 624.165H608.694C608.694 624.917 608.084 625.526 607.332 625.526V637.526ZM504.258 637.526C505.011 637.526 505.621 638.136 505.621 638.889H517.621C517.621 631.509 511.638 625.526 504.258 625.526V637.526Z" fill="black" mask="url(#path-1-outside-1_765_35754)"/>
<mask id="path-3-inside-2_765_35754" fill="white">
<path fill-rule="evenodd" clip-rule="evenodd" d="M586.174 847.418C587.243 844.677 587.83 841.695 587.83 838.576C587.83 825.146 576.952 814.26 563.534 814.26C550.115 814.26 539.238 825.146 539.238 838.576C539.238 841.695 539.825 844.677 540.894 847.418H522.59C519.546 847.418 516.766 849.145 515.417 851.874L417.75 1049.56C407.242 1070.83 422.718 1095.73 446.439 1095.73H664.685C688.407 1095.73 703.882 1070.83 693.374 1049.56L595.707 851.874C594.358 849.145 591.578 847.418 588.534 847.418H586.174Z"/>
</mask>
<path fill-rule="evenodd" clip-rule="evenodd" d="M586.174 847.418C587.243 844.677 587.83 841.695 587.83 838.576C587.83 825.146 576.952 814.26 563.534 814.26C550.115 814.26 539.238 825.146 539.238 838.576C539.238 841.695 539.825 844.677 540.894 847.418H522.59C519.546 847.418 516.766 849.145 515.417 851.874L417.75 1049.56C407.242 1070.83 422.718 1095.73 446.439 1095.73H664.685C688.407 1095.73 703.882 1070.83 693.374 1049.56L595.707 851.874C594.358 849.145 591.578 847.418 588.534 847.418H586.174Z" fill="#FF8C00"/>
<path d="M586.174 847.418L582.447 845.964L580.319 851.418H586.174V847.418ZM540.894 847.418V851.418H546.749L544.62 845.964L540.894 847.418ZM515.417 851.874L519.004 853.646L515.417 851.874ZM417.75 1049.56L421.336 1051.33H421.336L417.75 1049.56ZM693.374 1049.56L689.788 1051.33L693.374 1049.56ZM595.707 851.874L599.293 850.103V850.103L595.707 851.874ZM583.83 838.576C583.83 841.19 583.339 843.679 582.447 845.964L589.9 848.872C591.148 845.676 591.83 842.201 591.83 838.576H583.83ZM563.534 818.26C574.74 818.26 583.83 827.352 583.83 838.576H591.83C591.83 822.94 579.165 810.26 563.534 810.26V818.26ZM543.238 838.576C543.238 827.352 552.328 818.26 563.534 818.26V810.26C547.903 810.26 535.238 822.94 535.238 838.576H543.238ZM544.62 845.964C543.729 843.679 543.238 841.19 543.238 838.576H535.238C535.238 842.201 535.92 845.676 537.168 848.872L544.62 845.964ZM522.59 851.418H540.894V843.418H522.59V851.418ZM519.004 853.646C519.678 852.282 521.068 851.418 522.59 851.418V843.418C518.024 843.418 513.854 846.009 511.831 850.103L519.004 853.646ZM421.336 1051.33L519.004 853.646L511.831 850.103L414.163 1047.79L421.336 1051.33ZM446.439 1091.73C425.683 1091.73 412.142 1069.94 421.336 1051.33L414.163 1047.79C402.343 1071.71 419.752 1099.73 446.439 1099.73V1091.73ZM664.685 1091.73H446.439V1099.73H664.685V1091.73ZM689.788 1051.33C698.982 1069.94 685.441 1091.73 664.685 1091.73V1099.73C691.372 1099.73 708.781 1071.71 696.961 1047.79L689.788 1051.33ZM592.121 853.646L689.788 1051.33L696.961 1047.79L599.293 850.103L592.121 853.646ZM588.534 851.418C590.056 851.418 591.446 852.282 592.121 853.646L599.293 850.103C597.27 846.009 593.1 843.418 588.534 843.418V851.418ZM586.174 851.418H588.534V843.418H586.174V851.418Z" fill="black" mask="url(#path-3-inside-2_765_35754)"/>
<path d="M514.705 880.406C516.11 877.367 519.153 875.421 522.501 875.421V875.421C528.153 875.421 532.264 880.786 530.794 886.243L490.85 1034.53C488.969 1041.51 482.635 1046.37 475.401 1046.37H463.018C451.337 1046.37 443.594 1034.26 448.494 1023.66L514.705 880.406Z" fill="white" fill-opacity="0.25"/>
<path d="M430.281 1057.89C430.281 1055.35 432.335 1053.3 434.869 1053.3H528.507C577.812 1053.3 612.53 1004.86 596.691 958.171L562.62 857.733H582.942C585.993 857.733 588.778 859.468 590.123 862.207L665.781 1016.26C681.445 1048.15 658.229 1085.42 622.696 1085.42H457.81C442.606 1085.42 430.281 1073.09 430.281 1057.89V1057.89Z" fill="black" fill-opacity="0.25"/>
<path d="M559.221 842.435C565.187 848.455 579.51 843.841 573.519 849.836C567.529 855.831 557.837 855.811 551.871 849.791C545.906 843.77 545.927 834.029 551.917 828.034C557.907 822.039 553.256 836.414 559.221 842.435Z" fill="black" fill-opacity="0.25"/>
<ellipse cx="568.678" cy="830.839" rx="6.99438" ry="6.99999" fill="white" fill-opacity="0.25"/>
<path d="M537.348 808.895C545.367 808.895 551.865 802.39 551.865 794.369C551.865 786.348 545.367 779.843 537.348 779.843C529.33 779.843 522.832 786.348 522.832 794.369C522.832 802.39 529.33 808.895 537.348 808.895Z" fill="#FF8C00" stroke="black" stroke-width="4"/>
<path d="M534.322 796.042C538.27 800.026 547.75 796.972 543.785 800.94C539.82 804.908 533.406 804.895 529.457 800.91C525.509 796.926 525.523 790.479 529.488 786.511C533.452 782.542 530.374 792.057 534.322 796.042Z" fill="black" fill-opacity="0.25"/>
<ellipse rx="3.68347" ry="3.68199" transform="matrix(-0.499696 -0.866201 0.86585 -0.500304 540.906 789.086)" fill="white" fill-opacity="0.25"/>
<path d="M570.922 765.895C576.275 765.895 580.613 761.552 580.613 756.198C580.613 750.844 576.275 746.501 570.922 746.501C565.568 746.501 561.23 750.844 561.23 756.198C561.23 761.552 565.568 765.895 570.922 765.895Z" fill="#FF8C00" stroke="black" stroke-width="4"/>
<path d="M569.337 757.551C571.597 759.267 576.129 757.065 574.424 759.334C572.719 761.603 569.505 762.051 567.245 760.335C564.984 758.62 564.535 755.389 566.24 753.12C567.945 750.851 567.077 755.836 569.337 757.551Z" fill="black" fill-opacity="0.25"/>
<ellipse rx="2.26344" ry="2.26253" transform="matrix(-0.499696 -0.866201 0.86585 -0.500304 573.105 752.951)" fill="white" fill-opacity="0.25"/>
<path d="M547.014 739.552C553.717 739.552 559.269 734.285 559.269 727.644C559.269 721.003 553.717 715.736 547.014 715.736C540.311 715.736 534.758 721.003 534.758 727.644C534.758 734.285 540.311 739.552 547.014 739.552Z" fill="#FF8C00" stroke="black" stroke-width="4"/>
<path d="M544.899 729.386C547.912 731.595 553.956 728.76 551.683 731.681C549.409 734.602 545.123 735.179 542.109 732.97C539.095 730.761 538.495 726.603 540.769 723.682C543.043 720.762 541.885 727.178 544.899 729.386Z" fill="black" fill-opacity="0.25"/>
<ellipse rx="2.93997" ry="2.99113" transform="matrix(-0.512995 -0.858392 0.873337 -0.487117 549.924 723.466)" fill="white" fill-opacity="0.25"/>
<path fill-rule="evenodd" clip-rule="evenodd" d="M512.359 618.258C509.103 618.258 506.464 615.619 506.464 612.363C506.464 609.108 509.103 606.469 512.359 606.469H597.754C601.01 606.469 603.649 609.108 603.649 612.363C603.649 615.619 601.01 618.258 597.754 618.258H512.359ZM525.609 653.988C525.609 648.905 529.729 644.785 534.812 644.785V644.785C539.894 644.785 544.015 648.905 544.015 653.988V805.055C544.015 810.138 539.894 814.258 534.812 814.258V814.258C529.729 814.258 525.609 810.138 525.609 805.055V653.988ZM531.708 814.258C537.862 814.258 542.292 820.166 540.567 826.073L470.649 1065.56C467.661 1075.8 458.22 1082.84 447.556 1082.84V1082.84C430.346 1082.84 418.618 1065.26 425.366 1049.43L523.219 819.868C524.669 816.466 528.01 814.258 531.708 814.258V814.258Z" fill="white" fill-opacity="0.25"/>
<path fill-rule="evenodd" clip-rule="evenodd" d="M585.255 624.895C585.255 624.895 585.255 624.895 585.255 624.895H594.09C594.09 624.895 594.09 624.895 594.09 624.895V624.895C594.09 624.895 594.09 624.895 594.09 624.895L611.391 624.895C613.223 624.895 614.707 626.379 614.707 628.211C614.707 630.042 613.223 631.526 611.391 631.526V631.526C601.836 631.526 594.09 639.272 594.09 648.828V820.941C594.09 821.933 594.894 822.736 595.885 822.736V822.736C596.588 822.736 597.227 823.147 597.518 823.787L696.773 1041.63C701.079 1051.08 700.383 1061.1 696.225 1069.31C695.584 1070.58 696.46 1072.16 697.879 1072.16V1072.16C705.611 1072.16 711.879 1078.43 711.879 1086.16C711.879 1093.89 705.611 1100.16 697.879 1100.16H416.656C408.924 1100.16 402.656 1093.89 402.656 1086.16C402.656 1078.43 408.924 1072.16 416.656 1072.16H612.273C627.972 1072.16 639.444 1057.33 635.505 1042.14L579.57 826.35C579.096 824.521 580.477 822.736 582.366 822.736V822.736C583.962 822.736 585.255 821.443 585.255 819.848V655.526C585.255 642.272 574.51 631.526 561.255 631.526L500.224 631.526C498.392 631.526 496.908 630.042 496.908 628.211C496.908 626.379 498.392 624.895 500.224 624.895L585.255 624.895C585.255 624.895 585.255 624.895 585.255 624.895V624.895Z" fill="black" fill-opacity="0.25"/>
<mask id="path-20-outside-3_765_35754" maskUnits="userSpaceOnUse" x="848.574" y="601.75" width="211" height="354" fill="black">
<rect fill="white" x="848.574" y="601.75" width="211" height="354"/>
<path d="M941.724 609.96C981.563 625.642 1014.32 655.333 1033.84 693.464C1053.36 731.594 1058.31 775.543 1047.75 817.065C1037.2 858.588 1011.87 894.83 976.52 918.992C941.168 943.154 898.221 953.575 855.737 948.301L862.668 892.37C891.544 895.955 920.734 888.872 944.762 872.449C968.79 856.027 986.005 831.394 993.178 803.173C1000.35 774.951 996.987 745.08 983.719 719.164C970.451 693.247 948.19 673.067 921.112 662.408L941.724 609.96Z"/>
</mask>
<path d="M941.724 609.96C981.563 625.642 1014.32 655.333 1033.84 693.464C1053.36 731.594 1058.31 775.543 1047.75 817.065C1037.2 858.588 1011.87 894.83 976.52 918.992C941.168 943.154 898.221 953.575 855.737 948.301L862.668 892.37C891.544 895.955 920.734 888.872 944.762 872.449C968.79 856.027 986.005 831.394 993.178 803.173C1000.35 774.951 996.987 745.08 983.719 719.164C970.451 693.247 948.19 673.067 921.112 662.408L941.724 609.96Z" fill="#D7D6DC"/>
<path d="M941.724 609.96C981.563 625.642 1014.32 655.333 1033.84 693.464C1053.36 731.594 1058.31 775.543 1047.75 817.065C1037.2 858.588 1011.87 894.83 976.52 918.992C941.168 943.154 898.221 953.575 855.737 948.301L862.668 892.37C891.544 895.955 920.734 888.872 944.762 872.449C968.79 856.027 986.005 831.394 993.178 803.173C1000.35 774.951 996.987 745.08 983.719 719.164C970.451 693.247 948.19 673.067 921.112 662.408L941.724 609.96Z" stroke="black" stroke-width="12" mask="url(#path-20-outside-3_765_35754)"/>
<path d="M941.724 609.96C981.563 625.642 1014.32 655.333 1033.84 693.464C1053.36 731.594 1058.31 775.543 1047.75 817.065C1037.2 858.588 1011.87 894.83 976.52 918.992C941.168 943.154 898.221 953.575 855.737 948.301L857.779 931.821C896.253 936.597 935.147 927.159 967.162 905.278C999.178 883.396 1022.12 850.575 1031.67 812.972C1041.23 775.369 1036.75 735.568 1019.07 701.036C1001.39 666.505 971.73 639.616 935.651 625.414L941.724 609.96Z" fill="white" fill-opacity="0.25"/>
<rect x="-1.31148" y="-4.03631" width="56.8266" height="16.9947" transform="matrix(0.890858 0.454282 -0.453699 0.891155 816.346 916.62)" fill="#D7D6DC" stroke="black" stroke-width="6"/>
<rect x="-1.31148" y="-4.03631" width="41.716" height="27.9895" transform="matrix(0.890858 0.454282 -0.453699 0.891155 746.701 906.563)" fill="#3C3C3C" stroke="black" stroke-width="6"/>
<rect width="12.9314" height="21.9895" transform="matrix(0.890858 0.454282 -0.453699 0.891155 768.973 916.758)" fill="black" fill-opacity="0.25"/>
<rect x="-1.31148" y="-4.03631" width="102.159" height="35.5483" transform="matrix(0.890858 0.454282 -0.453699 0.891155 735.045 864.363)" fill="#3C3C3C" stroke="black" stroke-width="6"/>
<rect width="52.0034" height="34.6244" transform="matrix(0.890858 0.454282 0.453699 -0.891155 763.797 913.055)" fill="black" fill-opacity="0.25"/>
<rect x="-1.31131" y="-4.03637" width="184.234" height="16.9947" transform="matrix(0.890839 0.454319 -0.453736 0.891136 707.654 797.453)" fill="#4E9AE9" stroke="black" stroke-width="6"/>
<rect width="178.288" height="8.19981" transform="matrix(0.890839 0.454319 -0.453736 0.891136 706.434 802.101)" fill="black" fill-opacity="0.25"/>
<rect x="-1.31148" y="-4.03631" width="74.6846" height="186.039" transform="matrix(0.890858 0.454282 -0.453699 0.891155 892.987 545.918)" fill="#D7D6DC" stroke="black" stroke-width="6"/>
<rect width="30.1141" height="185.421" transform="matrix(0.890858 0.454282 0.453699 -0.891155 847.473 724.817)" fill="black" fill-opacity="0.25"/>
<rect x="-1.31148" y="-4.03631" width="56.8266" height="54.1019" transform="matrix(0.890858 0.454282 -0.453699 0.891155 816.76 715.316)" fill="#D7D6DC" stroke="black" stroke-width="6"/>
<rect width="14.8009" height="50.2293" transform="matrix(0.890858 0.454282 0.453699 -0.891155 828.523 775.443)" fill="black" fill-opacity="0.25"/>
<rect x="-1.31148" y="-4.03631" width="56.8266" height="159.926" transform="matrix(0.890858 0.454282 -0.453699 0.891155 973.272 407.904)" fill="#D7D6DC" stroke="black" stroke-width="6"/>
<rect width="18.1466" height="129.457" transform="matrix(0.890858 0.454282 -0.453699 0.891155 995.598 446.083)" fill="black" fill-opacity="0.25"/>
<rect x="-1.31148" y="-4.03631" width="31.4133" height="30.051" transform="matrix(0.890858 0.454282 -0.453699 0.891155 802.834 769.922)" fill="#3C3C3C" stroke="black" stroke-width="6"/>
<rect width="19.0403" height="28.0838" transform="matrix(0.890858 0.454282 0.453699 -0.891155 800.664 796.66)" fill="black" fill-opacity="0.25"/>
<path d="M931.912 639.709C953.666 650.802 980.283 642.145 991.365 620.377C1002.45 598.609 993.8 571.97 972.047 560.877C950.293 549.784 923.676 558.441 912.594 580.209C901.512 601.976 910.159 628.616 931.912 639.709Z" fill="#4E9AE9" stroke="black" stroke-width="6"/>
<path d="M933.273 637.036C938.095 639.494 943.352 640.978 948.747 641.403C954.141 641.828 959.566 641.185 964.712 639.512C969.858 637.838 974.625 635.167 978.739 631.65C982.854 628.133 986.236 623.839 988.692 619.014C991.149 614.189 992.632 608.927 993.056 603.528C993.481 598.13 992.839 592.7 991.167 587.55C989.495 582.4 986.825 577.63 983.311 573.512C979.797 569.394 975.507 566.009 970.686 563.55L951.98 600.293L933.273 637.036Z" fill="black" fill-opacity="0.25"/>
<rect x="-1.31148" y="-4.03631" width="74.6846" height="48.6046" transform="matrix(0.890858 0.454282 -0.453699 0.891155 929.776 473.658)" fill="#3C3C3C" stroke="black" stroke-width="6"/>
<rect width="32.133" height="43.6743" transform="matrix(0.890858 0.454282 0.453699 -0.891155 945.73 529.114)" fill="black" fill-opacity="0.25"/>
<rect x="-1.31148" y="-4.03631" width="102.159" height="30.051" transform="matrix(0.890858 0.454282 -0.453699 0.891155 954.326 395.157)" fill="#3C3C3C" stroke="black" stroke-width="6"/>
<path d="M964.589 1016.56H968.376L967.509 1012.87L942.535 906.646C937.536 885.381 918.563 870.352 896.719 870.352C870.725 870.352 849.652 891.424 849.652 917.418V1013.56V1016.56H852.652H964.589Z" fill="#D7D6DC" stroke="black" stroke-width="6"/>
<path d="M884.242 873.352V873.352C912.004 873.352 936.118 892.453 942.471 919.478L964.59 1013.56H911.368L884.242 873.352Z" fill="black" fill-opacity="0.25"/>
<path d="M896.605 951.952C910.022 951.952 920.894 941.068 920.894 927.647C920.894 914.225 910.022 903.341 896.605 903.341C883.189 903.341 872.316 914.225 872.316 927.647C872.316 941.068 883.189 951.952 896.605 951.952Z" fill="#4E9AE9" stroke="black" stroke-width="6"/>
<path d="M917.894 927.647C917.894 930.445 917.343 933.215 916.273 935.8C915.203 938.385 913.635 940.734 911.659 942.712C909.682 944.691 907.335 946.26 904.752 947.331C902.169 948.401 899.401 948.952 896.605 948.952C893.809 948.952 891.041 948.401 888.458 947.331C885.875 946.26 883.529 944.691 881.552 942.712C879.575 940.734 878.007 938.385 876.937 935.8C875.867 933.215 875.316 930.445 875.316 927.647L896.605 927.647H917.894Z" fill="black" fill-opacity="0.25"/>
<mask id="path-46-outside-4_765_35754" maskUnits="userSpaceOnUse" x="657.285" y="592.368" width="130" height="528" fill="black">
<rect fill="white" x="657.285" y="592.368" width="130" height="528"/>
<path fill-rule="evenodd" clip-rule="evenodd" d="M678.188 638.977C678.188 634.862 674.851 631.526 670.736 631.526V631.526C666.621 631.526 663.285 628.19 663.285 624.075V614.368C663.285 605.532 670.449 598.368 679.285 598.368H765.084C773.921 598.368 781.084 605.532 781.084 614.368V624.253C781.084 628.27 777.828 631.526 773.811 631.526V631.526C769.794 631.526 766.538 634.782 766.538 638.799V1069.25C766.538 1093.64 746.76 1113.42 722.363 1113.42C697.965 1113.42 678.188 1093.64 678.188 1069.25V638.977Z"/>
</mask>
<path fill-rule="evenodd" clip-rule="evenodd" d="M678.188 638.977C678.188 634.862 674.851 631.526 670.736 631.526V631.526C666.621 631.526 663.285 628.19 663.285 624.075V614.368C663.285 605.532 670.449 598.368 679.285 598.368H765.084C773.921 598.368 781.084 605.532 781.084 614.368V624.253C781.084 628.27 777.828 631.526 773.811 631.526V631.526C769.794 631.526 766.538 634.782 766.538 638.799V1069.25C766.538 1093.64 746.76 1113.42 722.363 1113.42C697.965 1113.42 678.188 1093.64 678.188 1069.25V638.977Z" fill="white" fill-opacity="0.7"/>
<path d="M657.285 614.368V624.075H669.285V614.368H657.285ZM765.084 592.368H679.285V604.368H765.084V592.368ZM787.084 624.253V614.368H775.084V624.253H787.084ZM760.538 638.799V1069.25H772.538V638.799H760.538ZM760.538 1069.25C760.538 1090.33 743.446 1107.42 722.363 1107.42V1119.42C750.073 1119.42 772.538 1096.96 772.538 1069.25H760.538ZM722.363 1107.42C701.279 1107.42 684.188 1090.33 684.188 1069.25H672.188C672.188 1096.96 694.652 1119.42 722.363 1119.42V1107.42ZM684.188 1069.25V638.977H672.188V1069.25H684.188ZM773.811 625.526C766.48 625.526 760.538 631.469 760.538 638.799H772.538C772.538 638.096 773.108 637.526 773.811 637.526V625.526ZM775.084 624.253C775.084 624.956 774.514 625.526 773.811 625.526V637.526C781.142 637.526 787.084 631.583 787.084 624.253H775.084ZM765.084 604.368C770.607 604.368 775.084 608.845 775.084 614.368H787.084C787.084 602.218 777.235 592.368 765.084 592.368V604.368ZM669.285 614.368C669.285 608.845 673.762 604.368 679.285 604.368V592.368C667.135 592.368 657.285 602.218 657.285 614.368H669.285ZM670.736 637.526C671.538 637.526 672.188 638.176 672.188 638.977H684.188C684.188 631.548 678.165 625.526 670.736 625.526V637.526ZM670.736 625.526C669.935 625.526 669.285 624.876 669.285 624.075H657.285C657.285 631.504 663.307 637.526 670.736 637.526V625.526Z" fill="black" mask="url(#path-46-outside-4_765_35754)"/>
<mask id="path-48-inside-5_765_35754" fill="white">
<path fill-rule="evenodd" clip-rule="evenodd" d="M735.336 847.422C735.993 845.329 736.347 843.101 736.347 840.791C736.347 828.582 726.458 818.686 714.259 818.686C702.061 818.686 692.172 828.582 692.172 840.791C692.172 843.101 692.526 845.329 693.183 847.422H692.074C687.656 847.422 684.074 851.004 684.074 855.422L684.075 1068.14C684.075 1089.08 701.051 1106.05 721.992 1106.05C742.932 1106.05 759.908 1089.08 759.908 1068.14V855.422C759.908 851.004 756.326 847.422 751.908 847.422H735.336Z"/>
</mask>
<path fill-rule="evenodd" clip-rule="evenodd" d="M735.336 847.422C735.993 845.329 736.347 843.101 736.347 840.791C736.347 828.582 726.458 818.686 714.259 818.686C702.061 818.686 692.172 828.582 692.172 840.791C692.172 843.101 692.526 845.329 693.183 847.422H692.074C687.656 847.422 684.074 851.004 684.074 855.422L684.075 1068.14C684.075 1089.08 701.051 1106.05 721.992 1106.05C742.932 1106.05 759.908 1089.08 759.908 1068.14V855.422C759.908 851.004 756.326 847.422 751.908 847.422H735.336Z" fill="#F72087"/>
<path d="M735.336 847.422L731.519 846.224L729.888 851.422H735.336V847.422ZM693.183 847.422V851.422H698.63L696.999 846.224L693.183 847.422ZM684.074 855.422L680.074 855.422L684.074 855.422ZM684.075 1068.14L680.075 1068.14L684.075 1068.14ZM732.347 840.791C732.347 842.69 732.056 844.514 731.519 846.224L739.152 848.62C739.929 846.143 740.347 843.512 740.347 840.791H732.347ZM714.259 822.686C724.246 822.686 732.347 830.789 732.347 840.791H740.347C740.347 826.376 728.67 814.686 714.259 814.686V822.686ZM696.172 840.791C696.172 830.789 704.273 822.686 714.259 822.686V814.686C699.849 814.686 688.172 826.376 688.172 840.791H696.172ZM696.999 846.224C696.463 844.514 696.172 842.69 696.172 840.791H688.172C688.172 843.512 688.589 846.143 689.366 848.62L696.999 846.224ZM692.074 851.422H693.183V843.422H692.074V851.422ZM688.074 855.422C688.074 853.213 689.865 851.422 692.074 851.422V843.422C685.447 843.422 680.074 848.794 680.074 855.422L688.074 855.422ZM688.075 1068.14L688.074 855.422L680.074 855.422L680.075 1068.14L688.075 1068.14ZM721.991 1102.05C703.26 1102.05 688.075 1086.87 688.075 1068.14L680.075 1068.14C680.075 1091.29 698.842 1110.05 721.991 1110.05V1102.05ZM755.908 1068.14C755.908 1086.87 740.723 1102.05 721.991 1102.05V1110.05C745.141 1110.05 763.908 1091.29 763.908 1068.14H755.908ZM755.908 855.422V1068.14H763.908V855.422H755.908ZM751.908 851.422C754.117 851.422 755.908 853.213 755.908 855.422H763.908C763.908 848.794 758.535 843.422 751.908 843.422V851.422ZM735.336 851.422H751.908V843.422H735.336V851.422Z" fill="black" mask="url(#path-48-inside-5_765_35754)"/>
<path d="M710.336 844.297C715.759 849.769 728.778 845.575 723.333 851.025C717.887 856.475 709.077 856.456 703.654 850.983C698.232 845.511 698.25 836.656 703.696 831.206C709.141 825.756 704.913 838.824 710.336 844.297Z" fill="black" fill-opacity="0.25"/>
<ellipse cx="719.047" cy="833.79" rx="6.25813" ry="6.26315" fill="white" fill-opacity="0.25"/>
<path d="M735.192 819.211C743.211 819.211 749.708 812.706 749.708 804.685C749.708 796.663 743.211 790.158 735.192 790.158C727.173 790.158 720.676 796.663 720.676 804.685C720.676 812.706 727.173 819.211 735.192 819.211Z" fill="#F72087" stroke="black" stroke-width="4"/>
<path d="M732.166 806.357C736.114 810.342 745.594 807.288 741.629 811.256C737.664 815.224 731.249 815.21 727.301 811.226C723.353 807.241 723.366 800.794 727.331 796.826C731.296 792.858 728.218 802.372 732.166 806.357Z" fill="black" fill-opacity="0.25"/>
<ellipse rx="3.68347" ry="3.68199" transform="matrix(-0.499696 -0.866201 0.86585 -0.500304 738.75 799.402)" fill="white" fill-opacity="0.25"/>
<path d="M718.347 779.343C723.701 779.343 728.038 775 728.038 769.645C728.038 764.291 723.701 759.948 718.347 759.948C712.994 759.948 708.656 764.291 708.656 769.645C708.656 775 712.994 779.343 718.347 779.343Z" fill="#F72087" stroke="black" stroke-width="4"/>
<path d="M716.762 770.999C719.022 772.715 723.555 770.512 721.85 772.781C720.145 775.05 716.93 775.499 714.67 773.783C712.41 772.067 711.96 768.836 713.665 766.567C715.37 764.298 714.502 769.283 716.762 770.999Z" fill="black" fill-opacity="0.25"/>
<ellipse rx="2.26344" ry="2.26253" transform="matrix(-0.499696 -0.866201 0.86585 -0.500304 720.531 766.399)" fill="white" fill-opacity="0.25"/>
<path fill-rule="evenodd" clip-rule="evenodd" d="M679.488 618.258C676.233 618.258 673.594 615.619 673.594 612.363C673.594 609.108 676.233 606.469 679.488 606.469H764.884C768.14 606.469 770.779 609.108 770.779 612.363C770.779 615.619 768.14 618.258 764.884 618.258H679.488ZM710.582 653.988C710.582 648.905 706.462 644.785 701.379 644.785V644.785C696.296 644.785 692.176 648.905 692.176 653.988V1043.79C692.176 1048.87 696.296 1052.99 701.379 1052.99V1052.99C706.462 1052.99 710.582 1048.87 710.582 1043.79V653.988Z" fill="white" fill-opacity="0.25"/>
<path fill-rule="evenodd" clip-rule="evenodd" d="M756.227 624.895C756.227 624.895 756.227 624.895 756.226 624.895H747.392C747.392 624.895 747.392 624.895 747.392 624.895V624.895C747.392 624.895 747.391 624.895 747.391 624.895L666.61 624.895C664.779 624.895 663.295 626.379 663.295 628.211C663.295 630.042 664.779 631.526 666.61 631.526L723.392 631.526C736.646 631.526 747.392 642.272 747.392 655.526V1048.89C747.392 1062.15 736.646 1072.89 723.392 1072.89H695.419C690.78 1072.89 687.019 1076.65 687.019 1081.29C687.019 1094.97 698.104 1106.05 711.777 1106.05H732.941C746.615 1106.05 757.699 1094.97 757.699 1081.29C757.699 1079.17 756.909 1077.23 755.607 1075.75C755.396 1075.51 755.558 1075.1 755.877 1075.1V1075.1C756.07 1075.1 756.227 1074.95 756.227 1074.75V653.078C756.227 641.175 765.875 631.526 777.778 631.526V631.526C779.609 631.526 781.094 630.042 781.094 628.211C781.094 626.379 779.609 624.895 777.778 624.895L756.227 624.895C756.227 624.895 756.227 624.895 756.227 624.895V624.895Z" fill="black" fill-opacity="0.25"/>
</g>
<defs>
<clipPath id="clip0_765_35754">
<rect width="1000" height="1000" fill="white"/>
</clipPath>
</defs>
</svg>
