<svg width="1000" height="1000" viewBox="0 0 1000 1000" fill="none" xmlns="http://www.w3.org/2000/svg">
<g filter="url(#filter0_d_692_63652)">
<circle cx="611" cy="472" r="38" fill="#4B70C5" stroke="black" stroke-width="4"/>
<path d="M612.306 502.367C629.512 502.367 643.461 488.419 643.461 471.214C643.461 462.951 640.243 455.439 634.993 449.863C632.045 446.732 627.775 449.879 628.233 454.155C630.848 478.556 616.699 488.734 603.108 492.002C598.663 493.07 596.765 498.606 601.026 500.262C604.524 501.621 608.328 502.367 612.306 502.367Z" fill="black" fill-opacity="0.5"/>
<path d="M604.225 441.215C590.27 441.215 578.958 453.085 578.958 467.727C578.958 469.029 579.047 470.308 579.22 471.559C580.286 479.285 585.89 475.355 585.97 467.556C586.09 455.784 593.737 450.036 602.368 447.956C606.852 446.876 608.837 441.215 604.225 441.215Z" fill="black" fill-opacity="0.25"/>
<ellipse cx="620.498" cy="442.741" rx="8.77497" ry="3.77654" transform="rotate(19.9557 620.498 442.741)" fill="#090909"/>
</g>
<g filter="url(#filter1_d_692_63652)">
<circle cx="707" cy="534" r="38" fill="#4B70C5" stroke="black" stroke-width="4"/>
<path d="M708.306 564.367C725.512 564.367 739.461 550.419 739.461 533.214C739.461 524.951 736.243 517.439 730.993 511.863C728.045 508.732 723.775 511.879 724.233 516.155C726.848 540.556 712.699 550.734 699.108 554.002C694.663 555.07 692.765 560.606 697.026 562.262C700.524 563.621 704.328 564.367 708.306 564.367Z" fill="black" fill-opacity="0.5"/>
<path d="M700.225 503.215C686.27 503.215 674.958 515.085 674.958 529.727C674.958 531.029 675.047 532.308 675.22 533.559C676.286 541.285 681.89 537.355 681.97 529.556C682.09 517.784 689.737 512.036 698.368 509.956C702.852 508.876 704.837 503.215 700.225 503.215Z" fill="black" fill-opacity="0.25"/>
<ellipse cx="716.498" cy="504.741" rx="8.77497" ry="3.77654" transform="rotate(19.9557 716.498 504.741)" fill="#090909"/>
</g>
<g filter="url(#filter2_d_692_63652)">
<circle cx="368" cy="677" r="38" fill="#4B70C5" stroke="black" stroke-width="4"/>
<path d="M369.306 707.367C386.512 707.367 400.461 693.419 400.461 676.214C400.461 667.951 397.243 660.439 391.993 654.863C389.045 651.732 384.775 654.879 385.233 659.155C387.848 683.556 373.699 693.734 360.108 697.002C355.663 698.07 353.765 703.606 358.026 705.262C361.524 706.621 365.328 707.367 369.306 707.367Z" fill="black" fill-opacity="0.5"/>
<path d="M361.225 646.215C347.27 646.215 335.958 658.085 335.958 672.727C335.958 674.029 336.047 675.308 336.22 676.559C337.286 684.285 342.89 680.355 342.97 672.556C343.09 660.784 350.737 655.036 359.368 652.956C363.852 651.876 365.837 646.215 361.225 646.215Z" fill="black" fill-opacity="0.25"/>
<ellipse cx="377.498" cy="647.741" rx="8.77497" ry="3.77654" transform="rotate(19.9557 377.498 647.741)" fill="#090909"/>
</g>
<g filter="url(#filter3_d_692_63652)">
<circle cx="459" cy="747" r="38" fill="#4B70C5" stroke="black" stroke-width="4"/>
<path d="M460.306 777.367C477.512 777.367 491.461 763.419 491.461 746.214C491.461 737.951 488.243 730.439 482.993 724.863C480.045 721.732 475.775 724.879 476.233 729.155C478.848 753.556 464.699 763.734 451.108 767.002C446.663 768.07 444.765 773.606 449.026 775.262C452.524 776.621 456.328 777.367 460.306 777.367Z" fill="black" fill-opacity="0.5"/>
<path d="M452.225 716.215C438.27 716.215 426.958 728.085 426.958 742.727C426.958 744.029 427.047 745.308 427.22 746.559C428.286 754.285 433.89 750.355 433.97 742.556C434.09 730.784 441.737 725.036 450.368 722.956C454.852 721.876 456.837 716.215 452.225 716.215Z" fill="black" fill-opacity="0.25"/>
<ellipse cx="468.498" cy="717.741" rx="8.77497" ry="3.77654" transform="rotate(19.9557 468.498 717.741)" fill="#090909"/>
</g>
<g filter="url(#filter4_d_692_63652)">
<circle cx="530" cy="663" r="38" fill="#4B70C5" stroke="black" stroke-width="4"/>
<path d="M531.306 693.367C548.512 693.367 562.461 679.419 562.461 662.214C562.461 653.951 559.243 646.439 553.993 640.863C551.045 637.732 546.775 640.879 547.233 645.155C549.848 669.556 535.699 679.734 522.108 683.002C517.663 684.07 515.765 689.606 520.026 691.262C523.524 692.621 527.328 693.367 531.306 693.367Z" fill="black" fill-opacity="0.5"/>
<path d="M523.225 632.215C509.27 632.215 497.958 644.085 497.958 658.727C497.958 660.029 498.047 661.308 498.22 662.559C499.286 670.285 504.89 666.355 504.97 658.556C505.09 646.784 512.737 641.036 521.368 638.956C525.852 637.876 527.837 632.215 523.225 632.215Z" fill="black" fill-opacity="0.25"/>
<ellipse cx="539.498" cy="633.741" rx="8.77497" ry="3.77654" transform="rotate(19.9557 539.498 633.741)" fill="#090909"/>
</g>
<g filter="url(#filter5_d_692_63652)">
<circle cx="795" cy="504" r="38" fill="#4B70C5" stroke="black" stroke-width="4"/>
<path d="M796.306 534.367C813.512 534.367 827.461 520.419 827.461 503.214C827.461 494.951 824.243 487.439 818.993 481.863C816.045 478.732 811.775 481.879 812.233 486.155C814.848 510.556 800.699 520.734 787.108 524.002C782.663 525.07 780.765 530.606 785.026 532.262C788.524 533.621 792.328 534.367 796.306 534.367Z" fill="black" fill-opacity="0.5"/>
<path d="M788.225 473.215C774.27 473.215 762.958 485.085 762.958 499.727C762.958 501.029 763.047 502.308 763.22 503.559C764.286 511.285 769.89 507.355 769.97 499.556C770.09 487.784 777.737 482.036 786.368 479.956C790.852 478.876 792.837 473.215 788.225 473.215Z" fill="black" fill-opacity="0.25"/>
<ellipse cx="804.498" cy="474.741" rx="8.77497" ry="3.77654" transform="rotate(19.9557 804.498 474.741)" fill="#090909"/>
</g>
<g filter="url(#filter6_d_692_63652)">
<circle cx="729" cy="642" r="38" fill="#4B70C5" stroke="black" stroke-width="4"/>
<path d="M730.306 672.367C747.512 672.367 761.461 658.419 761.461 641.214C761.461 632.951 758.243 625.439 752.993 619.863C750.045 616.732 745.775 619.879 746.233 624.155C748.848 648.556 734.699 658.734 721.108 662.002C716.663 663.07 714.765 668.606 719.026 670.262C722.524 671.621 726.328 672.367 730.306 672.367Z" fill="black" fill-opacity="0.5"/>
<path d="M722.225 611.215C708.27 611.215 696.958 623.085 696.958 637.727C696.958 639.029 697.047 640.308 697.22 641.559C698.286 649.285 703.89 645.355 703.97 637.556C704.09 625.784 711.737 620.036 720.368 617.956C724.852 616.876 726.837 611.215 722.225 611.215Z" fill="black" fill-opacity="0.25"/>
<ellipse cx="738.498" cy="612.741" rx="8.77497" ry="3.77654" transform="rotate(19.9557 738.498 612.741)" fill="#090909"/>
</g>
<g filter="url(#filter7_d_692_63652)">
<circle cx="642" cy="724" r="38" fill="#4B70C5" stroke="black" stroke-width="4"/>
<path d="M643.306 754.367C660.512 754.367 674.461 740.419 674.461 723.214C674.461 714.951 671.243 707.439 665.993 701.863C663.045 698.732 658.775 701.879 659.233 706.155C661.848 730.556 647.699 740.734 634.108 744.002C629.663 745.07 627.765 750.606 632.026 752.262C635.524 753.621 639.328 754.367 643.306 754.367Z" fill="black" fill-opacity="0.5"/>
<path d="M635.225 693.215C621.27 693.215 609.958 705.085 609.958 719.727C609.958 721.029 610.047 722.308 610.22 723.559C611.286 731.285 616.89 727.355 616.97 719.556C617.09 707.784 624.737 702.036 633.368 699.956C637.852 698.876 639.837 693.215 635.225 693.215Z" fill="black" fill-opacity="0.25"/>
<ellipse cx="651.498" cy="694.741" rx="8.77497" ry="3.77654" transform="rotate(19.9557 651.498 694.741)" fill="#090909"/>
</g>
<g filter="url(#filter8_d_692_63652)">
<circle cx="555" cy="387" r="38" fill="#4B70C5" stroke="black" stroke-width="4"/>
<path d="M556.306 417.367C573.512 417.367 587.461 403.419 587.461 386.214C587.461 377.951 584.243 370.439 578.993 364.863C576.045 361.732 571.775 364.879 572.233 369.155C574.848 393.556 560.699 403.734 547.108 407.002C542.663 408.07 540.765 413.606 545.026 415.262C548.524 416.621 552.328 417.367 556.306 417.367Z" fill="black" fill-opacity="0.5"/>
<path d="M548.225 356.215C534.27 356.215 522.958 368.085 522.958 382.727C522.958 384.029 523.047 385.308 523.22 386.559C524.286 394.285 529.89 390.355 529.97 382.556C530.09 370.784 537.737 365.036 546.368 362.956C550.852 361.876 552.837 356.215 548.225 356.215Z" fill="black" fill-opacity="0.25"/>
<ellipse cx="564.498" cy="357.741" rx="8.77497" ry="3.77654" transform="rotate(19.9557 564.498 357.741)" fill="#090909"/>
</g>
<g filter="url(#filter9_d_692_63652)">
<circle cx="570" cy="565" r="38" fill="#4B70C5" stroke="black" stroke-width="4"/>
<path d="M571.306 595.367C588.512 595.367 602.461 581.419 602.461 564.214C602.461 555.951 599.243 548.439 593.993 542.863C591.045 539.732 586.775 542.879 587.233 547.155C589.848 571.556 575.699 581.734 562.108 585.002C557.663 586.07 555.765 591.606 560.026 593.262C563.524 594.621 567.328 595.367 571.306 595.367Z" fill="black" fill-opacity="0.5"/>
<path d="M563.225 534.215C549.27 534.215 537.958 546.085 537.958 560.727C537.958 562.029 538.047 563.308 538.22 564.559C539.286 572.285 544.89 568.355 544.97 560.556C545.09 548.784 552.737 543.036 561.368 540.956C565.852 539.876 567.837 534.215 563.225 534.215Z" fill="black" fill-opacity="0.25"/>
<ellipse cx="579.498" cy="535.741" rx="8.77497" ry="3.77654" transform="rotate(19.9557 579.498 535.741)" fill="#090909"/>
</g>
<g filter="url(#filter10_d_692_63652)">
<circle cx="242" cy="538" r="38" fill="#4B70C5" stroke="black" stroke-width="4"/>
<path d="M243.306 568.367C260.512 568.367 274.461 554.419 274.461 537.214C274.461 528.951 271.243 521.439 265.993 515.863C263.045 512.732 258.775 515.879 259.233 520.155C261.848 544.556 247.699 554.734 234.108 558.002C229.663 559.07 227.765 564.606 232.026 566.262C235.524 567.621 239.328 568.367 243.306 568.367Z" fill="black" fill-opacity="0.5"/>
<path d="M235.225 507.215C221.27 507.215 209.958 519.085 209.958 533.727C209.958 535.029 210.047 536.308 210.22 537.559C211.286 545.285 216.89 541.355 216.97 533.556C217.09 521.784 224.737 516.036 233.368 513.956C237.852 512.876 239.837 507.215 235.225 507.215Z" fill="black" fill-opacity="0.25"/>
<ellipse cx="251.498" cy="508.741" rx="8.77497" ry="3.77654" transform="rotate(19.9557 251.498 508.741)" fill="#090909"/>
</g>
<g filter="url(#filter11_d_692_63652)">
<circle cx="284" cy="652" r="38" fill="#4B70C5" stroke="black" stroke-width="4"/>
<path d="M285.306 682.367C302.512 682.367 316.461 668.419 316.461 651.214C316.461 642.951 313.243 635.439 307.993 629.863C305.045 626.732 300.775 629.879 301.233 634.155C303.848 658.556 289.699 668.734 276.108 672.002C271.663 673.07 269.765 678.606 274.026 680.262C277.524 681.621 281.328 682.367 285.306 682.367Z" fill="black" fill-opacity="0.5"/>
<path d="M277.225 621.215C263.27 621.215 251.958 633.085 251.958 647.727C251.958 649.029 252.047 650.308 252.22 651.559C253.286 659.285 258.89 655.355 258.97 647.556C259.09 635.784 266.737 630.036 275.368 627.956C279.852 626.876 281.837 621.215 277.225 621.215Z" fill="black" fill-opacity="0.25"/>
<ellipse cx="293.498" cy="622.741" rx="8.77497" ry="3.77654" transform="rotate(19.9557 293.498 622.741)" fill="#090909"/>
</g>
<defs>
<filter id="filter0_d_692_63652" x="566" y="432" width="88" height="91" filterUnits="userSpaceOnUse" color-interpolation-filters="sRGB">
<feFlood flood-opacity="0" result="BackgroundImageFix"/>
<feColorMatrix in="SourceAlpha" type="matrix" values="0 0 0 0 0 0 0 0 0 0 0 0 0 0 0 0 0 0 127 0" result="hardAlpha"/>
<feOffset dx="-1" dy="7"/>
<feGaussianBlur stdDeviation="2"/>
<feComposite in2="hardAlpha" operator="out"/>
<feColorMatrix type="matrix" values="0 0 0 0 0 0 0 0 0 0 0 0 0 0 0 0 0 0 0.25 0"/>
<feBlend mode="normal" in2="BackgroundImageFix" result="effect1_dropShadow_692_63652"/>
<feBlend mode="normal" in="SourceGraphic" in2="effect1_dropShadow_692_63652" result="shape"/>
</filter>
<filter id="filter1_d_692_63652" x="662" y="494" width="88" height="91" filterUnits="userSpaceOnUse" color-interpolation-filters="sRGB">
<feFlood flood-opacity="0" result="BackgroundImageFix"/>
<feColorMatrix in="SourceAlpha" type="matrix" values="0 0 0 0 0 0 0 0 0 0 0 0 0 0 0 0 0 0 127 0" result="hardAlpha"/>
<feOffset dx="-1" dy="7"/>
<feGaussianBlur stdDeviation="2"/>
<feComposite in2="hardAlpha" operator="out"/>
<feColorMatrix type="matrix" values="0 0 0 0 0 0 0 0 0 0 0 0 0 0 0 0 0 0 0.25 0"/>
<feBlend mode="normal" in2="BackgroundImageFix" result="effect1_dropShadow_692_63652"/>
<feBlend mode="normal" in="SourceGraphic" in2="effect1_dropShadow_692_63652" result="shape"/>
</filter>
<filter id="filter2_d_692_63652" x="323" y="637" width="88" height="91" filterUnits="userSpaceOnUse" color-interpolation-filters="sRGB">
<feFlood flood-opacity="0" result="BackgroundImageFix"/>
<feColorMatrix in="SourceAlpha" type="matrix" values="0 0 0 0 0 0 0 0 0 0 0 0 0 0 0 0 0 0 127 0" result="hardAlpha"/>
<feOffset dx="-1" dy="7"/>
<feGaussianBlur stdDeviation="2"/>
<feComposite in2="hardAlpha" operator="out"/>
<feColorMatrix type="matrix" values="0 0 0 0 0 0 0 0 0 0 0 0 0 0 0 0 0 0 0.25 0"/>
<feBlend mode="normal" in2="BackgroundImageFix" result="effect1_dropShadow_692_63652"/>
<feBlend mode="normal" in="SourceGraphic" in2="effect1_dropShadow_692_63652" result="shape"/>
</filter>
<filter id="filter3_d_692_63652" x="414" y="707" width="88" height="91" filterUnits="userSpaceOnUse" color-interpolation-filters="sRGB">
<feFlood flood-opacity="0" result="BackgroundImageFix"/>
<feColorMatrix in="SourceAlpha" type="matrix" values="0 0 0 0 0 0 0 0 0 0 0 0 0 0 0 0 0 0 127 0" result="hardAlpha"/>
<feOffset dx="-1" dy="7"/>
<feGaussianBlur stdDeviation="2"/>
<feComposite in2="hardAlpha" operator="out"/>
<feColorMatrix type="matrix" values="0 0 0 0 0 0 0 0 0 0 0 0 0 0 0 0 0 0 0.25 0"/>
<feBlend mode="normal" in2="BackgroundImageFix" result="effect1_dropShadow_692_63652"/>
<feBlend mode="normal" in="SourceGraphic" in2="effect1_dropShadow_692_63652" result="shape"/>
</filter>
<filter id="filter4_d_692_63652" x="485" y="623" width="88" height="91" filterUnits="userSpaceOnUse" color-interpolation-filters="sRGB">
<feFlood flood-opacity="0" result="BackgroundImageFix"/>
<feColorMatrix in="SourceAlpha" type="matrix" values="0 0 0 0 0 0 0 0 0 0 0 0 0 0 0 0 0 0 127 0" result="hardAlpha"/>
<feOffset dx="-1" dy="7"/>
<feGaussianBlur stdDeviation="2"/>
<feComposite in2="hardAlpha" operator="out"/>
<feColorMatrix type="matrix" values="0 0 0 0 0 0 0 0 0 0 0 0 0 0 0 0 0 0 0.25 0"/>
<feBlend mode="normal" in2="BackgroundImageFix" result="effect1_dropShadow_692_63652"/>
<feBlend mode="normal" in="SourceGraphic" in2="effect1_dropShadow_692_63652" result="shape"/>
</filter>
<filter id="filter5_d_692_63652" x="750" y="464" width="88" height="91" filterUnits="userSpaceOnUse" color-interpolation-filters="sRGB">
<feFlood flood-opacity="0" result="BackgroundImageFix"/>
<feColorMatrix in="SourceAlpha" type="matrix" values="0 0 0 0 0 0 0 0 0 0 0 0 0 0 0 0 0 0 127 0" result="hardAlpha"/>
<feOffset dx="-1" dy="7"/>
<feGaussianBlur stdDeviation="2"/>
<feComposite in2="hardAlpha" operator="out"/>
<feColorMatrix type="matrix" values="0 0 0 0 0 0 0 0 0 0 0 0 0 0 0 0 0 0 0.25 0"/>
<feBlend mode="normal" in2="BackgroundImageFix" result="effect1_dropShadow_692_63652"/>
<feBlend mode="normal" in="SourceGraphic" in2="effect1_dropShadow_692_63652" result="shape"/>
</filter>
<filter id="filter6_d_692_63652" x="684" y="602" width="88" height="91" filterUnits="userSpaceOnUse" color-interpolation-filters="sRGB">
<feFlood flood-opacity="0" result="BackgroundImageFix"/>
<feColorMatrix in="SourceAlpha" type="matrix" values="0 0 0 0 0 0 0 0 0 0 0 0 0 0 0 0 0 0 127 0" result="hardAlpha"/>
<feOffset dx="-1" dy="7"/>
<feGaussianBlur stdDeviation="2"/>
<feComposite in2="hardAlpha" operator="out"/>
<feColorMatrix type="matrix" values="0 0 0 0 0 0 0 0 0 0 0 0 0 0 0 0 0 0 0.25 0"/>
<feBlend mode="normal" in2="BackgroundImageFix" result="effect1_dropShadow_692_63652"/>
<feBlend mode="normal" in="SourceGraphic" in2="effect1_dropShadow_692_63652" result="shape"/>
</filter>
<filter id="filter7_d_692_63652" x="597" y="684" width="88" height="91" filterUnits="userSpaceOnUse" color-interpolation-filters="sRGB">
<feFlood flood-opacity="0" result="BackgroundImageFix"/>
<feColorMatrix in="SourceAlpha" type="matrix" values="0 0 0 0 0 0 0 0 0 0 0 0 0 0 0 0 0 0 127 0" result="hardAlpha"/>
<feOffset dx="-1" dy="7"/>
<feGaussianBlur stdDeviation="2"/>
<feComposite in2="hardAlpha" operator="out"/>
<feColorMatrix type="matrix" values="0 0 0 0 0 0 0 0 0 0 0 0 0 0 0 0 0 0 0.25 0"/>
<feBlend mode="normal" in2="BackgroundImageFix" result="effect1_dropShadow_692_63652"/>
<feBlend mode="normal" in="SourceGraphic" in2="effect1_dropShadow_692_63652" result="shape"/>
</filter>
<filter id="filter8_d_692_63652" x="510" y="347" width="88" height="91" filterUnits="userSpaceOnUse" color-interpolation-filters="sRGB">
<feFlood flood-opacity="0" result="BackgroundImageFix"/>
<feColorMatrix in="SourceAlpha" type="matrix" values="0 0 0 0 0 0 0 0 0 0 0 0 0 0 0 0 0 0 127 0" result="hardAlpha"/>
<feOffset dx="-1" dy="7"/>
<feGaussianBlur stdDeviation="2"/>
<feComposite in2="hardAlpha" operator="out"/>
<feColorMatrix type="matrix" values="0 0 0 0 0 0 0 0 0 0 0 0 0 0 0 0 0 0 0.25 0"/>
<feBlend mode="normal" in2="BackgroundImageFix" result="effect1_dropShadow_692_63652"/>
<feBlend mode="normal" in="SourceGraphic" in2="effect1_dropShadow_692_63652" result="shape"/>
</filter>
<filter id="filter9_d_692_63652" x="525" y="525" width="88" height="91" filterUnits="userSpaceOnUse" color-interpolation-filters="sRGB">
<feFlood flood-opacity="0" result="BackgroundImageFix"/>
<feColorMatrix in="SourceAlpha" type="matrix" values="0 0 0 0 0 0 0 0 0 0 0 0 0 0 0 0 0 0 127 0" result="hardAlpha"/>
<feOffset dx="-1" dy="7"/>
<feGaussianBlur stdDeviation="2"/>
<feComposite in2="hardAlpha" operator="out"/>
<feColorMatrix type="matrix" values="0 0 0 0 0 0 0 0 0 0 0 0 0 0 0 0 0 0 0.25 0"/>
<feBlend mode="normal" in2="BackgroundImageFix" result="effect1_dropShadow_692_63652"/>
<feBlend mode="normal" in="SourceGraphic" in2="effect1_dropShadow_692_63652" result="shape"/>
</filter>
<filter id="filter10_d_692_63652" x="197" y="498" width="88" height="91" filterUnits="userSpaceOnUse" color-interpolation-filters="sRGB">
<feFlood flood-opacity="0" result="BackgroundImageFix"/>
<feColorMatrix in="SourceAlpha" type="matrix" values="0 0 0 0 0 0 0 0 0 0 0 0 0 0 0 0 0 0 127 0" result="hardAlpha"/>
<feOffset dx="-1" dy="7"/>
<feGaussianBlur stdDeviation="2"/>
<feComposite in2="hardAlpha" operator="out"/>
<feColorMatrix type="matrix" values="0 0 0 0 0 0 0 0 0 0 0 0 0 0 0 0 0 0 0.25 0"/>
<feBlend mode="normal" in2="BackgroundImageFix" result="effect1_dropShadow_692_63652"/>
<feBlend mode="normal" in="SourceGraphic" in2="effect1_dropShadow_692_63652" result="shape"/>
</filter>
<filter id="filter11_d_692_63652" x="239" y="612" width="88" height="91" filterUnits="userSpaceOnUse" color-interpolation-filters="sRGB">
<feFlood flood-opacity="0" result="BackgroundImageFix"/>
<feColorMatrix in="SourceAlpha" type="matrix" values="0 0 0 0 0 0 0 0 0 0 0 0 0 0 0 0 0 0 127 0" result="hardAlpha"/>
<feOffset dx="-1" dy="7"/>
<feGaussianBlur stdDeviation="2"/>
<feComposite in2="hardAlpha" operator="out"/>
<feColorMatrix type="matrix" values="0 0 0 0 0 0 0 0 0 0 0 0 0 0 0 0 0 0 0.25 0"/>
<feBlend mode="normal" in2="BackgroundImageFix" result="effect1_dropShadow_692_63652"/>
<feBlend mode="normal" in="SourceGraphic" in2="effect1_dropShadow_692_63652" result="shape"/>
</filter>
</defs>
</svg>
