<svg width="1000" height="1000" viewBox="0 0 1000 1000" fill="none" xmlns="http://www.w3.org/2000/svg">
<mask id="mask0_697_35125" style="mask-type:alpha" maskUnits="userSpaceOnUse" x="223" y="132" width="295" height="649">
<g style="mix-blend-mode:multiply">
<path d="M518 132L411.718 480.817L464 432.233L307.5 780.5C301.295 767.928 249.668 748.594 244.343 734.5L282.263 527.575L223.955 591.526L292.343 261.5L518 132Z" fill="#E40303"/>
</g>
</mask>
<g mask="url(#mask0_697_35125)">
<g style="mix-blend-mode:multiply">
<path fill-rule="evenodd" clip-rule="evenodd" d="M791.939 489.283C791.939 538.983 778.463 585.663 754.828 626.137C753.169 628.979 753.402 632.514 754.992 635.394C760.531 645.426 762.806 659.423 760.404 674.31C758.429 686.545 753.633 697.286 747.302 705.136C745.916 706.855 745.14 708.999 745.196 711.206C745.215 711.937 745.224 712.673 745.224 713.415C745.224 733.572 738.252 749.913 729.652 749.913C721.796 749.913 715.299 736.278 714.234 718.553C714.17 717.495 713.56 716.582 712.621 716.09C710.209 714.826 706.227 716.818 706.281 719.54C706.29 719.993 706.295 720.447 706.295 720.902C706.295 748.295 689.955 770.501 669.798 770.501C656.667 770.501 645.156 761.077 638.727 746.934C636.622 742.304 631.158 739.795 626.542 741.93C623.846 743.177 621.126 744.386 618.384 745.555C615.933 746.6 614.163 748.776 613.452 751.344C607.07 774.394 588.305 791.089 566.149 791.089C551.545 791.089 538.414 783.836 529.332 772.29C527.515 769.98 524.722 768.586 521.791 768.794C514.586 769.305 507.31 769.565 499.969 769.565C471.408 769.565 443.804 765.628 417.715 758.289C412.846 756.919 407.857 760.319 405.486 764.786C401.027 773.186 392.059 778.924 381.722 778.924C369.286 778.924 358.832 770.62 355.827 759.367C355.078 756.563 352.021 754.592 349.119 754.592C339.444 754.592 331.601 745.584 331.601 734.471C331.601 730.639 332.534 727.057 334.153 724.008C335 722.414 334.664 720.354 333.164 719.35C331.413 718.178 329.011 719.032 328.034 720.899C324.809 727.065 318.896 731.196 312.136 731.196C301.923 731.196 293.645 721.769 293.645 710.14C293.645 704.702 295.455 699.745 298.427 696.009C299.402 694.783 299.396 692.968 298.242 691.908C296.766 690.554 294.359 691.21 293.687 693.096C288.627 707.297 279.995 716.65 270.196 716.65C254.609 716.65 241.973 692.978 241.973 663.777C241.973 653.104 243.661 643.17 246.564 634.86C247.414 632.428 247.232 629.731 245.92 627.514C221.783 586.722 208 539.548 208 489.283C208 334.487 338.719 209 499.969 209C661.22 209 791.939 334.487 791.939 489.283Z" fill="#E40303"/>
</g>
</g>
<mask id="mask1_697_35125" style="mask-type:alpha" maskUnits="userSpaceOnUse" x="222" y="289" width="81" height="427">
<path d="M281.121 528.963L222 594.245L284 300L295 289L248.438 541.327L302.744 494.79L266.838 716L248.623 710.251L281.121 528.963Z" fill="#4E9AE9"/>
</mask>
<g mask="url(#mask1_697_35125)">
<path fill-rule="evenodd" clip-rule="evenodd" d="M791.939 489.283C791.939 538.983 778.463 585.663 754.828 626.137C753.169 628.979 753.402 632.514 754.992 635.394C760.531 645.426 762.806 659.423 760.404 674.31C758.429 686.545 753.633 697.286 747.302 705.136C745.916 706.855 745.14 708.999 745.196 711.206C745.215 711.937 745.224 712.673 745.224 713.415C745.224 733.572 738.252 749.913 729.652 749.913C721.796 749.913 715.299 736.278 714.234 718.553C714.17 717.495 713.56 716.582 712.621 716.09C710.209 714.826 706.227 716.818 706.281 719.54C706.29 719.993 706.295 720.447 706.295 720.902C706.295 748.295 689.955 770.501 669.798 770.501C656.667 770.501 645.156 761.077 638.727 746.934C636.622 742.304 631.158 739.795 626.542 741.93C623.846 743.177 621.126 744.386 618.384 745.555C615.933 746.6 614.163 748.776 613.452 751.344C607.07 774.394 588.305 791.089 566.149 791.089C551.545 791.089 538.414 783.836 529.332 772.29C527.515 769.98 524.722 768.586 521.791 768.794C514.586 769.305 507.31 769.565 499.969 769.565C471.408 769.565 443.804 765.628 417.715 758.289C412.846 756.919 407.857 760.319 405.486 764.786C401.027 773.186 392.059 778.924 381.722 778.924C369.286 778.924 358.832 770.62 355.827 759.367C355.078 756.563 352.021 754.592 349.119 754.592C339.444 754.592 331.601 745.584 331.601 734.471C331.601 730.639 332.534 727.057 334.153 724.008C335 722.414 334.664 720.354 333.164 719.35C331.413 718.178 329.011 719.032 328.034 720.899C324.809 727.065 318.896 731.196 312.136 731.196C301.923 731.196 293.645 721.769 293.645 710.14C293.645 704.702 295.455 699.745 298.427 696.009C299.402 694.783 299.396 692.968 298.242 691.908C296.766 690.554 294.359 691.21 293.687 693.096C288.627 707.297 279.995 716.65 270.196 716.65C254.609 716.65 241.973 692.978 241.973 663.777C241.973 653.104 243.661 643.17 246.564 634.86C247.414 632.428 247.232 629.731 245.92 627.514C221.783 586.722 208 539.548 208 489.283C208 334.487 338.719 209 499.969 209C661.22 209 791.939 334.487 791.939 489.283Z" fill="#4E9AE9"/>
</g>
<mask id="path-5-outside-1_697_35125" maskUnits="userSpaceOnUse" x="217.364" y="201" width="286" height="539" fill="black">
<rect fill="white" x="217.364" y="201" width="286" height="539"/>
<path fill-rule="evenodd" clip-rule="evenodd" d="M225.364 584.677L284.29 300.314C336.545 245.369 411.278 210.462 494.524 209L411.717 480.769L464 432.185L334.334 720.736C334.097 720.168 333.707 719.666 333.164 719.302C331.413 718.13 329.01 718.985 328.034 720.851C324.809 727.017 318.896 731.148 312.136 731.148C301.923 731.148 293.644 721.721 293.644 710.092C293.644 704.654 295.455 699.697 298.426 695.961C299.402 694.735 299.396 692.92 298.241 691.86C296.766 690.506 294.359 691.162 293.687 693.048C288.626 707.249 279.994 716.602 270.196 716.602C262.483 716.602 255.492 710.806 250.398 701.411L282.263 527.527L226.788 588.371C226.305 587.144 225.83 585.912 225.364 584.677Z"/>
</mask>
<path d="M225.364 584.677L217.531 583.054C217.223 584.539 217.344 586.081 217.879 587.501L225.364 584.677ZM284.29 300.314L278.493 294.801C277.464 295.882 276.759 297.229 276.456 298.69L284.29 300.314ZM494.524 209L502.176 211.332C502.922 208.883 502.452 206.226 500.91 204.182C499.369 202.139 496.942 200.956 494.383 201.001L494.524 209ZM411.717 480.769L404.065 478.438C403.011 481.897 404.409 485.634 407.475 487.552C410.542 489.47 414.514 489.092 417.163 486.63L411.717 480.769ZM464 432.185L471.297 435.464C472.857 431.992 471.755 427.902 468.662 425.684C465.569 423.466 461.342 423.734 458.554 426.325L464 432.185ZM334.334 720.736L326.951 723.816C328.179 726.759 331.037 728.692 334.226 728.735C337.415 728.778 340.324 726.923 341.631 724.015L334.334 720.736ZM333.164 719.302L337.614 712.654L337.614 712.654L333.164 719.302ZM328.034 720.851L320.945 717.143H320.945L328.034 720.851ZM298.426 695.961L292.166 690.981L292.166 690.981L298.426 695.961ZM298.241 691.86L303.651 685.966L303.651 685.966L298.241 691.86ZM293.687 693.048L286.151 690.363H286.151L293.687 693.048ZM250.398 701.411L242.529 699.969C242.2 701.765 242.495 703.619 243.365 705.224L250.398 701.411ZM282.263 527.527L290.132 528.969C290.775 525.458 289.014 521.945 285.816 520.359C282.618 518.774 278.756 519.499 276.351 522.137L282.263 527.527ZM226.788 588.371L219.345 591.303C220.358 593.873 222.624 595.739 225.341 596.239C228.057 596.738 230.839 595.802 232.7 593.761L226.788 588.371ZM233.198 586.3L292.123 301.937L276.456 298.69L217.531 583.054L233.198 586.3ZM290.087 305.827C340.889 252.41 413.595 218.422 494.664 216.999L494.383 201.001C408.962 202.501 332.201 238.328 278.493 294.801L290.087 305.827ZM486.871 206.668L404.065 478.438L419.37 483.101L502.176 211.332L486.871 206.668ZM417.163 486.63L469.445 438.045L458.554 426.325L406.272 474.909L417.163 486.63ZM456.702 428.906L327.037 717.457L341.631 724.015L471.297 435.464L456.702 428.906ZM341.717 717.655C340.915 715.733 339.549 713.95 337.614 712.654L328.714 725.95C327.864 725.382 327.279 724.602 326.951 723.816L341.717 717.655ZM337.614 712.654C331.142 708.322 323.677 711.921 320.945 717.143L335.123 724.559C334.608 725.544 333.75 726.237 332.74 726.559C331.671 726.9 330.121 726.893 328.714 725.95L337.614 712.654ZM320.945 717.143C318.862 721.127 315.437 723.148 312.136 723.148V739.148C322.355 739.148 330.756 732.908 335.123 724.559L320.945 717.143ZM312.136 723.148C307.286 723.148 301.644 718.311 301.644 710.092H285.644C285.644 725.131 296.56 739.148 312.136 739.148V723.148ZM301.644 710.092C301.644 706.424 302.865 703.232 304.687 700.941L292.166 690.981C288.044 696.163 285.644 702.884 285.644 710.092H301.644ZM304.687 700.941C307.851 696.964 308.379 690.306 303.651 685.966L292.832 697.754C290.413 695.534 290.953 692.505 292.166 690.981L304.687 700.941ZM303.651 685.966C297.731 680.533 288.642 683.372 286.151 690.363L301.223 695.734C300.076 698.952 295.801 700.479 292.832 697.754L303.651 685.966ZM286.151 690.363C283.889 696.71 280.987 701.495 277.993 704.562C275.031 707.597 272.368 708.602 270.196 708.602V724.602C277.822 724.602 284.375 720.93 289.443 715.739C294.48 710.579 298.424 703.587 301.223 695.734L286.151 690.363ZM270.196 708.602C266.828 708.602 261.96 705.95 257.43 697.597L243.365 705.224C249.024 715.661 258.138 724.602 270.196 724.602V708.602ZM258.267 702.853L290.132 528.969L274.394 526.085L242.529 699.969L258.267 702.853ZM276.351 522.137L220.877 582.981L232.7 593.761L288.174 532.917L276.351 522.137ZM234.232 585.438C233.762 584.247 233.302 583.052 232.849 581.854L217.879 587.501C218.359 588.772 218.848 590.04 219.345 591.303L234.232 585.438Z" fill="black" mask="url(#path-5-outside-1_697_35125)"/>
</svg>
