<svg width="1000" height="1000" viewBox="0 0 1000 1000" fill="none" xmlns="http://www.w3.org/2000/svg">
<rect x="337.176" y="332.832" width="69" height="21" rx="10.5" transform="rotate(14.7426 337.176 332.832)" fill="#9F50FF" stroke="black" stroke-width="3"/>
<path fill-rule="evenodd" clip-rule="evenodd" d="M332.705 344.581C332.182 350.312 335.855 355.751 341.605 357.264L388.025 369.479C394.434 371.165 400.997 367.337 402.683 360.927C403.118 359.275 403.186 357.613 402.938 356.027L401.207 362.607L332.705 344.581Z" fill="black" fill-opacity="0.25"/>
<circle r="4" transform="matrix(0.967079 0.254478 0.254478 -0.967079 343.742 341.281)" fill="white" fill-opacity="0.25"/>
<rect x="255.28" y="546.86" width="69" height="21" rx="10.5" transform="rotate(-49.2092 255.28 546.86)" fill="#FF8C00" stroke="black" stroke-width="3"/>
<path fill-rule="evenodd" clip-rule="evenodd" d="M263.873 556.037C268.791 559.023 275.29 558.112 279.175 553.61L310.533 517.269C314.418 512.768 314.368 506.205 310.693 501.777L263.873 556.037Z" fill="black" fill-opacity="0.25"/>
<circle r="4" transform="matrix(0.653299 -0.7571 -0.7571 -0.653299 265.754 544.671)" fill="white" fill-opacity="0.25"/>
<rect x="730.105" y="524.534" width="69" height="21" rx="10.5" transform="rotate(-37.9454 730.105 524.534)" fill="#FF8C00" stroke="black" stroke-width="3"/>
<path fill-rule="evenodd" clip-rule="evenodd" d="M736.74 535.212C740.98 539.102 747.532 539.477 752.221 535.821L790.074 506.305C794.763 502.649 795.996 496.204 793.257 491.142L736.74 535.212Z" fill="black" fill-opacity="0.25"/>
<circle r="4" transform="matrix(0.788597 -0.614911 -0.614911 -0.788597 740.805 524.433)" fill="white" fill-opacity="0.25"/>
<rect x="500.628" y="686.113" width="69" height="21" rx="10.5" transform="rotate(40.0551 500.628 686.113)" fill="#FF7DEA" stroke="black" stroke-width="3"/>
<path fill-rule="evenodd" clip-rule="evenodd" d="M491.562 694.823C488.639 699.78 489.634 706.266 494.185 710.093L530.926 740.982C535.477 744.808 542.038 744.674 546.419 740.943L491.562 694.823Z" fill="black" fill-opacity="0.25"/>
<circle r="4" transform="matrix(0.765426 0.643525 0.643525 -0.765426 502.951 696.559)" fill="white" fill-opacity="0.25"/>
<rect x="579.511" y="400.425" width="69" height="21" rx="10.5" transform="rotate(97.5017 579.511 400.425)" fill="#FF7DEA" stroke="black" stroke-width="3"/>
<path fill-rule="evenodd" clip-rule="evenodd" d="M567.292 397.47C561.541 397.673 556.609 402.002 555.833 407.897L549.566 455.486C548.79 461.382 552.433 466.84 557.936 468.525L567.292 397.47Z" fill="black" fill-opacity="0.25"/>
<circle r="4" transform="matrix(-0.130555 0.991441 0.991441 0.130555 571.957 408.003)" fill="white" fill-opacity="0.25"/>
<rect x="594.999" y="401.625" width="69" height="21" rx="10.5" transform="rotate(-25.4275 594.999 401.625)" fill="#55EAAB" stroke="black" stroke-width="3"/>
<path fill-rule="evenodd" clip-rule="evenodd" d="M599.161 413.487C602.458 418.204 608.772 419.99 614.142 417.437L657.493 396.828C662.863 394.275 665.464 388.25 663.887 382.715L599.161 413.487Z" fill="black" fill-opacity="0.25"/>
<circle r="4" transform="matrix(0.903129 -0.429369 -0.429369 -0.903129 605.466 403.846)" fill="white" fill-opacity="0.25"/>
<rect x="292.306" y="683.788" width="69" height="21" rx="10.5" transform="rotate(12.4251 292.306 683.788)" fill="#55EAAB" stroke="black" stroke-width="3"/>
<path fill-rule="evenodd" clip-rule="evenodd" d="M288.314 695.708C288.022 701.455 291.912 706.74 297.719 708.02L344.595 718.348C350.401 719.627 356.152 716.466 358.303 711.128L288.314 695.708Z" fill="black" fill-opacity="0.25"/>
<circle r="4" transform="matrix(0.976578 0.215163 0.215163 -0.976578 299.208 691.964)" fill="white" fill-opacity="0.25"/>
<rect x="374.713" y="519.255" width="69" height="21" rx="10.5" transform="rotate(-58.5646 374.713 519.255)" fill="#FFED00" stroke="black" stroke-width="3"/>
<path fill-rule="evenodd" clip-rule="evenodd" d="M384.683 526.913C390.022 529.06 396.286 527.104 399.387 522.031L424.421 481.076C427.522 476.002 426.406 469.536 422.06 465.763L384.683 526.913ZM421.147 465.045C420.919 464.882 420.683 464.727 420.441 464.579C420.198 464.43 419.952 464.292 419.704 464.162L421.147 465.045Z" fill="black" fill-opacity="0.25"/>
<circle r="4" transform="matrix(0.521537 -0.853228 -0.853228 -0.521537 384.692 515.393)" fill="white" fill-opacity="0.7"/>
<rect x="720.953" y="625.933" width="69" height="21" rx="10.5" transform="rotate(-68.0114 720.953 625.933)" fill="#FFED00" stroke="black" stroke-width="3"/>
<path fill-rule="evenodd" clip-rule="evenodd" d="M732.044 631.851C737.663 633.093 743.521 630.135 745.747 624.622L763.72 580.113C765.946 574.6 763.784 568.404 758.878 565.396L732.044 631.851ZM757.859 564.837C757.607 564.714 757.349 564.6 757.085 564.493C756.822 564.387 756.557 564.29 756.29 564.204L757.859 564.837Z" fill="black" fill-opacity="0.25"/>
<circle r="4" transform="matrix(0.374422 -0.927258 -0.927258 -0.374422 730.162 620.485)" fill="white" fill-opacity="0.7"/>
<rect x="394.441" y="740.419" width="69" height="21" rx="10.5" transform="rotate(-35.5978 394.441 740.419)" fill="#FFED00" stroke="black" stroke-width="3"/>
<path fill-rule="evenodd" clip-rule="evenodd" d="M400.633 751.359C404.711 755.42 411.241 756.063 416.076 752.602L455.106 724.662C459.941 721.201 461.437 714.811 458.908 709.642L400.633 751.359ZM458.347 708.624C458.2 708.385 458.044 708.15 457.879 707.919C457.713 707.688 457.541 707.464 457.362 707.248L458.347 708.624Z" fill="black" fill-opacity="0.25"/>
<circle r="4" transform="matrix(0.813123 -0.582091 -0.582091 -0.813123 405.137 740.756)" fill="white" fill-opacity="0.7"/>
<rect x="680.36" y="512.764" width="69" height="21" rx="10.5" transform="rotate(78.7438 680.36 512.764)" fill="#F72087" stroke="black" stroke-width="3"/>
<path fill-rule="evenodd" clip-rule="evenodd" d="M667.84 513.895C662.46 515.937 659.182 521.622 660.343 527.454L669.712 574.531C670.873 580.362 676.078 584.359 681.83 584.185L667.84 513.895Z" fill="black" fill-opacity="0.25"/>
<circle r="4" transform="matrix(0.195196 0.980764 0.980764 -0.195196 675.644 522.369)" fill="white" fill-opacity="0.25"/>
<rect x="236.36" y="566.764" width="69" height="21" rx="10.5" transform="rotate(78.7438 236.36 566.764)" fill="#F72087" stroke="black" stroke-width="3"/>
<path fill-rule="evenodd" clip-rule="evenodd" d="M223.84 567.895C218.46 569.937 215.182 575.622 216.343 581.454L225.712 628.531C226.873 634.362 232.077 638.359 237.83 638.185L223.84 567.895Z" fill="black" fill-opacity="0.25"/>
<circle r="4" transform="matrix(0.195196 0.980764 0.980764 -0.195196 231.644 576.369)" fill="white" fill-opacity="0.25"/>
<rect x="533.159" y="306.627" width="69" height="21" rx="10.5" transform="rotate(14.9088 533.159 306.627)" fill="#F72087" stroke="black" stroke-width="3"/>
<path fill-rule="evenodd" clip-rule="evenodd" d="M528.654 318.363C528.114 324.092 531.771 329.541 537.517 331.071L583.901 343.421C589.647 344.95 595.53 342.041 597.91 336.802L528.654 318.363Z" fill="black" fill-opacity="0.25"/>
<circle r="4" transform="matrix(0.966337 0.257281 0.257281 -0.966337 539.701 315.095)" fill="white" fill-opacity="0.25"/>
<rect x="499.669" y="525.986" width="69" height="21" rx="10.5" transform="rotate(24.4236 499.669 525.986)" fill="#9F50FF" stroke="black" stroke-width="3"/>
<path fill-rule="evenodd" clip-rule="evenodd" d="M493.286 536.816C491.806 542.377 494.512 548.356 499.926 550.814L543.631 570.661C549.045 573.12 555.327 571.223 558.541 566.449L493.286 536.816Z" fill="black" fill-opacity="0.25"/>
<circle r="4" transform="matrix(0.910513 0.41348 0.41348 -0.910513 504.721 535.419)" fill="white" fill-opacity="0.25"/>
<rect x="675.071" y="433.574" width="69" height="21" rx="10.5" transform="rotate(60.7943 675.071 433.574)" fill="#9F50FF" stroke="black" stroke-width="3"/>
<path fill-rule="evenodd" clip-rule="evenodd" d="M663.509 438.509C659.02 442.109 657.653 448.528 660.555 453.718L683.976 495.616C686.878 500.806 693.061 503.004 698.479 501.066L663.509 438.509Z" fill="black" fill-opacity="0.25"/>
<circle r="4" transform="matrix(0.487947 0.872873 0.872873 -0.487947 673.545 444.165)" fill="white" fill-opacity="0.25"/>
<rect x="494.666" y="360.105" width="69" height="21" rx="10.5" transform="rotate(52.0546 494.666 360.105)" fill="#FF8C00" stroke="black" stroke-width="3"/>
<path fill-rule="evenodd" clip-rule="evenodd" d="M483.988 366.74C480.098 370.98 479.723 377.532 483.379 382.221L512.895 420.074C516.551 424.763 522.996 425.996 528.057 423.257L483.988 366.74Z" fill="black" fill-opacity="0.25"/>
<circle r="4" transform="matrix(0.614911 0.788597 0.788597 -0.614911 494.767 370.805)" fill="white" fill-opacity="0.25"/>
<rect x="269.25" y="384.107" width="68" height="20" rx="10" transform="rotate(57.7996 269.25 384.107)" fill="#FF7DEA" stroke="black" stroke-width="4"/>
<path fill-rule="evenodd" clip-rule="evenodd" d="M258.118 388.95C253.823 392.78 252.794 399.261 255.962 404.293L281.541 444.91C284.709 449.941 290.999 451.813 296.309 449.595L258.118 388.95Z" fill="black" fill-opacity="0.25"/>
<circle r="4" transform="matrix(0.532882 0.846189 0.846189 -0.532882 268.436 394.074)" fill="white" fill-opacity="0.25"/>
<rect x="612.965" y="591.999" width="69" height="21" rx="10.5" transform="rotate(64.5725 612.965 591.999)" fill="#55EAAB" stroke="black" stroke-width="3"/>
<path fill-rule="evenodd" clip-rule="evenodd" d="M601.103 596.161C596.386 599.458 594.6 605.772 597.153 611.142L617.762 654.493C620.315 659.863 626.34 662.464 631.875 660.887L601.103 596.161Z" fill="black" fill-opacity="0.25"/>
<circle r="4" transform="matrix(0.429369 0.903129 0.903129 -0.429369 610.744 602.466)" fill="white" fill-opacity="0.25"/>
<rect x="688.301" y="388.119" width="69" height="21" rx="10.5" transform="rotate(42.4805 688.301 388.119)" fill="#FFED00" stroke="black" stroke-width="3"/>
<path fill-rule="evenodd" clip-rule="evenodd" d="M678.876 396.437C675.745 401.266 676.465 407.789 680.85 411.804L716.25 444.221C720.635 448.236 727.196 448.38 731.731 444.837L678.876 396.437Z" fill="black" fill-opacity="0.25"/>
<circle r="4" transform="matrix(0.737507 0.675339 0.675339 -0.737507 690.18 398.653)" fill="white" fill-opacity="0.7"/>
<rect x="449.352" y="263.961" width="69" height="21" rx="10.5" transform="rotate(67.4249 449.352 263.961)" fill="#FFED00" stroke="black" stroke-width="3"/>
<path fill-rule="evenodd" clip-rule="evenodd" d="M437.298 267.528C432.423 270.586 430.324 276.804 432.607 282.294L451.034 326.616C453.316 332.106 459.204 335.004 464.81 333.704L437.298 267.528Z" fill="black" fill-opacity="0.25"/>
<circle r="4" transform="matrix(0.383893 0.923377 0.923377 -0.383893 446.613 274.305)" fill="white" fill-opacity="0.7"/>
<rect x="499.201" y="596.968" width="69" height="21" rx="10.5" transform="rotate(23.0828 499.201 596.968)" fill="#F72087" stroke="black" stroke-width="3"/>
<path fill-rule="evenodd" clip-rule="evenodd" d="M493.073 607.944C491.724 613.539 494.569 619.452 500.039 621.783L544.197 640.602C549.666 642.933 555.903 640.89 559.004 636.043L493.073 607.944Z" fill="black" fill-opacity="0.25"/>
<circle r="4" transform="matrix(0.919939 0.392061 0.392061 -0.919939 504.473 606.28)" fill="white" fill-opacity="0.25"/>
</svg>
