<svg width="1000" height="1000" viewBox="0 0 1000 1000" fill="none" xmlns="http://www.w3.org/2000/svg">
<rect x="562.5" y="427.5" width="21" height="21" rx="10.5" fill="#F72087" stroke="black" stroke-width="3"/>
<path fill-rule="evenodd" clip-rule="evenodd" d="M561.166 440C562.118 445.676 567.054 450 573 450C578.946 450 583.882 445.676 584.834 440H561.166Z" fill="black" fill-opacity="0.25"/>
<ellipse rx="1.33333" ry="1.58105" transform="matrix(1 0 0 -1 567.878 433.079)" fill="white" fill-opacity="0.25"/>
<rect x="409.5" y="368.5" width="21" height="21" rx="10.5" fill="#F72087" stroke="black" stroke-width="3"/>
<path fill-rule="evenodd" clip-rule="evenodd" d="M408.166 381C409.118 386.676 414.054 391 420 391C425.946 391 430.882 386.676 431.834 381H408.166Z" fill="black" fill-opacity="0.25"/>
<ellipse rx="1.33333" ry="1.58105" transform="matrix(1 0 0 -1 414.878 374.079)" fill="white" fill-opacity="0.25"/>
<rect x="588.5" y="474.5" width="21" height="21" rx="10.5" fill="#F72087" stroke="black" stroke-width="3"/>
<path fill-rule="evenodd" clip-rule="evenodd" d="M587.166 487C588.118 492.676 593.054 497 599 497C604.946 497 609.882 492.676 610.834 487H587.166Z" fill="black" fill-opacity="0.25"/>
<ellipse rx="1.33333" ry="1.58105" transform="matrix(1 0 0 -1 593.878 480.079)" fill="white" fill-opacity="0.25"/>
<rect x="676.5" y="373.5" width="21" height="21" rx="10.5" fill="#F72087" stroke="black" stroke-width="3"/>
<path fill-rule="evenodd" clip-rule="evenodd" d="M675.166 386C676.118 391.676 681.054 396 687 396C692.946 396 697.882 391.676 698.834 386H675.166Z" fill="black" fill-opacity="0.25"/>
<ellipse rx="1.33333" ry="1.58105" transform="matrix(1 0 0 -1 681.878 379.079)" fill="white" fill-opacity="0.25"/>
<rect x="564.5" y="380.5" width="21" height="21" rx="10.5" fill="#F72087" stroke="black" stroke-width="3"/>
<path fill-rule="evenodd" clip-rule="evenodd" d="M563.166 393C564.118 398.676 569.054 403 575 403C580.946 403 585.882 398.676 586.834 393H563.166Z" fill="black" fill-opacity="0.25"/>
<ellipse rx="1.33333" ry="1.58105" transform="matrix(1 0 0 -1 569.878 386.079)" fill="white" fill-opacity="0.25"/>
<rect x="311.5" y="375.5" width="21" height="21" rx="10.5" fill="#F72087" stroke="black" stroke-width="3"/>
<path fill-rule="evenodd" clip-rule="evenodd" d="M310.166 388C311.118 393.676 316.054 398 322 398C327.946 398 332.882 393.676 333.834 388H310.166Z" fill="black" fill-opacity="0.25"/>
<ellipse rx="1.33333" ry="1.58105" transform="matrix(1 0 0 -1 316.878 381.079)" fill="white" fill-opacity="0.25"/>
<rect x="494.5" y="418.5" width="21" height="21" rx="10.5" fill="#F72087" stroke="black" stroke-width="3"/>
<path fill-rule="evenodd" clip-rule="evenodd" d="M493.166 431C494.118 436.676 499.054 441 505 441C510.946 441 515.882 436.676 516.834 431H493.166Z" fill="black" fill-opacity="0.25"/>
<ellipse rx="1.33333" ry="1.58105" transform="matrix(1 0 0 -1 499.878 424.079)" fill="white" fill-opacity="0.25"/>
<rect x="370.5" y="497.5" width="21" height="21" rx="10.5" fill="#F72087" stroke="black" stroke-width="3"/>
<path fill-rule="evenodd" clip-rule="evenodd" d="M369.166 510C370.118 515.676 375.054 520 381 520C386.946 520 391.882 515.676 392.834 510H369.166Z" fill="black" fill-opacity="0.25"/>
<ellipse rx="1.33333" ry="1.58105" transform="matrix(1 0 0 -1 375.878 503.079)" fill="white" fill-opacity="0.25"/>
<rect x="276.5" y="568.5" width="21" height="21" rx="10.5" fill="#F72087" stroke="black" stroke-width="3"/>
<path fill-rule="evenodd" clip-rule="evenodd" d="M275.166 581C276.118 586.676 281.054 591 287 591C292.946 591 297.882 586.676 298.834 581H275.166Z" fill="black" fill-opacity="0.25"/>
<ellipse rx="1.33333" ry="1.58105" transform="matrix(1 0 0 -1 281.878 574.079)" fill="white" fill-opacity="0.25"/>
<rect x="350.5" y="592.5" width="21" height="21" rx="10.5" fill="#F72087" stroke="black" stroke-width="3"/>
<path fill-rule="evenodd" clip-rule="evenodd" d="M349.166 605C350.118 610.676 355.054 615 361 615C366.946 615 371.882 610.676 372.834 605H349.166Z" fill="black" fill-opacity="0.25"/>
<ellipse rx="1.33333" ry="1.58105" transform="matrix(1 0 0 -1 355.878 598.079)" fill="white" fill-opacity="0.25"/>
<rect x="264.5" y="675.5" width="21" height="21" rx="10.5" fill="#F72087" stroke="black" stroke-width="3"/>
<path fill-rule="evenodd" clip-rule="evenodd" d="M263.166 688C264.118 693.676 269.054 698 275 698C280.946 698 285.882 693.676 286.834 688H263.166Z" fill="black" fill-opacity="0.25"/>
<ellipse rx="1.33333" ry="1.58105" transform="matrix(1 0 0 -1 269.878 681.079)" fill="white" fill-opacity="0.25"/>
<rect x="241.5" y="486.5" width="21" height="21" rx="10.5" fill="#F72087" stroke="black" stroke-width="3"/>
<path fill-rule="evenodd" clip-rule="evenodd" d="M240.166 499C241.118 504.676 246.054 509 252 509C257.946 509 262.882 504.676 263.834 499H240.166Z" fill="black" fill-opacity="0.25"/>
<ellipse rx="1.33333" ry="1.58105" transform="matrix(1 0 0 -1 246.878 492.079)" fill="white" fill-opacity="0.25"/>
<rect x="350.5" y="682.5" width="21" height="21" rx="10.5" fill="#F72087" stroke="black" stroke-width="3"/>
<path fill-rule="evenodd" clip-rule="evenodd" d="M349.166 695C350.118 700.676 355.054 705 361 705C366.946 705 371.882 700.676 372.834 695H349.166Z" fill="black" fill-opacity="0.25"/>
<ellipse rx="1.33333" ry="1.58105" transform="matrix(1 0 0 -1 355.878 688.079)" fill="white" fill-opacity="0.25"/>
<rect x="265.5" y="430.5" width="21" height="21" rx="10.5" fill="#F72087" stroke="black" stroke-width="3"/>
<path fill-rule="evenodd" clip-rule="evenodd" d="M264.166 443C265.118 448.676 270.054 453 276 453C281.946 453 286.882 448.676 287.834 443H264.166Z" fill="black" fill-opacity="0.25"/>
<ellipse rx="1.33333" ry="1.58105" transform="matrix(1 0 0 -1 270.878 436.079)" fill="white" fill-opacity="0.25"/>
<rect x="463.5" y="648.5" width="21" height="21" rx="10.5" fill="#F72087" stroke="black" stroke-width="3"/>
<path fill-rule="evenodd" clip-rule="evenodd" d="M462.166 661C463.118 666.676 468.054 671 474 671C479.946 671 484.882 666.676 485.834 661H462.166Z" fill="black" fill-opacity="0.25"/>
<ellipse rx="1.33333" ry="1.58105" transform="matrix(1 0 0 -1 468.878 654.079)" fill="white" fill-opacity="0.25"/>
<rect x="574.5" y="587.5" width="21" height="21" rx="10.5" fill="#F72087" stroke="black" stroke-width="3"/>
<path fill-rule="evenodd" clip-rule="evenodd" d="M573.166 600C574.118 605.676 579.054 610 585 610C590.946 610 595.882 605.676 596.834 600H573.166Z" fill="black" fill-opacity="0.25"/>
<ellipse rx="1.33333" ry="1.58105" transform="matrix(1 0 0 -1 579.878 593.079)" fill="white" fill-opacity="0.25"/>
<rect x="618.5" y="556.5" width="21" height="21" rx="10.5" fill="#F72087" stroke="black" stroke-width="3"/>
<path fill-rule="evenodd" clip-rule="evenodd" d="M617.166 569C618.118 574.676 623.054 579 629 579C634.946 579 639.882 574.676 640.834 569H617.166Z" fill="black" fill-opacity="0.25"/>
<ellipse rx="1.33333" ry="1.58105" transform="matrix(1 0 0 -1 623.878 562.079)" fill="white" fill-opacity="0.25"/>
<rect x="660.5" y="549.5" width="21" height="21" rx="10.5" fill="#F72087" stroke="black" stroke-width="3"/>
<path fill-rule="evenodd" clip-rule="evenodd" d="M659.166 562C660.118 567.676 665.054 572 671 572C676.946 572 681.882 567.676 682.834 562H659.166Z" fill="black" fill-opacity="0.25"/>
<ellipse rx="1.33333" ry="1.58105" transform="matrix(1 0 0 -1 665.878 555.079)" fill="white" fill-opacity="0.25"/>
<rect x="700.5" y="436.5" width="21" height="21" rx="10.5" fill="#F72087" stroke="black" stroke-width="3"/>
<path fill-rule="evenodd" clip-rule="evenodd" d="M699.166 449C700.118 454.676 705.054 459 711 459C716.946 459 721.882 454.676 722.834 449H699.166Z" fill="black" fill-opacity="0.25"/>
<ellipse rx="1.33333" ry="1.58105" transform="matrix(1 0 0 -1 705.878 442.079)" fill="white" fill-opacity="0.25"/>
<rect x="633.5" y="326.5" width="21" height="21" rx="10.5" fill="#F72087" stroke="black" stroke-width="3"/>
<path fill-rule="evenodd" clip-rule="evenodd" d="M632.166 339C633.118 344.676 638.054 349 644 349C649.946 349 654.882 344.676 655.834 339H632.166Z" fill="black" fill-opacity="0.25"/>
<ellipse rx="1.33333" ry="1.58105" transform="matrix(1 0 0 -1 638.878 332.079)" fill="white" fill-opacity="0.25"/>
<rect x="736.5" y="517.5" width="21" height="21" rx="10.5" fill="#F72087" stroke="black" stroke-width="3"/>
<path fill-rule="evenodd" clip-rule="evenodd" d="M735.166 530C736.118 535.676 741.054 540 747 540C752.946 540 757.882 535.676 758.834 530H735.166Z" fill="black" fill-opacity="0.25"/>
<ellipse rx="1.33333" ry="1.58105" transform="matrix(1 0 0 -1 741.878 523.079)" fill="white" fill-opacity="0.25"/>
<rect x="515.5" y="358.5" width="21" height="21" rx="10.5" fill="#F72087" stroke="black" stroke-width="3"/>
<path fill-rule="evenodd" clip-rule="evenodd" d="M514.166 371C515.118 376.676 520.054 381 526 381C531.946 381 536.882 376.676 537.834 371H514.166Z" fill="black" fill-opacity="0.25"/>
<ellipse rx="1.33333" ry="1.58105" transform="matrix(1 0 0 -1 520.878 364.079)" fill="white" fill-opacity="0.25"/>
<rect x="446.5" y="297.5" width="21" height="21" rx="10.5" fill="#F72087" stroke="black" stroke-width="3"/>
<path fill-rule="evenodd" clip-rule="evenodd" d="M445.166 310C446.118 315.676 451.054 320 457 320C462.946 320 467.882 315.676 468.834 310H445.166Z" fill="black" fill-opacity="0.25"/>
<ellipse rx="1.33333" ry="1.58105" transform="matrix(1 0 0 -1 451.878 303.079)" fill="white" fill-opacity="0.25"/>
<rect x="529.5" y="730.5" width="21" height="21" rx="10.5" fill="#F72087" stroke="black" stroke-width="3"/>
<path fill-rule="evenodd" clip-rule="evenodd" d="M528.166 743C529.118 748.676 534.054 753 540 753C545.946 753 550.882 748.676 551.834 743H528.166Z" fill="black" fill-opacity="0.25"/>
<ellipse rx="1.33333" ry="1.58105" transform="matrix(1 0 0 -1 534.878 736.079)" fill="white" fill-opacity="0.25"/>
<rect x="487.5" y="692.5" width="21" height="21" rx="10.5" fill="#F72087" stroke="black" stroke-width="3"/>
<path fill-rule="evenodd" clip-rule="evenodd" d="M486.166 705C487.118 710.676 492.054 715 498 715C503.946 715 508.882 710.676 509.834 705H486.166Z" fill="black" fill-opacity="0.25"/>
<ellipse rx="1.33333" ry="1.58105" transform="matrix(1 0 0 -1 492.878 698.079)" fill="white" fill-opacity="0.25"/>
<rect x="606.5" y="675.5" width="21" height="21" rx="10.5" fill="#F72087" stroke="black" stroke-width="3"/>
<path fill-rule="evenodd" clip-rule="evenodd" d="M605.166 688C606.118 693.676 611.054 698 617 698C622.946 698 627.882 693.676 628.834 688H605.166Z" fill="black" fill-opacity="0.25"/>
<ellipse rx="1.33333" ry="1.58105" transform="matrix(1 0 0 -1 611.878 681.079)" fill="white" fill-opacity="0.25"/>
</svg>
