<svg width="1000" height="1000" viewBox="0 0 1000 1000" fill="none" xmlns="http://www.w3.org/2000/svg">
<g filter="url(#filter0_d_172_203335)">
<path d="M423.89 334.472L419.98 375.21L382.745 358.226L409.128 358.442L410.305 358.452L410.885 357.428L423.89 334.472Z" fill="#C4C4C4" stroke="black" stroke-width="4"/>
<path d="M418.976 373.543L424.629 334.676L411.059 359.831L418.976 373.543Z" fill="#3C3C3C"/>
<path d="M371.703 291.591L424.685 321.691L406.122 351.206L371.28 352.525L371.703 291.591Z" fill="#C4C4C4"/>
<path d="M394.017 326.239L377.116 296.967L421.878 322.397L406.195 347.333L394.017 326.239Z" fill="#929292" stroke="black" stroke-width="4"/>
<path d="M395.613 326.41L421.999 322.113L407.279 346.617L395.613 326.41Z" fill="#3C3C3C"/>
<path d="M392.866 328.246L373.017 350.716L405.192 349.595L392.866 328.246Z" fill="#929292"/>
<path d="M404.991 349.247L373.294 350.447L373.679 295.014L421.878 322.397L404.991 349.247Z" stroke="black" stroke-width="4"/>
</g>
<g filter="url(#filter1_d_172_203335)">
<path d="M713.809 506.843L678.658 527.803L670.31 487.738L685.751 509.132L686.44 510.086L687.608 509.947L713.809 506.843Z" fill="#C4C4C4" stroke="black" stroke-width="4"/>
<path d="M679.408 526.007L714.082 507.56L685.775 511.51L679.408 526.007Z" fill="#3C3C3C"/>
<path d="M717.485 439.399L724.581 499.919L689.804 502.425L668.12 475.122L717.485 439.399Z" fill="#C4C4C4"/>
<path d="M702.764 477.891L716.356 446.944L722.351 498.075L692.969 500.192L702.764 477.891Z" fill="#929292" stroke="black" stroke-width="4"/>
<path d="M703.571 479.279L722.652 498.004L694.188 500.643L703.571 479.279Z" fill="#3C3C3C"/>
<path d="M700.465 478.152L670.606 475.452L690.553 500.722L700.465 478.152Z" fill="#929292"/>
<path d="M690.714 500.355L670.987 475.516L715.896 443.018L722.351 498.075L690.714 500.355Z" stroke="black" stroke-width="4"/>
</g>
<g filter="url(#filter2_d_172_203335)">
<path d="M683.921 680.877L665.734 717.539L637.009 688.389L661.579 698.003L662.675 698.432L663.582 697.683L683.921 680.877Z" fill="#C4C4C4" stroke="black" stroke-width="4"/>
<path d="M665.391 715.624L684.539 681.331L662.887 699.99L665.391 715.624Z" fill="#3C3C3C"/>
<path d="M650.467 622.199L689.223 669.221L661.352 690.171L628.332 678.972L650.467 622.199Z" fill="#C4C4C4"/>
<path d="M658.951 662.528L653.606 629.152L686.349 668.879L662.802 686.579L658.951 662.528Z" fill="#929292" stroke="black" stroke-width="4"/>
<path d="M660.381 663.257L686.564 668.657L664.07 686.297L660.381 663.257Z" fill="#3C3C3C"/>
<path d="M657.159 663.993L630.6 677.902L661.058 688.334L657.159 663.993Z" fill="#929292"/>
<path d="M660.994 687.937L630.955 677.75L651.092 626.102L686.349 668.879L660.994 687.937Z" stroke="black" stroke-width="4"/>
</g>
<g filter="url(#filter3_d_172_203335)">
<path d="M601.197 616.189L560.835 622.957L567.603 582.595L574.223 608.135L574.518 609.274L575.657 609.569L601.197 616.189Z" fill="#C4C4C4" stroke="black" stroke-width="4"/>
<path d="M562.185 621.555L601.191 616.956L573.381 610.36L562.185 621.555Z" fill="#3C3C3C"/>
<path d="M629.11 554.683L613.748 613.649L580.434 603.358L570.143 570.044L629.11 554.683Z" fill="#C4C4C4"/>
<path d="M601.418 585.203L625.319 561.302L612.34 611.121L584.195 602.426L601.418 585.203Z" fill="#929292" stroke="black" stroke-width="4"/>
<path d="M601.666 586.789L612.646 611.165L585.166 603.288L601.666 586.789Z" fill="#3C3C3C"/>
<path d="M599.181 584.611L572.34 571.255L581.75 602.043L599.181 584.611Z" fill="#929292"/>
<path d="M582.033 601.759L572.671 571.453L626.315 557.477L612.34 611.121L582.033 601.759Z" stroke="black" stroke-width="4"/>
</g>
<g filter="url(#filter4_d_172_203335)">
<path d="M554.193 736.91L518.633 757.169L511.081 716.946L526.095 738.642L526.764 739.61L527.935 739.494L554.193 736.91Z" fill="#C4C4C4" stroke="black" stroke-width="4"/>
<path d="M519.418 755.388L554.451 737.632L526.071 741.02L519.418 755.388Z" fill="#3C3C3C"/>
<path d="M559.206 669.552L565.1 730.202L530.28 732.017L509.142 704.289L559.206 669.552Z" fill="#C4C4C4"/>
<path d="M543.724 707.745L557.927 677.073L562.907 728.313L533.489 729.847L543.724 707.745Z" fill="#929292" stroke="black" stroke-width="4"/>
<path d="M544.504 709.149L563.209 728.249L534.699 730.322L544.504 709.149Z" fill="#3C3C3C"/>
<path d="M541.421 707.96L511.621 704.668L531.062 730.329L541.421 707.96Z" fill="#929292"/>
<path d="M531.231 729.965L512 704.74L557.545 673.139L562.907 728.313L531.231 729.965Z" stroke="black" stroke-width="4"/>
</g>
<g filter="url(#filter5_d_172_203335)">
<path d="M540.197 525.189L499.835 531.957L506.603 491.595L513.223 517.135L513.518 518.274L514.657 518.569L540.197 525.189Z" fill="#C4C4C4" stroke="black" stroke-width="4"/>
<path d="M501.185 530.555L540.191 525.956L512.381 519.36L501.185 530.555Z" fill="#3C3C3C"/>
<path d="M568.11 463.683L552.748 522.649L519.434 512.358L509.143 479.044L568.11 463.683Z" fill="#C4C4C4"/>
<path d="M540.418 494.203L564.319 470.302L551.34 520.121L523.195 511.426L540.418 494.203Z" fill="#929292" stroke="black" stroke-width="4"/>
<path d="M540.666 495.789L551.646 520.165L524.166 512.288L540.666 495.789Z" fill="#3C3C3C"/>
<path d="M538.181 493.611L511.34 480.255L520.75 511.043L538.181 493.611Z" fill="#929292"/>
<path d="M521.033 510.759L511.671 480.453L565.315 466.477L551.34 520.121L521.033 510.759Z" stroke="black" stroke-width="4"/>
</g>
<g filter="url(#filter6_d_172_203335)">
<path d="M278.584 556.986L268.771 596.718L234.413 574.483L260.483 578.546L261.645 578.728L262.368 577.799L278.584 556.986Z" fill="#C4C4C4" stroke="black" stroke-width="4"/>
<path d="M268.021 594.922L279.286 557.296L262.19 580.202L268.021 594.922Z" fill="#3C3C3C"/>
<path d="M233.213 506.949L281.235 544.459L258.564 570.949L223.903 567.169L233.213 506.949Z" fill="#C4C4C4"/>
<path d="M250.232 544.483L237.784 513.057L278.356 544.747L259.202 567.128L250.232 544.483Z" fill="#929292" stroke="black" stroke-width="4"/>
<path d="M251.786 544.885L278.517 544.484L260.379 566.578L251.786 544.885Z" fill="#3C3C3C"/>
<path d="M248.801 546.3L225.886 565.633L257.879 569.219L248.801 546.3Z" fill="#929292"/>
<path d="M257.731 568.846L226.199 565.408L234.669 510.624L278.356 544.747L257.731 568.846Z" stroke="black" stroke-width="4"/>
</g>
<g filter="url(#filter7_d_172_203335)">
<path d="M424.491 711.427L417.397 751.732L381.61 731.88L407.895 734.165L409.067 734.267L409.725 733.292L424.491 711.427Z" fill="#C4C4C4" stroke="black" stroke-width="4"/>
<path d="M416.527 749.992L425.212 711.688L409.711 735.701L416.527 749.992Z" fill="#3C3C3C"/>
<path d="M375.83 664.584L426.286 698.748L405.465 726.715L370.627 725.296L375.83 664.584Z" fill="#C4C4C4"/>
<path d="M395.356 700.876L380.804 670.367L423.433 699.231L405.842 722.86L395.356 700.876Z" fill="#929292" stroke="black" stroke-width="4"/>
<path d="M396.934 701.171L423.576 698.958L406.979 722.231L396.934 701.171Z" fill="#3C3C3C"/>
<path d="M394.052 702.786L372.501 723.629L404.664 725.036L394.052 702.786Z" fill="#929292"/>
<path d="M404.491 724.674L372.798 723.383L377.531 668.151L423.433 699.231L404.491 724.674Z" stroke="black" stroke-width="4"/>
</g>
<g filter="url(#filter8_d_172_203335)">
<path d="M483.511 648.3L442.679 651.054L453.394 611.557L457.462 637.625L457.644 638.788L458.748 639.194L483.511 648.3Z" fill="#C4C4C4" stroke="black" stroke-width="4"/>
<path d="M444.16 649.793L483.429 649.063L456.406 639.756L444.16 649.793Z" fill="#3C3C3C"/>
<path d="M517.354 589.847L496.251 647.011L464.115 633.484L457.159 599.318L517.354 589.847Z" fill="#C4C4C4"/>
<path d="M486.786 617.487L512.928 596.06L495.099 644.356L467.949 632.928L486.786 617.487Z" fill="#929292" stroke="black" stroke-width="4"/>
<path d="M486.877 619.09L495.399 644.43L468.831 633.882L486.877 619.09Z" fill="#3C3C3C"/>
<path d="M484.619 616.678L459.226 600.739L465.554 632.305L484.619 616.678Z" fill="#929292"/>
<path d="M465.864 632.05L459.536 600.969L514.297 592.352L495.099 644.356L465.864 632.05Z" stroke="black" stroke-width="4"/>
</g>
<g filter="url(#filter9_d_172_203335)">
<path d="M559.743 377.309L519.381 384.077L526.149 343.715L532.768 369.255L533.064 370.394L534.203 370.689L559.743 377.309Z" fill="#C4C4C4" stroke="black" stroke-width="4"/>
<path d="M520.731 382.675L559.737 378.076L531.927 371.48L520.731 382.675Z" fill="#3C3C3C"/>
<path d="M587.655 315.803L572.294 374.769L538.98 364.478L528.689 331.164L587.655 315.803Z" fill="#C4C4C4"/>
<path d="M559.964 346.323L583.864 322.422L570.886 372.241L542.741 363.546L559.964 346.323Z" fill="#929292" stroke="black" stroke-width="4"/>
<path d="M560.211 347.909L571.191 372.285L543.712 364.408L560.211 347.909Z" fill="#3C3C3C"/>
<path d="M557.727 345.731L530.886 332.375L540.296 363.163L557.727 345.731Z" fill="#929292"/>
<path d="M540.579 362.879L531.217 332.573L584.861 318.597L570.885 372.241L540.579 362.879Z" stroke="black" stroke-width="4"/>
</g>
<g filter="url(#filter10_d_172_203335)">
<path d="M319.853 671.83L282.907 689.434L278.317 648.767L291.704 671.503L292.301 672.517L293.477 672.488L319.853 671.83Z" fill="#C4C4C4" stroke="black" stroke-width="4"/>
<path d="M283.82 687.716L320.058 672.569L291.506 673.873L283.82 687.716Z" fill="#3C3C3C"/>
<path d="M329.778 605.02L331.221 665.938L296.362 665.202L277.308 636.002L329.778 605.02Z" fill="#C4C4C4"/>
<path d="M311.545 641.978L327.953 612.427L329.172 663.894L299.721 663.272L311.545 641.978Z" fill="#929292" stroke="black" stroke-width="4"/>
<path d="M312.22 643.435L329.478 663.852L300.893 663.834L312.22 643.435Z" fill="#3C3C3C"/>
<path d="M309.232 642.024L279.753 636.562L297.265 663.576L309.232 642.024Z" fill="#929292"/>
<path d="M297.46 663.225L280.126 636.661L327.86 608.475L329.172 663.894L297.46 663.225Z" stroke="black" stroke-width="4"/>
</g>
<g filter="url(#filter11_d_172_203335)">
<path d="M655.977 411.277L649.476 451.683L613.401 432.358L639.716 434.257L640.89 434.342L641.534 433.357L655.977 411.277Z" fill="#C4C4C4" stroke="black" stroke-width="4"/>
<path d="M648.58 449.955L656.701 411.528L641.555 435.766L648.58 449.955Z" fill="#3C3C3C"/>
<path d="M606.632 365.154L657.585 398.573L637.177 426.844L602.322 425.937L606.632 365.154Z" fill="#C4C4C4"/>
<path d="M626.69 401.155L611.691 370.864L654.739 399.099L637.498 422.983L626.69 401.155Z" fill="#929292" stroke="black" stroke-width="4"/>
<path d="M628.271 401.428L654.878 398.823L638.625 422.338L628.271 401.428Z" fill="#3C3C3C"/>
<path d="M625.413 403.085L604.171 424.243L636.352 425.176L625.413 403.085Z" fill="#929292"/>
<path d="M636.173 424.817L604.465 423.992L608.385 368.697L654.739 399.099L636.173 424.817Z" stroke="black" stroke-width="4"/>
</g>
<defs>
<filter id="filter0_d_172_203335" x="341" y="276.008" width="111.693" height="125.603" filterUnits="userSpaceOnUse" color-interpolation-filters="sRGB">
<feFlood flood-opacity="0" result="BackgroundImageFix"/>
<feColorMatrix in="SourceAlpha" type="matrix" values="0 0 0 0 0 0 0 0 0 0 0 0 0 0 0 0 0 0 127 0" result="hardAlpha"/>
<feOffset dy="4"/>
<feGaussianBlur stdDeviation="2"/>
<feComposite in2="hardAlpha" operator="out"/>
<feColorMatrix type="matrix" values="0 0 0 0 0 0 0 0 0 0 0 0 0 0 0 0 0 0 0.25 0"/>
<feBlend mode="normal" in2="BackgroundImageFix" result="effect1_dropShadow_172_203335"/>
<feBlend mode="normal" in="SourceGraphic" in2="effect1_dropShadow_172_203335" result="shape"/>
</filter>
<filter id="filter1_d_172_203335" x="645.042" y="427" width="104.979" height="124.49" filterUnits="userSpaceOnUse" color-interpolation-filters="sRGB">
<feFlood flood-opacity="0" result="BackgroundImageFix"/>
<feColorMatrix in="SourceAlpha" type="matrix" values="0 0 0 0 0 0 0 0 0 0 0 0 0 0 0 0 0 0 127 0" result="hardAlpha"/>
<feOffset dy="4"/>
<feGaussianBlur stdDeviation="2"/>
<feComposite in2="hardAlpha" operator="out"/>
<feColorMatrix type="matrix" values="0 0 0 0 0 0 0 0 0 0 0 0 0 0 0 0 0 0 0.25 0"/>
<feBlend mode="normal" in2="BackgroundImageFix" result="effect1_dropShadow_172_203335"/>
<feBlend mode="normal" in="SourceGraphic" in2="effect1_dropShadow_172_203335" result="shape"/>
</filter>
<filter id="filter2_d_172_203335" x="616.021" y="617.271" width="85.0322" height="116.546" filterUnits="userSpaceOnUse" color-interpolation-filters="sRGB">
<feFlood flood-opacity="0" result="BackgroundImageFix"/>
<feColorMatrix in="SourceAlpha" type="matrix" values="0 0 0 0 0 0 0 0 0 0 0 0 0 0 0 0 0 0 127 0" result="hardAlpha"/>
<feOffset dy="4"/>
<feGaussianBlur stdDeviation="2"/>
<feComposite in2="hardAlpha" operator="out"/>
<feColorMatrix type="matrix" values="0 0 0 0 0 0 0 0 0 0 0 0 0 0 0 0 0 0 0.25 0"/>
<feBlend mode="normal" in2="BackgroundImageFix" result="effect1_dropShadow_172_203335"/>
<feBlend mode="normal" in="SourceGraphic" in2="effect1_dropShadow_172_203335" result="shape"/>
</filter>
<filter id="filter3_d_172_203335" x="532.597" y="532.88" width="122.551" height="122.551" filterUnits="userSpaceOnUse" color-interpolation-filters="sRGB">
<feFlood flood-opacity="0" result="BackgroundImageFix"/>
<feColorMatrix in="SourceAlpha" type="matrix" values="0 0 0 0 0 0 0 0 0 0 0 0 0 0 0 0 0 0 127 0" result="hardAlpha"/>
<feOffset dy="4"/>
<feGaussianBlur stdDeviation="2"/>
<feComposite in2="hardAlpha" operator="out"/>
<feColorMatrix type="matrix" values="0 0 0 0 0 0 0 0 0 0 0 0 0 0 0 0 0 0 0.25 0"/>
<feBlend mode="normal" in2="BackgroundImageFix" result="effect1_dropShadow_172_203335"/>
<feBlend mode="normal" in="SourceGraphic" in2="effect1_dropShadow_172_203335" result="shape"/>
</filter>
<filter id="filter4_d_172_203335" x="485.207" y="656.596" width="106.281" height="124.796" filterUnits="userSpaceOnUse" color-interpolation-filters="sRGB">
<feFlood flood-opacity="0" result="BackgroundImageFix"/>
<feColorMatrix in="SourceAlpha" type="matrix" values="0 0 0 0 0 0 0 0 0 0 0 0 0 0 0 0 0 0 127 0" result="hardAlpha"/>
<feOffset dy="4"/>
<feGaussianBlur stdDeviation="2"/>
<feComposite in2="hardAlpha" operator="out"/>
<feColorMatrix type="matrix" values="0 0 0 0 0 0 0 0 0 0 0 0 0 0 0 0 0 0 0.25 0"/>
<feBlend mode="normal" in2="BackgroundImageFix" result="effect1_dropShadow_172_203335"/>
<feBlend mode="normal" in="SourceGraphic" in2="effect1_dropShadow_172_203335" result="shape"/>
</filter>
<filter id="filter5_d_172_203335" x="471.597" y="441.88" width="122.551" height="122.551" filterUnits="userSpaceOnUse" color-interpolation-filters="sRGB">
<feFlood flood-opacity="0" result="BackgroundImageFix"/>
<feColorMatrix in="SourceAlpha" type="matrix" values="0 0 0 0 0 0 0 0 0 0 0 0 0 0 0 0 0 0 127 0" result="hardAlpha"/>
<feOffset dy="4"/>
<feGaussianBlur stdDeviation="2"/>
<feComposite in2="hardAlpha" operator="out"/>
<feColorMatrix type="matrix" values="0 0 0 0 0 0 0 0 0 0 0 0 0 0 0 0 0 0 0.25 0"/>
<feBlend mode="normal" in2="BackgroundImageFix" result="effect1_dropShadow_172_203335"/>
<feBlend mode="normal" in="SourceGraphic" in2="effect1_dropShadow_172_203335" result="shape"/>
</filter>
<filter id="filter6_d_172_203335" x="200.547" y="495.472" width="102.47" height="123.805" filterUnits="userSpaceOnUse" color-interpolation-filters="sRGB">
<feFlood flood-opacity="0" result="BackgroundImageFix"/>
<feColorMatrix in="SourceAlpha" type="matrix" values="0 0 0 0 0 0 0 0 0 0 0 0 0 0 0 0 0 0 127 0" result="hardAlpha"/>
<feOffset dy="4"/>
<feGaussianBlur stdDeviation="2"/>
<feComposite in2="hardAlpha" operator="out"/>
<feColorMatrix type="matrix" values="0 0 0 0 0 0 0 0 0 0 0 0 0 0 0 0 0 0 0.25 0"/>
<feBlend mode="normal" in2="BackgroundImageFix" result="effect1_dropShadow_172_203335"/>
<feBlend mode="normal" in="SourceGraphic" in2="effect1_dropShadow_172_203335" result="shape"/>
</filter>
<filter id="filter7_d_172_203335" x="344" y="651.166" width="107.012" height="124.95" filterUnits="userSpaceOnUse" color-interpolation-filters="sRGB">
<feFlood flood-opacity="0" result="BackgroundImageFix"/>
<feColorMatrix in="SourceAlpha" type="matrix" values="0 0 0 0 0 0 0 0 0 0 0 0 0 0 0 0 0 0 127 0" result="hardAlpha"/>
<feOffset dy="4"/>
<feGaussianBlur stdDeviation="2"/>
<feComposite in2="hardAlpha" operator="out"/>
<feColorMatrix type="matrix" values="0 0 0 0 0 0 0 0 0 0 0 0 0 0 0 0 0 0 0.25 0"/>
<feBlend mode="normal" in2="BackgroundImageFix" result="effect1_dropShadow_172_203335"/>
<feBlend mode="normal" in="SourceGraphic" in2="effect1_dropShadow_172_203335" result="shape"/>
</filter>
<filter id="filter8_d_172_203335" x="416.468" y="566" width="124.643" height="119.343" filterUnits="userSpaceOnUse" color-interpolation-filters="sRGB">
<feFlood flood-opacity="0" result="BackgroundImageFix"/>
<feColorMatrix in="SourceAlpha" type="matrix" values="0 0 0 0 0 0 0 0 0 0 0 0 0 0 0 0 0 0 127 0" result="hardAlpha"/>
<feOffset dy="4"/>
<feGaussianBlur stdDeviation="2"/>
<feComposite in2="hardAlpha" operator="out"/>
<feColorMatrix type="matrix" values="0 0 0 0 0 0 0 0 0 0 0 0 0 0 0 0 0 0 0.25 0"/>
<feBlend mode="normal" in2="BackgroundImageFix" result="effect1_dropShadow_172_203335"/>
<feBlend mode="normal" in="SourceGraphic" in2="effect1_dropShadow_172_203335" result="shape"/>
</filter>
<filter id="filter9_d_172_203335" x="491.143" y="294" width="122.551" height="122.551" filterUnits="userSpaceOnUse" color-interpolation-filters="sRGB">
<feFlood flood-opacity="0" result="BackgroundImageFix"/>
<feColorMatrix in="SourceAlpha" type="matrix" values="0 0 0 0 0 0 0 0 0 0 0 0 0 0 0 0 0 0 127 0" result="hardAlpha"/>
<feOffset dy="4"/>
<feGaussianBlur stdDeviation="2"/>
<feComposite in2="hardAlpha" operator="out"/>
<feColorMatrix type="matrix" values="0 0 0 0 0 0 0 0 0 0 0 0 0 0 0 0 0 0 0.25 0"/>
<feBlend mode="normal" in2="BackgroundImageFix" result="effect1_dropShadow_172_203335"/>
<feBlend mode="normal" in="SourceGraphic" in2="effect1_dropShadow_172_203335" result="shape"/>
</filter>
<filter id="filter10_d_172_203335" x="250.278" y="590.052" width="110.749" height="125.524" filterUnits="userSpaceOnUse" color-interpolation-filters="sRGB">
<feFlood flood-opacity="0" result="BackgroundImageFix"/>
<feColorMatrix in="SourceAlpha" type="matrix" values="0 0 0 0 0 0 0 0 0 0 0 0 0 0 0 0 0 0 127 0" result="hardAlpha"/>
<feOffset dy="4"/>
<feGaussianBlur stdDeviation="2"/>
<feComposite in2="hardAlpha" operator="out"/>
<feColorMatrix type="matrix" values="0 0 0 0 0 0 0 0 0 0 0 0 0 0 0 0 0 0 0.25 0"/>
<feBlend mode="normal" in2="BackgroundImageFix" result="effect1_dropShadow_172_203335"/>
<feBlend mode="normal" in="SourceGraphic" in2="effect1_dropShadow_172_203335" result="shape"/>
</filter>
<filter id="filter11_d_172_203335" x="575" y="351.325" width="107.935" height="125.127" filterUnits="userSpaceOnUse" color-interpolation-filters="sRGB">
<feFlood flood-opacity="0" result="BackgroundImageFix"/>
<feColorMatrix in="SourceAlpha" type="matrix" values="0 0 0 0 0 0 0 0 0 0 0 0 0 0 0 0 0 0 127 0" result="hardAlpha"/>
<feOffset dy="4"/>
<feGaussianBlur stdDeviation="2"/>
<feComposite in2="hardAlpha" operator="out"/>
<feColorMatrix type="matrix" values="0 0 0 0 0 0 0 0 0 0 0 0 0 0 0 0 0 0 0.25 0"/>
<feBlend mode="normal" in2="BackgroundImageFix" result="effect1_dropShadow_172_203335"/>
<feBlend mode="normal" in="SourceGraphic" in2="effect1_dropShadow_172_203335" result="shape"/>
</filter>
</defs>
</svg>
