<svg width="1000" height="1000" viewBox="0 0 1000 1000" fill="none" xmlns="http://www.w3.org/2000/svg">
<g filter="url(#filter0_d_286_28333)">
<mask id="path-1-outside-1_286_28333" maskUnits="userSpaceOnUse" x="178.055" y="183" width="646" height="366" fill="black">
<rect fill="white" x="178.055" y="183" width="646" height="366"/>
<path fill-rule="evenodd" clip-rule="evenodd" d="M719.537 272.851C767.577 316.397 798.125 372.835 807.082 433.195C807.272 434.476 807.711 435.706 808.304 436.859C812.981 445.963 816 460.337 816 476.511C816 504.035 807.258 526.347 796.474 526.347C785.691 526.347 776.949 504.035 776.949 476.511C776.949 473.213 774.333 470.456 771.035 470.456H743.214C739.721 470.456 736.538 472.323 734.432 475.11C733.852 475.877 733.256 476.622 732.646 477.344C730.742 479.595 729.643 482.444 729.674 485.392C729.677 485.657 729.678 485.922 729.678 486.187C729.678 505.542 722.317 521.231 713.236 521.231C704.981 521.231 698.147 508.266 696.972 491.368C696.891 490.208 696.177 489.203 695.13 488.697C692.557 487.455 688.523 489.639 688.565 492.495C688.57 492.788 688.572 493.082 688.572 493.376C688.572 519.678 671.318 541 650.035 541C628.752 541 611.499 519.678 611.499 493.376C611.499 490.595 611.691 487.871 612.061 485.221C613.062 478.051 608.089 470.456 600.85 470.456H571.293C567.856 470.456 565.255 473.54 565.255 476.977C565.255 493.954 555.133 507.717 542.647 507.717C530.161 507.717 520.039 493.954 520.039 476.977C520.039 473.54 517.438 470.456 514.001 470.456H501.541C498.853 470.456 496.606 472.462 496.095 475.101C491.549 498.61 475.927 515.936 457.353 515.936C447.963 515.936 439.326 511.508 432.495 504.09C426.546 497.631 412.67 496.115 405.391 501.028C395.902 507.434 383.756 511.279 370.517 511.279C355.318 511.279 341.56 506.211 331.608 498.019C327.046 494.264 320.135 493.892 314.472 495.576C312.362 496.203 310.134 496.539 307.831 496.539C299.16 496.539 291.556 491.779 287.297 484.632C284.712 480.294 278.454 477.357 273.405 477.357C267.804 477.357 260.166 480.695 258.658 486.089C253.299 505.264 239.608 518.898 223.564 518.898C202.848 518.898 186.055 496.168 186.055 468.129C186.055 455.827 189.288 444.547 194.666 435.76C195.453 434.474 196.016 433.058 196.247 431.568C205.508 371.822 235.937 316.006 283.545 272.851C341.361 220.443 419.777 191 501.541 191C583.305 191 661.721 220.443 719.537 272.851Z"/>
</mask>
<path fill-rule="evenodd" clip-rule="evenodd" d="M719.537 272.851C767.577 316.397 798.125 372.835 807.082 433.195C807.272 434.476 807.711 435.706 808.304 436.859C812.981 445.963 816 460.337 816 476.511C816 504.035 807.258 526.347 796.474 526.347C785.691 526.347 776.949 504.035 776.949 476.511C776.949 473.213 774.333 470.456 771.035 470.456H743.214C739.721 470.456 736.538 472.323 734.432 475.11C733.852 475.877 733.256 476.622 732.646 477.344C730.742 479.595 729.643 482.444 729.674 485.392C729.677 485.657 729.678 485.922 729.678 486.187C729.678 505.542 722.317 521.231 713.236 521.231C704.981 521.231 698.147 508.266 696.972 491.368C696.891 490.208 696.177 489.203 695.13 488.697C692.557 487.455 688.523 489.639 688.565 492.495C688.57 492.788 688.572 493.082 688.572 493.376C688.572 519.678 671.318 541 650.035 541C628.752 541 611.499 519.678 611.499 493.376C611.499 490.595 611.691 487.871 612.061 485.221C613.062 478.051 608.089 470.456 600.85 470.456H571.293C567.856 470.456 565.255 473.54 565.255 476.977C565.255 493.954 555.133 507.717 542.647 507.717C530.161 507.717 520.039 493.954 520.039 476.977C520.039 473.54 517.438 470.456 514.001 470.456H501.541C498.853 470.456 496.606 472.462 496.095 475.101C491.549 498.61 475.927 515.936 457.353 515.936C447.963 515.936 439.326 511.508 432.495 504.09C426.546 497.631 412.67 496.115 405.391 501.028C395.902 507.434 383.756 511.279 370.517 511.279C355.318 511.279 341.56 506.211 331.608 498.019C327.046 494.264 320.135 493.892 314.472 495.576C312.362 496.203 310.134 496.539 307.831 496.539C299.16 496.539 291.556 491.779 287.297 484.632C284.712 480.294 278.454 477.357 273.405 477.357C267.804 477.357 260.166 480.695 258.658 486.089C253.299 505.264 239.608 518.898 223.564 518.898C202.848 518.898 186.055 496.168 186.055 468.129C186.055 455.827 189.288 444.547 194.666 435.76C195.453 434.474 196.016 433.058 196.247 431.568C205.508 371.822 235.937 316.006 283.545 272.851C341.361 220.443 419.777 191 501.541 191C583.305 191 661.721 220.443 719.537 272.851Z" fill="#FF7DEA"/>
<path d="M719.537 272.851L714.164 278.778V278.778L719.537 272.851ZM283.545 272.851L288.918 278.778L283.545 272.851ZM501.541 191V183V191ZM331.608 498.019L326.524 504.196L331.608 498.019ZM314.472 495.576L316.751 503.244L314.472 495.576ZM432.495 504.09L438.379 498.671L432.495 504.09ZM405.391 501.028L400.915 494.397L405.391 501.028ZM612.061 485.221L604.138 484.115L612.061 485.221ZM258.658 486.089L250.954 483.936L258.658 486.089ZM732.646 477.344L738.754 482.51L732.646 477.344ZM729.674 485.392L737.673 485.309L729.674 485.392ZM734.432 475.11L728.05 470.286L734.432 475.11ZM194.666 435.76L187.843 431.584L194.666 435.76ZM196.247 431.568L188.341 430.343L196.247 431.568ZM696.972 491.368L704.953 490.813L696.972 491.368ZM287.297 484.632L280.424 488.727L287.297 484.632ZM496.095 475.101L488.241 473.582L496.095 475.101ZM688.565 492.495L680.566 492.612L688.565 492.495ZM807.082 433.195L814.996 432.02L807.082 433.195ZM808.304 436.859L801.188 440.514L808.304 436.859ZM814.996 432.02C805.754 369.742 774.253 311.652 724.91 266.924L714.164 278.778C760.9 321.143 790.496 375.928 799.169 434.369L814.996 432.02ZM824 476.511C824 459.56 820.868 443.809 815.419 433.203L801.188 440.514C805.094 448.118 808 461.114 808 476.511H824ZM796.474 534.347C802.142 534.347 806.687 531.383 809.944 527.867C813.192 524.361 815.748 519.725 817.73 514.669C821.711 504.507 824 491.013 824 476.511H808C808 489.533 805.917 500.957 802.832 508.832C801.28 512.794 799.629 515.457 798.206 516.995C796.79 518.522 796.198 518.347 796.474 518.347V534.347ZM768.949 476.511C768.949 491.013 771.238 504.507 775.219 514.669C777.2 519.725 779.757 524.361 783.005 527.867C786.262 531.383 790.807 534.347 796.474 534.347V518.347C796.751 518.347 796.158 518.522 794.743 516.995C793.319 515.457 791.669 512.794 790.117 508.832C787.031 500.957 784.949 489.533 784.949 476.511H768.949ZM743.214 478.456H771.035V462.456H743.214V478.456ZM738.754 482.51C739.46 481.675 740.147 480.816 740.814 479.934L728.05 470.286C727.557 470.938 727.052 471.569 726.538 472.177L738.754 482.51ZM737.678 486.187C737.678 485.894 737.676 485.601 737.673 485.309L721.674 485.476C721.677 485.712 721.678 485.949 721.678 486.187H737.678ZM713.236 529.231C722.708 529.231 728.825 521.355 732.105 514.365C735.682 506.74 737.678 496.769 737.678 486.187H721.678C721.678 494.959 719.993 502.51 717.62 507.569C714.948 513.263 712.845 513.231 713.236 513.231V529.231ZM688.991 491.923C689.636 501.19 691.847 509.832 695.408 516.434C698.739 522.611 704.595 529.231 713.236 529.231V513.231C713.621 513.231 711.933 513.369 709.49 508.839C707.276 504.733 705.483 498.444 704.953 490.813L688.991 491.923ZM680.566 492.612C680.57 492.866 680.572 493.121 680.572 493.376H696.572C696.572 493.042 696.569 492.71 696.564 492.378L680.566 492.612ZM680.572 493.376C680.572 516.925 665.401 533 650.035 533V549C677.236 549 696.572 522.431 696.572 493.376H680.572ZM650.035 533C634.669 533 619.499 516.925 619.499 493.376H603.499C603.499 522.431 622.835 549 650.035 549V533ZM619.499 493.376C619.499 490.965 619.666 488.61 619.984 486.327L604.138 484.115C603.717 487.131 603.499 490.226 603.499 493.376H619.499ZM571.293 478.456H600.85V462.456H571.293V478.456ZM542.647 515.717C552.041 515.717 559.879 510.523 565.078 503.453C570.28 496.38 573.255 486.993 573.255 476.977H557.255C557.255 483.938 555.169 489.921 552.189 493.973C549.206 498.03 545.74 499.717 542.647 499.717V515.717ZM512.039 476.977C512.039 486.993 515.014 496.38 520.216 503.453C525.416 510.523 533.253 515.717 542.647 515.717V499.717C539.555 499.717 536.089 498.03 533.106 493.973C530.125 489.921 528.039 483.938 528.039 476.977H512.039ZM501.541 478.456H514.001V462.456H501.541V478.456ZM457.353 523.936C481.402 523.936 499.041 502.005 503.95 476.62L488.241 473.582C484.057 495.216 470.451 507.936 457.353 507.936V523.936ZM426.61 509.51C434.635 518.223 445.292 523.936 457.353 523.936V507.936C450.633 507.936 444.018 504.793 438.379 498.671L426.61 509.51ZM370.517 519.279C385.288 519.279 399.004 514.991 409.867 507.659L400.915 494.397C392.8 499.876 382.224 503.279 370.517 503.279V519.279ZM326.524 504.196C337.989 513.633 353.572 519.279 370.517 519.279V503.279C357.064 503.279 345.13 498.788 336.692 491.842L326.524 504.196ZM307.831 504.539C310.916 504.539 313.911 504.088 316.751 503.244L312.192 487.907C310.812 488.317 309.352 488.539 307.831 488.539V504.539ZM280.424 488.727C286.011 498.102 296.123 504.539 307.831 504.539V488.539C302.196 488.539 297.1 485.456 294.169 480.536L280.424 488.727ZM223.564 526.898C244.579 526.898 260.469 509.331 266.363 488.243L250.954 483.936C246.129 501.197 234.637 510.898 223.564 510.898V526.898ZM178.055 468.129C178.055 483.684 182.703 498.083 190.607 508.782C198.51 519.478 210.072 526.898 223.564 526.898V510.898C216.341 510.898 209.149 506.953 203.476 499.274C197.804 491.598 194.055 480.613 194.055 468.129H178.055ZM187.843 431.584C181.64 441.718 178.055 454.462 178.055 468.129H194.055C194.055 457.192 196.936 447.376 201.489 439.937L187.843 431.584ZM278.173 266.923C229.272 311.25 197.896 368.699 188.341 430.343L204.152 432.794C213.119 374.945 242.602 320.762 288.918 278.778L278.173 266.923ZM501.541 183C417.895 183 337.536 213.113 278.173 266.923L288.918 278.778C345.187 227.772 421.659 199 501.541 199V183ZM724.91 266.924C665.547 213.113 585.187 183 501.541 183V199C581.423 199 657.895 227.772 714.164 278.778L724.91 266.924ZM336.692 491.842C329.361 485.807 319.366 485.775 312.192 487.907L316.751 503.244C320.905 502.009 324.731 502.72 326.524 504.196L336.692 491.842ZM438.379 498.671C433.669 493.557 426.627 491.048 420.33 490.344C414.027 489.64 406.633 490.538 400.915 494.397L409.867 507.659C411.428 506.605 414.611 505.805 418.553 506.245C422.501 506.686 425.371 508.165 426.61 509.51L438.379 498.671ZM528.039 476.977C528.039 469.941 522.633 462.456 514.001 462.456V478.456C513.207 478.456 512.627 478.073 512.361 477.777C512.131 477.522 512.039 477.25 512.039 476.977H528.039ZM619.984 486.327C620.78 480.631 619.222 474.874 616.026 470.459C612.784 465.981 607.487 462.456 600.85 462.456V478.456C601.452 478.456 602.26 478.729 603.065 479.841C603.916 481.016 604.344 482.641 604.138 484.115L619.984 486.327ZM273.405 469.357C269.201 469.357 264.594 470.559 260.699 472.659C256.932 474.69 252.529 478.301 250.954 483.936L266.363 488.243C266.296 488.484 266.465 487.728 268.294 486.742C269.995 485.824 272.008 485.357 273.405 485.357V469.357ZM726.538 472.177C723.481 475.791 721.622 480.476 721.674 485.476L737.673 485.309C737.664 484.412 738.003 483.398 738.754 482.51L726.538 472.177ZM743.214 462.456C736.786 462.456 731.391 465.866 728.05 470.286L740.814 479.934C741.686 478.78 742.655 478.456 743.214 478.456V462.456ZM201.489 439.937C202.749 437.879 203.737 435.471 204.152 432.794L188.341 430.343C188.294 430.646 188.157 431.07 187.843 431.584L201.489 439.937ZM704.953 490.813C704.662 486.638 702.101 483.18 698.609 481.493L691.651 495.901C690.253 495.226 689.12 493.778 688.991 491.923L704.953 490.813ZM571.293 462.456C562.661 462.456 557.255 469.941 557.255 476.977H573.255C573.255 477.25 573.164 477.522 572.933 477.777C572.667 478.073 572.087 478.456 571.293 478.456V462.456ZM294.169 480.536C291.886 476.704 288.329 473.974 284.891 472.232C281.42 470.473 277.362 469.357 273.405 469.357V485.357C274.496 485.357 276.092 485.71 277.659 486.504C279.258 487.314 280.123 488.221 280.424 488.727L294.169 480.536ZM784.949 476.511C784.949 469.041 778.993 462.456 771.035 462.456V478.456C769.672 478.456 768.949 477.385 768.949 476.511H784.949ZM501.541 462.456C494.707 462.456 489.418 467.496 488.241 473.582L503.95 476.62C503.794 477.427 502.998 478.456 501.541 478.456V462.456ZM698.609 481.493C694.268 479.397 689.776 480.489 686.935 482.092C684.122 483.68 680.487 487.212 680.566 492.612L696.564 492.378C696.583 493.628 696.141 494.575 695.757 495.121C695.393 495.639 695.024 495.899 694.799 496.026C694.569 496.156 694.255 496.28 693.817 496.324C693.378 496.369 692.58 496.35 691.651 495.901L698.609 481.493ZM799.169 434.369C799.512 436.68 800.28 438.747 801.188 440.514L815.419 433.203C815.143 432.665 815.033 432.272 814.996 432.02L799.169 434.369Z" fill="black" mask="url(#path-1-outside-1_286_28333)"/>
<path fill-rule="evenodd" clip-rule="evenodd" d="M808.304 437.531C807.711 436.378 807.272 435.149 807.082 433.867C798.125 373.508 767.577 317.07 719.537 273.523C685.82 242.96 645.098 220.208 600.791 206.55C589.252 202.993 586.672 216.081 597.914 220.49C674.342 250.465 758.052 301.758 770.269 377.77C771.341 384.437 772.456 390.792 773.508 396.792C779.311 429.868 783.217 452.134 767.518 456.257C763.931 457.199 760.395 458.988 758.83 462.351C754.614 471.416 757.014 470.873 759.215 470.376C760.808 470.016 762.858 471.128 764.49 471.128H771.035C774.332 471.128 776.949 473.886 776.949 477.183C776.949 504.707 785.691 527.02 796.474 527.02C807.258 527.02 816 504.707 816 477.183C816 461.01 812.981 446.636 808.304 437.531Z" fill="black" fill-opacity="0.25"/>
<path d="M204.586 482.913C204.586 502.964 260.169 518.353 220.541 518.353C199.791 518.353 184 496.531 184 468.458C184 456.04 187.292 444.662 192.759 435.834C193.465 434.693 193.962 433.452 194.162 432.157C203.382 372.225 233.883 316.227 281.649 272.948C339.559 220.478 418.103 191 500 191C386.545 209.315 195.837 308.045 204.586 482.913Z" fill="white" fill-opacity="0.25"/>
</g>
<defs>
<filter id="filter0_d_286_28333" x="173.055" y="183" width="653.944" height="377" filterUnits="userSpaceOnUse" color-interpolation-filters="sRGB">
<feFlood flood-opacity="0" result="BackgroundImageFix"/>
<feColorMatrix in="SourceAlpha" type="matrix" values="0 0 0 0 0 0 0 0 0 0 0 0 0 0 0 0 0 0 127 0" result="hardAlpha"/>
<feOffset dx="-1" dy="7"/>
<feGaussianBlur stdDeviation="2"/>
<feComposite in2="hardAlpha" operator="out"/>
<feColorMatrix type="matrix" values="0 0 0 0 0 0 0 0 0 0 0 0 0 0 0 0 0 0 0.25 0"/>
<feBlend mode="normal" in2="BackgroundImageFix" result="effect1_dropShadow_286_28333"/>
<feBlend mode="normal" in="SourceGraphic" in2="effect1_dropShadow_286_28333" result="shape"/>
</filter>
</defs>
</svg>
