<svg width="1000" height="1000" viewBox="0 0 1000 1000" fill="none" xmlns="http://www.w3.org/2000/svg">
<path d="M520.875 693.183L520.873 693.178C520.44 691.538 519.107 689.721 516.934 689.721H493.972L507.888 651.471L507.888 651.471C508.565 649.609 508.296 647.227 506.917 645.695C506.207 644.901 505.221 644.38 504.105 644.38C502.904 644.38 501.872 644.984 501.164 645.845L501.162 645.848L485.453 665.027L485.453 665.027L454.122 703.28L454.122 703.28C452.978 704.677 452.679 706.697 453.128 708.398L455.056 707.889L453.128 708.398C453.56 710.031 454.888 711.858 457.066 711.858H480.028L466.112 750.108L466.112 750.108C465.435 751.97 465.704 754.351 467.082 755.884C467.792 756.678 468.778 757.199 469.895 757.199C471.096 757.199 472.128 756.596 472.836 755.734L472.838 755.732L488.547 736.552L487 735.285L488.547 736.552L519.876 698.302C521.026 696.901 521.319 694.881 520.875 693.183Z" fill="#FFC700" stroke="black" stroke-width="4"/>
<path d="M514.645 691.268H508.517L466.055 762L517.76 697.776C519.867 695.159 518.004 691.268 514.645 691.268Z" fill="black" fill-opacity="0.25"/>
<path d="M459.512 710.311H465.15L505.981 644L456.433 703.758C454.271 706.365 456.126 710.311 459.512 710.311Z" fill="white" fill-opacity="0.25"/>
<path d="M629.539 350.126L629.538 350.121C629.104 348.481 627.771 346.664 625.598 346.664H602.636L616.552 308.414L616.552 308.414C617.229 306.552 616.96 304.17 615.582 302.638C614.871 301.844 613.885 301.323 612.769 301.323C611.568 301.323 610.536 301.926 609.828 302.788L609.826 302.79L594.117 321.97L594.117 321.97L562.786 360.222L562.786 360.223C561.642 361.62 561.343 363.64 561.792 365.341L563.72 364.831L561.792 365.341C562.224 366.974 563.552 368.801 565.73 368.801H588.692L574.776 407.051L574.776 407.051C574.099 408.913 574.368 411.294 575.746 412.827C576.456 413.62 577.442 414.142 578.559 414.142C579.76 414.142 580.792 413.539 581.5 412.677L581.502 412.674L597.211 393.495L595.664 392.228L597.211 393.495L628.54 355.245C629.69 353.844 629.983 351.823 629.539 350.126Z" fill="#FFC700" stroke="black" stroke-width="4"/>
<path d="M623.309 348.211H617.181L574.719 418.943L626.424 354.719C628.531 352.102 626.668 348.211 623.309 348.211Z" fill="black" fill-opacity="0.25"/>
<path d="M568.176 367.254H573.814L614.646 300.943L565.097 360.701C562.936 363.308 564.79 367.254 568.176 367.254Z" fill="white" fill-opacity="0.25"/>
<path d="M267.875 482.183L267.873 482.179C267.44 480.538 266.107 478.721 263.934 478.721H240.972L254.888 440.471L254.888 440.471C255.565 438.609 255.296 436.227 253.917 434.695C253.207 433.901 252.221 433.38 251.105 433.38C249.904 433.38 248.872 433.984 248.164 434.845L248.162 434.848L232.453 454.027L232.453 454.027L201.122 492.28L201.122 492.28C199.978 493.677 199.679 495.697 200.128 497.398L202.056 496.889L200.128 497.398C200.56 499.031 201.888 500.858 204.066 500.858H227.028L213.112 539.108L213.112 539.108C212.435 540.97 212.704 543.351 214.082 544.884C214.792 545.678 215.778 546.199 216.895 546.199C218.096 546.199 219.128 545.596 219.836 544.734L219.838 544.732L235.547 525.552L234 524.285L235.547 525.552L266.876 487.302C268.026 485.901 268.319 483.881 267.875 482.183Z" fill="#FFC700" stroke="black" stroke-width="4"/>
<path d="M261.645 480.268H255.517L213.055 551L264.76 486.776C266.867 484.159 265.004 480.268 261.645 480.268Z" fill="black" fill-opacity="0.25"/>
<path d="M206.512 499.311H212.15L252.981 433L203.433 492.758C201.271 495.365 203.126 499.311 206.512 499.311Z" fill="white" fill-opacity="0.25"/>
<path d="M750.875 381.183L750.873 381.179C750.44 379.538 749.107 377.721 746.934 377.721H723.972L737.888 339.471L737.888 339.471C738.565 337.609 738.296 335.227 736.917 333.695C736.207 332.901 735.221 332.38 734.105 332.38C732.904 332.38 731.872 332.984 731.164 333.845L731.162 333.848L715.453 353.027L715.453 353.027L684.122 391.28L684.122 391.28C682.978 392.677 682.679 394.697 683.128 396.398L685.056 395.889L683.128 396.398C683.56 398.031 684.888 399.858 687.066 399.858H710.028L696.112 438.108L696.112 438.108C695.435 439.97 695.704 442.351 697.082 443.884C697.792 444.678 698.778 445.199 699.895 445.199C701.096 445.199 702.128 444.596 702.836 443.734L702.838 443.732L718.547 424.552L717 423.285L718.547 424.552L749.876 386.302C751.026 384.901 751.319 382.881 750.875 381.183Z" fill="#FFC700" stroke="black" stroke-width="4"/>
<path d="M744.645 379.268H738.517L696.055 450L747.76 385.776C749.867 383.159 748.004 379.268 744.645 379.268Z" fill="black" fill-opacity="0.25"/>
<path d="M689.512 398.311H695.15L735.981 332L686.433 391.758C684.271 394.365 686.126 398.311 689.512 398.311Z" fill="white" fill-opacity="0.25"/>
<path d="M810.875 487.183L810.873 487.179C810.44 485.538 809.107 483.721 806.934 483.721H783.972L797.888 445.471L797.888 445.471C798.565 443.609 798.296 441.227 796.917 439.695C796.207 438.901 795.221 438.38 794.105 438.38C792.904 438.38 791.872 438.984 791.164 439.845L791.162 439.848L775.453 459.027L775.453 459.027L744.122 497.28L744.122 497.28C742.978 498.677 742.679 500.697 743.128 502.398L745.056 501.889L743.128 502.398C743.56 504.031 744.888 505.858 747.066 505.858H770.028L756.112 544.108L756.112 544.108C755.435 545.97 755.704 548.351 757.082 549.884C757.792 550.678 758.778 551.199 759.895 551.199C761.096 551.199 762.128 550.596 762.836 549.734L762.838 549.732L778.547 530.552L777 529.285L778.547 530.552L809.876 492.302C811.026 490.901 811.319 488.881 810.875 487.183Z" fill="#FFC700" stroke="black" stroke-width="4"/>
<path d="M804.645 485.268H798.517L756.055 556L807.76 491.776C809.867 489.159 808.004 485.268 804.645 485.268Z" fill="black" fill-opacity="0.25"/>
<path d="M749.512 504.311H755.15L795.981 438L746.433 497.758C744.271 500.365 746.126 504.311 749.512 504.311Z" fill="white" fill-opacity="0.25"/>
<path d="M452.875 310.183L452.873 310.179C452.44 308.538 451.107 306.721 448.934 306.721H425.972L439.888 268.471L439.888 268.471C440.565 266.609 440.296 264.227 438.917 262.695C438.207 261.901 437.221 261.38 436.105 261.38C434.904 261.38 433.872 261.984 433.164 262.845L433.162 262.848L417.453 282.027L417.453 282.027L386.122 320.28L386.122 320.28C384.978 321.677 384.679 323.697 385.128 325.398L387.056 324.889L385.128 325.398C385.56 327.031 386.888 328.858 389.066 328.858H412.028L398.112 367.108L398.112 367.108C397.435 368.97 397.704 371.351 399.082 372.884C399.792 373.678 400.778 374.199 401.895 374.199C403.096 374.199 404.128 373.596 404.836 372.734L404.838 372.732L420.547 353.552L419 352.285L420.547 353.552L451.876 315.302C453.026 313.901 453.319 311.881 452.875 310.183Z" fill="#FFC700" stroke="black" stroke-width="4"/>
<path d="M446.645 308.268H440.517L398.055 379L449.76 314.776C451.867 312.159 450.004 308.268 446.645 308.268Z" fill="black" fill-opacity="0.25"/>
<path d="M391.512 327.311H397.15L437.981 261L388.433 320.758C386.271 323.365 388.126 327.311 391.512 327.311Z" fill="white" fill-opacity="0.25"/>
<path d="M624.875 462.183L624.873 462.179C624.44 460.538 623.107 458.721 620.934 458.721H597.972L611.888 420.471L611.888 420.471C612.565 418.609 612.296 416.227 610.917 414.695C610.207 413.901 609.221 413.38 608.105 413.38C606.904 413.38 605.872 413.984 605.164 414.845L605.162 414.848L589.453 434.027L589.453 434.027L558.122 472.28L558.122 472.28C556.978 473.677 556.679 475.697 557.128 477.398L559.056 476.889L557.128 477.398C557.56 479.031 558.888 480.858 561.066 480.858H584.028L570.112 519.108L570.112 519.108C569.435 520.97 569.704 523.351 571.082 524.884C571.792 525.678 572.778 526.199 573.895 526.199C575.096 526.199 576.128 525.596 576.836 524.734L576.838 524.732L592.547 505.552L591 504.285L592.547 505.552L623.876 467.302C625.026 465.901 625.319 463.881 624.875 462.183Z" fill="#FFC700" stroke="black" stroke-width="4"/>
<path d="M618.645 460.268H612.517L570.055 531L621.76 466.776C623.867 464.159 622.004 460.268 618.645 460.268Z" fill="black" fill-opacity="0.25"/>
<path d="M563.512 479.311H569.15L609.981 413L560.433 472.758C558.271 475.365 560.126 479.311 563.512 479.311Z" fill="white" fill-opacity="0.25"/>
<path d="M302.875 582.183L302.873 582.178C302.44 580.538 301.107 578.721 298.934 578.721H275.972L289.888 540.471L289.888 540.471C290.565 538.609 290.296 536.227 288.917 534.695C288.207 533.901 287.221 533.38 286.105 533.38C284.904 533.38 283.872 533.984 283.164 534.845L283.162 534.848L267.453 554.027L267.453 554.027L236.122 592.28L236.122 592.28C234.978 593.677 234.679 595.697 235.128 597.398L237.056 596.889L235.128 597.398C235.56 599.031 236.888 600.858 239.066 600.858H262.028L248.112 639.108L248.112 639.108C247.435 640.97 247.704 643.351 249.082 644.884C249.792 645.678 250.778 646.199 251.895 646.199C253.096 646.199 254.128 645.596 254.836 644.734L254.838 644.732L270.547 625.552L269 624.285L270.547 625.552L301.876 587.302C303.026 585.901 303.319 583.881 302.875 582.183Z" fill="#FFC700" stroke="black" stroke-width="4"/>
<path d="M296.645 580.268H290.517L248.055 651L299.76 586.776C301.867 584.159 300.004 580.268 296.645 580.268Z" fill="black" fill-opacity="0.25"/>
<path d="M241.512 599.311H247.15L287.981 533L238.433 592.758C236.271 595.365 238.126 599.311 241.512 599.311Z" fill="white" fill-opacity="0.25"/>
<path d="M579.875 604.183L579.873 604.178C579.44 602.538 578.107 600.721 575.934 600.721H552.972L566.888 562.471L566.888 562.471C567.565 560.609 567.296 558.227 565.917 556.695C565.207 555.901 564.221 555.38 563.105 555.38C561.904 555.38 560.872 555.984 560.164 556.845L560.162 556.848L544.453 576.027L544.453 576.027L513.122 614.28L513.122 614.28C511.978 615.677 511.679 617.697 512.128 619.398L514.056 618.889L512.128 619.398C512.56 621.031 513.888 622.858 516.066 622.858H539.028L525.112 661.108L525.112 661.108C524.435 662.97 524.704 665.351 526.082 666.884C526.792 667.678 527.778 668.199 528.895 668.199C530.096 668.199 531.128 667.596 531.836 666.734L531.838 666.732L547.547 647.552L546 646.285L547.547 647.552L578.876 609.302C580.026 607.901 580.319 605.881 579.875 604.183Z" fill="#FFC700" stroke="black" stroke-width="4"/>
<path d="M573.645 602.268H567.517L525.055 673L576.76 608.776C578.867 606.159 577.004 602.268 573.645 602.268Z" fill="black" fill-opacity="0.25"/>
<path d="M518.512 621.311H524.15L564.981 555L515.433 614.758C513.271 617.365 515.126 621.311 518.512 621.311Z" fill="white" fill-opacity="0.25"/>
<path d="M395.875 648.183L395.873 648.178C395.44 646.538 394.107 644.721 391.934 644.721H368.972L382.888 606.471L382.888 606.471C383.565 604.609 383.296 602.227 381.917 600.695C381.207 599.901 380.221 599.38 379.105 599.38C377.904 599.38 376.872 599.984 376.164 600.845L376.162 600.848L360.453 620.027L360.453 620.027L329.122 658.28L329.122 658.28C327.978 659.677 327.679 661.697 328.128 663.398L330.056 662.889L328.128 663.398C328.56 665.031 329.888 666.858 332.066 666.858H355.028L341.112 705.108L341.112 705.108C340.435 706.97 340.704 709.351 342.082 710.884C342.792 711.678 343.778 712.199 344.895 712.199C346.096 712.199 347.128 711.596 347.836 710.734L347.838 710.732L363.547 691.552L362 690.285L363.547 691.552L394.876 653.302C396.026 651.901 396.319 649.881 395.875 648.183Z" fill="#FFC700" stroke="black" stroke-width="4"/>
<path d="M389.645 646.268H383.517L341.055 717L392.76 652.776C394.867 650.159 393.004 646.268 389.645 646.268Z" fill="black" fill-opacity="0.25"/>
<path d="M334.512 665.311H340.15L380.981 599L331.433 658.758C329.271 661.365 331.126 665.311 334.512 665.311Z" fill="white" fill-opacity="0.25"/>
<path d="M738.875 549.183L738.873 549.178C738.44 547.538 737.107 545.721 734.934 545.721H711.972L725.888 507.471L725.888 507.471C726.565 505.609 726.296 503.227 724.917 501.695C724.207 500.901 723.221 500.38 722.105 500.38C720.904 500.38 719.872 500.984 719.164 501.845L719.162 501.848L703.453 521.027L703.453 521.027L672.122 559.28L672.122 559.28C670.978 560.677 670.679 562.697 671.128 564.398L673.056 563.889L671.128 564.398C671.56 566.031 672.888 567.858 675.066 567.858H698.028L684.112 606.108L684.112 606.108C683.435 607.97 683.704 610.351 685.082 611.884C685.792 612.678 686.778 613.199 687.895 613.199C689.096 613.199 690.128 612.596 690.836 611.734L690.838 611.732L706.547 592.552L705 591.285L706.547 592.552L737.876 554.302C739.026 552.901 739.319 550.881 738.875 549.183Z" fill="#FFC700" stroke="black" stroke-width="4"/>
<path d="M732.645 547.268H726.517L684.055 618L735.76 553.776C737.867 551.159 736.004 547.268 732.645 547.268Z" fill="black" fill-opacity="0.25"/>
<path d="M677.512 566.311H683.15L723.981 500L674.433 559.758C672.271 562.365 674.126 566.311 677.512 566.311Z" fill="white" fill-opacity="0.25"/>
</svg>
