<svg width="1000" height="1000" viewBox="0 0 1000 1000" fill="none" xmlns="http://www.w3.org/2000/svg">
<g filter="url(#filter0_d_162_165433)">
<circle cx="496.036" cy="717.252" r="38" transform="rotate(28.8758 496.036 717.252)" fill="#55EAAB" stroke="black" stroke-width="4"/>
<path d="M481.909 745.574C496.976 753.883 515.925 748.406 524.234 733.34C528.224 726.104 529.034 717.973 527.13 710.555C526.06 706.389 520.801 707.083 519.138 711.048C509.644 733.679 492.339 735.758 478.859 732.056C474.451 730.845 470.116 734.776 473.047 738.284C475.454 741.163 478.425 743.653 481.909 745.574Z" fill="black" fill-opacity="0.25"/>
<path d="M504.364 688.123C492.144 681.384 476.506 686.316 469.435 699.138C468.807 700.277 468.267 701.441 467.814 702.619C465.016 709.9 471.822 709.165 475.658 702.374C481.448 692.124 490.92 690.783 499.483 693.13C503.931 694.349 508.402 690.35 504.364 688.123Z" fill="white" fill-opacity="0.25"/>
<path d="M495.554 709.84C498.132 708.834 500.595 708.978 502.943 710.273C507.691 712.892 508.578 716.979 505.603 722.534L497.868 736.558L492.02 733.333L499.665 719.471C500.357 718.216 500.597 717.143 500.384 716.252C500.179 715.347 499.45 714.549 498.195 713.857C496.482 712.912 494.876 712.889 493.378 713.787L484.795 729.349L478.947 726.124L496.089 695.04L501.938 698.265L495.554 709.84Z" fill="white" fill-opacity="0.7"/>
</g>
<g filter="url(#filter1_d_162_165433)">
<circle cx="592.144" cy="351.949" r="38" transform="rotate(-24.9607 592.144 351.949)" fill="#E40303" stroke="black" stroke-width="4"/>
<path d="M606.496 379.688C622.095 372.427 628.855 353.896 621.594 338.298C618.107 330.807 612.021 325.354 604.908 322.515C600.914 320.92 598.37 325.575 600.59 329.258C613.258 350.277 604.726 365.475 593.783 374.173C590.204 377.017 590.819 382.837 595.381 382.54C599.126 382.296 602.889 381.367 606.496 379.688Z" fill="black" fill-opacity="0.25"/>
<path d="M573.364 327.658C560.713 333.547 555.466 349.082 561.645 362.357C562.194 363.536 562.815 364.659 563.5 365.72C567.726 372.275 571.149 366.347 567.93 359.242C563.071 348.519 567.579 340.081 574.526 334.553C578.135 331.681 577.545 325.711 573.364 327.658Z" fill="white" fill-opacity="0.25"/>
<path d="M585.698 347.585C586.407 344.91 587.977 343.007 590.408 341.876C595.324 339.587 599.147 341.283 601.876 346.963L608.635 361.483L602.58 364.301L595.899 349.949C595.294 348.65 594.57 347.824 593.725 347.469C592.874 347.101 591.799 347.219 590.5 347.823C588.726 348.649 587.759 349.932 587.6 351.671L595.1 367.783L589.045 370.601L574.065 338.419L580.12 335.601L585.698 347.585Z" fill="white" fill-opacity="0.7"/>
</g>
<g filter="url(#filter2_d_162_165433)">
<circle cx="235.428" cy="502.497" r="38" transform="rotate(-33.4746 235.428 502.497)" fill="#FF7DEA" stroke="black" stroke-width="4"/>
<path d="M253.498 527.456C267.85 517.966 271.792 498.638 262.302 484.287C257.744 477.395 250.918 472.903 243.462 471.148C239.277 470.163 237.45 475.143 240.191 478.456C255.831 497.368 249.643 513.662 240.108 523.884C236.99 527.227 238.46 532.892 242.927 531.922C246.595 531.127 250.179 529.65 253.498 527.456Z" fill="black" fill-opacity="0.25"/>
<path d="M213.028 480.905C201.388 488.602 198.499 504.742 206.575 516.956C207.293 518.042 208.073 519.059 208.907 520.008C214.058 525.865 216.565 519.495 212.33 512.946C205.937 503.06 209.146 494.048 215.198 487.552C218.342 484.178 216.875 478.361 213.028 480.905Z" fill="white" fill-opacity="0.25"/>
<path d="M228.176 498.787C228.482 496.036 229.752 493.921 231.988 492.442C236.512 489.451 240.544 490.562 244.084 495.776L252.917 509.135L247.346 512.819L238.615 499.614C237.824 498.419 236.985 497.709 236.097 497.483C235.201 497.245 234.155 497.521 232.96 498.311C231.328 499.39 230.562 500.802 230.662 502.546L240.464 517.37L234.893 521.053L215.314 491.444L220.885 487.76L228.176 498.787Z" fill="white" fill-opacity="0.7"/>
</g>
<g filter="url(#filter3_d_162_165433)">
<circle cx="705.533" cy="440.81" r="38" transform="rotate(20.388 705.533 440.81)" fill="#FFED00" stroke="black" stroke-width="4"/>
<path d="M696.178 469.73C712.306 475.724 730.24 467.51 736.234 451.382C739.112 443.637 738.713 435.475 735.734 428.419C734.062 424.457 728.963 425.919 727.903 430.087C721.853 453.871 705.045 458.482 691.167 456.809C686.628 456.263 682.92 460.79 686.337 463.827C689.143 466.319 692.449 468.344 696.178 469.73Z" fill="black" fill-opacity="0.25"/>
<path d="M709.907 409.593C696.827 404.732 682.088 411.918 676.986 425.643C676.533 426.863 676.171 428.093 675.897 429.326C674.205 436.939 680.827 435.208 683.619 427.925C687.833 416.933 697.003 414.209 705.818 415.266C710.397 415.815 714.23 411.2 709.907 409.593Z" fill="white" fill-opacity="0.25"/>
<path d="M704.399 432.373C706.801 430.997 709.258 430.777 711.771 431.71C716.854 433.6 718.335 437.511 716.212 443.445L710.632 458.457L704.372 456.13L709.887 441.291C710.386 439.948 710.465 438.852 710.123 438.001C709.787 437.137 708.947 436.455 707.604 435.956C705.77 435.274 704.179 435.488 702.829 436.597L696.638 453.256L690.378 450.929L702.744 417.655L709.005 419.982L704.399 432.373Z" fill="white" fill-opacity="0.7"/>
</g>
<g filter="url(#filter4_d_162_165433)">
<circle cx="762.892" cy="520" r="38" fill="#004DFF" stroke="black" stroke-width="4"/>
<path d="M764.198 550.366C781.404 550.366 795.352 536.419 795.352 519.214C795.352 510.951 792.135 503.439 786.885 497.863C783.937 494.732 779.667 497.879 780.125 502.155C782.74 526.556 768.59 536.734 754.999 540.002C750.554 541.07 748.656 546.606 752.917 548.262C756.415 549.621 760.219 550.366 764.198 550.366Z" fill="black" fill-opacity="0.25"/>
<path d="M756.117 489.215C742.162 489.215 730.85 501.085 730.85 515.727C730.85 517.029 730.939 518.308 731.112 519.559C732.177 527.285 737.782 523.355 737.861 515.556C737.982 503.784 745.629 498.036 754.26 495.956C758.744 494.876 760.729 489.215 756.117 489.215Z" fill="white" fill-opacity="0.25"/>
<path d="M758.89 512.486C760.662 510.36 762.888 509.297 765.569 509.297C770.992 509.297 773.742 512.448 773.819 518.749V534.764H767.14V518.934C767.14 517.501 766.832 516.446 766.216 515.768C765.599 515.074 764.575 514.728 763.142 514.728C761.185 514.728 759.768 515.483 758.89 516.993V534.764H752.211V499.267H758.89V512.486Z" fill="white" fill-opacity="0.7"/>
</g>
<g filter="url(#filter5_d_162_165433)">
<circle cx="413.649" cy="321.916" r="38" transform="rotate(37.5956 413.649 321.916)" fill="#5F3016" stroke="black" stroke-width="4"/>
<path d="M394.88 348.433C408.514 358.93 428.075 356.389 438.571 342.757C443.612 336.21 445.646 328.295 444.887 320.674C444.462 316.394 439.159 316.283 436.913 319.95C424.098 340.879 406.678 340.311 393.916 334.609C389.742 332.744 384.86 335.972 387.227 339.883C389.169 343.094 391.728 346.006 394.88 348.433Z" fill="black" fill-opacity="0.25"/>
<path d="M425.786 295.05C414.729 286.537 398.524 289.04 389.59 300.642C388.797 301.673 388.087 302.741 387.46 303.838C383.591 310.61 390.429 310.915 395.251 304.784C402.528 295.53 412.094 295.641 420.202 299.259C424.413 301.139 429.44 297.864 425.786 295.05Z" fill="white" fill-opacity="0.25"/>
<path d="M413.785 315.181C416.486 314.577 418.899 315.093 421.023 316.729C425.32 320.037 425.577 324.211 421.793 329.251L412.023 341.941L406.731 337.866L416.389 325.323C417.263 324.188 417.663 323.164 417.588 322.25C417.522 321.325 416.922 320.425 415.787 319.551C414.237 318.357 412.653 318.091 411.036 318.751L400.194 332.833L394.902 328.758L416.558 300.632L421.85 304.707L413.785 315.181Z" fill="white" fill-opacity="0.7"/>
</g>
<g filter="url(#filter6_d_162_165433)">
<circle cx="594.19" cy="486.544" r="38" transform="rotate(12.2915 594.19 486.544)" fill="#008026" stroke="black" stroke-width="4"/>
<path d="M588.645 518.13C605.457 521.793 622.055 511.134 625.717 494.324C627.476 486.25 625.932 478.226 621.989 471.66C619.775 467.973 614.933 470.139 614.471 474.414C611.831 498.813 595.839 505.745 581.864 506.044C577.293 506.142 574.26 511.147 578.071 513.672C581.199 515.744 584.758 517.283 588.645 518.13Z" fill="black" fill-opacity="0.25"/>
<path d="M593.768 456.659C580.133 453.689 566.553 462.878 563.435 477.185C563.158 478.457 562.973 479.726 562.876 480.985C562.272 488.761 568.585 486.114 570.323 478.51C572.947 467.034 581.642 463.046 590.518 462.851C595.129 462.75 598.274 457.641 593.768 456.659Z" fill="white" fill-opacity="0.25"/>
<path d="M591.523 479.988C593.707 478.288 596.108 477.723 598.728 478.293C604.026 479.448 606.043 483.112 604.777 489.285L601.367 504.934L594.841 503.512L598.211 488.044C598.517 486.644 598.44 485.547 597.982 484.754C597.528 483.945 596.6 483.388 595.2 483.083C593.289 482.667 591.743 483.103 590.564 484.391L586.78 501.755L580.254 500.334L587.811 465.65L594.337 467.072L591.523 479.988Z" fill="white" fill-opacity="0.7"/>
</g>
<g filter="url(#filter7_d_162_165433)">
<circle cx="271.682" cy="606.845" r="38" transform="rotate(48.362 271.682 606.845)" fill="#004DFF" stroke="black" stroke-width="4"/>
<path d="M249.542 628.275C260.974 641.134 280.666 642.292 293.524 630.861C299.699 625.37 303.176 617.975 303.854 610.346C304.235 606.063 299.047 604.962 296.156 608.146C279.656 626.313 262.649 622.5 251.177 614.514C247.425 611.902 242.026 614.162 243.62 618.446C244.928 621.963 246.899 625.302 249.542 628.275Z" fill="black" fill-opacity="0.25"/>
<path d="M289.875 581.605C280.603 571.176 264.216 570.609 253.272 580.337C252.3 581.202 251.403 582.119 250.583 583.079C245.517 589.009 252.178 590.586 258.059 585.464C266.937 577.732 276.314 579.629 283.603 584.697C287.39 587.33 292.939 585.052 289.875 581.605Z" fill="white" fill-opacity="0.25"/>
<path d="M274.326 599.14C277.092 599.051 279.365 600.009 281.147 602.012C284.75 606.065 284.222 610.214 279.564 614.458L267.595 625.099L263.157 620.108L274.988 609.59C276.059 608.638 276.643 607.706 276.741 606.795C276.849 605.874 276.428 604.878 275.476 603.807C274.175 602.345 272.669 601.787 270.958 602.134L257.676 613.942L253.238 608.951L279.767 585.365L284.205 590.357L274.326 599.14Z" fill="white" fill-opacity="0.7"/>
</g>
<g filter="url(#filter8_d_162_165433)">
<circle cx="531.16" cy="597.883" r="38" transform="rotate(50.9029 531.16 597.883)" fill="#750787" stroke="black" stroke-width="4"/>
<path d="M508.417 618.047C519.268 631.401 538.889 633.43 552.241 622.58C558.654 617.369 562.455 610.135 563.471 602.544C564.042 598.281 558.907 596.952 555.877 600.004C538.589 617.422 521.767 612.859 510.66 604.372C507.028 601.596 501.534 603.614 502.937 607.965C504.088 611.537 505.908 614.96 508.417 618.047Z" fill="black" fill-opacity="0.25"/>
<path d="M550.78 573.211C541.979 562.381 525.633 561.088 514.269 570.322C513.259 571.143 512.323 572.019 511.461 572.942C506.137 578.641 512.721 580.512 518.824 575.655C528.036 568.325 537.319 570.635 544.377 576.022C548.043 578.82 553.688 576.791 550.78 573.211Z" fill="white" fill-opacity="0.25"/>
<path d="M534.468 590.039C537.235 590.073 539.464 591.131 541.155 593.211C544.575 597.42 543.864 601.541 539.022 605.575L526.593 615.675L522.381 610.492L534.667 600.508C535.779 599.605 536.404 598.7 536.541 597.794C536.691 596.879 536.314 595.865 535.41 594.753C534.176 593.235 532.696 592.611 530.971 592.881L517.178 604.089L512.966 598.905L540.515 576.519L544.727 581.703L534.468 590.039Z" fill="white" fill-opacity="0.7"/>
</g>
<g filter="url(#filter9_d_162_165433)">
<circle cx="374.293" cy="668.317" r="38" transform="rotate(-37.8666 374.293 668.317)" fill="#F72087" stroke="black" stroke-width="4"/>
<path d="M394.478 692.149C408.062 681.588 410.512 662.015 399.951 648.433C394.879 641.909 387.728 637.954 380.16 636.775C375.911 636.113 374.472 641.218 377.458 644.312C394.501 661.971 389.578 678.691 380.854 689.613C378.001 693.185 379.901 698.72 384.281 697.412C387.877 696.338 391.338 694.591 394.478 692.149Z" fill="black" fill-opacity="0.25"/>
<path d="M350.563 648.834C339.546 657.399 337.902 673.714 346.89 685.273C347.688 686.301 348.544 687.256 349.448 688.137C355.033 693.583 357.044 687.04 352.32 680.834C345.189 671.467 347.698 662.235 353.235 655.295C356.111 651.69 354.203 646.003 350.563 648.834Z" fill="white" fill-opacity="0.25"/>
<path d="M367.036 665.503C367.13 662.737 368.235 660.531 370.351 658.886C374.632 655.557 378.737 656.356 382.666 661.283L392.497 673.926L387.224 678.026L377.507 665.529C376.627 664.398 375.736 663.754 374.834 663.597C373.922 663.428 372.9 663.783 371.769 664.662C370.224 665.863 369.569 667.329 369.802 669.06L380.711 683.09L375.438 687.19L353.649 659.167L358.922 655.067L367.036 665.503Z" fill="white" fill-opacity="0.7"/>
</g>
<g filter="url(#filter10_d_162_165433)">
<circle cx="716.663" cy="568.901" r="38" transform="rotate(38.2472 716.663 568.901)" fill="#88C9F9" stroke="black" stroke-width="4"/>
<path d="M698.631 593.887C712.144 604.539 731.733 602.22 742.383 588.708C747.499 582.219 749.622 574.328 748.951 566.698C748.574 562.414 743.272 562.242 740.985 565.884C727.933 586.666 710.52 585.9 697.824 580.052C693.671 578.14 688.754 581.312 691.075 585.251C692.981 588.483 695.507 591.424 698.631 593.887Z" fill="black" fill-opacity="0.25"/>
<path d="M730.141 540.859C719.182 532.22 702.95 534.539 693.885 546.039C693.08 547.061 692.358 548.121 691.719 549.21C687.773 555.938 694.607 556.321 699.498 550.245C706.88 541.075 716.444 541.295 724.51 545.004C728.7 546.931 733.763 543.714 730.141 540.859Z" fill="white" fill-opacity="0.25"/>
<path d="M717.913 560.852C720.621 560.279 723.027 560.822 725.132 562.482C729.392 565.839 729.601 570.016 725.761 575.012L715.846 587.59L710.601 583.455L720.401 571.023C721.288 569.898 721.699 568.878 721.635 567.964C721.58 567.038 720.99 566.132 719.865 565.245C718.328 564.033 716.748 563.749 715.123 564.391L704.121 578.348L698.876 574.213L720.851 546.336L726.096 550.47L717.913 560.852Z" fill="white" fill-opacity="0.7"/>
</g>
<defs>
<filter id="filter0_d_162_165433" x="452.029" y="677.245" width="88.0146" height="88.0148" filterUnits="userSpaceOnUse" color-interpolation-filters="sRGB">
<feFlood flood-opacity="0" result="BackgroundImageFix"/>
<feColorMatrix in="SourceAlpha" type="matrix" values="0 0 0 0 0 0 0 0 0 0 0 0 0 0 0 0 0 0 127 0" result="hardAlpha"/>
<feOffset dy="4"/>
<feGaussianBlur stdDeviation="2"/>
<feComposite in2="hardAlpha" operator="out"/>
<feColorMatrix type="matrix" values="0 0 0 0 0 0 0 0 0 0 0 0 0 0 0 0 0 0 0.25 0"/>
<feBlend mode="normal" in2="BackgroundImageFix" result="effect1_dropShadow_162_165433"/>
<feBlend mode="normal" in="SourceGraphic" in2="effect1_dropShadow_162_165433" result="shape"/>
</filter>
<filter id="filter1_d_162_165433" x="548.134" y="311.94" width="88.019" height="88.0191" filterUnits="userSpaceOnUse" color-interpolation-filters="sRGB">
<feFlood flood-opacity="0" result="BackgroundImageFix"/>
<feColorMatrix in="SourceAlpha" type="matrix" values="0 0 0 0 0 0 0 0 0 0 0 0 0 0 0 0 0 0 127 0" result="hardAlpha"/>
<feOffset dy="4"/>
<feGaussianBlur stdDeviation="2"/>
<feComposite in2="hardAlpha" operator="out"/>
<feColorMatrix type="matrix" values="0 0 0 0 0 0 0 0 0 0 0 0 0 0 0 0 0 0 0.25 0"/>
<feBlend mode="normal" in2="BackgroundImageFix" result="effect1_dropShadow_162_165433"/>
<feBlend mode="normal" in="SourceGraphic" in2="effect1_dropShadow_162_165433" result="shape"/>
</filter>
<filter id="filter2_d_162_165433" x="191.424" y="462.493" width="88.0088" height="88.0088" filterUnits="userSpaceOnUse" color-interpolation-filters="sRGB">
<feFlood flood-opacity="0" result="BackgroundImageFix"/>
<feColorMatrix in="SourceAlpha" type="matrix" values="0 0 0 0 0 0 0 0 0 0 0 0 0 0 0 0 0 0 127 0" result="hardAlpha"/>
<feOffset dy="4"/>
<feGaussianBlur stdDeviation="2"/>
<feComposite in2="hardAlpha" operator="out"/>
<feColorMatrix type="matrix" values="0 0 0 0 0 0 0 0 0 0 0 0 0 0 0 0 0 0 0.25 0"/>
<feBlend mode="normal" in2="BackgroundImageFix" result="effect1_dropShadow_162_165433"/>
<feBlend mode="normal" in="SourceGraphic" in2="effect1_dropShadow_162_165433" result="shape"/>
</filter>
<filter id="filter3_d_162_165433" x="661.522" y="400.8" width="88.0217" height="88.0217" filterUnits="userSpaceOnUse" color-interpolation-filters="sRGB">
<feFlood flood-opacity="0" result="BackgroundImageFix"/>
<feColorMatrix in="SourceAlpha" type="matrix" values="0 0 0 0 0 0 0 0 0 0 0 0 0 0 0 0 0 0 127 0" result="hardAlpha"/>
<feOffset dy="4"/>
<feGaussianBlur stdDeviation="2"/>
<feComposite in2="hardAlpha" operator="out"/>
<feColorMatrix type="matrix" values="0 0 0 0 0 0 0 0 0 0 0 0 0 0 0 0 0 0 0.25 0"/>
<feBlend mode="normal" in2="BackgroundImageFix" result="effect1_dropShadow_162_165433"/>
<feBlend mode="normal" in="SourceGraphic" in2="effect1_dropShadow_162_165433" result="shape"/>
</filter>
<filter id="filter4_d_162_165433" x="718.892" y="480" width="88" height="88" filterUnits="userSpaceOnUse" color-interpolation-filters="sRGB">
<feFlood flood-opacity="0" result="BackgroundImageFix"/>
<feColorMatrix in="SourceAlpha" type="matrix" values="0 0 0 0 0 0 0 0 0 0 0 0 0 0 0 0 0 0 127 0" result="hardAlpha"/>
<feOffset dy="4"/>
<feGaussianBlur stdDeviation="2"/>
<feComposite in2="hardAlpha" operator="out"/>
<feColorMatrix type="matrix" values="0 0 0 0 0 0 0 0 0 0 0 0 0 0 0 0 0 0 0.25 0"/>
<feBlend mode="normal" in2="BackgroundImageFix" result="effect1_dropShadow_162_165433"/>
<feBlend mode="normal" in="SourceGraphic" in2="effect1_dropShadow_162_165433" result="shape"/>
</filter>
<filter id="filter5_d_162_165433" x="369.647" y="281.914" width="88.0039" height="88.004" filterUnits="userSpaceOnUse" color-interpolation-filters="sRGB">
<feFlood flood-opacity="0" result="BackgroundImageFix"/>
<feColorMatrix in="SourceAlpha" type="matrix" values="0 0 0 0 0 0 0 0 0 0 0 0 0 0 0 0 0 0 127 0" result="hardAlpha"/>
<feOffset dy="4"/>
<feGaussianBlur stdDeviation="2"/>
<feComposite in2="hardAlpha" operator="out"/>
<feColorMatrix type="matrix" values="0 0 0 0 0 0 0 0 0 0 0 0 0 0 0 0 0 0 0.25 0"/>
<feBlend mode="normal" in2="BackgroundImageFix" result="effect1_dropShadow_162_165433"/>
<feBlend mode="normal" in="SourceGraphic" in2="effect1_dropShadow_162_165433" result="shape"/>
</filter>
<filter id="filter6_d_162_165433" x="550.182" y="446.536" width="88.0166" height="88.0168" filterUnits="userSpaceOnUse" color-interpolation-filters="sRGB">
<feFlood flood-opacity="0" result="BackgroundImageFix"/>
<feColorMatrix in="SourceAlpha" type="matrix" values="0 0 0 0 0 0 0 0 0 0 0 0 0 0 0 0 0 0 127 0" result="hardAlpha"/>
<feOffset dy="4"/>
<feGaussianBlur stdDeviation="2"/>
<feComposite in2="hardAlpha" operator="out"/>
<feColorMatrix type="matrix" values="0 0 0 0 0 0 0 0 0 0 0 0 0 0 0 0 0 0 0.25 0"/>
<feBlend mode="normal" in2="BackgroundImageFix" result="effect1_dropShadow_162_165433"/>
<feBlend mode="normal" in="SourceGraphic" in2="effect1_dropShadow_162_165433" result="shape"/>
</filter>
<filter id="filter7_d_162_165433" x="227.681" y="566.844" width="88.001" height="88.0009" filterUnits="userSpaceOnUse" color-interpolation-filters="sRGB">
<feFlood flood-opacity="0" result="BackgroundImageFix"/>
<feColorMatrix in="SourceAlpha" type="matrix" values="0 0 0 0 0 0 0 0 0 0 0 0 0 0 0 0 0 0 127 0" result="hardAlpha"/>
<feOffset dy="4"/>
<feGaussianBlur stdDeviation="2"/>
<feComposite in2="hardAlpha" operator="out"/>
<feColorMatrix type="matrix" values="0 0 0 0 0 0 0 0 0 0 0 0 0 0 0 0 0 0 0.25 0"/>
<feBlend mode="normal" in2="BackgroundImageFix" result="effect1_dropShadow_162_165433"/>
<feBlend mode="normal" in="SourceGraphic" in2="effect1_dropShadow_162_165433" result="shape"/>
</filter>
<filter id="filter8_d_162_165433" x="487.159" y="557.882" width="88.0024" height="88.0026" filterUnits="userSpaceOnUse" color-interpolation-filters="sRGB">
<feFlood flood-opacity="0" result="BackgroundImageFix"/>
<feColorMatrix in="SourceAlpha" type="matrix" values="0 0 0 0 0 0 0 0 0 0 0 0 0 0 0 0 0 0 127 0" result="hardAlpha"/>
<feOffset dy="4"/>
<feGaussianBlur stdDeviation="2"/>
<feComposite in2="hardAlpha" operator="out"/>
<feColorMatrix type="matrix" values="0 0 0 0 0 0 0 0 0 0 0 0 0 0 0 0 0 0 0.25 0"/>
<feBlend mode="normal" in2="BackgroundImageFix" result="effect1_dropShadow_162_165433"/>
<feBlend mode="normal" in="SourceGraphic" in2="effect1_dropShadow_162_165433" result="shape"/>
</filter>
<filter id="filter9_d_162_165433" x="330.292" y="628.315" width="88.0037" height="88.0037" filterUnits="userSpaceOnUse" color-interpolation-filters="sRGB">
<feFlood flood-opacity="0" result="BackgroundImageFix"/>
<feColorMatrix in="SourceAlpha" type="matrix" values="0 0 0 0 0 0 0 0 0 0 0 0 0 0 0 0 0 0 127 0" result="hardAlpha"/>
<feOffset dy="4"/>
<feGaussianBlur stdDeviation="2"/>
<feComposite in2="hardAlpha" operator="out"/>
<feColorMatrix type="matrix" values="0 0 0 0 0 0 0 0 0 0 0 0 0 0 0 0 0 0 0.25 0"/>
<feBlend mode="normal" in2="BackgroundImageFix" result="effect1_dropShadow_162_165433"/>
<feBlend mode="normal" in="SourceGraphic" in2="effect1_dropShadow_162_165433" result="shape"/>
</filter>
<filter id="filter10_d_162_165433" x="672.662" y="528.9" width="88.0034" height="88.0033" filterUnits="userSpaceOnUse" color-interpolation-filters="sRGB">
<feFlood flood-opacity="0" result="BackgroundImageFix"/>
<feColorMatrix in="SourceAlpha" type="matrix" values="0 0 0 0 0 0 0 0 0 0 0 0 0 0 0 0 0 0 127 0" result="hardAlpha"/>
<feOffset dy="4"/>
<feGaussianBlur stdDeviation="2"/>
<feComposite in2="hardAlpha" operator="out"/>
<feColorMatrix type="matrix" values="0 0 0 0 0 0 0 0 0 0 0 0 0 0 0 0 0 0 0.25 0"/>
<feBlend mode="normal" in2="BackgroundImageFix" result="effect1_dropShadow_162_165433"/>
<feBlend mode="normal" in="SourceGraphic" in2="effect1_dropShadow_162_165433" result="shape"/>
</filter>
</defs>
</svg>
