<svg width="1000" height="1000" viewBox="0 0 1000 1000" fill="none" xmlns="http://www.w3.org/2000/svg">
<g filter="url(#filter0_d_880_40301)">
<path fill-rule="evenodd" clip-rule="evenodd" d="M553.95 724.815L552.538 722.062C550.227 717.556 546.987 713.58 542.997 710.361C539.008 707.142 534.345 704.742 529.271 703.301C524.197 701.861 518.811 701.409 513.422 701.979C508.032 702.548 502.747 704.127 497.872 706.627C492.997 709.127 488.631 712.497 485.023 716.541C481.416 720.586 478.639 725.222 476.848 730.184C475.056 735.145 474.285 740.332 474.571 745.451C474.856 750.568 476.194 755.52 478.504 760.026L479.916 762.779L474.221 765.699L472.809 762.946C470.114 757.689 468.556 751.916 468.224 745.96C467.891 740.005 468.79 733.985 470.862 728.247C472.934 722.509 476.139 717.162 480.288 712.511C484.438 707.859 489.453 703.989 495.048 701.12C500.643 698.251 506.713 696.436 512.912 695.782C519.111 695.127 525.322 695.644 531.191 697.31C537.061 698.976 542.473 701.759 547.116 705.505C551.758 709.251 555.537 713.884 558.233 719.141L559.645 721.895L553.95 724.815Z" fill="#E40303"/>
<path fill-rule="evenodd" clip-rule="evenodd" d="M548.967 727.37L547.555 724.617C545.52 720.648 542.678 717.139 539.191 714.292C535.704 711.444 531.637 709.313 527.222 708.021C522.806 706.73 518.128 706.305 513.455 706.774C508.781 707.243 504.205 708.596 499.991 710.757C495.776 712.918 492.007 715.844 488.899 719.366C485.791 722.888 483.406 726.935 481.878 731.274C480.349 735.613 479.707 740.159 479.984 744.653C480.261 749.146 481.452 753.501 483.488 757.47L484.9 760.224L479.205 763.144L477.793 760.391C475.378 755.682 473.968 750.519 473.639 745.198C473.311 739.876 474.072 734.503 475.875 729.384C477.678 724.265 480.488 719.501 484.141 715.361C487.794 711.222 492.22 707.787 497.167 705.25C502.113 702.714 507.486 701.124 512.979 700.573C518.472 700.022 523.981 700.521 529.19 702.044C534.399 703.567 539.207 706.085 543.337 709.457C547.466 712.829 550.836 716.988 553.25 721.697L554.662 724.45L548.967 727.37Z" fill="#FF8C00"/>
<path fill-rule="evenodd" clip-rule="evenodd" d="M543.283 730.289L541.87 727.536C540.204 724.292 537.877 721.427 535.018 719.103C532.16 716.778 528.824 715.04 525.199 713.99C521.574 712.94 517.731 712.6 513.889 712.993C510.047 713.386 506.284 714.503 502.817 716.284C499.349 718.064 496.248 720.471 493.69 723.364C491.133 726.258 489.17 729.579 487.911 733.137C486.652 736.694 486.121 740.418 486.344 744.095C486.568 747.772 487.541 751.334 489.207 754.577L490.62 757.33L484.927 760.253L483.513 757.501C481.466 753.515 480.273 749.142 479.999 744.635C479.725 740.127 480.377 735.575 481.912 731.238C483.446 726.901 485.834 722.864 488.936 719.356C492.038 715.847 495.794 712.933 499.99 710.779C504.186 708.624 508.743 707.27 513.401 706.793C518.06 706.317 522.733 706.729 527.152 708.008C531.571 709.288 535.65 711.411 539.154 714.26C542.658 717.109 545.516 720.627 547.563 724.613L548.977 727.365L543.283 730.289Z" fill="#FFED00"/>
<path fill-rule="evenodd" clip-rule="evenodd" d="M537.592 733.207L536.178 730.455C534.852 727.872 532.999 725.59 530.723 723.739C528.446 721.888 525.788 720.503 522.899 719.666C520.01 718.829 516.946 718.558 513.881 718.871C510.817 719.184 507.815 720.076 505.048 721.497C502.281 722.917 499.807 724.837 497.767 727.145C495.727 729.453 494.162 732.102 493.159 734.937C492.155 737.773 491.732 740.739 491.91 743.668C492.088 746.597 492.863 749.432 494.189 752.015L495.603 754.767L489.909 757.691L488.496 754.938C486.789 751.614 485.793 747.967 485.565 744.208C485.337 740.449 485.88 736.653 487.159 733.038C488.439 729.424 490.429 726.06 493.013 723.137C495.597 720.213 498.726 717.786 502.221 715.992C505.716 714.197 509.512 713.068 513.393 712.672C517.275 712.275 521.168 712.618 524.852 713.684C528.535 714.751 531.936 716.521 534.858 718.897C537.781 721.273 540.164 724.207 541.872 727.531L543.285 730.284L537.592 733.207Z" fill="#008026"/>
<path fill-rule="evenodd" clip-rule="evenodd" d="M532.606 735.764L531.193 733.011C530.184 731.046 528.773 729.309 527.04 727.899C525.307 726.49 523.282 725.434 521.08 724.797C518.877 724.159 516.54 723.951 514.201 724.19C511.862 724.429 509.571 725.11 507.458 726.195C505.346 727.279 503.457 728.745 501.9 730.507C500.343 732.268 499.15 734.288 498.385 736.45C497.62 738.611 497.298 740.872 497.434 743.101C497.569 745.331 498.159 747.49 499.168 749.455L500.582 752.207L494.888 755.131L493.475 752.378C492.084 749.671 491.274 746.701 491.088 743.641C490.902 740.581 491.345 737.492 492.385 734.551C493.426 731.61 495.045 728.874 497.146 726.498C499.247 724.121 501.79 722.148 504.631 720.69C507.472 719.231 510.558 718.314 513.713 717.991C516.869 717.668 520.036 717.947 523.032 718.815C526.029 719.683 528.797 721.123 531.176 723.057C533.555 724.991 535.496 727.38 536.886 730.088L538.3 732.84L532.606 735.764Z" fill="#004DFF"/>
<path fill-rule="evenodd" clip-rule="evenodd" d="M528.56 737.838L527.473 735.722C526.697 734.211 525.616 732.874 524.29 731.787C522.964 730.701 521.417 729.884 519.736 729.388C518.055 728.891 516.272 728.724 514.49 728.9C512.708 729.076 510.963 729.59 509.356 730.416C507.749 731.241 506.314 732.359 505.133 733.705C503.952 735.051 503.049 736.597 502.473 738.252C501.896 739.908 501.659 741.64 501.769 743.351C501.88 745.062 502.337 746.72 503.112 748.231L504.199 750.347L499.868 752.57L498.782 750.454C497.713 748.373 497.085 746.093 496.934 743.744C496.782 741.396 497.109 739.028 497.893 736.776C498.676 734.523 499.902 732.43 501.496 730.614C503.089 728.798 505.022 727.293 507.183 726.184C509.344 725.074 511.693 724.38 514.098 724.143C516.503 723.906 518.918 724.13 521.205 724.806C523.492 725.481 525.608 726.595 527.427 728.087C529.248 729.578 530.735 731.417 531.804 733.498L532.891 735.614L528.56 737.838Z" fill="#750787"/>
</g>
<g filter="url(#filter1_d_880_40301)">
<path fill-rule="evenodd" clip-rule="evenodd" d="M651.96 388.983L651.159 385.994C649.848 381.103 647.517 376.535 644.294 372.548C641.072 368.562 637.019 365.233 632.361 362.758C627.704 360.281 622.534 358.707 617.145 358.129C611.756 357.552 606.258 357.983 600.966 359.401C595.674 360.819 590.696 363.195 586.318 366.389C581.94 369.584 578.25 373.532 575.455 378.006C572.659 382.478 570.813 387.388 570.016 392.451C569.218 397.515 569.483 402.637 570.794 407.528L571.595 410.517L565.413 412.173L564.612 409.184C563.083 403.478 562.775 397.507 563.703 391.614C564.632 385.722 566.777 380.027 570.01 374.852C573.244 369.679 577.502 365.127 582.538 361.452C587.573 357.778 593.291 355.051 599.364 353.423C605.437 351.796 611.753 351.299 617.951 351.963C624.149 352.628 630.112 354.441 635.499 357.305C640.887 360.169 645.592 364.028 649.342 368.667C653.093 373.306 655.812 378.631 657.341 384.338L658.142 387.327L651.96 388.983Z" fill="#E40303"/>
<path fill-rule="evenodd" clip-rule="evenodd" d="M646.55 390.432L645.75 387.444C644.595 383.135 642.556 379.107 639.746 375.589C636.936 372.072 633.409 369.132 629.364 366.941C625.319 364.749 620.835 363.349 616.168 362.824C611.5 362.298 606.742 362.658 602.167 363.884C597.592 365.11 593.291 367.177 589.512 369.966C585.732 372.755 582.549 376.209 580.142 380.13C577.735 384.05 576.15 388.359 575.475 392.81C574.801 397.262 575.048 401.77 576.203 406.079L577.004 409.067L570.822 410.724L570.021 407.735C568.652 402.624 568.359 397.28 569.158 392.008C569.957 386.737 571.832 381.644 574.672 377.019C577.512 372.394 581.261 368.328 585.703 365.05C590.146 361.772 595.196 359.345 600.565 357.907C605.935 356.468 611.522 356.044 617.008 356.662C622.494 357.28 627.774 358.926 632.546 361.511C637.318 364.097 641.488 367.57 644.816 371.736C648.143 375.901 650.562 380.676 651.932 385.787L652.732 388.776L646.55 390.432Z" fill="#FF8C00"/>
<path fill-rule="evenodd" clip-rule="evenodd" d="M640.38 392.089L639.578 389.101C638.632 385.579 636.96 382.288 634.655 379.414C632.349 376.541 629.454 374.139 626.132 372.35C622.809 370.561 619.123 369.42 615.285 368.995C611.446 368.57 607.532 368.871 603.768 369.882C600.003 370.893 596.465 372.593 593.355 374.883C590.246 377.174 587.628 380.008 585.649 383.221C583.669 386.434 582.367 389.962 581.811 393.604C581.256 397.246 581.458 400.932 582.403 404.454L583.206 407.442L577.025 409.102L576.222 406.113C575.06 401.786 574.813 397.261 575.495 392.796C576.175 388.332 577.77 384.019 580.183 380.102C582.597 376.185 585.781 372.741 589.551 369.964C593.322 367.187 597.607 365.129 602.163 363.905C606.718 362.682 611.458 362.317 616.112 362.832C620.767 363.347 625.248 364.732 629.299 366.913C633.35 369.094 636.891 372.028 639.717 375.551C642.543 379.074 644.597 383.114 645.759 387.441L646.562 390.43L640.38 392.089Z" fill="#FFED00"/>
<path fill-rule="evenodd" clip-rule="evenodd" d="M634.202 393.745L633.399 390.756C632.646 387.953 631.315 385.332 629.479 383.043C627.643 380.754 625.336 378.841 622.688 377.415C620.039 375.989 617.101 375.079 614.039 374.74C610.977 374.401 607.855 374.641 604.851 375.448C601.847 376.254 599.025 377.611 596.545 379.438C594.064 381.264 591.977 383.524 590.399 386.085C588.822 388.646 587.784 391.457 587.342 394.358C586.899 397.258 587.06 400.194 587.813 402.997L588.616 405.986L582.435 407.645L581.632 404.657C580.663 401.048 580.457 397.273 581.025 393.55C581.593 389.827 582.923 386.231 584.934 382.966C586.946 379.702 589.599 376.832 592.741 374.518C595.882 372.204 599.452 370.49 603.246 369.471C607.041 368.452 610.989 368.148 614.867 368.577C618.745 369.006 622.479 370.16 625.855 371.978C629.232 373.796 632.184 376.242 634.541 379.18C636.898 382.118 638.611 385.487 639.58 389.097L640.383 392.085L634.202 393.745Z" fill="#008026"/>
<path fill-rule="evenodd" clip-rule="evenodd" d="M628.791 395.195L627.988 392.206C627.415 390.073 626.402 388.078 625.004 386.335C623.606 384.593 621.849 383.135 619.83 382.048C617.811 380.961 615.57 380.266 613.233 380.007C610.896 379.749 608.513 379.932 606.219 380.548C603.926 381.164 601.771 382.199 599.878 383.594C597.985 384.988 596.394 386.712 595.191 388.664C593.988 390.616 593.198 392.758 592.861 394.966C592.524 397.175 592.647 399.409 593.22 401.543L594.022 404.531L587.841 406.191L587.039 403.202C586.249 400.263 586.082 397.189 586.544 394.158C587.007 391.128 588.089 388.201 589.726 385.545C591.362 382.889 593.52 380.555 596.074 378.674C598.628 376.793 601.53 375.399 604.614 374.571C607.698 373.743 610.908 373.496 614.061 373.844C617.214 374.193 620.251 375.132 622.998 376.611C625.744 378.09 628.148 380.08 630.066 382.472C631.985 384.864 633.38 387.607 634.169 390.547L634.972 393.535L628.791 395.195Z" fill="#004DFF"/>
<path fill-rule="evenodd" clip-rule="evenodd" d="M624.398 396.371L623.781 394.074C623.34 392.434 622.565 390.899 621.497 389.557C620.43 388.216 619.089 387.092 617.55 386.253C616.011 385.414 614.303 384.876 612.524 384.673C610.745 384.469 608.931 384.605 607.186 385.074C605.442 385.542 603.804 386.333 602.366 387.4C600.928 388.468 599.719 389.789 598.808 391.286C597.896 392.783 597.299 394.427 597.047 396.123C596.795 397.819 596.893 399.535 597.333 401.176L597.95 403.473L593.248 404.735L592.631 402.438C592.025 400.178 591.891 397.817 592.237 395.489C592.583 393.162 593.401 390.916 594.641 388.879C595.881 386.842 597.519 385.054 599.46 383.613C601.4 382.174 603.606 381.109 605.952 380.479C608.298 379.849 610.741 379.665 613.142 379.94C615.543 380.214 617.856 380.941 619.95 382.083C622.044 383.225 623.878 384.759 625.343 386.6C626.808 388.441 627.876 390.552 628.483 392.811L629.1 395.109L624.398 396.371Z" fill="#750787"/>
</g>
<g filter="url(#filter2_d_880_40301)">
<path fill-rule="evenodd" clip-rule="evenodd" d="M276.238 542.775L276.732 539.72C277.541 534.722 277.287 529.599 275.981 524.642C274.675 519.685 272.341 514.988 269.108 510.821C265.874 506.654 261.803 503.099 257.125 500.363C252.446 497.628 247.253 495.769 241.845 494.893C236.436 494.018 230.923 494.145 225.62 495.265C220.317 496.385 215.333 498.475 210.95 501.41C206.567 504.344 202.872 508.066 200.069 512.358C197.266 516.65 195.409 521.431 194.601 526.429L194.106 529.484L187.788 528.462L188.283 525.407C189.226 519.575 191.393 514.002 194.654 509.007C197.916 504.013 202.206 499.697 207.276 496.303C212.346 492.908 218.095 490.501 224.195 489.213C230.294 487.925 236.627 487.78 242.833 488.784C249.04 489.789 255.005 491.923 260.386 495.069C265.768 498.215 270.465 502.313 274.205 507.133C277.945 511.953 280.656 517.402 282.176 523.17C283.696 528.939 283.994 534.91 283.05 540.742L282.556 543.797L276.238 542.775Z" fill="#E40303"/>
<path fill-rule="evenodd" clip-rule="evenodd" d="M270.711 541.88L271.205 538.825C271.917 534.422 271.708 529.912 270.586 525.552C269.464 521.192 267.452 517.065 264.66 513.408C261.869 509.752 258.352 506.637 254.31 504.245C250.267 501.853 245.78 500.232 241.104 499.475C236.428 498.718 231.659 498.842 227.068 499.837C222.478 500.832 218.159 502.679 214.356 505.268C210.554 507.858 207.343 511.139 204.903 514.923C202.463 518.707 200.842 522.92 200.129 527.324L199.635 530.378L193.317 529.356L193.812 526.302C194.657 521.078 196.58 516.083 199.469 511.602C202.358 507.121 206.155 503.244 210.641 500.189C215.127 497.134 220.213 494.961 225.609 493.792C231.004 492.622 236.605 492.478 242.093 493.366C247.58 494.254 252.85 496.157 257.601 498.969C262.353 501.78 266.494 505.446 269.788 509.76C273.081 514.074 275.462 518.951 276.79 524.114C278.118 529.278 278.368 534.624 277.523 539.848L277.028 542.902L270.711 541.88Z" fill="#FF8C00"/>
<path fill-rule="evenodd" clip-rule="evenodd" d="M264.402 540.863L264.895 537.808C265.475 534.208 265.299 530.52 264.374 526.955C263.448 523.388 261.792 520.012 259.494 517.018C257.196 514.024 254.302 511.473 250.975 509.512C247.647 507.552 243.954 506.223 240.105 505.602C236.257 504.981 232.333 505.082 228.558 505.897C224.783 506.712 221.234 508.224 218.112 510.344C214.989 512.464 212.355 515.149 210.356 518.243C208.357 521.337 207.03 524.782 206.45 528.382L205.958 531.437L199.639 530.418L200.132 527.363C200.845 522.94 202.475 518.711 204.925 514.917C207.376 511.124 210.598 507.843 214.404 505.259C218.211 502.676 222.526 500.839 227.104 499.851C231.682 498.863 236.434 498.741 241.09 499.492C245.747 500.243 250.22 501.852 254.255 504.23C258.29 506.607 261.81 509.707 264.611 513.356C267.412 517.006 269.44 521.134 270.574 525.505C271.709 529.876 271.926 534.404 271.213 538.827L270.721 541.882L264.402 540.863Z" fill="#FFED00"/>
<path fill-rule="evenodd" clip-rule="evenodd" d="M258.088 539.841L258.58 536.786C259.043 533.92 258.902 530.984 258.165 528.144C257.428 525.304 256.109 522.613 254.277 520.227C252.446 517.841 250.138 515.806 247.484 514.243C244.83 512.679 241.883 511.618 238.813 511.123C235.743 510.628 232.612 510.708 229.601 511.358C226.59 512.008 223.76 513.215 221.271 514.904C218.783 516.593 216.684 518.733 215.092 521.197C213.5 523.662 212.444 526.405 211.982 529.271L211.489 532.326L205.171 531.307L205.663 528.252C206.258 524.562 207.617 521.035 209.661 517.872C211.705 514.708 214.391 511.973 217.564 509.819C220.737 507.666 224.333 506.135 228.147 505.312C231.961 504.489 235.919 504.388 239.798 505.013C243.677 505.639 247.403 506.979 250.765 508.96C254.126 510.94 257.06 513.524 259.394 516.565C261.729 519.607 263.42 523.049 264.366 526.694C265.312 530.34 265.494 534.116 264.899 537.805L264.406 540.86L258.088 539.841Z" fill="#008026"/>
<path fill-rule="evenodd" clip-rule="evenodd" d="M252.558 538.946L253.05 535.891C253.402 533.71 253.295 531.475 252.734 529.313C252.173 527.15 251.168 525.1 249.772 523.281C248.375 521.462 246.616 519.91 244.59 518.717C242.564 517.524 240.315 516.714 237.971 516.336C235.626 515.958 233.237 516.019 230.939 516.515C228.641 517.011 226.482 517.932 224.585 519.22C222.688 520.507 221.089 522.137 219.877 524.014C218.665 525.89 217.861 527.978 217.509 530.159L217.017 533.214L210.699 532.195L211.191 529.14C211.676 526.136 212.782 523.264 214.446 520.688C216.11 518.113 218.297 515.887 220.878 514.135C223.459 512.383 226.384 511.138 229.485 510.469C232.585 509.8 235.803 509.718 238.956 510.226C242.109 510.735 245.138 511.824 247.871 513.434C250.604 515.044 252.989 517.145 254.889 519.62C256.789 522.095 258.165 524.895 258.935 527.863C259.705 530.831 259.853 533.906 259.369 536.91L258.876 539.965L252.558 538.946Z" fill="#004DFF"/>
<path fill-rule="evenodd" clip-rule="evenodd" d="M248.069 538.219L248.447 535.87C248.718 534.194 248.639 532.476 248.215 530.815C247.791 529.154 247.029 527.579 245.969 526.183C244.909 524.787 243.572 523.596 242.032 522.682C240.492 521.767 238.782 521.148 236.998 520.86C235.215 520.573 233.397 520.623 231.648 521.007C229.899 521.391 228.255 522.101 226.81 523.093C225.365 524.086 224.146 525.34 223.222 526.784C222.297 528.228 221.683 529.834 221.412 531.51L221.034 533.859L216.227 533.084L216.606 530.735C216.978 528.425 217.824 526.217 219.093 524.235C220.363 522.254 222.029 520.54 223.996 519.19C225.962 517.84 228.189 516.88 230.549 516.362C232.909 515.844 235.358 515.777 237.756 516.163C240.154 516.55 242.457 517.384 244.535 518.618C246.612 519.852 248.425 521.463 249.867 523.363C251.309 525.262 252.353 527.413 252.935 529.693C253.517 531.973 253.626 534.336 253.254 536.645L252.875 538.994L248.069 538.219Z" fill="#750787"/>
</g>
<g filter="url(#filter3_d_880_40301)">
<path fill-rule="evenodd" clip-rule="evenodd" d="M740.096 486.272L740.886 483.28C742.18 478.385 742.428 473.262 741.613 468.201C740.799 463.14 738.936 458.237 736.125 453.774C733.315 449.31 729.611 445.374 725.223 442.194C720.834 439.015 715.848 436.656 710.551 435.256C705.254 433.856 699.755 433.443 694.368 434.039C688.981 434.635 683.816 436.227 679.167 438.719C674.518 441.211 670.477 444.553 667.267 448.55C664.058 452.547 661.743 457.124 660.449 462.019L659.658 465.011L653.471 463.375L654.261 460.384C655.771 454.672 658.472 449.338 662.206 444.686C665.941 440.035 670.633 436.159 676.011 433.277C681.388 430.395 687.345 428.562 693.541 427.876C699.737 427.191 706.054 427.666 712.133 429.273C718.212 430.88 723.938 433.588 728.986 437.245C734.034 440.902 738.308 445.44 741.559 450.602C744.81 455.765 746.975 461.453 747.923 467.342C748.871 473.232 748.584 479.204 747.074 484.916L746.283 487.907L740.096 486.272Z" fill="#E40303"/>
<path fill-rule="evenodd" clip-rule="evenodd" d="M734.682 484.841L735.472 481.849C736.612 477.537 736.845 473.028 736.155 468.579C735.465 464.13 733.866 459.826 731.445 455.914C729.025 452.002 725.83 448.558 722.041 445.782C718.252 443.006 713.945 440.954 709.365 439.743C704.786 438.533 700.027 438.189 695.361 438.73C690.695 439.272 686.216 440.687 682.179 442.892C678.141 445.097 674.625 448.049 671.827 451.576C669.029 455.103 667.003 459.138 665.863 463.45L665.072 466.442L658.885 464.806L659.675 461.815C661.027 456.699 663.43 451.916 666.743 447.739C670.057 443.563 674.215 440.075 678.978 437.474C683.741 434.872 689.016 433.208 694.5 432.571C699.984 431.935 705.572 432.34 710.947 433.76C716.321 435.181 721.379 437.59 725.833 440.853C730.286 444.116 734.049 448.169 736.905 452.784C739.761 457.4 741.653 462.486 742.47 467.755C743.287 473.024 743.012 478.369 741.66 483.485L740.869 486.476L734.682 484.841Z" fill="#FF8C00"/>
<path fill-rule="evenodd" clip-rule="evenodd" d="M728.504 483.211L729.293 480.219C730.223 476.694 730.408 473.006 729.836 469.367C729.264 465.728 727.945 462.205 725.951 459.001C723.957 455.797 721.327 452.974 718.207 450.698C715.087 448.421 711.542 446.737 707.773 445.743C704.004 444.749 700.088 444.466 696.252 444.907C692.415 445.349 688.735 446.507 685.421 448.311C682.106 450.115 679.222 452.529 676.93 455.413C674.637 458.297 672.98 461.596 672.05 465.122L671.261 468.114L665.073 466.482L665.862 463.49C667.005 459.157 669.04 455.108 671.85 451.573C674.66 448.037 678.188 445.087 682.229 442.888C686.269 440.689 690.744 439.283 695.396 438.748C700.048 438.212 704.79 438.556 709.351 439.759C713.911 440.962 718.206 443.001 721.989 445.761C725.772 448.522 728.972 451.952 731.402 455.857C733.833 459.763 735.448 464.07 736.149 468.531C736.85 472.992 736.624 477.519 735.481 481.852L734.692 484.844L728.504 483.211Z" fill="#FFED00"/>
<path fill-rule="evenodd" clip-rule="evenodd" d="M722.32 481.577L723.109 478.585C723.85 475.778 723.997 472.842 723.542 469.943C723.086 467.045 722.036 464.238 720.447 461.684C718.857 459.13 716.76 456.88 714.271 455.064C711.783 453.248 708.954 451.904 705.947 451.111C702.94 450.318 699.816 450.092 696.756 450.444C693.696 450.797 690.762 451.72 688.12 453.158C685.478 454.596 683.18 456.52 681.354 458.817C679.529 461.114 678.209 463.741 677.469 466.548L676.68 469.54L670.492 467.907L671.281 464.915C672.234 461.302 673.931 457.924 676.275 454.976C678.618 452.028 681.559 449.568 684.928 447.735C688.296 445.902 692.025 444.731 695.901 444.285C699.776 443.839 703.726 444.125 707.525 445.127C711.324 446.129 714.901 447.828 718.053 450.128C721.205 452.427 723.871 455.285 725.897 458.541C727.924 461.797 729.27 465.387 729.855 469.107C730.439 472.828 730.251 476.603 729.298 480.217L728.509 483.209L722.32 481.577Z" fill="#008026"/>
<path fill-rule="evenodd" clip-rule="evenodd" d="M716.903 480.145L717.692 477.153C718.256 475.017 718.368 472.782 718.021 470.575C717.674 468.368 716.875 466.23 715.663 464.283C714.451 462.336 712.852 460.62 710.953 459.234C709.054 457.848 706.894 456.822 704.598 456.217C702.302 455.611 699.918 455.439 697.582 455.707C695.247 455.976 693.009 456.681 690.995 457.777C688.981 458.873 687.23 460.339 685.84 462.088C684.45 463.837 683.446 465.836 682.883 467.972L682.094 470.964L675.905 469.332L676.694 466.34C677.47 463.397 678.853 460.647 680.761 458.247C682.668 455.847 685.062 453.846 687.803 452.354C690.543 450.863 693.575 449.911 696.727 449.548C699.878 449.185 703.088 449.418 706.176 450.233C709.264 451.047 712.172 452.428 714.734 454.297C717.297 456.167 719.466 458.491 721.114 461.14C722.762 463.789 723.858 466.71 724.334 469.739C724.81 472.768 724.657 475.843 723.881 478.785L723.092 481.777L716.903 480.145Z" fill="#004DFF"/>
<path fill-rule="evenodd" clip-rule="evenodd" d="M712.507 478.982L713.114 476.682C713.547 475.04 713.637 473.323 713.377 471.628C713.118 469.934 712.513 468.292 711.595 466.799C710.676 465.306 709.462 463.99 708.019 462.929C706.577 461.869 704.935 461.085 703.188 460.624C701.442 460.163 699.627 460.036 697.849 460.247C696.07 460.458 694.365 461.004 692.83 461.85C691.295 462.696 689.96 463.826 688.898 465.172C687.836 466.518 687.068 468.056 686.635 469.699L686.028 471.999L681.321 470.757L681.928 468.457C682.524 466.195 683.582 464.079 685.039 462.231C686.496 460.384 688.322 458.842 690.411 457.69C692.5 456.539 694.81 455.802 697.21 455.517C699.609 455.232 702.052 455.404 704.401 456.024C706.75 456.643 708.961 457.698 710.908 459.13C712.855 460.561 714.501 462.342 715.75 464.373C717 466.405 717.828 468.647 718.185 470.973C718.541 473.299 718.418 475.661 717.821 477.924L717.215 480.224L712.507 478.982Z" fill="#750787"/>
</g>
<g filter="url(#filter4_d_880_40301)">
<path fill-rule="evenodd" clip-rule="evenodd" d="M817.076 543.502L816.721 540.428C816.139 535.398 814.501 530.537 811.896 526.123C809.29 521.708 805.767 517.823 801.522 514.693C797.277 511.562 792.392 509.249 787.146 507.89C781.899 506.53 776.397 506.153 770.955 506.782C765.512 507.412 760.241 509.034 755.443 511.554C750.645 514.074 746.417 517.441 742.998 521.458C739.578 525.474 737.035 530.06 735.505 534.953C733.976 539.845 733.49 544.952 734.071 549.981L734.426 553.055L728.069 553.79L727.713 550.716C727.035 544.847 727.603 538.896 729.383 533.202C731.163 527.508 734.118 522.188 738.073 517.542C742.028 512.897 746.906 509.017 752.424 506.118C757.943 503.219 763.998 501.357 770.244 500.635C776.49 499.913 782.81 500.345 788.844 501.908C794.879 503.471 800.513 506.137 805.424 509.757C810.334 513.378 814.425 517.884 817.457 523.021C820.489 528.159 822.4 533.824 823.078 539.693L823.434 542.767L817.076 543.502Z" fill="#E40303"/>
<path fill-rule="evenodd" clip-rule="evenodd" d="M811.513 544.145L811.158 541.071C810.646 536.64 809.217 532.357 806.952 528.466C804.686 524.576 801.627 521.152 797.946 518.393C794.265 515.634 790.034 513.593 785.493 512.391C780.952 511.189 776.193 510.849 771.488 511.393C766.783 511.937 762.226 513.353 758.08 515.56C753.933 517.766 750.279 520.718 747.324 524.244C744.37 527.77 742.173 531.802 740.854 536.106C739.536 540.411 739.122 544.907 739.634 549.338L739.99 552.412L733.632 553.147L733.277 550.073C732.669 544.817 733.161 539.487 734.722 534.389C736.283 529.291 738.882 524.527 742.368 520.367C745.853 516.207 750.157 512.733 755.031 510.139C759.905 507.546 765.255 505.884 770.777 505.246C776.3 504.607 781.888 505.005 787.225 506.418C792.562 507.831 797.545 510.232 801.887 513.487C806.23 516.742 809.848 520.788 812.531 525.395C815.214 530.003 816.908 535.08 817.516 540.336L817.871 543.41L811.513 544.145Z" fill="#FF8C00"/>
<path fill-rule="evenodd" clip-rule="evenodd" d="M805.166 544.882L804.809 541.808C804.388 538.186 803.215 534.686 801.355 531.506C799.494 528.326 796.982 525.527 793.956 523.272C790.93 521.016 787.451 519.348 783.716 518.367C779.981 517.385 776.065 517.111 772.193 517.561C768.321 518.01 764.573 519.175 761.162 520.986C757.751 522.797 754.747 525.218 752.319 528.107C749.891 530.996 748.087 534.296 747.005 537.818C745.923 541.339 745.584 545.015 746.004 548.637L746.361 551.711L740.004 552.449L739.647 549.376C739.13 544.925 739.548 540.412 740.874 536.095C742.2 531.778 744.409 527.744 747.368 524.223C750.328 520.701 753.982 517.759 758.118 515.563C762.254 513.367 766.794 511.958 771.479 511.413C776.164 510.869 780.907 511.201 785.436 512.391C789.966 513.581 794.196 515.606 797.884 518.356C801.573 521.106 804.647 524.526 806.928 528.424C809.208 532.322 810.649 536.619 811.166 541.07L811.523 544.143L805.166 544.882Z" fill="#FFED00"/>
<path fill-rule="evenodd" clip-rule="evenodd" d="M798.813 545.616L798.456 542.543C798.121 539.659 797.187 536.871 795.705 534.339C794.223 531.807 792.221 529.576 789.81 527.779C787.398 525.981 784.624 524.65 781.645 523.868C778.666 523.085 775.542 522.866 772.452 523.225C769.363 523.584 766.372 524.513 763.652 525.957C760.931 527.402 758.536 529.333 756.601 531.635C754.666 533.938 753.228 536.567 752.366 539.372C751.505 542.177 751.235 545.104 751.57 547.988L751.927 551.061L745.57 551.799L745.212 548.726C744.781 545.014 745.13 541.249 746.236 537.649C747.342 534.049 749.183 530.686 751.65 527.751C754.117 524.815 757.162 522.364 760.608 520.535C764.053 518.705 767.835 517.531 771.738 517.078C775.641 516.624 779.591 516.901 783.365 517.892C787.138 518.883 790.664 520.571 793.738 522.863C796.813 525.155 799.376 528.007 801.278 531.257C803.18 534.508 804.382 538.092 804.813 541.804L805.17 544.878L798.813 545.616Z" fill="#008026"/>
<path fill-rule="evenodd" clip-rule="evenodd" d="M793.247 546.259L792.89 543.186C792.635 540.991 791.924 538.87 790.796 536.942C789.668 535.013 788.143 533.314 786.305 531.944C784.466 530.573 782.351 529.558 780.077 528.961C777.803 528.364 775.418 528.196 773.06 528.47C770.701 528.744 768.418 529.453 766.342 530.556C764.265 531.658 762.439 533.131 760.963 534.887C759.488 536.642 758.393 538.645 757.737 540.781C757.081 542.916 756.876 545.144 757.131 547.339L757.488 550.412L751.13 551.151L750.773 548.077C750.422 545.054 750.706 541.989 751.606 539.058C752.507 536.127 754.005 533.39 756.013 531.002C758.02 528.614 760.496 526.621 763.298 525.133C766.099 523.646 769.173 522.691 772.345 522.323C775.518 521.955 778.729 522.179 781.797 522.985C784.865 523.791 787.732 525.163 790.233 527.028C792.734 528.893 794.821 531.213 796.369 533.86C797.917 536.506 798.896 539.424 799.247 542.448L799.604 545.521L793.247 546.259Z" fill="#004DFF"/>
<path fill-rule="evenodd" clip-rule="evenodd" d="M788.73 546.781L788.455 544.418C788.259 542.731 787.716 541.1 786.856 539.616C785.996 538.133 784.834 536.826 783.435 535.771C782.035 534.715 780.424 533.933 778.694 533.472C776.963 533.011 775.149 532.88 773.355 533.088C771.56 533.297 769.824 533.84 768.245 534.686C766.667 535.531 765.278 536.661 764.158 538.009C763.037 539.357 762.206 540.896 761.709 542.537C761.212 544.178 761.057 545.89 761.253 547.577L761.528 549.94L756.692 550.501L756.418 548.139C756.148 545.815 756.361 543.459 757.043 541.207C757.725 538.955 758.863 536.853 760.388 535.019C761.912 533.185 763.795 531.655 765.925 530.515C768.055 529.374 770.393 528.643 772.806 528.363C775.219 528.083 777.662 528.258 779.997 528.88C782.332 529.503 784.514 530.56 786.419 531.996C788.323 533.432 789.913 535.217 791.093 537.253C792.274 539.288 793.021 541.532 793.291 543.856L793.565 546.219L788.73 546.781Z" fill="#750787"/>
</g>
<g filter="url(#filter5_d_880_40301)">
<path fill-rule="evenodd" clip-rule="evenodd" d="M463.6 338.437L463.6 335.343C463.6 330.279 462.531 325.263 460.45 320.578C458.368 315.894 455.315 311.63 451.457 308.033C447.599 304.435 443.013 301.576 437.957 299.624C432.901 297.671 427.479 296.665 422 296.665C416.521 296.665 411.099 297.671 406.043 299.624C400.987 301.576 396.401 304.435 392.543 308.033C388.685 311.63 385.632 315.894 383.55 320.578C381.469 325.263 380.4 330.279 380.4 335.343L380.4 338.437L374 338.437L374 335.343C374 329.435 375.248 323.588 377.67 318.136C380.092 312.684 383.638 307.739 388.1 303.578C392.563 299.417 397.854 296.122 403.669 293.877C409.484 291.631 415.712 290.476 422 290.476C428.288 290.476 434.516 291.631 440.331 293.877C446.146 296.122 451.437 299.417 455.9 303.578C460.362 307.739 463.908 312.684 466.33 318.136C468.752 323.588 470 329.435 470 335.343L470 338.437L463.6 338.437Z" fill="#E40303"/>
<path fill-rule="evenodd" clip-rule="evenodd" d="M458 338.437L458 335.343C458 330.882 457.073 326.463 455.269 322.338C453.465 318.213 450.82 314.461 447.48 311.298C444.14 308.134 440.171 305.621 435.798 303.905C431.426 302.19 426.737 301.306 422 301.306C417.264 301.306 412.575 302.19 408.202 303.905C403.83 305.621 399.861 308.134 396.521 311.298C393.181 314.461 390.535 318.213 388.732 322.338C386.928 326.463 386 330.882 386 335.343L386 338.437L379.6 338.437L379.6 335.343C379.6 330.051 380.701 324.813 382.837 319.928C384.973 315.043 388.102 310.609 392.043 306.877C395.983 303.145 400.657 300.187 405.796 298.171C410.935 296.155 416.441 295.117 422 295.117C427.559 295.117 433.065 296.155 438.205 298.171C443.344 300.187 448.018 303.145 451.958 306.877C455.899 310.609 459.028 315.043 461.164 319.928C463.3 324.813 464.4 330.051 464.4 335.343L464.4 338.437L458 338.437Z" fill="#FF8C00"/>
<path fill-rule="evenodd" clip-rule="evenodd" d="M451.611 338.44L451.609 335.346C451.607 331.7 450.844 328.088 449.361 324.715C447.878 321.343 445.703 318.274 442.956 315.686C440.21 313.098 436.945 311.041 433.347 309.638C429.749 308.234 425.891 307.512 421.993 307.514C418.095 307.516 414.238 308.242 410.641 309.65C407.045 311.057 403.783 313.117 401.039 315.708C398.296 318.299 396.124 321.37 394.645 324.745C393.166 328.118 392.407 331.731 392.409 335.378L392.411 338.472L386.011 338.475L386.009 335.381C386.006 330.901 386.939 326.465 388.753 322.329C390.566 318.193 393.223 314.44 396.568 311.281C399.912 308.122 403.879 305.62 408.24 303.913C412.601 302.207 417.273 301.328 421.99 301.325C426.706 301.323 431.379 302.197 435.742 303.899C440.105 305.601 444.075 308.099 447.423 311.254C450.771 314.409 453.432 318.16 455.25 322.294C457.068 326.428 458.006 330.862 458.009 335.343L458.011 338.437L451.611 338.44Z" fill="#FFED00"/>
<path fill-rule="evenodd" clip-rule="evenodd" d="M445.214 338.44L445.212 335.346C445.211 332.443 444.603 329.567 443.422 326.881C442.241 324.195 440.508 321.75 438.319 319.687C436.13 317.624 433.527 315.984 430.657 314.865C427.788 313.745 424.709 313.169 421.599 313.17C418.489 313.172 415.412 313.751 412.543 314.874C409.675 315.997 407.074 317.64 404.887 319.705C402.7 321.77 400.97 324.217 399.792 326.904C398.614 329.591 398.01 332.468 398.012 335.371L398.013 338.466L391.613 338.469L391.612 335.375C391.609 331.637 392.388 327.938 393.9 324.489C395.412 321.04 397.627 317.911 400.415 315.278C403.203 312.645 406.509 310.56 410.142 309.138C413.775 307.716 417.667 306.984 421.596 306.982C425.525 306.98 429.417 307.707 433.052 309.126C436.687 310.544 439.995 312.625 442.786 315.255C445.577 317.885 447.796 321.012 449.312 324.459C450.828 327.907 451.61 331.605 451.612 335.343L451.614 338.437L445.214 338.44Z" fill="#008026"/>
<path fill-rule="evenodd" clip-rule="evenodd" d="M439.613 338.44L439.611 335.346C439.61 333.137 439.147 330.948 438.248 328.903C437.349 326.857 436.029 324.994 434.36 323.422C432.691 321.849 430.706 320.598 428.516 319.744C426.326 318.889 423.976 318.449 421.601 318.451C419.227 318.452 416.877 318.894 414.688 319.751C412.499 320.608 410.515 321.861 408.848 323.436C407.181 325.01 405.864 326.874 404.967 328.92C404.07 330.966 403.61 333.156 403.611 335.365L403.613 338.46L397.213 338.463L397.211 335.369C397.209 332.325 397.843 329.313 399.074 326.505C400.305 323.697 402.108 321.15 404.376 319.008C406.644 316.866 409.333 315.171 412.287 314.015C415.241 312.859 418.404 312.264 421.598 312.262C424.791 312.26 427.955 312.852 430.911 314.005C433.866 315.158 436.556 316.851 438.827 318.99C441.097 321.13 442.903 323.674 444.138 326.481C445.372 329.288 446.009 332.299 446.011 335.343L446.013 338.437L439.613 338.44Z" fill="#004DFF"/>
<path fill-rule="evenodd" clip-rule="evenodd" d="M435.064 338.439L435.063 336.061C435.062 334.362 434.71 332.679 434.026 331.107C433.342 329.535 432.338 328.103 431.069 326.894C429.799 325.685 428.289 324.723 426.623 324.066C424.957 323.41 423.17 323.071 421.363 323.072C419.557 323.073 417.77 323.413 416.105 324.072C414.439 324.731 412.93 325.694 411.662 326.904C410.394 328.115 409.392 329.548 408.71 331.121C408.027 332.694 407.677 334.377 407.678 336.075L407.68 338.454L402.811 338.457L402.81 336.078C402.809 333.738 403.291 331.423 404.227 329.264C405.164 327.105 406.535 325.148 408.261 323.501C409.986 321.854 412.031 320.551 414.278 319.662C416.525 318.773 418.931 318.316 421.361 318.315C423.79 318.313 426.197 318.768 428.445 319.655C430.693 320.541 432.739 321.842 434.466 323.487C436.194 325.132 437.567 327.088 438.506 329.246C439.445 331.403 439.93 333.719 439.931 336.058L439.933 338.437L435.064 338.439Z" fill="#750787"/>
</g>
<g filter="url(#filter6_d_880_40301)">
<path fill-rule="evenodd" clip-rule="evenodd" d="M627.811 534.162L629.373 531.491C631.929 527.12 633.539 522.25 634.108 517.156C634.677 512.061 634.194 506.839 632.68 501.787C631.166 496.734 628.65 491.95 625.272 487.712C621.894 483.474 617.721 479.868 612.992 477.101C608.263 474.335 603.074 472.466 597.724 471.599C592.374 470.732 586.972 470.884 581.826 472.042C576.68 473.199 571.891 475.338 567.729 478.331C563.568 481.324 560.112 485.114 557.556 489.485L555.993 492.155L550.469 488.924L552.031 486.253C555.014 481.154 559.044 476.737 563.887 473.254C568.729 469.771 574.287 467.292 580.24 465.953C586.192 464.615 592.423 464.442 598.577 465.44C604.73 466.437 610.689 468.585 616.117 471.76C621.544 474.934 626.338 479.075 630.223 483.95C634.109 488.825 637.012 494.34 638.764 500.184C640.515 506.029 641.079 512.088 640.417 518.017C639.755 523.945 637.88 529.623 634.897 534.722L633.335 537.393L627.811 534.162Z" fill="#E40303"/>
<path fill-rule="evenodd" clip-rule="evenodd" d="M622.977 531.335L624.539 528.664C626.791 524.813 628.221 520.531 628.747 516.059C629.272 511.588 628.883 507.013 627.597 502.596C626.312 498.179 624.155 494.006 621.247 490.318C618.338 486.629 614.737 483.499 610.649 481.108C606.56 478.716 602.067 477.112 597.426 476.385C592.786 475.658 588.091 475.824 583.611 476.868C579.131 477.913 574.952 479.816 571.313 482.466C567.673 485.116 564.642 488.461 562.389 492.312L560.827 494.983L555.303 491.752L556.865 489.081C559.537 484.513 563.131 480.547 567.441 477.409C571.751 474.271 576.691 472.023 581.977 470.791C587.262 469.559 592.79 469.366 598.244 470.22C603.698 471.075 608.975 472.959 613.773 475.766C618.572 478.573 622.801 482.248 626.219 486.583C629.637 490.918 632.179 495.831 633.695 501.042C635.212 506.253 635.674 511.66 635.052 516.955C634.43 522.25 632.735 527.327 630.063 531.895L628.501 534.566L622.977 531.335Z" fill="#FF8C00"/>
<path fill-rule="evenodd" clip-rule="evenodd" d="M617.46 528.112L619.021 525.44C620.86 522.291 622.025 518.788 622.447 515.128C622.87 511.469 622.542 507.721 621.478 504.101C620.414 500.48 618.634 497.057 616.238 494.029C613.841 491 610.875 488.429 607.509 486.463C604.143 484.496 600.447 483.176 596.632 482.575C592.817 481.974 588.961 482.105 585.285 482.957C581.608 483.808 578.183 485.363 575.203 487.529C572.223 489.694 569.743 492.429 567.904 495.578L566.344 498.25L560.817 495.021L562.378 492.35C564.638 488.481 567.683 485.123 571.336 482.469C574.99 479.814 579.178 477.916 583.66 476.878C588.142 475.84 592.829 475.683 597.455 476.411C602.081 477.14 606.558 478.74 610.63 481.119C614.703 483.498 618.296 486.612 621.202 490.284C624.109 493.956 626.274 498.116 627.571 502.53C628.869 506.944 629.272 511.525 628.754 516.012C628.236 520.498 626.807 524.799 624.547 528.668L622.986 531.34L617.46 528.112Z" fill="#FFED00"/>
<path fill-rule="evenodd" clip-rule="evenodd" d="M611.939 524.882L613.499 522.211C614.964 519.704 615.891 516.914 616.228 514C616.564 511.085 616.303 508.099 615.455 505.214C614.607 502.327 613.188 499.598 611.277 497.183C609.365 494.767 606.999 492.716 604.313 491.147C601.628 489.578 598.679 488.524 595.636 488.045C592.593 487.566 589.518 487.671 586.588 488.349C583.658 489.028 580.929 490.267 578.555 491.992C576.182 493.716 574.208 495.895 572.743 498.401L571.183 501.073L565.657 497.845L567.217 495.173C569.102 491.946 571.642 489.146 574.689 486.932C577.735 484.718 581.227 483.135 584.963 482.27C588.699 481.405 592.605 481.274 596.459 481.881C600.313 482.488 604.042 483.821 607.435 485.803C610.827 487.785 613.82 490.379 616.241 493.438C618.663 496.497 620.467 499.964 621.549 503.643C622.63 507.322 622.966 511.142 622.534 514.883C622.102 518.624 620.911 522.212 619.026 525.439L617.465 528.111L611.939 524.882Z" fill="#008026"/>
<path fill-rule="evenodd" clip-rule="evenodd" d="M607.103 522.054L608.663 519.382C609.778 517.474 610.484 515.351 610.74 513.132C610.996 510.913 610.798 508.638 610.151 506.438C609.505 504.238 608.423 502.156 606.964 500.313C605.505 498.469 603.698 496.903 601.648 495.705C599.598 494.507 597.346 493.703 595.024 493.338C592.702 492.972 590.357 493.052 588.123 493.569C585.889 494.087 583.81 495.031 582.003 496.344C580.196 497.657 578.693 499.315 577.579 501.223L576.018 503.895L570.492 500.666L572.053 497.994C573.588 495.367 575.656 493.087 578.136 491.284C580.617 489.482 583.459 488.194 586.498 487.49C589.537 486.786 592.714 486.68 595.848 487.174C598.981 487.667 602.012 488.751 604.77 490.362C607.527 491.972 609.96 494.081 611.928 496.568C613.897 499.055 615.365 501.875 616.245 504.868C617.124 507.861 617.398 510.969 617.047 514.015C616.695 517.061 615.725 519.982 614.19 522.61L612.629 525.282L607.103 522.054Z" fill="#004DFF"/>
<path fill-rule="evenodd" clip-rule="evenodd" d="M603.177 519.757L604.377 517.703C605.234 516.236 605.78 514.606 605.983 512.904C606.186 511.201 606.043 509.458 605.557 507.774C605.072 506.089 604.254 504.497 603.148 503.089C602.041 501.68 600.669 500.486 599.109 499.575C597.55 498.664 595.835 498.055 594.065 497.783C592.295 497.51 590.506 497.58 588.801 497.985C587.095 498.389 585.506 499.12 584.123 500.134C582.74 501.147 581.588 502.423 580.732 503.89L579.532 505.944L575.328 503.488L576.528 501.434C577.708 499.414 579.293 497.658 581.192 496.268C583.09 494.877 585.262 493.88 587.583 493.329C589.903 492.779 592.327 492.687 594.715 493.054C597.103 493.421 599.412 494.241 601.509 495.467C603.607 496.692 605.455 498.3 606.947 500.2C608.44 502.1 609.55 504.257 610.21 506.548C610.871 508.84 611.069 511.222 610.79 513.559C610.511 515.895 609.761 518.138 608.581 520.159L607.381 522.213L603.177 519.757Z" fill="#750787"/>
</g>
<g filter="url(#filter7_d_880_40301)">
<path fill-rule="evenodd" clip-rule="evenodd" d="M327.479 628.85L326.875 625.816C325.886 620.85 323.857 616.139 320.901 611.951C317.945 607.763 314.118 604.177 309.632 601.403C305.145 598.629 300.089 596.72 294.749 595.793C289.41 594.865 283.895 594.938 278.521 596.008C273.148 597.078 268.027 599.124 263.449 602.026C258.873 604.929 254.933 608.629 251.852 612.91C248.771 617.191 246.609 621.97 245.483 626.971C244.357 631.971 244.288 637.1 245.277 642.066L245.882 645.101L239.605 646.351L239 643.316C237.847 637.522 237.929 631.543 239.239 625.724C240.549 619.904 243.061 614.361 246.625 609.409C250.189 604.457 254.734 600.192 259.999 596.854C265.263 593.515 271.146 591.166 277.313 589.938C283.479 588.71 289.813 588.626 295.955 589.693C302.097 590.76 307.93 592.958 313.118 596.167C318.308 599.376 322.752 603.534 326.191 608.407C329.631 613.281 331.998 618.771 333.151 624.566L333.756 627.6L327.479 628.85Z" fill="#E40303"/>
<path fill-rule="evenodd" clip-rule="evenodd" d="M321.987 629.944L321.383 626.909C320.511 622.534 318.739 618.382 316.164 614.689C313.589 610.996 310.262 607.832 306.368 605.382C302.474 602.932 298.091 601.242 293.468 600.414C288.844 599.585 284.073 599.634 279.428 600.56C274.783 601.485 270.357 603.267 266.403 605.804C262.45 608.34 259.049 611.58 256.391 615.335C253.733 619.09 251.871 623.287 250.908 627.685C249.945 632.083 249.898 636.597 250.769 640.972L251.374 644.007L245.097 645.257L244.493 642.222C243.459 637.033 243.515 631.681 244.656 626.472C245.797 621.264 248 616.304 251.135 611.874C254.27 607.445 258.277 603.631 262.923 600.65C267.57 597.669 272.767 595.576 278.219 594.49C283.671 593.405 289.274 593.346 294.708 594.32C300.142 595.294 305.304 597.281 309.897 600.172C314.49 603.063 318.425 606.8 321.474 611.174C324.524 615.548 326.626 620.47 327.659 625.659L328.264 628.694L321.987 629.944Z" fill="#FF8C00"/>
<path fill-rule="evenodd" clip-rule="evenodd" d="M315.722 631.195L315.116 628.161C314.402 624.585 312.948 621.192 310.834 618.174C308.721 615.156 305.989 612.571 302.79 610.569C299.591 608.568 295.987 607.188 292.185 606.514C288.382 605.841 284.457 605.886 280.634 606.649C276.812 607.412 273.17 608.878 269.918 610.961C266.666 613.044 263.869 615.701 261.685 618.779C259.5 621.855 257.97 625.292 257.179 628.89C256.387 632.487 256.348 636.179 257.062 639.755L257.668 642.789L251.392 644.042L250.786 641.008C249.909 636.614 249.957 632.082 250.928 627.672C251.898 623.261 253.771 619.061 256.434 615.31C259.097 611.559 262.499 608.33 266.443 605.804C270.386 603.279 274.797 601.504 279.422 600.581C284.047 599.657 288.801 599.601 293.412 600.418C298.024 601.235 302.405 602.91 306.305 605.35C310.205 607.791 313.547 610.949 316.138 614.649C318.728 618.348 320.514 622.514 321.392 626.908L321.998 629.942L315.722 631.195Z" fill="#FFED00"/>
<path fill-rule="evenodd" clip-rule="evenodd" d="M309.449 632.445L308.842 629.41C308.274 626.563 307.116 623.861 305.433 621.458C303.75 619.054 301.573 616.995 299.023 615.399C296.473 613.803 293.6 612.704 290.567 612.166C287.534 611.628 284.403 611.664 281.353 612.274C278.303 612.883 275.398 614.052 272.804 615.714C270.21 617.375 267.98 619.494 266.239 621.947C264.497 624.399 263.279 627.137 262.648 630.002C262.018 632.868 261.987 635.807 262.556 638.654L263.162 641.688L256.886 642.942L256.279 639.907C255.547 636.243 255.588 632.463 256.398 628.784C257.207 625.106 258.768 621.605 260.988 618.478C263.208 615.351 266.043 612.661 269.328 610.557C272.614 608.452 276.288 606.974 280.141 606.205C283.993 605.435 287.953 605.389 291.795 606.07C295.637 606.751 299.288 608.146 302.539 610.18C305.789 612.214 308.576 614.848 310.736 617.933C312.897 621.018 314.386 624.492 315.119 628.157L315.725 631.191L309.449 632.445Z" fill="#008026"/>
<path fill-rule="evenodd" clip-rule="evenodd" d="M303.954 633.539L303.348 630.504C302.916 628.338 302.034 626.281 300.753 624.451C299.472 622.621 297.813 621.052 295.87 619.836C293.926 618.619 291.734 617.78 289.42 617.37C287.105 616.96 284.714 616.987 282.386 617.452C280.057 617.917 277.839 618.81 275.86 620.078C273.88 621.346 272.179 622.962 270.852 624.832C269.524 626.701 268.596 628.787 268.116 630.969C267.636 633.151 267.613 635.388 268.045 637.555L268.652 640.589L262.376 641.842L261.769 638.808C261.173 635.824 261.207 632.746 261.865 629.751C262.524 626.757 263.795 623.907 265.601 621.363C267.407 618.82 269.713 616.632 272.384 614.921C275.055 613.21 278.042 612.009 281.173 611.383C284.305 610.758 287.524 610.72 290.647 611.274C293.771 611.827 296.74 612.962 299.385 614.617C302.03 616.271 304.298 618.414 306.056 620.926C307.815 623.438 309.028 626.267 309.624 629.251L310.23 632.285L303.954 633.539Z" fill="#004DFF"/>
<path fill-rule="evenodd" clip-rule="evenodd" d="M299.493 634.426L299.028 632.094C298.695 630.428 298.021 628.846 297.043 627.438C296.065 626.03 294.801 624.821 293.32 623.884C291.839 622.946 290.17 622.298 288.408 621.979C286.645 621.66 284.826 621.677 283.055 622.031C281.284 622.385 279.597 623.067 278.093 624.039C276.588 625.01 275.296 626.249 274.289 627.684C273.282 629.119 272.579 630.72 272.217 632.396C271.855 634.072 271.841 635.791 272.173 637.457L272.639 639.789L267.865 640.743L267.399 638.41C266.941 636.116 266.962 633.751 267.458 631.45C267.955 629.151 268.918 626.963 270.288 625.011C271.659 623.059 273.41 621.381 275.44 620.07C277.47 618.76 279.741 617.841 282.123 617.366C284.505 616.89 286.955 616.866 289.332 617.296C291.71 617.726 293.972 618.603 295.987 619.878C298.002 621.154 299.731 622.805 301.073 624.737C302.416 626.67 303.343 628.846 303.802 631.14L304.268 633.473L299.493 634.426Z" fill="#750787"/>
</g>
<g filter="url(#filter8_d_880_40301)">
<path fill-rule="evenodd" clip-rule="evenodd" d="M583.416 624.694L583.004 621.627C582.331 616.609 580.604 611.779 577.919 607.413C575.234 603.046 571.64 599.226 567.339 596.174C563.037 593.121 558.111 590.897 552.841 589.634C547.57 588.371 542.062 588.094 536.632 588.823C531.202 589.551 525.961 591.269 521.209 593.877C516.458 596.484 512.293 599.928 508.947 604.006C505.602 608.084 503.142 612.716 501.702 617.636C500.263 622.555 499.87 627.669 500.543 632.688L500.954 635.754L494.611 636.605L494.199 633.538C493.414 627.683 493.874 621.722 495.549 615.996C497.225 610.272 500.082 604.898 503.952 600.181C507.822 595.464 512.628 591.495 518.093 588.496C523.557 585.497 529.577 583.525 535.809 582.689C542.041 581.853 548.368 582.17 554.43 583.623C560.492 585.075 566.174 587.638 571.15 591.168C576.125 594.699 580.298 599.129 583.423 604.21C586.548 609.292 588.562 614.921 589.347 620.777L589.759 623.843L583.416 624.694Z" fill="#E40303"/>
<path fill-rule="evenodd" clip-rule="evenodd" d="M577.866 625.439L577.454 622.372C576.861 617.951 575.355 613.694 573.019 609.846C570.682 605.997 567.561 602.63 563.831 599.939C560.1 597.247 555.832 595.284 551.27 594.165C546.708 593.046 541.944 592.793 537.249 593.423C532.555 594.053 528.025 595.552 523.919 597.833C519.814 600.115 516.214 603.133 513.324 606.713C510.435 610.292 508.311 614.363 507.072 618.691C505.832 623.019 505.5 627.522 506.093 631.943L506.505 635.01L500.162 635.861L499.75 632.794C499.047 627.55 499.441 622.212 500.909 617.086C502.377 611.961 504.889 607.15 508.298 602.927C511.707 598.704 515.946 595.152 520.772 592.47C525.598 589.788 530.917 588.028 536.427 587.289C541.936 586.55 547.531 586.846 552.893 588.162C558.255 589.477 563.281 591.786 567.682 594.962C572.083 598.137 575.774 602.116 578.541 606.674C581.307 611.231 583.094 616.277 583.798 621.521L584.209 624.588L577.866 625.439Z" fill="#FF8C00"/>
<path fill-rule="evenodd" clip-rule="evenodd" d="M571.533 626.291L571.12 623.225C570.633 619.611 569.397 616.132 567.479 612.987C565.56 609.842 562.997 607.089 559.931 604.889C556.864 602.689 553.355 601.085 549.603 600.172C545.85 599.259 541.93 599.056 538.067 599.576C534.204 600.097 530.477 601.329 527.1 603.203C523.723 605.076 520.764 607.551 518.389 610.484C516.014 613.417 514.27 616.749 513.253 620.29C512.235 623.83 511.963 627.512 512.45 631.126L512.863 634.192L506.52 635.047L506.107 631.98C505.509 627.54 505.844 623.02 507.091 618.679C508.339 614.339 510.473 610.266 513.368 606.69C516.263 603.115 519.862 600.108 523.958 597.836C528.053 595.565 532.566 594.073 537.241 593.443C541.916 592.814 546.663 593.059 551.213 594.166C555.764 595.273 560.031 597.221 563.769 599.903C567.507 602.585 570.643 605.949 572.994 609.804C575.345 613.66 576.865 617.93 577.463 622.371L577.876 625.437L571.533 626.291Z" fill="#FFED00"/>
<path fill-rule="evenodd" clip-rule="evenodd" d="M565.194 627.142L564.781 624.075C564.394 621.198 563.409 618.428 561.881 615.923C560.354 613.418 558.311 611.225 555.868 609.471C553.423 607.718 550.626 606.438 547.633 605.71C544.639 604.982 541.512 604.82 538.43 605.235C535.347 605.65 532.374 606.634 529.68 608.128C526.987 609.622 524.627 611.596 522.734 613.933C520.842 616.271 519.452 618.926 518.642 621.746C517.832 624.566 517.615 627.498 518.003 630.375L518.416 633.441L512.073 634.295L511.66 631.229C511.161 627.525 511.441 623.755 512.481 620.136C513.521 616.516 515.301 613.12 517.714 610.14C520.127 607.16 523.126 604.654 526.538 602.761C529.95 600.869 533.71 599.626 537.604 599.102C541.497 598.578 545.452 598.782 549.243 599.704C553.034 600.626 556.59 602.249 559.705 604.485C562.821 606.72 565.436 609.525 567.397 612.74C569.358 615.955 570.625 619.517 571.124 623.221L571.537 626.287L565.194 627.142Z" fill="#008026"/>
<path fill-rule="evenodd" clip-rule="evenodd" d="M559.642 627.886L559.229 624.82C558.934 622.63 558.184 620.522 557.021 618.615C555.858 616.707 554.302 615.036 552.439 613.7C550.576 612.363 548.442 611.387 546.158 610.831C543.874 610.275 541.486 610.151 539.133 610.468C536.779 610.785 534.51 611.536 532.454 612.676C530.398 613.817 528.598 615.322 527.155 617.105C525.713 618.886 524.655 620.909 524.037 623.057C523.42 625.204 523.256 627.435 523.551 629.625L523.964 632.691L517.621 633.545L517.208 630.479C516.802 627.463 517.029 624.393 517.876 621.446C518.723 618.499 520.172 615.736 522.135 613.311C524.098 610.887 526.537 608.849 529.311 607.31C532.085 605.772 535.142 604.761 538.307 604.335C541.471 603.909 544.686 604.075 547.768 604.825C550.851 605.574 553.742 606.894 556.277 608.713C558.812 610.532 560.94 612.814 562.537 615.432C564.133 618.049 565.165 620.949 565.571 623.966L565.984 627.032L559.642 627.886Z" fill="#004DFF"/>
<path fill-rule="evenodd" clip-rule="evenodd" d="M555.134 628.49L554.817 626.133C554.59 624.449 554.018 622.828 553.131 621.361C552.243 619.894 551.058 618.608 549.639 617.578C548.22 616.549 546.596 615.796 544.857 615.367C543.119 614.937 541.302 614.839 539.512 615.081C537.722 615.322 535.996 615.896 534.433 616.771C532.87 617.645 531.502 618.8 530.406 620.168C529.31 621.536 528.508 623.09 528.04 624.74C527.573 626.389 527.45 628.104 527.677 629.788L527.995 632.145L523.17 632.795L522.852 630.437C522.54 628.119 522.71 625.759 523.351 623.495C523.992 621.231 525.091 619.109 526.582 617.247C528.073 615.386 529.927 613.822 532.036 612.643C534.145 611.463 536.469 610.69 538.877 610.366C541.284 610.042 543.73 610.172 546.076 610.752C548.422 611.332 550.624 612.349 552.554 613.75C554.484 615.15 556.106 616.907 557.323 618.92C558.541 620.934 559.329 623.164 559.641 625.483L559.959 627.84L555.134 628.49Z" fill="#750787"/>
</g>
<g filter="url(#filter9_d_880_40301)">
<path fill-rule="evenodd" clip-rule="evenodd" d="M409.357 713.007L410.124 710.009C411.38 705.104 411.588 699.979 410.734 694.925C409.88 689.87 407.98 684.982 405.135 680.54C402.29 676.099 398.556 672.191 394.142 669.046C389.729 665.9 384.725 663.58 379.418 662.221C374.11 660.862 368.607 660.492 363.225 661.13C357.843 661.767 352.691 663.4 348.062 665.927C343.432 668.455 339.416 671.829 336.238 675.851C333.06 679.872 330.78 684.467 329.524 689.372L328.757 692.37L322.557 690.782L323.324 687.785C324.79 682.061 327.449 676.706 331.147 672.026C334.846 667.346 339.508 663.434 344.863 660.51C350.218 657.586 356.161 655.707 362.351 654.973C368.541 654.24 374.862 654.667 380.953 656.226C387.044 657.786 392.792 660.449 397.868 664.067C402.944 667.685 407.253 672.189 410.543 677.327C413.834 682.465 416.043 688.135 417.037 694.017C418.031 699.899 417.79 705.873 416.324 711.596L415.557 714.594L409.357 713.007Z" fill="#E40303"/>
<path fill-rule="evenodd" clip-rule="evenodd" d="M403.932 711.618L404.699 708.62C405.806 704.299 406.003 699.788 405.279 695.345C404.555 690.901 402.922 686.61 400.472 682.717C398.021 678.823 394.799 675.405 390.989 672.658C387.178 669.912 382.855 667.892 378.267 666.718C373.678 665.543 368.917 665.236 364.255 665.813C359.594 666.391 355.126 667.841 351.105 670.077C347.085 672.313 343.591 675.292 340.821 678.841C338.05 682.389 336.056 686.44 334.949 690.761L334.182 693.759L327.982 692.171L328.749 689.174C330.062 684.048 332.427 679.246 335.708 675.044C338.989 670.841 343.12 667.322 347.863 664.683C352.606 662.045 357.867 660.34 363.346 659.661C368.825 658.983 374.416 659.344 379.802 660.722C385.187 662.101 390.264 664.472 394.742 667.7C399.221 670.928 403.015 674.952 405.907 679.545C408.798 684.138 410.73 689.21 411.587 694.472C412.445 699.734 412.212 705.081 410.899 710.207L410.132 713.205L403.932 711.618Z" fill="#FF8C00"/>
<path fill-rule="evenodd" clip-rule="evenodd" d="M397.742 710.036L398.507 707.038C399.41 703.505 399.566 699.817 398.966 696.182C398.366 692.547 397.02 689.034 395.001 685.846C392.983 682.657 390.33 679.856 387.193 677.603C384.056 675.351 380.497 673.694 376.72 672.73C372.944 671.765 369.027 671.512 365.194 671.983C361.361 672.455 357.69 673.641 354.389 675.471C351.088 677.3 348.223 679.737 345.953 682.639C343.683 685.54 342.052 688.852 341.15 692.385L340.384 695.383L334.183 693.799L334.949 690.801C336.058 686.459 338.062 682.394 340.844 678.837C343.626 675.28 347.131 672.303 351.155 670.073C355.178 667.842 359.642 666.402 364.29 665.83C368.938 665.259 373.682 665.566 378.252 666.734C382.822 667.901 387.132 669.907 390.936 672.638C394.741 675.369 397.967 678.774 400.428 682.66C402.889 686.548 404.537 690.841 405.272 695.297C406.008 699.753 405.817 704.281 404.708 708.622L403.942 711.62L397.742 710.036Z" fill="#FFED00"/>
<path fill-rule="evenodd" clip-rule="evenodd" d="M391.545 708.45L392.311 705.452C393.03 702.639 393.154 699.702 392.676 696.807C392.198 693.912 391.126 691.113 389.517 688.572C387.908 686.031 385.793 683.796 383.291 682C380.789 680.203 377.95 678.882 374.936 678.112C371.923 677.342 368.798 677.14 365.74 677.516C362.683 677.892 359.756 678.838 357.125 680.297C354.495 681.755 352.212 683.697 350.404 686.008C348.596 688.319 347.297 690.956 346.579 693.768L345.813 696.766L339.612 695.182L340.378 692.184C341.303 688.563 342.974 685.173 345.295 682.206C347.615 679.24 350.537 676.758 353.891 674.899C357.245 673.04 360.965 671.84 364.837 671.363C368.709 670.887 372.661 671.143 376.468 672.116C380.274 673.088 383.865 674.759 387.034 677.034C390.204 679.31 392.892 682.147 394.944 685.386C396.995 688.627 398.369 692.206 398.982 695.922C399.596 699.638 399.437 703.415 398.512 707.036L397.746 710.034L391.545 708.45Z" fill="#008026"/>
<path fill-rule="evenodd" clip-rule="evenodd" d="M386.118 707.06L386.883 704.062C387.43 701.921 387.525 699.686 387.161 697.482C386.797 695.278 385.981 693.145 384.754 691.208C383.528 689.271 381.915 687.566 380.005 686.195C378.095 684.824 375.928 683.815 373.627 683.227C371.327 682.64 368.941 682.486 366.607 682.773C364.274 683.06 362.042 683.782 360.036 684.893C358.031 686.005 356.292 687.484 354.915 689.244C353.539 691.003 352.55 693.011 352.004 695.151L351.238 698.149L345.037 696.565L345.803 693.567C346.556 690.618 347.917 687.858 349.806 685.443C351.695 683.028 354.074 681.008 356.802 679.495C359.531 677.983 362.556 677.007 365.704 676.62C368.852 676.233 372.065 676.441 375.159 677.231C378.253 678.022 381.172 679.38 383.748 681.23C386.325 683.08 388.512 685.387 390.181 688.023C391.85 690.659 392.968 693.572 393.467 696.597C393.967 699.622 393.837 702.697 393.084 705.646L392.318 708.644L386.118 707.06Z" fill="#004DFF"/>
<path fill-rule="evenodd" clip-rule="evenodd" d="M381.713 705.931L382.302 703.626C382.722 701.981 382.799 700.263 382.526 698.571C382.253 696.878 381.636 695.241 380.706 693.755C379.776 692.269 378.552 690.963 377.101 689.914C375.649 688.864 374.002 688.093 372.252 687.646C370.502 687.199 368.686 687.085 366.909 687.31C365.133 687.535 363.432 688.094 361.903 688.952C360.375 689.81 359.048 690.95 357.997 692.304C356.946 693.659 356.189 695.203 355.769 696.848L355.18 699.153L350.464 697.948L351.052 695.643C351.631 693.376 352.673 691.253 354.115 689.394C355.558 687.535 357.372 685.978 359.452 684.811C361.532 683.644 363.836 682.888 366.234 682.585C368.631 682.281 371.075 682.435 373.429 683.036C375.783 683.638 378.002 684.675 379.959 686.091C381.917 687.508 383.577 689.276 384.842 691.298C386.108 693.319 386.953 695.555 387.328 697.878C387.702 700.202 387.597 702.565 387.018 704.831L386.43 707.136L381.713 705.931Z" fill="#750787"/>
</g>
<g filter="url(#filter10_d_880_40301)">
<path fill-rule="evenodd" clip-rule="evenodd" d="M759.6 604.437L759.6 601.343C759.6 596.279 758.531 591.263 756.45 586.578C754.368 581.894 751.315 577.63 747.457 574.033C743.599 570.435 739.013 567.576 733.957 565.624C728.901 563.671 723.479 562.665 718 562.665C712.521 562.665 707.099 563.671 702.043 565.624C696.987 567.576 692.401 570.435 688.543 574.033C684.685 577.63 681.632 581.894 679.55 586.578C677.469 591.263 676.4 596.279 676.4 601.343L676.4 604.437L670 604.437L670 601.343C670 595.435 671.248 589.588 673.67 584.136C676.092 578.684 679.638 573.739 684.1 569.578C688.563 565.417 693.854 562.122 699.669 559.877C705.484 557.631 711.712 556.476 718 556.476C724.288 556.476 730.516 557.631 736.331 559.877C742.146 562.122 747.437 565.417 751.9 569.578C756.362 573.739 759.908 578.684 762.33 584.136C764.752 589.588 766 595.435 766 601.343L766 604.437L759.6 604.437Z" fill="#E40303"/>
<path fill-rule="evenodd" clip-rule="evenodd" d="M754 604.437L754 601.343C754 596.882 753.073 592.463 751.269 588.338C749.465 584.213 746.82 580.461 743.48 577.298C740.14 574.134 736.171 571.621 731.798 569.905C727.426 568.19 722.737 567.306 718 567.306C713.264 567.306 708.575 568.19 704.202 569.905C699.83 571.621 695.861 574.134 692.521 577.298C689.181 580.461 686.535 584.213 684.732 588.338C682.928 592.463 682 596.882 682 601.343L682 604.437L675.6 604.437L675.6 601.343C675.6 596.051 676.701 590.813 678.837 585.928C680.973 581.043 684.102 576.609 688.043 572.877C691.983 569.145 696.657 566.187 701.796 564.171C706.935 562.155 712.441 561.117 718 561.117C723.559 561.117 729.065 562.155 734.205 564.171C739.344 566.187 744.018 569.145 747.958 572.877C751.899 576.609 755.028 581.043 757.164 585.928C759.3 590.813 760.4 596.051 760.4 601.343L760.4 604.437L754 604.437Z" fill="#FF8C00"/>
<path fill-rule="evenodd" clip-rule="evenodd" d="M747.611 604.44L747.609 601.346C747.607 597.7 746.844 594.088 745.361 590.715C743.878 587.343 741.703 584.274 738.956 581.686C736.21 579.098 732.945 577.041 729.347 575.638C725.749 574.234 721.891 573.512 717.993 573.514C714.095 573.516 710.238 574.242 706.641 575.65C703.045 577.057 699.783 579.117 697.039 581.708C694.296 584.299 692.124 587.37 690.645 590.745C689.166 594.118 688.407 597.731 688.409 601.378L688.411 604.472L682.011 604.475L682.009 601.381C682.006 596.901 682.939 592.465 684.753 588.329C686.566 584.193 689.223 580.44 692.568 577.281C695.912 574.122 699.879 571.62 704.24 569.913C708.601 568.207 713.273 567.328 717.99 567.325C722.706 567.323 727.379 568.197 731.742 569.899C736.105 571.601 740.075 574.099 743.423 577.254C746.771 580.409 749.432 584.16 751.25 588.294C753.068 592.428 754.006 596.862 754.009 601.343L754.011 604.437L747.611 604.44Z" fill="#FFED00"/>
<path fill-rule="evenodd" clip-rule="evenodd" d="M741.214 604.44L741.212 601.346C741.211 598.443 740.603 595.567 739.422 592.881C738.241 590.195 736.508 587.75 734.319 585.687C732.13 583.624 729.527 581.984 726.657 580.865C723.788 579.745 720.709 579.169 717.599 579.17C714.489 579.172 711.412 579.751 708.543 580.874C705.675 581.997 703.074 583.64 700.887 585.705C698.7 587.77 696.97 590.217 695.792 592.904C694.614 595.591 694.01 598.468 694.012 601.371L694.013 604.466L687.613 604.469L687.612 601.375C687.609 597.637 688.388 593.938 689.9 590.489C691.412 587.04 693.627 583.911 696.415 581.278C699.203 578.645 702.509 576.56 706.142 575.138C709.775 573.716 713.667 572.984 717.596 572.982C721.525 572.98 725.417 573.707 729.052 575.126C732.687 576.544 735.995 578.625 738.786 581.255C741.577 583.885 743.796 587.012 745.312 590.459C746.828 593.907 747.61 597.605 747.612 601.343L747.614 604.437L741.214 604.44Z" fill="#008026"/>
<path fill-rule="evenodd" clip-rule="evenodd" d="M735.613 604.44L735.611 601.346C735.61 599.137 735.147 596.948 734.248 594.903C733.349 592.857 732.029 590.994 730.36 589.422C728.691 587.849 726.706 586.598 724.516 585.744C722.326 584.889 719.976 584.449 717.601 584.451C715.227 584.452 712.877 584.894 710.688 585.751C708.499 586.608 706.515 587.861 704.848 589.436C703.181 591.01 701.864 592.874 700.967 594.92C700.07 596.966 699.61 599.156 699.611 601.365L699.613 604.46L693.213 604.463L693.211 601.369C693.209 598.325 693.843 595.313 695.074 592.505C696.305 589.697 698.108 587.15 700.376 585.008C702.644 582.866 705.333 581.171 708.287 580.015C711.241 578.859 714.404 578.264 717.598 578.262C720.791 578.26 723.955 578.852 726.911 580.005C729.866 581.158 732.556 582.851 734.827 584.99C737.097 587.13 738.903 589.674 740.138 592.481C741.372 595.288 742.009 598.299 742.011 601.343L742.013 604.437L735.613 604.44Z" fill="#004DFF"/>
<path fill-rule="evenodd" clip-rule="evenodd" d="M731.064 604.439L731.063 602.061C731.062 600.362 730.71 598.679 730.026 597.107C729.342 595.535 728.338 594.103 727.069 592.894C725.799 591.685 724.289 590.723 722.623 590.066C720.957 589.41 719.17 589.071 717.363 589.072C715.557 589.073 713.77 589.413 712.105 590.072C710.439 590.731 708.93 591.694 707.662 592.904C706.394 594.115 705.392 595.548 704.71 597.121C704.027 598.694 703.677 600.377 703.678 602.075L703.68 604.454L698.811 604.457L698.81 602.078C698.809 599.738 699.291 597.423 700.227 595.264C701.164 593.105 702.535 591.148 704.261 589.501C705.986 587.854 708.031 586.551 710.278 585.662C712.525 584.773 714.931 584.316 717.361 584.315C719.79 584.313 722.197 584.768 724.445 585.655C726.693 586.541 728.739 587.842 730.466 589.487C732.194 591.132 733.567 593.088 734.506 595.246C735.445 597.403 735.93 599.719 735.931 602.058L735.933 604.437L731.064 604.439Z" fill="#750787"/>
</g>
<defs>
<filter id="filter0_d_880_40301" x="447.337" y="679.218" width="115.325" height="97.5157" filterUnits="userSpaceOnUse" color-interpolation-filters="sRGB">
<feFlood flood-opacity="0" result="BackgroundImageFix"/>
<feColorMatrix in="SourceAlpha" type="matrix" values="0 0 0 0 0 0 0 0 0 0 0 0 0 0 0 0 0 0 127 0" result="hardAlpha"/>
<feOffset dx="-1" dy="7"/>
<feGaussianBlur stdDeviation="2"/>
<feComposite in2="hardAlpha" operator="out"/>
<feColorMatrix type="matrix" values="0 0 0 0 0 0 0 0 0 0 0 0 0 0 0 0 0 0 0.25 0"/>
<feBlend mode="normal" in2="BackgroundImageFix" result="effect1_dropShadow_880_40301"/>
<feBlend mode="normal" in="SourceGraphic" in2="effect1_dropShadow_880_40301" result="shape"/>
</filter>
<filter id="filter1_d_880_40301" x="548" y="341" width="113.152" height="82.2103" filterUnits="userSpaceOnUse" color-interpolation-filters="sRGB">
<feFlood flood-opacity="0" result="BackgroundImageFix"/>
<feColorMatrix in="SourceAlpha" type="matrix" values="0 0 0 0 0 0 0 0 0 0 0 0 0 0 0 0 0 0 127 0" result="hardAlpha"/>
<feOffset dx="-1" dy="7"/>
<feGaussianBlur stdDeviation="2"/>
<feComposite in2="hardAlpha" operator="out"/>
<feColorMatrix type="matrix" values="0 0 0 0 0 0 0 0 0 0 0 0 0 0 0 0 0 0 0.25 0"/>
<feBlend mode="normal" in2="BackgroundImageFix" result="effect1_dropShadow_880_40301"/>
<feBlend mode="normal" in="SourceGraphic" in2="effect1_dropShadow_880_40301" result="shape"/>
</filter>
<filter id="filter2_d_880_40301" x="182.782" y="481.117" width="110.436" height="73.7182" filterUnits="userSpaceOnUse" color-interpolation-filters="sRGB">
<feFlood flood-opacity="0" result="BackgroundImageFix"/>
<feColorMatrix in="SourceAlpha" type="matrix" values="0 0 0 0 0 0 0 0 0 0 0 0 0 0 0 0 0 0 127 0" result="hardAlpha"/>
<feOffset dx="-1" dy="7"/>
<feGaussianBlur stdDeviation="2"/>
<feComposite in2="hardAlpha" operator="out"/>
<feColorMatrix type="matrix" values="0 0 0 0 0 0 0 0 0 0 0 0 0 0 0 0 0 0 0.25 0"/>
<feBlend mode="normal" in2="BackgroundImageFix" result="effect1_dropShadow_880_40301"/>
<feBlend mode="normal" in="SourceGraphic" in2="effect1_dropShadow_880_40301" result="shape"/>
</filter>
<filter id="filter3_d_880_40301" x="648.461" y="417.007" width="113.078" height="81.9373" filterUnits="userSpaceOnUse" color-interpolation-filters="sRGB">
<feFlood flood-opacity="0" result="BackgroundImageFix"/>
<feColorMatrix in="SourceAlpha" type="matrix" values="0 0 0 0 0 0 0 0 0 0 0 0 0 0 0 0 0 0 127 0" result="hardAlpha"/>
<feOffset dx="-1" dy="7"/>
<feGaussianBlur stdDeviation="2"/>
<feComposite in2="hardAlpha" operator="out"/>
<feColorMatrix type="matrix" values="0 0 0 0 0 0 0 0 0 0 0 0 0 0 0 0 0 0 0.25 0"/>
<feBlend mode="normal" in2="BackgroundImageFix" result="effect1_dropShadow_880_40301"/>
<feBlend mode="normal" in="SourceGraphic" in2="effect1_dropShadow_880_40301" result="shape"/>
</filter>
<filter id="filter4_d_880_40301" x="717.562" y="495.123" width="108.877" height="69.7051" filterUnits="userSpaceOnUse" color-interpolation-filters="sRGB">
<feFlood flood-opacity="0" result="BackgroundImageFix"/>
<feColorMatrix in="SourceAlpha" type="matrix" values="0 0 0 0 0 0 0 0 0 0 0 0 0 0 0 0 0 0 127 0" result="hardAlpha"/>
<feOffset dx="-1" dy="7"/>
<feGaussianBlur stdDeviation="2"/>
<feComposite in2="hardAlpha" operator="out"/>
<feColorMatrix type="matrix" values="0 0 0 0 0 0 0 0 0 0 0 0 0 0 0 0 0 0 0.25 0"/>
<feBlend mode="normal" in2="BackgroundImageFix" result="effect1_dropShadow_880_40301"/>
<feBlend mode="normal" in="SourceGraphic" in2="effect1_dropShadow_880_40301" result="shape"/>
</filter>
<filter id="filter5_d_880_40301" x="369" y="290.476" width="104" height="58.9993" filterUnits="userSpaceOnUse" color-interpolation-filters="sRGB">
<feFlood flood-opacity="0" result="BackgroundImageFix"/>
<feColorMatrix in="SourceAlpha" type="matrix" values="0 0 0 0 0 0 0 0 0 0 0 0 0 0 0 0 0 0 127 0" result="hardAlpha"/>
<feOffset dx="-1" dy="7"/>
<feGaussianBlur stdDeviation="2"/>
<feComposite in2="hardAlpha" operator="out"/>
<feColorMatrix type="matrix" values="0 0 0 0 0 0 0 0 0 0 0 0 0 0 0 0 0 0 0.25 0"/>
<feBlend mode="normal" in2="BackgroundImageFix" result="effect1_dropShadow_880_40301"/>
<feBlend mode="normal" in="SourceGraphic" in2="effect1_dropShadow_880_40301" result="shape"/>
</filter>
<filter id="filter6_d_880_40301" x="545.449" y="447.525" width="115.101" height="100.901" filterUnits="userSpaceOnUse" color-interpolation-filters="sRGB">
<feFlood flood-opacity="0" result="BackgroundImageFix"/>
<feColorMatrix in="SourceAlpha" type="matrix" values="0 0 0 0 0 0 0 0 0 0 0 0 0 0 0 0 0 0 127 0" result="hardAlpha"/>
<feOffset dx="-1" dy="7"/>
<feGaussianBlur stdDeviation="2"/>
<feComposite in2="hardAlpha" operator="out"/>
<feColorMatrix type="matrix" values="0 0 0 0 0 0 0 0 0 0 0 0 0 0 0 0 0 0 0.25 0"/>
<feBlend mode="normal" in2="BackgroundImageFix" result="effect1_dropShadow_880_40301"/>
<feBlend mode="normal" in="SourceGraphic" in2="effect1_dropShadow_880_40301" result="shape"/>
</filter>
<filter id="filter7_d_880_40301" x="225.237" y="580.563" width="111.526" height="76.8253" filterUnits="userSpaceOnUse" color-interpolation-filters="sRGB">
<feFlood flood-opacity="0" result="BackgroundImageFix"/>
<feColorMatrix in="SourceAlpha" type="matrix" values="0 0 0 0 0 0 0 0 0 0 0 0 0 0 0 0 0 0 127 0" result="hardAlpha"/>
<feOffset dx="-1" dy="7"/>
<feGaussianBlur stdDeviation="2"/>
<feComposite in2="hardAlpha" operator="out"/>
<feColorMatrix type="matrix" values="0 0 0 0 0 0 0 0 0 0 0 0 0 0 0 0 0 0 0.25 0"/>
<feBlend mode="normal" in2="BackgroundImageFix" result="effect1_dropShadow_880_40301"/>
<feBlend mode="normal" in="SourceGraphic" in2="effect1_dropShadow_880_40301" result="shape"/>
</filter>
<filter id="filter8_d_880_40301" x="483.235" y="576.308" width="109.529" height="71.3351" filterUnits="userSpaceOnUse" color-interpolation-filters="sRGB">
<feFlood flood-opacity="0" result="BackgroundImageFix"/>
<feColorMatrix in="SourceAlpha" type="matrix" values="0 0 0 0 0 0 0 0 0 0 0 0 0 0 0 0 0 0 127 0" result="hardAlpha"/>
<feOffset dx="-1" dy="7"/>
<feGaussianBlur stdDeviation="2"/>
<feComposite in2="hardAlpha" operator="out"/>
<feColorMatrix type="matrix" values="0 0 0 0 0 0 0 0 0 0 0 0 0 0 0 0 0 0 0.25 0"/>
<feBlend mode="normal" in2="BackgroundImageFix" result="effect1_dropShadow_880_40301"/>
<feBlend mode="normal" in="SourceGraphic" in2="effect1_dropShadow_880_40301" result="shape"/>
</filter>
<filter id="filter9_d_880_40301" x="317.548" y="644.32" width="112.905" height="81.311" filterUnits="userSpaceOnUse" color-interpolation-filters="sRGB">
<feFlood flood-opacity="0" result="BackgroundImageFix"/>
<feColorMatrix in="SourceAlpha" type="matrix" values="0 0 0 0 0 0 0 0 0 0 0 0 0 0 0 0 0 0 127 0" result="hardAlpha"/>
<feOffset dx="-1" dy="7"/>
<feGaussianBlur stdDeviation="2"/>
<feComposite in2="hardAlpha" operator="out"/>
<feColorMatrix type="matrix" values="0 0 0 0 0 0 0 0 0 0 0 0 0 0 0 0 0 0 0.25 0"/>
<feBlend mode="normal" in2="BackgroundImageFix" result="effect1_dropShadow_880_40301"/>
<feBlend mode="normal" in="SourceGraphic" in2="effect1_dropShadow_880_40301" result="shape"/>
</filter>
<filter id="filter10_d_880_40301" x="665" y="556.476" width="104" height="58.9993" filterUnits="userSpaceOnUse" color-interpolation-filters="sRGB">
<feFlood flood-opacity="0" result="BackgroundImageFix"/>
<feColorMatrix in="SourceAlpha" type="matrix" values="0 0 0 0 0 0 0 0 0 0 0 0 0 0 0 0 0 0 127 0" result="hardAlpha"/>
<feOffset dx="-1" dy="7"/>
<feGaussianBlur stdDeviation="2"/>
<feComposite in2="hardAlpha" operator="out"/>
<feColorMatrix type="matrix" values="0 0 0 0 0 0 0 0 0 0 0 0 0 0 0 0 0 0 0.25 0"/>
<feBlend mode="normal" in2="BackgroundImageFix" result="effect1_dropShadow_880_40301"/>
<feBlend mode="normal" in="SourceGraphic" in2="effect1_dropShadow_880_40301" result="shape"/>
</filter>
</defs>
</svg>
