<svg width="1000" height="1000" viewBox="0 0 1000 1000" fill="none" xmlns="http://www.w3.org/2000/svg">
<mask id="path-1-inside-1_49_11212" fill="white">
<path fill-rule="evenodd" clip-rule="evenodd" d="M750.184 75.3784C741.381 57.5405 715.944 57.5405 707.141 75.3784L675.468 139.554C671.972 146.638 665.215 151.548 657.397 152.683L586.575 162.975C566.89 165.835 559.03 190.026 573.274 203.911L624.522 253.865C630.178 259.379 632.759 267.323 631.424 275.108L631.266 276.029C633.375 275.858 635.509 275.771 637.662 275.771C675.799 275.771 707.543 303.14 714.324 339.309L717.494 337.642C724.486 333.966 732.839 333.966 739.831 337.642L803.176 370.945C820.783 380.202 841.362 365.25 837.999 345.645L825.901 275.108C824.566 267.323 827.147 259.379 832.803 253.865L884.051 203.911C898.295 190.026 890.435 165.835 870.75 162.975L799.927 152.683C792.11 151.548 785.353 146.638 781.857 139.554L750.184 75.3784Z"/>
</mask>
<path fill-rule="evenodd" clip-rule="evenodd" d="M750.184 75.3784C741.381 57.5405 715.944 57.5405 707.141 75.3784L675.468 139.554C671.972 146.638 665.215 151.548 657.397 152.683L586.575 162.975C566.89 165.835 559.03 190.026 573.274 203.911L624.522 253.865C630.178 259.379 632.759 267.323 631.424 275.108L631.266 276.029C633.375 275.858 635.509 275.771 637.662 275.771C675.799 275.771 707.543 303.14 714.324 339.309L717.494 337.642C724.486 333.966 732.839 333.966 739.831 337.642L803.176 370.945C820.783 380.202 841.362 365.25 837.999 345.645L825.901 275.108C824.566 267.323 827.147 259.379 832.803 253.865L884.051 203.911C898.295 190.026 890.435 165.835 870.75 162.975L799.927 152.683C792.11 151.548 785.353 146.638 781.857 139.554L750.184 75.3784Z" fill="#FFED00"/>
<path d="M707.141 75.3784L714.315 78.919V78.919L707.141 75.3784ZM750.184 75.3784L757.358 71.8379V71.8379L750.184 75.3784ZM675.468 139.554L668.294 136.014L675.468 139.554ZM657.397 152.683L656.247 144.767L657.397 152.683ZM586.575 162.975L585.425 155.058H585.425L586.575 162.975ZM573.274 203.911L567.69 209.64L567.69 209.64L573.274 203.911ZM624.522 253.865L618.937 259.594H618.937L624.522 253.865ZM631.424 275.108L639.309 276.461L631.424 275.108ZM631.266 276.029L623.381 274.677L621.638 284.837L631.913 284.003L631.266 276.029ZM714.324 339.309L706.461 340.783L708.458 351.431L718.047 346.39L714.324 339.309ZM717.494 337.642L713.772 330.561H713.772L717.494 337.642ZM739.831 337.642L743.553 330.561H743.553L739.831 337.642ZM803.176 370.945L799.453 378.026L803.176 370.945ZM837.999 345.645L845.884 344.292L837.999 345.645ZM825.901 275.108L818.016 276.461V276.461L825.901 275.108ZM832.803 253.865L827.219 248.137L832.803 253.865ZM884.051 203.911L889.635 209.64L884.051 203.911ZM870.75 162.975L869.599 170.891L870.75 162.975ZM799.927 152.683L798.777 160.6L799.927 152.683ZM781.857 139.554L774.683 143.095V143.095L781.857 139.554ZM714.315 78.919C720.184 67.027 737.141 67.027 743.01 78.9189L757.358 71.8379C745.62 48.054 711.705 48.0541 699.967 71.8379L714.315 78.919ZM682.642 143.095L714.315 78.919L699.967 71.8379L668.294 136.014L682.642 143.095ZM658.548 160.6C668.971 159.086 677.981 152.54 682.642 143.095L668.294 136.014C665.964 140.736 661.458 144.009 656.247 144.767L658.548 160.6ZM587.725 170.891L658.548 160.6L656.247 144.767L585.425 155.058L587.725 170.891ZM578.858 198.183C569.362 188.926 574.602 172.798 587.725 170.891L585.425 155.058C559.178 158.872 548.697 191.127 567.69 209.64L578.858 198.183ZM630.106 248.137L578.858 198.183L567.69 209.64L618.937 259.594L630.106 248.137ZM639.309 276.461C641.089 266.08 637.648 255.488 630.106 248.137L618.937 259.594C622.708 263.27 624.429 268.566 623.539 273.756L639.309 276.461ZM639.151 277.382L639.309 276.461L623.539 273.756L623.381 274.677L639.151 277.382ZM631.913 284.003C633.808 283.849 635.725 283.771 637.662 283.771V267.771C635.292 267.771 632.943 267.867 630.619 268.055L631.913 284.003ZM637.662 283.771C671.879 283.771 700.377 308.329 706.461 340.783L722.187 337.835C714.71 297.952 679.719 267.771 637.662 267.771V283.771ZM713.772 330.561L710.602 332.228L718.047 346.39L721.217 344.723L713.772 330.561ZM743.553 330.561C734.231 325.66 723.094 325.66 713.772 330.561L721.217 344.723C725.878 342.273 731.447 342.273 736.108 344.723L743.553 330.561ZM806.899 363.864L743.553 330.561L736.108 344.723L799.453 378.026L806.899 363.864ZM830.114 346.997C832.356 360.068 818.637 370.035 806.899 363.864L799.453 378.026C822.93 390.368 850.367 370.433 845.884 344.292L830.114 346.997ZM818.016 276.461L830.114 346.997L845.884 344.292L833.786 273.756L818.016 276.461ZM827.219 248.137C819.677 255.488 816.236 266.08 818.016 276.461L833.786 273.756C832.896 268.566 834.616 263.27 838.387 259.594L827.219 248.137ZM878.467 198.182L827.219 248.137L838.387 259.594L889.635 209.64L878.467 198.182ZM869.599 170.891C882.723 172.798 887.963 188.926 878.467 198.182L889.635 209.64C908.628 191.127 898.147 158.872 871.9 155.058L869.599 170.891ZM798.777 160.6L869.599 170.891L871.9 155.058L801.078 144.767L798.777 160.6ZM774.683 143.095C779.344 152.54 788.354 159.086 798.777 160.6L801.078 144.767C795.866 144.009 791.361 140.736 789.031 136.014L774.683 143.095ZM743.01 78.9189L774.683 143.095L789.031 136.014L757.358 71.8379L743.01 78.9189Z" fill="black" mask="url(#path-1-inside-1_49_11212)"/>
<path d="M737.163 73.7708L774.112 148.973C777.588 156.048 784.316 160.965 792.112 162.127L870.462 173.811C880.142 175.255 884.116 187.055 877.281 194.06L820.293 252.467C814.972 257.921 812.557 265.578 813.786 273.098L825.574 345.248C827.282 355.701 816.443 363.7 806.958 358.986L745.163 328.271" stroke="black" stroke-opacity="0.25" stroke-width="16" stroke-linecap="round"/>
<path d="M721.163 81.2708L683.789 154.714C680.26 161.649 673.587 166.443 665.888 167.574L596.588 177.756C586.772 179.198 582.847 191.253 589.933 198.198L648.163 255.271" stroke="white" stroke-opacity="0.25" stroke-width="16" stroke-linecap="round"/>
<path d="M750.663 236.771C750.663 239.66 750.094 242.521 748.988 245.19C747.882 247.859 746.262 250.284 744.219 252.327C742.176 254.37 739.751 255.99 737.082 257.096C734.412 258.202 731.552 258.771 728.663 258.771C725.774 258.771 722.913 258.202 720.244 257.096C717.574 255.99 715.149 254.37 713.106 252.327C711.063 250.284 709.443 247.859 708.337 245.19C707.232 242.521 706.663 239.66 706.663 236.771" stroke="black" stroke-width="8" stroke-linecap="round"/>
<path d="M750.663 220.771C757.29 220.771 762.663 213.16 762.663 203.771C762.663 194.382 757.29 186.771 750.663 186.771C744.035 186.771 738.663 194.382 738.663 203.771C738.663 213.16 744.035 220.771 750.663 220.771Z" fill="black"/>
<ellipse rx="4" ry="7" transform="matrix(-1 0 0 1 744.663 203.771)" fill="white"/>
<path d="M706.663 220.771C713.29 220.771 718.663 213.16 718.663 203.771C718.663 194.382 713.29 186.771 706.663 186.771C700.035 186.771 694.663 194.382 694.663 203.771C694.663 213.16 700.035 220.771 706.663 220.771Z" fill="black"/>
<ellipse rx="4" ry="7" transform="matrix(-1 0 0 1 700.663 203.771)" fill="white"/>
<path d="M631.682 275.271C636.839 270.114 663.594 269.182 689.434 290.023C708.387 308.976 718.452 334.999 713.295 340.156C702.676 346.166 702.706 309.58 679.949 295.038C660.558 282.647 626.525 280.427 631.682 275.271Z" fill="black" fill-opacity="0.25"/>
</svg>
