<svg width="1000" height="1000" viewBox="0 0 1000 1000" fill="none" xmlns="http://www.w3.org/2000/svg">
<g clip-path="url(#clip0_422_78869)">
<rect width="1000" height="1000" fill="#4E9AE9"/>
<path fill-rule="evenodd" clip-rule="evenodd" d="M740.601 999.009L740.601 942.023C740.601 848.773 721.556 756.385 684.498 670.113C647.438 583.836 593.058 505.306 524.36 439.061C455.658 372.813 373.985 320.156 283.954 284.196C193.919 248.235 97.353 229.701 -0.213983 229.701C-97.781 229.701 -194.347 248.235 -284.382 284.196C-374.413 320.156 -456.086 372.813 -524.788 439.061C-593.486 505.306 -647.866 583.836 -684.926 670.113C-721.985 756.384 -741.029 848.773 -741.029 942.023L-741.029 999.009L-855 999.009L-855 942.023C-855 833.219 -832.773 725.532 -789.645 625.13C-746.519 524.734 -683.368 433.649 -603.9 357.019C-524.437 280.395 -430.212 219.717 -326.657 178.355C-223.104 136.994 -112.184 115.73 -0.213973 115.73C111.756 115.73 222.676 136.994 326.229 178.355C429.784 219.717 524.009 280.395 603.472 357.02C682.939 433.649 746.091 524.734 789.217 625.131C832.345 725.532 854.572 833.219 854.572 942.023L854.572 999.009L740.601 999.009Z" fill="#E40303"/>
<path fill-rule="evenodd" clip-rule="evenodd" d="M640.875 999.009L640.875 942.023C640.875 859.87 624.358 778.492 592.237 702.527C560.114 626.558 512.999 557.454 453.522 499.191C394.043 440.926 323.367 394.647 245.502 363.052C167.634 331.456 84.1359 315.18 -0.214418 315.18C-84.5648 315.18 -168.063 331.456 -245.93 363.052C-323.796 394.647 -394.472 440.926 -453.951 499.191C-513.428 557.454 -560.543 626.558 -592.666 702.526C-624.787 778.492 -641.304 859.87 -641.304 942.023L-641.304 999.009L-755.276 999.009L-755.276 942.023C-755.276 844.573 -735.68 748.105 -697.639 658.139C-659.598 568.176 -603.874 486.511 -533.706 417.775C-463.54 349.041 -380.305 294.579 -288.782 257.443C-197.261 220.307 -99.2092 201.208 -0.214408 201.208C98.7804 201.208 196.832 220.308 288.353 257.443C379.876 294.579 463.111 349.041 533.277 417.775C603.445 486.511 659.169 568.176 697.21 658.14C735.251 748.106 754.847 844.573 754.847 942.023L754.847 999.009L640.875 999.009Z" fill="#FF8C00"/>
<path fill-rule="evenodd" clip-rule="evenodd" d="M527.095 998.717L527.063 941.731C527.026 874.578 513.434 808.056 487.025 745.949C460.615 683.839 421.884 627.32 372.975 579.656C324.062 531.989 265.929 494.116 201.86 468.266C137.788 442.415 69.0771 429.113 -0.337724 429.151C-69.7525 429.189 -138.449 442.568 -202.492 468.489C-266.533 494.41 -324.624 532.347 -373.484 580.068C-422.341 627.786 -461.009 684.348 -487.35 746.487C-513.691 808.623 -527.21 875.16 -527.173 942.314L-527.141 999.299L-641.113 999.362L-641.144 942.376C-641.19 859.86 -624.574 778.177 -592.283 702.004C-559.993 625.834 -512.681 556.708 -453.118 498.533C-393.558 440.362 -322.913 394.277 -245.252 362.843C-167.594 331.411 -84.3971 315.226 -0.400653 315.179C83.5958 315.133 166.81 331.226 244.503 362.573C322.199 393.921 392.894 439.927 452.519 498.033C512.146 556.142 559.534 625.216 591.908 701.35C624.283 777.488 640.989 859.152 641.035 941.669L641.066 998.654L527.095 998.717Z" fill="#FFED00"/>
<path fill-rule="evenodd" clip-rule="evenodd" d="M413.193 998.779L413.162 941.793C413.132 888.328 402.311 835.358 381.278 785.894C360.244 736.428 329.389 691.395 290.406 653.404C251.42 615.411 205.069 585.21 153.965 564.591C102.858 543.971 48.0419 533.357 -7.34239 533.387C-62.7268 533.418 -117.531 544.092 -168.615 564.769C-219.697 585.444 -266.014 615.697 -304.958 653.733C-343.899 691.767 -374.704 736.834 -395.684 786.323C-416.662 835.81 -427.425 888.792 -427.395 942.257L-427.364 999.243L-541.335 999.306L-541.367 942.32C-541.405 873.492 -527.545 805.365 -500.616 741.841C-473.688 678.32 -434.24 620.688 -384.592 572.198C-334.948 523.711 -276.077 485.311 -211.376 459.123C-146.677 432.936 -77.3715 419.454 -7.40531 419.416C62.5607 419.377 131.881 432.782 196.609 458.898C261.339 485.014 320.252 523.35 369.95 571.782C419.651 620.217 459.163 677.805 486.161 741.296C513.16 804.79 527.095 872.902 527.133 941.73L527.165 998.716L413.193 998.779Z" fill="#008026"/>
<path fill-rule="evenodd" clip-rule="evenodd" d="M313.426 998.835L313.395 941.85C313.372 901.162 305.137 860.844 289.123 823.183C273.107 785.518 249.605 751.208 219.888 722.248C190.169 693.285 154.816 670.244 115.815 654.508C76.8114 638.772 34.9654 630.667 -7.3217 630.69C-49.6088 630.714 -91.4459 638.864 -130.432 654.644C-169.416 670.423 -204.743 693.503 -234.431 722.498C-264.116 751.491 -287.58 785.828 -303.554 823.51C-319.526 861.189 -327.717 901.516 -327.694 942.204L-327.663 999.189L-441.634 999.252L-441.666 942.267C-441.697 886.216 -430.409 830.743 -408.486 779.027C-386.564 727.314 -354.456 680.413 -314.065 640.964C-273.677 601.517 -225.796 570.29 -173.192 548.998C-120.591 527.708 -64.2534 516.75 -7.38463 516.719C49.4842 516.688 105.834 527.583 158.459 548.815C211.086 570.049 259.001 601.223 299.432 640.625C339.867 680.03 372.027 726.896 394.006 778.584C415.987 830.276 427.335 885.736 427.366 941.787L427.397 998.772L313.426 998.835Z" fill="#004DFF"/>
<path fill-rule="evenodd" clip-rule="evenodd" d="M232.438 999.411L232.414 955.603C232.396 924.325 226.132 893.329 213.95 864.377C201.767 835.422 183.89 809.046 161.284 786.783C138.677 764.517 111.785 746.804 82.1171 734.707C52.4478 722.609 20.6163 716.379 -11.5507 716.397C-43.7178 716.414 -75.5424 722.68 -105.198 734.81C-134.853 746.94 -161.725 764.683 -184.308 786.973C-206.889 809.262 -224.737 835.658 -236.888 864.626C-249.038 893.592 -255.268 924.594 -255.251 955.872L-255.227 999.68L-341.923 999.728L-341.947 955.92C-341.971 912.831 -333.385 870.186 -316.708 830.429C-300.033 790.675 -275.609 754.62 -244.884 724.293C-214.162 693.968 -177.741 669.962 -137.726 653.595C-97.713 637.227 -54.8581 628.804 -11.5991 628.78C31.6599 628.756 74.5241 637.132 114.555 653.455C154.588 669.779 191.036 693.744 221.792 724.035C252.55 754.328 277.013 790.356 293.733 830.092C310.453 869.831 319.086 912.466 319.11 955.555L319.134 999.363L232.438 999.411Z" fill="#750787"/>
</g>
<defs>
<clipPath id="clip0_422_78869">
<rect width="1000" height="1000" fill="white"/>
</clipPath>
</defs>
</svg>
