<svg width="1000" height="1000" viewBox="0 0 1000 1000" fill="none" xmlns="http://www.w3.org/2000/svg">
<mask id="path-1-inside-1_863_36539" fill="white">
<path fill-rule="evenodd" clip-rule="evenodd" d="M732.601 259.614C733.88 262.078 736.228 264 739.004 264C753.388 264 765.953 271.787 772.714 283.375C777.196 291.057 784.358 298.32 787.737 306.547C788.553 308.537 789.004 310.716 789.004 313C789.004 317.517 787.242 321.623 784.368 324.668C782.095 327.076 780.494 330.269 780.494 333.58C780.494 349.075 767.933 361.636 752.438 361.636H737.02C726.398 361.636 717.4 370.261 707.834 374.876C705.012 376.237 701.847 377 698.504 377H246.504C238.882 377 232.187 373.034 228.369 367.053C224.414 360.859 220.995 353.782 217.373 347.388C215.064 343.312 213.746 338.6 213.746 333.58C213.746 328.287 212.161 322.846 210.681 317.765C210.24 316.253 210.004 314.654 210.004 313C210.004 311.027 210.34 309.132 210.958 307.37C213.421 300.35 218.351 293.87 221.391 287.079C227.481 273.477 241.136 264 257.004 264C258.012 264 258.882 263.316 259.216 262.366C262.158 253.998 270.131 248 279.504 248H713.504C721.814 248 729.022 252.714 732.601 259.614Z"/>
</mask>
<path fill-rule="evenodd" clip-rule="evenodd" d="M732.601 259.614C733.88 262.078 736.228 264 739.004 264C753.388 264 765.953 271.787 772.714 283.375C777.196 291.057 784.358 298.32 787.737 306.547C788.553 308.537 789.004 310.716 789.004 313C789.004 317.517 787.242 321.623 784.368 324.668C782.095 327.076 780.494 330.269 780.494 333.58C780.494 349.075 767.933 361.636 752.438 361.636H737.02C726.398 361.636 717.4 370.261 707.834 374.876C705.012 376.237 701.847 377 698.504 377H246.504C238.882 377 232.187 373.034 228.369 367.053C224.414 360.859 220.995 353.782 217.373 347.388C215.064 343.312 213.746 338.6 213.746 333.58C213.746 328.287 212.161 322.846 210.681 317.765C210.24 316.253 210.004 314.654 210.004 313C210.004 311.027 210.34 309.132 210.958 307.37C213.421 300.35 218.351 293.87 221.391 287.079C227.481 273.477 241.136 264 257.004 264C258.012 264 258.882 263.316 259.216 262.366C262.158 253.998 270.131 248 279.504 248H713.504C721.814 248 729.022 252.714 732.601 259.614Z" fill="#E40303"/>
<path d="M259.216 262.366L253.556 260.375L259.216 262.366ZM784.368 324.668L788.731 328.787L784.368 324.668ZM707.834 374.876L705.227 369.472L707.834 374.876ZM772.714 283.375L767.531 286.398L772.714 283.375ZM787.737 306.547L793.287 304.268L787.737 306.547ZM210.681 317.765L204.92 319.443L210.681 317.765ZM732.601 259.614L727.275 262.377L732.601 259.614ZM777.896 280.351C770.104 266.996 755.608 258 739.004 258V270C751.167 270 761.801 276.577 767.531 286.398L777.896 280.351ZM795.004 313C795.004 309.921 794.396 306.969 793.287 304.268L782.186 308.826C782.711 310.105 783.004 311.511 783.004 313H795.004ZM788.731 328.787C792.614 324.673 795.004 319.109 795.004 313H783.004C783.004 315.926 781.87 318.574 780.005 320.549L788.731 328.787ZM752.438 367.636C771.247 367.636 786.494 352.389 786.494 333.58H774.494C774.494 345.761 764.62 355.636 752.438 355.636V367.636ZM737.02 367.636H752.438V355.636H737.02V367.636ZM698.504 383C702.769 383 706.823 382.025 710.441 380.28L705.227 369.472C703.201 370.449 700.925 371 698.504 371V383ZM246.504 383H698.504V371H246.504V383ZM223.311 370.282C228.185 377.916 236.749 383 246.504 383V371C241.016 371 236.188 368.152 233.426 363.825L223.311 370.282ZM207.746 333.58C207.746 339.663 209.346 345.391 212.153 350.345L222.594 344.431C220.782 341.232 219.746 337.536 219.746 333.58H207.746ZM204.004 313C204.004 315.228 204.322 317.392 204.92 319.443L216.441 316.086C216.158 315.114 216.004 314.08 216.004 313H204.004ZM205.297 305.384C204.458 307.775 204.004 310.341 204.004 313H216.004C216.004 311.713 216.223 310.489 216.62 309.356L205.297 305.384ZM257.004 258C238.685 258 222.936 268.945 215.915 284.627L226.867 289.531C232.026 278.008 243.586 270 257.004 270V258ZM264.876 264.356C267 258.316 272.756 254 279.504 254V242C267.505 242 257.316 249.681 253.556 260.375L264.876 264.356ZM279.504 254H713.504V242H279.504V254ZM713.504 254C719.486 254 724.687 257.388 727.275 262.377L737.928 256.852C733.358 248.041 724.141 242 713.504 242V254ZM257.004 270C260.832 270 263.792 267.44 264.876 264.356L253.556 260.375C253.971 259.193 255.191 258 257.004 258V270ZM216.62 309.356C217.651 306.417 219.247 303.463 221.162 300.124C222.989 296.942 225.19 293.277 226.867 289.531L215.915 284.627C214.552 287.672 212.768 290.642 210.754 294.152C208.829 297.507 206.729 301.302 205.297 305.384L216.62 309.356ZM233.426 363.825C229.549 357.752 226.519 351.36 222.594 344.431L212.153 350.345C215.472 356.205 219.279 363.966 223.311 370.282L233.426 363.825ZM780.005 320.549C776.97 323.764 774.494 328.362 774.494 333.58H786.494C786.494 332.176 787.219 330.388 788.731 328.787L780.005 320.549ZM737.02 355.636C730.099 355.636 724.067 358.446 719.05 361.318C716.544 362.753 714.02 364.371 711.779 365.758C709.454 367.197 707.32 368.462 705.227 369.472L710.441 380.28C713.131 378.982 715.709 377.438 718.094 375.962C720.563 374.434 722.745 373.03 725.013 371.732C729.542 369.139 733.319 367.636 737.02 367.636V355.636ZM767.531 286.398C769.975 290.587 773.185 294.717 775.791 298.291C778.542 302.065 780.794 305.436 782.186 308.826L793.287 304.268C791.301 299.431 788.283 295.057 785.488 291.222C782.547 287.188 779.934 283.845 777.896 280.351L767.531 286.398ZM219.746 333.58C219.746 327.278 217.872 320.996 216.441 316.086L204.92 319.443C206.451 324.697 207.746 329.296 207.746 333.58H219.746ZM739.004 258C739.004 258 739.004 258 739.005 258C739.005 258 739.005 258 739.005 258C739.003 258 738.995 257.998 738.978 257.992C738.944 257.981 738.865 257.947 738.749 257.864C738.501 257.684 738.183 257.345 737.928 256.852L727.275 262.377C729.226 266.137 733.302 270 739.004 270V258Z" fill="black" mask="url(#path-1-inside-1_863_36539)"/>
<path fill-rule="evenodd" clip-rule="evenodd" d="M251.808 267.718C249.524 267.718 247.221 267.108 244.955 267.386C234.533 268.665 218.579 287.854 220.101 298.03C220.108 298.073 220.111 298.114 220.111 298.157C220.113 298.394 220.123 298.628 220.141 298.856C220.15 298.97 220.061 299.069 219.947 299.069C205.31 299.069 209.289 317.892 216.259 325.711C216.935 326.47 216.399 328 215.383 328C214.697 328 214.209 328.665 214.409 329.321C215.326 332.325 216.069 335.025 216.737 337.451C218.623 344.301 219.909 348.973 222.821 352.16C224.02 353.473 225.495 354.533 227.4 355.39C227.69 355.521 227.601 356 227.283 356C227.127 356 227 356.129 227.001 356.285C227.07 363.202 229.631 368.559 232.237 372.049C234.39 374.932 238.018 376 241.616 376H322.37C331.49 375.57 339.616 372.873 346.306 369.453C354.212 365.41 350.52 356 341.64 356C358.566 354.045 372.553 351.397 385.866 348.878L385.866 348.877L385.866 348.877L385.866 348.877L385.867 348.877C399.693 346.26 412.792 343.781 427.701 342.358C432.677 341.883 438.153 341.41 443.886 340.916L443.888 340.915C445.398 340.785 446.925 340.653 448.466 340.52C471.549 338.515 470.112 328 446.942 328H280.989C297.143 326.06 314.658 322.264 331 315.133C346.484 308.376 376.416 306.786 402.707 305.39C417.856 304.585 417.168 299.069 401.997 299.069H253.984C253.492 299.069 253.214 298.493 253.5 298.093C272.781 271.059 341.856 269.531 376.744 268.76C379.771 268.693 379.723 267.718 376.695 267.718L251.808 267.718ZM727.299 274.596C741.753 281.435 730.39 299 714.4 299H556.459C542.107 299 541.138 306.648 555.423 308.034C573.877 309.823 593.996 311.774 610.853 315.569C632.176 320.37 657.403 324.847 681.702 328H602.456C589.434 328 588.201 335.387 601.118 337.034C615.156 338.823 630.461 340.774 643.285 344.569C688.985 358.095 757.014 365.534 766.936 355.052C772.797 348.86 776.428 340.544 774.463 334.774C773.612 332.277 774.132 327.917 775.998 326.052C780.796 321.254 784.077 316.568 785.303 312.481C789.013 300.105 771.18 288.633 766.303 276.67C765.686 275.158 765.046 273.794 764.406 272.65C762.423 269.108 757.64 269.395 753.581 269.395L708.276 269.395C706.372 269.395 706.245 270.284 708.144 270.421C713.157 270.782 720.332 271.299 727.299 274.596ZM701.614 360H534.991C528.157 360 527.946 363.331 534.771 363.67C549.402 364.397 565.354 365.189 578.719 366.731C626.351 372.226 697.254 375.248 707.596 370.99C717.937 366.731 721.616 360 701.614 360Z" fill="black" fill-opacity="0.16"/>
<path d="M778.739 297.144L546.359 297.144" stroke="black" stroke-width="6" stroke-linecap="round"/>
<path d="M364.004 269L245.004 269" stroke="black" stroke-width="6" stroke-linecap="round"/>
<path d="M323.004 329L216.004 329" stroke="black" stroke-width="6" stroke-linecap="round"/>
<path d="M726.004 361L616.004 361" stroke="black" stroke-width="6" stroke-linecap="round"/>
<path d="M778.004 329L683.004 329" stroke="black" stroke-width="6" stroke-linecap="round"/>
<path d="M737.004 267L702.004 267" stroke="black" stroke-width="6" stroke-linecap="round"/>
</svg>
