<svg width="1000" height="1000" viewBox="0 0 1000 1000" fill="none" xmlns="http://www.w3.org/2000/svg">
<path d="M334.644 418.707L338.237 426.058L341.831 418.707C347.551 407.004 358.232 403.007 367.249 405.019C376.162 407.007 384.237 415.07 384.237 429.485C384.237 435.824 381.515 443.219 376.969 451.019C372.464 458.748 366.401 466.485 360.247 473.412C354.106 480.324 347.952 486.344 343.328 490.64C341.282 492.54 339.54 494.099 338.237 495.243C336.935 494.099 335.193 492.54 333.147 490.64C328.522 486.344 322.369 480.324 316.228 473.412C310.073 466.485 304.01 458.748 299.506 451.019C294.96 443.219 292.237 435.824 292.237 429.485C292.237 415.07 300.313 407.007 309.225 405.019C318.243 403.007 328.923 407.004 334.644 418.707Z" fill="#E40303" stroke="#090909" stroke-width="8"/>
<path d="M459.644 418.707L463.237 426.058L466.831 418.707C472.551 407.004 483.232 403.007 492.249 405.019C501.162 407.007 509.237 415.07 509.237 429.485C509.237 435.824 506.515 443.219 501.969 451.019C497.464 458.748 491.401 466.485 485.247 473.412C479.106 480.324 472.952 486.344 468.328 490.64C466.282 492.54 464.54 494.099 463.237 495.243C461.935 494.099 460.193 492.54 458.147 490.64C453.522 486.344 447.369 480.324 441.228 473.412C435.073 466.485 429.01 458.748 424.506 451.019C419.96 443.219 417.237 435.824 417.237 429.485C417.237 415.07 425.313 407.007 434.225 405.019C443.243 403.007 453.923 407.004 459.644 418.707Z" fill="#E40303" stroke="#090909" stroke-width="8"/>
</svg>
