<svg width="1000" height="1000" viewBox="0 0 1000 1000" fill="none" xmlns="http://www.w3.org/2000/svg">
<path d="M321.5 461.283C341.106 461.283 357 450.858 357 437.998C357 425.139 341.106 437.998 321.5 437.998C301.894 437.998 286 425.139 286 437.998C286 450.858 301.894 461.283 321.5 461.283Z" fill="black"/>
<path d="M272.28 398.898C281.531 387.131 310.647 362.688 353.107 359.055" stroke="black" stroke-width="14" stroke-linecap="round"/>
<path d="M446.5 461.283C466.106 461.283 482 450.858 482 437.998C482 425.139 466.106 437.998 446.5 437.998C426.894 437.998 411 425.139 411 437.998C411 450.858 426.894 461.283 446.5 461.283Z" fill="black"/>
<path d="M506.598 398.898C497.347 387.131 468.231 362.688 425.771 359.055" stroke="black" stroke-width="14" stroke-linecap="round"/>
</svg>
