<svg width="1000" height="1000" viewBox="0 0 1000 1000" fill="none" xmlns="http://www.w3.org/2000/svg">
<path d="M330.146 488.999C349.675 488.999 365.506 469.878 365.506 446.292C365.506 422.706 349.675 403.585 330.146 403.585C310.617 403.585 294.785 422.706 294.785 446.292C294.785 469.878 310.617 488.999 330.146 488.999Z" fill="black"/>
<ellipse rx="11.5306" ry="19.0656" transform="matrix(-1 0 0 1 314.003 446.547)" fill="white"/>
<path d="M280.948 419.805C295.81 421.566 333.681 418.294 366.274 391.112" stroke="black" stroke-width="14" stroke-linecap="round"/>
<path d="M455.094 489C474.623 489 490.454 469.879 490.454 446.293C490.454 422.707 474.623 403.586 455.094 403.586C435.565 403.586 419.733 422.707 419.733 446.293C419.733 469.879 435.565 489 455.094 489Z" fill="black"/>
<ellipse rx="11.5306" ry="19.0656" transform="matrix(-1 0 0 1 443.05 446.547)" fill="white"/>
<path d="M501.984 417.313C487.123 419.092 449.251 415.788 416.658 388.333" stroke="black" stroke-width="14" stroke-linecap="round"/>
<path d="M323.686 391.687C323.686 405.41 312.564 416.533 298.843 416.533C285.123 416.533 274 405.41 274 391.687C274 388.351 275.234 383.42 277.317 377.731C279.378 372.101 282.191 365.934 285.18 360.209C288.172 354.479 291.312 349.243 294.01 345.466C295.365 343.57 296.569 342.097 297.556 341.119C298.051 340.628 298.444 340.31 298.731 340.127C298.774 340.1 298.811 340.077 298.843 340.059C298.875 340.077 298.912 340.1 298.955 340.127C299.243 340.31 299.636 340.628 300.131 341.119C301.117 342.097 302.322 343.57 303.676 345.466C306.375 349.243 309.515 354.479 312.506 360.209C315.495 365.934 318.309 372.101 320.369 377.731C322.452 383.42 323.686 388.351 323.686 391.687Z" fill="#88C9F9" stroke="black" stroke-width="4"/>
<path d="M543.999 407.348C543.999 424.151 530.3 437.785 513.366 437.785C496.432 437.785 482.732 424.151 482.732 407.348C482.732 403.242 484.255 397.226 486.79 390.343C489.303 383.521 492.731 376.052 496.372 369.122C500.014 362.187 503.842 355.843 507.137 351.258C508.79 348.959 510.27 347.157 511.493 345.951C512.107 345.347 512.608 344.939 512.994 344.695C513.176 344.58 513.298 344.523 513.366 344.495C513.433 344.523 513.555 344.58 513.738 344.695C514.123 344.94 514.625 345.347 515.238 345.952C516.462 347.157 517.942 348.959 519.595 351.259C522.89 355.844 526.717 362.189 530.36 369.124C534 376.055 537.429 383.524 539.941 390.346C542.476 397.229 543.999 403.243 543.999 407.348Z" fill="#88C9F9" stroke="black" stroke-width="4"/>
<path d="M513.366 439.785C531.394 439.785 546 425.267 546 407.348C546 389.436 519.894 342.474 513.366 342.474C506.838 342.474 528.199 389.43 528.199 407.348C528.199 425.267 495.339 439.785 513.366 439.785Z" fill="black" fill-opacity="0.25"/>
<path d="M298.342 415.178C311.594 415.178 322.332 404.331 322.332 390.943C322.332 377.56 303.141 342.474 298.342 342.474C293.543 342.474 303.317 377.556 303.317 390.943C303.317 404.331 285.09 415.178 298.342 415.178Z" fill="black" fill-opacity="0.25"/>
</svg>
