<svg width="1008" height="1011" viewBox="0 0 1008 1011" fill="none" xmlns="http://www.w3.org/2000/svg">
<g filter="url(#filter0_d_25_5)">
<path d="M355.5 493C372.897 493 387 472.853 387 448C387 423.147 372.897 403 355.5 403C338.103 403 324 423.147 324 448C324 472.853 338.103 493 355.5 493Z" fill="black"/>
<ellipse rx="11.76" ry="20" transform="matrix(-1 0 0 1 338.64 448.541)" fill="white"/>
<path d="M456.5 493C473.897 493 488 472.853 488 448C488 423.147 473.897 403 456.5 403C439.103 403 425 423.147 425 448C425 472.853 439.103 493 456.5 493Z" fill="black"/>
<ellipse rx="10.584" ry="18" transform="matrix(-1 0 0 1 440.875 448.485)" fill="white"/>
</g>
<defs>
<filter id="filter0_d_25_5" x="0" y="0" width="1008" height="1011" filterUnits="userSpaceOnUse" color-interpolation-filters="sRGB">
<feFlood flood-opacity="0" result="BackgroundImageFix"/>
<feColorMatrix in="SourceAlpha" type="matrix" values="0 0 0 0 0 0 0 0 0 0 0 0 0 0 0 0 0 0 127 0" result="hardAlpha"/>
<feOffset dx="-1" dy="7"/>
<feGaussianBlur stdDeviation="2"/>
<feComposite in2="hardAlpha" operator="out"/>
<feColorMatrix type="matrix" values="0 0 0 0 0 0 0 0 0 0 0 0 0 0 0 0 0 0 0.25 0"/>
<feBlend mode="normal" in2="BackgroundImageFix" result="effect1_dropShadow_25_5"/>
<feBlend mode="normal" in="SourceGraphic" in2="effect1_dropShadow_25_5" result="shape"/>
</filter>
</defs>
</svg>
