<svg width="1000" height="1000" viewBox="0 0 1000 1000" fill="none" xmlns="http://www.w3.org/2000/svg">
<path d="M331.146 484.999C350.675 484.999 366.506 465.878 366.506 442.292C366.506 418.706 350.675 399.585 331.146 399.585C311.617 399.585 295.785 418.706 295.785 442.292C295.785 465.878 311.617 484.999 331.146 484.999Z" fill="black"/>
<ellipse rx="7.5" ry="8.5" transform="matrix(-1 0 0 1 348.5 427.5)" fill="white"/>
<circle r="4.5" transform="matrix(-1 0 0 1 345.5 447.5)" fill="white"/>
<ellipse rx="16.5" ry="19.5" transform="matrix(-1 0 0 1 319.5 442.5)" fill="white"/>
<path d="M456.1 484.998C475.629 484.998 491.46 465.877 491.46 442.291C491.46 418.705 475.629 399.584 456.1 399.584C436.571 399.584 420.739 418.705 420.739 442.291C420.739 465.877 436.571 484.998 456.1 484.998Z" fill="black"/>
<circle r="4.5" transform="matrix(-1 0 0 1 469.5 447.5)" fill="white"/>
<ellipse rx="16.5" ry="19.5" transform="matrix(-1 0 0 1 444.5 442.5)" fill="white"/>
<ellipse rx="7.5" ry="8.5" transform="matrix(-1 0 0 1 472.5 427.5)" fill="white"/>
<path d="M516.598 398.615C507.347 386.848 478.231 362.405 435.771 358.772" stroke="black" stroke-width="14" stroke-linecap="round"/>
<path d="M282.28 398.615C291.531 386.848 320.647 362.405 363.107 358.772" stroke="black" stroke-width="14" stroke-linecap="round"/>
<path d="M459.267 526.874C459.267 543.677 445.567 557.311 428.633 557.311C411.699 557.311 398 543.677 398 526.874C398 522.768 399.523 516.752 402.058 509.869C404.57 503.047 407.999 495.578 411.639 488.648C415.282 481.713 419.109 475.369 422.404 470.784C424.057 468.485 425.537 466.683 426.761 465.477C427.374 464.873 427.876 464.465 428.261 464.221C428.444 464.106 428.566 464.049 428.633 464.021C428.701 464.049 428.823 464.106 429.005 464.221C429.391 464.465 429.892 464.873 430.506 465.477C431.73 466.683 433.21 468.485 434.862 470.785C438.158 475.37 441.985 481.715 445.627 488.65C449.268 495.581 452.696 503.05 455.209 509.872C457.744 516.755 459.267 522.769 459.267 526.874Z" fill="#88C9F9" stroke="black" stroke-width="4"/>
<path d="M428.635 559.311C446.662 559.311 461.268 544.793 461.268 526.874C461.268 508.962 435.162 462 428.635 462C422.107 462 443.467 508.955 443.467 526.874C443.467 544.793 410.607 559.311 428.635 559.311Z" fill="black" fill-opacity="0.25"/>
</svg>
