<svg width="1000" height="1000" viewBox="0 0 1000 1000" fill="none" xmlns="http://www.w3.org/2000/svg">
<path d="M367.1 450.875C367.1 471.793 350.142 488.75 329.225 488.75C308.307 488.75 291.35 471.793 291.35 450.875C291.35 429.957 308.307 413 329.225 413C350.142 413 367.1 429.957 367.1 450.875Z" fill="white" stroke="black" stroke-width="6"/>
<ellipse rx="17" ry="16.5" transform="matrix(-1 0 0 1 318 431.612)" fill="#090909"/>
<path d="M492.612 450.987C492.612 471.905 475.655 488.862 454.737 488.862C433.82 488.862 416.862 471.905 416.862 450.987C416.862 430.07 433.82 413.112 454.737 413.112C475.655 413.112 492.612 430.07 492.612 450.987Z" fill="white" stroke="black" stroke-width="6"/>
<circle r="15.5" transform="matrix(-1 0 0 1 441.5 433.612)" fill="#090909"/>
</svg>
