<svg width="1000" height="1000" viewBox="0 0 1000 1000" fill="none" xmlns="http://www.w3.org/2000/svg">
<path d="M318.273 577.292C321.647 542.217 356.135 514 399 514C441.865 514 476.353 542.217 479.727 577.292C479.856 578.638 478.74 580 477 580L321 580C319.26 580 318.144 578.638 318.273 577.292Z" fill="#090909" stroke="black" stroke-width="6"/>
<path d="M399.5 620C371.159 620 346.289 592.77 339.008 554.085C339.109 552.587 340.16 550.083 342.84 546.918C345.566 543.697 349.663 540.173 354.994 536.903C365.644 530.371 380.979 525 399.5 525C416.797 525 432.173 529.317 443.138 535.317C448.624 538.318 452.914 541.69 455.796 545.06C458.607 548.347 459.916 551.43 459.996 554.063C452.72 592.759 427.846 620 399.5 620Z" fill="#E40303" stroke="black" stroke-width="6"/>
<path opacity="0.5" d="M400 604C408.081 604 414.846 578.79 416.573 545.001C417.052 535.624 409.389 528 400 528C390.611 528 382.948 535.624 383.427 545.001C385.154 578.79 391.918 604 400 604Z" fill="black" fill-opacity="0.25"/>
</svg>
