<svg width="1000" height="1000" viewBox="0 0 1000 1000" fill="none" xmlns="http://www.w3.org/2000/svg">
<path d="M413 607C382.06 601.75 338.745 587.2 413 571" stroke="black" stroke-width="12" stroke-linecap="round"/>
<path d="M413 571C382.06 565.75 338.745 551.2 413 535" stroke="black" stroke-width="12" stroke-linecap="round"/>
<path d="M292.549 537.811C273.077 515.451 239.136 531.657 247.497 562.86C255.134 591.363 314.178 618.533 314.178 618.533C314.178 618.533 351.727 565.482 344.089 536.978C335.729 505.775 298.231 508.711 292.549 537.811Z" fill="#DD2E44" fill-opacity="0.75"/>
<path d="M275.532 538.438L280.906 544.609L282.475 536.578C284.971 523.793 294.253 517.168 303.484 516.777C312.608 516.391 322.495 522.089 326.226 536.014C327.866 542.136 327.151 549.984 324.778 558.695C322.428 567.326 318.573 576.368 314.422 584.652C310.279 592.919 305.893 600.326 302.538 605.672C301.053 608.038 299.774 609.994 298.812 611.436C297.258 610.668 295.172 609.613 292.704 608.307C287.125 605.355 279.623 601.133 271.902 596.045C264.165 590.947 256.306 585.043 249.955 578.744C243.545 572.386 239.001 565.948 237.361 559.825C233.629 545.9 239.343 536.022 247.437 531.795C255.627 527.518 266.978 528.614 275.532 538.438Z" fill="#E40303" stroke="#090909" stroke-width="8"/>
</svg>
