<svg width="1000" height="1000" viewBox="0 0 1000 1000" fill="none" xmlns="http://www.w3.org/2000/svg">
<g filter="url(#filter0_d_610_20721)">
<path d="M349.185 591.133C395.122 585.929 401.537 555.013 398.711 536.911C398.29 534.213 397.05 531.704 395.192 529.702C376.657 509.725 350.414 517.084 339.446 524.441C330.428 530.491 316.427 554.628 299.605 562.35C282.783 570.072 281.012 560.244 274.815 560.244C268.617 560.244 287.21 598.153 349.185 591.133Z" fill="black" stroke="black" stroke-width="2" stroke-linecap="round"/>
<path d="M449.502 591.133C403.564 585.929 397.149 555.013 399.975 536.911C400.397 534.213 401.637 531.704 403.494 529.702C422.029 509.725 448.273 517.084 459.241 524.441C468.258 530.491 482.26 554.628 499.082 562.35C515.904 570.072 517.674 560.244 523.872 560.244C530.069 560.244 511.477 598.153 449.502 591.133Z" fill="black" stroke="black" stroke-width="2" stroke-linecap="round"/>
</g>
<path d="M363.239 519.763C355.142 516.277 341.885 525.973 332.456 535.776C325.385 543.129 315.967 551.782 324.065 555.268C332.162 558.754 364.62 545.743 368.842 535.936C373.064 526.13 371.337 523.25 363.239 519.763Z" fill="white" fill-opacity="0.25"/>
<path d="M409.216 544.966C415.021 548.319 428.646 544.791 432.5 534C435 527 435.305 523.352 429.5 520C423.695 516.647 411.568 523.347 407.012 531.237C402.455 539.127 403.411 541.614 409.216 544.966Z" fill="white" fill-opacity="0.25"/>
<defs>
<filter id="filter0_d_610_20721" x="267.687" y="515.806" width="261.313" height="88.1938" filterUnits="userSpaceOnUse" color-interpolation-filters="sRGB">
<feFlood flood-opacity="0" result="BackgroundImageFix"/>
<feColorMatrix in="SourceAlpha" type="matrix" values="0 0 0 0 0 0 0 0 0 0 0 0 0 0 0 0 0 0 127 0" result="hardAlpha"/>
<feOffset dx="-1" dy="7"/>
<feGaussianBlur stdDeviation="2"/>
<feComposite in2="hardAlpha" operator="out"/>
<feColorMatrix type="matrix" values="0 0 0 0 0 0 0 0 0 0 0 0 0 0 0 0 0 0 0.25 0"/>
<feBlend mode="normal" in2="BackgroundImageFix" result="effect1_dropShadow_610_20721"/>
<feBlend mode="normal" in="SourceGraphic" in2="effect1_dropShadow_610_20721" result="shape"/>
</filter>
</defs>
</svg>
