<svg width="1000" height="1000" viewBox="0 0 1000 1000" fill="none" xmlns="http://www.w3.org/2000/svg">
<mask id="path-1-inside-1_863_36539" fill="white">
<path fill-rule="evenodd" clip-rule="evenodd" d="M732.598 259.614C733.876 262.078 736.224 264 739 264C753.384 264 765.949 271.787 772.71 283.375C777.192 291.057 784.354 298.32 787.733 306.547C788.55 308.537 789 310.716 789 313C789 317.517 787.238 321.623 784.364 324.668C782.091 327.076 780.491 330.269 780.491 333.58C780.491 349.075 767.929 361.636 752.435 361.636H737.016C726.395 361.636 717.396 370.261 707.83 374.876C705.008 376.237 701.843 377 698.5 377H246.5C238.878 377 232.183 373.034 228.365 367.053C224.41 360.859 220.992 353.782 217.369 347.388C215.06 343.312 213.742 338.6 213.742 333.58C213.742 328.287 212.158 322.846 210.677 317.765C210.236 316.253 210 314.654 210 313C210 311.027 210.336 309.132 210.954 307.37C213.418 300.35 218.347 293.87 221.387 287.079C227.477 273.477 241.132 264 257 264C258.008 264 258.878 263.316 259.212 262.366C262.154 253.998 270.127 248 279.5 248H713.5C721.81 248 729.018 252.714 732.598 259.614Z"/>
</mask>
<path fill-rule="evenodd" clip-rule="evenodd" d="M732.598 259.614C733.876 262.078 736.224 264 739 264C753.384 264 765.949 271.787 772.71 283.375C777.192 291.057 784.354 298.32 787.733 306.547C788.55 308.537 789 310.716 789 313C789 317.517 787.238 321.623 784.364 324.668C782.091 327.076 780.491 330.269 780.491 333.58C780.491 349.075 767.929 361.636 752.435 361.636H737.016C726.395 361.636 717.396 370.261 707.83 374.876C705.008 376.237 701.843 377 698.5 377H246.5C238.878 377 232.183 373.034 228.365 367.053C224.41 360.859 220.992 353.782 217.369 347.388C215.06 343.312 213.742 338.6 213.742 333.58C213.742 328.287 212.158 322.846 210.677 317.765C210.236 316.253 210 314.654 210 313C210 311.027 210.336 309.132 210.954 307.37C213.418 300.35 218.347 293.87 221.387 287.079C227.477 273.477 241.132 264 257 264C258.008 264 258.878 263.316 259.212 262.366C262.154 253.998 270.127 248 279.5 248H713.5C721.81 248 729.018 252.714 732.598 259.614Z" fill="white"/>
<path d="M259.212 262.366L253.552 260.375L259.212 262.366ZM784.364 324.668L788.727 328.787L784.364 324.668ZM707.83 374.876L705.223 369.472L707.83 374.876ZM772.71 283.375L767.527 286.398L772.71 283.375ZM787.733 306.547L793.283 304.268L787.733 306.547ZM210.677 317.765L204.916 319.443L210.677 317.765ZM732.598 259.614L727.271 262.377L732.598 259.614ZM777.892 280.351C770.1 266.996 755.604 258 739 258V270C751.163 270 761.797 276.577 767.527 286.398L777.892 280.351ZM795 313C795 309.921 794.392 306.969 793.283 304.268L782.182 308.826C782.707 310.105 783 311.511 783 313H795ZM788.727 328.787C792.61 324.673 795 319.109 795 313H783C783 315.926 781.866 318.574 780.001 320.549L788.727 328.787ZM752.435 367.636C771.243 367.636 786.491 352.389 786.491 333.58H774.491C774.491 345.761 764.616 355.636 752.435 355.636V367.636ZM737.016 367.636H752.435V355.636H737.016V367.636ZM698.5 383C702.765 383 706.819 382.025 710.437 380.28L705.223 369.472C703.197 370.449 700.921 371 698.5 371V383ZM246.5 383H698.5V371H246.5V383ZM223.307 370.282C228.181 377.916 236.745 383 246.5 383V371C241.012 371 236.184 368.152 233.422 363.825L223.307 370.282ZM207.742 333.58C207.742 339.663 209.342 345.391 212.149 350.345L222.59 344.431C220.778 341.232 219.742 337.536 219.742 333.58H207.742ZM204 313C204 315.228 204.319 317.392 204.916 319.443L216.437 316.086C216.154 315.114 216 314.08 216 313H204ZM205.293 305.384C204.454 307.775 204 310.341 204 313H216C216 311.713 216.219 310.489 216.616 309.356L205.293 305.384ZM257 258C238.682 258 222.932 268.945 215.911 284.627L226.863 289.531C232.022 278.008 243.583 270 257 270V258ZM264.872 264.356C266.996 258.316 272.752 254 279.5 254V242C267.502 242 257.312 249.681 253.552 260.375L264.872 264.356ZM279.5 254H713.5V242H279.5V254ZM713.5 254C719.482 254 724.683 257.388 727.271 262.377L737.924 256.852C733.354 248.041 724.137 242 713.5 242V254ZM257 270C260.828 270 263.788 267.44 264.872 264.356L253.552 260.375C253.968 259.193 255.187 258 257 258V270ZM216.616 309.356C217.647 306.417 219.243 303.463 221.158 300.124C222.985 296.942 225.186 293.277 226.863 289.531L215.911 284.627C214.548 287.672 212.764 290.642 210.75 294.152C208.825 297.507 206.725 301.302 205.293 305.384L216.616 309.356ZM233.422 363.825C229.545 357.752 226.515 351.36 222.59 344.431L212.149 350.345C215.468 356.205 219.275 363.966 223.307 370.282L233.422 363.825ZM780.001 320.549C776.966 323.764 774.491 328.362 774.491 333.58H786.491C786.491 332.176 787.215 330.388 788.727 328.787L780.001 320.549ZM737.016 355.636C730.095 355.636 724.063 358.446 719.046 361.318C716.541 362.753 714.016 364.371 711.775 365.758C709.45 367.197 707.316 368.462 705.223 369.472L710.437 380.28C713.127 378.982 715.705 377.438 718.09 375.962C720.559 374.434 722.741 373.03 725.009 371.732C729.538 369.139 733.315 367.636 737.016 367.636V355.636ZM767.527 286.398C769.971 290.587 773.181 294.717 775.787 298.291C778.538 302.065 780.79 305.436 782.182 308.826L793.283 304.268C791.297 299.431 788.279 295.057 785.484 291.222C782.543 287.188 779.931 283.845 777.892 280.351L767.527 286.398ZM219.742 333.58C219.742 327.278 217.868 320.996 216.437 316.086L204.916 319.443C206.447 324.697 207.742 329.296 207.742 333.58H219.742ZM739 258C739 258 739 258 739.001 258C739.001 258 739.001 258 739.001 258C739 258 738.991 257.998 738.974 257.992C738.94 257.981 738.861 257.947 738.745 257.864C738.497 257.684 738.18 257.345 737.924 256.852L727.271 262.377C729.222 266.137 733.298 270 739 270V258Z" fill="black" mask="url(#path-1-inside-1_863_36539)"/>
<path fill-rule="evenodd" clip-rule="evenodd" d="M251.808 267.718C249.524 267.718 247.221 267.108 244.955 267.386C234.533 268.665 218.579 287.854 220.101 298.03C220.108 298.073 220.111 298.114 220.111 298.157C220.113 298.394 220.123 298.628 220.141 298.856C220.15 298.97 220.061 299.069 219.947 299.069C205.31 299.069 209.289 317.892 216.259 325.711C216.935 326.47 216.399 328 215.383 328C214.697 328 214.209 328.665 214.409 329.321C215.326 332.325 216.069 335.025 216.737 337.451C218.623 344.301 219.909 348.973 222.821 352.16C224.02 353.473 225.495 354.533 227.4 355.39C227.69 355.521 227.601 356 227.283 356C227.127 356 227 356.129 227.001 356.285C227.07 363.202 229.631 368.559 232.237 372.049C234.39 374.932 238.018 376 241.616 376H322.37C331.49 375.57 339.616 372.873 346.306 369.453C354.212 365.41 350.52 356 341.64 356C358.566 354.045 372.553 351.397 385.866 348.878L385.866 348.877L385.866 348.877L385.866 348.877L385.867 348.877C399.693 346.26 412.792 343.781 427.701 342.358C432.677 341.883 438.153 341.41 443.886 340.916L443.888 340.915C445.398 340.785 446.925 340.653 448.466 340.52C471.549 338.515 470.112 328 446.942 328H280.989C297.143 326.06 314.658 322.264 331 315.133C346.484 308.376 376.416 306.786 402.707 305.39C417.856 304.585 417.168 299.069 401.997 299.069H253.984C253.492 299.069 253.214 298.493 253.5 298.093C272.781 271.059 341.856 269.531 376.744 268.76C379.771 268.693 379.723 267.718 376.695 267.718L251.808 267.718ZM727.299 274.596C741.753 281.435 730.39 299 714.4 299H556.459C542.107 299 541.138 306.648 555.423 308.034C573.877 309.823 593.996 311.774 610.853 315.569C632.176 320.37 657.403 324.847 681.702 328H602.456C589.434 328 588.201 335.387 601.118 337.034C615.156 338.823 630.461 340.774 643.285 344.569C688.985 358.095 757.014 365.534 766.936 355.052C772.797 348.86 776.428 340.544 774.463 334.774C773.612 332.277 774.132 327.917 775.998 326.052C780.796 321.254 784.077 316.568 785.303 312.481C789.013 300.105 771.18 288.633 766.303 276.67C765.686 275.158 765.046 273.794 764.406 272.65C762.423 269.108 757.64 269.395 753.581 269.395L708.276 269.395C706.372 269.395 706.245 270.284 708.144 270.421C713.157 270.782 720.332 271.299 727.299 274.596ZM701.614 360H534.991C528.157 360 527.946 363.331 534.771 363.67C549.402 364.397 565.354 365.189 578.719 366.731C626.351 372.226 697.254 375.248 707.596 370.99C717.937 366.731 721.616 360 701.614 360Z" fill="black" fill-opacity="0.25"/>
<path d="M778.735 297.144L546.355 297.144" stroke="black" stroke-width="6" stroke-linecap="round"/>
<path d="M364 269L245 269" stroke="black" stroke-width="6" stroke-linecap="round"/>
<path d="M323 329L216 329" stroke="black" stroke-width="6" stroke-linecap="round"/>
<path d="M726 361L616 361" stroke="black" stroke-width="6" stroke-linecap="round"/>
<path d="M778 329L683 329" stroke="black" stroke-width="6" stroke-linecap="round"/>
<path d="M737 267L702 267" stroke="black" stroke-width="6" stroke-linecap="round"/>
<mask id="mask0_863_36539" style="mask-type:alpha" maskUnits="userSpaceOnUse" x="198" y="254" width="591" height="117">
<path d="M685.684 258.891C687.813 259.932 689.945 261.195 692.175 262.556C692.589 262.809 693.009 263.066 693.432 263.326C695.246 264.44 697.131 265.596 699.033 266.655C703.725 269.267 708.97 271.549 714.854 271.549H742.586C756.647 271.549 768.67 279.266 774.209 290.25C775.693 293.194 777.598 296.049 779.386 298.73C779.603 299.055 779.818 299.377 780.031 299.697C782.05 302.735 783.862 305.575 785.092 308.474C785.679 309.857 786 311.36 786 312.937C786 316.232 784.59 319.253 782.23 321.491C779.596 323.989 777.494 327.577 777.494 331.596C777.494 343.816 766.844 354.057 753.28 354.057H703.201C697.473 354.057 692.353 356.221 687.764 358.711C685.863 359.742 683.982 360.871 682.172 361.957C681.798 362.182 681.427 362.404 681.059 362.624C678.88 363.926 676.796 365.137 674.716 366.144C672.271 367.326 669.484 368 666.513 368H280.499C277.528 368 274.741 367.326 272.296 366.144C270.215 365.137 268.131 363.926 265.952 362.624C265.585 362.404 265.214 362.182 264.84 361.957C263.03 360.871 261.148 359.742 259.247 358.711C254.659 356.221 249.538 354.057 243.81 354.057H240.96C231.217 354.057 222.913 348.734 219.062 341.195C216.109 335.412 212.749 329.213 208.311 323.894C203.714 318.384 201 311.487 201 304.013C201 286.269 216.436 271.549 235.905 271.549C242.45 271.549 247.496 267.133 250.847 263.223C254.075 259.458 259.08 257 264.753 257H677.41C680.409 257 683.222 257.687 685.684 258.891Z" fill="#D7D6DC" stroke="black" stroke-width="6"/>
</mask>
<g mask="url(#mask0_863_36539)">
<circle cx="399" cy="313" r="14" fill="#004DFF"/>
<path d="M396.107 260.498C396.049 258.86 397.361 257.5 399 257.5C400.639 257.5 401.951 258.86 401.893 260.498L400.5 299.5H397.5L396.107 260.498Z" fill="#004DFF"/>
<path d="M395.823 242.424L395.362 243.5H387.509C371.143 243.5 361.705 262.086 371.361 275.3L390.77 301.86C391.524 302.891 392.723 303.5 394 303.5H404C405.268 303.5 406.46 302.899 407.215 301.88L426.82 275.401C436.593 262.201 427.17 243.5 410.746 243.5H403.638L403.177 242.424C402.546 240.954 401.1 240 399.5 240C397.9 240 396.454 240.954 395.823 242.424Z" stroke="#004DFF" stroke-width="8" stroke-linejoin="round"/>
<path d="M446.733 292.242C448.272 291.68 449.971 292.508 450.478 294.067C450.984 295.626 450.097 297.294 448.52 297.745L410.997 308.472L410.07 305.619L446.733 292.242Z" fill="#004DFF"/>
<path d="M463.836 286.387L462.67 286.281L460.244 278.813C455.186 263.247 434.593 260.014 425.01 273.282L405.748 299.948C405 300.983 404.792 302.313 405.186 303.527L408.276 313.037C408.668 314.243 409.608 315.192 410.81 315.594L442.052 326.057C457.626 331.273 472.499 316.532 467.424 300.912L465.228 294.152L466.108 293.381C467.312 292.327 467.772 290.657 467.278 289.135C466.783 287.613 465.429 286.532 463.836 286.387Z" stroke="#004DFF" stroke-width="8" stroke-linejoin="round"/>
<path d="M431.124 351.064C432.134 352.355 431.872 354.226 430.546 355.19C429.219 356.153 427.359 355.824 426.443 354.465L404.645 322.093L407.072 320.329L431.124 351.064Z" fill="#004DFF"/>
<path d="M441.978 365.519L441.719 364.378L448.072 359.762C461.313 350.142 458.024 329.558 442.444 324.543L411.13 314.464C409.915 314.073 408.586 314.286 407.554 315.036L399.463 320.914C398.438 321.659 397.826 322.846 397.815 324.114L397.518 357.06C397.37 373.483 415.986 383.074 429.273 373.42L435.024 369.242L436.029 369.841C437.403 370.66 439.134 370.582 440.428 369.641C441.723 368.701 442.332 367.079 441.978 365.519Z" stroke="#004DFF" stroke-width="8" stroke-linejoin="round"/>
<path d="M351.029 292.242C349.489 291.68 347.79 292.508 347.284 294.067C346.777 295.626 347.665 297.294 349.241 297.745L386.765 308.472L387.692 305.619L351.029 292.242Z" fill="#004DFF"/>
<path d="M333.926 286.387L335.091 286.281L337.518 278.813C342.576 263.247 363.168 260.014 372.752 273.282L392.014 299.948C392.761 300.983 392.97 302.313 392.576 303.527L389.486 313.037C389.094 314.243 388.154 315.192 386.952 315.594L355.71 326.057C340.136 331.273 325.262 316.532 330.338 300.912L332.534 294.152L331.654 293.381C330.45 292.327 329.99 290.657 330.484 289.135C330.978 287.613 332.332 286.532 333.926 286.387Z" stroke="#004DFF" stroke-width="8" stroke-linejoin="round"/>
<path d="M366.638 351.064C365.628 352.355 365.89 354.226 367.216 355.19C368.542 356.153 370.403 355.824 371.319 354.465L393.117 322.093L390.69 320.329L366.638 351.064Z" fill="#004DFF"/>
<path d="M355.784 365.519L356.043 364.378L349.69 359.762C336.449 350.142 339.738 329.558 355.318 324.543L386.631 314.464C387.846 314.073 389.175 314.286 390.208 315.036L398.298 320.914C399.324 321.659 399.936 322.846 399.947 324.114L400.243 357.06C400.391 373.483 381.776 383.074 368.489 373.42L362.738 369.242L361.733 369.841C360.358 370.66 358.628 370.582 357.333 369.641C356.039 368.701 355.429 367.079 355.784 365.519Z" stroke="#004DFF" stroke-width="8" stroke-linejoin="round"/>
<g style="mix-blend-mode:darken">
<path d="M399.059 406.977C449.536 406.977 490.119 365.085 490.119 313.83C490.119 262.574 449.536 220.682 399.059 220.682C348.583 220.682 308 262.574 308 313.83C308 365.085 348.583 406.977 399.059 406.977Z" stroke="#004DFF" stroke-width="16"/>
</g>
</g>
</svg>
