<svg width="1000" height="1000" viewBox="0 0 1000 1000" fill="none" xmlns="http://www.w3.org/2000/svg">
<rect x="767" y="423" width="26" height="577" fill="black"/>
<rect x="585" y="460" width="391" height="300" fill="#E40303" stroke="black" stroke-width="8"/>
<rect x="585" y="460" width="20" height="300" fill="black" fill-opacity="0.25"/>
<path d="M771.07 572.206C771.07 571.832 771.108 571.31 771.183 570.638C771.332 569.966 771.444 569.256 771.518 568.51C771.668 567.763 771.817 567.054 771.967 566.382C772.041 565.859 772.116 565.374 772.191 564.926C772.041 566.12 771.892 567.352 771.743 568.622C771.668 569.966 771.63 571.235 771.63 572.43H773.87C774.319 572.728 774.767 573.102 775.214 573.55C775.737 573.998 775.998 574.52 775.998 575.118C775.998 575.939 775.662 576.611 774.99 577.134C774.393 577.656 773.796 578.216 773.198 578.814C773.049 578.739 772.751 578.702 772.302 578.702C771.929 578.627 771.481 578.552 770.959 578.478C770.51 578.403 770.062 578.366 769.615 578.366C769.167 578.291 768.868 578.254 768.718 578.254V579.262L772.191 579.486C771.743 579.859 771.332 580.643 770.959 581.838C770.66 583.032 770.436 584.339 770.286 585.758C770.137 587.102 769.988 588.446 769.838 589.79C769.764 591.134 769.726 592.067 769.726 592.59L769.502 596.622C768.457 598.339 767.785 600.131 767.486 601.998C767.188 601.848 766.815 601.736 766.366 601.662C765.918 601.662 765.47 601.624 765.023 601.55C764.649 601.475 764.313 601.326 764.014 601.102C763.716 600.952 763.566 600.616 763.566 600.094C763.566 599.795 763.641 599.422 763.79 598.974L762.782 598.638C762.335 599.384 761.737 600.019 760.99 600.542C760.244 601.064 759.422 601.326 758.527 601.326C757.257 601.326 756.436 600.84 756.062 599.87C755.764 598.974 755.614 598.003 755.614 596.958C755.614 595.016 755.838 593.075 756.286 591.134C756.809 589.118 757.07 587.139 757.07 585.198L756.959 580.494L756.286 580.382L755.726 579.15C754.308 579.299 752.702 579.448 750.91 579.598C749.193 579.747 747.401 579.822 745.534 579.822C743.444 579.822 741.39 579.672 739.374 579.374C737.358 579.075 735.529 578.515 733.886 577.694C732.318 576.872 731.012 575.752 729.966 574.334C728.996 572.915 728.51 571.048 728.51 568.734C728.51 567.091 728.66 565.448 728.958 563.806C729.257 562.163 729.481 560.52 729.63 558.878H728.958C728.734 560.446 728.436 562.051 728.062 563.694C727.689 565.262 727.502 566.83 727.502 568.398C727.502 569.742 727.764 571.011 728.286 572.206C728.884 573.326 729.182 574.408 729.182 575.454L729.854 575.79C731.198 576.76 732.318 577.544 733.214 578.142C734.11 578.664 734.932 579.075 735.678 579.374C736.425 579.672 737.134 579.896 737.806 580.046C738.553 580.12 739.374 580.158 740.27 580.158C740.942 580.158 741.726 580.158 742.622 580.158C743.518 580.083 744.601 580.046 745.87 580.046L746.766 580.83C744.75 580.83 742.548 580.755 740.158 580.606C737.844 580.456 735.678 580.008 733.662 579.262C731.721 578.515 730.078 577.358 728.734 575.79C727.39 574.147 726.718 571.907 726.718 569.07C726.718 566.979 727.017 564.926 727.614 562.91C728.212 560.894 728.51 558.915 728.51 556.974C728.51 554.435 728.66 552.008 728.958 549.694C729.332 547.304 729.742 544.99 730.19 542.75C730.638 540.51 731.086 538.27 731.534 536.03C732.057 533.79 732.505 531.475 732.878 529.086L735.342 528.974C735.865 529.123 736.201 529.422 736.35 529.87C736.574 530.318 736.686 530.766 736.686 531.214L736.574 532.782H737.582C737.732 532.334 737.956 531.811 738.254 531.214C738.553 530.542 738.889 529.907 739.262 529.31C739.636 528.712 740.046 528.227 740.494 527.854C741.017 527.406 741.577 527.182 742.174 527.182C742.846 527.182 743.369 527.518 743.742 528.19C744.116 528.862 744.377 529.646 744.526 530.542C744.676 531.363 744.75 532.222 744.75 533.118C744.825 533.939 744.862 534.574 744.862 535.022C744.862 537.038 744.713 539.054 744.414 541.07C744.19 543.086 743.892 545.102 743.518 547.118C743.22 549.134 742.921 551.15 742.622 553.166C742.398 555.182 742.286 557.235 742.286 559.326C741.689 560.371 741.316 561.603 741.166 563.022C741.092 564.44 741.054 565.747 741.054 566.942C741.353 567.091 742.062 567.166 743.182 567.166C743.854 567.166 744.526 567.166 745.198 567.166C745.87 567.091 746.356 567.054 746.654 567.054L747.326 567.39C749.268 567.39 751.209 567.464 753.15 567.614C755.092 567.688 757.033 567.8 758.974 567.95C759.049 567.502 759.161 566.456 759.311 564.814C759.534 563.171 759.796 561.491 760.095 559.774C760.468 558.056 760.841 556.526 761.214 555.182C761.662 553.763 762.148 553.054 762.671 553.054C762.894 553.054 763.156 553.128 763.455 553.278L762.671 558.878C763.118 556.936 763.604 555.07 764.126 553.278L765.806 553.614C765.806 552.942 766.03 552.419 766.478 552.046C767.001 551.598 767.561 551.374 768.158 551.374C768.905 551.374 769.614 551.56 770.286 551.934C771.033 552.307 771.668 552.755 772.191 553.278C771.743 554.024 771.332 555.144 770.959 556.638C770.585 558.131 770.249 559.699 769.951 561.342C769.652 562.984 769.39 564.59 769.167 566.158C768.943 567.726 768.756 568.958 768.607 569.854L769.054 569.966C769.428 567.576 769.876 564.888 770.399 561.902C770.996 558.84 771.817 556.19 772.862 553.95C773.012 554.398 773.198 554.846 773.422 555.294C773.721 555.667 773.87 556.115 773.87 556.638C773.87 557.683 773.684 558.878 773.311 560.222C772.937 561.491 772.676 562.648 772.527 563.694L771.183 563.358C771.183 563.806 771.145 564.403 771.07 565.15C770.996 565.896 770.921 566.718 770.846 567.614C770.772 568.435 770.66 569.219 770.51 569.966C770.436 570.712 770.399 571.31 770.399 571.758L771.07 572.206ZM757.07 577.806C755.278 577.806 753.486 577.694 751.694 577.47C749.902 577.246 748.11 577.134 746.318 577.134H738.59C739.412 577.283 740.233 577.395 741.054 577.47C741.876 577.47 742.697 577.47 743.518 577.47H745.982L746.318 577.806L757.07 578.03V577.806ZM769.615 580.606C769.615 580.83 769.54 581.24 769.391 581.838C769.316 582.36 769.204 582.92 769.054 583.518C768.98 584.115 768.905 584.712 768.831 585.31C768.756 585.907 768.718 586.355 768.718 586.654V586.766C768.718 586.691 768.793 586.654 768.942 586.654C769.092 586.654 769.167 586.691 769.167 586.766H769.391C769.391 586.542 769.428 586.131 769.502 585.534C769.652 584.862 769.801 584.19 769.951 583.518C770.1 582.846 770.249 582.211 770.399 581.614C770.548 580.942 770.622 580.494 770.622 580.27L769.615 580.606ZM747.662 569.742C748.26 570.04 749.156 570.227 750.35 570.302C751.545 570.376 752.814 570.414 754.158 570.414H757.294C758.34 570.414 759.198 570.376 759.87 570.302L747.662 569.742ZM740.158 568.958C741.428 569.256 742.66 569.443 743.854 569.518C745.124 569.518 746.393 569.592 747.662 569.742C746.542 569.443 745.31 569.256 743.966 569.182C742.697 569.032 741.465 568.958 740.27 568.958H740.158ZM747.55 580.158H749.118C749.94 580.158 750.686 580.195 751.358 580.27C752.105 580.27 752.852 580.307 753.599 580.382L748.222 580.718L747.55 580.158ZM734.446 576.462C735.118 576.611 735.902 576.798 736.798 577.022C735.828 576.648 735.044 576.424 734.446 576.35C733.849 576.2 733.14 575.827 732.318 575.23C733.065 575.902 733.774 576.312 734.446 576.462ZM761.326 568.174C761.55 567.576 761.662 567.054 761.662 566.606V565.598L761.214 568.174H761.326ZM781.642 591.47C782.165 591.47 782.688 591.507 783.21 591.582C783.733 591.582 784.256 591.582 784.778 591.582C786.346 592.702 788.101 593.486 790.042 593.934C791.984 594.307 793.925 594.494 795.866 594.494C797.21 594.494 799.077 594.307 801.466 593.934C803.93 593.486 806.32 592.851 808.634 592.03C810.949 591.134 812.965 590.014 814.682 588.67C816.4 587.326 817.258 585.758 817.258 583.966C817.258 582.622 816.773 581.24 815.802 579.822C814.906 578.403 813.786 577.022 812.442 575.678C811.173 574.334 809.829 573.102 808.41 571.982C807.141 571.011 806.058 570.115 805.162 569.294C805.984 570.115 807.029 571.048 808.298 572.094C809.717 573.214 811.024 574.446 812.218 575.79C813.488 577.134 814.57 578.552 815.466 580.046C816.362 581.464 816.81 582.846 816.81 584.19C816.81 585.907 815.989 587.4 814.346 588.67C812.778 589.864 810.912 590.872 808.746 591.694C806.581 592.44 804.378 593 802.138 593.374C799.898 593.747 798.144 593.934 796.874 593.934C795.008 593.934 793.141 593.784 791.274 593.486C789.482 593.112 787.765 592.478 786.122 591.582C786.57 591.507 787.018 591.47 787.466 591.47C787.989 591.395 788.474 591.358 788.922 591.358C790.64 591.358 792.208 591.432 793.626 591.582C795.12 591.656 796.576 591.694 797.994 591.694C799.562 591.694 801.13 591.544 802.698 591.246C804.266 590.947 805.984 590.35 807.85 589.454L809.642 589.902C810.912 589.155 812.106 588.296 813.226 587.326C814.421 586.355 815.018 585.086 815.018 583.518C815.018 582.248 814.309 580.755 812.89 579.038C811.472 577.246 809.829 575.491 807.962 573.774C806.096 572.056 804.192 570.451 802.25 568.958C800.384 567.464 798.965 566.382 797.994 565.71L798.89 559.55C799.637 559.176 800.533 558.878 801.578 558.654C802.624 558.43 803.706 558.206 804.826 557.982C805.946 557.683 806.992 557.31 807.962 556.862C808.933 556.414 809.717 555.742 810.314 554.846L809.642 554.51C809.568 554.734 809.008 555.032 807.962 555.406C806.992 555.704 805.872 556.078 804.602 556.526C803.333 556.899 802.101 557.272 800.906 557.646C799.786 558.019 799.002 558.318 798.554 558.542L798.666 558.766C798.666 558.915 798.554 558.99 798.33 558.99L798.218 558.878L797.21 566.494C798.33 567.539 799.861 568.808 801.802 570.302C803.744 571.72 805.648 573.214 807.514 574.782C809.456 576.35 811.136 577.955 812.554 579.598C813.973 581.166 814.682 582.584 814.682 583.854C814.682 584.376 814.496 584.899 814.122 585.422C813.749 585.87 813.264 586.318 812.666 586.766C812.144 587.139 811.584 587.512 810.986 587.886C810.538 588.184 810.128 588.408 809.754 588.558C810.053 588.408 810.426 588.184 810.874 587.886C811.472 587.512 812.032 587.139 812.554 586.766C813.077 586.318 813.525 585.87 813.898 585.422C814.272 584.899 814.458 584.414 814.458 583.966C814.458 582.547 813.674 581.016 812.106 579.374C810.613 577.731 808.858 576.126 806.842 574.558C804.901 572.99 802.96 571.534 801.018 570.19C799.077 568.771 797.696 567.614 796.874 566.718C797.098 565.299 797.21 564.254 797.21 563.582C797.21 562.91 797.248 561.976 797.322 560.782C797.546 560.707 797.658 560.334 797.658 559.662V558.318C799.749 557.422 801.69 556.712 803.482 556.19C805.274 555.667 806.917 555.032 808.41 554.286C809.904 553.464 811.248 552.382 812.442 551.038C813.712 549.694 814.906 547.752 816.026 545.214C816.026 542.974 814.981 541.219 812.89 539.95C810.8 538.606 808.074 537.934 804.714 537.934C803.669 537.934 802.549 538.083 801.354 538.382C800.234 538.68 799.077 539.054 797.882 539.502C796.688 539.875 795.493 540.286 794.298 540.734C793.178 541.182 792.133 541.555 791.162 541.854C791.088 541.331 790.864 540.883 790.49 540.51C790.192 540.062 790.042 539.576 790.042 539.054C790.042 538.606 790.304 538.232 790.826 537.934C791.349 537.56 791.946 537.262 792.618 537.038C793.365 536.814 794.074 536.627 794.746 536.478C795.418 536.328 795.904 536.216 796.202 536.142L795.866 534.798C795.418 534.947 794.56 535.096 793.29 535.246C792.096 535.32 790.864 535.358 789.594 535.358C788.325 535.358 787.168 535.246 786.122 535.022C785.077 534.723 784.554 534.2 784.554 533.454C784.554 532.408 785.525 531.438 787.466 530.542C789.408 529.571 791.61 528.75 794.074 528.078C796.538 527.331 798.928 526.771 801.242 526.398C803.557 525.95 805.088 525.726 805.834 525.726C808.448 525.726 811.173 526.211 814.01 527.182C816.848 528.078 819.424 529.384 821.738 531.102C824.128 532.819 826.069 534.872 827.562 537.262C829.056 539.576 829.802 542.19 829.802 545.102V545.55C829.728 547.715 829.093 549.731 827.898 551.598C826.778 553.39 825.397 555.032 823.754 556.526C822.112 558.019 820.32 559.326 818.378 560.446C816.512 561.566 814.832 562.462 813.338 563.134C815.354 564.179 817.221 565.486 818.938 567.054C820.656 568.547 822.112 570.19 823.306 571.982C824.576 573.774 825.546 575.678 826.218 577.694C826.965 579.635 827.338 581.576 827.338 583.518C827.338 587.774 826.181 591.246 823.866 593.934C821.626 596.622 818.789 598.712 815.354 600.206C811.994 601.774 808.336 602.856 804.378 603.454C800.496 604.051 796.874 604.35 793.514 604.35C793.066 604.35 792.245 604.275 791.05 604.126C789.93 604.051 788.736 603.864 787.466 603.566C786.272 603.342 785.189 603.006 784.218 602.558C783.322 602.11 782.874 601.55 782.874 600.878L783.098 600.318C787.056 601.736 791.2 602.446 795.53 602.446C798.293 602.446 801.018 602.147 803.706 601.55C806.394 601.027 809.045 600.28 811.658 599.31C809.12 600.131 806.506 600.803 803.818 601.326C801.205 601.848 798.554 602.11 795.866 602.11C791.536 602.11 787.504 601.4 783.77 599.982L784.554 598.75C784.106 598.526 783.584 598.19 782.986 597.742C782.389 597.368 781.792 596.92 781.194 596.398C780.672 595.875 780.224 595.352 779.85 594.83C779.477 594.307 779.29 593.747 779.29 593.15C779.29 592.552 779.552 592.142 780.074 591.918C780.597 591.619 781.12 591.47 781.642 591.47ZM822.074 592.03C823.941 589.864 824.874 586.99 824.874 583.406C824.874 580.643 824.202 578.104 822.858 575.79C821.514 573.55 819.909 571.496 818.042 569.63C819.984 571.72 821.514 574.072 822.634 576.686C823.829 579.299 824.426 582.136 824.426 585.198C824.426 586.467 824.09 587.736 823.418 589.006C822.821 590.2 822.037 591.358 821.066 592.478C820.17 593.523 819.162 594.494 818.042 595.39C817.146 596.136 816.325 596.734 815.578 597.182C818.192 595.688 820.357 593.971 822.074 592.03ZM815.242 597.406C815.168 597.48 815.093 597.518 815.018 597.518C815.093 597.443 815.168 597.406 815.242 597.406ZM640.865 677.142L640.529 676.974C638.961 676.563 637.3 676.302 635.545 676.19C633.79 676.078 631.998 675.835 630.169 675.462C631.961 675.835 633.716 676.134 635.433 676.358C637.15 676.544 638.849 676.918 640.529 677.478C640.006 677.814 639.446 677.982 638.849 677.982C638.14 677.907 637.43 677.795 636.721 677.646C636.049 677.496 635.321 677.384 634.537 677.31C634.537 677.086 634.593 676.918 634.705 676.806C633.622 676.806 632.54 676.694 631.457 676.47C630.412 676.246 629.385 676.003 628.377 675.742C627.369 675.443 626.38 675.182 625.409 674.958C624.476 674.696 623.598 674.566 622.777 674.566C622.777 674.678 622.758 674.734 622.721 674.734C623.692 674.92 624.606 675.182 625.465 675.518C626.324 675.854 627.294 676.115 628.377 676.302C629.422 676.563 630.43 676.75 631.401 676.862C632.409 676.974 633.398 677.123 634.369 677.31C632.801 677.16 631.196 676.936 629.553 676.638C627.948 676.339 626.361 676.003 624.793 675.63L622.161 674.958C621.228 677.347 620.276 679.699 619.305 682.014C618.372 684.291 617.457 686.606 616.561 688.958C616.486 688.808 616.356 688.715 616.169 688.678C616.02 688.678 615.852 688.678 615.665 688.678C615.516 688.678 615.366 688.622 615.217 688.51C615.068 688.435 614.993 688.248 614.993 687.95C614.993 687.651 615.068 687.222 615.217 686.662C615.366 686.139 615.646 685.43 616.057 684.534C615.982 684.459 615.852 684.422 615.665 684.422C615.516 684.384 615.404 684.366 615.329 684.366C614.582 685.934 613.854 687.128 613.145 687.95C612.473 688.808 611.932 689.238 611.521 689.238C611.073 689.238 610.849 688.808 610.849 687.95C610.849 687.24 610.98 686.344 611.241 685.262C611.502 684.142 611.82 682.947 612.193 681.678C612.604 680.408 613.052 679.102 613.537 677.758C614.022 676.376 614.489 675.032 614.937 673.726C614.526 673.464 614.078 673.278 613.593 673.166C613.145 673.054 612.641 672.96 612.081 672.886C612.193 672.736 612.249 672.55 612.249 672.326C612.249 672.102 612.268 671.878 612.305 671.654C612.342 671.43 612.417 671.243 612.529 671.094C612.641 670.944 612.846 670.87 613.145 670.87C613.22 670.87 613.444 670.907 613.817 670.982V670.478C613.22 670.179 612.753 669.824 612.417 669.414C612.118 669.003 611.969 668.592 611.969 668.182C611.969 667.286 612.828 666.838 614.545 666.838C615.03 666.838 615.516 666.875 616.001 666.95C616.524 666.987 617.046 667.043 617.569 667.118L620.145 661.238C620.705 659.968 621.302 658.662 621.937 657.318C622.609 655.974 623.393 654.648 624.289 653.342C625.185 652.035 626.193 650.803 627.313 649.646C628.47 648.451 629.796 647.387 631.289 646.454L632.129 646.118C633.174 646.379 634.014 646.603 634.649 646.79C635.321 646.939 635.862 647.051 636.273 647.126C636.646 647.275 636.945 647.368 637.169 647.406H637.113L637.169 647.574C637.169 647.611 637.15 647.648 637.113 647.686L637.785 648.862C640.212 652.931 642.265 657.15 643.945 661.518C645.625 665.886 647.062 670.179 648.257 674.398C648.556 675.331 648.91 676.339 649.321 677.422C649.769 678.467 650.18 679.475 650.553 680.446C650.964 681.379 651.3 682.238 651.561 683.022C651.822 683.768 651.953 684.31 651.953 684.646C651.953 684.907 651.897 685.075 651.785 685.15C651.673 685.187 651.524 685.206 651.337 685.206C650.366 682.779 649.452 680.39 648.593 678.038C647.734 675.723 646.894 673.39 646.073 671.038C646.82 673.39 647.604 675.723 648.425 678.038C649.284 680.39 650.142 682.779 651.001 685.206H650.609C650.385 685.206 650.236 685.318 650.161 685.542C650.236 685.616 650.329 685.822 650.441 686.158C650.553 686.456 650.665 686.774 650.777 687.11C650.889 687.483 650.982 687.856 651.057 688.23C651.132 688.603 651.169 688.883 651.169 689.07C651.169 689.891 650.926 690.302 650.441 690.302C650.18 690.302 649.974 690.246 649.825 690.134C649.676 690.022 649.508 689.872 649.321 689.686L648.761 689.126C648.537 688.902 648.257 688.678 647.921 688.454L642.545 672.998C643.329 675.424 644.094 677.851 644.841 680.278C645.625 682.704 646.428 685.094 647.249 687.446C646.652 686.736 646.092 685.878 645.569 684.87C645.084 683.862 644.617 682.798 644.169 681.678C643.758 680.558 643.366 679.419 642.993 678.262C642.62 677.067 642.246 675.947 641.873 674.902C641.873 674.976 641.873 675.051 641.873 675.126C641.91 675.163 641.929 675.219 641.929 675.294C641.929 675.891 641.742 676.339 641.369 676.638L640.865 677.142ZM640.529 671.318C640.604 671.318 640.716 671.299 640.865 671.262C641.014 671.187 641.126 671.15 641.201 671.15C639.969 668.051 638.737 665.046 637.505 662.134C636.31 659.222 634.985 656.422 633.529 653.734L633.193 654.07L634.033 655.582C635.34 657.971 636.516 660.435 637.561 662.974C638.606 665.512 639.596 668.126 640.529 670.814C639.446 667.902 638.27 665.008 637.001 662.134C635.769 659.222 634.444 656.59 633.025 654.238L632.801 654.35C631.532 655.656 630.337 657.224 629.217 659.054C628.134 660.883 627.108 662.75 626.137 664.654L624.681 668.182L625.633 668.406C626.193 668.555 626.734 668.723 627.257 668.91C627.817 669.059 628.302 669.227 628.713 669.414C629.534 669.824 630.617 670.142 631.961 670.366C633.305 670.59 634.612 670.814 635.881 671.038C637.188 671.224 638.308 671.448 639.241 671.71C640.212 671.934 640.697 672.27 640.697 672.718L633.865 671.934C634.276 672.008 634.78 672.102 635.377 672.214C635.974 672.288 636.572 672.382 637.169 672.494C637.804 672.606 638.42 672.718 639.017 672.83C639.614 672.904 640.118 672.979 640.529 673.054C640.529 673.166 640.51 673.278 640.473 673.39C640.473 673.464 640.473 673.539 640.473 673.614C640.473 673.688 640.51 673.744 640.585 673.782C640.697 673.782 640.809 673.8 640.921 673.838C641.07 673.838 641.201 673.875 641.313 673.95C641.425 673.987 641.537 674.099 641.649 674.286L640.529 671.318ZM628.377 659.334C628.452 659.334 628.47 659.39 628.433 659.502C628.433 659.576 628.452 659.614 628.489 659.614C628.564 659.614 628.788 659.352 629.161 658.83C629.534 658.307 629.964 657.71 630.449 657.038C630.934 656.366 631.401 655.731 631.849 655.134C632.297 654.536 632.614 654.144 632.801 653.958L632.521 653.566C631.737 654.312 631.009 655.19 630.337 656.198C629.665 657.206 629.012 658.251 628.377 659.334ZM634.033 653.286C635.228 655.302 636.329 657.411 637.337 659.614C638.308 661.779 639.222 663.944 640.081 666.11C639.372 663.944 638.513 661.779 637.505 659.614C636.46 657.411 635.321 655.302 634.089 653.286H634.033ZM642.601 661.686C643.758 664.672 644.897 667.715 646.017 670.814C644.972 667.79 643.87 664.803 642.713 661.854C641.63 658.942 640.38 656.011 638.961 653.062C640.305 655.899 641.518 658.774 642.601 661.686ZM634.369 652.054C634.854 652.166 635.19 652.278 635.377 652.39C635.564 652.502 635.694 652.558 635.769 652.558L635.825 652.39C635.862 652.39 635.788 652.371 635.601 652.334C635.414 652.296 635.265 652.259 635.153 652.222L635.265 651.998L634.593 651.774L634.369 652.054ZM631.625 651.494L632.073 652.67L632.017 651.494C631.942 651.494 631.849 651.475 631.737 651.438C631.662 651.4 631.588 651.382 631.513 651.382L631.625 651.494ZM633.081 653.118L632.689 653.398L633.025 653.846L633.361 653.51L633.081 653.118ZM633.865 653.006H633.921L633.641 652.614V652.67L633.865 653.006ZM653.137 701.334C653.436 701.632 653.94 701.856 654.649 702.006C655.396 702.192 656.105 702.286 656.777 702.286C658.009 702.286 659.185 701.875 660.305 701.054C661.425 700.27 662.489 699.187 663.497 697.806C664.542 696.424 665.532 694.838 666.465 693.046C667.398 691.254 668.294 689.368 669.153 687.39H669.097C668.35 689.032 667.548 690.712 666.689 692.43C665.83 694.184 664.897 695.771 663.889 697.19C662.881 698.646 661.78 699.822 660.585 700.718C659.428 701.651 658.177 702.118 656.833 702.118C655.75 702.118 654.686 701.8 653.641 701.166C654.201 700.979 654.724 700.886 655.209 700.886C655.358 700.886 655.62 700.923 655.993 700.998C656.59 700.998 657.094 700.979 657.505 700.942C657.916 700.904 658.308 700.811 658.681 700.662C659.054 700.55 659.409 700.344 659.745 700.046C660.081 699.784 660.454 699.43 660.865 698.982L661.537 699.15C662.62 697.731 663.628 696.2 664.561 694.558C665.532 692.915 666.484 691.254 667.417 689.574L668.425 687.334L667.921 687.222L667.081 689.238C666.222 690.918 665.326 692.56 664.393 694.166C663.46 695.808 662.396 697.302 661.201 698.646C662.508 697.04 663.702 695.248 664.785 693.27C665.868 691.291 666.857 689.238 667.753 687.11L667.417 686.55C667.23 685.691 666.95 684.851 666.577 684.03C666.316 683.395 666.017 682.742 665.681 682.07C666.353 683.675 666.82 685.224 667.081 686.718C666.708 686.606 666.39 686.382 666.129 686.046C665.905 685.672 665.681 685.243 665.457 684.758C665.27 684.272 665.084 683.768 664.897 683.246C664.748 682.723 664.542 682.2 664.281 681.678L664.561 681.174C663.964 680.24 663.31 679.083 662.601 677.702C661.929 676.32 661.201 674.902 660.417 673.446C659.67 671.99 658.905 670.571 658.121 669.19C657.337 667.808 656.572 666.651 655.825 665.718L655.657 665.886L662.657 678.486C661.238 676.096 659.726 673.67 658.121 671.206C656.516 668.742 655.078 666.016 653.809 663.03C653.809 662.768 653.772 662.432 653.697 662.022C653.622 661.574 653.529 661.126 653.417 660.678C653.342 660.192 653.249 659.726 653.137 659.278C653.025 658.792 652.913 658.363 652.801 657.99L654.257 657.542C654.444 657.542 654.612 657.635 654.761 657.822C654.91 657.971 655.041 658.307 655.153 658.83C655.34 658.83 655.508 658.68 655.657 658.382C655.806 658.083 655.956 657.747 656.105 657.374C656.292 657 656.478 656.664 656.665 656.366C656.889 656.067 657.169 655.918 657.505 655.918C657.99 655.918 658.42 656.254 658.793 656.926C659.204 657.56 659.577 658.344 659.913 659.278C660.286 660.211 660.678 661.2 661.089 662.246C661.5 663.254 661.985 664.131 662.545 664.878C663.142 665.886 663.74 666.875 664.337 667.846C664.972 668.816 665.55 669.843 666.073 670.926C666.633 672.419 667.361 673.931 668.257 675.462C669.153 676.955 669.862 678.523 670.385 680.166C671.281 677.179 671.99 674.528 672.513 672.214C673.073 669.862 673.502 667.528 673.801 665.214C674.212 664.019 674.566 662.675 674.865 661.182C675.164 659.688 675.313 658.232 675.313 656.814L676.545 656.87C676.732 656.87 676.9 656.963 677.049 657.15C677.198 657.299 677.273 657.691 677.273 658.326C677.273 658.512 677.254 658.718 677.217 658.942C677.217 659.128 677.198 659.371 677.161 659.67H677.665C678.001 658.438 678.393 657.448 678.841 656.702C679.289 655.955 679.718 655.582 680.129 655.582C680.428 655.582 680.708 655.899 680.969 656.534C681.268 657.168 681.417 658.232 681.417 659.726C681.417 662.227 681.118 664.934 680.521 667.846C679.924 670.758 679.308 673.632 678.673 676.47C677.628 680.278 676.396 683.936 674.977 687.446C673.558 690.955 671.766 694.52 669.601 698.142C668.929 699.15 668.164 700.195 667.305 701.278C666.484 702.398 665.513 703.406 664.393 704.302C663.31 705.198 662.06 705.926 660.641 706.486C659.26 707.083 657.673 707.382 655.881 707.382C654.574 707.382 653.678 707.214 653.193 706.878C652.745 706.542 652.521 706.28 652.521 706.094C652.521 705.982 652.558 705.851 652.633 705.702C653.753 706.075 654.948 706.262 656.217 706.262C657.113 706.262 658.14 706.094 659.297 705.758C660.492 705.459 661.556 704.992 662.489 704.358C661.63 704.806 660.66 705.198 659.577 705.534C658.532 705.87 657.58 706.038 656.721 706.038C655.377 706.038 654.07 705.87 652.801 705.534C652.801 705.272 652.689 705.03 652.465 704.806C652.278 704.582 652.054 704.358 651.793 704.134C651.532 703.947 651.289 703.742 651.065 703.518C650.878 703.294 650.785 703.032 650.785 702.734C650.785 702.435 650.878 702.211 651.065 702.062C651.252 701.912 651.457 701.8 651.681 701.726C651.942 701.651 652.204 701.576 652.465 701.502C652.726 701.464 652.95 701.408 653.137 701.334ZM671.953 691.422C670.87 693.363 669.75 695.304 668.593 697.246C667.436 699.224 665.98 701.091 664.225 702.846C666.017 701.166 667.492 699.336 668.649 697.358C669.844 695.416 670.945 693.438 671.953 691.422ZM667.753 677.366L669.601 681.958L669.937 681.622L667.753 677.366ZM670.721 681.174C670.87 680.726 671.001 680.278 671.113 679.83L671.449 678.486L671.113 678.318L670.497 680.502C670.572 680.8 670.646 681.024 670.721 681.174ZM664.393 679.158C663.982 678.187 663.497 677.235 662.937 676.302C662.414 675.331 661.836 674.379 661.201 673.446C661.761 674.528 662.34 675.611 662.937 676.694C663.534 677.702 664.094 678.728 664.617 679.774L664.393 679.158ZM665.737 672.774C665.774 673.334 665.849 673.8 665.961 674.174C666.11 674.547 666.26 674.883 666.409 675.182C666.596 675.443 666.764 675.704 666.913 675.966C667.1 676.19 667.268 676.47 667.417 676.806L667.305 676.638L665.737 672.774ZM670.049 681.846L669.657 682.294C669.732 682.406 669.806 682.518 669.881 682.63C669.956 682.704 670.012 682.816 670.049 682.966L670.329 682.518L670.049 681.846ZM697.544 652.558C697.581 652.744 697.787 652.838 698.16 652.838H698.272C698.496 652.838 698.645 652.856 698.72 652.894C700.661 653.491 702.584 654.368 704.488 655.526C706.429 656.646 708.165 658.008 709.696 659.614C711.264 661.182 712.515 662.974 713.448 664.99C714.419 667.006 714.904 669.171 714.904 671.486C714.904 673.502 714.512 675.443 713.728 677.31C712.944 679.176 711.861 680.8 710.48 682.182C711.899 680.95 713.019 679.419 713.84 677.59C714.699 675.723 715.128 673.726 715.128 671.598C715.128 669.208 714.624 666.987 713.616 664.934C712.608 662.843 711.32 660.976 709.752 659.334C708.184 657.691 706.429 656.291 704.488 655.134C702.584 653.939 700.717 653.024 698.888 652.39C700.307 652.39 701.744 652.707 703.2 653.342C704.693 653.976 706.112 654.816 707.456 655.862C708.8 656.87 710.032 658.046 711.152 659.39C712.309 660.696 713.28 662.04 714.064 663.422L713.672 663.982C714.419 665.102 714.979 666.315 715.352 667.622C715.763 668.928 715.968 670.272 715.968 671.654C715.968 674.304 715.389 676.638 714.232 678.654C713.112 680.632 711.675 682.294 709.92 683.638C708.203 684.944 706.299 685.934 704.208 686.606C702.155 687.278 700.213 687.614 698.384 687.614C697.339 687.614 696.275 687.502 695.192 687.278C694.147 687.054 693.083 686.68 692 686.158V686.494C693.045 687.091 694.109 687.502 695.192 687.726C696.312 687.95 697.413 688.062 698.496 688.062C701.184 688.062 703.816 687.464 706.392 686.27C709.005 685.112 711.208 683.47 713 681.342C711.283 683.544 709.136 685.262 706.56 686.494C704.021 687.726 701.371 688.342 698.608 688.342C695.771 688.342 693.475 687.782 691.72 686.662C689.965 685.579 688.584 684.235 687.576 682.63C686.605 681.024 685.952 679.326 685.616 677.534C685.28 675.742 685.112 674.136 685.112 672.718C685.112 670.814 685.355 668.947 685.84 667.118C686.363 665.288 687.147 663.608 688.192 662.078C689.237 660.547 690.581 659.24 692.224 658.158C693.867 657.038 695.845 656.254 698.16 655.806L696.536 655.414C695.752 655.227 695.192 655.003 694.856 654.742C694.52 654.48 694.352 654.256 694.352 654.07C694.352 653.771 694.669 653.454 695.304 653.118C695.976 652.744 696.723 652.558 697.544 652.558ZM695.024 659.614C696.032 659.24 697.003 659.054 697.936 659.054C698.869 659.054 699.579 659.203 700.064 659.502C700.587 659.763 700.848 660.043 700.848 660.342C700.848 660.528 700.624 660.734 700.176 660.958C699.765 661.182 699.224 661.499 698.552 661.91C697.917 662.283 697.208 662.768 696.424 663.366C695.677 663.963 694.968 664.728 694.296 665.662C693.661 666.558 693.12 667.659 692.672 668.966C692.261 670.272 692.056 671.803 692.056 673.558C692.056 676.134 692.635 678.075 693.792 679.382C694.949 680.688 696.555 681.342 698.608 681.342C699.915 681.342 701.24 681.118 702.584 680.67C703.965 680.222 705.197 679.587 706.28 678.766C707.4 677.944 708.296 676.936 708.968 675.742C709.677 674.547 710.032 673.203 710.032 671.71C710.032 670.59 709.827 669.47 709.416 668.35C709.043 667.23 708.501 666.166 707.792 665.158C707.12 664.112 706.299 663.142 705.328 662.246C704.395 661.35 703.368 660.584 702.248 659.95C701.165 659.352 700.269 658.904 699.56 658.606C698.888 658.27 698.403 657.952 698.104 657.654C697.805 657.803 697.376 657.99 696.816 658.214C696.293 658.4 695.584 658.699 694.688 659.11L695.024 659.614ZM698.776 656.982C700.493 657.542 702.136 658.382 703.704 659.502C705.048 660.51 706.28 661.611 707.4 662.806C706.317 661.536 705.141 660.398 703.872 659.39C702.416 658.195 700.792 657.262 699 656.59L698.776 656.982ZM709.64 676.078C709.08 677.272 708.296 678.336 707.288 679.27C707.96 678.822 708.52 678.28 708.968 677.646C709.453 677.011 709.845 676.376 710.144 675.742C710.443 675.107 710.667 674.528 710.816 674.006C710.928 673.52 711.021 673.128 711.096 672.83C710.685 673.8 710.2 674.883 709.64 676.078ZM713.392 680.894C713.355 680.968 713.299 681.043 713.224 681.118C713.187 681.155 713.149 681.174 713.112 681.174C713.075 681.174 713.168 680.987 713.392 680.614C713.616 680.203 713.877 679.736 714.176 679.214C714.512 678.654 714.829 678.075 715.128 677.478C715.389 677.03 715.576 676.638 715.688 676.302C715.165 677.907 714.4 679.438 713.392 680.894ZM716.528 671.822C716.528 672.419 716.491 673.016 716.416 673.614C716.341 674.174 716.211 674.696 716.024 675.182C716.285 674.248 716.416 673.203 716.416 672.046C716.416 671.187 716.341 670.347 716.192 669.526C716.08 668.816 715.931 668.126 715.744 667.454C715.931 668.126 716.099 668.798 716.248 669.47C716.435 670.216 716.528 671 716.528 671.822ZM698.776 656.086L698.272 655.862C698.235 655.936 698.179 656.011 698.104 656.086C698.029 656.16 697.992 656.235 697.992 656.31C697.992 656.384 698.029 656.496 698.104 656.646C698.216 656.758 698.309 656.851 698.384 656.926L698.776 656.086ZM707.736 663.198C707.624 663.048 707.512 662.918 707.4 662.806C707.512 662.955 707.624 663.086 707.736 663.198ZM715.688 676.302C715.725 676.227 715.744 676.152 715.744 676.078C715.744 676.152 715.725 676.227 715.688 676.302ZM715.8 675.966C715.763 676.003 715.744 676.04 715.744 676.078C715.744 676.04 715.763 676.003 715.8 675.966ZM741.763 658.27C741.427 658.27 740.96 658.326 740.363 658.438C739.803 658.55 739.224 658.68 738.627 658.83C738.067 658.979 737.544 659.128 737.059 659.278C736.611 659.427 736.331 659.539 736.219 659.614C737.19 659.464 738.086 659.296 738.907 659.11C739.728 658.886 740.624 658.774 741.595 658.774C741.408 659.11 741.166 659.371 740.867 659.558C740.568 659.744 740.232 659.894 739.859 660.006C739.523 660.08 739.15 660.155 738.739 660.23C738.328 660.267 737.899 660.342 737.451 660.454L737.059 659.95C736.35 660.211 735.808 660.379 735.435 660.454C735.062 660.491 734.67 660.51 734.259 660.51C733.811 660.51 733.344 660.51 732.859 660.51C732.411 660.472 731.907 660.454 731.347 660.454C731.347 660.64 731.328 660.79 731.291 660.902C732.15 660.902 732.878 660.902 733.475 660.902C734.072 660.864 734.8 660.79 735.659 660.678C734.838 660.827 734.11 660.939 733.475 661.014C732.878 661.088 732.15 661.126 731.291 661.126C731.142 661.984 731.011 662.824 730.899 663.646C730.787 664.467 730.731 665.27 730.731 666.054C730.731 666.502 730.75 667.024 730.787 667.622C730.824 668.219 730.862 668.835 730.899 669.47C730.974 670.067 731.03 670.646 731.067 671.206C731.104 671.728 731.123 672.12 731.123 672.382V675.742C731.31 676.488 731.851 677.048 732.747 677.422C733.643 677.795 734.931 677.982 736.611 677.982H738.403C739.038 677.982 739.467 678.056 739.691 678.206C739.952 678.318 740.083 678.486 740.083 678.71C740.083 678.896 739.934 679.008 739.635 679.046C739.336 679.046 739.038 679.046 738.739 679.046C737.656 679.046 736.518 678.971 735.323 678.822C734.203 678.672 733.102 678.504 732.019 678.318C733.102 678.579 734.24 678.822 735.435 679.046C736.667 679.232 737.862 679.326 739.019 679.326H739.523C739.672 679.326 739.84 679.307 740.027 679.27C740.027 679.456 740.027 679.624 740.027 679.774C740.064 679.923 740.12 680.091 740.195 680.278L740.643 680.166C740.755 680.128 740.886 680.11 741.035 680.11C741.184 680.072 741.296 680.016 741.371 679.942C742.566 680.054 743.163 680.464 743.163 681.174C743.163 681.584 743.051 681.92 742.827 682.182C742.603 682.443 742.323 682.648 741.987 682.798C741.651 682.947 741.278 683.059 740.867 683.134C740.456 683.171 740.064 683.19 739.691 683.19C738.384 683.19 737.096 683.115 735.827 682.966C734.595 682.779 733.382 682.592 732.187 682.406C733.232 682.779 734.558 683.078 736.163 683.302C737.768 683.526 739.392 683.638 741.035 683.638C740.624 683.899 740.139 684.104 739.579 684.254C739.019 684.403 738.44 684.478 737.843 684.478L733.811 683.974C733.288 683.899 732.878 683.824 732.579 683.75C732.318 683.675 732.056 683.6 731.795 683.526C731.534 683.414 731.235 683.302 730.899 683.19C730.6 683.078 730.171 682.947 729.611 682.798V682.182C728.64 681.92 727.856 681.472 727.259 680.838C726.662 680.203 726.195 679.512 725.859 678.766C725.523 678.019 725.299 677.272 725.187 676.526C725.075 675.742 725.019 675.051 725.019 674.454C725.019 673.819 725.019 673.24 725.019 672.718C725.056 672.158 725.075 671.598 725.075 671.038C725.075 670.627 725.056 670.104 725.019 669.47C725.019 668.835 725 668.163 724.963 667.454C724.926 666.744 724.888 666.016 724.851 665.27C724.851 664.523 724.851 663.814 724.851 663.142C724.851 662.731 724.851 662.339 724.851 661.966C724.888 661.592 724.926 661.256 724.963 660.958H724.403C724.366 661.219 724.347 661.518 724.347 661.854V662.862C724.347 663.944 724.366 665.027 724.403 666.11C724.44 667.155 724.459 668.126 724.459 669.022C724.496 669.918 724.534 670.702 724.571 671.374C724.608 672.008 724.627 672.475 724.627 672.774V675.014V675.462C724.515 674.454 724.403 673.016 724.291 671.15C724.179 668.984 724.123 666.595 724.123 663.982V662.974C724.123 662.563 724.123 662.171 724.123 661.798C724.16 661.424 724.216 661.144 724.291 660.958L722.387 660.846C721.976 660.584 721.566 660.379 721.155 660.23C720.744 660.08 720.371 660.006 720.035 660.006V658.886C720.035 658.662 720.054 658.475 720.091 658.326C720.166 658.139 720.352 658.046 720.651 658.046C720.726 658.046 720.912 658.083 721.211 658.158V657.486C720.8 657.262 720.464 656.963 720.203 656.59C719.942 656.179 719.811 655.768 719.811 655.358C719.811 654.387 720.502 653.902 721.883 653.902C722.406 653.902 722.947 653.939 723.507 654.014C724.067 654.088 724.646 654.144 725.243 654.182C725.392 653.36 725.523 652.632 725.635 651.998C725.747 651.326 725.859 650.691 725.971 650.094C726.083 649.459 726.214 648.843 726.363 648.246C726.512 647.611 726.699 646.958 726.923 646.286C727.259 645.539 727.52 644.736 727.707 643.878C727.894 642.982 728.024 642.104 728.099 641.246L729.275 641.302C729.462 641.302 729.611 641.358 729.723 641.47C729.872 641.582 729.947 641.843 729.947 642.254C729.947 642.59 729.891 643.038 729.779 643.598L730.451 643.766C730.75 642.758 731.104 641.936 731.515 641.302C731.963 640.667 732.392 640.35 732.803 640.35C733.438 640.35 733.83 641.152 733.979 642.758V643.766C733.979 644.736 733.904 645.651 733.755 646.51C733.643 647.331 733.494 648.152 733.307 648.974C733.12 649.795 732.934 650.635 732.747 651.494C732.56 652.352 732.392 653.286 732.243 654.294C733.064 654.406 733.867 654.462 734.651 654.462C735.024 654.462 735.398 654.462 735.771 654.462C736.144 654.424 736.518 654.406 736.891 654.406C737.264 654.406 737.656 654.256 738.067 653.958C738.478 653.659 738.851 653.51 739.187 653.51C739.486 653.51 739.71 653.603 739.859 653.79C740.008 653.976 740.083 654.182 740.083 654.406C739.411 654.592 738.739 654.798 738.067 655.022C737.432 655.208 736.816 655.395 736.219 655.582C736.816 655.507 737.451 655.376 738.123 655.19C738.795 654.966 739.504 654.76 740.251 654.574C740.251 654.76 740.251 654.928 740.251 655.078C740.288 655.227 740.344 655.395 740.419 655.582C740.494 655.582 740.587 655.563 740.699 655.526C740.923 655.451 741.054 655.414 741.091 655.414C741.464 655.6 741.707 655.843 741.819 656.142C741.931 656.403 741.987 656.702 741.987 657.038C741.987 657.299 741.95 657.542 741.875 657.766C741.8 657.952 741.763 658.12 741.763 658.27ZM726.923 678.934C726.4 677.926 726.12 676.936 726.083 675.966C726.046 674.995 725.99 674.08 725.915 673.222L725.411 664.71L725.243 665.718C725.243 668.219 725.318 670.496 725.467 672.55C725.654 674.566 725.915 676.134 726.251 677.254C726.251 677.59 726.232 677.814 726.195 677.926C726.195 678.038 726.195 678.131 726.195 678.206C726.195 678.28 726.232 678.374 726.307 678.486C726.419 678.598 726.624 678.747 726.923 678.934ZM730.115 675.91C730.04 675.611 730.003 675.294 730.003 674.958V672.214C729.966 672.587 729.928 672.96 729.891 673.334C729.854 673.67 729.835 674.024 729.835 674.398C729.835 675.368 729.891 676.115 730.003 676.638C730.115 677.086 730.339 677.459 730.675 677.758C730.488 677.534 730.358 677.291 730.283 677.03C730.246 676.731 730.19 676.358 730.115 675.91ZM724.683 675.854L724.627 675.462L724.683 675.854ZM730.787 677.814C730.75 677.776 730.712 677.758 730.675 677.758C730.712 677.758 730.75 677.776 730.787 677.814ZM778.643 666.446C777.896 667.118 777 667.771 775.955 668.406C774.909 669.04 773.827 669.638 772.707 670.198C771.587 670.72 770.485 671.187 769.403 671.598C768.32 671.971 767.349 672.27 766.491 672.494C765.632 672.755 764.848 673.016 764.139 673.278C763.429 673.502 762.757 673.763 762.123 674.062C761.488 674.36 760.853 674.696 760.219 675.07C759.584 675.443 758.931 675.891 758.259 676.414C757.773 676.787 757.363 677.086 757.027 677.31C756.728 677.534 756.467 677.72 756.243 677.87C756.056 678.019 755.888 678.131 755.739 678.206C755.627 678.28 755.515 678.355 755.403 678.43L757.419 678.598C758.987 678.747 760.499 678.915 761.955 679.102C763.411 679.251 764.885 679.419 766.379 679.606C767.013 679.68 767.387 679.736 767.499 679.774C767.611 679.774 767.723 679.774 767.835 679.774C770.896 679.96 773.043 680.11 774.275 680.222C775.507 680.296 776.123 680.558 776.123 681.006C776.123 681.155 776.104 681.248 776.067 681.286C774.536 681.211 773.043 681.08 771.587 680.894C770.168 680.67 768.488 680.52 766.547 680.446C765.8 680.334 764.923 680.24 763.915 680.166C762.944 680.054 761.917 679.979 760.835 679.942C759.789 679.867 758.725 679.811 757.643 679.774C756.597 679.736 755.608 679.718 754.675 679.718C753.816 679.718 753.051 679.736 752.379 679.774C751.707 679.774 751.165 679.811 750.755 679.886C751.763 679.886 752.957 679.904 754.339 679.942C755.72 679.979 757.139 680.035 758.595 680.11C760.051 680.147 761.469 680.222 762.851 680.334C764.269 680.408 765.483 680.52 766.491 680.67L768.451 680.95C769.757 681.136 770.971 681.248 772.091 681.286C773.248 681.323 774.499 681.416 775.843 681.566C775.656 681.752 775.563 681.939 775.563 682.126C775.563 682.462 775.787 682.611 776.235 682.574C776.72 682.536 777.392 682.574 778.251 682.686C778.997 682.984 779.52 683.264 779.819 683.526C780.155 683.75 780.323 683.974 780.323 684.198C780.323 684.422 780.173 684.646 779.875 684.87C779.576 685.056 779.203 685.206 778.755 685.318L777.355 685.71C775.824 685.448 774.349 685.28 772.931 685.206C771.549 685.094 770.019 684.944 768.339 684.758L766.883 684.59C765.688 684.44 764.512 684.31 763.355 684.198C762.197 684.086 761.003 683.974 759.771 683.862L753.835 683.414C753.424 683.376 752.976 683.358 752.491 683.358C752.005 683.32 751.501 683.302 750.979 683.302H749.971C749.635 683.302 749.28 683.32 748.907 683.358L747.899 683.414V679.102C747.899 677.944 748.179 677.048 748.739 676.414C749.299 675.742 749.915 675.238 750.587 674.902C750.923 674.715 751.259 674.566 751.595 674.454C751.52 674.454 751.445 674.472 751.371 674.51C750.811 674.696 750.251 674.976 749.691 675.35C749.168 675.686 748.701 676.152 748.291 676.75C747.917 677.347 747.731 678.131 747.731 679.102L747.675 683.526H753.107L756.523 683.694C758.277 683.806 759.976 683.955 761.619 684.142C763.299 684.328 764.96 684.534 766.603 684.758L768.395 685.038C769.813 685.187 771.139 685.336 772.371 685.486C773.603 685.635 774.872 685.803 776.179 685.99C775.656 686.102 775.077 686.195 774.443 686.27C773.845 686.382 773.173 686.438 772.427 686.438C771.717 686.438 771.083 686.4 770.523 686.326C769.963 686.251 769.309 686.176 768.563 686.102L766.771 685.878C765.464 685.691 764.213 685.542 763.019 685.43C761.824 685.28 760.536 685.131 759.155 684.982L758.819 684.366H754.283C754.096 684.366 753.891 684.384 753.667 684.422C753.443 684.422 753.181 684.422 752.883 684.422H751.483C750.997 684.422 750.512 684.422 750.027 684.422C749.541 684.384 749.019 684.328 748.459 684.254L746.891 684.03V679.158C746.891 677.926 747.152 676.936 747.675 676.19C748.235 675.406 748.869 674.79 749.579 674.342C750.288 673.894 750.997 673.539 751.707 673.278C752.416 673.016 752.957 672.774 753.331 672.55L754.619 671.542C756.112 670.422 757.68 669.432 759.323 668.574C760.965 667.715 762.683 667.043 764.475 666.558L765.315 666.334C766.136 665.923 767.013 665.568 767.947 665.27C768.88 664.971 769.757 664.598 770.579 664.15L770.411 663.87C769.477 664.28 768.525 664.635 767.555 664.934C766.621 665.232 765.819 665.55 765.147 665.886L764.307 666.11C762.44 666.632 760.648 667.342 758.931 668.238C757.251 669.134 755.72 670.123 754.339 671.206L753.219 672.158H752.995C752.883 672.158 752.733 672.195 752.547 672.27L753.107 671.99C755.123 670.272 757.083 668.947 758.987 668.014C760.928 667.043 762.851 666.278 764.755 665.718C766.173 665.195 767.331 664.803 768.227 664.542C769.123 664.243 769.963 663.888 770.747 663.478C769.291 663.142 768.003 662.918 766.883 662.806C765.763 662.656 764.717 662.582 763.747 662.582C763.261 662.582 762.795 662.6 762.347 662.638C761.899 662.638 761.451 662.656 761.003 662.694C760.741 662.656 760.48 662.638 760.219 662.638H759.491C758.184 662.638 756.915 662.768 755.683 663.03C754.488 663.291 753.349 663.646 752.267 664.094C752.267 663.832 752.155 663.627 751.931 663.478C751.744 663.291 751.651 663.067 751.651 662.806C751.651 662.582 751.893 662.302 752.379 661.966C752.901 661.63 753.853 661.312 755.235 661.014L755.123 660.454C753.853 660.64 752.752 660.808 751.819 660.958C750.885 661.107 750.101 661.182 749.467 661.182C749.056 661.182 748.739 661.163 748.515 661.126C748.328 661.088 748.197 660.958 748.123 660.734C748.123 660.659 748.141 660.584 748.179 660.51C748.216 660.435 748.235 660.36 748.235 660.286C748.981 659.539 749.896 658.886 750.979 658.326C752.061 657.728 753.256 657.243 754.563 656.87C755.907 656.459 757.325 656.16 758.819 655.974C760.312 655.75 761.843 655.638 763.411 655.638C764.568 655.638 765.856 655.731 767.275 655.918C768.731 656.104 770.336 656.347 772.091 656.646C772.464 656.758 772.8 656.87 773.099 656.982C773.397 657.056 773.715 657.15 774.051 657.262C774.387 657.374 774.76 657.504 775.171 657.654C775.581 657.803 776.085 657.99 776.683 658.214C776.645 658.176 776.888 658.27 777.411 658.494C777.971 658.718 778.531 659.128 779.091 659.726L778.643 666.446ZM746.443 679.158C746.443 678.299 746.536 677.59 746.723 677.03C746.947 676.47 747.245 675.984 747.619 675.574C747.32 676.022 747.059 676.526 746.835 677.086C746.648 677.646 746.555 678.262 746.555 678.934V684.198L748.291 684.534C748.813 684.646 749.336 684.72 749.859 684.758C750.381 684.795 750.885 684.814 751.371 684.814C751.893 684.814 752.36 684.814 752.771 684.814C753.181 684.776 753.592 684.758 754.003 684.758L758.315 684.814L754.059 684.87H753.443C753.107 684.87 752.733 684.888 752.323 684.926C751.949 684.926 751.539 684.926 751.091 684.926C750.68 684.926 750.232 684.907 749.747 684.87C749.261 684.832 748.757 684.758 748.235 684.646L746.443 684.31V679.158ZM752.099 672.55L750.923 673.334C750.475 673.632 749.933 673.931 749.299 674.23C748.701 674.528 748.141 674.976 747.619 675.574C748.328 674.528 749.187 673.763 750.195 673.278C751.203 672.755 751.987 672.419 752.547 672.27L752.099 672.55ZM754.731 677.254C754.208 677.254 753.741 677.459 753.331 677.87C752.957 678.243 752.659 678.504 752.435 678.654L752.547 678.71C752.733 678.598 753.088 678.392 753.611 678.094C754.133 677.795 754.693 677.478 755.291 677.142C755.888 676.806 756.467 676.488 757.027 676.19C757.587 675.854 758.016 675.592 758.315 675.406C758.128 675.518 757.848 675.667 757.475 675.854C757.139 676.003 756.784 676.171 756.411 676.358C756.037 676.544 755.683 676.731 755.347 676.918C755.048 677.067 754.843 677.179 754.731 677.254ZM752.603 674.062C753.237 673.838 753.648 673.558 753.835 673.222L754.171 672.998C754.843 672.475 755.533 671.934 756.243 671.374C756.989 670.776 757.755 670.235 758.539 669.75C757.493 670.272 756.541 670.926 755.683 671.71C754.824 672.456 753.853 673.166 752.771 673.838C752.584 673.95 752.379 674.062 752.155 674.174C752.304 674.136 752.453 674.099 752.603 674.062ZM786.178 683.358C786.328 682.312 786.458 681.099 786.57 679.718C786.72 678.299 786.85 676.88 786.962 675.462C787.074 674.043 787.186 672.662 787.298 671.318C787.41 669.936 787.522 668.742 787.634 667.734C787.448 668.742 787.28 669.899 787.13 671.206C786.981 672.512 786.832 673.856 786.682 675.238C786.533 676.619 786.384 678 786.234 679.382C786.085 680.726 785.954 681.939 785.842 683.022C785.282 682.648 785.002 682.144 785.002 681.51C785.002 680.763 785.021 680.147 785.058 679.662C785.096 679.139 785.152 678.542 785.226 677.87L785.842 677.31C785.805 677.123 785.786 676.955 785.786 676.806V676.246C785.786 675.387 785.88 674.416 786.066 673.334C786.253 672.214 786.458 671.094 786.682 669.974C786.944 668.816 787.168 667.715 787.354 666.67C787.541 665.587 787.634 664.654 787.634 663.87L786.962 663.702C786.888 664.598 786.776 665.624 786.626 666.782C786.477 667.902 786.309 669.078 786.122 670.31C785.973 671.504 785.824 672.699 785.674 673.894C785.6 674.528 785.525 675.126 785.45 675.686C785.525 674.64 785.618 673.52 785.73 672.326C785.917 670.608 786.104 668.91 786.29 667.23C786.514 665.512 786.72 663.832 786.906 662.19C787.093 660.547 787.28 659.035 787.466 657.654C787.466 657.094 787.597 656.496 787.858 655.862C788.157 655.19 788.362 654.499 788.474 653.79C788.698 653.864 788.885 653.902 789.034 653.902H789.426C789.8 653.902 790.042 653.995 790.154 654.182C790.266 654.331 790.322 654.555 790.322 654.854V655.134L790.826 655.302C791.125 654.742 791.48 654.294 791.89 653.958C792.301 653.622 792.712 653.454 793.122 653.454C794.018 653.454 794.466 654.406 794.466 656.31C794.466 657.318 794.354 658.4 794.13 659.558C793.944 660.678 793.85 661.779 793.85 662.862V663.59C793.85 664.784 793.72 666.091 793.458 667.51C793.197 668.891 792.898 670.31 792.562 671.766C792.264 673.184 791.984 674.566 791.722 675.91C791.461 677.254 791.33 678.486 791.33 679.606C791.33 679.867 791.349 680.147 791.386 680.446C791.424 680.744 791.442 681.024 791.442 681.286C791.442 681.846 791.33 682.2 791.106 682.35C790.92 682.462 790.677 682.518 790.378 682.518C790.378 682.032 790.36 681.435 790.322 680.726C790.285 680.016 790.266 679.382 790.266 678.822C790.192 679.232 790.154 679.792 790.154 680.502C790.154 681.211 790.117 681.883 790.042 682.518H789.202V683.19C788.866 683.787 788.418 684.086 787.858 684.086C787.597 684.086 787.298 684.011 786.962 683.862C786.626 683.712 786.365 683.544 786.178 683.358ZM797.714 640.35C797.08 640.723 796.501 641.208 795.978 641.806C795.456 642.403 794.914 642.982 794.354 643.542C794.69 643.318 794.989 643.075 795.25 642.814C795.512 642.552 795.773 642.291 796.034 642.03C796.333 641.768 796.632 641.507 796.93 641.246C797.266 640.984 797.64 640.742 798.05 640.518C798.162 640.667 798.256 640.798 798.33 640.91C798.442 641.022 798.498 641.134 798.498 641.246L797.21 642.534C797.21 642.459 797.136 642.384 796.986 642.31C796.874 642.235 796.781 642.198 796.706 642.198C796.594 642.571 796.408 642.87 796.146 643.094C795.885 643.318 795.624 643.523 795.362 643.71C795.101 643.896 794.84 644.102 794.578 644.326C794.317 644.55 794.13 644.848 794.018 645.222V645.334C794.018 645.371 794.074 645.39 794.186 645.39L796.986 642.758L795.922 643.822C795.4 644.344 794.84 644.886 794.242 645.446C793.682 645.968 793.141 646.435 792.618 646.846C792.133 647.256 791.834 647.462 791.722 647.462L791.666 647.406C791.405 647.331 791.125 647.294 790.826 647.294C790.565 647.294 790.285 647.275 789.986 647.238C789.986 646.939 789.93 646.622 789.818 646.286C789.744 645.95 789.706 645.688 789.706 645.502C789.706 645.315 789.8 645.222 789.986 645.222C789.986 645.11 789.912 644.942 789.762 644.718C789.65 644.456 789.52 644.176 789.37 643.878C789.221 643.542 789.072 643.206 788.922 642.87C788.81 642.496 788.754 642.123 788.754 641.75C788.754 641.376 788.904 641.022 789.202 640.686C789.538 640.312 789.912 639.995 790.322 639.734C790.77 639.472 791.2 639.248 791.61 639.062C792.021 638.875 792.32 638.744 792.506 638.67C792.656 638.67 792.712 638.595 792.674 638.446C792.637 638.259 792.693 638.166 792.842 638.166L793.85 638.502C793.776 638.688 793.533 639.006 793.122 639.454C792.749 639.864 792.469 640.163 792.282 640.35C792.544 640.163 792.842 639.883 793.178 639.51C793.552 639.136 793.832 638.856 794.018 638.67C794.205 638.744 794.373 638.819 794.522 638.894C794.672 638.968 794.784 639.006 794.858 639.006L795.026 638.838C795.288 638.838 795.568 638.894 795.866 639.006C796.202 639.118 796.501 639.248 796.762 639.398C797.024 639.547 797.248 639.715 797.434 639.902C797.621 640.088 797.714 640.238 797.714 640.35ZM785.338 677.03C785.376 676.619 785.413 676.208 785.45 675.798C785.413 676.246 785.376 676.656 785.338 677.03ZM802.932 682.686C802.932 682.499 802.988 682.275 803.1 682.014C803.212 681.752 803.268 681.472 803.268 681.174C803.38 680.278 803.455 679.643 803.492 679.27C803.529 678.859 803.548 678.504 803.548 678.206C803.548 676.638 803.492 674.958 803.38 673.166C803.305 671.336 803.212 669.582 803.1 667.902C803.1 667.379 803.081 666.763 803.044 666.054C803.044 665.344 803.007 664.784 802.932 664.374C803.044 663.067 803.137 661.779 803.212 660.51C803.287 659.24 803.324 657.952 803.324 656.646V655.246C803.324 654.76 803.305 654.275 803.268 653.79C803.38 653.902 803.492 653.958 803.604 653.958C803.753 653.958 803.903 653.902 804.052 653.79C804.239 653.678 804.407 653.622 804.556 653.622C804.817 653.622 805.023 653.902 805.172 654.462C805.359 655.022 805.452 656.254 805.452 658.158H805.956C806.143 656.067 806.423 654.406 806.796 653.174C807.207 651.942 807.617 651.326 808.028 651.326C808.215 651.326 808.513 651.736 808.924 652.558C809.335 653.342 809.54 654.592 809.54 656.31L810.156 655.302C810.567 654.816 811.015 654.312 811.5 653.79C812.023 653.267 812.601 652.8 813.236 652.39C813.871 651.979 814.58 651.643 815.364 651.382C816.148 651.083 817.044 650.934 818.052 650.934C819.993 650.934 821.673 651.382 823.092 652.278C824.548 653.136 825.761 654.275 826.732 655.694C827.703 657.075 828.487 658.662 829.084 660.454C829.719 662.208 830.204 664 830.54 665.83C830.876 667.622 831.1 669.358 831.212 671.038C831.324 672.718 831.38 674.155 831.38 675.35C831.38 676.432 831.305 677.086 831.156 677.31C831.044 677.496 830.82 677.608 830.484 677.646C830.409 674.771 830.223 671.84 829.924 668.854C829.625 665.867 828.916 662.974 827.796 660.174C828.804 663.123 829.439 666.035 829.7 668.91C829.999 671.747 830.148 674.603 830.148 677.478C829.924 677.366 829.719 677.31 829.532 677.31C829.383 677.31 829.252 677.366 829.14 677.478C829.14 677.776 829.159 678.094 829.196 678.43C829.233 678.728 829.252 679.027 829.252 679.326C829.289 679.624 829.308 679.904 829.308 680.166C829.084 681.024 828.86 681.64 828.636 682.014C828.412 682.387 828.207 682.574 828.02 682.574C827.796 682.574 827.609 682.48 827.46 682.294C827.311 682.07 827.161 681.808 827.012 681.51C826.9 681.211 826.769 680.894 826.62 680.558C826.508 680.184 826.34 679.83 826.116 679.494C826.191 678.859 826.247 678.355 826.284 677.982C826.321 677.571 826.34 677.235 826.34 676.974C826.34 675.966 826.321 674.752 826.284 673.334C826.247 671.915 826.135 670.44 825.948 668.91C825.799 667.342 825.537 665.792 825.164 664.262C824.828 662.694 824.343 661.312 823.708 660.118C823.111 658.886 822.345 657.896 821.412 657.15C820.479 656.366 819.359 655.974 818.052 655.974C817.156 655.974 816.353 656.272 815.644 656.87C814.972 657.467 814.375 658.232 813.852 659.166C813.367 660.099 812.937 661.126 812.564 662.246C812.191 663.328 811.892 664.374 811.668 665.382C812.004 664.336 812.34 663.272 812.676 662.19C813.049 661.107 813.479 660.118 813.964 659.222C814.487 658.326 815.084 657.598 815.756 657.038C816.428 656.44 817.212 656.142 818.108 656.142C819.265 656.142 820.255 656.459 821.076 657.094C821.935 657.728 822.644 658.55 823.204 659.558C823.801 660.566 824.268 661.723 824.604 663.03C824.977 664.299 825.257 665.606 825.444 666.95C825.631 668.256 825.743 669.544 825.78 670.814C825.855 672.046 825.892 673.11 825.892 674.006C825.892 674.715 825.873 675.424 825.836 676.134C825.836 676.843 825.817 677.571 825.78 678.318C825.444 676.899 825.183 675.424 824.996 673.894C824.847 672.326 824.679 670.795 824.492 669.302C824.305 667.771 824.063 666.315 823.764 664.934C823.503 663.515 823.111 662.208 822.588 661.014L822.98 660.454C822.607 659.595 822.177 658.942 821.692 658.494C821.244 658.008 820.796 657.654 820.348 657.43C819.9 657.206 819.489 657.075 819.116 657.038C818.743 657 818.5 656.982 818.388 656.982C817.455 656.982 816.615 657.318 815.868 657.99C815.159 658.662 814.524 659.576 813.964 660.734C813.441 661.854 812.975 663.16 812.564 664.654C812.153 666.147 811.799 667.715 811.5 669.358C811.201 671 810.94 672.662 810.716 674.342C810.492 675.984 810.305 677.534 810.156 678.99H810.66C810.847 677.72 811.033 676.32 811.22 674.79C811.444 673.259 811.668 671.71 811.892 670.142C812.153 668.536 812.452 666.987 812.788 665.494C813.124 664 813.516 662.656 813.964 661.462C814.449 660.267 815.009 659.296 815.644 658.55C816.241 657.84 816.969 657.43 817.828 657.318C817.007 657.504 816.316 658.027 815.756 658.886C815.159 659.782 814.636 660.883 814.188 662.19C813.74 663.496 813.329 664.934 812.956 666.502C812.62 668.032 812.303 669.507 812.004 670.926L810.884 679.102C810.735 679.624 810.623 680.091 810.548 680.502L810.324 681.678C810.249 682.051 810.175 682.462 810.1 682.91C810.025 683.32 809.932 683.806 809.82 684.366L809.652 685.038H809.316L803.66 683.134C803.473 683.096 803.324 683.04 803.212 682.966C803.137 682.891 803.044 682.798 802.932 682.686ZM812.676 653.958C811.929 654.592 811.332 655.283 810.884 656.03C810.473 656.739 810.081 657.467 809.708 658.214V658.27C810.231 657.187 810.959 656.086 811.892 654.966C812.788 653.92 813.983 653.136 815.476 652.614C814.991 652.763 814.524 652.912 814.076 653.062C813.553 653.248 813.087 653.547 812.676 653.958ZM819.396 652.11C819.209 652.072 818.948 652.054 818.612 652.054C819.807 652.352 820.927 652.688 821.972 653.062C823.017 653.398 824.007 654.088 824.94 655.134C824.305 654.275 823.465 653.603 822.42 653.118C821.412 652.632 820.404 652.296 819.396 652.11ZM820.908 658.494C820.609 658.27 820.255 658.102 819.844 657.99C819.471 657.84 819.004 657.654 818.444 657.43L818.388 657.318C819.023 657.355 819.583 657.504 820.068 657.766C820.553 657.99 821.02 658.4 821.468 658.998L820.908 658.494ZM825.052 655.246C825.575 655.88 826.06 656.608 826.508 657.43C826.956 658.251 827.348 658.979 827.684 659.614C827.311 658.755 826.956 657.971 826.62 657.262C826.284 656.552 825.761 655.88 825.052 655.246ZM856.029 671.598C855.021 671.598 854.256 671.579 853.733 671.542C853.248 671.504 852.8 671.486 852.389 671.486C851.269 671.486 850.28 671.542 849.421 671.654C848.563 671.766 847.835 671.99 847.237 672.326C846.64 672.662 846.192 673.147 845.893 673.782C845.595 674.416 845.445 675.256 845.445 676.302C845.445 677.832 845.613 678.971 845.949 679.718C846.323 680.427 846.827 680.95 847.461 681.286C848.133 681.584 848.936 681.771 849.869 681.846C850.803 681.92 851.848 682.088 853.005 682.35C853.677 682.424 854.349 682.48 855.021 682.518C855.693 682.518 856.365 682.518 857.037 682.518H861.069C859.203 682.406 857.336 682.35 855.469 682.35C853.64 682.312 851.979 682.144 850.485 681.846C849.029 681.547 847.835 681.024 846.901 680.278C846.005 679.531 845.557 678.392 845.557 676.862C845.557 675.63 845.707 674.696 846.005 674.062C846.341 673.39 846.771 672.904 847.293 672.606C847.853 672.27 848.507 672.083 849.253 672.046C850 671.971 850.803 671.934 851.661 671.934C852.707 671.934 853.771 671.99 854.853 672.102C853.995 672.363 853.117 672.568 852.221 672.718C851.363 672.83 850.56 672.96 849.813 673.11C849.067 673.222 848.413 673.39 847.853 673.614C847.331 673.8 846.976 674.08 846.789 674.454V676.974L846.341 677.198C846.491 678.131 846.621 678.84 846.733 679.326C846.883 679.774 847.256 680.128 847.853 680.39C848.451 680.614 849.403 680.8 850.709 680.95C852.053 681.099 853.995 681.342 856.533 681.678H860.565C861.275 681.678 861.685 681.659 861.797 681.622C861.947 681.547 862.04 681.51 862.077 681.51L861.573 678.486C861.499 677.739 861.405 677.067 861.293 676.47C861.181 675.872 861.032 675.238 860.845 674.566C860.808 674.678 860.696 674.734 860.509 674.734C860.696 675.368 860.845 676.04 860.957 676.75C861.107 677.459 861.219 678.131 861.293 678.766C861.405 679.4 861.48 679.942 861.517 680.39C861.592 680.838 861.667 681.099 861.741 681.174L861.405 681.286C861.331 681.323 861.219 681.342 861.069 681.342H860.733C860.472 681.342 860.173 681.323 859.837 681.286C859.501 681.211 859.072 681.174 858.549 681.174H856.701C855.245 681.174 853.901 681.099 852.669 680.95C851.512 680.8 850.504 680.614 849.645 680.39C850.504 680.576 851.549 680.726 852.781 680.838C854.088 680.987 855.301 681.062 856.421 681.062C856.907 681.062 857.411 681.062 857.933 681.062C858.493 681.024 859.091 681.006 859.725 681.006H861.573C861.461 680.894 861.331 680.838 861.181 680.838H861.069C860.92 678.262 860.584 675.798 860.061 673.446C859.539 671.094 858.699 669.04 857.541 667.286C856.384 665.494 854.872 664.075 853.005 663.03C851.139 661.947 848.805 661.406 846.005 661.406C845.221 661.406 844.437 661.462 843.653 661.574C842.869 661.686 842.067 661.835 841.245 662.022C841.32 661.947 841.357 661.872 841.357 661.798C841.357 661.611 841.283 661.443 841.133 661.294C840.984 661.107 840.909 660.92 840.909 660.734C840.909 660.51 841.133 660.304 841.581 660.118C842.067 659.894 843.075 659.688 844.605 659.502C844.531 659.427 844.475 659.315 844.437 659.166C844.437 659.016 844.437 658.904 844.437 658.83C842.421 658.83 840.853 658.792 839.733 658.718C838.613 658.606 838.053 658.326 838.053 657.878C838.053 657.691 838.277 657.43 838.725 657.094C839.211 656.758 839.883 656.44 840.741 656.142C841.6 655.806 842.627 655.526 843.821 655.302C845.053 655.04 846.416 654.91 847.909 654.91C850.784 654.91 853.248 655.358 855.301 656.254C857.355 657.112 859.072 658.27 860.453 659.726C861.872 661.144 863.011 662.768 863.869 664.598C864.765 666.427 865.475 668.275 865.997 670.142C866.557 671.971 866.968 673.763 867.229 675.518C867.491 677.235 867.733 678.728 867.957 679.998C867.957 680.222 867.957 680.446 867.957 680.67C867.995 680.894 868.013 681.155 868.013 681.454C868.013 682.536 867.808 683.488 867.397 684.31C867.024 685.094 866.483 685.747 865.773 686.27C865.101 686.83 864.299 687.24 863.365 687.502C862.469 687.8 861.499 687.95 860.453 687.95C859.632 687.95 858.568 687.931 857.261 687.894C855.955 687.856 854.704 687.744 853.509 687.558C852.725 687.371 851.867 687.222 850.933 687.11C850 687.035 849.048 686.886 848.077 686.662C847.107 686.438 846.155 686.12 845.221 685.71C844.325 685.299 843.504 684.683 842.757 683.862C842.048 683.003 841.469 681.902 841.021 680.558C840.611 679.214 840.405 677.515 840.405 675.462C840.405 673.52 840.853 671.971 841.749 670.814C842.645 669.619 843.709 668.704 844.941 668.07C846.211 667.398 847.499 666.968 848.805 666.782C850.112 666.558 851.176 666.446 851.997 666.446C853.043 666.446 853.733 666.52 854.069 666.67C854.405 666.819 854.573 666.968 854.573 667.118C854.573 667.23 854.555 667.323 854.517 667.398C853.584 667.398 852.389 667.435 850.933 667.51C849.477 667.584 848.059 667.827 846.677 668.238C845.333 668.648 844.176 669.283 843.205 670.142C842.235 670.963 841.749 672.139 841.749 673.67C842.085 672.288 842.645 671.206 843.429 670.422C844.251 669.6 845.184 669.003 846.229 668.63C847.275 668.219 848.339 667.976 849.421 667.902C850.541 667.79 851.549 667.734 852.445 667.734H854.349C854.2 667.883 854.125 668.032 854.125 668.182C854.125 668.331 854.2 668.462 854.349 668.574H856.533C857.131 668.686 857.56 668.891 857.821 669.19C858.083 669.451 858.213 669.694 858.213 669.918C858.213 670.254 858.045 670.552 857.709 670.814C857.373 671.075 856.813 671.336 856.029 671.598ZM846.621 685.15C847.667 685.56 848.731 685.878 849.813 686.102C850.933 686.326 852.035 686.475 853.117 686.55C854.2 686.662 855.208 686.718 856.141 686.718C855.395 686.643 854.648 686.512 853.901 686.326C853.117 686.139 852.427 685.971 851.829 685.822C851.195 685.672 850.56 685.579 849.925 685.542C849.328 685.467 848.693 685.374 848.021 685.262C847.387 685.15 846.733 684.982 846.061 684.758C845.389 684.496 844.717 684.123 844.045 683.638C844.755 684.272 845.613 684.776 846.621 685.15ZM847.181 679.27C847.144 679.232 847.256 679.344 847.517 679.606C847.741 679.83 848.04 679.998 848.413 680.11C848.227 680.035 847.947 679.942 847.573 679.83C847.163 679.68 846.957 679.456 846.957 679.158L847.181 679.27ZM848.581 680.11C848.544 680.11 848.488 680.11 848.413 680.11C848.451 680.11 848.507 680.11 848.581 680.11ZM878.972 702.51C879.046 700.419 879.102 698.347 879.14 696.294C879.177 694.278 879.196 692.131 879.196 689.854C879.196 688.883 879.177 687.912 879.14 686.942C879.102 686.008 879.046 685.094 878.972 684.198V690.358C878.972 692.411 878.934 694.446 878.86 696.462C878.822 698.515 878.692 700.531 878.468 702.51C878.281 702.174 878.113 701.819 877.964 701.446C877.814 701.11 877.702 700.736 877.628 700.326C877.702 699.318 877.74 698.384 877.74 697.526C877.777 696.704 877.796 695.79 877.796 694.782L878.468 694.446C878.356 693.662 878.281 692.859 878.244 692.038C878.206 691.254 878.188 690.47 878.188 689.686C878.188 688.827 878.188 687.987 878.188 687.166C878.225 686.382 878.244 685.56 878.244 684.702C878.244 683.656 878.206 682.63 878.132 681.622C878.094 680.576 877.982 679.531 877.796 678.486H877.628C877.702 680.054 877.758 681.603 877.796 683.134C877.87 684.664 877.908 686.195 877.908 687.726C877.908 688.398 877.889 689.07 877.852 689.742L877.796 691.198C877.721 687.614 877.59 684.104 877.404 680.67C877.254 677.011 876.993 673.259 876.62 669.414L876.844 664.766C876.433 664.728 876.004 664.71 875.556 664.71H874.268L874.1 663.422C874.1 663.235 874.23 663.067 874.492 662.918C874.753 662.768 875.276 662.694 876.06 662.694H876.62V662.022C875.388 661.872 874.417 661.611 873.708 661.238C873.036 660.864 872.7 660.472 872.7 660.062C872.7 659.688 873.036 659.371 873.708 659.11C874.38 658.811 875.238 658.587 876.284 658.438C877.366 658.251 878.542 658.12 879.812 658.046C881.081 657.971 882.313 657.934 883.508 657.934C884.814 657.934 886.214 657.971 887.708 658.046C889.238 658.12 890.769 658.307 892.3 658.606C893.83 658.904 895.305 659.371 896.724 660.006C898.18 660.603 899.486 661.462 900.644 662.582C901.801 663.664 902.753 665.046 903.5 666.726C904.284 668.368 904.788 670.384 905.012 672.774C905.012 674.79 904.564 676.451 903.668 677.758C902.809 679.027 901.764 680.054 900.532 680.838C899.3 681.622 898.012 682.182 896.668 682.518C895.361 682.854 894.278 683.078 893.42 683.19C892.561 683.376 891.572 683.6 890.452 683.862C889.332 684.086 888.38 684.198 887.596 684.198C886.737 684.198 886.233 684.104 886.084 683.918C885.934 683.731 885.86 683.488 885.86 683.19C887.54 683.115 889.22 682.984 890.9 682.798C892.58 682.574 894.26 682.2 895.94 681.678C894.26 682.088 892.58 682.406 890.9 682.63C889.22 682.816 887.54 682.947 885.86 683.022C885.86 682.798 885.841 682.574 885.804 682.35C885.766 682.088 885.654 681.958 885.468 681.958C885.094 681.958 884.796 682.555 884.572 683.75C884.385 684.944 884.236 686.363 884.124 688.006C884.049 689.686 883.993 691.403 883.956 693.158C883.956 694.912 883.956 696.368 883.956 697.526C883.956 698.048 883.974 698.59 884.012 699.15C884.086 699.747 884.124 700.251 884.124 700.662C884.124 701.035 884.068 701.352 883.956 701.614C883.844 701.875 883.526 702.006 883.004 702.006V694.95C882.929 696.144 882.873 697.32 882.836 698.478C882.836 699.635 882.836 700.811 882.836 702.006H881.828V702.454C881.828 702.79 881.884 703.032 881.996 703.182C881.585 703.891 881.118 704.246 880.596 704.246C880.185 704.246 879.868 704.134 879.644 703.91C879.457 703.686 879.177 703.387 878.804 703.014L878.972 702.51ZM884.404 679.158H885.188C886.494 679.158 887.988 679.083 889.668 678.934C891.385 678.784 892.99 678.504 894.484 678.094C895.977 677.683 897.228 677.104 898.236 676.358C899.281 675.611 899.804 674.64 899.804 673.446V672.998C899.804 672.624 899.766 672.214 899.692 671.766C899.654 671.318 899.505 670.888 899.244 670.478C899.281 670.664 899.374 671.038 899.524 671.598C899.673 672.158 899.748 672.624 899.748 672.998C899.748 674.155 899.337 675.107 898.516 675.854C897.732 676.563 896.724 677.142 895.492 677.59C894.297 678 892.972 678.299 891.516 678.486C890.097 678.635 888.734 678.71 887.428 678.71H886.308C885.934 678.71 885.561 678.691 885.188 678.654C885.71 678.243 886.382 677.963 887.204 677.814C888.062 677.627 888.958 677.478 889.892 677.366C890.825 677.254 891.74 677.142 892.636 677.03C893.532 676.918 894.297 676.731 894.932 676.47L895.268 677.142C896.574 676.507 897.489 675.891 898.012 675.294C898.572 674.659 898.852 673.8 898.852 672.718C898.852 671 898.366 669.488 897.396 668.182C896.462 666.875 895.193 665.998 893.588 665.55L893.42 665.886C894.801 666.408 895.996 667.267 897.004 668.462C898.012 669.656 898.516 671.094 898.516 672.774C898.516 673.67 898.31 674.379 897.9 674.902C897.526 675.35 896.929 675.76 896.108 676.134C896.78 675.835 897.284 675.462 897.62 675.014C898.03 674.491 898.31 673.912 898.46 673.278C898.46 671.71 898.086 670.384 897.34 669.302C896.593 668.219 895.548 667.36 894.204 666.726C892.86 666.054 891.236 665.587 889.332 665.326C887.465 665.027 885.393 664.878 883.116 664.878C883.414 666.483 883.582 668.238 883.62 670.142C883.694 672.008 883.825 673.838 884.012 675.63L884.404 679.158ZM878.748 670.59C878.822 670.515 878.897 670.198 878.972 669.638C879.046 669.078 879.102 668.48 879.14 667.846C879.214 667.174 879.27 666.558 879.308 665.998C879.382 665.4 879.457 665.046 879.532 664.934L878.804 664.878L878.748 670.59ZM895.828 676.246L896.108 676.134L895.828 676.246ZM929.664 671.598C928.656 671.598 927.891 671.579 927.368 671.542C926.883 671.504 926.435 671.486 926.024 671.486C924.904 671.486 923.915 671.542 923.056 671.654C922.198 671.766 921.47 671.99 920.872 672.326C920.275 672.662 919.827 673.147 919.528 673.782C919.23 674.416 919.08 675.256 919.08 676.302C919.08 677.832 919.248 678.971 919.584 679.718C919.958 680.427 920.462 680.95 921.096 681.286C921.768 681.584 922.571 681.771 923.504 681.846C924.438 681.92 925.483 682.088 926.64 682.35C927.312 682.424 927.984 682.48 928.656 682.518C929.328 682.518 930 682.518 930.672 682.518H934.704C932.838 682.406 930.971 682.35 929.104 682.35C927.275 682.312 925.614 682.144 924.12 681.846C922.664 681.547 921.47 681.024 920.536 680.278C919.64 679.531 919.192 678.392 919.192 676.862C919.192 675.63 919.342 674.696 919.64 674.062C919.976 673.39 920.406 672.904 920.928 672.606C921.488 672.27 922.142 672.083 922.888 672.046C923.635 671.971 924.438 671.934 925.296 671.934C926.342 671.934 927.406 671.99 928.488 672.102C927.63 672.363 926.752 672.568 925.856 672.718C924.998 672.83 924.195 672.96 923.448 673.11C922.702 673.222 922.048 673.39 921.488 673.614C920.966 673.8 920.611 674.08 920.424 674.454V676.974L919.976 677.198C920.126 678.131 920.256 678.84 920.368 679.326C920.518 679.774 920.891 680.128 921.488 680.39C922.086 680.614 923.038 680.8 924.344 680.95C925.688 681.099 927.63 681.342 930.168 681.678H934.2C934.91 681.678 935.32 681.659 935.432 681.622C935.582 681.547 935.675 681.51 935.712 681.51L935.208 678.486C935.134 677.739 935.04 677.067 934.928 676.47C934.816 675.872 934.667 675.238 934.48 674.566C934.443 674.678 934.331 674.734 934.144 674.734C934.331 675.368 934.48 676.04 934.592 676.75C934.742 677.459 934.854 678.131 934.928 678.766C935.04 679.4 935.115 679.942 935.152 680.39C935.227 680.838 935.302 681.099 935.376 681.174L935.04 681.286C934.966 681.323 934.854 681.342 934.704 681.342H934.368C934.107 681.342 933.808 681.323 933.472 681.286C933.136 681.211 932.707 681.174 932.184 681.174H930.336C928.88 681.174 927.536 681.099 926.304 680.95C925.147 680.8 924.139 680.614 923.28 680.39C924.139 680.576 925.184 680.726 926.416 680.838C927.723 680.987 928.936 681.062 930.056 681.062C930.542 681.062 931.046 681.062 931.568 681.062C932.128 681.024 932.726 681.006 933.36 681.006H935.208C935.096 680.894 934.966 680.838 934.816 680.838H934.704C934.555 678.262 934.219 675.798 933.696 673.446C933.174 671.094 932.334 669.04 931.176 667.286C930.019 665.494 928.507 664.075 926.64 663.03C924.774 661.947 922.44 661.406 919.64 661.406C918.856 661.406 918.072 661.462 917.288 661.574C916.504 661.686 915.702 661.835 914.88 662.022C914.955 661.947 914.992 661.872 914.992 661.798C914.992 661.611 914.918 661.443 914.768 661.294C914.619 661.107 914.544 660.92 914.544 660.734C914.544 660.51 914.768 660.304 915.216 660.118C915.702 659.894 916.71 659.688 918.24 659.502C918.166 659.427 918.11 659.315 918.072 659.166C918.072 659.016 918.072 658.904 918.072 658.83C916.056 658.83 914.488 658.792 913.368 658.718C912.248 658.606 911.688 658.326 911.688 657.878C911.688 657.691 911.912 657.43 912.36 657.094C912.846 656.758 913.518 656.44 914.376 656.142C915.235 655.806 916.262 655.526 917.456 655.302C918.688 655.04 920.051 654.91 921.544 654.91C924.419 654.91 926.883 655.358 928.936 656.254C930.99 657.112 932.707 658.27 934.088 659.726C935.507 661.144 936.646 662.768 937.504 664.598C938.4 666.427 939.11 668.275 939.632 670.142C940.192 671.971 940.603 673.763 940.864 675.518C941.126 677.235 941.368 678.728 941.592 679.998C941.592 680.222 941.592 680.446 941.592 680.67C941.63 680.894 941.648 681.155 941.648 681.454C941.648 682.536 941.443 683.488 941.032 684.31C940.659 685.094 940.118 685.747 939.408 686.27C938.736 686.83 937.934 687.24 937 687.502C936.104 687.8 935.134 687.95 934.088 687.95C933.267 687.95 932.203 687.931 930.896 687.894C929.59 687.856 928.339 687.744 927.144 687.558C926.36 687.371 925.502 687.222 924.568 687.11C923.635 687.035 922.683 686.886 921.712 686.662C920.742 686.438 919.79 686.12 918.856 685.71C917.96 685.299 917.139 684.683 916.392 683.862C915.683 683.003 915.104 681.902 914.656 680.558C914.246 679.214 914.04 677.515 914.04 675.462C914.04 673.52 914.488 671.971 915.384 670.814C916.28 669.619 917.344 668.704 918.576 668.07C919.846 667.398 921.134 666.968 922.44 666.782C923.747 666.558 924.811 666.446 925.632 666.446C926.678 666.446 927.368 666.52 927.704 666.67C928.04 666.819 928.208 666.968 928.208 667.118C928.208 667.23 928.19 667.323 928.152 667.398C927.219 667.398 926.024 667.435 924.568 667.51C923.112 667.584 921.694 667.827 920.312 668.238C918.968 668.648 917.811 669.283 916.84 670.142C915.87 670.963 915.384 672.139 915.384 673.67C915.72 672.288 916.28 671.206 917.064 670.422C917.886 669.6 918.819 669.003 919.864 668.63C920.91 668.219 921.974 667.976 923.056 667.902C924.176 667.79 925.184 667.734 926.08 667.734H927.984C927.835 667.883 927.76 668.032 927.76 668.182C927.76 668.331 927.835 668.462 927.984 668.574H930.168C930.766 668.686 931.195 668.891 931.456 669.19C931.718 669.451 931.848 669.694 931.848 669.918C931.848 670.254 931.68 670.552 931.344 670.814C931.008 671.075 930.448 671.336 929.664 671.598ZM920.256 685.15C921.302 685.56 922.366 685.878 923.448 686.102C924.568 686.326 925.67 686.475 926.752 686.55C927.835 686.662 928.843 686.718 929.776 686.718C929.03 686.643 928.283 686.512 927.536 686.326C926.752 686.139 926.062 685.971 925.464 685.822C924.83 685.672 924.195 685.579 923.56 685.542C922.963 685.467 922.328 685.374 921.656 685.262C921.022 685.15 920.368 684.982 919.696 684.758C919.024 684.496 918.352 684.123 917.68 683.638C918.39 684.272 919.248 684.776 920.256 685.15ZM920.816 679.27C920.779 679.232 920.891 679.344 921.152 679.606C921.376 679.83 921.675 679.998 922.048 680.11C921.862 680.035 921.582 679.942 921.208 679.83C920.798 679.68 920.592 679.456 920.592 679.158L920.816 679.27ZM922.216 680.11C922.179 680.11 922.123 680.11 922.048 680.11C922.086 680.11 922.142 680.11 922.216 680.11Z" fill="white"/>
</svg>
