<svg width="1000" height="1015" viewBox="0 0 1000 1015" fill="none" xmlns="http://www.w3.org/2000/svg">
<rect x="768" y="422" width="22" height="651" fill="#E40303" stroke="black" stroke-width="4"/>
<rect x="584" y="456.73" width="391" height="300" fill="white" stroke="black" stroke-width="8"/>
<rect x="584" y="456.73" width="20" height="300" fill="black" fill-opacity="0.25"/>
<path fill-rule="evenodd" clip-rule="evenodd" d="M749.534 536.589C749.36 536.657 749.187 536.721 749.014 536.78C741.934 539.214 735.158 543.337 729.684 548.127C728.719 548.971 727.52 549.601 725.408 550.578C725.263 550.646 725.11 550.715 724.953 550.788L724.953 550.788C723.082 551.647 720.409 552.875 717.962 554.778C713.123 558.541 709.641 563.965 707.159 567.83L706.913 568.214C702.552 574.997 697.899 582.371 695.109 591.171C692.845 598.31 693.279 607.876 694.086 613.925C694.557 617.459 695.24 621.097 696.206 624.72C693.621 625.464 691.012 626.275 688.42 627.195C684.541 628.571 680.461 630.225 676.574 631.801L676.573 631.801L676.573 631.801C674.301 632.722 672.096 633.616 670.035 634.412C666.363 635.83 664.536 639.957 665.955 643.629C667.374 647.3 671.5 649.127 675.172 647.708C677.731 646.719 680.126 645.746 682.457 644.799C686.063 643.334 689.515 641.931 693.187 640.628C695.838 639.688 698.545 638.864 701.333 638.082C701.562 638.518 701.798 638.951 702.04 639.381C704.56 643.862 707.454 648.821 711.107 653.286L711.255 653.468C712.497 654.986 713.914 656.718 715.495 658.489C714.592 661.969 713.609 665.457 712.605 669.019L712.605 669.019L712.605 669.02L712.605 669.02C711.649 672.413 710.674 675.873 709.731 679.457C708.729 683.263 711.003 687.161 714.81 688.163C718.616 689.165 722.514 686.891 723.516 683.084C724.322 680.019 725.216 676.846 726.129 673.603C726.598 671.936 727.072 670.251 727.543 668.553C732.086 670.947 736.576 671.82 740.369 672.558L740.369 672.558C740.808 672.643 741.237 672.726 741.656 672.81C742.693 673.018 743.546 673.263 744.645 673.58L744.645 673.58C745.228 673.748 745.881 673.936 746.668 674.149C748.67 674.69 751.206 675.277 754.106 675.277C756.696 675.277 759.38 675.584 762.497 675.979C762.739 676.009 762.983 676.04 763.23 676.072C766.039 676.43 769.23 676.837 772.449 676.942C777.382 677.104 782.492 676.661 787.126 675.946C789.296 675.611 791.504 675.373 793.906 675.114H793.906L794.088 675.094C796.501 674.834 799.111 674.55 801.73 674.128C810.053 672.785 817.685 668.024 823.858 662.974C823.875 663.014 823.892 663.054 823.908 663.094C826.873 670.176 829.304 677.612 831.795 685.231L831.795 685.232L831.796 685.233C832.482 687.332 833.172 689.444 833.88 691.566C835.125 695.301 839.161 697.319 842.895 696.074C846.629 694.829 848.647 690.793 847.403 687.059C846.756 685.118 846.105 683.128 845.445 681.105L845.444 681.104L845.444 681.103L845.444 681.103C842.931 673.412 840.266 665.257 837.057 657.59C836.324 655.84 835.509 654.131 834.684 652.494C839.637 646.506 843.242 639.566 846.192 633.666C846.303 633.446 846.414 633.224 846.526 633L846.542 632.968C849.202 627.657 852.358 621.353 853.767 614.311C856.046 602.915 856.417 591.806 854.001 580.272C862.252 577.446 870.38 574.407 878.419 571.401L880.29 570.701C881.723 570.165 883.055 569.56 884.181 569.04L884.634 568.831L884.635 568.83L884.635 568.83C885.523 568.42 886.273 568.073 887.026 567.758C887.066 567.748 887.115 567.735 887.167 567.721C887.301 567.686 887.515 567.628 887.758 567.55C888.548 567.299 891.24 566.381 892.729 563.403C894.489 559.882 893.062 555.601 889.541 553.841C887.194 552.667 884.508 552.911 882.457 554.247C882.274 554.308 882.075 554.381 881.868 554.466C880.713 554.938 879.584 555.461 878.625 555.905L878.62 555.907C878.479 555.972 878.342 556.036 878.209 556.097C877.103 556.608 876.191 557.016 875.299 557.349L873.471 558.033L873.47 558.033C865.484 561.019 857.622 563.959 849.672 566.688C847.643 562.255 844.845 557.827 841.038 554.456C836.953 550.84 832.62 547.816 828.129 545.122C824.521 542.957 820.82 540.983 817.208 539.144C815.452 538.25 813.589 537.504 812.08 536.9L812.074 536.897C811.822 536.796 811.58 536.699 811.35 536.606C809.583 535.892 808.281 535.318 807.186 534.653C805.829 533.829 804.357 533.211 802.898 532.742C802.667 532.621 802.427 532.512 802.178 532.414C796.671 530.262 791.016 528.771 785.166 528.207C783.767 524.77 782.388 521.328 781.036 517.876C780.505 516.521 779.926 515.158 779.382 513.879L779.328 513.75C778.791 512.488 778.285 511.299 777.811 510.109C776.868 507.742 776.18 505.682 775.83 503.814L775.829 503.793L775.828 503.777C775.826 503.735 775.823 503.675 775.821 503.621L775.82 503.616C775.818 503.573 775.811 503.429 775.797 503.272L775.797 503.267C775.793 503.224 775.767 502.918 775.698 502.552C775.676 502.436 775.635 502.229 775.565 501.975C775.516 501.797 775.355 501.224 775.003 500.554C774.829 500.221 774.456 499.569 773.8 498.895C773.155 498.233 771.798 497.108 769.693 496.809C765.017 496.146 762.771 499.882 762.602 500.164L762.596 500.173C762.106 500.982 761.899 501.7 761.845 501.887L761.844 501.891C761.759 502.183 761.711 502.421 761.687 502.547C761.639 502.803 761.615 503.008 761.606 503.089C761.594 503.192 761.586 503.285 761.581 503.356L761.58 503.361C761.569 503.43 761.551 503.536 761.524 503.671C761.497 503.803 761.468 503.936 761.44 504.054C761.41 504.178 761.391 504.25 761.386 504.267C758.311 515.031 754.015 525.782 749.534 536.589ZM767.819 529.383C768.554 529.207 769.305 529.042 770.07 528.893C769.718 528.014 769.367 527.135 769.018 526.255C768.622 527.301 768.222 528.344 767.819 529.383ZM775.621 542.457C775.018 542.525 774.414 542.607 773.809 542.704C771.212 543.119 768.818 543.841 765.788 544.754C765.461 544.852 765.127 544.953 764.784 545.056C763.641 545.399 762.438 545.994 760.662 546.948L760.261 547.909C756.138 557.798 752.393 567.382 749.755 577.328C749.409 578.63 749.064 579.938 748.717 581.251L748.717 581.252C746.621 589.193 744.479 597.306 741.981 605.322C741.453 607.014 740.954 608.706 740.477 610.401C742.489 609.609 744.508 608.808 746.542 608.001L746.542 608.001C748.313 607.298 750.094 606.592 751.89 605.883C757.585 603.637 763.337 601.616 768.967 599.655L770.386 599.161C775.561 597.36 780.621 595.599 785.618 593.695C788.882 592.452 792.131 591.185 795.37 589.893C791.525 580.222 787.481 570.606 783.394 560.932L782.33 558.413L782.329 558.412C780.091 553.116 777.844 547.798 775.621 542.457ZM792.295 545.368C793.351 547.876 794.412 550.387 795.475 552.902L796.524 555.385C800.586 564.998 804.66 574.683 808.555 584.475C810.891 583.488 813.224 582.488 815.554 581.474C818.739 580.09 822.139 578.478 825.668 576.805L825.668 576.804L825.668 576.804C829.132 575.162 832.72 573.461 836.351 571.858C835.015 569.11 833.411 566.741 831.59 565.129C828.304 562.22 824.719 559.699 820.796 557.345C817.581 555.416 814.201 553.608 810.741 551.847C809.603 551.267 808.414 550.79 806.885 550.175L806.874 550.17C806.596 550.059 806.307 549.943 806.006 549.821C804.194 549.088 801.952 548.152 799.788 546.838C799.264 546.519 798.059 546.074 796.109 545.75C794.85 545.541 793.527 545.422 792.295 545.368ZM840.506 585.601C838 586.738 835.493 587.931 832.928 589.152C829.21 590.922 825.37 592.75 821.237 594.546C818.723 595.64 816.204 596.719 813.681 597.783C815.984 604.045 818.119 610.327 820.218 616.52L820.509 617.38C822.857 624.312 825.166 631.127 827.666 637.86C829.707 634.606 831.576 631.025 833.443 627.291C836.364 621.449 838.762 616.652 839.79 611.515C841.584 602.544 841.955 594.137 840.506 585.601ZM817.274 649.844C816.406 648.057 815.563 646.179 814.829 644.227C812.047 636.829 809.519 629.365 807.034 622.028L807.034 622.028L806.717 621.094C804.669 615.047 802.641 609.086 800.485 603.198C797.234 604.494 793.971 605.767 790.693 607.016C785.492 608.997 780.238 610.825 775.099 612.614L775.097 612.614L775.097 612.614L773.655 613.116C768.018 615.079 762.515 617.015 757.121 619.143C755.388 619.826 753.651 620.516 751.91 621.207L751.886 621.216L751.886 621.216L751.884 621.217C746.774 623.245 741.624 625.288 736.405 627.258C735.156 633.207 734.037 639.243 732.889 645.432L732.889 645.432C732.626 646.848 732.362 648.272 732.095 649.704C731.83 651.125 731.54 652.548 731.231 653.971C731.901 654.505 732.578 654.988 733.264 655.413C736.1 657.171 738.789 657.706 743.485 658.64C743.798 658.703 744.12 658.767 744.452 658.833C746.09 659.161 747.852 659.666 749.195 660.051L749.195 660.051C749.649 660.182 750.055 660.298 750.392 660.389C751.993 660.823 753.094 661.022 754.106 661.022C757.706 661.022 761.213 661.448 764.288 661.838L764.901 661.915C767.85 662.29 770.397 662.613 772.916 662.696C776.743 662.821 780.94 662.477 784.952 661.858C787.452 661.473 789.949 661.204 792.26 660.955L792.56 660.922C795.012 660.658 797.264 660.409 799.46 660.055C805.312 659.111 811.543 654.947 817.274 649.844ZM719.317 640.438C719.791 637.883 720.27 635.322 720.765 632.756C719.02 633.298 717.272 633.804 715.538 634.285C716.785 636.459 718.022 638.516 719.317 640.438ZM709.974 621.029C712.98 620.218 715.896 619.383 718.767 618.426C720.582 617.821 722.386 617.198 724.181 616.561C725.395 611.407 726.763 606.243 728.372 601.08C730.77 593.389 732.822 585.615 734.923 577.658L734.923 577.658L734.923 577.658L734.926 577.648C735.274 576.328 735.624 575.003 735.977 573.673C737.491 567.968 739.32 562.429 741.317 557.012C740.544 557.607 739.793 558.222 739.07 558.854C736.388 561.201 733.448 562.565 731.392 563.516C729.098 564.577 727.82 565.169 726.713 566.03C723.988 568.149 721.701 571.568 718.903 575.922C714.486 582.793 710.843 588.709 708.696 595.479C707.411 599.534 707.479 606.527 708.215 612.042C708.622 615.096 709.198 618.117 709.974 621.029ZM886.858 567.802L886.869 567.799C886.86 567.801 886.855 567.802 886.855 567.802C886.855 567.802 886.856 567.802 886.858 567.802Z" fill="#FA0909"/>
</svg>
