<svg width="1000" height="1000" viewBox="0 0 1000 1000" fill="none" xmlns="http://www.w3.org/2000/svg">
<g clip-path="url(#clip0_964_30867)">
<mask id="path-1-outside-1_964_30867" maskUnits="userSpaceOnUse" x="319.637" y="574.598" width="354" height="353" fill="black">
<rect fill="white" x="319.637" y="574.598" width="354" height="353"/>
<path fill-rule="evenodd" clip-rule="evenodd" d="M664.246 744.685C664.246 772.43 656.939 798.536 644.073 821.328C642.455 824.193 642.718 827.726 644.036 830.741C646.461 836.286 647.344 843.456 646.122 851.026C645.069 857.552 642.62 863.338 639.364 867.743C638.129 869.414 637.395 871.424 637.395 873.502V873.502C637.395 885.087 633.388 894.478 628.446 894.478C623.93 894.478 620.196 886.641 619.584 876.453C619.547 875.845 619.197 875.321 618.658 875.038V875.038C617.271 874.311 614.983 875.456 615.014 877.021C615.019 877.281 615.021 877.542 615.021 877.804C615.021 893.548 605.63 906.31 594.046 906.31C587.529 906.31 581.705 902.271 577.858 895.934C575.384 891.857 570.298 889.445 565.928 891.356V891.356C563.639 892.357 561.988 894.406 561.218 896.783C557.179 909.258 546.73 918.144 534.476 918.144C526.758 918.144 519.756 914.619 514.62 908.892C512.659 906.704 509.891 905.288 506.958 905.462C503.48 905.668 499.973 905.773 496.441 905.773C481.485 905.773 466.986 903.895 453.186 900.371C448.286 899.119 443.203 902.734 439.705 906.388C436.898 909.319 432.908 911.151 428.48 911.151C421.332 911.151 415.323 906.378 413.597 899.91C413.167 898.299 411.411 897.167 409.744 897.167V897.167C404.183 897.167 399.676 891.99 399.676 885.603C399.676 883.401 400.212 881.343 401.142 879.591C401.628 878.674 401.436 877.49 400.573 876.913V876.913C399.567 876.239 398.185 876.73 397.624 877.804C395.77 881.347 392.372 883.721 388.487 883.721C382.618 883.721 377.859 878.303 377.859 871.619C377.859 868.494 378.9 865.646 380.607 863.498C381.168 862.793 381.165 861.75 380.501 861.14V861.14C379.653 860.362 378.269 860.739 377.882 861.823C374.974 869.985 370.013 875.361 364.381 875.361C355.423 875.361 348.16 861.756 348.16 844.973C348.16 839.534 348.923 834.428 350.259 830.012C351.005 827.545 350.836 824.854 349.549 822.622C336.223 799.527 328.637 772.957 328.637 744.685C328.637 655.719 403.765 583.598 496.441 583.598C589.117 583.598 664.246 655.719 664.246 744.685Z"/>
</mask>
<path fill-rule="evenodd" clip-rule="evenodd" d="M664.246 744.685C664.246 772.43 656.939 798.536 644.073 821.328C642.455 824.193 642.718 827.726 644.036 830.741C646.461 836.286 647.344 843.456 646.122 851.026C645.069 857.552 642.62 863.338 639.364 867.743C638.129 869.414 637.395 871.424 637.395 873.502V873.502C637.395 885.087 633.388 894.478 628.446 894.478C623.93 894.478 620.196 886.641 619.584 876.453C619.547 875.845 619.197 875.321 618.658 875.038V875.038C617.271 874.311 614.983 875.456 615.014 877.021C615.019 877.281 615.021 877.542 615.021 877.804C615.021 893.548 605.63 906.31 594.046 906.31C587.529 906.31 581.705 902.271 577.858 895.934C575.384 891.857 570.298 889.445 565.928 891.356V891.356C563.639 892.357 561.988 894.406 561.218 896.783C557.179 909.258 546.73 918.144 534.476 918.144C526.758 918.144 519.756 914.619 514.62 908.892C512.659 906.704 509.891 905.288 506.958 905.462C503.48 905.668 499.973 905.773 496.441 905.773C481.485 905.773 466.986 903.895 453.186 900.371C448.286 899.119 443.203 902.734 439.705 906.388C436.898 909.319 432.908 911.151 428.48 911.151C421.332 911.151 415.323 906.378 413.597 899.91C413.167 898.299 411.411 897.167 409.744 897.167V897.167C404.183 897.167 399.676 891.99 399.676 885.603C399.676 883.401 400.212 881.343 401.142 879.591C401.628 878.674 401.436 877.49 400.573 876.913V876.913C399.567 876.239 398.185 876.73 397.624 877.804C395.77 881.347 392.372 883.721 388.487 883.721C382.618 883.721 377.859 878.303 377.859 871.619C377.859 868.494 378.9 865.646 380.607 863.498C381.168 862.793 381.165 861.75 380.501 861.14V861.14C379.653 860.362 378.269 860.739 377.882 861.823C374.974 869.985 370.013 875.361 364.381 875.361C355.423 875.361 348.16 861.756 348.16 844.973C348.16 839.534 348.923 834.428 350.259 830.012C351.005 827.545 350.836 824.854 349.549 822.622C336.223 799.527 328.637 772.957 328.637 744.685C328.637 655.719 403.765 583.598 496.441 583.598C589.117 583.598 664.246 655.719 664.246 744.685Z" fill="#FFC700"/>
<path d="M646.122 851.026L637.237 849.593H637.237L646.122 851.026ZM350.259 830.012L341.645 827.406L350.259 830.012ZM349.549 822.622L357.344 818.124L349.549 822.622ZM377.882 861.823L369.404 858.802L377.882 861.823ZM380.607 863.498L387.651 869.101L380.607 863.498ZM401.142 879.591L409.091 883.811L401.142 879.591ZM453.186 900.371L450.959 909.091L453.186 900.371ZM439.705 906.388L433.204 900.164L439.705 906.388ZM514.62 908.892L507.92 914.901L514.62 908.892ZM506.958 905.462L506.425 896.478L506.958 905.462ZM615.014 877.021L624.012 876.842L615.014 877.021ZM413.597 899.91L422.292 897.589L413.597 899.91ZM619.584 876.453L628.568 875.913L619.584 876.453ZM639.364 867.743L632.126 862.394L639.364 867.743ZM397.624 877.804L405.599 881.975L397.624 877.804ZM577.858 895.934L570.165 900.604L577.858 895.934ZM561.218 896.783L552.656 894.01L561.218 896.783ZM644.073 821.328L636.235 816.903L644.073 821.328ZM644.036 830.741L652.282 827.135L644.036 830.741ZM651.91 825.752C665.512 801.658 673.246 774.034 673.246 744.685H655.246C655.246 770.826 648.366 795.414 636.235 816.903L651.91 825.752ZM655.007 852.46C656.466 843.417 655.488 834.468 652.282 827.135L635.79 834.346C637.433 838.104 638.221 843.495 637.237 849.593L655.007 852.46ZM646.602 873.092C650.782 867.437 653.745 860.281 655.007 852.46L637.237 849.593C636.393 854.822 634.457 859.24 632.126 862.394L646.602 873.092ZM628.446 903.478C632.739 903.478 636.067 901.4 638.266 899.221C640.426 897.079 641.959 894.429 643.052 891.866C645.253 886.708 646.395 880.209 646.395 873.502H628.395C628.395 878.379 627.534 882.369 626.496 884.802C625.97 886.036 625.574 886.457 625.593 886.438C625.65 886.382 626.623 885.478 628.446 885.478V903.478ZM610.6 876.993C610.956 882.917 612.232 888.654 614.46 893.227C616.324 897.055 620.643 903.478 628.446 903.478V885.478C630.097 885.478 631.07 886.231 631.258 886.401C631.392 886.521 631.106 886.297 630.642 885.345C629.721 883.453 628.824 880.177 628.568 875.913L610.6 876.993ZM606.015 877.199C606.019 877.4 606.021 877.602 606.021 877.804H624.021C624.021 877.483 624.018 877.162 624.012 876.842L606.015 877.199ZM606.021 877.804C606.021 883.957 604.174 889.168 601.629 892.627C599.081 896.09 596.296 897.31 594.046 897.31V915.31C603.381 915.31 611.084 910.149 616.127 903.295C621.173 896.437 624.021 887.395 624.021 877.804H606.021ZM594.046 897.31C591.543 897.31 588.276 895.751 585.552 891.263L570.165 900.604C575.135 908.791 583.514 915.31 594.046 915.31V897.31ZM534.476 927.144C551.403 927.144 564.795 914.953 569.78 899.555L552.656 894.01C549.563 903.562 542.057 909.144 534.476 909.144V927.144ZM507.92 914.901C514.545 922.288 523.892 927.144 534.476 927.144V909.144C529.624 909.144 524.967 906.949 521.321 902.883L507.92 914.901ZM496.441 914.773C500.151 914.773 503.836 914.663 507.491 914.446L506.425 896.478C503.124 896.674 499.795 896.773 496.441 896.773V914.773ZM450.959 909.091C465.483 912.8 480.73 914.773 496.441 914.773V896.773C482.241 896.773 468.49 894.99 455.413 891.65L450.959 909.091ZM428.48 920.151C435.432 920.151 441.751 917.265 446.206 912.611L433.204 900.164C432.046 901.373 430.383 902.151 428.48 902.151V920.151ZM404.901 902.231C407.683 912.652 417.27 920.151 428.48 920.151V902.151C425.394 902.151 422.963 900.104 422.292 897.589L404.901 902.231ZM390.676 885.603C390.676 895.749 398.083 906.167 409.744 906.167V888.167C409.887 888.167 409.748 888.255 409.412 887.87C409.062 887.467 408.676 886.693 408.676 885.603H390.676ZM393.193 875.37C391.567 878.432 390.676 881.94 390.676 885.603H408.676C408.676 884.861 408.856 884.254 409.091 883.811L393.193 875.37ZM388.487 892.721C396.264 892.721 402.461 887.974 405.599 881.975L389.649 873.632C389.38 874.147 389.067 874.443 388.852 874.585C388.66 874.712 388.55 874.721 388.487 874.721V892.721ZM368.859 871.619C368.859 882.14 376.584 892.721 388.487 892.721V874.721C388.447 874.721 388.161 874.723 387.735 874.238C387.293 873.735 386.859 872.836 386.859 871.619H368.859ZM373.564 857.896C370.562 861.67 368.859 866.503 368.859 871.619H386.859C386.859 870.485 387.237 869.622 387.651 869.101L373.564 857.896ZM364.381 884.361C370.265 884.361 375.101 881.517 378.593 877.939C382.05 874.398 384.604 869.772 386.36 864.844L369.404 858.802C368.252 862.036 366.871 864.179 365.712 865.366C364.589 866.517 364.129 866.361 364.381 866.361V884.361ZM339.16 844.973C339.16 854.544 341.212 863.655 344.972 870.699C348.526 877.358 354.964 884.361 364.381 884.361V866.361C364.84 866.361 363.167 866.562 360.851 862.222C358.74 858.268 357.16 852.185 357.16 844.973H339.16ZM341.645 827.406C340.035 832.727 339.16 838.715 339.16 844.973H357.16C357.16 840.352 357.811 836.13 358.874 832.618L341.645 827.406ZM319.637 744.685C319.637 774.592 327.667 802.706 341.753 827.12L357.344 818.124C344.779 796.347 337.637 771.321 337.637 744.685H319.637ZM496.441 574.598C399.145 574.598 319.637 650.406 319.637 744.685H337.637C337.637 661.033 408.386 592.598 496.441 592.598V574.598ZM673.246 744.685C673.246 650.406 593.738 574.598 496.441 574.598V592.598C584.496 592.598 655.246 661.033 655.246 744.685H673.246ZM358.874 832.618C360.231 828.13 360.05 822.814 357.344 818.124L341.753 827.12C341.693 827.016 341.696 826.962 341.701 827.011C341.706 827.07 341.704 827.21 341.645 827.406L358.874 832.618ZM386.586 854.51C380.738 849.142 371.837 851.975 369.404 858.802L386.36 864.844C384.7 869.502 378.567 871.581 374.416 867.771L386.586 854.51ZM387.651 869.101C390.673 865.301 391.271 858.809 386.586 854.51L374.416 867.771C371.058 864.69 371.664 860.285 373.564 857.896L387.651 869.101ZM409.091 883.811C411.34 879.576 410.952 873.031 405.58 869.434L395.567 884.392C391.919 881.95 391.917 877.772 393.193 875.37L409.091 883.811ZM455.413 891.65C450.091 890.291 445.266 891.74 441.775 893.551C438.281 895.364 435.359 897.913 433.204 900.164L446.206 912.611C447.549 911.209 448.917 910.124 450.065 909.528C451.214 908.932 451.381 909.198 450.959 909.091L455.413 891.65ZM521.321 902.883C517.944 899.118 512.664 896.107 506.425 896.478L507.491 914.446C507.322 914.456 507.268 914.41 507.361 914.453C507.471 914.504 507.685 914.638 507.92 914.901L521.321 902.883ZM622.837 867.067C618.726 864.911 614.56 865.915 612.107 867.208C609.703 868.476 605.907 871.719 606.015 877.199L624.012 876.842C624.09 880.757 621.423 882.646 620.501 883.131C619.531 883.643 617.203 884.437 614.478 883.009L622.837 867.067ZM422.292 897.589C420.621 891.329 414.703 888.167 409.744 888.167V906.167C408.618 906.167 407.708 905.816 407.017 905.338C406.323 904.858 405.341 903.881 404.901 902.231L422.292 897.589ZM628.568 875.913C628.335 872.044 626.067 868.761 622.837 867.067L614.478 883.009C612.327 881.881 610.76 879.646 610.6 876.993L628.568 875.913ZM632.126 862.394C629.875 865.44 628.395 869.294 628.395 873.502H646.395C646.395 873.527 646.391 873.503 646.417 873.427C646.444 873.348 646.5 873.23 646.602 873.092L632.126 862.394ZM405.58 869.434C399.261 865.205 392.185 868.784 389.649 873.632L405.599 881.975C404.75 883.597 403.321 884.75 401.667 885.277C399.947 885.826 397.632 885.775 395.567 884.392L405.58 869.434ZM585.552 891.263C581.459 884.521 571.979 878.887 562.322 883.11L569.534 899.602C569.378 899.67 569.221 899.692 569.119 899.69C569.035 899.689 569.058 899.673 569.184 899.725C569.312 899.777 569.494 899.879 569.69 900.048C569.885 900.216 570.048 900.411 570.165 900.604L585.552 891.263ZM562.322 883.11C557.316 885.299 554.09 889.582 552.656 894.01L569.78 899.555C569.8 899.496 569.821 899.45 569.838 899.418C569.856 899.387 569.865 899.377 569.857 899.386C569.84 899.407 569.741 899.512 569.534 899.602L562.322 883.11ZM636.235 816.903C632.807 822.975 633.73 829.636 635.79 834.346L652.282 827.135C652.038 826.576 651.957 826.107 651.952 825.821C651.947 825.561 652.002 825.589 651.91 825.752L636.235 816.903Z" fill="#090909" mask="url(#path-1-outside-1_964_30867)"/>
<path d="M334.383 750.27C334.383 660.759 408.49 588.195 499.906 588.195" stroke="white" stroke-opacity="0.25" stroke-width="15" stroke-linecap="round"/>
<path fill-rule="evenodd" clip-rule="evenodd" d="M565.99 891.486C565.94 891.426 565.856 891.406 565.784 891.438C565.759 891.45 565.733 891.461 565.708 891.472C565.64 891.503 565.587 891.56 565.559 891.63C565.126 892.734 564.367 893.906 563.263 895.321C562.306 896.547 561.687 897.996 561.35 899.515C560.738 902.264 559.658 904.905 558.148 907.327C556.213 910.432 553.615 913.109 550.525 915.183C547.435 917.257 543.923 918.68 540.22 919.36C536.516 920.039 532.705 919.96 529.035 919.126C525.366 918.293 521.922 916.724 518.929 914.523C515.936 912.322 513.462 909.539 511.67 906.356V906.356C511.514 906.08 511.213 905.917 510.897 905.946C506.083 906.377 501.235 906.598 496.364 906.598C481.406 906.598 466.89 904.537 453.065 900.767C448.182 899.435 443.033 902.967 439.474 906.566C436.677 909.394 432.759 911.152 428.421 911.152C421.324 911.152 415.35 906.447 413.575 900.049C413.098 898.329 411.196 897.107 409.41 897.107V897.107C403.695 897.107 399.062 891.864 399.062 885.398V885.398C399.062 884.389 397.393 883.391 396.504 883.867C394.679 884.844 392.6 885.397 390.395 885.397C383.135 885.397 377.25 879.406 377.25 872.016V872.016C377.25 871.837 377.04 871.734 376.9 871.845C373.754 874.32 369.976 875.667 367.751 875.876C367.372 875.911 366.99 875.956 366.616 876.026C355.412 878.128 346.484 860.872 346.484 846.014C346.484 842.332 346.61 839.373 346.947 837.002C347.715 831.608 349.768 823.899 347.048 819.177C337.081 801.877 330.67 783.293 328.705 764.687C328.296 760.82 333.006 759.163 335.351 762.265V762.265C335.707 762.735 335.959 763.296 336.086 763.871C369.653 915.657 566.197 923.735 650.325 763.512C654.236 756.061 664.711 758.031 663.589 766.371C660.932 786.117 654.193 804.794 644.299 821.692C642.641 824.523 642.841 828.047 644.115 831.071C646.432 836.569 647.257 843.605 646.06 851.026C645.007 857.548 642.56 863.332 639.307 867.736C638.071 869.409 637.337 871.422 637.337 873.502V873.502C637.337 885.087 633.33 894.478 628.387 894.478C623.871 894.478 620.136 886.637 619.525 876.446C619.489 875.843 619.142 875.324 618.607 875.044V875.044C617.226 874.322 614.927 875.481 614.961 877.039C614.967 877.315 614.97 877.592 614.97 877.87C614.97 893.729 605.078 906.586 592.876 906.586C586.598 906.586 583.448 903.486 579.927 900.021C576.614 896.76 572.972 893.175 566.084 891.545C566.048 891.536 566.014 891.515 565.99 891.486V891.486Z" fill="black" fill-opacity="0.25"/>
<g filter="url(#filter0_d_964_30867)">
<path d="M387.932 786.501C405.907 786.501 420.478 771.929 420.478 753.955C420.478 735.98 405.907 721.409 387.932 721.409C369.958 721.409 355.387 735.98 355.387 753.955C355.387 771.929 369.958 786.501 387.932 786.501Z" fill="#E40303"/>
</g>
<g filter="url(#filter1_d_964_30867)">
<path d="M412.343 768.601C432.115 768.601 448.144 752.572 448.144 732.8C448.144 713.028 432.115 697 412.343 697C392.571 697 376.543 713.028 376.543 732.8C376.543 752.572 392.571 768.601 412.343 768.601Z" fill="black"/>
</g>
<path d="M398.918 736.055C406.782 736.055 413.157 729.68 413.157 721.816C413.157 713.952 406.782 707.577 398.918 707.577C391.055 707.577 384.68 713.952 384.68 721.816C384.68 729.68 391.055 736.055 398.918 736.055Z" fill="white"/>
<path d="M424.274 710.177C424.873 708.335 427.48 708.335 428.078 710.177L428.285 710.812C428.552 711.636 429.32 712.194 430.187 712.194H430.854C432.792 712.194 433.597 714.673 432.03 715.812L431.49 716.205C430.789 716.714 430.495 717.617 430.763 718.441L430.97 719.076C431.568 720.918 429.459 722.451 427.892 721.312L427.352 720.919C426.651 720.41 425.702 720.41 425.001 720.919L424.46 721.312C422.893 722.451 420.784 720.918 421.383 719.076L421.589 718.441C421.857 717.617 421.564 716.714 420.863 716.205L420.322 715.812C418.755 714.673 419.561 712.194 421.498 712.194H422.166C423.032 712.194 423.8 711.636 424.068 710.812L424.274 710.177Z" fill="white"/>
<path d="M440.007 732.801C440.007 748.079 427.622 760.465 412.344 760.465C397.065 760.465 384.68 748.079 384.68 732.801" stroke="white" stroke-opacity="0.25" stroke-width="10" stroke-linecap="round"/>
<g filter="url(#filter2_d_964_30867)">
<path d="M531.139 784.873C549.114 784.873 563.685 770.666 563.685 753.141C563.685 735.616 549.114 721.409 531.139 721.409C513.165 721.409 498.594 735.616 498.594 753.141C498.594 770.666 513.165 784.873 531.139 784.873Z" fill="#E40303"/>
</g>
<g filter="url(#filter3_d_964_30867)">
<path d="M509.984 768.601C529.756 768.601 545.784 752.572 545.784 732.8C545.784 713.028 529.756 697 509.984 697C490.212 697 474.184 713.028 474.184 732.8C474.184 752.572 490.212 768.601 509.984 768.601Z" fill="black"/>
</g>
<path d="M537.648 732.801C537.648 748.079 525.263 760.465 509.984 760.465C494.706 760.465 482.32 748.079 482.32 732.801" stroke="white" stroke-opacity="0.25" stroke-width="10" stroke-linecap="round"/>
<path d="M496.559 736.055C504.423 736.055 510.798 729.68 510.798 721.816C510.798 713.952 504.423 707.577 496.559 707.577C488.695 707.577 482.32 713.952 482.32 721.816C482.32 729.68 488.695 736.055 496.559 736.055Z" fill="white"/>
<path d="M521.915 710.177C522.513 708.335 525.12 708.335 525.719 710.177L525.925 710.812C526.193 711.636 526.961 712.194 527.827 712.194H528.495C530.432 712.194 531.238 714.673 529.67 715.812L529.13 716.205C528.429 716.714 528.136 717.617 528.404 718.441L528.61 719.076C529.209 720.918 527.1 722.451 525.532 721.312L524.992 720.919C524.291 720.41 523.342 720.41 522.641 720.919L522.101 721.312C520.534 722.451 518.425 720.918 519.023 719.076L519.23 718.441C519.497 717.617 519.204 716.714 518.503 716.205L517.963 715.812C516.396 714.673 517.201 712.194 519.139 712.194H519.806C520.673 712.194 521.441 711.636 521.708 710.812L521.915 710.177Z" fill="white"/>
<g filter="url(#filter4_i_964_30867)">
<path d="M450.274 772.709C380.783 775.136 387.572 837.479 310.687 772.709C264.698 762 264.151 804.5 295.031 895.303C344.912 974.963 327.868 1059.64 344.915 1091.42C386.467 1198.5 510.205 1214.77 625.07 1117C683.553 1030.47 636.405 1015.32 677.727 916.5C734.772 816.5 738.614 756.677 694.183 772.709C541.83 827.681 563.706 768.747 450.274 772.709Z" fill="#F72087"/>
</g>
<path d="M450.274 772.709C380.783 775.136 387.572 837.479 310.687 772.709C264.698 762 264.151 804.5 295.031 895.303C344.912 974.963 327.868 1059.64 344.915 1091.42C386.467 1198.5 510.205 1214.77 625.07 1117C683.553 1030.47 636.405 1015.32 677.727 916.5C734.772 816.5 738.614 756.677 694.183 772.709C541.83 827.681 563.706 768.747 450.274 772.709Z" stroke="black" stroke-width="6" stroke-linecap="round"/>
<path d="M306.634 792.231C317.537 812.564 349.347 851.877 357.892 860.164C370.741 872.624 449.579 905.885 447.084 908.921C451.031 910.764 452.965 911.913 451.717 911.977C437.693 912.693 384.633 884.48 364.68 875.18C344.902 865.961 323.621 832.706 321.003 829.494C316.587 824.075 303.894 794.655 303.537 791.827C302.161 780.909 305.709 791.187 306.634 792.231Z" fill="black" fill-opacity="0.5"/>
<path d="M361.777 829.621C383.36 830.939 448.683 807.808 454.924 808.189C474.342 809.375 563.677 828.24 625.982 834.474C639.513 835.827 476.273 789.652 455.724 790.422C440.741 790.983 348.392 828.804 361.777 829.621Z" fill="black" fill-opacity="0.25"/>
<path d="M377.598 817.532C404.334 813.084 449.795 795.315 456.036 795.696C475.454 796.882 532.118 806.21 595.651 821.171C608.964 824.306 475.23 786.03 454.681 786.8C439.698 787.362 364.33 819.739 377.598 817.532Z" fill="black" fill-opacity="0.25"/>
<path d="M376.544 816.319C407.631 801.838 424.814 794.077 446.745 788.293C451.976 786.913 457.362 786.461 462.617 787.195C478.013 789.344 503.391 795.061 534.875 804.188C540.766 805.896 563.151 809.725 596.706 820.799C605.259 823.622 506.548 784.521 478.279 779.151C460.459 775.766 451.639 776.257 432.233 782.539C413.437 788.623 370.024 819.356 376.544 816.319Z" fill="white" fill-opacity="0.25"/>
<path d="M490.828 1038.51C473.753 1023.09 425.978 1002.14 421.04 997.683C405.678 983.812 361.741 936.943 313.577 890.521C303.117 880.438 394.947 998.074 412.142 1011.16C424.681 1020.7 501.417 1048.07 490.828 1038.51Z" fill="black" fill-opacity="0.25"/>
<path d="M490.667 1039.21C466.695 1024.91 421.2 1008.63 416.263 1004.17C400.901 990.298 358.795 945.193 313.673 891.071C304.219 879.731 396.05 999.002 413.246 1012.08C425.784 1021.62 502.564 1046.31 490.667 1039.21Z" fill="black" fill-opacity="0.25"/>
<path d="M490.965 1040.87C458.136 1031.39 440.399 1026.03 419.209 1015.59C415.099 1013.56 411.241 1010.87 407.866 1007.44C396.298 995.7 377.752 973.889 355.594 944.944C351.56 939.673 334.992 921.741 312.633 890.656C306.934 882.732 369.684 979.32 390.357 1002.39C403.389 1016.93 413.833 1032.88 432.65 1040.86C450.874 1048.58 497.717 1042.81 490.965 1040.87Z" fill="white" fill-opacity="0.25"/>
<path d="M303.886 794.254C303.886 798.297 318.795 845.007 335.535 858.144C339.794 861.486 356.366 877.41 374.318 888.498C383.424 894.123 391.889 899.037 397.271 901.51C415.26 909.772 453.304 913.823 446.905 911.574C410.095 898.634 400.555 892.515 387.826 886.045C364.089 873.98 361.832 875.658 353.768 868.253C344.484 859.728 322.118 837.116 310.078 808.406C307.525 803.298 303.885 791.665 303.886 794.254Z" fill="white" fill-opacity="0.25"/>
<path d="M619.584 867.595C630.203 863.881 685.396 810.832 699.157 793.444C712.917 776.057 707.517 773.896 711.541 775.248C716.357 776.866 688.78 815.117 684.364 820.537C681.746 823.749 634.479 868.141 614.423 876.491C594.368 884.84 505.633 891.359 491.609 890.643C477.585 889.927 503.153 886.5 528.076 886.195C552.998 885.891 608.966 871.308 619.584 867.595Z" fill="black" fill-opacity="0.5"/>
<path d="M488.141 891.921C499.837 891.921 603.529 885.686 619.698 873.555C620.959 872.814 652.38 850.506 681.966 821.796C710.519 789.447 712.546 765.772 710.175 787.021C707.423 811.687 660.755 860.841 641.917 869.277C634.692 872.512 608.932 890.058 591.888 892.633C572.718 895.529 481.183 891.921 488.141 891.921Z" fill="white" fill-opacity="0.25"/>
<path d="M592.448 867.719C603.066 864.006 675.072 807.597 691.585 792.636C708.099 777.674 707.171 773.897 711.195 775.248C716.011 776.866 689.029 815.172 684.612 820.591C681.995 823.804 634.832 868.853 614.777 877.202C594.721 885.552 505.987 892.071 491.962 891.355C477.938 890.639 505.914 882.167 530.837 881.862C555.759 881.557 581.83 871.432 592.448 867.719Z" fill="black" fill-opacity="0.25"/>
<path d="M303.882 783.739C308.211 786.762 335.949 828.395 353.258 851.442C359.86 860.234 368.729 866.838 378.527 871.827C400.675 883.103 409.211 887.511 423.533 893.077C436.582 898.148 459.722 901.409 456.282 904.239C445.273 906.261 430.56 904.74 414.656 898.982C396.957 892.575 380.185 880.66 371.54 877.135C328.631 859.638 298.871 780.24 303.882 783.739Z" fill="black" fill-opacity="0.25"/>
<g filter="url(#filter5_f_964_30867)">
<path d="M307.105 898.029C327.747 925.93 345.292 985.824 426.824 1044.05C551.36 1065.48 596.178 977.612 590.922 988.654C574.753 1022.62 590.922 1143.18 438.147 1143.18C351.609 1143.18 344.574 1062.71 344.574 1006.5C329.123 946.706 287.445 871.454 307.105 898.029Z" fill="black" fill-opacity="0.25"/>
</g>
<g filter="url(#filter6_f_964_30867)">
<path d="M544.804 921.999C533.381 919.041 524.147 1015.31 533.759 1019.44L579.856 986.283L662.419 860.931C637.36 885.292 580.546 931.257 544.804 921.999Z" fill="black" fill-opacity="0.25"/>
</g>
</g>
<defs>
<filter id="filter0_d_964_30867" x="350.387" y="721.409" width="73.0898" height="76.0918" filterUnits="userSpaceOnUse" color-interpolation-filters="sRGB">
<feFlood flood-opacity="0" result="BackgroundImageFix"/>
<feColorMatrix in="SourceAlpha" type="matrix" values="0 0 0 0 0 0 0 0 0 0 0 0 0 0 0 0 0 0 127 0" result="hardAlpha"/>
<feOffset dx="-1" dy="7"/>
<feGaussianBlur stdDeviation="2"/>
<feComposite in2="hardAlpha" operator="out"/>
<feColorMatrix type="matrix" values="0 0 0 0 0 0 0 0 0 0 0 0 0 0 0 0 0 0 0.25 0"/>
<feBlend mode="normal" in2="BackgroundImageFix" result="effect1_dropShadow_964_30867"/>
<feBlend mode="normal" in="SourceGraphic" in2="effect1_dropShadow_964_30867" result="shape"/>
</filter>
<filter id="filter1_d_964_30867" x="371.543" y="697" width="79.6016" height="82.6006" filterUnits="userSpaceOnUse" color-interpolation-filters="sRGB">
<feFlood flood-opacity="0" result="BackgroundImageFix"/>
<feColorMatrix in="SourceAlpha" type="matrix" values="0 0 0 0 0 0 0 0 0 0 0 0 0 0 0 0 0 0 127 0" result="hardAlpha"/>
<feOffset dx="-1" dy="7"/>
<feGaussianBlur stdDeviation="2"/>
<feComposite in2="hardAlpha" operator="out"/>
<feColorMatrix type="matrix" values="0 0 0 0 0 0 0 0 0 0 0 0 0 0 0 0 0 0 0.25 0"/>
<feBlend mode="normal" in2="BackgroundImageFix" result="effect1_dropShadow_964_30867"/>
<feBlend mode="normal" in="SourceGraphic" in2="effect1_dropShadow_964_30867" result="shape"/>
</filter>
<filter id="filter2_d_964_30867" x="493.594" y="721.409" width="73.0898" height="74.4639" filterUnits="userSpaceOnUse" color-interpolation-filters="sRGB">
<feFlood flood-opacity="0" result="BackgroundImageFix"/>
<feColorMatrix in="SourceAlpha" type="matrix" values="0 0 0 0 0 0 0 0 0 0 0 0 0 0 0 0 0 0 127 0" result="hardAlpha"/>
<feOffset dx="-1" dy="7"/>
<feGaussianBlur stdDeviation="2"/>
<feComposite in2="hardAlpha" operator="out"/>
<feColorMatrix type="matrix" values="0 0 0 0 0 0 0 0 0 0 0 0 0 0 0 0 0 0 0.25 0"/>
<feBlend mode="normal" in2="BackgroundImageFix" result="effect1_dropShadow_964_30867"/>
<feBlend mode="normal" in="SourceGraphic" in2="effect1_dropShadow_964_30867" result="shape"/>
</filter>
<filter id="filter3_d_964_30867" x="469.184" y="697" width="79.6016" height="82.6006" filterUnits="userSpaceOnUse" color-interpolation-filters="sRGB">
<feFlood flood-opacity="0" result="BackgroundImageFix"/>
<feColorMatrix in="SourceAlpha" type="matrix" values="0 0 0 0 0 0 0 0 0 0 0 0 0 0 0 0 0 0 127 0" result="hardAlpha"/>
<feOffset dx="-1" dy="7"/>
<feGaussianBlur stdDeviation="2"/>
<feComposite in2="hardAlpha" operator="out"/>
<feColorMatrix type="matrix" values="0 0 0 0 0 0 0 0 0 0 0 0 0 0 0 0 0 0 0.25 0"/>
<feBlend mode="normal" in2="BackgroundImageFix" result="effect1_dropShadow_964_30867"/>
<feBlend mode="normal" in="SourceGraphic" in2="effect1_dropShadow_964_30867" result="shape"/>
</filter>
<filter id="filter4_i_964_30867" x="270.711" y="767.127" width="456.68" height="417.7" filterUnits="userSpaceOnUse" color-interpolation-filters="sRGB">
<feFlood flood-opacity="0" result="BackgroundImageFix"/>
<feBlend mode="normal" in="SourceGraphic" in2="BackgroundImageFix" result="shape"/>
<feColorMatrix in="SourceAlpha" type="matrix" values="0 0 0 0 0 0 0 0 0 0 0 0 0 0 0 0 0 0 127 0" result="hardAlpha"/>
<feOffset dx="-20" dy="-8"/>
<feComposite in2="hardAlpha" operator="arithmetic" k2="-1" k3="1"/>
<feColorMatrix type="matrix" values="0 0 0 0 0 0 0 0 0 0 0 0 0 0 0 0 0 0 0.25 0"/>
<feBlend mode="normal" in2="shape" result="effect1_innerShadow_964_30867"/>
</filter>
<filter id="filter5_f_964_30867" x="289.938" y="880.532" width="313.395" height="274.646" filterUnits="userSpaceOnUse" color-interpolation-filters="sRGB">
<feFlood flood-opacity="0" result="BackgroundImageFix"/>
<feBlend mode="normal" in="SourceGraphic" in2="BackgroundImageFix" result="shape"/>
<feGaussianBlur stdDeviation="6" result="effect1_foregroundBlur_964_30867"/>
</filter>
<filter id="filter6_f_964_30867" x="517.746" y="848.932" width="156.672" height="182.509" filterUnits="userSpaceOnUse" color-interpolation-filters="sRGB">
<feFlood flood-opacity="0" result="BackgroundImageFix"/>
<feBlend mode="normal" in="SourceGraphic" in2="BackgroundImageFix" result="shape"/>
<feGaussianBlur stdDeviation="6" result="effect1_foregroundBlur_964_30867"/>
</filter>
<clipPath id="clip0_964_30867">
<rect width="1000" height="1000" fill="white"/>
</clipPath>
</defs>
</svg>
