<svg width="1000" height="1000" viewBox="0 0 1000 1000" fill="none" xmlns="http://www.w3.org/2000/svg">
<g clip-path="url(#clip0_725_35103)">
<path d="M781.842 1115.36L786.835 1115.36C793.644 1115.36 797.987 1108.1 794.76 1102.1L733.038 987.405C731.469 984.489 728.424 982.67 725.113 982.67L721.555 982.67C714.785 982.67 710.438 989.864 713.589 995.857L773.875 1110.55C775.431 1113.51 778.498 1115.36 781.842 1115.36Z" fill="#D7D6DC" stroke="black" stroke-width="4"/>
<path d="M794.905 1106.59C796.553 1109.65 794.335 1113.36 790.858 1113.36V1113.36C789.151 1113.36 787.584 1112.42 786.79 1110.91L723.465 990.432C722.089 987.813 723.988 984.67 726.946 984.67V984.67C728.392 984.67 729.722 985.465 730.408 986.739L794.905 1106.59Z" fill="black" fill-opacity="0.25"/>
<rect x="774.801" y="1001.14" width="107.079" height="29.7388" rx="10" transform="rotate(180 774.801 1001.14)" fill="#750787" stroke="#090909" stroke-width="4"/>
<rect x="769.598" y="987.876" width="96.6362" height="14.4781" rx="7.23905" transform="rotate(180 769.598 987.876)" fill="black" fill-opacity="0.25"/>
<mask id="path-5-outside-1_725_35103" maskUnits="userSpaceOnUse" x="44" y="868.048" width="482" height="481" fill="black">
<rect fill="white" x="44" y="868.048" width="482" height="481"/>
<path d="M521.517 1108.52C521.517 1239.13 415.517 1345 284.759 1345C154 1345 48 1239.13 48 1108.52C48 977.922 154 872.048 284.759 872.048C415.517 872.048 521.517 977.922 521.517 1108.52ZM77.8825 1108.52C77.8825 1222.64 170.504 1315.15 284.759 1315.15C399.013 1315.15 491.635 1222.64 491.635 1108.52C491.635 994.405 399.013 901.895 284.759 901.895C170.504 901.895 77.8825 994.405 77.8825 1108.52Z"/>
</mask>
<path d="M521.517 1108.52C521.517 1239.13 415.517 1345 284.759 1345C154 1345 48 1239.13 48 1108.52C48 977.922 154 872.048 284.759 872.048C415.517 872.048 521.517 977.922 521.517 1108.52ZM77.8825 1108.52C77.8825 1222.64 170.504 1315.15 284.759 1315.15C399.013 1315.15 491.635 1222.64 491.635 1108.52C491.635 994.405 399.013 901.895 284.759 901.895C170.504 901.895 77.8825 994.405 77.8825 1108.52Z" fill="#3C3C3C"/>
<path d="M521.517 1108.52C521.517 1239.13 415.517 1345 284.759 1345C154 1345 48 1239.13 48 1108.52C48 977.922 154 872.048 284.759 872.048C415.517 872.048 521.517 977.922 521.517 1108.52ZM77.8825 1108.52C77.8825 1222.64 170.504 1315.15 284.759 1315.15C399.013 1315.15 491.635 1222.64 491.635 1108.52C491.635 994.405 399.013 901.895 284.759 901.895C170.504 901.895 77.8825 994.405 77.8825 1108.52Z" stroke="black" stroke-width="8" mask="url(#path-5-outside-1_725_35103)"/>
<path d="M521.517 1108.52C521.517 1239.13 415.517 1345 284.759 1345C154 1345 48 1239.13 48 1108.52C48 977.922 154 872.048 284.759 872.048C415.517 872.048 521.517 977.922 521.517 1108.52ZM52.2045 1108.52C52.2045 1236.81 156.322 1340.8 284.759 1340.8C413.195 1340.8 517.313 1236.81 517.313 1108.52C517.313 980.241 413.195 876.247 284.759 876.247C156.322 876.247 52.2045 980.241 52.2045 1108.52Z" fill="white" fill-opacity="0.25"/>
<path d="M346.036 880.106C391.267 892.211 431.888 917.44 462.763 952.604C493.638 987.768 513.379 1031.29 519.492 1077.66C525.604 1124.03 517.812 1171.17 497.101 1213.11C476.39 1255.06 443.691 1289.93 403.138 1313.32C362.585 1336.7 316 1347.55 269.274 1344.49C222.548 1341.43 177.779 1324.6 140.629 1296.13C103.479 1267.66 75.6169 1228.82 60.5649 1184.54C45.513 1140.25 43.9478 1092.5 56.0672 1047.32L84.9315 1055.04C74.3417 1094.52 75.7093 1136.24 88.8615 1174.94C102.014 1213.64 126.36 1247.57 158.821 1272.45C191.282 1297.33 230.4 1312.04 271.229 1314.71C312.057 1317.38 352.762 1307.9 388.197 1287.47C423.631 1267.04 452.203 1236.57 470.3 1199.91C488.397 1163.26 495.205 1122.07 489.865 1081.55C484.524 1041.04 467.274 1003.01 440.296 972.284C413.318 941.558 377.824 919.513 338.302 908.935L346.036 880.106Z" fill="black" fill-opacity="0.25"/>
<rect x="275.707" y="911.265" width="14.8848" height="392.908" fill="#D7D6DC" stroke="black" stroke-width="2"/>
<rect x="286.371" y="912.265" width="3.22121" height="390.908" fill="black" fill-opacity="0.25"/>
<rect x="276.707" y="912.265" width="3.22113" height="390.908" fill="white" fill-opacity="0.25"/>
<rect x="-0.365836" y="-1.36532" width="14.881" height="393.025" transform="matrix(0.866284 0.499552 -0.500448 0.865766 374.678 935.233)" fill="#D7D6DC" stroke="black" stroke-width="2"/>
<rect width="3.22024" height="391.025" transform="matrix(0.866284 0.499552 -0.500448 0.865766 383.777 940.059)" fill="black" fill-opacity="0.25"/>
<rect width="3.22024" height="391.026" transform="matrix(0.866284 0.499552 -0.500448 0.865767 375.41 935.233)" fill="white" fill-opacity="0.25"/>
<rect x="1.36673" y="0.366215" width="14.881" height="393.026" transform="matrix(-0.866284 0.499551 -0.500449 -0.865766 389.304 1273.77)" fill="#D7D6DC" stroke="black" stroke-width="2"/>
<rect width="3.22024" height="391.026" transform="matrix(-0.866284 0.499551 -0.500449 -0.865766 378.203 1278.6)" fill="black" fill-opacity="0.25"/>
<rect width="3.22024" height="391.026" transform="matrix(-0.866284 0.499551 -0.500449 -0.865766 386.57 1273.77)" fill="white" fill-opacity="0.25"/>
<mask id="path-17-outside-2_725_35103" maskUnits="userSpaceOnUse" x="72.9922" y="897.004" width="424" height="424" fill="black">
<rect fill="white" x="72.9922" y="897.004" width="424" height="424"/>
<path d="M492.528 1108.52C492.528 1223.13 399.507 1316.04 284.76 1316.04C170.013 1316.04 76.9922 1223.13 76.9922 1108.52C76.9922 993.914 170.013 901.004 284.76 901.004C399.507 901.004 492.528 993.914 492.528 1108.52ZM97.769 1108.52C97.769 1211.67 181.488 1295.29 284.76 1295.29C388.032 1295.29 471.751 1211.67 471.751 1108.52C471.751 1005.37 388.032 921.756 284.76 921.756C181.488 921.756 97.769 1005.37 97.769 1108.52Z"/>
</mask>
<path d="M492.528 1108.52C492.528 1223.13 399.507 1316.04 284.76 1316.04C170.013 1316.04 76.9922 1223.13 76.9922 1108.52C76.9922 993.914 170.013 901.004 284.76 901.004C399.507 901.004 492.528 993.914 492.528 1108.52ZM97.769 1108.52C97.769 1211.67 181.488 1295.29 284.76 1295.29C388.032 1295.29 471.751 1211.67 471.751 1108.52C471.751 1005.37 388.032 921.756 284.76 921.756C181.488 921.756 97.769 1005.37 97.769 1108.52Z" fill="#D7D6DC"/>
<path d="M492.528 1108.52C492.528 1223.13 399.507 1316.04 284.76 1316.04C170.013 1316.04 76.9922 1223.13 76.9922 1108.52C76.9922 993.914 170.013 901.004 284.76 901.004C399.507 901.004 492.528 993.914 492.528 1108.52ZM97.769 1108.52C97.769 1211.67 181.488 1295.29 284.76 1295.29C388.032 1295.29 471.751 1211.67 471.751 1108.52C471.751 1005.37 388.032 921.756 284.76 921.756C181.488 921.756 97.769 1005.37 97.769 1108.52Z" stroke="black" stroke-width="8" mask="url(#path-17-outside-2_725_35103)"/>
<path d="M487.696 1108.52C487.696 1220.47 396.839 1311.22 284.76 1311.22C172.682 1311.22 81.8242 1220.47 81.8242 1108.52C81.8242 996.579 172.682 905.83 284.76 905.83C396.839 905.83 487.696 996.579 487.696 1108.52ZM90.1561 1108.52C90.1561 1215.87 177.283 1302.89 284.76 1302.89C392.237 1302.89 479.364 1215.87 479.364 1108.52C479.364 1001.18 392.237 914.152 284.76 914.152C177.283 914.152 90.1561 1001.18 90.1561 1108.52Z" fill="white" fill-opacity="0.25"/>
<path d="M492.528 1108.52C492.528 1142.65 484.101 1176.25 467.995 1206.35C451.888 1236.44 428.599 1262.11 400.19 1281.07C371.78 1300.03 339.128 1311.7 305.125 1315.04C271.122 1318.39 236.817 1313.31 205.251 1300.25C173.684 1287.19 145.829 1266.55 124.153 1240.17C102.478 1213.79 87.6502 1182.48 80.9844 1149.01C74.3186 1115.54 76.0203 1080.94 85.9386 1048.28C95.8569 1015.63 113.686 985.916 137.846 961.785L152.537 976.459C130.793 998.177 114.747 1024.92 105.821 1054.31C96.8942 1083.7 95.3628 1114.84 101.362 1144.96C107.361 1175.08 120.706 1203.27 140.214 1227.01C159.722 1250.75 184.792 1269.32 213.202 1281.07C241.612 1292.83 272.485 1297.4 303.088 1294.39C333.691 1291.38 363.078 1280.88 388.647 1263.81C414.215 1246.75 435.175 1223.65 449.671 1196.56C464.167 1169.48 471.751 1139.24 471.751 1108.52H492.528Z" fill="black" fill-opacity="0.25"/>
<mask id="path-20-outside-3_725_35103" maskUnits="userSpaceOnUse" x="870.262" y="868.048" width="482" height="481" fill="black">
<rect fill="white" x="870.262" y="868.048" width="482" height="481"/>
<path d="M1347.78 1108.52C1347.78 1239.13 1241.78 1345 1111.02 1345C980.262 1345 874.262 1239.13 874.262 1108.52C874.262 977.922 980.262 872.048 1111.02 872.048C1241.78 872.048 1347.78 977.922 1347.78 1108.52ZM904.144 1108.52C904.144 1222.64 996.766 1315.15 1111.02 1315.15C1225.27 1315.15 1317.9 1222.64 1317.9 1108.52C1317.9 994.405 1225.27 901.895 1111.02 901.895C996.766 901.895 904.144 994.405 904.144 1108.52Z"/>
</mask>
<path d="M1347.78 1108.52C1347.78 1239.13 1241.78 1345 1111.02 1345C980.262 1345 874.262 1239.13 874.262 1108.52C874.262 977.922 980.262 872.048 1111.02 872.048C1241.78 872.048 1347.78 977.922 1347.78 1108.52ZM904.144 1108.52C904.144 1222.64 996.766 1315.15 1111.02 1315.15C1225.27 1315.15 1317.9 1222.64 1317.9 1108.52C1317.9 994.405 1225.27 901.895 1111.02 901.895C996.766 901.895 904.144 994.405 904.144 1108.52Z" fill="#3C3C3C"/>
<path d="M1347.78 1108.52C1347.78 1239.13 1241.78 1345 1111.02 1345C980.262 1345 874.262 1239.13 874.262 1108.52C874.262 977.922 980.262 872.048 1111.02 872.048C1241.78 872.048 1347.78 977.922 1347.78 1108.52ZM904.144 1108.52C904.144 1222.64 996.766 1315.15 1111.02 1315.15C1225.27 1315.15 1317.9 1222.64 1317.9 1108.52C1317.9 994.405 1225.27 901.895 1111.02 901.895C996.766 901.895 904.144 994.405 904.144 1108.52Z" stroke="black" stroke-width="8" mask="url(#path-20-outside-3_725_35103)"/>
<path d="M1347.78 1108.52C1347.78 1239.13 1241.78 1345 1111.02 1345C980.262 1345 874.262 1239.13 874.262 1108.52C874.262 977.922 980.262 872.048 1111.02 872.048C1241.78 872.048 1347.78 977.922 1347.78 1108.52ZM878.466 1108.52C878.466 1236.81 982.584 1340.8 1111.02 1340.8C1239.46 1340.8 1343.57 1236.81 1343.57 1108.52C1343.57 980.241 1239.46 876.247 1111.02 876.247C982.584 876.247 878.466 980.241 878.466 1108.52Z" fill="white" fill-opacity="0.25"/>
<path d="M1172.3 880.106C1217.53 892.211 1258.15 917.44 1289.02 952.604C1319.9 987.768 1339.64 1031.29 1345.75 1077.66C1351.87 1124.03 1344.07 1171.17 1323.36 1213.11C1302.65 1255.06 1269.95 1289.93 1229.4 1313.32C1188.85 1336.7 1142.26 1347.55 1095.54 1344.49C1048.81 1341.43 1004.04 1324.6 966.891 1296.13C929.741 1267.66 901.879 1228.82 886.827 1184.54C871.775 1140.25 870.209 1092.5 882.329 1047.32L911.193 1055.04C900.603 1094.52 901.971 1136.24 915.123 1174.94C928.275 1213.64 952.621 1247.57 985.082 1272.45C1017.54 1297.33 1056.66 1312.04 1097.49 1314.71C1138.32 1317.38 1179.02 1307.9 1214.46 1287.47C1249.89 1267.04 1278.47 1236.57 1296.56 1199.91C1314.66 1163.26 1321.47 1122.07 1316.13 1081.55C1310.79 1041.04 1293.54 1003.01 1266.56 972.284C1239.58 941.558 1204.09 919.513 1164.56 908.935L1172.3 880.106Z" fill="black" fill-opacity="0.25"/>
<mask id="path-23-outside-4_725_35103" maskUnits="userSpaceOnUse" x="899.254" y="897.004" width="424" height="424" fill="black">
<rect fill="white" x="899.254" y="897.004" width="424" height="424"/>
<path d="M1318.79 1108.52C1318.79 1223.13 1225.77 1316.04 1111.02 1316.04C996.275 1316.04 903.254 1223.13 903.254 1108.52C903.254 993.914 996.275 901.004 1111.02 901.004C1225.77 901.004 1318.79 993.914 1318.79 1108.52ZM924.031 1108.52C924.031 1211.67 1007.75 1295.29 1111.02 1295.29C1214.29 1295.29 1298.01 1211.67 1298.01 1108.52C1298.01 1005.37 1214.29 921.756 1111.02 921.756C1007.75 921.756 924.031 1005.37 924.031 1108.52Z"/>
</mask>
<path d="M1318.79 1108.52C1318.79 1223.13 1225.77 1316.04 1111.02 1316.04C996.275 1316.04 903.254 1223.13 903.254 1108.52C903.254 993.914 996.275 901.004 1111.02 901.004C1225.77 901.004 1318.79 993.914 1318.79 1108.52ZM924.031 1108.52C924.031 1211.67 1007.75 1295.29 1111.02 1295.29C1214.29 1295.29 1298.01 1211.67 1298.01 1108.52C1298.01 1005.37 1214.29 921.756 1111.02 921.756C1007.75 921.756 924.031 1005.37 924.031 1108.52Z" fill="#D7D6DC"/>
<path d="M1318.79 1108.52C1318.79 1223.13 1225.77 1316.04 1111.02 1316.04C996.275 1316.04 903.254 1223.13 903.254 1108.52C903.254 993.914 996.275 901.004 1111.02 901.004C1225.77 901.004 1318.79 993.914 1318.79 1108.52ZM924.031 1108.52C924.031 1211.67 1007.75 1295.29 1111.02 1295.29C1214.29 1295.29 1298.01 1211.67 1298.01 1108.52C1298.01 1005.37 1214.29 921.756 1111.02 921.756C1007.75 921.756 924.031 1005.37 924.031 1108.52Z" stroke="black" stroke-width="8" mask="url(#path-23-outside-4_725_35103)"/>
<path d="M1313.96 1108.52C1313.96 1220.47 1223.1 1311.22 1111.02 1311.22C998.943 1311.22 908.086 1220.47 908.086 1108.52C908.086 996.579 998.943 905.83 1111.02 905.83C1223.1 905.83 1313.96 996.579 1313.96 1108.52ZM916.418 1108.52C916.418 1215.87 1003.54 1302.89 1111.02 1302.89C1218.5 1302.89 1305.63 1215.87 1305.63 1108.52C1305.63 1001.18 1218.5 914.152 1111.02 914.152C1003.54 914.152 916.418 1001.18 916.418 1108.52Z" fill="white" fill-opacity="0.25"/>
<path d="M1318.79 1108.52C1318.79 1142.65 1310.36 1176.25 1294.26 1206.35C1278.15 1236.44 1254.86 1262.11 1226.45 1281.07C1198.04 1300.03 1165.39 1311.7 1131.39 1315.04C1097.38 1318.39 1063.08 1313.31 1031.51 1300.25C999.946 1287.19 972.091 1266.55 950.415 1240.17C928.739 1213.79 913.912 1182.48 907.246 1149.01C900.58 1115.54 902.282 1080.94 912.2 1048.28C922.119 1015.63 939.948 985.916 964.108 961.785L978.799 976.459C957.055 998.177 941.009 1024.92 932.082 1054.31C923.156 1083.7 921.624 1114.84 927.624 1144.96C933.623 1175.08 946.968 1203.27 966.476 1227.01C985.984 1250.75 1011.05 1269.32 1039.46 1281.07C1067.87 1292.83 1098.75 1297.4 1129.35 1294.39C1159.95 1291.38 1189.34 1280.88 1214.91 1263.81C1240.48 1246.75 1261.44 1223.65 1275.93 1196.56C1290.43 1169.48 1298.01 1139.24 1298.01 1108.52H1318.79Z" fill="black" fill-opacity="0.25"/>
<mask id="path-26-outside-5_725_35103" maskUnits="userSpaceOnUse" x="269.805" y="734.549" width="865" height="393" fill="black">
<rect fill="white" x="269.805" y="734.549" width="865" height="393"/>
<path fill-rule="evenodd" clip-rule="evenodd" d="M442.986 743.507C443.608 740.985 441.7 738.549 439.103 738.549H415.131C413.291 738.549 411.688 739.804 411.247 741.591L333.659 1056.27C332.763 1059.9 330.622 1063.11 327.608 1065.33L278.063 1101.79C274.297 1104.56 273.701 1109.96 276.771 1113.49L282.388 1119.94C285.101 1123.05 289.74 1123.59 293.094 1121.18L354.9 1076.7C359.527 1073.37 362.818 1068.51 364.184 1062.97L412.188 868.363C412.869 865.601 416.134 864.413 418.431 866.091L765.359 1119.52C766.147 1120.1 766.634 1121.41 767.61 1121.41V1121.41H769.541C769.541 1121.41 769.541 1121.41 769.541 1121.41V1121.41C769.541 1121.42 769.542 1121.42 769.542 1121.42H1122.32C1126.73 1121.42 1130.32 1117.83 1130.32 1113.42V1103.68C1130.32 1099.26 1126.73 1095.68 1122.32 1095.68V1095.68C1121.72 1095.68 1121.15 1095.4 1120.77 1094.93L882.642 794.612C881.868 793.636 881.593 792.355 881.898 791.148L893.918 743.528C894.555 741.001 892.645 738.549 890.039 738.549H866.078C864.246 738.549 862.648 739.794 862.2 741.57L853.979 774.14C853.53 775.916 851.933 777.161 850.1 777.161H439.791C437.194 777.161 435.286 774.725 435.908 772.203L442.986 743.507ZM430.675 806.117C428.835 806.117 427.232 807.373 426.792 809.159L422.049 828.386C421.655 829.982 422.279 831.657 423.621 832.608L771.42 1078.99C773.713 1080.61 776.923 1079.43 777.611 1076.71L844.651 811.096C845.289 808.569 843.379 806.117 840.773 806.117H430.675ZM872.328 829.063C873.142 825.839 877.306 824.958 879.356 827.577L1084.16 1089.21C1086.22 1091.84 1084.35 1095.68 1081.02 1095.68H810.169C807.563 1095.68 805.653 1093.22 806.291 1090.7L872.328 829.063Z"/>
</mask>
<path fill-rule="evenodd" clip-rule="evenodd" d="M442.986 743.507C443.608 740.985 441.7 738.549 439.103 738.549H415.131C413.291 738.549 411.688 739.804 411.247 741.591L333.659 1056.27C332.763 1059.9 330.622 1063.11 327.608 1065.33L278.063 1101.79C274.297 1104.56 273.701 1109.96 276.771 1113.49L282.388 1119.94C285.101 1123.05 289.74 1123.59 293.094 1121.18L354.9 1076.7C359.527 1073.37 362.818 1068.51 364.184 1062.97L412.188 868.363C412.869 865.601 416.134 864.413 418.431 866.091L765.359 1119.52C766.147 1120.1 766.634 1121.41 767.61 1121.41V1121.41H769.541C769.541 1121.41 769.541 1121.41 769.541 1121.41V1121.41C769.541 1121.42 769.542 1121.42 769.542 1121.42H1122.32C1126.73 1121.42 1130.32 1117.83 1130.32 1113.42V1103.68C1130.32 1099.26 1126.73 1095.68 1122.32 1095.68V1095.68C1121.72 1095.68 1121.15 1095.4 1120.77 1094.93L882.642 794.612C881.868 793.636 881.593 792.355 881.898 791.148L893.918 743.528C894.555 741.001 892.645 738.549 890.039 738.549H866.078C864.246 738.549 862.648 739.794 862.2 741.57L853.979 774.14C853.53 775.916 851.933 777.161 850.1 777.161H439.791C437.194 777.161 435.286 774.725 435.908 772.203L442.986 743.507ZM430.675 806.117C428.835 806.117 427.232 807.373 426.792 809.159L422.049 828.386C421.655 829.982 422.279 831.657 423.621 832.608L771.42 1078.99C773.713 1080.61 776.923 1079.43 777.611 1076.71L844.651 811.096C845.289 808.569 843.379 806.117 840.773 806.117H430.675ZM872.328 829.063C873.142 825.839 877.306 824.958 879.356 827.577L1084.16 1089.21C1086.22 1091.84 1084.35 1095.68 1081.02 1095.68H810.169C807.563 1095.68 805.653 1093.22 806.291 1090.7L872.328 829.063Z" fill="#9F50FF"/>
<path d="M333.659 1056.27L337.543 1057.23H337.543L333.659 1056.27ZM327.608 1065.33L329.979 1068.55L329.979 1068.55L327.608 1065.33ZM278.063 1101.79L280.434 1105.01H280.434L278.063 1101.79ZM276.771 1113.49L273.754 1116.11H273.754L276.771 1113.49ZM282.388 1119.94L279.371 1122.56L279.371 1122.56L282.388 1119.94ZM293.094 1121.18L290.758 1117.93H290.758L293.094 1121.18ZM354.9 1076.7L352.564 1073.46L354.9 1076.7ZM364.184 1062.97L360.3 1062.01L364.184 1062.97ZM806.291 1090.7L802.413 1089.72L806.291 1090.7ZM879.356 827.577L876.207 830.042L879.356 827.577ZM872.328 829.063L876.206 830.042L872.328 829.063ZM1084.16 1089.21L1081.02 1091.68L1084.16 1089.21ZM844.651 811.096L848.529 812.075L844.651 811.096ZM771.42 1078.99L773.732 1075.73L771.42 1078.99ZM422.049 828.386L425.933 829.344L422.049 828.386ZM423.621 832.608L425.933 829.344L423.621 832.608ZM426.792 809.159L430.675 810.117L426.792 809.159ZM882.642 794.612L879.508 797.097L882.642 794.612ZM881.898 791.148L885.776 792.126L881.898 791.148ZM1120.77 1094.93L1123.91 1092.45L1120.77 1094.93ZM862.2 741.57L858.321 740.591L862.2 741.57ZM853.979 774.14L857.857 775.119L853.979 774.14ZM411.247 741.591L415.131 742.549L411.247 741.591ZM765.359 1119.52L763 1122.75L765.359 1119.52ZM435.908 772.203L432.024 771.245L435.908 772.203ZM442.986 743.507L446.87 744.465L442.986 743.507ZM893.918 743.528L897.796 744.507L893.918 743.528ZM412.188 868.363L416.071 869.321L412.188 868.363ZM418.431 866.091L416.071 869.321L418.431 866.091ZM415.131 742.549H439.103V734.549H415.131V742.549ZM337.543 1057.23L415.131 742.549L407.363 740.634L329.775 1055.31L337.543 1057.23ZM329.979 1068.55C333.746 1065.77 336.423 1061.77 337.543 1057.23L329.775 1055.31C329.103 1058.04 327.498 1060.44 325.237 1062.1L329.979 1068.55ZM280.434 1105.01L329.979 1068.55L325.237 1062.1L275.692 1098.57L280.434 1105.01ZM279.788 1110.86C278.253 1109.1 278.551 1106.4 280.434 1105.01L275.692 1098.57C270.043 1102.73 269.149 1110.82 273.754 1116.11L279.788 1110.86ZM285.405 1117.31L279.788 1110.86L273.754 1116.11L279.371 1122.56L285.405 1117.31ZM290.758 1117.93C289.081 1119.14 286.761 1118.87 285.405 1117.31L279.371 1122.56C283.44 1127.24 290.4 1128.04 295.43 1124.42L290.758 1117.93ZM352.564 1073.46L290.758 1117.93L295.43 1124.42L357.236 1079.95L352.564 1073.46ZM360.3 1062.01C359.162 1066.62 356.42 1070.68 352.564 1073.46L357.236 1079.95C362.635 1076.07 366.474 1070.39 368.067 1063.93L360.3 1062.01ZM408.304 867.405L360.3 1062.01L368.067 1063.93L416.071 869.321L408.304 867.405ZM767.719 1116.29L420.79 862.861L416.071 869.321L763 1122.75L767.719 1116.29ZM769.541 1117.41H767.61V1125.41H769.541V1117.41ZM1122.32 1117.42H769.542V1125.42H1122.32V1117.42ZM1126.32 1113.42C1126.32 1115.62 1124.53 1117.42 1122.32 1117.42V1125.42C1128.94 1125.42 1134.32 1120.04 1134.32 1113.42H1126.32ZM1126.32 1103.68V1113.42H1134.32V1103.68H1126.32ZM1122.32 1099.68C1124.53 1099.68 1126.32 1101.47 1126.32 1103.68H1134.32C1134.32 1097.05 1128.94 1091.68 1122.32 1091.68V1099.68ZM879.508 797.097L1117.64 1097.42L1123.91 1092.45L885.776 792.126L879.508 797.097ZM890.039 742.549L878.02 790.169L885.776 792.126L897.796 744.507L890.039 742.549ZM866.078 742.549H890.039V734.549H866.078V742.549ZM857.857 775.119L866.078 742.549L858.321 740.591L850.101 773.161L857.857 775.119ZM439.791 781.161H850.1V773.161H439.791V781.161ZM439.103 742.549L432.024 771.245L439.791 773.161L446.87 744.465L439.103 742.549ZM422.908 808.201L418.166 827.428L425.933 829.344L430.675 810.117L422.908 808.201ZM421.308 835.872L769.108 1082.25L773.732 1075.73L425.933 829.344L421.308 835.872ZM781.489 1077.68L848.529 812.075L840.773 810.117L773.732 1075.73L781.489 1077.68ZM840.773 802.117H430.675V810.117H840.773V802.117ZM1087.31 1086.75L882.506 825.111L876.207 830.042L1081.02 1091.68L1087.31 1086.75ZM810.169 1099.68H1081.02V1091.68H810.169V1099.68ZM868.45 828.085L802.413 1089.72L810.169 1091.68L876.206 830.042L868.45 828.085ZM810.169 1091.68V1091.68L802.413 1089.72C801.137 1094.77 804.957 1099.68 810.169 1099.68V1091.68ZM882.506 825.111C878.406 819.874 870.077 821.636 868.45 828.085L876.206 830.042C876.21 830.027 876.214 830.019 876.215 830.016C876.216 830.014 876.215 830.015 876.213 830.018C876.211 830.022 876.208 830.026 876.204 830.031C876.2 830.036 876.196 830.04 876.193 830.043C876.186 830.05 876.183 830.051 876.186 830.049C876.189 830.048 876.196 830.045 876.206 830.042C876.217 830.04 876.224 830.04 876.228 830.04C876.232 830.04 876.228 830.041 876.219 830.038C876.215 830.036 876.21 830.034 876.204 830.031C876.199 830.028 876.194 830.026 876.191 830.023C876.187 830.021 876.186 830.02 876.188 830.022C876.19 830.024 876.197 830.03 876.207 830.042L882.506 825.111ZM1081.02 1091.68C1081.03 1091.69 1081.03 1091.7 1081.03 1091.7C1081.03 1091.7 1081.03 1091.7 1081.03 1091.7C1081.03 1091.69 1081.03 1091.69 1081.03 1091.68C1081.02 1091.68 1081.02 1091.67 1081.02 1091.67C1081.02 1091.66 1081.02 1091.65 1081.02 1091.66C1081.02 1091.66 1081.02 1091.67 1081.02 1091.68C1081.01 1091.69 1081.01 1091.69 1081 1091.7C1081 1091.7 1081 1091.7 1081.01 1091.69C1081.02 1091.69 1081.02 1091.68 1081.03 1091.68C1081.03 1091.68 1081.04 1091.68 1081.04 1091.68C1081.04 1091.67 1081.05 1091.67 1081.04 1091.68C1081.04 1091.68 1081.03 1091.68 1081.02 1091.68V1099.68C1087.68 1099.68 1091.43 1092 1087.31 1086.75L1081.02 1091.68ZM848.529 812.075C849.805 807.022 845.985 802.117 840.773 802.117V810.117V810.117L848.529 812.075ZM769.108 1082.25C773.694 1085.5 780.113 1083.13 781.489 1077.68L773.732 1075.73H773.732L769.108 1082.25ZM418.166 827.428C417.378 830.621 418.625 833.971 421.308 835.872L425.933 829.344L418.166 827.428ZM430.675 810.117H430.675V802.117C426.995 802.117 423.79 804.628 422.908 808.201L430.675 810.117ZM885.776 792.126V792.126L878.02 790.169C877.41 792.584 877.96 795.145 879.508 797.097L885.776 792.126ZM1122.32 1091.68C1122.94 1091.68 1123.52 1091.96 1123.91 1092.45L1117.64 1097.42C1118.77 1098.84 1120.49 1099.68 1122.32 1099.68V1091.68ZM765.541 1121.41C765.541 1123.76 767.471 1125.42 769.542 1125.42V1117.42C771.613 1117.42 773.541 1119.07 773.541 1121.41H765.541ZM769.541 1125.41C767.332 1125.41 765.541 1123.62 765.541 1121.41H773.541C773.541 1119.21 771.75 1117.41 769.541 1117.41V1125.41ZM866.078 734.549C862.414 734.549 859.218 737.038 858.321 740.591L866.078 742.549V742.549V734.549ZM850.101 773.161H850.1V781.161C853.765 781.161 856.961 778.672 857.857 775.119L850.101 773.161ZM415.131 734.549C411.45 734.549 408.245 737.06 407.363 740.634L415.131 742.549L415.131 742.549V734.549ZM763 1122.75C762.803 1122.61 762.735 1122.51 762.844 1122.64C762.892 1122.69 762.943 1122.76 763.037 1122.87C763.118 1122.98 763.24 1123.13 763.372 1123.28C763.743 1123.72 765.165 1125.41 767.61 1125.41V1117.41C767.949 1117.41 768.272 1117.47 768.562 1117.57C768.844 1117.67 769.058 1117.79 769.201 1117.89C769.342 1117.98 769.428 1118.06 769.459 1118.09C769.49 1118.12 769.492 1118.13 769.456 1118.09C769.417 1118.04 769.37 1117.98 769.283 1117.88C769.209 1117.78 769.091 1117.63 768.968 1117.49C768.734 1117.21 768.309 1116.72 767.719 1116.29L763 1122.75ZM439.791 773.161V773.161L432.024 771.245C430.78 776.288 434.597 781.161 439.791 781.161V773.161ZM439.103 742.549L439.103 742.549L446.87 744.465C448.114 739.422 444.297 734.549 439.103 734.549V742.549ZM897.796 744.507C899.071 739.453 895.251 734.549 890.039 734.549V742.549V742.549L897.796 744.507ZM416.071 869.321V869.321L420.79 862.861C416.197 859.505 409.667 861.882 408.304 867.405L416.071 869.321Z" fill="black" mask="url(#path-26-outside-5_725_35103)"/>
<path d="M799.466 1028.82C798.192 1028.1 797.567 1026.6 797.947 1025.19L871.259 751.91C871.778 749.978 873.915 748.979 875.729 749.822V749.822C877.148 750.481 877.887 752.065 877.482 753.576L804.17 1026.85C803.624 1028.89 801.3 1029.86 799.466 1028.82V1028.82Z" fill="white" fill-opacity="0.25"/>
<path d="M436.078 792.127C436.545 790.864 437.749 790.025 439.096 790.025H842.677C844.768 790.025 846.303 791.989 845.799 794.018V794.018C845.443 795.453 844.155 796.46 842.677 796.46H439.096C436.856 796.46 435.302 794.228 436.078 792.127V792.127Z" fill="white" fill-opacity="0.25"/>
<path d="M345.253 1060.64C344.031 1059.9 343.447 1058.44 343.818 1057.06L426.522 748.768C427.048 746.809 429.233 745.816 431.054 746.71V746.71C432.435 747.387 433.144 748.947 432.745 750.434L350.04 1058.72C349.484 1060.8 347.088 1061.76 345.253 1060.64V1060.64Z" fill="white" fill-opacity="0.25"/>
<path d="M882.322 638.406H880.592L880.343 640.118L867.458 728.595L867.125 730.884H869.438H888.765H890.495L890.744 729.172L903.629 640.694L903.962 638.406H901.65H882.322Z" fill="#D7D6DC" stroke="black" stroke-width="4"/>
<path d="M893.643 640.406H901.696L888.811 728.884H880.758L893.643 640.406Z" fill="black" fill-opacity="0.25"/>
<mask id="path-33-outside-6_725_35103" maskUnits="userSpaceOnUse" x="403.094" y="623.556" width="55" height="110" fill="black">
<rect fill="white" x="403.094" y="623.556" width="55" height="110"/>
<path fill-rule="evenodd" clip-rule="evenodd" d="M434.506 627.556H409.094C407.989 627.556 407.094 628.451 407.094 629.556V643.251C407.094 644.356 407.989 645.251 409.094 645.251H429.986C431.19 645.251 432.122 646.308 431.97 647.503L421.907 726.65C421.755 727.845 422.687 728.902 423.891 728.902H439.186C440.194 728.902 441.044 728.154 441.171 727.155L453.547 629.808C453.699 628.613 452.767 627.556 451.563 627.556H450.58H434.506Z"/>
</mask>
<path fill-rule="evenodd" clip-rule="evenodd" d="M434.506 627.556H409.094C407.989 627.556 407.094 628.451 407.094 629.556V643.251C407.094 644.356 407.989 645.251 409.094 645.251H429.986C431.19 645.251 432.122 646.308 431.97 647.503L421.907 726.65C421.755 727.845 422.687 728.902 423.891 728.902H439.186C440.194 728.902 441.044 728.154 441.171 727.155L453.547 629.808C453.699 628.613 452.767 627.556 451.563 627.556H450.58H434.506Z" fill="#D7D6DC"/>
<path d="M453.547 629.808L449.579 629.303V629.303L453.547 629.808ZM431.97 647.503L428.002 646.999L431.97 647.503ZM441.171 727.155L445.139 727.659L441.171 727.155ZM409.094 631.556H434.506V623.556H409.094V631.556ZM411.094 643.251V629.556H403.094V643.251H411.094ZM429.986 641.251H409.094V649.251H429.986V641.251ZM425.875 727.155L435.938 648.008L428.002 646.999L417.939 726.146L425.875 727.155ZM439.186 724.902H423.891V732.902H439.186V724.902ZM449.579 629.303L437.202 726.65L445.139 727.659L457.515 630.312L449.579 629.303ZM451.563 631.556C450.358 631.556 449.427 630.498 449.579 629.303L457.515 630.312C457.971 626.727 455.177 623.556 451.563 623.556V631.556ZM450.58 631.556H451.563V623.556H450.58V631.556ZM434.506 631.556H450.58V623.556H434.506V631.556ZM417.939 726.146C417.484 729.731 420.277 732.902 423.891 732.902V724.902C425.096 724.902 426.027 725.96 425.875 727.155L417.939 726.146ZM429.986 649.251C428.781 649.251 427.85 648.194 428.002 646.999L435.938 648.008C436.394 644.423 433.6 641.251 429.986 641.251V649.251ZM403.094 643.251C403.094 646.565 405.78 649.251 409.094 649.251V641.251C410.198 641.251 411.094 642.147 411.094 643.251H403.094ZM439.186 732.902C442.208 732.902 444.758 730.656 445.139 727.659L437.202 726.65C437.329 725.651 438.179 724.902 439.186 724.902V732.902ZM409.094 623.556C405.78 623.556 403.094 626.242 403.094 629.556H411.094C411.094 630.66 410.198 631.556 409.094 631.556V623.556Z" fill="black" mask="url(#path-33-outside-6_725_35103)"/>
<path d="M410.318 627.556C408.539 627.556 407.097 628.996 407.097 630.773L407.094 632.382C407.094 634.159 408.536 635.599 410.315 635.599H441.453C443.393 635.599 444.893 637.299 444.649 639.222L433.327 725.28C433.082 727.202 434.582 728.902 436.522 728.902H438.081C439.703 728.902 441.072 727.698 441.277 726.09L453.398 630.747C453.614 629.054 452.292 627.556 450.583 627.556H410.318Z" fill="black" fill-opacity="0.25"/>
<path d="M414.777 623.52V621.52H412.777H337.08C304.677 621.52 286.584 643.065 276.529 655.038C275.759 655.956 275.036 656.817 274.357 657.608L274.294 657.681L274.239 657.76C252.886 688.122 254.364 719.624 269.429 740.514L269.502 740.616L269.588 740.708C273.762 745.186 279.322 751.373 285.429 758.168C299.167 773.454 315.669 791.816 325.363 800.706C327.039 802.243 329.203 803.633 331.807 803.947C337.971 804.689 343.635 801.895 346.694 797.157C349.791 792.359 350.086 785.795 346.02 779.304L345.9 779.111L345.739 778.951C337.751 770.972 315.862 748.153 292.166 720.668C286.487 701.325 290.593 684.179 298.407 671.845C306.361 659.291 317.897 652.063 326.609 652.063H412.777H414.777V650.063V623.52Z" fill="#FF7DEA" stroke="black" stroke-width="4"/>
<path d="M412.748 650.051V637.182H337.051C312.901 637.182 300.821 646.029 288.741 658.899C263.775 688.659 271.013 724.855 285.507 738.528C300.003 754.079 329.935 785.311 341.892 797.254C346.715 802.071 349.945 785.996 344.297 780.354C336.244 772.311 314.179 749.306 290.342 721.637C278.27 681.42 307.261 650.051 326.581 650.051H412.748Z" fill="black" fill-opacity="0.25"/>
<path fill-rule="evenodd" clip-rule="evenodd" d="M447.594 738.638H436.507L351.559 1059.36C350.026 1065.15 346.387 1070.15 341.354 1073.4L290.476 1106.16C287.298 1108.37 286.8 1112.88 289.418 1115.73C291.64 1118.15 296.701 1119.39 299.336 1117.42L355.193 1076.65C359.69 1073.37 362.906 1068.63 364.29 1063.23L415.391 864.119L777.575 1127.98V1109.36L419.071 849.777L429.029 810.976H842.005L846.837 796.498H432.745L447.594 738.638Z" fill="black" fill-opacity="0.25"/>
<path fill-rule="evenodd" clip-rule="evenodd" d="M896.987 738.624L879.969 804.714L1114.56 1106.02C1114.8 1106.32 1115 1106.64 1115.17 1106.97H1124.38C1127.69 1106.97 1130.38 1109.65 1130.38 1112.97V1115.44C1130.38 1118.76 1127.69 1121.44 1124.38 1121.44H795.375V1112.59H782.684L881.068 738.624H896.987ZM802.141 1106.97H1096.94L875.406 822.437L802.141 1106.97Z" fill="black" fill-opacity="0.25"/>
<path d="M785.227 676.826H785.265L785.304 676.824C816.621 675.621 836.758 677.232 852.623 680.897C868.45 684.552 880.128 690.271 894.596 697.496C927.537 716.969 951.638 711.682 961.69 705.157C963.177 704.192 964.35 702.944 965.346 701.779C969.736 696.641 978.696 686.574 989.627 675.427C992.402 672.597 994.779 669.073 995.64 664.926C997.751 654.756 995.623 647.109 991.623 641.632C987.672 636.221 982.031 633.111 977.355 631.673C975.572 631.124 973.765 631 972.099 631H831.934H831.875C825.84 631 820.728 631 813.668 633.421C806.668 635.821 797.835 640.567 784.107 649.843L784.107 649.843C781.751 651.435 779.064 653.748 776.724 656.326C774.405 658.881 772.296 661.838 771.263 664.736C770.221 667.659 770.156 670.977 772.742 673.464C775.115 675.748 779.275 676.826 785.227 676.826Z" fill="#FF7DEA" stroke="black" stroke-width="4"/>
<path d="M889.578 653.194L835.926 654.726C825.478 654.726 812.025 654.725 791.914 654.725C785.554 654.725 779.104 656.979 775.351 662.114C770.93 668.161 769.338 674.834 785.193 674.834C848.007 672.421 866.529 681.269 895.519 695.747C927.97 714.954 951.265 709.526 960.568 703.488C961.808 702.683 962.831 701.612 963.791 700.488C968.209 695.319 977.199 685.218 988.165 674.035C990.775 671.374 993.559 667.894 992.133 664.449C985.207 647.71 911.807 653.838 894.999 653.338C893.192 653.285 891.385 653.143 889.578 653.194Z" fill="black" fill-opacity="0.25"/>
<rect x="847.27" y="716.382" width="63.6453" height="24.9562" rx="2" fill="#929292" stroke="black" stroke-width="4"/>
<rect x="872.625" y="720.837" width="33.8226" height="16.0868" fill="black" fill-opacity="0.25"/>
<rect x="396.297" y="716.382" width="63.6453" height="24.9562" rx="2" fill="#929292" stroke="black" stroke-width="4"/>
<rect x="421.648" y="720.837" width="33.8226" height="16.0868" fill="black" fill-opacity="0.25"/>
</g>
<defs>
<clipPath id="clip0_725_35103">
<rect width="1000" height="1000" fill="white"/>
</clipPath>
</defs>
</svg>
