<svg width="1000" height="1000" viewBox="0 0 1000 1000" fill="none" xmlns="http://www.w3.org/2000/svg">
<rect x="767" y="423" width="26" height="577" fill="black"/>
<rect x="585" y="460" width="391" height="300" fill="#3C3C3C" stroke="black" stroke-width="8"/>
<rect x="585" y="460" width="20" height="300" fill="black" fill-opacity="0.25"/>
<path d="M659.549 644.366V640.398L661.213 639.374C660.957 637.923 660.786 636.515 660.701 635.15C660.615 633.699 660.573 632.248 660.573 630.798C660.573 629.176 660.573 627.598 660.573 626.062C660.658 624.44 660.701 622.776 660.701 621.07C660.701 619.278 660.615 617.486 660.445 615.694C660.274 613.902 659.975 612.11 659.549 610.318H658.781C658.866 614.84 658.994 619.278 659.165 623.63C659.421 627.982 659.549 632.419 659.549 636.942C659.122 630.456 658.61 623.971 658.013 617.486C657.501 611 657.245 604.43 657.245 597.774C657.245 595.811 657.33 593.848 657.501 591.886C657.757 589.838 658.013 587.832 658.269 585.87L649.821 588.046L649.949 587.662C649.778 587.406 649.522 586.936 649.181 586.254C648.925 585.571 648.797 585.144 648.797 584.974C648.797 584.547 649.223 584.12 650.077 583.694C651.015 583.182 652.039 582.755 653.149 582.414C654.343 582.072 655.453 581.774 656.477 581.518C657.586 581.262 658.354 581.091 658.781 581.006L658.397 579.47C657.714 579.64 656.306 579.854 654.173 580.11C652.125 580.28 650.034 580.366 647.901 580.366C646.194 580.366 644.701 580.238 643.421 579.982C642.141 579.726 641.501 579.171 641.501 578.318C641.501 577.379 642.354 576.44 644.061 575.502C645.767 574.563 647.943 573.71 650.589 572.942C653.319 572.088 656.306 571.32 659.549 570.638C662.791 569.955 665.906 569.358 668.893 568.846C671.879 568.334 674.567 567.95 676.957 567.694C679.346 567.438 681.01 567.31 681.949 567.31C686.301 567.31 690.439 567.864 694.365 568.974C698.375 569.998 701.874 571.662 704.861 573.966C707.847 576.184 710.194 579.043 711.901 582.542C713.693 586.04 714.589 590.179 714.589 594.958C714.589 596.92 714.29 598.968 713.693 601.102C713.095 603.15 712.157 605.155 710.877 607.118C709.682 608.995 708.103 610.702 706.141 612.238C704.263 613.774 702.002 614.883 699.357 615.566C703.794 616.163 707.591 617.187 710.749 618.638C713.991 620.088 716.594 621.838 718.557 623.886C720.605 625.934 722.098 628.238 723.037 630.798C723.975 633.358 724.445 636.088 724.445 638.99C724.445 642.744 723.677 645.944 722.141 648.59C720.69 651.235 718.727 653.454 716.253 655.246C713.778 657.038 710.962 658.403 707.805 659.342C704.647 660.366 701.362 661.134 697.949 661.646C694.535 662.158 691.165 662.456 687.837 662.542C684.509 662.712 681.479 662.798 678.749 662.798C678.066 662.798 676.743 662.755 674.781 662.67C672.903 662.584 670.941 662.414 668.893 662.158C666.845 661.902 665.01 661.518 663.389 661.006C661.853 660.579 661.085 659.982 661.085 659.214L661.213 658.574C664.797 659.171 668.381 659.64 671.965 659.982C675.549 660.408 679.133 660.622 682.717 660.622C685.447 660.622 688.135 660.451 690.781 660.11C693.426 659.768 696.071 659.342 698.717 658.83C693.938 659.683 688.946 660.11 683.741 660.11C680.071 660.11 676.402 659.939 672.733 659.598C669.149 659.256 665.565 658.787 661.981 658.19L662.621 656.654L662.365 655.758C662.109 655.843 661.725 655.886 661.213 655.886C660.359 655.886 659.378 655.715 658.269 655.374C657.159 655.032 656.093 654.606 655.069 654.094C654.13 653.582 653.319 652.984 652.637 652.302C651.954 651.619 651.613 650.936 651.613 650.254C651.613 649.827 651.954 649.486 652.637 649.23C653.319 648.974 654.087 648.803 654.941 648.718C655.879 648.547 656.775 648.419 657.629 648.334C658.482 648.248 659.079 648.163 659.421 648.078L659.549 644.366ZM672.349 583.694C672.519 584.206 672.69 585.315 672.861 587.022C673.117 588.643 673.33 590.563 673.501 592.782C673.757 595 673.97 597.39 674.141 599.95C674.311 602.51 674.439 604.984 674.525 607.374C674.695 609.678 674.823 611.768 674.909 613.646C674.994 615.438 675.037 616.718 675.037 617.486C675.037 622.008 674.866 626.531 674.525 631.054C674.183 635.491 674.013 639.971 674.013 644.494C674.013 646.2 674.567 647.267 675.677 647.694C676.871 648.12 678.151 648.334 679.517 648.334C683.613 648.334 687.666 648.206 691.677 647.95C695.687 647.608 699.613 646.712 703.453 645.262L703.837 646.798C705.543 645.944 707.037 644.92 708.317 643.726C709.682 642.446 710.365 640.782 710.365 638.734C710.365 636.43 709.639 634.467 708.189 632.846C706.738 631.139 704.946 629.774 702.813 628.75C700.765 627.726 698.546 626.958 696.157 626.446C693.853 625.934 691.805 625.678 690.013 625.678C689.842 625.678 689.501 625.806 688.989 626.062C688.477 626.232 688.093 626.36 687.837 626.446C689.031 626.531 690.525 626.744 692.317 627.086C694.109 627.427 695.943 627.896 697.821 628.494C699.698 629.006 701.49 629.688 703.197 630.542C704.903 631.395 706.311 632.334 707.421 633.358C705.799 632.078 703.581 631.011 700.765 630.158C697.863 629.304 694.877 628.622 691.805 628.11C688.818 627.598 686.045 627.214 683.485 626.958C680.925 626.616 679.175 626.36 678.237 626.19L677.597 611.982H677.853C680.071 611.982 682.375 611.598 684.765 610.83C687.239 609.976 689.501 608.824 691.549 607.374C693.597 605.838 695.303 604.046 696.669 601.998C698.034 599.864 698.717 597.56 698.717 595.086C698.717 592.696 698.205 590.734 697.181 589.198C696.157 587.662 694.791 586.467 693.085 585.614C691.463 584.675 689.629 584.078 687.581 583.822C685.533 583.48 683.527 583.31 681.565 583.31C680.029 583.31 678.493 583.395 676.957 583.566C675.421 583.651 673.885 583.694 672.349 583.694ZM674.141 651.022C675.591 651.192 676.957 651.32 678.237 651.406C679.602 651.491 681.01 651.534 682.461 651.534C683.826 651.534 685.49 651.491 687.453 651.406C689.501 651.235 691.634 650.979 693.853 650.638C696.157 650.296 698.418 649.827 700.637 649.23C702.941 648.632 704.989 647.864 706.781 646.926C708.573 645.987 710.023 644.835 711.133 643.47C712.327 642.104 712.925 640.483 712.925 638.606C712.925 637.582 712.754 636.6 712.413 635.662C712.071 634.723 711.602 633.827 711.005 632.974C711.431 633.656 711.773 634.424 712.029 635.278C712.37 636.046 712.541 636.856 712.541 637.71C712.541 640.611 711.559 642.915 709.597 644.622C707.634 646.328 705.245 647.651 702.429 648.59C699.698 649.443 696.839 649.998 693.853 650.254C690.866 650.51 688.306 650.638 686.173 650.638C684.21 650.638 682.205 650.595 680.157 650.51C678.194 650.339 676.231 650.168 674.269 649.998L674.141 651.022ZM662.621 648.974C662.791 645.987 662.877 642.958 662.877 639.886V630.798C662.877 629.091 662.834 627.427 662.749 625.806C662.663 624.27 662.535 622.734 662.365 621.198C662.365 623.416 662.365 625.635 662.365 627.854C662.45 630.158 662.493 632.462 662.493 634.766C662.493 637.155 662.45 639.502 662.365 641.806C662.279 644.11 662.066 646.414 661.725 648.718L662.621 648.974ZM686.813 612.366C688.349 611.427 689.799 610.446 691.165 609.422C692.615 608.398 693.938 607.203 695.133 605.838C694.706 605.838 694.493 605.667 694.493 605.326C691.847 608.227 688.562 610.488 684.637 612.11L686.813 612.366ZM693.469 624.27C696.029 624.696 698.759 625.507 701.661 626.702C704.135 627.726 706.354 628.92 708.317 630.286C706.439 628.75 704.221 627.427 701.661 626.318C698.845 624.952 696.157 624.27 693.597 624.27H693.469ZM664.285 586.51L665.181 584.462L663.133 584.718C663.133 584.888 663.133 585.059 663.133 585.23C663.218 585.315 663.261 585.443 663.261 585.614C663.261 585.784 663.218 585.955 663.133 586.126C663.133 586.211 663.133 586.339 663.133 586.51H664.285ZM720.477 645.006C721.33 642.787 721.757 640.696 721.757 638.734V637.326C721.757 636.814 721.714 636.344 721.629 635.918C721.629 638.648 721.33 641.208 720.733 643.598C720.221 645.902 719.069 648.078 717.277 650.126C718.642 648.76 719.709 647.054 720.477 645.006ZM672.477 624.014C672.135 625.635 671.922 627.256 671.837 628.878C671.751 630.243 671.709 631.651 671.709 633.102C671.794 631.736 671.922 630.371 672.093 629.006C672.263 627.384 672.391 625.72 672.477 624.014ZM717.021 650.382C715.399 652.088 713.607 653.454 711.645 654.478C709.682 655.502 707.634 656.44 705.501 657.294C707.719 656.526 709.81 655.63 711.773 654.606C713.735 653.582 715.485 652.174 717.021 650.382ZM713.053 621.71C713.821 622.392 714.546 623.075 715.229 623.758L717.021 625.55C716.509 624.782 715.954 624.099 715.357 623.502C714.759 622.819 713.991 622.222 713.053 621.71ZM671.709 647.566V643.726C671.623 644.408 671.538 645.048 671.453 645.646C671.453 646.243 671.453 646.883 671.453 647.566H671.709ZM707.677 633.614C709.042 634.723 709.725 636.046 709.725 637.582V637.838C709.469 636.302 708.786 634.894 707.677 633.614ZM707.293 643.086C706.525 643.854 705.586 644.451 704.477 644.878L707.293 643.086ZM671.197 650.638H671.709V649.742H671.197V650.638ZM708.829 640.91C708.743 640.91 708.701 640.824 708.701 640.654C708.701 640.483 708.743 640.27 708.829 640.014C708.999 639.672 709.17 639.416 709.341 639.246L708.829 640.91ZM709.725 638.606C709.725 638.691 709.639 638.819 709.469 638.99L709.725 638.478V638.606ZM735.386 619.278C735.642 625.251 735.898 631.224 736.154 637.198C736.495 643.171 736.751 649.144 736.922 655.118V655.758L736.538 655.374V654.478C736.111 646.798 735.684 639.246 735.258 631.822C734.916 624.312 734.746 616.718 734.746 609.038V594.574C734.746 592.27 734.746 590.008 734.746 587.79C734.831 585.486 734.916 583.182 735.002 580.878C735.087 578.232 735.3 575.672 735.642 573.198C735.983 570.638 736.154 567.992 736.154 565.262H736.666C737.263 565.262 737.775 565.219 738.202 565.134C738.628 565.048 738.97 565.006 739.226 565.006C740.079 565.006 740.591 565.56 740.762 566.67C740.932 567.779 741.018 568.632 741.018 569.23L740.89 571.918H742.426C742.511 571.406 742.639 570.595 742.81 569.486C743.066 568.291 743.407 567.096 743.834 565.902C744.26 564.707 744.73 563.683 745.242 562.83C745.839 561.891 746.522 561.422 747.29 561.422C748.143 561.422 748.783 562.19 749.21 563.726C749.722 565.262 750.106 567.096 750.362 569.23C750.618 571.278 750.746 573.411 750.746 575.63C750.831 577.763 750.874 579.47 750.874 580.75V582.286C750.874 592.099 750.959 601.912 751.13 611.726C751.3 621.539 751.386 631.352 751.386 641.166C751.386 641.934 751.343 642.744 751.258 643.598C751.258 644.366 751.258 645.134 751.258 645.902C751.258 646.328 751.258 646.712 751.258 647.054C751.343 647.395 751.386 647.779 751.386 648.206H752.666C753.434 648.206 754.202 648.248 754.97 648.334C755.738 648.334 756.506 648.334 757.274 648.334C762.65 648.334 767.94 648.078 773.146 647.566C778.436 646.968 783.77 646.67 789.146 646.67H789.658C790.511 646.67 791.535 646.798 792.73 647.054C793.924 647.224 794.522 647.822 794.522 648.846V649.102C789.999 649.102 785.562 649.272 781.21 649.614C776.858 649.87 772.42 650.211 767.898 650.638C771.226 650.467 774.511 650.254 777.754 649.998C781.082 649.742 784.41 649.614 787.738 649.614C788.847 649.614 789.914 649.656 790.938 649.742C791.962 649.742 793.028 649.784 794.138 649.87L793.626 651.406C794.138 651.491 794.82 651.619 795.674 651.79C796.527 651.875 797.338 652.088 798.106 652.43C798.959 652.771 799.684 653.198 800.282 653.71C800.879 654.136 801.178 654.691 801.178 655.374C801.178 656.568 800.623 657.379 799.514 657.806C798.404 658.318 797.38 658.787 796.442 659.214C795.162 658.787 793.796 658.531 792.346 658.446C790.98 658.446 789.615 658.446 788.25 658.446C785.263 658.446 782.319 658.574 779.418 658.83C776.687 659.086 773.914 659.342 771.098 659.598C773.146 659.512 775.108 659.427 776.986 659.342C779.119 659.256 781.252 659.214 783.386 659.214C785.263 659.214 787.098 659.256 788.89 659.342C790.767 659.427 792.644 659.64 794.522 659.982C792.986 660.664 791.066 661.176 788.762 661.518C786.543 661.859 784.196 662.115 781.722 662.286C779.332 662.456 776.943 662.542 774.554 662.542C772.164 662.627 770.074 662.712 768.282 662.798L767.13 661.518C765.252 661.944 763.375 662.2 761.498 662.286C759.62 662.456 757.7 662.542 755.738 662.542C753.69 662.542 751.642 662.456 749.594 662.286C747.546 662.115 745.54 661.859 743.578 661.518C742.639 660.494 741.7 659.47 740.762 658.446C739.823 657.507 738.799 656.568 737.69 655.63C737.69 649.486 737.519 643.427 737.178 637.454C736.922 631.48 736.58 625.422 736.154 619.278H735.386ZM762.65 660.238C760.602 660.323 758.468 660.366 756.25 660.366C753.604 660.366 751.13 660.28 748.826 660.11C746.522 659.939 744.9 659.64 743.962 659.214L740.122 655.502L738.97 640.398V643.214C738.97 645.176 739.098 647.139 739.354 649.102C739.61 651.064 739.738 653.027 739.738 654.99V655.758C740.42 656.44 741.06 657.123 741.658 657.806C742.34 658.488 742.98 659.214 743.578 659.982H744.474C746.351 659.982 748.186 660.067 749.978 660.238C751.855 660.494 753.732 660.622 755.61 660.622C757.572 660.622 759.492 660.536 761.37 660.366C762.052 660.366 762.778 660.323 763.546 660.238H762.65ZM751.77 651.278C752.196 651.363 752.623 651.448 753.05 651.534C753.562 651.534 754.074 651.534 754.586 651.534C756.804 651.534 759.023 651.491 761.242 651.406C763.46 651.32 765.679 651.064 767.898 650.638C765.167 650.808 762.479 650.894 759.834 650.894C757.188 650.894 754.5 650.936 751.77 651.022V651.278ZM743.194 662.414C744.644 662.84 746.138 663.096 747.674 663.182C749.295 663.352 750.959 663.438 752.666 663.438C753.69 663.438 754.671 663.395 755.61 663.31C756.463 663.31 757.274 663.31 758.042 663.31C757.53 663.395 756.932 663.438 756.25 663.438C755.567 663.523 754.884 663.566 754.202 663.566H751.642C750.618 663.566 749.551 663.523 748.442 663.438C747.418 663.352 746.394 663.267 745.37 663.182C744.431 663.096 743.748 662.968 743.322 662.798C743.066 662.542 742.639 662.072 742.042 661.39C741.444 660.792 740.804 660.152 740.122 659.47C739.439 658.787 738.799 658.104 738.202 657.422C737.69 656.824 737.391 656.44 737.306 656.27L743.194 662.414ZM748.442 650.766L745.626 650.254C746.138 650.424 746.906 650.766 747.93 651.278C748.954 651.704 749.722 651.96 750.234 652.046L749.85 650.638L748.442 650.766ZM847.012 608.654L846.756 608.27C846.756 607.246 846.542 606.136 846.116 604.942C845.774 603.747 845.348 602.552 844.836 601.358C844.324 600.163 843.726 599.011 843.044 597.902C842.446 596.707 841.892 595.598 841.38 594.574L840.484 594.062C841.593 596.707 842.745 599.096 843.94 601.23C845.134 603.363 845.732 605.624 845.732 608.014L846.372 608.782L845.22 608.27V607.502C843.684 604.515 842.19 601.272 840.74 597.774C839.374 594.19 837.966 590.904 836.516 587.918C835.662 593.635 834.596 599.352 833.316 605.07C832.036 610.787 830.414 616.334 828.452 621.71C826.745 626.318 824.697 630.755 822.308 635.022C819.918 639.203 817.913 643.64 816.292 648.334L815.268 647.566L813.86 647.822C813.092 647.651 812.708 647.139 812.708 646.286C812.708 645.603 812.836 644.792 813.092 643.854C813.348 642.83 813.646 641.806 813.988 640.782C814.414 639.758 814.841 638.776 815.268 637.838C815.694 636.814 816.036 636.003 816.292 635.406L815.14 635.022C814.884 635.534 814.244 636.686 813.22 638.478C812.281 640.27 811.214 642.104 810.02 643.982C808.91 645.859 807.801 647.566 806.692 649.102C805.582 650.638 804.729 651.406 804.132 651.406C803.705 651.15 803.406 650.766 803.236 650.254C803.065 649.656 802.98 649.144 802.98 648.718C802.98 646.243 803.534 643.043 804.644 639.118C805.838 635.192 807.204 631.139 808.74 626.958C810.276 622.691 811.812 618.552 813.348 614.542C814.969 610.531 816.206 607.16 817.06 604.43C817.828 602.04 818.51 599.48 819.108 596.75C819.79 593.934 820.345 591.118 820.772 588.302C821.284 585.4 821.71 582.542 822.052 579.726C822.393 576.91 822.692 574.222 822.948 571.662C824.398 570.552 826.361 569.614 828.836 568.846C831.396 568.078 833.742 567.267 835.876 566.414C840.484 570.168 844.452 574.478 847.78 579.342C851.108 584.206 854.009 589.71 856.484 595.854C858.02 593.55 859.428 590.99 860.708 588.174C862.073 585.358 863.31 582.456 864.42 579.47C865.529 576.398 866.596 573.368 867.62 570.382C868.644 567.395 869.668 564.622 870.692 562.062C872.825 561.379 875.044 560.867 877.348 560.526C879.737 560.184 882.084 559.8 884.388 559.374C886.692 564.152 888.868 568.718 890.916 573.07C892.964 577.422 894.841 581.816 896.548 586.254C898.34 590.606 899.918 595.086 901.284 599.694C902.734 604.302 904.014 609.251 905.124 614.542C905.636 617.272 906.276 620.046 907.044 622.862C907.812 625.592 908.494 628.366 909.092 631.182C909.774 633.998 910.329 636.814 910.756 639.63C911.268 642.446 911.524 645.262 911.524 648.078C911.524 648.334 911.396 648.675 911.14 649.102C910.969 649.528 910.542 649.784 909.86 649.87C908.494 641.848 907.001 633.912 905.38 626.062C903.758 618.382 901.753 610.744 899.364 603.15C901.497 610.744 903.332 618.296 904.868 625.806C906.489 633.571 907.897 641.464 909.092 649.486L907.3 650.51C907.47 651.534 907.684 652.6 907.94 653.71C908.196 654.819 908.324 655.886 908.324 656.91C908.324 657.166 908.281 657.678 908.196 658.446C908.196 659.299 908.11 660.152 907.94 661.006C907.854 661.859 907.641 662.584 907.3 663.182C907.044 663.864 906.66 664.206 906.148 664.206C905.636 664.206 905.081 663.864 904.484 663.182C903.972 662.584 903.46 661.816 902.948 660.878C902.521 660.024 902.094 659.171 901.668 658.318C901.326 657.55 901.07 656.952 900.9 656.526C900.388 650.894 899.492 644.622 898.212 637.71C897.017 630.712 895.566 623.672 893.86 616.59C892.153 609.422 890.19 602.51 887.972 595.854C885.838 589.112 883.577 583.182 881.188 578.062L881.06 578.702C883.79 584.504 886.137 590.478 888.1 596.622C890.062 602.68 891.769 608.867 893.22 615.182C894.67 621.411 895.908 627.726 896.932 634.126C897.956 640.44 898.852 646.712 899.62 652.942C897.828 649.016 896.377 645.048 895.268 641.038C894.244 636.942 893.305 632.888 892.452 628.878C891.684 624.782 890.873 620.686 890.02 616.59C889.252 612.494 888.27 608.355 887.076 604.174L887.972 601.614C886.777 598.115 885.54 594.659 884.26 591.246C883.065 587.832 881.657 584.504 880.036 581.262L879.524 582.542C878.585 585.102 877.39 588.088 875.94 591.502C874.489 594.915 872.782 598.243 870.82 601.486C868.857 604.728 866.638 607.63 864.164 610.19C861.774 612.75 859.129 614.456 856.228 615.31C854.436 614.2 852.601 613.176 850.724 612.238C848.932 611.214 847.097 610.19 845.22 609.166V608.398L850.34 611.214C852.046 612.152 853.753 613.134 855.46 614.158L856.484 613.902C860.153 611.768 863.097 609.635 865.316 607.502C867.62 605.368 869.582 603.022 871.204 600.462C872.825 597.902 874.233 595.043 875.428 591.886C876.708 588.643 878.158 584.974 879.78 580.878L879.268 579.726L878.756 580.878L876.58 585.87C875.726 587.918 874.66 590.136 873.38 592.526C872.185 594.83 870.82 597.219 869.284 599.694C867.833 602.083 866.34 604.302 864.804 606.35C863.268 608.312 861.689 609.934 860.068 611.214C858.446 612.408 856.91 613.006 855.46 613.006L847.012 608.654ZM891.044 577.678C890.873 577.166 890.574 576.483 890.148 575.63C889.721 574.691 889.252 573.752 888.74 572.814C888.313 571.875 887.886 570.979 887.46 570.126C887.033 569.187 886.692 568.504 886.436 568.078L887.844 572.046L890.66 577.934L891.044 577.678ZM877.604 578.19L873.252 589.71C874.105 587.918 874.873 586.126 875.556 584.334C876.324 582.542 877.049 580.75 877.732 578.958L877.604 578.19ZM874.276 566.414L875.94 570.638L876.58 570.51L875.044 566.414H874.276ZM824.228 573.326L823.972 577.166C823.972 578.019 823.886 579.171 823.716 580.622L825.124 573.07L824.228 573.326ZM868.004 576.014L871.332 568.078H870.82L868.004 576.014ZM886.052 567.31L883.108 562.446L883.364 563.854L886.052 567.31ZM880.548 576.654L880.292 577.166L880.804 578.19L880.932 577.55L880.548 576.654Z" fill="white"/>
</svg>
