<svg width="1000" height="1000" viewBox="0 0 1000 1000" fill="none" xmlns="http://www.w3.org/2000/svg">
<g clip-path="url(#clip0_796_66574)">
<mask id="path-1-inside-1_796_66574" fill="white">
<path fill-rule="evenodd" clip-rule="evenodd" d="M697.047 988C806.123 988 894.547 890.174 894.547 769.5C894.547 648.826 806.123 551 697.047 551C683.389 551 670.055 552.534 657.179 555.454V555L645.905 558.397C645.318 558.57 644.732 558.747 644.148 558.926L534.371 592V645.561C512.408 680.778 499.547 723.477 499.547 769.5C499.547 815.523 512.408 858.222 534.371 893.439V946.545L628.552 974.502C649.891 983.232 672.966 988 697.047 988Z"/>
</mask>
<path fill-rule="evenodd" clip-rule="evenodd" d="M697.047 988C806.123 988 894.547 890.174 894.547 769.5C894.547 648.826 806.123 551 697.047 551C683.389 551 670.055 552.534 657.179 555.454V555L645.905 558.397C645.318 558.57 644.732 558.747 644.148 558.926L534.371 592V645.561C512.408 680.778 499.547 723.477 499.547 769.5C499.547 815.523 512.408 858.222 534.371 893.439V946.545L628.552 974.502C649.891 983.232 672.966 988 697.047 988Z" fill="#929292"/>
<path d="M657.179 555.454H649.179V565.471L658.948 563.256L657.179 555.454ZM657.179 555H665.179V544.235L654.871 547.34L657.179 555ZM645.905 558.397L648.174 566.068L648.193 566.062L648.212 566.057L645.905 558.397ZM644.148 558.926L646.456 566.586L646.475 566.58L646.494 566.574L644.148 558.926ZM534.371 592L532.063 584.34L526.371 586.055V592H534.371ZM534.371 645.561L541.159 649.795L542.371 647.852V645.561H534.371ZM534.371 893.439H542.371V891.148L541.159 889.205L534.371 893.439ZM534.371 946.545H526.371V952.515L532.094 954.214L534.371 946.545ZM628.552 974.502L631.581 967.098L631.211 966.947L630.829 966.833L628.552 974.502ZM886.547 769.5C886.547 886.536 800.963 980 697.047 980V996C811.283 996 902.547 893.813 902.547 769.5H886.547ZM697.047 559C800.963 559 886.547 652.464 886.547 769.5H902.547C902.547 645.187 811.283 543 697.047 543V559ZM658.948 563.256C671.25 560.466 683.991 559 697.047 559V543C682.788 543 668.861 544.602 655.409 547.652L658.948 563.256ZM649.179 555V555.454H665.179V555H649.179ZM648.212 566.057L659.486 562.66L654.871 547.34L643.597 550.737L648.212 566.057ZM646.494 566.574C647.053 566.403 647.613 566.234 648.174 566.068L643.636 550.725C643.023 550.906 642.411 551.091 641.801 551.278L646.494 566.574ZM536.679 599.66L646.456 566.586L641.84 551.266L532.063 584.34L536.679 599.66ZM542.371 645.561V592H526.371V645.561H542.371ZM507.547 769.5C507.547 724.973 519.989 683.741 541.159 649.795L527.583 641.328C504.827 677.816 491.547 721.982 491.547 769.5H507.547ZM541.159 889.205C519.989 855.259 507.547 814.027 507.547 769.5H491.547C491.547 817.018 504.827 861.184 527.583 897.672L541.159 889.205ZM542.371 946.545V893.439H526.371V946.545H542.371ZM630.829 966.833L536.648 938.875L532.094 954.214L626.275 982.171L630.829 966.833ZM697.047 980C674.034 980 651.986 975.445 631.581 967.098L625.523 981.907C647.796 991.018 671.897 996 697.047 996V980Z" fill="black" mask="url(#path-1-inside-1_796_66574)"/>
<path d="M894.547 769.5C894.547 827.45 873.739 883.026 836.7 924.003C799.662 964.98 749.427 988 697.047 988C644.667 988 594.432 964.98 557.393 924.003C520.355 883.026 499.547 827.45 499.547 769.5L697.047 769.5H894.547Z" fill="black" fill-opacity="0.25"/>
<path d="M499.547 769.5C499.547 740.806 504.655 712.393 514.581 685.884C524.506 659.374 539.054 635.287 557.393 614.997C575.733 594.708 597.505 578.613 621.467 567.632C645.429 556.652 671.111 551 697.047 551C722.983 551 748.665 556.652 772.627 567.632C796.589 578.613 818.361 594.708 836.701 614.997C855.04 635.287 869.588 659.374 879.513 685.884C889.438 712.393 894.547 740.806 894.547 769.5L870.806 769.5C870.806 744.256 866.311 719.258 857.579 695.935C848.847 672.612 836.048 651.42 819.913 633.57C803.778 615.719 784.623 601.559 763.542 591.899C742.46 582.238 719.865 577.266 697.047 577.266C674.229 577.266 651.634 582.238 630.552 591.899C609.471 601.559 590.316 615.719 574.181 633.57C558.046 651.42 545.247 672.612 536.515 695.935C527.782 719.258 523.288 744.255 523.288 769.5L499.547 769.5Z" fill="black" fill-opacity="0.25"/>
<path d="M529 730.5C529 685.546 547.016 642.433 579.085 610.645C611.153 578.858 654.648 561 700 561C745.352 561 786.847 578.858 818.915 610.645C850.984 642.433 879 685.546 883 730.5L700 730.5H529Z" fill="white" fill-opacity="0.25"/>
<path d="M770.547 769.5C770.547 873.996 694.065 958 600.547 958C507.029 958 430.547 873.996 430.547 769.5C430.547 665.004 507.029 581 600.547 581C694.065 581 770.547 665.004 770.547 769.5Z" fill="#929292" stroke="black" stroke-width="8"/>
<path d="M596.547 945C685.626 945 756.547 865.677 756.547 769.5C756.547 673.323 685.626 594 596.547 594C507.468 594 436.547 673.323 436.547 769.5C436.547 865.677 507.468 945 596.547 945Z" stroke="white" stroke-opacity="0.25" stroke-width="16"/>
<path d="M491.547 770.5C491.547 756.12 494.108 741.881 499.083 728.596C504.058 715.311 511.35 703.24 520.543 693.072C529.736 682.904 540.65 674.838 552.661 669.335C564.672 663.832 577.546 661 590.547 661C603.548 661 616.421 663.832 628.433 669.335C640.444 674.838 651.357 682.904 660.55 693.072C669.743 703.24 677.036 715.311 682.011 728.596C686.986 741.881 689.547 756.12 689.547 770.5L590.547 770.5L491.547 770.5Z" fill="white" fill-opacity="0.25"/>
<path d="M724.547 770.5C724.547 851.962 664.553 918 590.547 918C516.541 918 456.547 851.962 456.547 770.5C456.547 689.038 516.541 623 590.547 623C664.553 623 724.547 689.038 724.547 770.5ZM484.829 770.5C484.829 834.768 532.161 886.868 590.547 886.868C648.933 886.868 696.264 834.768 696.264 770.5C696.264 706.232 648.933 654.132 590.547 654.132C532.161 654.132 484.829 706.232 484.829 770.5Z" fill="black" fill-opacity="0.25"/>
<rect x="770.449" y="888.893" width="27.953" height="231" rx="13.9765" transform="rotate(-30 770.449 888.893)" fill="#D7D6DC" stroke="black" stroke-width="6"/>
<path d="M788.816 881.752C786.184 883.271 785.283 886.636 786.802 889.268L858.909 1014.16C860.428 1016.79 863.793 1017.69 866.425 1016.17V1016.17C869.057 1014.65 869.959 1011.29 868.439 1008.66L796.333 883.766C794.813 881.134 791.448 880.232 788.816 881.752V881.752Z" fill="black" fill-opacity="0.25"/>
<rect x="819.984" y="1004.04" width="58.8723" height="154.601" rx="27" transform="rotate(-30 819.984 1004.04)" fill="#3C3C3C" stroke="black" stroke-width="6"/>
<path d="M851.151 988.152C844.757 991.844 842.567 1000.02 846.258 1006.41L908.269 1113.82C911.96 1120.21 920.135 1122.4 926.529 1118.71V1118.71C932.923 1115.02 935.113 1106.84 931.422 1100.45L869.411 993.045C865.72 986.651 857.544 984.461 851.151 988.152V988.152Z" fill="black" fill-opacity="0.25"/>
<path fill-rule="evenodd" clip-rule="evenodd" d="M532.173 937.53C528.32 938.972 524.951 941.549 522.894 945.112L395.844 1165.17C389.36 1176.4 374.998 1180.25 363.766 1173.76C352.534 1167.28 348.685 1152.92 355.17 1141.68L474.663 934.717C477.65 929.544 477.347 923.184 475.15 917.629C463.297 887.657 471.496 837.596 486.998 810.747C507.077 775.968 549.411 762.816 581.551 781.373C613.692 799.929 623.469 843.166 603.389 877.946C590.318 900.584 560.36 926.979 532.173 937.53ZM370.417 1161.52C374.564 1163.91 379.896 1162.44 382.326 1158.23C384.756 1154.02 383.363 1148.67 379.216 1146.28C375.069 1143.88 369.737 1145.35 367.308 1149.56C364.878 1153.77 366.27 1159.12 370.417 1161.52Z" fill="#371502"/>
<mask id="path-15-outside-2_796_66574" maskUnits="userSpaceOnUse" x="294.003" y="745.038" width="345.145" height="460.81" fill="black">
<rect fill="white" x="294.003" y="745.038" width="345.145" height="460.81"/>
<path fill-rule="evenodd" clip-rule="evenodd" d="M526.449 932.425C522.327 933.85 518.68 936.499 516.499 940.276L390.761 1158.06C384.276 1169.29 369.914 1173.14 358.682 1166.66C347.45 1160.17 343.602 1145.81 350.086 1134.58L473.104 921.505C475.601 917.181 475.828 911.97 474.523 907.15C466.836 878.771 474.745 836.293 488.377 812.682C507.333 779.85 546.793 767.145 576.515 784.305C606.236 801.464 614.963 841.99 596.008 874.822C583.22 896.971 553.537 923.06 526.449 932.425ZM365.237 1154.59C369.384 1156.98 374.687 1155.56 377.081 1151.41C379.476 1147.27 378.055 1141.96 373.908 1139.57C369.76 1137.18 364.457 1138.6 362.063 1142.74C359.669 1146.89 361.09 1152.19 365.237 1154.59Z"/>
</mask>
<path fill-rule="evenodd" clip-rule="evenodd" d="M526.449 932.425C522.327 933.85 518.68 936.499 516.499 940.276L390.761 1158.06C384.276 1169.29 369.914 1173.14 358.682 1166.66C347.45 1160.17 343.602 1145.81 350.086 1134.58L473.104 921.505C475.601 917.181 475.828 911.97 474.523 907.15C466.836 878.771 474.745 836.293 488.377 812.682C507.333 779.85 546.793 767.145 576.515 784.305C606.236 801.464 614.963 841.99 596.008 874.822C583.22 896.971 553.537 923.06 526.449 932.425ZM365.237 1154.59C369.384 1156.98 374.687 1155.56 377.081 1151.41C379.476 1147.27 378.055 1141.96 373.908 1139.57C369.76 1137.18 364.457 1138.6 362.063 1142.74C359.669 1146.89 361.09 1152.19 365.237 1154.59Z" fill="#DD933C"/>
<path d="M516.499 940.276L521.695 943.276L516.499 940.276ZM526.449 932.425L528.409 938.095L528.409 938.095L526.449 932.425ZM390.761 1158.06L385.565 1155.06L390.761 1158.06ZM474.523 907.15L480.314 905.581L480.314 905.581L474.523 907.15ZM521.695 943.276C523.021 940.979 525.38 939.143 528.409 938.095L524.489 926.754C519.275 928.556 514.338 932.019 511.303 937.276L521.695 943.276ZM395.957 1161.06L521.695 943.276L511.303 937.276L385.565 1155.06L395.957 1161.06ZM355.682 1171.85C369.784 1179.99 387.815 1175.16 395.957 1161.06L385.565 1155.06C380.737 1163.42 370.044 1166.29 361.682 1161.46L355.682 1171.85ZM344.89 1131.58C336.749 1145.68 341.58 1163.71 355.682 1171.85L361.682 1161.46C353.32 1156.63 350.455 1145.94 355.283 1137.58L344.89 1131.58ZM467.908 918.505L344.89 1131.58L355.283 1137.58L478.3 924.505L467.908 918.505ZM468.731 908.718C469.728 912.399 469.419 915.887 467.908 918.505L478.3 924.505C481.782 918.474 481.928 911.54 480.314 905.581L468.731 908.718ZM483.181 809.682C475.907 822.28 470.333 839.547 467.53 857.186C464.73 874.804 464.592 893.436 468.731 908.718L480.314 905.581C476.767 892.485 476.74 875.688 479.381 859.069C482.019 842.471 487.216 826.694 493.574 815.682L483.181 809.682ZM579.515 779.109C546.449 760.018 503.506 774.479 483.181 809.682L493.574 815.682C511.16 785.221 547.137 774.272 573.515 789.501L579.515 779.109ZM601.204 877.822C621.529 842.619 612.58 798.199 579.515 779.109L573.515 789.501C599.892 804.73 608.398 841.361 590.812 871.822L601.204 877.822ZM528.409 938.095C542.845 933.105 557.673 923.787 570.459 913.004C583.244 902.223 594.376 889.65 601.204 877.822L590.812 871.822C584.853 882.144 574.749 893.689 562.723 903.831C550.699 913.971 537.141 922.38 524.489 926.754L528.409 938.095ZM371.885 1148.41C371.148 1149.69 369.514 1150.13 368.237 1149.39L362.237 1159.78C369.254 1163.84 378.226 1161.43 382.277 1154.41L371.885 1148.41ZM370.908 1144.77C372.185 1145.5 372.623 1147.14 371.885 1148.41L382.277 1154.41C386.329 1147.4 383.924 1138.42 376.908 1134.37L370.908 1144.77ZM367.259 1145.74C367.997 1144.47 369.63 1144.03 370.908 1144.77L376.908 1134.37C369.891 1130.32 360.918 1132.73 356.867 1139.74L367.259 1145.74ZM368.237 1149.39C366.959 1148.65 366.522 1147.02 367.259 1145.74L356.867 1139.74C352.816 1146.76 355.22 1155.73 362.237 1159.78L368.237 1149.39Z" fill="black" mask="url(#path-15-outside-2_796_66574)"/>
<path d="M527.16 934.469C554.72 925.664 585.442 898.908 598.513 876.269C617.468 843.438 608.741 802.912 579.02 785.752L361.189 1168.1C372.421 1174.59 386.783 1170.74 393.268 1159.51L519.953 940.082C521.529 937.354 524.158 935.428 527.16 934.469Z" fill="black" fill-opacity="0.25"/>
<path d="M584.445 871.073C576.659 884.561 561.08 900.02 544.316 910.287C535.95 915.411 527.413 919.163 519.528 920.768C511.641 922.374 504.616 921.795 499.01 918.558C493.403 915.321 489.39 909.527 486.836 901.893C484.284 894.262 483.265 884.993 483.519 875.186C484.029 855.535 489.628 834.313 497.415 820.826C512.906 793.994 544.928 783.973 568.766 797.736C592.605 811.499 599.937 844.241 584.445 871.073Z" fill="#FFBF74" stroke="black" stroke-width="5"/>
<path d="M499.681 922.526C474.452 907.96 481.107 849.203 497.171 821.379C513.235 793.556 546.709 782.808 571.938 797.374C540.755 812.606 482.649 858.96 499.681 922.526Z" fill="black" fill-opacity="0.25"/>
</g>
<defs>
<clipPath id="clip0_796_66574">
<rect width="1000" height="1000" fill="white"/>
</clipPath>
</defs>
</svg>
