<svg width="1000" height="1000" viewBox="0 0 1000 1000" fill="none" xmlns="http://www.w3.org/2000/svg">
<g clip-path="url(#clip0_772_53471)">
<mask id="path-1-inside-1_772_53471" fill="white">
<path fill-rule="evenodd" clip-rule="evenodd" d="M854 679V669C854 651.327 839.673 637 822 637H758C740.327 637 726 651.327 726 669V679H662C634.386 679 612 701.386 612 729V861C612 888.614 634.386 911 662 911H890C917.614 911 940 888.614 940 861V729C940 701.386 917.614 679 890 679H854Z"/>
</mask>
<path fill-rule="evenodd" clip-rule="evenodd" d="M854 679V669C854 651.327 839.673 637 822 637H758C740.327 637 726 651.327 726 669V679H662C634.386 679 612 701.386 612 729V861C612 888.614 634.386 911 662 911H890C917.614 911 940 888.614 940 861V729C940 701.386 917.614 679 890 679H854Z" fill="#3C3C3C"/>
<path d="M854 679H846V687H854V679ZM726 679V687H734V679H726ZM862 679V669H846V679H862ZM862 669C862 646.909 844.091 629 822 629V645C835.255 645 846 655.745 846 669H862ZM822 629H758V645H822V629ZM758 629C735.909 629 718 646.909 718 669H734C734 655.745 744.745 645 758 645V629ZM718 669V679H734V669H718ZM662 687H726V671H662V687ZM620 729C620 705.804 638.804 687 662 687V671C629.967 671 604 696.967 604 729H620ZM620 861V729H604V861H620ZM662 903C638.804 903 620 884.196 620 861H604C604 893.033 629.967 919 662 919V903ZM890 903H662V919H890V903ZM932 861C932 884.196 913.196 903 890 903V919C922.033 919 948 893.033 948 861H932ZM932 729V861H948V729H932ZM890 687C913.196 687 932 705.804 932 729H948C948 696.967 922.033 671 890 671V687ZM854 687H890V671H854V687Z" fill="black" mask="url(#path-1-inside-1_772_53471)"/>
<circle cx="836.5" cy="735.5" r="11.5" fill="#D7D6DC" stroke="black" stroke-width="4"/>
<path d="M898 683H936C947.046 683 956 691.954 956 703V887C956 898.046 947.046 907 936 907H898C885.85 907 876 897.15 876 885V705C876 692.85 885.85 683 898 683Z" fill="#3C3C3C" stroke="black" stroke-width="8"/>
<path d="M834.043 643.421L856.043 651.294C860.815 653.002 864 657.524 864 662.592V679C864 681.209 862.209 683 860 683H830C823.373 683 818 677.627 818 671V654.719C818 646.418 826.227 640.624 834.043 643.421Z" fill="#3C3C3C" stroke="black" stroke-width="8"/>
<path d="M639 670H651C662.046 670 671 678.954 671 690V873C671 884.046 662.046 893 651 893H639C626.85 893 617 883.15 617 871V692C617 679.85 626.85 670 639 670Z" fill="#3C3C3C" stroke="black" stroke-width="8"/>
<path d="M712 683H716V679V673C716 669.134 712.866 666 709 666H687C683.134 666 680 669.134 680 673V679V683H684H712Z" fill="#D7D6DC" stroke="black" stroke-width="8"/>
<path d="M623 882H954V882C954 895.807 942.807 907 929 907H648C634.193 907 623 895.807 623 882V882Z" fill="black" fill-opacity="0.25"/>
<path d="M868 687L731 687L731 668L849 668C859.493 668 868 676.507 868 687V687Z" fill="black" fill-opacity="0.25"/>
<path d="M676 698H945V698C942.803 691.43 936.651 687 929.723 687H676V698Z" fill="white" fill-opacity="0.25"/>
<path d="M764.997 725.613L768.741 726.579C794.795 733.302 813 756.801 813 783.708V813.747C813 836.937 799.416 857.976 778.281 867.519L768.231 872.057C754.993 878.035 740 868.354 740 853.829V744.979C740 731.905 752.338 722.347 764.997 725.613Z" fill="#929292" stroke="black" stroke-width="8"/>
<path d="M704.75 892.332V710.593L727.094 715.895C765.545 725.019 792.693 759.362 792.693 798.881C792.693 833.35 771.945 864.431 740.111 877.649L704.75 892.332Z" fill="#3C3C3C" stroke="black" stroke-width="8"/>
<path d="M611.64 691.211L685.738 704.988C728.842 713.002 760.104 750.612 760.104 794.454V811.888C760.104 851.412 734.591 886.417 696.965 898.518L614.108 925.165C601.197 929.318 587.984 919.688 587.984 906.126V710.874C587.984 698.363 599.341 688.924 611.64 691.211Z" fill="#929292" stroke="black" stroke-width="8"/>
<path d="M686.791 807.812C686.791 841.752 676.246 872.332 659.382 894.342C642.522 916.348 619.51 929.624 594.396 929.624C569.281 929.624 546.27 916.348 529.409 894.342C512.545 872.332 502 841.752 502 807.812C502 773.872 512.545 743.292 529.409 721.282C546.27 699.276 569.281 686 594.396 686C619.51 686 642.522 699.276 659.382 721.282C676.246 743.292 686.791 773.872 686.791 807.812Z" fill="#3C3C3C" stroke="black" stroke-width="8"/>
<path d="M685.889 806.906C685.889 837.36 676.552 864.779 661.645 884.496C646.741 904.211 626.446 916.046 604.354 916.046C582.262 916.046 561.968 904.211 547.063 884.496C532.157 864.779 522.82 837.36 522.82 806.906C522.82 776.452 532.157 749.033 547.063 729.316C561.968 709.601 582.262 697.766 604.354 697.766C626.446 697.766 646.741 709.601 661.645 729.316C676.552 749.033 685.889 776.452 685.889 806.906Z" fill="#3C3C3C" stroke="black" stroke-width="8"/>
<ellipse cx="600.28" cy="805.55" rx="51.592" ry="71.9573" fill="black" fill-opacity="0.25"/>
<path d="M647.872 805.549C647.872 821.122 643.049 835.072 635.437 845.043C627.828 855.011 617.602 860.835 606.616 860.835C595.629 860.835 585.403 855.011 577.794 845.043C570.182 835.072 565.359 821.122 565.359 805.549C565.359 789.976 570.182 776.026 577.794 766.055C585.403 756.087 595.629 750.264 606.616 750.264C617.602 750.264 627.828 756.087 635.437 766.055C643.049 776.026 647.872 789.976 647.872 805.549Z" fill="#4E9AE9" stroke="black" stroke-width="8"/>
<ellipse cx="597.566" cy="810.075" rx="22.6281" ry="29.4165" fill="white" fill-opacity="0.25"/>
<ellipse cx="597.566" cy="810.075" rx="22.6281" ry="29.4165" fill="white" fill-opacity="0.25"/>
<path d="M640.107 809.971C640.107 825.592 625.442 854.948 609.628 850.875C597.8 847.829 624.64 832.163 624.64 809.971C624.64 789.519 616.452 773.418 626.005 773.418C635.558 773.418 640.107 794.349 640.107 809.971Z" fill="black" fill-opacity="0.25"/>
<circle cx="611.143" cy="769.797" r="10.8615" fill="white" fill-opacity="0.25"/>
<path d="M719.5 887.5L644.5 914.5C668.883 896.993 677.845 872.025 678.5 865C680.139 862.704 713.089 858.917 808 837.195C804.723 863.132 800 900.5 751.303 900.5C736.358 900.5 721.685 895.74 719.5 887.5Z" fill="black" fill-opacity="0.25"/>
<rect x="778.727" y="950.247" width="91.7533" height="24.7742" transform="rotate(90 778.727 950.247)" fill="#3C3C3C" stroke="black" stroke-width="6"/>
<path d="M815.836 950.247L815.836 1042L777.485 1042L777.485 950.247L815.836 950.247Z" fill="#929292" stroke="black" stroke-width="6"/>
<rect x="702.359" y="914.042" width="166.879" height="32.0152" rx="13" fill="#3C3C3C" stroke="black" stroke-width="6"/>
<path d="M701.172 930.049H868.62V930.049C868.62 939.547 860.92 947.246 851.422 947.246H718.369C708.871 947.246 701.172 939.547 701.172 930.049V930.049Z" fill="black" fill-opacity="0.25"/>
<path d="M788.473 946.627L818.199 946.627L886.304 1041.55L856.578 1041.55L788.473 946.627Z" fill="#3C3C3C" stroke="black" stroke-width="6"/>
<path d="M789.456 946.627L759.731 946.627L691.626 1041.55L721.351 1041.55L789.456 946.627Z" fill="#3C3C3C" stroke="black" stroke-width="6"/>
<path d="M816.532 946.627L867.98 946.627L936.085 1041.55L884.637 1041.55L816.532 946.627Z" fill="#929292" stroke="black" stroke-width="6"/>
<path d="M761.398 946.627L709.95 946.627L641.845 1041.55L693.293 1041.55L761.398 946.627Z" fill="#929292" stroke="black" stroke-width="6"/>
</g>
<defs>
<clipPath id="clip0_772_53471">
<rect width="1000" height="1000" fill="white"/>
</clipPath>
</defs>
</svg>
