<svg width="1000" height="1000" viewBox="0 0 1000 1000" fill="none" xmlns="http://www.w3.org/2000/svg">
<rect x="767" y="423" width="26" height="577" fill="black"/>
<rect x="585" y="460" width="391" height="300" fill="#FF7DEA" stroke="black" stroke-width="8"/>
<rect x="585" y="460" width="20" height="300" fill="black" fill-opacity="0.25"/>
<path d="M665.752 594.507L661.633 567.823L673.502 565.991C675.123 565.741 676.603 566.11 677.941 567.098C679.289 568.086 680.087 569.385 680.336 570.997L682.627 585.84C682.875 587.443 682.505 588.923 681.52 590.28C680.542 591.626 679.242 592.425 677.62 592.675L665.752 594.507ZM671.213 590.619L674.187 590.16C675.012 590.032 675.666 589.633 676.151 588.96C676.644 588.286 676.83 587.551 676.707 586.754L674.416 571.911C674.291 571.105 673.888 570.461 673.206 569.978C672.533 569.484 671.793 569.3 670.987 569.424L668.012 569.883L671.213 590.619ZM689.448 590.849L685.329 564.165L700.144 561.879L700.603 564.853L691.708 566.226L693.081 575.12L699.03 574.202L699.484 577.148L693.536 578.067L694.909 586.961L703.804 585.588L704.263 588.563L689.448 590.849ZM727.1 578.976C727.45 582.963 725.781 585.241 722.094 585.81L716.145 586.728C714.524 586.979 713.04 586.615 711.694 585.637C710.356 584.648 709.561 583.343 709.311 581.722L707.02 566.879C706.774 565.285 707.13 563.812 708.088 562.459C709.055 561.105 710.368 560.3 712.027 560.044L717.975 559.126C721.7 558.551 723.978 560.22 724.809 564.133L721.835 564.592C721.3 562.664 720.167 561.833 718.434 562.1L715.46 562.56C714.645 562.685 713.99 563.085 713.497 563.759C713.002 564.424 712.816 565.159 712.941 565.965L715.232 580.808C715.355 581.605 715.748 582.251 716.413 582.746C717.087 583.239 717.836 583.423 718.661 583.295L721.635 582.836C723.377 582.567 724.207 581.434 724.126 579.435L727.1 578.976ZM735.723 556.387L741.671 555.469C743.292 555.219 744.772 555.588 746.111 556.576C747.458 557.564 748.257 558.863 748.505 560.476L750.796 575.318C751.044 576.921 750.675 578.401 749.689 579.758C748.711 581.104 747.411 581.903 745.79 582.153L739.841 583.071C738.22 583.321 736.736 582.957 735.39 581.979C734.052 580.991 733.257 579.686 733.007 578.064L730.716 563.221C730.466 561.6 730.83 560.121 731.81 558.784C732.797 557.436 734.101 556.637 735.723 556.387ZM736.637 562.307L738.928 577.15C739.051 577.947 739.444 578.593 740.109 579.088C740.783 579.582 741.532 579.765 742.357 579.638C743.181 579.51 743.836 579.111 744.32 578.438C744.814 577.764 744.999 577.029 744.876 576.232L742.585 561.389C742.46 560.583 742.057 559.939 741.376 559.456C740.702 558.962 739.962 558.778 739.156 558.902C738.341 559.028 737.686 559.428 737.193 560.102C736.697 560.766 736.512 561.501 736.637 562.307ZM757.617 580.327L753.498 553.643L759.419 552.729L763.078 576.439L771.973 575.066L772.432 578.041L757.617 580.327ZM780.196 549.522L786.144 548.604C787.766 548.354 789.246 548.723 790.584 549.712C791.932 550.699 792.73 551.999 792.979 553.611L795.27 568.454C795.517 570.057 795.148 571.537 794.162 572.894C793.184 574.24 791.885 575.038 790.263 575.288L784.315 576.206C782.693 576.457 781.21 576.093 779.863 575.115C778.525 574.126 777.731 572.821 777.48 571.2L775.189 556.357C774.939 554.735 775.304 553.256 776.283 551.919C777.27 550.572 778.575 549.773 780.196 549.522ZM781.11 555.443L783.401 570.286C783.524 571.083 783.918 571.729 784.582 572.224C785.256 572.717 786.005 572.901 786.83 572.773C787.654 572.646 788.309 572.246 788.793 571.574C789.287 570.9 789.472 570.165 789.349 569.368L787.058 554.525C786.934 553.719 786.531 553.074 785.849 552.591C785.175 552.098 784.435 551.913 783.629 552.038C782.814 552.163 782.159 552.563 781.666 553.237C781.171 553.902 780.985 554.637 781.11 555.443ZM802.09 573.463L797.972 546.779L799.32 546.571L818.048 558.848L815.761 544.033L818.735 543.574L822.854 570.258L821.492 570.468L802.778 558.189L805.064 573.004L802.09 573.463ZM831.721 568.889L827.602 542.205L833.536 541.289L837.655 567.973L831.721 568.889ZM842.445 539.914L860.234 537.169L860.693 540.143L852.025 562.71L863.894 560.878L864.353 563.853L846.564 566.598L846.104 563.624L854.773 541.057L842.904 542.889L842.445 539.914ZM870.26 562.941L866.141 536.257L880.956 533.97L881.415 536.944L872.52 538.317L873.893 547.212L879.842 546.294L880.296 549.24L874.348 550.158L875.721 559.053L884.616 557.68L885.075 560.654L870.26 562.941ZM626.088 619.854L632.008 618.94L635.668 642.65L638.642 642.191C639.466 642.064 640.121 641.664 640.605 640.991C641.099 640.318 641.284 639.582 641.161 638.785L637.956 618.022L643.877 617.108L647.537 640.818L650.511 640.359C651.317 640.234 651.962 639.836 652.446 639.164C652.94 638.49 653.125 637.755 653.002 636.958L649.797 616.194L655.746 615.276L658.301 631.829C658.727 634.59 658.098 637.125 656.415 639.433C654.74 641.731 652.512 643.095 649.733 643.524L642.075 644.706L641.929 643.761C640.887 644.567 639.532 645.099 637.864 645.356L630.206 646.538L626.088 619.854ZM665.785 641.046L661.666 614.362L676.481 612.076L676.94 615.05L668.046 616.423L669.419 625.317L675.367 624.399L675.822 627.346L669.873 628.264L671.246 637.158L680.141 635.785L680.6 638.76L665.785 641.046ZM686.562 637.839L682.444 611.155L694.312 609.323C695.934 609.073 697.414 609.442 698.752 610.431C700.1 611.418 700.898 612.718 701.147 614.33L701.378 615.831C701.646 617.564 701.36 619.002 700.522 620.147C699.693 621.29 698.31 622.129 696.372 622.665C698.345 622.361 699.915 622.73 701.082 623.774C702.256 624.807 702.964 626.106 703.206 627.672L703.438 629.173C703.685 630.776 703.311 632.257 702.316 633.615C701.329 634.962 700.034 635.76 698.431 636.007L686.562 637.839ZM690.196 622.11L693.17 621.651C693.976 621.527 694.626 621.128 695.12 620.454C695.621 619.769 695.81 619.024 695.685 618.218L695.226 615.244C695.102 614.438 694.699 613.793 694.017 613.31C693.343 612.817 692.603 612.632 691.797 612.757L688.823 613.216L690.196 622.11ZM692.024 633.951L694.998 633.492C695.804 633.368 696.454 632.969 696.947 632.295C697.45 631.62 697.64 630.884 697.517 630.087L697.058 627.113C696.752 625.13 695.608 624.292 693.625 624.598L690.651 625.057L692.024 633.951ZM714.826 606.157L732.615 603.411L733.06 606.388L725.093 613.679L728.067 613.22C729.763 612.958 731.272 613.394 732.595 614.527C733.926 615.65 734.694 616.883 734.902 618.227L735.82 624.175C736.07 625.796 735.697 627.281 734.701 628.631C733.712 629.969 732.416 630.762 730.813 631.009L724.865 631.927C721.372 632.466 719.094 630.798 718.031 626.921L721.005 626.462C721.447 628.404 722.581 629.235 724.406 628.953L727.38 628.494C728.186 628.37 728.837 627.975 729.332 627.311C729.835 626.635 730.024 625.895 729.899 625.089L728.981 619.14C728.91 618.677 728.566 618.109 727.95 617.436C727.343 616.761 726.544 616.5 725.552 616.653L719.632 617.567L719.173 614.593L727.154 607.299L715.285 609.131L714.826 606.157ZM742.64 629.184L741.727 623.263L747.647 622.349L748.561 628.27L742.64 629.184ZM774.82 602.959L771.873 603.413C771.308 601.471 770.219 600.624 768.607 600.873C767.569 601.033 766.825 601.404 766.374 601.986C765.923 602.567 765.774 603.354 765.927 604.345C766.042 605.087 766.441 605.736 767.124 606.295L774.496 612.385C775.854 613.504 776.649 614.809 776.879 616.301L777.111 617.802C777.358 619.404 776.994 620.884 776.017 622.239C775.039 623.585 773.735 624.384 772.104 624.636L769.13 625.095C767.166 625.398 765.611 625.131 764.467 624.292C763.322 623.454 762.599 622.053 762.296 620.088L765.27 619.629C765.283 619.836 765.298 620 765.317 620.12C765.441 620.926 765.846 621.49 766.531 621.811C767.216 622.132 767.93 622.235 768.671 622.121C769.727 621.958 770.447 621.586 770.832 621.005C771.217 620.424 771.334 619.647 771.184 618.674C771.068 617.923 770.669 617.273 769.986 616.724L762.619 610.661C761.262 609.552 760.468 608.247 760.236 606.746L760.004 605.245C759.756 603.633 760.12 602.154 761.098 600.808C762.076 599.462 763.38 598.663 765.011 598.411L767.985 597.952C771.691 597.38 773.97 599.049 774.82 602.959ZM783.987 622.802L780.782 602.038C780.532 600.417 780.896 598.938 781.876 597.601C782.863 596.253 784.167 595.454 785.789 595.204L791.737 594.286C793.358 594.036 794.838 594.405 796.177 595.393C797.524 596.381 798.322 597.68 798.571 599.293L801.776 620.056L795.856 620.97L794.024 609.101L788.075 610.019L789.907 621.888L783.987 622.802ZM787.621 607.073L793.569 606.155L792.651 600.206C792.526 599.4 792.123 598.756 791.442 598.273C790.768 597.779 790.028 597.595 789.222 597.719C788.406 597.845 787.752 598.245 787.258 598.919C786.763 599.583 786.578 600.318 786.702 601.125L787.621 607.073ZM813.603 618.231L811.771 606.362C807.754 606.517 805.476 604.848 804.937 601.355L803.564 592.46L809.485 591.547L810.857 600.441C810.982 601.247 811.382 601.902 812.057 602.405C812.731 602.898 813.475 603.082 814.291 602.956C815.097 602.832 815.747 602.433 816.24 601.759C816.742 601.074 816.93 600.329 816.806 599.523L815.433 590.628L821.353 589.715L822.726 598.609C823.265 602.102 821.596 604.38 817.72 605.444L819.552 617.312L813.603 618.231ZM840.065 614.146L835.946 587.462L837.294 587.254L856.022 599.532L853.736 584.716L856.71 584.257L860.828 610.941L859.466 611.152L840.752 598.872L843.039 613.687L840.065 614.146ZM868.551 582.43L874.499 581.512C876.12 581.261 877.6 581.63 878.939 582.619C880.286 583.606 881.085 584.906 881.333 586.518L883.624 601.361C883.872 602.964 883.503 604.444 882.517 605.801C881.539 607.147 880.239 607.945 878.618 608.196L872.669 609.114C871.048 609.364 869.564 609 868.218 608.022C866.88 607.033 866.085 605.728 865.835 604.107L863.544 589.264C863.294 587.643 863.658 586.163 864.638 584.826C865.625 583.479 866.929 582.68 868.551 582.43ZM869.465 588.35L871.756 603.193C871.879 603.99 872.272 604.636 872.937 605.131C873.611 605.625 874.36 605.808 875.184 605.68C876.009 605.553 876.664 605.153 877.148 604.481C877.642 603.807 877.827 603.072 877.704 602.275L875.413 587.432C875.288 586.626 874.885 585.981 874.204 585.499C873.53 585.005 872.79 584.82 871.984 584.945C871.169 585.071 870.514 585.47 870.02 586.144C869.525 586.809 869.34 587.544 869.465 588.35ZM902.077 604.575L898.418 580.865L892.497 581.778L892.038 578.804L909.828 576.059L910.287 579.033L904.366 579.947L908.026 603.656L902.077 604.575ZM918.722 574.686L924.671 573.768C926.292 573.517 927.772 573.886 929.11 574.875C930.458 575.862 931.256 577.162 931.505 578.774L933.796 593.617C934.043 595.22 933.674 596.7 932.688 598.057C931.71 599.403 930.411 600.201 928.789 600.452L922.841 601.37C921.219 601.62 919.736 601.256 918.389 600.278C917.051 599.289 916.257 597.984 916.007 596.363L913.716 581.52C913.465 579.899 913.83 578.419 914.809 577.082C915.796 575.735 917.101 574.936 918.722 574.686ZM919.636 580.606L921.927 595.449C922.05 596.246 922.444 596.892 923.108 597.387C923.782 597.881 924.531 598.064 925.356 597.936C926.181 597.809 926.835 597.409 927.319 596.737C927.813 596.063 927.998 595.328 927.875 594.531L925.584 579.688C925.46 578.882 925.057 578.237 924.375 577.755C923.701 577.261 922.961 577.076 922.155 577.201C921.34 577.327 920.686 577.726 920.192 578.4C919.697 579.065 919.512 579.8 919.636 580.606ZM646.281 684.54C646.631 688.527 644.962 690.805 641.274 691.374L635.326 692.292C633.705 692.543 632.221 692.179 630.875 691.201C629.536 690.212 628.742 688.907 628.492 687.286L626.201 672.443C625.955 670.849 626.311 669.376 627.269 668.023C628.236 666.669 629.549 665.864 631.207 665.608L637.156 664.69C640.88 664.115 643.159 665.784 643.99 669.697L641.016 670.156C640.481 668.227 639.347 667.397 637.615 667.664L634.641 668.123C633.825 668.249 633.171 668.649 632.677 669.323C632.182 669.987 631.997 670.723 632.121 671.529L634.412 686.372C634.535 687.169 634.929 687.815 635.594 688.31C636.267 688.803 637.017 688.986 637.841 688.859L640.815 688.4C642.557 688.131 643.388 686.998 643.307 684.999L646.281 684.54ZM653.102 689.549L648.983 662.865L663.798 660.578L664.257 663.552L655.363 664.925L656.735 673.82L662.684 672.902L663.138 675.848L657.19 676.766L658.563 685.661L667.458 684.288L667.917 687.262L653.102 689.549ZM673.879 686.342L669.76 659.658L671.108 659.45L689.836 671.727L687.55 656.912L690.524 656.453L694.643 683.137L693.281 683.347L674.566 671.067L676.853 685.883L673.879 686.342ZM703.509 681.768L699.85 658.058L693.929 658.972L693.47 655.998L711.26 653.252L711.719 656.226L705.798 657.14L709.458 680.85L703.509 681.768ZM718.352 679.477L714.234 652.793L726.103 650.961C727.724 650.711 729.204 651.08 730.542 652.069C731.89 653.056 732.688 654.356 732.937 655.968L733.186 657.58C733.39 658.905 733.134 660.254 732.416 661.626C731.697 662.989 730.271 663.835 728.14 664.164L731.087 663.71C731.902 663.584 732.647 663.768 733.32 664.261C733.994 664.755 734.394 665.409 734.52 666.225L736.142 676.731L730.221 677.645L728.848 668.751C728.722 667.935 728.318 667.282 727.635 666.789C726.961 666.296 726.221 666.111 725.415 666.236L722.441 666.695L724.273 678.563L718.352 679.477ZM721.986 663.748L724.96 663.289C725.766 663.165 726.416 662.766 726.91 662.092C727.411 661.407 727.6 660.662 727.475 659.856L727.016 656.882C726.892 656.076 726.489 655.431 725.807 654.948C725.133 654.455 724.393 654.27 723.587 654.395L720.613 654.854L721.986 663.748ZM742.048 675.82L738.843 655.056C738.593 653.435 738.958 651.956 739.937 650.619C740.924 649.271 742.229 648.472 743.85 648.222L749.798 647.304C751.42 647.054 752.9 647.423 754.238 648.411C755.586 649.399 756.384 650.698 756.633 652.31L759.838 673.074L753.917 673.988L752.085 662.119L746.137 663.037L747.969 674.906L742.048 675.82ZM745.682 660.091L751.63 659.173L750.712 653.224C750.588 652.418 750.185 651.774 749.503 651.291C748.829 650.797 748.089 650.613 747.283 650.737C746.468 650.863 745.814 651.263 745.32 651.937C744.825 652.601 744.64 653.336 744.764 654.142L745.682 660.091ZM765.744 672.162L761.626 645.478L767.546 644.564L771.206 668.274L780.1 666.901L780.559 669.876L765.744 672.162ZM789.468 668.501L785.349 641.817L791.284 640.901L795.402 667.585L789.468 668.501ZM800.192 639.525L817.982 636.78L818.441 639.754L809.772 662.322L821.641 660.49L822.1 663.464L804.311 666.21L803.852 663.235L812.52 640.668L800.651 642.5L800.192 639.525ZM828.007 662.552L824.802 641.789C824.552 640.167 824.916 638.688 825.896 637.351C826.883 636.003 828.187 635.204 829.809 634.954L835.757 634.036C837.379 633.786 838.858 634.155 840.197 635.144C841.544 636.131 842.343 637.431 842.591 639.043L845.796 659.806L839.876 660.72L838.044 648.851L832.096 649.769L833.927 661.638L828.007 662.552ZM831.641 646.823L837.589 645.905L836.671 639.957C836.547 639.15 836.143 638.506 835.462 638.023C834.788 637.529 834.048 637.345 833.242 637.469C832.427 637.595 831.772 637.995 831.279 638.669C830.784 639.333 830.598 640.069 830.723 640.875L831.641 646.823ZM854.649 658.44L850.99 634.73L845.069 635.644L844.61 632.67L862.399 629.924L862.858 632.898L856.938 633.812L860.598 657.522L854.649 658.44ZM872.439 655.694L868.32 629.01L874.254 628.094L878.373 654.778L872.439 655.694ZM889.083 625.805L895.032 624.887C896.653 624.637 898.133 625.006 899.471 625.995C900.819 626.982 901.617 628.282 901.866 629.894L904.157 644.737C904.405 646.34 904.035 647.819 903.05 649.176C902.072 650.523 900.772 651.321 899.15 651.571L893.202 652.489C891.581 652.739 890.097 652.376 888.751 651.398C887.412 650.409 886.618 649.104 886.368 647.482L884.077 632.639C883.826 631.018 884.191 629.539 885.17 628.202C886.158 626.854 887.462 626.055 889.083 625.805ZM889.997 631.726L892.288 646.569C892.411 647.365 892.805 648.011 893.47 648.506C894.143 649 894.893 649.183 895.717 649.056C896.542 648.929 897.196 648.529 897.681 647.856C898.174 647.183 898.36 646.447 898.237 645.65L895.946 630.808C895.821 630.001 895.418 629.357 894.736 628.874C894.063 628.38 893.323 628.196 892.517 628.32C891.701 628.446 891.047 628.846 890.553 629.52C890.058 630.184 889.873 630.92 889.997 631.726ZM910.978 649.745L906.859 623.061L908.207 622.853L926.935 635.131L924.648 620.316L927.622 619.857L931.741 646.541L930.379 646.751L911.665 634.471L913.952 649.286L910.978 649.745ZM939.235 636.277L936.489 618.488L942.424 617.572L945.169 635.361L939.235 636.277ZM940.608 645.172L939.694 639.252L945.629 638.336L946.542 644.256L940.608 645.172Z" fill="black"/>
</svg>
