<svg width="1000" height="1000" viewBox="0 0 1000 1000" fill="none" xmlns="http://www.w3.org/2000/svg">
<g clip-path="url(#clip0_787_64800)">
<mask id="path-1-outside-1_787_64800" maskUnits="userSpaceOnUse" x="385.992" y="605.967" width="320" height="161" fill="black">
<rect fill="white" x="385.992" y="605.967" width="320" height="161"/>
<path fill-rule="evenodd" clip-rule="evenodd" d="M392.003 611.967H699.992V737.998H696.343C698.732 739.266 699.992 740.584 699.992 741.936C699.992 751.942 631.047 760.053 545.998 760.053C460.949 760.053 392.004 751.942 392.004 741.936C392.004 740.584 393.263 739.266 395.653 737.998H392.003V611.967Z"/>
</mask>
<path fill-rule="evenodd" clip-rule="evenodd" d="M392.003 611.967H699.992V737.998H696.343C698.732 739.266 699.992 740.584 699.992 741.936C699.992 751.942 631.047 760.053 545.998 760.053C460.949 760.053 392.004 751.942 392.004 741.936C392.004 740.584 393.263 739.266 395.653 737.998H392.003V611.967Z" fill="#E40303"/>
<path d="M699.992 611.967V605.967H705.992V611.967H699.992ZM392.003 611.967H386.003V605.967H392.003V611.967ZM699.992 737.998H705.992V743.998H699.992V737.998ZM696.343 737.998L693.531 743.298L696.343 731.998V737.998ZM699.992 741.936H693.992H699.992ZM395.653 737.998V731.998L398.465 743.298L395.653 737.998ZM392.003 737.998V743.998H386.003V737.998H392.003ZM699.992 617.967H392.003V605.967H699.992V617.967ZM693.992 737.998V611.967H705.992V737.998H693.992ZM696.343 731.998H699.992V743.998H696.343V731.998ZM693.992 741.936C693.992 742.56 694.143 743.085 694.319 743.463C694.485 743.819 694.652 744.002 694.678 744.031C694.706 744.06 694.648 743.993 694.443 743.847C694.243 743.705 693.947 743.519 693.531 743.298L699.156 732.698C700.657 733.495 702.206 734.509 703.449 735.84C704.718 737.2 705.992 739.26 705.992 741.936H693.992ZM545.998 754.053C588.364 754.053 626.617 752.032 654.187 748.788C668.013 747.162 678.932 745.252 686.283 743.208C690.005 742.172 692.467 741.194 693.873 740.386C694.577 739.981 694.733 739.777 694.655 739.868C694.543 739.998 693.992 740.719 693.992 741.936H705.992C705.992 744.405 704.903 746.361 703.739 747.709C702.609 749.018 701.202 750.014 699.854 750.789C697.158 752.339 693.569 753.637 689.498 754.769C681.264 757.059 669.631 759.054 655.589 760.706C627.424 764.019 588.68 766.053 545.998 766.053V754.053ZM398.004 741.936C398.004 740.719 397.453 739.998 397.341 739.868C397.262 739.778 397.419 739.981 398.123 740.386C399.529 741.194 401.991 742.172 405.713 743.208C413.064 745.252 423.983 747.162 437.809 748.788C465.378 752.032 503.632 754.053 545.998 754.053V766.053C503.315 766.053 464.572 764.019 436.406 760.706C422.364 759.054 410.732 757.059 402.497 754.769C398.427 753.637 394.838 752.339 392.142 750.789C390.794 750.014 389.386 749.018 388.257 747.709C387.093 746.361 386.004 744.405 386.004 741.936H398.004ZM398.465 743.298C398.049 743.519 397.753 743.705 397.552 743.847C397.348 743.993 397.29 744.06 397.317 744.031C397.344 744.002 397.511 743.819 397.676 743.463C397.853 743.085 398.004 742.56 398.004 741.936H386.004C386.004 739.26 387.278 737.2 388.547 735.84C389.79 734.509 391.339 733.495 392.84 732.698L398.465 743.298ZM392.003 731.998H395.653V743.998H392.003V731.998ZM398.003 611.967V737.998H386.003V611.967H398.003Z" fill="black" mask="url(#path-1-outside-1_787_64800)"/>
<path d="M702.989 606.846C702.989 608.858 701.455 609.974 700.792 610.392C699.941 610.928 698.87 611.346 697.755 611.694C695.481 612.405 692.274 613.05 688.335 613.645C680.415 614.842 669.038 615.91 655.076 616.802C627.127 618.589 588.561 619.692 545.994 619.692C503.427 619.692 464.862 618.589 436.912 616.802C422.95 615.91 411.574 614.842 403.653 613.645C399.714 613.05 396.508 612.405 394.234 611.694C393.119 611.346 392.048 610.928 391.197 610.392C390.533 609.974 389 608.858 389 606.846C389 604.835 390.533 603.718 391.197 603.301C392.048 602.765 393.119 602.347 394.234 601.998C396.508 601.288 399.714 600.643 403.653 600.047C411.574 598.85 422.95 597.783 436.912 596.89C464.862 595.103 503.427 594 545.994 594C588.561 594 627.127 595.103 655.076 596.89C669.038 597.783 680.415 598.85 688.335 600.047C692.274 600.643 695.481 601.288 697.755 601.998C698.87 602.347 699.941 602.765 700.792 603.301C701.455 603.718 702.989 604.835 702.989 606.846Z" fill="#C4C4C4" stroke="black" stroke-width="6"/>
<path d="M679.936 606.059C679.936 606.765 679.594 607.262 679.348 607.523C679.11 607.775 678.857 607.926 678.701 608.009C678.384 608.177 678.04 608.283 677.767 608.355C677.189 608.508 676.416 608.638 675.516 608.757C673.69 608.996 671.044 609.222 667.695 609.435C660.982 609.861 651.292 610.244 639.346 610.565C615.447 611.207 582.443 611.604 545.997 611.604C509.552 611.604 476.548 611.207 452.649 610.565C440.703 610.244 431.013 609.861 424.3 609.435C420.951 609.222 418.305 608.996 416.479 608.757C415.578 608.638 414.806 608.508 414.228 608.355C413.955 608.283 413.611 608.177 413.294 608.009C413.138 607.926 412.884 607.775 412.647 607.523C412.401 607.262 412.059 606.765 412.059 606.059C412.059 605.353 412.401 604.856 412.647 604.596C412.884 604.343 413.138 604.192 413.294 604.11C413.611 603.942 413.955 603.836 414.228 603.763C414.806 603.611 415.578 603.48 416.479 603.362C418.305 603.122 420.951 602.896 424.3 602.684C431.013 602.257 440.703 601.875 452.649 601.554C476.548 600.911 509.552 600.515 545.997 600.515C582.443 600.515 615.447 600.911 639.346 601.554C651.292 601.874 660.982 602.257 667.695 602.684C671.044 602.896 673.69 603.122 675.516 603.362C676.416 603.48 677.189 603.611 677.767 603.763C678.04 603.836 678.384 603.942 678.701 604.11C678.857 604.192 679.11 604.343 679.348 604.596C679.594 604.856 679.936 605.353 679.936 606.059Z" fill="white" stroke="black" stroke-width="4"/>
<path d="M699.641 612.925L702.989 612.534L702.989 615.904L702.989 640.323C702.989 641.517 702.386 642.362 701.944 642.818C701.503 643.274 700.999 643.586 700.597 643.799C699.782 644.23 698.752 644.58 697.657 644.882C695.422 645.498 692.248 646.09 688.316 646.658C680.416 647.8 669.055 648.901 655.091 649.863C627.144 651.789 588.576 653.169 545.994 653.169C503.359 653.169 464.77 650.701 436.84 648.234C422.873 647.001 411.567 645.767 403.749 644.84C399.839 644.377 396.801 643.991 394.738 643.72C393.707 643.585 392.919 643.478 392.387 643.406C392.122 643.369 391.92 643.341 391.784 643.322L391.63 643.3L391.59 643.295L391.58 643.293L391.577 643.293C391.576 643.293 391.576 643.293 392 640.323L391.576 643.293L389 642.925L389 640.323L389 615.904L389 612.534L392.348 612.924L392 615.904C392.348 612.924 392.348 612.925 392.348 612.925L392.35 612.925L392.359 612.926L392.396 612.93L392.547 612.947C392.682 612.963 392.884 612.986 393.151 613.016C393.686 613.076 394.484 613.164 395.53 613.277C397.621 613.502 400.705 613.824 404.667 614.211C412.591 614.984 424.025 616.016 438.054 617.048C466.116 619.112 504.537 621.175 545.994 621.175C587.451 621.175 625.873 619.112 653.934 617.048C667.963 616.016 679.398 614.984 687.322 614.211C691.284 613.824 694.367 613.502 696.459 613.277C697.505 613.164 698.302 613.076 698.837 613.016C699.105 612.986 699.307 612.963 699.441 612.947L699.592 612.93L699.63 612.926L699.638 612.925L699.64 612.925C699.641 612.925 699.641 612.925 699.989 615.904L699.641 612.925Z" fill="#D7D6DC" stroke="black" stroke-width="6"/>
<path d="M699.99 615.904C699.99 615.904 629.098 624.175 545.996 624.175L545.996 650.169C631.045 650.169 699.99 644.655 699.99 640.323L699.99 615.904Z" fill="black" fill-opacity="0.25"/>
<path d="M699.433 717.72L702.989 717.05L702.989 720.668L702.989 741.715C702.989 746.917 699.357 751.455 694.148 752.399C675.125 755.845 616.004 765.416 545.994 765.416C475.985 765.416 416.864 755.845 397.841 752.399C392.632 751.455 389 746.917 389 741.715L389 720.668L389 717.05L392.556 717.72L392.509 717.968C392.556 717.72 392.556 717.72 392.556 717.72L392.558 717.72L392.566 717.722L392.601 717.728L392.746 717.755C392.875 717.779 393.07 717.815 393.33 717.862C393.848 717.956 394.623 718.094 395.641 718.27C397.677 718.623 400.686 719.128 404.565 719.735C412.324 720.948 423.561 722.567 437.451 724.187C465.238 727.426 503.616 730.665 545.994 730.665C588.373 730.665 626.751 727.426 654.537 724.187C668.428 722.567 679.665 720.948 687.423 719.735C691.303 719.128 694.312 718.623 696.348 718.27C697.366 718.094 698.141 717.956 698.659 717.862C698.918 717.815 699.113 717.779 699.243 717.755L699.388 717.728L699.423 717.722L699.431 717.72L699.433 717.72C699.433 717.72 699.433 717.72 699.469 717.91L699.433 717.72Z" fill="#D7D6DC" stroke="black" stroke-width="6"/>
<rect x="-3" y="-3" width="60.3509" height="24.117" rx="12.0585" transform="matrix(4.37114e-08 1 1 -4.37114e-08 650.359 611.967)" fill="#D7D6DC" stroke="black" stroke-width="6"/>
<path d="M663.754 611.967C661.143 611.967 659.027 614.083 659.027 616.693L659.027 661.592C659.027 664.202 661.143 666.318 663.754 666.318V666.318C666.364 666.318 668.48 664.202 668.48 661.592L668.48 616.693C668.48 614.083 666.364 611.967 663.754 611.967V611.967Z" fill="black" fill-opacity="0.25"/>
<rect x="-3" y="-3" width="60.3509" height="24.117" rx="12.0585" transform="matrix(4.37114e-08 1 1 -4.37114e-08 536.934 611.967)" fill="#D7D6DC" stroke="black" stroke-width="6"/>
<path d="M550.328 611.967C547.718 611.967 545.602 614.083 545.602 616.693L545.602 661.592C545.602 664.202 547.718 666.318 550.328 666.318V666.318C552.938 666.318 555.054 664.202 555.054 661.592L555.054 616.693C555.054 614.083 552.938 611.967 550.328 611.967V611.967Z" fill="black" fill-opacity="0.25"/>
<rect x="-3" y="-3" width="60.3509" height="24.117" rx="12.0585" transform="matrix(4.37114e-08 1 1 -4.37114e-08 429.805 611.967)" fill="#D7D6DC" stroke="black" stroke-width="6"/>
<path d="M443.199 611.967C440.589 611.967 438.473 614.083 438.473 616.693L438.473 661.592C438.473 664.202 440.589 666.318 443.199 666.318V666.318C445.809 666.318 447.925 664.202 447.925 661.592L447.925 616.693C447.925 614.083 445.809 611.967 443.199 611.967V611.967Z" fill="black" fill-opacity="0.25"/>
<rect x="-3" y="-3" width="60.3509" height="24.117" rx="12.0585" transform="matrix(4.37114e-08 1 1 -4.37114e-08 650.359 714.366)" fill="#D7D6DC" stroke="black" stroke-width="6"/>
<path d="M663.754 714.366C661.143 714.366 659.027 716.482 659.027 719.092L659.027 763.991C659.027 766.601 661.143 768.717 663.754 768.717V768.717C666.364 768.717 668.48 766.601 668.48 763.991L668.48 719.092C668.48 716.482 666.364 714.366 663.754 714.366V714.366Z" fill="black" fill-opacity="0.25"/>
<rect x="-3" y="-3" width="60.3509" height="24.117" rx="12.0585" transform="matrix(4.37114e-08 1 1 -4.37114e-08 536.934 725.394)" fill="#D7D6DC" stroke="black" stroke-width="6"/>
<path d="M550.328 725.394C547.718 725.394 545.602 727.51 545.602 730.12L545.602 775.018C545.602 777.628 547.718 779.744 550.328 779.744V779.744C552.938 779.744 555.054 777.628 555.054 775.018L555.054 730.12C555.054 727.51 552.938 725.394 550.328 725.394V725.394Z" fill="black" fill-opacity="0.25"/>
<rect x="-3" y="-3" width="60.3509" height="24.117" rx="12.0585" transform="matrix(4.37114e-08 1 1 -4.37114e-08 429.805 714.366)" fill="#D7D6DC" stroke="black" stroke-width="6"/>
<path d="M443.199 714.366C440.589 714.366 438.473 716.482 438.473 719.092L438.473 763.991C438.473 766.601 440.589 768.717 443.199 768.717V768.717C445.809 768.717 447.925 766.601 447.925 763.991L447.925 719.092C447.925 716.482 445.809 714.366 443.199 714.366V714.366Z" fill="black" fill-opacity="0.25"/>
<rect x="-3" y="-3" width="35.1447" height="28.0554" rx="14.0277" transform="matrix(4.37114e-08 1 1 -4.37114e-08 405.395 671.832)" fill="#D7D6DC" stroke="black" stroke-width="6"/>
<rect x="891.301" y="644.877" width="26.4801" height="473.89" fill="#D7D6DC" stroke="black" stroke-width="6"/>
<path d="M909.659 675.446C906.831 675.446 904.539 677.739 904.539 680.566L904.539 1311.51C904.539 1314.34 906.831 1316.63 909.659 1316.63V1316.63C912.487 1316.63 914.779 1314.34 914.779 1311.51L914.779 680.566C914.779 677.739 912.487 675.446 909.659 675.446V675.446Z" fill="black" fill-opacity="0.25"/>
<mask id="path-23-inside-2_787_64800" fill="white">
<path fill-rule="evenodd" clip-rule="evenodd" d="M1031.69 684.899C1022.98 684.899 1013 678.235 1005.04 674.697C986.806 666.598 947.745 661 902.5 661C857.255 661 818.193 666.598 799.961 674.697C791.996 678.235 782.024 684.899 773.308 684.899L676.893 684.899C670.368 684.899 665.078 690.189 665.078 696.715V696.715C665.078 703.24 670.368 708.53 676.893 708.53L880.042 708.53C887.301 708.838 894.811 709 902.5 709C910.188 709 917.698 708.838 924.958 708.53L1132.18 708.53C1138.71 708.53 1144 703.24 1144 696.715V696.715C1144 690.189 1138.71 684.899 1132.18 684.899L1031.69 684.899Z"/>
</mask>
<path fill-rule="evenodd" clip-rule="evenodd" d="M1031.69 684.899C1022.98 684.899 1013 678.235 1005.04 674.697C986.806 666.598 947.745 661 902.5 661C857.255 661 818.193 666.598 799.961 674.697C791.996 678.235 782.024 684.899 773.308 684.899L676.893 684.899C670.368 684.899 665.078 690.189 665.078 696.715V696.715C665.078 703.24 670.368 708.53 676.893 708.53L880.042 708.53C887.301 708.838 894.811 709 902.5 709C910.188 709 917.698 708.838 924.958 708.53L1132.18 708.53C1138.71 708.53 1144 703.24 1144 696.715V696.715C1144 690.189 1138.71 684.899 1132.18 684.899L1031.69 684.899Z" fill="#FFC700"/>
<path d="M880.042 708.53L880.042 702.53L880.169 702.53L880.296 702.536L880.042 708.53ZM924.958 708.53L924.704 702.536L924.831 702.53L924.958 702.53L924.958 708.53ZM676.893 708.53L676.893 714.53L676.893 708.53ZM1132.18 708.53L1132.18 714.53L1132.18 708.53ZM676.893 684.899L676.893 690.899L676.893 684.899ZM799.961 674.697L797.525 669.214L799.961 674.697ZM773.308 684.899L773.308 678.899L773.308 684.899ZM1002.6 680.181C994.264 676.476 980.606 673.143 963.089 670.756C945.693 668.386 924.89 667 902.5 667L902.5 655C925.355 655 946.705 656.413 964.709 658.866C982.593 661.303 997.581 664.819 1007.47 669.214L1002.6 680.181ZM902.5 667C880.11 667 859.307 668.386 841.911 670.756C824.394 673.143 810.735 676.476 802.396 680.181L797.525 669.214C807.419 664.819 822.407 661.303 840.29 658.866C858.294 656.413 879.645 655 902.5 655L902.5 667ZM676.893 678.899L773.308 678.899L773.308 690.899L676.893 690.899L676.893 678.899ZM880.042 714.53L676.893 714.53L676.893 702.53L880.042 702.53L880.042 714.53ZM880.296 702.536C887.47 702.84 894.895 703 902.5 703L902.5 715C894.728 715 887.133 714.837 879.787 714.525L880.296 702.536ZM902.5 703C910.105 703 917.53 702.84 924.704 702.536L925.212 714.525C917.867 714.837 910.272 715 902.5 715L902.5 703ZM1132.18 714.53L924.958 714.53L924.958 702.53L1132.18 702.53L1132.18 714.53ZM1031.69 678.899L1132.18 678.899L1132.18 690.899L1031.69 690.899L1031.69 678.899ZM1138 696.715C1138 693.503 1135.39 690.899 1132.18 690.899L1132.18 678.899C1142.02 678.899 1150 686.876 1150 696.715L1138 696.715ZM671.078 696.715C671.078 699.927 673.682 702.53 676.893 702.53L676.893 714.53C667.054 714.53 659.078 706.554 659.078 696.715L671.078 696.715ZM1132.18 702.53C1135.39 702.53 1138 699.927 1138 696.715L1150 696.715C1150 706.554 1142.02 714.53 1132.18 714.53L1132.18 702.53ZM676.893 690.899C673.682 690.899 671.078 693.503 671.078 696.715L659.078 696.715C659.078 686.876 667.054 678.899 676.893 678.899L676.893 690.899ZM802.396 680.181C800.583 680.986 798.615 681.988 796.397 683.124C794.232 684.233 791.85 685.458 789.426 686.575C784.698 688.752 779.033 690.899 773.308 690.899L773.308 678.899C776.299 678.899 779.977 677.715 784.406 675.675C786.56 674.684 788.708 673.58 790.926 672.444C793.091 671.335 795.356 670.177 797.525 669.214L802.396 680.181ZM1007.47 669.214C1009.64 670.177 1011.91 671.335 1014.07 672.444C1016.29 673.58 1018.44 674.684 1020.59 675.675C1025.02 677.715 1028.7 678.899 1031.69 678.899L1031.69 690.899C1025.97 690.899 1020.3 688.752 1015.57 686.575C1013.15 685.458 1010.77 684.233 1008.6 683.124C1006.38 681.988 1004.42 680.986 1002.6 680.181L1007.47 669.214Z" fill="black" mask="url(#path-23-inside-2_787_64800)"/>
<mask id="path-25-inside-3_787_64800" fill="white">
<path fill-rule="evenodd" clip-rule="evenodd" d="M1041.72 743.975C1035.51 743.975 1029.32 747.534 1023.71 750.204C1005.54 758.855 959.468 765 905.5 765C851.532 765 805.457 758.855 787.285 750.204C781.676 747.534 775.491 743.975 769.279 743.975L677.287 743.975C670.544 743.975 665.078 738.508 665.078 731.765V731.765C665.078 725.022 670.544 719.556 677.287 719.556L877.726 719.556C886.664 719.192 895.958 719 905.5 719C915.041 719 924.336 719.192 933.273 719.556L1131.79 719.556C1138.53 719.556 1144 725.022 1144 731.765V731.765C1144 738.508 1138.53 743.975 1131.79 743.975L1041.72 743.975Z"/>
</mask>
<path fill-rule="evenodd" clip-rule="evenodd" d="M1041.72 743.975C1035.51 743.975 1029.32 747.534 1023.71 750.204C1005.54 758.855 959.468 765 905.5 765C851.532 765 805.457 758.855 787.285 750.204C781.676 747.534 775.491 743.975 769.279 743.975L677.287 743.975C670.544 743.975 665.078 738.508 665.078 731.765V731.765C665.078 725.022 670.544 719.556 677.287 719.556L877.726 719.556C886.664 719.192 895.958 719 905.5 719C915.041 719 924.336 719.192 933.273 719.556L1131.79 719.556C1138.53 719.556 1144 725.022 1144 731.765V731.765C1144 738.508 1138.53 743.975 1131.79 743.975L1041.72 743.975Z" fill="#FFC700"/>
<path d="M877.726 719.556L877.726 725.556L877.849 725.556L877.971 725.551L877.726 719.556ZM933.273 719.556L933.029 725.551L933.151 725.556L933.273 725.556L933.273 719.556ZM787.285 750.204L789.864 744.787L787.285 750.204ZM1023.71 750.204L1026.29 755.622L1023.71 750.204ZM1021.14 744.787C1012.97 748.675 997.72 752.288 977.272 754.894C957.026 757.475 932.273 759 905.5 759L905.5 771C932.695 771 957.962 769.453 978.789 766.798C999.414 764.169 1016.29 760.385 1026.29 755.622L1021.14 744.787ZM905.5 759C878.727 759 853.973 757.475 833.728 754.894C813.28 752.288 798.031 748.675 789.864 744.787L784.706 755.622C794.711 760.385 811.586 764.169 832.21 766.798C853.037 769.453 878.305 771 905.5 771L905.5 759ZM677.287 749.975L769.279 749.975L769.279 737.975L677.287 737.975L677.287 749.975ZM877.726 713.556L677.287 713.556L677.287 725.556L877.726 725.556L877.726 713.556ZM877.971 725.551C886.825 725.19 896.038 725 905.5 725L905.5 713C895.878 713 886.502 713.194 877.482 713.561L877.971 725.551ZM905.5 725C914.961 725 924.174 725.19 933.029 725.551L933.517 713.561C924.497 713.194 915.121 713 905.5 713L905.5 725ZM1131.79 713.556L933.273 713.556L933.273 725.556L1131.79 725.556L1131.79 713.556ZM1041.72 749.975L1131.79 749.975L1131.79 737.975L1041.72 737.975L1041.72 749.975ZM1138 731.765C1138 735.195 1135.22 737.975 1131.79 737.975L1131.79 749.975C1141.84 749.975 1150 741.822 1150 731.765L1138 731.765ZM671.078 731.765C671.078 728.336 673.858 725.556 677.287 725.556L677.287 713.556C667.23 713.556 659.078 721.709 659.078 731.765L671.078 731.765ZM1131.79 725.556C1135.22 725.556 1138 728.336 1138 731.765L1150 731.765C1150 721.709 1141.84 713.556 1131.79 713.556L1131.79 725.556ZM677.287 737.975C673.858 737.975 671.078 735.195 671.078 731.765L659.078 731.765C659.078 741.822 667.23 749.975 677.287 749.975L677.287 737.975ZM789.864 744.787C787.372 743.601 783.999 741.838 780.759 740.526C777.415 739.173 773.491 737.975 769.279 737.975L769.279 749.975C771.278 749.975 773.553 750.556 776.257 751.65C779.064 752.786 781.589 754.138 784.706 755.622L789.864 744.787ZM1026.29 755.622C1029.41 754.138 1031.94 752.786 1034.74 751.65C1037.45 750.556 1039.72 749.975 1041.72 749.975L1041.72 737.975C1037.51 737.975 1033.58 739.173 1030.24 740.526C1027 741.838 1023.63 743.6 1021.14 744.787L1026.29 755.622Z" fill="black" mask="url(#path-25-inside-3_787_64800)"/>
<path d="M801.529 751.066C818.032 758.065 857.917 763 904.5 763C951.082 763 990.968 758.065 1007.47 751.066C1013.64 748.451 1021.23 743.879 1028.19 743.879L1131.79 743.879C1138.53 743.879 1144 739.456 1144 734L665 734C665 739.456 670.467 743.879 677.211 743.879L780.811 743.879C787.773 743.879 795.363 748.451 801.529 751.066Z" fill="black" fill-opacity="0.25"/>
<mask id="path-28-outside-4_787_64800" maskUnits="userSpaceOnUse" x="874.277" y="630.062" width="62" height="38" fill="black">
<rect fill="white" x="874.277" y="630.062" width="62" height="38"/>
<path d="M887.335 661.533C882.917 661.533 879.216 657.866 880.581 653.663C881.812 649.875 883.926 646.391 886.795 643.522C891.572 638.745 898.051 636.062 904.806 636.062C911.561 636.062 918.04 638.745 922.817 643.522C925.686 646.391 927.8 649.875 929.031 653.663C930.396 657.866 926.696 661.533 922.277 661.533L904.806 661.533L887.335 661.533Z"/>
</mask>
<path d="M887.335 661.533C882.917 661.533 879.216 657.866 880.581 653.663C881.812 649.875 883.926 646.391 886.795 643.522C891.572 638.745 898.051 636.062 904.806 636.062C911.561 636.062 918.04 638.745 922.817 643.522C925.686 646.391 927.8 649.875 929.031 653.663C930.396 657.866 926.696 661.533 922.277 661.533L904.806 661.533L887.335 661.533Z" fill="#3C3C3C"/>
<path d="M887.335 661.533C882.917 661.533 879.216 657.866 880.581 653.663C881.812 649.875 883.926 646.391 886.795 643.522C891.572 638.745 898.051 636.062 904.806 636.062C911.561 636.062 918.04 638.745 922.817 643.522C925.686 646.391 927.8 649.875 929.031 653.663C930.396 657.866 926.696 661.533 922.277 661.533L904.806 661.533L887.335 661.533Z" stroke="black" stroke-width="12" mask="url(#path-28-outside-4_787_64800)"/>
<path d="M1144 700.652C1144 698.477 1142.24 696.714 1140.06 696.714L674.534 696.714C672.359 696.714 670.596 698.477 670.596 700.652V700.652C670.596 702.828 672.359 704.591 674.534 704.591L1140.06 704.591C1142.24 704.591 1144 702.827 1144 700.652V700.652Z" fill="black" fill-opacity="0.25"/>
<rect x="30.2227" y="645.087" width="26.4801" height="473.89" fill="#D7D6DC" stroke="black" stroke-width="6"/>
<path d="M48.5809 675.656C45.7532 675.656 43.4609 677.949 43.4609 680.776L43.461 1311.72C43.461 1314.55 45.7533 1316.84 48.581 1316.84V1316.84C51.4087 1316.84 53.701 1314.55 53.701 1311.72L53.7009 680.776C53.7009 677.949 51.4086 675.656 48.5809 675.656V675.656Z" fill="black" fill-opacity="0.25"/>
<rect x="4.09808" y="-1.09808" width="25.3645" height="210.031" transform="matrix(-0.866025 -0.5 -0.5 0.866025 158.301 486.532)" fill="#D7D6DC" stroke="black" stroke-width="6"/>
<path d="M37.1052 669.671C40.1192 671.412 43.9731 670.379 45.7133 667.365L147.831 490.492C149.571 487.478 148.539 483.624 145.525 481.884V481.884C142.511 480.143 138.657 481.176 136.917 484.19L34.7987 661.063C33.0585 664.077 34.0912 667.931 37.1052 669.671V669.671Z" fill="black" fill-opacity="0.25"/>
<rect x="-3" y="-3" width="56.4124" height="57.2001" rx="28.2062" transform="matrix(5.13134e-08 1 1 -3.72356e-08 17.4727 625.243)" fill="#D7D6DC" stroke="black" stroke-width="6"/>
<path d="M-84.1837 427.753C-84.8564 430.065 -84.4952 433.016 -82.5677 436.747C-80.6396 440.48 -77.2773 444.718 -72.4584 449.366C-62.8299 458.651 -47.8547 469.124 -28.5504 480.005C10.018 501.745 65.3354 524.818 128.235 543.115C191.134 561.412 249.559 571.426 293.13 573.583C314.938 574.663 332.872 573.765 345.735 571.029C352.172 569.66 357.183 567.861 360.744 565.731C364.3 563.603 366.173 561.295 366.853 558.957C367.525 556.647 367.163 553.779 365.255 550.201C363.34 546.609 359.994 542.559 355.18 538.132C345.561 529.287 330.593 519.399 311.281 509.102C272.703 488.531 217.368 466.628 154.435 448.321C91.5014 430.014 33.0519 418.818 -10.5407 415.485C-32.3621 413.817 -50.2984 414.133 -63.1609 416.438C-69.5983 417.592 -74.5956 419.216 -78.1381 421.219C-81.6675 423.216 -83.5115 425.442 -84.1837 427.753Z" fill="#FFC700" stroke="black" stroke-width="6"/>
<path d="M236.874 478.708C281.554 495.983 317.348 513.764 338.16 529.021C358.971 544.279 363.511 556.068 351.006 562.381C338.501 568.694 309.726 569.14 269.582 563.642C229.438 558.145 180.41 547.045 130.852 532.233C81.2937 517.421 34.2712 499.814 -2.2033 482.411C-38.6778 465.009 -62.3476 448.889 -69.1796 436.796C-76.0116 424.704 -65.5831 417.388 -39.671 416.096C-13.7589 414.803 26.0335 419.613 72.9261 429.707L88.9485 443.806C52.7244 436.008 21.985 432.292 1.96817 433.291C-18.0487 434.29 -26.1046 439.941 -20.827 449.282C-15.5493 458.623 2.73543 471.076 30.9117 484.519C59.0879 497.962 95.4124 511.564 133.696 523.006C171.979 534.448 209.853 543.023 240.864 547.269C271.874 551.516 294.103 551.172 303.763 546.295C313.423 541.418 309.916 532.311 293.839 520.525C277.763 508.739 250.112 495.003 215.597 481.658L236.874 478.708Z" fill="black" fill-opacity="0.25"/>
<path d="M207.241 473.81C237.077 485.227 261.012 496.894 274.968 506.825C288.924 516.756 292.038 524.336 283.778 528.274C275.518 532.211 256.396 532.262 229.671 528.418C202.945 524.574 170.269 517.073 137.21 507.193C104.151 497.313 72.7547 485.665 48.3708 474.234C23.9868 462.803 8.1238 452.297 3.48459 444.504C-1.15462 436.712 5.71701 432.116 22.9286 431.5C40.1403 430.884 66.627 434.285 97.8757 441.125L113.465 454.378C92.5129 449.792 74.7536 447.511 63.2133 447.925C51.6729 448.338 47.0655 451.419 50.1761 456.644C53.2867 461.869 63.9228 468.913 80.2722 476.578C96.6215 484.242 117.673 492.052 139.839 498.676C162.004 505.301 183.914 510.331 201.833 512.908C219.753 515.485 232.574 515.451 238.112 512.811C243.65 510.171 241.563 505.089 232.205 498.43C222.848 491.771 206.799 483.948 186.794 476.293L207.241 473.81Z" fill="white" fill-opacity="0.25"/>
<mask id="path-38-inside-5_787_64800" fill="white">
<path d="M40.2279 422.272C35.7629 438.936 82.3294 465.892 144.237 482.48C206.145 499.068 259.95 499.007 264.415 482.343C268.88 465.679 222.314 438.724 160.406 422.135C98.4986 405.547 44.6929 405.609 40.2279 422.272Z"/>
</mask>
<path d="M40.2279 422.272C35.7629 438.936 82.3294 465.892 144.237 482.48C206.145 499.068 259.95 499.007 264.415 482.343C268.88 465.679 222.314 438.724 160.406 422.135C98.4986 405.547 44.6929 405.609 40.2279 422.272Z" fill="#FFC700"/>
<path d="M46.0235 423.825C45.7394 424.885 45.9608 427.578 50.3116 432.321C54.4326 436.814 61.1854 441.907 70.3486 447.212C88.597 457.775 115.194 468.486 145.79 476.684L142.684 488.275C111.372 479.885 83.7324 468.824 64.3368 457.597C54.6781 452.006 46.7572 446.199 41.4682 440.433C36.409 434.917 32.4839 427.991 34.4324 420.719L46.0235 423.825ZM145.79 476.684C176.386 484.882 204.775 488.905 225.86 488.881C236.448 488.869 244.843 487.834 250.658 486.004C256.798 484.071 258.336 481.85 258.62 480.79L270.211 483.896C268.263 491.168 261.4 495.203 254.261 497.45C246.798 499.799 237.034 500.868 225.874 500.881C203.463 500.906 173.996 496.665 142.684 488.275L145.79 476.684ZM258.62 480.79C258.904 479.73 258.683 477.037 254.332 472.294C250.211 467.801 243.458 462.708 234.295 457.404C216.046 446.84 189.449 436.129 158.853 427.931L161.959 416.34C193.271 424.73 220.911 435.791 240.306 447.018C249.965 452.609 257.886 458.416 263.175 464.183C268.234 469.698 272.159 476.624 270.211 483.896L258.62 480.79ZM158.853 427.931C128.257 419.733 99.8682 415.71 78.7829 415.734C68.1952 415.746 59.8005 416.781 53.9851 418.611C47.8455 420.544 46.3075 422.765 46.0235 423.825L34.4324 420.719C36.3808 413.448 43.2429 409.412 50.3822 407.165C57.8458 404.816 67.609 403.747 78.7693 403.734C101.18 403.709 130.647 407.95 161.959 416.34L158.853 427.931Z" fill="black" mask="url(#path-38-inside-5_787_64800)"/>
<path d="M186.579 437.819C207.936 445.852 225.631 454.763 236.35 462.882C247.068 471 250.073 477.769 244.801 481.919C239.53 486.069 226.344 487.315 207.714 485.425C189.085 483.534 166.292 478.637 143.607 471.649C120.922 464.662 99.903 456.066 84.4898 447.471C69.0765 438.876 60.3272 430.873 59.8819 424.962C59.4365 419.051 67.3256 415.638 82.0705 415.362C96.8154 415.087 117.404 417.968 139.976 423.465L142.771 429.074C124.828 424.705 108.462 422.414 96.741 422.633C85.0202 422.852 78.7491 425.566 79.1032 430.264C79.4572 434.963 86.4121 441.325 98.6641 448.157C110.916 454.989 127.624 461.822 145.657 467.376C163.689 472.931 181.807 476.824 196.616 478.327C211.424 479.829 221.906 478.838 226.097 475.54C230.287 472.241 227.899 466.86 219.378 460.407C210.858 453.953 196.792 446.87 179.816 440.485L186.579 437.819Z" fill="white" fill-opacity="0.25"/>
<mask id="path-41-outside-6_787_64800" maskUnits="userSpaceOnUse" x="126.954" y="396.613" width="71.768" height="58.6316" fill="black">
<rect fill="white" x="126.954" y="396.613" width="71.768" height="58.6316"/>
<path d="M141.511 430.685C137.421 429.014 135.383 424.219 138.236 420.846C140.809 417.804 144.084 415.38 147.826 413.809C154.055 411.194 161.067 411.161 167.32 413.717C173.574 416.273 178.556 421.208 181.17 427.437C182.741 431.179 183.38 435.203 183.086 439.176C182.76 443.582 177.947 445.577 173.857 443.905L157.684 437.295L141.511 430.685Z"/>
</mask>
<path d="M141.511 430.685C137.421 429.014 135.383 424.219 138.236 420.846C140.809 417.804 144.084 415.38 147.826 413.809C154.055 411.194 161.067 411.161 167.32 413.717C173.574 416.273 178.556 421.208 181.17 427.437C182.741 431.179 183.38 435.203 183.086 439.176C182.76 443.582 177.947 445.577 173.857 443.905L157.684 437.295L141.511 430.685Z" fill="#3C3C3C"/>
<path d="M141.511 430.685C137.421 429.014 135.383 424.219 138.236 420.846C140.809 417.804 144.084 415.38 147.826 413.809C154.055 411.194 161.067 411.161 167.32 413.717C173.574 416.273 178.556 421.208 181.17 427.437C182.741 431.179 183.38 435.203 183.086 439.176C182.76 443.582 177.947 445.577 173.857 443.905L157.684 437.295L141.511 430.685Z" stroke="black" stroke-width="12" mask="url(#path-41-outside-6_787_64800)"/>
<mask id="path-42-outside-7_787_64800" maskUnits="userSpaceOnUse" x="-64.8125" y="606.432" width="320" height="161" fill="black">
<rect fill="white" x="-64.8125" y="606.432" width="320" height="161"/>
<path fill-rule="evenodd" clip-rule="evenodd" d="M249.176 612.432H-58.8123V738.463H-55.1636C-57.5527 739.731 -58.8125 741.049 -58.8125 742.401C-58.8125 752.407 10.1331 760.518 95.1818 760.518C180.23 760.518 249.176 752.407 249.176 742.401C249.176 741.049 247.916 739.731 245.527 738.463H249.176V612.432Z"/>
</mask>
<path fill-rule="evenodd" clip-rule="evenodd" d="M249.176 612.432H-58.8123V738.463H-55.1636C-57.5527 739.731 -58.8125 741.049 -58.8125 742.401C-58.8125 752.407 10.1331 760.518 95.1818 760.518C180.23 760.518 249.176 752.407 249.176 742.401C249.176 741.049 247.916 739.731 245.527 738.463H249.176V612.432Z" fill="#E40303"/>
<path d="M-58.8123 612.432V606.432H-64.8123V612.432H-58.8123ZM249.176 612.432H255.176V606.432H249.176V612.432ZM-58.8123 738.463H-64.8123V744.463H-58.8123V738.463ZM-55.1636 738.463L-52.3508 743.763L-55.1636 732.463V738.463ZM-58.8125 742.401H-52.8125H-58.8125ZM245.527 738.463V732.463L242.714 743.763L245.527 738.463ZM249.176 738.463V744.463H255.176V738.463H249.176ZM-58.8123 618.432H249.176V606.432H-58.8123V618.432ZM-52.8123 738.463V612.432H-64.8123V738.463H-52.8123ZM-55.1636 732.463H-58.8123V744.463H-55.1636V732.463ZM-52.8125 742.401C-52.8125 743.025 -52.9636 743.55 -53.1398 743.928C-53.3055 744.283 -53.4722 744.467 -53.4988 744.495C-53.5259 744.524 -53.4683 744.458 -53.2638 744.312C-53.0635 744.17 -52.7672 743.984 -52.3508 743.763L-57.9763 733.163C-59.4771 733.959 -61.0262 734.974 -62.2691 736.305C-63.5385 737.664 -64.8125 739.725 -64.8125 742.401H-52.8125ZM95.1818 754.518C52.8156 754.518 14.5622 752.496 -13.0076 749.253C-26.833 747.626 -37.7524 745.717 -45.103 743.673C-48.8248 742.637 -51.2871 741.659 -52.6933 740.851C-53.3972 740.446 -53.5537 740.242 -53.4756 740.333C-53.3631 740.463 -52.8125 741.183 -52.8125 742.401H-64.8125C-64.8125 744.87 -63.7233 746.826 -62.5593 748.174C-61.4297 749.483 -60.0219 750.479 -58.6744 751.254C-55.978 752.804 -52.3894 754.101 -48.3187 755.234C-40.0843 757.524 -28.4517 759.519 -14.4097 761.171C13.7555 764.484 52.4993 766.518 95.1818 766.518V754.518ZM243.176 742.401C243.176 741.183 243.727 740.463 243.839 740.333C243.917 740.242 243.761 740.446 243.057 740.851C241.651 741.659 239.188 742.637 235.467 743.673C228.116 745.717 217.197 747.626 203.371 749.253C175.801 752.496 137.548 754.518 95.1818 754.518V766.518C137.864 766.518 176.608 764.484 204.773 761.171C218.815 759.519 230.448 757.524 238.682 755.234C242.753 754.101 246.342 752.804 249.038 751.254C250.385 750.479 251.793 749.483 252.923 748.174C254.087 746.826 255.176 744.87 255.176 742.401H243.176ZM242.714 743.763C243.131 743.984 243.427 744.17 243.627 744.312C243.832 744.458 243.889 744.524 243.862 744.495C243.836 744.467 243.669 744.283 243.503 743.928C243.327 743.55 243.176 743.025 243.176 742.401H255.176C255.176 739.725 253.902 737.664 252.633 736.305C251.39 734.974 249.841 733.959 248.34 733.163L242.714 743.763ZM249.176 732.463H245.527V744.463H249.176V732.463ZM243.176 612.432V738.463H255.176V612.432H243.176Z" fill="black" mask="url(#path-42-outside-7_787_64800)"/>
<path d="M-61.8088 607.311C-61.8088 609.323 -60.2757 610.439 -59.6122 610.856C-58.7609 611.392 -57.6902 611.81 -56.575 612.159C-54.301 612.869 -51.0945 613.514 -47.1556 614.11C-39.2353 615.307 -27.8586 616.374 -13.8964 617.267C14.0528 619.054 52.6183 620.157 95.1854 620.157C137.753 620.157 176.318 619.054 204.267 617.267C218.229 616.374 229.606 615.307 237.526 614.11C241.465 613.514 244.672 612.869 246.946 612.159C248.061 611.81 249.132 611.392 249.983 610.856C250.647 610.439 252.18 609.323 252.18 607.311C252.18 605.299 250.647 604.183 249.983 603.766C249.132 603.23 248.061 602.812 246.946 602.463C244.672 601.753 241.465 601.108 237.526 600.512C229.606 599.315 218.229 598.248 204.267 597.355C176.318 595.568 137.753 594.465 95.1854 594.465C52.6183 594.465 14.0528 595.568 -13.8964 597.355C-27.8586 598.248 -39.2353 599.315 -47.1556 600.512C-51.0945 601.108 -54.301 601.753 -56.575 602.463C-57.6902 602.812 -58.7609 603.23 -59.6122 603.766C-60.2757 604.183 -61.8088 605.299 -61.8088 607.311Z" fill="#C4C4C4" stroke="black" stroke-width="6"/>
<path d="M-38.7565 606.524C-38.7565 607.23 -38.4145 607.727 -38.1685 607.988C-37.9307 608.24 -37.6771 608.391 -37.5215 608.474C-37.2046 608.642 -36.8598 608.748 -36.5868 608.82C-36.0093 608.973 -35.2367 609.103 -34.3363 609.221C-32.5104 609.461 -29.8643 609.687 -26.5149 609.9C-19.8018 610.326 -10.1122 610.709 1.83374 611.03C25.733 611.672 58.7364 612.069 95.1823 612.069C131.628 612.069 164.632 611.672 188.531 611.03C200.477 610.709 210.166 610.326 216.879 609.9C220.229 609.687 222.875 609.461 224.701 609.221C225.601 609.103 226.374 608.973 226.951 608.82C227.224 608.748 227.569 608.642 227.886 608.474C228.042 608.391 228.295 608.24 228.533 607.988C228.779 607.727 229.121 607.23 229.121 606.524C229.121 605.818 228.779 605.321 228.533 605.06C228.295 604.808 228.042 604.657 227.886 604.575C227.569 604.407 227.224 604.3 226.951 604.228C226.374 604.075 225.601 603.945 224.701 603.827C222.875 603.587 220.229 603.361 216.879 603.148C210.166 602.722 200.477 602.339 188.531 602.018C164.632 601.376 131.628 600.979 95.1823 600.979C58.7364 600.979 25.733 601.376 1.83374 602.018C-10.1122 602.339 -19.8018 602.722 -26.5149 603.148C-29.8643 603.361 -32.5104 603.587 -34.3363 603.827C-35.2367 603.945 -36.0093 604.075 -36.5868 604.228C-36.8598 604.3 -37.2046 604.407 -37.5215 604.575C-37.6771 604.657 -37.9307 604.808 -38.1685 605.06C-38.4145 605.321 -38.7565 605.818 -38.7565 606.524Z" fill="white" stroke="black" stroke-width="4"/>
<path d="M-58.4612 613.389L-61.8088 612.999L-61.8088 616.369L-61.8088 640.788C-61.8088 641.982 -61.2058 642.827 -60.7643 643.283C-60.3237 643.739 -59.8192 644.051 -59.4176 644.263C-58.6024 644.695 -57.5722 645.045 -56.4774 645.347C-54.2421 645.963 -51.0687 646.555 -47.1363 647.123C-39.2359 648.265 -27.8749 649.366 -13.9112 650.328C14.0352 652.254 52.6034 653.634 95.1854 653.634C137.82 653.634 176.41 651.166 204.34 648.699C218.307 647.465 229.612 646.231 237.431 645.305C241.34 644.842 244.378 644.456 246.441 644.185C247.473 644.05 248.261 643.943 248.792 643.87C249.058 643.834 249.26 643.806 249.395 643.787L249.549 643.765L249.589 643.76L249.6 643.758L249.603 643.758C249.603 643.758 249.604 643.758 249.18 640.788L249.604 643.758L252.18 643.39L252.18 640.788L252.18 616.369L252.18 612.999L248.832 613.389L249.18 616.369C248.832 613.389 248.832 613.389 248.832 613.389L248.83 613.39L248.821 613.391L248.784 613.395L248.633 613.412C248.498 613.428 248.296 613.451 248.029 613.481C247.493 613.541 246.696 613.629 245.65 613.742C243.559 613.967 240.475 614.289 236.513 614.676C228.589 615.449 217.154 616.481 203.126 617.513C175.064 619.577 136.642 621.64 95.1854 621.64C53.7285 621.64 15.3067 619.577 -12.7548 617.513C-26.7835 616.481 -38.2181 615.449 -46.142 614.676C-50.1039 614.289 -53.1878 613.967 -55.2793 613.742C-56.325 613.629 -57.1226 613.541 -57.6577 613.481C-57.9252 613.451 -58.1271 613.428 -58.2617 613.412L-58.4127 613.395L-58.4498 613.391L-58.4587 613.39L-58.4608 613.389C-58.4611 613.389 -58.4612 613.389 -58.8088 616.369L-58.4612 613.389Z" fill="#D7D6DC" stroke="black" stroke-width="6"/>
<path d="M-58.8107 616.369C-58.8107 616.369 12.0818 624.64 95.1836 624.64L95.1836 650.634C10.1349 650.634 -58.8107 645.12 -58.8107 640.788L-58.8107 616.369Z" fill="black" fill-opacity="0.25"/>
<path d="M-58.2531 718.185L-61.8088 717.514L-61.8088 721.133L-61.8088 742.18C-61.8088 747.381 -58.1769 751.92 -52.9683 752.864C-33.945 756.31 25.1761 765.881 95.1854 765.881C165.195 765.881 224.316 756.31 243.339 752.864C248.548 751.92 252.18 747.381 252.18 742.18L252.18 721.133L252.18 717.514L248.624 718.185L248.671 718.433C248.624 718.185 248.624 718.185 248.624 718.185L248.622 718.185L248.614 718.187L248.579 718.193L248.434 718.22C248.305 718.244 248.109 718.28 247.85 718.327C247.332 718.421 246.557 718.559 245.539 718.735C243.503 719.088 240.494 719.593 236.615 720.2C228.856 721.413 217.619 723.032 203.728 724.651C175.942 727.891 137.564 731.13 95.1854 731.13C52.807 731.13 14.4287 727.891 -13.3575 724.651C-27.2481 723.032 -38.4851 721.413 -46.2437 720.2C-50.1229 719.593 -53.1321 719.088 -55.1681 718.735C-56.1861 718.559 -56.9608 718.421 -57.4793 718.327C-57.7385 718.28 -57.9337 718.244 -58.0632 718.22L-58.208 718.193L-58.2431 718.187L-58.2513 718.185L-58.253 718.185C-58.253 718.185 -58.2531 718.185 -58.289 718.375L-58.2531 718.185Z" fill="#D7D6DC" stroke="black" stroke-width="6"/>
<rect x="107.242" y="609.432" width="60.3509" height="24.117" rx="12.0585" transform="rotate(90 107.242 609.432)" fill="#D7D6DC" stroke="black" stroke-width="6"/>
<path d="M90.8481 612.432C93.4582 612.432 95.5742 614.548 95.5742 617.158L95.5742 662.056C95.5742 664.667 93.4582 666.783 90.8481 666.783V666.783C88.2379 666.783 86.1219 664.667 86.1219 662.056L86.1219 617.158C86.1219 614.548 88.2379 612.432 90.8481 612.432V612.432Z" fill="black" fill-opacity="0.25"/>
<rect x="214.375" y="609.432" width="60.3509" height="24.117" rx="12.0585" transform="rotate(90 214.375 609.432)" fill="#D7D6DC" stroke="black" stroke-width="6"/>
<path d="M197.981 612.432C200.591 612.432 202.707 614.548 202.707 617.158L202.707 662.056C202.707 664.667 200.591 666.783 197.981 666.783V666.783C195.371 666.783 193.255 664.667 193.255 662.056L193.255 617.158C193.255 614.548 195.371 612.432 197.981 612.432V612.432Z" fill="black" fill-opacity="0.25"/>
<rect x="107.242" y="718.858" width="60.3509" height="24.117" rx="12.0585" transform="rotate(90 107.242 718.858)" fill="#D7D6DC" stroke="black" stroke-width="6"/>
<path d="M90.8481 721.858C93.4582 721.858 95.5742 723.974 95.5742 726.585L95.5742 771.483C95.5742 774.093 93.4582 776.209 90.8481 776.209V776.209C88.2379 776.209 86.1219 774.093 86.1219 771.483L86.1219 726.585C86.1219 723.974 88.2379 721.858 90.8481 721.858V721.858Z" fill="black" fill-opacity="0.25"/>
<rect x="214.375" y="711.831" width="60.3509" height="24.117" rx="12.0585" transform="rotate(90 214.375 711.831)" fill="#D7D6DC" stroke="black" stroke-width="6"/>
<path d="M197.981 714.831C200.591 714.831 202.707 716.947 202.707 719.557L202.707 764.456C202.707 767.066 200.591 769.182 197.981 769.182V769.182C195.371 769.182 193.255 767.066 193.255 764.456L193.255 719.557C193.255 716.947 195.371 714.831 197.981 714.831V714.831Z" fill="black" fill-opacity="0.25"/>
<rect x="238.785" y="669.297" width="35.1447" height="28.0554" rx="14.0277" transform="rotate(90 238.785 669.297)" fill="#D7D6DC" stroke="black" stroke-width="6"/>
<mask id="path-58-outside-8_787_64800" maskUnits="userSpaceOnUse" x="601.141" y="913.631" width="374" height="366" fill="black">
<rect fill="white" x="601.141" y="913.631" width="374" height="366"/>
<path fill-rule="evenodd" clip-rule="evenodd" d="M607.588 919.631H969.14V1255.13C969.14 1255.15 969.141 1255.17 969.141 1255.19C969.141 1255.21 969.14 1255.23 969.14 1255.25V1258.34H966.417C951.54 1266.84 877.483 1273.31 788.365 1273.31C699.246 1273.31 625.19 1266.84 610.312 1258.34H607.588V919.631Z"/>
</mask>
<path fill-rule="evenodd" clip-rule="evenodd" d="M607.588 919.631H969.14V1255.13C969.14 1255.15 969.141 1255.17 969.141 1255.19C969.141 1255.21 969.14 1255.23 969.14 1255.25V1258.34H966.417C951.54 1266.84 877.483 1273.31 788.365 1273.31C699.246 1273.31 625.19 1266.84 610.312 1258.34H607.588V919.631Z" fill="#E40303"/>
<path d="M969.14 919.631V913.631H975.14V919.631H969.14ZM607.588 919.631H601.588V913.631H607.588V919.631ZM969.14 1255.13L963.143 1255.32L963.14 1255.23V1255.13H969.14ZM969.14 1255.25H963.14V1255.15L963.143 1255.06L969.14 1255.25ZM969.14 1258.34H975.14V1264.34H969.14V1258.34ZM966.417 1258.34L963.44 1253.13L964.824 1252.34H966.417V1258.34ZM610.312 1258.34V1252.34H611.906L613.29 1253.13L610.312 1258.34ZM607.588 1258.34V1264.34H601.588V1258.34H607.588ZM969.14 925.631H607.588V913.631H969.14V925.631ZM963.14 1255.13V919.631H975.14V1255.13H963.14ZM963.141 1255.19C963.141 1255.23 963.141 1255.28 963.143 1255.32L975.137 1254.94C975.139 1255.02 975.141 1255.11 975.141 1255.19H963.141ZM963.143 1255.06C963.141 1255.1 963.141 1255.15 963.141 1255.19H975.141C975.141 1255.27 975.139 1255.36 975.137 1255.44L963.143 1255.06ZM963.14 1258.34V1255.25H975.14V1258.34H963.14ZM966.417 1252.34H969.14V1264.34H966.417V1252.34ZM788.365 1267.31C832.796 1267.31 873.416 1265.69 904.723 1263.03C920.386 1261.7 933.636 1260.11 943.831 1258.35C954.336 1256.54 960.755 1254.66 963.44 1253.13L969.395 1263.55C964.641 1266.27 956.224 1268.39 945.874 1270.18C935.214 1272.02 921.591 1273.64 905.74 1274.99C874.02 1277.69 833.052 1279.31 788.365 1279.31V1267.31ZM613.29 1253.13C615.974 1254.66 622.394 1256.54 632.899 1258.35C643.094 1260.11 656.344 1261.7 672.006 1263.03C703.314 1265.69 743.933 1267.31 788.365 1267.31V1279.31C743.678 1279.31 702.71 1277.69 670.99 1274.99C655.139 1273.64 641.515 1272.02 630.855 1270.18C620.505 1268.39 612.089 1266.27 607.335 1263.55L613.29 1253.13ZM607.588 1252.34H610.312V1264.34H607.588V1252.34ZM613.588 919.631V1258.34H601.588V919.631H613.588Z" fill="black" mask="url(#path-58-outside-8_787_64800)"/>
<rect width="124.456" height="368.641" transform="matrix(-1 0 0 1 969.137 919.63)" fill="black" fill-opacity="0.25"/>
<rect width="44.1109" height="368.641" transform="matrix(-1 0 0 1 651.699 919.63)" fill="white" fill-opacity="0.25"/>
<path d="M609.856 916.197C609.856 916.197 609.858 916.196 609.862 916.193C609.858 916.196 609.856 916.197 609.856 916.197ZM609.862 912.828C609.858 912.825 609.856 912.823 609.856 912.823C609.856 912.823 609.858 912.825 609.862 912.828ZM972.142 914.51C972.142 915.679 971.584 916.543 971.102 917.061C970.634 917.564 970.085 917.915 969.626 918.161C968.702 918.657 967.519 919.053 966.24 919.394C963.637 920.087 959.928 920.725 955.318 921.318C946.061 922.51 932.738 923.576 916.357 924.468C883.573 926.254 838.322 927.356 788.366 927.356C738.409 927.356 693.158 926.254 660.375 924.468C643.994 923.576 630.67 922.51 621.413 921.318C616.803 920.725 613.094 920.087 610.491 919.394C609.213 919.053 608.03 918.657 607.105 918.161C606.647 917.915 606.097 917.564 605.629 917.061C605.147 916.543 604.59 915.679 604.59 914.51C604.59 913.342 605.147 912.477 605.629 911.96C606.097 911.456 606.647 911.106 607.105 910.86C608.03 910.364 609.213 909.967 610.491 909.627C613.094 908.934 616.803 908.296 621.413 907.702C630.67 906.51 643.994 905.445 660.375 904.552C693.158 902.767 738.409 901.664 788.366 901.664C838.322 901.664 883.573 902.767 916.357 904.552C932.738 905.445 946.061 906.51 955.318 907.702C959.928 908.296 963.637 908.934 966.24 909.627C967.519 909.967 968.702 910.364 969.626 910.86C970.085 911.106 970.634 911.456 971.102 911.96C971.584 912.477 972.142 913.342 972.142 914.51Z" fill="#C4C4C4" stroke="black" stroke-width="6"/>
<path d="M945.246 913.723C945.246 914.549 944.782 915.077 944.536 915.299C944.282 915.528 944.02 915.659 943.867 915.729C943.547 915.873 943.19 915.968 942.886 916.037C942.246 916.181 941.371 916.308 940.322 916.425C938.2 916.663 935.111 916.888 931.182 917.1C923.314 917.526 911.948 917.908 897.927 918.229C869.879 918.871 831.142 919.268 788.361 919.268C745.581 919.268 706.844 918.871 678.795 918.229C664.774 917.908 653.409 917.526 645.54 917.1C641.612 916.888 638.523 916.663 636.401 916.425C635.351 916.308 634.476 916.181 633.837 916.037C633.533 915.968 633.176 915.873 632.855 915.729C632.702 915.659 632.44 915.528 632.187 915.299C631.941 915.077 631.477 914.549 631.477 913.723C631.477 912.897 631.941 912.37 632.187 912.148C632.44 911.919 632.702 911.787 632.855 911.718C633.176 911.573 633.533 911.478 633.837 911.41C634.476 911.266 635.351 911.139 636.401 911.021C638.523 910.784 641.612 910.559 645.54 910.347C653.409 909.921 664.774 909.538 678.795 909.217C706.844 908.576 745.581 908.179 788.361 908.179C831.142 908.179 869.879 908.576 897.927 909.217C911.948 909.538 923.314 909.921 931.182 910.347C935.111 910.559 938.2 910.784 940.322 911.021C941.371 911.139 942.246 911.266 942.886 911.41C943.19 911.478 943.547 911.573 943.867 911.718C944.02 911.787 944.282 911.919 944.536 912.148C944.782 912.37 945.246 912.897 945.246 913.723Z" fill="white" stroke="black" stroke-width="4"/>
<path d="M968.845 920.583L972.142 920.255L972.142 923.568L972.142 947.987C972.142 949.366 971.335 950.255 970.889 950.648C970.411 951.069 969.871 951.352 969.442 951.546C968.558 951.945 967.416 952.278 966.155 952.574C963.586 953.177 959.906 953.764 955.302 954.331C946.062 955.468 932.752 956.568 916.369 957.529C883.588 959.453 838.335 960.833 788.366 960.833C738.352 960.833 693.08 958.367 660.313 955.902C643.928 954.669 630.665 953.436 621.495 952.51C616.91 952.048 613.347 951.662 610.929 951.391C609.72 951.256 608.797 951.15 608.175 951.077C607.864 951.041 607.628 951.013 607.47 950.994L607.29 950.972L607.244 950.967L607.232 950.965L607.229 950.965C607.228 950.965 607.228 950.965 607.59 947.987L607.228 950.965L604.59 950.644L604.59 947.987L604.59 923.568L604.59 920.255L607.887 920.583L607.59 923.568C607.887 920.583 607.887 920.583 607.887 920.583L607.89 920.583L607.9 920.584L607.945 920.589L608.123 920.606C608.281 920.622 608.519 920.645 608.834 920.675C609.463 920.735 610.401 920.824 611.63 920.936C614.088 921.162 617.712 921.484 622.366 921.871C631.675 922.645 645.105 923.677 661.583 924.71C694.54 926.775 739.669 928.839 788.366 928.839C837.063 928.839 882.191 926.775 915.149 924.71C931.626 923.677 945.057 922.645 954.365 921.871C959.02 921.484 962.643 921.162 965.101 920.936C966.33 920.824 967.268 920.735 967.897 920.675C968.212 920.645 968.45 920.622 968.609 920.606L968.787 920.589L968.831 920.584L968.842 920.583L968.844 920.583C968.845 920.583 968.845 920.583 969.142 923.568L968.845 920.583Z" fill="#D7D6DC" stroke="black" stroke-width="6"/>
<rect x="-3" y="-3" width="60.3509" height="30.4185" rx="15.2093" transform="matrix(5.89153e-08 1 1 -3.2431e-08 910.852 919.631)" fill="#D7D6DC" stroke="black" stroke-width="6"/>
<path d="M928.893 919.631C925.375 919.631 922.523 922.483 922.523 926.001L922.523 967.612C922.523 971.13 925.375 973.982 928.893 973.982V973.982C932.412 973.982 935.264 971.13 935.264 967.612L935.264 926.001C935.264 922.483 932.412 919.631 928.893 919.631V919.631Z" fill="black" fill-opacity="0.25"/>
<rect x="-3" y="-3" width="60.3509" height="30.4185" rx="15.2093" transform="matrix(5.89153e-08 1 1 -3.2431e-08 777.734 919.631)" fill="#D7D6DC" stroke="black" stroke-width="6"/>
<path d="M795.776 919.631C792.258 919.631 789.406 922.483 789.406 926.001L789.406 967.612C789.406 971.13 792.258 973.982 795.776 973.982V973.982C799.294 973.982 802.146 971.13 802.146 967.612L802.146 926.001C802.146 922.483 799.294 919.631 795.776 919.631V919.631Z" fill="black" fill-opacity="0.25"/>
<rect x="-3" y="-3" width="60.3509" height="30.4185" rx="15.2093" transform="matrix(5.89153e-08 1 1 -3.2431e-08 651.699 919.631)" fill="#D7D6DC" stroke="black" stroke-width="6"/>
<path d="M669.741 919.631C666.223 919.631 663.371 922.483 663.371 926.001L663.371 967.612C663.371 971.13 666.223 973.982 669.741 973.982V973.982C673.259 973.982 676.111 971.13 676.111 967.612L676.111 926.001C676.111 922.483 673.259 919.631 669.741 919.631V919.631Z" fill="black" fill-opacity="0.25"/>
<mask id="path-71-outside-9_787_64800" maskUnits="userSpaceOnUse" x="132.906" y="803.354" width="453" height="509" fill="black">
<rect fill="white" x="132.906" y="803.354" width="453" height="509"/>
<path fill-rule="evenodd" clip-rule="evenodd" d="M359.067 1305.6C480.658 1305.6 579.227 1194.51 579.227 1057.48C579.227 920.442 480.658 809.354 359.067 809.354C358.935 809.354 358.803 809.354 358.671 809.354V809.354H196.406V890.265C160.689 934.372 138.906 993.058 138.906 1057.48C138.906 1121.9 160.689 1180.58 196.406 1224.69V1305.6H358.671V1305.6C358.803 1305.6 358.935 1305.6 359.067 1305.6Z"/>
</mask>
<path fill-rule="evenodd" clip-rule="evenodd" d="M359.067 1305.6C480.658 1305.6 579.227 1194.51 579.227 1057.48C579.227 920.442 480.658 809.354 359.067 809.354C358.935 809.354 358.803 809.354 358.671 809.354V809.354H196.406V890.265C160.689 934.372 138.906 993.058 138.906 1057.48C138.906 1121.9 160.689 1180.58 196.406 1224.69V1305.6H358.671V1305.6C358.803 1305.6 358.935 1305.6 359.067 1305.6Z" fill="#E40303"/>
<path d="M358.671 809.354H352.671V815.366L358.683 815.354L358.671 809.354ZM358.671 809.354H364.671V803.354H358.671V809.354ZM196.406 809.354V803.354H190.406V809.354H196.406ZM196.406 890.265L201.069 894.041L202.406 892.39V890.265H196.406ZM196.406 1224.69H202.406V1222.56L201.069 1220.91L196.406 1224.69ZM196.406 1305.6H190.406V1311.6H196.406V1305.6ZM358.671 1305.6V1311.6H364.671V1305.6H358.671ZM358.671 1305.6L358.684 1299.6L352.671 1299.59V1305.6H358.671ZM573.227 1057.48C573.227 1191.89 476.69 1299.6 359.067 1299.6V1311.6C484.626 1311.6 585.227 1197.13 585.227 1057.48H573.227ZM359.067 815.354C476.69 815.354 573.227 923.062 573.227 1057.48H585.227C585.227 917.823 484.626 803.354 359.067 803.354V815.354ZM358.683 815.354C358.811 815.354 358.939 815.354 359.067 815.354V803.354C358.931 803.354 358.795 803.354 358.659 803.354L358.683 815.354ZM352.671 809.354V809.354H364.671V809.354H352.671ZM196.406 815.354H358.671V803.354H196.406V815.354ZM202.406 890.265V809.354H190.406V890.265H202.406ZM144.906 1057.48C144.906 994.409 166.232 937.061 201.069 894.041L191.743 886.49C155.146 931.683 132.906 991.707 132.906 1057.48H144.906ZM201.069 1220.91C166.232 1177.89 144.906 1120.55 144.906 1057.48H132.906C132.906 1123.25 155.146 1183.27 191.743 1228.46L201.069 1220.91ZM202.406 1305.6V1224.69H190.406V1305.6H202.406ZM358.671 1299.6H196.406V1311.6H358.671V1299.6ZM352.671 1305.6V1305.6H364.671V1305.6H352.671ZM359.067 1299.6C358.939 1299.6 358.811 1299.6 358.684 1299.6L358.659 1311.6C358.795 1311.6 358.931 1311.6 359.067 1311.6V1299.6Z" fill="black" mask="url(#path-71-outside-9_787_64800)"/>
<path d="M196.801 1308.6C320.377 1308.6 419.962 1195.82 419.962 1057.48C419.962 919.132 320.377 806.353 196.801 806.353C73.2259 806.353 -26.3594 919.132 -26.3594 1057.48C-26.3594 1195.82 73.2259 1308.6 196.801 1308.6Z" fill="#D7D6DC" stroke="black" stroke-width="6"/>
<path d="M196.802 1280.24C306.457 1280.24 394.756 1180.16 394.756 1057.48C394.756 934.794 306.457 834.71 196.802 834.71C87.1471 834.71 -1.15234 934.794 -1.15234 1057.48C-1.15234 1180.16 87.1471 1280.24 196.802 1280.24Z" fill="white" stroke="black" stroke-width="6"/>
<rect x="306.043" y="834.709" width="202.136" height="24.117" rx="12.0585" fill="#D7D6DC" stroke="black" stroke-width="6"/>
<path d="M505.18 851.1C505.18 848.49 503.064 846.374 500.454 846.374L313.77 846.374C311.16 846.374 309.044 848.49 309.044 851.1V851.1C309.044 853.71 311.16 855.826 313.77 855.826L500.454 855.826C503.064 855.826 505.18 853.71 505.18 851.1V851.1Z" fill="black" fill-opacity="0.25"/>
<rect x="388.758" y="974.92" width="202.136" height="24.117" rx="12.0585" fill="#D7D6DC" stroke="black" stroke-width="6"/>
<path d="M587.895 991.311C587.895 988.701 585.779 986.585 583.168 986.585L396.485 986.585C393.875 986.585 391.759 988.701 391.759 991.311V991.311C391.759 993.921 393.875 996.037 396.485 996.037L583.168 996.037C585.779 996.037 587.895 993.921 587.895 991.311V991.311Z" fill="black" fill-opacity="0.25"/>
<mask id="path-79-outside-10_787_64800" maskUnits="userSpaceOnUse" x="220.34" y="672.595" width="201" height="146" fill="black">
<rect fill="white" x="220.34" y="672.595" width="201" height="146"/>
<path fill-rule="evenodd" clip-rule="evenodd" d="M318.571 678.595C318.55 678.595 318.529 678.595 318.507 678.595C318.486 678.595 318.465 678.595 318.444 678.595L316.533 678.595C316.529 678.595 316.525 678.595 316.521 678.595L235.398 678.595C230.395 678.595 226.34 682.651 226.34 687.653C226.34 692.656 230.395 696.712 235.398 696.712L309.449 696.712V793.599H295.265C290.262 793.599 286.207 797.654 286.207 802.657C286.207 807.66 290.262 811.716 295.265 811.716H325.985C330.988 811.716 335.044 807.66 335.044 802.657C335.044 798.193 331.815 794.484 327.566 793.736L327.566 696.712L405.543 696.712C410.545 696.712 414.601 692.656 414.601 687.653C414.601 682.651 410.545 678.595 405.543 678.595L318.571 678.595Z"/>
</mask>
<path fill-rule="evenodd" clip-rule="evenodd" d="M318.571 678.595C318.55 678.595 318.529 678.595 318.507 678.595C318.486 678.595 318.465 678.595 318.444 678.595L316.533 678.595C316.529 678.595 316.525 678.595 316.521 678.595L235.398 678.595C230.395 678.595 226.34 682.651 226.34 687.653C226.34 692.656 230.395 696.712 235.398 696.712L309.449 696.712V793.599H295.265C290.262 793.599 286.207 797.654 286.207 802.657C286.207 807.66 290.262 811.716 295.265 811.716H325.985C330.988 811.716 335.044 807.66 335.044 802.657C335.044 798.193 331.815 794.484 327.566 793.736L327.566 696.712L405.543 696.712C410.545 696.712 414.601 692.656 414.601 687.653C414.601 682.651 410.545 678.595 405.543 678.595L318.571 678.595Z" fill="#D7D6DC"/>
<path d="M318.571 678.595L318.53 684.595L318.55 684.595H318.571V678.595ZM318.444 678.595V684.595H318.465L318.485 684.595L318.444 678.595ZM316.533 678.595V672.595V678.595ZM316.521 678.595V684.595L316.529 684.595L316.521 678.595ZM235.398 678.595L235.398 672.595L235.398 678.595ZM235.398 696.712L235.398 690.712H235.398V696.712ZM309.449 696.712H315.449V690.712L309.449 690.712V696.712ZM309.449 793.599V799.599H315.449V793.599H309.449ZM327.566 793.736H321.566V798.772L326.526 799.645L327.566 793.736ZM327.566 696.712V690.712L321.566 690.712V696.712H327.566ZM405.543 696.712V702.712V696.712ZM405.543 678.595V684.595V678.595ZM318.507 684.595C318.515 684.595 318.522 684.595 318.53 684.595L318.612 672.595C318.577 672.595 318.542 672.595 318.507 672.595V684.595ZM318.485 684.595C318.493 684.595 318.5 684.595 318.507 684.595V672.595C318.473 672.595 318.438 672.595 318.403 672.595L318.485 684.595ZM316.533 684.595H318.444V672.595H316.533V684.595ZM316.529 684.595C316.53 684.595 316.532 684.595 316.533 684.595V672.595C316.527 672.595 316.52 672.595 316.513 672.595L316.529 684.595ZM235.398 684.595L316.521 684.595V672.595L235.398 672.595L235.398 684.595ZM232.34 687.653C232.34 685.964 233.709 684.595 235.398 684.595L235.398 672.595C227.082 672.595 220.34 679.337 220.34 687.653L232.34 687.653ZM235.398 690.712C233.709 690.712 232.34 689.343 232.34 687.653L220.34 687.653C220.34 695.97 227.082 702.712 235.398 702.712V690.712ZM309.449 690.712L235.398 690.712L235.398 702.712L309.449 702.712V690.712ZM315.449 793.599V696.712H303.449V793.599H315.449ZM295.265 799.599H309.449V787.599H295.265V799.599ZM292.207 802.657C292.207 800.968 293.576 799.599 295.265 799.599V787.599C286.948 787.599 280.207 794.341 280.207 802.657H292.207ZM295.265 805.716C293.576 805.716 292.207 804.346 292.207 802.657H280.207C280.207 810.974 286.948 817.716 295.265 817.716V805.716ZM325.985 805.716H295.265V817.716H325.985V805.716ZM329.044 802.657C329.044 804.346 327.674 805.716 325.985 805.716V817.716C334.302 817.716 341.044 810.974 341.044 802.657H329.044ZM326.526 799.645C327.957 799.897 329.044 801.156 329.044 802.657H341.044C341.044 795.231 335.674 789.071 328.606 787.827L326.526 799.645ZM321.566 696.712L321.566 793.736H333.566L333.566 696.712H321.566ZM405.543 690.712L327.566 690.712V702.712L405.543 702.712V690.712ZM408.601 687.653C408.601 689.343 407.232 690.712 405.543 690.712V702.712C413.859 702.712 420.601 695.97 420.601 687.653H408.601ZM405.543 684.595C407.232 684.595 408.601 685.964 408.601 687.653H420.601C420.601 679.337 413.859 672.595 405.543 672.595V684.595ZM318.571 684.595L405.543 684.595V672.595L318.571 672.595V684.595Z" fill="black" mask="url(#path-79-outside-10_787_64800)"/>
<path d="M413.812 691.987C413.812 689.377 411.697 687.261 409.086 687.261L231.067 687.261C228.457 687.261 226.341 689.377 226.341 691.987V691.987C226.341 694.597 228.457 696.713 231.067 696.713L409.086 696.713C411.697 696.713 413.812 694.597 413.812 691.987V691.987Z" fill="black" fill-opacity="0.25"/>
<path d="M324.804 701.438C322.194 701.438 320.078 703.554 320.078 706.165L320.078 789.66C320.078 792.27 322.194 794.386 324.804 794.386V794.386C327.414 794.386 329.53 792.27 329.53 789.66L329.53 706.165C329.53 703.554 327.414 701.438 324.804 701.438V701.438Z" fill="black" fill-opacity="0.25"/>
<path d="M335.043 808.565C335.043 805.519 332.574 803.051 329.529 803.051L292.507 803.051C289.462 803.051 286.994 805.519 286.994 808.565V808.565C286.994 811.61 289.462 814.079 292.507 814.079L329.529 814.079C332.574 814.079 335.043 811.61 335.043 808.565V808.565Z" fill="black" fill-opacity="0.25"/>
<path d="M85.2514 917.218V944.178H91.3714V932.898H101.411V944.178H107.491V917.218H101.411V927.578H91.3714V917.218H85.2514ZM127.99 927.818H118.07V922.218H128.59V917.218H111.95V944.178H129.15V939.178H118.07V932.778H127.99V927.818ZM132.437 944.178H149.277V939.058H138.557V917.218H132.437V944.178ZM166.221 937.258L168.301 944.178H174.861L166.501 917.218H158.501L150.261 944.178H156.581L158.501 937.258H166.221ZM159.381 932.698L160.981 926.978C161.421 925.418 161.821 923.378 162.221 921.778H162.301C162.701 923.378 163.181 925.378 163.661 926.978L165.341 932.698H159.381ZM177.591 944.058C179.111 944.258 181.351 944.458 184.511 944.458C189.791 944.458 194.111 943.338 196.951 940.978C199.551 938.778 201.431 935.218 201.431 930.058C201.431 925.298 199.671 921.978 196.871 919.898C194.271 917.938 190.951 917.018 185.831 917.018C182.751 917.018 179.831 917.218 177.591 917.578V944.058ZM183.711 921.938C184.231 921.818 185.111 921.698 186.471 921.698C191.711 921.698 194.991 924.658 194.951 930.258C194.951 936.698 191.351 939.738 185.831 939.698C185.071 939.698 184.231 939.698 183.711 939.578V921.938ZM204.562 917.218V944.178H210.682V917.218H204.562ZM220.289 944.178H226.409V922.338H233.769V917.218H213.049V922.338H220.289V944.178ZM246.831 916.778C238.871 916.778 233.711 922.818 233.711 930.898C233.711 938.578 238.391 944.618 246.391 944.618C254.271 944.618 259.631 939.258 259.631 930.418C259.631 922.978 255.111 916.778 246.831 916.778ZM246.671 921.618C250.871 921.618 253.191 925.778 253.191 930.618C253.191 935.858 250.831 939.778 246.711 939.778C242.631 939.778 240.151 936.058 240.151 930.778C240.151 925.538 242.551 921.618 246.671 921.618ZM261.703 942.938C263.223 943.778 266.263 944.578 269.343 944.578C276.743 944.578 280.223 940.738 280.223 936.218C280.223 932.418 277.983 929.938 273.223 928.178C269.743 926.858 268.223 926.098 268.223 924.378C268.223 922.978 269.503 921.778 272.143 921.778C274.783 921.778 276.703 922.538 277.783 923.058L279.143 918.138C277.543 917.418 275.303 916.778 272.263 916.778C265.903 916.778 262.063 920.298 262.063 924.898C262.063 928.818 264.983 931.298 269.463 932.858C272.703 934.018 273.983 934.978 273.983 936.658C273.983 938.418 272.503 939.578 269.703 939.578C267.103 939.578 264.583 938.738 262.943 937.898L261.703 942.938ZM289.144 924.618H289.784C290.424 924.618 290.744 924.938 290.864 925.578C290.984 926.138 291.104 926.698 291.304 926.938H293.504C293.384 926.698 293.264 926.338 293.064 925.418C292.864 924.498 292.464 924.018 291.744 923.778V923.698C292.624 923.458 293.224 922.898 293.224 922.258C293.224 921.618 292.944 921.138 292.544 920.858C292.064 920.578 291.424 920.378 289.984 920.378C288.664 920.378 287.624 920.498 287.184 920.578V926.938H289.144V924.618ZM289.224 921.778C289.384 921.778 289.624 921.738 289.864 921.738C290.544 921.738 290.984 922.018 290.984 922.538C290.984 923.018 290.504 923.298 289.784 923.298H289.224V921.778ZM290.024 916.778C286.064 916.778 282.904 919.858 282.904 923.658C282.904 927.498 286.064 930.578 290.024 930.578C293.984 930.578 297.104 927.498 297.104 923.658C297.104 919.858 293.984 916.778 290.024 916.778ZM289.984 918.498C292.904 918.498 295.024 920.818 295.024 923.658C295.024 926.578 292.904 928.858 290.024 928.858C287.144 928.858 285.024 926.578 285.024 923.698C285.024 920.818 287.144 918.498 289.984 918.498Z" fill="black"/>
</g>
<defs>
<clipPath id="clip0_787_64800">
<rect width="1000" height="1000" fill="white"/>
</clipPath>
</defs>
</svg>
