<svg width="1000" height="1000" viewBox="0 0 1000 1000" fill="none" xmlns="http://www.w3.org/2000/svg">
<g clip-path="url(#clip0_990_54979)">
<path d="M770.428 850.002C768.923 851.314 768.924 851.314 768.924 851.315L768.927 851.318L768.936 851.328L768.969 851.365C768.997 851.397 769.038 851.443 769.092 851.502C769.2 851.621 769.358 851.795 769.565 852.019C769.978 852.467 770.585 853.114 771.367 853.923C772.931 855.539 775.198 857.8 778.022 860.393C783.662 865.571 791.565 872.11 800.561 877.476C809.534 882.829 819.752 887.109 829.991 887.569C840.337 888.035 850.575 884.586 859.356 874.753C869.191 863.759 885.829 862.722 898.097 872.197C910.282 881.607 918.503 901.804 909.968 933.809C904.346 954.788 889.551 967.767 875.071 978.326C872.642 980.097 870.201 981.814 867.812 983.494C863.167 986.761 858.722 989.888 854.96 992.994C849.25 997.71 844.651 1002.73 843.033 1008.77C840.599 1017.85 842.279 1026.1 846.085 1034.32C849.359 1041.4 854.284 1048.6 859.607 1056.39C860.406 1057.56 861.213 1058.74 862.025 1059.94L862.056 1059.98L862.088 1060.03C890.334 1097.17 900.633 1143.42 886.904 1194.73C886.697 1195.45 886.454 1196.16 886.191 1196.91L886.103 1197.16C885.868 1197.83 885.619 1198.54 885.395 1199.26L885.377 1199.32L885.362 1199.38C885.094 1200.48 884.881 1201.53 884.671 1202.54C884.46 1203.56 884.25 1204.55 883.978 1205.59C883.686 1206.68 883.095 1207.62 882.311 1208.87L882.223 1209.01L882.115 1209.19L882.045 1209.38C865.202 1255.1 834.438 1289.45 790.401 1307.72C746.324 1326.02 688.724 1328.29 618.103 1309.38C561.197 1294.14 525.042 1264.71 506.398 1226.69C487.727 1188.63 486.466 1141.65 500.014 1091.09C511.491 1048.29 535.558 1022.71 558.309 1002.58C562.4 998.963 566.48 995.494 570.446 992.122C577.442 986.173 584.08 980.53 589.785 974.903C598.774 966.037 605.8 956.898 608.716 946.016C611.435 935.866 609.358 926.776 606.958 916.279C606.463 914.112 605.954 911.885 605.471 909.577C602.619 895.955 600.359 878.64 605.843 852.2C612.12 821.936 624.062 784.79 638.674 757.646C645.993 744.048 653.884 733.148 661.923 726.827C665.927 723.679 669.88 721.736 673.742 721.091C677.565 720.452 681.426 721.062 685.35 723.232C686 723.591 686.567 724.021 686.984 724.492C689.818 727.693 700.064 742.027 695.582 778.824C693.349 797.149 703.723 815.334 721.34 821.748C743.205 829.71 755.079 837.139 761.445 842.471C764.624 845.135 766.422 847.269 767.408 848.68C767.901 849.385 768.192 849.912 768.352 850.235C768.432 850.397 768.479 850.509 768.503 850.567C768.509 850.583 768.513 850.595 768.516 850.603L768.519 850.608L768.521 850.615L768.637 850.991L768.923 851.314L770.428 850.002Z" fill="#E40303" stroke="black" stroke-width="4"/>
<path d="M883.937 1210.07C849.913 1302.42 759.413 1349.28 617.595 1311.3C537.773 1289.91 566.519 1276.1 624.471 1285.64C897.523 1303.05 859.35 1146.78 806.133 1066.47C811.765 1045.45 790.988 983.473 857.887 961.113C925.86 902.399 900.488 865.825 857.859 873.425C879.05 849.737 929.244 869.345 911.916 934.326C900.303 977.663 850.785 987.618 844.979 1009.29C840.422 1026.3 851.127 1040.32 863.695 1058.83C892.324 1096.47 902.738 1143.36 888.846 1195.27C888.396 1196.83 887.8 1198.31 887.319 1199.86C886.803 1201.97 886.499 1203.91 885.927 1206.1C885.533 1207.57 884.719 1208.82 883.937 1210.07Z" fill="black" fill-opacity="0.25"/>
<path d="M762.871 893.735C853.495 930.577 868.587 901.909 871.027 879.217C871.127 878.291 869.947 877.842 869.281 878.493C788.53 957.429 688.471 810.699 686.478 816.104C684.468 821.554 689.492 829.433 701.014 841.776C706.431 847.578 733.16 881.657 762.871 893.735Z" fill="white" fill-opacity="0.25"/>
<path d="M619.19 905.322C610.182 825.821 640.992 778.874 660.941 751.555C676.327 737.169 684.324 756.513 674.335 767.123C649.781 793.205 622.434 832.152 636.092 909.851C629.285 1004.93 613.091 995.691 560.799 1053.54C500.382 1113.02 540.087 1245.61 534.965 1244.24C468.332 1158.88 527.328 1039.13 571.959 1011.89C606.558 985.23 624.574 952.834 619.19 905.322Z" fill="white" fill-opacity="0.25"/>
<path d="M724.01 1170.62L724.005 1170.62L723.817 1172.6C724.005 1170.62 724.005 1170.62 724.004 1170.62L724.003 1170.62L723.996 1170.62L723.971 1170.62L723.87 1170.61L723.475 1170.57C723.128 1170.54 722.614 1170.49 721.95 1170.42C720.621 1170.29 718.688 1170.11 716.275 1169.88C711.448 1169.42 704.695 1168.78 696.992 1168.08C681.589 1166.67 662.374 1164.97 647.154 1163.83C632.006 1162.69 611.336 1160 594.267 1152.65C577.225 1145.31 564.209 1133.55 563.295 1114.37L563.295 1114.37C562.73 1102.58 564.727 1087.55 569.705 1072.84C574.683 1058.13 582.595 1043.88 593.746 1033.51C626.091 1003.45 638.087 977.541 643.995 951.423C646.557 940.099 647.972 928.74 649.423 917.096C649.635 915.391 649.849 913.681 650.066 911.964C651.772 898.501 653.759 884.539 657.793 869.463C662.52 855.849 669.425 850.193 676.814 848.785C684.428 847.333 693.224 850.238 701.93 855.259C719.284 865.267 734.791 882.8 736.605 884.913C740.625 889.597 752.729 899.834 796.904 915.7C819.466 923.804 836.982 921.274 850.392 915.846C857.064 913.146 862.681 909.744 867.349 906.654C868.92 905.614 870.356 904.63 871.679 903.724C874.377 901.875 876.603 900.349 878.538 899.335L877.698 897.764L878.538 899.335C881.244 897.917 883.274 897.728 884.772 898.063C886.273 898.399 887.537 899.328 888.581 900.712C890.742 903.574 891.602 907.927 891.391 910.54L891.391 910.541C890.6 920.404 884.864 944.388 846.261 973.907C826.422 989.063 819.116 1004.35 818.351 1017.76C817.591 1031.09 823.317 1042.17 828.78 1048.96C857.101 1085.03 867.86 1119.85 867.458 1152.63C867.055 1185.46 855.459 1216.42 838.762 1244.74C833.572 1253.53 820.429 1252.81 815.923 1243.45L815.922 1243.44C803.294 1217.29 774.463 1175.66 724.01 1170.62Z" fill="white" stroke="black" stroke-width="4"/>
<path d="M840.641 425.261L838.741 424.752L838.2 426.642L703.493 897.125C701.954 902.499 705.119 908.09 710.518 909.537L774.721 926.74C780.12 928.187 785.656 924.927 787.011 919.504L905.592 444.7L906.069 442.792L904.169 442.283L840.641 425.261Z" fill="#3C3C3C" stroke="black" stroke-width="4"/>
<ellipse cx="758.378" cy="859.32" rx="6.36482" ry="6.31019" transform="rotate(15 758.378 859.32)" fill="#D7D6DC"/>
<ellipse cx="802.21" cy="695.764" rx="6.36482" ry="6.31019" transform="rotate(15 802.21 695.764)" fill="#D7D6DC"/>
<ellipse cx="817.722" cy="637.861" rx="6.36482" ry="6.31019" transform="rotate(15 817.722 637.861)" fill="#D7D6DC"/>
<ellipse cx="833.237" cy="579.956" rx="6.36482" ry="6.31019" transform="rotate(15 833.237 579.956)" fill="#D7D6DC"/>
<ellipse cx="848.753" cy="522.053" rx="6.36482" ry="6.31019" transform="rotate(15 848.753 522.053)" fill="#D7D6DC"/>
<ellipse cx="862.081" cy="472.275" rx="6.36482" ry="6.31019" transform="rotate(15 862.081 472.275)" fill="#D7D6DC"/>
<ellipse cx="774.663" cy="749.36" rx="6.36482" ry="6.31019" transform="rotate(15 774.663 749.36)" fill="#D7D6DC"/>
<ellipse cx="799.261" cy="755.947" rx="6.36482" ry="6.31019" transform="rotate(15 799.261 755.947)" fill="#D7D6DC"/>
<rect x="712.816" y="865.673" width="84.7426" height="15.6721" transform="rotate(15 712.816 865.673)" fill="#D7D6DC" stroke="black" stroke-width="2"/>
<rect x="726.43" y="814.879" width="84.7426" height="15.6721" transform="rotate(15 726.43 814.879)" fill="#D7D6DC" stroke="black" stroke-width="2"/>
<rect x="742.078" y="764.634" width="80.4994" height="15.6721" transform="rotate(15 742.078 764.634)" fill="#D7D6DC" stroke="black" stroke-width="2"/>
<rect x="757.594" y="706.73" width="80.4994" height="15.6721" transform="rotate(15 757.594 706.73)" fill="#D7D6DC" stroke="black" stroke-width="2"/>
<rect x="773.109" y="648.826" width="80.4994" height="15.6721" transform="rotate(15 773.109 648.826)" fill="#D7D6DC" stroke="black" stroke-width="2"/>
<rect x="788.625" y="590.923" width="80.4994" height="15.6721" transform="rotate(15 788.625 590.923)" fill="#D7D6DC" stroke="black" stroke-width="2"/>
<rect x="806.203" y="533.567" width="76.2562" height="15.6721" transform="rotate(15 806.203 533.567)" fill="#D7D6DC" stroke="black" stroke-width="2"/>
<rect x="821.715" y="475.663" width="76.2562" height="15.6721" transform="rotate(15 821.715 475.663)" fill="#D7D6DC" stroke="black" stroke-width="2"/>
<rect x="832.875" y="434.012" width="76.2562" height="15.6721" transform="rotate(15 832.875 434.012)" fill="#D7D6DC" stroke="black" stroke-width="2"/>
<path d="M837.788 426.572L837.27 428.504L839.202 429.022L902.931 446.098L904.996 446.651L905.411 444.554C906.623 438.419 908.627 430.959 911.637 424.297C914.67 417.582 918.597 411.966 923.494 409.136L923.575 409.089L923.651 409.035C926.332 407.133 929.025 405.458 931.685 403.804C932.182 403.495 932.678 403.186 933.173 402.877C936.283 400.933 939.332 398.966 942.049 396.717C947.545 392.167 951.691 386.447 952.783 377.311L989.219 241.332C989.808 239.133 990.275 235.516 989.86 231.564C989.444 227.604 988.126 223.15 984.989 219.464C982.054 216.016 978.427 213.025 975.05 210.311C974.735 210.058 974.422 209.807 974.113 209.559C971.039 207.095 968.274 204.878 966.227 202.625L966.133 202.52L966.024 202.43C963.625 200.438 961.471 198.954 959.362 198.245C957.115 197.49 955.004 197.641 952.88 198.691C950.886 199.678 948.938 201.431 946.807 203.709C944.779 205.876 942.438 208.686 939.607 212.083C939.434 212.291 939.259 212.501 939.082 212.714L938.993 212.819L938.921 212.936C936.701 216.497 930.787 224.008 922.574 234.015C914.794 243.494 905.05 255.098 894.66 267.471C894.135 268.097 893.608 268.724 893.08 269.352C871.141 295.48 846.633 324.712 831.942 344.311L831.941 344.312C828.499 348.908 827.498 354.684 827.697 360.168C827.897 365.667 829.308 371.089 830.936 375.223L830.997 375.378L831.082 375.521C831.799 376.713 832.534 377.917 833.274 379.127C835.87 383.375 838.515 387.701 840.529 391.87C843.158 397.312 844.401 401.892 843.496 405.268L837.788 426.572Z" fill="#DD933C" stroke="black" stroke-width="4"/>
<path d="M922.494 407.404C911.615 413.69 905.91 431.716 903.449 444.166L864.001 433.596L880.342 377.179C881.98 371.525 886.589 367.227 892.344 365.989L908.213 362.574C916.985 360.686 923.972 354.062 926.324 345.403L964.747 203.969C969.517 209.222 977.872 214.186 983.466 220.76C989.061 227.334 988.345 236.868 987.288 240.813L950.815 376.933C948.825 394.161 935.471 398.195 922.494 407.404Z" fill="black" fill-opacity="0.25"/>
<rect x="670.492" y="999.199" width="99.4722" height="20.8272" rx="10" transform="rotate(15 670.492 999.199)" fill="#D7D6DC" stroke="black" stroke-width="4"/>
<rect x="690.113" y="926.056" width="99.4722" height="20.8272" rx="10" transform="rotate(15 690.113 926.056)" fill="#D7D6DC" stroke="black" stroke-width="4"/>
<path d="M705.428 946.328C708.217 947.075 711.094 945.441 711.84 942.655C712.586 939.87 710.912 937.016 708.123 936.269C705.334 935.522 702.457 937.156 701.711 939.941C700.965 942.727 702.639 945.58 705.428 946.328Z" fill="#3C3C3C" stroke="black" stroke-width="2"/>
<path d="M719.768 950.172C722.557 950.92 725.433 949.286 726.18 946.5C726.926 943.715 725.252 940.861 722.463 940.114C719.674 939.366 716.797 941.001 716.051 943.786C715.304 946.572 716.978 949.425 719.768 950.172Z" fill="#3C3C3C" stroke="black" stroke-width="2"/>
<path d="M734.108 954.017C736.897 954.765 739.773 953.13 740.52 950.345C741.266 947.559 739.592 944.706 736.803 943.958C734.014 943.211 731.137 944.845 730.391 947.631C729.644 950.416 731.318 953.27 734.108 954.017Z" fill="#3C3C3C" stroke="black" stroke-width="2"/>
<path d="M748.451 957.862C751.24 958.609 754.117 956.975 754.863 954.19C755.61 951.404 753.936 948.551 751.147 947.803C748.357 947.056 745.481 948.69 744.734 951.476C743.988 954.261 745.662 957.115 748.451 957.862Z" fill="#3C3C3C" stroke="black" stroke-width="2"/>
<path d="M762.791 961.708C765.58 962.455 768.457 960.821 769.203 958.035C769.95 955.25 768.276 952.396 765.486 951.649C762.697 950.902 759.821 952.536 759.074 955.321C758.328 958.107 760.002 960.96 762.791 961.708Z" fill="#3C3C3C" stroke="black" stroke-width="2"/>
<rect x="894.002" y="289.769" width="5.24321" height="910.719" transform="rotate(15 894.002 289.769)" fill="#D7D6DC" stroke="black"/>
<rect x="915.967" y="265.17" width="5.24321" height="940.166" transform="rotate(15 915.967 265.17)" fill="#D7D6DC" stroke="black"/>
<rect x="938.209" y="239.554" width="5.24321" height="970.666" transform="rotate(15 938.209 239.554)" fill="#D7D6DC" stroke="black"/>
<rect x="959.088" y="219.017" width="5.24321" height="995.906" transform="rotate(15 959.088 219.017)" fill="#D7D6DC" stroke="black"/>
<rect x="871.217" y="317.418" width="5.24321" height="878.116" transform="rotate(15 871.217 317.418)" fill="#D7D6DC" stroke="black"/>
<rect x="-0.704713" y="0.0807936" width="13.6378" height="13.7124" transform="matrix(0.624426 -0.781084 0.784999 0.619496 949.805 220.984)" fill="#3C3C3C" stroke="black"/>
<rect x="-0.704713" y="0.0807936" width="13.6378" height="13.7124" transform="matrix(0.624426 -0.781084 0.784999 0.619496 929.676 241.351)" fill="#3C3C3C" stroke="black"/>
<rect x="-0.704713" y="0.0807936" width="13.6378" height="13.7124" transform="matrix(0.624426 -0.781084 0.784999 0.619496 907.984 266.395)" fill="#3C3C3C" stroke="black"/>
<rect x="-0.704713" y="0.0807936" width="13.6378" height="13.7124" transform="matrix(0.624426 -0.781084 0.784999 0.619496 885.676 294.351)" fill="#3C3C3C" stroke="black"/>
<rect x="-0.704713" y="0.0807936" width="13.6378" height="13.7124" transform="matrix(0.624426 -0.781084 0.784999 0.619496 862.672 321.35)" fill="#3C3C3C" stroke="black"/>
<mask id="path-43-outside-1_990_54979" maskUnits="userSpaceOnUse" x="832.604" y="283.682" width="35.5688" height="34.7523" fill="black">
<rect fill="white" x="832.604" y="283.682" width="35.5688" height="34.7523"/>
<path fill-rule="evenodd" clip-rule="evenodd" d="M847.404 286.518L835.426 301.213L845.33 309.181L849.988 303.466L857.418 309.444L860.08 306.178L852.65 300.201L857.308 294.486L847.404 286.518Z"/>
</mask>
<path fill-rule="evenodd" clip-rule="evenodd" d="M847.404 286.518L835.426 301.213L845.33 309.181L849.988 303.466L857.418 309.444L860.08 306.178L852.65 300.201L857.308 294.486L847.404 286.518Z" fill="#D7D6DC"/>
<path d="M835.426 301.213L833.867 299.959L832.604 301.509L834.162 302.763L835.426 301.213ZM847.404 286.518L848.667 284.968L847.109 283.714L845.845 285.265L847.404 286.518ZM845.33 309.181L844.066 310.731L845.625 311.985L846.888 310.435L845.33 309.181ZM849.988 303.466L851.252 301.916L849.694 300.662L848.43 302.213L849.988 303.466ZM857.418 309.444L856.155 310.994L857.713 312.248L858.977 310.697L857.418 309.444ZM860.08 306.178L861.638 307.432L862.902 305.882L861.344 304.628L860.08 306.178ZM852.65 300.201L851.092 298.947L849.828 300.497L851.386 301.751L852.65 300.201ZM857.308 294.486L858.866 295.74L860.13 294.19L858.571 292.936L857.308 294.486ZM836.984 302.467L848.962 287.772L845.845 285.265L833.867 299.959L836.984 302.467ZM846.594 307.631L836.689 299.663L834.162 302.763L844.066 310.731L846.594 307.631ZM848.43 302.213L843.772 307.927L846.888 310.435L851.547 304.72L848.43 302.213ZM858.682 307.893L851.252 301.916L848.725 305.016L856.155 310.994L858.682 307.893ZM858.522 304.925L855.86 308.19L858.977 310.697L861.638 307.432L858.522 304.925ZM851.386 301.751L858.816 307.729L861.344 304.628L853.914 298.651L851.386 301.751ZM855.75 293.233L851.092 298.947L854.208 301.454L858.866 295.74L855.75 293.233ZM846.14 288.069L856.044 296.037L858.571 292.936L848.667 284.968L846.14 288.069Z" fill="black" mask="url(#path-43-outside-1_990_54979)"/>
<mask id="path-45-outside-2_990_54979" maskUnits="userSpaceOnUse" x="854.362" y="255.762" width="35.5688" height="34.7523" fill="black">
<rect fill="white" x="854.362" y="255.762" width="35.5688" height="34.7523"/>
<path fill-rule="evenodd" clip-rule="evenodd" d="M869.161 258.598L857.184 273.293L867.088 281.261L871.746 275.546L879.176 281.524L881.838 278.258L874.408 272.281L879.066 266.567L869.161 258.598Z"/>
</mask>
<path fill-rule="evenodd" clip-rule="evenodd" d="M869.161 258.598L857.184 273.293L867.088 281.261L871.746 275.546L879.176 281.524L881.838 278.258L874.408 272.281L879.066 266.567L869.161 258.598Z" fill="#D7D6DC"/>
<path d="M857.184 273.293L855.625 272.039L854.362 273.59L855.92 274.843L857.184 273.293ZM869.161 258.598L870.425 257.048L868.867 255.795L867.603 257.345L869.161 258.598ZM867.088 281.261L865.824 282.811L867.383 284.065L868.646 282.515L867.088 281.261ZM871.746 275.546L873.01 273.996L871.451 272.742L870.188 274.293L871.746 275.546ZM879.176 281.524L877.912 283.074L879.471 284.328L880.734 282.777L879.176 281.524ZM881.838 278.258L883.396 279.512L884.66 277.962L883.101 276.708L881.838 278.258ZM874.408 272.281L872.849 271.027L871.586 272.577L873.144 273.831L874.408 272.281ZM879.066 266.567L880.624 267.82L881.888 266.27L880.329 265.016L879.066 266.567ZM858.742 274.547L870.72 259.852L867.603 257.345L855.625 272.039L858.742 274.547ZM868.352 279.711L858.447 271.743L855.92 274.843L865.824 282.811L868.352 279.711ZM870.188 274.293L865.53 280.007L868.646 282.515L873.304 276.8L870.188 274.293ZM880.44 279.974L873.01 273.996L870.482 277.097L877.912 283.074L880.44 279.974ZM880.279 277.005L877.618 280.27L880.734 282.777L883.396 279.512L880.279 277.005ZM873.144 273.831L880.574 279.809L883.101 276.708L875.671 270.731L873.144 273.831ZM877.507 265.313L872.849 271.027L875.966 273.535L880.624 267.82L877.507 265.313ZM867.898 260.149L877.802 268.117L880.329 265.016L870.425 257.048L867.898 260.149Z" fill="black" mask="url(#path-45-outside-2_990_54979)"/>
<mask id="path-47-outside-3_990_54979" maskUnits="userSpaceOnUse" x="875.303" y="230.885" width="35.5688" height="34.7523" fill="black">
<rect fill="white" x="875.303" y="230.885" width="35.5688" height="34.7523"/>
<path fill-rule="evenodd" clip-rule="evenodd" d="M890.103 233.721L878.125 248.416L888.029 256.384L892.687 250.669L900.117 256.647L902.779 253.381L895.349 247.404L900.007 241.69L890.103 233.721Z"/>
</mask>
<path fill-rule="evenodd" clip-rule="evenodd" d="M890.103 233.721L878.125 248.416L888.029 256.384L892.687 250.669L900.117 256.647L902.779 253.381L895.349 247.404L900.007 241.69L890.103 233.721Z" fill="#D7D6DC"/>
<path d="M878.125 248.416L876.567 247.162L875.303 248.713L876.861 249.966L878.125 248.416ZM890.103 233.721L891.366 232.171L889.808 230.918L888.544 232.468L890.103 233.721ZM888.029 256.384L886.766 257.934L888.324 259.188L889.588 257.638L888.029 256.384ZM892.687 250.669L893.951 249.119L892.393 247.865L891.129 249.416L892.687 250.669ZM900.117 256.647L898.854 258.197L900.412 259.451L901.676 257.901L900.117 256.647ZM902.779 253.381L904.337 254.635L905.601 253.085L904.043 251.831L902.779 253.381ZM895.349 247.404L893.791 246.15L892.527 247.7L894.086 248.954L895.349 247.404ZM900.007 241.69L901.565 242.943L902.829 241.393L901.271 240.139L900.007 241.69ZM879.683 249.67L891.661 234.975L888.544 232.468L876.567 247.162L879.683 249.67ZM889.293 254.834L879.389 246.866L876.861 249.966L886.766 257.934L889.293 254.834ZM891.129 249.416L886.471 255.13L889.588 257.638L894.246 251.923L891.129 249.416ZM901.381 255.097L893.951 249.119L891.424 252.22L898.854 258.197L901.381 255.097ZM901.221 252.128L898.559 255.393L901.676 257.901L904.337 254.635L901.221 252.128ZM894.086 248.954L901.516 254.932L904.043 251.831L896.613 245.854L894.086 248.954ZM898.449 240.436L893.791 246.15L896.907 248.658L901.565 242.943L898.449 240.436ZM888.839 235.272L898.743 243.24L901.271 240.139L891.366 232.171L888.839 235.272Z" fill="black" mask="url(#path-47-outside-3_990_54979)"/>
<mask id="path-49-outside-4_990_54979" maskUnits="userSpaceOnUse" x="897.537" y="205.272" width="35.5688" height="34.7523" fill="black">
<rect fill="white" x="897.537" y="205.272" width="35.5688" height="34.7523"/>
<path fill-rule="evenodd" clip-rule="evenodd" d="M912.337 208.108L900.359 222.803L910.264 230.771L914.922 225.056L922.352 231.034L925.014 227.768L917.584 221.791L922.241 216.076L912.337 208.108Z"/>
</mask>
<path fill-rule="evenodd" clip-rule="evenodd" d="M912.337 208.108L900.359 222.803L910.264 230.771L914.922 225.056L922.352 231.034L925.014 227.768L917.584 221.791L922.241 216.076L912.337 208.108Z" fill="#D7D6DC"/>
<path d="M900.359 222.803L898.801 221.549L897.537 223.099L899.096 224.353L900.359 222.803ZM912.337 208.108L913.601 206.558L912.042 205.304L910.779 206.855L912.337 208.108ZM910.264 230.771L909 232.321L910.558 233.575L911.822 232.024L910.264 230.771ZM914.922 225.056L916.185 223.506L914.627 222.252L913.364 223.802L914.922 225.056ZM922.352 231.034L921.088 232.584L922.646 233.837L923.91 232.287L922.352 231.034ZM925.014 227.768L926.572 229.022L927.835 227.472L926.277 226.218L925.014 227.768ZM917.584 221.791L916.025 220.537L914.762 222.087L916.32 223.341L917.584 221.791ZM922.241 216.076L923.8 217.33L925.063 215.78L923.505 214.526L922.241 216.076ZM901.918 224.056L913.895 209.362L910.779 206.855L898.801 221.549L901.918 224.056ZM911.527 229.221L901.623 221.252L899.096 224.353L909 232.321L911.527 229.221ZM913.364 223.802L908.705 229.517L911.822 232.024L916.48 226.31L913.364 223.802ZM923.615 229.483L916.185 223.506L913.658 226.606L921.088 232.584L923.615 229.483ZM923.455 226.514L920.793 229.78L923.91 232.287L926.572 229.022L923.455 226.514ZM916.32 223.341L923.75 229.318L926.277 226.218L918.847 220.24L916.32 223.341ZM920.683 214.823L916.025 220.537L919.142 223.044L923.8 217.33L920.683 214.823ZM911.074 209.658L920.978 217.627L923.505 214.526L913.601 206.558L911.074 209.658Z" fill="black" mask="url(#path-49-outside-4_990_54979)"/>
<mask id="path-51-outside-5_990_54979" maskUnits="userSpaceOnUse" x="915.619" y="182.892" width="35.5688" height="34.7523" fill="black">
<rect fill="white" x="915.619" y="182.892" width="35.5688" height="34.7523"/>
<path fill-rule="evenodd" clip-rule="evenodd" d="M930.419 185.728L918.441 200.423L928.346 208.391L933.004 202.676L940.434 208.654L943.096 205.388L935.666 199.411L940.323 193.696L930.419 185.728Z"/>
</mask>
<path fill-rule="evenodd" clip-rule="evenodd" d="M930.419 185.728L918.441 200.423L928.346 208.391L933.004 202.676L940.434 208.654L943.096 205.388L935.666 199.411L940.323 193.696L930.419 185.728Z" fill="#D7D6DC"/>
<path d="M918.441 200.423L916.883 199.169L915.619 200.719L917.178 201.973L918.441 200.423ZM930.419 185.728L931.683 184.178L930.125 182.924L928.861 184.475L930.419 185.728ZM928.346 208.391L927.082 209.941L928.64 211.195L929.904 209.645L928.346 208.391ZM933.004 202.676L934.267 201.126L932.709 199.872L931.446 201.423L933.004 202.676ZM940.434 208.654L939.17 210.204L940.729 211.458L941.992 209.907L940.434 208.654ZM943.096 205.388L944.654 206.642L945.917 205.092L944.359 203.838L943.096 205.388ZM935.666 199.411L934.107 198.157L932.844 199.707L934.402 200.961L935.666 199.411ZM940.323 193.696L941.882 194.95L943.145 193.4L941.587 192.146L940.323 193.696ZM920 201.677L931.977 186.982L928.861 184.475L916.883 199.169L920 201.677ZM929.609 206.841L919.705 198.873L917.178 201.973L927.082 209.941L929.609 206.841ZM931.446 201.423L926.787 207.137L929.904 209.645L934.562 203.93L931.446 201.423ZM941.697 207.103L934.267 201.126L931.74 204.226L939.17 210.204L941.697 207.103ZM941.537 204.135L938.876 207.4L941.992 209.907L944.654 206.642L941.537 204.135ZM934.402 200.961L941.832 206.938L944.359 203.838L936.929 197.861L934.402 200.961ZM938.765 192.443L934.107 198.157L937.224 200.664L941.882 194.95L938.765 192.443ZM929.156 187.279L939.06 195.247L941.587 192.146L931.683 184.178L929.156 187.279Z" fill="black" mask="url(#path-51-outside-5_990_54979)"/>
</g>
<defs>
<clipPath id="clip0_990_54979">
<rect width="1000" height="1000" fill="white"/>
</clipPath>
</defs>
</svg>
