<svg width="1000" height="1000" viewBox="0 0 1000 1000" fill="none" xmlns="http://www.w3.org/2000/svg">
<g clip-path="url(#clip0_710_33666)">
<path d="M348.971 1128.75C349.164 1132.38 353.696 1133.89 356.029 1131.11L837.765 556.999C839.722 554.666 838.458 551.088 835.469 550.503L807.675 545.062C799.102 543.384 790.294 546.496 784.679 553.188L352.237 1068.55C348.327 1073.21 346.332 1079.18 346.656 1085.25L348.971 1128.75Z" fill="black" fill-opacity="0.25"/>
<path d="M376.163 1069.84L919.845 421.903C924.638 416.192 933.153 415.447 938.864 420.239L1130.7 581.208C1139.8 588.84 1140.98 602.402 1133.35 611.498L599.952 1247.18C592.319 1256.27 578.758 1257.46 569.662 1249.83L377.827 1088.86C372.115 1084.07 371.37 1075.55 376.163 1069.84Z" fill="#E40303" stroke="black" stroke-width="5"/>
<rect x="379.076" y="1076.06" width="199.802" height="3.27545" rx="1.63772" transform="rotate(-50 379.076 1076.06)" fill="white" fill-opacity="0.25"/>
<rect x="514.523" y="914.642" width="634.345" height="3.27545" rx="1.63772" transform="rotate(-50 514.523 914.642)" fill="white" fill-opacity="0.25"/>
<path d="M605.675 996.818C602.291 993.978 601.849 988.932 604.689 985.547L996.539 518.559C999.379 515.174 1004.43 514.733 1007.81 517.573L1125.47 616.298L723.331 1095.54L605.675 996.818Z" fill="black" fill-opacity="0.5"/>
<rect x="611.813" y="990.756" width="34.1962" height="134.47" rx="5.5" transform="rotate(-50 611.813 990.756)" fill="white" stroke="#090909" stroke-width="3"/>
<rect opacity="0.3" x="617.34" y="993.436" width="22.283" height="118.1" rx="2" transform="rotate(-50 617.34 993.436)" fill="black" fill-opacity="0.25"/>
<path d="M632.495 966.106L631.531 967.255L632.68 968.219L733.392 1052.73L734.541 1053.69L735.505 1052.54L736.132 1051.79C738.084 1049.47 737.781 1046 735.454 1044.05L640.871 964.681C638.544 962.729 635.075 963.032 633.122 965.359L632.495 966.106Z" fill="#3C3C3C" stroke="#090909" stroke-width="3"/>
<rect x="634.731" y="963.444" width="34.1962" height="134.47" rx="5.5" transform="rotate(-50 634.731 963.444)" fill="white" stroke="#090909" stroke-width="3"/>
<rect opacity="0.3" x="640.258" y="966.123" width="22.283" height="118.1" rx="2" transform="rotate(-50 640.258 966.123)" fill="black" fill-opacity="0.25"/>
<path d="M655.413 938.794L654.449 939.943L655.598 940.907L756.31 1025.41L757.459 1026.38L758.423 1025.23L759.05 1024.48C761.002 1022.16 760.699 1018.69 758.372 1016.73L663.789 937.369C661.462 935.416 657.993 935.72 656.04 938.047L655.413 938.794Z" fill="#3C3C3C" stroke="#090909" stroke-width="3"/>
<path d="M757.975 1020.91C755.573 1019.81 754.878 1016.72 756.576 1014.7L777.295 990.006C778.912 988.079 781.886 988.105 783.469 990.061L789.051 996.962C790.255 998.45 790.236 1000.58 789.006 1002.05L770.92 1023.6C769.763 1024.98 767.828 1025.42 766.191 1024.67L757.975 1020.91Z" fill="black" fill-opacity="0.25"/>
<rect x="657.647" y="936.134" width="34.1962" height="134.47" rx="5.5" transform="rotate(-50 657.647 936.134)" fill="white" stroke="#090909" stroke-width="3"/>
<rect opacity="0.3" x="663.174" y="938.813" width="22.283" height="118.1" rx="2" transform="rotate(-50 663.174 938.813)" fill="black" fill-opacity="0.25"/>
<path d="M678.329 911.484L677.365 912.633L678.514 913.597L779.226 998.104L780.375 999.068L781.339 997.919L781.966 997.173C783.918 994.846 783.615 991.377 781.288 989.424L686.705 910.059C684.378 908.107 680.909 908.41 678.956 910.737L678.329 911.484Z" fill="#3C3C3C" stroke="#090909" stroke-width="3"/>
<path d="M780.893 993.592C778.491 992.492 777.796 989.408 779.494 987.384L800.213 962.693C801.83 960.765 804.804 960.792 806.387 962.748L811.969 969.649C813.173 971.137 813.154 973.269 811.924 974.736L793.838 996.289C792.681 997.668 790.745 998.104 789.109 997.355L780.893 993.592Z" fill="black" fill-opacity="0.25"/>
<rect x="680.564" y="908.821" width="34.1962" height="134.47" rx="5.5" transform="rotate(-50 680.564 908.821)" fill="white" stroke="#090909" stroke-width="3"/>
<rect opacity="0.3" x="686.092" y="911.5" width="22.283" height="118.1" rx="2" transform="rotate(-50 686.092 911.5)" fill="black" fill-opacity="0.25"/>
<path d="M701.247 884.171L700.283 885.32L701.432 886.284L802.144 970.791L803.293 971.755L804.257 970.606L804.884 969.859C806.836 967.532 806.533 964.063 804.206 962.111L709.623 882.746C707.296 880.793 703.827 881.097 701.874 883.424L701.247 884.171Z" fill="#3C3C3C" stroke="#090909" stroke-width="3"/>
<path d="M803.813 966.279C801.411 965.179 800.716 962.094 802.414 960.071L823.133 935.379C824.75 933.452 827.724 933.478 829.307 935.435L834.889 942.335C836.093 943.823 836.074 945.956 834.844 947.422L816.758 968.975C815.601 970.354 813.665 970.791 812.029 970.041L803.813 966.279Z" fill="black" fill-opacity="0.25"/>
<rect x="703.484" y="881.507" width="34.1962" height="134.47" rx="5.5" transform="rotate(-50 703.484 881.507)" fill="white" stroke="#090909" stroke-width="3"/>
<rect opacity="0.3" x="709.012" y="884.187" width="22.283" height="118.1" rx="2" transform="rotate(-50 709.012 884.187)" fill="black" fill-opacity="0.25"/>
<path d="M724.167 856.857L723.203 858.006L724.352 858.97L825.064 943.477L826.213 944.442L827.177 943.292L827.804 942.546C829.756 940.219 829.453 936.75 827.126 934.797L732.543 855.432C730.216 853.48 726.746 853.783 724.794 856.11L724.167 856.857Z" fill="#3C3C3C" stroke="#090909" stroke-width="3"/>
<path d="M826.731 938.965C824.329 937.865 823.634 934.781 825.332 932.757L846.051 908.066C847.668 906.138 850.642 906.165 852.225 908.121L857.807 915.022C859.011 916.51 858.992 918.642 857.762 920.109L839.676 941.662C838.519 943.041 836.583 943.477 834.947 942.728L826.731 938.965Z" fill="black" fill-opacity="0.25"/>
<rect x="726.402" y="854.194" width="34.1962" height="134.47" rx="5.5" transform="rotate(-50 726.402 854.194)" fill="white" stroke="#090909" stroke-width="3"/>
<rect opacity="0.3" x="731.93" y="856.873" width="22.283" height="118.1" rx="2" transform="rotate(-50 731.93 856.873)" fill="black" fill-opacity="0.25"/>
<path d="M747.085 829.544L746.121 830.693L747.27 831.657L847.982 916.164L849.131 917.128L850.095 915.979L850.722 915.232C852.674 912.905 852.371 909.436 850.044 907.484L755.46 828.119C753.134 826.166 749.664 826.47 747.712 828.797L747.085 829.544Z" fill="#3C3C3C" stroke="#090909" stroke-width="3"/>
<path d="M849.645 911.656C847.243 910.556 846.548 907.471 848.246 905.448L868.965 880.756C870.582 878.829 873.556 878.855 875.139 880.811L880.721 887.712C881.925 889.2 881.906 891.333 880.676 892.799L862.59 914.352C861.433 915.731 859.497 916.168 857.861 915.418L849.645 911.656Z" fill="black" fill-opacity="0.25"/>
<rect x="749.316" y="826.884" width="34.1962" height="134.47" rx="5.5" transform="rotate(-50 749.316 826.884)" fill="white" stroke="#090909" stroke-width="3"/>
<rect opacity="0.3" x="754.844" y="829.563" width="22.283" height="118.1" rx="2" transform="rotate(-50 754.844 829.563)" fill="black" fill-opacity="0.25"/>
<path d="M769.999 802.234L769.035 803.383L770.184 804.347L870.896 888.854L872.045 889.818L873.009 888.669L873.636 887.923C875.588 885.596 875.285 882.127 872.958 880.174L778.375 800.809C776.048 798.857 772.578 799.16 770.626 801.487L769.999 802.234Z" fill="#3C3C3C" stroke="#090909" stroke-width="3"/>
<path d="M872.563 884.343C870.161 883.243 869.466 880.159 871.164 878.135L891.883 853.444C893.5 851.516 896.474 851.543 898.057 853.499L903.639 860.4C904.843 861.888 904.824 864.02 903.594 865.487L885.508 887.04C884.351 888.419 882.415 888.855 880.779 888.106L872.563 884.343Z" fill="black" fill-opacity="0.25"/>
<rect x="772.234" y="799.572" width="34.1962" height="134.47" rx="5.5" transform="rotate(-50 772.234 799.572)" fill="white" stroke="#090909" stroke-width="3"/>
<rect opacity="0.3" x="777.762" y="802.251" width="22.283" height="118.1" rx="2" transform="rotate(-50 777.762 802.251)" fill="black" fill-opacity="0.25"/>
<path d="M792.917 774.922L791.953 776.071L793.102 777.035L893.814 861.542L894.963 862.506L895.927 861.357L896.554 860.61C898.506 858.283 898.203 854.814 895.876 852.862L801.293 773.497C798.966 771.544 795.496 771.848 793.544 774.175L792.917 774.922Z" fill="#3C3C3C" stroke="#090909" stroke-width="3"/>
<path d="M895.483 857.031C893.081 855.931 892.386 852.846 894.084 850.823L914.803 826.131C916.42 824.204 919.394 824.23 920.976 826.186L926.559 833.087C927.763 834.575 927.744 836.708 926.514 838.174L908.428 859.727C907.271 861.106 905.335 861.543 903.699 860.793L895.483 857.031Z" fill="black" fill-opacity="0.25"/>
<rect x="795.154" y="772.259" width="34.1962" height="134.47" rx="5.5" transform="rotate(-50 795.154 772.259)" fill="white" stroke="#090909" stroke-width="3"/>
<rect opacity="0.3" x="800.682" y="774.938" width="22.283" height="118.1" rx="2" transform="rotate(-50 800.682 774.938)" fill="black" fill-opacity="0.25"/>
<path d="M815.837 747.609L814.873 748.758L816.022 749.722L916.734 834.229L917.883 835.193L918.847 834.044L919.473 833.298C921.426 830.971 921.122 827.502 918.796 825.549L824.212 746.184C821.886 744.232 818.416 744.535 816.464 746.862L815.837 747.609Z" fill="#3C3C3C" stroke="#090909" stroke-width="3"/>
<path d="M918.401 829.718C915.999 828.618 915.304 825.534 917.002 823.51L937.721 798.819C939.338 796.891 942.312 796.918 943.894 798.874L949.477 805.775C950.681 807.263 950.662 809.395 949.432 810.862L931.346 832.415C930.189 833.794 928.253 834.23 926.617 833.481L918.401 829.718Z" fill="black" fill-opacity="0.25"/>
<rect x="818.072" y="744.947" width="34.1962" height="134.47" rx="5.5" transform="rotate(-50 818.072 744.947)" fill="white" stroke="#090909" stroke-width="3"/>
<rect opacity="0.3" x="823.6" y="747.626" width="22.283" height="118.1" rx="2" transform="rotate(-50 823.6 747.626)" fill="black" fill-opacity="0.25"/>
<path d="M838.755 720.297L837.791 721.446L838.94 722.41L939.652 806.917L940.801 807.881L941.765 806.732L942.391 805.985C944.344 803.658 944.04 800.189 941.714 798.237L847.13 718.872C844.803 716.919 841.334 717.223 839.382 719.55L838.755 720.297Z" fill="#3C3C3C" stroke="#090909" stroke-width="3"/>
<path d="M941.315 802.409C938.913 801.309 938.218 798.224 939.916 796.201L960.635 771.509C962.252 769.582 965.226 769.608 966.809 771.564L972.391 778.465C973.595 779.953 973.576 782.086 972.346 783.552L954.26 805.105C953.103 806.484 951.167 806.92 949.531 806.171L941.315 802.409Z" fill="black" fill-opacity="0.25"/>
<rect x="840.986" y="717.637" width="34.1962" height="134.47" rx="5.5" transform="rotate(-50 840.986 717.637)" fill="white" stroke="#090909" stroke-width="3"/>
<rect opacity="0.3" x="846.514" y="720.316" width="22.283" height="118.1" rx="2" transform="rotate(-50 846.514 720.316)" fill="black" fill-opacity="0.25"/>
<path d="M861.669 692.987L860.705 694.136L861.854 695.1L962.566 779.607L963.715 780.571L964.679 779.422L965.306 778.676C967.258 776.349 966.955 772.88 964.628 770.927L870.044 691.562C867.718 689.61 864.248 689.913 862.296 692.24L861.669 692.987Z" fill="#3C3C3C" stroke="#090909" stroke-width="3"/>
<path d="M964.227 775.105C961.825 774.005 961.13 770.921 962.828 768.897L983.547 744.205C985.164 742.278 988.138 742.305 989.721 744.261L995.303 751.161C996.507 752.65 996.488 754.782 995.258 756.248L977.172 777.802C976.015 779.181 974.079 779.617 972.443 778.867L964.227 775.105Z" fill="black" fill-opacity="0.25"/>
<rect x="863.898" y="690.333" width="34.1962" height="134.47" rx="5.5" transform="rotate(-50 863.898 690.333)" fill="white" stroke="#090909" stroke-width="3"/>
<rect opacity="0.3" x="869.426" y="693.013" width="22.283" height="118.1" rx="2" transform="rotate(-50 869.426 693.013)" fill="black" fill-opacity="0.25"/>
<path d="M884.581 665.683L883.617 666.832L884.766 667.797L985.478 752.303L986.627 753.268L987.591 752.119L988.218 751.372C990.17 749.045 989.867 745.576 987.54 743.623L892.957 664.259C890.63 662.306 887.161 662.61 885.208 664.937L884.581 665.683Z" fill="#3C3C3C" stroke="#090909" stroke-width="3"/>
<path d="M987.145 747.79C984.743 746.691 984.048 743.606 985.746 741.583L1006.46 716.891C1008.08 714.963 1011.06 714.99 1012.64 716.946L1018.22 723.847C1019.43 725.335 1019.41 727.468 1018.18 728.934L1000.09 750.487C998.933 751.866 996.997 752.302 995.361 751.553L987.145 747.79Z" fill="black" fill-opacity="0.25"/>
<rect x="886.816" y="663.019" width="34.1962" height="134.47" rx="5.5" transform="rotate(-50 886.816 663.019)" fill="white" stroke="#090909" stroke-width="3"/>
<rect opacity="0.3" x="892.344" y="665.698" width="22.283" height="118.1" rx="2" transform="rotate(-50 892.344 665.698)" fill="black" fill-opacity="0.25"/>
<path d="M907.499 638.369L906.535 639.518L907.684 640.482L1008.4 724.989L1009.54 725.953L1010.51 724.804L1011.14 724.057C1013.09 721.731 1012.78 718.261 1010.46 716.309L915.875 636.944C913.548 634.992 910.078 635.295 908.126 637.622L907.499 638.369Z" fill="#3C3C3C" stroke="#090909" stroke-width="3"/>
<rect x="909.732" y="635.709" width="34.1962" height="134.47" rx="5.5" transform="rotate(-50 909.732 635.709)" fill="white" stroke="#090909" stroke-width="3"/>
<rect opacity="0.3" x="915.26" y="638.389" width="22.283" height="118.1" rx="2" transform="rotate(-50 915.26 638.389)" fill="black" fill-opacity="0.25"/>
<path d="M930.415 611.059L929.451 612.208L930.6 613.173L1031.31 697.679L1032.46 698.644L1033.43 697.495L1034.05 696.748C1036 694.421 1035.7 690.952 1033.37 688.999L938.791 609.635C936.464 607.682 932.994 607.986 931.042 610.313L930.415 611.059Z" fill="#3C3C3C" stroke="#090909" stroke-width="3"/>
<rect x="932.648" y="608.4" width="34.1962" height="134.47" rx="5.5" transform="rotate(-50 932.648 608.4)" fill="white" stroke="#090909" stroke-width="3"/>
<rect opacity="0.3" x="938.176" y="611.079" width="22.283" height="118.1" rx="2" transform="rotate(-50 938.176 611.079)" fill="black" fill-opacity="0.25"/>
<path d="M953.331 583.75L952.367 584.899L953.516 585.863L1054.23 670.37L1055.38 671.334L1056.34 670.185L1056.97 669.438C1058.92 667.111 1058.62 663.642 1056.29 661.69L961.707 582.325C959.38 580.373 955.911 580.676 953.958 583.003L953.331 583.75Z" fill="#3C3C3C" stroke="#090909" stroke-width="3"/>
<rect x="955.566" y="581.086" width="34.1962" height="134.47" rx="5.5" transform="rotate(-50 955.566 581.086)" fill="white" stroke="#090909" stroke-width="3"/>
<rect opacity="0.3" x="961.094" y="583.766" width="22.283" height="118.1" rx="2" transform="rotate(-50 961.094 583.766)" fill="black" fill-opacity="0.25"/>
<path d="M976.249 556.436L975.285 557.585L976.434 558.549L1077.15 643.056L1078.29 644.021L1079.26 642.872L1079.89 642.125C1081.84 639.798 1081.53 636.329 1079.21 634.376L984.625 555.012C982.298 553.059 978.828 553.363 976.876 555.689L976.249 556.436Z" fill="#3C3C3C" stroke="#090909" stroke-width="3"/>
<rect x="978.484" y="553.774" width="34.1962" height="134.47" rx="5.5" transform="rotate(-50 978.484 553.774)" fill="white" stroke="#090909" stroke-width="3"/>
<rect opacity="0.3" x="984.012" y="556.453" width="22.283" height="118.1" rx="2" transform="rotate(-50 984.012 556.453)" fill="black" fill-opacity="0.25"/>
<path d="M999.167 529.124L998.203 530.273L999.352 531.237L1100.06 615.744L1101.21 616.708L1102.18 615.559L1102.8 614.812C1104.76 612.485 1104.45 609.016 1102.13 607.064L1007.54 527.699C1005.22 525.747 1001.75 526.05 999.794 528.377L999.167 529.124Z" fill="#3C3C3C" stroke="#090909" stroke-width="3"/>
<rect x="623.272" y="977.101" width="20.8264" height="92.1319" rx="5.5" transform="rotate(-50 623.272 977.101)" fill="#3C3C3C" stroke="#090909" stroke-width="3"/>
<rect opacity="0.3" x="627.945" y="979.064" width="11.1415" height="80.2187" rx="2" transform="rotate(-50 627.945 979.064)" fill="black" fill-opacity="0.25"/>
<rect opacity="0.3" x="626.955" y="976.779" width="11.1415" height="3.34244" rx="1.67122" transform="rotate(-50 626.955 976.779)" fill="white" fill-opacity="0.7"/>
<path d="M635.744 963.793L635.423 964.176L635.806 964.497L704.938 1022.51L705.429 1022.92L705.709 1022.34L706.353 1021.02C707.257 1019.16 706.781 1016.93 705.2 1015.6L642.377 962.888C640.473 961.291 637.635 961.539 636.037 963.443L635.744 963.793Z" fill="#090909" stroke="#090909"/>
<path opacity="0.3" d="M718.817 1004.8C717.572 1004.28 717.188 1002.71 718.055 1001.67L731.177 986.035C731.999 985.055 733.517 985.088 734.296 986.102L737.361 990.092C737.932 990.836 737.91 991.878 737.307 992.596L725.87 1006.23C725.308 1006.9 724.375 1007.12 723.568 1006.79L718.817 1004.8Z" fill="black" fill-opacity="0.5"/>
<rect x="649.77" y="945.521" width="20.8264" height="92.1319" rx="5.5" transform="rotate(-50 649.77 945.521)" fill="#3C3C3C" stroke="#090909" stroke-width="3"/>
<rect opacity="0.3" x="654.443" y="947.484" width="11.1415" height="80.2187" rx="2" transform="rotate(-50 654.443 947.484)" fill="black" fill-opacity="0.25"/>
<rect opacity="0.3" x="653.453" y="945.199" width="11.1415" height="3.34244" rx="1.67122" transform="rotate(-50 653.453 945.199)" fill="white" fill-opacity="0.7"/>
<path opacity="0.3" d="M717.335 998.368C715.889 998.023 715.312 996.276 716.268 995.137L721.98 988.329C722.774 987.383 724.229 987.376 725.032 988.315L726.801 990.384C727.437 991.127 727.442 992.22 726.813 992.969L722.251 998.406C721.764 998.986 720.991 999.242 720.255 999.066L717.335 998.368Z" fill="white" fill-opacity="0.7"/>
<path d="M662.242 932.213L661.921 932.596L662.304 932.917L731.436 990.926L731.927 991.338L732.207 990.762L732.851 989.44C733.755 987.583 733.279 985.35 731.698 984.023L668.875 931.308C666.971 929.711 664.133 929.959 662.535 931.863L662.242 932.213Z" fill="#090909" stroke="#090909"/>
<path opacity="0.3" d="M764.653 950.179C763.408 949.66 763.024 948.082 763.891 947.048L777.013 931.41C777.835 930.43 779.353 930.463 780.131 931.477L783.197 935.467C783.768 936.211 783.746 937.253 783.143 937.971L771.706 951.601C771.144 952.271 770.211 952.498 769.404 952.161L764.653 950.179Z" fill="black" fill-opacity="0.5"/>
<rect x="695.606" y="890.896" width="20.8264" height="92.1319" rx="5.5" transform="rotate(-50 695.606 890.896)" fill="#3C3C3C" stroke="#090909" stroke-width="3"/>
<rect opacity="0.3" x="700.279" y="892.859" width="11.1415" height="80.2187" rx="2" transform="rotate(-50 700.279 892.859)" fill="black" fill-opacity="0.25"/>
<rect opacity="0.3" x="699.289" y="890.574" width="11.1415" height="3.34244" rx="1.67122" transform="rotate(-50 699.289 890.574)" fill="white" fill-opacity="0.7"/>
<path opacity="0.3" d="M763.171 943.743C761.725 943.398 761.148 941.651 762.104 940.512L767.816 933.704C768.61 932.758 770.065 932.751 770.868 933.69L772.637 935.759C773.273 936.502 773.278 937.595 772.649 938.344L768.087 943.781C767.6 944.361 766.827 944.617 766.091 944.441L763.171 943.743Z" fill="white" fill-opacity="0.7"/>
<path d="M708.078 877.588L707.757 877.971L708.14 878.292L777.272 936.301L777.763 936.713L778.043 936.137L778.687 934.815C779.591 932.958 779.115 930.725 777.534 929.398L714.711 876.683C712.807 875.086 709.969 875.334 708.371 877.238L708.078 877.588Z" fill="#090909" stroke="#090909"/>
<path opacity="0.3" d="M924.352 759.858C923.107 759.338 922.723 757.76 923.59 756.727L936.713 741.088C937.534 740.109 939.052 740.141 939.831 741.156L942.896 745.146C943.467 745.89 943.445 746.931 942.842 747.65L931.405 761.28C930.843 761.95 929.91 762.177 929.103 761.84L924.352 759.858Z" fill="black" fill-opacity="0.5"/>
<rect x="855.305" y="700.575" width="20.8264" height="92.1319" rx="5.5" transform="rotate(-50 855.305 700.575)" fill="#3C3C3C" stroke="#090909" stroke-width="3"/>
<rect opacity="0.3" x="859.979" y="702.538" width="11.1415" height="80.2187" rx="2" transform="rotate(-50 859.979 702.538)" fill="black" fill-opacity="0.25"/>
<rect opacity="0.3" x="858.988" y="700.253" width="11.1415" height="3.34244" rx="1.67122" transform="rotate(-50 858.988 700.253)" fill="white" fill-opacity="0.7"/>
<path opacity="0.3" d="M922.87 753.422C921.424 753.076 920.847 751.33 921.803 750.191L927.515 743.383C928.31 742.436 929.764 742.43 930.567 743.369L932.336 745.437C932.972 746.18 932.977 747.274 932.348 748.023L927.787 753.46C927.3 754.04 926.527 754.295 925.79 754.119L922.87 753.422Z" fill="white" fill-opacity="0.7"/>
<path d="M867.777 687.266L867.456 687.65L867.839 687.971L936.971 745.98L937.462 746.392L937.742 745.816L938.386 744.494C939.29 742.637 938.815 740.404 937.233 739.076L874.41 686.362C872.507 684.765 869.668 685.013 868.071 686.917L867.777 687.266Z" fill="#090909" stroke="#090909"/>
<path opacity="0.3" d="M787.571 922.866C786.326 922.346 785.942 920.768 786.809 919.734L799.931 904.096C800.753 903.117 802.271 903.149 803.049 904.163L806.115 908.154C806.686 908.898 806.664 909.939 806.061 910.658L794.624 924.288C794.062 924.958 793.129 925.185 792.322 924.848L787.571 922.866Z" fill="black" fill-opacity="0.5"/>
<rect x="718.523" y="863.582" width="20.8264" height="92.1319" rx="5.5" transform="rotate(-50 718.523 863.582)" fill="#3C3C3C" stroke="#090909" stroke-width="3"/>
<rect opacity="0.3" x="723.197" y="865.546" width="11.1415" height="80.2187" rx="2" transform="rotate(-50 723.197 865.546)" fill="black" fill-opacity="0.25"/>
<rect opacity="0.3" x="722.207" y="863.261" width="11.1415" height="3.34244" rx="1.67122" transform="rotate(-50 722.207 863.261)" fill="white" fill-opacity="0.7"/>
<path opacity="0.3" d="M786.089 916.43C784.643 916.084 784.066 914.338 785.022 913.199L790.734 906.391C791.528 905.444 792.983 905.437 793.786 906.377L795.555 908.445C796.191 909.188 796.196 910.282 795.567 911.031L791.005 916.467C790.518 917.048 789.745 917.303 789.009 917.127L786.089 916.43Z" fill="white" fill-opacity="0.7"/>
<path d="M730.996 850.274L730.674 850.657L731.058 850.979L800.19 908.988L800.681 909.399L800.961 908.824L801.605 907.501C802.509 905.645 802.033 903.411 800.451 902.084L737.629 849.37C735.725 847.772 732.887 848.021 731.289 849.925L730.996 850.274Z" fill="#090909" stroke="#090909"/>
<path opacity="0.3" d="M831.968 869.956C830.722 869.436 830.338 867.858 831.206 866.824L844.328 851.186C845.15 850.206 846.667 850.239 847.446 851.253L850.511 855.244C851.083 855.988 851.06 857.029 850.457 857.748L839.02 871.377C838.458 872.048 837.526 872.274 836.718 871.938L831.968 869.956Z" fill="black" fill-opacity="0.5"/>
<rect x="762.92" y="810.672" width="20.8264" height="92.1319" rx="5.5" transform="rotate(-50 762.92 810.672)" fill="#3C3C3C" stroke="#090909" stroke-width="3"/>
<rect opacity="0.3" x="767.594" y="812.636" width="11.1415" height="80.2187" rx="2" transform="rotate(-50 767.594 812.636)" fill="black" fill-opacity="0.25"/>
<rect opacity="0.3" x="766.604" y="810.351" width="11.1415" height="3.34244" rx="1.67122" transform="rotate(-50 766.604 810.351)" fill="white" fill-opacity="0.7"/>
<path opacity="0.3" d="M830.485 863.519C829.039 863.174 828.462 861.428 829.418 860.289L835.13 853.481C835.925 852.534 837.379 852.527 838.182 853.466L839.952 855.535C840.587 856.278 840.592 857.372 839.964 858.121L835.402 863.557C834.915 864.138 834.142 864.393 833.405 864.217L830.485 863.519Z" fill="white" fill-opacity="0.7"/>
<path d="M775.392 797.364L775.071 797.747L775.454 798.069L844.586 856.078L845.077 856.489L845.357 855.913L846.001 854.591C846.905 852.735 846.43 850.501 844.848 849.174L782.026 796.46C780.122 794.862 777.283 795.111 775.686 797.014L775.392 797.364Z" fill="#090909" stroke="#090909"/>
<path opacity="0.3" d="M992.392 678.771C991.146 678.252 990.762 676.673 991.629 675.64L1004.75 660.001C1005.57 659.022 1007.09 659.055 1007.87 660.069L1010.94 664.059C1011.51 664.803 1011.48 665.844 1010.88 666.563L999.444 680.193C998.882 680.863 997.949 681.09 997.142 680.753L992.392 678.771Z" fill="black" fill-opacity="0.5"/>
<rect x="923.344" y="619.488" width="20.8264" height="92.1319" rx="5.5" transform="rotate(-50 923.344 619.488)" fill="#3C3C3C" stroke="#090909" stroke-width="3"/>
<rect opacity="0.3" x="928.018" y="621.451" width="11.1415" height="80.2187" rx="2" transform="rotate(-50 928.018 621.451)" fill="black" fill-opacity="0.25"/>
<rect opacity="0.3" x="927.027" y="619.166" width="11.1415" height="3.34244" rx="1.67122" transform="rotate(-50 927.027 619.166)" fill="white" fill-opacity="0.7"/>
<path opacity="0.3" d="M990.909 672.335C989.463 671.989 988.886 670.243 989.842 669.104L995.554 662.296C996.349 661.35 997.803 661.343 998.606 662.282L1000.38 664.351C1001.01 665.094 1001.02 666.187 1000.39 666.936L995.826 672.373C995.339 672.953 994.566 673.208 993.829 673.032L990.909 672.335Z" fill="white" fill-opacity="0.7"/>
<path d="M935.816 606.18L935.495 606.563L935.878 606.884L1005.01 664.893L1005.5 665.305L1005.78 664.729L1006.43 663.407C1007.33 661.55 1006.85 659.317 1005.27 657.989L942.449 605.275C940.546 603.678 937.707 603.926 936.11 605.83L935.816 606.18Z" fill="#090909" stroke="#090909"/>
<path opacity="0.3" d="M947.27 732.545C946.025 732.026 945.641 730.448 946.508 729.414L959.631 713.776C960.452 712.796 961.97 712.829 962.749 713.843L965.814 717.834C966.385 718.578 966.363 719.619 965.76 720.337L954.323 733.967C953.761 734.637 952.828 734.864 952.021 734.527L947.27 732.545Z" fill="black" fill-opacity="0.5"/>
<rect x="878.223" y="673.262" width="20.8264" height="92.1319" rx="5.5" transform="rotate(-50 878.223 673.262)" fill="#3C3C3C" stroke="#090909" stroke-width="3"/>
<rect opacity="0.3" x="882.896" y="675.226" width="11.1415" height="80.2187" rx="2" transform="rotate(-50 882.896 675.226)" fill="black" fill-opacity="0.25"/>
<rect opacity="0.3" x="881.906" y="672.94" width="11.1415" height="3.34244" rx="1.67122" transform="rotate(-50 881.906 672.94)" fill="white" fill-opacity="0.7"/>
<path opacity="0.3" d="M945.788 726.109C944.342 725.764 943.765 724.017 944.721 722.878L950.433 716.071C951.228 715.124 952.682 715.117 953.485 716.056L955.254 718.125C955.89 718.868 955.895 719.961 955.266 720.71L950.705 726.147C950.218 726.727 949.445 726.983 948.708 726.807L945.788 726.109Z" fill="white" fill-opacity="0.7"/>
<path d="M890.695 659.954L890.374 660.337L890.757 660.658L959.889 718.667L960.38 719.079L960.66 718.503L961.304 717.181C962.208 715.325 961.732 713.091 960.151 711.764L897.328 659.05C895.425 657.452 892.586 657.7 890.989 659.604L890.695 659.954Z" fill="#090909" stroke="#090909"/>
<path opacity="0.3" d="M854.886 842.643C853.64 842.124 853.256 840.545 854.124 839.512L867.246 823.873C868.068 822.894 869.585 822.927 870.364 823.941L873.429 827.931C874.001 828.675 873.978 829.716 873.375 830.435L861.938 844.065C861.376 844.735 860.444 844.962 859.636 844.625L854.886 842.643Z" fill="black" fill-opacity="0.5"/>
<rect x="785.838" y="783.36" width="20.8264" height="92.1319" rx="5.5" transform="rotate(-50 785.838 783.36)" fill="#3C3C3C" stroke="#090909" stroke-width="3"/>
<rect opacity="0.3" x="790.512" y="785.323" width="11.1415" height="80.2187" rx="2" transform="rotate(-50 790.512 785.323)" fill="black" fill-opacity="0.25"/>
<rect opacity="0.3" x="789.521" y="783.038" width="11.1415" height="3.34244" rx="1.67122" transform="rotate(-50 789.521 783.038)" fill="white" fill-opacity="0.7"/>
<path opacity="0.3" d="M853.403 836.207C851.957 835.862 851.38 834.115 852.336 832.976L858.048 826.168C858.843 825.222 860.297 825.215 861.1 826.154L862.87 828.223C863.505 828.966 863.51 830.059 862.882 830.808L858.32 836.245C857.833 836.825 857.06 837.08 856.323 836.904L853.403 836.207Z" fill="white" fill-opacity="0.7"/>
<path d="M798.31 770.052L797.989 770.435L798.372 770.756L867.504 828.765L867.995 829.177L868.275 828.601L868.919 827.279C869.823 825.422 869.348 823.189 867.766 821.861L804.944 769.147C803.04 767.55 800.201 767.798 798.604 769.702L798.31 770.052Z" fill="#090909" stroke="#090909"/>
<rect x="946.262" y="592.175" width="20.8264" height="92.1319" rx="5.5" transform="rotate(-50 946.262 592.175)" fill="#3C3C3C" stroke="#090909" stroke-width="3"/>
<rect opacity="0.3" x="950.936" y="594.139" width="11.1415" height="80.2187" rx="2" transform="rotate(-50 950.936 594.139)" fill="black" fill-opacity="0.25"/>
<rect opacity="0.3" x="949.945" y="591.854" width="11.1415" height="3.34244" rx="1.67122" transform="rotate(-50 949.945 591.854)" fill="white" fill-opacity="0.7"/>
<path d="M958.734 578.867L958.413 579.25L958.796 579.571L1027.93 637.581L1028.42 637.992L1028.7 637.416L1029.34 636.094C1030.25 634.238 1029.77 632.004 1028.19 630.677L965.367 577.963C963.464 576.365 960.625 576.613 959.028 578.517L958.734 578.867Z" fill="#090909" stroke="#090909"/>
<path opacity="0.3" d="M877.802 815.334C876.556 814.814 876.172 813.236 877.04 812.202L890.162 796.564C890.984 795.584 892.501 795.617 893.28 796.631L896.345 800.622C896.917 801.366 896.894 802.407 896.291 803.126L884.854 816.755C884.292 817.425 883.36 817.652 882.552 817.316L877.802 815.334Z" fill="black" fill-opacity="0.5"/>
<rect x="808.754" y="756.05" width="20.8264" height="92.1319" rx="5.5" transform="rotate(-50 808.754 756.05)" fill="#3C3C3C" stroke="#090909" stroke-width="3"/>
<rect opacity="0.3" x="813.428" y="758.014" width="11.1415" height="80.2187" rx="2" transform="rotate(-50 813.428 758.014)" fill="black" fill-opacity="0.25"/>
<rect opacity="0.3" x="812.438" y="755.729" width="11.1415" height="3.34244" rx="1.67122" transform="rotate(-50 812.438 755.729)" fill="white" fill-opacity="0.7"/>
<path opacity="0.3" d="M876.319 808.897C874.873 808.552 874.296 806.805 875.252 805.667L880.964 798.859C881.759 797.912 883.213 797.905 884.016 798.844L885.786 800.913C886.421 801.656 886.426 802.75 885.798 803.499L881.236 808.935C880.749 809.515 879.976 809.771 879.239 809.595L876.319 808.897Z" fill="white" fill-opacity="0.7"/>
<path d="M821.226 742.742L820.905 743.125L821.288 743.446L890.42 801.456L890.911 801.867L891.191 801.291L891.835 799.969C892.739 798.113 892.264 795.879 890.682 794.552L827.86 741.838C825.956 740.24 823.117 740.488 821.52 742.392L821.226 742.742Z" fill="#090909" stroke="#090909"/>
<rect x="969.178" y="564.866" width="20.8264" height="92.1319" rx="5.5" transform="rotate(-50 969.178 564.866)" fill="#3C3C3C" stroke="#090909" stroke-width="3"/>
<rect opacity="0.3" x="973.852" y="566.829" width="11.1415" height="80.2187" rx="2" transform="rotate(-50 973.852 566.829)" fill="black" fill-opacity="0.25"/>
<rect opacity="0.3" x="972.861" y="564.544" width="11.1415" height="3.34244" rx="1.67122" transform="rotate(-50 972.861 564.544)" fill="white" fill-opacity="0.7"/>
<path d="M981.65 551.558L981.329 551.941L981.712 552.262L1050.84 610.271L1051.33 610.683L1051.62 610.107L1052.26 608.785C1053.16 606.928 1052.69 604.695 1051.11 603.367L988.283 550.653C986.38 549.056 983.541 549.304 981.944 551.208L981.65 551.558Z" fill="#090909" stroke="#090909"/>
<path d="M388.881 1102.79L506.073 963.126C511.753 956.357 521.845 955.474 528.614 961.154L681.08 1089.09L553.604 1241.01L388.881 1102.79Z" fill="black" fill-opacity="0.5"/>
<mask id="mask0_710_33666" style="mask-type:alpha" maskUnits="userSpaceOnUse" x="388" y="957" width="294" height="285">
<path d="M388.166 1103.64L506.074 963.124C511.754 956.355 521.846 955.472 528.615 961.152L681.082 1089.09L552.889 1241.86L388.166 1103.64Z" fill="#E40303"/>
</mask>
<g mask="url(#mask0_710_33666)">
<path d="M521.186 955.168L527.395 955.513L552.493 1242.27L545.816 1236.57L521.186 955.168Z" fill="#E40303"/>
<path d="M511.195 951.115L517.403 951.446L542.094 1233.55L535.425 1227.95L511.195 951.115Z" fill="#E40303"/>
<path d="M500.789 942.384L506.997 942.714L531.688 1224.81L525.019 1219.22L500.789 942.384Z" fill="#E40303"/>
<path d="M490.391 933.658L496.598 933.989L521.289 1216.09L514.621 1210.49L490.391 933.658Z" fill="#E40303"/>
<path d="M479.99 924.932L486.198 925.262L510.889 1207.36L504.22 1201.77L479.99 924.932Z" fill="#E40303"/>
<path d="M469.586 916.2L475.794 916.531L500.484 1198.63L493.816 1193.03L469.586 916.2Z" fill="#E40303"/>
<path d="M459.186 907.474L465.393 907.804L490.084 1189.9L483.416 1184.31L459.186 907.474Z" fill="#E40303"/>
<path d="M448.779 898.742L454.987 899.073L479.678 1181.17L473.009 1175.58L448.779 898.742Z" fill="#E40303"/>
<path d="M438.381 890.018L444.589 890.348L469.279 1172.45L462.611 1166.85L438.381 890.018Z" fill="#E40303"/>
<path d="M427.977 881.286L434.184 881.617L458.875 1163.72L452.207 1158.12L427.977 881.286Z" fill="#E40303"/>
<path d="M417.576 872.56L423.784 872.89L448.475 1154.99L441.806 1149.39L417.576 872.56Z" fill="#E40303"/>
<path d="M407.176 863.833L413.384 864.164L438.074 1146.26L431.406 1140.67L407.176 863.833Z" fill="#E40303"/>
<path d="M396.771 855.102L402.979 855.432L427.67 1137.53L421.002 1131.94L396.771 855.102Z" fill="#E40303"/>
<path d="M386.373 846.377L392.581 846.708L417.272 1128.81L410.603 1123.21L386.373 846.377Z" fill="#E40303"/>
<path d="M375.967 837.646L382.175 837.976L406.865 1120.08L400.197 1114.48L375.967 837.646Z" fill="#E40303"/>
<path d="M365.566 828.919L371.774 829.25L396.465 1111.35L389.797 1105.75L365.566 828.919Z" fill="#E40303"/>
<path d="M530.973 956.884L537.184 957.25L562.893 1251L556.203 1245.15L530.973 956.884Z" fill="#E40303"/>
<path d="M541.979 972.515L548.188 972.86L573.295 1259.73L566.618 1254.03L541.979 972.515Z" fill="#E40303"/>
<path d="M551.125 966.9L557.333 967.231L582.024 1249.33L575.355 1243.73L551.125 966.9Z" fill="#E40303"/>
<path d="M559.855 956.497L566.063 956.828L590.754 1238.93L584.086 1233.33L559.855 956.497Z" fill="#E40303"/>
<path d="M568.582 946.096L574.79 946.426L599.481 1228.53L592.812 1222.93L568.582 946.096Z" fill="#E40303"/>
<path d="M577.309 935.695L583.516 936.026L608.207 1218.13L601.539 1212.53L577.309 935.695Z" fill="#E40303"/>
<path d="M586.037 925.294L592.245 925.625L616.936 1207.72L610.267 1202.13L586.037 925.294Z" fill="#E40303"/>
<path d="M594.766 914.892L600.973 915.222L625.664 1197.32L618.996 1191.73L594.766 914.892Z" fill="#E40303"/>
<path d="M603.496 904.487L609.704 904.818L634.395 1186.92L627.726 1181.32L603.496 904.487Z" fill="#E40303"/>
<path d="M612.225 894.085L618.432 894.416L643.123 1176.51L636.455 1170.92L612.225 894.085Z" fill="#E40303"/>
<path d="M620.951 883.685L627.159 884.015L651.85 1166.11L645.181 1160.52L620.951 883.685Z" fill="#E40303"/>
<path d="M629.68 873.283L635.887 873.614L660.578 1155.71L653.91 1150.12L629.68 873.283Z" fill="#E40303"/>
<path d="M638.408 862.882L644.616 863.213L669.307 1145.31L662.638 1139.72L638.408 862.882Z" fill="#E40303"/>
<path d="M647.137 852.479L653.344 852.809L678.035 1134.91L671.367 1129.31L647.137 852.479Z" fill="#E40303"/>
<path d="M655.863 842.078L662.071 842.409L686.762 1124.51L680.093 1118.91L655.863 842.078Z" fill="#E40303"/>
</g>
<rect x="893.186" y="518.529" width="65.3923" height="25.283" rx="12.6415" transform="rotate(-50 893.186 518.529)" fill="#F86848" stroke="black" stroke-width="3"/>
<path d="M905.988 522.942C902.217 519.778 901.725 514.156 904.889 510.385L929.239 481.366C932.403 477.595 938.025 477.104 941.796 480.268V480.268L940.337 482.007C939.264 483.285 937.54 483.811 935.937 483.351V483.351C934.334 482.89 932.609 483.416 931.537 484.694L908.143 512.574C907.129 513.783 907.002 515.505 907.828 516.85V516.85C908.654 518.195 908.527 519.917 907.512 521.126L905.988 522.942V522.942Z" fill="white" fill-opacity="0.25"/>
<path d="M907.691 524.37L943.499 481.696V481.696C946.328 484.069 946.697 488.285 944.323 491.114L917.109 523.546C914.736 526.374 910.52 526.743 907.691 524.37V524.37Z" fill="black" fill-opacity="0.25"/>
<rect x="745.025" y="725.625" width="28.6366" height="11.5455" rx="5.77276" transform="rotate(-95 745.025 725.625)" fill="#4E9AE9" stroke="black" stroke-width="3"/>
<path d="M750.526 722.266C748.646 722.43 746.988 721.039 746.823 719.158L745.424 703.166C745.259 701.285 746.651 699.627 748.531 699.463V699.463L748.618 700.454C748.675 701.102 748.354 701.725 747.793 702.055V702.055C747.232 702.385 746.911 703.008 746.968 703.656L748.282 718.68C748.336 719.29 748.767 719.8 749.359 719.955V719.955C749.951 720.11 750.382 720.62 750.436 721.23L750.526 722.266V722.266Z" fill="white" fill-opacity="0.25"/>
<path d="M751.375 722.191L749.38 699.389V699.389C750.791 699.265 752.034 700.309 752.157 701.719L753.705 719.414C753.829 720.825 752.785 722.068 751.375 722.191V722.191Z" fill="black" fill-opacity="0.25"/>
<rect x="725.191" y="749.264" width="28.6366" height="11.5455" rx="5.77276" transform="rotate(-95 725.191 749.264)" fill="#4E9AE9" stroke="black" stroke-width="3"/>
<path d="M730.692 745.904C728.812 746.069 727.154 744.678 726.989 742.797L725.59 726.805C725.426 724.924 726.817 723.266 728.697 723.102V723.102L728.784 724.093C728.841 724.741 728.52 725.364 727.959 725.694V725.694C727.398 726.023 727.077 726.646 727.134 727.294L728.449 742.319C728.502 742.928 728.933 743.439 729.525 743.594V743.594C730.117 743.749 730.548 744.259 730.602 744.869L730.692 745.904V745.904Z" fill="white" fill-opacity="0.25"/>
<path d="M731.541 745.83L729.546 723.027V723.027C730.957 722.904 732.2 723.947 732.323 725.358L733.871 743.053C733.995 744.463 732.951 745.707 731.541 745.83V745.83Z" fill="black" fill-opacity="0.25"/>
<rect x="764.853" y="701.994" width="28.6366" height="11.5455" rx="5.77276" transform="rotate(-95 764.853 701.994)" fill="#4E9AE9" stroke="black" stroke-width="3"/>
<path d="M770.354 698.635C768.474 698.799 766.816 697.408 766.651 695.527L765.252 679.535C765.088 677.655 766.479 675.997 768.359 675.832V675.832L768.446 676.824C768.503 677.472 768.182 678.094 767.621 678.424V678.424C767.061 678.754 766.739 679.377 766.796 680.025L768.111 695.049C768.164 695.659 768.595 696.169 769.187 696.324V696.324C769.78 696.479 770.21 696.99 770.264 697.599L770.354 698.635V698.635Z" fill="white" fill-opacity="0.25"/>
<path d="M771.203 698.561L769.208 675.758V675.758C770.619 675.634 771.862 676.678 771.985 678.088L773.534 695.783C773.657 697.194 772.614 698.437 771.203 698.561V698.561Z" fill="black" fill-opacity="0.25"/>
<rect x="784.683" y="678.363" width="28.6366" height="11.5455" rx="5.77276" transform="rotate(-95 784.683 678.363)" fill="#FFC700" stroke="black" stroke-width="3"/>
<path d="M790.184 675.004C788.304 675.168 786.646 673.777 786.481 671.897L785.082 655.904C784.918 654.024 786.309 652.366 788.19 652.201V652.201L788.276 653.193C788.333 653.841 788.012 654.463 787.451 654.793V654.793C786.891 655.123 786.57 655.746 786.626 656.394L787.941 671.418C787.994 672.028 788.425 672.538 789.017 672.693V672.693C789.61 672.848 790.041 673.359 790.094 673.969L790.184 675.004V675.004Z" fill="white" fill-opacity="0.25"/>
<path d="M791.033 674.93L789.038 652.127V652.127C790.449 652.004 791.692 653.047 791.816 654.457L793.364 672.152C793.487 673.563 792.444 674.806 791.033 674.93V674.93Z" fill="black" fill-opacity="0.25"/>
<rect x="804.527" y="654.713" width="28.6366" height="11.5455" rx="5.77276" transform="rotate(-95 804.527 654.713)" fill="#4E9AE9" stroke="black" stroke-width="3"/>
<path d="M810.028 651.353C808.148 651.518 806.49 650.127 806.325 648.246L804.926 632.254C804.761 630.373 806.153 628.715 808.033 628.551V628.551L808.12 629.542C808.177 630.19 807.856 630.813 807.295 631.143V631.143C806.734 631.473 806.413 632.095 806.47 632.743L807.784 647.768C807.838 648.378 808.269 648.888 808.861 649.043V649.043C809.453 649.198 809.884 649.708 809.938 650.318L810.028 651.353V651.353Z" fill="white" fill-opacity="0.25"/>
<path d="M810.877 651.279L808.882 628.477V628.477C810.292 628.353 811.536 629.397 811.659 630.807L813.207 648.502C813.331 649.912 812.287 651.156 810.877 651.279V651.279Z" fill="black" fill-opacity="0.25"/>
<rect x="824.355" y="631.085" width="28.6366" height="11.5455" rx="5.77276" transform="rotate(-95 824.355 631.085)" fill="#4E9AE9" stroke="black" stroke-width="3"/>
<path d="M829.856 627.726C827.976 627.89 826.318 626.499 826.153 624.618L824.754 608.626C824.59 606.745 825.981 605.087 827.861 604.923V604.923L827.948 605.914C828.005 606.562 827.684 607.185 827.123 607.515V607.515C826.562 607.845 826.241 608.468 826.298 609.116L827.613 624.14C827.666 624.75 828.097 625.26 828.689 625.415V625.415C829.281 625.57 829.712 626.08 829.766 626.69L829.856 627.726V627.726Z" fill="white" fill-opacity="0.25"/>
<path d="M830.705 627.651L828.71 604.849V604.849C830.121 604.725 831.364 605.769 831.487 607.179L833.036 624.874C833.159 626.285 832.116 627.528 830.705 627.651V627.651Z" fill="black" fill-opacity="0.25"/>
<path d="M509.916 915.042L574.606 969.323C581.375 975.004 591.467 974.121 597.148 967.351L867.4 645.277C870.132 642.021 871.456 637.812 871.081 633.578L862.498 536.89C862.123 532.656 863.447 528.447 866.179 525.19L945.993 430.072" stroke="black" stroke-opacity="0.25" stroke-width="3"/>
<path d="M905.019 580.971L913.549 588.129L912.192 589.747L908.441 586.599L905.047 590.644L908.798 593.791L907.44 595.409L898.909 588.251L900.267 586.633L903.613 589.441L907.007 585.396L903.661 582.588L905.019 580.971ZM910.737 577.043L912.87 578.832L915.955 575.155L917.291 576.276L914.206 579.953L916.424 581.815L919.736 577.868L921.158 579.061L916.489 584.626L907.958 577.468L912.627 571.903L914.049 573.096L910.737 577.043ZM915.359 568.647L916.717 567.029L923.826 572.994L926.839 569.403L928.261 570.596L923.89 575.805L915.359 568.647ZM932.989 561.028L929.935 564.668L931.275 567.004L929.917 568.622L924.102 558.228L925.686 556.34L936.932 560.263L935.523 561.942L932.989 561.028ZM931.195 560.378L926.467 558.646L928.984 563.014L931.195 560.378ZM933.227 547.353C933.96 546.479 934.767 545.875 935.646 545.54C936.517 545.199 937.413 545.136 938.333 545.351C939.244 545.559 940.133 546.026 940.999 546.753C941.865 547.48 942.484 548.277 942.855 549.146C943.218 550.007 943.312 550.9 943.135 551.824C942.95 552.741 942.491 553.637 941.757 554.511L939.114 557.661L930.584 550.503L933.227 547.353ZM940.323 553.308C940.975 552.532 941.241 551.725 941.122 550.887C941.011 550.042 940.493 549.231 939.57 548.456C938.646 547.682 937.758 547.313 936.906 547.349C936.061 547.378 935.312 547.78 934.661 548.557L933.375 550.089L939.038 554.84L940.323 553.308ZM939.339 540.069L940.696 538.452L949.227 545.61L947.869 547.228L939.339 540.069ZM946.584 534.446L944.548 536.873L943.065 535.629L948.495 529.157L949.978 530.402L947.942 532.828L954.989 538.742L953.632 540.36L946.584 534.446ZM962.476 530.119C961.742 530.993 960.932 531.594 960.044 531.922C959.157 532.249 958.245 532.299 957.309 532.07C956.373 531.842 955.455 531.35 954.556 530.596C953.657 529.842 953.014 529.024 952.627 528.141C952.239 527.259 952.129 526.353 952.298 525.422C952.466 524.491 952.917 523.588 953.651 522.714C954.385 521.84 955.195 521.239 956.083 520.911C956.97 520.584 957.882 520.534 958.818 520.763C959.754 520.991 960.672 521.483 961.57 522.237C962.469 522.991 963.112 523.809 963.5 524.692C963.888 525.574 963.997 526.48 963.829 527.411C963.66 528.342 963.209 529.245 962.476 530.119ZM960.98 528.864C961.625 528.096 961.883 527.282 961.755 526.423C961.619 525.557 961.08 524.729 960.141 523.941C959.201 523.152 958.297 522.769 957.428 522.792C956.551 522.809 955.791 523.201 955.146 523.969C954.502 524.737 954.248 525.554 954.384 526.42C954.512 527.28 955.046 528.104 955.986 528.892C956.925 529.681 957.834 530.067 958.711 530.051C959.579 530.028 960.336 529.632 960.98 528.864ZM970.897 520.083C970.513 520.54 970.044 520.975 969.489 521.387C968.935 521.799 968.36 522.144 967.763 522.424L966.194 521.107C967.658 520.525 968.739 519.817 969.438 518.984C969.788 518.567 969.979 518.157 970.012 517.752C970.052 517.34 969.908 516.997 969.581 516.723C969.352 516.531 969.099 516.443 968.82 516.46C968.54 516.462 968.262 516.528 967.985 516.658C967.701 516.781 967.321 516.977 966.844 517.246C966.203 517.613 965.651 517.888 965.19 518.072C964.73 518.256 964.236 518.33 963.711 518.292C963.177 518.248 962.648 518.007 962.125 517.568C961.357 516.923 960.984 516.157 961.004 515.27C961.017 514.375 961.411 513.466 962.186 512.543C962.549 512.11 962.954 511.726 963.402 511.392C963.842 511.05 964.299 510.779 964.773 510.579L966.305 511.864C965.155 512.306 964.258 512.911 963.614 513.679C963.257 514.103 963.054 514.504 963.003 514.879C962.951 515.239 963.064 515.536 963.342 515.769C963.62 516.002 963.944 516.065 964.313 515.957C964.68 515.834 965.178 515.59 965.804 515.225C966.468 514.848 967.041 514.564 967.524 514.37C968.007 514.176 968.534 514.104 969.106 514.152C969.677 514.185 970.251 514.43 970.829 514.887C971.638 515.566 972.045 516.374 972.052 517.313C972.05 518.244 971.665 519.167 970.897 520.083Z" fill="white"/>
<rect x="565.669" y="912.549" width="49.4791" height="22.7396" transform="rotate(-50 565.669 912.549)" fill="black" fill-opacity="0.25" stroke="black" stroke-width="4"/>
<rect x="575.99" y="909.275" width="31.1961" height="11.1415" transform="rotate(-50 575.99 909.275)" fill="#090909"/>
<rect x="667.359" y="791.361" width="49.4791" height="22.7396" transform="rotate(-50 667.359 791.361)" fill="black" fill-opacity="0.25" stroke="black" stroke-width="4"/>
<rect x="677.68" y="788.087" width="31.1961" height="11.1415" transform="rotate(-50 677.68 788.087)" fill="#090909"/>
<rect x="610.062" y="859.644" width="67.3055" height="22.7396" transform="rotate(-50 610.062 859.644)" fill="black" fill-opacity="0.25" stroke="black" stroke-width="4"/>
<rect x="619.67" y="857.221" width="50.1367" height="11.1415" transform="rotate(-50 619.67 857.221)" fill="#090909"/>
<circle cx="539.875" cy="912.438" r="5.68489" transform="rotate(-50 539.875 912.438)" fill="#DD2E44" fill-opacity="0.75" stroke="black" stroke-width="2"/>
<circle cx="539.879" cy="912.433" r="3.34244" transform="rotate(-50 539.879 912.433)" fill="black" fill-opacity="0.25"/>
<circle cx="537.454" cy="911.854" r="1.11415" transform="rotate(-50 537.454 911.854)" fill="white" fill-opacity="0.7"/>
<path d="M573.328 898.55L572.562 897.907L571.919 898.673L568.223 903.078C567.158 904.347 567.323 906.24 568.592 907.305L587.718 923.353C588.988 924.418 590.88 924.253 591.945 922.983L595.641 918.578L596.284 917.812L595.518 917.169L573.328 898.55Z" fill="#D7D6DC" stroke="black" stroke-width="2"/>
<path d="M573.416 896.89L572.773 897.656L573.539 898.299L595.729 916.919L596.495 917.562L597.138 916.796L600.834 912.391C601.899 911.121 601.734 909.229 600.464 908.164L581.338 892.116C580.069 891.051 578.177 891.216 577.112 892.485L573.416 896.89Z" fill="#D7D6DC" stroke="black" stroke-width="2"/>
<rect x="573.3" y="901.136" width="4.32514" height="25.7005" transform="rotate(-50 573.3 901.136)" fill="white" stroke="black" stroke-width="2"/>
<path d="M586.994 919.508C586.012 918.03 586.121 916.083 587.262 914.723L591.884 909.215C593.024 907.856 594.924 907.41 596.55 908.12L601.354 910.219L589.896 923.875L586.994 919.508Z" fill="black" fill-opacity="0.25"/>
<path d="M580.551 894.424C581.25 895.846 581.044 897.547 580.025 898.76L574.907 904.86C573.889 906.074 572.25 906.572 570.728 906.13L567.702 905.253L579.161 891.597L580.551 894.424Z" fill="white" fill-opacity="0.25"/>
<path d="M634.215 825.989L633.448 825.346L632.806 826.112L629.109 830.518C628.044 831.787 628.21 833.679 629.479 834.744L648.605 850.793C649.874 851.858 651.767 851.692 652.832 850.423L656.528 846.018L657.171 845.252L656.405 844.609L634.215 825.989Z" fill="#D7D6DC" stroke="black" stroke-width="2"/>
<path d="M634.302 824.33L633.66 825.096L634.426 825.739L656.616 844.358L657.382 845.001L658.025 844.235L661.721 839.83C662.786 838.561 662.62 836.669 661.351 835.604L642.225 819.555C640.956 818.49 639.064 818.656 637.999 819.925L634.302 824.33Z" fill="#D7D6DC" stroke="black" stroke-width="2"/>
<rect x="634.187" y="828.575" width="4.32514" height="25.7005" transform="rotate(-50 634.187 828.575)" fill="white" stroke="black" stroke-width="2"/>
<path d="M647.881 846.948C646.899 845.47 647.008 843.522 648.149 842.163L652.771 836.654C653.911 835.295 655.811 834.85 657.436 835.56L662.241 837.659L650.782 851.314L647.881 846.948Z" fill="black" fill-opacity="0.25"/>
<path d="M641.437 821.864C642.136 823.286 641.93 824.986 640.912 826.2L635.794 832.3C634.775 833.513 633.137 834.011 631.615 833.57L628.589 832.692L640.047 819.036L641.437 821.864Z" fill="white" fill-opacity="0.25"/>
<path d="M679.332 772.219L678.566 771.576L677.923 772.342L674.227 776.747C673.162 778.016 673.327 779.908 674.596 780.973L693.722 797.022C694.992 798.087 696.884 797.922 697.949 796.652L701.645 792.247L702.288 791.481L701.522 790.838L679.332 772.219Z" fill="#D7D6DC" stroke="black" stroke-width="2"/>
<path d="M679.42 770.559L678.777 771.325L679.543 771.968L701.733 790.588L702.499 791.231L703.142 790.465L706.838 786.06C707.903 784.79 707.738 782.898 706.468 781.833L687.342 765.784C686.073 764.719 684.181 764.885 683.116 766.154L679.42 770.559Z" fill="#D7D6DC" stroke="black" stroke-width="2"/>
<rect x="679.304" y="774.805" width="4.32514" height="25.7005" transform="rotate(-50 679.304 774.805)" fill="white" stroke="black" stroke-width="2"/>
<path d="M692.998 793.177C692.016 791.699 692.125 789.751 693.266 788.392L697.888 782.884C699.028 781.525 700.928 781.079 702.554 781.789L707.358 783.888L695.9 797.544L692.998 793.177Z" fill="black" fill-opacity="0.25"/>
<path d="M686.555 768.093C687.254 769.515 687.048 771.216 686.029 772.429L680.911 778.529C679.892 779.743 678.254 780.241 676.732 779.799L673.706 778.922L685.165 765.266L686.555 768.093Z" fill="white" fill-opacity="0.25"/>
</g>
<defs>
<clipPath id="clip0_710_33666">
<rect width="1000" height="1000" fill="white"/>
</clipPath>
</defs>
</svg>
