<svg width="1000" height="1000" viewBox="0 0 1000 1000" fill="none" xmlns="http://www.w3.org/2000/svg">
<g clip-path="url(#clip0_711_34921)">
<path d="M822.606 481.24L820.708 481.868L822.605 481.234C821.996 479.412 820.35 478.002 818.303 478.002H790.463L807.017 442.016L807.017 442.015C807.924 440.045 807.5 437.586 805.828 436.116C805.001 435.386 803.971 435 802.918 435C801.786 435 800.696 435.448 799.857 436.256L799.855 436.258L781.017 454.448L781.017 454.448L743.445 490.727L743.445 490.727C742.05 492.075 741.605 494.157 742.209 495.967C742.816 497.783 744.456 499.202 746.509 499.202H774.348L757.794 535.188L757.794 535.189C756.888 537.159 757.312 539.618 758.984 541.088C759.811 541.818 760.841 542.204 761.893 542.204C763.025 542.204 764.115 541.756 764.955 540.948L764.957 540.946L783.795 522.756L782.462 521.376L783.795 522.756L821.364 486.479C822.768 485.128 823.204 483.045 822.606 481.24Z" fill="#FFED00" stroke="#090909" stroke-width="4"/>
<path d="M715.516 528.883H701.279C699.679 528.883 698.468 527.765 698.034 526.445C697.602 525.132 697.909 523.603 698.941 522.591L698.942 522.591L719.981 501.962L719.981 501.962L730.531 491.618L730.533 491.616C731.159 491.004 731.99 490.65 732.869 490.65C733.684 490.65 734.471 490.955 735.09 491.51C736.33 492.617 736.617 494.421 735.968 495.852L735.968 495.852L727.247 515.102H741.484C743.079 515.102 744.294 516.213 744.731 517.539L742.831 518.163L744.732 517.544C745.158 518.851 744.859 520.379 743.822 521.395L715.516 528.883ZM715.516 528.883L706.795 548.133L706.795 548.133C706.147 549.564 706.433 551.368 707.672 552.475C708.292 553.031 709.079 553.335 709.895 553.335C710.773 553.335 711.604 552.981 712.23 552.369L712.232 552.367L722.782 542.024L722.782 542.024L743.82 521.397L715.516 528.883Z" fill="#FFED00" stroke="#090909" stroke-width="4"/>
<path d="M815 528.883H800.764C799.163 528.883 797.953 527.765 797.518 526.445C797.086 525.132 797.393 523.603 798.426 522.591L798.426 522.591L819.466 501.962L819.466 501.962L830.015 491.618L830.017 491.616C830.644 491.004 831.474 490.65 832.353 490.65C833.168 490.65 833.955 490.955 834.575 491.51C835.814 492.617 836.101 494.421 835.453 495.852L835.453 495.852L826.732 515.102H840.968C842.563 515.102 843.779 516.213 844.215 517.539L842.315 518.163L844.217 517.544C844.643 518.851 844.343 520.379 843.306 521.395L815 528.883ZM815 528.883L806.279 548.133L806.279 548.133C805.631 549.564 805.917 551.368 807.156 552.475C807.776 553.031 808.563 553.335 809.379 553.335C810.258 553.335 811.088 552.981 811.715 552.369L811.717 552.367L822.266 542.024L822.266 542.024L843.304 521.397L815 528.883Z" fill="#FFED00" stroke="#090909" stroke-width="4"/>
<rect x="670.5" y="598.329" width="215.613" height="434.17" rx="27.5" fill="#F72087" stroke="black" stroke-width="9"/>
<path d="M714.715 794.17C722.362 794.17 728.561 786.922 728.561 777.981C728.561 769.04 722.362 761.792 714.715 761.792C707.068 761.792 700.869 769.04 700.869 777.981C700.869 786.922 707.068 794.17 714.715 794.17Z" fill="black"/>
<path d="M703.949 777.98C703.949 780.774 706.015 783.039 708.564 783.039C711.113 783.039 713.18 780.774 713.18 777.98C713.18 775.186 711.113 772.921 708.564 772.921C706.015 772.921 703.949 775.186 703.949 777.98Z" fill="white"/>
<path fill-rule="evenodd" clip-rule="evenodd" d="M729.827 766.157C716.465 755.476 700.938 754.15 694.609 754.869C693.403 755.006 692.541 756.054 692.684 757.21C692.827 758.366 693.921 759.192 695.127 759.055C700.485 758.446 714.74 759.586 727.01 769.395C727.943 770.141 729.329 770.02 730.107 769.126C730.885 768.232 730.759 766.903 729.827 766.157Z" fill="black"/>
<path d="M763.953 794.167C771.6 794.167 777.799 786.919 777.799 777.978C777.799 769.037 771.6 761.789 763.953 761.789C756.306 761.789 750.107 769.037 750.107 777.978C750.107 786.919 756.306 794.167 763.953 794.167Z" fill="black"/>
<path d="M755.228 777.977C755.228 780.771 757.295 783.036 759.844 783.036C762.393 783.036 764.459 780.771 764.459 777.977C764.459 775.183 762.393 772.918 759.844 772.918C757.295 772.918 755.228 775.183 755.228 777.977Z" fill="white"/>
<path fill-rule="evenodd" clip-rule="evenodd" d="M747.808 765.944C761.169 754.519 776.7 753.097 783.036 753.867C784.242 754.014 785.102 755.125 784.958 756.349C784.814 757.573 783.719 758.447 782.513 758.3C777.162 757.65 762.911 758.867 750.641 769.358C749.712 770.152 748.325 770.032 747.543 769.089C746.76 768.146 746.879 766.738 747.808 765.944Z" fill="black"/>
<path fill-rule="evenodd" clip-rule="evenodd" d="M747.808 819.571C761.169 808.146 776.7 806.724 783.036 807.494C784.242 807.641 785.102 808.752 784.958 809.976C784.814 811.2 783.719 812.074 782.513 811.927C777.162 811.277 762.911 812.494 750.641 822.985C749.712 823.779 748.325 823.659 747.543 822.716C746.76 821.773 746.879 820.365 747.808 819.571Z" fill="black"/>
<rect x="834.602" y="598.329" width="56.6404" height="434.17" rx="27.5" fill="#F72087" stroke="black" stroke-width="9"/>
<rect x="-4.5" y="4.5" width="152.024" height="15.2833" rx="7.64165" transform="matrix(-1 0 0 1 834.434 593.829)" fill="#D7D6DC" stroke="black" stroke-width="9"/>
<rect x="830.102" y="627.219" width="65.6404" height="409.781" rx="32" fill="black" fill-opacity="0.25"/>
<rect x="680.363" y="627.219" width="12.3076" height="389.545" rx="6.15379" fill="white" fill-opacity="0.25"/>
<path d="M669.594 687.928H689.882C693.842 687.928 697.114 690.886 698.411 694.628C710.918 730.72 775.867 731.973 791.258 693.932C792.642 690.509 795.787 687.928 799.479 687.928C817.45 687.928 828.364 687.928 832.669 687.928H890.104" stroke="black" stroke-width="8"/>
<path d="M669.594 936.833H689.882C693.842 936.833 697.114 939.791 698.411 943.533C710.918 979.625 775.867 980.879 791.258 942.837C792.642 939.414 795.787 936.833 799.479 936.833C817.45 936.833 828.364 936.833 832.669 936.833H890.104" stroke="black" stroke-width="8"/>
<rect x="853.068" y="648.917" width="46.5208" height="97.2394" rx="11.5" fill="#3C3C3C" stroke="black" stroke-width="9"/>
<rect x="879.869" y="648.917" width="21.6322" height="97.2394" rx="10.8161" fill="#3C3C3C" stroke="black" stroke-width="9"/>
<rect x="879.197" y="675.785" width="22.9741" height="70.8263" rx="11.4871" fill="black" fill-opacity="0.25"/>
<rect x="856.223" y="675.785" width="22.9741" height="70.8263" rx="11.4871" fill="black" fill-opacity="0.25"/>
<mask id="path-22-outside-1_711_34921" maskUnits="userSpaceOnUse" x="697.996" y="559.523" width="47" height="42" fill="black">
<rect fill="white" x="697.996" y="559.523" width="47" height="42"/>
<path d="M736.765 592.819C736.765 586.11 735.144 579.676 732.259 574.932C729.374 570.188 725.461 567.523 721.381 567.523C717.3 567.523 713.387 570.188 710.502 574.932C707.617 579.676 705.996 586.11 705.996 592.819L721.381 592.819H736.765Z"/>
</mask>
<path d="M736.765 592.819C736.765 586.11 735.144 579.676 732.259 574.932C729.374 570.188 725.461 567.523 721.381 567.523C717.3 567.523 713.387 570.188 710.502 574.932C707.617 579.676 705.996 586.11 705.996 592.819L721.381 592.819H736.765Z" fill="#D7D6DC"/>
<path d="M736.765 592.819C736.765 586.11 735.144 579.676 732.259 574.932C729.374 570.188 725.461 567.523 721.381 567.523C717.3 567.523 713.387 570.188 710.502 574.932C707.617 579.676 705.996 586.11 705.996 592.819L721.381 592.819H736.765Z" stroke="black" stroke-width="16" mask="url(#path-22-outside-1_711_34921)"/>
<mask id="path-23-outside-2_711_34921" maskUnits="userSpaceOnUse" x="791.328" y="559.523" width="47" height="42" fill="black">
<rect fill="white" x="791.328" y="559.523" width="47" height="42"/>
<path d="M830.097 592.819C830.097 586.11 828.476 579.676 825.591 574.932C822.706 570.188 818.793 567.523 814.713 567.523C810.632 567.523 806.719 570.188 803.834 574.932C800.949 579.676 799.328 586.11 799.328 592.819L814.713 592.819H830.097Z"/>
</mask>
<path d="M830.097 592.819C830.097 586.11 828.476 579.676 825.591 574.932C822.706 570.188 818.793 567.523 814.713 567.523C810.632 567.523 806.719 570.188 803.834 574.932C800.949 579.676 799.328 586.11 799.328 592.819L814.713 592.819H830.097Z" fill="#D7D6DC"/>
<path d="M830.097 592.819C830.097 586.11 828.476 579.676 825.591 574.932C822.706 570.188 818.793 567.523 814.713 567.523C810.632 567.523 806.719 570.188 803.834 574.932C800.949 579.676 799.328 586.11 799.328 592.819L814.713 592.819H830.097Z" stroke="black" stroke-width="16" mask="url(#path-23-outside-2_711_34921)"/>
<path d="M736.765 592.819C736.765 589.497 736.367 586.207 735.594 583.139C734.821 580.07 733.688 577.281 732.259 574.932C730.83 572.583 729.134 570.72 727.268 569.449C725.401 568.178 723.401 567.523 721.381 567.523L721.381 592.819H736.765Z" fill="black" fill-opacity="0.25"/>
<path d="M830.097 592.819C830.097 589.497 829.699 586.207 828.926 583.139C828.153 580.07 827.02 577.281 825.591 574.932C824.162 572.583 822.466 570.72 820.6 569.449C818.733 568.178 816.733 567.523 814.713 567.523L814.713 592.819H830.097Z" fill="black" fill-opacity="0.25"/>
</g>
<defs>
<clipPath id="clip0_711_34921">
<rect width="1000" height="1000" fill="white"/>
</clipPath>
</defs>
</svg>
