<svg width="1000" height="1000" viewBox="0 0 1000 1000" fill="none" xmlns="http://www.w3.org/2000/svg">
<rect x="767" y="423" width="26" height="577" fill="black"/>
<rect x="585" y="460" width="391" height="300" fill="white" stroke="black" stroke-width="8"/>
<rect x="585" y="460" width="20" height="300" fill="black" fill-opacity="0.25"/>
<path d="M623.209 532.598C622.313 531.488 621.865 530.656 621.865 530.102C621.865 529.504 622.355 528.715 623.337 527.734C624.361 526.71 625.022 526.155 625.321 526.07C625.662 525.984 625.982 525.942 626.281 525.942C626.579 525.942 627.07 526.134 627.753 526.518C630.91 528.992 633.683 530.23 636.073 530.23C638.462 530.23 640.019 529.675 640.745 528.566C641.47 527.456 641.833 526.006 641.833 524.214C641.833 522.422 641.193 520.971 639.913 519.862C638.633 518.752 636.521 517.408 633.577 515.83C630.675 514.251 628.137 512.203 625.961 509.686C623.785 507.168 622.697 504.566 622.697 501.878C622.697 497.099 623.934 493.622 626.409 491.446C628.926 489.227 632.595 488.118 637.417 488.118C640.361 488.118 643.241 488.822 646.057 490.23C647.55 490.827 648.254 491.446 648.169 492.086C648.126 492.342 648.083 492.726 648.041 493.238C647.23 495.542 646.611 496.864 646.185 497.206C646.057 497.291 645.758 497.334 645.289 497.334C644.862 497.334 643.689 496.992 641.769 496.31C639.849 495.584 638.206 495.222 636.841 495.222C635.518 495.222 634.409 495.691 633.513 496.63C632.617 497.568 632.169 498.891 632.169 500.598C632.169 502.304 632.937 503.862 634.473 505.27C636.009 506.635 638.377 508.064 641.577 509.558C644.947 511.307 647.465 513.12 649.129 514.998C650.835 516.875 651.689 519.392 651.689 522.55C651.689 533.046 647.251 538.294 638.377 538.294C631.763 538.294 626.707 536.395 623.209 532.598ZM676.038 490.422C676.678 488.886 678.428 488.118 681.286 488.118C684.145 488.118 685.574 488.651 685.574 489.718C685.574 489.931 685.51 490.166 685.382 490.422L675.718 510.582L687.942 535.926C688.241 536.566 688.39 537.014 688.39 537.27C688.39 537.568 688.305 537.803 688.134 537.974C688.006 538.187 687.174 538.294 685.638 538.294C684.145 538.294 682.524 538.102 680.774 537.718C679.068 537.376 678.022 536.779 677.638 535.926L666.438 512.566V510.646L676.038 490.422ZM655.75 535.99V490.486C655.75 489.547 655.985 488.928 656.454 488.63C656.924 488.288 657.798 488.118 659.078 488.118C662.15 488.118 663.708 488.928 663.75 490.55L664.71 509.622L664.774 535.862C664.774 536.63 664.732 537.142 664.646 537.398C664.518 537.995 663.708 538.294 662.214 538.294C657.905 538.294 655.75 537.526 655.75 535.99ZM691.847 513.526C691.847 506.742 692.38 501.536 693.447 497.91C694.513 494.283 696.199 491.744 698.503 490.294C700.849 488.843 704.22 488.118 708.615 488.118C713.009 488.118 716.359 488.843 718.663 490.294C721.009 491.744 722.695 494.283 723.719 497.91C724.785 501.494 725.319 506.699 725.319 513.526C725.319 522.87 724.124 529.334 721.735 532.918C719.345 536.502 714.972 538.294 708.615 538.294C702.257 538.294 697.863 536.502 695.431 532.918C693.041 529.334 691.847 522.87 691.847 513.526ZM702.535 501.622C702.279 503.2 702.129 504.822 702.087 506.486C702.044 508.107 702.023 510.88 702.023 514.806C702.023 518.731 702.151 522.016 702.407 524.662C702.663 527.307 703.004 529.056 703.431 529.91C703.857 530.72 704.433 531.126 705.159 531.126C708.913 531.126 711.367 530.742 712.519 529.974C712.945 529.675 713.351 529.184 713.735 528.502C714.161 527.819 714.46 527.115 714.631 526.39C714.801 525.664 714.951 524.598 715.079 523.19C715.249 521.355 715.335 518.07 715.335 513.334C715.335 508.555 715.207 504.8 714.951 502.07C714.737 499.296 714.396 497.419 713.927 496.438C713.5 495.414 712.924 494.902 712.199 494.902C710.492 494.902 709.105 494.987 708.039 495.158C707.015 495.286 706.097 495.648 705.287 496.246C704.476 496.8 703.879 497.44 703.495 498.166C703.111 498.848 702.791 500 702.535 501.622ZM729.842 490.486C729.842 489.547 730.056 488.928 730.482 488.63C730.952 488.288 731.826 488.118 733.106 488.118C736.178 488.118 737.736 488.886 737.778 490.422L738.738 509.622L738.802 529.526H751.218C753.309 529.526 754.354 530.294 754.354 531.83C754.354 534.603 753.949 536.267 753.138 536.822C752.712 537.12 752.157 537.27 751.474 537.27H730.866L729.842 536.246V490.486ZM757.143 532.598C756.247 531.488 755.799 530.656 755.799 530.102C755.799 529.504 756.289 528.715 757.271 527.734C758.295 526.71 758.956 526.155 759.255 526.07C759.596 525.984 759.916 525.942 760.215 525.942C760.513 525.942 761.004 526.134 761.687 526.518C764.844 528.992 767.617 530.23 770.007 530.23C772.396 530.23 773.953 529.675 774.679 528.566C775.404 527.456 775.767 526.006 775.767 524.214C775.767 522.422 775.127 520.971 773.847 519.862C772.567 518.752 770.455 517.408 767.511 515.83C764.609 514.251 762.071 512.203 759.895 509.686C757.719 507.168 756.631 504.566 756.631 501.878C756.631 497.099 757.868 493.622 760.343 491.446C762.86 489.227 766.529 488.118 771.351 488.118C774.295 488.118 777.175 488.822 779.991 490.23C781.484 490.827 782.188 491.446 782.103 492.086C782.06 492.342 782.017 492.726 781.975 493.238C781.164 495.542 780.545 496.864 780.119 497.206C779.991 497.291 779.692 497.334 779.223 497.334C778.796 497.334 777.623 496.992 775.703 496.31C773.783 495.584 772.14 495.222 770.775 495.222C769.452 495.222 768.343 495.691 767.447 496.63C766.551 497.568 766.103 498.891 766.103 500.598C766.103 502.304 766.871 503.862 768.407 505.27C769.943 506.635 772.311 508.064 775.511 509.558C778.881 511.307 781.399 513.12 783.063 514.998C784.769 516.875 785.623 519.392 785.623 522.55C785.623 533.046 781.185 538.294 772.311 538.294C765.697 538.294 760.641 536.395 757.143 532.598ZM797.812 535.926V496.822H789.812C788.788 496.779 788.127 496.502 787.828 495.99C787.444 495.392 787.252 494.326 787.252 492.79C787.252 490.358 787.978 489.142 789.428 489.142H812.724C815.199 489.142 816.436 489.803 816.436 491.126C816.436 494.923 815.412 496.822 813.364 496.822L806.196 496.758L806.772 509.75L806.836 535.798C806.836 536.608 806.815 537.142 806.772 537.398C806.602 537.995 805.77 538.294 804.276 538.294C799.967 538.294 797.812 537.504 797.812 535.926ZM819.043 535.734V489.142C823.395 488.459 827.171 488.118 830.371 488.118C836.301 488.118 840.397 489.227 842.659 491.446C844.92 493.664 846.051 497.334 846.051 502.454C846.051 509.622 844.045 514.4 840.035 516.79L848.099 535.03C848.568 536.096 848.803 536.8 848.803 537.142C848.803 537.44 848.76 537.632 848.675 537.718C848.504 538.102 847.779 538.294 846.499 538.294C842.36 538.294 839.928 537.483 839.203 535.862L831.907 518.966C830.84 519.051 829.24 519.094 827.107 519.094V535.606C827.107 536.8 826.979 537.547 826.723 537.846C826.509 538.144 825.784 538.294 824.547 538.294C820.877 538.294 819.043 537.44 819.043 535.734ZM828.131 510.326C831.544 510.326 833.848 509.856 835.043 508.918C836.237 507.936 836.835 505.76 836.835 502.39C836.835 500.342 836.493 498.72 835.811 497.526C835.171 496.331 834.445 495.734 833.635 495.734C830.605 495.734 828.749 495.798 828.067 495.926C827.427 496.054 827.107 496.48 827.107 497.206V509.366C827.107 509.92 827.213 510.219 827.427 510.262C827.64 510.304 827.875 510.326 828.131 510.326ZM873.713 508.15C875.42 508.15 876.273 508.918 876.273 510.454C876.273 512.544 876.145 513.974 875.889 514.742C875.633 515.51 874.972 515.894 873.905 515.894H861.361V529.526H876.145C877.169 529.568 877.873 529.782 878.257 530.166C878.641 530.507 878.833 531.04 878.833 531.766C878.833 533.856 878.641 535.307 878.257 536.118C877.873 536.886 877.105 537.27 875.953 537.27H853.425L852.401 536.246V489.142H875.121C876.956 489.184 877.873 489.867 877.873 491.19C877.831 492.342 877.767 493.259 877.681 493.942C877.596 494.582 877.319 495.222 876.849 495.862C876.423 496.502 875.783 496.822 874.929 496.822H860.657L861.361 508.15H873.713ZM881.803 544.502C883.68 544.502 884.939 543.222 885.579 540.662C886.219 538.102 886.539 533.494 886.539 526.838L886.603 490.422C886.603 489.483 886.816 488.864 887.243 488.566C887.712 488.267 888.587 488.118 889.867 488.118C892.939 488.118 894.496 488.907 894.539 490.486L895.563 509.622V526.71C895.563 533.92 895.115 539.36 894.219 543.03C893.664 545.163 892.875 546.806 891.851 547.958C889.675 550.39 886.325 551.606 881.803 551.606C881.035 551.563 880.501 551.264 880.203 550.71C879.947 550.198 879.797 549.28 879.755 547.958C879.755 546.678 879.904 545.782 880.203 545.27C880.544 544.758 881.077 544.502 881.803 544.502ZM920.719 490.422C921.359 488.886 923.108 488.118 925.967 488.118C928.825 488.118 930.255 488.651 930.255 489.718C930.255 489.931 930.191 490.166 930.063 490.422L920.399 510.582L932.623 535.926C932.921 536.566 933.071 537.014 933.071 537.27C933.071 537.568 932.985 537.803 932.815 537.974C932.687 538.187 931.855 538.294 930.319 538.294C928.825 538.294 927.204 538.102 925.455 537.718C923.748 537.376 922.703 536.779 922.319 535.926L911.119 512.566V510.646L920.719 490.422ZM900.431 535.99V490.486C900.431 489.547 900.665 488.928 901.135 488.63C901.604 488.288 902.479 488.118 903.759 488.118C906.831 488.118 908.388 488.928 908.431 490.55L909.391 509.622L909.455 535.862C909.455 536.63 909.412 537.142 909.327 537.398C909.199 537.995 908.388 538.294 906.895 538.294C902.585 538.294 900.431 537.526 900.431 535.99ZM731.24 624.27V576.142H753.32C755.582 576.184 756.712 576.803 756.712 577.998C756.712 580.174 756.478 581.688 756.008 582.542C755.539 583.395 754.536 583.822 753 583.822H739.432L740.072 595.15H753.448C755.198 595.15 756.072 595.832 756.072 597.198C756.072 599.416 755.88 600.931 755.496 601.742C755.112 602.51 754.302 602.894 753.064 602.894H740.2V624.27C740.2 624.526 740.179 624.696 740.136 624.782C739.923 625.123 739.091 625.294 737.64 625.294C736.232 625.294 734.803 625.187 733.352 624.974C731.944 624.76 731.24 624.526 731.24 624.27ZM757.765 600.526C757.765 593.742 758.299 588.536 759.365 584.91C760.432 581.283 762.117 578.744 764.421 577.294C766.768 575.843 770.139 575.118 774.533 575.118C778.928 575.118 782.277 575.843 784.581 577.294C786.928 578.744 788.613 581.283 789.637 584.91C790.704 588.494 791.237 593.699 791.237 600.526C791.237 609.87 790.043 616.334 787.653 619.918C785.264 623.502 780.891 625.294 774.533 625.294C768.176 625.294 763.781 623.502 761.349 619.918C758.96 616.334 757.765 609.87 757.765 600.526ZM768.453 588.622C768.197 590.2 768.048 591.822 768.005 593.486C767.963 595.107 767.941 597.88 767.941 601.806C767.941 605.731 768.069 609.016 768.325 611.662C768.581 614.307 768.923 616.056 769.349 616.91C769.776 617.72 770.352 618.126 771.077 618.126C774.832 618.126 777.285 617.742 778.437 616.974C778.864 616.675 779.269 616.184 779.653 615.502C780.08 614.819 780.379 614.115 780.549 613.39C780.72 612.664 780.869 611.598 780.997 610.19C781.168 608.355 781.253 605.07 781.253 600.334C781.253 595.555 781.125 591.8 780.869 589.07C780.656 586.296 780.315 584.419 779.845 583.438C779.419 582.414 778.843 581.902 778.117 581.902C776.411 581.902 775.024 581.987 773.957 582.158C772.933 582.286 772.016 582.648 771.205 583.246C770.395 583.8 769.797 584.44 769.413 585.166C769.029 585.848 768.709 587 768.453 588.622ZM766.981 567.95C763.909 567.95 762.373 566.414 762.373 563.342C762.373 560.27 763.909 558.734 766.981 558.734C770.053 558.734 771.589 560.27 771.589 563.342C771.589 566.414 770.053 567.95 766.981 567.95ZM781.957 567.95C778.885 567.95 777.349 566.414 777.349 563.342C777.349 560.27 778.885 558.734 781.957 558.734C785.029 558.734 786.565 560.27 786.565 563.342C786.565 566.414 785.029 567.95 781.957 567.95ZM795.457 622.734V576.142C799.809 575.459 803.585 575.118 806.785 575.118C812.716 575.118 816.812 576.227 819.073 578.446C821.335 580.664 822.465 584.334 822.465 589.454C822.465 596.622 820.46 601.4 816.449 603.79L824.513 622.03C824.983 623.096 825.217 623.8 825.217 624.142C825.217 624.44 825.175 624.632 825.089 624.718C824.919 625.102 824.193 625.294 822.913 625.294C818.775 625.294 816.343 624.483 815.617 622.862L808.321 605.966C807.255 606.051 805.655 606.094 803.521 606.094V622.606C803.521 623.8 803.393 624.547 803.137 624.846C802.924 625.144 802.199 625.294 800.961 625.294C797.292 625.294 795.457 624.44 795.457 622.734ZM804.545 597.326C807.959 597.326 810.263 596.856 811.457 595.918C812.652 594.936 813.249 592.76 813.249 589.39C813.249 587.342 812.908 585.72 812.225 584.526C811.585 583.331 810.86 582.734 810.049 582.734C807.02 582.734 805.164 582.798 804.481 582.926C803.841 583.054 803.521 583.48 803.521 584.206V596.366C803.521 596.92 803.628 597.219 803.841 597.262C804.055 597.304 804.289 597.326 804.545 597.326ZM656.532 674.71C657.332 672.79 659.519 671.83 663.092 671.83C666.666 671.83 668.452 672.496 668.452 673.83C668.452 674.096 668.372 674.39 668.212 674.71L656.132 699.91L671.412 731.59C671.786 732.39 671.972 732.95 671.972 733.27C671.972 733.643 671.866 733.936 671.652 734.15C671.492 734.416 670.452 734.55 668.532 734.55C666.666 734.55 664.639 734.31 662.452 733.83C660.319 733.403 659.012 732.656 658.532 731.59L644.532 702.39V699.99L656.532 674.71ZM631.172 731.67V674.79C631.172 673.616 631.466 672.843 632.052 672.47C632.639 672.043 633.732 671.83 635.332 671.83C639.172 671.83 641.119 672.843 641.172 674.87L642.372 698.71L642.452 731.51C642.452 732.47 642.399 733.11 642.292 733.43C642.132 734.176 641.119 734.55 639.252 734.55C633.866 734.55 631.172 733.59 631.172 731.67ZM676.933 674.79C676.933 673.616 677.199 672.843 677.733 672.47C678.319 672.043 679.413 671.83 681.013 671.83C684.853 671.83 686.799 672.79 686.853 674.71L688.053 698.71L688.133 723.59H703.653C706.266 723.59 707.573 724.55 707.573 726.47C707.573 729.936 707.066 732.016 706.053 732.71C705.519 733.083 704.826 733.27 703.973 733.27H678.213L676.933 731.99V674.79ZM711.938 723.59H714.818V682.71H712.418C711.352 682.656 710.632 682.31 710.258 681.67C709.885 680.923 709.698 679.563 709.698 677.59C709.698 674.603 710.578 673.11 712.338 673.11H726.498C728.845 673.11 730.018 673.936 730.018 675.59C730.018 680.336 729.085 682.71 727.218 682.71H725.218L726.018 698.71L726.098 723.59H728.498C730.365 723.643 731.298 724.496 731.298 726.15C731.192 730.896 729.885 733.27 727.378 733.27H712.258C711.298 733.216 710.632 732.87 710.258 732.23C709.885 731.483 709.698 730.096 709.698 728.07C709.698 725.083 710.445 723.59 711.938 723.59ZM765.314 731.59V695.27L760.114 704.95H752.034L747.154 695.43V731.51C747.154 732.47 747.127 733.11 747.074 733.43C746.861 734.176 745.821 734.55 743.954 734.55C738.621 734.55 735.954 733.563 735.954 731.59V674.87C735.954 672.843 737.794 671.83 741.474 671.83C745.154 671.83 747.367 672.816 748.114 674.79L756.194 695.43L764.674 674.71C765.101 673.536 765.607 672.763 766.194 672.39C766.834 672.016 767.927 671.83 769.474 671.83C773.314 671.83 775.261 672.87 775.314 674.95L776.594 698.79V731.03C776.594 732.63 776.434 733.616 776.114 733.99C775.847 734.363 774.887 734.55 773.234 734.55C771.634 734.55 770.327 734.496 769.314 734.39C768.301 734.283 767.367 733.99 766.514 733.51C765.714 733.083 765.314 732.443 765.314 731.59ZM803.048 671.75C806.728 671.75 808.728 672.576 809.048 674.23L814.488 698.79L820.008 731.51C820.115 732.043 820.168 732.55 820.168 733.03C820.168 733.456 820.035 733.803 819.768 734.07C819.502 734.39 818.595 734.55 817.048 734.55C812.302 734.55 809.768 733.536 809.448 731.51L806.648 715.03H795.448L792.968 731.59C792.808 732.71 792.595 733.456 792.328 733.83C792.115 734.203 791.795 734.416 791.368 734.47C790.942 734.523 790.248 734.55 789.288 734.55H787.048C785.182 734.55 784.008 734.443 783.528 734.23C782.355 733.803 781.688 733.323 781.528 732.79C781.475 732.523 781.448 732.283 781.448 732.07C781.448 731.856 782.008 728.336 783.128 721.51C784.248 714.683 785.608 706.55 787.208 697.11C788.862 687.67 789.928 681.483 790.408 678.55C790.942 675.616 791.235 673.963 791.288 673.59C791.502 672.363 795.422 671.75 803.048 671.75ZM800.648 682.23L796.968 705.35H804.888L800.648 682.23ZM829.12 731.59V682.71H819.12C817.84 682.656 817.013 682.31 816.64 681.67C816.16 680.923 815.92 679.59 815.92 677.67C815.92 674.63 816.826 673.11 818.64 673.11H847.76C850.853 673.11 852.4 673.936 852.4 675.59C852.4 680.336 851.12 682.71 848.56 682.71L839.6 682.63L840.32 698.87L840.4 731.43C840.4 732.443 840.373 733.11 840.32 733.43C840.106 734.176 839.066 734.55 837.2 734.55C831.813 734.55 829.12 733.563 829.12 731.59ZM882.298 696.87C884.431 696.87 885.498 697.83 885.498 699.75C885.498 702.363 885.338 704.15 885.018 705.11C884.698 706.07 883.871 706.55 882.538 706.55H866.858V723.59H885.338C886.618 723.643 887.498 723.91 887.978 724.39C888.458 724.816 888.698 725.483 888.698 726.39C888.698 729.003 888.458 730.816 887.978 731.83C887.498 732.79 886.538 733.27 885.098 733.27H856.938L855.658 731.99V673.11H884.058C886.351 673.163 887.498 674.016 887.498 675.67C887.444 677.11 887.364 678.256 887.258 679.11C887.151 679.91 886.804 680.71 886.218 681.51C885.684 682.31 884.884 682.71 883.818 682.71H865.978L866.858 696.87H882.298ZM903.61 731.59V682.71H893.61C892.33 682.656 891.503 682.31 891.13 681.67C890.65 680.923 890.41 679.59 890.41 677.67C890.41 674.63 891.316 673.11 893.13 673.11H922.25C925.343 673.11 926.89 673.936 926.89 675.59C926.89 680.336 925.61 682.71 923.05 682.71L914.09 682.63L914.81 698.87L914.89 731.43C914.89 732.443 914.863 733.11 914.81 733.43C914.596 734.176 913.556 734.55 911.69 734.55C906.303 734.55 903.61 733.563 903.61 731.59Z" fill="#333333"/>
</svg>
