<svg width="1000" height="1000" viewBox="0 0 1000 1000" fill="none" xmlns="http://www.w3.org/2000/svg">
<g clip-path="url(#clip0_794_65913)">
<mask id="path-1-outside-1_794_65913" maskUnits="userSpaceOnUse" x="468.434" y="401" width="513" height="795" fill="black">
<rect fill="white" x="468.434" y="401" width="513" height="795"/>
<path fill-rule="evenodd" clip-rule="evenodd" d="M760.985 409H688.453V571.495H476.434L476.434 644.025H688.453V1188H760.985V644.025H973V571.495H760.985V409Z"/>
</mask>
<path fill-rule="evenodd" clip-rule="evenodd" d="M760.985 409H688.453V571.495H476.434L476.434 644.025H688.453V1188H760.985V644.025H973V571.495H760.985V409Z" fill="#3C3C3C"/>
<path d="M688.453 409V401H680.453V409H688.453ZM760.985 409H768.985V401H760.985V409ZM688.453 571.495V579.495H696.453V571.495H688.453ZM476.434 571.495V563.495H468.434V571.495H476.434ZM476.434 644.025H468.434V652.025H476.434V644.025ZM688.453 644.025H696.453V636.025H688.453V644.025ZM688.453 1188H680.453V1196H688.453V1188ZM760.985 1188V1196H768.985V1188H760.985ZM760.985 644.025V636.025H752.985V644.025H760.985ZM973 644.025V652.025H981V644.025H973ZM973 571.495H981V563.495H973V571.495ZM760.985 571.495H752.985V579.495H760.985V571.495ZM688.453 417H760.985V401H688.453V417ZM696.453 571.495V409H680.453V571.495H696.453ZM476.434 579.495H688.453V563.495H476.434V579.495ZM484.434 644.025L484.434 571.495H468.434L468.434 644.025H484.434ZM688.453 636.025H476.434V652.025H688.453V636.025ZM696.453 1188V644.025H680.453V1188H696.453ZM760.985 1180H688.453V1196H760.985V1180ZM752.985 644.025V1188H768.985V644.025H752.985ZM973 636.025H760.985V652.025H973V636.025ZM965 571.495V644.025H981V571.495H965ZM760.985 579.495H973V563.495H760.985V579.495ZM752.985 409V571.495H768.985V409H752.985Z" fill="#090909" mask="url(#path-1-outside-1_794_65913)"/>
<mask id="path-3-outside-2_794_65913" maskUnits="userSpaceOnUse" x="451" y="401" width="513" height="795" fill="black">
<rect fill="white" x="451" y="401" width="513" height="795"/>
<path fill-rule="evenodd" clip-rule="evenodd" d="M743.551 409H671.019V571.495H459L459 644.025H671.019V1188H743.551V644.025H955.566V571.495H743.551V409Z"/>
</mask>
<path fill-rule="evenodd" clip-rule="evenodd" d="M743.551 409H671.019V571.495H459L459 644.025H671.019V1188H743.551V644.025H955.566V571.495H743.551V409Z" fill="#F72087"/>
<path d="M671.019 409V401H663.019V409H671.019ZM743.551 409H751.551V401H743.551V409ZM671.019 571.495V579.495H679.019V571.495H671.019ZM459 571.495V563.495H451V571.495H459ZM459 644.025H451V652.025H459V644.025ZM671.019 644.025H679.019V636.025H671.019V644.025ZM671.019 1188H663.019V1196H671.019V1188ZM743.551 1188V1196H751.551V1188H743.551ZM743.551 644.025V636.025H735.551V644.025H743.551ZM955.566 644.025V652.025H963.566V644.025H955.566ZM955.566 571.495H963.566V563.495H955.566V571.495ZM743.551 571.495H735.551V579.495H743.551V571.495ZM671.019 417H743.551V401H671.019V417ZM679.019 571.495V409H663.019V571.495H679.019ZM459 579.495H671.019V563.495H459V579.495ZM467 644.025L467 571.495H451L451 644.025H467ZM671.019 636.025H459V652.025H671.019V636.025ZM679.019 1188V644.025H663.019V1188H679.019ZM743.551 1180H671.019V1196H743.551V1180ZM735.551 644.025V1188H751.551V644.025H735.551ZM955.566 636.025H743.551V652.025H955.566V636.025ZM947.566 571.495V644.025H963.566V571.495H947.566ZM743.551 579.495H955.566V563.495H743.551V579.495ZM735.551 409V571.495H751.551V409H735.551Z" fill="#090909" mask="url(#path-3-outside-2_794_65913)"/>
<path d="M674.59 776.449C674.59 783.017 673.328 788.817 671.418 792.863C669.4 797.141 667.202 798.472 665.781 798.472C664.361 798.472 662.163 797.141 660.144 792.863C658.235 788.817 656.973 783.017 656.973 776.449C656.973 769.881 658.235 764.081 660.144 760.035C662.163 755.757 664.361 754.426 665.781 754.426C667.202 754.426 669.4 755.757 671.418 760.035C673.328 764.081 674.59 769.881 674.59 776.449Z" fill="#750787" stroke="black" stroke-width="6"/>
<path d="M665.781 751.426C667.332 751.426 668.868 752.073 670.3 753.331C671.733 754.588 673.035 756.431 674.131 758.755C675.228 761.079 676.098 763.837 676.691 766.873C677.285 769.909 677.59 773.163 677.59 776.449C677.59 779.735 677.285 782.989 676.691 786.025C676.098 789.061 675.228 791.82 674.131 794.143C673.035 796.467 671.733 798.31 670.3 799.568C668.868 800.825 667.332 801.472 665.781 801.472L665.781 776.449L665.781 751.426Z" fill="black" fill-opacity="0.25"/>
<path d="M674.59 851.238C674.59 857.807 673.328 863.606 671.418 867.652C669.4 871.93 667.202 873.261 665.781 873.261C664.361 873.261 662.163 871.93 660.144 867.652C658.235 863.606 656.973 857.807 656.973 851.238C656.973 844.67 658.235 838.87 660.144 834.824C662.163 830.546 664.361 829.215 665.781 829.215C667.202 829.215 669.4 830.546 671.418 834.824C673.328 838.87 674.59 844.67 674.59 851.238Z" fill="#750787" stroke="black" stroke-width="6"/>
<path d="M665.781 826.215C667.332 826.215 668.868 826.862 670.3 828.12C671.733 829.377 673.035 831.22 674.131 833.544C675.228 835.868 676.098 838.626 676.691 841.662C677.285 844.698 677.59 847.952 677.59 851.238C677.59 854.524 677.285 857.778 676.691 860.814C676.098 863.85 675.228 866.609 674.131 868.932C673.035 871.256 671.733 873.099 670.3 874.357C668.868 875.614 667.332 876.261 665.781 876.261L665.781 851.238L665.781 826.215Z" fill="black" fill-opacity="0.25"/>
<path d="M702.575 802.775C696.887 806.059 691.232 807.866 686.774 808.235C682.059 808.626 679.808 807.389 679.097 806.158C678.387 804.928 678.441 802.359 681.137 798.472C683.686 794.796 688.077 790.802 693.766 787.518C699.455 784.234 705.109 782.427 709.567 782.058C714.282 781.667 716.534 782.904 717.244 784.135C717.954 785.365 717.9 787.934 715.204 791.821C712.655 795.498 708.264 799.491 702.575 802.775Z" fill="#750787" stroke="black" stroke-width="6"/>
<path d="M719.842 782.635C720.617 783.978 720.825 785.631 720.452 787.501C720.079 789.37 719.134 791.419 717.67 793.531C716.206 795.642 714.252 797.775 711.919 799.807C709.586 801.839 706.921 803.73 704.075 805.373C701.229 807.016 698.258 808.379 695.332 809.383C692.406 810.387 689.582 811.013 687.022 811.225C684.461 811.437 682.214 811.231 680.408 810.619C678.603 810.007 677.275 809.001 676.499 807.658L698.171 795.147L719.842 782.635Z" fill="black" fill-opacity="0.25"/>
<path d="M637.802 840.17C632.113 843.454 626.459 845.26 622.001 845.63C617.286 846.02 615.034 844.783 614.324 843.553C613.613 842.322 613.668 839.754 616.363 835.866C618.912 832.19 623.304 828.197 628.993 824.912C634.681 821.628 640.336 819.822 644.794 819.452C649.508 819.062 651.76 820.299 652.471 821.529C653.181 822.76 653.127 825.328 650.431 829.216C647.882 832.892 643.49 836.885 637.802 840.17Z" fill="#750787" stroke="black" stroke-width="6"/>
<path d="M655.069 820.029C655.844 821.372 656.051 823.026 655.679 824.895C655.306 826.765 654.36 828.814 652.896 830.925C651.432 833.037 649.478 835.169 647.146 837.201C644.813 839.233 642.148 841.125 639.302 842.768C636.456 844.411 633.485 845.773 630.559 846.777C627.633 847.781 624.809 848.407 622.248 848.619C619.688 848.832 617.44 848.626 615.635 848.014C613.829 847.402 612.501 846.396 611.726 845.053L633.397 832.541L655.069 820.029Z" fill="black" fill-opacity="0.25"/>
<path d="M703.183 822.653C696.614 822.653 690.814 821.39 686.769 819.481C682.49 817.462 681.159 815.265 681.159 813.844C681.159 812.423 682.49 810.226 686.769 808.207C690.814 806.298 696.614 805.035 703.183 805.035C709.752 805.035 715.552 806.298 719.597 808.207C723.876 810.226 725.207 812.423 725.207 813.844C725.207 815.265 723.876 817.462 719.597 819.481C715.552 821.39 709.752 822.653 703.183 822.653Z" fill="#750787" stroke="black" stroke-width="6"/>
<path d="M728.207 813.844C728.207 815.395 727.56 816.93 726.302 818.363C725.045 819.796 723.201 821.097 720.878 822.194C718.554 823.29 715.795 824.16 712.759 824.754C709.723 825.347 706.469 825.653 703.183 825.653C699.897 825.653 696.643 825.347 693.607 824.754C690.571 824.16 687.812 823.29 685.488 822.194C683.165 821.097 681.321 819.796 680.064 818.363C678.806 816.93 678.159 815.395 678.159 813.844L703.183 813.844L728.207 813.844Z" fill="black" fill-opacity="0.25"/>
<path d="M628.39 822.653C621.821 822.653 616.021 821.39 611.976 819.481C607.697 817.462 606.366 815.265 606.366 813.844C606.366 812.423 607.697 810.226 611.976 808.207C616.021 806.298 621.821 805.035 628.39 805.035C634.959 805.035 640.759 806.298 644.804 808.207C649.083 810.226 650.414 812.423 650.414 813.844C650.414 815.265 649.083 817.462 644.804 819.481C640.759 821.39 634.959 822.653 628.39 822.653Z" fill="#750787" stroke="black" stroke-width="6"/>
<path d="M653.414 813.844C653.414 815.395 652.767 816.93 651.509 818.363C650.252 819.796 648.408 821.097 646.085 822.194C643.761 823.29 641.002 824.16 637.966 824.754C634.93 825.347 631.676 825.653 628.39 825.653C625.104 825.653 621.85 825.347 618.814 824.754C615.778 824.16 613.019 823.29 610.695 822.194C608.372 821.097 606.528 819.796 605.271 818.363C604.013 816.93 603.366 815.395 603.366 813.844L628.39 813.844L653.414 813.844Z" fill="black" fill-opacity="0.25"/>
<path d="M693.77 840.17C688.081 836.886 683.689 832.892 681.14 829.216C678.445 825.329 678.39 822.76 679.101 821.53C679.811 820.299 682.063 819.062 686.777 819.453C691.236 819.822 696.89 821.628 702.579 824.913C708.267 828.197 712.659 832.19 715.208 835.866C717.903 839.754 717.958 842.322 717.247 843.553C716.537 844.783 714.285 846.021 709.571 845.63C705.112 845.26 699.458 843.454 693.77 840.17Z" fill="#750787" stroke="black" stroke-width="6"/>
<path d="M719.845 845.053C719.07 846.396 717.742 847.402 715.936 848.014C714.131 848.626 711.884 848.832 709.323 848.62C706.762 848.407 703.938 847.781 701.012 846.777C698.086 845.773 695.115 844.411 692.269 842.768C689.424 841.125 686.758 839.233 684.426 837.201C682.093 835.169 680.139 833.037 678.675 830.925C677.211 828.814 676.265 826.765 675.893 824.896C675.52 823.026 675.727 821.373 676.503 820.03L698.174 832.541L719.845 845.053Z" fill="black" fill-opacity="0.25"/>
<path d="M628.992 802.774C623.304 799.49 618.912 795.497 616.363 791.821C613.667 787.933 613.613 785.364 614.323 784.134C615.034 782.904 617.286 781.666 622 782.057C626.458 782.426 632.113 784.233 637.801 787.517C643.49 790.801 647.881 794.795 650.43 798.471C653.126 802.358 653.18 804.927 652.47 806.157C651.76 807.388 649.508 808.625 644.793 808.234C640.335 807.865 634.681 806.059 628.992 802.774Z" fill="#750787" stroke="black" stroke-width="6"/>
<path d="M655.068 807.657C654.293 809 652.964 810.007 651.159 810.619C649.353 811.231 647.106 811.436 644.546 811.224C641.985 811.012 639.161 810.386 636.235 809.382C633.309 808.378 630.338 807.015 627.492 805.372C624.646 803.729 621.981 801.838 619.648 799.806C617.316 797.774 615.362 795.641 613.898 793.53C612.433 791.419 611.488 789.37 611.115 787.5C610.743 785.63 610.95 783.977 611.725 782.634L633.397 795.146L655.068 807.657Z" fill="black" fill-opacity="0.25"/>
<path d="M676.859 850.633C673.575 844.945 671.768 839.291 671.399 834.832C671.008 830.118 672.246 827.866 673.476 827.156C674.706 826.446 677.275 826.5 681.163 829.196C684.839 831.745 688.832 836.136 692.117 841.824C695.401 847.513 697.207 853.167 697.577 857.625C697.967 862.339 696.73 864.591 695.5 865.301C694.269 866.012 691.701 865.957 687.813 863.262C684.137 860.713 680.144 856.321 676.859 850.633Z" fill="#750787" stroke="black" stroke-width="6"/>
<path d="M697 867.899C695.657 868.675 694.003 868.882 692.134 868.509C690.264 868.137 688.215 867.191 686.104 865.727C683.992 864.263 681.86 862.309 679.828 859.977C677.796 857.644 675.904 854.979 674.261 852.133C672.618 849.287 671.256 846.316 670.252 843.391C669.247 840.465 668.621 837.641 668.409 835.08C668.197 832.52 668.403 830.272 669.015 828.467C669.627 826.662 670.633 825.333 671.976 824.558L684.488 846.229L697 867.899Z" fill="black" fill-opacity="0.25"/>
<path d="M639.457 785.863C636.173 780.175 634.366 774.521 633.997 770.063C633.606 765.349 634.843 763.097 636.074 762.387C637.304 761.676 639.873 761.731 643.76 764.426C647.436 766.975 651.43 771.367 654.714 777.055C657.998 782.743 659.805 788.397 660.174 792.855C660.565 797.57 659.328 799.821 658.097 800.532C656.867 801.242 654.298 801.188 650.411 798.492C646.735 795.943 642.741 791.552 639.457 785.863Z" fill="#750787" stroke="black" stroke-width="6"/>
<path d="M659.597 803.13C658.254 803.905 656.601 804.112 654.731 803.74C652.862 803.367 650.813 802.422 648.701 800.958C646.59 799.494 644.457 797.539 642.425 795.207C640.393 792.874 638.502 790.209 636.859 787.363C635.216 784.518 633.853 781.547 632.849 778.621C631.845 775.695 631.219 772.871 631.007 770.311C630.795 767.75 631 765.503 631.612 763.698C632.224 761.892 633.231 760.564 634.574 759.789L647.086 781.459L659.597 803.13Z" fill="black" fill-opacity="0.25"/>
<path d="M692.109 785.863C688.825 791.551 684.831 795.943 681.155 798.492C677.268 801.187 674.699 801.242 673.469 800.531C672.238 799.821 671.001 797.569 671.392 792.855C671.761 788.397 673.568 782.743 676.852 777.054C680.136 771.366 684.13 766.975 687.806 764.426C691.693 761.73 694.262 761.676 695.492 762.386C696.723 763.096 697.96 765.348 697.569 770.062C697.2 774.521 695.393 780.175 692.109 785.863Z" fill="#750787" stroke="black" stroke-width="6"/>
<path d="M696.992 759.788C698.335 760.563 699.342 761.892 699.954 763.697C700.566 765.502 700.771 767.75 700.559 770.31C700.347 772.871 699.721 775.695 698.717 778.62C697.713 781.546 696.35 784.517 694.707 787.363C693.064 790.209 691.173 792.874 689.141 795.206C687.109 797.539 684.976 799.493 682.865 800.957C680.753 802.421 678.704 803.366 676.835 803.739C674.965 804.112 673.312 803.905 671.969 803.129L684.48 781.459L696.992 759.788Z" fill="black" fill-opacity="0.25"/>
<path d="M654.715 850.631C651.43 856.32 647.437 860.711 643.761 863.26C639.873 865.956 637.304 866.01 636.074 865.3C634.844 864.589 633.606 862.338 633.997 857.623C634.366 853.165 636.173 847.511 639.457 841.823C642.742 836.135 646.735 831.743 650.411 829.194C654.299 826.499 656.867 826.444 658.098 827.155C659.328 827.865 660.565 830.117 660.175 834.831C659.805 839.289 657.999 844.943 654.715 850.631Z" fill="#750787" stroke="black" stroke-width="6"/>
<path d="M659.598 824.557C660.941 825.332 661.947 826.66 662.559 828.466C663.171 830.271 663.377 832.518 663.165 835.079C662.952 837.639 662.326 840.463 661.322 843.389C660.318 846.315 658.956 849.286 657.313 852.131C655.67 854.977 653.778 857.643 651.746 859.975C649.714 862.308 647.582 864.262 645.47 865.726C643.359 867.19 641.31 868.135 639.44 868.508C637.57 868.88 635.917 868.673 634.574 867.898L647.086 846.227L659.598 824.557Z" fill="black" fill-opacity="0.25"/>
<path d="M691.336 812.156C691.336 826.269 679.895 837.71 665.781 837.71C651.668 837.71 640.227 826.269 640.227 812.156C640.227 798.043 651.668 786.603 665.781 786.603C679.895 786.603 691.336 798.043 691.336 812.156Z" fill="#FFED00" stroke="black" stroke-width="4"/>
<path d="M666.047 784.392C673.355 784.392 680.363 787.295 685.531 792.462C690.698 797.629 693.601 804.638 693.601 811.945C693.601 819.253 690.698 826.261 685.531 831.429C680.363 836.596 673.355 839.499 666.047 839.499L666.047 811.945L666.047 784.392Z" fill="black" fill-opacity="0.25"/>
<path d="M763.164 776.449C763.164 783.017 761.902 788.817 759.993 792.863C757.974 797.141 755.776 798.472 754.356 798.472C752.935 798.472 750.738 797.141 748.719 792.863C746.81 788.817 745.547 783.017 745.547 776.449C745.547 769.881 746.81 764.081 748.719 760.035C750.738 755.757 752.935 754.426 754.356 754.426C755.776 754.426 757.974 755.757 759.993 760.035C761.902 764.081 763.164 769.881 763.164 776.449Z" fill="#750787" stroke="black" stroke-width="6"/>
<path d="M754.356 751.426C755.906 751.426 757.442 752.073 758.875 753.331C760.307 754.588 761.609 756.431 762.706 758.755C763.802 761.079 764.672 763.837 765.265 766.873C765.859 769.909 766.164 773.163 766.164 776.449C766.164 779.735 765.859 782.989 765.265 786.025C764.672 789.061 763.802 791.82 762.706 794.143C761.609 796.467 760.307 798.31 758.875 799.568C757.442 800.825 755.906 801.472 754.356 801.472L754.356 776.449L754.356 751.426Z" fill="black" fill-opacity="0.25"/>
<path d="M763.164 851.238C763.164 857.807 761.902 863.606 759.993 867.652C757.974 871.93 755.776 873.261 754.356 873.261C752.935 873.261 750.738 871.93 748.719 867.652C746.81 863.606 745.547 857.807 745.547 851.238C745.547 844.67 746.81 838.87 748.719 834.824C750.738 830.546 752.935 829.215 754.356 829.215C755.776 829.215 757.974 830.546 759.993 834.824C761.902 838.87 763.164 844.67 763.164 851.238Z" fill="#750787" stroke="black" stroke-width="6"/>
<path d="M754.356 826.215C755.906 826.215 757.442 826.862 758.875 828.12C760.307 829.377 761.609 831.22 762.706 833.544C763.802 835.868 764.672 838.626 765.265 841.662C765.859 844.698 766.164 847.952 766.164 851.238C766.164 854.524 765.859 857.778 765.265 860.814C764.672 863.85 763.802 866.609 762.706 868.932C761.609 871.256 760.307 873.099 758.875 874.357C757.442 875.614 755.906 876.261 754.356 876.261L754.356 851.238L754.356 826.215Z" fill="black" fill-opacity="0.25"/>
<path d="M791.149 802.775C785.461 806.059 779.806 807.866 775.348 808.235C770.634 808.626 768.382 807.389 767.671 806.158C766.961 804.928 767.015 802.359 769.711 798.472C772.26 794.796 776.652 790.802 782.34 787.518C788.029 784.234 793.683 782.427 798.141 782.058C802.856 781.667 805.108 782.904 805.818 784.135C806.529 785.365 806.474 787.934 803.779 791.821C801.23 795.498 796.838 799.491 791.149 802.775Z" fill="#750787" stroke="black" stroke-width="6"/>
<path d="M808.416 782.635C809.192 783.978 809.399 785.631 809.026 787.501C808.653 789.37 807.708 791.419 806.244 793.531C804.78 795.642 802.826 797.775 800.493 799.807C798.161 801.839 795.495 803.73 792.649 805.373C789.803 807.016 786.833 808.379 783.907 809.383C780.981 810.387 778.157 811.013 775.596 811.225C773.035 811.437 770.788 811.231 768.983 810.619C767.177 810.007 765.849 809.001 765.073 807.658L786.745 795.147L808.416 782.635Z" fill="black" fill-opacity="0.25"/>
<path d="M726.376 840.17C720.687 843.454 715.033 845.26 710.575 845.63C705.86 846.02 703.608 844.783 702.898 843.553C702.188 842.322 702.242 839.754 704.938 835.866C707.487 832.19 711.878 828.197 717.567 824.912C723.255 821.628 728.91 819.822 733.368 819.452C738.083 819.062 740.334 820.299 741.045 821.529C741.755 822.76 741.701 825.328 739.005 829.216C736.456 832.892 732.064 836.885 726.376 840.17Z" fill="#750787" stroke="black" stroke-width="6"/>
<path d="M743.643 820.029C744.418 821.372 744.625 823.026 744.253 824.895C743.88 826.765 742.935 828.814 741.471 830.925C740.006 833.037 738.052 835.169 735.72 837.201C733.387 839.233 730.722 841.125 727.876 842.768C725.03 844.411 722.059 845.773 719.133 846.777C716.207 847.781 713.383 848.407 710.823 848.619C708.262 848.832 706.015 848.626 704.209 848.014C702.404 847.402 701.075 846.396 700.3 845.053L721.971 832.541L743.643 820.029Z" fill="black" fill-opacity="0.25"/>
<path d="M791.757 822.653C785.189 822.653 779.389 821.39 775.343 819.481C771.065 817.462 769.733 815.265 769.733 813.844C769.733 812.423 771.065 810.226 775.343 808.207C779.389 806.298 785.189 805.035 791.757 805.035C798.326 805.035 804.126 806.298 808.172 808.207C812.45 810.226 813.781 812.423 813.781 813.844C813.781 815.265 812.45 817.462 808.172 819.481C804.126 821.39 798.326 822.653 791.757 822.653Z" fill="#750787" stroke="black" stroke-width="6"/>
<path d="M816.781 813.844C816.781 815.395 816.134 816.93 814.876 818.363C813.619 819.796 811.776 821.097 809.452 822.194C807.128 823.29 804.37 824.16 801.334 824.754C798.297 825.347 795.043 825.653 791.757 825.653C788.471 825.653 785.217 825.347 782.181 824.754C779.145 824.16 776.386 823.29 774.063 822.194C771.739 821.097 769.896 819.796 768.638 818.363C767.38 816.93 766.733 815.395 766.733 813.844L791.757 813.844L816.781 813.844Z" fill="black" fill-opacity="0.25"/>
<path d="M716.964 822.653C710.396 822.653 704.596 821.39 700.55 819.481C696.272 817.462 694.94 815.265 694.94 813.844C694.94 812.423 696.272 810.226 700.55 808.207C704.596 806.298 710.396 805.035 716.964 805.035C723.533 805.035 729.333 806.298 733.379 808.207C737.657 810.226 738.988 812.423 738.988 813.844C738.988 815.265 737.657 817.462 733.379 819.481C729.333 821.39 723.533 822.653 716.964 822.653Z" fill="#750787" stroke="black" stroke-width="6"/>
<path d="M741.988 813.844C741.988 815.395 741.341 816.93 740.083 818.363C738.826 819.796 736.983 821.097 734.659 822.194C732.335 823.29 729.577 824.16 726.541 824.754C723.504 825.347 720.25 825.653 716.964 825.653C713.678 825.653 710.424 825.347 707.388 824.754C704.352 824.16 701.593 823.29 699.27 822.194C696.946 821.097 695.103 819.796 693.845 818.363C692.588 816.93 691.94 815.395 691.94 813.844L716.964 813.844L741.988 813.844Z" fill="black" fill-opacity="0.25"/>
<path d="M782.344 840.17C776.655 836.886 772.264 832.892 769.714 829.216C767.019 825.329 766.964 822.76 767.675 821.53C768.385 820.299 770.637 819.062 775.352 819.453C779.81 819.822 785.464 821.628 791.153 824.913C796.841 828.197 801.233 832.19 803.782 835.866C806.478 839.754 806.532 842.322 805.822 843.553C805.111 844.783 802.859 846.021 798.145 845.63C793.687 845.26 788.032 843.454 782.344 840.17Z" fill="#750787" stroke="black" stroke-width="6"/>
<path d="M808.42 845.053C807.644 846.396 806.316 847.402 804.51 848.014C802.705 848.626 800.458 848.832 797.897 848.62C795.336 848.407 792.512 847.781 789.586 846.777C786.66 845.773 783.69 844.411 780.844 842.768C777.998 841.125 775.332 839.233 773 837.201C770.667 835.169 768.713 833.037 767.249 830.925C765.785 828.814 764.84 826.765 764.467 824.896C764.094 823.026 764.301 821.373 765.077 820.03L786.748 832.541L808.42 845.053Z" fill="black" fill-opacity="0.25"/>
<path d="M717.566 802.774C711.878 799.49 707.486 795.497 704.937 791.821C702.242 787.933 702.187 785.364 702.898 784.134C703.608 782.904 705.86 781.666 710.574 782.057C715.033 782.426 720.687 784.233 726.375 787.517C732.064 790.801 736.456 794.795 739.005 798.471C741.7 802.358 741.755 804.927 741.044 806.157C740.334 807.388 738.082 808.625 733.368 808.234C728.909 807.865 723.255 806.059 717.566 802.774Z" fill="#750787" stroke="black" stroke-width="6"/>
<path d="M743.642 807.657C742.867 809 741.539 810.007 739.733 810.619C737.928 811.231 735.68 811.436 733.12 811.224C730.559 811.012 727.735 810.386 724.809 809.382C721.883 808.378 718.912 807.015 716.066 805.372C713.22 803.729 710.555 801.838 708.223 799.806C705.89 797.774 703.936 795.641 702.472 793.53C701.008 791.419 700.062 789.37 699.69 787.5C699.317 785.63 699.524 783.977 700.299 782.634L721.971 795.146L743.642 807.657Z" fill="black" fill-opacity="0.25"/>
<path d="M765.43 850.633C762.145 844.945 760.339 839.291 759.969 834.832C759.579 830.118 760.816 827.866 762.046 827.156C763.277 826.446 765.845 826.5 769.733 829.196C773.409 831.745 777.403 836.136 780.687 841.824C783.971 847.513 785.778 853.167 786.147 857.625C786.538 862.339 785.301 864.591 784.07 865.301C782.84 866.012 780.271 865.957 776.384 863.262C772.707 860.713 768.714 856.321 765.43 850.633Z" fill="#750787" stroke="black" stroke-width="6"/>
<path d="M785.57 867.899C784.227 868.675 782.574 868.882 780.704 868.509C778.835 868.137 776.786 867.191 774.674 865.727C772.563 864.263 770.43 862.309 768.398 859.977C766.366 857.644 764.475 854.979 762.831 852.133C761.188 849.287 759.826 846.316 758.822 843.391C757.818 840.465 757.192 837.641 756.98 835.08C756.767 832.52 756.973 830.272 757.585 828.467C758.197 826.662 759.203 825.333 760.546 824.558L773.058 846.229L785.57 867.899Z" fill="black" fill-opacity="0.25"/>
<path d="M728.031 785.863C724.747 780.175 722.94 774.521 722.571 770.063C722.18 765.349 723.417 763.097 724.648 762.387C725.878 761.676 728.447 761.731 732.334 764.426C736.011 766.975 740.004 771.367 743.288 777.055C746.573 782.743 748.379 788.397 748.749 792.855C749.139 797.57 747.902 799.821 746.672 800.532C745.441 801.242 742.873 801.188 738.985 798.492C735.309 795.943 731.315 791.552 728.031 785.863Z" fill="#750787" stroke="black" stroke-width="6"/>
<path d="M748.172 803.13C746.829 803.905 745.175 804.112 743.306 803.74C741.436 803.367 739.387 802.422 737.276 800.958C735.164 799.494 733.032 797.539 731 795.207C728.968 792.874 727.076 790.209 725.433 787.363C723.79 784.518 722.427 781.547 721.423 778.621C720.419 775.695 719.793 772.871 719.581 770.311C719.369 767.75 719.575 765.503 720.187 763.698C720.799 761.892 721.805 760.564 723.148 759.789L735.66 781.459L748.172 803.13Z" fill="black" fill-opacity="0.25"/>
<path d="M780.683 785.863C777.399 791.551 773.406 795.943 769.729 798.492C765.842 801.187 763.273 801.242 762.043 800.531C760.812 799.821 759.575 797.569 759.966 792.855C760.335 788.397 762.142 782.743 765.426 777.054C768.71 771.366 772.704 766.975 776.38 764.426C780.267 761.73 782.836 761.676 784.067 762.386C785.297 763.096 786.534 765.348 786.144 770.062C785.774 774.521 783.968 780.175 780.683 785.863Z" fill="#750787" stroke="black" stroke-width="6"/>
<path d="M785.567 759.788C786.91 760.563 787.916 761.892 788.528 763.697C789.14 765.502 789.346 767.75 789.133 770.31C788.921 772.871 788.295 775.695 787.291 778.62C786.287 781.546 784.925 784.517 783.281 787.363C781.638 790.209 779.747 792.874 777.715 795.206C775.683 797.539 773.55 799.493 771.439 800.957C769.327 802.421 767.278 803.366 765.409 803.739C763.539 804.112 761.886 803.905 760.543 803.129L773.055 781.459L785.567 759.788Z" fill="black" fill-opacity="0.25"/>
<path d="M743.289 850.631C740.005 856.32 736.011 860.711 732.335 863.26C728.447 865.956 725.879 866.01 724.648 865.3C723.418 864.589 722.181 862.338 722.571 857.623C722.941 853.165 724.747 847.511 728.031 841.823C731.316 836.135 735.309 831.743 738.985 829.194C742.873 826.499 745.442 826.444 746.672 827.155C747.902 827.865 749.14 830.117 748.749 834.831C748.38 839.289 746.573 844.943 743.289 850.631Z" fill="#750787" stroke="black" stroke-width="6"/>
<path d="M748.172 824.557C749.515 825.332 750.521 826.66 751.133 828.466C751.745 830.271 751.951 832.518 751.739 835.079C751.527 837.639 750.901 840.463 749.897 843.389C748.892 846.315 747.53 849.286 745.887 852.131C744.244 854.977 742.352 857.643 740.32 859.975C738.288 862.308 736.156 864.262 734.044 865.726C731.933 867.19 729.884 868.135 728.014 868.508C726.145 868.88 724.491 868.673 723.148 867.898L735.66 846.227L748.172 824.557Z" fill="black" fill-opacity="0.25"/>
<path d="M779.91 812.156C779.91 826.269 768.469 837.71 754.355 837.71C740.242 837.71 728.801 826.269 728.801 812.156C728.801 798.043 740.242 786.603 754.355 786.603C768.469 786.603 779.91 798.043 779.91 812.156Z" fill="#FFED00" stroke="black" stroke-width="4"/>
<path d="M754.621 784.392C761.929 784.392 768.937 787.295 774.105 792.462C779.272 797.629 782.175 804.638 782.175 811.945C782.175 819.253 779.272 826.261 774.105 831.429C768.937 836.596 761.929 839.499 754.621 839.499L754.621 811.945L754.621 784.392Z" fill="black" fill-opacity="0.25"/>
<path d="M712.254 851.07C712.254 857.639 710.992 863.438 709.082 867.484C707.064 871.762 704.866 873.093 703.445 873.093C702.025 873.093 699.827 871.762 697.808 867.484C695.899 863.438 694.637 857.639 694.637 851.07C694.637 844.502 695.899 838.702 697.808 834.656C699.827 830.378 702.025 829.047 703.445 829.047C704.866 829.047 707.064 830.378 709.082 834.656C710.992 838.702 712.254 844.502 712.254 851.07Z" fill="#F86848" stroke="black" stroke-width="6"/>
<path d="M703.445 826.047C704.996 826.047 706.532 826.694 707.964 827.952C709.397 829.209 710.699 831.052 711.796 833.376C712.892 835.7 713.762 838.458 714.355 841.494C714.949 844.53 715.254 847.784 715.254 851.07C715.254 854.356 714.949 857.61 714.355 860.646C713.762 863.682 712.892 866.441 711.795 868.764C710.699 871.088 709.397 872.931 707.964 874.189C706.532 875.446 704.996 876.093 703.445 876.093L703.445 851.07L703.445 826.047Z" fill="black" fill-opacity="0.25"/>
<path d="M712.254 925.859C712.254 932.428 710.992 938.227 709.082 942.273C707.064 946.551 704.866 947.883 703.445 947.883C702.025 947.883 699.827 946.551 697.808 942.273C695.899 938.227 694.637 932.428 694.637 925.859C694.637 919.291 695.899 913.491 697.808 909.445C699.827 905.167 702.025 903.836 703.445 903.836C704.866 903.836 707.064 905.167 709.082 909.445C710.992 913.491 712.254 919.291 712.254 925.859Z" fill="#F86848" stroke="black" stroke-width="6"/>
<path d="M703.445 900.836C704.996 900.836 706.532 901.483 707.964 902.741C709.397 903.998 710.699 905.841 711.796 908.165C712.892 910.489 713.762 913.247 714.355 916.283C714.949 919.319 715.254 922.573 715.254 925.859C715.254 929.145 714.949 932.399 714.355 935.435C713.762 938.471 712.892 941.23 711.795 943.553C710.699 945.877 709.397 947.72 707.964 948.978C706.532 950.235 704.996 950.883 703.445 950.883L703.445 925.859L703.445 900.836Z" fill="black" fill-opacity="0.25"/>
<path d="M740.239 877.396C734.551 880.68 728.896 882.487 724.438 882.856C719.723 883.247 717.472 882.01 716.761 880.779C716.051 879.549 716.105 876.98 718.801 873.093C721.35 869.417 725.742 865.423 731.43 862.139C737.119 858.855 742.773 857.048 747.231 856.679C751.946 856.288 754.198 857.526 754.908 858.756C755.618 859.986 755.564 862.555 752.868 866.442C750.319 870.119 745.928 874.112 740.239 877.396Z" fill="#F86848" stroke="black" stroke-width="6"/>
<path d="M757.506 857.256C758.282 858.599 758.489 860.252 758.116 862.122C757.743 863.991 756.798 866.04 755.334 868.152C753.87 870.263 751.916 872.396 749.583 874.428C747.25 876.46 744.585 878.351 741.739 879.994C738.893 881.637 735.922 883 732.996 884.004C730.07 885.008 727.246 885.634 724.686 885.846C722.125 886.058 719.878 885.852 718.072 885.24C716.267 884.628 714.939 883.622 714.163 882.279L735.835 869.768L757.506 857.256Z" fill="black" fill-opacity="0.25"/>
<path d="M675.466 914.791C669.777 918.075 664.123 919.881 659.665 920.251C654.95 920.641 652.698 919.404 651.988 918.174C651.277 916.943 651.332 914.375 654.027 910.487C656.577 906.811 660.968 902.818 666.657 899.534C672.345 896.249 678 894.443 682.458 894.073C687.172 893.683 689.424 894.92 690.135 896.15C690.845 897.381 690.791 899.95 688.095 903.837C685.546 907.513 681.154 911.507 675.466 914.791Z" fill="#F86848" stroke="black" stroke-width="6"/>
<path d="M692.733 894.65C693.508 895.993 693.715 897.647 693.343 899.516C692.97 901.386 692.024 903.435 690.56 905.546C689.096 907.658 687.142 909.79 684.81 911.822C682.477 913.854 679.812 915.746 676.966 917.389C674.12 919.032 671.149 920.394 668.223 921.398C665.297 922.402 662.473 923.028 659.912 923.241C657.352 923.453 655.104 923.247 653.299 922.635C651.494 922.023 650.165 921.017 649.39 919.674L671.061 907.162L692.733 894.65Z" fill="black" fill-opacity="0.25"/>
<path d="M740.847 897.274C734.278 897.274 728.478 896.011 724.433 894.102C720.154 892.083 718.823 889.886 718.823 888.465C718.823 887.044 720.154 884.847 724.433 882.828C728.478 880.919 734.278 879.656 740.847 879.656C747.416 879.656 753.216 880.919 757.261 882.828C761.54 884.847 762.871 887.044 762.871 888.465C762.871 889.886 761.54 892.083 757.261 894.102C753.216 896.011 747.416 897.274 740.847 897.274Z" fill="#F86848" stroke="black" stroke-width="6"/>
<path d="M765.871 888.465C765.871 890.016 765.224 891.551 763.966 892.984C762.709 894.417 760.865 895.718 758.542 896.815C756.218 897.912 753.459 898.781 750.423 899.375C747.387 899.968 744.133 900.274 740.847 900.274C737.561 900.274 734.307 899.968 731.271 899.375C728.235 898.781 725.476 897.912 723.152 896.815C720.829 895.718 718.985 894.417 717.728 892.984C716.47 891.551 715.823 890.016 715.823 888.465L740.847 888.465L765.871 888.465Z" fill="black" fill-opacity="0.25"/>
<path d="M666.054 897.274C659.485 897.274 653.685 896.011 649.64 894.102C645.362 892.083 644.03 889.886 644.03 888.465C644.03 887.044 645.362 884.847 649.64 882.828C653.685 880.919 659.485 879.656 666.054 879.656C672.623 879.656 678.423 880.919 682.468 882.828C686.747 884.847 688.078 887.044 688.078 888.465C688.078 889.886 686.747 892.083 682.468 894.102C678.423 896.011 672.623 897.274 666.054 897.274Z" fill="#F86848" stroke="black" stroke-width="6"/>
<path d="M691.078 888.465C691.078 890.016 690.431 891.551 689.173 892.984C687.916 894.417 686.072 895.718 683.749 896.815C681.425 897.912 678.666 898.781 675.63 899.375C672.594 899.968 669.34 900.274 666.054 900.274C662.768 900.274 659.514 899.968 656.478 899.375C653.442 898.781 650.683 897.912 648.359 896.815C646.036 895.718 644.192 894.417 642.935 892.984C641.677 891.551 641.03 890.016 641.03 888.465L666.054 888.465L691.078 888.465Z" fill="black" fill-opacity="0.25"/>
<path d="M731.434 914.791C725.745 911.507 721.353 907.513 718.804 903.837C716.109 899.95 716.054 897.381 716.765 896.151C717.475 894.92 719.727 893.683 724.441 894.074C728.9 894.443 734.554 896.249 740.243 899.534C745.931 902.818 750.323 906.811 752.872 910.487C755.567 914.375 755.622 916.944 754.911 918.174C754.201 919.404 751.949 920.642 747.235 920.251C742.776 919.882 737.122 918.075 731.434 914.791Z" fill="#F86848" stroke="black" stroke-width="6"/>
<path d="M757.51 919.674C756.734 921.017 755.406 922.023 753.6 922.635C751.795 923.247 749.548 923.453 746.987 923.241C744.426 923.029 741.602 922.403 738.676 921.399C735.75 920.394 732.779 919.032 729.934 917.389C727.088 915.746 724.422 913.854 722.09 911.822C719.757 909.791 717.803 907.658 716.339 905.547C714.875 903.435 713.929 901.386 713.557 899.517C713.184 897.647 713.391 895.994 714.167 894.651L735.838 907.162L757.51 919.674Z" fill="black" fill-opacity="0.25"/>
<path d="M666.656 877.395C660.968 874.111 656.576 870.118 654.027 866.442C651.331 862.554 651.277 859.986 651.987 858.755C652.698 857.525 654.95 856.287 659.664 856.678C664.122 857.048 669.777 858.854 675.465 862.138C681.154 865.422 685.545 869.416 688.095 873.092C690.79 876.979 690.844 879.548 690.134 880.778C689.424 882.009 687.172 883.246 682.457 882.855C677.999 882.486 672.345 880.68 666.656 877.395Z" fill="#F86848" stroke="black" stroke-width="6"/>
<path d="M692.732 882.278C691.957 883.621 690.628 884.628 688.823 885.24C687.017 885.852 684.77 886.057 682.21 885.845C679.649 885.633 676.825 885.007 673.899 884.003C670.973 882.999 668.002 881.637 665.156 879.993C662.31 878.35 659.645 876.459 657.312 874.427C654.98 872.395 653.026 870.263 651.562 868.151C650.097 866.04 649.152 863.991 648.779 862.121C648.407 860.252 648.614 858.598 649.389 857.255L671.061 869.767L692.732 882.278Z" fill="black" fill-opacity="0.25"/>
<path d="M714.523 925.254C711.239 919.566 709.433 913.912 709.063 909.454C708.672 904.739 709.91 902.488 711.14 901.777C712.371 901.067 714.939 901.121 718.827 903.817C722.503 906.366 726.496 910.757 729.781 916.446C733.065 922.134 734.871 927.788 735.241 932.246C735.632 936.96 734.394 939.212 733.164 939.922C731.933 940.633 729.365 940.578 725.477 937.883C721.801 935.334 717.808 930.942 714.523 925.254Z" fill="#F86848" stroke="black" stroke-width="6"/>
<path d="M734.664 942.52C733.321 943.296 731.667 943.503 729.798 943.13C727.928 942.758 725.879 941.812 723.768 940.348C721.656 938.884 719.524 936.93 717.492 934.598C715.46 932.265 713.568 929.6 711.925 926.754C710.282 923.908 708.92 920.938 707.916 918.012C706.912 915.086 706.285 912.262 706.073 909.701C705.861 907.141 706.067 904.894 706.679 903.088C707.291 901.283 708.297 899.955 709.64 899.179L722.152 920.85L734.664 942.52Z" fill="black" fill-opacity="0.25"/>
<path d="M677.121 860.485C673.837 854.796 672.03 849.142 671.661 844.684C671.27 839.97 672.507 837.718 673.738 837.008C674.968 836.297 677.537 836.352 681.424 839.047C685.101 841.596 689.094 845.988 692.378 851.676C695.663 857.364 697.469 863.018 697.838 867.477C698.229 872.191 696.992 874.442 695.762 875.153C694.531 875.863 691.962 875.809 688.075 873.113C684.399 870.564 680.405 866.173 677.121 860.485Z" fill="#F86848" stroke="black" stroke-width="6"/>
<path d="M697.262 877.751C695.919 878.526 694.265 878.734 692.396 878.361C690.526 877.988 688.477 877.043 686.365 875.579C684.254 874.115 682.121 872.161 680.089 869.828C678.057 867.496 676.166 864.83 674.523 861.985C672.88 859.139 671.517 856.168 670.513 853.242C669.509 850.316 668.883 847.492 668.671 844.932C668.459 842.371 668.665 840.124 669.277 838.319C669.888 836.513 670.895 835.185 672.238 834.41L684.75 856.08L697.262 877.751Z" fill="black" fill-opacity="0.25"/>
<path d="M729.773 860.484C726.489 866.172 722.495 870.564 718.819 873.113C714.932 875.808 712.363 875.863 711.133 875.152C709.902 874.442 708.665 872.19 709.056 867.476C709.425 863.018 711.232 857.364 714.516 851.675C717.8 845.987 721.794 841.596 725.47 839.047C729.357 836.351 731.926 836.297 733.156 837.007C734.387 837.718 735.624 839.969 735.233 844.684C734.864 849.142 733.057 854.796 729.773 860.484Z" fill="#F86848" stroke="black" stroke-width="6"/>
<path d="M734.656 834.409C735.999 835.184 737.006 836.513 737.618 838.318C738.23 840.124 738.435 842.371 738.223 844.931C738.011 847.492 737.385 850.316 736.381 853.242C735.377 856.167 734.014 859.138 732.371 861.984C730.728 864.83 728.837 867.495 726.805 869.828C724.773 872.16 722.64 874.114 720.529 875.578C718.417 877.042 716.368 877.988 714.499 878.36C712.629 878.733 710.976 878.526 709.633 877.75L722.145 856.08L734.656 834.409Z" fill="black" fill-opacity="0.25"/>
<path d="M692.379 925.253C689.094 930.941 685.101 935.332 681.425 937.881C677.537 940.577 674.969 940.631 673.738 939.921C672.508 939.211 671.27 936.959 671.661 932.245C672.031 927.786 673.837 922.132 677.121 916.444C680.406 910.756 684.399 906.364 688.075 903.815C691.963 901.12 694.531 901.065 695.762 901.776C696.992 902.486 698.23 904.738 697.839 909.452C697.469 913.91 695.663 919.564 692.379 925.253Z" fill="#F86848" stroke="black" stroke-width="6"/>
<path d="M697.262 899.178C698.605 899.953 699.611 901.281 700.223 903.087C700.835 904.892 701.041 907.139 700.829 909.7C700.616 912.26 699.99 915.084 698.986 918.01C697.982 920.936 696.62 923.907 694.977 926.753C693.334 929.598 691.442 932.264 689.41 934.596C687.378 936.929 685.246 938.883 683.134 940.347C681.023 941.811 678.974 942.756 677.104 943.129C675.235 943.502 673.581 943.294 672.238 942.519L684.75 920.848L697.262 899.178Z" fill="black" fill-opacity="0.25"/>
<path d="M729 886.778C729 900.891 717.559 912.332 703.445 912.332C689.332 912.332 677.891 900.891 677.891 886.778C677.891 872.665 689.332 861.225 703.445 861.225C717.559 861.225 729 872.665 729 886.778Z" fill="#FFED00" stroke="black" stroke-width="4"/>
<path d="M703.711 859.013C711.019 859.013 718.027 861.916 723.195 867.083C728.362 872.25 731.265 879.259 731.265 886.566C731.265 893.874 728.362 900.883 723.195 906.05C718.027 911.217 711.019 914.12 703.711 914.12L703.711 886.566L703.711 859.013Z" fill="black" fill-opacity="0.25"/>
<path d="M719.178 670.041C719.178 678.616 717.531 686.234 715.001 691.595C712.361 697.188 709.306 699.333 706.938 699.333C704.57 699.333 701.515 697.188 698.876 691.595C696.346 686.234 694.699 678.616 694.699 670.041C694.699 661.465 696.346 653.848 698.876 648.487C701.515 642.893 704.57 640.748 706.938 640.748C709.306 640.748 712.361 642.893 715.001 648.487C717.531 653.848 719.178 661.465 719.178 670.041Z" fill="white" stroke="black" stroke-width="6"/>
<path d="M706.938 637.748C708.94 637.748 710.921 638.583 712.77 640.206C714.619 641.829 716.299 644.208 717.714 647.206C719.129 650.205 720.252 653.765 721.018 657.683C721.783 661.601 722.178 665.8 722.178 670.041C722.178 674.281 721.783 678.481 721.018 682.399C720.252 686.316 719.129 689.876 717.714 692.875C716.299 695.874 714.619 698.252 712.77 699.875C710.921 701.498 708.94 702.333 706.938 702.333L706.938 670.041L706.938 637.748Z" fill="black" fill-opacity="0.25"/>
<path d="M719.178 766.555C719.178 775.131 717.531 782.748 715.001 788.109C712.361 793.703 709.306 795.848 706.938 795.848C704.57 795.848 701.515 793.703 698.876 788.109C696.346 782.748 694.699 775.131 694.699 766.555C694.699 757.98 696.346 750.362 698.876 745.001C701.515 739.408 704.57 737.263 706.938 737.263C709.306 737.263 712.361 739.408 715.001 745.001C717.531 750.362 719.178 757.98 719.178 766.555Z" fill="white" stroke="black" stroke-width="6"/>
<path d="M706.938 734.263C708.94 734.263 710.921 735.098 712.77 736.721C714.619 738.344 716.299 740.722 717.714 743.721C719.129 746.72 720.252 750.28 721.018 754.197C721.783 758.115 722.178 762.315 722.178 766.555C722.178 770.796 721.783 774.995 721.018 778.913C720.252 782.831 719.129 786.391 717.714 789.39C716.299 792.388 714.619 794.767 712.77 796.39C710.921 798.013 708.94 798.848 706.938 798.848L706.938 766.555L706.938 734.263Z" fill="black" fill-opacity="0.25"/>
<path d="M754.855 704.769C747.428 709.056 740.007 711.439 734.099 711.929C727.935 712.439 724.55 710.866 723.366 708.815C722.182 706.765 722.512 703.046 726.036 697.964C729.414 693.092 735.188 687.857 742.615 683.57C750.042 679.282 757.462 676.899 763.37 676.41C769.534 675.899 772.92 677.472 774.104 679.523C775.288 681.573 774.958 685.292 771.433 690.375C768.055 695.246 762.282 700.481 754.855 704.769Z" fill="white" stroke="black" stroke-width="6"/>
<path d="M776.702 678.023C777.703 679.756 777.97 681.89 777.489 684.302C777.008 686.715 775.788 689.359 773.899 692.084C772.009 694.809 769.487 697.561 766.477 700.183C763.467 702.805 760.027 705.246 756.355 707.367C752.682 709.487 748.848 711.245 745.072 712.541C741.296 713.837 737.652 714.644 734.347 714.918C731.043 715.192 728.143 714.927 725.813 714.137C723.483 713.347 721.768 712.048 720.768 710.315L748.735 694.169L776.702 678.023Z" fill="black" fill-opacity="0.25"/>
<path d="M671.265 753.026C663.838 757.314 656.418 759.697 650.51 760.186C644.345 760.697 640.96 759.124 639.776 757.073C638.592 755.022 638.922 751.304 642.447 746.221C645.825 741.35 651.598 736.115 659.025 731.827C666.452 727.539 673.872 725.157 679.78 724.667C685.945 724.157 689.33 725.73 690.514 727.781C691.698 729.831 691.368 733.55 687.843 738.632C684.465 743.504 678.692 748.738 671.265 753.026Z" fill="white" stroke="black" stroke-width="6"/>
<path d="M693.112 726.281C694.113 728.014 694.38 730.147 693.899 732.56C693.418 734.973 692.198 737.617 690.309 740.342C688.419 743.067 685.897 745.819 682.887 748.441C679.877 751.063 676.437 753.504 672.765 755.624C669.092 757.745 665.258 759.503 661.482 760.799C657.706 762.094 654.062 762.902 650.757 763.176C647.453 763.45 644.553 763.184 642.223 762.395C639.893 761.605 638.179 760.306 637.178 758.573L665.145 742.427L693.112 726.281Z" fill="black" fill-opacity="0.25"/>
<path d="M755.195 730.537C746.619 730.537 739.001 728.89 733.64 726.36C728.046 723.721 725.901 720.666 725.901 718.298C725.901 715.93 728.046 712.875 733.64 710.235C739.001 707.705 746.619 706.059 755.195 706.059C763.771 706.059 771.388 707.705 776.749 710.235C782.343 712.875 784.488 715.93 784.488 718.298C784.488 720.666 782.343 723.721 776.749 726.36C771.388 728.89 763.771 730.537 755.195 730.537Z" fill="white" stroke="black" stroke-width="6"/>
<path d="M787.488 718.298C787.488 720.299 786.653 722.281 785.03 724.13C783.407 725.979 781.028 727.658 778.03 729.074C775.031 730.489 771.471 731.611 767.553 732.377C763.635 733.143 759.436 733.537 755.195 733.537C750.954 733.537 746.755 733.143 742.836 732.377C738.918 731.611 735.358 730.489 732.36 729.074C729.361 727.658 726.982 725.979 725.359 724.13C723.736 722.281 722.901 720.299 722.901 718.298L755.195 718.298L787.488 718.298Z" fill="black" fill-opacity="0.25"/>
<path d="M658.679 730.538C650.103 730.538 642.486 728.891 637.124 726.361C631.531 723.722 629.386 720.667 629.386 718.299C629.386 715.931 631.531 712.876 637.124 710.236C642.486 707.706 650.103 706.06 658.679 706.06C667.255 706.06 674.873 707.706 680.234 710.236C685.828 712.876 687.973 715.931 687.973 718.299C687.973 720.667 685.828 723.722 680.234 726.361C674.873 728.891 667.255 730.538 658.679 730.538Z" fill="white" stroke="black" stroke-width="6"/>
<path d="M690.973 718.299C690.973 720.3 690.137 722.282 688.514 724.131C686.892 725.979 684.513 727.659 681.514 729.075C678.515 730.49 674.955 731.612 671.037 732.378C667.119 733.144 662.92 733.538 658.679 733.538C654.438 733.538 650.239 733.144 646.321 732.378C642.403 731.612 638.843 730.49 635.844 729.075C632.845 727.659 630.467 725.979 628.844 724.131C627.221 722.282 626.386 720.3 626.386 718.299L658.679 718.299L690.973 718.299Z" fill="black" fill-opacity="0.25"/>
<path d="M742.614 753.027C735.187 748.739 729.413 743.504 726.035 738.633C722.511 733.55 722.18 729.832 723.364 727.781C724.549 725.73 727.934 724.157 734.098 724.668C740.006 725.157 747.426 727.54 754.853 731.828C762.28 736.116 768.054 741.35 771.432 746.222C774.956 751.305 775.286 755.023 774.102 757.074C772.918 759.124 769.533 760.698 763.369 760.187C757.461 759.697 750.041 757.315 742.614 753.027Z" fill="white" stroke="black" stroke-width="6"/>
<path d="M776.7 758.574C775.7 760.307 773.986 761.605 771.656 762.395C769.326 763.185 766.426 763.45 763.121 763.176C759.817 762.903 756.172 762.095 752.396 760.799C748.62 759.503 744.786 757.745 741.114 755.625C737.441 753.504 734.001 751.063 730.991 748.441C727.981 745.819 725.459 743.067 723.57 740.342C721.68 737.617 720.46 734.973 719.979 732.56C719.498 730.148 719.766 728.014 720.766 726.281L748.733 742.427L776.7 758.574Z" fill="black" fill-opacity="0.25"/>
<path d="M659.02 704.77C651.593 700.482 645.819 695.247 642.441 690.376C638.917 685.293 638.587 681.575 639.771 679.524C640.955 677.473 644.34 675.9 650.504 676.411C656.412 676.9 663.832 679.283 671.259 683.571C678.687 687.859 684.46 693.093 687.838 697.965C691.363 703.048 691.693 706.766 690.509 708.817C689.325 710.868 685.939 712.441 679.775 711.93C673.867 711.44 666.447 709.058 659.02 704.77Z" fill="white" stroke="black" stroke-width="6"/>
<path d="M693.107 710.317C692.106 712.05 690.392 713.348 688.062 714.138C685.732 714.928 682.832 715.193 679.527 714.92C676.223 714.646 672.578 713.838 668.802 712.542C665.026 711.247 661.193 709.488 657.52 707.368C653.847 705.248 650.408 702.807 647.397 700.184C644.387 697.562 641.865 694.81 639.976 692.085C638.087 689.36 636.867 686.716 636.386 684.304C635.905 681.891 636.172 679.757 637.173 678.024L665.14 694.17L693.107 710.317Z" fill="black" fill-opacity="0.25"/>
<path d="M720.47 766.211C716.182 758.785 713.8 751.365 713.31 745.457C712.799 739.293 714.372 735.908 716.423 734.724C718.474 733.54 722.192 733.87 727.275 737.394C732.147 740.772 737.381 746.546 741.669 753.972C745.957 761.399 748.34 768.819 748.83 774.727C749.34 780.891 747.767 784.276 745.716 785.46C743.666 786.644 739.947 786.314 734.864 782.789C729.993 779.411 724.758 773.638 720.47 766.211Z" fill="white" stroke="black" stroke-width="6"/>
<path d="M747.216 788.058C745.483 789.059 743.349 789.326 740.937 788.845C738.524 788.364 735.88 787.144 733.155 785.255C730.43 783.365 727.678 780.844 725.056 777.833C722.434 774.823 719.993 771.384 717.872 767.711C715.752 764.039 713.993 760.205 712.698 756.429C711.402 752.653 710.594 749.009 710.32 745.705C710.046 742.4 710.312 739.5 711.102 737.17C711.891 734.841 713.19 733.126 714.923 732.126L731.07 760.092L747.216 788.058Z" fill="black" fill-opacity="0.25"/>
<path d="M672.208 682.626C667.92 675.2 665.538 667.78 665.048 661.872C664.537 655.708 666.111 652.323 668.161 651.139C670.212 649.955 673.93 650.285 679.013 653.809C683.885 657.187 689.12 662.961 693.408 670.387C697.696 677.814 700.078 685.234 700.568 691.142C701.079 697.306 699.505 700.691 697.455 701.875C695.404 703.059 691.686 702.729 686.603 699.204C681.731 695.827 676.496 690.053 672.208 682.626Z" fill="white" stroke="black" stroke-width="6"/>
<path d="M698.955 704.473C697.222 705.474 695.088 705.741 692.675 705.26C690.262 704.779 687.618 703.559 684.893 701.67C682.168 699.78 679.416 697.259 676.794 694.249C674.172 691.238 671.731 687.799 669.61 684.126C667.49 680.454 665.732 676.62 664.436 672.844C663.14 669.068 662.332 665.424 662.058 662.12C661.785 658.815 662.05 655.915 662.84 653.586C663.63 651.256 664.928 649.541 666.661 648.541L682.808 676.507L698.955 704.473Z" fill="black" fill-opacity="0.25"/>
<path d="M741.666 682.625C737.378 690.052 732.143 695.825 727.272 699.203C722.189 702.727 718.471 703.057 716.42 701.873C714.369 700.689 712.796 697.304 713.307 691.14C713.796 685.233 716.179 677.813 720.467 670.386C724.755 662.959 729.99 657.186 734.861 653.808C739.944 650.284 743.662 649.953 745.713 651.137C747.764 652.321 749.337 655.707 748.826 661.87C748.337 667.778 745.954 675.198 741.666 682.625Z" fill="white" stroke="black" stroke-width="6"/>
<path d="M747.213 648.539C748.946 649.54 750.245 651.254 751.035 653.584C751.824 655.914 752.09 658.814 751.816 662.118C751.542 665.423 750.734 669.067 749.439 672.843C748.143 676.619 746.385 680.452 744.264 684.125C742.144 687.797 739.703 691.237 737.081 694.247C734.458 697.257 731.706 699.779 728.981 701.668C726.256 703.557 723.612 704.777 721.2 705.258C718.787 705.739 716.653 705.472 714.92 704.471L731.067 676.505L747.213 648.539Z" fill="black" fill-opacity="0.25"/>
<path d="M693.408 766.21C689.12 773.637 683.886 779.41 679.014 782.788C673.931 786.312 670.213 786.642 668.162 785.458C666.111 784.274 664.538 780.889 665.049 774.725C665.539 768.818 667.921 761.398 672.209 753.971C676.497 746.544 681.732 740.771 686.603 737.393C691.686 733.869 695.405 733.538 697.455 734.722C699.506 735.906 701.079 739.291 700.569 745.455C700.079 751.363 697.696 758.783 693.408 766.21Z" fill="white" stroke="black" stroke-width="6"/>
<path d="M698.955 732.124C700.689 733.125 701.987 734.839 702.777 737.169C703.567 739.499 703.832 742.399 703.558 745.703C703.285 749.008 702.477 752.652 701.181 756.428C699.885 760.204 698.127 764.037 696.006 767.71C693.886 771.382 691.445 774.822 688.823 777.832C686.201 780.842 683.448 783.364 680.724 785.253C677.999 787.142 675.354 788.362 672.942 788.843C670.529 789.324 668.395 789.057 666.662 788.056L682.809 760.09L698.955 732.124Z" fill="black" fill-opacity="0.25"/>
<path d="M739.493 716.121C739.493 734.102 724.916 748.679 706.934 748.679C688.952 748.679 674.375 734.102 674.375 716.121C674.375 698.139 688.952 683.562 706.934 683.562C724.916 683.562 739.493 698.139 739.493 716.121Z" fill="#FFED00" stroke="black" stroke-width="6"/>
<path d="M707.278 680.29C716.709 680.29 725.753 684.036 732.422 690.705C739.091 697.373 742.837 706.418 742.837 715.848C742.837 725.279 739.091 734.323 732.422 740.992C725.753 747.66 716.709 751.406 707.278 751.406L707.278 715.848L707.278 680.29Z" fill="black" fill-opacity="0.25"/>
</g>
<defs>
<clipPath id="clip0_794_65913">
<rect width="1000" height="1000" fill="white"/>
</clipPath>
</defs>
</svg>
