<svg width="1000" height="1000" viewBox="0 0 1000 1000" fill="none" xmlns="http://www.w3.org/2000/svg">
<g clip-path="url(#clip0_724_33508)">
<path d="M561 1027C563.209 1027 565 1025.21 565 1023L565 566C565 563.791 563.209 562 561 562L546 562C532.745 562 522 572.745 522 586L522 1003C522 1016.25 532.745 1027 546 1027L561 1027Z" fill="black" fill-opacity="0.25"/>
<path d="M566.445 938.354H849.727V1039.68H587.445C575.847 1039.68 566.445 1030.28 566.445 1018.68V938.354Z" fill="#ECE7D8" stroke="black" stroke-width="8"/>
<path d="M577.053 965.149H853.732V982.858H594.761C584.981 982.858 577.053 974.93 577.053 965.149V965.149Z" fill="black" fill-opacity="0.25"/>
<mask id="path-4-inside-1_724_33508" fill="white">
<path fill-rule="evenodd" clip-rule="evenodd" d="M978.999 965.152V1018.68C978.999 1032.49 967.806 1043.68 953.999 1043.68H847.576V934.354H847.577V534.771L942.921 572.336C948.344 574.473 952.849 578.437 955.659 583.543L975.903 620.329C977.935 624.021 979 628.167 979 632.382V965.152H978.999Z"/>
</mask>
<path fill-rule="evenodd" clip-rule="evenodd" d="M978.999 965.152V1018.68C978.999 1032.49 967.806 1043.68 953.999 1043.68H847.576V934.354H847.577V534.771L942.921 572.336C948.344 574.473 952.849 578.437 955.659 583.543L975.903 620.329C977.935 624.021 979 628.167 979 632.382V965.152H978.999Z" fill="#ECE7D8"/>
<path d="M978.999 965.152V957.152H970.999V965.152H978.999ZM847.576 1043.68H839.576V1051.68H847.576V1043.68ZM847.576 934.354V926.354H839.576V934.354H847.576ZM847.577 934.354V942.354H855.577V934.354H847.577ZM847.577 534.771L850.51 527.328L839.577 523.021V534.771H847.577ZM942.921 572.336L939.988 579.779L942.921 572.336ZM955.659 583.543L948.65 587.4V587.4L955.659 583.543ZM975.903 620.329L968.894 624.186L975.903 620.329ZM979 965.152V973.152H987V965.152H979ZM970.999 965.152V1018.68H986.999V965.152H970.999ZM970.999 1018.68C970.999 1028.07 963.388 1035.68 953.999 1035.68V1051.68C972.224 1051.68 986.999 1036.91 986.999 1018.68H970.999ZM953.999 1035.68H847.576V1051.68H953.999V1035.68ZM855.576 1043.68V934.354H839.576V1043.68H855.576ZM847.576 942.354H847.577V926.354H847.576V942.354ZM855.577 934.354V534.771H839.577V934.354H855.577ZM844.645 542.215L939.988 579.779L945.853 564.893L850.51 527.328L844.645 542.215ZM939.988 579.779C943.676 581.232 946.74 583.927 948.65 587.4L962.668 579.686C958.959 572.946 953.011 567.713 945.853 564.893L939.988 579.779ZM948.65 587.4L968.894 624.186L982.911 616.472L962.668 579.686L948.65 587.4ZM968.894 624.186C970.275 626.696 971 629.516 971 632.382H987C987 626.818 985.594 621.346 982.911 616.472L968.894 624.186ZM971 632.382V965.152H987V632.382H971ZM979 957.152H978.999V973.152H979V957.152Z" fill="black" mask="url(#path-4-inside-1_724_33508)"/>
<path fill-rule="evenodd" clip-rule="evenodd" d="M966.702 965.153V1018.68C966.702 1032.49 955.509 1043.68 941.702 1043.68H847.576V934.357H847.577V547.092L937.285 584.663C942.392 586.802 946.645 590.576 949.375 595.393L963.452 620.223C965.583 623.983 966.703 628.231 966.703 632.552V965.153H966.702Z" fill="black" fill-opacity="0.25"/>
<rect x="548" y="538" width="314.024" height="423.15" rx="21" fill="#ECE7D8" stroke="black" stroke-width="8"/>
<path d="M721.536 740.202L849.653 557.363C854.701 550.158 866.024 553.73 866.024 562.528V940.15C866.024 953.957 854.831 965.15 841.024 965.15H562.568C555.049 965.15 550.845 956.476 555.504 950.574L721.536 740.202Z" fill="black" fill-opacity="0.25"/>
<path d="M676.676 706.059L570.987 836.251C565.052 843.562 553.223 839.365 553.223 829.948L553.223 550.16C553.223 544.637 557.7 540.16 563.223 540.16L805.672 540.16C814.367 540.16 818.919 550.491 813.052 556.908L676.676 706.059Z" fill="white" fill-opacity="0.25"/>
<rect x="565.445" y="565.486" width="279.133" height="365.867" rx="9" fill="#ECE7D8" stroke="black" stroke-width="6"/>
<path d="M562.445 579.486C562.445 570.097 570.056 562.486 579.445 562.486H814.764C828.549 562.486 836.602 578.031 828.651 589.292L702.322 768.2L592.45 898.711C582.238 910.843 562.445 903.621 562.445 887.763V579.486Z" fill="white" fill-opacity="0.25"/>
<rect x="584.656" y="585.505" width="240.705" height="203.416" rx="5" fill="#ECE7D8" stroke="black" stroke-width="6"/>
<path d="M691.048 691.54L593.279 782.532C589.441 786.103 583.191 783.382 583.191 778.139L583.191 591.584C583.191 588.27 585.877 585.584 589.191 585.584L798.32 585.584C803.888 585.584 806.453 592.511 802.227 596.137L691.048 691.54Z" fill="black" fill-opacity="0.25"/>
<path d="M718.041 689.378L808.406 609.765C812.281 606.351 818.373 609.102 818.373 614.267V776.683C818.373 779.997 815.686 782.683 812.373 782.683H620.08C614.431 782.683 611.912 775.588 616.297 772.026L718.041 689.378Z" fill="white" fill-opacity="0.7"/>
<rect x="597.723" y="595.512" width="213.806" height="179.548" rx="23" fill="#D7D6DC" stroke="black" stroke-width="6"/>
<path d="M703.329 679.423L780.737 612.293C788.507 605.555 800.599 611.074 800.599 621.359V756.465C800.599 763.092 795.227 768.465 788.599 768.465H626.194C614.849 768.465 609.839 754.177 618.7 747.092L703.329 679.423Z" fill="black" fill-opacity="0.25"/>
<path d="M643.909 636.042C642.288 636.315 641 637.552 640.661 639.161L622.888 723.411C621.896 728.114 614.974 727.392 614.974 722.586L614.974 625.499C614.974 618.872 620.347 613.499 626.974 613.499L729.817 613.499C734.722 613.499 735.319 620.628 730.482 621.443L643.909 636.042Z" fill="white" fill-opacity="0.25"/>
<rect x="643.912" y="634.087" width="12.2577" height="23.186" fill="#3C3C3C"/>
<rect x="679.32" y="680.912" width="12.2577" height="12.2749" fill="#3C3C3C"/>
<rect x="668.426" y="717.282" width="47.2149" height="12.2749" fill="#3C3C3C"/>
<rect x="656.172" y="705.007" width="12.2577" height="12.2749" fill="#3C3C3C"/>
<rect x="715.645" y="705.007" width="12.2577" height="12.2749" fill="#3C3C3C"/>
<rect x="739.248" y="634.087" width="12.2577" height="23.186" fill="#3C3C3C"/>
<rect x="691.582" y="634.087" width="12.2577" height="59.0998" fill="#3C3C3C"/>
<mask id="path-25-outside-2_724_33508" maskUnits="userSpaceOnUse" x="700.629" y="806.398" width="130" height="41" fill="black">
<rect fill="white" x="700.629" y="806.398" width="130" height="41"/>
<path fill-rule="evenodd" clip-rule="evenodd" d="M825.971 811.398C825.971 810.846 825.524 810.398 824.971 810.398H793.709C793.157 810.398 792.709 810.846 792.709 811.398V816.585C792.709 817.137 792.261 817.585 791.709 817.585H705.629C705.077 817.585 704.629 818.033 704.629 818.585V834.55C704.629 835.102 705.077 835.55 705.629 835.55H791.709C792.261 835.55 792.709 835.998 792.709 836.55V841.735C792.709 842.287 793.157 842.735 793.709 842.735H824.971C825.524 842.735 825.971 842.287 825.971 841.735V811.398Z"/>
</mask>
<path fill-rule="evenodd" clip-rule="evenodd" d="M825.971 811.398C825.971 810.846 825.524 810.398 824.971 810.398H793.709C793.157 810.398 792.709 810.846 792.709 811.398V816.585C792.709 817.137 792.261 817.585 791.709 817.585H705.629C705.077 817.585 704.629 818.033 704.629 818.585V834.55C704.629 835.102 705.077 835.55 705.629 835.55H791.709C792.261 835.55 792.709 835.998 792.709 836.55V841.735C792.709 842.287 793.157 842.735 793.709 842.735H824.971C825.524 842.735 825.971 842.287 825.971 841.735V811.398Z" fill="#ECE7D8"/>
<path d="M793.709 814.398H824.971V806.398H793.709V814.398ZM796.709 816.585V811.398H788.709V816.585H796.709ZM705.629 821.585H791.709V813.585H705.629V821.585ZM708.629 834.55V818.585H700.629V834.55H708.629ZM791.709 831.55H705.629V839.55H791.709V831.55ZM796.709 841.735V836.55H788.709V841.735H796.709ZM824.971 838.735H793.709V846.735H824.971V838.735ZM821.971 811.398V841.735H829.971V811.398H821.971ZM824.971 846.735C827.733 846.735 829.971 844.496 829.971 841.735H821.971C821.971 840.078 823.314 838.735 824.971 838.735V846.735ZM788.709 841.735C788.709 844.496 790.948 846.735 793.709 846.735V838.735C795.366 838.735 796.709 840.078 796.709 841.735H788.709ZM791.709 839.55C790.052 839.55 788.709 838.207 788.709 836.55H796.709C796.709 833.789 794.47 831.55 791.709 831.55V839.55ZM700.629 834.55C700.629 837.312 702.867 839.55 705.629 839.55V831.55C707.286 831.55 708.629 832.893 708.629 834.55H700.629ZM705.629 813.585C702.867 813.585 700.629 815.824 700.629 818.585H708.629C708.629 820.242 707.286 821.585 705.629 821.585V813.585ZM788.709 816.585C788.709 814.928 790.052 813.585 791.709 813.585V821.585C794.47 821.585 796.709 819.346 796.709 816.585H788.709ZM824.971 814.398C823.314 814.398 821.971 813.055 821.971 811.398H829.971C829.971 808.637 827.733 806.398 824.971 806.398V814.398ZM793.709 806.398C790.948 806.398 788.709 808.637 788.709 811.398H796.709C796.709 813.055 795.366 814.398 793.709 814.398V806.398Z" fill="black" mask="url(#path-25-outside-2_724_33508)"/>
<path fill-rule="evenodd" clip-rule="evenodd" d="M824.183 813.196C824.183 812.644 823.735 812.196 823.183 812.196H795.295C794.743 812.196 794.295 812.644 794.295 813.196V817.799C794.295 818.69 792.781 819.383 791.889 819.383V819.383H709.42C707.763 819.383 706.42 820.726 706.42 822.383V830.755C706.42 832.412 707.763 833.755 709.42 833.755H791.889V833.755C792.781 833.755 794.295 834.447 794.295 835.339V839.94C794.295 840.492 794.743 840.94 795.295 840.94H823.183C823.735 840.94 824.183 840.492 824.183 839.94V813.196Z" fill="black" fill-opacity="0.25"/>
<mask id="path-28-inside-3_724_33508" fill="white">
<path fill-rule="evenodd" clip-rule="evenodd" d="M795.665 832.85C795.556 832.348 795.133 831.957 794.619 831.957H714.002C711.793 831.957 710.002 830.166 710.002 827.957V825.178C710.002 822.969 711.793 821.178 714.002 821.178H794.619C795.133 821.178 795.556 820.787 795.665 820.285C796.447 816.686 799.65 813.991 803.482 813.991H813.784C818.202 813.991 821.784 817.573 821.784 821.991V831.142C821.784 835.561 818.202 839.142 813.784 839.142H803.482C799.65 839.142 796.447 836.448 795.665 832.85Z"/>
</mask>
<path fill-rule="evenodd" clip-rule="evenodd" d="M795.665 832.85C795.556 832.348 795.133 831.957 794.619 831.957H714.002C711.793 831.957 710.002 830.166 710.002 827.957V825.178C710.002 822.969 711.793 821.178 714.002 821.178H794.619C795.133 821.178 795.556 820.787 795.665 820.285C796.447 816.686 799.65 813.991 803.482 813.991H813.784C818.202 813.991 821.784 817.573 821.784 821.991V831.142C821.784 835.561 818.202 839.142 813.784 839.142H803.482C799.65 839.142 796.447 836.448 795.665 832.85Z" fill="#ECE7D8"/>
<path d="M795.665 820.285L793.71 819.86L795.665 820.285ZM795.665 832.85L793.711 833.274L795.665 832.85ZM794.619 829.957H714.002V833.957H794.619V829.957ZM714.002 829.957C712.897 829.957 712.002 829.061 712.002 827.957H708.002C708.002 831.271 710.688 833.957 714.002 833.957V829.957ZM712.002 827.957V825.178H708.002V827.957H712.002ZM712.002 825.178C712.002 824.073 712.897 823.178 714.002 823.178V819.178C710.688 819.178 708.002 821.864 708.002 825.178H712.002ZM714.002 823.178H794.619V819.178H714.002V823.178ZM797.619 820.709C798.205 818.011 800.61 815.991 803.482 815.991V811.991C798.689 811.991 794.688 815.362 793.71 819.86L797.619 820.709ZM803.482 815.991H813.784V811.991H803.482V815.991ZM813.784 815.991C817.098 815.991 819.784 818.678 819.784 821.991H823.784C823.784 816.468 819.307 811.991 813.784 811.991V815.991ZM819.784 821.991V831.142H823.784V821.991H819.784ZM819.784 831.142C819.784 834.456 817.098 837.142 813.784 837.142V841.142C819.307 841.142 823.784 836.665 823.784 831.142H819.784ZM813.784 837.142H803.482V841.142H813.784V837.142ZM803.482 837.142C800.611 837.142 798.206 835.123 797.619 832.425L793.711 833.274C794.688 837.772 798.689 841.142 803.482 841.142V837.142ZM794.619 823.178C796.207 823.178 797.34 821.994 797.619 820.709L793.71 819.86C793.771 819.579 794.058 819.178 794.619 819.178V823.178ZM794.619 833.957C794.059 833.957 793.772 833.555 793.711 833.274L797.619 832.425C797.34 831.141 796.207 829.957 794.619 829.957V833.957Z" fill="black" fill-opacity="0.5" mask="url(#path-28-inside-3_724_33508)"/>
<rect x="714.793" y="824.77" width="101.022" height="3.59302" rx="1.79651" fill="#090909"/>
<mask id="path-31-outside-4_724_33508" maskUnits="userSpaceOnUse" x="765.953" y="979.626" width="67" height="41" fill="black">
<rect fill="white" x="765.953" y="979.626" width="67" height="41"/>
<path d="M769.953 984.626C769.953 984.074 770.401 983.626 770.953 983.626H827.279C827.831 983.626 828.279 984.074 828.279 984.626V1014.96C828.279 1015.51 827.831 1015.96 827.279 1015.96H770.953C770.401 1015.96 769.953 1015.51 769.953 1014.96V984.626Z"/>
</mask>
<path d="M769.953 984.626C769.953 984.074 770.401 983.626 770.953 983.626H827.279C827.831 983.626 828.279 984.074 828.279 984.626V1014.96C828.279 1015.51 827.831 1015.96 827.279 1015.96H770.953C770.401 1015.96 769.953 1015.51 769.953 1014.96V984.626Z" fill="#ECE7D8"/>
<path d="M770.953 987.626H827.279V979.626H770.953V987.626ZM824.279 984.626V1014.96H832.279V984.626H824.279ZM827.279 1011.96H770.953V1019.96H827.279V1011.96ZM773.953 1014.96V984.626H765.953V1014.96H773.953ZM770.953 1011.96C772.61 1011.96 773.953 1013.31 773.953 1014.96H765.953C765.953 1017.72 768.192 1019.96 770.953 1019.96V1011.96ZM824.279 1014.96C824.279 1013.31 825.622 1011.96 827.279 1011.96V1019.96C830.04 1019.96 832.279 1017.72 832.279 1014.96H824.279ZM827.279 987.626C825.622 987.626 824.279 986.283 824.279 984.626H832.279C832.279 981.865 830.04 979.626 827.279 979.626V987.626ZM770.953 979.626C768.192 979.626 765.953 981.865 765.953 984.626H773.953C773.953 986.283 772.61 987.626 770.953 987.626V979.626Z" fill="black" mask="url(#path-31-outside-4_724_33508)"/>
<rect x="769.953" y="983.626" width="50.7245" height="29.2566" fill="#C4C4C4"/>
<mask id="path-34-inside-5_724_33508" fill="white">
<path d="M772.258 993.167C772.258 988.749 775.84 985.167 780.258 985.167H818.825C823.243 985.167 826.825 988.749 826.825 993.167V1006.42C826.825 1010.84 823.243 1014.42 818.825 1014.42H780.258C775.84 1014.42 772.258 1010.84 772.258 1006.42V993.167Z"/>
</mask>
<path d="M772.258 993.167C772.258 988.749 775.84 985.167 780.258 985.167H818.825C823.243 985.167 826.825 988.749 826.825 993.167V1006.42C826.825 1010.84 823.243 1014.42 818.825 1014.42H780.258C775.84 1014.42 772.258 1010.84 772.258 1006.42V993.167Z" fill="#ECE7D8"/>
<path d="M780.258 987.167H818.825V983.167H780.258V987.167ZM824.825 993.167V1006.42H828.825V993.167H824.825ZM818.825 1012.42H780.258V1016.42H818.825V1012.42ZM774.258 1006.42V993.167H770.258V1006.42H774.258ZM780.258 1012.42C776.944 1012.42 774.258 1009.74 774.258 1006.42H770.258C770.258 1011.95 774.735 1016.42 780.258 1016.42V1012.42ZM824.825 1006.42C824.825 1009.74 822.139 1012.42 818.825 1012.42V1016.42C824.348 1016.42 828.825 1011.95 828.825 1006.42H824.825ZM818.825 987.167C822.139 987.167 824.825 989.853 824.825 993.167H828.825C828.825 987.644 824.348 983.167 818.825 983.167V987.167ZM780.258 983.167C774.735 983.167 770.258 987.644 770.258 993.167H774.258C774.258 989.853 776.944 987.167 780.258 987.167V983.167Z" fill="black" fill-opacity="0.5" mask="url(#path-34-inside-5_724_33508)"/>
<rect x="799.934" y="989.786" width="20.7509" height="20.7882" rx="4" fill="#090909"/>
<mask id="path-37-outside-6_724_33508" maskUnits="userSpaceOnUse" x="577.656" y="878.766" width="36" height="36" fill="black">
<rect fill="white" x="577.656" y="878.766" width="36" height="36"/>
<path d="M581.656 883.766C581.656 883.213 582.104 882.766 582.656 882.766H608.324C608.876 882.766 609.324 883.213 609.324 883.766V909.482C609.324 910.035 608.876 910.482 608.324 910.482H582.656C582.104 910.482 581.656 910.035 581.656 909.482V883.766Z"/>
</mask>
<path d="M581.656 883.766C581.656 883.213 582.104 882.766 582.656 882.766H608.324C608.876 882.766 609.324 883.213 609.324 883.766V909.482C609.324 910.035 608.876 910.482 608.324 910.482H582.656C582.104 910.482 581.656 910.035 581.656 909.482V883.766Z" fill="#ECE7D8"/>
<path d="M582.656 886.766H608.324V878.766H582.656V886.766ZM605.324 883.766V909.482H613.324V883.766H605.324ZM608.324 906.482H582.656V914.482H608.324V906.482ZM585.656 909.482V883.766H577.656V909.482H585.656ZM582.656 906.482C584.313 906.482 585.656 907.826 585.656 909.482H577.656C577.656 912.244 579.895 914.482 582.656 914.482V906.482ZM605.324 909.482C605.324 907.826 606.667 906.482 608.324 906.482V914.482C611.086 914.482 613.324 912.244 613.324 909.482H605.324ZM608.324 886.766C606.667 886.766 605.324 885.422 605.324 883.766H613.324C613.324 881.004 611.086 878.766 608.324 878.766V886.766ZM582.656 878.766C579.895 878.766 577.656 881.004 577.656 883.766H585.656C585.656 885.422 584.313 886.766 582.656 886.766V878.766Z" fill="black" mask="url(#path-37-outside-6_724_33508)"/>
<rect x="581.656" y="882.766" width="24.0622" height="25.0778" fill="#C4C4C4"/>
<mask id="path-40-inside-7_724_33508" fill="white">
<path d="M582.754 892.088C582.754 887.67 586.336 884.088 590.754 884.088H600.639C605.057 884.088 608.639 887.67 608.639 892.088V901.166C608.639 905.584 605.057 909.166 600.639 909.166H590.754C586.336 909.166 582.754 905.584 582.754 901.166V892.088Z"/>
</mask>
<path d="M582.754 892.088C582.754 887.67 586.336 884.088 590.754 884.088H600.639C605.057 884.088 608.639 887.67 608.639 892.088V901.166C608.639 905.584 605.057 909.166 600.639 909.166H590.754C586.336 909.166 582.754 905.584 582.754 901.166V892.088Z" fill="#ECE7D8"/>
<path d="M590.754 886.088H600.639V882.088H590.754V886.088ZM606.639 892.088V901.166H610.639V892.088H606.639ZM600.639 907.166H590.754V911.166H600.639V907.166ZM584.754 901.166V892.088H580.754V901.166H584.754ZM590.754 907.166C587.44 907.166 584.754 904.479 584.754 901.166H580.754C580.754 906.689 585.231 911.166 590.754 911.166V907.166ZM606.639 901.166C606.639 904.479 603.953 907.166 600.639 907.166V911.166C606.162 911.166 610.639 906.689 610.639 901.166H606.639ZM600.639 886.088C603.953 886.088 606.639 888.774 606.639 892.088H610.639C610.639 886.565 606.162 882.088 600.639 882.088V886.088ZM590.754 882.088C585.231 882.088 580.754 886.565 580.754 892.088H584.754C584.754 888.774 587.44 886.088 590.754 886.088V882.088Z" fill="black" fill-opacity="0.5" mask="url(#path-40-inside-7_724_33508)"/>
<path d="M587.033 890.984C587.033 889.425 588.297 888.161 589.856 888.161H601.887C603.446 888.161 604.71 889.425 604.71 890.984V890.984H587.033V890.984Z" fill="#E40303"/>
<rect x="587.033" y="890.981" width="17.6767" height="2.82309" fill="#FF8C00"/>
<rect x="587.033" y="893.808" width="17.6767" height="2.82309" fill="#FFED00"/>
<rect x="587.033" y="896.629" width="17.6767" height="2.82309" fill="#008026"/>
<rect x="587.033" y="899.454" width="17.6767" height="2.82309" fill="#004DFF"/>
<path d="M587.033 902.274H604.71V902.274C604.71 903.834 603.446 905.098 601.887 905.098H589.856C588.297 905.098 587.033 903.834 587.033 902.274V902.274Z" fill="#750787"/>
</g>
<defs>
<clipPath id="clip0_724_33508">
<rect width="1000" height="1000" fill="white"/>
</clipPath>
</defs>
</svg>
