<svg width="1000" height="1000" viewBox="0 0 1000 1000" fill="none" xmlns="http://www.w3.org/2000/svg">
<g clip-path="url(#clip0_796_74773)">
<g opacity="0.8">
<mask id="path-1-inside-1_796_74773" fill="white">
<path fill-rule="evenodd" clip-rule="evenodd" d="M696.6 527.843C690.198 526.128 686.399 519.548 688.115 513.146L691.869 499.133C693.585 492.732 700.165 488.933 706.566 490.648L790.226 513.065C796.628 514.78 800.427 521.36 798.711 527.762L794.957 541.774C793.241 548.176 786.661 551.975 780.26 550.26V550.26C778.874 549.888 777.449 550.711 777.077 552.097L726.984 739.049C725.498 744.594 727.886 750.387 732.438 753.883C762.305 776.82 777.064 816.272 766.71 854.912L661.662 1246.96C654.8 1272.57 628.48 1287.76 602.874 1280.9L484.887 1249.29C459.28 1242.42 444.084 1216.1 450.945 1190.5L555.994 798.45C566.348 759.809 598.859 733.021 636.195 728.093C641.886 727.341 646.851 723.518 648.337 717.973L698.432 531.016C698.802 529.634 697.982 528.213 696.6 527.843V527.843Z"/>
</mask>
<path fill-rule="evenodd" clip-rule="evenodd" d="M696.6 527.843C690.198 526.128 686.399 519.548 688.115 513.146L691.869 499.133C693.585 492.732 700.165 488.933 706.566 490.648L790.226 513.065C796.628 514.78 800.427 521.36 798.711 527.762L794.957 541.774C793.241 548.176 786.661 551.975 780.26 550.26V550.26C778.874 549.888 777.449 550.711 777.077 552.097L726.984 739.049C725.498 744.594 727.886 750.387 732.438 753.883C762.305 776.82 777.064 816.272 766.71 854.912L661.662 1246.96C654.8 1272.57 628.48 1287.76 602.874 1280.9L484.887 1249.29C459.28 1242.42 444.084 1216.1 450.945 1190.5L555.994 798.45C566.348 759.809 598.859 733.021 636.195 728.093C641.886 727.341 646.851 723.518 648.337 717.973L698.432 531.016C698.802 529.634 697.982 528.213 696.6 527.843V527.843Z" fill="#008026"/>
<path d="M706.566 490.648L708.637 482.921L706.566 490.648ZM790.226 513.065L788.156 520.792L790.226 513.065ZM636.195 728.093L635.148 720.161L636.195 728.093ZM732.438 753.883L727.566 760.228L732.438 753.883ZM680.387 511.075C677.528 521.745 683.86 532.712 694.529 535.57L698.671 520.116C696.537 519.544 695.27 517.35 695.842 515.217L680.387 511.075ZM684.142 497.063L680.387 511.075L695.842 515.217L699.597 501.204L684.142 497.063ZM708.637 482.921C697.968 480.062 687.001 486.394 684.142 497.063L699.597 501.204C700.169 499.07 702.362 497.804 704.496 498.376L708.637 482.921ZM792.297 505.337L708.637 482.921L704.496 498.376L788.156 520.792L792.297 505.337ZM806.439 529.832C809.298 519.163 802.966 508.196 792.297 505.337L788.156 520.792C790.289 521.364 791.556 523.557 790.984 525.691L806.439 529.832ZM802.684 543.845L806.439 529.832L790.984 525.691L787.229 539.704L802.684 543.845ZM778.189 557.987C788.859 560.846 799.825 554.514 802.684 543.845L787.229 539.704C786.658 541.838 784.464 543.104 782.33 542.532L778.189 557.987ZM734.711 741.119L784.805 554.168L769.35 550.026L719.256 736.978L734.711 741.119ZM774.438 856.982C785.657 815.111 769.653 772.376 737.311 747.538L727.566 760.228C754.957 781.264 768.47 817.434 758.983 852.841L774.438 856.982ZM669.389 1249.03L774.438 856.982L758.983 852.841L653.934 1244.89L669.389 1249.03ZM600.803 1288.63C630.677 1296.63 661.384 1278.9 669.389 1249.03L653.934 1244.89C648.217 1266.23 626.283 1278.89 604.944 1273.17L600.803 1288.63ZM482.816 1257.01L600.803 1288.63L604.944 1273.17L486.957 1241.56L482.816 1257.01ZM443.218 1188.43C435.213 1218.3 452.942 1249.01 482.816 1257.01L486.957 1241.56C465.618 1235.84 452.955 1213.91 458.673 1192.57L443.218 1188.43ZM548.267 796.38L443.218 1188.43L458.673 1192.57L563.722 800.521L548.267 796.38ZM635.148 720.161C594.717 725.498 559.487 754.506 548.267 796.38L563.722 800.521C573.21 765.112 603 740.544 637.242 736.024L635.148 720.161ZM690.704 528.945L640.609 715.902L656.064 720.043L706.159 533.086L690.704 528.945ZM706.159 533.086C707.673 527.436 704.32 521.629 698.671 520.116L694.529 535.57C691.644 534.797 689.931 531.831 690.704 528.945L706.159 533.086ZM637.242 736.024C645.666 734.912 653.624 729.15 656.064 720.043L640.609 715.902C640.078 717.886 638.106 719.771 635.148 720.161L637.242 736.024ZM719.256 736.978C716.816 746.084 720.826 755.053 727.566 760.228L737.311 747.538C734.945 745.721 734.179 743.103 734.711 741.119L719.256 736.978ZM782.33 542.532C776.676 541.017 770.865 544.372 769.35 550.026L784.805 554.168C784.032 557.049 781.071 558.759 778.189 557.987L782.33 542.532Z" fill="black" mask="url(#path-1-inside-1_796_74773)"/>
</g>
<path fill-rule="evenodd" clip-rule="evenodd" d="M693.725 515.912C694.496 513.036 697.452 511.329 700.328 512.1L784.884 534.757C787.76 535.527 789.466 538.483 788.696 541.359C787.925 544.235 784.969 545.942 782.093 545.171V545.171C775.137 543.307 767.986 547.436 766.122 554.392L714.351 747.606C711.576 757.964 721.609 768.155 731.966 770.93V770.93C756.552 777.518 771.143 802.79 764.555 827.376L658.252 1224.1C656.717 1229.83 654.167 1235.02 650.848 1239.52C650.148 1240.47 650.593 1241.86 651.734 1242.16V1242.16C652.599 1242.4 653.115 1243.29 652.846 1244.14C646.937 1262.92 627.221 1273.87 608.025 1268.72L490.24 1237.16C478.632 1234.05 469.801 1225.75 465.579 1215.42C460.562 1203.15 474.48 1194.67 487.283 1198.1L549.215 1214.69C558.13 1217.08 566.828 1209.16 569.217 1200.25V1200.25L675.52 803.519C677.377 796.587 680.72 790.449 685.115 785.357C688.359 781.597 691.247 777.44 692.533 772.643L749.189 561.201C752.619 548.398 745.021 535.238 732.218 531.807L697.537 522.515C694.661 521.744 692.954 518.788 693.725 515.912Z" fill="black" fill-opacity="0.25"/>
<path d="M581.584 765.279C583.725 757.288 591.939 752.546 599.929 754.687V754.687C607.92 756.828 612.662 765.042 610.521 773.032L504.06 1170.35C501.919 1178.34 493.706 1183.08 485.715 1180.94V1180.94C477.725 1178.8 472.983 1170.58 475.124 1162.59L581.584 765.279Z" fill="white" fill-opacity="0.25"/>
<rect x="547.992" y="843.779" width="210.149" height="247.685" rx="28" transform="rotate(15 547.992 843.779)" fill="#FFF2D0" stroke="black" stroke-width="8"/>
<path d="M683.914 876.056L724.974 887.058C742.045 891.632 752.176 909.179 747.602 926.25L697.99 1111.4C693.416 1128.47 675.869 1138.61 658.798 1134.03L617.738 1123.03L683.914 876.056Z" fill="black" fill-opacity="0.25"/>
<mask id="path-7-inside-2_796_74773" fill="white">
<rect x="693.914" y="547.855" width="80.6538" height="147.866" rx="6" transform="rotate(15 693.914 547.855)"/>
</mask>
<rect x="693.914" y="547.855" width="80.6538" height="147.866" rx="6" transform="rotate(15 693.914 547.855)" fill="#FFF2D0" stroke="#3C3C3C" stroke-width="16" mask="url(#path-7-inside-2_796_74773)"/>
<path d="M731.762 557.996L766.032 567.179C769.233 568.036 771.132 571.326 770.275 574.527L735.11 705.764C734.252 708.965 730.962 710.864 727.761 710.007L693.491 700.824L731.762 557.996Z" fill="black" fill-opacity="0.25"/>
<path fill-rule="evenodd" clip-rule="evenodd" d="M710.108 490.401C767.701 420.388 842.663 396.357 930.841 549.546C989.514 651.477 970.75 737.049 946.647 806.627L943.066 819.991C939.388 833.718 925.278 841.864 911.551 838.186C898.844 834.782 890.92 822.439 892.728 809.735L892.551 809.681L886.976 830.485C882.749 846.262 866.533 855.624 850.756 851.397C834.98 847.17 825.618 830.953 829.845 815.177L835.978 792.29L834.162 791.732C827.111 801.605 814.432 806.581 802.022 803.256C788.87 799.732 780.119 787.983 779.819 775.026L778.669 774.673C801.193 690.614 827.337 521.812 796.546 513.562L710.108 490.401Z" fill="white"/>
<path d="M930.841 549.546L933.441 548.049L933.441 548.049L930.841 549.546ZM710.108 490.401L707.791 488.495L704.831 492.093L709.331 493.298L710.108 490.401ZM946.647 806.627L943.812 805.645L943.777 805.747L943.749 805.85L946.647 806.627ZM943.066 819.991L940.169 819.214L943.066 819.991ZM892.728 809.735L895.698 810.158L896.059 807.621L893.61 806.868L892.728 809.735ZM892.551 809.681L893.432 806.813L890.458 805.899L889.653 808.904L892.551 809.681ZM829.845 815.177L826.947 814.401L829.845 815.177ZM835.978 792.29L838.876 793.066L839.624 790.272L836.859 789.422L835.978 792.29ZM834.162 791.732L835.044 788.864L832.978 788.229L831.721 789.988L834.162 791.732ZM779.819 775.026L782.818 774.957L782.768 772.794L780.7 772.158L779.819 775.026ZM778.669 774.673L775.771 773.896L775.023 776.69L777.788 777.54L778.669 774.673ZM933.441 548.049C889.253 471.284 847.816 437.86 809.359 433.294C770.8 428.715 736.747 453.295 707.791 488.495L712.425 492.306C741.062 457.494 773.286 435.052 808.651 439.252C844.118 443.463 884.25 474.619 928.241 551.042L933.441 548.049ZM949.482 807.609C973.705 737.686 992.747 651.081 933.441 548.049L928.241 551.042C986.28 651.873 967.796 736.413 943.812 805.645L949.482 807.609ZM943.749 805.85L940.169 819.214L945.964 820.767L949.545 807.403L943.749 805.85ZM940.169 819.214C936.919 831.341 924.454 838.538 912.327 835.288L910.774 841.084C926.102 845.191 941.857 836.095 945.964 820.767L940.169 819.214ZM912.327 835.288C901.104 832.281 894.101 821.378 895.698 810.158L889.758 809.313C887.738 823.5 896.584 837.282 910.774 841.084L912.327 835.288ZM891.669 812.548L891.846 812.603L893.61 806.868L893.432 806.813L891.669 812.548ZM889.874 831.262L895.448 810.457L889.653 808.904L884.078 829.709L889.874 831.262ZM849.98 854.295C867.357 858.951 885.218 848.638 889.874 831.262L884.078 829.709C880.28 843.885 865.709 852.297 851.533 848.499L849.98 854.295ZM826.947 814.401C822.291 831.777 832.603 849.638 849.98 854.295L851.533 848.499C837.357 844.701 828.945 830.13 832.743 815.954L826.947 814.401ZM833.08 791.513L826.947 814.401L832.743 815.954L838.876 793.066L833.08 791.513ZM833.281 794.599L835.096 795.157L836.859 789.422L835.044 788.864L833.281 794.599ZM801.246 806.154C814.903 809.813 828.849 804.333 836.604 793.475L831.721 789.988C825.373 798.877 813.961 803.349 802.798 800.358L801.246 806.154ZM776.82 775.095C777.149 789.348 786.772 802.276 801.246 806.154L802.798 800.358C790.968 797.188 783.088 786.618 782.818 774.957L776.82 775.095ZM777.788 777.54L778.937 777.894L780.7 772.158L779.551 771.805L777.788 777.54ZM795.77 516.459C798.231 517.119 800.684 519.539 802.75 524.799C804.783 529.973 806.167 537.239 806.921 546.27C808.425 564.292 807.361 588.577 804.616 615.383C799.13 668.96 786.993 732.017 775.771 773.896L781.567 775.449C792.869 733.269 805.066 669.897 810.585 615.995C813.343 589.062 814.45 564.346 812.9 545.771C812.126 536.503 810.678 528.57 808.334 522.605C806.025 516.726 802.559 512.067 797.323 510.664L795.77 516.459ZM709.331 493.298L795.77 516.459L797.323 510.664L710.884 487.503L709.331 493.298Z" fill="black"/>
<path d="M753.242 501.563L799.985 514.088C783.468 494.115 776.473 494.499 756.032 491.148L753.242 501.563Z" fill="black" fill-opacity="0.25"/>
<path fill-rule="evenodd" clip-rule="evenodd" d="M946.65 806.621C970.752 737.045 989.512 651.475 930.841 549.547C958.62 674.989 916.941 775.254 892.628 809.706C890.347 822.202 897.985 834.552 910.439 837.889L912.665 838.485C925.777 841.999 939.263 834.189 942.786 821.042L946.65 806.621Z" fill="black" fill-opacity="0.25"/>
<path d="M807.751 804.814C819.13 807.863 830.791 802.384 835.977 792.291L836.281 791.374L838.968 783.28C840.591 756.918 870.011 644.884 864.542 615.124L797.364 802.03L807.751 804.814Z" fill="black" fill-opacity="0.25"/>
<path d="M885.699 835.246L892.55 809.682C900.396 783.804 922.281 717.95 910.222 673.985C880.624 772.574 850.387 787.927 838.968 783.28C838.794 786.115 837.097 789.222 836.281 791.374L835.977 792.291L828.569 819.938C825.046 833.085 832.82 846.591 845.933 850.105L855.578 852.689C868.691 856.203 882.177 848.393 885.699 835.246Z" fill="black" fill-opacity="0.25"/>
<path d="M778.671 774.675C797.693 703.682 819.155 571.927 806.28 528.53C804.197 515.747 791.068 490.09 755.22 489.733" stroke="black" stroke-width="6"/>
<path d="M836.144 791.67C848.468 745.677 862.535 672.984 866.906 616.533" stroke="black" stroke-width="6" stroke-linecap="round"/>
<path d="M893.274 806.978C900.261 780.902 919.496 729.889 911.035 675.398" stroke="black" stroke-width="6" stroke-linecap="round"/>
</g>
<defs>
<clipPath id="clip0_796_74773">
<rect width="1000" height="1000" fill="white"/>
</clipPath>
</defs>
</svg>
