<svg width="1000" height="1000" viewBox="0 0 1000 1000" fill="none" xmlns="http://www.w3.org/2000/svg">
<g clip-path="url(#clip0_171_147070)">
<path d="M712.25 1038.5L712.25 427.5L950.297 427.5C958.306 427.5 964.797 433.992 964.797 442L964.797 1038.5L712.25 1038.5Z" fill="#D7D6DC" stroke="black" stroke-width="3"/>
<path d="M695.098 1020.56L695.098 445.438C695.098 436.036 702.33 428.324 711.535 427.562L711.535 1038.44C702.33 1037.68 695.098 1029.96 695.098 1020.56Z" fill="#929292" stroke="black" stroke-width="3"/>
<rect x="750.768" y="1024.85" width="581.128" height="202.952" transform="rotate(-90 750.768 1024.85)" fill="#090909"/>
<path d="M807.937 613.902L807.937 616.358L801.163 616.358L801.163 621.341L807.937 621.341L807.937 623.797L792.455 623.797L792.455 621.341L798.945 621.341L798.945 616.358L792.455 616.358L792.455 613.902L807.937 613.902Z" fill="#E40303"/>
<path d="M803.346 608.86C804.105 608.742 804.738 608.382 805.244 607.781C805.743 607.172 805.992 606.357 805.992 605.337C805.992 604.538 805.869 603.846 805.624 603.261C805.371 602.667 805.039 602.157 804.627 601.73L806.359 600.473C807.071 601.185 807.558 601.94 807.819 602.739C808.08 603.53 808.21 604.396 808.21 605.337C808.21 606.191 808.068 606.986 807.783 607.721C807.498 608.457 807.103 609.094 806.597 609.632C806.083 610.169 805.474 610.592 804.77 610.901C804.066 611.201 803.283 611.352 802.421 611.352C801.582 611.352 800.811 611.213 800.107 610.937C799.395 610.652 798.782 610.256 798.268 609.75C797.746 609.236 797.343 608.623 797.058 607.911C796.766 607.199 796.619 606.412 796.619 605.55C796.619 604.657 796.773 603.846 797.082 603.118C797.383 602.391 797.821 601.77 798.399 601.256C798.976 600.734 799.684 600.326 800.522 600.034C801.353 599.741 802.294 599.595 803.346 599.595L803.346 608.86ZM801.187 602.371C800.475 602.497 799.906 602.865 799.478 603.474C799.043 604.083 798.826 604.775 798.826 605.55C798.826 606.325 799.043 607.021 799.478 607.638C799.906 608.255 800.475 608.627 801.187 608.754L801.187 602.371Z" fill="#E40303"/>
<path d="M807.937 588.55L807.937 595.976L805.731 595.976L805.731 593.556L794.674 593.556L794.674 595.976L792.455 595.976L792.455 591.1L805.731 591.1L805.731 588.55L807.937 588.55Z" fill="#E40303"/>
<path d="M804.758 584.635C804.109 584.635 803.544 584.461 803.061 584.113C802.571 583.765 802.164 583.31 801.839 582.748C801.515 582.179 801.274 581.53 801.116 580.803C800.95 580.067 800.866 579.32 800.866 578.56C800.866 578.141 800.874 577.781 800.89 577.481C800.906 577.18 800.93 576.876 800.961 576.567L800.522 576.567C799.945 576.567 799.514 576.793 799.229 577.243C798.945 577.686 798.802 578.272 798.802 578.999C798.802 579.664 798.897 580.34 799.087 581.028C799.269 581.716 799.538 582.369 799.894 582.985L797.972 583.982C797.553 583.254 797.224 582.475 796.987 581.645C796.742 580.806 796.619 579.925 796.619 578.999C796.619 578.398 796.686 577.809 796.821 577.232C796.955 576.646 797.177 576.124 797.485 575.666C797.794 575.199 798.197 574.827 798.695 574.55C799.186 574.274 799.795 574.135 800.522 574.135L807.937 574.135L807.937 576.567L806.312 576.567C806.913 576.955 807.38 577.528 807.712 578.287C808.044 579.039 808.21 579.849 808.21 580.719C808.21 581.257 808.135 581.767 807.985 582.25C807.842 582.724 807.625 583.136 807.332 583.484C807.04 583.832 806.68 584.113 806.253 584.326C805.818 584.532 805.319 584.635 804.758 584.635ZM806.015 580.091C806.015 579.608 805.956 579.157 805.837 578.738C805.711 578.311 805.541 577.935 805.327 577.611C805.106 577.287 804.841 577.034 804.532 576.852C804.224 576.662 803.884 576.567 803.512 576.567L803.097 576.567C803.034 576.955 802.998 577.319 802.99 577.659C802.982 577.999 802.978 578.299 802.978 578.56C802.978 579.762 803.136 580.672 803.453 581.289C803.769 581.898 804.161 582.202 804.627 582.202C805.553 582.202 806.015 581.499 806.015 580.091Z" fill="#E40303"/>
<path d="M807.937 560.848L807.937 563.303L806.917 563.303C807.336 563.778 807.657 564.257 807.878 564.739C808.099 565.221 808.21 565.771 808.21 566.388C808.21 567.1 808.068 567.76 807.783 568.369C807.498 568.978 807.103 569.504 806.597 569.947C806.083 570.382 805.47 570.726 804.758 570.979C804.046 571.225 803.267 571.347 802.421 571.347C801.582 571.347 800.807 571.225 800.095 570.979C799.376 570.726 798.763 570.382 798.256 569.947C797.742 569.504 797.343 568.978 797.058 568.369C796.766 567.76 796.619 567.1 796.619 566.388C796.619 565.771 796.726 565.221 796.94 564.739C797.145 564.257 797.458 563.778 797.877 563.303L794.674 563.303L794.674 565.439L792.455 565.439L792.455 560.848L807.937 560.848ZM799.822 563.303C799.498 563.596 799.253 563.976 799.087 564.442C798.913 564.901 798.826 565.34 798.826 565.759C798.826 566.685 799.158 567.44 799.822 568.025C800.487 568.603 801.353 568.891 802.421 568.891C803.488 568.891 804.35 568.603 805.007 568.025C805.663 567.44 805.992 566.685 805.992 565.759C805.992 565.34 805.909 564.901 805.743 564.442C805.569 563.976 805.319 563.596 804.995 563.303L799.822 563.303Z" fill="#E40303"/>
<path d="M795.445 551.036L795.445 554.026L792.455 554.026L792.455 551.036L795.445 551.036ZM807.937 548.782L807.937 556.209L805.731 556.209L805.731 553.765L799.099 553.765L799.099 556.209L796.88 556.209L796.88 551.309L805.731 551.309L805.731 548.782L807.937 548.782Z" fill="#E40303"/>
<path d="M804.414 533.62C805.576 533.747 806.502 534.206 807.19 534.996C807.87 535.779 808.21 536.76 808.21 537.939C808.21 538.587 808.103 539.18 807.89 539.718C807.676 540.256 807.38 540.715 807 541.094C806.62 541.474 806.166 541.771 805.636 541.984C805.098 542.19 804.513 542.293 803.88 542.293L799.099 542.293L799.099 544.796L796.88 544.796L796.88 542.293L792.455 542.293L792.455 539.837L796.88 539.837L796.88 535.198L799.099 535.198L799.099 539.837L803.88 539.837C804.592 539.837 805.122 539.663 805.47 539.315C805.818 538.967 805.992 538.508 805.992 537.939C805.992 537.243 805.79 536.725 805.387 536.385C804.983 536.044 804.497 535.843 803.927 535.779L804.414 533.62Z" fill="#E40303"/>
<path d="M802.421 520.19C803.283 520.19 804.066 520.329 804.77 520.606C805.474 520.875 806.083 521.266 806.597 521.78C807.103 522.286 807.498 522.895 807.783 523.607C808.068 524.319 808.21 525.114 808.21 525.992C808.21 526.854 808.068 527.641 807.783 528.353C807.498 529.065 807.103 529.678 806.597 530.192C806.083 530.698 805.474 531.089 804.77 531.366C804.066 531.635 803.283 531.77 802.421 531.77C801.582 531.77 800.807 531.635 800.095 531.366C799.376 531.089 798.759 530.698 798.245 530.192C797.723 529.678 797.323 529.065 797.046 528.353C796.762 527.641 796.619 526.854 796.619 525.992C796.619 525.114 796.762 524.319 797.046 523.607C797.323 522.895 797.723 522.286 798.245 521.78C798.759 521.266 799.376 520.875 800.095 520.606C800.807 520.329 801.582 520.19 802.421 520.19ZM802.421 522.634C801.922 522.634 801.452 522.714 801.009 522.872C800.558 523.022 800.174 523.243 799.858 523.536C799.542 523.829 799.293 524.185 799.111 524.604C798.921 525.015 798.826 525.478 798.826 525.992C798.826 526.514 798.921 526.981 799.111 527.392C799.293 527.803 799.542 528.151 799.858 528.436C800.174 528.721 800.558 528.942 801.009 529.1C801.452 529.25 801.922 529.326 802.421 529.326C802.943 529.326 803.417 529.25 803.844 529.1C804.271 528.942 804.647 528.721 804.971 528.436C805.296 528.151 805.549 527.803 805.731 527.392C805.905 526.981 805.992 526.514 805.992 525.992C805.992 525.478 805.905 525.015 805.731 524.604C805.549 524.185 805.296 523.829 804.971 523.536C804.647 523.243 804.271 523.022 803.844 522.872C803.417 522.714 802.943 522.634 802.421 522.634Z" fill="#E40303"/>
<path d="M804.627 507.508C805.347 507.508 805.932 507.67 806.383 507.995C806.834 508.319 807.198 508.738 807.475 509.252C807.751 509.758 807.941 510.328 808.044 510.96C808.155 511.585 808.21 512.198 808.21 512.799C808.21 513.804 808.064 514.804 807.771 515.801C807.479 516.797 807.095 517.66 806.62 518.387L804.604 517.367C805.11 516.497 805.47 515.702 805.683 514.982C805.889 514.255 805.992 513.527 805.992 512.799C805.992 511.811 805.889 511.091 805.683 510.64C805.47 510.189 805.177 509.964 804.805 509.964C804.623 509.964 804.473 510.027 804.354 510.154C804.236 510.28 804.129 510.49 804.034 510.783C803.931 511.075 803.832 511.463 803.738 511.945C803.635 512.42 803.528 513.013 803.417 513.725C803.322 514.294 803.208 514.836 803.073 515.35C802.931 515.856 802.733 516.303 802.48 516.691C802.227 517.078 801.907 517.391 801.519 517.628C801.131 517.857 800.645 517.972 800.06 517.972C799.467 517.972 798.952 517.822 798.517 517.521C798.075 517.213 797.711 516.813 797.426 516.323C797.141 515.825 796.936 515.267 796.809 514.65C796.683 514.033 796.619 513.416 796.619 512.799C796.619 511.929 796.734 511.087 796.963 510.272C797.185 509.45 797.505 508.73 797.924 508.113L799.822 509.086C799.435 509.703 799.174 510.304 799.039 510.889C798.897 511.467 798.826 512.103 798.826 512.799C798.826 513.092 798.842 513.396 798.873 513.713C798.905 514.029 798.968 514.322 799.063 514.591C799.15 514.86 799.273 515.085 799.431 515.267C799.581 515.441 799.767 515.528 799.989 515.528C800.281 515.528 800.522 515.271 800.712 514.757C800.894 514.235 801.076 513.349 801.258 512.099C801.353 511.419 801.476 510.798 801.626 510.237C801.768 509.675 801.966 509.193 802.219 508.789C802.464 508.386 802.784 508.074 803.18 507.852C803.567 507.623 804.05 507.508 804.627 507.508Z" fill="#E40303"/>
<path d="M798.761 502.306C798.948 502.306 799.116 502.338 799.262 502.403C799.409 502.467 799.533 502.558 799.634 502.675C799.736 502.791 799.813 502.927 799.866 503.086C799.921 503.242 799.948 503.417 799.948 503.61C799.948 504.085 799.804 504.491 799.517 504.827L799.048 504.539C799.288 504.26 799.409 503.95 799.409 503.61C799.409 503.401 799.357 503.233 799.253 503.106C799.152 502.977 798.991 502.913 798.773 502.913L798.48 502.913C798.587 503.038 798.667 503.158 798.72 503.273C798.771 503.388 798.796 503.522 798.796 503.675C798.796 503.851 798.759 504.014 798.685 504.164C798.61 504.315 798.51 504.445 798.383 504.554C798.254 504.661 798.104 504.746 797.934 504.809C797.764 504.87 797.584 504.9 797.392 504.9C797.201 504.9 797.02 504.87 796.85 504.809C796.678 504.746 796.529 504.661 796.404 504.554C796.277 504.445 796.178 504.315 796.105 504.164C796.031 504.014 795.994 503.851 795.994 503.675C795.994 503.522 796.02 503.386 796.073 503.267C796.124 503.148 796.201 503.03 796.305 502.913L796.058 502.913L796.058 502.306L798.761 502.306ZM796.785 502.913C796.705 502.985 796.645 503.079 796.604 503.194C796.561 503.307 796.539 503.418 796.539 503.525C796.539 503.754 796.619 503.939 796.779 504.082C796.94 504.223 797.144 504.293 797.392 504.293C797.515 504.293 797.63 504.275 797.735 504.237C797.839 504.198 797.928 504.146 798.005 504.079C798.081 504.011 798.141 503.93 798.186 503.836C798.229 503.74 798.251 503.637 798.251 503.525C798.251 503.418 798.229 503.307 798.186 503.194C798.141 503.079 798.079 502.985 797.999 502.913L796.785 502.913Z" fill="#E40303"/>
<path d="M798.79 498.885L798.79 499.492L796.917 499.492C796.788 499.492 796.694 499.506 796.633 499.533C796.57 499.559 796.539 499.604 796.539 499.671C796.539 499.792 796.608 499.869 796.744 499.902C796.879 499.934 797.077 499.949 797.336 499.949L798.79 499.949L798.79 500.556L796.917 500.556C796.788 500.556 796.694 500.57 796.633 500.597C796.57 500.624 796.539 500.672 796.539 500.741C796.539 500.86 796.608 500.935 796.744 500.966C796.879 500.996 797.077 501.01 797.336 501.01L798.79 501.01L798.79 501.617L796.058 501.617L796.058 501.005L796.454 501.005C796.304 500.962 796.189 500.898 796.111 500.814C796.033 500.73 795.994 500.618 795.994 500.477C795.994 500.36 796.03 500.262 796.102 500.184C796.173 500.104 796.27 500.049 796.396 500.02C796.259 499.951 796.158 499.881 796.094 499.809C796.027 499.734 795.994 499.621 795.994 499.469C795.994 499.281 796.063 499.137 796.202 499.038C796.339 498.936 796.547 498.885 796.826 498.885L798.79 498.885Z" fill="#E40303"/>
<path d="M810.791 907.652C806.373 907.652 802.791 911.234 802.791 915.652L802.791 952.248C802.791 956.666 806.373 960.248 810.791 960.248L839.665 960.248L839.665 987.407C839.665 991.826 843.247 995.407 847.665 995.407L884.261 995.407C888.679 995.407 892.261 991.826 892.261 987.407L892.261 960.248L917.705 960.248C922.124 960.248 925.705 956.666 925.705 952.248L925.705 915.652C925.705 911.234 922.124 907.652 917.705 907.652L892.261 907.652L892.261 880.493C892.261 876.075 888.68 872.493 884.261 872.493L847.665 872.493C843.247 872.493 839.665 876.075 839.665 880.493L839.665 907.652L810.791 907.652Z" fill="#D7D6DC"/>
<path fill-rule="evenodd" clip-rule="evenodd" d="M812.225 915.656L812.225 952.244L845.383 952.244L845.383 988.833L886.545 988.833L886.545 952.244L919.132 952.244L919.132 915.656L886.545 915.656L886.545 879.068L845.383 879.068L845.383 915.656L812.225 915.656Z" fill="#090909"/>
<rect x="827.09" y="844.767" width="174.081" height="29.7281" rx="8" transform="rotate(-90 827.09 844.767)" fill="#929292"/>
<path d="M943.139 844.767C938.72 844.767 935.139 841.185 935.139 836.767L935.139 678.686C935.139 674.267 938.72 670.686 943.139 670.686L945.719 670.686C950.137 670.686 953.719 674.267 953.719 678.686L953.719 836.767C953.719 841.185 950.137 844.767 945.719 844.767L943.139 844.767Z" fill="#929292"/>
<rect opacity="0.4" x="864.25" y="844.767" width="174.081" height="61.4572" rx="8" transform="rotate(-90 864.25 844.767)" fill="#D7D6DC"/>
<rect x="873.68" y="835.05" width="154.647" height="41.4516" rx="4" transform="rotate(-90 873.68 835.05)" fill="#D7D6DC" stroke="black" stroke-width="8"/>
<path d="M871.967 678.975L871.967 837.049L916.845 837.049L916.845 830.242L877.285 830.242L877.285 678.975L871.967 678.975Z" fill="black" fill-opacity="0.25"/>
<rect x="864.25" y="639.528" width="65.459" height="61.4572" rx="8" transform="rotate(-90 864.25 639.528)" fill="#D7D6DC"/>
<rect x="866.25" y="637.528" width="61.459" height="57.4572" rx="6" transform="rotate(-90 866.25 637.528)" stroke="white" stroke-opacity="0.7" stroke-width="4"/>
<rect x="864.25" y="559.491" width="65.459" height="61.4572" rx="8" transform="rotate(-90 864.25 559.491)" fill="#D7D6DC"/>
<rect x="866.25" y="557.491" width="61.459" height="57.4572" rx="6" transform="rotate(-90 866.25 557.491)" stroke="white" stroke-opacity="0.7" stroke-width="4"/>
<circle cx="894.834" cy="526.626" r="23.1546" transform="rotate(-90 894.834 526.626)" fill="#E40303" stroke="black" stroke-width="4"/>
<path d="M877.133 519.686C874.201 530.63 880.694 541.878 891.637 544.81C895.584 545.868 899.571 545.699 903.193 544.538C907.288 543.224 905.535 538.373 901.382 537.256C890.686 534.377 886.518 527.196 885.528 520.013C884.905 515.484 880.032 512.508 878.187 516.691C877.765 517.646 877.412 518.646 877.133 519.686Z" fill="black" fill-opacity="0.25"/>
<path d="M911.405 528.969C913.783 520.093 908.161 510.875 898.848 508.38C893.129 506.847 894.759 511.265 900.142 513.732C905.737 516.297 907.564 521.468 907.433 526.639C907.356 529.675 910.619 531.902 911.405 528.969Z" fill="white" fill-opacity="0.25"/>
<circle cx="894.834" cy="606.663" r="23.1546" transform="rotate(-90 894.834 606.663)" fill="#E40303" stroke="black" stroke-width="4"/>
<path d="M876.133 600.365C873.201 611.308 879.694 622.557 890.637 625.489C894.584 626.547 898.571 626.378 902.193 625.216C906.288 623.903 904.535 619.052 900.382 617.934C889.686 615.056 885.518 607.874 884.528 600.692C883.905 596.163 879.032 593.187 877.187 597.369C876.765 598.325 876.412 599.325 876.133 600.365Z" fill="black" fill-opacity="0.25"/>
<path d="M911.405 609.647C913.783 600.772 908.161 591.554 898.848 589.058C893.129 587.526 894.759 591.943 900.142 594.411C905.737 596.976 907.564 602.146 907.433 607.318C907.356 610.354 910.619 612.581 911.405 609.647Z" fill="white" fill-opacity="0.25"/>
<rect x="787.928" y="844.767" width="174.081" height="29.7281" rx="8" transform="rotate(-90 787.928 844.767)" fill="#929292"/>
<rect x="750.768" y="844.767" width="174.081" height="29.7281" rx="8" transform="rotate(-90 750.768 844.767)" fill="#929292"/>
<rect x="884.258" y="819.897" width="49.4516" height="18.0084" rx="9.00419" transform="rotate(-90 884.258 819.897)" fill="#090909"/>
<rect x="885.973" y="817.896" width="45.7356" height="14.2924" rx="7.14618" transform="rotate(-90 885.973 817.896)" fill="white" fill-opacity="0.25"/>
<path d="M887.117 779.295L887.117 809.585C887.117 812.681 888.366 816.182 892.782 816.182C899.991 816.182 898.952 809.585 898.529 809.585C898.529 812.448 897.159 814.171 892.782 814.171C889.177 814.171 889.177 811.012 889.177 809.585L889.177 779.295C889.177 776.926 887.117 777.125 887.117 779.295Z" fill="white" fill-opacity="0.25"/>
<rect x="884.258" y="739.289" width="49.4516" height="18.0084" rx="9.00419" transform="rotate(-90 884.258 739.289)" fill="#090909"/>
<path d="M701.143 846C701.507 846 702.101 846.286 702.831 847.425C703.53 848.518 704.198 850.166 704.774 852.291C705.921 856.527 706.643 862.435 706.643 869C706.643 875.565 705.921 881.473 704.774 885.709C704.198 887.834 703.53 889.482 702.831 890.575C702.101 891.714 701.507 892 701.143 892C700.778 892 700.184 891.714 699.455 890.575C698.755 889.482 698.087 887.834 697.512 885.709C696.364 881.473 695.643 875.565 695.643 869C695.643 862.435 696.364 856.527 697.512 852.291C698.087 850.166 698.755 848.518 699.455 847.425C700.184 846.286 700.778 846 701.143 846Z" fill="#D7D6DC" stroke="black" stroke-width="2"/>
<path d="M700.75 850.493C699.883 851.46 699.107 853.807 698.545 857.163C697.983 860.519 697.665 864.693 697.644 869.025C697.622 873.357 697.897 877.601 698.425 881.087C698.953 884.572 699.705 887.101 700.56 888.273L699.643 869.5L700.75 850.493Z" fill="black" fill-opacity="0.5"/>
<path d="M648.054 836.191C657.574 855.561 674.514 868.074 688.107 874.79C694.131 877.766 701.857 875.358 701.933 868.639C701.966 865.788 701.293 863.017 699.789 860.871C699.004 859.751 697.803 858.997 696.602 858.343C660.757 838.815 655.497 816.02 655.497 790.661C658.073 741.742 683.977 713.599 692.565 701.664L692.565 669.542C676.678 688.108 653.15 719.137 643.474 750.435C630.879 783.735 639.002 817.772 648.054 836.191Z" fill="#3C3C3C" stroke="black" stroke-width="4"/>
<path d="M817.656 933.951L839.095 921.573L839.095 946.328L817.656 933.951Z" fill="#3C3C3C"/>
<path d="M838.095 944.596L819.656 933.951L838.095 923.305L838.095 944.596Z" stroke="black" stroke-opacity="0.25" stroke-width="2"/>
<path d="M916.559 933.951L895.12 946.328L895.12 921.573L916.559 933.951Z" fill="#3C3C3C"/>
<path d="M896.12 923.305L914.559 933.951L896.12 944.596L896.12 923.305Z" stroke="black" stroke-opacity="0.25" stroke-width="2"/>
<path d="M867.107 884.499L879.484 905.938L854.729 905.938L867.107 884.499Z" fill="#3C3C3C"/>
<path d="M856.461 904.938L867.107 886.499L877.752 904.938L856.461 904.938Z" stroke="black" stroke-opacity="0.25" stroke-width="2"/>
<path d="M867.108 983.402L854.73 961.964L879.486 961.964L867.108 983.402Z" fill="#3C3C3C"/>
<path d="M877.754 962.964L867.108 981.402L856.463 962.964L877.754 962.964Z" stroke="black" stroke-opacity="0.25" stroke-width="2"/>
<rect x="885.973" y="737.288" width="45.7356" height="14.2924" rx="7.14618" transform="rotate(-90 885.973 737.288)" fill="white" fill-opacity="0.25"/>
<path d="M887.117 698.687L887.117 728.977C887.117 732.073 888.366 735.573 892.782 735.573C899.991 735.573 898.952 728.977 898.529 728.977C898.529 731.84 897.159 733.563 892.782 733.563C889.177 733.563 889.177 730.404 889.177 728.977L889.177 698.687C889.177 696.317 887.117 696.517 887.117 698.687Z" fill="white" fill-opacity="0.25"/>
</g>
<defs>
<clipPath id="clip0_171_147070">
<path d="M0 0H1000V1000H0V0Z" fill="white"/>
</clipPath>
</defs>
</svg>
