<svg width="1000" height="1000" viewBox="0 0 1000 1000" fill="none" xmlns="http://www.w3.org/2000/svg">
<rect x="607" y="443.73" width="26" height="556" fill="black"/>
<circle cx="620" cy="425" r="22.5" fill="white" stroke="black" stroke-width="5"/>
<path d="M632 432.571C630.44 434.95 628.223 436.804 625.629 437.899C623.035 438.994 620.181 439.28 617.427 438.722C614.673 438.164 612.143 436.786 610.158 434.763C608.173 432.74 606.821 430.163 606.273 427.357C605.725 424.551 606.006 421.643 607.081 419" stroke="#C4C4C4" stroke-width="7" stroke-linecap="round"/>
<rect x="584" y="460" width="396" height="300" fill="#D7D6DC" stroke="black" stroke-width="8"/>
<rect x="610.206" y="460" width="73.7647" height="300" fill="black" fill-opacity="0.25"/>
<mask id="path-6-inside-1_480_9860" fill="white">
<path fill-rule="evenodd" clip-rule="evenodd" d="M714 630.5C714 617.521 724.521 607 737.5 607H855.5C868.479 607 879 617.521 879 630.5C879 643.479 868.479 654 855.5 654H737.5C724.521 654 714 643.479 714 630.5ZM789.873 630.609C789.873 637.949 783.923 643.9 776.582 643.9C769.242 643.9 763.291 637.949 763.291 630.609C763.291 623.268 769.242 617.317 776.582 617.317C783.923 617.317 789.873 623.268 789.873 630.609ZM737.291 643.9C744.632 643.9 750.582 637.949 750.582 630.609C750.582 623.268 744.632 617.317 737.291 617.317C729.951 617.317 724 623.268 724 630.609C724 637.949 729.951 643.9 737.291 643.9ZM829.215 630.609C829.215 637.949 823.265 643.9 815.924 643.9C808.584 643.9 802.633 637.949 802.633 630.609C802.633 623.268 808.584 617.317 815.924 617.317C823.265 617.317 829.215 623.268 829.215 630.609ZM855.266 643.9C862.606 643.9 868.557 637.949 868.557 630.609C868.557 623.268 862.606 617.317 855.266 617.317C847.925 617.317 841.975 623.268 841.975 630.609C841.975 637.949 847.925 643.9 855.266 643.9Z"/>
</mask>
<path fill-rule="evenodd" clip-rule="evenodd" d="M714 630.5C714 617.521 724.521 607 737.5 607H855.5C868.479 607 879 617.521 879 630.5C879 643.479 868.479 654 855.5 654H737.5C724.521 654 714 643.479 714 630.5ZM789.873 630.609C789.873 637.949 783.923 643.9 776.582 643.9C769.242 643.9 763.291 637.949 763.291 630.609C763.291 623.268 769.242 617.317 776.582 617.317C783.923 617.317 789.873 623.268 789.873 630.609ZM737.291 643.9C744.632 643.9 750.582 637.949 750.582 630.609C750.582 623.268 744.632 617.317 737.291 617.317C729.951 617.317 724 623.268 724 630.609C724 637.949 729.951 643.9 737.291 643.9ZM829.215 630.609C829.215 637.949 823.265 643.9 815.924 643.9C808.584 643.9 802.633 637.949 802.633 630.609C802.633 623.268 808.584 617.317 815.924 617.317C823.265 617.317 829.215 623.268 829.215 630.609ZM855.266 643.9C862.606 643.9 868.557 637.949 868.557 630.609C868.557 623.268 862.606 617.317 855.266 617.317C847.925 617.317 841.975 623.268 841.975 630.609C841.975 637.949 847.925 643.9 855.266 643.9Z" fill="#3C3C3C"/>
<path d="M737.5 603C722.312 603 710 615.312 710 630.5H718C718 619.73 726.73 611 737.5 611V603ZM855.5 603H737.5V611H855.5V603ZM883 630.5C883 615.312 870.688 603 855.5 603V611C866.27 611 875 619.73 875 630.5H883ZM855.5 658C870.688 658 883 645.688 883 630.5H875C875 641.27 866.27 650 855.5 650V658ZM737.5 658H855.5V650H737.5V658ZM710 630.5C710 645.688 722.312 658 737.5 658V650C726.73 650 718 641.27 718 630.5H710ZM776.582 647.9C786.132 647.9 793.873 640.158 793.873 630.609H785.873C785.873 635.74 781.714 639.9 776.582 639.9V647.9ZM759.291 630.609C759.291 640.158 767.033 647.9 776.582 647.9V639.9C771.451 639.9 767.291 635.74 767.291 630.609H759.291ZM776.582 613.317C767.033 613.317 759.291 621.059 759.291 630.609H767.291C767.291 625.477 771.451 621.317 776.582 621.317V613.317ZM793.873 630.609C793.873 621.059 786.132 613.317 776.582 613.317V621.317C781.714 621.317 785.873 625.477 785.873 630.609H793.873ZM746.582 630.609C746.582 635.74 742.422 639.9 737.291 639.9V647.9C746.841 647.9 754.582 640.158 754.582 630.609H746.582ZM737.291 621.317C742.422 621.317 746.582 625.477 746.582 630.609H754.582C754.582 621.059 746.841 613.317 737.291 613.317V621.317ZM728 630.609C728 625.477 732.16 621.317 737.291 621.317V613.317C727.742 613.317 720 621.059 720 630.609H728ZM737.291 639.9C732.16 639.9 728 635.74 728 630.609H720C720 640.158 727.742 647.9 737.291 647.9V639.9ZM815.924 647.9C825.474 647.9 833.215 640.158 833.215 630.609H825.215C825.215 635.74 821.055 639.9 815.924 639.9V647.9ZM798.633 630.609C798.633 640.158 806.374 647.9 815.924 647.9V639.9C810.793 639.9 806.633 635.74 806.633 630.609H798.633ZM815.924 613.317C806.374 613.317 798.633 621.059 798.633 630.609H806.633C806.633 625.477 810.793 621.317 815.924 621.317V613.317ZM833.215 630.609C833.215 621.059 825.474 613.317 815.924 613.317V621.317C821.055 621.317 825.215 625.477 825.215 630.609H833.215ZM864.557 630.609C864.557 635.74 860.397 639.9 855.266 639.9V647.9C864.816 647.9 872.557 640.158 872.557 630.609H864.557ZM855.266 621.317C860.397 621.317 864.557 625.477 864.557 630.609H872.557C872.557 621.059 864.816 613.317 855.266 613.317V621.317ZM845.975 630.609C845.975 625.477 850.135 621.317 855.266 621.317V613.317C845.716 613.317 837.975 621.059 837.975 630.609H845.975ZM855.266 639.9C850.135 639.9 845.975 635.74 845.975 630.609H837.975C837.975 640.158 845.716 647.9 855.266 647.9V639.9Z" fill="black" mask="url(#path-6-inside-1_480_9860)"/>
<mask id="path-8-inside-2_480_9860" fill="white">
<path fill-rule="evenodd" clip-rule="evenodd" d="M822 563H801V566H794.649L792.099 572H707V569H686V581H707V578H789.55L787 584H767.015L750 603H859L841.985 584H836L828.351 566H822V563Z"/>
</mask>
<path fill-rule="evenodd" clip-rule="evenodd" d="M822 563H801V566H794.649L792.099 572H707V569H686V581H707V578H789.55L787 584H767.015L750 603H859L841.985 584H836L828.351 566H822V563Z" fill="#3C3C3C"/>
<path d="M801 563V559H797V563H801ZM822 563H826V559H822V563ZM801 566V570H805V566H801ZM794.649 566V562H792.002L790.967 564.436L794.649 566ZM792.099 572V576H794.746L795.781 573.564L792.099 572ZM707 572H703V576H707V572ZM707 569H711V565H707V569ZM686 569V565H682V569H686ZM686 581H682V585H686V581ZM707 581V585H711V581H707ZM707 578V574H703V578H707ZM789.55 578L793.231 579.564L795.595 574H789.55V578ZM787 584V588H789.646L790.681 585.564L787 584ZM767.015 584V580H765.227L764.035 581.332L767.015 584ZM750 603L747.02 600.332L741.049 607H750V603ZM859 603V607H867.951L861.98 600.332L859 603ZM841.985 584L844.965 581.332L843.773 580H841.985V584ZM836 584L832.319 585.564L833.354 588H836V584ZM828.351 566L832.033 564.436L830.998 562H828.351V566ZM822 566H818V570H822V566ZM801 567H822V559H801V567ZM805 566V563H797V566H805ZM801 562H794.649V570H801V562ZM790.967 564.436L788.418 570.436L795.781 573.564L798.33 567.564L790.967 564.436ZM792.099 568H707V576H792.099V568ZM711 572V569H703V572H711ZM707 565H686V573H707V565ZM682 569V581H690V569H682ZM686 585H707V577H686V585ZM711 581V578H703V581H711ZM707 582H789.55V574H707V582ZM785.868 576.436L783.319 582.436L790.681 585.564L793.231 579.564L785.868 576.436ZM787 580H767.015V588H787V580ZM764.035 581.332L747.02 600.332L752.98 605.668L769.994 586.668L764.035 581.332ZM750 607H859V599H750V607ZM861.98 600.332L844.965 581.332L839.006 586.668L856.02 605.668L861.98 600.332ZM841.985 580H836V588H841.985V580ZM839.681 582.436L832.033 564.436L824.67 567.564L832.319 585.564L839.681 582.436ZM828.351 562H822V570H828.351V562ZM818 563V566H826V563H818Z" fill="black" mask="url(#path-8-inside-2_480_9860)"/>
<mask id="path-10-inside-3_480_9860" fill="white">
<path fill-rule="evenodd" clip-rule="evenodd" d="M870.044 698.044C821.619 746.469 743.106 746.469 694.681 698.044C646.256 649.619 646.256 571.106 694.681 522.681C743.106 474.256 821.619 474.256 870.044 522.681C918.469 571.106 918.469 649.619 870.044 698.044ZM862.266 677.538C880.082 659.722 889.42 634.888 888.226 608.499C887.033 582.109 875.405 556.327 855.902 536.823C836.398 517.32 810.616 505.692 784.226 504.499C757.837 503.305 733.003 512.643 715.187 530.459L788.726 603.999L862.266 677.538ZM676.499 612.226C675.305 585.837 684.643 561.003 702.459 543.187L775.999 616.726L849.538 690.265C831.722 708.081 806.888 717.42 780.499 716.226C754.109 715.033 728.327 703.405 708.823 683.901C689.32 664.398 677.692 638.615 676.499 612.226Z"/>
</mask>
<path fill-rule="evenodd" clip-rule="evenodd" d="M870.044 698.044C821.619 746.469 743.106 746.469 694.681 698.044C646.256 649.619 646.256 571.106 694.681 522.681C743.106 474.256 821.619 474.256 870.044 522.681C918.469 571.106 918.469 649.619 870.044 698.044ZM862.266 677.538C880.082 659.722 889.42 634.888 888.226 608.499C887.033 582.109 875.405 556.327 855.902 536.823C836.398 517.32 810.616 505.692 784.226 504.499C757.837 503.305 733.003 512.643 715.187 530.459L788.726 603.999L862.266 677.538ZM676.499 612.226C675.305 585.837 684.643 561.003 702.459 543.187L775.999 616.726L849.538 690.265C831.722 708.081 806.888 717.42 780.499 716.226C754.109 715.033 728.327 703.405 708.823 683.901C689.32 664.398 677.692 638.615 676.499 612.226Z" fill="#E40303"/>
<path d="M862.266 677.538L859.437 680.366L862.266 683.194L865.094 680.366L862.266 677.538ZM784.226 504.499L784.407 500.503L784.226 504.499ZM715.187 530.459L712.359 527.631L709.531 530.459L712.359 533.288L715.187 530.459ZM788.726 603.999L785.898 606.827L788.726 603.999ZM702.459 543.187L705.288 540.359L702.459 537.53L699.631 540.359L702.459 543.187ZM676.499 612.226L680.494 612.046L676.499 612.226ZM775.999 616.726L778.827 613.898L775.999 616.726ZM849.538 690.265L852.366 693.094L855.194 690.265L852.366 687.437L849.538 690.265ZM780.499 716.226L780.679 712.23L780.499 716.226ZM708.823 683.901L711.652 681.073L708.823 683.901ZM691.853 700.872C741.84 750.859 822.885 750.859 872.872 700.872L867.215 695.215C820.352 742.078 744.373 742.078 697.51 695.215L691.853 700.872ZM691.853 519.853C641.866 569.84 641.866 650.885 691.853 700.872L697.51 695.215C650.647 648.352 650.647 572.373 697.51 525.51L691.853 519.853ZM872.872 519.853C822.885 469.866 741.84 469.866 691.853 519.853L697.51 525.51C744.373 478.647 820.352 478.647 867.215 525.51L872.872 519.853ZM872.872 700.872C922.859 650.885 922.859 569.84 872.872 519.853L867.215 525.51C914.078 572.373 914.078 648.352 867.215 695.215L872.872 700.872ZM884.231 608.679C885.376 634.007 876.416 657.73 859.437 674.709L865.094 680.366C883.747 661.713 893.464 635.768 892.222 608.318L884.231 608.679ZM853.073 539.652C871.905 558.484 883.084 583.335 884.231 608.679L892.222 608.318C890.982 580.884 878.905 554.17 858.73 533.995L853.073 539.652ZM784.046 508.494C809.39 509.641 834.241 520.82 853.073 539.652L858.73 533.995C838.555 513.82 811.841 501.743 784.407 500.503L784.046 508.494ZM718.016 533.288C734.995 516.309 758.718 507.349 784.046 508.494L784.407 500.503C756.957 499.261 731.012 508.978 712.359 527.631L718.016 533.288ZM791.555 601.17L718.016 527.631L712.359 533.288L785.898 606.827L791.555 601.17ZM865.094 674.709L791.555 601.17L785.898 606.827L859.437 680.366L865.094 674.709ZM699.631 540.359C680.978 559.012 671.261 584.957 672.503 612.407L680.494 612.046C679.349 586.718 688.309 562.995 705.288 546.016L699.631 540.359ZM778.827 613.898L705.288 540.359L699.631 546.016L773.17 619.555L778.827 613.898ZM852.366 687.437L778.827 613.898L773.17 619.555L846.709 693.094L852.366 687.437ZM780.318 720.222C807.768 721.464 833.713 711.747 852.366 693.094L846.709 687.437C829.73 704.416 806.007 713.376 780.679 712.23L780.318 720.222ZM705.995 686.73C726.17 706.905 752.884 718.981 780.318 720.222L780.679 712.23C755.335 711.084 730.484 699.905 711.652 681.073L705.995 686.73ZM672.503 612.407C673.743 639.841 685.819 666.554 705.995 686.73L711.652 681.073C692.82 662.241 681.641 637.39 680.494 612.046L672.503 612.407Z" fill="black" mask="url(#path-10-inside-3_480_9860)"/>
</svg>
