<svg width="1000" height="1000" viewBox="0 0 1000 1000" fill="none" xmlns="http://www.w3.org/2000/svg">
<rect x="767" y="423" width="26" height="577" fill="black"/>
<rect x="585" y="460" width="391" height="300" fill="white" stroke="black" stroke-width="8"/>
<rect x="585" y="460" width="20" height="300" fill="black" fill-opacity="0.25"/>
<path d="M618.281 535.051C619.281 535.207 620.188 535.348 621 535.473C621.812 535.566 622.516 535.645 623.109 535.707C623.797 535.801 624.406 535.879 624.938 535.941C625.594 536.035 626.578 535.926 627.891 535.613C629.203 535.27 630.641 534.957 632.203 534.676C633.797 534.363 635.422 534.191 637.078 534.16C638.734 534.098 640.25 534.395 641.625 535.051C643 535.707 644.125 536.363 645 537.02C645.875 537.676 646.562 538.379 647.062 539.129C647.594 539.848 647.969 540.613 648.188 541.426C648.406 542.238 648.531 543.129 648.562 544.098C648.531 545.535 648.188 546.926 647.531 548.27C647.25 548.832 646.875 549.426 646.406 550.051C645.969 550.645 645.422 551.223 644.766 551.785C644.109 552.348 643.328 552.879 642.422 553.379C641.547 553.879 640.516 554.316 639.328 554.691C640.484 555.035 641.438 555.441 642.188 555.91C642.969 556.379 643.594 556.816 644.062 557.223C644.625 557.723 645.047 558.207 645.328 558.676C645.672 559.332 645.906 559.895 646.031 560.363C646.156 560.832 646.234 561.285 646.266 561.723C646.328 562.129 646.406 562.551 646.5 562.988C646.594 563.426 646.797 563.926 647.109 564.488C647.359 564.926 647.656 565.379 648 565.848C648.312 566.254 648.672 566.691 649.078 567.16C649.516 567.629 650.047 568.082 650.672 568.52C649.797 568.551 648.984 568.566 648.234 568.566C647.516 568.566 646.891 568.566 646.359 568.566C645.734 568.566 645.141 568.551 644.578 568.52C644.016 568.488 643.312 568.473 642.469 568.473C641.75 568.473 640.828 568.473 639.703 568.473C638.609 568.473 637.281 568.488 635.719 568.52C636.406 567.988 636.969 567.457 637.406 566.926C637.844 566.395 638.188 565.91 638.438 565.473C638.719 564.973 638.922 564.488 639.047 564.02C639.203 563.176 639.219 562.301 639.094 561.395C639 560.613 638.75 559.754 638.344 558.816C637.938 557.848 637.281 556.879 636.375 555.91C635.469 556.066 634.703 556.191 634.078 556.285C633.484 556.348 632.969 556.41 632.531 556.473C632.031 556.535 631.625 556.582 631.312 556.613C631.031 556.645 630.719 556.676 630.375 556.707C630.094 556.738 629.781 556.785 629.438 556.848C629.125 556.879 628.828 556.926 628.547 556.988C628.484 558.332 628.484 559.504 628.547 560.504C628.609 561.473 628.688 562.285 628.781 562.941C628.906 563.723 629.047 564.395 629.203 564.957C629.359 565.52 629.578 566.066 629.859 566.598C630.078 567.035 630.359 567.504 630.703 568.004C631.047 568.473 631.438 568.863 631.875 569.176C631.062 569.176 630.281 569.176 629.531 569.176C628.812 569.176 628.156 569.16 627.562 569.129C626.875 569.129 626.219 569.113 625.594 569.082C624.969 569.051 624.266 569.035 623.484 569.035C622.828 569.035 622.047 569.035 621.141 569.035C620.266 569.035 619.312 569.051 618.281 569.082C619.094 568.238 619.734 567.52 620.203 566.926C620.672 566.332 621.031 565.832 621.281 565.426C621.562 564.988 621.734 564.613 621.797 564.301C621.859 563.801 621.906 562.91 621.938 561.629C622 560.316 622.047 558.816 622.078 557.129C622.109 555.441 622.125 553.676 622.125 551.832C622.125 549.988 622.109 548.27 622.078 546.676C622.047 545.051 622.016 543.66 621.984 542.504C621.953 541.348 621.922 540.613 621.891 540.301C621.797 539.738 621.594 539.176 621.281 538.613C621.031 538.113 620.672 537.551 620.203 536.926C619.734 536.301 619.094 535.676 618.281 535.051ZM636 551.551C636.312 551.363 636.578 551.176 636.797 550.988C637.016 550.801 637.203 550.504 637.359 550.098C637.516 549.66 637.641 549.051 637.734 548.27C637.859 547.488 638 546.426 638.156 545.082C638.281 543.738 638.188 542.629 637.875 541.754C637.594 540.879 637.203 540.191 636.703 539.691C636.234 539.16 635.703 538.801 635.109 538.613C634.547 538.395 634.047 538.285 633.609 538.285C632.734 538.285 631.875 538.551 631.031 539.082C630.188 539.613 629.547 540.332 629.109 541.238C628.953 541.645 628.812 542.316 628.688 543.254C628.594 544.066 628.531 545.191 628.5 546.629C628.469 548.066 628.516 549.957 628.641 552.301C629.828 552.488 630.875 552.566 631.781 552.535C632.688 552.473 633.453 552.363 634.078 552.207C634.828 552.051 635.469 551.832 636 551.551ZM647.812 537.254C650 537.316 651.812 537.363 653.25 537.395C654.719 537.395 655.906 537.395 656.812 537.395H659.297H673.266C673.328 538.02 673.375 538.629 673.406 539.223C673.469 539.785 673.5 540.285 673.5 540.723C673.5 541.254 673.484 541.738 673.453 542.176C673.422 542.613 673.375 543.082 673.312 543.582C673.25 544.02 673.188 544.488 673.125 544.988C673.062 545.488 672.953 546.004 672.797 546.535C672.359 544.848 671.766 543.566 671.016 542.691C670.297 541.816 669.562 541.176 668.812 540.77C667.938 540.301 667.016 540.051 666.047 540.02C664.766 540.082 663.766 540.191 663.047 540.348C662.328 540.504 661.766 540.723 661.359 541.004C660.953 541.285 660.641 541.613 660.422 541.988C660.234 542.332 660.031 542.723 659.812 543.16C659.625 543.535 659.453 544.113 659.297 544.895C659.141 545.551 658.984 546.441 658.828 547.566C658.703 548.691 658.562 550.145 658.406 551.926C659.25 551.676 659.922 551.441 660.422 551.223C660.953 551.004 661.375 550.816 661.688 550.66C662.031 550.473 662.281 550.301 662.438 550.145C662.562 549.957 662.75 549.613 663 549.113C663.188 548.676 663.438 548.082 663.75 547.332C664.094 546.582 664.5 545.551 664.969 544.238C665.031 545.676 665.062 546.879 665.062 547.848C665.062 548.785 665.078 549.551 665.109 550.145C665.109 550.832 665.125 551.379 665.156 551.785V553.566C665.156 554.223 665.156 555.113 665.156 556.238C665.188 557.332 665.234 558.723 665.297 560.41C664.922 559.254 664.578 558.348 664.266 557.691C663.984 557.004 663.734 556.488 663.516 556.145C663.266 555.738 663.047 555.457 662.859 555.301C662.641 555.238 662.344 555.176 661.969 555.113C661.625 555.082 661.188 555.066 660.656 555.066C660.156 555.066 659.516 555.145 658.734 555.301C658.641 557.02 658.625 558.41 658.688 559.473C658.781 560.504 658.906 561.301 659.062 561.863C659.219 562.52 659.406 562.988 659.625 563.27C659.906 563.551 660.469 563.785 661.312 563.973C662.156 564.129 663.109 564.191 664.172 564.16C665.266 564.098 666.375 563.91 667.5 563.598C668.625 563.285 669.625 562.77 670.5 562.051C671.156 561.457 671.859 560.707 672.609 559.801C673.234 559.02 673.922 558.035 674.672 556.848C675.453 555.66 676.219 554.223 676.969 552.535C676.844 553.941 676.75 555.113 676.688 556.051C676.656 556.957 676.609 557.691 676.547 558.254C676.484 558.91 676.438 559.41 676.406 559.754C676.406 560.129 676.359 560.66 676.266 561.348C676.203 561.941 676.094 562.754 675.938 563.785C675.812 564.785 675.641 566.066 675.422 567.629C673.953 567.66 672.562 567.691 671.25 567.723C669.938 567.723 668.781 567.738 667.781 567.77C666.594 567.801 665.5 567.832 664.5 567.863C663.469 567.863 662.328 567.91 661.078 568.004C659.984 568.066 658.688 568.16 657.188 568.285C655.719 568.41 654.094 568.582 652.312 568.801C652.469 566.676 652.578 564.676 652.641 562.801C652.734 560.895 652.797 559.223 652.828 557.785C652.859 556.098 652.859 554.535 652.828 553.098C652.984 549.504 652.922 546.598 652.641 544.379C652.359 542.16 652.031 540.738 651.656 540.113C651.469 539.895 651.203 539.629 650.859 539.316C650.578 539.066 650.188 538.77 649.688 538.426C649.188 538.082 648.562 537.691 647.812 537.254ZM676.734 535.707C677.922 535.988 678.984 536.207 679.922 536.363C680.891 536.488 681.703 536.582 682.359 536.645C683.141 536.738 683.828 536.77 684.422 536.738C685.172 536.707 686.109 536.598 687.234 536.41C688.359 536.223 689.547 536.035 690.797 535.848C692.047 535.66 693.281 535.504 694.5 535.379C695.719 535.254 696.781 535.238 697.688 535.332C698.594 535.426 699.547 535.645 700.547 535.988C701.547 536.301 702.484 536.738 703.359 537.301C704.234 537.832 704.984 538.488 705.609 539.27C706.266 540.051 706.672 540.957 706.828 541.988C706.984 542.988 706.891 544.066 706.547 545.223C706.203 546.348 705.656 547.457 704.906 548.551C704.156 549.613 703.219 550.598 702.094 551.504C700.969 552.41 699.719 553.145 698.344 553.707C697.25 554.113 696.062 554.426 694.781 554.645C693.688 554.832 692.406 554.957 690.938 555.02C689.5 555.051 687.969 554.895 686.344 554.551C686.125 555.457 686 556.301 685.969 557.082C685.969 557.832 686 558.504 686.062 559.098C686.156 559.785 686.281 560.41 686.438 560.973C686.625 561.535 686.859 562.191 687.141 562.941C687.391 563.566 687.672 564.332 687.984 565.238C688.328 566.113 688.734 567.098 689.203 568.191C688.641 568.191 688.094 568.207 687.562 568.238C687.031 568.238 686.547 568.254 686.109 568.285C685.609 568.316 685.141 568.348 684.703 568.379C684.203 568.41 683.641 568.473 683.016 568.566C682.484 568.629 681.812 568.723 681 568.848C680.219 568.973 679.328 569.129 678.328 569.316C678.984 568.379 679.5 567.52 679.875 566.738C680.281 565.926 680.578 565.223 680.766 564.629C680.984 563.941 681.125 563.316 681.188 562.754C681.219 562.285 681.219 561.457 681.188 560.27C681.188 559.082 681.172 557.707 681.141 556.145C681.109 554.582 681.062 552.941 681 551.223C680.938 549.504 680.859 547.895 680.766 546.395C680.672 544.863 680.562 543.551 680.438 542.457C680.344 541.363 680.25 540.645 680.156 540.301C680.031 539.895 679.812 539.457 679.5 538.988C679.25 538.582 678.891 538.113 678.422 537.582C677.984 537.02 677.422 536.395 676.734 535.707ZM686.438 544.941C686.406 545.254 686.391 545.582 686.391 545.926C686.391 546.582 686.438 547.426 686.531 548.457C686.75 548.988 687.016 549.426 687.328 549.77C687.672 550.113 688.031 550.379 688.406 550.566C688.812 550.754 689.219 550.879 689.625 550.941C690.031 551.004 690.438 551.035 690.844 551.035C691.781 551.004 692.766 550.785 693.797 550.379C695.172 549.785 696.141 548.941 696.703 547.848C697.266 546.754 697.562 545.629 697.594 544.473C697.625 543.316 697.422 542.254 696.984 541.285C696.578 540.316 696.078 539.66 695.484 539.316C694.984 539.098 694.344 539.004 693.562 539.035C692.875 539.066 692.016 539.238 690.984 539.551C689.953 539.863 688.688 540.426 687.188 541.238C687.031 541.801 686.906 542.301 686.812 542.738C686.719 543.176 686.641 543.566 686.578 543.91C686.516 544.285 686.469 544.629 686.438 544.941ZM704.719 535.051C705.719 535.207 706.625 535.348 707.438 535.473C708.25 535.566 708.953 535.645 709.547 535.707C710.234 535.801 710.844 535.879 711.375 535.941C712.031 536.035 713.016 535.926 714.328 535.613C715.641 535.27 717.078 534.957 718.641 534.676C720.234 534.363 721.859 534.191 723.516 534.16C725.172 534.098 726.688 534.395 728.062 535.051C729.438 535.707 730.562 536.363 731.438 537.02C732.312 537.676 733 538.379 733.5 539.129C734.031 539.848 734.406 540.613 734.625 541.426C734.844 542.238 734.969 543.129 735 544.098C734.969 545.535 734.625 546.926 733.969 548.27C733.688 548.832 733.312 549.426 732.844 550.051C732.406 550.645 731.859 551.223 731.203 551.785C730.547 552.348 729.766 552.879 728.859 553.379C727.984 553.879 726.953 554.316 725.766 554.691C726.922 555.035 727.875 555.441 728.625 555.91C729.406 556.379 730.031 556.816 730.5 557.223C731.062 557.723 731.484 558.207 731.766 558.676C732.109 559.332 732.344 559.895 732.469 560.363C732.594 560.832 732.672 561.285 732.703 561.723C732.766 562.129 732.844 562.551 732.938 562.988C733.031 563.426 733.234 563.926 733.547 564.488C733.797 564.926 734.094 565.379 734.438 565.848C734.75 566.254 735.109 566.691 735.516 567.16C735.953 567.629 736.484 568.082 737.109 568.52C736.234 568.551 735.422 568.566 734.672 568.566C733.953 568.566 733.328 568.566 732.797 568.566C732.172 568.566 731.578 568.551 731.016 568.52C730.453 568.488 729.75 568.473 728.906 568.473C728.188 568.473 727.266 568.473 726.141 568.473C725.047 568.473 723.719 568.488 722.156 568.52C722.844 567.988 723.406 567.457 723.844 566.926C724.281 566.395 724.625 565.91 724.875 565.473C725.156 564.973 725.359 564.488 725.484 564.02C725.641 563.176 725.656 562.301 725.531 561.395C725.438 560.613 725.188 559.754 724.781 558.816C724.375 557.848 723.719 556.879 722.812 555.91C721.906 556.066 721.141 556.191 720.516 556.285C719.922 556.348 719.406 556.41 718.969 556.473C718.469 556.535 718.062 556.582 717.75 556.613C717.469 556.645 717.156 556.676 716.812 556.707C716.531 556.738 716.219 556.785 715.875 556.848C715.562 556.879 715.266 556.926 714.984 556.988C714.922 558.332 714.922 559.504 714.984 560.504C715.047 561.473 715.125 562.285 715.219 562.941C715.344 563.723 715.484 564.395 715.641 564.957C715.797 565.52 716.016 566.066 716.297 566.598C716.516 567.035 716.797 567.504 717.141 568.004C717.484 568.473 717.875 568.863 718.312 569.176C717.5 569.176 716.719 569.176 715.969 569.176C715.25 569.176 714.594 569.16 714 569.129C713.312 569.129 712.656 569.113 712.031 569.082C711.406 569.051 710.703 569.035 709.922 569.035C709.266 569.035 708.484 569.035 707.578 569.035C706.703 569.035 705.75 569.051 704.719 569.082C705.531 568.238 706.172 567.52 706.641 566.926C707.109 566.332 707.469 565.832 707.719 565.426C708 564.988 708.172 564.613 708.234 564.301C708.297 563.801 708.344 562.91 708.375 561.629C708.438 560.316 708.484 558.816 708.516 557.129C708.547 555.441 708.562 553.676 708.562 551.832C708.562 549.988 708.547 548.27 708.516 546.676C708.484 545.051 708.453 543.66 708.422 542.504C708.391 541.348 708.359 540.613 708.328 540.301C708.234 539.738 708.031 539.176 707.719 538.613C707.469 538.113 707.109 537.551 706.641 536.926C706.172 536.301 705.531 535.676 704.719 535.051ZM722.438 551.551C722.75 551.363 723.016 551.176 723.234 550.988C723.453 550.801 723.641 550.504 723.797 550.098C723.953 549.66 724.078 549.051 724.172 548.27C724.297 547.488 724.438 546.426 724.594 545.082C724.719 543.738 724.625 542.629 724.312 541.754C724.031 540.879 723.641 540.191 723.141 539.691C722.672 539.16 722.141 538.801 721.547 538.613C720.984 538.395 720.484 538.285 720.047 538.285C719.172 538.285 718.312 538.551 717.469 539.082C716.625 539.613 715.984 540.332 715.547 541.238C715.391 541.645 715.25 542.316 715.125 543.254C715.031 544.066 714.969 545.191 714.938 546.629C714.906 548.066 714.953 549.957 715.078 552.301C716.266 552.488 717.312 552.566 718.219 552.535C719.125 552.473 719.891 552.363 720.516 552.207C721.266 552.051 721.906 551.832 722.438 551.551ZM734.25 537.254C736.438 537.316 738.25 537.363 739.688 537.395C741.156 537.395 742.344 537.395 743.25 537.395H745.734H759.703C759.766 538.02 759.812 538.629 759.844 539.223C759.906 539.785 759.938 540.285 759.938 540.723C759.938 541.254 759.922 541.738 759.891 542.176C759.859 542.613 759.812 543.082 759.75 543.582C759.688 544.02 759.625 544.488 759.562 544.988C759.5 545.488 759.391 546.004 759.234 546.535C758.797 544.848 758.203 543.566 757.453 542.691C756.734 541.816 756 541.176 755.25 540.77C754.375 540.301 753.453 540.051 752.484 540.02C751.203 540.082 750.203 540.191 749.484 540.348C748.766 540.504 748.203 540.723 747.797 541.004C747.391 541.285 747.078 541.613 746.859 541.988C746.672 542.332 746.469 542.723 746.25 543.16C746.062 543.535 745.891 544.113 745.734 544.895C745.578 545.551 745.422 546.441 745.266 547.566C745.141 548.691 745 550.145 744.844 551.926C745.688 551.676 746.359 551.441 746.859 551.223C747.391 551.004 747.812 550.816 748.125 550.66C748.469 550.473 748.719 550.301 748.875 550.145C749 549.957 749.188 549.613 749.438 549.113C749.625 548.676 749.875 548.082 750.188 547.332C750.531 546.582 750.938 545.551 751.406 544.238C751.469 545.676 751.5 546.879 751.5 547.848C751.5 548.785 751.516 549.551 751.547 550.145C751.547 550.832 751.562 551.379 751.594 551.785V553.566C751.594 554.223 751.594 555.113 751.594 556.238C751.625 557.332 751.672 558.723 751.734 560.41C751.359 559.254 751.016 558.348 750.703 557.691C750.422 557.004 750.172 556.488 749.953 556.145C749.703 555.738 749.484 555.457 749.297 555.301C749.078 555.238 748.781 555.176 748.406 555.113C748.062 555.082 747.625 555.066 747.094 555.066C746.594 555.066 745.953 555.145 745.172 555.301C745.078 557.02 745.062 558.41 745.125 559.473C745.219 560.504 745.344 561.301 745.5 561.863C745.656 562.52 745.844 562.988 746.062 563.27C746.344 563.551 746.906 563.785 747.75 563.973C748.594 564.129 749.547 564.191 750.609 564.16C751.703 564.098 752.812 563.91 753.938 563.598C755.062 563.285 756.062 562.77 756.938 562.051C757.594 561.457 758.297 560.707 759.047 559.801C759.672 559.02 760.359 558.035 761.109 556.848C761.891 555.66 762.656 554.223 763.406 552.535C763.281 553.941 763.188 555.113 763.125 556.051C763.094 556.957 763.047 557.691 762.984 558.254C762.922 558.91 762.875 559.41 762.844 559.754C762.844 560.129 762.797 560.66 762.703 561.348C762.641 561.941 762.531 562.754 762.375 563.785C762.25 564.785 762.078 566.066 761.859 567.629C760.391 567.66 759 567.691 757.688 567.723C756.375 567.723 755.219 567.738 754.219 567.77C753.031 567.801 751.938 567.832 750.938 567.863C749.906 567.863 748.766 567.91 747.516 568.004C746.422 568.066 745.125 568.16 743.625 568.285C742.156 568.41 740.531 568.582 738.75 568.801C738.906 566.676 739.016 564.676 739.078 562.801C739.172 560.895 739.234 559.223 739.266 557.785C739.297 556.098 739.297 554.535 739.266 553.098C739.422 549.504 739.359 546.598 739.078 544.379C738.797 542.16 738.469 540.738 738.094 540.113C737.906 539.895 737.641 539.629 737.297 539.316C737.016 539.066 736.625 538.77 736.125 538.426C735.625 538.082 735 537.691 734.25 537.254ZM795.234 534.957C794.797 535.957 794.406 536.832 794.062 537.582C793.719 538.332 793.422 538.973 793.172 539.504C792.891 540.098 792.656 540.629 792.469 541.098C792.312 541.441 792.109 541.91 791.859 542.504C791.609 543.035 791.297 543.738 790.922 544.613C790.578 545.457 790.125 546.551 789.562 547.895C789.281 546.738 788.938 545.723 788.531 544.848C788.125 543.973 787.688 543.207 787.219 542.551C786.75 541.895 786.25 541.363 785.719 540.957C785.219 540.52 784.719 540.16 784.219 539.879C783.062 539.254 781.844 538.91 780.562 538.848C778.875 538.941 777.547 539.223 776.578 539.691C775.641 540.129 774.953 540.645 774.516 541.238C774.078 541.801 773.844 542.395 773.812 543.02C773.781 543.613 773.859 544.113 774.047 544.52C774.203 544.895 774.75 545.332 775.688 545.832C776.656 546.332 777.812 546.91 779.156 547.566C780.531 548.191 782 548.91 783.562 549.723C785.125 550.504 786.562 551.379 787.875 552.348C789.219 553.285 790.344 554.316 791.25 555.441C792.188 556.535 792.703 557.707 792.797 558.957C792.891 560.551 792.875 561.988 792.75 563.27C792.625 564.551 792.188 565.645 791.438 566.551C790.688 567.457 789.516 568.176 787.922 568.707C786.359 569.238 784.188 569.566 781.406 569.691C778.531 569.816 776.172 569.66 774.328 569.223C772.484 568.785 770.984 568.191 769.828 567.441C768.703 566.691 767.859 565.863 767.297 564.957C766.766 564.051 766.375 563.191 766.125 562.379C765.875 561.535 765.703 560.816 765.609 560.223C765.516 559.598 765.359 559.223 765.141 559.098C764.891 558.941 764.641 558.801 764.391 558.676C764.172 558.551 763.938 558.441 763.688 558.348C763.438 558.223 763.188 558.113 762.938 558.02L776.578 555.816C775.797 556.441 775.188 557.02 774.75 557.551C774.344 558.082 774.031 558.551 773.812 558.957C773.562 559.426 773.391 559.863 773.297 560.27C773.234 560.707 773.375 561.254 773.719 561.91C774.062 562.566 774.531 563.207 775.125 563.832C775.75 564.426 776.469 564.926 777.281 565.332C778.094 565.738 778.938 565.91 779.812 565.848C780.906 565.754 781.797 565.488 782.484 565.051C783.172 564.582 783.688 564.004 784.031 563.316C784.406 562.629 784.625 561.879 784.688 561.066C784.75 560.254 784.672 559.457 784.453 558.676C784.266 557.863 783.953 557.113 783.516 556.426C783.078 555.707 782.562 555.113 781.969 554.645C781.438 554.27 780.609 553.91 779.484 553.566C778.391 553.223 777.156 552.848 775.781 552.441C774.438 552.035 773.047 551.566 771.609 551.035C770.203 550.504 768.922 549.848 767.766 549.066C766.641 548.285 765.734 547.363 765.047 546.301C764.391 545.238 764.141 543.957 764.297 542.457C764.422 541.176 764.828 540.113 765.516 539.27C766.234 538.395 767.125 537.707 768.188 537.207C769.281 536.676 770.484 536.285 771.797 536.035C773.141 535.785 774.5 535.645 775.875 535.613C777.281 535.551 778.656 535.566 780 535.66C781.375 535.754 782.609 535.863 783.703 535.988C784.797 536.113 785.719 536.238 786.469 536.363C787.25 536.457 787.734 536.52 787.922 536.551C788.734 536.613 789.547 536.598 790.359 536.504C791.078 536.441 791.859 536.301 792.703 536.082C793.578 535.832 794.422 535.457 795.234 534.957ZM792.609 537.254C794.797 537.316 796.609 537.363 798.047 537.395C799.516 537.395 800.703 537.395 801.609 537.395H804.094H818.062C818.125 538.02 818.172 538.629 818.203 539.223C818.266 539.785 818.297 540.285 818.297 540.723C818.297 541.254 818.281 541.738 818.25 542.176C818.219 542.613 818.172 543.082 818.109 543.582C818.047 544.02 817.984 544.488 817.922 544.988C817.859 545.488 817.75 546.004 817.594 546.535C817.156 544.848 816.562 543.566 815.812 542.691C815.094 541.816 814.359 541.176 813.609 540.77C812.734 540.301 811.812 540.051 810.844 540.02C809.562 540.082 808.562 540.191 807.844 540.348C807.125 540.504 806.562 540.723 806.156 541.004C805.75 541.285 805.438 541.613 805.219 541.988C805.031 542.332 804.828 542.723 804.609 543.16C804.422 543.535 804.25 544.113 804.094 544.895C803.938 545.551 803.781 546.441 803.625 547.566C803.5 548.691 803.359 550.145 803.203 551.926C804.047 551.676 804.719 551.441 805.219 551.223C805.75 551.004 806.172 550.816 806.484 550.66C806.828 550.473 807.078 550.301 807.234 550.145C807.359 549.957 807.547 549.613 807.797 549.113C807.984 548.676 808.234 548.082 808.547 547.332C808.891 546.582 809.297 545.551 809.766 544.238C809.828 545.676 809.859 546.879 809.859 547.848C809.859 548.785 809.875 549.551 809.906 550.145C809.906 550.832 809.922 551.379 809.953 551.785V553.566C809.953 554.223 809.953 555.113 809.953 556.238C809.984 557.332 810.031 558.723 810.094 560.41C809.719 559.254 809.375 558.348 809.062 557.691C808.781 557.004 808.531 556.488 808.312 556.145C808.062 555.738 807.844 555.457 807.656 555.301C807.438 555.238 807.141 555.176 806.766 555.113C806.422 555.082 805.984 555.066 805.453 555.066C804.953 555.066 804.312 555.145 803.531 555.301C803.438 557.02 803.422 558.41 803.484 559.473C803.578 560.504 803.703 561.301 803.859 561.863C804.016 562.52 804.203 562.988 804.422 563.27C804.703 563.551 805.266 563.785 806.109 563.973C806.953 564.129 807.906 564.191 808.969 564.16C810.062 564.098 811.172 563.91 812.297 563.598C813.422 563.285 814.422 562.77 815.297 562.051C815.953 561.457 816.656 560.707 817.406 559.801C818.031 559.02 818.719 558.035 819.469 556.848C820.25 555.66 821.016 554.223 821.766 552.535C821.641 553.941 821.547 555.113 821.484 556.051C821.453 556.957 821.406 557.691 821.344 558.254C821.281 558.91 821.234 559.41 821.203 559.754C821.203 560.129 821.156 560.66 821.062 561.348C821 561.941 820.891 562.754 820.734 563.785C820.609 564.785 820.438 566.066 820.219 567.629C818.75 567.66 817.359 567.691 816.047 567.723C814.734 567.723 813.578 567.738 812.578 567.77C811.391 567.801 810.297 567.832 809.297 567.863C808.266 567.863 807.125 567.91 805.875 568.004C804.781 568.066 803.484 568.16 801.984 568.285C800.516 568.41 798.891 568.582 797.109 568.801C797.266 566.676 797.375 564.676 797.438 562.801C797.531 560.895 797.594 559.223 797.625 557.785C797.656 556.098 797.656 554.535 797.625 553.098C797.781 549.504 797.719 546.598 797.438 544.379C797.156 542.16 796.828 540.738 796.453 540.113C796.266 539.895 796 539.629 795.656 539.316C795.375 539.066 794.984 538.77 794.484 538.426C793.984 538.082 793.359 537.691 792.609 537.254ZM821.062 536.035C822.469 536.285 823.625 536.457 824.531 536.551C825.438 536.645 826.172 536.723 826.734 536.785C827.391 536.848 827.906 536.863 828.281 536.832H829.688C830.188 536.832 830.812 536.832 831.562 536.832C832.344 536.801 833.312 536.785 834.469 536.785C835.125 538.316 835.719 539.723 836.25 541.004C836.812 542.285 837.281 543.379 837.656 544.285C838.094 545.379 838.5 546.363 838.875 547.238C839.312 548.332 839.781 549.535 840.281 550.848C840.781 552.16 841.234 553.395 841.641 554.551C842.078 555.707 842.438 556.66 842.719 557.41C843 558.16 843.141 558.504 843.141 558.441C843.141 558.41 843.156 558.098 843.188 557.504C843.219 556.879 843.25 556.113 843.281 555.207C843.312 554.27 843.344 553.254 843.375 552.16C843.438 551.035 843.469 549.957 843.469 548.926C843.5 547.863 843.516 546.895 843.516 546.02C843.516 545.145 843.484 544.488 843.422 544.051C843.328 543.52 843.141 542.91 842.859 542.223C842.609 541.629 842.266 540.926 841.828 540.113C841.391 539.27 840.781 538.316 840 537.254C841.281 537.285 842.328 537.301 843.141 537.301C843.953 537.301 844.609 537.301 845.109 537.301C845.672 537.301 846.109 537.285 846.422 537.254C846.828 537.254 847.328 537.223 847.922 537.16C848.453 537.098 849.109 537.051 849.891 537.02C850.703 536.957 851.703 536.879 852.891 536.785C852.203 537.41 851.656 538.004 851.25 538.566C850.844 539.129 850.516 539.629 850.266 540.066C849.984 540.566 849.797 541.035 849.703 541.473C849.578 542.035 849.469 542.957 849.375 544.238C849.312 545.488 849.234 546.895 849.141 548.457C849.078 550.02 849.016 551.645 848.953 553.332C848.891 555.02 848.828 556.566 848.766 557.973C848.766 559.035 848.734 560.176 848.672 561.395C848.609 562.426 848.547 563.598 848.484 564.91C848.422 566.191 848.344 567.488 848.25 568.801L844.078 568.895C842.859 566.738 841.828 564.895 840.984 563.363C840.172 561.801 839.5 560.52 838.969 559.52C838.375 558.363 837.875 557.395 837.469 556.613C837.125 555.863 836.672 555.004 836.109 554.035C835.641 553.223 835.047 552.223 834.328 551.035C833.641 549.848 832.812 548.488 831.844 546.957C831.75 549.113 831.703 550.957 831.703 552.488C831.734 553.988 831.781 555.238 831.844 556.238C831.938 557.395 832.047 558.363 832.172 559.145C832.328 559.895 832.547 560.738 832.828 561.676C833.078 562.488 833.375 563.441 833.719 564.535C834.094 565.629 834.547 566.863 835.078 568.238C833.234 568.145 831.859 568.098 830.953 568.098H829.547C829.109 568.098 828.516 568.145 827.766 568.238C827.141 568.301 826.281 568.395 825.188 568.52C824.125 568.645 822.797 568.816 821.203 569.035C821.953 568.129 822.547 567.301 822.984 566.551C823.453 565.77 823.812 565.113 824.062 564.582C824.375 563.957 824.594 563.41 824.719 562.941C824.812 562.441 824.875 561.582 824.906 560.363C824.938 559.113 824.938 557.707 824.906 556.145C824.906 554.551 824.875 552.879 824.812 551.129C824.781 549.379 824.734 547.754 824.672 546.254C824.609 544.754 824.531 543.473 824.438 542.41C824.375 541.348 824.328 540.691 824.297 540.441C824.203 540.035 824.016 539.598 823.734 539.129C823.484 538.723 823.156 538.27 822.75 537.77C822.344 537.238 821.781 536.66 821.062 536.035ZM851.25 535.051C853.344 535.301 855.156 535.488 856.688 535.613C858.219 535.707 859.484 535.785 860.484 535.848C861.641 535.91 862.609 535.926 863.391 535.895C864.203 535.863 865.312 535.785 866.719 535.66C867.906 535.566 869.469 535.441 871.406 535.285C873.344 535.098 875.766 534.848 878.672 534.535C878.703 535.254 878.719 535.957 878.719 536.645C878.75 537.301 878.781 537.879 878.812 538.379C878.844 538.973 878.859 539.52 878.859 540.02C878.859 540.551 878.828 541.223 878.766 542.035C878.703 542.723 878.594 543.598 878.438 544.66C878.312 545.691 878.109 546.926 877.828 548.363C877.391 546.676 876.969 545.316 876.562 544.285C876.156 543.223 875.781 542.379 875.438 541.754C875.062 541.035 874.688 540.488 874.312 540.113C873.906 539.832 873.422 539.598 872.859 539.41C872.359 539.254 871.719 539.129 870.938 539.035C870.188 538.941 869.297 538.957 868.266 539.082C868.109 543.207 868 546.551 867.938 549.113C867.875 551.676 867.828 553.676 867.797 555.113C867.766 556.832 867.75 558.066 867.75 558.816C867.781 559.879 867.953 560.926 868.266 561.957C868.516 562.832 868.922 563.738 869.484 564.676C870.047 565.613 870.859 566.441 871.922 567.16H866.203C865.672 567.16 865.016 567.191 864.234 567.254C863.578 567.316 862.734 567.379 861.703 567.441C860.703 567.504 859.531 567.613 858.188 567.77C858.656 566.957 859.031 566.223 859.312 565.566C859.594 564.91 859.812 564.348 859.969 563.879C860.156 563.316 860.297 562.816 860.391 562.379C860.422 561.754 860.5 560.488 860.625 558.582C860.656 557.801 860.688 556.832 860.719 555.676C860.781 554.52 860.844 553.145 860.906 551.551C861 549.957 861.078 548.129 861.141 546.066C861.234 543.973 861.328 541.613 861.422 538.988C860.859 538.832 860.328 538.848 859.828 539.035C859.328 539.191 858.891 539.395 858.516 539.645C858.078 539.957 857.656 540.332 857.25 540.77C856.844 541.301 856.391 541.988 855.891 542.832C855.453 543.551 854.953 544.504 854.391 545.691C853.828 546.848 853.188 548.285 852.469 550.004C852.312 548.191 852.203 546.707 852.141 545.551C852.078 544.363 852.031 543.441 852 542.785C851.969 542.004 851.953 541.426 851.953 541.051C851.953 540.707 851.922 540.254 851.859 539.691C851.797 539.223 851.719 538.613 851.625 537.863C851.531 537.082 851.406 536.145 851.25 535.051ZM883.125 537.535C884.688 537.629 886 537.707 887.062 537.77C888.156 537.801 889.062 537.832 889.781 537.863C890.594 537.895 891.281 537.895 891.844 537.863C892.406 537.832 893.172 537.754 894.141 537.629C894.953 537.535 896.031 537.395 897.375 537.207C898.75 536.988 900.453 536.707 902.484 536.363C901.766 537.082 901.203 537.738 900.797 538.332C900.422 538.895 900.125 539.379 899.906 539.785C899.656 540.285 899.484 540.707 899.391 541.051C899.328 541.363 899.391 542.145 899.578 543.395C899.766 544.645 900.031 546.129 900.375 547.848C900.719 549.535 901.094 551.348 901.5 553.285C901.906 555.191 902.312 556.988 902.719 558.676C903.125 560.332 903.484 561.754 903.797 562.941C904.141 564.098 904.391 564.785 904.547 565.004C905.016 565.66 905.312 566.098 905.438 566.316C905.562 566.504 905.781 566.676 906.094 566.832C906.219 566.895 906.422 566.988 906.703 567.113C906.953 567.238 907.281 567.395 907.688 567.582C908.125 567.77 908.672 567.988 909.328 568.238C908.109 568.301 907.062 568.348 906.188 568.379C905.312 568.379 904.594 568.395 904.031 568.426C903.375 568.457 902.812 568.488 902.344 568.52C901.875 568.52 901.312 568.551 900.656 568.613C900.094 568.676 899.359 568.738 898.453 568.801C897.578 568.863 896.547 568.926 895.359 568.988C895.984 568.551 896.484 568.16 896.859 567.816C897.266 567.441 897.578 567.129 897.797 566.879C898.047 566.566 898.219 566.285 898.312 566.035C898.375 565.754 898.422 565.332 898.453 564.77C898.484 564.27 898.484 563.613 898.453 562.801C898.422 561.957 898.344 560.863 898.219 559.52L885.891 560.785C885.578 561.316 885.344 561.785 885.188 562.191C885.031 562.566 884.922 562.895 884.859 563.176C884.766 563.52 884.734 563.801 884.766 564.02C884.828 564.27 884.938 564.566 885.094 564.91C885.25 565.223 885.469 565.598 885.75 566.035C886.062 566.441 886.516 566.926 887.109 567.488C886.328 567.457 885.531 567.441 884.719 567.441C883.906 567.441 883.156 567.457 882.469 567.488C881.656 567.52 880.859 567.551 880.078 567.582C879.297 567.613 878.406 567.66 877.406 567.723C876.562 567.785 875.578 567.863 874.453 567.957C873.297 568.02 872.062 568.113 870.75 568.238C871.562 567.863 872.25 567.488 872.812 567.113C873.375 566.707 873.844 566.332 874.219 565.988C874.656 565.613 875.031 565.254 875.344 564.91C875.562 564.598 876 563.879 876.656 562.754C877.312 561.598 878.047 560.238 878.859 558.676C879.703 557.113 880.578 555.441 881.484 553.66C882.422 551.879 883.266 550.207 884.016 548.645C884.766 547.051 885.375 545.676 885.844 544.52C886.312 543.363 886.547 542.613 886.547 542.27C886.484 541.863 886.328 541.41 886.078 540.91C885.859 540.473 885.516 539.973 885.047 539.41C884.609 538.848 883.969 538.223 883.125 537.535ZM897.656 556.051C897.469 554.957 897.297 554.02 897.141 553.238C896.984 552.426 896.859 551.754 896.766 551.223C896.641 550.598 896.547 550.051 896.484 549.582C896.391 549.145 896.281 548.582 896.156 547.895C896.031 547.301 895.875 546.566 895.688 545.691C895.531 544.785 895.328 543.707 895.078 542.457C893.297 546.02 891.906 548.785 890.906 550.754C889.938 552.691 889.234 554.113 888.797 555.02C888.266 556.082 887.969 556.707 887.906 556.895L897.656 556.051ZM905.203 535.051C906.203 535.207 907.109 535.348 907.922 535.473C908.734 535.566 909.438 535.645 910.031 535.707C910.719 535.801 911.328 535.879 911.859 535.941C912.516 536.035 913.5 535.926 914.812 535.613C916.125 535.27 917.562 534.957 919.125 534.676C920.719 534.363 922.344 534.191 924 534.16C925.656 534.098 927.172 534.395 928.547 535.051C929.922 535.707 931.047 536.363 931.922 537.02C932.797 537.676 933.484 538.379 933.984 539.129C934.516 539.848 934.891 540.613 935.109 541.426C935.328 542.238 935.453 543.129 935.484 544.098C935.453 545.535 935.109 546.926 934.453 548.27C934.172 548.832 933.797 549.426 933.328 550.051C932.891 550.645 932.344 551.223 931.688 551.785C931.031 552.348 930.25 552.879 929.344 553.379C928.469 553.879 927.438 554.316 926.25 554.691C927.406 555.035 928.359 555.441 929.109 555.91C929.891 556.379 930.516 556.816 930.984 557.223C931.547 557.723 931.969 558.207 932.25 558.676C932.594 559.332 932.828 559.895 932.953 560.363C933.078 560.832 933.156 561.285 933.188 561.723C933.25 562.129 933.328 562.551 933.422 562.988C933.516 563.426 933.719 563.926 934.031 564.488C934.281 564.926 934.578 565.379 934.922 565.848C935.234 566.254 935.594 566.691 936 567.16C936.438 567.629 936.969 568.082 937.594 568.52C936.719 568.551 935.906 568.566 935.156 568.566C934.438 568.566 933.812 568.566 933.281 568.566C932.656 568.566 932.062 568.551 931.5 568.52C930.938 568.488 930.234 568.473 929.391 568.473C928.672 568.473 927.75 568.473 926.625 568.473C925.531 568.473 924.203 568.488 922.641 568.52C923.328 567.988 923.891 567.457 924.328 566.926C924.766 566.395 925.109 565.91 925.359 565.473C925.641 564.973 925.844 564.488 925.969 564.02C926.125 563.176 926.141 562.301 926.016 561.395C925.922 560.613 925.672 559.754 925.266 558.816C924.859 557.848 924.203 556.879 923.297 555.91C922.391 556.066 921.625 556.191 921 556.285C920.406 556.348 919.891 556.41 919.453 556.473C918.953 556.535 918.547 556.582 918.234 556.613C917.953 556.645 917.641 556.676 917.297 556.707C917.016 556.738 916.703 556.785 916.359 556.848C916.047 556.879 915.75 556.926 915.469 556.988C915.406 558.332 915.406 559.504 915.469 560.504C915.531 561.473 915.609 562.285 915.703 562.941C915.828 563.723 915.969 564.395 916.125 564.957C916.281 565.52 916.5 566.066 916.781 566.598C917 567.035 917.281 567.504 917.625 568.004C917.969 568.473 918.359 568.863 918.797 569.176C917.984 569.176 917.203 569.176 916.453 569.176C915.734 569.176 915.078 569.16 914.484 569.129C913.797 569.129 913.141 569.113 912.516 569.082C911.891 569.051 911.188 569.035 910.406 569.035C909.75 569.035 908.969 569.035 908.062 569.035C907.188 569.035 906.234 569.051 905.203 569.082C906.016 568.238 906.656 567.52 907.125 566.926C907.594 566.332 907.953 565.832 908.203 565.426C908.484 564.988 908.656 564.613 908.719 564.301C908.781 563.801 908.828 562.91 908.859 561.629C908.922 560.316 908.969 558.816 909 557.129C909.031 555.441 909.047 553.676 909.047 551.832C909.047 549.988 909.031 548.27 909 546.676C908.969 545.051 908.938 543.66 908.906 542.504C908.875 541.348 908.844 540.613 908.812 540.301C908.719 539.738 908.516 539.176 908.203 538.613C907.953 538.113 907.594 537.551 907.125 536.926C906.656 536.301 906.016 535.676 905.203 535.051ZM922.922 551.551C923.234 551.363 923.5 551.176 923.719 550.988C923.938 550.801 924.125 550.504 924.281 550.098C924.438 549.66 924.562 549.051 924.656 548.27C924.781 547.488 924.922 546.426 925.078 545.082C925.203 543.738 925.109 542.629 924.797 541.754C924.516 540.879 924.125 540.191 923.625 539.691C923.156 539.16 922.625 538.801 922.031 538.613C921.469 538.395 920.969 538.285 920.531 538.285C919.656 538.285 918.797 538.551 917.953 539.082C917.109 539.613 916.469 540.332 916.031 541.238C915.875 541.645 915.734 542.316 915.609 543.254C915.516 544.066 915.453 545.191 915.422 546.629C915.391 548.066 915.438 549.957 915.562 552.301C916.75 552.488 917.797 552.566 918.703 552.535C919.609 552.473 920.375 552.363 921 552.207C921.75 552.051 922.391 551.832 922.922 551.551ZM726.234 593.988C727.578 594.113 728.766 594.207 729.797 594.27C730.828 594.332 731.688 594.395 732.375 594.457C733.188 594.52 733.875 594.566 734.438 594.598C735 594.629 735.688 594.645 736.5 594.645C737.188 594.676 738.047 594.691 739.078 594.691C740.109 594.691 741.328 594.691 742.734 594.691C741.828 595.129 741.125 595.535 740.625 595.91C740.156 596.285 739.797 596.613 739.547 596.895C739.234 597.238 739.047 597.551 738.984 597.832C738.953 598.082 739.016 598.504 739.172 599.098C739.328 599.691 739.547 600.363 739.828 601.113C740.109 601.832 740.453 602.598 740.859 603.41C741.266 604.223 741.688 604.957 742.125 605.613C742.594 606.238 743.062 606.754 743.531 607.16C744 607.566 744.453 607.754 744.891 607.723C745.328 607.691 745.859 607.488 746.484 607.113C747.109 606.707 747.75 606.207 748.406 605.613C749.094 605.02 749.766 604.379 750.422 603.691C751.078 603.004 751.656 602.332 752.156 601.676C752.688 601.02 753.109 600.426 753.422 599.895C753.766 599.332 753.938 598.926 753.938 598.676C753.906 598.363 753.781 598.004 753.562 597.598C753.375 597.254 753.062 596.848 752.625 596.379C752.188 595.879 751.578 595.316 750.797 594.691C753.359 594.785 755.234 594.832 756.422 594.832H758.156H760.125C760.844 594.832 761.797 594.832 762.984 594.832C764.172 594.801 765.656 594.754 767.438 594.691C766.219 595.504 765.156 596.238 764.25 596.895C763.375 597.52 762.625 598.051 762 598.488C761.281 599.02 760.688 599.488 760.219 599.895C759.688 600.332 758.953 601.02 758.016 601.957C757.203 602.77 756.125 603.863 754.781 605.238C753.438 606.582 751.75 608.332 749.719 610.488C749.438 612.77 749.25 614.613 749.156 616.02C749.094 617.426 749.062 618.535 749.062 619.348C749.062 620.285 749.125 620.988 749.25 621.457C749.406 621.832 749.672 622.27 750.047 622.77C750.359 623.207 750.797 623.723 751.359 624.316C751.953 624.91 752.734 625.566 753.703 626.285C752.672 626.035 751.703 625.848 750.797 625.723C749.922 625.598 749.141 625.504 748.453 625.441C747.641 625.348 746.906 625.301 746.25 625.301C745.562 625.301 744.75 625.332 743.812 625.395C743 625.457 742.031 625.535 740.906 625.629C739.781 625.723 738.469 625.863 736.969 626.051C737.75 625.52 738.391 624.988 738.891 624.457C739.391 623.926 739.781 623.441 740.062 623.004C740.406 622.504 740.656 622.035 740.812 621.598C740.938 621.098 741.031 620.379 741.094 619.441C741.156 618.629 741.156 617.551 741.094 616.207C741.062 614.863 740.969 613.16 740.812 611.098C738.938 608.098 737.406 605.738 736.219 604.02C735.031 602.27 734.109 600.941 733.453 600.035C732.672 599.004 732.109 598.316 731.766 597.973C731.453 597.723 731.031 597.41 730.5 597.035C730.062 596.691 729.5 596.285 728.812 595.816C728.094 595.316 727.234 594.707 726.234 593.988ZM773.719 594.035C775.125 594.285 776.281 594.457 777.188 594.551C778.094 594.645 778.828 594.723 779.391 594.785C780.047 594.848 780.562 594.863 780.938 594.832H782.344C782.844 594.832 783.469 594.832 784.219 594.832C785 594.801 785.969 594.785 787.125 594.785C787.781 596.316 788.375 597.723 788.906 599.004C789.469 600.285 789.938 601.379 790.312 602.285C790.75 603.379 791.156 604.363 791.531 605.238C791.969 606.332 792.438 607.535 792.938 608.848C793.438 610.16 793.891 611.395 794.297 612.551C794.734 613.707 795.094 614.66 795.375 615.41C795.656 616.16 795.797 616.504 795.797 616.441C795.797 616.41 795.812 616.098 795.844 615.504C795.875 614.879 795.906 614.113 795.938 613.207C795.969 612.27 796 611.254 796.031 610.16C796.094 609.035 796.125 607.957 796.125 606.926C796.156 605.863 796.172 604.895 796.172 604.02C796.172 603.145 796.141 602.488 796.078 602.051C795.984 601.52 795.797 600.91 795.516 600.223C795.266 599.629 794.922 598.926 794.484 598.113C794.047 597.27 793.438 596.316 792.656 595.254C793.938 595.285 794.984 595.301 795.797 595.301C796.609 595.301 797.266 595.301 797.766 595.301C798.328 595.301 798.766 595.285 799.078 595.254C799.484 595.254 799.984 595.223 800.578 595.16C801.109 595.098 801.766 595.051 802.547 595.02C803.359 594.957 804.359 594.879 805.547 594.785C804.859 595.41 804.312 596.004 803.906 596.566C803.5 597.129 803.172 597.629 802.922 598.066C802.641 598.566 802.453 599.035 802.359 599.473C802.234 600.035 802.125 600.957 802.031 602.238C801.969 603.488 801.891 604.895 801.797 606.457C801.734 608.02 801.672 609.645 801.609 611.332C801.547 613.02 801.484 614.566 801.422 615.973C801.422 617.035 801.391 618.176 801.328 619.395C801.266 620.426 801.203 621.598 801.141 622.91C801.078 624.191 801 625.488 800.906 626.801L796.734 626.895C795.516 624.738 794.484 622.895 793.641 621.363C792.828 619.801 792.156 618.52 791.625 617.52C791.031 616.363 790.531 615.395 790.125 614.613C789.781 613.863 789.328 613.004 788.766 612.035C788.297 611.223 787.703 610.223 786.984 609.035C786.297 607.848 785.469 606.488 784.5 604.957C784.406 607.113 784.359 608.957 784.359 610.488C784.391 611.988 784.438 613.238 784.5 614.238C784.594 615.395 784.703 616.363 784.828 617.145C784.984 617.895 785.203 618.738 785.484 619.676C785.734 620.488 786.031 621.441 786.375 622.535C786.75 623.629 787.203 624.863 787.734 626.238C785.891 626.145 784.516 626.098 783.609 626.098H782.203C781.766 626.098 781.172 626.145 780.422 626.238C779.797 626.301 778.938 626.395 777.844 626.52C776.781 626.645 775.453 626.816 773.859 627.035C774.609 626.129 775.203 625.301 775.641 624.551C776.109 623.77 776.469 623.113 776.719 622.582C777.031 621.957 777.25 621.41 777.375 620.941C777.469 620.441 777.531 619.582 777.562 618.363C777.594 617.113 777.594 615.707 777.562 614.145C777.562 612.551 777.531 610.879 777.469 609.129C777.438 607.379 777.391 605.754 777.328 604.254C777.266 602.754 777.188 601.473 777.094 600.41C777.031 599.348 776.984 598.691 776.953 598.441C776.859 598.035 776.672 597.598 776.391 597.129C776.141 596.723 775.812 596.27 775.406 595.77C775 595.238 774.438 594.66 773.719 594.035ZM822.422 591.926C824.109 591.988 825.812 592.301 827.531 592.863C829.281 593.395 830.891 594.27 832.359 595.488C833.828 596.676 835.078 598.223 836.109 600.129C837.141 602.004 837.781 604.301 838.031 607.02C838.25 609.238 837.969 611.441 837.188 613.629C836.438 615.785 835.391 617.77 834.047 619.582C832.703 621.395 831.156 622.941 829.406 624.223C827.656 625.473 825.906 626.301 824.156 626.707C823.094 626.957 821.922 626.988 820.641 626.801C819.391 626.582 818.109 626.191 816.797 625.629C815.516 625.035 814.25 624.285 813 623.379C811.781 622.473 810.672 621.441 809.672 620.285C808.672 619.098 807.828 617.816 807.141 616.441C806.484 615.066 806.078 613.629 805.922 612.129C805.766 610.879 805.75 609.504 805.875 608.004C806.031 606.473 806.328 604.957 806.766 603.457C807.234 601.926 807.875 600.457 808.688 599.051C809.531 597.613 810.594 596.363 811.875 595.301C813.156 594.207 814.656 593.363 816.375 592.77C818.125 592.145 820.141 591.863 822.422 591.926ZM814.031 610.91C813.594 614.254 813.906 616.941 814.969 618.973C816.062 621.004 817.703 622.238 819.891 622.676C820.953 622.895 821.969 622.676 822.938 622.02C823.938 621.332 824.844 620.348 825.656 619.066C826.469 617.785 827.172 616.285 827.766 614.566C828.359 612.848 828.797 611.051 829.078 609.176C829.359 607.301 829.375 605.613 829.125 604.113C828.906 602.582 828.516 601.285 827.953 600.223C827.391 599.129 826.703 598.285 825.891 597.691C825.109 597.098 824.297 596.77 823.453 596.707C821.984 596.613 820.703 597.004 819.609 597.879C818.516 598.723 817.594 599.832 816.844 601.207C816.094 602.582 815.484 604.129 815.016 605.848C814.578 607.566 814.25 609.254 814.031 610.91ZM686.18 650.957C685.742 651.957 685.352 652.832 685.008 653.582C684.664 654.332 684.367 654.973 684.117 655.504C683.836 656.098 683.602 656.629 683.414 657.098C683.258 657.441 683.055 657.91 682.805 658.504C682.555 659.035 682.242 659.738 681.867 660.613C681.523 661.457 681.07 662.551 680.508 663.895C680.227 662.738 679.883 661.723 679.477 660.848C679.07 659.973 678.633 659.207 678.164 658.551C677.695 657.895 677.195 657.363 676.664 656.957C676.164 656.52 675.664 656.16 675.164 655.879C674.008 655.254 672.789 654.91 671.508 654.848C669.82 654.941 668.492 655.223 667.523 655.691C666.586 656.129 665.898 656.645 665.461 657.238C665.023 657.801 664.789 658.395 664.758 659.02C664.727 659.613 664.805 660.113 664.992 660.52C665.148 660.895 665.695 661.332 666.633 661.832C667.602 662.332 668.758 662.91 670.102 663.566C671.477 664.191 672.945 664.91 674.508 665.723C676.07 666.504 677.508 667.379 678.82 668.348C680.164 669.285 681.289 670.316 682.195 671.441C683.133 672.535 683.648 673.707 683.742 674.957C683.836 676.551 683.82 677.988 683.695 679.27C683.57 680.551 683.133 681.645 682.383 682.551C681.633 683.457 680.461 684.176 678.867 684.707C677.305 685.238 675.133 685.566 672.352 685.691C669.477 685.816 667.117 685.66 665.273 685.223C663.43 684.785 661.93 684.191 660.773 683.441C659.648 682.691 658.805 681.863 658.242 680.957C657.711 680.051 657.32 679.191 657.07 678.379C656.82 677.535 656.648 676.816 656.555 676.223C656.461 675.598 656.305 675.223 656.086 675.098C655.836 674.941 655.586 674.801 655.336 674.676C655.117 674.551 654.883 674.441 654.633 674.348C654.383 674.223 654.133 674.113 653.883 674.02L667.523 671.816C666.742 672.441 666.133 673.02 665.695 673.551C665.289 674.082 664.977 674.551 664.758 674.957C664.508 675.426 664.336 675.863 664.242 676.27C664.18 676.707 664.32 677.254 664.664 677.91C665.008 678.566 665.477 679.207 666.07 679.832C666.695 680.426 667.414 680.926 668.227 681.332C669.039 681.738 669.883 681.91 670.758 681.848C671.852 681.754 672.742 681.488 673.43 681.051C674.117 680.582 674.633 680.004 674.977 679.316C675.352 678.629 675.57 677.879 675.633 677.066C675.695 676.254 675.617 675.457 675.398 674.676C675.211 673.863 674.898 673.113 674.461 672.426C674.023 671.707 673.508 671.113 672.914 670.645C672.383 670.27 671.555 669.91 670.43 669.566C669.336 669.223 668.102 668.848 666.727 668.441C665.383 668.035 663.992 667.566 662.555 667.035C661.148 666.504 659.867 665.848 658.711 665.066C657.586 664.285 656.68 663.363 655.992 662.301C655.336 661.238 655.086 659.957 655.242 658.457C655.367 657.176 655.773 656.113 656.461 655.27C657.18 654.395 658.07 653.707 659.133 653.207C660.227 652.676 661.43 652.285 662.742 652.035C664.086 651.785 665.445 651.645 666.82 651.613C668.227 651.551 669.602 651.566 670.945 651.66C672.32 651.754 673.555 651.863 674.648 651.988C675.742 652.113 676.664 652.238 677.414 652.363C678.195 652.457 678.68 652.52 678.867 652.551C679.68 652.613 680.492 652.598 681.305 652.504C682.023 652.441 682.805 652.301 683.648 652.082C684.523 651.832 685.367 651.457 686.18 650.957ZM685.945 652.316C686.883 652.504 687.68 652.645 688.336 652.738C688.992 652.832 689.539 652.91 689.977 652.973C690.477 653.035 690.898 653.066 691.242 653.066C691.586 653.066 692.055 653.051 692.648 653.02C693.18 652.988 693.852 652.973 694.664 652.973C695.477 652.941 696.508 652.895 697.758 652.832C697.039 653.332 696.461 653.754 696.023 654.098C695.586 654.441 695.258 654.738 695.039 654.988C694.758 655.27 694.586 655.504 694.523 655.691C694.461 655.816 694.398 656.285 694.336 657.098C694.273 657.879 694.211 658.879 694.148 660.098C694.117 661.285 694.117 662.629 694.148 664.129C694.18 665.598 694.258 667.098 694.383 668.629C694.539 670.16 694.758 671.645 695.039 673.082C695.32 674.488 695.695 675.723 696.164 676.785C696.664 677.848 697.258 678.676 697.945 679.27C698.664 679.863 699.523 680.082 700.523 679.926C701.836 679.738 702.898 679.098 703.711 678.004C704.523 676.91 705.133 675.582 705.539 674.02C705.977 672.457 706.242 670.785 706.336 669.004C706.461 667.191 706.477 665.504 706.383 663.941C706.32 662.348 706.195 660.973 706.008 659.816C705.82 658.66 705.648 657.941 705.492 657.66C705.305 657.348 705.055 656.988 704.742 656.582C704.492 656.238 704.164 655.848 703.758 655.41C703.352 654.941 702.883 654.441 702.352 653.91C703.32 653.941 704.195 653.973 704.977 654.004C705.758 654.004 706.414 654.02 706.945 654.051C707.57 654.082 708.133 654.113 708.633 654.145C709.133 654.176 709.758 654.223 710.508 654.285C711.133 654.348 711.93 654.41 712.898 654.473C713.898 654.535 715.086 654.629 716.461 654.754C715.93 654.879 715.492 655.051 715.148 655.27C714.836 655.488 714.586 655.723 714.398 655.973C714.18 656.254 714.023 656.535 713.93 656.816C713.836 657.066 713.758 657.816 713.695 659.066C713.664 660.285 713.602 661.77 713.508 663.52C713.445 665.238 713.336 667.113 713.18 669.145C713.023 671.145 712.773 673.051 712.43 674.863C712.117 676.676 711.695 678.285 711.164 679.691C710.664 681.098 710.008 682.066 709.195 682.598C708.008 683.379 706.758 683.941 705.445 684.285C704.133 684.598 702.805 684.77 701.461 684.801C700.117 684.801 698.789 684.691 697.477 684.473C696.195 684.223 694.961 683.926 693.773 683.582C692.555 683.207 691.539 682.363 690.727 681.051C689.945 679.738 689.32 678.191 688.852 676.41C688.414 674.598 688.086 672.66 687.867 670.598C687.68 668.504 687.555 666.488 687.492 664.551C687.461 662.613 687.461 660.863 687.492 659.301C687.555 657.707 687.602 656.504 687.633 655.691C687.633 655.285 687.57 654.895 687.445 654.52C687.352 654.176 687.18 653.816 686.93 653.441C686.711 653.035 686.383 652.66 685.945 652.316ZM714.023 651.707C715.211 651.988 716.273 652.207 717.211 652.363C718.18 652.488 718.992 652.582 719.648 652.645C720.43 652.738 721.117 652.77 721.711 652.738C722.461 652.707 723.398 652.598 724.523 652.41C725.648 652.223 726.836 652.035 728.086 651.848C729.336 651.66 730.57 651.504 731.789 651.379C733.008 651.254 734.07 651.238 734.977 651.332C735.883 651.426 736.836 651.645 737.836 651.988C738.836 652.301 739.773 652.738 740.648 653.301C741.523 653.832 742.273 654.488 742.898 655.27C743.555 656.051 743.961 656.957 744.117 657.988C744.273 658.988 744.18 660.066 743.836 661.223C743.492 662.348 742.945 663.457 742.195 664.551C741.445 665.613 740.508 666.598 739.383 667.504C738.258 668.41 737.008 669.145 735.633 669.707C734.539 670.113 733.352 670.426 732.07 670.645C730.977 670.832 729.695 670.957 728.227 671.02C726.789 671.051 725.258 670.895 723.633 670.551C723.414 671.457 723.289 672.301 723.258 673.082C723.258 673.832 723.289 674.504 723.352 675.098C723.445 675.785 723.57 676.41 723.727 676.973C723.914 677.535 724.148 678.191 724.43 678.941C724.68 679.566 724.961 680.332 725.273 681.238C725.617 682.113 726.023 683.098 726.492 684.191C725.93 684.191 725.383 684.207 724.852 684.238C724.32 684.238 723.836 684.254 723.398 684.285C722.898 684.316 722.43 684.348 721.992 684.379C721.492 684.41 720.93 684.473 720.305 684.566C719.773 684.629 719.102 684.723 718.289 684.848C717.508 684.973 716.617 685.129 715.617 685.316C716.273 684.379 716.789 683.52 717.164 682.738C717.57 681.926 717.867 681.223 718.055 680.629C718.273 679.941 718.414 679.316 718.477 678.754C718.508 678.285 718.508 677.457 718.477 676.27C718.477 675.082 718.461 673.707 718.43 672.145C718.398 670.582 718.352 668.941 718.289 667.223C718.227 665.504 718.148 663.895 718.055 662.395C717.961 660.863 717.852 659.551 717.727 658.457C717.633 657.363 717.539 656.645 717.445 656.301C717.32 655.895 717.102 655.457 716.789 654.988C716.539 654.582 716.18 654.113 715.711 653.582C715.273 653.02 714.711 652.395 714.023 651.707ZM723.727 660.941C723.695 661.254 723.68 661.582 723.68 661.926C723.68 662.582 723.727 663.426 723.82 664.457C724.039 664.988 724.305 665.426 724.617 665.77C724.961 666.113 725.32 666.379 725.695 666.566C726.102 666.754 726.508 666.879 726.914 666.941C727.32 667.004 727.727 667.035 728.133 667.035C729.07 667.004 730.055 666.785 731.086 666.379C732.461 665.785 733.43 664.941 733.992 663.848C734.555 662.754 734.852 661.629 734.883 660.473C734.914 659.316 734.711 658.254 734.273 657.285C733.867 656.316 733.367 655.66 732.773 655.316C732.273 655.098 731.633 655.004 730.852 655.035C730.164 655.066 729.305 655.238 728.273 655.551C727.242 655.863 725.977 656.426 724.477 657.238C724.32 657.801 724.195 658.301 724.102 658.738C724.008 659.176 723.93 659.566 723.867 659.91C723.805 660.285 723.758 660.629 723.727 660.941ZM744.633 651.285C745.539 651.441 746.336 651.551 747.023 651.613C747.742 651.676 748.336 651.723 748.805 651.754C749.367 651.785 749.852 651.801 750.258 651.801C750.664 651.801 751.242 651.77 751.992 651.707C752.617 651.645 753.43 651.566 754.43 651.473C755.461 651.379 756.727 651.223 758.227 651.004C757.789 651.129 757.383 651.488 757.008 652.082C756.664 652.645 756.352 653.254 756.07 653.91C755.727 654.691 755.43 655.551 755.18 656.488C754.961 657.332 754.68 658.488 754.336 659.957C754.023 661.426 753.711 663.02 753.398 664.738C753.117 666.457 752.898 668.207 752.742 669.988C752.586 671.738 752.555 673.348 752.648 674.816C752.773 676.285 753.07 677.504 753.539 678.473C754.008 679.41 754.727 679.91 755.695 679.973C757.164 680.098 758.383 680.113 759.352 680.02C760.352 679.895 761.164 679.723 761.789 679.504C762.414 679.285 762.898 679.035 763.242 678.754C763.586 678.441 763.852 678.145 764.039 677.863C764.539 677.145 765.055 676.223 765.586 675.098C766.117 673.973 766.586 672.895 766.992 671.863C767.43 670.832 767.789 669.957 768.07 669.238C768.352 668.52 768.492 668.176 768.492 668.207C768.492 668.27 768.477 668.629 768.445 669.285C768.445 669.91 768.43 670.676 768.398 671.582C768.398 672.457 768.383 673.379 768.352 674.348C768.352 675.316 768.336 676.145 768.305 676.832C768.273 677.395 768.242 678.02 768.211 678.707C768.18 679.301 768.148 680.004 768.117 680.816C768.117 681.629 768.086 682.52 768.023 683.488C766.711 683.395 765.461 683.332 764.273 683.301C763.086 683.27 762.039 683.254 761.133 683.254C760.07 683.254 759.086 683.27 758.18 683.301C757.211 683.332 756.086 683.379 754.805 683.441C753.711 683.504 752.352 683.582 750.727 683.676C749.102 683.738 747.227 683.832 745.102 683.957C745.352 683.52 745.555 683.113 745.711 682.738C745.898 682.363 746.039 682.051 746.133 681.801C746.258 681.488 746.336 681.223 746.367 681.004C746.555 680.004 746.711 678.738 746.836 677.207C746.961 675.645 747.055 673.988 747.117 672.238C747.211 670.488 747.258 668.707 747.258 666.895C747.289 665.051 747.289 663.348 747.258 661.785C747.227 660.223 747.164 658.863 747.07 657.707C747.008 656.551 746.914 655.754 746.789 655.316C746.633 654.816 746.445 654.316 746.227 653.816C746.039 653.379 745.805 652.941 745.523 652.504C745.273 652.035 744.977 651.629 744.633 651.285ZM777.07 653.535C778.633 653.629 779.945 653.707 781.008 653.77C782.102 653.801 783.008 653.832 783.727 653.863C784.539 653.895 785.227 653.895 785.789 653.863C786.352 653.832 787.117 653.754 788.086 653.629C788.898 653.535 789.977 653.395 791.32 653.207C792.695 652.988 794.398 652.707 796.43 652.363C795.711 653.082 795.148 653.738 794.742 654.332C794.367 654.895 794.07 655.379 793.852 655.785C793.602 656.285 793.43 656.707 793.336 657.051C793.273 657.363 793.336 658.145 793.523 659.395C793.711 660.645 793.977 662.129 794.32 663.848C794.664 665.535 795.039 667.348 795.445 669.285C795.852 671.191 796.258 672.988 796.664 674.676C797.07 676.332 797.43 677.754 797.742 678.941C798.086 680.098 798.336 680.785 798.492 681.004C798.961 681.66 799.258 682.098 799.383 682.316C799.508 682.504 799.727 682.676 800.039 682.832C800.164 682.895 800.367 682.988 800.648 683.113C800.898 683.238 801.227 683.395 801.633 683.582C802.07 683.77 802.617 683.988 803.273 684.238C802.055 684.301 801.008 684.348 800.133 684.379C799.258 684.379 798.539 684.395 797.977 684.426C797.32 684.457 796.758 684.488 796.289 684.52C795.82 684.52 795.258 684.551 794.602 684.613C794.039 684.676 793.305 684.738 792.398 684.801C791.523 684.863 790.492 684.926 789.305 684.988C789.93 684.551 790.43 684.16 790.805 683.816C791.211 683.441 791.523 683.129 791.742 682.879C791.992 682.566 792.164 682.285 792.258 682.035C792.32 681.754 792.367 681.332 792.398 680.77C792.43 680.27 792.43 679.613 792.398 678.801C792.367 677.957 792.289 676.863 792.164 675.52L779.836 676.785C779.523 677.316 779.289 677.785 779.133 678.191C778.977 678.566 778.867 678.895 778.805 679.176C778.711 679.52 778.68 679.801 778.711 680.02C778.773 680.27 778.883 680.566 779.039 680.91C779.195 681.223 779.414 681.598 779.695 682.035C780.008 682.441 780.461 682.926 781.055 683.488C780.273 683.457 779.477 683.441 778.664 683.441C777.852 683.441 777.102 683.457 776.414 683.488C775.602 683.52 774.805 683.551 774.023 683.582C773.242 683.613 772.352 683.66 771.352 683.723C770.508 683.785 769.523 683.863 768.398 683.957C767.242 684.02 766.008 684.113 764.695 684.238C765.508 683.863 766.195 683.488 766.758 683.113C767.32 682.707 767.789 682.332 768.164 681.988C768.602 681.613 768.977 681.254 769.289 680.91C769.508 680.598 769.945 679.879 770.602 678.754C771.258 677.598 771.992 676.238 772.805 674.676C773.648 673.113 774.523 671.441 775.43 669.66C776.367 667.879 777.211 666.207 777.961 664.645C778.711 663.051 779.32 661.676 779.789 660.52C780.258 659.363 780.492 658.613 780.492 658.27C780.43 657.863 780.273 657.41 780.023 656.91C779.805 656.473 779.461 655.973 778.992 655.41C778.555 654.848 777.914 654.223 777.07 653.535ZM791.602 672.051C791.414 670.957 791.242 670.02 791.086 669.238C790.93 668.426 790.805 667.754 790.711 667.223C790.586 666.598 790.492 666.051 790.43 665.582C790.336 665.145 790.227 664.582 790.102 663.895C789.977 663.301 789.82 662.566 789.633 661.691C789.477 660.785 789.273 659.707 789.023 658.457C787.242 662.02 785.852 664.785 784.852 666.754C783.883 668.691 783.18 670.113 782.742 671.02C782.211 672.082 781.914 672.707 781.852 672.895L791.602 672.051ZM800.602 652.035C802.008 652.285 803.164 652.457 804.07 652.551C804.977 652.645 805.711 652.723 806.273 652.785C806.93 652.848 807.445 652.863 807.82 652.832H809.227C809.727 652.832 810.352 652.832 811.102 652.832C811.883 652.801 812.852 652.785 814.008 652.785C814.664 654.316 815.258 655.723 815.789 657.004C816.352 658.285 816.82 659.379 817.195 660.285C817.633 661.379 818.039 662.363 818.414 663.238C818.852 664.332 819.32 665.535 819.82 666.848C820.32 668.16 820.773 669.395 821.18 670.551C821.617 671.707 821.977 672.66 822.258 673.41C822.539 674.16 822.68 674.504 822.68 674.441C822.68 674.41 822.695 674.098 822.727 673.504C822.758 672.879 822.789 672.113 822.82 671.207C822.852 670.27 822.883 669.254 822.914 668.16C822.977 667.035 823.008 665.957 823.008 664.926C823.039 663.863 823.055 662.895 823.055 662.02C823.055 661.145 823.023 660.488 822.961 660.051C822.867 659.52 822.68 658.91 822.398 658.223C822.148 657.629 821.805 656.926 821.367 656.113C820.93 655.27 820.32 654.316 819.539 653.254C820.82 653.285 821.867 653.301 822.68 653.301C823.492 653.301 824.148 653.301 824.648 653.301C825.211 653.301 825.648 653.285 825.961 653.254C826.367 653.254 826.867 653.223 827.461 653.16C827.992 653.098 828.648 653.051 829.43 653.02C830.242 652.957 831.242 652.879 832.43 652.785C831.742 653.41 831.195 654.004 830.789 654.566C830.383 655.129 830.055 655.629 829.805 656.066C829.523 656.566 829.336 657.035 829.242 657.473C829.117 658.035 829.008 658.957 828.914 660.238C828.852 661.488 828.773 662.895 828.68 664.457C828.617 666.02 828.555 667.645 828.492 669.332C828.43 671.02 828.367 672.566 828.305 673.973C828.305 675.035 828.273 676.176 828.211 677.395C828.148 678.426 828.086 679.598 828.023 680.91C827.961 682.191 827.883 683.488 827.789 684.801L823.617 684.895C822.398 682.738 821.367 680.895 820.523 679.363C819.711 677.801 819.039 676.52 818.508 675.52C817.914 674.363 817.414 673.395 817.008 672.613C816.664 671.863 816.211 671.004 815.648 670.035C815.18 669.223 814.586 668.223 813.867 667.035C813.18 665.848 812.352 664.488 811.383 662.957C811.289 665.113 811.242 666.957 811.242 668.488C811.273 669.988 811.32 671.238 811.383 672.238C811.477 673.395 811.586 674.363 811.711 675.145C811.867 675.895 812.086 676.738 812.367 677.676C812.617 678.488 812.914 679.441 813.258 680.535C813.633 681.629 814.086 682.863 814.617 684.238C812.773 684.145 811.398 684.098 810.492 684.098H809.086C808.648 684.098 808.055 684.145 807.305 684.238C806.68 684.301 805.82 684.395 804.727 684.52C803.664 684.645 802.336 684.816 800.742 685.035C801.492 684.129 802.086 683.301 802.523 682.551C802.992 681.77 803.352 681.113 803.602 680.582C803.914 679.957 804.133 679.41 804.258 678.941C804.352 678.441 804.414 677.582 804.445 676.363C804.477 675.113 804.477 673.707 804.445 672.145C804.445 670.551 804.414 668.879 804.352 667.129C804.32 665.379 804.273 663.754 804.211 662.254C804.148 660.754 804.07 659.473 803.977 658.41C803.914 657.348 803.867 656.691 803.836 656.441C803.742 656.035 803.555 655.598 803.273 655.129C803.023 654.723 802.695 654.27 802.289 653.77C801.883 653.238 801.32 652.66 800.602 652.035ZM830.789 651.051C832.883 651.301 834.695 651.488 836.227 651.613C837.758 651.707 839.023 651.785 840.023 651.848C841.18 651.91 842.148 651.926 842.93 651.895C843.742 651.863 844.852 651.785 846.258 651.66C847.445 651.566 849.008 651.441 850.945 651.285C852.883 651.098 855.305 650.848 858.211 650.535C858.242 651.254 858.258 651.957 858.258 652.645C858.289 653.301 858.32 653.879 858.352 654.379C858.383 654.973 858.398 655.52 858.398 656.02C858.398 656.551 858.367 657.223 858.305 658.035C858.242 658.723 858.133 659.598 857.977 660.66C857.852 661.691 857.648 662.926 857.367 664.363C856.93 662.676 856.508 661.316 856.102 660.285C855.695 659.223 855.32 658.379 854.977 657.754C854.602 657.035 854.227 656.488 853.852 656.113C853.445 655.832 852.961 655.598 852.398 655.41C851.898 655.254 851.258 655.129 850.477 655.035C849.727 654.941 848.836 654.957 847.805 655.082C847.648 659.207 847.539 662.551 847.477 665.113C847.414 667.676 847.367 669.676 847.336 671.113C847.305 672.832 847.289 674.066 847.289 674.816C847.32 675.879 847.492 676.926 847.805 677.957C848.055 678.832 848.461 679.738 849.023 680.676C849.586 681.613 850.398 682.441 851.461 683.16H845.742C845.211 683.16 844.555 683.191 843.773 683.254C843.117 683.316 842.273 683.379 841.242 683.441C840.242 683.504 839.07 683.613 837.727 683.77C838.195 682.957 838.57 682.223 838.852 681.566C839.133 680.91 839.352 680.348 839.508 679.879C839.695 679.316 839.836 678.816 839.93 678.379C839.961 677.754 840.039 676.488 840.164 674.582C840.195 673.801 840.227 672.832 840.258 671.676C840.32 670.52 840.383 669.145 840.445 667.551C840.539 665.957 840.617 664.129 840.68 662.066C840.773 659.973 840.867 657.613 840.961 654.988C840.398 654.832 839.867 654.848 839.367 655.035C838.867 655.191 838.43 655.395 838.055 655.645C837.617 655.957 837.195 656.332 836.789 656.77C836.383 657.301 835.93 657.988 835.43 658.832C834.992 659.551 834.492 660.504 833.93 661.691C833.367 662.848 832.727 664.285 832.008 666.004C831.852 664.191 831.742 662.707 831.68 661.551C831.617 660.363 831.57 659.441 831.539 658.785C831.508 658.004 831.492 657.426 831.492 657.051C831.492 656.707 831.461 656.254 831.398 655.691C831.336 655.223 831.258 654.613 831.164 653.863C831.07 653.082 830.945 652.145 830.789 651.051ZM862.664 653.535C864.227 653.629 865.539 653.707 866.602 653.77C867.695 653.801 868.602 653.832 869.32 653.863C870.133 653.895 870.82 653.895 871.383 653.863C871.945 653.832 872.711 653.754 873.68 653.629C874.492 653.535 875.57 653.395 876.914 653.207C878.289 652.988 879.992 652.707 882.023 652.363C881.305 653.082 880.742 653.738 880.336 654.332C879.961 654.895 879.664 655.379 879.445 655.785C879.195 656.285 879.023 656.707 878.93 657.051C878.867 657.363 878.93 658.145 879.117 659.395C879.305 660.645 879.57 662.129 879.914 663.848C880.258 665.535 880.633 667.348 881.039 669.285C881.445 671.191 881.852 672.988 882.258 674.676C882.664 676.332 883.023 677.754 883.336 678.941C883.68 680.098 883.93 680.785 884.086 681.004C884.555 681.66 884.852 682.098 884.977 682.316C885.102 682.504 885.32 682.676 885.633 682.832C885.758 682.895 885.961 682.988 886.242 683.113C886.492 683.238 886.82 683.395 887.227 683.582C887.664 683.77 888.211 683.988 888.867 684.238C887.648 684.301 886.602 684.348 885.727 684.379C884.852 684.379 884.133 684.395 883.57 684.426C882.914 684.457 882.352 684.488 881.883 684.52C881.414 684.52 880.852 684.551 880.195 684.613C879.633 684.676 878.898 684.738 877.992 684.801C877.117 684.863 876.086 684.926 874.898 684.988C875.523 684.551 876.023 684.16 876.398 683.816C876.805 683.441 877.117 683.129 877.336 682.879C877.586 682.566 877.758 682.285 877.852 682.035C877.914 681.754 877.961 681.332 877.992 680.77C878.023 680.27 878.023 679.613 877.992 678.801C877.961 677.957 877.883 676.863 877.758 675.52L865.43 676.785C865.117 677.316 864.883 677.785 864.727 678.191C864.57 678.566 864.461 678.895 864.398 679.176C864.305 679.52 864.273 679.801 864.305 680.02C864.367 680.27 864.477 680.566 864.633 680.91C864.789 681.223 865.008 681.598 865.289 682.035C865.602 682.441 866.055 682.926 866.648 683.488C865.867 683.457 865.07 683.441 864.258 683.441C863.445 683.441 862.695 683.457 862.008 683.488C861.195 683.52 860.398 683.551 859.617 683.582C858.836 683.613 857.945 683.66 856.945 683.723C856.102 683.785 855.117 683.863 853.992 683.957C852.836 684.02 851.602 684.113 850.289 684.238C851.102 683.863 851.789 683.488 852.352 683.113C852.914 682.707 853.383 682.332 853.758 681.988C854.195 681.613 854.57 681.254 854.883 680.91C855.102 680.598 855.539 679.879 856.195 678.754C856.852 677.598 857.586 676.238 858.398 674.676C859.242 673.113 860.117 671.441 861.023 669.66C861.961 667.879 862.805 666.207 863.555 664.645C864.305 663.051 864.914 661.676 865.383 660.52C865.852 659.363 866.086 658.613 866.086 658.27C866.023 657.863 865.867 657.41 865.617 656.91C865.398 656.473 865.055 655.973 864.586 655.41C864.148 654.848 863.508 654.223 862.664 653.535ZM877.195 672.051C877.008 670.957 876.836 670.02 876.68 669.238C876.523 668.426 876.398 667.754 876.305 667.223C876.18 666.598 876.086 666.051 876.023 665.582C875.93 665.145 875.82 664.582 875.695 663.895C875.57 663.301 875.414 662.566 875.227 661.691C875.07 660.785 874.867 659.707 874.617 658.457C872.836 662.02 871.445 664.785 870.445 666.754C869.477 668.691 868.773 670.113 868.336 671.02C867.805 672.082 867.508 672.707 867.445 672.895L877.195 672.051ZM884.742 651.051C885.742 651.207 886.648 651.348 887.461 651.473C888.273 651.566 888.977 651.645 889.57 651.707C890.258 651.801 890.867 651.879 891.398 651.941C892.055 652.035 893.039 651.926 894.352 651.613C895.664 651.27 897.102 650.957 898.664 650.676C900.258 650.363 901.883 650.191 903.539 650.16C905.195 650.098 906.711 650.395 908.086 651.051C909.461 651.707 910.586 652.363 911.461 653.02C912.336 653.676 913.023 654.379 913.523 655.129C914.055 655.848 914.43 656.613 914.648 657.426C914.867 658.238 914.992 659.129 915.023 660.098C914.992 661.535 914.648 662.926 913.992 664.27C913.711 664.832 913.336 665.426 912.867 666.051C912.43 666.645 911.883 667.223 911.227 667.785C910.57 668.348 909.789 668.879 908.883 669.379C908.008 669.879 906.977 670.316 905.789 670.691C906.945 671.035 907.898 671.441 908.648 671.91C909.43 672.379 910.055 672.816 910.523 673.223C911.086 673.723 911.508 674.207 911.789 674.676C912.133 675.332 912.367 675.895 912.492 676.363C912.617 676.832 912.695 677.285 912.727 677.723C912.789 678.129 912.867 678.551 912.961 678.988C913.055 679.426 913.258 679.926 913.57 680.488C913.82 680.926 914.117 681.379 914.461 681.848C914.773 682.254 915.133 682.691 915.539 683.16C915.977 683.629 916.508 684.082 917.133 684.52C916.258 684.551 915.445 684.566 914.695 684.566C913.977 684.566 913.352 684.566 912.82 684.566C912.195 684.566 911.602 684.551 911.039 684.52C910.477 684.488 909.773 684.473 908.93 684.473C908.211 684.473 907.289 684.473 906.164 684.473C905.07 684.473 903.742 684.488 902.18 684.52C902.867 683.988 903.43 683.457 903.867 682.926C904.305 682.395 904.648 681.91 904.898 681.473C905.18 680.973 905.383 680.488 905.508 680.02C905.664 679.176 905.68 678.301 905.555 677.395C905.461 676.613 905.211 675.754 904.805 674.816C904.398 673.848 903.742 672.879 902.836 671.91C901.93 672.066 901.164 672.191 900.539 672.285C899.945 672.348 899.43 672.41 898.992 672.473C898.492 672.535 898.086 672.582 897.773 672.613C897.492 672.645 897.18 672.676 896.836 672.707C896.555 672.738 896.242 672.785 895.898 672.848C895.586 672.879 895.289 672.926 895.008 672.988C894.945 674.332 894.945 675.504 895.008 676.504C895.07 677.473 895.148 678.285 895.242 678.941C895.367 679.723 895.508 680.395 895.664 680.957C895.82 681.52 896.039 682.066 896.32 682.598C896.539 683.035 896.82 683.504 897.164 684.004C897.508 684.473 897.898 684.863 898.336 685.176C897.523 685.176 896.742 685.176 895.992 685.176C895.273 685.176 894.617 685.16 894.023 685.129C893.336 685.129 892.68 685.113 892.055 685.082C891.43 685.051 890.727 685.035 889.945 685.035C889.289 685.035 888.508 685.035 887.602 685.035C886.727 685.035 885.773 685.051 884.742 685.082C885.555 684.238 886.195 683.52 886.664 682.926C887.133 682.332 887.492 681.832 887.742 681.426C888.023 680.988 888.195 680.613 888.258 680.301C888.32 679.801 888.367 678.91 888.398 677.629C888.461 676.316 888.508 674.816 888.539 673.129C888.57 671.441 888.586 669.676 888.586 667.832C888.586 665.988 888.57 664.27 888.539 662.676C888.508 661.051 888.477 659.66 888.445 658.504C888.414 657.348 888.383 656.613 888.352 656.301C888.258 655.738 888.055 655.176 887.742 654.613C887.492 654.113 887.133 653.551 886.664 652.926C886.195 652.301 885.555 651.676 884.742 651.051ZM902.461 667.551C902.773 667.363 903.039 667.176 903.258 666.988C903.477 666.801 903.664 666.504 903.82 666.098C903.977 665.66 904.102 665.051 904.195 664.27C904.32 663.488 904.461 662.426 904.617 661.082C904.742 659.738 904.648 658.629 904.336 657.754C904.055 656.879 903.664 656.191 903.164 655.691C902.695 655.16 902.164 654.801 901.57 654.613C901.008 654.395 900.508 654.285 900.07 654.285C899.195 654.285 898.336 654.551 897.492 655.082C896.648 655.613 896.008 656.332 895.57 657.238C895.414 657.645 895.273 658.316 895.148 659.254C895.055 660.066 894.992 661.191 894.961 662.629C894.93 664.066 894.977 665.957 895.102 668.301C896.289 668.488 897.336 668.566 898.242 668.535C899.148 668.473 899.914 668.363 900.539 668.207C901.289 668.051 901.93 667.832 902.461 667.551Z" fill="black"/>
</svg>
