<svg width="1000" height="1000" viewBox="0 0 1000 1000" fill="none" xmlns="http://www.w3.org/2000/svg">
<g clip-path="url(#clip0_315_3589)">
<rect x="707.527" y="745.489" width="182.784" height="240.115" fill="#FF7DEA" stroke="black" stroke-width="4"/>
<rect x="853.242" y="747.877" width="35.0931" height="236.018" fill="black" fill-opacity="0.25"/>
<rect x="714.541" y="747.877" width="18.3821" height="236.018" fill="white" fill-opacity="0.25"/>
<path d="M883.756 719.832H887.291L885.471 716.802L847.368 653.383C845.56 650.374 842.306 648.533 838.796 648.533H759.042C755.532 648.533 752.278 650.374 750.47 653.383L712.368 716.802L710.547 719.832H714.082H883.756Z" fill="#9F50FF" stroke="black" stroke-width="4"/>
<path d="M816.477 650.533H838.795C841.604 650.533 844.206 652.006 845.653 654.413L883.755 717.832H843.322L816.477 650.533Z" fill="black" fill-opacity="0.25"/>
<path d="M760.932 650.533H758.666C755.858 650.533 753.255 652.006 751.809 654.413L713.706 717.832H723.315L760.932 650.533Z" fill="white" fill-opacity="0.25"/>
<path d="M778.521 622.299H777.531L776.931 623.085L771.707 629.929L769.254 633.143H773.297H824.541H828.583L826.131 629.929L820.907 623.085L820.306 622.299H819.317H778.521Z" fill="white" stroke="black" stroke-width="4"/>
<path d="M709.527 986.167H707.527V988.167V1003.84C707.527 1008.26 711.109 1011.84 715.527 1011.84H882.312C886.73 1011.84 890.312 1008.26 890.312 1003.84V988.167V986.167H888.312H709.527Z" fill="white" stroke="black" stroke-width="4"/>
<path d="M888.312 746.067H890.312V744.067V727.254C890.312 722.836 886.73 719.254 882.312 719.254H715.527C711.109 719.254 707.527 722.836 707.527 727.254V744.067V746.067H709.527H888.312Z" fill="white" stroke="black" stroke-width="4"/>
<rect x="763.326" y="633.705" width="71.1864" height="15.4065" rx="4" fill="white" stroke="black" stroke-width="4"/>
<path d="M813.154 621.736H815.154V619.736V600.063C815.154 597.854 813.363 596.063 811.154 596.063H787.824C785.615 596.063 783.824 597.854 783.824 600.063V619.736V621.736H785.824H813.154Z" fill="white" stroke="black" stroke-width="4"/>
<rect x="707.527" y="745.489" width="182.784" height="240.115" fill="#82EB68" stroke="black" stroke-width="4"/>
<g filter="url(#filter0_d_315_3589)">
<ellipse cx="787.454" cy="879.656" rx="22.4537" ry="31.656" fill="black"/>
<g filter="url(#filter1_i_315_3589)">
<path d="M804.019 893.464C804.019 898.953 796.603 906.715 787.455 906.715C778.307 906.715 770.891 898.953 770.891 893.464C770.891 887.975 778.252 879.844 787.455 883.525C797.393 880.58 804.019 887.975 804.019 893.464Z" fill="#E40303"/>
</g>
</g>
<path d="M793.712 881.864C788.559 881.128 780.314 886.502 782.67 896.22" stroke="black" stroke-width="2" stroke-linecap="round"/>
<path d="M834.086 784.223L805.17 801.084L834.086 817.944" stroke="black" stroke-width="7"/>
<ellipse cx="822.5" cy="827.335" rx="24.9998" ry="6.66661" fill="#E40303"/>
<path d="M735.968 784L764.885 800.861L735.968 817.722" stroke="black" stroke-width="7"/>
<ellipse cx="750.5" cy="826.777" rx="24.9998" ry="6.66661" fill="#E40303"/>
<rect x="853.242" y="745.365" width="35.0931" height="238.529" fill="black" fill-opacity="0.25"/>
<rect x="714.541" y="747.877" width="18.3821" height="236.018" fill="white" fill-opacity="0.25"/>
<rect x="844.453" y="764.125" width="18.5837" height="206.003" rx="9.29187" fill="white" fill-opacity="0.7"/>
<rect x="823.393" y="764.125" width="11.1502" height="11.1689" rx="5.5751" fill="white" fill-opacity="0.7"/>
<rect width="61.8306" height="21.7606" transform="matrix(1 0 0 -1 737.102 1009.84)" fill="#D7D6DC"/>
<path d="M883.756 719.832H887.291L885.471 716.802L847.368 653.383C845.56 650.374 842.306 648.533 838.796 648.533H759.042C755.532 648.533 752.278 650.374 750.47 653.383L712.368 716.802L710.547 719.832H714.082H883.756Z" fill="#D7D6DC" stroke="black" stroke-width="4"/>
<path d="M816.477 650.533H838.795C841.604 650.533 844.206 652.006 845.653 654.413L883.755 717.832H843.322L816.477 650.533Z" fill="black" fill-opacity="0.25"/>
<path d="M760.932 650.533H758.666C755.858 650.533 753.255 652.006 751.809 654.413L713.706 717.832H723.315L760.932 650.533Z" fill="white" fill-opacity="0.25"/>
<mask id="path-28-outside-1_315_3589" maskUnits="userSpaceOnUse" x="764.836" y="621.135" width="69" height="15" fill="black">
<rect fill="white" x="764.836" y="621.135" width="69" height="15"/>
<path d="M779.014 625.135H819.453L824.632 631.34H773.836L779.014 625.135Z"/>
</mask>
<path d="M779.014 625.135H819.453L824.632 631.34H773.836L779.014 625.135Z" fill="white"/>
<path d="M779.014 625.135V621.135H777.142L775.943 622.572L779.014 625.135ZM819.453 625.135L822.525 622.572C821.765 621.661 820.64 621.135 819.453 621.135V625.135ZM824.632 631.34V635.34H833.179L827.703 628.777L824.632 631.34ZM773.836 631.34L770.765 628.777L765.288 635.34H773.836V631.34ZM779.014 629.135H819.453V621.135H779.014V629.135ZM816.382 627.698L821.56 633.903L827.703 628.777L822.525 622.572L816.382 627.698ZM824.632 627.34H773.836V635.34H824.632V627.34ZM776.907 633.903L782.085 627.698L775.943 622.572L770.765 628.777L776.907 633.903Z" fill="black" mask="url(#path-28-outside-1_315_3589)"/>
<path d="M809.145 625.135H819.453L824.631 631.34H809.145V625.135Z" fill="black" fill-opacity="0.25"/>
<path d="M853.242 988.079H888.335V1003.84C888.335 1007.15 885.649 1009.84 882.335 1009.84H853.242V988.079Z" fill="black" fill-opacity="0.25"/>
<path d="M888.312 746.067H890.312V744.067V727.254C890.312 722.836 886.73 719.254 882.312 719.254H715.527C711.109 719.254 707.527 722.836 707.527 727.254V744.067V746.067H709.527H888.312Z" fill="white" stroke="black" stroke-width="4"/>
<path d="M844.051 721.094H882.335C885.649 721.094 888.335 723.78 888.335 727.094V745.365H844.051V721.094Z" fill="black" fill-opacity="0.25"/>
<rect x="763.164" y="634.303" width="70.9015" height="12.6869" rx="4" fill="white" stroke="black" stroke-width="4"/>
<rect x="808.525" y="636.303" width="23.5394" height="8.6869" rx="2" fill="black" fill-opacity="0.25"/>
<path d="M813.154 621.736H815.154V619.736V600.063C815.154 597.854 813.363 596.063 811.154 596.063H787.824C785.615 596.063 783.824 597.854 783.824 600.063V619.736V621.736H785.824H813.154Z" fill="white" stroke="black" stroke-width="4"/>
<path d="M806.451 600.063C806.451 598.959 807.347 598.063 808.451 598.063H811.136C812.24 598.063 813.136 598.959 813.136 600.063V619.824H806.451V600.063Z" fill="black" fill-opacity="0.25"/>
<path d="M782.221 607.264C782.221 605.418 783.717 603.922 785.563 603.922V603.922C787.409 603.922 788.905 605.418 788.905 607.264V608.949C788.905 610.795 787.409 612.291 785.563 612.291V612.291C783.717 612.291 782.221 610.795 782.221 608.949V607.264Z" fill="black" fill-opacity="0.25"/>
<path fill-rule="evenodd" clip-rule="evenodd" d="M598.502 689.29C585.832 689.29 574.614 683.062 567.734 673.496C558.645 683.216 545.717 689.29 531.373 689.29C504.428 689.29 482.481 667.858 481.594 641.084C462.241 635.851 448 618.143 448 597.103C448 571.946 468.36 551.552 493.475 551.552V551.551C493.475 526.394 513.835 506 538.95 506C553.072 506 565.691 512.448 574.032 522.565C580.634 516.967 589.174 513.592 598.502 513.592C619.431 513.592 636.398 530.587 636.398 551.551C636.398 553.764 636.209 555.932 635.846 558.041L765.245 602.219V614.857L636.386 652.316C635.864 672.825 619.102 689.29 598.502 689.29Z" fill="#F5FFF2"/>
<path d="M618.971 633.201L761.748 611.873L765.246 614.857L618.971 641.888V633.201Z" fill="#C4C4C4"/>
<path d="M614.635 571.773L742.243 597.213L726.757 591.008L614.635 561.845V571.773Z" fill="#C4C4C4"/>
<path d="M622.068 606.665H746.579V605.278L622.068 595.351V606.665Z" fill="#C4C4C4"/>
<path d="M636.229 555.128C636.716 549.978 636.147 544.782 634.556 539.861C632.966 534.939 630.387 530.395 626.98 526.507C623.573 522.62 619.408 519.471 614.742 517.254C610.075 515.037 605.006 513.799 599.845 513.616C594.683 513.432 589.539 514.308 584.728 516.188C579.916 518.068 575.539 520.914 571.866 524.55C568.192 528.186 565.299 532.536 563.365 537.332C561.43 542.129 560.495 547.271 560.616 552.443L571.911 552.177C571.826 548.547 572.482 544.938 573.84 541.571C575.198 538.205 577.228 535.152 579.807 532.6C582.385 530.048 585.457 528.051 588.834 526.731C592.211 525.411 595.822 524.797 599.444 524.925C603.067 525.054 606.625 525.923 609.9 527.479C613.175 529.035 616.098 531.245 618.49 533.974C620.881 536.702 622.691 539.892 623.807 543.346C624.924 546.8 625.323 550.447 624.982 554.062L636.229 555.128Z" fill="#C4C4C4"/>
<path d="M636.398 651.331C636.398 656.71 635.257 662.028 633.049 666.932C630.842 671.837 627.619 676.215 623.595 679.777C619.57 683.339 614.836 686.003 609.705 687.594C604.575 689.184 599.165 689.664 593.836 689.001C588.506 688.339 583.378 686.549 578.791 683.751C574.204 680.953 570.263 677.211 567.23 672.771C564.196 668.332 562.139 663.298 561.195 658.002C560.251 652.706 560.442 647.27 561.755 642.054L576.883 645.873C576.11 648.942 575.998 652.14 576.554 655.256C577.109 658.371 578.319 661.333 580.104 663.945C581.888 666.556 584.207 668.758 586.905 670.404C589.604 672.051 592.621 673.103 595.757 673.493C598.892 673.883 602.075 673.601 605.093 672.665C608.111 671.729 610.897 670.162 613.264 668.066C615.632 665.97 617.528 663.395 618.827 660.509C620.125 657.624 620.797 654.496 620.797 651.331H636.398Z" fill="#C4C4C4"/>
<path d="M573.933 522.447C569.905 517.59 564.914 513.625 559.275 510.803C553.636 507.981 547.473 506.364 541.178 506.055C534.882 505.745 528.591 506.751 522.703 509.006C516.816 511.262 511.461 514.719 506.979 519.158C502.496 523.597 498.984 528.921 496.665 534.792C494.345 540.663 493.27 546.953 493.507 553.262C493.743 559.571 495.287 565.763 498.039 571.443C500.792 577.123 504.693 582.168 509.496 586.257L519.671 574.267C516.528 571.591 513.975 568.289 512.173 564.571C510.371 560.853 509.361 556.801 509.206 552.671C509.051 548.541 509.755 544.425 511.273 540.582C512.791 536.739 515.09 533.254 518.024 530.349C520.958 527.444 524.463 525.181 528.316 523.704C532.17 522.228 536.287 521.57 540.408 521.773C544.529 521.975 548.563 523.033 552.253 524.88C555.944 526.727 559.211 529.323 561.847 532.502L573.933 522.447Z" fill="#C4C4C4"/>
<path d="M508.549 640.08C502.352 642.26 495.757 643.071 489.218 642.455C482.679 641.839 476.351 639.811 470.669 636.512C464.986 633.212 460.085 628.719 456.302 623.341C452.519 617.964 449.943 611.829 448.753 605.359C447.563 598.889 447.786 592.238 449.406 585.862C451.027 579.487 454.008 573.539 458.142 568.427C462.277 563.315 467.468 559.162 473.358 556.251C479.249 553.341 485.698 551.743 492.264 551.568L492.643 565.821C488.133 565.941 483.702 567.039 479.655 569.038C475.608 571.037 472.042 573.891 469.202 577.403C466.361 580.914 464.314 585.001 463.2 589.381C462.087 593.76 461.934 598.33 462.751 602.775C463.569 607.22 465.338 611.434 467.937 615.129C470.536 618.823 473.904 621.91 477.807 624.177C481.711 626.444 486.058 627.836 490.551 628.26C495.043 628.683 499.574 628.126 503.831 626.628L508.549 640.08Z" fill="#C4C4C4"/>
<path d="M569.794 671.148C563.525 678.76 555.144 684.338 545.71 687.179C536.276 690.019 526.213 689.993 516.794 687.105C507.375 684.217 499.022 678.596 492.792 670.952C486.562 663.309 482.735 653.987 481.794 644.164L495.772 642.821C496.447 649.874 499.195 656.568 503.669 662.057C508.142 667.546 514.14 671.582 520.904 673.656C527.668 675.73 534.894 675.748 541.668 673.709C548.442 671.669 554.461 667.663 558.962 662.198L569.794 671.148Z" fill="#C4C4C4"/>
<path d="M574.716 622.198C571.178 622.567 567.602 622.189 564.218 621.09C560.834 619.991 557.717 618.195 555.068 615.816C552.419 613.438 550.297 610.53 548.837 607.28C547.378 604.031 546.614 600.511 546.594 596.948C546.575 593.384 547.3 589.856 548.724 586.591C550.148 583.325 552.239 580.395 554.861 577.987C557.484 575.58 560.581 573.749 563.953 572.613C567.325 571.477 570.897 571.061 574.439 571.391L573.387 582.717C571.423 582.534 569.443 582.765 567.573 583.395C565.704 584.024 563.987 585.039 562.533 586.374C561.079 587.709 559.92 589.333 559.131 591.144C558.341 592.954 557.939 594.91 557.95 596.885C557.961 598.861 558.384 600.812 559.193 602.614C560.002 604.416 561.179 606.027 562.648 607.346C564.116 608.665 565.844 609.661 567.72 610.27C569.596 610.879 571.579 611.088 573.541 610.884L574.716 622.198Z" fill="#C4C4C4"/>
<path d="M615.456 547.624C613.886 547.094 612.184 547.937 611.654 549.507C611.124 551.077 611.967 552.779 613.536 553.309L615.456 547.624ZM767.752 602.219L770.448 603.535L771.946 600.468L768.712 599.376L767.752 602.219ZM767.752 614.857L768.538 617.752L772.036 616.804L770.45 613.545L767.752 614.857ZM613.711 653.516C612.112 653.95 611.167 655.598 611.601 657.197C612.034 658.796 613.682 659.741 615.281 659.307L613.711 653.516ZM613.536 553.309L766.793 605.061L768.712 599.376L615.456 547.624L613.536 553.309ZM766.967 611.961L613.711 653.516L615.281 659.307L768.538 617.752L766.967 611.961ZM765.057 600.902C762.705 605.717 762.715 611.36 765.055 616.169L770.45 613.545C768.914 610.386 768.911 606.682 770.448 603.535L765.057 600.902Z" fill="black"/>
<path d="M636.298 548.781L639.29 548.563L636.298 548.781ZM631.665 533.18L629.039 534.63V534.63L631.665 533.18ZM620.935 520.956L619.157 523.373L620.935 520.956ZM606.08 514.358L605.479 517.298L606.08 514.358ZM589.832 514.599L589.144 511.679L589.144 511.679L589.832 514.599ZM575.178 521.634L573.33 519.271L575.178 521.634ZM564.813 534.17L562.145 532.798H562.145L564.813 534.17ZM557.645 549.771C557.574 551.427 558.857 552.827 560.512 552.899C562.168 552.971 563.568 551.687 563.64 550.032L557.645 549.771ZM637.555 561.872C638.539 559.245 639.133 557.329 639.374 555.276C639.61 553.266 639.487 551.261 639.29 548.563L633.306 549C633.509 551.777 633.574 553.222 633.415 554.577C633.261 555.889 632.878 557.255 631.936 559.767L637.555 561.872ZM639.29 548.563C638.859 542.656 637.154 536.913 634.292 531.73L629.039 534.63C631.482 539.054 632.938 543.957 633.306 549L639.29 548.563ZM634.292 531.73C631.43 526.547 627.48 522.046 622.713 518.54L619.157 523.373C623.225 526.365 626.596 530.206 629.039 534.63L634.292 531.73ZM622.713 518.54C617.946 515.033 612.476 512.604 606.681 511.419L605.479 517.298C610.423 518.308 615.09 520.381 619.157 523.373L622.713 518.54ZM606.681 511.419C600.885 510.234 594.902 510.323 589.144 511.679L590.519 517.519C595.431 516.363 600.535 516.287 605.479 517.298L606.681 511.419ZM589.144 511.679C583.386 513.034 577.991 515.625 573.33 519.271L577.027 523.997C581.004 520.885 585.607 518.675 590.519 517.519L589.144 511.679ZM573.33 519.271C568.669 522.917 564.853 527.532 562.145 532.798L567.481 535.542C569.792 531.047 573.049 527.108 577.027 523.997L573.33 519.271ZM562.145 532.798C559.438 538.063 557.902 543.854 557.645 549.771L563.64 550.032C563.859 544.98 565.17 540.036 567.481 535.542L562.145 532.798Z" fill="black"/>
<path d="M634.104 664.337L631.285 663.311L631.285 663.311L634.104 664.337ZM611.368 687.036L610.348 684.215L611.368 687.036ZM595.059 689.134L595.332 686.147L595.059 689.134ZM579.399 684.115L580.913 681.526H580.913L579.399 684.115ZM567.335 672.925L569.803 671.221L567.335 672.925ZM561.138 657.67L564.096 657.17L561.138 657.67ZM564.866 642.019C565.307 640.422 564.369 638.77 562.772 638.33C561.175 637.889 559.523 638.827 559.082 640.424L564.866 642.019ZM633.264 648.271C633.711 653.369 633.036 658.503 631.285 663.311L636.923 665.364C638.974 659.732 639.765 653.718 639.241 647.746L633.264 648.271ZM631.285 663.311C629.535 668.119 626.752 672.482 623.134 676.094L627.374 680.34C631.613 676.108 634.873 670.995 636.923 665.364L631.285 663.311ZM623.134 676.094C619.516 679.706 615.151 682.478 610.348 684.215L612.388 689.858C618.018 687.822 623.134 684.573 627.374 680.34L623.134 676.094ZM610.348 684.215C605.544 685.952 600.418 686.611 595.332 686.147L594.786 692.122C600.748 692.666 606.757 691.894 612.388 689.858L610.348 684.215ZM595.332 686.147C590.246 685.682 585.324 684.104 580.913 681.526L577.885 686.705C583.055 689.728 588.824 691.577 594.786 692.122L595.332 686.147ZM580.913 681.526C576.502 678.947 572.709 675.429 569.803 671.221L564.866 674.63C568.271 679.561 572.715 683.683 577.885 686.705L580.913 681.526ZM569.803 671.221C566.897 667.012 564.949 662.216 564.096 657.17L558.18 658.17C559.179 664.081 561.461 669.699 564.866 674.63L569.803 671.221ZM564.096 657.17C563.242 652.124 563.506 646.952 564.866 642.019L559.082 640.424C557.488 646.202 557.18 652.26 558.18 658.17L564.096 657.17Z" fill="black"/>
<path d="M563.235 513.039L561.631 515.574L563.235 513.039ZM545.303 506.447L545.722 503.476L545.303 506.447ZM526.25 507.813L525.41 504.932L526.25 507.813ZM509.437 516.896L507.489 514.615L509.437 516.896ZM497.832 532.093L495.119 530.814H495.119L497.832 532.093ZM493.482 550.724L496.482 550.779L493.482 550.724ZM497.154 569.501L499.912 568.321V568.321L497.154 569.501ZM506.17 587.319C507.39 588.441 509.288 588.361 510.409 587.141C511.53 585.922 511.451 584.024 510.231 582.902L506.17 587.319ZM577.506 523.178C573.761 517.505 570.699 514.211 564.839 510.504L561.631 515.574C566.659 518.755 569.141 521.397 572.499 526.484L577.506 523.178ZM564.839 510.504C559.035 506.832 552.52 504.437 545.722 503.476L544.883 509.417C550.837 510.259 556.546 512.357 561.631 515.574L564.839 510.504ZM545.722 503.476C538.925 502.516 532.002 503.012 525.41 504.932L527.089 510.693C532.863 509.01 538.928 508.576 544.883 509.417L545.722 503.476ZM525.41 504.932C518.819 506.853 512.71 510.153 507.489 514.615L511.386 519.177C515.962 515.267 521.314 512.375 527.089 510.693L525.41 504.932ZM507.489 514.615C502.267 519.077 498.051 524.598 495.119 530.814L500.546 533.373C503.115 527.925 506.81 523.086 511.386 519.177L507.489 514.615ZM495.119 530.814C492.187 537.029 490.607 543.797 490.483 550.67L496.482 550.779C496.591 544.754 497.976 538.821 500.546 533.373L495.119 530.814ZM490.483 550.67C490.358 557.543 491.692 564.364 494.396 570.682L499.912 568.321C497.542 562.783 496.372 556.803 496.482 550.779L490.483 550.67ZM494.396 570.682C497.1 577 501.113 582.671 506.17 587.319L510.231 582.902C505.8 578.829 502.282 573.859 499.912 568.321L494.396 570.682Z" fill="black"/>
<path d="M478.304 554.162L477.302 551.334V551.334L478.304 554.162ZM461.265 564.948L459.139 562.832L461.265 564.948ZM450.554 582.051L453.386 583.041L450.554 582.051ZM448.276 602.112L445.294 602.441L448.276 602.112ZM454.877 621.188L452.329 622.773L454.877 621.188ZM469.061 635.533L467.448 638.063H467.448L469.061 635.533ZM488.041 642.328L487.682 645.307H487.682L488.041 642.328ZM509.054 643.079C510.623 642.546 511.462 640.842 510.929 639.273C510.396 637.705 508.692 636.865 507.123 637.398L509.054 643.079ZM496.972 548.828C489.696 548.047 484.073 548.934 477.302 551.334L479.306 556.989C485.362 554.842 490.079 554.123 496.332 554.794L496.972 548.828ZM477.302 551.334C470.464 553.758 464.258 557.687 459.139 562.832L463.392 567.064C467.878 562.555 473.316 559.113 479.306 556.989L477.302 551.334ZM459.139 562.832C454.019 567.977 450.118 574.207 447.722 581.061L453.386 583.041C455.487 577.032 458.906 571.573 463.392 567.064L459.139 562.832ZM447.722 581.061C445.327 587.916 444.497 595.222 445.294 602.441L451.258 601.782C450.559 595.454 451.286 589.05 453.386 583.041L447.722 581.061ZM445.294 602.441C446.091 609.66 448.495 616.608 452.329 622.773L457.424 619.604C454.064 614.201 451.956 608.11 451.258 601.782L445.294 602.441ZM452.329 622.773C456.163 628.938 461.33 634.163 467.448 638.063L470.673 633.003C465.312 629.586 460.785 625.007 457.424 619.604L452.329 622.773ZM467.448 638.063C473.566 641.963 480.481 644.438 487.682 645.307L488.4 639.35C482.092 638.589 476.034 636.421 470.673 633.003L467.448 638.063ZM487.682 645.307C494.883 646.175 502.186 645.414 509.054 643.079L507.123 637.398C501.106 639.444 494.708 640.11 488.4 639.35L487.682 645.307Z" fill="black"/>
<path d="M481.717 638.033C480.867 648.951 483.627 657.334 489.571 666.525C495.515 675.716 504.313 682.693 514.607 686.379C524.902 690.065 536.121 690.256 546.535 686.923C556.948 683.589 562.485 681.116 568.738 672.133" stroke="black" stroke-width="6"/>
<path d="M572.497 625.683C564.962 625.683 557.736 622.641 552.409 617.226C547.081 611.81 544.088 604.466 544.088 596.808C544.088 589.15 547.081 581.806 552.409 576.391C557.736 570.976 564.962 567.934 572.497 567.934" stroke="black" stroke-width="6" stroke-linecap="round"/>
<line x1="3" y1="-3" x2="128.613" y2="-3" transform="matrix(0.98402 0.178055 -0.177481 0.984124 635.998 585.51)" stroke="black" stroke-width="6" stroke-linecap="round"/>
<path d="M662.735 618.568L765.508 608.944" stroke="black" stroke-width="6" stroke-linecap="round"/>
<rect width="14.2322" height="62.0358" rx="7.11608" transform="matrix(0.932743 -0.360541 0.359495 0.933147 811.748 657.772)" fill="white" fill-opacity="0.7"/>
</g>
<defs>
<filter id="filter0_d_315_3589" x="761" y="848" width="52.9082" height="71.3125" filterUnits="userSpaceOnUse" color-interpolation-filters="sRGB">
<feFlood flood-opacity="0" result="BackgroundImageFix"/>
<feColorMatrix in="SourceAlpha" type="matrix" values="0 0 0 0 0 0 0 0 0 0 0 0 0 0 0 0 0 0 127 0" result="hardAlpha"/>
<feOffset dy="4"/>
<feGaussianBlur stdDeviation="2"/>
<feComposite in2="hardAlpha" operator="out"/>
<feColorMatrix type="matrix" values="0 0 0 0 0 0 0 0 0 0 0 0 0 0 0 0 0 0 0.25 0"/>
<feBlend mode="normal" in2="BackgroundImageFix" result="effect1_dropShadow_315_3589"/>
<feBlend mode="normal" in="SourceGraphic" in2="effect1_dropShadow_315_3589" result="shape"/>
</filter>
<filter id="filter1_i_315_3589" x="770.891" y="882.601" width="33.1289" height="24.1143" filterUnits="userSpaceOnUse" color-interpolation-filters="sRGB">
<feFlood flood-opacity="0" result="BackgroundImageFix"/>
<feBlend mode="normal" in="SourceGraphic" in2="BackgroundImageFix" result="shape"/>
<feColorMatrix in="SourceAlpha" type="matrix" values="0 0 0 0 0 0 0 0 0 0 0 0 0 0 0 0 0 0 127 0" result="hardAlpha"/>
<feOffset dx="-5" dy="-8"/>
<feComposite in2="hardAlpha" operator="arithmetic" k2="-1" k3="1"/>
<feColorMatrix type="matrix" values="0 0 0 0 0 0 0 0 0 0 0 0 0 0 0 0 0 0 0.25 0"/>
<feBlend mode="normal" in2="shape" result="effect1_innerShadow_315_3589"/>
</filter>
<clipPath id="clip0_315_3589">
<rect width="1000" height="1000" fill="white"/>
</clipPath>
</defs>
</svg>
