<svg width="1000" height="1000" viewBox="0 0 1000 1000" fill="none" xmlns="http://www.w3.org/2000/svg">
<g clip-path="url(#clip0_1242_42016)">
<rect x="243" y="777" width="474" height="392" rx="36" fill="#4B70C5" stroke="black" stroke-width="8"/>
<path d="M571.381 786.903C578.98 778.076 590.048 773 601.695 773H681C703.091 773 721 790.909 721 813V1133C721 1155.09 703.091 1173 681 1173H326.215C292.001 1173 273.579 1132.83 295.901 1106.9L571.381 786.903Z" fill="black" fill-opacity="0.25"/>
<rect x="327" y="985" width="295" height="36" rx="4" fill="#3C3C3C" stroke="black" stroke-width="8"/>
<rect x="642" y="785" width="28" height="219" rx="4" fill="#3C3C3C" stroke="black" stroke-width="8"/>
<rect x="273" y="785" width="28" height="219" rx="4" fill="#3C3C3C" stroke="black" stroke-width="8"/>
<rect x="267" y="766" width="64" height="44" rx="12" fill="#4B70C5" stroke="black" stroke-width="8"/>
<path d="M263 798.978C263 792.683 266.925 787.055 272.833 784.881L313.474 769.923C323.918 766.079 335 773.808 335 784.938V798C335 806.837 327.837 814 319 814H278.022C269.726 814 263 807.274 263 798.978V798.978Z" fill="black" fill-opacity="0.25"/>
<rect x="625" y="766" width="64" height="44" rx="12" fill="#4B70C5" stroke="black" stroke-width="8"/>
<path d="M621 798.978C621 792.683 624.925 787.055 630.833 784.881L671.474 769.923C681.918 766.079 693 773.808 693 784.938V798C693 806.837 685.837 814 677 814H636.022C627.726 814 621 807.274 621 798.978V798.978Z" fill="black" fill-opacity="0.25"/>
<rect x="304" y="735" width="340" height="83" rx="20" fill="#4B70C5" stroke="black" stroke-width="8"/>
<rect x="436" y="731" width="212" height="91" rx="16" fill="black" fill-opacity="0.25"/>
<path d="M381.364 898.608V891.776H389.876C390.959 891.776 391.948 891.552 392.844 891.104C393.74 890.656 394.449 890.003 394.972 889.144C395.495 888.285 395.756 887.24 395.756 886.008C395.756 884.813 395.495 883.787 394.972 882.928C394.449 882.069 393.74 881.416 392.844 880.968C391.948 880.52 390.959 880.296 389.876 880.296H381.364V873.464H391.164C393.665 873.464 395.924 873.968 397.94 874.976C399.956 875.984 401.543 877.44 402.7 879.344C403.895 881.211 404.492 883.432 404.492 886.008C404.492 888.584 403.895 890.824 402.7 892.728C401.543 894.595 399.956 896.051 397.94 897.096C395.924 898.104 393.665 898.608 391.164 898.608H381.364ZM374.644 913V873.464H383.436V913H374.644ZM416.145 896.704V890.208H424.489C426.244 890.208 427.588 889.76 428.521 888.864C429.492 887.968 429.977 886.755 429.977 885.224C429.977 883.805 429.511 882.629 428.577 881.696C427.644 880.763 426.3 880.296 424.545 880.296H416.145V873.464H425.553C428.167 873.464 430.463 873.968 432.441 874.976C434.42 875.947 435.969 877.309 437.089 879.064C438.209 880.819 438.769 882.835 438.769 885.112C438.769 887.427 438.209 889.461 437.089 891.216C435.969 892.933 434.401 894.277 432.385 895.248C430.369 896.219 427.999 896.704 425.273 896.704H416.145ZM409.425 913V873.464H418.217V913H409.425ZM430.929 913L418.609 895.976L426.673 893.792L441.345 913H430.929ZM445.191 913V873.464H453.983V913H445.191ZM451.911 913V905.384H473.583V913H451.911ZM451.911 896.48V889.144H471.623V896.48H451.911ZM451.911 881.024V873.464H473.303V881.024H451.911ZM490.532 913.616C487.284 913.616 484.484 913.093 482.132 912.048C479.817 910.965 477.689 909.341 475.748 907.176L481.46 901.52C482.729 902.976 484.129 904.115 485.66 904.936C487.228 905.72 489.038 906.112 491.092 906.112C492.958 906.112 494.396 905.776 495.404 905.104C496.449 904.432 496.972 903.499 496.972 902.304C496.972 901.221 496.636 900.344 495.964 899.672C495.292 899 494.396 898.421 493.276 897.936C492.193 897.451 490.98 896.984 489.636 896.536C488.329 896.088 487.022 895.584 485.716 895.024C484.409 894.427 483.196 893.699 482.076 892.84C480.993 891.944 480.116 890.843 479.444 889.536C478.772 888.192 478.436 886.512 478.436 884.496C478.436 882.069 479.014 879.979 480.172 878.224C481.366 876.469 483.009 875.144 485.1 874.248C487.19 873.315 489.598 872.848 492.324 872.848C495.086 872.848 497.606 873.333 499.884 874.304C502.198 875.275 504.102 876.6 505.596 878.28L499.884 883.936C498.689 882.704 497.476 881.789 496.244 881.192C495.049 880.595 493.686 880.296 492.156 880.296C490.625 880.296 489.412 880.595 488.516 881.192C487.62 881.752 487.172 882.573 487.172 883.656C487.172 884.664 487.508 885.485 488.18 886.12C488.852 886.717 489.729 887.24 490.812 887.688C491.932 888.136 493.145 888.584 494.452 889.032C495.796 889.48 497.121 890.003 498.428 890.6C499.734 891.197 500.929 891.963 502.012 892.896C503.132 893.792 504.028 894.949 504.7 896.368C505.372 897.749 505.708 899.467 505.708 901.52C505.708 905.291 504.364 908.259 501.676 910.424C498.988 912.552 495.273 913.616 490.532 913.616ZM522.196 913.616C518.948 913.616 516.148 913.093 513.796 912.048C511.481 910.965 509.353 909.341 507.412 907.176L513.124 901.52C514.393 902.976 515.793 904.115 517.324 904.936C518.892 905.72 520.702 906.112 522.756 906.112C524.622 906.112 526.06 905.776 527.068 905.104C528.113 904.432 528.636 903.499 528.636 902.304C528.636 901.221 528.3 900.344 527.628 899.672C526.956 899 526.06 898.421 524.94 897.936C523.857 897.451 522.644 896.984 521.3 896.536C519.993 896.088 518.686 895.584 517.38 895.024C516.073 894.427 514.86 893.699 513.74 892.84C512.657 891.944 511.78 890.843 511.108 889.536C510.436 888.192 510.1 886.512 510.1 884.496C510.1 882.069 510.678 879.979 511.836 878.224C513.03 876.469 514.673 875.144 516.764 874.248C518.854 873.315 521.262 872.848 523.988 872.848C526.75 872.848 529.27 873.333 531.548 874.304C533.862 875.275 535.766 876.6 537.26 878.28L531.548 883.936C530.353 882.704 529.14 881.789 527.908 881.192C526.713 880.595 525.35 880.296 523.82 880.296C522.289 880.296 521.076 880.595 520.18 881.192C519.284 881.752 518.836 882.573 518.836 883.656C518.836 884.664 519.172 885.485 519.844 886.12C520.516 886.717 521.393 887.24 522.476 887.688C523.596 888.136 524.809 888.584 526.116 889.032C527.46 889.48 528.785 890.003 530.092 890.6C531.398 891.197 532.593 891.963 533.676 892.896C534.796 893.792 535.692 894.949 536.364 896.368C537.036 897.749 537.372 899.467 537.372 901.52C537.372 905.291 536.028 908.259 533.34 910.424C530.652 912.552 526.937 913.616 522.196 913.616Z" fill="white"/>
<rect x="331" y="845" width="248" height="95" stroke="white" stroke-width="8"/>
</g>
<defs>
<clipPath id="clip0_1242_42016">
<rect width="1000" height="1000" fill="white"/>
</clipPath>
</defs>
</svg>
