<svg width="1000" height="1000" viewBox="0 0 1000 1000" fill="none" xmlns="http://www.w3.org/2000/svg">
<rect x="767" y="423" width="26" height="577" fill="black"/>
<rect x="585" y="460" width="391" height="300" fill="#82EB68" stroke="black" stroke-width="8"/>
<rect x="585" y="460" width="20" height="300" fill="black" fill-opacity="0.25"/>
<path d="M604.599 590.565C605.108 590.805 605.617 591.045 606.126 591.284C606.65 591.509 607.227 591.733 607.856 591.958C607.96 591.674 608.013 591.224 608.013 590.61C608.013 590.191 608.005 589.869 607.99 589.645C607.93 588.492 607.811 586.74 607.631 584.389C607.451 581.933 607.317 579.934 607.227 578.392C607.137 576.849 607.092 575.389 607.092 574.012C607.092 573.592 607.107 573.008 607.137 572.26L607.204 571.204L603.858 570.732C603.663 570.178 603.513 569.572 603.408 568.913C603.304 568.239 603.251 567.588 603.251 566.959C603.251 566.48 603.289 565.956 603.363 565.387C605.16 564.698 607.421 564.204 610.147 563.904C612.872 563.605 615.687 563.455 618.592 563.455C621.527 563.455 623.548 563.582 624.656 563.837L624.679 563.814C625.487 564.294 626.191 564.795 626.79 565.319C627.404 565.828 627.988 566.45 628.542 567.184C628.542 568.217 628.415 569.407 628.16 570.755C627.921 572.088 627.606 573.315 627.217 574.438C626.843 575.562 626.453 576.355 626.049 576.819C625.69 576.984 625.3 577.111 624.881 577.201C624.462 577.276 623.953 577.313 623.354 577.313C622.725 577.313 622.246 577.269 621.916 577.179C621.602 577.089 621.257 576.939 620.883 576.729L620.119 571.092C619.625 570.987 619.026 570.935 618.322 570.935C617.694 570.935 617.027 570.972 616.323 571.047C616.278 571.751 616.226 572.911 616.166 574.528C616.136 575.711 616.091 576.857 616.031 577.965L615.852 581.873C619.505 581.424 622.553 580.952 624.993 580.458C625.592 581.341 625.892 582.479 625.892 583.872C625.892 584.785 625.772 585.661 625.532 586.5C625.293 587.339 625.031 587.915 624.746 588.229C624.282 588.304 623.668 588.342 622.904 588.342C621.766 588.342 620.546 588.237 619.243 588.027C617.956 587.803 616.728 587.496 615.56 587.106C615.47 588.439 615.358 589.727 615.223 590.97C615.088 592.153 614.901 593.186 614.661 594.069C614.437 594.938 614.085 595.694 613.606 596.338C612.992 597.146 612.206 597.745 611.247 598.135C610.304 598.524 609.286 598.719 608.193 598.719C607.189 598.719 606.201 598.487 605.228 598.022C604.269 597.558 603.483 596.772 602.869 595.664C602.884 594.691 603.004 593.815 603.229 593.036C603.468 592.257 603.925 591.434 604.599 590.565ZM630.529 592.25C630.529 591.606 630.544 590.026 630.574 587.511C630.619 582.569 630.642 579.867 630.642 579.402L628.575 579.065C628.291 578.212 628.089 577.411 627.969 576.662C627.849 575.913 627.789 575.157 627.789 574.394C627.789 574.079 627.797 573.84 627.812 573.675C628.066 573.45 628.463 573.181 629.002 572.866C629.541 572.552 630.177 572.275 630.911 572.035C631.645 571.781 632.394 571.653 633.157 571.653C634.939 571.653 636.227 572.05 637.021 572.844C637.829 573.637 638.233 574.798 638.233 576.325C638.233 577.254 638.114 578.444 637.874 579.896C637.649 581.334 637.417 582.36 637.178 582.974L637.986 583.108L639.334 578.032C639.933 575.741 640.682 574.109 641.58 573.136C642.479 572.147 643.489 571.653 644.612 571.653C645.346 571.653 646.072 571.766 646.791 571.99C647.525 572.215 648.086 572.492 648.476 572.821C648.895 573.75 649.105 574.985 649.105 576.527C649.105 577.605 649 578.676 648.79 579.739C648.58 580.787 648.311 581.633 647.981 582.277L643.265 581.648C642.306 582.667 641.288 584.082 640.21 585.894C639.132 587.69 638.271 589.345 637.627 590.857L637.605 592.025L641.962 590.992C642.696 592.115 643.122 593.448 643.242 594.99C643.242 595.08 642.905 595.447 642.231 596.091C641.558 596.735 640.667 597.334 639.559 597.888C638.466 598.427 637.208 598.696 635.785 598.696C634.318 598.696 633.09 598.307 632.102 597.528C631.128 596.735 630.612 595.402 630.552 593.53C630.537 593.306 630.529 592.879 630.529 592.25ZM650.238 585.22C650.238 582.629 650.672 580.316 651.541 578.279C652.409 576.243 653.75 574.633 655.561 573.45C657.388 572.252 659.664 571.653 662.39 571.653C663.812 571.653 665.235 571.826 666.657 572.17C668.08 572.499 669.285 573.053 670.273 573.832C671.187 574.566 671.846 575.539 672.25 576.752C672.669 577.95 672.879 579.283 672.879 580.75C672.879 581.723 672.796 582.719 672.632 583.737C672.452 584.037 672.1 584.434 671.576 584.928C671.052 585.407 670.438 585.879 669.734 586.343C669.03 586.807 668.349 587.166 667.69 587.421C667.061 587.466 666.41 587.488 665.736 587.488C664.553 587.488 663.355 587.436 662.142 587.331C660.93 587.226 659.866 587.106 658.953 586.972C659.073 588.244 659.462 589.353 660.121 590.296C660.78 591.239 661.828 591.711 663.265 591.711C663.4 591.711 663.617 591.696 663.917 591.666C664.83 591.576 665.893 591.337 667.106 590.947C668.334 590.543 669.555 590.079 670.767 589.555C671.336 590.124 671.756 590.693 672.025 591.262C672.295 591.831 672.482 592.647 672.587 593.71C672.123 594.249 671.366 594.908 670.318 595.687C669.285 596.465 668.02 597.169 666.522 597.798C665.025 598.412 663.46 598.719 661.828 598.719C659.372 598.719 657.268 598.127 655.516 596.944C653.779 595.746 652.462 594.129 651.563 592.093C650.68 590.041 650.238 587.75 650.238 585.22ZM664.703 580.054C664.493 579.829 664.141 579.657 663.647 579.537C663.153 579.402 662.637 579.335 662.098 579.335C661.663 579.335 661.222 579.372 660.772 579.447C660.338 579.522 660.076 579.604 659.986 579.694C659.477 580.698 659.155 581.836 659.02 583.108L665.017 582.524L664.703 580.054ZM675.338 585.22C675.338 582.629 675.772 580.316 676.64 578.279C677.509 576.243 678.849 574.633 680.661 573.45C682.488 572.252 684.764 571.653 687.489 571.653C688.912 571.653 690.334 571.826 691.757 572.17C693.179 572.499 694.384 573.053 695.373 573.832C696.286 574.566 696.945 575.539 697.349 576.752C697.769 577.95 697.978 579.283 697.978 580.75C697.978 581.723 697.896 582.719 697.731 583.737C697.551 584.037 697.2 584.434 696.676 584.928C696.151 585.407 695.537 585.879 694.834 586.343C694.13 586.807 693.449 587.166 692.79 587.421C692.161 587.466 691.509 587.488 690.836 587.488C689.653 587.488 688.455 587.436 687.242 587.331C686.029 587.226 684.966 587.106 684.052 586.972C684.172 588.244 684.562 589.353 685.22 590.296C685.879 591.239 686.927 591.711 688.365 591.711C688.5 591.711 688.717 591.696 689.016 591.666C689.93 591.576 690.993 591.337 692.206 590.947C693.434 590.543 694.654 590.079 695.867 589.555C696.436 590.124 696.855 590.693 697.125 591.262C697.394 591.831 697.581 592.647 697.686 593.71C697.222 594.249 696.466 594.908 695.418 595.687C694.384 596.465 693.119 597.169 691.622 597.798C690.124 598.412 688.56 598.719 686.927 598.719C684.472 598.719 682.368 598.127 680.616 596.944C678.879 595.746 677.561 594.129 676.663 592.093C675.779 590.041 675.338 587.75 675.338 585.22ZM689.802 580.054C689.593 579.829 689.241 579.657 688.747 579.537C688.253 579.402 687.736 579.335 687.197 579.335C686.763 579.335 686.321 579.372 685.872 579.447C685.438 579.522 685.176 579.604 685.086 579.694C684.577 580.698 684.255 581.836 684.12 583.108L690.117 582.524L689.802 580.054ZM711.925 585.871C711.925 583.43 711.963 581.207 712.038 579.2L709.589 578.773C709.395 578.025 709.26 577.366 709.185 576.797C709.11 576.228 709.073 575.621 709.073 574.978L709.118 574.528C709.163 574.319 709.185 574.146 709.185 574.012L712.442 573.293C712.517 572.365 712.689 571.316 712.958 570.148C713.228 568.98 713.512 568.119 713.812 567.565C714.291 567.206 714.868 566.937 715.541 566.757C716.215 566.577 716.942 566.487 717.72 566.487C718.379 566.487 719.015 566.555 719.629 566.689C720.258 566.809 720.805 566.974 721.269 567.184C721.314 567.693 721.336 568.277 721.336 568.936C721.336 570.014 721.284 571.234 721.179 572.597L725.132 571.878C725.686 572.836 725.963 573.877 725.963 575C725.963 575.779 725.866 576.482 725.671 577.111C725.492 577.74 725.237 578.451 724.908 579.245C723.919 579.41 722.564 579.515 720.842 579.56C720.633 582 720.168 585.587 719.45 590.318L719.337 591.082L719.382 591.127L724.661 589.487C725.754 590.401 726.42 591.808 726.66 593.71C726.66 593.815 726.173 594.309 725.2 595.192C724.241 596.061 723.036 596.869 721.583 597.618C720.131 598.352 718.551 598.719 716.844 598.719C713.864 598.719 712.277 596.899 712.082 593.261C711.978 591.419 711.925 588.956 711.925 585.871ZM729.051 583.67C729.051 576.722 729.186 571.945 729.455 569.34L726.917 568.891C726.558 567.513 726.378 566.031 726.378 564.443C726.603 564.159 727.022 563.807 727.636 563.388C728.25 562.968 728.961 562.602 729.77 562.287C730.593 561.973 731.409 561.815 732.218 561.815C734.06 561.815 735.43 562.287 736.328 563.23C737.227 564.174 737.676 565.619 737.676 567.565C737.676 568.419 737.601 569.797 737.451 571.698C737.302 573.585 737.085 575.614 736.8 577.785C736.516 579.941 736.186 581.866 735.812 583.558C735.812 583.647 735.864 583.73 735.969 583.805C736.074 583.88 736.186 583.917 736.306 583.917C736.441 583.917 736.531 583.865 736.575 583.76C737.174 581.379 737.773 579.387 738.372 577.785C738.971 576.183 739.877 574.76 741.09 573.518C742.303 572.275 743.875 571.653 745.807 571.653C748.203 571.653 749.925 572.387 750.973 573.854C752.021 575.307 752.545 577.141 752.545 579.357C752.545 581.334 752.313 583.243 751.849 585.085C751.385 586.912 750.808 588.821 750.119 590.812C750.149 590.738 750.045 591.03 749.805 591.688L749.85 591.733L753.174 590.341C754.342 591.344 755.023 592.677 755.218 594.339C755.218 594.444 754.881 594.878 754.207 595.642C753.533 596.39 752.643 597.094 751.534 597.753C750.441 598.397 749.184 598.719 747.761 598.719C746.338 598.719 745.178 598.337 744.28 597.573C743.381 596.81 742.932 595.507 742.932 593.665C742.932 592.198 742.992 590.236 743.112 587.78C743.231 585.325 743.351 583.348 743.471 581.851C743.082 581.431 742.602 581.207 742.033 581.177C741.509 581.851 740.738 583.198 739.72 585.22C738.702 587.241 737.983 588.754 737.564 589.757C737.534 589.966 737.519 590.169 737.519 590.363C737.519 591.112 737.631 592.123 737.856 593.396C738.08 594.653 738.357 595.829 738.687 596.922C738.417 597.431 737.863 597.858 737.025 598.202C736.186 598.547 735.153 598.719 733.925 598.719C732.817 598.719 731.926 598.629 731.252 598.449C730.593 598.27 730.129 598.082 729.86 597.888C729.59 597.678 729.455 597.551 729.455 597.506C729.44 597.371 729.403 597.019 729.343 596.45C729.283 595.866 729.223 595.058 729.163 594.024C729.103 592.976 729.074 591.786 729.074 590.453L729.051 583.67ZM756.374 585.22C756.374 582.629 756.808 580.316 757.677 578.279C758.545 576.243 759.886 574.633 761.697 573.45C763.524 572.252 765.8 571.653 768.526 571.653C769.948 571.653 771.371 571.826 772.793 572.17C774.216 572.499 775.421 573.053 776.409 573.832C777.323 574.566 777.982 575.539 778.386 576.752C778.805 577.95 779.015 579.283 779.015 580.75C779.015 581.723 778.932 582.719 778.768 583.737C778.588 584.037 778.236 584.434 777.712 584.928C777.188 585.407 776.574 585.879 775.87 586.343C775.166 586.807 774.485 587.166 773.826 587.421C773.197 587.466 772.546 587.488 771.872 587.488C770.689 587.488 769.491 587.436 768.278 587.331C767.066 587.226 766.002 587.106 765.089 586.972C765.209 588.244 765.598 589.353 766.257 590.296C766.916 591.239 767.964 591.711 769.401 591.711C769.536 591.711 769.753 591.696 770.053 591.666C770.966 591.576 772.029 591.337 773.242 590.947C774.47 590.543 775.691 590.079 776.903 589.555C777.472 590.124 777.892 590.693 778.161 591.262C778.431 591.831 778.618 592.647 778.723 593.71C778.259 594.249 777.502 594.908 776.454 595.687C775.421 596.465 774.156 597.169 772.658 597.798C771.161 598.412 769.596 598.719 767.964 598.719C765.508 598.719 763.404 598.127 761.652 596.944C759.915 595.746 758.598 594.129 757.699 592.093C756.816 590.041 756.374 587.75 756.374 585.22ZM770.839 580.054C770.629 579.829 770.277 579.657 769.783 579.537C769.289 579.402 768.773 579.335 768.234 579.335C767.799 579.335 767.358 579.372 766.908 579.447C766.474 579.522 766.212 579.604 766.122 579.694C765.613 580.698 765.291 581.836 765.156 583.108L771.153 582.524L770.839 580.054ZM793.546 581.648C793.546 577.126 793.613 573.652 793.748 571.227H793.725L790.514 570.755C790.319 570.201 790.169 569.587 790.064 568.913C789.959 568.239 789.907 567.588 789.907 566.959C789.907 566.48 789.945 565.956 790.019 565.387C791.861 564.728 794.399 564.241 797.634 563.927C800.868 563.612 803.983 563.455 806.977 563.455C809.268 563.455 811.237 563.635 812.885 563.994C814.532 564.354 815.909 565.17 817.017 566.442C818.14 567.7 818.702 569.587 818.702 572.103C818.702 573.36 818.432 574.828 817.893 576.505C817.369 578.167 816.695 579.792 815.872 581.379C815.063 582.951 814.247 584.224 813.424 585.197C812.211 586.65 810.863 587.503 809.381 587.758C806.925 588.147 804.327 588.342 801.587 588.342C801.527 589.884 801.504 590.992 801.519 591.666L804.866 591.441C805.555 592.564 805.937 593.897 806.012 595.439C806.012 595.514 805.675 595.836 805.001 596.405C804.327 596.974 803.436 597.498 802.328 597.978C801.235 598.457 799.977 598.696 798.555 598.696C797.147 598.696 796.024 598.314 795.185 597.551C794.362 596.772 793.95 595.432 793.95 593.53C793.695 590.416 793.568 586.463 793.568 581.671L793.546 581.648ZM807.764 582.03C808.153 580.383 808.475 578.639 808.729 576.797C808.999 574.94 809.149 573.323 809.179 571.945C809.104 571.811 808.722 571.691 808.033 571.586C807.344 571.481 806.453 571.429 805.36 571.429C804.597 571.429 803.646 571.459 802.508 571.519C802.373 576.041 802.193 579.672 801.969 582.412L807.764 582.03ZM819.611 578.908C819.356 577.815 819.192 577.014 819.117 576.505C819.042 575.996 819.005 575.225 819.005 574.191C819.888 573.353 820.839 572.724 821.857 572.305C822.875 571.87 824.021 571.653 825.294 571.653C829.157 571.653 831.089 573.592 831.089 577.471C831.089 578.504 830.991 579.702 830.797 581.064C830.617 582.427 830.355 584.142 830.01 586.208C829.966 586.478 829.846 587.204 829.651 588.387C829.456 589.57 829.322 590.558 829.247 591.352C829.501 591.621 829.816 591.808 830.19 591.913C830.37 591.913 830.782 591.546 831.425 590.812C832.084 590.064 832.788 589.158 833.537 588.095C834.286 587.032 834.899 586.051 835.379 585.152C835.498 583.011 835.663 581.042 835.873 579.245L833.514 578.773C833.32 578.025 833.185 577.366 833.11 576.797C833.035 576.228 832.998 575.621 832.998 574.978L833.02 574.349C833.559 573.66 834.368 573.038 835.446 572.484C836.524 571.93 837.759 571.653 839.152 571.653C843.015 571.653 844.947 573.592 844.947 577.471C844.947 579.043 844.685 581.117 844.161 583.692C843.637 586.253 843.023 588.843 842.319 591.464L844.902 590.341C845.336 590.805 845.718 591.374 846.048 592.048C846.392 592.707 846.609 593.47 846.699 594.339C846.489 594.788 846.033 595.365 845.329 596.068C844.625 596.757 843.764 597.371 842.746 597.91C841.728 598.449 840.664 598.719 839.556 598.719C838.314 598.719 837.355 598.352 836.681 597.618C836.022 596.869 835.693 595.919 835.693 594.766C835.693 594.466 835.768 593.852 835.918 592.924C836.082 591.995 836.217 591.352 836.322 590.992L835.693 590.79C834.944 593.41 833.911 595.387 832.593 596.72C831.291 598.052 829.801 598.719 828.124 598.719C825.713 598.719 824.013 597.925 823.025 596.338C822.037 594.736 821.543 592.752 821.543 590.386C821.543 585.938 821.692 582.225 821.992 579.245L819.611 578.908ZM850.213 590.341C851.531 590.865 852.587 591.269 853.38 591.554C854.174 591.838 855.043 592.085 855.986 592.295C856.944 592.505 857.895 592.609 858.838 592.609C859.258 592.609 859.557 592.572 859.737 592.497C859.782 592.437 859.819 592.347 859.849 592.228C859.894 592.093 859.917 591.958 859.917 591.823C859.917 591.524 859.744 591.277 859.4 591.082C858.861 590.783 857.903 590.311 856.525 589.667C854.638 588.769 853.141 587.967 852.033 587.264C850.94 586.56 850.011 585.624 849.248 584.456C848.499 583.288 848.125 581.821 848.125 580.054C848.125 577.523 848.881 575.494 850.393 573.967C851.905 572.424 854.301 571.653 857.581 571.653C861.489 571.653 864.529 572.162 866.7 573.181C866.805 573.615 866.857 574.161 866.857 574.82C866.857 576.078 866.662 577.366 866.273 578.684C865.884 579.986 865.375 580.952 864.746 581.581C863.892 581.297 862.687 580.84 861.129 580.211C859.991 579.762 859.086 579.417 858.412 579.178C857.753 578.923 857.146 578.743 856.592 578.639C856.293 578.714 856.053 578.893 855.874 579.178C855.694 579.447 855.604 579.769 855.604 580.144C855.604 580.473 855.701 580.75 855.896 580.975C856.091 581.199 856.308 581.379 856.547 581.514C856.802 581.633 857.161 581.798 857.626 582.008C857.865 582.113 858.09 582.21 858.299 582.3C858.509 582.375 858.704 582.45 858.883 582.524C860.051 583.019 860.972 583.423 861.646 583.737C862.32 584.052 862.971 584.426 863.6 584.86C864.753 585.654 865.659 586.56 866.318 587.578C866.977 588.596 867.306 589.712 867.306 590.925C867.306 592.602 866.827 594.054 865.869 595.282C864.925 596.495 863.712 597.379 862.23 597.933C861.451 598.217 860.598 598.419 859.669 598.539C858.756 598.674 857.685 598.741 856.458 598.741C855.005 598.741 853.508 598.464 851.965 597.91C850.438 597.341 849.27 596.398 848.461 595.08C848.476 594.167 848.596 593.373 848.821 592.699C849.06 592.01 849.525 591.224 850.213 590.341ZM871.45 590.341C872.767 590.865 873.823 591.269 874.617 591.554C875.41 591.838 876.279 592.085 877.222 592.295C878.18 592.505 879.131 592.609 880.075 592.609C880.494 592.609 880.793 592.572 880.973 592.497C881.018 592.437 881.055 592.347 881.085 592.228C881.13 592.093 881.153 591.958 881.153 591.823C881.153 591.524 880.981 591.277 880.636 591.082C880.097 590.783 879.139 590.311 877.761 589.667C875.874 588.769 874.377 587.967 873.269 587.264C872.176 586.56 871.247 585.624 870.484 584.456C869.735 583.288 869.361 581.821 869.361 580.054C869.361 577.523 870.117 575.494 871.629 573.967C873.142 572.424 875.538 571.653 878.817 571.653C882.725 571.653 885.765 572.162 887.936 573.181C888.041 573.615 888.093 574.161 888.093 574.82C888.093 576.078 887.899 577.366 887.509 578.684C887.12 579.986 886.611 580.952 885.982 581.581C885.128 581.297 883.923 580.84 882.366 580.211C881.228 579.762 880.322 579.417 879.648 579.178C878.989 578.923 878.383 578.743 877.829 578.639C877.529 578.714 877.289 578.893 877.11 579.178C876.93 579.447 876.84 579.769 876.84 580.144C876.84 580.473 876.938 580.75 877.132 580.975C877.327 581.199 877.544 581.379 877.784 581.514C878.038 581.633 878.398 581.798 878.862 582.008C879.101 582.113 879.326 582.21 879.536 582.3C879.745 582.375 879.94 582.45 880.12 582.524C881.288 583.019 882.208 583.423 882.882 583.737C883.556 584.052 884.207 584.426 884.836 584.86C885.989 585.654 886.895 586.56 887.554 587.578C888.213 588.596 888.542 589.712 888.542 590.925C888.542 592.602 888.063 594.054 887.105 595.282C886.162 596.495 884.949 597.379 883.466 597.933C882.688 598.217 881.834 598.419 880.906 598.539C879.992 598.674 878.922 598.741 877.694 598.741C876.241 598.741 874.744 598.464 873.202 597.91C871.674 597.341 870.506 596.398 869.698 595.08C869.713 594.167 869.832 593.373 870.057 592.699C870.297 592.01 870.761 591.224 871.45 590.341ZM898.503 595.462C898.219 594.354 897.687 592.752 896.908 590.655C896.13 588.544 895.314 586.515 894.46 584.568C893.607 582.622 892.933 581.282 892.439 580.548L890.372 580.188C890.163 579.604 889.998 578.961 889.878 578.257C889.773 577.538 889.684 576.707 889.609 575.764C889.863 575.06 890.253 574.394 890.777 573.765C891.301 573.136 891.93 572.627 892.663 572.237C893.412 571.848 894.221 571.653 895.089 571.653C896.512 571.653 897.687 572.058 898.615 572.866C899.559 573.66 900.285 574.663 900.794 575.876C901.318 577.074 901.775 578.489 902.164 580.121C902.958 583.281 903.467 587.196 903.692 591.868L904.186 591.778C904.77 590.476 905.264 588.611 905.668 586.186C906.087 583.76 906.312 581.431 906.342 579.2L903.534 578.773C903.205 577.516 903.04 576.041 903.04 574.349C903.37 573.944 903.841 573.54 904.455 573.136C905.084 572.716 905.825 572.365 906.679 572.08C907.532 571.796 908.438 571.653 909.397 571.653C913.26 571.653 915.192 573.592 915.192 577.471C915.192 580.525 914.638 583.49 913.53 586.365C912.436 589.24 910.789 591.838 908.588 594.159C906.387 596.48 903.707 598.307 900.547 599.64L900.727 600.381C901.131 600.426 901.528 600.448 901.917 600.448C903.19 600.448 904.725 600.239 906.522 599.819C907.54 600.957 908.049 602.2 908.049 603.548C908.049 603.952 908.004 604.364 907.914 604.783C907.016 605.652 905.893 606.4 904.545 607.029C903.198 607.658 901.715 607.973 900.098 607.973C897.747 607.973 895.845 607.441 894.393 606.378C892.94 605.315 892.214 603.698 892.214 601.526C892.214 600.553 892.506 599.7 893.09 598.966C893.689 598.247 894.378 597.663 895.157 597.214C895.95 596.75 897.066 596.166 898.503 595.462ZM919.425 562.377C920.024 562.227 920.66 562.152 921.334 562.152C922.787 562.152 924.044 562.497 925.108 563.186C926.186 563.874 926.837 564.87 927.062 566.173C926.597 567.236 925.909 568.419 924.995 569.722C924.082 571.009 923.086 572.222 922.008 573.36C920.945 574.498 919.949 575.382 919.021 576.011L916.056 574.124L919.425 562.377ZM931.52 590.341C932.837 590.865 933.893 591.269 934.687 591.554C935.48 591.838 936.349 592.085 937.292 592.295C938.25 592.505 939.201 592.609 940.145 592.609C940.564 592.609 940.863 592.572 941.043 592.497C941.088 592.437 941.125 592.347 941.155 592.228C941.2 592.093 941.223 591.958 941.223 591.823C941.223 591.524 941.05 591.277 940.706 591.082C940.167 590.783 939.209 590.311 937.831 589.667C935.944 588.769 934.447 587.967 933.339 587.264C932.246 586.56 931.317 585.624 930.554 584.456C929.805 583.288 929.431 581.821 929.431 580.054C929.431 577.523 930.187 575.494 931.699 573.967C933.212 572.424 935.607 571.653 938.887 571.653C942.795 571.653 945.835 572.162 948.006 573.181C948.111 573.615 948.163 574.161 948.163 574.82C948.163 576.078 947.968 577.366 947.579 578.684C947.19 579.986 946.681 580.952 946.052 581.581C945.198 581.297 943.993 580.84 942.436 580.211C941.298 579.762 940.392 579.417 939.718 579.178C939.059 578.923 938.452 578.743 937.898 578.639C937.599 578.714 937.359 578.893 937.18 579.178C937 579.447 936.91 579.769 936.91 580.144C936.91 580.473 937.007 580.75 937.202 580.975C937.397 581.199 937.614 581.379 937.853 581.514C938.108 581.633 938.467 581.798 938.932 582.008C939.171 582.113 939.396 582.21 939.605 582.3C939.815 582.375 940.01 582.45 940.189 582.524C941.357 583.019 942.278 583.423 942.952 583.737C943.626 584.052 944.277 584.426 944.906 584.86C946.059 585.654 946.965 586.56 947.624 587.578C948.283 588.596 948.612 589.712 948.612 590.925C948.612 592.602 948.133 594.054 947.175 595.282C946.231 596.495 945.019 597.379 943.536 597.933C942.757 598.217 941.904 598.419 940.976 598.539C940.062 598.674 938.992 598.741 937.764 598.741C936.311 598.741 934.814 598.464 933.271 597.91C931.744 597.341 930.576 596.398 929.768 595.08C929.783 594.167 929.902 593.373 930.127 592.699C930.367 592.01 930.831 591.224 931.52 590.341ZM951.273 563.904C952.052 563.365 953.182 562.886 954.665 562.467C956.147 562.033 957.555 561.815 958.888 561.815C960.011 561.815 960.924 561.988 961.628 562.332C961.628 564.743 961.486 567.768 961.201 571.406C960.916 575.03 960.52 579.447 960.011 584.658C959.696 585.197 959.202 585.632 958.528 585.961C957.869 586.275 957.166 586.433 956.417 586.433C955.848 586.433 955.301 586.335 954.777 586.141C954.253 585.946 953.796 585.654 953.407 585.265L951.273 563.904ZM956.754 589.263C958.73 589.263 960.168 589.697 961.066 590.565C961.98 591.419 962.436 592.497 962.436 593.8C962.436 594.668 962.159 595.484 961.605 596.248C961.066 596.997 960.355 597.596 959.472 598.045C958.603 598.494 957.697 598.719 956.754 598.719C955.81 598.719 954.897 598.494 954.013 598.045C953.145 597.596 952.434 596.997 951.88 596.248C951.341 595.484 951.071 594.668 951.071 593.8C951.071 592.497 951.52 591.419 952.419 590.565C953.332 589.697 954.777 589.263 956.754 589.263ZM628.306 638.436C628.306 634.977 628.366 631.907 628.485 629.227L625.453 628.755C625.258 628.201 625.109 627.587 625.004 626.913C624.899 626.239 624.847 625.588 624.847 624.959C624.847 624.48 624.884 623.956 624.959 623.387C626.921 622.698 629.511 622.204 632.73 621.904C635.95 621.605 639.094 621.455 642.164 621.455C644.455 621.455 646.424 621.635 648.071 621.994C649.718 622.354 651.096 623.17 652.204 624.442C653.327 625.7 653.889 627.587 653.889 630.103C653.889 631.136 653.724 632.281 653.395 633.539C653.065 634.782 652.608 636.025 652.024 637.268C651.485 638.406 650.871 639.491 650.183 640.524C649.509 641.543 648.805 642.419 648.071 643.152C648.506 644.29 648.955 645.331 649.419 646.274C649.883 647.203 650.594 648.333 651.553 649.666L654.697 648.341C655.865 649.344 656.547 650.677 656.741 652.339C656.741 652.429 656.382 652.855 655.663 653.619C654.959 654.383 654.038 655.094 652.9 655.753C651.762 656.397 650.482 656.719 649.06 656.719C647.952 656.719 646.956 656.524 646.072 656.135C645.204 655.745 644.485 655.064 643.916 654.091C643.362 653.132 642.92 651.994 642.591 650.677C642.261 649.359 642.029 648.056 641.895 646.769L636.773 646.544C636.908 647.712 637.08 648.917 637.29 650.16C637.5 651.388 637.627 652.129 637.672 652.384C637.926 653.866 638.091 654.877 638.166 655.416C637.477 655.835 636.639 656.157 635.65 656.382C634.677 656.606 633.681 656.719 632.663 656.719C631.495 656.719 630.365 656.562 629.271 656.247C628.942 654.929 628.695 652.623 628.53 649.329C628.381 646.02 628.306 642.389 628.306 638.436ZM642.276 641.131C642.8 639.633 643.212 638.009 643.512 636.257C643.826 634.49 644.111 632.386 644.365 629.945C643.931 629.781 643.362 629.653 642.658 629.563C641.954 629.474 641.273 629.429 640.614 629.429C639.117 629.429 637.994 629.466 637.245 629.541C637.08 635.171 636.901 639.162 636.706 641.513L642.276 641.131ZM658.279 624.038C658.279 622.72 658.706 621.65 659.559 620.826C660.428 620.003 661.806 619.591 663.692 619.591C665.579 619.591 666.949 620.003 667.803 620.826C668.671 621.65 669.105 622.72 669.105 624.038C669.105 624.787 668.843 625.476 668.319 626.104C667.81 626.733 667.136 627.235 666.298 627.609C665.459 627.969 664.591 628.148 663.692 628.148C662.719 628.148 661.813 627.939 660.974 627.52C660.151 627.085 659.492 626.546 658.998 625.902C658.519 625.258 658.279 624.637 658.279 624.038ZM657.179 636.886C656.984 636.152 656.849 635.486 656.774 634.887C656.699 634.273 656.662 633.636 656.662 632.978L656.684 632.349C656.999 631.944 657.486 631.54 658.144 631.136C658.818 630.716 659.597 630.365 660.48 630.08C661.379 629.796 662.307 629.653 663.265 629.653C665.362 629.653 666.852 630.125 667.735 631.068C668.619 632.012 669.06 633.479 669.06 635.471C669.06 636.669 668.888 638.233 668.544 640.165C668.214 642.097 667.81 643.976 667.331 645.803C666.867 647.615 666.462 648.91 666.118 649.688L666.163 649.733L669.487 648.521C670.086 649.03 670.535 649.591 670.835 650.205C671.149 650.819 671.351 651.53 671.441 652.339C671.441 652.444 671.112 652.878 670.453 653.642C669.794 654.39 668.918 655.094 667.825 655.753C666.747 656.397 665.497 656.719 664.074 656.719C662.637 656.719 661.469 656.329 660.57 655.551C659.687 654.772 659.245 653.439 659.245 651.553C659.245 649.352 659.305 647.016 659.425 644.545C659.544 642.074 659.732 639.678 659.986 637.357L657.179 636.886ZM672.822 642.995C672.822 640.285 673.256 637.934 674.125 635.942C674.993 633.951 676.326 632.409 678.123 631.315C679.92 630.207 682.173 629.653 684.884 629.653C687.878 629.653 690.229 630.215 691.936 631.338C693.643 632.446 694.834 633.988 695.508 635.965C696.196 637.941 696.541 640.36 696.541 643.22C696.541 645.81 696.084 648.124 695.171 650.16C694.272 652.182 692.91 653.784 691.083 654.967C689.271 656.135 687.047 656.719 684.412 656.719C680.339 656.719 677.389 655.468 675.562 652.968C673.735 650.452 672.822 647.128 672.822 642.995ZM685.333 650.138C686.096 650.138 686.561 650.078 686.725 649.958C687.07 649.359 687.332 648.513 687.511 647.42C687.691 646.327 687.781 645.144 687.781 643.871C687.781 642.703 687.706 641.61 687.556 640.592C687.407 639.559 687.197 638.75 686.927 638.166C686.763 637.971 686.433 637.829 685.939 637.739C685.445 637.634 684.906 637.582 684.322 637.582C683.558 637.582 683.034 637.664 682.75 637.829C682.001 639.117 681.627 640.906 681.627 643.197C681.627 644.275 681.709 645.376 681.874 646.499C682.038 647.622 682.248 648.64 682.503 649.554C682.682 649.748 683.049 649.898 683.603 650.003C684.157 650.093 684.734 650.138 685.333 650.138ZM700.886 643.871C700.886 641.43 700.924 639.207 700.999 637.2L698.55 636.773C698.356 636.025 698.221 635.366 698.146 634.797C698.071 634.228 698.034 633.621 698.034 632.978L698.079 632.528C698.124 632.319 698.146 632.146 698.146 632.012L701.403 631.293C701.478 630.365 701.65 629.316 701.92 628.148C702.189 626.98 702.474 626.119 702.773 625.565C703.252 625.206 703.829 624.937 704.503 624.757C705.176 624.577 705.903 624.487 706.681 624.487C707.34 624.487 707.976 624.555 708.59 624.689C709.219 624.809 709.766 624.974 710.23 625.184C710.275 625.693 710.297 626.277 710.297 626.936C710.297 628.014 710.245 629.234 710.14 630.597L714.093 629.878C714.647 630.836 714.924 631.877 714.924 633C714.924 633.779 714.827 634.482 714.632 635.111C714.453 635.74 714.198 636.451 713.869 637.245C712.88 637.41 711.525 637.515 709.803 637.56C709.594 640 709.129 643.587 708.411 648.318L708.298 649.082L708.343 649.127L713.622 647.487C714.715 648.401 715.381 649.808 715.621 651.71C715.621 651.815 715.134 652.309 714.161 653.192C713.202 654.061 711.997 654.869 710.545 655.618C709.092 656.352 707.512 656.719 705.805 656.719C702.825 656.719 701.238 654.899 701.044 651.261C700.939 649.419 700.886 646.956 700.886 643.871ZM729.927 659.526C730.032 659.212 730.107 658.808 730.152 658.313C730.212 657.834 730.227 657.363 730.197 656.898C730.152 655.835 730.069 654.375 729.95 652.519C729.8 650.003 729.687 647.922 729.613 646.274C729.538 644.627 729.5 643.062 729.5 641.58C729.5 641.071 729.515 640.382 729.545 639.514L729.568 638.975L726.58 638.57C726.371 637.882 726.228 637.208 726.154 636.549C726.094 635.89 726.071 635.089 726.086 634.146C727.045 633.636 728.362 633.18 730.039 632.775L730.129 632.416C729.126 631.518 728.332 630.537 727.748 629.474C727.164 628.41 726.872 627.295 726.872 626.127C726.872 624.779 727.247 623.634 727.995 622.69C728.744 621.732 729.792 621.013 731.14 620.534C732.503 620.055 734.097 619.815 735.924 619.815C737.002 619.815 738.08 619.875 739.158 619.995C740.252 620.1 741.569 620.369 743.112 620.804C743.321 621.433 743.426 622.166 743.426 623.005C743.426 623.948 743.306 624.929 743.067 625.947C742.842 626.951 742.528 627.819 742.123 628.553C740.671 628.089 739.503 627.737 738.619 627.497C737.751 627.257 736.793 627.063 735.744 626.913C735.52 626.958 735.31 627.078 735.116 627.272C734.936 627.452 734.831 627.624 734.801 627.789C734.936 628.478 735.22 629.279 735.655 630.192C736.104 631.106 736.605 631.937 737.159 632.686L743.404 631.54C743.928 632.319 744.19 633.434 744.19 634.887C744.19 635.77 744.092 636.616 743.898 637.425C743.718 638.233 743.493 638.787 743.224 639.087C743.029 639.102 742.745 639.109 742.37 639.109C740.918 639.109 739.593 638.93 738.395 638.57C738.335 640.337 738.283 641.595 738.238 642.344C738.223 642.913 738.185 643.871 738.125 645.219L737.991 648.925C737.916 651.066 737.841 652.833 737.766 654.226C737.691 655.618 737.579 656.951 737.429 658.224C737.294 659.437 737.107 660.47 736.867 661.323C736.643 662.192 736.291 662.948 735.812 663.592C734.629 665.179 732.682 665.973 729.972 665.973C728.894 665.973 727.816 665.763 726.738 665.344C725.674 664.939 724.851 664.281 724.267 663.367C724.237 662.469 724.372 661.563 724.671 660.649C724.956 659.751 725.39 658.98 725.974 658.336L729.927 659.526ZM745.728 642.995C745.728 640.285 746.162 637.934 747.03 635.942C747.899 633.951 749.232 632.409 751.028 631.315C752.825 630.207 755.079 629.653 757.789 629.653C760.784 629.653 763.135 630.215 764.842 631.338C766.549 632.446 767.739 633.988 768.413 635.965C769.102 637.941 769.446 640.36 769.446 643.22C769.446 645.81 768.99 648.124 768.076 650.16C767.178 652.182 765.815 653.784 763.988 654.967C762.177 656.135 759.953 656.719 757.318 656.719C753.245 656.719 750.295 655.468 748.468 652.968C746.641 650.452 745.728 647.128 745.728 642.995ZM758.238 650.138C759.002 650.138 759.466 650.078 759.631 649.958C759.975 649.359 760.237 648.513 760.417 647.42C760.597 646.327 760.687 645.144 760.687 643.871C760.687 642.703 760.612 641.61 760.462 640.592C760.312 639.559 760.103 638.75 759.833 638.166C759.668 637.971 759.339 637.829 758.845 637.739C758.351 637.634 757.812 637.582 757.228 637.582C756.464 637.582 755.94 637.664 755.655 637.829C754.907 639.117 754.532 640.906 754.532 643.197C754.532 644.275 754.615 645.376 754.779 646.499C754.944 647.622 755.154 648.64 755.408 649.554C755.588 649.748 755.955 649.898 756.509 650.003C757.063 650.093 757.639 650.138 758.238 650.138ZM774.241 650.25C774.241 649.606 774.256 648.026 774.286 645.511C774.331 640.569 774.354 637.867 774.354 637.402L772.287 637.065C772.003 636.212 771.8 635.411 771.681 634.662C771.561 633.913 771.501 633.157 771.501 632.394C771.501 632.079 771.508 631.84 771.523 631.675C771.778 631.45 772.175 631.181 772.714 630.866C773.253 630.552 773.889 630.275 774.623 630.035C775.357 629.781 776.105 629.653 776.869 629.653C778.651 629.653 779.939 630.05 780.732 630.844C781.541 631.637 781.945 632.798 781.945 634.325C781.945 635.254 781.826 636.444 781.586 637.896C781.361 639.334 781.129 640.36 780.89 640.974L781.698 641.108L783.046 636.032C783.645 633.741 784.394 632.109 785.292 631.136C786.19 630.147 787.201 629.653 788.324 629.653C789.058 629.653 789.784 629.766 790.503 629.99C791.237 630.215 791.798 630.492 792.187 630.821C792.607 631.75 792.816 632.985 792.816 634.527C792.816 635.605 792.712 636.676 792.502 637.739C792.292 638.787 792.023 639.633 791.693 640.277L786.977 639.648C786.018 640.667 785 642.082 783.922 643.894C782.844 645.69 781.983 647.345 781.339 648.857L781.316 650.025L785.674 648.992C786.408 650.115 786.834 651.448 786.954 652.99C786.954 653.08 786.617 653.447 785.943 654.091C785.27 654.735 784.379 655.334 783.27 655.888C782.177 656.427 780.92 656.696 779.497 656.696C778.03 656.696 776.802 656.307 775.813 655.528C774.84 654.735 774.324 653.402 774.264 651.53C774.249 651.306 774.241 650.879 774.241 650.25ZM805.82 638.436C805.82 634.977 805.88 631.907 806 629.227L802.967 628.755C802.773 628.201 802.623 627.587 802.518 626.913C802.413 626.239 802.361 625.588 802.361 624.959C802.361 624.48 802.398 623.956 802.473 623.387C804.435 622.698 807.025 622.204 810.245 621.904C813.464 621.605 816.609 621.455 819.678 621.455C821.969 621.455 823.939 621.635 825.586 621.994C827.233 622.354 828.61 623.17 829.718 624.442C830.842 625.7 831.403 627.587 831.403 630.103C831.403 631.136 831.238 632.281 830.909 633.539C830.579 634.782 830.123 636.025 829.539 637.268C829 638.406 828.386 639.491 827.697 640.524C827.023 641.543 826.319 642.419 825.586 643.152C826.02 644.29 826.469 645.331 826.933 646.274C827.397 647.203 828.109 648.333 829.067 649.666L832.212 648.341C833.38 649.344 834.061 650.677 834.256 652.339C834.256 652.429 833.896 652.855 833.177 653.619C832.474 654.383 831.553 655.094 830.415 655.753C829.277 656.397 827.996 656.719 826.574 656.719C825.466 656.719 824.47 656.524 823.587 656.135C822.718 655.745 821.999 655.064 821.43 654.091C820.876 653.132 820.435 651.994 820.105 650.677C819.776 649.359 819.544 648.056 819.409 646.769L814.288 646.544C814.423 647.712 814.595 648.917 814.804 650.16C815.014 651.388 815.141 652.129 815.186 652.384C815.441 653.866 815.606 654.877 815.68 655.416C814.992 655.835 814.153 656.157 813.165 656.382C812.191 656.606 811.196 656.719 810.177 656.719C809.009 656.719 807.879 656.562 806.786 656.247C806.456 654.929 806.209 652.623 806.045 649.329C805.895 646.02 805.82 642.389 805.82 638.436ZM819.791 641.131C820.315 639.633 820.727 638.009 821.026 636.257C821.341 634.49 821.625 632.386 821.88 629.945C821.445 629.781 820.876 629.653 820.173 629.563C819.469 629.474 818.787 629.429 818.129 629.429C816.631 629.429 815.508 629.466 814.759 629.541C814.595 635.171 814.415 639.162 814.22 641.513L819.791 641.131ZM835.794 624.038C835.794 622.72 836.22 621.65 837.074 620.826C837.942 620.003 839.32 619.591 841.207 619.591C843.093 619.591 844.463 620.003 845.317 620.826C846.185 621.65 846.62 622.72 846.62 624.038C846.62 624.787 846.358 625.476 845.834 626.104C845.324 626.733 844.651 627.235 843.812 627.609C842.974 627.969 842.105 628.148 841.207 628.148C840.233 628.148 839.327 627.939 838.489 627.52C837.665 627.085 837.006 626.546 836.512 625.902C836.033 625.258 835.794 624.637 835.794 624.038ZM834.693 636.886C834.498 636.152 834.364 635.486 834.289 634.887C834.214 634.273 834.176 633.636 834.176 632.978L834.199 632.349C834.513 631.944 835 631.54 835.659 631.136C836.333 630.716 837.111 630.365 837.995 630.08C838.893 629.796 839.822 629.653 840.78 629.653C842.876 629.653 844.366 630.125 845.25 631.068C846.133 632.012 846.575 633.479 846.575 635.471C846.575 636.669 846.403 638.233 846.058 640.165C845.729 642.097 845.324 643.976 844.845 645.803C844.381 647.615 843.977 648.91 843.632 649.688L843.677 649.733L847.002 648.521C847.6 649.03 848.05 649.591 848.349 650.205C848.664 650.819 848.866 651.53 848.956 652.339C848.956 652.444 848.626 652.878 847.967 653.642C847.308 654.39 846.433 655.094 845.339 655.753C844.261 656.397 843.011 656.719 841.588 656.719C840.151 656.719 838.983 656.329 838.085 655.551C837.201 654.772 836.759 653.439 836.759 651.553C836.759 649.352 836.819 647.016 836.939 644.545C837.059 642.074 837.246 639.678 837.501 637.357L834.693 636.886ZM863.498 659.841C864.502 659.841 865.37 659.729 866.104 659.504C866.329 659.279 866.486 659.017 866.576 658.718C866.665 658.433 866.71 658.164 866.71 657.909C866.71 657.64 866.688 657.437 866.643 657.303C866.598 657.183 866.523 657.071 866.418 656.966C865.789 656.861 865.048 656.786 864.195 656.741C863.356 656.711 862.855 656.689 862.69 656.674C860.608 656.584 858.916 656.434 857.614 656.225C856.311 656 855.195 655.521 854.267 654.787C853.339 654.038 852.874 652.915 852.874 651.418C852.874 650.609 853.136 649.853 853.661 649.149C854.185 648.431 854.866 647.802 855.705 647.263C853.997 646.559 852.627 645.503 851.594 644.096C850.576 642.673 850.067 640.839 850.067 638.593C850.067 636.362 850.636 634.572 851.774 633.225C852.927 631.862 854.342 630.904 856.019 630.35C857.696 629.796 859.403 629.519 861.14 629.519C862.233 629.519 863.304 629.623 864.352 629.833C865.4 630.043 866.373 630.342 867.272 630.731L866.306 625.026C867.219 624.472 868.358 624.195 869.72 624.195C870.708 624.195 871.629 624.36 872.483 624.689C873.336 625.019 873.988 625.491 874.437 626.104C874.467 626.254 874.482 626.494 874.482 626.823C874.482 628.051 874.257 629.421 873.808 630.934C873.374 632.431 872.618 633.636 871.539 634.55C872.079 635.628 872.348 636.788 872.348 638.031C872.348 639.858 871.996 641.543 871.292 643.085C870.604 644.627 869.451 645.885 867.833 646.858C866.216 647.817 864.112 648.296 861.522 648.296C860.773 648.296 859.995 648.251 859.186 648.161C859.141 648.91 859.321 649.659 859.725 650.407C861.747 650.018 863.379 649.816 864.622 649.801L866.149 649.778C868.215 649.778 869.78 649.906 870.843 650.16C872.011 650.445 872.88 651.089 873.449 652.092C874.033 653.095 874.325 654.315 874.325 655.753C874.325 657.999 873.636 659.886 872.258 661.413C870.896 662.955 869.121 664.101 866.935 664.85C864.764 665.598 862.458 665.973 860.017 665.973C857.756 665.973 855.742 665.591 853.975 664.827C852.208 664.063 851.093 662.663 850.628 660.627C851.122 658.905 852.066 657.602 853.458 656.719C855.33 657.842 857.12 658.643 858.827 659.122C860.549 659.601 862.106 659.841 863.498 659.841ZM862.128 642.748C863.206 642.748 863.835 642.681 864.015 642.546C864.419 641.737 864.622 640.906 864.622 640.053C864.622 639.169 864.419 638.338 864.015 637.56C863.82 637.395 863.386 637.268 862.712 637.178C862.053 637.088 861.335 637.043 860.556 637.043C859.583 637.043 858.931 637.103 858.602 637.223C858.138 638.046 857.906 638.877 857.906 639.716C857.906 640.569 858.123 641.378 858.557 642.142C858.886 642.351 859.381 642.508 860.039 642.613C860.713 642.703 861.41 642.748 862.128 642.748ZM877.255 641.67C877.255 634.722 877.39 629.945 877.659 627.34L875.121 626.891C874.762 625.513 874.582 624.031 874.582 622.443C874.807 622.159 875.226 621.807 875.84 621.388C876.454 620.968 877.165 620.602 877.974 620.287C878.797 619.973 879.614 619.815 880.422 619.815C882.264 619.815 883.634 620.287 884.532 621.23C885.431 622.174 885.88 623.619 885.88 625.565C885.88 626.419 885.805 627.797 885.656 629.698C885.506 631.585 885.289 633.614 885.004 635.785C884.72 637.941 884.39 639.866 884.016 641.558C884.016 641.647 884.068 641.73 884.173 641.805C884.278 641.88 884.39 641.917 884.51 641.917C884.645 641.917 884.735 641.865 884.78 641.76C885.379 639.379 885.977 637.387 886.576 635.785C887.175 634.183 888.081 632.76 889.294 631.518C890.507 630.275 892.079 629.653 894.011 629.653C896.407 629.653 898.129 630.387 899.177 631.854C900.225 633.307 900.749 635.141 900.749 637.357C900.749 639.334 900.517 641.243 900.053 643.085C899.589 644.912 899.012 646.821 898.323 648.812C898.353 648.738 898.249 649.03 898.009 649.688L898.054 649.733L901.378 648.341C902.546 649.344 903.227 650.677 903.422 652.339C903.422 652.444 903.085 652.878 902.411 653.642C901.738 654.39 900.847 655.094 899.739 655.753C898.645 656.397 897.388 656.719 895.965 656.719C894.543 656.719 893.382 656.337 892.484 655.573C891.585 654.81 891.136 653.507 891.136 651.665C891.136 650.198 891.196 648.236 891.316 645.78C891.435 643.325 891.555 641.348 891.675 639.851C891.286 639.431 890.807 639.207 890.238 639.177C889.713 639.851 888.942 641.198 887.924 643.22C886.906 645.241 886.187 646.754 885.768 647.757C885.738 647.966 885.723 648.169 885.723 648.363C885.723 649.112 885.835 650.123 886.06 651.396C886.284 652.653 886.561 653.829 886.891 654.922C886.621 655.431 886.067 655.858 885.229 656.202C884.39 656.547 883.357 656.719 882.129 656.719C881.021 656.719 880.13 656.629 879.456 656.449C878.797 656.27 878.333 656.082 878.064 655.888C877.794 655.678 877.659 655.551 877.659 655.506C877.644 655.371 877.607 655.019 877.547 654.45C877.487 653.866 877.427 653.058 877.367 652.024C877.308 650.976 877.278 649.786 877.278 648.453L877.255 641.67ZM906.42 643.871C906.42 641.43 906.457 639.207 906.532 637.2L904.084 636.773C903.889 636.025 903.755 635.366 903.68 634.797C903.605 634.228 903.567 633.621 903.567 632.978L903.612 632.528C903.657 632.319 903.68 632.146 903.68 632.012L906.937 631.293C907.011 630.365 907.184 629.316 907.453 628.148C907.723 626.98 908.007 626.119 908.307 625.565C908.786 625.206 909.362 624.937 910.036 624.757C910.71 624.577 911.436 624.487 912.215 624.487C912.874 624.487 913.51 624.555 914.124 624.689C914.753 624.809 915.3 624.974 915.764 625.184C915.809 625.693 915.831 626.277 915.831 626.936C915.831 628.014 915.779 629.234 915.674 630.597L919.627 629.878C920.181 630.836 920.458 631.877 920.458 633C920.458 633.779 920.361 634.482 920.166 635.111C919.986 635.74 919.732 636.451 919.402 637.245C918.414 637.41 917.059 637.515 915.337 637.56C915.127 640 914.663 643.587 913.944 648.318L913.832 649.082L913.877 649.127L919.155 647.487C920.248 648.401 920.915 649.808 921.154 651.71C921.154 651.815 920.668 652.309 919.694 653.192C918.736 654.061 917.531 654.869 916.078 655.618C914.626 656.352 913.046 656.719 911.339 656.719C908.359 656.719 906.772 654.899 906.577 651.261C906.472 649.419 906.42 646.956 906.42 643.871ZM924.332 648.341C925.65 648.865 926.705 649.269 927.499 649.554C928.293 649.838 929.161 650.085 930.104 650.295C931.063 650.505 932.014 650.609 932.957 650.609C933.376 650.609 933.676 650.572 933.855 650.497C933.9 650.437 933.938 650.347 933.968 650.228C934.013 650.093 934.035 649.958 934.035 649.823C934.035 649.524 933.863 649.277 933.519 649.082C932.979 648.783 932.021 648.311 930.644 647.667C928.757 646.769 927.259 645.967 926.151 645.264C925.058 644.56 924.13 643.624 923.366 642.456C922.617 641.288 922.243 639.821 922.243 638.054C922.243 635.523 922.999 633.494 924.512 631.967C926.024 630.424 928.42 629.653 931.699 629.653C935.607 629.653 938.647 630.162 940.818 631.181C940.923 631.615 940.976 632.161 940.976 632.82C940.976 634.078 940.781 635.366 940.392 636.684C940.002 637.986 939.493 638.952 938.864 639.581C938.011 639.297 936.805 638.84 935.248 638.211C934.11 637.762 933.204 637.417 932.53 637.178C931.871 636.923 931.265 636.743 930.711 636.639C930.411 636.714 930.172 636.893 929.992 637.178C929.812 637.447 929.723 637.769 929.723 638.144C929.723 638.473 929.82 638.75 930.015 638.975C930.209 639.199 930.426 639.379 930.666 639.514C930.921 639.633 931.28 639.798 931.744 640.008C931.984 640.113 932.208 640.21 932.418 640.3C932.628 640.375 932.822 640.45 933.002 640.524C934.17 641.019 935.091 641.423 935.765 641.737C936.438 642.052 937.09 642.426 937.719 642.86C938.872 643.654 939.778 644.56 940.437 645.578C941.095 646.596 941.425 647.712 941.425 648.925C941.425 650.602 940.946 652.054 939.987 653.282C939.044 654.495 937.831 655.379 936.349 655.933C935.57 656.217 934.716 656.419 933.788 656.539C932.875 656.674 931.804 656.741 930.576 656.741C929.124 656.741 927.626 656.464 926.084 655.91C924.557 655.341 923.389 654.398 922.58 653.08C922.595 652.167 922.715 651.373 922.939 650.699C923.179 650.01 923.643 649.224 924.332 648.341Z" fill="#333333"/>
</svg>
