<svg width="1000" height="1000" viewBox="0 0 1000 1000" fill="none" xmlns="http://www.w3.org/2000/svg">
<g clip-path="url(#clip0_692_45561)">
<mask id="path-1-inside-1_692_45561" fill="white">
<path fill-rule="evenodd" clip-rule="evenodd" d="M808.849 741.468C942.846 738.479 1051 525.359 1051 391C1051 255.69 941.31 146 806 146C670.69 146 561 255.69 561 391C561 522.361 664.381 729.007 794.22 740.957C794.219 740.967 794.217 740.977 794.216 740.986C792.957 750.323 791.481 761.273 778 761.273C778 777.432 786.136 777.215 796.924 776.927C798.404 776.888 799.934 776.847 801.5 776.847C803.066 776.847 804.596 776.888 806.076 776.927C816.864 777.215 825 777.432 825 761.273C811.75 761.273 810.097 750.695 808.849 741.468Z"/>
</mask>
<path fill-rule="evenodd" clip-rule="evenodd" d="M808.849 741.468C942.846 738.479 1051 525.359 1051 391C1051 255.69 941.31 146 806 146C670.69 146 561 255.69 561 391C561 522.361 664.381 729.007 794.22 740.957C794.219 740.967 794.217 740.977 794.216 740.986C792.957 750.323 791.481 761.273 778 761.273C778 777.432 786.136 777.215 796.924 776.927C798.404 776.888 799.934 776.847 801.5 776.847C803.066 776.847 804.596 776.888 806.076 776.927C816.864 777.215 825 777.432 825 761.273C811.75 761.273 810.097 750.695 808.849 741.468Z" fill="#DD2E44" fill-opacity="0.75"/>
<path d="M808.849 741.468L808.671 733.47L799.721 733.67L800.921 742.54L808.849 741.468ZM794.22 740.957L802.148 742.025L803.262 733.756L794.953 732.991L794.22 740.957ZM794.216 740.986L802.144 742.055L802.145 742.053L794.216 740.986ZM778 761.273V753.273H770V761.273H778ZM796.924 776.927L796.711 768.93L796.711 768.93L796.924 776.927ZM806.076 776.927L806.289 768.93L806.289 768.93L806.076 776.927ZM825 761.273H833V753.273H825V761.273ZM1043 391C1043 456.407 1016.54 541.833 973.379 611.275C929.995 681.073 871.48 732.069 808.671 733.47L809.027 749.466C880.215 747.878 942.776 690.82 986.968 619.721C1031.38 548.266 1059 459.952 1059 391H1043ZM806 154C936.891 154 1043 260.109 1043 391H1059C1059 251.272 945.728 138 806 138V154ZM569 391C569 260.109 675.109 154 806 154V138C666.272 138 553 251.272 553 391H569ZM794.953 732.991C733.919 727.373 677.443 675.535 635.766 606.618C594.284 538.023 569 454.936 569 391H553C553 458.424 579.407 544.341 622.075 614.897C664.548 685.131 724.681 742.591 793.487 748.924L794.953 732.991ZM802.145 742.053C802.145 742.05 802.145 742.047 802.146 742.042C802.147 742.037 802.148 742.031 802.148 742.025L786.292 739.89C786.291 739.893 786.291 739.897 786.29 739.902C786.289 739.906 786.289 739.912 786.288 739.919L802.145 742.053ZM778 769.273C782.467 769.273 786.516 768.358 790.01 766.364C793.526 764.356 795.968 761.548 797.653 758.573C800.771 753.067 801.569 746.323 802.144 742.055L786.288 739.917C785.605 744.986 785.035 748.385 783.731 750.688C783.204 751.618 782.67 752.13 782.078 752.468C781.464 752.819 780.273 753.273 778 753.273V769.273ZM796.711 768.93C793.899 769.005 791.839 769.05 790.086 768.903C788.358 768.758 787.64 768.466 787.381 768.319C787.328 768.289 787.126 768.228 786.83 767.514C786.45 766.595 786 764.734 786 761.273H770C770 770.396 772.314 778.143 779.452 782.216C782.576 783.998 785.914 784.609 788.745 784.847C791.552 785.083 794.555 784.993 797.137 784.924L796.711 768.93ZM801.5 768.847C799.811 768.847 798.176 768.891 796.711 768.93L797.137 784.924C798.632 784.885 800.058 784.847 801.5 784.847V768.847ZM806.289 768.93C804.824 768.891 803.189 768.847 801.5 768.847V784.847C802.942 784.847 804.368 784.885 805.863 784.924L806.289 768.93ZM817 761.273C817 764.734 816.55 766.595 816.17 767.514C815.874 768.228 815.672 768.289 815.619 768.319C815.36 768.466 814.642 768.758 812.914 768.903C811.161 769.05 809.101 769.005 806.289 768.93L805.863 784.924C808.445 784.993 811.448 785.083 814.255 784.847C817.086 784.609 820.424 783.998 823.548 782.216C830.686 778.143 833 770.396 833 761.273H817ZM800.921 742.54C801.501 746.832 802.344 753.454 805.522 758.875C807.233 761.795 809.685 764.523 813.167 766.464C816.623 768.39 820.611 769.273 825 769.273V753.273C822.764 753.273 821.576 752.833 820.957 752.488C820.363 752.157 819.84 751.663 819.326 750.786C818.052 748.612 817.444 745.332 816.777 740.396L800.921 742.54Z" fill="black" mask="url(#path-1-inside-1_692_45561)"/>
<path d="M819.231 718.493C740.377 708.709 849.01 668.702 867 577C884.99 485.298 837.133 512.437 933.621 472.685C1042.32 417.792 1004.95 189.559 1029.57 341.775C1054.18 493.99 951.714 697.071 819.231 718.493Z" fill="black" fill-opacity="0.25"/>
<path opacity="0.6" d="M657 562.999C686 627 736.91 652.372 713.501 664.499C685 679.264 584.501 523.844 584.5 397.5C584.5 397.5 628.001 498.999 657 562.999Z" fill="black" fill-opacity="0.25"/>
<ellipse cx="723.586" cy="224.28" rx="27.2497" ry="26.6875" transform="rotate(-3.52314 723.586 224.28)" fill="white" fill-opacity="0.7"/>
<path d="M636 323C629.555 365.566 638.805 359.999 629.686 379.855C622.501 395.499 593.315 386 598.501 348.5C605 301.5 656.145 220.148 681.784 238.041C692.707 245.663 647.097 249.717 636 323Z" fill="white" fill-opacity="0.7"/>
<path d="M781.74 750.008C795.35 750.008 809.287 749.643 822.791 753.768C827.381 755.17 833.173 757.186 835.872 765.846C838.326 773.72 836.364 786.034 833.908 792.883C829.938 803.955 821.302 804.09 815.327 805.442C806.228 807.5 797.814 810.421 789.203 816.88C782.595 821.838 776.209 827.243 769.719 832.879C760.184 841.159 751.66 855.359 743.242 867.515C731.761 884.091 728 906.555 728 933.987C728 944.586 730.195 955.833 731.575 965.903C734.54 987.542 739.606 1010.73 746.463 1028.54C758.607 1060.06 778.488 1077.9 788.339 1113.33C790.053 1119.49 790.303 1128.57 790.225 1135.56C790.208 1137.03 789.518 1145.68 789.518 1140.2" stroke="black" stroke-width="11" stroke-linecap="round"/>
</g>
<defs>
<clipPath id="clip0_692_45561">
<rect width="1000" height="1000" fill="white"/>
</clipPath>
</defs>
</svg>
