<svg width="1000" height="1000" viewBox="0 0 1000 1000" fill="none" xmlns="http://www.w3.org/2000/svg">
<g clip-path="url(#clip0_772_53847)">
<rect x="772.688" y="589.931" width="61.2924" height="825.07" fill="#D7D6DC" stroke="black" stroke-width="8"/>
<rect x="819.32" y="593.931" width="10.6585" height="817.07" fill="black" fill-opacity="0.25"/>
<rect x="776.688" y="593.931" width="10.6585" height="817.07" fill="white" fill-opacity="0.25"/>
<rect x="9.53674e-07" y="-22.5864" width="376.444" height="376.444" transform="matrix(0.708387 0.705824 -0.708387 0.705824 788 344.356)" fill="#FFED00" stroke="black" stroke-width="32"/>
<path opacity="0.4" d="M804 351L1048 594.117L804 837.234L804 594.117L804 351Z" fill="black" fill-opacity="0.25"/>
<path fill-rule="evenodd" clip-rule="evenodd" d="M864.339 542.825C873.059 538.213 879 529.05 879 518.5C879 503.312 866.688 491 851.5 491C836.312 491 824 503.312 824 518.5C824 526.526 827.438 533.749 832.922 538.776C829.445 539.686 825.131 541.813 820.247 546.071C817.631 548.176 815.099 549.986 812.75 551.665L812.75 551.665C803.65 558.167 797.315 562.695 799.654 574.732C805.374 588.574 809.623 600.787 802.596 601.276C801.702 601.369 800.863 601.472 800.075 601.569C793.95 602.324 790.913 602.698 789.03 594.762C786.18 588.514 780.625 577.035 776.306 570.388C784.182 565.693 789.447 557.169 789.447 547.433C789.447 532.628 777.271 520.626 762.253 520.626C747.234 520.626 735.059 532.628 735.059 547.433C735.059 553.201 736.907 558.544 740.051 562.917C727.351 566.494 711.45 578.836 704.043 610.721C704.011 610.852 703.979 610.986 703.945 611.122C702.608 616.588 700.228 626.322 711.071 625.051C718.425 625.051 721.368 617.724 717.609 610.721C717.118 605.347 722.839 588.737 734.769 585.806C734.676 586.402 734.707 587.416 734.747 588.77C735.064 599.253 735.995 630.12 684.758 645.407C687.111 657.523 689.879 669.888 690.968 674.556C693.039 674.64 697.081 671.469 696.689 658.109C697.326 657.94 698.097 657.748 698.98 657.529L698.981 657.529C708.29 655.219 730.062 649.816 739.019 634.496C739.535 633.925 740.049 633.326 740.561 632.731L740.561 632.731C744.417 628.242 748.102 623.953 751.277 632.868C751.947 634.75 752.98 637.423 754.212 640.612C759.594 654.535 768.775 678.287 768.11 688.887C770.072 691.655 774.648 691.004 777.099 688.887C779.061 687.193 787.832 685.467 791.972 684.816C796.603 687.855 816.956 688.887 804.91 678.953C799.573 674.552 800.007 670.485 804.91 664.297C806.939 662.612 812.987 656.321 819.755 649.28C826.068 642.712 833.008 635.493 837.898 630.751L864.211 628.308C863.884 637.97 866.98 658.698 879.738 682.699C878.594 691.655 882.189 698.658 894.12 693.772C906.072 690.051 909.552 686.526 911.033 685.026L911.034 685.025C911.108 684.95 911.177 684.88 911.242 684.816C912.768 683.404 911.242 678.953 896.245 682.699C889.577 667.977 882.462 638.133 879.738 625.051H896.245C895.303 623.855 894.071 622.395 892.657 620.718L892.655 620.716C884.25 610.752 869.406 593.154 870.749 577.989C879.738 591.505 898.206 604.858 906.051 607.79C908.829 615.281 917.165 616.421 920.433 610.721C923.702 605.021 921.741 597.531 913.896 598.833C906.051 595.251 890.198 583.363 874.344 552.26C872.421 548.949 868.251 545.405 864.339 542.825ZM785.271 616.909L770.562 597.693C770.562 599.43 769.908 605.705 767.293 616.909C774.117 623.831 777.644 648.491 779.877 664.1C780.585 669.053 781.164 673.095 781.675 675.37C787.132 678.875 787.132 674.825 787.132 669.94C787.132 665.054 812.401 632.867 817.795 630.425C820.737 627.982 820.246 624.237 814.853 619.677C823.744 610.167 829.78 577.066 831.687 561.704C830.597 562.084 826.784 563.756 820.246 567.404C812.401 570.335 814.526 577.174 820.246 591.016C827.176 610.297 799.817 616.311 785.271 616.909Z" fill="#090909"/>
</g>
<defs>
<clipPath id="clip0_772_53847">
<rect width="1000" height="1000" fill="white"/>
</clipPath>
</defs>
</svg>
