<svg width="1000" height="1000" viewBox="0 0 1000 1000" fill="none" xmlns="http://www.w3.org/2000/svg">
<rect x="767" y="423" width="26" height="577" fill="black"/>
<rect x="585" y="460" width="391" height="300" fill="#F72087" stroke="black" stroke-width="8"/>
<rect x="585" y="460" width="20" height="300" fill="black" fill-opacity="0.25"/>
<path d="M644.133 603.453C652.883 603.453 659.289 605.844 663.352 610.625C667.414 615.375 669.445 622.094 669.445 630.781C669.445 636.5 668.461 641.547 666.492 645.922C664.555 650.297 661.602 653.734 657.633 656.234C653.695 658.703 648.867 659.938 643.148 659.938C637.492 659.938 632.789 658.812 629.039 656.562C625.289 654.312 622.508 651.156 620.695 647.094C618.883 643 617.977 638.188 617.977 632.656C617.977 626.844 618.898 621.766 620.742 617.422C622.586 613.047 625.461 609.625 629.367 607.156C633.273 604.688 638.195 603.453 644.133 603.453ZM645.398 646.672C647.43 646.672 648.617 646.547 648.961 646.297C649.68 645.047 650.227 643.234 650.602 640.859C651.008 638.453 651.211 635.875 651.211 633.125C651.211 630.594 651.039 628.203 650.695 625.953C650.383 623.703 649.945 621.969 649.383 620.75C649.039 620.375 648.18 620.078 646.805 619.859C645.461 619.641 644.18 619.531 642.961 619.531C642.086 619.531 641.211 619.578 640.336 619.672C639.492 619.766 638.945 619.891 638.695 620.047C637.133 622.609 636.352 626.469 636.352 631.625C636.352 634.031 636.523 636.469 636.867 638.938C637.211 641.406 637.648 643.578 638.18 645.453C638.555 645.859 639.445 646.172 640.852 646.391C642.289 646.578 643.805 646.672 645.398 646.672ZM689.367 640.203C693.492 640.203 696.492 641.109 698.367 642.922C700.273 644.703 701.227 646.953 701.227 649.672C701.227 651.484 700.648 653.188 699.492 654.781C698.367 656.344 696.883 657.594 695.039 658.531C693.227 659.469 691.336 659.938 689.367 659.938C687.398 659.938 685.492 659.469 683.648 658.531C681.836 657.594 680.352 656.344 679.195 654.781C678.07 653.188 677.508 651.484 677.508 649.672C677.508 646.953 678.445 644.703 680.32 642.922C682.227 641.109 685.242 640.203 689.367 640.203ZM735.445 603.453C744.195 603.453 750.602 605.844 754.664 610.625C758.727 615.375 760.758 622.094 760.758 630.781C760.758 636.5 759.773 641.547 757.805 645.922C755.867 650.297 752.914 653.734 748.945 656.234C745.008 658.703 740.18 659.938 734.461 659.938C728.805 659.938 724.102 658.812 720.352 656.562C716.602 654.312 713.82 651.156 712.008 647.094C710.195 643 709.289 638.188 709.289 632.656C709.289 626.844 710.211 621.766 712.055 617.422C713.898 613.047 716.773 609.625 720.68 607.156C724.586 604.688 729.508 603.453 735.445 603.453ZM736.711 646.672C738.742 646.672 739.93 646.547 740.273 646.297C740.992 645.047 741.539 643.234 741.914 640.859C742.32 638.453 742.523 635.875 742.523 633.125C742.523 630.594 742.352 628.203 742.008 625.953C741.695 623.703 741.258 621.969 740.695 620.75C740.352 620.375 739.492 620.078 738.117 619.859C736.773 619.641 735.492 619.531 734.273 619.531C733.398 619.531 732.523 619.578 731.648 619.672C730.805 619.766 730.258 619.891 730.008 620.047C728.445 622.609 727.664 626.469 727.664 631.625C727.664 634.031 727.836 636.469 728.18 638.938C728.523 641.406 728.961 643.578 729.492 645.453C729.867 645.859 730.758 646.172 732.164 646.391C733.602 646.578 735.117 646.672 736.711 646.672ZM772.898 653.047C776.742 655.422 780.273 657.109 783.492 658.109C786.742 659.078 789.648 659.562 792.211 659.562C793.867 659.562 795.195 659.25 796.195 658.625C796.602 658.031 796.898 657.281 797.086 656.375C797.305 655.469 797.43 654.516 797.461 653.516C797.461 652.516 797.414 651.688 797.32 651.031C796.727 650.094 795.586 649.062 793.898 647.938C792.242 646.812 790.227 645.688 787.852 644.562C786.883 645.344 785.789 646.016 784.57 646.578C783.383 647.141 782.195 647.547 781.008 647.797C779.977 647.453 778.992 646.844 778.055 645.969C777.117 645.062 776.352 643.969 775.758 642.688C775.195 641.406 774.914 640.094 774.914 638.75C774.914 637.156 775.367 635.641 776.273 634.203C777.18 632.766 778.586 631.516 780.492 630.453C781.273 630.453 782.258 630.641 783.445 631.016C784.633 631.391 785.742 631.922 786.773 632.609L788.555 622.016L770.648 625.062C769.461 623.719 768.508 622.344 767.789 620.938C767.102 619.5 766.758 617.734 766.758 615.641C766.758 613.203 767.227 611.062 768.164 609.219C769.102 607.375 770.367 605.953 771.961 604.953C773.586 603.953 775.398 603.453 777.398 603.453C780.055 603.453 782.883 604.047 785.883 605.234C788.883 606.391 791.664 607.859 794.227 609.641C795.008 608.797 796.211 607.906 797.836 606.969C799.461 606 801.211 605.188 803.086 604.531C804.961 603.875 806.648 603.516 808.148 603.453C810.055 604.266 811.539 605.859 812.602 608.234C813.664 610.609 814.195 613.312 814.195 616.344C814.195 618.625 813.883 620.703 813.258 622.578C812.164 623.297 810.57 623.656 808.477 623.656C807.195 623.656 805.789 623.547 804.258 623.328C803.383 624.828 802.164 626.656 800.602 628.812C799.07 630.969 797.32 633.188 795.352 635.469C795.633 635.438 796.07 635.422 796.664 635.422C799.758 635.422 802.695 636.062 805.477 637.344C808.289 638.594 810.539 640.344 812.227 642.594C813.914 644.812 814.727 647.312 814.664 650.094C814.539 654.875 813.195 659.047 810.633 662.609C808.07 666.203 804.695 668.953 800.508 670.859C796.352 672.797 791.836 673.766 786.961 673.766C782.117 673.766 777.742 672.969 773.836 671.375C769.93 669.781 767.555 666.859 766.711 662.609C767.336 660.578 768.18 658.688 769.242 656.938C770.305 655.188 771.523 653.891 772.898 653.047ZM824.742 653.516C832.211 657.984 838.367 660.219 843.211 660.219C844.086 660.219 844.977 660.156 845.883 660.031C846.789 659.906 847.539 659.75 848.133 659.562C848.414 658.719 848.633 657.5 848.789 655.906C848.945 654.312 849.023 652.938 849.023 651.781C849.023 650.938 848.961 650.078 848.836 649.203C848.742 648.297 848.633 647.625 848.508 647.188C846.195 645.344 842.883 644.094 838.57 643.438C837.414 644.562 836.227 645.516 835.008 646.297C833.789 647.078 832.695 647.562 831.727 647.75C829.852 647.188 828.289 646.141 827.039 644.609C825.789 643.078 825.164 641.484 825.164 639.828C825.164 638.484 825.352 637.375 825.727 636.5C826.133 635.625 826.695 634.703 827.414 633.734H827.508C825.883 629.547 824.586 625.609 823.617 621.922C822.648 618.203 822.164 614.812 822.164 611.75C822.164 609.688 822.43 607.75 822.961 605.938C825.555 604.906 828.305 604.391 831.211 604.391C832.68 604.391 834.336 604.562 836.18 604.906C838.023 605.219 840.461 605.75 843.492 606.5L860.414 603.453C861.633 604.297 862.586 605.688 863.273 607.625C863.992 609.562 864.352 611.656 864.352 613.906C864.352 617.75 863.305 620.656 861.211 622.625C858.93 623.562 856.648 624.031 854.367 624.031C851.492 624.031 848.852 623.578 846.445 622.672C844.07 621.766 841.742 620.281 839.461 618.219L838.664 631.766C841.008 630.797 843.492 630.312 846.117 630.312C849.617 630.312 852.898 631.031 855.961 632.469C859.055 633.906 861.555 636.125 863.461 639.125C865.398 642.094 866.367 645.781 866.367 650.188C866.367 654.938 865.07 659.094 862.477 662.656C859.883 666.25 856.445 669 852.164 670.906C847.883 672.812 843.289 673.766 838.383 673.766C835.883 673.766 833.289 673.469 830.602 672.875C827.914 672.281 825.43 671.156 823.148 669.5C820.898 667.875 819.445 665.609 818.789 662.703C819.352 660.734 820.133 658.938 821.133 657.312C822.164 655.656 823.367 654.391 824.742 653.516ZM885.398 655.172C885.398 654.245 885.591 653.344 885.977 652.469C886.154 652.469 886.43 652.505 886.805 652.578C887.19 652.641 887.591 652.724 888.008 652.828C887.945 650.016 887.914 647.708 887.914 645.906C887.914 643.667 887.956 641.755 888.039 640.172L885.633 639.844C885.497 639.458 885.393 639.036 885.32 638.578C885.247 638.109 885.211 637.656 885.211 637.219C885.211 636.885 885.237 636.521 885.289 636.125C886.529 635.656 888.159 635.318 890.18 635.109C892.211 634.891 894.258 634.781 896.32 634.781C898.268 634.781 899.68 634.87 900.555 635.047C901.117 635.391 901.607 635.74 902.023 636.094C902.451 636.438 902.857 636.865 903.242 637.375C903.242 638.104 903.169 638.896 903.023 639.75C902.888 640.594 902.695 641.37 902.445 642.078C902.206 642.786 901.945 643.297 901.664 643.609C901.424 643.724 901.159 643.812 900.867 643.875C900.576 643.927 900.216 643.953 899.789 643.953C899.414 643.953 899.091 643.922 898.82 643.859C898.56 643.786 898.31 643.682 898.07 643.547L897.539 640.141C896.883 640.036 896.102 639.984 895.195 639.984C894.945 639.984 894.695 640 894.445 640.031C894.404 641.542 894.19 643.599 893.805 646.203C896.117 645.818 898.091 645.536 899.727 645.359C900.143 645.995 900.352 646.771 900.352 647.688C900.352 648.292 900.268 648.875 900.102 649.438C899.935 650 899.753 650.391 899.555 650.609C899.117 650.682 898.596 650.719 897.992 650.719C897.211 650.719 896.398 650.651 895.555 650.516C894.721 650.38 893.94 650.182 893.211 649.922L893.008 651.25C892.883 651.99 892.773 652.719 892.68 653.438L902.57 652.859C902.727 653.005 902.857 653.297 902.961 653.734C903.076 654.172 903.133 654.651 903.133 655.172C903.133 656.005 902.966 656.734 902.633 657.359C902.299 657.984 901.857 658.469 901.305 658.812C900.763 659.146 900.18 659.312 899.555 659.312C898.93 659.312 898.076 659.177 896.992 658.906C895.919 658.625 894.872 658.276 893.852 657.859C892.841 657.443 892.096 657.042 891.617 656.656C891.138 657.49 890.612 658.125 890.039 658.562C889.477 659 888.747 659.25 887.852 659.312C887.404 659.24 886.992 659.01 886.617 658.625C886.242 658.24 885.945 657.745 885.727 657.141C885.508 656.536 885.398 655.88 885.398 655.172ZM908.398 653.688C909.159 653.99 909.758 654.224 910.195 654.391C910.633 654.557 911.091 654.703 911.57 654.828C911.706 654.484 911.773 654.016 911.773 653.422C911.773 652.62 911.716 651.151 911.602 649.016C911.435 646.161 911.352 643.974 911.352 642.453C911.352 641.401 911.383 640.495 911.445 639.734L908.867 639.578L908.82 644.5C908.039 644.76 907.159 644.891 906.18 644.891C905.93 644.891 905.742 644.885 905.617 644.875C905.273 644.604 904.914 644.177 904.539 643.594C904.174 643.01 903.872 642.354 903.633 641.625C903.393 640.896 903.273 640.193 903.273 639.516C903.273 638.349 903.466 637.458 903.852 636.844C904.237 636.229 904.779 635.807 905.477 635.578C906.174 635.339 907.107 635.182 908.273 635.109C910.086 635.005 912.216 634.927 914.664 634.875C917.122 634.812 919.471 634.781 921.711 634.781C922.013 635.167 922.237 635.599 922.383 636.078C922.539 636.557 922.617 637.036 922.617 637.516C922.617 638.411 922.388 639.161 921.93 639.766C921.471 640.37 920.794 640.672 919.898 640.672C919.315 640.672 918.612 640.568 917.789 640.359C917.602 645.255 917.331 649.776 916.977 653.922C916.904 654.724 916.784 655.432 916.617 656.047C916.451 656.661 916.195 657.198 915.852 657.656C915.424 658.219 914.836 658.635 914.086 658.906C913.336 659.177 912.508 659.312 911.602 659.312C910.747 659.312 909.904 659.161 909.07 658.859C908.247 658.557 907.628 658 907.211 657.188C907.221 656.51 907.305 655.911 907.461 655.391C907.617 654.859 907.93 654.292 908.398 653.688ZM923.508 649.297C923.508 647.786 923.539 646.214 923.602 644.578C923.654 642.859 923.737 641.344 923.852 640.031H923.82L922.055 639.703C921.94 639.193 921.857 638.76 921.805 638.406C921.763 638.042 921.742 637.667 921.742 637.281C921.742 637.01 921.747 636.802 921.758 636.656C921.977 636.375 922.31 636.094 922.758 635.812C923.216 635.521 923.747 635.276 924.352 635.078C924.956 634.88 925.581 634.781 926.227 634.781C927.549 634.781 928.534 635.12 929.18 635.797C929.826 636.474 930.117 637.484 930.055 638.828L930.008 640.188C929.966 642.469 929.872 644.323 929.727 645.75H935.039C935.07 643.677 935.164 641.766 935.32 640.016H935.289L933.055 639.688C932.94 639.177 932.857 638.745 932.805 638.391C932.763 638.026 932.742 637.651 932.742 637.266C932.742 636.995 932.747 636.786 932.758 636.641C932.977 636.37 933.352 636.089 933.883 635.797C934.414 635.505 935.023 635.26 935.711 635.062C936.409 634.865 937.096 634.766 937.773 634.766C939.096 634.766 940.107 635.109 940.805 635.797C941.513 636.474 941.867 637.479 941.867 638.812C941.867 642.542 941.289 647.766 940.133 654.484L942.445 653.484C943.237 654.172 943.69 655.099 943.805 656.266C943.805 656.339 943.56 656.641 943.07 657.172C942.591 657.693 941.961 658.182 941.18 658.641C940.409 659.089 939.529 659.312 938.539 659.312C937.487 659.312 936.617 659.031 935.93 658.469C935.253 657.906 934.919 656.922 934.93 655.516V654.5C934.93 652.771 934.966 651.333 935.039 650.188C934.799 650.208 934.435 650.219 933.945 650.219C933.227 650.219 932.169 650.156 930.773 650.031C930.107 649.969 929.633 649.927 929.352 649.906C929.383 650.958 929.461 652.005 929.586 653.047C929.711 654.078 929.872 655.245 930.07 656.547C930.195 657.37 930.284 657.99 930.336 658.406C929.909 658.667 929.232 658.88 928.305 659.047C927.378 659.214 926.591 659.297 925.945 659.297C925.622 659.297 925.315 659.271 925.023 659.219C924.742 659.167 924.43 659.089 924.086 658.984C923.701 656.578 923.508 653.349 923.508 649.297Z" fill="black"/>
<path d="M697.109 703.328C697.109 700.969 697.145 699.156 697.215 697.891H697.203L695.527 697.645C695.426 697.355 695.348 697.035 695.293 696.684C695.238 696.332 695.211 695.992 695.211 695.664C695.211 695.414 695.23 695.141 695.27 694.844C696.23 694.5 697.555 694.246 699.242 694.082C700.93 693.918 702.555 693.836 704.117 693.836C705.312 693.836 706.34 693.93 707.199 694.117C708.059 694.305 708.777 694.73 709.355 695.395C709.941 696.051 710.234 697.035 710.234 698.348C710.234 699.004 710.094 699.77 709.812 700.645C709.539 701.512 709.188 702.359 708.758 703.188C708.336 704.008 707.91 704.672 707.48 705.18C706.848 705.938 706.145 706.383 705.371 706.516C704.09 706.719 702.734 706.82 701.305 706.82C701.273 707.625 701.262 708.203 701.27 708.555L703.016 708.438C703.375 709.023 703.574 709.719 703.613 710.523C703.613 710.562 703.438 710.73 703.086 711.027C702.734 711.324 702.27 711.598 701.691 711.848C701.121 712.098 700.465 712.223 699.723 712.223C698.988 712.223 698.402 712.023 697.965 711.625C697.535 711.219 697.32 710.52 697.32 709.527C697.188 707.902 697.121 705.84 697.121 703.34L697.109 703.328ZM704.527 703.527C704.73 702.668 704.898 701.758 705.031 700.797C705.172 699.828 705.25 698.984 705.266 698.266C705.227 698.195 705.027 698.133 704.668 698.078C704.309 698.023 703.844 697.996 703.273 697.996C702.875 697.996 702.379 698.012 701.785 698.043C701.715 700.402 701.621 702.297 701.504 703.727L704.527 703.527ZM711.078 703.141C711.078 696.938 713.516 693.836 718.391 693.836C720.32 693.836 721.824 694.238 722.902 695.043C723.988 695.84 724.734 696.918 725.141 698.277C725.555 699.629 725.762 701.25 725.762 703.141C725.762 705.922 725.191 708.133 724.051 709.773C722.91 711.414 721.023 712.234 718.391 712.234C715.742 712.234 713.859 711.422 712.742 709.797C711.633 708.172 711.078 705.953 711.078 703.141ZM718.977 708.496C719.617 708.496 719.984 708.461 720.078 708.391C720.273 708.047 720.422 707.449 720.523 706.598C720.625 705.738 720.676 704.777 720.676 703.715C720.676 702.598 720.621 701.562 720.512 700.609C720.41 699.648 720.266 698.977 720.078 698.594C719.883 698.438 719.594 698.32 719.211 698.242C718.828 698.164 718.406 698.121 717.945 698.113C717.68 698.113 717.438 698.129 717.219 698.16C717.008 698.184 716.855 698.223 716.762 698.277C716.535 698.668 716.367 699.234 716.258 699.977C716.156 700.711 716.105 701.551 716.105 702.496C716.105 703.566 716.164 704.633 716.281 705.695C716.398 706.758 716.543 707.57 716.715 708.133C716.824 708.25 717.102 708.34 717.547 708.402C717.992 708.465 718.469 708.496 718.977 708.496ZM728.504 702.695C728.504 700.891 728.535 699.289 728.598 697.891L727.016 697.645C726.914 697.355 726.836 697.035 726.781 696.684C726.727 696.332 726.699 695.992 726.699 695.664C726.699 695.414 726.719 695.141 726.758 694.844C727.781 694.484 729.133 694.227 730.812 694.07C732.492 693.914 734.133 693.836 735.734 693.836C736.93 693.836 737.957 693.93 738.816 694.117C739.676 694.305 740.395 694.73 740.973 695.395C741.559 696.051 741.852 697.035 741.852 698.348C741.852 698.887 741.766 699.484 741.594 700.141C741.422 700.789 741.184 701.438 740.879 702.086C740.598 702.68 740.277 703.246 739.918 703.785C739.566 704.316 739.199 704.773 738.816 705.156C739.043 705.75 739.277 706.293 739.52 706.785C739.762 707.27 740.133 707.859 740.633 708.555L742.273 707.863C742.883 708.387 743.238 709.082 743.34 709.949C743.34 709.996 743.152 710.219 742.777 710.617C742.41 711.016 741.93 711.387 741.336 711.73C740.742 712.066 740.074 712.234 739.332 712.234C738.754 712.234 738.234 712.133 737.773 711.93C737.32 711.727 736.945 711.371 736.648 710.863C736.359 710.363 736.129 709.77 735.957 709.082C735.785 708.395 735.664 707.715 735.594 707.043L732.922 706.926C732.992 707.535 733.082 708.164 733.191 708.812C733.301 709.453 733.367 709.84 733.391 709.973C733.523 710.746 733.609 711.273 733.648 711.555C733.289 711.773 732.852 711.941 732.336 712.059C731.828 712.176 731.309 712.234 730.777 712.234C730.168 712.234 729.578 712.152 729.008 711.988C728.836 711.301 728.707 710.098 728.621 708.379C728.543 706.652 728.504 704.758 728.504 702.695ZM735.793 704.102C736.066 703.32 736.281 702.473 736.438 701.559C736.602 700.637 736.75 699.539 736.883 698.266C736.656 698.18 736.359 698.113 735.992 698.066C735.625 698.02 735.27 697.996 734.926 697.996C734.145 697.996 733.559 698.016 733.168 698.055C733.082 700.992 732.988 703.074 732.887 704.301L735.793 704.102ZM750.008 704.723C750.008 703.59 750.031 702.41 750.078 701.184C750.117 699.895 750.18 698.758 750.266 697.773H750.242L748.918 697.527C748.832 697.145 748.77 696.82 748.73 696.555C748.699 696.281 748.684 696 748.684 695.711C748.684 695.508 748.688 695.352 748.695 695.242C748.859 695.031 749.109 694.82 749.445 694.609C749.789 694.391 750.188 694.207 750.641 694.059C751.094 693.91 751.562 693.836 752.047 693.836C753.039 693.836 753.777 694.09 754.262 694.598C754.746 695.105 754.965 695.863 754.918 696.871L754.883 697.891C754.852 699.602 754.781 700.992 754.672 702.062H758.656C758.68 700.508 758.75 699.074 758.867 697.762H758.844L757.168 697.516C757.082 697.133 757.02 696.809 756.98 696.543C756.949 696.27 756.934 695.988 756.934 695.699C756.934 695.496 756.938 695.34 756.945 695.23C757.109 695.027 757.391 694.816 757.789 694.598C758.188 694.379 758.645 694.195 759.16 694.047C759.684 693.898 760.199 693.824 760.707 693.824C761.699 693.824 762.457 694.082 762.98 694.598C763.512 695.105 763.777 695.859 763.777 696.859C763.777 699.656 763.344 703.574 762.477 708.613L764.211 707.863C764.805 708.379 765.145 709.074 765.23 709.949C765.23 710.004 765.047 710.23 764.68 710.629C764.32 711.02 763.848 711.387 763.262 711.73C762.684 712.066 762.023 712.234 761.281 712.234C760.492 712.234 759.84 712.023 759.324 711.602C758.816 711.18 758.566 710.441 758.574 709.387V708.625C758.574 707.328 758.602 706.25 758.656 705.391C758.477 705.406 758.203 705.414 757.836 705.414C757.297 705.414 756.504 705.367 755.457 705.273C754.957 705.227 754.602 705.195 754.391 705.18C754.414 705.969 754.473 706.754 754.566 707.535C754.66 708.309 754.781 709.184 754.93 710.16C755.023 710.777 755.09 711.242 755.129 711.555C754.809 711.75 754.301 711.91 753.605 712.035C752.91 712.16 752.32 712.223 751.836 712.223C751.594 712.223 751.363 712.203 751.145 712.164C750.934 712.125 750.699 712.066 750.441 711.988C750.152 710.184 750.008 707.762 750.008 704.723ZM765.699 709.129C765.699 708.434 765.844 707.758 766.133 707.102C766.266 707.102 766.473 707.129 766.754 707.184C767.043 707.23 767.344 707.293 767.656 707.371C767.609 705.262 767.586 703.531 767.586 702.18C767.586 700.5 767.617 699.066 767.68 697.879L765.875 697.633C765.773 697.344 765.695 697.027 765.641 696.684C765.586 696.332 765.559 695.992 765.559 695.664C765.559 695.414 765.578 695.141 765.617 694.844C766.547 694.492 767.77 694.238 769.285 694.082C770.809 693.918 772.344 693.836 773.891 693.836C775.352 693.836 776.41 693.902 777.066 694.035C777.488 694.293 777.855 694.555 778.168 694.82C778.488 695.078 778.793 695.398 779.082 695.781C779.082 696.328 779.027 696.922 778.918 697.562C778.816 698.195 778.672 698.777 778.484 699.309C778.305 699.84 778.109 700.223 777.898 700.457C777.719 700.543 777.52 700.609 777.301 700.656C777.082 700.695 776.812 700.715 776.492 700.715C776.211 700.715 775.969 700.691 775.766 700.645C775.57 700.59 775.383 700.512 775.203 700.41L774.805 697.855C774.312 697.777 773.727 697.738 773.047 697.738C772.859 697.738 772.672 697.75 772.484 697.773C772.453 698.906 772.293 700.449 772.004 702.402C773.738 702.113 775.219 701.902 776.445 701.77C776.758 702.246 776.914 702.828 776.914 703.516C776.914 703.969 776.852 704.406 776.727 704.828C776.602 705.25 776.465 705.543 776.316 705.707C775.988 705.762 775.598 705.789 775.145 705.789C774.559 705.789 773.949 705.738 773.316 705.637C772.691 705.535 772.105 705.387 771.559 705.191L771.406 706.188C771.312 706.742 771.23 707.289 771.16 707.828L778.578 707.395C778.695 707.504 778.793 707.723 778.871 708.051C778.957 708.379 779 708.738 779 709.129C779 709.754 778.875 710.301 778.625 710.77C778.375 711.238 778.043 711.602 777.629 711.859C777.223 712.109 776.785 712.234 776.316 712.234C775.848 712.234 775.207 712.133 774.395 711.93C773.59 711.719 772.805 711.457 772.039 711.145C771.281 710.832 770.723 710.531 770.363 710.242C770.004 710.867 769.609 711.344 769.18 711.672C768.758 712 768.211 712.188 767.539 712.234C767.203 712.18 766.895 712.008 766.613 711.719C766.332 711.43 766.109 711.059 765.945 710.605C765.781 710.152 765.699 709.66 765.699 709.129ZM779.902 709.035C779.902 708.324 780.047 707.641 780.336 706.984C780.469 706.984 780.676 707.012 780.957 707.066C781.238 707.113 781.535 707.176 781.848 707.254C781.809 705.574 781.789 703.934 781.789 702.332C781.789 700.605 781.82 699.133 781.883 697.914H781.871L781.883 697.773L779.973 697.527C779.855 697.051 779.777 696.656 779.738 696.344C779.699 696.023 779.684 695.656 779.691 695.242C779.941 694.961 780.309 694.715 780.793 694.504C781.285 694.285 781.812 694.121 782.375 694.012C782.945 693.895 783.465 693.836 783.934 693.836C784.832 693.836 785.531 694.016 786.031 694.375C786.539 694.727 786.828 695.289 786.898 696.062C786.922 696.367 786.934 696.699 786.934 697.059C786.934 698.246 786.828 699.652 786.617 701.277C786.406 702.902 786.125 704.801 785.773 706.973L785.68 707.582L788.668 707.746L789.887 703.855C790.254 703.84 790.672 703.867 791.141 703.938C791.617 704.008 792.027 704.105 792.371 704.23C792.512 704.598 792.641 705.184 792.758 705.988C792.883 706.785 792.945 707.566 792.945 708.332C792.945 709.605 792.758 710.5 792.383 711.016C792.195 711.266 791.934 711.484 791.598 711.672C791.27 711.852 790.922 711.988 790.555 712.082C790.195 712.184 789.871 712.234 789.582 712.234C789.121 712.234 788.582 712.137 787.965 711.941C787.348 711.738 786.742 711.484 786.148 711.18C785.555 710.867 785.066 710.555 784.684 710.242C784.332 710.852 783.926 711.324 783.465 711.66C783.004 711.996 782.43 712.188 781.742 712.234C781.406 712.18 781.098 712.004 780.816 711.707C780.535 711.41 780.312 711.027 780.148 710.559C779.984 710.09 779.902 709.582 779.902 709.035ZM793.578 708.238C794.055 708.395 794.488 708.52 794.879 708.613C795.637 705.566 796.5 701.969 797.469 697.82L794.645 697.516C794.465 697.023 794.375 696.465 794.375 695.84C794.375 695.363 794.43 694.898 794.539 694.445C795.672 694.227 796.977 694.07 798.453 693.977C799.938 693.875 801.211 693.824 802.273 693.824C803.039 693.824 803.613 693.828 803.996 693.836L804.734 694.258C806.047 697.859 807.379 702.73 808.73 708.871C808.746 708.934 808.773 709.059 808.812 709.246C808.859 709.434 808.895 709.613 808.918 709.785C808.941 709.949 808.953 710.105 808.953 710.254C808.953 710.91 808.719 711.441 808.25 711.848C807.594 712.105 806.801 712.234 805.871 712.234C805.434 712.234 804.992 712.188 804.547 712.094C804.102 712 803.801 711.855 803.645 711.66L803.785 708.637L803.492 707.066C802.984 707.098 802.387 707.113 801.699 707.113C800.965 707.113 800.277 707.09 799.637 707.043L799.496 707.676C799.191 709.035 798.941 710 798.746 710.57C798.559 711.141 798.277 711.562 797.902 711.836C797.535 712.109 796.984 712.246 796.25 712.246C795.773 712.246 795.293 712.184 794.809 712.059C794.324 711.941 793.887 711.781 793.496 711.578C793.105 711.375 792.812 711.156 792.617 710.922C792.617 710.359 792.703 709.824 792.875 709.316C793.047 708.809 793.281 708.449 793.578 708.238ZM801.793 697.926H801.254L800.41 703.703H803.035L801.793 697.926ZM809.809 709.398C809.809 709 809.875 708.59 810.008 708.168C810.68 707.98 811.309 707.891 811.895 707.898C811.746 706.375 811.621 704.711 811.52 702.906C811.418 701.094 811.348 699.422 811.309 697.891H811.297L809.621 697.645C809.52 697.355 809.441 697.035 809.387 696.684C809.332 696.332 809.305 695.992 809.305 695.664C809.305 695.414 809.324 695.141 809.363 694.844C810.199 694.477 811.512 694.219 813.301 694.07C815.09 693.914 816.867 693.836 818.633 693.836C819.82 693.836 820.828 693.93 821.656 694.117C822.484 694.305 823.176 694.73 823.73 695.395C824.293 696.051 824.574 697.035 824.574 698.348C824.574 700.777 823.988 703.965 822.816 707.91C822.621 708.559 822.402 709.141 822.16 709.656C821.918 710.172 821.609 710.617 821.234 710.992C820.914 711.352 820.582 711.625 820.238 711.812C819.902 711.992 819.496 712.082 819.02 712.082C818.777 712.082 818.449 712.043 818.035 711.965C817.52 711.863 817.062 711.734 816.664 711.578C816.266 711.414 815.934 711.25 815.668 711.086C815.41 710.922 815.102 710.715 814.742 710.465C814.586 710.691 814.324 710.941 813.957 711.215C813.598 711.488 813.199 711.723 812.762 711.918C812.324 712.113 811.918 712.219 811.543 712.234C811.004 712.031 810.578 711.672 810.266 711.156C809.961 710.633 809.809 710.047 809.809 709.398ZM818.832 707.805C819.051 706.727 819.223 705.477 819.348 704.055C819.473 702.625 819.578 701.082 819.664 699.426L819.711 698.594C819.664 698.508 819.473 698.422 819.137 698.336C818.809 698.25 818.375 698.207 817.836 698.207L816.922 698.195C816.484 698.195 816.133 698.215 815.867 698.254C815.867 698.582 815.871 698.859 815.879 699.086C815.902 700.445 815.914 701.66 815.914 702.73C815.914 703.973 815.902 705.738 815.879 708.027C816.902 708.027 817.887 707.953 818.832 707.805ZM827.293 711.426C827.293 711.09 827.277 710.094 827.246 708.438C827.184 706.016 827.152 703.922 827.152 702.156C827.152 700.43 827.184 698.969 827.246 697.773L825.336 697.527C825.219 697.051 825.141 696.656 825.102 696.344C825.062 696.023 825.047 695.656 825.055 695.242C825.211 695.047 825.5 694.84 825.922 694.621C826.352 694.395 826.836 694.207 827.375 694.059C827.922 693.91 828.449 693.836 828.957 693.836C829.863 693.836 830.602 694.039 831.172 694.445C831.75 694.852 832.055 695.438 832.086 696.203C832.102 696.656 832.109 697.043 832.109 697.363C832.109 698.84 832.047 700.621 831.922 702.707C831.797 704.785 831.629 707.242 831.418 710.078L831.301 711.73C830.684 712.074 829.98 712.246 829.191 712.246C828.52 712.246 827.887 712.125 827.293 711.883V711.426ZM836.973 708.016C837.543 708.242 837.992 708.418 838.32 708.543C838.648 708.668 838.992 708.777 839.352 708.871C839.453 708.613 839.504 708.262 839.504 707.816C839.504 707.215 839.461 706.113 839.375 704.512C839.25 702.371 839.188 700.73 839.188 699.59C839.188 698.801 839.211 698.121 839.258 697.551L837.324 697.434L837.289 701.125C836.703 701.32 836.043 701.418 835.309 701.418C835.121 701.418 834.98 701.414 834.887 701.406C834.629 701.203 834.359 700.883 834.078 700.445C833.805 700.008 833.578 699.516 833.398 698.969C833.219 698.422 833.129 697.895 833.129 697.387C833.129 696.512 833.273 695.844 833.562 695.383C833.852 694.922 834.258 694.605 834.781 694.434C835.305 694.254 836.004 694.137 836.879 694.082C838.238 694.004 839.836 693.945 841.672 693.906C843.516 693.859 845.277 693.836 846.957 693.836C847.184 694.125 847.352 694.449 847.461 694.809C847.578 695.168 847.637 695.527 847.637 695.887C847.637 696.559 847.465 697.121 847.121 697.574C846.777 698.027 846.27 698.254 845.598 698.254C845.16 698.254 844.633 698.176 844.016 698.02C843.875 701.691 843.672 705.082 843.406 708.191C843.352 708.793 843.262 709.324 843.137 709.785C843.012 710.246 842.82 710.648 842.562 710.992C842.242 711.414 841.801 711.727 841.238 711.93C840.676 712.133 840.055 712.234 839.375 712.234C838.734 712.234 838.102 712.121 837.477 711.895C836.859 711.668 836.395 711.25 836.082 710.641C836.09 710.133 836.152 709.684 836.27 709.293C836.387 708.895 836.621 708.469 836.973 708.016ZM847.461 703.141C847.461 696.938 849.898 693.836 854.773 693.836C856.703 693.836 858.207 694.238 859.285 695.043C860.371 695.84 861.117 696.918 861.523 698.277C861.938 699.629 862.145 701.25 862.145 703.141C862.145 705.922 861.574 708.133 860.434 709.773C859.293 711.414 857.406 712.234 854.773 712.234C852.125 712.234 850.242 711.422 849.125 709.797C848.016 708.172 847.461 705.953 847.461 703.141ZM855.359 708.496C856 708.496 856.367 708.461 856.461 708.391C856.656 708.047 856.805 707.449 856.906 706.598C857.008 705.738 857.059 704.777 857.059 703.715C857.059 702.598 857.004 701.562 856.895 700.609C856.793 699.648 856.648 698.977 856.461 698.594C856.266 698.438 855.977 698.32 855.594 698.242C855.211 698.164 854.789 698.121 854.328 698.113C854.062 698.113 853.82 698.129 853.602 698.16C853.391 698.184 853.238 698.223 853.145 698.277C852.918 698.668 852.75 699.234 852.641 699.977C852.539 700.711 852.488 701.551 852.488 702.496C852.488 703.566 852.547 704.633 852.664 705.695C852.781 706.758 852.926 707.57 853.098 708.133C853.207 708.25 853.484 708.34 853.93 708.402C854.375 708.465 854.852 708.496 855.359 708.496Z" fill="black"/>
<rect width="391" height="64" transform="translate(585 500)" fill="#090909"/>
<path d="M595.551 531.078C595.551 528.122 595.987 525.492 596.859 523.188C597.745 520.87 599.125 519.04 601 517.699C602.875 516.358 605.245 515.688 608.109 515.688C610.062 515.688 612.126 515.941 614.301 516.449C615.004 516.866 615.616 517.302 616.137 517.758C616.671 518.201 617.178 518.741 617.66 519.379C617.66 520.303 617.536 521.534 617.289 523.07C617.042 524.594 616.729 526.02 616.352 527.348C615.987 528.663 615.635 529.516 615.297 529.906C614.958 530.076 614.672 530.193 614.438 530.258C614.203 530.31 613.839 530.336 613.344 530.336C612.732 530.336 612.159 530.29 611.625 530.199C611.091 530.108 610.688 529.984 610.414 529.828L609.73 523.246C608.806 522.986 607.523 522.855 605.883 522.855C605.44 522.855 605.115 522.862 604.906 522.875C604.346 524.672 604.034 527.087 603.969 530.121C603.956 530.486 603.949 531.039 603.949 531.781C603.949 533.526 604.04 534.939 604.223 536.02C604.392 537.035 604.574 537.797 604.77 538.305C604.965 538.812 605.303 539.203 605.785 539.477C606.28 539.75 607.016 539.887 607.992 539.887C609.307 539.887 610.518 539.698 611.625 539.32C612.745 538.93 613.962 538.363 615.277 537.621C615.772 538.155 616.15 538.591 616.41 538.93C616.684 539.268 616.931 539.685 617.152 540.18C617.387 540.674 617.543 541.241 617.621 541.879C617.413 542.309 616.859 542.882 615.961 543.598C615.062 544.314 613.884 544.958 612.426 545.531C610.967 546.104 609.333 546.391 607.523 546.391C603.292 546.391 600.238 545.069 598.363 542.426C596.488 539.783 595.551 536 595.551 531.078ZM619.477 539.73C620.271 539.991 620.993 540.199 621.645 540.355C622.908 535.277 624.346 529.281 625.961 522.367L621.254 521.859C620.954 521.039 620.805 520.108 620.805 519.066C620.805 518.272 620.896 517.497 621.078 516.742C622.966 516.378 625.141 516.117 627.602 515.961C630.076 515.792 632.198 515.707 633.969 515.707C635.245 515.707 636.202 515.714 636.84 515.727L638.07 516.43C640.258 522.432 642.478 530.551 644.73 540.785C644.757 540.889 644.802 541.098 644.867 541.41C644.945 541.723 645.004 542.022 645.043 542.309C645.082 542.582 645.102 542.842 645.102 543.09C645.102 544.184 644.711 545.069 643.93 545.746C642.836 546.176 641.514 546.391 639.965 546.391C639.236 546.391 638.5 546.312 637.758 546.156C637.016 546 636.514 545.759 636.254 545.434L636.488 540.395L636 537.777C635.154 537.829 634.158 537.855 633.012 537.855C631.788 537.855 630.642 537.816 629.574 537.738L629.34 538.793C628.832 541.059 628.415 542.667 628.09 543.617C627.777 544.568 627.309 545.271 626.684 545.727C626.072 546.182 625.154 546.41 623.93 546.41C623.135 546.41 622.335 546.306 621.527 546.098C620.72 545.902 619.991 545.635 619.34 545.297C618.689 544.958 618.201 544.594 617.875 544.203C617.875 543.266 618.018 542.374 618.305 541.527C618.591 540.681 618.982 540.082 619.477 539.73ZM633.168 522.543H632.27L630.863 532.172H635.238L633.168 522.543ZM646.527 541.059C646.527 539.874 646.768 538.734 647.25 537.641C647.471 537.641 647.816 537.686 648.285 537.777C648.754 537.855 649.249 537.96 649.77 538.09C649.704 535.29 649.672 532.556 649.672 529.887C649.672 527.009 649.724 524.555 649.828 522.523H649.809L649.828 522.289L646.645 521.879C646.449 521.085 646.319 520.427 646.254 519.906C646.189 519.372 646.163 518.76 646.176 518.07C646.592 517.602 647.204 517.191 648.012 516.84C648.832 516.475 649.711 516.202 650.648 516.02C651.599 515.824 652.465 515.727 653.246 515.727C654.743 515.727 655.909 516.026 656.742 516.625C657.589 517.211 658.07 518.148 658.188 519.438C658.227 519.945 658.246 520.499 658.246 521.098C658.246 523.077 658.07 525.421 657.719 528.129C657.367 530.837 656.898 534.001 656.312 537.621L656.156 538.637L661.137 538.91L663.168 532.426C663.78 532.4 664.477 532.445 665.258 532.562C666.052 532.68 666.736 532.842 667.309 533.051C667.543 533.663 667.758 534.639 667.953 535.98C668.161 537.309 668.266 538.611 668.266 539.887C668.266 542.009 667.953 543.5 667.328 544.359C667.016 544.776 666.579 545.141 666.02 545.453C665.473 545.753 664.893 545.98 664.281 546.137C663.682 546.306 663.142 546.391 662.66 546.391C661.892 546.391 660.993 546.228 659.965 545.902C658.936 545.564 657.927 545.141 656.938 544.633C655.948 544.112 655.134 543.591 654.496 543.07C653.91 544.086 653.233 544.874 652.465 545.434C651.697 545.993 650.74 546.312 649.594 546.391C649.034 546.299 648.52 546.007 648.051 545.512C647.582 545.017 647.211 544.379 646.938 543.598C646.664 542.816 646.527 541.97 646.527 541.059ZM671.957 545.043C671.957 544.483 671.931 542.823 671.879 540.062C671.775 536.026 671.723 532.536 671.723 529.594C671.723 526.716 671.775 524.281 671.879 522.289L668.695 521.879C668.5 521.085 668.37 520.427 668.305 519.906C668.24 519.372 668.214 518.76 668.227 518.07C668.487 517.745 668.969 517.4 669.672 517.035C670.388 516.658 671.195 516.345 672.094 516.098C673.005 515.85 673.884 515.727 674.73 515.727C676.241 515.727 677.471 516.065 678.422 516.742C679.385 517.419 679.893 518.396 679.945 519.672C679.971 520.427 679.984 521.072 679.984 521.605C679.984 524.066 679.88 527.035 679.672 530.512C679.464 533.975 679.184 538.07 678.832 542.797L678.637 545.551C677.608 546.124 676.436 546.41 675.121 546.41C674.001 546.41 672.947 546.208 671.957 545.805V545.043ZM683.012 541.664C683.012 541 683.122 540.316 683.344 539.613C684.464 539.301 685.512 539.151 686.488 539.164C686.241 536.625 686.033 533.852 685.863 530.844C685.694 527.823 685.577 525.036 685.512 522.484H685.492L682.699 522.074C682.53 521.592 682.4 521.059 682.309 520.473C682.217 519.887 682.172 519.32 682.172 518.773C682.172 518.357 682.204 517.901 682.27 517.406C683.663 516.794 685.85 516.365 688.832 516.117C691.814 515.857 694.776 515.727 697.719 515.727C699.698 515.727 701.378 515.883 702.758 516.195C704.138 516.508 705.29 517.217 706.215 518.324C707.152 519.418 707.621 521.059 707.621 523.246C707.621 527.296 706.645 532.608 704.691 539.184C704.366 540.264 704.001 541.234 703.598 542.094C703.194 542.953 702.68 543.695 702.055 544.32C701.521 544.919 700.967 545.375 700.395 545.688C699.835 545.987 699.158 546.137 698.363 546.137C697.96 546.137 697.413 546.072 696.723 545.941C695.863 545.772 695.102 545.557 694.438 545.297C693.773 545.023 693.22 544.75 692.777 544.477C692.348 544.203 691.833 543.858 691.234 543.441C690.974 543.819 690.538 544.236 689.926 544.691C689.327 545.147 688.663 545.538 687.934 545.863C687.204 546.189 686.527 546.365 685.902 546.391C685.004 546.052 684.294 545.453 683.773 544.594C683.266 543.721 683.012 542.745 683.012 541.664ZM698.051 539.008C698.415 537.211 698.702 535.128 698.91 532.758C699.118 530.375 699.294 527.803 699.438 525.043L699.516 523.656C699.438 523.513 699.118 523.37 698.559 523.227C698.012 523.083 697.289 523.012 696.391 523.012L694.867 522.992C694.138 522.992 693.552 523.025 693.109 523.09C693.109 523.637 693.116 524.099 693.129 524.477C693.168 526.742 693.188 528.767 693.188 530.551C693.188 532.621 693.168 535.564 693.129 539.379C694.835 539.379 696.475 539.255 698.051 539.008ZM709.516 539.73C710.31 539.991 711.033 540.199 711.684 540.355C712.947 535.277 714.385 529.281 716 522.367L711.293 521.859C710.993 521.039 710.844 520.108 710.844 519.066C710.844 518.272 710.935 517.497 711.117 516.742C713.005 516.378 715.18 516.117 717.641 515.961C720.115 515.792 722.237 515.707 724.008 515.707C725.284 515.707 726.241 515.714 726.879 515.727L728.109 516.43C730.297 522.432 732.517 530.551 734.77 540.785C734.796 540.889 734.841 541.098 734.906 541.41C734.984 541.723 735.043 542.022 735.082 542.309C735.121 542.582 735.141 542.842 735.141 543.09C735.141 544.184 734.75 545.069 733.969 545.746C732.875 546.176 731.553 546.391 730.004 546.391C729.275 546.391 728.539 546.312 727.797 546.156C727.055 546 726.553 545.759 726.293 545.434L726.527 540.395L726.039 537.777C725.193 537.829 724.197 537.855 723.051 537.855C721.827 537.855 720.681 537.816 719.613 537.738L719.379 538.793C718.871 541.059 718.454 542.667 718.129 543.617C717.816 544.568 717.348 545.271 716.723 545.727C716.111 546.182 715.193 546.41 713.969 546.41C713.174 546.41 712.374 546.306 711.566 546.098C710.759 545.902 710.03 545.635 709.379 545.297C708.728 544.958 708.24 544.594 707.914 544.203C707.914 543.266 708.057 542.374 708.344 541.527C708.63 540.681 709.021 540.082 709.516 539.73ZM723.207 522.543H722.309L720.902 532.172H725.277L723.207 522.543ZM736.566 541.664C736.566 541 736.677 540.316 736.898 539.613C738.018 539.301 739.066 539.151 740.043 539.164C739.796 536.625 739.587 533.852 739.418 530.844C739.249 527.823 739.132 525.036 739.066 522.484H739.047L736.254 522.074C736.085 521.592 735.954 521.059 735.863 520.473C735.772 519.887 735.727 519.32 735.727 518.773C735.727 518.357 735.759 517.901 735.824 517.406C737.217 516.794 739.405 516.365 742.387 516.117C745.368 515.857 748.331 515.727 751.273 515.727C753.253 515.727 754.932 515.883 756.312 516.195C757.693 516.508 758.845 517.217 759.77 518.324C760.707 519.418 761.176 521.059 761.176 523.246C761.176 527.296 760.199 532.608 758.246 539.184C757.921 540.264 757.556 541.234 757.152 542.094C756.749 542.953 756.234 543.695 755.609 544.32C755.076 544.919 754.522 545.375 753.949 545.688C753.389 545.987 752.712 546.137 751.918 546.137C751.514 546.137 750.967 546.072 750.277 545.941C749.418 545.772 748.656 545.557 747.992 545.297C747.328 545.023 746.775 544.75 746.332 544.477C745.902 544.203 745.388 543.858 744.789 543.441C744.529 543.819 744.092 544.236 743.48 544.691C742.882 545.147 742.217 545.538 741.488 545.863C740.759 546.189 740.082 546.365 739.457 546.391C738.559 546.052 737.849 545.453 737.328 544.594C736.82 543.721 736.566 542.745 736.566 541.664ZM751.605 539.008C751.97 537.211 752.257 535.128 752.465 532.758C752.673 530.375 752.849 527.803 752.992 525.043L753.07 523.656C752.992 523.513 752.673 523.37 752.113 523.227C751.566 523.083 750.844 523.012 749.945 523.012L748.422 522.992C747.693 522.992 747.107 523.025 746.664 523.09C746.664 523.637 746.671 524.099 746.684 524.477C746.723 526.742 746.742 528.767 746.742 530.551C746.742 532.621 746.723 535.564 746.684 539.379C748.389 539.379 750.03 539.255 751.605 539.008ZM771.801 531.078C771.801 528.122 772.237 525.492 773.109 523.188C773.995 520.87 775.375 519.04 777.25 517.699C779.125 516.358 781.495 515.688 784.359 515.688C786.312 515.688 788.376 515.941 790.551 516.449C791.254 516.866 791.866 517.302 792.387 517.758C792.921 518.201 793.428 518.741 793.91 519.379C793.91 520.303 793.786 521.534 793.539 523.07C793.292 524.594 792.979 526.02 792.602 527.348C792.237 528.663 791.885 529.516 791.547 529.906C791.208 530.076 790.922 530.193 790.688 530.258C790.453 530.31 790.089 530.336 789.594 530.336C788.982 530.336 788.409 530.29 787.875 530.199C787.341 530.108 786.938 529.984 786.664 529.828L785.98 523.246C785.056 522.986 783.773 522.855 782.133 522.855C781.69 522.855 781.365 522.862 781.156 522.875C780.596 524.672 780.284 527.087 780.219 530.121C780.206 530.486 780.199 531.039 780.199 531.781C780.199 533.526 780.29 534.939 780.473 536.02C780.642 537.035 780.824 537.797 781.02 538.305C781.215 538.812 781.553 539.203 782.035 539.477C782.53 539.75 783.266 539.887 784.242 539.887C785.557 539.887 786.768 539.698 787.875 539.32C788.995 538.93 790.212 538.363 791.527 537.621C792.022 538.155 792.4 538.591 792.66 538.93C792.934 539.268 793.181 539.685 793.402 540.18C793.637 540.674 793.793 541.241 793.871 541.879C793.663 542.309 793.109 542.882 792.211 543.598C791.312 544.314 790.134 544.958 788.676 545.531C787.217 546.104 785.583 546.391 783.773 546.391C779.542 546.391 776.488 545.069 774.613 542.426C772.738 539.783 771.801 536 771.801 531.078ZM797.25 533.871C797.25 531.983 797.289 530.017 797.367 527.973C797.432 525.824 797.536 523.93 797.68 522.289H797.641L795.434 521.879C795.29 521.241 795.186 520.701 795.121 520.258C795.069 519.802 795.043 519.333 795.043 518.852C795.043 518.513 795.049 518.253 795.062 518.07C795.336 517.719 795.753 517.367 796.312 517.016C796.885 516.651 797.549 516.345 798.305 516.098C799.06 515.85 799.841 515.727 800.648 515.727C802.302 515.727 803.533 516.15 804.34 516.996C805.147 517.842 805.512 519.105 805.434 520.785L805.375 522.484C805.323 525.336 805.206 527.654 805.023 529.438H811.664C811.703 526.846 811.82 524.457 812.016 522.27H811.977L809.184 521.859C809.04 521.221 808.936 520.681 808.871 520.238C808.819 519.783 808.793 519.314 808.793 518.832C808.793 518.493 808.799 518.233 808.812 518.051C809.086 517.712 809.555 517.361 810.219 516.996C810.883 516.632 811.645 516.326 812.504 516.078C813.376 515.831 814.236 515.707 815.082 515.707C816.736 515.707 817.999 516.137 818.871 516.996C819.757 517.842 820.199 519.099 820.199 520.766C820.199 525.427 819.477 531.957 818.031 540.355L820.922 539.105C821.911 539.965 822.478 541.124 822.621 542.582C822.621 542.673 822.315 543.051 821.703 543.715C821.104 544.366 820.316 544.978 819.34 545.551C818.376 546.111 817.276 546.391 816.039 546.391C814.724 546.391 813.637 546.039 812.777 545.336C811.931 544.633 811.514 543.402 811.527 541.645V540.375C811.527 538.214 811.573 536.417 811.664 534.984C811.365 535.01 810.909 535.023 810.297 535.023C809.398 535.023 808.077 534.945 806.332 534.789C805.499 534.711 804.906 534.659 804.555 534.633C804.594 535.948 804.691 537.257 804.848 538.559C805.004 539.848 805.206 541.306 805.453 542.934C805.609 543.962 805.72 544.737 805.785 545.258C805.251 545.583 804.405 545.85 803.246 546.059C802.087 546.267 801.104 546.371 800.297 546.371C799.893 546.371 799.509 546.339 799.145 546.273C798.793 546.208 798.402 546.111 797.973 545.98C797.491 542.973 797.25 538.936 797.25 533.871ZM826.645 545.043C826.645 544.483 826.618 542.823 826.566 540.062C826.462 536.026 826.41 532.536 826.41 529.594C826.41 526.716 826.462 524.281 826.566 522.289L823.383 521.879C823.188 521.085 823.057 520.427 822.992 519.906C822.927 519.372 822.901 518.76 822.914 518.07C823.174 517.745 823.656 517.4 824.359 517.035C825.076 516.658 825.883 516.345 826.781 516.098C827.693 515.85 828.572 515.727 829.418 515.727C830.928 515.727 832.159 516.065 833.109 516.742C834.073 517.419 834.581 518.396 834.633 519.672C834.659 520.427 834.672 521.072 834.672 521.605C834.672 524.066 834.568 527.035 834.359 530.512C834.151 533.975 833.871 538.07 833.52 542.797L833.324 545.551C832.296 546.124 831.124 546.41 829.809 546.41C828.689 546.41 827.634 546.208 826.645 545.805V545.043ZM838.461 539.73C838.578 539.77 838.826 539.861 839.203 540.004C839.594 540.134 840.023 540.245 840.492 540.336V521.938L837.426 520.902C837.126 520.199 836.977 519.392 836.977 518.48C836.977 517.738 837.094 517.074 837.328 516.488C838.266 516.241 839.392 516.052 840.707 515.922C842.035 515.779 843.318 515.707 844.555 515.707C846.391 515.707 848.012 515.844 849.418 516.117C850.069 517.38 851.033 519.757 852.309 523.246C853.598 526.736 855.147 531.312 856.957 536.977L857.289 536.938C856.911 533.721 856.534 529.952 856.156 525.629C855.792 521.293 855.609 518.324 855.609 516.723C856.286 516.41 857.042 516.169 857.875 516C858.708 515.818 859.477 515.727 860.18 515.727C861.326 515.727 862.426 515.961 863.48 516.43L861.586 541.117C862.263 542.094 862.686 543.24 862.855 544.555C862.322 545.141 861.508 545.596 860.414 545.922C859.333 546.234 858.181 546.391 856.957 546.391C856.007 546.391 855.141 546.293 854.359 546.098C853.591 545.902 852.992 545.603 852.562 545.199C852.576 544.223 852.66 543.331 852.816 542.523C851.84 540.57 850.896 538.422 849.984 536.078C849.086 533.721 847.94 530.596 846.547 526.703L845.688 524.32L845.57 524.34C845.844 526.371 846.137 529.366 846.449 533.324C846.762 537.27 846.918 540.154 846.918 541.977C846.918 543.435 846.482 544.535 845.609 545.277C844.75 546.02 843.402 546.391 841.566 546.391C840.993 546.391 840.382 546.28 839.73 546.059C839.079 545.837 838.487 545.557 837.953 545.219C837.432 544.867 837.068 544.529 836.859 544.203C836.859 543.266 837.003 542.374 837.289 541.527C837.576 540.681 837.966 540.082 838.461 539.73ZM866.156 531.078C866.156 528.109 866.586 525.479 867.445 523.188C868.305 520.883 869.659 519.066 871.508 517.738C873.37 516.397 875.733 515.727 878.598 515.727C879.613 515.727 880.714 515.792 881.898 515.922C883.083 516.039 884.242 516.228 885.375 516.488C886.078 516.905 886.69 517.341 887.211 517.797C887.745 518.24 888.253 518.78 888.734 519.418C888.734 520.342 888.611 521.566 888.363 523.09C888.116 524.613 887.803 526.033 887.426 527.348C887.061 528.663 886.71 529.516 886.371 529.906C886.033 530.076 885.746 530.193 885.512 530.258C885.277 530.31 884.913 530.336 884.418 530.336C883.806 530.336 883.233 530.29 882.699 530.199C882.165 530.108 881.762 529.984 881.488 529.828L880.805 523.246C879.88 522.986 878.402 522.855 876.371 522.855C875.928 522.855 875.603 522.862 875.395 522.875C874.835 524.672 874.522 527.087 874.457 530.121V530.883C874.457 532.823 874.581 534.535 874.828 536.02C874.997 536.996 875.141 537.745 875.258 538.266C875.388 538.786 875.544 539.19 875.727 539.477C875.922 539.75 876.163 539.887 876.449 539.887C877.465 539.887 878.37 539.535 879.164 538.832C879.971 538.129 880.661 537.23 881.234 536.137L880.707 533.344C882.413 532.771 884.099 532.478 885.766 532.465C886.573 532.465 887.276 532.556 887.875 532.738C888.474 532.921 888.878 533.279 889.086 533.812C888.839 535.74 888.441 538.103 887.895 540.902C887.348 543.702 886.938 545.401 886.664 546C885.831 546.26 885.023 546.391 884.242 546.391C883.839 546.391 883.409 546.358 882.953 546.293C882.51 546.228 882.12 546.13 881.781 546C881.781 545.57 881.742 544.548 881.664 542.934L881.605 541.488L881.078 541.332C880.18 542.842 879.171 544.066 878.051 545.004C876.931 545.928 875.714 546.391 874.398 546.391C872.706 546.391 871.241 545.766 870.004 544.516C868.767 543.266 867.816 541.488 867.152 539.184C866.488 536.866 866.156 534.164 866.156 531.078ZM891.352 531.234C891.352 520.896 895.414 515.727 903.539 515.727C906.755 515.727 909.262 516.397 911.059 517.738C912.868 519.066 914.112 520.863 914.789 523.129C915.479 525.382 915.824 528.083 915.824 531.234C915.824 535.87 914.874 539.555 912.973 542.289C911.072 545.023 907.927 546.391 903.539 546.391C899.125 546.391 895.987 545.036 894.125 542.328C892.276 539.62 891.352 535.922 891.352 531.234ZM904.516 540.16C905.583 540.16 906.195 540.102 906.352 539.984C906.677 539.411 906.924 538.415 907.094 536.996C907.263 535.564 907.348 533.962 907.348 532.191C907.348 530.329 907.257 528.604 907.074 527.016C906.905 525.414 906.664 524.294 906.352 523.656C906.026 523.396 905.544 523.201 904.906 523.07C904.268 522.94 903.565 522.868 902.797 522.855C902.354 522.855 901.951 522.882 901.586 522.934C901.234 522.973 900.98 523.038 900.824 523.129C900.447 523.78 900.167 524.724 899.984 525.961C899.815 527.185 899.73 528.585 899.73 530.16C899.73 531.944 899.828 533.721 900.023 535.492C900.219 537.263 900.46 538.617 900.746 539.555C900.928 539.75 901.391 539.9 902.133 540.004C902.875 540.108 903.669 540.16 904.516 540.16ZM918.695 539.73C918.812 539.77 919.06 539.861 919.438 540.004C919.828 540.134 920.258 540.245 920.727 540.336V521.938L917.66 520.902C917.361 520.199 917.211 519.392 917.211 518.48C917.211 517.738 917.328 517.074 917.562 516.488C918.5 516.241 919.626 516.052 920.941 515.922C922.27 515.779 923.552 515.707 924.789 515.707C926.625 515.707 928.246 515.844 929.652 516.117C930.303 517.38 931.267 519.757 932.543 523.246C933.832 526.736 935.382 531.312 937.191 536.977L937.523 536.938C937.146 533.721 936.768 529.952 936.391 525.629C936.026 521.293 935.844 518.324 935.844 516.723C936.521 516.41 937.276 516.169 938.109 516C938.943 515.818 939.711 515.727 940.414 515.727C941.56 515.727 942.66 515.961 943.715 516.43L941.82 541.117C942.497 542.094 942.921 543.24 943.09 544.555C942.556 545.141 941.742 545.596 940.648 545.922C939.568 546.234 938.415 546.391 937.191 546.391C936.241 546.391 935.375 546.293 934.594 546.098C933.826 545.902 933.227 545.603 932.797 545.199C932.81 544.223 932.895 543.331 933.051 542.523C932.074 540.57 931.13 538.422 930.219 536.078C929.32 533.721 928.174 530.596 926.781 526.703L925.922 524.32L925.805 524.34C926.078 526.371 926.371 529.366 926.684 533.324C926.996 537.27 927.152 540.154 927.152 541.977C927.152 543.435 926.716 544.535 925.844 545.277C924.984 546.02 923.637 546.391 921.801 546.391C921.228 546.391 920.616 546.28 919.965 546.059C919.314 545.837 918.721 545.557 918.188 545.219C917.667 544.867 917.302 544.529 917.094 544.203C917.094 543.266 917.237 542.374 917.523 541.527C917.81 540.681 918.201 540.082 918.695 539.73ZM946.273 539.73C947.068 539.991 947.79 540.199 948.441 540.355C949.704 535.277 951.143 529.281 952.758 522.367L948.051 521.859C947.751 521.039 947.602 520.108 947.602 519.066C947.602 518.272 947.693 517.497 947.875 516.742C949.763 516.378 951.938 516.117 954.398 515.961C956.872 515.792 958.995 515.707 960.766 515.707C962.042 515.707 962.999 515.714 963.637 515.727L964.867 516.43C967.055 522.432 969.275 530.551 971.527 540.785C971.553 540.889 971.599 541.098 971.664 541.41C971.742 541.723 971.801 542.022 971.84 542.309C971.879 542.582 971.898 542.842 971.898 543.09C971.898 544.184 971.508 545.069 970.727 545.746C969.633 546.176 968.311 546.391 966.762 546.391C966.033 546.391 965.297 546.312 964.555 546.156C963.812 546 963.311 545.759 963.051 545.434L963.285 540.395L962.797 537.777C961.951 537.829 960.954 537.855 959.809 537.855C958.585 537.855 957.439 537.816 956.371 537.738L956.137 538.793C955.629 541.059 955.212 542.667 954.887 543.617C954.574 544.568 954.105 545.271 953.48 545.727C952.868 546.182 951.951 546.41 950.727 546.41C949.932 546.41 949.132 546.306 948.324 546.098C947.517 545.902 946.788 545.635 946.137 545.297C945.486 544.958 944.997 544.594 944.672 544.203C944.672 543.266 944.815 542.374 945.102 541.527C945.388 540.681 945.779 540.082 946.273 539.73ZM959.965 522.543H959.066L957.66 532.172H962.035L959.965 522.543Z" fill="white"/>
</svg>
