<svg width="1000" height="1000" viewBox="0 0 1000 1000" fill="none" xmlns="http://www.w3.org/2000/svg">
<g clip-path="url(#clip0_986_75269)">
<mask id="path-1-outside-1_986_75269" maskUnits="userSpaceOnUse" x="690.723" y="926.004" width="250" height="276" fill="black">
<rect fill="white" x="690.723" y="926.004" width="250" height="276"/>
<path fill-rule="evenodd" clip-rule="evenodd" d="M932.705 930.004H698.637V1154.29C696.082 1157.08 694.723 1160 694.723 1163.01C694.723 1182.01 748.698 1197.41 815.279 1197.41C881.861 1197.41 935.836 1182.01 935.836 1163.01C935.836 1160.32 934.753 1157.71 932.705 1155.19V930.004Z"/>
</mask>
<path fill-rule="evenodd" clip-rule="evenodd" d="M932.705 930.004H698.637V1154.29C696.082 1157.08 694.723 1160 694.723 1163.01C694.723 1182.01 748.698 1197.41 815.279 1197.41C881.861 1197.41 935.836 1182.01 935.836 1163.01C935.836 1160.32 934.753 1157.71 932.705 1155.19V930.004Z" fill="#3C3C3C"/>
<path d="M698.637 930.004V926.004H694.637V930.004H698.637ZM932.705 930.004H936.705V926.004H932.705V930.004ZM698.637 1154.29L701.585 1156.99L702.637 1155.85V1154.29H698.637ZM932.705 1155.19H928.705V1156.62L929.604 1157.72L932.705 1155.19ZM698.637 934.004H932.705V926.004H698.637V934.004ZM702.637 1154.29V930.004H694.637V1154.29H702.637ZM698.723 1163.01C698.723 1161.29 699.484 1159.28 701.585 1156.99L695.688 1151.59C692.681 1154.87 690.723 1158.71 690.723 1163.01H698.723ZM815.279 1193.41C782.251 1193.41 752.499 1189.58 731.13 1183.49C720.419 1180.43 712.041 1176.87 706.433 1173.09C700.685 1169.21 698.723 1165.73 698.723 1163.01H690.723C690.723 1169.8 695.508 1175.37 701.96 1179.72C708.553 1184.17 717.831 1188.01 728.936 1191.18C751.2 1197.53 781.726 1201.41 815.279 1201.41V1193.41ZM931.836 1163.01C931.836 1165.73 929.874 1169.21 924.126 1173.09C918.518 1176.87 910.14 1180.43 899.429 1183.49C878.06 1189.58 848.308 1193.41 815.279 1193.41V1201.41C848.833 1201.41 879.359 1197.53 901.623 1191.18C912.728 1188.01 922.006 1184.17 928.599 1179.72C935.051 1175.37 939.836 1169.8 939.836 1163.01H931.836ZM929.604 1157.72C931.229 1159.71 931.836 1161.47 931.836 1163.01H939.836C939.836 1159.18 938.278 1155.7 935.805 1152.67L929.604 1157.72ZM928.705 930.004V1155.19H936.705V930.004H928.705Z" fill="black" mask="url(#path-1-outside-1_986_75269)"/>
<path fill-rule="evenodd" clip-rule="evenodd" d="M932.704 930.004H852.855V1167.61C833.44 1176.31 820.96 1186.74 822.748 1194.07C825.168 1203.99 852.79 1204.48 884.443 1195.17C916.096 1185.85 939.794 1170.26 937.374 1160.34C936.865 1158.25 935.243 1156.59 932.704 1155.34V930.004Z" fill="black" fill-opacity="0.25"/>
<path d="M816.844 961.239C848.955 961.239 878.095 957.908 899.265 952.488C909.836 949.782 918.533 946.526 924.635 942.832C930.616 939.212 934.704 934.791 934.704 929.575C934.704 924.359 930.616 919.938 924.635 916.317C918.533 912.624 909.836 909.368 899.265 906.662C878.095 901.242 848.955 897.911 816.844 897.911C784.733 897.911 755.594 901.242 734.423 906.662C723.853 909.368 715.156 912.624 709.054 916.317C703.072 919.938 698.984 924.359 698.984 929.575C698.984 934.791 703.072 939.212 709.054 942.832C715.156 946.526 723.853 949.782 734.423 952.488C755.594 957.908 784.733 961.239 816.844 961.239Z" fill="#371502" stroke="black" stroke-width="4"/>
<path d="M815.5 961C848.066 961 877.617 957.576 899.088 952.003C909.808 949.22 918.626 945.873 924.812 942.077C930.885 938.35 935 933.818 935 928.5C935 923.182 930.885 918.65 924.812 914.923C918.626 911.127 909.808 907.78 899.088 904.997C877.617 899.424 848.066 896 815.5 896C782.934 896 753.383 899.424 731.912 904.997C721.192 907.78 712.374 911.127 706.188 914.923C700.115 918.65 696 923.182 696 928.5C696 933.818 700.115 938.35 706.188 942.077C712.374 945.873 721.192 949.22 731.912 952.003C753.383 957.576 782.934 961 815.5 961Z" fill="#5F3016" stroke="black" stroke-width="4"/>
<ellipse cx="816.845" cy="929.575" rx="100.986" ry="21.9254" fill="black" fill-opacity="0.25"/>
<path d="M954.484 501.322L954.485 501.321C956.142 499.609 957.963 497.483 959.124 495.071C960.302 492.625 960.865 489.736 959.737 486.675C959.217 485.255 958.455 484.037 957.311 483.286C956.107 482.495 954.805 482.43 953.659 482.704C952.563 482.966 951.53 483.55 950.618 484.199C949.69 484.86 948.778 485.67 947.923 486.5C837.041 593.73 811.19 675.792 802.971 710.392C802.171 713.755 802.899 717.629 804.185 720.77C804.839 722.364 805.669 723.854 806.607 725.078C807.522 726.27 808.653 727.358 809.955 727.929L810.7 726.09L809.97 727.936C811.316 728.513 812.876 728.532 814.314 728.293C815.789 728.048 817.337 727.498 818.783 726.717C821.618 725.184 824.431 722.542 825.279 718.994L825.28 718.991C832.817 687.218 858.588 600.283 954.484 501.322Z" fill="#A75D33" stroke="black" stroke-width="4"/>
<path d="M744.43 386.849L744.429 386.847C743.35 385.491 742.141 383.778 741.474 381.9C740.788 379.971 740.624 377.702 741.914 375.512C742.497 374.517 743.275 373.675 744.326 373.239C745.416 372.788 746.49 372.9 747.389 373.236C749.018 373.846 750.448 375.336 751.513 376.593C823.964 461.716 835.155 520.488 837.854 545.071C838.142 547.679 837.117 550.403 835.794 552.466C835.115 553.524 834.307 554.491 833.437 555.259C832.59 556.007 831.567 556.67 830.449 556.937L829.996 554.991L830.435 556.94C829.286 557.205 828.05 557.033 826.96 556.703C825.837 556.363 824.691 555.801 823.648 555.086C821.636 553.707 819.604 551.465 819.292 548.659L819.291 548.656C816.848 526.334 806.308 464.513 744.43 386.849Z" fill="#A75D33" stroke="black" stroke-width="4"/>
<path d="M811.885 831.085L812.031 833.087C815.207 832.918 818.728 830.906 821.358 828.362C823.984 825.822 826.227 822.257 826.124 818.531L811.885 831.085ZM811.885 831.085L812.019 833.087C808.849 833.237 804.73 831.507 801.501 829.179C799.843 827.983 798.296 826.544 797.134 824.945C795.979 823.356 795.123 821.491 795.064 819.49L795.064 819.485C794.185 786.636 784.871 694.713 684.437 567.267L684.436 567.265C682.719 565.084 680.866 562.413 679.987 559.655C679.073 556.784 679.173 553.614 681.685 550.967C681.685 550.967 681.685 550.967 681.685 550.967L811.885 831.085ZM696.002 554.629C814.192 695.055 825.144 782.463 826.124 818.53L696.002 554.629Z" fill="#A75D33" stroke="black" stroke-width="4"/>
<path d="M827.818 922.021L827.831 922.017C828.237 921.905 828.678 921.79 829.139 921.67C830.256 921.38 831.489 921.059 832.611 920.67C834.221 920.111 835.967 919.303 837.341 917.896C838.799 916.403 839.676 914.406 839.758 911.867C839.836 909.462 839.202 906.61 837.816 903.172C834.977 891.516 832.342 864.99 831.106 828.133C829.868 791.198 830.04 744.062 832.778 691.505C838.256 586.367 853.997 459.675 889.189 349.6L889.19 349.599C890.389 345.838 891.518 341.463 891.506 337.417C891.494 333.292 890.283 329.314 886.643 326.822C884.926 325.638 883.189 325.078 881.45 325.267C879.693 325.457 878.197 326.383 876.967 327.629C874.613 330.016 872.941 333.884 871.662 337.537C828.453 460.245 807.707 592.279 799.311 699.931C795.113 753.766 794.001 801.531 794.719 839.019C795.435 876.438 797.976 903.786 801.148 916.684C801.838 919.495 803.732 921.247 805.966 922.286C808.174 923.314 810.86 923.725 813.526 923.812C818.87 923.985 824.673 922.867 827.818 922.021Z" fill="#A75D33" stroke="black" stroke-width="4"/>
<path d="M875.005 387.758C882.607 369.444 886.507 361.016 898.11 356.229C910.115 351.294 924.208 352.846 934.741 363.111C932.887 378.54 923.133 389.91 911.137 394.86C905.077 397.347 900.052 397.539 894.402 396.079C888.989 394.681 883.025 391.78 875.005 387.758Z" fill="#008026" stroke="black" stroke-width="4"/>
<path d="M934.446 365.667C932.022 379.798 922.608 390.22 911.098 394.87C900.121 399.277 892.365 396.408 877.533 389.181C882.785 386.253 891.482 381.796 901.155 377.47C912.365 372.458 924.714 367.699 934.446 365.667Z" fill="#82EB68" stroke="black" stroke-width="4"/>
<path d="M859.89 386.038C852.287 367.723 848.388 359.296 836.784 354.508C824.78 349.574 810.687 351.126 800.153 361.39C802.008 376.819 811.762 388.19 823.758 393.139C829.818 395.626 834.842 395.818 840.493 394.359C845.906 392.96 851.87 390.059 859.89 386.038Z" fill="#008026" stroke="black" stroke-width="4"/>
<path d="M800.448 363.946C802.873 378.078 812.286 388.499 823.796 393.149C834.774 397.556 842.53 394.688 857.362 387.46C852.11 384.532 843.412 380.075 833.739 375.75C822.53 370.737 810.18 365.978 800.448 363.946Z" fill="#82EB68" stroke="black" stroke-width="4"/>
<path d="M744.014 395.974C753.745 398.001 757.869 403.963 766.113 417.254C760.332 421.577 756.012 424.708 751.945 426.605C747.631 428.618 743.619 429.227 738.487 428.168C728.348 426.062 719.251 418.567 715.841 406.775C722.952 397.209 733.886 393.884 744.014 395.974Z" fill="#008026" stroke="black" stroke-width="4"/>
<path d="M744.532 411.939C734.97 410.262 724.754 407.906 717.246 404.897C724.244 396.683 734.467 393.935 744.042 395.986C753.093 397.945 757.363 403.271 764.622 414.666C759.8 414.233 752.447 413.328 744.532 411.939Z" fill="#82EB68" stroke="black" stroke-width="4"/>
<path d="M765.118 441.097C774.988 440.549 780.26 445.259 791.134 456.051C781.287 468.008 776.458 473.283 766.602 473.849C756.311 474.427 745.876 469.506 740.039 458.932C744.903 447.752 754.836 441.688 765.118 441.097Z" fill="#008026" stroke="black" stroke-width="4"/>
<path d="M768.997 456.511C759.356 457.356 748.939 457.712 741.006 456.736C746.051 446.905 755.414 441.586 765.15 441.1C774.358 440.661 779.638 444.727 789.163 453.949C784.387 454.779 777.019 455.808 768.997 456.511Z" fill="#82EB68" stroke="black" stroke-width="4"/>
<path d="M676.959 576.843C686.847 577.035 691.819 582.135 701.994 593.713C691.436 604.896 686.291 609.794 676.423 609.621C666.116 609.426 656.007 603.732 650.838 592.744C656.382 581.967 666.662 576.662 676.959 576.843Z" fill="#008026" stroke="black" stroke-width="4"/>
<path d="M679.891 592.503C670.216 592.623 659.796 592.198 651.939 590.628C657.581 581.209 667.246 576.604 676.992 576.849C686.209 577.101 691.228 581.555 700.151 591.46C695.334 591.929 687.928 592.403 679.891 592.503Z" fill="#82EB68" stroke="black" stroke-width="4"/>
<path d="M686.793 555.511C679.823 555.812 674.663 555.95 670.309 555.194C665.683 554.391 661.983 552.573 658.137 548.683C650.546 540.987 646.443 529.323 649.237 517.332C659.854 513.379 670.718 516.91 678.305 524.583C685.591 531.978 686.214 539.454 686.793 555.511Z" fill="#008026" stroke="black" stroke-width="4"/>
<path d="M671.094 538.44C663.787 531.446 656.25 523.491 651.332 516.561C661.203 513.685 671.187 517.293 678.323 524.61C685.058 531.545 686.117 538.558 686.775 552.411C682.894 549.236 677.115 544.203 671.094 538.44Z" fill="#82EB68" stroke="black" stroke-width="4"/>
<path d="M709.824 631.127C714.876 629.737 718.897 630.08 723.296 631.806C727.462 633.441 731.944 636.301 737.961 640.263C730.393 654.119 726.584 660.329 717.015 662.981C707.034 665.733 695.943 663.13 688.358 653.998C691.158 641.959 699.85 633.892 709.824 631.127Z" fill="#008026" stroke="black" stroke-width="4"/>
<path d="M716.304 645.464C707.005 648.34 696.864 650.902 688.917 651.635C692.135 640.884 700.397 633.67 709.854 631.124C718.803 628.737 724.687 631.602 735.684 638.641C731.148 640.472 724.079 643.06 716.304 645.464Z" fill="#82EB68" stroke="black" stroke-width="4"/>
<path d="M899.767 294.766C889.791 304.504 888.889 314.612 887.751 335.985C897.145 336.595 904.118 336.96 910.014 336.064C916.187 335.127 921.166 332.803 926.364 327.747C936.657 317.71 942.388 302.224 938.802 286.111C924.689 280.367 910.057 284.757 899.767 294.766Z" fill="#008026" stroke="black" stroke-width="4"/>
<path d="M909.663 314.019C919.633 304.843 929.977 294.321 936.582 285.185C923.254 280.606 909.553 285.121 899.738 294.801C890.379 304.068 888.981 313.669 887.788 332.669C892.919 328.696 901.104 321.897 909.663 314.019Z" fill="#82EB68" stroke="black" stroke-width="4"/>
<path d="M962.672 458.14C955.256 465.379 954.501 472.841 953.639 488.883C960.603 489.331 965.759 489.58 970.125 488.916C974.764 488.212 978.495 486.473 982.41 482.665C990.135 475.132 994.444 463.557 991.861 451.509C981.317 447.331 970.393 450.63 962.672 458.14Z" fill="#008026" stroke="black" stroke-width="4"/>
<path d="M969.631 472.147C977.06 465.309 984.736 457.517 989.776 450.692C979.958 447.607 969.912 451.002 962.649 458.166C955.792 464.956 954.61 471.945 953.707 485.781C957.643 482.689 963.51 477.781 969.631 472.147Z" fill="#82EB68" stroke="black" stroke-width="4"/>
<path d="M764.294 371.812C760.946 382.04 763.525 388.96 769.767 403.515C783.025 396.645 789.019 393.1 792.373 382.907C795.867 372.25 794.608 359.845 787.089 350.635C775.958 352.505 767.795 361.172 764.294 371.812Z" fill="#008026" stroke="black" stroke-width="4"/>
<path d="M776.57 380.39C780.107 370.495 783.444 359.641 784.896 351.013C774.884 353.463 767.535 361.75 764.284 371.847C761.227 381.403 763.237 388.141 768.497 400.81C770.606 396.03 773.635 388.599 776.57 380.39Z" fill="#82EB68" stroke="black" stroke-width="4"/>
<path d="M861.591 478.427C855.246 482.155 853.494 487.203 850.366 498.502C855.185 500.099 858.763 501.204 861.927 501.545C865.361 501.915 868.293 501.378 871.702 499.383C878.4 495.452 883.283 488.04 883.417 479.015C876.548 474.19 868.28 474.513 861.591 478.427Z" fill="#008026" stroke="black" stroke-width="4"/>
<path d="M864.006 489.17C870.31 485.721 876.897 481.681 881.628 477.81C875.209 474.161 867.747 474.769 861.574 478.441C855.821 481.88 853.807 486.403 851.087 495.669C854.43 494.146 859.091 491.859 864.006 489.17Z" fill="#82EB68" stroke="black" stroke-width="4"/>
<path d="M740.654 570.536C731.743 579.233 730.902 588.24 729.879 607.395C738.262 607.938 744.479 608.254 749.738 607.455C755.273 606.614 759.732 604.534 764.396 599.998C773.621 591.003 778.76 577.144 775.592 562.723C762.964 557.63 749.875 561.566 740.654 570.536Z" fill="#008026" stroke="black" stroke-width="4"/>
<path d="M749.325 587.608C758.238 579.404 767.473 570.018 773.427 561.842C761.559 557.886 749.378 561.935 740.624 570.569C732.307 578.805 730.998 587.318 729.926 604.172C734.567 600.558 741.785 594.548 749.325 587.608Z" fill="#82EB68" stroke="black" stroke-width="4"/>
<mask id="path-35-inside-2_986_75269" fill="white">
<path d="M707.77 570.39C701.186 555.056 697.894 547.39 701.6 536.095C705.321 524.812 714.185 515.55 726.352 513.973C734.801 523.666 736.241 536.992 732.529 548.289C728.808 559.572 721.798 563.191 707.781 570.415L707.77 570.39Z"/>
</mask>
<path d="M707.77 570.39C701.186 555.056 697.894 547.39 701.6 536.095C705.321 524.812 714.185 515.55 726.352 513.973C734.801 523.666 736.241 536.992 732.529 548.289C728.808 559.572 721.798 563.191 707.781 570.415L707.77 570.39Z" fill="#008026"/>
<path d="M701.6 536.095L697.975 534.721L697.977 534.715L701.6 536.095ZM707.77 570.39L704.28 572.136L704.28 572.136L707.77 570.39ZM707.781 570.415L709.434 574.153L705.923 575.962L704.291 572.162L707.781 570.415ZM732.529 548.289L736.153 549.665L736.152 549.67L732.529 548.289ZM726.352 513.973L725.901 509.859L727.829 509.609L729.157 511.133L726.352 513.973ZM705.225 537.47C702.123 546.925 704.55 553.015 711.26 568.643L704.28 572.136C697.822 557.097 693.666 547.855 697.975 534.721L705.225 537.47ZM711.26 568.643L711.271 568.669L704.291 572.162L704.28 572.136L711.26 568.643ZM706.128 566.677C720.411 559.316 725.8 556.327 728.906 546.908L736.152 549.67C731.816 562.817 723.184 567.066 709.434 574.153L706.128 566.677ZM728.905 546.912C732.21 536.853 730.87 525.215 723.547 516.814L729.157 511.133C738.732 522.118 740.272 537.132 736.153 549.665L728.905 546.912ZM726.804 518.087C716.317 519.446 708.536 527.43 705.223 537.476L697.977 534.715C702.106 522.194 712.053 511.653 725.901 509.859L726.804 518.087Z" fill="black" mask="url(#path-35-inside-2_986_75269)"/>
<path d="M715.302 545.131C718.75 535.508 722.003 524.956 723.431 516.556C713.714 518.955 706.574 527.006 703.407 536.819C700.432 546.097 702.363 552.647 707.456 564.949C709.515 560.285 712.454 553.083 715.302 545.131Z" fill="#82EB68" stroke="black" stroke-width="4"/>
<path d="M956.168 550.37C945.382 543.541 942.803 534.513 938.081 515.183C946.555 512.681 952.857 510.911 958.394 510.508C964.207 510.084 969.163 511.177 974.795 514.728C985.945 521.779 993.855 534.752 993.371 550.228C981.445 558.381 967.309 557.395 956.168 550.37Z" fill="#008026" stroke="black" stroke-width="4"/>
<path d="M938.727 518.361C944.141 520.96 952.723 525.45 961.821 530.83C972.51 537.151 983.762 544.613 991.401 551.592C980.017 558.451 966.756 557.146 956.136 550.342C946.026 543.834 943.071 535.4 938.727 518.361Z" fill="#82EB68" stroke="black" stroke-width="4"/>
<path d="M905.27 571.526C893.01 573.777 887.731 581.228 877.145 597.535C884.303 603.146 889.655 607.236 894.724 609.745C900.039 612.377 905.028 613.254 911.428 612.092C924.105 609.771 935.636 600.665 940.104 585.983C931.512 573.727 917.935 569.224 905.27 571.526Z" fill="#008026" stroke="black" stroke-width="4"/>
<path d="M938.689 583.943C930.194 573.112 917.339 569.245 905.231 571.539C893.695 573.751 888.252 580.511 878.739 594.838C884.633 594.485 894.13 593.573 904.398 592.023C916.415 590.208 929.318 587.542 938.689 583.943Z" fill="#82EB68" stroke="black" stroke-width="4"/>
<path d="M925.553 465.724C933.177 476.527 932.451 485.95 930.155 505.808C921.445 504.597 914.998 503.614 909.732 501.683C904.205 499.656 899.995 496.583 896.009 490.955C888.124 479.795 885.277 464.501 891.062 450.381C904.919 447.792 917.666 454.59 925.553 465.724Z" fill="#008026" stroke="black" stroke-width="4"/>
<path d="M893.358 449.938C906.266 448.323 918.092 455.05 925.573 465.764C932.685 475.991 932.511 485.023 930.653 502.609C926.539 497.953 920.14 490.222 913.57 481.451C905.858 471.156 898.02 459.573 893.358 449.938Z" fill="#82EB68" stroke="black" stroke-width="4"/>
<path d="M894.141 525.57C897.617 534.882 895.515 541.397 890.268 555.177C884.295 552.429 879.908 550.322 876.515 547.813C872.903 545.142 870.442 542.021 868.595 537.095C864.958 527.366 865.658 515.812 872.257 506.929C882.621 508.192 890.498 515.857 894.141 525.57Z" fill="#008026" stroke="black" stroke-width="4"/>
<path d="M874.429 507.209C883.714 509.097 890.775 516.421 894.151 525.6C897.318 534.262 895.762 540.566 891.407 552.441C889.268 548.071 886.23 541.402 883.248 534.029C879.608 525.031 876.119 515.149 874.429 507.209Z" fill="#82EB68" stroke="black" stroke-width="4"/>
<path d="M834.735 413.788C841.433 420.692 841.984 427.603 842.418 442.516C835.97 442.737 831.199 442.818 827.179 442.085C822.888 441.302 819.466 439.586 815.917 435.939C808.92 428.734 805.185 417.885 807.828 406.786C817.696 403.238 827.743 406.604 834.735 413.788Z" fill="#008026" stroke="black" stroke-width="4"/>
<path d="M828.091 426.472C821.369 419.936 814.448 412.521 809.906 406.057C819.033 403.564 828.21 406.993 834.757 413.812C840.918 420.255 841.893 426.714 842.419 439.458C838.822 436.456 833.563 431.793 828.091 426.472Z" fill="#82EB68" stroke="black" stroke-width="4"/>
<path d="M735.314 350.16C742.011 357.064 742.562 363.975 742.996 378.888C736.548 379.109 731.778 379.19 727.757 378.457C723.466 377.674 720.044 375.958 716.495 372.311C709.498 365.106 705.763 354.257 708.406 343.158C718.274 339.611 728.321 342.976 735.314 350.16Z" fill="#008026" stroke="black" stroke-width="4"/>
<path d="M728.669 362.844C721.948 356.308 715.026 348.893 710.484 342.429C719.611 339.936 728.788 343.365 735.335 350.184C741.496 356.627 742.471 363.086 742.997 375.83C739.4 372.828 734.141 368.165 728.669 362.844Z" fill="#82EB68" stroke="black" stroke-width="4"/>
<path d="M867.614 320.067C874.311 326.971 874.863 333.882 875.297 348.795C868.849 349.016 864.078 349.097 860.058 348.364C855.767 347.581 852.345 345.865 848.796 342.219C841.799 335.013 838.064 324.164 840.707 313.066C850.575 309.518 860.621 312.883 867.614 320.067Z" fill="#008026" stroke="black" stroke-width="4"/>
<path d="M860.97 332.752C854.248 326.215 847.327 318.801 842.785 312.336C851.912 309.843 861.088 313.272 867.635 320.091C873.797 326.535 874.772 332.994 875.298 345.738C871.701 342.735 866.442 338.072 860.97 332.752Z" fill="#82EB68" stroke="black" stroke-width="4"/>
<ellipse cx="816.844" cy="920.977" rx="46.1873" ry="13.3272" fill="black" fill-opacity="0.25"/>
</g>
<defs>
<clipPath id="clip0_986_75269">
<rect width="1000" height="1000" fill="white"/>
</clipPath>
</defs>
</svg>
