<svg width="1000" height="1000" viewBox="0 0 1000 1000" fill="none" xmlns="http://www.w3.org/2000/svg">
<rect x="607" y="443.73" width="26" height="556" fill="black"/>
<circle cx="620" cy="425" r="22.5" fill="white" stroke="black" stroke-width="5"/>
<path d="M632 432.571C630.44 434.95 628.223 436.804 625.629 437.899C623.035 438.994 620.181 439.28 617.427 438.722C614.673 438.164 612.143 436.786 610.158 434.763C608.173 432.74 606.821 430.163 606.273 427.357C605.725 424.551 606.006 421.643 607.081 419" stroke="#C4C4C4" stroke-width="7" stroke-linecap="round"/>
<rect x="584" y="460" width="396" height="300" fill="#3C3C3C" stroke="black" stroke-width="8"/>
<rect x="610.206" y="460" width="73.7647" height="300" fill="black" fill-opacity="0.25"/>
<path d="M781.902 539.382L780 533.528L778.098 539.382L765.076 579.459H722.937H716.781L721.761 583.077L755.853 607.846L742.831 647.923L740.929 653.777L745.908 650.159L780 625.39L814.092 650.159L819.071 653.777L817.169 647.923L804.147 607.846L838.239 583.077L843.219 579.459H837.063H794.924L781.902 539.382Z" fill="#E40303" stroke="black" stroke-width="4"/>
<path d="M837.063 581.459H793.471L780 622.918L815.267 648.541L801.796 607.082L837.063 581.459Z" fill="black" fill-opacity="0.25"/>
</svg>
