<svg width="1000" height="1000" viewBox="0 0 1000 1000" fill="none" xmlns="http://www.w3.org/2000/svg">
<g clip-path="url(#clip0_881_40482)">
<rect x="802.508" y="540.379" width="43.4278" height="1346.27" rx="21.7139" transform="rotate(15 802.508 540.379)" fill="#FFBF74" stroke="black" stroke-width="6"/>
<rect x="830.449" y="550.972" width="10.6937" height="1340.27" rx="5.34683" transform="rotate(15 830.449 550.972)" fill="black" fill-opacity="0.25"/>
<path d="M949.697 237.497C949.697 237.494 949.697 237.492 949.697 237.492C949.697 237.492 949.697 237.494 949.697 237.497ZM753.835 871.503C754.33 871.636 754.745 871.497 754.981 871.374C755.208 871.256 755.364 871.107 755.452 871.015C755.629 870.829 755.764 870.616 755.858 870.455C756.058 870.112 756.274 869.646 756.501 869.104C756.962 868.004 757.557 866.38 758.274 864.281C759.711 860.073 761.678 853.845 764.111 845.821C768.98 829.767 775.733 806.469 783.886 777.639C800.193 719.976 822.11 640.157 845.773 551.849C869.417 463.606 896.71 385.288 917.79 328.944C928.031 301.57 936.805 279.386 942.983 263.764C943.163 263.309 943.341 262.859 943.516 262.414C946.615 254.579 949.025 248.474 950.583 244.308C951.36 242.23 951.937 240.604 952.282 239.476C952.452 238.922 952.584 238.43 952.648 238.045C952.677 237.868 952.712 237.606 952.687 237.335C952.675 237.202 952.64 236.956 952.503 236.692C952.348 236.393 952.035 236.032 951.514 235.893C951.046 235.767 950.658 235.89 950.464 235.973C950.262 236.06 950.11 236.173 950.018 236.248C949.831 236.4 949.672 236.581 949.55 236.731C949.293 237.046 948.998 237.482 948.674 237.998C948.018 239.045 947.143 240.593 946.074 242.601C943.931 246.626 940.961 252.591 937.327 260.302C930.056 275.728 920.103 298.186 908.75 326.181C886.043 382.169 857.723 460.33 834.043 548.706C810.381 637.014 789.452 717.098 774.743 775.189C767.389 804.233 761.588 827.787 757.777 844.124C755.873 852.289 754.462 858.666 753.603 863.03C753.174 865.206 752.877 866.91 752.726 868.093C752.652 868.675 752.606 869.187 752.608 869.584C752.609 869.77 752.619 870.022 752.68 870.272C752.709 870.396 752.771 870.603 752.908 870.818C753.051 871.043 753.341 871.371 753.835 871.503Z" fill="#5F3016" stroke="black" stroke-width="3"/>
<path d="M838.419 230.662C838.422 230.653 838.424 230.649 838.424 230.649C838.424 230.648 838.422 230.653 838.419 230.662ZM703.683 858.066C703.189 857.933 702.899 857.606 702.756 857.381C702.618 857.165 702.557 856.958 702.527 856.835C702.467 856.584 702.456 856.333 702.455 856.146C702.453 855.748 702.5 855.237 702.574 854.654C702.724 853.47 703.021 851.766 703.45 849.589C704.309 845.224 705.721 838.843 707.626 830.674C711.438 814.33 717.241 790.766 724.599 761.708C739.314 703.591 760.251 623.472 783.924 535.124C807.574 446.862 819.913 370.363 826.646 316.011C830.012 288.836 831.976 267.197 833.252 252.388C833.417 250.473 833.57 248.671 833.714 246.985C834.125 242.157 834.456 238.279 834.74 235.434C834.932 233.519 835.106 232.03 835.276 231.02C835.359 230.528 835.452 230.077 835.567 229.73C835.619 229.574 835.714 229.315 835.887 229.074C836.018 228.892 836.617 228.171 837.608 228.436C838.002 228.542 838.255 228.77 838.388 228.917C838.525 229.068 838.614 229.22 838.668 229.325C838.775 229.535 838.845 229.755 838.893 229.932C838.993 230.301 839.075 230.775 839.146 231.315C839.291 232.411 839.416 233.982 839.513 235.988C839.708 240.01 839.797 245.891 839.688 253.461C839.468 268.605 838.452 290.559 835.88 318.011C830.734 372.914 819.359 449.833 795.663 538.269C771.99 626.617 750.063 706.472 733.748 764.16C725.591 793.003 718.834 816.311 713.964 832.372C711.529 840.4 709.561 846.631 708.123 850.841C707.406 852.94 706.811 854.565 706.349 855.666C706.122 856.208 705.906 856.674 705.706 857.017C705.612 857.178 705.477 857.391 705.299 857.577C705.212 857.669 705.055 857.818 704.828 857.936C704.592 858.059 704.177 858.198 703.683 858.066Z" fill="#5F3016" stroke="black" stroke-width="3"/>
<path d="M710.569 859.91C710.075 859.778 709.785 859.45 709.642 859.226C709.504 859.01 709.443 858.803 709.413 858.679C709.352 858.429 709.342 858.177 709.341 857.991C709.339 857.593 709.385 857.082 709.46 856.499C709.61 855.315 709.907 853.611 710.336 851.433C711.195 847.068 712.606 840.688 714.512 832.519C718.324 816.174 724.127 792.61 731.484 763.553C746.199 705.436 767.137 625.317 790.81 536.969C814.437 448.79 821.682 354.381 823.317 282.06C824.135 245.907 823.551 215.289 822.914 193.746C822.724 187.296 822.53 181.707 822.368 177.004C822.257 173.816 822.161 171.034 822.089 168.669C822.002 165.775 821.952 163.531 821.963 162.016C821.969 161.268 821.99 160.649 822.036 160.205C822.057 160.002 822.093 159.736 822.172 159.492C822.205 159.388 822.294 159.131 822.503 158.885C822.761 158.583 823.333 158.186 824.087 158.388C824.624 158.532 824.903 158.911 824.975 159.01C825.084 159.161 825.156 159.31 825.2 159.41C825.291 159.617 825.366 159.856 825.429 160.084C825.559 160.556 825.697 161.204 825.843 162C826.136 163.602 826.482 165.928 826.859 168.913C827.613 174.889 828.502 183.57 829.351 194.508C831.048 216.386 832.587 247.326 832.568 283.77C832.531 356.642 826.267 451.595 802.549 540.114C778.876 628.462 756.949 708.316 740.634 766.005C732.476 794.848 725.72 818.156 720.85 834.217C718.415 842.245 716.447 848.476 715.009 852.685C714.291 854.785 713.696 856.41 713.235 857.511C713.008 858.052 712.792 858.518 712.592 858.862C712.498 859.023 712.363 859.236 712.185 859.422C712.098 859.514 711.941 859.663 711.714 859.781C711.478 859.904 711.063 860.043 710.569 859.91Z" fill="#5F3016" stroke="black" stroke-width="3"/>
<path d="M753.316 876.9C753.819 877.035 754.237 876.887 754.461 876.771C754.682 876.656 754.837 876.512 754.924 876.423C755.101 876.242 755.24 876.033 755.341 875.87C755.554 875.524 755.789 875.05 756.04 874.495C756.55 873.367 757.216 871.701 758.022 869.546C759.638 865.228 761.857 858.842 764.593 850.628C770.067 834.194 777.625 810.39 786.582 781.055C804.497 722.383 828.018 641.562 851.673 553.279C875.295 465.119 910.787 376.154 940.079 309.123C954.724 275.613 967.814 247.594 977.093 227.906C978.315 225.313 979.472 222.863 980.557 220.564C983.59 214.14 986.068 208.89 987.874 204.967C989.1 202.306 990.027 200.231 990.611 198.803C990.9 198.097 991.123 197.507 991.254 197.068C991.315 196.863 991.383 196.605 991.405 196.351C991.415 196.238 991.43 195.991 991.353 195.709C991.268 195.403 990.986 194.805 990.255 194.609C989.669 194.453 989.21 194.685 989.08 194.755C988.898 194.853 988.76 194.969 988.677 195.044C988.503 195.201 988.336 195.394 988.189 195.576C987.885 195.955 987.504 196.494 987.062 197.163C986.17 198.512 984.943 200.509 983.424 203.1C980.382 208.288 976.126 215.918 970.948 225.633C960.589 245.064 946.52 272.866 931.05 306.205C900.115 372.874 863.556 461.737 839.874 550.118C819.703 625.399 800.354 695.447 784.985 751.088C782.336 760.68 779.805 769.843 777.408 778.532C769.259 808.074 762.661 832.13 758.255 848.843C756.053 857.197 754.394 863.731 753.361 868.203C752.846 870.433 752.481 872.179 752.283 873.391C752.185 873.987 752.119 874.508 752.106 874.911C752.099 875.1 752.1 875.356 752.151 875.61C752.176 875.734 752.231 875.949 752.365 876.175C752.506 876.413 752.801 876.762 753.316 876.9Z" fill="#5F3016" stroke="black" stroke-width="3"/>
<path d="M753.317 876.9C753.842 877.041 754.271 876.875 754.49 876.755C754.708 876.636 754.86 876.49 754.945 876.401C755.118 876.218 755.255 876.006 755.356 875.838C755.57 875.482 755.808 874.992 756.066 874.413C756.588 873.239 757.273 871.502 758.104 869.254C759.771 864.749 762.065 858.086 764.897 849.516C770.564 832.37 778.399 807.538 787.696 776.939C806.292 715.74 830.745 631.448 855.411 539.394C880.033 447.505 916.871 368.195 947.254 311.767C962.444 283.556 976.018 261.068 985.643 245.591C988.658 240.741 991.274 236.599 993.438 233.173C994.736 231.117 995.871 229.318 996.834 227.778C998.106 225.742 999.077 224.156 999.692 223.062C999.994 222.525 1000.24 222.054 1000.39 221.688C1000.46 221.526 1000.56 221.27 1000.6 220.994C1000.61 220.867 1000.64 220.574 1000.53 220.237C1000.39 219.809 1000.04 219.371 999.455 219.216C999.006 219.096 998.636 219.209 998.492 219.26C998.316 219.322 998.174 219.403 998.081 219.461C997.892 219.58 997.71 219.729 997.553 219.869C997.228 220.157 996.827 220.567 996.367 221.07C995.438 222.085 994.166 223.594 992.593 225.566C989.442 229.516 985.035 235.384 979.672 243.006C968.944 258.253 954.367 280.55 938.327 308.623C906.25 364.763 868.301 444.037 843.598 536.229C822.565 614.727 802.412 687.774 786.404 745.798C783.644 755.8 781.008 765.356 778.511 774.416C770.023 805.223 763.15 830.308 758.553 847.733C756.255 856.443 754.522 863.254 753.44 867.913C752.9 870.238 752.515 872.054 752.304 873.312C752.201 873.931 752.13 874.468 752.112 874.88C752.104 875.073 752.103 875.329 752.15 875.582C752.172 875.705 752.223 875.92 752.352 876.148C752.487 876.385 752.782 876.757 753.317 876.9Z" fill="#5F3016" stroke="black" stroke-width="3"/>
<path d="M1010.87 253.312C1010.87 253.308 1010.87 253.307 1010.87 253.307C1010.87 253.307 1010.87 253.308 1010.87 253.312ZM762.783 879.437C763.297 879.575 763.726 879.42 763.967 879.286C764.196 879.158 764.351 878.999 764.435 878.904C764.607 878.711 764.735 878.49 764.825 878.324C765.016 877.968 765.221 877.484 765.436 876.92C765.874 875.773 766.435 874.079 767.111 871.891C768.465 867.506 770.314 861.022 772.605 852.692C777.189 836.026 783.561 811.91 791.332 782.266C794.54 770.027 797.988 756.845 801.646 742.855C815.712 689.064 832.904 623.322 851.672 553.279C875.267 465.221 916.298 390.742 951.142 338.181C968.561 311.905 984.428 291.114 995.788 276.851C1000.37 271.099 1004.21 266.411 1007.14 262.845C1007.84 261.989 1008.49 261.197 1009.09 260.471C1010.61 258.604 1011.79 257.151 1012.54 256.151C1012.91 255.66 1013.22 255.231 1013.42 254.896C1013.5 254.752 1013.64 254.511 1013.71 254.24C1013.75 254.123 1013.83 253.801 1013.74 253.412C1013.69 253.191 1013.57 252.93 1013.35 252.698C1013.13 252.463 1012.87 252.332 1012.63 252.269C1012.21 252.158 1011.87 252.248 1011.75 252.283C1011.59 252.329 1011.45 252.392 1011.36 252.44C1011.17 252.537 1010.98 252.663 1010.8 252.787C1010.44 253.042 1009.99 253.41 1009.46 253.867C1008.39 254.79 1006.91 256.167 1005.08 257.973C1001.41 261.588 996.268 266.972 990.029 273.992C977.549 288.034 960.659 308.649 942.369 334.806C905.793 387.114 863.582 461.635 839.874 550.117C816.218 638.399 796.062 720.121 782.127 779.858C775.159 809.726 769.745 834.104 766.225 851.061C764.466 859.537 763.178 866.172 762.405 870.717C762.02 872.984 761.758 874.758 761.632 875.989C761.57 876.595 761.536 877.122 761.546 877.529C761.55 877.72 761.566 877.971 761.628 878.217C761.659 878.338 761.721 878.54 761.855 878.75C761.991 878.964 762.279 879.302 762.783 879.437Z" fill="#5F3016" stroke="black" stroke-width="3"/>
<path d="M1053.86 266.24C1053.86 266.24 1053.86 266.24 1053.86 266.241C1053.86 266.24 1053.86 266.24 1053.86 266.24ZM762.783 879.437C763.297 879.575 763.726 879.42 763.967 879.286C764.196 879.158 764.351 878.999 764.435 878.904C764.607 878.711 764.735 878.49 764.825 878.324C765.016 877.968 765.221 877.484 765.436 876.92C765.874 875.773 766.435 874.079 767.111 871.891C768.465 867.506 770.314 861.022 772.605 852.692C777.189 836.026 783.561 811.91 791.332 782.266C794.54 770.027 797.988 756.845 801.646 742.855C815.712 689.064 832.904 623.322 851.672 553.279C875.238 465.33 926.52 393.676 971.662 343.895C994.226 319.012 1015.24 299.611 1030.46 286.39C1038.07 279.78 1044.23 274.715 1048.42 271.276L1048.7 271.048C1050.65 269.444 1052.17 268.196 1053.18 267.331C1053.7 266.884 1054.12 266.506 1054.4 266.221C1054.52 266.097 1054.7 265.903 1054.84 265.683L1054.84 265.679C1054.89 265.603 1055.08 265.287 1055.09 264.85C1055.09 264.576 1055.02 264.206 1054.76 263.87C1054.5 263.543 1054.17 263.4 1053.95 263.34C1053.57 263.238 1053.24 263.308 1053.16 263.327L1053.16 263.327C1053.02 263.357 1052.89 263.4 1052.8 263.435C1052.61 263.507 1052.4 263.605 1052.19 263.713C1051.76 263.931 1051.19 264.254 1050.51 264.667C1049.14 265.499 1047.22 266.749 1044.82 268.401C1040.02 271.708 1033.26 276.655 1025.08 283.155C1008.71 296.157 986.642 315.389 963.168 340.17C916.232 389.717 863.612 461.525 839.874 550.117C816.218 638.399 796.062 720.121 782.127 779.858C775.159 809.726 769.745 834.104 766.225 851.061C764.466 859.537 763.178 866.172 762.405 870.717C762.02 872.984 761.758 874.758 761.632 875.989C761.57 876.595 761.536 877.122 761.546 877.529C761.55 877.72 761.566 877.971 761.628 878.217C761.659 878.338 761.721 878.54 761.855 878.75C761.991 878.964 762.279 879.302 762.783 879.437Z" fill="#5F3016" stroke="black" stroke-width="3"/>
<path d="M776.549 883.125C777.041 883.257 777.459 883.122 777.709 882.988C777.943 882.863 778.101 882.705 778.189 882.608C778.365 882.413 778.494 882.192 778.581 882.03C778.767 881.682 778.963 881.212 779.165 880.671C779.578 879.568 780.101 877.942 780.728 875.842C781.985 871.632 783.694 865.398 785.817 857.37C790.066 841.308 795.993 817.994 803.318 789.155L804.014 786.412C818.608 728.953 838.596 650.256 861.871 563.392C885.432 475.462 938.421 404.277 985.28 354.957C1008.7 330.305 1030.57 311.135 1046.44 298.087C1054.37 291.563 1060.8 286.569 1065.17 283.182C1065.38 283.022 1065.58 282.866 1065.78 282.713C1067.67 281.25 1069.15 280.104 1070.15 279.298C1070.69 278.859 1071.13 278.489 1071.43 278.211C1071.55 278.09 1071.74 277.905 1071.88 277.695L1071.88 277.69C1071.93 277.619 1072.14 277.312 1072.17 276.876C1072.19 276.598 1072.13 276.207 1071.86 275.849C1071.59 275.503 1071.25 275.358 1071.03 275.298C1070.66 275.199 1070.34 275.264 1070.26 275.282L1070.25 275.282C1070.12 275.31 1069.99 275.35 1069.9 275.384C1069.71 275.452 1069.5 275.547 1069.28 275.652C1068.84 275.865 1068.26 276.181 1067.55 276.587C1066.13 277.404 1064.14 278.632 1061.64 280.259C1056.65 283.514 1049.62 288.388 1041.12 294.802C1024.11 307.629 1001.17 326.631 976.834 351.181C928.172 400.267 873.816 471.62 850.073 560.231C826.416 648.517 807.151 728.637 794.106 786.771C787.584 815.838 782.615 839.414 779.43 855.771C777.838 863.947 776.689 870.333 776.014 874.704C775.677 876.883 775.454 878.591 775.356 879.777C775.307 880.361 775.283 880.873 775.303 881.271C775.312 881.459 775.333 881.707 775.403 881.952C775.438 882.073 775.505 882.271 775.644 882.476C775.785 882.685 776.07 882.997 776.549 883.125Z" fill="#5F3016" stroke="black" stroke-width="3"/>
<path d="M776.55 883.126C777.065 883.264 777.497 883.108 777.74 882.97C777.971 882.84 778.125 882.679 778.209 882.583C778.38 882.387 778.506 882.164 778.594 881.997C778.781 881.64 778.98 881.154 779.189 880.588C779.613 879.437 780.156 877.739 780.808 875.545C782.115 871.147 783.896 864.646 786.106 856.295C790.528 839.587 796.685 815.413 804.24 785.713L805.293 781.575C820.309 722.548 840.613 642.729 863.717 556.507C887.257 468.652 943.498 405.769 993.627 364.739C1018.69 344.229 1042.2 329.196 1059.29 319.25C1067.83 314.278 1074.77 310.577 1079.51 308.098C1080.39 307.637 1081.19 307.216 1081.92 306.836C1083.14 306.198 1084.14 305.677 1084.89 305.276C1085.48 304.959 1085.96 304.694 1086.28 304.494C1086.41 304.41 1086.62 304.273 1086.79 304.107C1086.84 304.058 1086.92 303.979 1087 303.871C1087.06 303.78 1087.21 303.565 1087.26 303.254C1087.34 302.879 1087.28 302.394 1086.94 301.988C1086.65 301.65 1086.31 301.534 1086.16 301.493C1085.86 301.414 1085.6 301.44 1085.53 301.447L1085.53 301.448C1085.41 301.459 1085.3 301.48 1085.21 301.499C1085.02 301.539 1084.81 301.598 1084.58 301.668C1084.12 301.808 1083.5 302.023 1082.75 302.306C1081.23 302.873 1079.09 303.742 1076.41 304.914C1071.06 307.261 1063.5 310.84 1054.36 315.701C1036.09 325.425 1011.48 340.291 985.457 360.712C933.427 401.543 875.682 464.658 851.918 553.345C828.262 641.631 808.535 723.472 795.03 783.327C788.277 813.254 783.078 837.69 779.72 854.692C778.041 863.19 776.82 869.844 776.095 874.401C775.733 876.675 775.49 878.454 775.378 879.689C775.322 880.297 775.293 880.825 775.307 881.232C775.314 881.424 775.332 881.674 775.397 881.918C775.428 882.038 775.491 882.238 775.625 882.446C775.76 882.656 776.047 882.991 776.55 883.126Z" fill="#5F3016" stroke="black" stroke-width="3"/>
<path d="M764.578 877.715C764.578 877.715 764.578 877.714 764.578 877.711C764.578 877.714 764.578 877.715 764.578 877.715ZM1075.69 336.204C1075.69 336.203 1075.69 336.202 1075.69 336.202C1075.69 336.202 1075.69 336.203 1075.69 336.204ZM762.776 879.435C763.247 879.561 763.641 879.438 763.854 879.341C764.068 879.243 764.224 879.118 764.316 879.036C764.501 878.87 764.653 878.676 764.763 878.522C764.997 878.196 765.259 877.75 765.54 877.228C766.11 876.169 766.861 874.603 767.773 872.576C769.6 868.512 772.12 862.492 775.215 854.716C781.408 839.159 789.921 816.526 799.835 788.362C819.661 732.031 845.094 653.545 868.757 565.237C892.297 477.383 944.968 420.94 991.479 386.362C1014.74 369.073 1036.44 357.256 1052.18 349.722C1060.05 345.955 1066.43 343.259 1070.76 341.483C1071.86 341.034 1072.84 340.636 1073.69 340.296C1074.49 339.972 1075.17 339.699 1075.69 339.482C1076.22 339.26 1076.67 339.071 1076.96 338.924C1077.07 338.869 1077.3 338.753 1077.49 338.594C1077.55 338.547 1077.65 338.46 1077.75 338.332C1077.83 338.224 1078.02 337.947 1078.06 337.534C1078.11 337.017 1077.89 336.561 1077.57 336.269C1077.31 336.036 1077.04 335.953 1076.93 335.923C1076.69 335.86 1076.49 335.865 1076.41 335.866C1076.31 335.869 1076.21 335.879 1076.12 335.889C1075.95 335.91 1075.75 335.945 1075.54 335.989C1075.1 336.076 1074.52 336.215 1073.82 336.403C1072.4 336.779 1070.42 337.37 1067.93 338.19C1062.96 339.832 1055.95 342.406 1047.48 346.063C1030.53 353.377 1007.68 365.034 983.422 382.249C934.905 416.682 880.722 473.387 856.958 562.076C833.316 650.309 808.899 728.999 790.698 785.719C784.775 804.174 779.514 820.293 775.15 833.665C772.806 840.848 770.72 847.238 768.93 852.771C766.371 860.679 764.414 866.844 763.172 871.056C762.553 873.156 762.103 874.801 761.846 875.944C761.719 876.506 761.626 877.004 761.592 877.395C761.577 877.576 761.564 877.836 761.608 878.101C761.629 878.231 761.68 878.46 761.82 878.701C761.974 878.965 762.276 879.301 762.776 879.435Z" fill="#5F3016" stroke="black" stroke-width="3"/>
<path d="M691.973 860.463C691.46 860.326 691.166 859.978 691.024 859.742C690.89 859.516 690.835 859.302 690.809 859.177C690.757 858.923 690.755 858.668 690.761 858.479C690.774 858.075 690.838 857.554 690.934 856.957C691.128 855.745 691.488 853.997 691.997 851.765C693.016 847.289 694.656 840.75 696.836 832.39C701.198 815.665 707.736 791.593 715.827 762.034C719.197 749.722 722.836 736.458 726.701 722.374C741.393 668.825 759.335 603.435 778.059 533.554C801.665 445.456 807.716 357.88 808.168 292.388C808.393 259.647 807.22 232.435 806.143 213.447C805.793 207.28 805.454 201.996 805.177 197.659C805.026 195.309 804.893 193.238 804.786 191.455C804.635 188.933 804.535 186.978 804.512 185.658C804.5 185.009 804.507 184.456 804.545 184.051C804.562 183.87 804.595 183.6 804.686 183.343C804.726 183.229 804.833 182.953 805.084 182.702C805.411 182.376 805.962 182.131 806.585 182.298C807.05 182.423 807.317 182.722 807.408 182.83C807.525 182.97 807.606 183.11 807.657 183.206C807.76 183.402 807.846 183.624 807.916 183.83C808.062 184.256 808.218 184.833 808.383 185.532C808.715 186.94 809.115 188.979 809.559 191.595C810.448 196.834 811.526 204.458 812.601 214.126C814.75 233.465 816.888 261.014 817.47 294.061C818.632 360.146 813.568 448.276 789.87 536.719C766.215 625.001 742.811 705.852 725.012 764.554C716.112 793.904 708.612 817.723 703.182 834.168C700.467 842.388 698.265 848.779 696.662 853.101C695.862 855.257 695.201 856.924 694.694 858.053C694.445 858.609 694.211 859.083 693.999 859.43C693.899 859.593 693.76 859.803 693.583 859.985C693.496 860.074 693.341 860.218 693.12 860.333C692.895 860.451 692.477 860.598 691.973 860.463Z" fill="#5F3016" stroke="black" stroke-width="3"/>
<path d="M777.986 147.89C777.986 147.89 777.987 147.891 777.989 147.894C777.987 147.891 777.986 147.89 777.986 147.89ZM691.971 860.463C691.458 860.326 691.164 859.978 691.022 859.741C690.888 859.516 690.833 859.302 690.807 859.177C690.755 858.923 690.754 858.668 690.76 858.479C690.772 858.075 690.836 857.554 690.932 856.957C691.126 855.745 691.487 853.997 691.995 851.764C693.014 847.289 694.654 840.75 696.835 832.39C701.197 815.665 707.735 791.592 715.825 762.034C719.195 749.722 722.835 736.457 726.699 722.374C741.392 668.825 759.333 603.435 778.058 533.554C801.643 445.532 800.951 348.825 794.646 274.139C791.495 236.809 786.944 205.007 783.334 182.576C781.86 173.414 780.543 165.819 779.541 160.041C779.316 158.745 779.107 157.539 778.916 156.429C778.395 153.406 778.002 151.064 777.778 149.485C777.667 148.704 777.591 148.065 777.566 147.61C777.555 147.403 777.547 147.134 777.583 146.885C777.597 146.789 777.641 146.499 777.825 146.204C777.929 146.039 778.126 145.792 778.466 145.628C778.836 145.449 779.219 145.444 779.533 145.528C780.026 145.66 780.303 145.996 780.366 146.072L780.369 146.076C780.475 146.205 780.554 146.335 780.606 146.428C780.715 146.622 780.817 146.852 780.912 147.086C781.107 147.566 781.34 148.234 781.604 149.063C782.135 150.732 782.827 153.159 783.642 156.276C785.272 162.516 787.409 171.573 789.753 182.964C794.442 205.748 799.967 237.896 803.935 275.545C811.867 350.818 813.587 448.2 789.868 536.719C766.213 625.001 742.809 705.852 725.01 764.554C716.111 793.904 708.611 817.723 703.18 834.168C700.465 842.388 698.263 848.779 696.66 853.101C695.86 855.257 695.2 856.924 694.693 858.053C694.443 858.609 694.209 859.083 693.997 859.43C693.898 859.593 693.758 859.803 693.581 859.985C693.494 860.074 693.34 860.218 693.118 860.333C692.893 860.451 692.475 860.598 691.971 860.463Z" fill="#5F3016" stroke="black" stroke-width="3"/>
<path d="M763.79 173.674C763.79 173.674 763.791 173.676 763.792 173.678L763.792 173.677C763.79 173.675 763.79 173.674 763.79 173.674ZM680.782 857.465C680.264 857.327 679.967 856.973 679.824 856.725C679.689 856.493 679.638 856.272 679.615 856.146C679.568 855.889 679.574 855.631 679.585 855.444C679.608 855.042 679.687 854.523 679.798 853.931C680.026 852.728 680.433 850.993 681 848.777C682.137 844.335 683.946 837.841 686.328 829.537C689.801 817.426 694.504 801.426 700.14 782.249C702.234 775.122 704.458 767.555 706.796 759.587C724.053 700.759 747.527 619.957 771.172 531.71C794.755 443.7 792.22 353.891 784.076 286.12C780.005 252.243 774.535 223.893 770.237 204.051C768.324 195.222 766.643 188.079 765.418 182.875C765.267 182.232 765.122 181.618 764.985 181.034C764.365 178.39 763.89 176.342 763.61 174.964C763.473 174.284 763.371 173.716 763.328 173.306C763.309 173.126 763.286 172.856 763.319 172.595C763.331 172.496 763.374 172.165 763.601 171.839C763.733 171.649 763.959 171.416 764.309 171.28C764.667 171.14 765.009 171.159 765.268 171.228C765.7 171.344 765.961 171.615 766.031 171.688C766.141 171.803 766.226 171.92 766.283 172.006C766.402 172.183 766.515 172.391 766.62 172.601C766.834 173.029 767.091 173.621 767.384 174.351C767.973 175.82 768.747 177.954 769.664 180.696C771.501 186.187 773.929 194.172 776.621 204.277C782.007 224.487 788.459 253.201 793.353 287.417C803.138 355.834 806.705 446.343 782.983 534.874C759.325 623.167 734.842 703.739 715.965 762.159C706.526 791.368 698.487 815.045 692.652 831.385C689.735 839.552 687.364 845.898 685.642 850.189C684.783 852.33 684.075 853.985 683.535 855.105C683.269 855.657 683.022 856.126 682.8 856.468C682.695 856.63 682.552 856.835 682.373 857.011C682.284 857.097 682.13 857.235 681.913 857.344C681.695 857.455 681.282 857.599 680.782 857.465Z" fill="#5F3016" stroke="black" stroke-width="3"/>
<path d="M742.728 197.626C742.728 197.626 742.729 197.627 742.73 197.629C742.729 197.627 742.728 197.626 742.728 197.626ZM691.112 860.233C690.649 860.109 690.361 859.812 690.207 859.585C690.062 859.37 689.995 859.162 689.962 859.035C689.895 858.781 689.883 858.527 689.881 858.345C689.878 857.958 689.923 857.466 689.996 856.915C690.143 855.793 690.436 854.182 690.859 852.127C691.707 848.005 693.103 841.975 694.989 834.227C698.763 818.725 704.518 796.286 711.825 768.36C726.44 712.506 747.275 634.668 770.925 546.404C794.493 458.446 786.752 370.971 773.396 305.515C766.719 272.796 758.644 245.6 752.391 226.626C749.265 217.139 746.595 209.707 744.779 204.659L744.732 204.528C743.85 202.075 743.166 200.173 742.739 198.89C742.525 198.247 742.358 197.709 742.267 197.322C742.227 197.155 742.17 196.893 742.17 196.632L742.169 196.628C742.169 196.537 742.168 196.167 742.389 195.789C742.527 195.555 742.772 195.281 743.162 195.131C743.542 194.985 743.889 195.021 744.115 195.082C744.497 195.184 744.743 195.409 744.81 195.47L744.811 195.471C744.917 195.568 745.004 195.669 745.067 195.747C745.195 195.906 745.325 196.097 745.451 196.295C745.707 196.698 746.026 197.259 746.397 197.955C747.143 199.354 748.145 201.387 749.35 204.005C751.762 209.246 755.011 216.875 758.688 226.553C766.041 245.91 775.115 273.488 782.631 306.572C797.657 372.722 806.472 460.985 782.736 549.569C759.083 637.844 737.248 715.421 721.018 770.85C712.904 798.563 706.188 820.747 701.345 835.966C698.925 843.572 696.968 849.454 695.535 853.42C694.821 855.397 694.227 856.928 693.764 857.966C693.537 858.476 693.318 858.92 693.112 859.249C693.015 859.404 692.874 859.612 692.687 859.793C692.594 859.884 692.432 860.024 692.204 860.132C691.964 860.244 691.571 860.356 691.112 860.233Z" fill="#5F3016" stroke="black" stroke-width="3"/>
<path d="M737.004 864.537C737.004 864.537 737.005 864.535 737.006 864.533C737.005 864.536 737.004 864.537 737.004 864.537ZM739.206 865.164C739.206 865.164 739.206 865.162 739.206 865.159C739.206 865.162 739.206 865.164 739.206 865.164ZM939.341 234.808C939.341 234.801 939.341 234.797 939.341 234.797C939.342 234.797 939.342 234.8 939.341 234.808ZM737.484 867.123C738.268 867.333 738.841 866.9 739.01 866.759C739.233 866.572 739.4 866.351 739.515 866.182C739.757 865.828 740.004 865.351 740.256 864.811C740.767 863.71 741.408 862.086 742.167 859.996C743.69 855.803 745.738 849.591 748.247 841.586C753.268 825.569 760.158 802.304 768.426 773.503C784.962 715.9 807.021 636.117 830.684 547.807C854.325 459.578 882.961 381.632 905.3 325.631C915.924 298.999 925.122 277.333 931.682 261.879C932.019 261.085 932.349 260.308 932.672 259.548C935.973 251.768 938.539 245.7 940.18 241.551C940.998 239.483 941.602 237.852 941.953 236.711C942.125 236.154 942.259 235.638 942.313 235.22C942.338 235.027 942.364 234.728 942.304 234.415C942.251 234.135 942.013 233.348 941.123 233.11C940.412 232.919 939.861 233.27 939.716 233.366C939.493 233.512 939.304 233.695 939.16 233.849C938.861 234.167 938.528 234.606 938.173 235.12C937.454 236.161 936.514 237.701 935.38 239.695C933.107 243.692 929.993 249.624 926.208 257.296C918.634 272.647 908.345 295.018 896.677 322.931C873.342 378.755 844.48 456.777 820.799 545.158C806.53 598.408 792.914 648.562 780.936 692.68C773.049 721.728 765.873 748.159 759.69 771.133C751.904 800.059 745.693 823.503 741.623 839.771C739.589 847.902 738.085 854.26 737.187 858.619C736.74 860.791 736.435 862.505 736.293 863.705C736.224 864.294 736.185 864.829 736.206 865.256C736.216 865.458 736.242 865.738 736.337 866.016C736.411 866.233 736.687 866.91 737.484 867.123Z" fill="#5F3016" stroke="black" stroke-width="3"/>
<path d="M1051.17 265.537C1051.17 265.537 1051.17 265.537 1051.17 265.538C1051.17 265.537 1051.17 265.537 1051.17 265.537ZM745.64 866.829C745.64 866.828 745.642 866.826 745.646 866.822C745.642 866.827 745.64 866.829 745.64 866.829ZM747.785 867.412C747.785 867.413 747.784 867.41 747.783 867.403C747.784 867.408 747.785 867.411 747.785 867.412ZM746.091 869.429C746.779 869.614 747.313 869.302 747.534 869.14C747.775 868.964 747.951 868.75 748.067 868.593C748.31 868.265 748.545 867.833 748.772 867.363C749.236 866.4 749.802 864.986 750.462 863.171C751.788 859.525 753.554 854.098 755.723 847.039C760.063 832.914 766.046 812.173 773.407 785.899C788.128 733.346 808.372 658.614 832.034 570.31C855.605 482.341 911.29 406.302 960.778 352.099C985.512 325.01 1008.67 303.4 1025.46 288.509C1032.95 281.862 1039.17 276.556 1043.7 272.692C1044.25 272.227 1044.77 271.783 1045.26 271.36C1047.56 269.397 1049.33 267.871 1050.49 266.822C1051.05 266.305 1051.51 265.864 1051.81 265.527C1051.94 265.383 1052.14 265.149 1052.27 264.881C1052.32 264.78 1052.5 264.415 1052.44 263.937C1052.41 263.652 1052.29 263.333 1052.03 263.064C1051.79 262.807 1051.51 262.686 1051.3 262.631C1050.94 262.534 1050.63 262.591 1050.51 262.613C1050.36 262.644 1050.22 262.69 1050.11 262.73C1049.9 262.811 1049.66 262.923 1049.43 263.047C1048.94 263.299 1048.31 263.671 1047.56 264.148C1046.05 265.106 1043.94 266.545 1041.31 268.44C1036.05 272.232 1028.67 277.881 1019.77 285.229C1001.97 299.924 978.04 321.433 952.729 348.497C902.128 402.603 845.9 479.019 822.148 567.661C820.635 573.307 819.137 578.898 817.654 584.432C795.948 665.436 777.543 734.118 764.665 783.55C757.786 809.952 752.481 830.874 749.091 845.253C747.397 852.438 746.176 858.011 745.476 861.824C745.127 863.723 744.9 865.228 744.813 866.292C744.771 866.811 744.755 867.303 744.799 867.708C744.82 867.902 744.864 868.177 744.983 868.451C745.094 868.705 745.4 869.244 746.091 869.429Z" fill="#5F3016" stroke="black" stroke-width="3"/>
<path d="M720.025 859.987C720.025 859.987 720.025 859.985 720.024 859.983C720.025 859.986 720.025 859.987 720.025 859.987ZM717.804 859.429C717.804 859.429 717.805 859.427 717.807 859.424C717.805 859.427 717.804 859.429 717.804 859.429ZM859.66 213.457C859.664 213.451 859.665 213.447 859.665 213.447C859.665 213.447 859.663 213.45 859.66 213.457ZM718.316 861.987C717.531 861.777 717.251 861.115 717.176 860.908C717.077 860.635 717.043 860.36 717.027 860.156C716.995 859.729 717.019 859.192 717.072 858.599C717.179 857.389 717.436 855.663 717.823 853.473C718.601 849.08 719.934 842.676 721.763 834.489C725.424 818.107 731.089 794.515 738.329 765.439C752.81 707.284 773.598 627.161 797.26 538.851C820.901 450.622 835.074 368.801 843.729 309.133C847.845 280.757 850.712 257.395 852.757 240.731C852.862 239.875 852.965 239.037 853.066 238.217C854.096 229.829 854.909 223.291 855.562 218.877C855.887 216.677 856.179 214.963 856.446 213.799C856.576 213.231 856.717 212.717 856.88 212.328C856.955 212.148 857.082 211.877 857.29 211.636C857.476 211.42 858.076 210.857 858.966 211.095C859.677 211.286 859.979 211.866 860.057 212.021C860.176 212.259 860.248 212.511 860.296 212.717C860.396 213.142 860.465 213.689 860.515 214.311C860.618 215.572 860.662 217.376 860.647 219.67C860.616 224.268 860.347 230.962 859.789 239.5C858.674 256.58 856.399 281.099 852.547 311.106C844.843 371.119 830.827 453.118 807.146 541.499C792.877 594.749 779.593 644.993 767.907 689.189C760.213 718.288 753.212 744.766 747.08 767.754C739.36 796.697 733.017 820.106 728.407 836.23C726.103 844.288 724.227 850.546 722.825 854.77C722.126 856.875 721.533 858.512 721.056 859.622C720.821 860.167 720.588 860.649 720.356 861.009C720.247 861.179 720.084 861.408 719.862 861.601C719.69 861.752 719.113 862.2 718.316 861.987Z" fill="#5F3016" stroke="black" stroke-width="3"/>
<path d="M720.025 859.987C720.025 859.987 720.025 859.985 720.024 859.983C720.025 859.986 720.025 859.987 720.025 859.987ZM717.804 859.429C717.804 859.429 717.805 859.427 717.807 859.424C717.805 859.427 717.804 859.429 717.804 859.429ZM718.316 861.987C717.532 861.777 717.252 861.115 717.176 860.908C717.077 860.635 717.043 860.36 717.028 860.156C716.995 859.729 717.019 859.192 717.072 858.599C717.179 857.389 717.436 855.663 717.823 853.473C718.601 849.08 719.934 842.676 721.763 834.489C725.424 818.107 731.089 794.515 738.329 765.439C752.81 707.284 773.598 627.161 797.261 538.851C820.913 450.581 843.607 350.71 860.783 272.996C864.813 254.762 868.54 237.744 871.905 222.382C875.708 205.016 879.048 189.768 881.837 177.275C884.465 165.501 886.609 156.154 888.195 149.773C888.987 146.588 889.646 144.116 890.161 142.444C890.416 141.617 890.65 140.938 890.861 140.455C890.961 140.226 891.09 139.96 891.254 139.733C891.331 139.625 891.478 139.438 891.705 139.28C891.938 139.116 892.424 138.874 893.035 139.038C893.613 139.192 893.904 139.607 894.019 139.81C894.141 140.027 894.196 140.235 894.225 140.363C894.284 140.629 894.302 140.919 894.307 141.176C894.319 141.713 894.279 142.44 894.201 143.316C894.045 145.084 893.718 147.645 893.236 150.917C892.271 157.469 890.669 166.964 888.515 178.87C884.204 202.687 877.671 236.195 869.562 275.191C853.345 353.182 830.817 453.158 807.146 541.499C792.878 594.749 779.593 644.993 767.907 689.189C760.213 718.288 753.212 744.766 747.08 767.754C739.36 796.697 733.017 820.106 728.407 836.23C726.104 844.288 724.227 850.546 722.825 854.77C722.126 856.875 721.534 858.512 721.056 859.622C720.822 860.167 720.588 860.649 720.357 861.009C720.247 861.179 720.084 861.408 719.863 861.601C719.69 861.752 719.113 862.2 718.316 861.987Z" fill="#5F3016" stroke="black" stroke-width="3"/>
<path d="M724.96 861.3C724.96 861.3 724.961 861.298 724.963 861.296C724.961 861.299 724.959 861.3 724.96 861.3ZM727.147 861.924C727.147 861.925 727.147 861.922 727.147 861.918C727.147 861.922 727.147 861.924 727.147 861.924ZM913.433 255.612C913.433 255.605 913.433 255.601 913.433 255.6C913.433 255.6 913.433 255.604 913.433 255.612ZM725.43 863.893C726.188 864.096 726.751 863.697 726.934 863.55C727.16 863.367 727.33 863.148 727.445 862.983C727.687 862.638 727.932 862.175 728.178 861.656C728.679 860.596 729.303 859.037 730.038 857.032C731.515 853.009 733.494 847.049 735.915 839.37C740.759 824.006 747.394 801.685 755.348 774.053C771.256 718.784 792.448 642.228 815.156 557.484C837.845 472.805 863.887 397.61 883.87 343.472C892.074 321.245 899.254 302.572 904.765 288.243C905.965 285.121 907.086 282.205 908.122 279.504C911.012 271.961 913.239 266.073 914.646 262.041C915.347 260.032 915.858 258.444 916.145 257.328C916.285 256.784 916.392 256.276 916.423 255.86C916.438 255.666 916.447 255.371 916.371 255.064C916.301 254.782 916.037 254.064 915.201 253.84C914.497 253.651 913.952 253.992 913.79 254.1C913.564 254.252 913.379 254.439 913.241 254.592C912.956 254.91 912.646 255.344 912.323 255.843C911.667 256.857 910.82 258.355 909.805 260.288C907.77 264.165 904.997 269.917 901.626 277.349C894.882 292.218 885.717 313.874 875.233 340.847C854.266 394.793 828.01 470.04 805.288 554.84C791.596 605.94 778.523 654.067 767.023 696.401C759.451 724.276 752.562 749.638 746.627 771.686C739.155 799.443 733.196 821.942 729.301 837.557C727.354 845.361 725.917 851.466 725.065 855.654C724.64 857.741 724.352 859.391 724.222 860.55C724.158 861.118 724.124 861.639 724.149 862.059C724.161 862.259 724.191 862.537 724.291 862.815C724.374 863.045 724.659 863.686 725.43 863.893Z" fill="#5F3016" stroke="black" stroke-width="3"/>
<path d="M724.96 861.3C724.96 861.3 724.961 861.298 724.963 861.296C724.961 861.299 724.959 861.3 724.96 861.3ZM727.147 861.924C727.147 861.925 727.147 861.922 727.147 861.918C727.147 861.922 727.147 861.924 727.147 861.924ZM913.433 255.612C913.433 255.605 913.433 255.601 913.433 255.6C913.433 255.6 913.433 255.604 913.433 255.612ZM725.43 863.893C726.188 864.096 726.751 863.697 726.934 863.55C727.16 863.367 727.33 863.148 727.445 862.983C727.687 862.638 727.932 862.175 728.178 861.656C728.679 860.596 729.303 859.037 730.038 857.032C731.515 853.009 733.494 847.049 735.915 839.37C740.759 824.006 747.394 801.685 755.348 774.053C771.256 718.784 792.448 642.228 815.156 557.484C837.845 472.805 863.887 397.61 883.87 343.472C892.074 321.245 899.254 302.572 904.765 288.243C905.965 285.121 907.086 282.205 908.122 279.504C911.012 271.961 913.239 266.073 914.646 262.041C915.347 260.032 915.858 258.444 916.145 257.328C916.285 256.784 916.392 256.276 916.423 255.86C916.438 255.666 916.447 255.371 916.371 255.064C916.301 254.782 916.037 254.064 915.201 253.84C914.497 253.651 913.952 253.992 913.79 254.1C913.564 254.252 913.379 254.439 913.241 254.592C912.956 254.91 912.646 255.344 912.323 255.843C911.667 256.857 910.82 258.355 909.805 260.288C907.77 264.165 904.997 269.917 901.626 277.349C894.882 292.218 885.717 313.874 875.233 340.847C854.266 394.793 828.01 470.04 805.288 554.84C791.596 605.94 778.523 654.067 767.023 696.401C759.451 724.276 752.562 749.638 746.627 771.686C739.155 799.443 733.196 821.942 729.301 837.557C727.354 845.361 725.917 851.466 725.065 855.654C724.64 857.741 724.352 859.391 724.222 860.55C724.158 861.118 724.124 861.639 724.149 862.059C724.161 862.259 724.191 862.537 724.291 862.815C724.374 863.045 724.659 863.686 725.43 863.893Z" fill="#5F3016" stroke="black" stroke-width="3"/>
<path d="M724.959 861.299C724.96 861.299 724.961 861.298 724.963 861.295C724.961 861.298 724.959 861.3 724.959 861.299ZM727.147 861.924C727.147 861.924 727.147 861.922 727.146 861.917C727.147 861.921 727.147 861.923 727.147 861.924ZM725.43 863.892C726.188 864.095 726.751 863.696 726.934 863.549C727.16 863.366 727.33 863.147 727.445 862.982C727.687 862.637 727.932 862.174 728.178 861.655C728.679 860.596 729.303 859.036 730.038 857.031C731.515 853.009 733.494 847.049 735.915 839.37C740.759 824.005 747.394 801.685 755.348 774.052C771.256 718.784 792.448 642.228 815.156 557.483C837.825 472.879 879.547 376.114 915.242 300.347C933.085 262.473 949.412 229.865 961.087 206.666C962.034 204.783 962.951 202.962 963.836 201.204C968.4 192.141 972.108 184.778 974.722 179.433C976.281 176.245 977.463 173.751 978.208 172.033C978.577 171.183 978.858 170.478 979.022 169.958C979.1 169.715 979.181 169.421 979.208 169.14C979.22 169.012 979.237 168.749 979.153 168.451C979.058 168.115 978.759 167.541 978.047 167.351C977.477 167.198 977.024 167.41 976.877 167.486C976.686 167.584 976.536 167.705 976.44 167.788C976.241 167.961 976.046 168.18 975.866 168.397C975.495 168.846 975.028 169.49 974.481 170.297C973.379 171.921 971.865 174.328 969.993 177.439C966.245 183.667 961.021 192.786 954.704 204.27C942.069 227.24 925.047 259.704 906.704 297.49C870.028 373.045 828.031 469.963 805.288 554.839C791.596 605.939 778.523 654.066 767.023 696.401C759.451 724.275 752.562 749.638 746.627 771.685C739.155 799.442 733.196 821.941 729.301 837.557C727.354 845.361 725.917 851.465 725.064 855.654C724.64 857.741 724.352 859.39 724.222 860.55C724.158 861.117 724.124 861.638 724.149 862.058C724.161 862.258 724.191 862.537 724.291 862.815C724.374 863.044 724.659 863.685 725.43 863.892Z" fill="#5F3016" stroke="black" stroke-width="3"/>
<path d="M724.981 861.287C724.981 861.286 724.982 861.285 724.985 861.281C724.982 861.285 724.981 861.287 724.981 861.287ZM727.143 861.921C727.143 861.921 727.143 861.918 727.142 861.912C727.143 861.918 727.143 861.921 727.143 861.921ZM725.43 863.893C726.153 864.087 726.701 863.733 726.899 863.582C727.132 863.405 727.306 863.191 727.423 863.031C727.669 862.697 727.914 862.251 728.157 861.757C728.653 860.747 729.268 859.261 729.991 857.353C731.441 853.523 733.383 847.839 735.758 840.494C740.511 825.795 747.023 804.362 754.854 777.619C770.516 724.127 791.464 649.348 814.171 564.601C836.869 479.895 867.44 380.057 891.953 301.275C896.786 285.743 901.383 271.027 905.638 257.408C912.173 236.494 917.899 218.165 922.43 203.431C926.17 191.268 929.099 181.539 930.997 174.821C931.944 171.467 932.641 168.84 933.053 167.028C933.256 166.131 933.401 165.388 933.466 164.842C933.497 164.582 933.52 164.284 933.497 164.007C933.487 163.877 933.458 163.644 933.352 163.395C933.247 163.15 932.954 162.65 932.302 162.475C931.685 162.31 931.204 162.564 931.018 162.684C930.809 162.817 930.662 162.975 930.577 163.073C930.399 163.279 930.241 163.53 930.107 163.762C929.827 164.246 929.493 164.935 929.111 165.786C928.343 167.502 927.315 170.041 926.057 173.314C923.539 179.869 920.067 189.455 915.852 201.496C907.42 225.582 896.002 259.534 883.263 298.804C857.786 377.342 827.019 477.184 804.304 561.957C787.456 624.833 771.678 682.243 758.652 729.636C754.124 746.111 749.928 761.376 746.136 775.239C738.788 802.105 732.952 823.715 729.149 838.663C727.248 846.133 725.849 851.961 725.023 855.956C724.612 857.946 724.334 859.522 724.211 860.633C724.15 861.176 724.118 861.682 724.147 862.095C724.161 862.291 724.194 862.57 724.301 862.849C724.396 863.096 724.691 863.695 725.43 863.893Z" fill="#5F3016" stroke="black" stroke-width="3"/>
<path d="M732.935 863.436C732.935 863.436 732.935 863.434 732.934 863.431C732.935 863.434 732.935 863.436 732.935 863.436ZM730.728 862.883C730.728 862.883 730.73 862.881 730.733 862.877C730.73 862.881 730.729 862.883 730.728 862.883ZM872.557 244.658C872.561 244.652 872.562 244.648 872.562 244.648C872.562 244.648 872.56 244.651 872.557 244.658ZM731.232 865.446C730.473 865.243 730.185 864.616 730.101 864.397C729.996 864.125 729.959 863.851 729.941 863.651C729.904 863.231 729.923 862.707 729.97 862.135C730.066 860.967 730.306 859.304 730.671 857.2C731.404 852.979 732.67 846.827 734.412 838.967C737.9 823.238 743.314 800.591 750.242 772.684C764.099 716.866 784.024 639.97 806.731 555.225C829.421 470.547 844.465 392.404 854.229 335.529C858.238 312.178 861.356 292.416 863.748 277.252C864.269 273.948 864.756 270.862 865.21 268.005C866.478 260.028 867.494 253.814 868.292 249.619C868.689 247.529 869.041 245.898 869.35 244.789C869.501 244.247 869.662 243.754 869.843 243.378C869.927 243.203 870.067 242.943 870.286 242.714C870.488 242.505 871.076 242.016 871.911 242.24C872.616 242.428 872.917 242.995 873.003 243.171C873.123 243.414 873.19 243.669 873.233 243.871C873.321 244.289 873.372 244.819 873.402 245.413C873.463 246.62 873.448 248.34 873.36 250.522C873.184 254.897 872.71 261.264 871.913 269.386C870.319 285.635 867.428 308.973 863.021 337.574C854.207 394.776 839.321 473.069 816.599 557.869C802.907 608.969 790.165 657.185 778.957 699.598C771.577 727.523 764.862 752.933 758.978 774.994C751.571 802.768 745.481 825.233 741.047 840.704C738.831 848.436 737.023 854.441 735.667 858.494C734.992 860.514 734.416 862.087 733.949 863.156C733.721 863.679 733.49 864.148 733.258 864.499C733.148 864.666 732.983 864.892 732.756 865.082C732.57 865.24 732.003 865.653 731.232 865.446Z" fill="#5F3016" stroke="black" stroke-width="3"/>
<path d="M734.658 863.898C734.658 863.898 734.658 863.896 734.658 863.892C734.658 863.896 734.658 863.898 734.658 863.898ZM732.452 863.344C732.451 863.345 732.453 863.343 732.456 863.339C732.453 863.342 732.452 863.344 732.452 863.344ZM732.955 865.908C732.196 865.704 731.908 865.078 731.824 864.859C731.719 864.587 731.682 864.313 731.664 864.112C731.627 863.692 731.646 863.169 731.693 862.596C731.789 861.429 732.029 859.766 732.394 857.662C733.127 853.44 734.393 847.289 736.135 839.428C739.623 823.7 745.037 801.052 751.965 773.145C765.823 717.327 785.747 640.432 808.454 555.687C831.154 470.97 850.8 389.414 865.164 329.134C866.686 322.747 868.149 316.598 869.55 310.709C874.759 288.814 879.112 270.515 882.471 256.93C884.602 248.313 886.338 241.572 887.641 237.005C888.291 234.729 888.844 232.958 889.291 231.756C889.511 231.166 889.728 230.651 889.943 230.268C890.044 230.088 890.195 229.847 890.403 229.638C890.547 229.495 891.146 228.942 892.019 229.176C892.837 229.395 893.106 230.109 893.165 230.275C893.259 230.541 893.296 230.814 893.315 231.024C893.354 231.466 893.343 232.031 893.303 232.67C893.222 233.97 893.004 235.83 892.664 238.192C891.982 242.93 890.788 249.819 889.13 258.568C885.812 276.074 880.623 301.09 873.919 331.368C860.511 391.927 841.034 473.569 818.322 558.331C804.63 609.431 791.888 657.647 780.68 700.06C773.3 727.985 766.585 753.395 760.701 775.456C753.294 803.23 747.204 825.694 742.77 841.165C740.554 848.897 738.746 854.902 737.39 858.956C736.715 860.976 736.139 862.548 735.672 863.617C735.444 864.141 735.213 864.609 734.981 864.96C734.871 865.127 734.706 865.353 734.48 865.544C734.293 865.701 733.726 866.114 732.955 865.908Z" fill="#5F3016" stroke="black" stroke-width="3"/>
<rect x="2.12132" y="3.67423" width="13.1291" height="116.501" rx="6.56455" transform="matrix(0.258819 -0.965926 -0.965926 -0.258819 849.106 665.525)" fill="#FFBF74" stroke="black" stroke-width="6"/>
<rect x="2.12132" y="3.67423" width="13.1291" height="116.501" rx="6.56455" transform="matrix(0.258819 -0.965926 -0.965926 -0.258819 843.571 686.183)" fill="#FFBF74" stroke="black" stroke-width="6"/>
<rect x="2.12132" y="3.67423" width="13.1291" height="116.501" rx="6.56455" transform="matrix(0.258819 -0.965926 -0.965926 -0.258819 838.035 706.841)" fill="#FFBF74" stroke="black" stroke-width="6"/>
</g>
<defs>
<clipPath id="clip0_881_40482">
<rect width="1000" height="1000" fill="white"/>
</clipPath>
</defs>
</svg>
