<svg width="1000" height="1003" viewBox="0 0 1000 1003" fill="none" xmlns="http://www.w3.org/2000/svg">
<g filter="url(#filter0_d_53_55246)">
<mask id="path-1-outside-1_53_55246" maskUnits="userSpaceOnUse" x="342.966" y="7.74658" width="299" height="313" fill="black">
<rect fill="white" x="342.966" y="7.74658" width="299" height="313"/>
<path fill-rule="evenodd" clip-rule="evenodd" d="M633.751 151.219C633.751 174.243 627.757 195.925 617.182 214.911C615.578 217.79 615.852 221.333 617.058 224.4C618.844 228.942 619.451 234.646 618.48 240.65C617.598 246.106 615.553 250.947 612.834 254.643C611.287 256.747 610.335 259.307 610.614 261.905C611.106 266.473 611.381 271.599 611.381 277.015C611.381 296.202 607.921 311.757 603.653 311.757C599.385 311.757 595.926 296.202 595.926 277.015C595.926 271.811 596.18 266.874 596.636 262.442C596.695 261.866 596.39 261.343 595.863 261.102C594.588 260.516 591.622 262.087 591.773 263.482C591.963 265.242 592.062 267.055 592.062 268.908C592.062 285.324 584.277 298.632 574.674 298.632C567.201 298.632 560.829 290.572 558.37 279.26C557.591 275.673 553.684 273.372 550.313 274.826C548.753 275.498 547.622 276.889 547.133 278.516C543.879 289.329 534.933 297.095 524.408 297.095C518.156 297.095 512.462 294.355 508.186 289.865C506.162 287.739 503.408 286.313 500.477 286.472C497.79 286.618 495.083 286.691 492.359 286.691C480.294 286.691 468.581 285.244 457.401 282.519C452.489 281.322 447.329 285.053 443.419 288.258C441.167 290.103 438.264 291.215 435.094 291.215C429.074 291.215 424.012 287.204 422.555 281.767C422.192 280.409 420.712 279.454 419.306 279.454C414.62 279.454 410.822 275.1 410.822 269.729C410.822 267.878 411.273 266.148 412.056 264.675C412.467 263.903 412.304 262.905 411.577 262.419C410.73 261.853 409.568 262.266 409.096 263.168C407.534 266.149 404.67 268.146 401.396 268.146C398.098 268.146 390.518 269.31 388.79 272.118C386.586 275.7 383.94 277.787 381.094 277.787C373.412 277.787 367.184 262.577 367.184 243.816C367.184 236.607 368.104 229.922 369.672 224.423C370.359 222.013 370.128 219.407 368.865 217.243C357.464 197.708 350.966 175.191 350.966 151.219C350.966 76.3997 414.27 15.7466 492.359 15.7466C570.448 15.7466 633.751 76.3997 633.751 151.219ZM394.768 250.078C394.742 250.42 395.204 250.607 395.446 250.363C395.587 250.22 395.583 249.988 395.434 249.853C395.413 249.834 395.391 249.815 395.37 249.796C395.149 249.596 394.794 249.739 394.771 250.036C394.77 250.05 394.769 250.064 394.768 250.078Z"/>
</mask>
<path fill-rule="evenodd" clip-rule="evenodd" d="M633.751 151.219C633.751 174.243 627.757 195.925 617.182 214.911C615.578 217.79 615.852 221.333 617.058 224.4C618.844 228.942 619.451 234.646 618.48 240.65C617.598 246.106 615.553 250.947 612.834 254.643C611.287 256.747 610.335 259.307 610.614 261.905C611.106 266.473 611.381 271.599 611.381 277.015C611.381 296.202 607.921 311.757 603.653 311.757C599.385 311.757 595.926 296.202 595.926 277.015C595.926 271.811 596.18 266.874 596.636 262.442C596.695 261.866 596.39 261.343 595.863 261.102C594.588 260.516 591.622 262.087 591.773 263.482C591.963 265.242 592.062 267.055 592.062 268.908C592.062 285.324 584.277 298.632 574.674 298.632C567.201 298.632 560.829 290.572 558.37 279.26C557.591 275.673 553.684 273.372 550.313 274.826C548.753 275.498 547.622 276.889 547.133 278.516C543.879 289.329 534.933 297.095 524.408 297.095C518.156 297.095 512.462 294.355 508.186 289.865C506.162 287.739 503.408 286.313 500.477 286.472C497.79 286.618 495.083 286.691 492.359 286.691C480.294 286.691 468.581 285.244 457.401 282.519C452.489 281.322 447.329 285.053 443.419 288.258C441.167 290.103 438.264 291.215 435.094 291.215C429.074 291.215 424.012 287.204 422.555 281.767C422.192 280.409 420.712 279.454 419.306 279.454C414.62 279.454 410.822 275.1 410.822 269.729C410.822 267.878 411.273 266.148 412.056 264.675C412.467 263.903 412.304 262.905 411.577 262.419C410.73 261.853 409.568 262.266 409.096 263.168C407.534 266.149 404.67 268.146 401.396 268.146C398.098 268.146 390.518 269.31 388.79 272.118C386.586 275.7 383.94 277.787 381.094 277.787C373.412 277.787 367.184 262.577 367.184 243.816C367.184 236.607 368.104 229.922 369.672 224.423C370.359 222.013 370.128 219.407 368.865 217.243C357.464 197.708 350.966 175.191 350.966 151.219C350.966 76.3997 414.27 15.7466 492.359 15.7466C570.448 15.7466 633.751 76.3997 633.751 151.219ZM394.768 250.078C394.742 250.42 395.204 250.607 395.446 250.363C395.587 250.22 395.583 249.988 395.434 249.853C395.413 249.834 395.391 249.815 395.37 249.796C395.149 249.596 394.794 249.739 394.771 250.036C394.77 250.05 394.769 250.064 394.768 250.078Z" fill="white"/>
<path d="M618.48 240.65L626.377 241.927V241.927L618.48 240.65ZM395.37 249.796L400.733 243.86L395.37 249.796ZM394.771 250.036L386.794 249.431L394.771 250.036ZM368.865 217.243L361.956 221.275L368.865 217.243ZM388.79 272.118L381.976 267.925L388.79 272.118ZM412.056 264.675L404.992 260.92L412.056 264.675ZM457.401 282.519L455.507 290.292L457.401 282.519ZM443.419 288.258L448.49 294.445L443.419 288.258ZM547.133 278.516L539.472 276.211L547.133 278.516ZM409.096 263.168L402.009 259.455L409.096 263.168ZM617.182 214.911L610.193 211.018L617.182 214.911ZM617.058 224.4L624.503 221.473L617.058 224.4ZM558.37 279.26L550.553 280.959L558.37 279.26ZM422.555 281.767L414.828 283.838L422.555 281.767ZM395.434 249.853L400.793 243.914L395.434 249.853ZM596.636 262.442L588.678 261.623L596.636 262.442ZM394.768 250.078L386.791 249.469L394.768 250.078ZM591.773 263.482L599.727 262.624L591.773 263.482ZM508.186 289.865L513.98 284.349L508.186 289.865ZM500.477 286.472L500.91 294.46L500.477 286.472ZM612.834 254.643L606.39 249.903L612.834 254.643ZM610.614 261.905L602.66 262.76L610.614 261.905ZM624.171 218.804C635.386 198.669 641.751 175.652 641.751 151.219H625.751C625.751 172.833 620.128 193.181 610.193 211.018L624.171 218.804ZM626.377 241.927C627.55 234.675 626.874 227.5 624.503 221.473L609.613 227.328C610.815 230.383 611.352 234.617 610.583 239.374L626.377 241.927ZM619.279 259.383C622.811 254.581 625.31 248.53 626.377 241.927L610.583 239.374C609.886 243.681 608.295 247.312 606.39 249.903L619.279 259.383ZM619.381 277.015C619.381 271.336 619.093 265.924 618.568 261.049L602.66 262.76C603.119 267.023 603.381 271.862 603.381 277.015H619.381ZM603.653 319.757C606.792 319.757 609.157 318.291 610.627 316.939C612.054 315.626 613.046 314.074 613.742 312.751C615.143 310.087 616.162 306.758 616.927 303.318C618.486 296.309 619.381 287.013 619.381 277.015H603.381C603.381 286.204 602.546 294.28 601.309 299.844C600.675 302.692 600.029 304.451 599.581 305.303C599.352 305.738 599.374 305.551 599.794 305.164C600.258 304.737 601.581 303.757 603.653 303.757V319.757ZM587.926 277.015C587.926 287.013 588.821 296.309 590.38 303.318C591.145 306.758 592.164 310.087 593.565 312.751C594.261 314.074 595.253 315.626 596.68 316.939C598.15 318.291 600.514 319.757 603.653 319.757V303.757C605.725 303.757 607.048 304.737 607.512 305.164C607.933 305.551 607.954 305.738 607.726 305.303C607.278 304.451 606.632 302.692 605.998 299.844C604.76 294.28 603.926 286.204 603.926 277.015H587.926ZM588.678 261.623C588.192 266.346 587.926 271.557 587.926 277.015H603.926C603.926 272.064 604.168 267.401 604.594 263.261L588.678 261.623ZM583.819 264.341C583.978 265.813 584.062 267.34 584.062 268.908H600.062C600.062 266.77 599.947 264.67 599.727 262.624L583.819 264.341ZM584.062 268.908C584.062 275.951 582.375 281.935 580.064 285.887C577.64 290.031 575.46 290.632 574.674 290.632V306.632C583.491 306.632 590.005 300.58 593.874 293.966C597.856 287.159 600.062 278.282 600.062 268.908H584.062ZM574.674 290.632C574.035 290.632 572.644 290.312 570.808 288.091C568.973 285.871 567.215 282.288 566.188 277.561L550.553 280.959C551.984 287.544 554.642 293.647 558.476 298.285C562.309 302.922 567.84 306.632 574.674 306.632V290.632ZM524.408 305.095C539.163 305.095 550.739 294.295 554.793 280.822L539.472 276.211C537.019 284.363 530.704 289.095 524.408 289.095V305.095ZM502.392 295.381C507.997 301.268 515.718 305.095 524.408 305.095V289.095C520.594 289.095 516.926 287.443 513.98 284.349L502.392 295.381ZM492.359 294.691C495.228 294.691 498.079 294.614 500.91 294.46L500.044 278.484C497.501 278.622 494.939 278.691 492.359 278.691V294.691ZM455.507 290.292C467.304 293.166 479.652 294.691 492.359 294.691V278.691C480.935 278.691 469.859 277.321 459.295 274.747L455.507 290.292ZM435.094 299.215C440.162 299.215 444.847 297.431 448.49 294.445L438.348 282.07C437.488 282.775 436.366 283.215 435.094 283.215V299.215ZM414.828 283.838C417.228 292.793 425.476 299.215 435.094 299.215V283.215C432.673 283.215 430.797 281.614 430.283 279.696L414.828 283.838ZM402.822 269.729C402.822 278.457 409.211 287.454 419.306 287.454V271.454C419.556 271.454 419.547 271.589 419.336 271.347C419.11 271.088 418.822 270.54 418.822 269.729H402.822ZM404.992 260.92C403.59 263.557 402.822 266.578 402.822 269.729H418.822C418.822 269.178 418.956 268.739 419.12 268.431L404.992 260.92ZM401.396 276.146C408.122 276.146 413.475 272.047 416.182 266.881L402.009 259.455C401.815 259.827 401.599 260.021 401.48 260.099C401.424 260.136 401.393 260.146 401.39 260.147C401.387 260.147 401.389 260.147 401.392 260.146C401.396 260.146 401.398 260.146 401.396 260.146V276.146ZM381.094 285.787C388.153 285.787 392.9 280.703 395.603 276.311L381.976 267.925C381.228 269.142 380.644 269.699 380.383 269.895C380.179 270.048 380.45 269.787 381.094 269.787V285.787ZM359.184 243.816C359.184 253.974 360.855 263.542 363.855 270.868C365.347 274.512 367.325 277.989 369.932 280.681C372.561 283.398 376.335 285.787 381.094 285.787V269.787C382.012 269.787 382.126 270.274 381.427 269.553C380.706 268.807 379.687 267.309 378.662 264.805C376.627 259.836 375.184 252.42 375.184 243.816H359.184ZM361.979 222.228C360.181 228.531 359.184 235.964 359.184 243.816H375.184C375.184 237.249 376.026 231.312 377.365 226.617L361.979 222.228ZM342.966 151.219C342.966 176.66 349.867 200.562 361.956 221.275L375.774 213.21C365.061 194.854 358.966 173.722 358.966 151.219H342.966ZM492.359 7.74658C410.177 7.74658 342.966 71.6623 342.966 151.219H358.966C358.966 81.137 418.362 23.7466 492.359 23.7466V7.74658ZM641.751 151.219C641.751 71.6623 574.54 7.74658 492.359 7.74658V23.7466C566.355 23.7466 625.751 81.137 625.751 151.219H641.751ZM390.007 255.732C390.029 255.752 390.052 255.772 390.074 255.792L400.793 243.914C400.773 243.896 400.753 243.878 400.733 243.86L390.007 255.732ZM402.745 250.686C402.746 250.671 402.747 250.655 402.748 250.64L386.794 249.431C386.793 249.444 386.792 249.456 386.791 249.469L402.745 250.686ZM400.733 243.86C395.556 239.182 387.317 242.534 386.794 249.431L402.748 250.64C402.271 256.944 394.743 260.011 390.007 255.732L400.733 243.86ZM377.365 226.617C378.587 222.335 378.247 217.448 375.774 213.21L361.956 221.275C362.009 221.366 362.132 221.692 361.979 222.228L377.365 226.617ZM401.396 260.146C399.06 260.146 395.678 260.525 392.532 261.326C390.942 261.73 389.135 262.311 387.439 263.161C385.902 263.932 383.552 265.366 381.976 267.925L395.603 276.311C395.21 276.95 394.81 277.293 394.663 277.41C394.509 277.532 394.465 277.537 394.611 277.464C394.926 277.306 395.543 277.069 396.477 276.832C398.378 276.348 400.435 276.146 401.396 276.146V260.146ZM419.12 268.431C421.099 264.708 420.766 258.937 416.021 255.767L407.132 269.07C403.842 266.872 403.835 263.098 404.992 260.92L419.12 268.431ZM459.295 274.747C454.27 273.522 449.725 274.965 446.487 276.567C443.231 278.178 440.377 280.407 438.348 282.07L448.49 294.445C450.371 292.903 452.052 291.665 453.581 290.909C455.129 290.143 455.621 290.32 455.507 290.292L459.295 274.747ZM547.146 267.479C543.158 269.198 540.556 272.608 539.472 276.211L554.793 280.822C554.688 281.171 554.348 281.798 553.48 282.172L547.146 267.479ZM416.021 255.767C410.454 252.047 404.237 255.204 402.009 259.455L416.182 266.881C415.415 268.345 414.123 269.387 412.629 269.864C411.075 270.36 408.991 270.312 407.132 269.07L416.021 255.767ZM610.193 211.018C607.013 216.728 607.897 222.964 609.613 227.328L624.503 221.473C624.196 220.691 624.072 220 624.066 219.493C624.06 219.008 624.159 218.825 624.171 218.804L610.193 211.018ZM566.188 277.561C564.476 269.684 555.713 263.786 547.146 267.479L553.48 282.172C552.595 282.553 551.792 282.351 551.389 282.124C551.023 281.918 550.679 281.539 550.553 280.959L566.188 277.561ZM430.283 279.696C428.814 274.216 423.642 271.454 419.306 271.454V287.454C418.266 287.454 417.418 287.129 416.773 286.683C416.125 286.235 415.23 285.337 414.828 283.838L430.283 279.696ZM401.134 255.988C404.406 252.679 404.41 247.178 400.793 243.914L390.074 255.792C386.756 252.798 386.768 247.761 389.757 244.738L401.134 255.988ZM604.594 263.261C605.012 259.201 602.77 255.471 599.203 253.832L592.524 268.371C590.009 267.216 588.379 264.531 588.678 261.623L604.594 263.261ZM389.757 244.738C392.373 242.093 395.845 242.127 398.069 243.049C400.339 243.99 403.054 246.633 402.745 250.686L386.791 249.469C386.456 253.864 389.389 256.772 391.944 257.831C394.454 258.87 398.277 258.877 401.134 255.988L389.757 244.738ZM599.203 253.832C596.739 252.7 594.404 252.936 593.168 253.172C591.753 253.441 590.459 253.962 589.374 254.569C588.315 255.163 587.068 256.056 586.006 257.338C585.031 258.516 583.456 260.978 583.819 264.341L599.727 262.624C600.014 265.289 598.753 267.031 598.332 267.54C597.824 268.154 597.37 268.429 597.192 268.529C596.99 268.642 596.667 268.793 596.162 268.889C595.837 268.951 594.351 269.21 592.524 268.371L599.203 253.832ZM513.98 284.349C510.802 281.01 505.905 278.166 500.044 278.484L500.91 294.46C500.923 294.459 501.052 294.452 501.325 294.578C501.615 294.711 501.999 294.968 502.392 295.381L513.98 284.349ZM606.39 249.903C604.01 253.139 602.11 257.653 602.66 262.76L618.568 261.049C618.563 261.004 618.555 260.847 618.652 260.548C618.752 260.238 618.949 259.832 619.279 259.383L606.39 249.903Z" fill="#090909" mask="url(#path-1-outside-1_53_55246)"/>
<path d="M355.809 155.916C355.809 80.6382 418.252 19.6135 495.279 19.6135" stroke="white" stroke-opacity="0.25" stroke-width="15" stroke-linecap="round"/>
<path fill-rule="evenodd" clip-rule="evenodd" d="M550.465 279.07C549.844 278.193 548.486 278.05 547.776 278.857C547.72 278.92 547.664 278.984 547.607 279.049C547.395 279.288 547.259 279.586 547.21 279.902C546.761 282.776 545.681 285.542 544.031 288.036C542.287 290.67 539.947 292.942 537.163 294.701C534.38 296.461 531.216 297.668 527.88 298.245C524.543 298.821 521.109 298.754 517.804 298.047C514.498 297.339 511.396 296.009 508.7 294.141C506.003 292.274 503.775 289.913 502.16 287.212C501.858 286.707 501.305 286.398 500.718 286.434C497.925 286.605 495.121 286.692 492.307 286.692C480.436 286.692 468.896 285.162 457.861 282.346C452.799 281.055 447.366 285.023 443.305 288.309C441.062 290.124 438.183 291.215 435.043 291.215C429.065 291.215 424.032 287.26 422.535 281.882C422.132 280.433 420.53 279.403 419.026 279.403C414.211 279.403 410.307 274.994 410.307 269.556C410.307 268.655 408.864 267.754 408.055 268.152C406.566 268.883 404.89 269.294 403.118 269.294C398.128 269.294 391.162 269.56 388.033 273.446C386.599 275.227 385.278 276.574 384.247 277.225C383.544 277.67 382.684 277.823 381.863 277.959C369.269 280.038 365.639 248.775 365.639 236.524C365.639 234.311 365.7 232.41 365.854 230.779C366.378 225.208 368.41 216.956 365.661 212.082C357.716 197.992 352.6 182.926 350.994 167.842C350.647 164.587 354.609 163.186 356.591 165.792C356.893 166.189 357.107 166.663 357.215 167.15C385.189 292.824 547.392 300.872 619.603 171.397C623.696 164.058 633.934 166.127 632.441 174.397C629.839 188.812 624.624 202.482 617.334 214.999C615.657 217.879 615.884 221.47 617.078 224.582C618.809 229.093 619.387 234.726 618.429 240.651C617.55 246.086 615.516 250.912 612.812 254.603C611.273 256.705 610.328 259.259 610.608 261.849C611.103 266.432 611.381 271.577 611.381 277.015C611.381 296.202 607.921 311.757 603.654 311.757C599.386 311.757 595.926 296.202 595.926 277.015C595.926 271.807 596.181 266.866 596.637 262.432C596.695 261.873 596.373 261.356 595.861 261.124C594.814 260.649 593.309 261.544 593.422 262.689C593.544 263.93 593.608 265.199 593.608 266.488C593.608 281.568 584.949 301.72 574.268 301.72C568.923 301.72 566.169 296.948 563.187 291.781C560.286 286.754 557.17 281.355 551.245 279.609C550.937 279.519 550.651 279.332 550.465 279.07Z" fill="black" fill-opacity="0.25"/>
<path d="M613.413 69.1267C611.153 74.6715 607.863 79.725 603.729 84.0261L601.658 81.6722C582.195 59.5446 556.858 43.3765 528.58 35.0401L525.571 34.1529C527.738 28.5972 530.944 23.4901 535.028 19.1095C540.026 13.7504 546.202 9.62564 553.068 7.06103C559.935 4.49641 567.305 3.56223 574.595 4.33223C581.886 5.10224 588.897 7.55533 595.075 11.4977C601.253 15.44 606.429 20.7637 610.194 27.048C613.959 33.3324 616.21 40.4053 616.768 47.7081C617.327 55.011 616.178 62.3436 613.413 69.1267Z" fill="white" stroke="black" stroke-width="8"/>
<g filter="url(#filter1_i_53_55246)">
<path d="M591.534 71.4011C595.159 68.2186 597.993 64.2376 599.814 59.7725C601.634 55.3075 602.39 50.4807 602.022 45.6735C601.654 40.8663 600.173 36.2104 597.695 32.0736C595.216 27.9368 591.809 24.4324 587.742 21.8372C583.675 19.2421 579.06 17.6273 574.261 17.1204C569.462 16.6136 564.611 17.2285 560.091 18.9167C555.57 20.6049 551.505 23.32 548.216 26.8476C544.926 30.3753 542.503 34.6188 541.137 39.2429C560.638 44.9918 578.112 56.1417 591.534 71.4011Z" fill="black" fill-opacity="0.25"/>
</g>
<path d="M355.587 69.1267C357.847 74.6715 361.137 79.725 365.271 84.0261L367.341 81.6722C386.804 59.5446 412.141 43.3765 440.42 35.0401L443.429 34.1529C441.261 28.5972 438.056 23.4901 433.971 19.1095C428.974 13.7504 422.798 9.62564 415.931 7.06103C409.064 4.49641 401.695 3.56223 394.404 4.33223C387.114 5.10224 380.103 7.55533 373.925 11.4977C367.746 15.44 362.57 20.7637 358.805 27.048C355.04 33.3324 352.79 40.4053 352.231 47.7081C351.672 55.011 352.821 62.3436 355.587 69.1267Z" fill="white" stroke="black" stroke-width="8"/>
<g filter="url(#filter2_i_53_55246)">
<path d="M377.466 71.4011C373.841 68.2186 371.006 64.2376 369.186 59.7726C367.366 55.3075 366.61 50.4807 366.977 45.6735C367.345 40.8663 368.827 36.2104 371.305 32.0736C373.783 27.9368 377.191 24.4324 381.258 21.8372C385.324 19.2421 389.94 17.6273 394.739 17.1204C399.538 16.6136 404.389 17.2285 408.909 18.9167C413.429 20.6049 417.495 23.32 420.784 26.8476C424.073 30.3753 426.497 34.6188 427.862 39.2429C408.361 44.9918 390.888 56.1417 377.466 71.4011Z" fill="black" fill-opacity="0.25"/>
</g>
<path d="M424.259 136.571C431.88 136.571 438.058 130.089 438.058 122.093C438.058 114.097 431.88 107.615 424.259 107.615C416.638 107.615 410.459 114.097 410.459 122.093C410.459 130.089 416.638 136.571 424.259 136.571Z" fill="#090909"/>
<path d="M501.536 136.571C509.158 136.571 515.336 130.089 515.336 122.093C515.336 114.097 509.158 107.615 501.536 107.615C493.915 107.615 487.737 114.097 487.737 122.093C487.737 130.089 493.915 136.571 501.536 136.571Z" fill="#090909"/>
<ellipse rx="5.79582" ry="5.79044" transform="matrix(-1 0 0 1 417.028 122.217)" fill="white"/>
<ellipse rx="5.79582" ry="5.79044" transform="matrix(-1 0 0 1 495.078 122.217)" fill="white"/>
<path d="M495.465 161.659C495.465 163.789 495.045 165.897 494.23 167.864C493.414 169.831 492.219 171.618 490.712 173.124C489.205 174.629 487.416 175.824 485.447 176.638C483.478 177.453 481.368 177.873 479.237 177.873C477.105 177.873 474.995 177.453 473.026 176.638C471.057 175.824 469.268 174.629 467.761 173.124C466.255 171.618 465.059 169.831 464.244 167.864C463.428 165.897 463.008 163.789 463.008 161.659" stroke="black" stroke-width="8" stroke-linecap="round"/>
<path d="M458.371 161.659C458.371 163.789 457.952 165.897 457.136 167.864C456.321 169.831 455.125 171.618 453.618 173.124C452.111 174.629 450.322 175.824 448.353 176.638C446.384 177.453 444.274 177.873 442.143 177.873C440.012 177.873 437.902 177.453 435.933 176.638C433.964 175.824 432.175 174.629 430.668 173.124C429.161 171.618 427.966 169.831 427.15 167.864C426.335 165.897 425.915 163.789 425.915 161.659" stroke="black" stroke-width="8" stroke-linecap="round"/>
<ellipse cx="462.11" cy="149.306" rx="23.9338" ry="11.5809" fill="#090909"/>
<ellipse rx="10.4325" ry="5.40441" transform="matrix(-1 0 0 1 452.576 148.853)" fill="white" fill-opacity="0.25"/>
</g>
<defs>
<filter id="filter0_d_53_55246" x="337.966" y="0.0722656" width="306.786" height="330.685" filterUnits="userSpaceOnUse" color-interpolation-filters="sRGB">
<feFlood flood-opacity="0" result="BackgroundImageFix"/>
<feColorMatrix in="SourceAlpha" type="matrix" values="0 0 0 0 0 0 0 0 0 0 0 0 0 0 0 0 0 0 127 0" result="hardAlpha"/>
<feOffset dx="-1" dy="7"/>
<feGaussianBlur stdDeviation="2"/>
<feComposite in2="hardAlpha" operator="out"/>
<feColorMatrix type="matrix" values="0 0 0 0 0 0 0 0 0 0 0 0 0 0 0 0 0 0 0.25 0"/>
<feBlend mode="normal" in2="BackgroundImageFix" result="effect1_dropShadow_53_55246"/>
<feBlend mode="normal" in="SourceGraphic" in2="effect1_dropShadow_53_55246" result="shape"/>
</filter>
<filter id="filter1_i_53_55246" x="541.137" y="16.948" width="60.9753" height="54.4531" filterUnits="userSpaceOnUse" color-interpolation-filters="sRGB">
<feFlood flood-opacity="0" result="BackgroundImageFix"/>
<feBlend mode="normal" in="SourceGraphic" in2="BackgroundImageFix" result="shape"/>
<feColorMatrix in="SourceAlpha" type="matrix" values="0 0 0 0 0 0 0 0 0 0 0 0 0 0 0 0 0 0 127 0" result="hardAlpha"/>
<feOffset dx="-5" dy="-8"/>
<feComposite in2="hardAlpha" operator="arithmetic" k2="-1" k3="1"/>
<feColorMatrix type="matrix" values="0 0 0 0 0 0 0 0 0 0 0 0 0 0 0 0 0 0 0.25 0"/>
<feBlend mode="normal" in2="shape" result="effect1_innerShadow_53_55246"/>
</filter>
<filter id="filter2_i_53_55246" x="366.887" y="16.948" width="60.9753" height="54.4531" filterUnits="userSpaceOnUse" color-interpolation-filters="sRGB">
<feFlood flood-opacity="0" result="BackgroundImageFix"/>
<feBlend mode="normal" in="SourceGraphic" in2="BackgroundImageFix" result="shape"/>
<feColorMatrix in="SourceAlpha" type="matrix" values="0 0 0 0 0 0 0 0 0 0 0 0 0 0 0 0 0 0 127 0" result="hardAlpha"/>
<feOffset dx="-5" dy="-8"/>
<feComposite in2="hardAlpha" operator="arithmetic" k2="-1" k3="1"/>
<feColorMatrix type="matrix" values="0 0 0 0 0 0 0 0 0 0 0 0 0 0 0 0 0 0 0.25 0"/>
<feBlend mode="normal" in2="shape" result="effect1_innerShadow_53_55246"/>
</filter>
</defs>
</svg>
