<svg width="1008" height="1011" viewBox="0 0 1008 1011" fill="none" xmlns="http://www.w3.org/2000/svg">
<g filter="url(#filter0_d_848_37340)">
<mask id="path-1-inside-1_848_37340" fill="white">
<path fill-rule="evenodd" clip-rule="evenodd" d="M543.475 380.515C553.18 385.589 562.369 394.663 573.32 394.663H576.108C588.955 394.663 600.409 400.628 607.852 409.94C615.098 419.006 624.514 428 636.12 428H653.5C663.165 428 671 435.835 671 445.5C671 455.165 663.165 463 653.5 463H620.351C618.295 463 616.724 464.815 616.724 466.87C616.724 482.975 603.669 496.031 587.564 496.031H564.395C553.735 496.031 544.741 504.635 535.272 509.531C532.22 511.109 528.755 512 525.082 512H251.248C243.272 512 236.278 507.797 232.359 501.485C230.486 498.468 227.481 496.031 223.93 496.031C207.825 496.031 194.769 482.975 194.769 466.87C194.769 466.129 194.797 465.393 194.851 464.666C194.885 464.223 194.729 463.787 194.421 463.467C194.136 463.171 193.745 463 193.334 463H178.5C168.835 463 161 455.165 161 445.5C161 435.835 168.835 428 178.5 428C181.51 428 184.039 425.825 184.951 422.957C187.951 413.525 194.302 405.587 202.605 400.543C211.042 395.417 218.833 387.469 226.973 381.884C230.545 379.434 234.869 378 239.527 378H533.197C536.905 378 540.402 378.909 543.475 380.515Z"/>
</mask>
<path fill-rule="evenodd" clip-rule="evenodd" d="M543.475 380.515C553.18 385.589 562.369 394.663 573.32 394.663H576.108C588.955 394.663 600.409 400.628 607.852 409.94C615.098 419.006 624.514 428 636.12 428H653.5C663.165 428 671 435.835 671 445.5C671 455.165 663.165 463 653.5 463H620.351C618.295 463 616.724 464.815 616.724 466.87C616.724 482.975 603.669 496.031 587.564 496.031H564.395C553.735 496.031 544.741 504.635 535.272 509.531C532.22 511.109 528.755 512 525.082 512H251.248C243.272 512 236.278 507.797 232.359 501.485C230.486 498.468 227.481 496.031 223.93 496.031C207.825 496.031 194.769 482.975 194.769 466.87C194.769 466.129 194.797 465.393 194.851 464.666C194.885 464.223 194.729 463.787 194.421 463.467C194.136 463.171 193.745 463 193.334 463H178.5C168.835 463 161 455.165 161 445.5C161 435.835 168.835 428 178.5 428C181.51 428 184.039 425.825 184.951 422.957C187.951 413.525 194.302 405.587 202.605 400.543C211.042 395.417 218.833 387.469 226.973 381.884C230.545 379.434 234.869 378 239.527 378H533.197C536.905 378 540.402 378.909 543.475 380.515Z" fill="#3C3C3C"/>
<path d="M202.605 400.543L199.49 395.415L202.605 400.543ZM194.851 464.666L188.868 464.218L194.851 464.666ZM184.951 422.957L179.234 421.138L184.951 422.957ZM543.475 380.515L540.696 385.833L543.475 380.515ZM232.359 501.485L227.261 504.649L232.359 501.485ZM607.852 409.94L612.539 406.193L607.852 409.94ZM576.108 388.663H573.32V400.663H576.108V388.663ZM612.539 406.193C604.006 395.519 590.856 388.663 576.108 388.663V400.663C587.054 400.663 596.812 405.738 603.165 413.686L612.539 406.193ZM653.5 422H636.12V434H653.5V422ZM677 445.5C677 432.521 666.479 422 653.5 422V434C659.851 434 665 439.149 665 445.5H677ZM653.5 469C666.479 469 677 458.479 677 445.5H665C665 451.851 659.851 457 653.5 457V469ZM620.351 469H653.5V457H620.351V469ZM587.564 502.031C606.982 502.031 622.724 486.289 622.724 466.87H610.724C610.724 479.662 600.355 490.031 587.564 490.031V502.031ZM564.395 502.031H587.564V490.031H564.395V502.031ZM525.082 518C529.736 518 534.143 516.869 538.027 514.861L532.516 504.201C530.296 505.349 527.774 506 525.082 506V518ZM251.248 518H525.082V506H251.248V518ZM227.261 504.649C232.229 512.651 241.111 518 251.248 518V506C245.433 506 240.327 502.943 237.456 498.32L227.261 504.649ZM188.769 466.87C188.769 486.289 204.511 502.031 223.93 502.031V490.031C211.139 490.031 200.769 479.662 200.769 466.87H188.769ZM188.868 464.218C188.803 465.095 188.769 465.979 188.769 466.87H200.769C200.769 466.278 200.791 465.692 200.835 465.113L188.868 464.218ZM178.5 469H193.334V457H178.5V469ZM155 445.5C155 458.479 165.521 469 178.5 469V457C172.149 457 167 451.851 167 445.5H155ZM178.5 422C165.521 422 155 432.521 155 445.5H167C167 439.149 172.149 434 178.5 434V422ZM199.49 395.415C189.968 401.2 182.68 410.303 179.234 421.138L190.669 424.775C193.222 416.747 198.636 409.975 205.721 405.67L199.49 395.415ZM230.368 386.832C232.972 385.045 236.118 384 239.527 384V372C233.619 372 228.118 373.823 223.579 376.937L230.368 386.832ZM239.527 384H533.197V372H239.527V384ZM533.197 384C535.914 384 538.459 384.664 540.696 385.833L546.255 375.198C542.344 373.154 537.896 372 533.197 372V384ZM205.721 405.67C210.355 402.855 214.716 399.326 218.725 396.009C222.853 392.593 226.578 389.432 230.368 386.832L223.579 376.937C219.229 379.921 214.987 383.527 211.076 386.763C207.046 390.097 203.292 393.105 199.49 395.415L205.721 405.67ZM198.741 459.303C197.36 457.871 195.424 457 193.334 457V469C192.065 469 190.912 468.472 190.102 467.632L198.741 459.303ZM200.835 465.113C200.994 462.988 200.25 460.868 198.741 459.303L190.102 467.632C189.209 466.705 188.775 465.458 188.868 464.218L200.835 465.113ZM178.5 434C184.561 434 189.106 429.691 190.669 424.775L179.234 421.138C179.124 421.482 178.929 421.737 178.754 421.877C178.598 422.003 178.516 422 178.5 422V434ZM564.395 490.031C557.455 490.031 551.416 492.833 546.377 495.755C543.85 497.22 541.349 498.856 539.089 500.299C536.758 501.787 534.62 503.113 532.516 504.201L538.027 514.861C540.658 513.501 543.195 511.915 545.547 510.413C547.969 508.866 550.158 507.434 552.397 506.136C556.887 503.532 560.674 502.031 564.395 502.031V490.031ZM573.32 388.663C569.496 388.663 565.611 387.08 560.998 384.335C558.698 382.967 556.458 381.464 553.971 379.841C551.559 378.267 548.957 376.611 546.255 375.198L540.696 385.833C542.845 386.956 545.032 388.337 547.414 389.891C549.722 391.397 552.283 393.114 554.862 394.648C560.008 397.709 566.192 400.663 573.32 400.663V388.663ZM237.456 498.32C234.994 494.354 230.361 490.031 223.93 490.031V502.031C224.601 502.031 225.977 502.581 227.261 504.649L237.456 498.32ZM603.165 413.686C610.414 422.754 621.43 434 636.12 434V422C627.598 422 619.783 415.257 612.539 406.193L603.165 413.686ZM620.351 457C614.487 457 610.724 462.018 610.724 466.87H622.724C622.724 467.359 622.544 467.831 622.195 468.213C621.822 468.621 621.169 469 620.351 469V457Z" fill="black" mask="url(#path-1-inside-1_848_37340)"/>
<path fill-rule="evenodd" clip-rule="evenodd" d="M187.105 430.49C187.104 430.444 187.098 430.397 187.085 430.353C183.79 419.224 204.759 401.079 219.614 399.021C221.369 398.778 223.023 398.646 224.763 398.313C270.727 389.527 483.199 382.513 548.201 382.513C544.482 383.028 536.483 383.695 525.491 384.611C469.85 389.247 337.534 400.272 295.749 430.42C295.505 430.596 295.625 431 295.926 431H366.285C379.021 431 379.835 436.68 367.129 437.551C346.122 438.991 321.942 440.649 306.239 447.608C286.828 456.211 268.135 459.591 250.851 460.622H460.982C484.388 460.622 485.848 471.514 462.526 473.495C459.017 473.794 455.549 474.081 452.161 474.362L452.159 474.362L452.156 474.362L452.15 474.363C445.802 474.889 439.738 475.391 434.229 475.896C417.712 477.41 403.2 480.048 387.883 482.832C372.975 485.542 357.304 488.39 338.278 490.477H401.588C425.067 490.477 428.8 510.316 405.339 511.239C404.681 511.265 404.019 511.287 403.355 511.306H253.713C250.533 511.306 247.332 510.755 244.648 509.049C244.078 508.687 243.496 508.293 242.911 507.868C233.589 501.096 224.022 491.558 213.361 487.188C201.924 482.5 200.468 475.254 198.506 465.489C198.004 462.99 199.91 460.622 202.459 460.622H222.665C218.232 460.416 213.949 460.152 209.83 459.899L209.829 459.899L209.828 459.899C202.467 459.446 195.633 459.026 189.419 459.026C161.505 459.026 156.11 432.598 186.598 431.069C186.889 431.054 187.112 430.781 187.105 430.49ZM463.84 440.25C449.902 438.698 451.024 431 465.049 431H645.787C678.002 431 665.33 458.7 651.43 458.7C649.855 458.7 647.551 458.74 644.625 458.791C621.725 459.188 560.739 460.247 513.253 447.966C498.226 444.08 480.291 442.082 463.84 440.25Z" fill="black" fill-opacity="0.25"/>
<path d="M623 429H399" stroke="black" stroke-width="6" stroke-linecap="round"/>
<path d="M371.485 399.523H214.604" stroke="black" stroke-width="6" stroke-linecap="round"/>
<path d="M355.257 462.01H198.376" stroke="black" stroke-width="6" stroke-linecap="round"/>
<path d="M555.414 493.948L339.027 493.948" stroke="black" stroke-width="6" stroke-linecap="round"/>
<path d="M225.424 429.378H180.344" stroke="black" stroke-width="6" stroke-linecap="round"/>
<path d="M616.724 462.01H571.644" stroke="black" stroke-width="6" stroke-linecap="round"/>
</g>
<defs>
<filter id="filter0_d_848_37340" x="0" y="0" width="1008" height="1011" filterUnits="userSpaceOnUse" color-interpolation-filters="sRGB">
<feFlood flood-opacity="0" result="BackgroundImageFix"/>
<feColorMatrix in="SourceAlpha" type="matrix" values="0 0 0 0 0 0 0 0 0 0 0 0 0 0 0 0 0 0 127 0" result="hardAlpha"/>
<feOffset dx="-1" dy="7"/>
<feGaussianBlur stdDeviation="2"/>
<feComposite in2="hardAlpha" operator="out"/>
<feColorMatrix type="matrix" values="0 0 0 0 0 0 0 0 0 0 0 0 0 0 0 0 0 0 0.25 0"/>
<feBlend mode="normal" in2="BackgroundImageFix" result="effect1_dropShadow_848_37340"/>
<feBlend mode="normal" in="SourceGraphic" in2="effect1_dropShadow_848_37340" result="shape"/>
</filter>
</defs>
</svg>
