<svg width="1000" height="1000" viewBox="0 0 1000 1000" fill="none" xmlns="http://www.w3.org/2000/svg">
<g filter="url(#filter0_d_49_18491)">
<path d="M373.09 536.207V534.207H371.09L346.39 534.207V511.383C370.259 506.832 389.331 488.637 395.362 465.151C401.394 488.637 420.466 506.832 444.335 511.383V534.207H419.635H417.635V536.207V555.805V557.805H419.635H444.335V588.405C444.335 591.085 445.935 593.283 448.054 594.723C450.184 596.17 453.015 597 456.044 597C459.072 597 461.903 596.17 464.033 594.723C466.152 593.283 467.753 591.085 467.753 588.405V557.805H492.452H494.452V555.805V536.207V534.207H492.452L467.753 534.207V511.383C496.787 505.847 518.725 480.121 518.725 449.243C518.725 444.895 518.29 440.648 517.46 436.544H626.604C633.291 436.544 638.874 431.349 638.874 424.746C638.874 418.142 633.291 412.947 626.604 412.947H507.38C496.048 396.659 477.283 386 456.044 386C426.859 386 402.353 406.117 395.362 433.335C388.372 406.117 363.866 386 334.681 386C300.046 386 272 414.332 272 449.243C272 480.121 293.937 505.847 322.972 511.383L322.972 534.207H298.272H296.272V536.207V555.805V557.805H298.272H322.972V588.405C322.972 591.085 324.573 593.283 326.692 594.723C328.822 596.17 331.653 597 334.681 597C337.71 597 340.54 596.17 342.67 594.723C344.79 593.283 346.39 591.085 346.39 588.405V557.805H371.09H373.09V555.805V536.207Z" fill="black" fill-opacity="0.5" stroke="black" stroke-width="4"/>
<path d="M296.272 555.805V557.805H298.272H322.972V588.405C322.972 591.085 324.573 593.283 326.692 594.723C328.822 596.17 331.653 597 334.681 597C337.71 597 340.54 596.17 342.67 594.723C344.79 593.283 346.39 591.085 346.39 588.405V557.805H371.09H373.09V555.805V536.207V534.207H371.09L346.39 534.207V511.383C365.65 507.711 381.783 495.155 390.464 478.114C392.544 474.03 394.197 469.689 395.362 465.15C396.528 469.689 398.181 474.03 400.261 478.114C408.942 495.155 425.075 507.711 444.335 511.383V534.207H419.635H417.635V536.207V555.805V557.805H419.635H444.335V588.405C444.335 591.085 445.935 593.283 448.054 594.723C450.184 596.17 453.015 597 456.044 597C459.072 597 461.903 596.17 464.033 594.723C466.152 593.283 467.753 591.085 467.753 588.405V557.805H492.452H494.452V555.805V536.207V534.207H492.452L467.753 534.207V511.383C496.787 505.847 518.725 480.121 518.725 449.243C518.725 448.396 518.708 447.554 518.676 446.715C518.54 443.247 518.128 439.849 517.46 436.544H626.604C633.291 436.544 638.874 431.349 638.874 424.746C638.874 418.142 633.291 412.947 626.604 412.947H507.38C496.048 396.659 477.283 386 456.044 386C431.724 386 410.651 399.973 400.26 420.372C398.18 424.456 396.528 428.797 395.362 433.335C394.197 428.797 392.545 424.456 390.464 420.372C380.073 399.973 359.001 386 334.681 386C300.046 386 272 414.332 272 449.243C272 480.121 293.937 505.847 322.972 511.383L322.972 534.207H298.272H296.272V536.207V555.805ZM502.477 437.988L502.483 438.006C502.863 439.6 502.913 441.289 502.845 443.169C502.822 443.814 502.782 444.517 502.741 445.249C502.667 446.544 502.589 447.929 502.589 449.243C502.589 472.639 485.647 492.045 463.505 495.638L456.044 496.849L448.582 495.638C426.44 492.045 409.499 472.639 409.499 449.243C409.499 423.271 430.355 402.249 456.044 402.249C472.148 402.249 487.778 409.727 496.124 422.052L498.854 428.027L498.866 428.053L498.879 428.078C499.567 429.478 500.465 431.931 501.215 434.129C501.583 435.208 501.905 436.194 502.136 436.911C502.251 437.268 502.342 437.558 502.405 437.758C502.437 437.858 502.461 437.936 502.477 437.988ZM342.143 495.638L334.681 496.849L327.219 495.638C305.078 492.045 288.136 472.639 288.136 449.243C288.136 423.271 308.992 402.249 334.681 402.249C360.37 402.249 381.226 423.271 381.226 449.243C381.226 472.639 364.285 492.045 342.143 495.638Z" fill="#F72087" stroke="black" stroke-width="4"/>
<line y1="-2.5" x2="75.5379" y2="-2.5" transform="matrix(-0.704983 0.709224 -0.704983 -0.709224 484.703 419.846)" stroke="white" stroke-opacity="0.25" stroke-width="5"/>
<line y1="-2.5" x2="75.5379" y2="-2.5" transform="matrix(-0.704983 0.709224 -0.704983 -0.709224 361.695 419.846)" stroke="white" stroke-opacity="0.25" stroke-width="5"/>
<line y1="-2.5" x2="45.2703" y2="-2.5" transform="matrix(-0.704983 0.709224 -0.704983 -0.709224 476.453 446.364)" stroke="white" stroke-opacity="0.25" stroke-width="5"/>
<line y1="-2.5" x2="45.2703" y2="-2.5" transform="matrix(-0.704983 0.709224 -0.704983 -0.709224 353.445 446.364)" stroke="white" stroke-opacity="0.25" stroke-width="5"/>
<ellipse cx="307.752" cy="424.746" rx="6.1504" ry="6.12426" fill="white" fill-opacity="0.7"/>
<ellipse cx="431.99" cy="424.746" rx="6.1504" ry="6.12426" fill="white" fill-opacity="0.7"/>
<path d="M626.274 414.187H636.874V434.139H516.539L626.274 414.187Z" fill="black" fill-opacity="0.25"/>
</g>
<defs>
<filter id="filter0_d_49_18491" x="265" y="384" width="378.874" height="226" filterUnits="userSpaceOnUse" color-interpolation-filters="sRGB">
<feFlood flood-opacity="0" result="BackgroundImageFix"/>
<feColorMatrix in="SourceAlpha" type="matrix" values="0 0 0 0 0 0 0 0 0 0 0 0 0 0 0 0 0 0 127 0" result="hardAlpha"/>
<feOffset dx="-1" dy="7"/>
<feGaussianBlur stdDeviation="2"/>
<feComposite in2="hardAlpha" operator="out"/>
<feColorMatrix type="matrix" values="0 0 0 0 0 0 0 0 0 0 0 0 0 0 0 0 0 0 0.25 0"/>
<feBlend mode="normal" in2="BackgroundImageFix" result="effect1_dropShadow_49_18491"/>
<feBlend mode="normal" in="SourceGraphic" in2="effect1_dropShadow_49_18491" result="shape"/>
</filter>
</defs>
</svg>
