<svg width="1000" height="1000" viewBox="0 0 1000 1000" fill="none" xmlns="http://www.w3.org/2000/svg">
<g filter="url(#filter0_d_48_499)">
<path d="M392.47 449.729C392.47 482.463 365.668 509 332.606 509C299.544 509 272.742 482.463 272.742 449.729C272.742 416.994 299.544 390.457 332.606 390.457C365.668 390.457 392.47 416.994 392.47 449.729Z" fill="black" fill-opacity="0.5"/>
<path d="M508.642 449.729C508.642 482.463 482.105 509 449.371 509C416.636 509 390.099 482.463 390.099 449.729C390.099 416.994 416.636 390.457 449.371 390.457C482.105 390.457 508.642 416.994 508.642 449.729Z" fill="black" fill-opacity="0.5"/>
<path d="M449.946 389.642C422.415 389.642 399.23 408.168 392.458 433.34C385.687 408.168 362.502 389.642 334.971 389.642C302.136 389.642 275.483 415.994 275.483 448.543C275.483 481.092 302.136 507.444 334.971 507.444C362.502 507.444 385.687 488.918 392.458 463.746C399.23 488.918 422.415 507.444 449.946 507.444C482.78 507.444 509.433 481.092 509.433 448.543C509.433 444.554 509.032 440.656 508.268 436.887H611.53C617.88 436.887 623.258 432.038 623.258 425.783C623.258 419.527 617.88 414.679 611.53 414.679H498.624C487.859 399.535 470.066 389.642 449.946 389.642ZM378.961 448.543C378.961 472.559 359.285 492.064 334.971 492.064C310.656 492.064 290.981 472.559 290.981 448.543C290.981 424.527 310.656 405.022 334.971 405.022C359.285 405.022 378.961 424.527 378.961 448.543ZM493.936 448.543C493.936 472.559 474.26 492.064 449.946 492.064C425.631 492.064 405.956 472.559 405.956 448.543C405.956 424.527 425.631 405.022 449.946 405.022C474.26 405.022 493.936 424.527 493.936 448.543Z" fill="white" stroke="black" stroke-width="4"/>
<path d="M601.343 416.536H613.258C617.677 416.536 621.258 420.118 621.258 424.536V428.689C621.258 433.107 617.677 436.689 613.258 436.689H507.457L601.343 416.536Z" fill="black" fill-opacity="0.25"/>
<g filter="url(#filter1_d_48_499)">
<path fill-rule="evenodd" clip-rule="evenodd" d="M444 398.952L444 395.084C444 388.755 442.663 382.484 440.062 376.628C437.461 370.772 433.644 365.442 428.821 360.946C423.999 356.449 418.266 352.875 411.947 350.434C405.627 347.994 398.849 346.736 392 346.736C385.151 346.736 378.373 347.994 372.053 350.434C365.734 352.875 360.001 356.449 355.179 360.946C350.356 365.442 346.539 370.772 343.938 376.628C341.337 382.484 340 388.755 340 395.084L340 398.952L332 398.952L332 395.084C332 387.699 333.56 380.39 336.587 373.575C339.615 366.761 344.047 360.578 349.625 355.377C355.203 350.176 361.817 346.058 369.086 343.251C376.355 340.443 384.14 339 392 339C399.86 339 407.645 340.443 414.914 343.251C422.183 346.058 428.797 350.176 434.375 355.377C439.953 360.578 444.385 366.761 447.413 373.575C450.44 380.39 452 387.699 452 395.084L452 398.952L444 398.952Z" fill="#E40303"/>
<path fill-rule="evenodd" clip-rule="evenodd" d="M437 398.952L437 395.084C437 389.508 435.841 383.985 433.586 378.828C431.331 373.672 428.024 368.982 423.849 365.027C419.674 361.072 414.713 357.931 409.248 355.787C403.782 353.642 397.921 352.538 392 352.538C386.079 352.538 380.218 353.642 374.752 355.787C369.287 357.931 364.326 361.072 360.151 365.027C355.976 368.982 352.669 373.672 350.414 378.828C348.159 383.985 347 389.508 347 395.084L347 398.952L339 398.952L339 395.084C339 388.47 340.375 381.922 343.046 375.816C345.716 369.709 349.627 364.166 354.553 359.501C359.478 354.836 365.32 351.139 371.745 348.619C378.169 346.098 385.051 344.802 392 344.802C398.949 344.802 405.831 346.098 412.255 348.619C418.68 351.139 424.522 354.836 429.447 359.501C434.373 364.166 438.284 369.709 440.954 375.816C443.625 381.922 445 388.47 445 395.084L445 398.952L437 398.952Z" fill="#FF8C00"/>
<path fill-rule="evenodd" clip-rule="evenodd" d="M429.013 398.956L429.011 395.088C429.008 390.53 428.054 386.015 426.201 381.8C424.347 377.584 421.628 373.748 418.195 370.513C414.762 367.277 410.681 364.707 406.184 362.952C401.687 361.198 396.864 360.295 391.991 360.297C387.119 360.3 382.297 361.208 377.801 362.967C373.306 364.727 369.228 367.302 365.799 370.541C362.369 373.779 359.655 377.619 357.806 381.836C355.957 386.054 355.008 390.57 355.011 395.128L355.013 398.996L347.013 399L347.011 395.132C347.008 389.531 348.174 383.987 350.441 378.817C352.707 373.647 356.028 368.955 360.209 365.007C364.39 361.058 369.349 357.93 374.8 355.797C380.251 353.663 386.091 352.565 391.987 352.562C397.883 352.558 403.724 353.651 409.177 355.778C414.631 357.906 419.593 361.029 423.778 364.973C427.964 368.917 431.29 373.605 433.563 378.773C435.835 383.94 437.008 389.483 437.011 395.084L437.013 398.952L429.013 398.956Z" fill="#FFED00"/>
<path fill-rule="evenodd" clip-rule="evenodd" d="M421.018 398.956L421.016 395.088C421.014 391.459 420.254 387.864 418.778 384.507C417.301 381.149 415.136 378.093 412.399 375.514C409.663 372.935 406.409 370.885 402.822 369.486C399.235 368.086 395.387 367.366 391.499 367.368C387.612 367.37 383.765 368.095 380.179 369.498C376.594 370.901 373.342 372.955 370.609 375.536C367.875 378.118 365.713 381.177 364.241 384.536C362.768 387.895 362.013 391.491 362.015 395.12L362.017 398.988L354.017 398.992L354.015 395.124C354.012 390.452 354.985 385.828 356.875 381.517C358.765 377.205 361.534 373.294 365.019 370.002C368.504 366.711 372.636 364.105 377.178 362.327C381.719 360.55 386.584 359.635 391.495 359.632C396.406 359.63 401.272 360.54 405.815 362.312C410.359 364.085 414.494 366.687 417.983 369.974C421.471 373.262 424.245 377.17 426.14 381.48C428.035 385.789 429.013 390.412 429.016 395.084L429.018 398.952L421.018 398.956Z" fill="#008026"/>
<path fill-rule="evenodd" clip-rule="evenodd" d="M414.015 398.956L414.013 395.088C414.011 392.327 413.433 389.59 412.309 387.034C411.185 384.477 409.535 382.149 407.449 380.183C405.363 378.217 402.882 376.653 400.144 375.585C397.406 374.517 394.469 373.967 391.501 373.969C388.533 373.97 385.596 374.523 382.859 375.594C380.123 376.665 377.643 378.232 375.559 380.2C373.476 382.168 371.829 384.498 370.707 387.056C369.586 389.613 369.011 392.351 369.013 395.112L369.015 398.98L361.015 398.984L361.013 395.117C361.011 391.312 361.803 387.547 363.342 384.037C364.881 380.527 367.135 377.343 369.97 374.666C372.805 371.988 376.166 369.869 379.858 368.424C383.55 366.979 387.505 366.235 391.496 366.233C395.488 366.231 399.444 366.97 403.138 368.411C406.832 369.853 410.195 371.969 413.033 374.643C415.871 377.317 418.129 380.498 419.671 384.007C421.214 387.515 422.011 391.28 422.013 395.084L422.015 398.952L414.015 398.956Z" fill="#004DFF"/>
<path fill-rule="evenodd" clip-rule="evenodd" d="M408.331 398.955L408.329 395.982C408.328 393.859 407.888 391.755 407.033 389.79C406.178 387.825 404.923 386.034 403.336 384.523C401.749 383.012 399.862 381.81 397.779 380.989C395.697 380.167 393.462 379.745 391.204 379.746C388.946 379.747 386.713 380.172 384.631 380.996C382.549 381.819 380.663 383.023 379.078 384.536C377.493 386.049 376.24 387.841 375.387 389.807C374.534 391.773 374.097 393.877 374.098 396L374.1 398.973L368.015 398.977L368.013 396.003C368.011 393.079 368.614 390.184 369.784 387.486C370.955 384.787 372.669 382.34 374.826 380.282C376.982 378.223 379.539 376.594 382.348 375.483C385.156 374.372 388.164 373.8 391.201 373.799C394.237 373.797 397.246 374.366 400.056 375.474C402.866 376.582 405.424 378.208 407.583 380.264C409.742 382.32 411.459 384.766 412.633 387.463C413.807 390.16 414.413 393.054 414.414 395.978L414.416 398.952L408.331 398.955Z" fill="#750787"/>
</g>
<line y1="-2.5" x2="72.9524" y2="-2.5" transform="matrix(-0.703471 0.710724 -0.703471 -0.710724 474.612 422.464)" stroke="white" stroke-opacity="0.25" stroke-width="5"/>
<line y1="-2.5" x2="72.9524" y2="-2.5" transform="matrix(-0.703471 0.710724 -0.703471 -0.710724 356.068 422.464)" stroke="white" stroke-opacity="0.25" stroke-width="5"/>
<line y1="-2.5" x2="43.7208" y2="-2.5" transform="matrix(-0.703471 0.710724 -0.703471 -0.710724 466.66 448.127)" stroke="white" stroke-opacity="0.25" stroke-width="5"/>
<line y1="-2.5" x2="43.7208" y2="-2.5" transform="matrix(-0.703471 0.710724 -0.703471 -0.710724 348.117 448.127)" stroke="white" stroke-opacity="0.25" stroke-width="5"/>
<circle cx="311.861" cy="427.205" r="5.92715" fill="white" fill-opacity="0.7"/>
<circle cx="426.848" cy="427.205" r="5.92715" fill="white" fill-opacity="0.7"/>
</g>
<defs>
<filter id="filter0_d_48_499" x="267.742" y="339" width="360.517" height="181.444" filterUnits="userSpaceOnUse" color-interpolation-filters="sRGB">
<feFlood flood-opacity="0" result="BackgroundImageFix"/>
<feColorMatrix in="SourceAlpha" type="matrix" values="0 0 0 0 0 0 0 0 0 0 0 0 0 0 0 0 0 0 127 0" result="hardAlpha"/>
<feOffset dx="-1" dy="7"/>
<feGaussianBlur stdDeviation="2"/>
<feComposite in2="hardAlpha" operator="out"/>
<feColorMatrix type="matrix" values="0 0 0 0 0 0 0 0 0 0 0 0 0 0 0 0 0 0 0.25 0"/>
<feBlend mode="normal" in2="BackgroundImageFix" result="effect1_dropShadow_48_499"/>
<feBlend mode="normal" in="SourceGraphic" in2="effect1_dropShadow_48_499" result="shape"/>
</filter>
<filter id="filter1_d_48_499" x="327" y="339" width="128" height="71" filterUnits="userSpaceOnUse" color-interpolation-filters="sRGB">
<feFlood flood-opacity="0" result="BackgroundImageFix"/>
<feColorMatrix in="SourceAlpha" type="matrix" values="0 0 0 0 0 0 0 0 0 0 0 0 0 0 0 0 0 0 127 0" result="hardAlpha"/>
<feOffset dx="-1" dy="7"/>
<feGaussianBlur stdDeviation="2"/>
<feComposite in2="hardAlpha" operator="out"/>
<feColorMatrix type="matrix" values="0 0 0 0 0 0 0 0 0 0 0 0 0 0 0 0 0 0 0.25 0"/>
<feBlend mode="normal" in2="BackgroundImageFix" result="effect1_dropShadow_48_499"/>
<feBlend mode="normal" in="SourceGraphic" in2="effect1_dropShadow_48_499" result="shape"/>
</filter>
</defs>
</svg>
