<svg width="1000" height="1000" viewBox="0 0 1000 1000" fill="none" xmlns="http://www.w3.org/2000/svg">
<g filter="url(#filter0_d_131_489)">
<mask id="path-1-inside-1_131_489" fill="white">
<path fill-rule="evenodd" clip-rule="evenodd" d="M316.687 502.715C291.958 502.715 271.91 522.42 271.91 546.726V570.107C271.91 594.414 291.958 614.118 316.687 614.118H352.229L360.065 643H379.655L387.49 614.118H390.009L397.845 643H417.435L425.271 614.118H494.395C519.125 614.118 539.172 602.414 539.172 578.107V538.726C539.172 514.42 519.125 502.715 494.395 502.715H316.687Z"/>
</mask>
<path fill-rule="evenodd" clip-rule="evenodd" d="M316.687 502.715C291.958 502.715 271.91 522.42 271.91 546.726V570.107C271.91 594.414 291.958 614.118 316.687 614.118H352.229L360.065 643H379.655L387.49 614.118H390.009L397.845 643H417.435L425.271 614.118H494.395C519.125 614.118 539.172 602.414 539.172 578.107V538.726C539.172 514.42 519.125 502.715 494.395 502.715H316.687Z" fill="#3C3C3C"/>
<path d="M352.229 614.118L356.089 613.071L355.288 610.118H352.229V614.118ZM360.065 643L356.204 644.048L357.005 647H360.065V643ZM379.655 643V647H382.714L383.515 644.048L379.655 643ZM387.49 614.118V610.118H384.431L383.63 613.071L387.49 614.118ZM390.009 614.118L393.87 613.071L393.069 610.118H390.009V614.118ZM397.845 643L393.985 644.048L394.786 647H397.845V643ZM417.435 643V647H420.494L421.295 644.048L417.435 643ZM425.271 614.118V610.118H422.212L421.41 613.071L425.271 614.118ZM275.91 546.726C275.91 524.694 294.101 506.715 316.687 506.715V498.715C289.814 498.715 267.91 520.146 267.91 546.726H275.91ZM275.91 570.107V546.726H267.91V570.107H275.91ZM316.687 610.118C294.101 610.118 275.91 592.14 275.91 570.107H267.91C267.91 596.688 289.814 618.118 316.687 618.118V610.118ZM352.229 610.118H316.687V618.118H352.229V610.118ZM363.925 641.953L356.089 613.071L348.368 615.166L356.204 644.048L363.925 641.953ZM379.655 639H360.065V647H379.655V639ZM383.63 613.071L375.794 641.953L383.515 644.048L391.351 615.166L383.63 613.071ZM390.009 610.118H387.49V618.118H390.009V610.118ZM401.706 641.953L393.87 613.071L386.149 615.166L393.985 644.048L401.706 641.953ZM417.435 639H397.845V647H417.435V639ZM421.41 613.071L413.575 641.953L421.295 644.048L429.131 615.166L421.41 613.071ZM494.395 610.118H425.271V618.118H494.395V610.118ZM535.172 578.107C535.172 589.007 530.75 596.806 523.686 602.006C516.472 607.316 506.197 610.118 494.395 610.118V618.118C507.323 618.118 519.436 615.068 528.428 608.449C537.57 601.72 543.172 591.514 543.172 578.107H535.172ZM535.172 538.726V578.107H543.172V538.726H535.172ZM494.395 506.715C506.197 506.715 516.472 509.517 523.686 514.827C530.75 520.027 535.172 527.826 535.172 538.726H543.172C543.172 525.32 537.57 515.113 528.428 508.384C519.436 501.766 507.323 498.715 494.395 498.715V506.715ZM316.687 506.715H494.395V498.715H316.687V506.715Z" fill="black" mask="url(#path-1-inside-1_131_489)"/>
<mask id="path-3-inside-2_131_489" fill="white">
<path fill-rule="evenodd" clip-rule="evenodd" d="M237 535.715C237 518.042 251.327 503.715 269 503.715H490C507.673 503.715 522 518.042 522 535.715V583.118C522 600.791 507.673 615.118 490 615.118H409.298L401.131 643H379.978L371.811 615.118H368.505L360.337 643H339.185L331.017 615.118H269C251.327 615.118 237 600.791 237 583.118V535.715Z"/>
</mask>
<path fill-rule="evenodd" clip-rule="evenodd" d="M237 535.715C237 518.042 251.327 503.715 269 503.715H490C507.673 503.715 522 518.042 522 535.715V583.118C522 600.791 507.673 615.118 490 615.118H409.298L401.131 643H379.978L371.811 615.118H368.505L360.337 643H339.185L331.017 615.118H269C251.327 615.118 237 600.791 237 583.118V535.715Z" fill="#C4C4C4"/>
<path d="M409.298 615.118V611.118H406.302L405.46 613.993L409.298 615.118ZM401.131 643V647H404.127L404.969 644.124L401.131 643ZM379.978 643L376.14 644.124L376.982 647H379.978V643ZM371.811 615.118L375.649 613.993L374.807 611.118H371.811V615.118ZM368.505 615.118V611.118H365.508L364.666 613.993L368.505 615.118ZM360.337 643V647H363.333L364.176 644.124L360.337 643ZM339.185 643L335.346 644.124L336.188 647H339.185V643ZM331.017 615.118L334.856 613.993L334.013 611.118H331.017V615.118ZM269 499.715C249.118 499.715 233 515.833 233 535.715H241C241 520.251 253.536 507.715 269 507.715V499.715ZM490 499.715H269V507.715H490V499.715ZM526 535.715C526 515.833 509.882 499.715 490 499.715V507.715C505.464 507.715 518 520.251 518 535.715H526ZM526 583.118V535.715H518V583.118H526ZM490 619.118C509.882 619.118 526 603 526 583.118H518C518 598.582 505.464 611.118 490 611.118V619.118ZM409.298 619.118H490V611.118H409.298V619.118ZM405.46 613.993L397.292 641.875L404.969 644.124L413.137 616.242L405.46 613.993ZM401.131 639H379.978V647H401.131V639ZM383.817 641.875L375.649 613.993L367.972 616.242L376.14 644.124L383.817 641.875ZM368.505 619.118H371.811V611.118H368.505V619.118ZM364.176 644.124L372.343 616.242L364.666 613.993L356.498 641.875L364.176 644.124ZM339.185 647H360.337V639H339.185V647ZM327.178 616.242L335.346 644.124L343.023 641.875L334.856 613.993L327.178 616.242ZM269 619.118H331.017V611.118H269V619.118ZM233 583.118C233 603 249.118 619.118 269 619.118V611.118C253.536 611.118 241 598.582 241 583.118H233ZM233 535.715V583.118H241V535.715H233Z" fill="black" mask="url(#path-3-inside-2_131_489)"/>
<path fill-rule="evenodd" clip-rule="evenodd" d="M444.945 508.216H487.956C503.42 508.216 515.956 520.752 515.956 536.216V580.616C515.956 596.08 503.42 608.616 487.956 608.616H405.106L396.836 636.123H392.065L397.791 608.616H364.106L355.009 636.123H349.761L356.059 608.616H288.57L444.945 508.216Z" fill="white" fill-opacity="0.25"/>
<rect x="276.218" y="532.223" width="213.565" height="52.3891" rx="26.1946" fill="#929292" stroke="black" stroke-width="4"/>
<rect x="290" y="540" width="192" height="38" rx="18.5" fill="#090909"/>
<path d="M307.108 592.334L300.08 533.098H326.92L319.892 592.334C319.508 595.573 316.761 598.013 313.5 598.013C310.238 598.013 307.492 595.573 307.108 592.334Z" fill="#929292" stroke="#090909" stroke-width="3"/>
<path d="M305.502 540.087H313.501L314.962 589.371C314.989 590.275 314.263 591.023 313.359 591.023C312.551 591.023 311.869 590.422 311.768 589.62L305.502 540.087Z" fill="white" fill-opacity="0.25"/>
<path d="M434.021 592.334L426.993 533.098H453.833L446.805 592.334C446.42 595.573 443.674 598.013 440.413 598.013C437.151 598.013 434.405 595.573 434.021 592.334Z" fill="#929292" stroke="#090909" stroke-width="3"/>
<path d="M432.415 540.087H440.413L441.875 589.371C441.902 590.275 441.176 591.023 440.272 591.023C439.464 591.023 438.782 590.422 438.68 589.62L432.415 540.087Z" fill="white" fill-opacity="0.25"/>
<path d="M314 506C353.791 506 386 473.29 386 433C386 392.71 353.791 360 314 360C274.209 360 242 392.71 242 433C242 473.29 274.209 506 314 506Z" fill="#3C3C3C" stroke="black" stroke-width="4"/>
<rect x="291" y="360" width="20" height="142" fill="#929292" stroke="black" stroke-width="4"/>
<path d="M290 506C329.791 506 362 473.29 362 433C362 392.71 329.791 360 290 360C250.209 360 218 392.71 218 433C218 473.29 250.209 506 290 506Z" fill="#929292" stroke="black" stroke-width="4"/>
<path d="M289.896 504.119C328.536 504.119 359.86 472.715 359.86 433.977C359.86 395.238 328.536 363.834 289.896 363.834V504.119Z" fill="black" fill-opacity="0.25"/>
<path d="M289.896 471.048C310.325 471.048 326.878 454.445 326.878 433.976C326.878 413.507 310.325 396.905 289.896 396.905C269.467 396.905 252.914 413.507 252.914 433.976C252.914 454.445 269.467 471.048 289.896 471.048Z" fill="#3C3C3C" stroke="black" stroke-width="4"/>
<path d="M295.493 463.436C311.722 463.436 324.878 450.246 324.878 433.976C324.878 417.706 311.722 404.516 295.493 404.516C279.264 404.516 266.108 417.706 266.108 433.976C266.108 450.246 279.264 463.436 295.493 463.436Z" fill="#090909"/>
<path d="M336.985 523.162L362.389 349H385.036L423.141 523.162H336.985Z" fill="#C4C4C4" stroke="#090909" stroke-width="4"/>
<path d="M374.028 349H385.036L423.14 523.162H374.028V349Z" fill="black" fill-opacity="0.25" stroke="#090909" stroke-width="4"/>
<path d="M486 505C525.791 505 558 472.29 558 432C558 391.71 525.791 359 486 359C446.209 359 414 391.71 414 432C414 472.29 446.209 505 486 505Z" fill="#3C3C3C" stroke="black" stroke-width="4"/>
<rect x="463" y="359" width="22" height="145" fill="#929292" stroke="black" stroke-width="4"/>
<path d="M462 503C501.765 503 534 470.765 534 431C534 391.235 501.765 359 462 359C422.235 359 390 391.235 390 431C390 470.765 422.235 503 462 503Z" fill="#929292" stroke="black" stroke-width="4"/>
<path d="M462.007 501.313C500.647 501.313 531.97 469.909 531.97 431.171C531.97 392.432 500.647 361.028 462.007 361.028V501.313Z" fill="black" fill-opacity="0.25"/>
<path d="M462.007 468.242C482.436 468.242 498.989 451.64 498.989 431.171C498.989 410.702 482.436 394.099 462.007 394.099C441.577 394.099 425.025 410.702 425.025 431.171C425.025 451.64 441.577 468.242 462.007 468.242Z" fill="#3C3C3C" stroke="black" stroke-width="4"/>
<path d="M467.604 460.63C483.833 460.63 496.989 447.44 496.989 431.17C496.989 414.9 483.833 401.71 467.604 401.71C451.375 401.71 438.219 414.9 438.219 431.17C438.219 447.44 451.375 460.63 467.604 460.63Z" fill="#090909"/>
</g>
<defs>
<filter id="filter0_d_131_489" x="211" y="347" width="352" height="307" filterUnits="userSpaceOnUse" color-interpolation-filters="sRGB">
<feFlood flood-opacity="0" result="BackgroundImageFix"/>
<feColorMatrix in="SourceAlpha" type="matrix" values="0 0 0 0 0 0 0 0 0 0 0 0 0 0 0 0 0 0 127 0" result="hardAlpha"/>
<feOffset dx="-1" dy="7"/>
<feGaussianBlur stdDeviation="2"/>
<feComposite in2="hardAlpha" operator="out"/>
<feColorMatrix type="matrix" values="0 0 0 0 0 0 0 0 0 0 0 0 0 0 0 0 0 0 0.25 0"/>
<feBlend mode="normal" in2="BackgroundImageFix" result="effect1_dropShadow_131_489"/>
<feBlend mode="normal" in="SourceGraphic" in2="effect1_dropShadow_131_489" result="shape"/>
</filter>
</defs>
</svg>
