<svg width="1000" height="1000" viewBox="0 0 1000 1000" fill="none" xmlns="http://www.w3.org/2000/svg">
<rect x="767" y="423" width="26" height="577" fill="black"/>
<rect x="585" y="460" width="391" height="300" fill="white" stroke="black" stroke-width="8"/>
<rect x="585" y="460" width="20" height="300" fill="black" fill-opacity="0.25"/>
<path d="M650.004 712.528C648.621 701.153 644.771 690.419 643.145 679.104C641.07 664.665 641.634 650.37 640.107 635.964C639.278 628.134 641.872 619.803 644.114 612.266C646.344 604.768 646.437 596.767 652.102 590.46C659.008 582.771 668.582 592.913 674.649 597.303C685.675 605.28 697.138 612.95 705.755 623.367C713.007 632.133 719.183 641.369 725.482 650.753C732.325 660.948 735.442 674.712 738.617 686.564" stroke="black" stroke-width="11" stroke-linecap="round"/>
<path d="M640.849 678.363C662.78 664.987 687.111 655.237 710.647 644.803C714.425 643.128 718.516 642.6 721.453 640.12" stroke="black" stroke-width="11" stroke-linecap="round"/>
<path d="M798.685 567.273C784.195 563.492 772.698 556.822 756.995 557.977C739.715 559.248 727.905 560.697 719.613 576.007C705.127 602.752 710.257 636.116 728.864 658.971C739.427 671.945 756.426 685.875 775.166 680.1C787.98 676.152 799.792 669.538 804.096 657.923" stroke="black" stroke-width="11" stroke-linecap="round"/>
<path d="M810.987 661.624C805.872 635.256 799.731 608.85 796.251 582.165C794.609 569.573 792.086 556.456 792.366 543.69C792.387 542.699 792.374 532.39 792.649 532.518C794.587 533.417 796.516 536.13 798.044 537.484C805.037 543.678 812.027 549.9 818.184 556.869C825.895 565.597 832.149 575.001 838.814 584.446C850.623 601.183 862.203 618.304 873.105 635.609C877.201 642.111 883.309 649.718 885.325 657.24" stroke="black" stroke-width="11" stroke-linecap="round"/>
<path d="M797.438 633.075C808.845 618.434 823.204 606.792 838.178 595.528C843.569 591.472 849.013 587.493 854.216 583.216C854.752 582.776 859.087 579.938 857.637 580.327" stroke="black" stroke-width="11" stroke-linecap="round"/>
<path d="M839.901 522.939C857.726 563.668 865.912 606.803 877.325 649.397" stroke="black" stroke-width="11" stroke-linecap="round"/>
<path d="M826.483 560.934C831.879 548.879 841.509 538.346 851.815 529.734C856.383 525.918 861.373 522.739 866.818 520.166C870.312 518.515 880.857 513.082 884.844 514.781C893.242 518.361 891.116 529.012 888.036 535.502C881.38 549.529 863.303 558.705 851.493 568.164C850.084 569.293 843.624 574.106 847.918 570.479C852.839 566.323 855.09 562.775 861.773 560.293C874.209 555.675 886.518 552.216 899.74 551.538C918.325 550.585 930.497 560.008 934.67 577.194C937.505 588.875 931.473 607.913 921.069 615.484C907.261 625.532 886.51 628.073 870.345 632.404C860.703 634.988 851.06 637.571 841.417 640.155C838.654 640.896 836.475 641.567 833.801 641.086" stroke="black" stroke-width="11" stroke-linecap="round"/>
</svg>
