<svg width="1000" height="1000" viewBox="0 0 1000 1000" fill="none" xmlns="http://www.w3.org/2000/svg">
<g filter="url(#filter0_d_162_240399)">
<path d="M628.077 197.126C631.523 187.324 645.384 187.324 648.831 197.126L668.169 252.118C670.007 257.345 674.035 261.51 679.199 263.52L733.559 284.688C742.904 288.326 742.904 301.549 733.559 305.188L679.199 326.355C674.035 328.366 670.007 332.53 668.169 337.758L648.831 392.75C645.384 402.551 631.523 402.551 628.077 392.75L608.739 337.758C606.901 332.53 602.872 328.366 597.709 326.355L543.348 305.188C534.003 301.549 534.003 288.326 543.348 284.688L597.709 263.52C602.872 261.51 606.901 257.345 608.739 252.118L628.077 197.126Z" fill="#FFED00" stroke="black" stroke-width="8"/>
<path opacity="0.25" d="M647.081 394.437L667.041 335.302C668.192 331.891 667.421 328.124 665.022 325.44L612.644 266.832C609.856 263.712 605.421 262.658 601.527 264.189L539.265 288.679C533.305 291.023 533.362 299.478 539.354 301.741L592.816 321.936C602.423 325.565 609.875 333.341 613.091 343.093L630.006 394.378C632.714 402.589 644.315 402.63 647.081 394.437Z" fill="#FF8C00"/>
<path d="M753.362 147.568C756.809 137.767 770.67 137.767 774.117 147.568L782.599 171.69C784.437 176.917 788.465 181.081 793.629 183.092L818.652 192.835C827.997 196.474 827.997 209.697 818.652 213.336L793.629 223.08C788.465 225.09 784.437 229.255 782.599 234.482L774.117 258.603C770.67 268.405 756.809 268.405 753.362 258.603L744.88 234.482C743.042 229.255 739.014 225.09 733.85 223.08L708.827 213.336C699.482 209.697 699.482 196.474 708.827 192.835L733.85 183.092C739.014 181.081 743.042 176.917 744.88 171.689L753.362 147.568Z" fill="#FFED00" stroke="black" stroke-width="8"/>
<path opacity="0.25" d="M772.623 259.47L781.948 232.801C783.159 229.34 782.377 225.493 779.912 222.778L747.136 186.685C744.308 183.571 739.834 182.56 735.942 184.154L704.569 197.008C698.623 199.444 698.826 207.933 704.881 210.082L728.443 218.447C738.452 222 746.226 230.027 749.457 240.145L755.554 259.237C758.182 267.467 769.771 267.625 772.623 259.47Z" fill="#FF8C00"/>
<path d="M738.531 358.962C741.977 349.161 755.838 349.161 759.285 358.962L763.058 357.635L759.285 358.962L760.636 362.804C762.474 368.032 766.503 372.196 771.666 374.207L777.418 376.447C786.763 380.085 786.763 393.308 777.418 396.947L771.666 399.187C766.503 401.198 762.474 405.362 760.636 410.589L759.285 414.432C755.838 424.233 741.977 424.233 738.531 414.432L737.179 410.589C735.341 405.362 731.313 401.198 726.149 399.187L720.397 396.947C711.052 393.308 711.052 380.085 720.397 376.447L726.149 374.207C731.313 372.196 735.341 368.032 737.179 362.804L738.531 358.962Z" fill="#FFED00" stroke="black" stroke-width="8"/>
<path opacity="0.25" d="M757.047 417.2L759.878 408.055C760.864 404.869 760.197 401.402 758.1 398.81L741.356 378.109C738.597 374.698 733.937 373.484 729.864 375.115L716.996 380.267C711.155 382.606 711.124 390.863 716.948 393.245L723.589 395.961C732.557 399.629 739.235 407.355 741.567 416.758C743.527 424.659 754.641 424.976 757.047 417.2Z" fill="#FF8C00"/>
</g>
<defs>
<filter id="filter0_d_162_240399" x="527.34" y="136.217" width="305.32" height="300.565" filterUnits="userSpaceOnUse" color-interpolation-filters="sRGB">
<feFlood flood-opacity="0" result="BackgroundImageFix"/>
<feColorMatrix in="SourceAlpha" type="matrix" values="0 0 0 0 0 0 0 0 0 0 0 0 0 0 0 0 0 0 127 0" result="hardAlpha"/>
<feOffset dx="-1" dy="7"/>
<feGaussianBlur stdDeviation="2"/>
<feComposite in2="hardAlpha" operator="out"/>
<feColorMatrix type="matrix" values="0 0 0 0 0 0 0 0 0 0 0 0 0 0 0 0 0 0 0.25 0"/>
<feBlend mode="normal" in2="BackgroundImageFix" result="effect1_dropShadow_162_240399"/>
<feBlend mode="normal" in="SourceGraphic" in2="effect1_dropShadow_162_240399" result="shape"/>
</filter>
</defs>
</svg>
