<svg width="1000" height="1000" viewBox="0 0 1000 1000" fill="none" xmlns="http://www.w3.org/2000/svg">
<g clip-path="url(#clip0_727_54292)">
<mask id="path-1-outside-1_727_54292" maskUnits="userSpaceOnUse" x="499.285" y="921.303" width="279" height="298" fill="black">
<rect fill="white" x="499.285" y="921.303" width="279" height="298"/>
<path d="M773.552 1070.28C773.552 1150.34 713.051 1215.25 638.419 1215.25C563.787 1215.25 503.285 1150.34 503.285 1070.28C503.285 990.209 563.787 925.303 638.419 925.303C713.051 925.303 773.552 990.209 773.552 1070.28ZM510.1 1070.28C510.1 1146.3 567.551 1207.94 638.419 1207.94C709.287 1207.94 766.737 1146.3 766.737 1070.28C766.737 994.247 709.287 932.614 638.419 932.614C567.551 932.614 510.1 994.247 510.1 1070.28Z"/>
</mask>
<path d="M773.552 1070.28C773.552 1150.34 713.051 1215.25 638.419 1215.25C563.787 1215.25 503.285 1150.34 503.285 1070.28C503.285 990.209 563.787 925.303 638.419 925.303C713.051 925.303 773.552 990.209 773.552 1070.28ZM510.1 1070.28C510.1 1146.3 567.551 1207.94 638.419 1207.94C709.287 1207.94 766.737 1146.3 766.737 1070.28C766.737 994.247 709.287 932.614 638.419 932.614C567.551 932.614 510.1 994.247 510.1 1070.28Z" fill="#3C3C3C"/>
<path d="M773.552 1070.28C773.552 1150.34 713.051 1215.25 638.419 1215.25C563.787 1215.25 503.285 1150.34 503.285 1070.28C503.285 990.209 563.787 925.303 638.419 925.303C713.051 925.303 773.552 990.209 773.552 1070.28ZM510.1 1070.28C510.1 1146.3 567.551 1207.94 638.419 1207.94C709.287 1207.94 766.737 1146.3 766.737 1070.28C766.737 994.247 709.287 932.614 638.419 932.614C567.551 932.614 510.1 994.247 510.1 1070.28Z" stroke="black" stroke-width="8" mask="url(#path-1-outside-1_727_54292)"/>
<mask id="path-2-outside-2_727_54292" maskUnits="userSpaceOnUse" x="441.312" y="859.109" width="395" height="423" fill="black">
<rect fill="white" x="441.312" y="859.109" width="395" height="423"/>
<path d="M831.947 1070.25C831.947 1184.66 745.396 1277.4 638.63 1277.4C531.864 1277.4 445.312 1184.66 445.312 1070.25C445.312 955.851 531.864 863.109 638.63 863.109C745.396 863.109 831.947 955.851 831.947 1070.25ZM469.712 1070.25C469.712 1170.22 545.339 1251.26 638.63 1251.26C731.921 1251.26 807.548 1170.22 807.548 1070.25C807.548 970.291 731.921 889.254 638.63 889.254C545.339 889.254 469.712 970.291 469.712 1070.25Z"/>
</mask>
<path d="M831.947 1070.25C831.947 1184.66 745.396 1277.4 638.63 1277.4C531.864 1277.4 445.312 1184.66 445.312 1070.25C445.312 955.851 531.864 863.109 638.63 863.109C745.396 863.109 831.947 955.851 831.947 1070.25ZM469.712 1070.25C469.712 1170.22 545.339 1251.26 638.63 1251.26C731.921 1251.26 807.548 1170.22 807.548 1070.25C807.548 970.291 731.921 889.254 638.63 889.254C545.339 889.254 469.712 970.291 469.712 1070.25Z" fill="#3C3C3C"/>
<path d="M831.947 1070.25C831.947 1184.66 745.396 1277.4 638.63 1277.4C531.864 1277.4 445.312 1184.66 445.312 1070.25C445.312 955.851 531.864 863.109 638.63 863.109C745.396 863.109 831.947 955.851 831.947 1070.25ZM469.712 1070.25C469.712 1170.22 545.339 1251.26 638.63 1251.26C731.921 1251.26 807.548 1170.22 807.548 1070.25C807.548 970.291 731.921 889.254 638.63 889.254C545.339 889.254 469.712 970.291 469.712 1070.25Z" stroke="black" stroke-width="8" mask="url(#path-2-outside-2_727_54292)"/>
<path d="M831.947 1070.25C831.947 1184.66 745.396 1277.4 638.63 1277.4C531.864 1277.4 445.312 1184.66 445.312 1070.25C445.312 955.851 531.864 863.109 638.63 863.109C745.396 863.109 831.947 955.851 831.947 1070.25ZM448.746 1070.25C448.746 1182.63 533.76 1273.72 638.63 1273.72C743.5 1273.72 828.514 1182.63 828.514 1070.25C828.514 957.883 743.5 866.788 638.63 866.788C533.76 866.788 448.746 957.883 448.746 1070.25Z" fill="white" fill-opacity="0.25"/>
<path d="M688.664 870.168C725.596 880.771 758.764 902.872 783.974 933.674C809.183 964.477 825.303 1002.6 830.294 1043.22C835.284 1083.84 828.922 1125.13 812.011 1161.87C795.1 1198.62 768.401 1229.16 735.289 1249.65C702.177 1270.13 664.139 1279.64 625.987 1276.96C587.834 1274.28 551.28 1259.53 520.946 1234.59C490.612 1209.65 467.862 1175.63 455.572 1136.84C443.282 1098.04 442.004 1056.22 451.9 1016.64L475.468 1023.41C466.821 1057.99 467.938 1094.54 478.677 1128.44C489.416 1162.33 509.294 1192.06 535.799 1213.85C562.304 1235.64 594.245 1248.53 627.582 1250.87C660.92 1253.21 694.156 1244.9 723.089 1227.01C752.022 1209.11 775.352 1182.42 790.128 1150.31C804.904 1118.2 810.463 1082.12 806.103 1046.63C801.742 1011.14 787.657 977.827 765.629 950.913C743.601 923.998 714.62 904.687 682.349 895.422L688.664 870.168Z" fill="black" fill-opacity="0.25"/>
<rect x="631.055" y="897.338" width="12.5207" height="344.424" fill="#D7D6DC" stroke="black" stroke-width="2"/>
<rect x="639.945" y="898.338" width="2.63017" height="342.424" fill="black" fill-opacity="0.25"/>
<rect x="632.055" y="898.338" width="2.63011" height="342.424" fill="white" fill-opacity="0.25"/>
<rect x="-0.37608" y="-1.40645" width="12.7138" height="338.854" transform="matrix(0.850417 0.526109 -0.474337 0.880343 711.925 918.488)" fill="#D7D6DC" stroke="black" stroke-width="2"/>
<rect width="2.67844" height="336.855" transform="matrix(0.850417 0.526109 -0.474337 0.880343 719.48 922.686)" fill="black" fill-opacity="0.25"/>
<rect width="2.67844" height="336.855" transform="matrix(0.850417 0.526109 -0.474337 0.880343 712.648 918.458)" fill="white" fill-opacity="0.25"/>
<rect x="0.37608" y="-1.40645" width="13.0899" height="327.431" transform="matrix(0.474337 0.880343 -0.850417 0.526109 772.064 978.065)" fill="#D7D6DC" stroke="black" stroke-width="2"/>
<rect width="2.77247" height="325.431" transform="matrix(0.474338 0.880343 -0.850417 0.526109 777.008 986.385)" fill="black" fill-opacity="0.25"/>
<rect width="2.77247" height="325.431" transform="matrix(0.474337 0.880343 -0.850417 0.526109 773.062 979.062)" fill="white" fill-opacity="0.25"/>
<rect x="1.32475" y="-0.354234" width="13.0899" height="327.431" transform="matrix(-0.474337 0.880343 -0.850417 -0.526109 779.972 1148.57)" fill="#D7D6DC" stroke="black" stroke-width="2"/>
<rect width="2.77247" height="325.431" transform="matrix(-0.474338 0.880343 -0.850417 -0.526109 774.375 1157.6)" fill="black" fill-opacity="0.25"/>
<rect width="2.77247" height="325.431" transform="matrix(-0.474338 0.880343 -0.850417 -0.526108 778.32 1150.27)" fill="white" fill-opacity="0.25"/>
<rect x="1.32475" y="0.354235" width="12.7138" height="338.855" transform="matrix(-0.850417 0.526108 -0.474338 -0.880343 724.381 1214.97)" fill="#D7D6DC" stroke="black" stroke-width="2"/>
<rect width="2.67844" height="336.855" transform="matrix(-0.850417 0.526109 -0.474337 -0.880343 714.93 1219.23)" fill="black" fill-opacity="0.25"/>
<rect width="2.67844" height="336.855" transform="matrix(-0.850417 0.526108 -0.474338 -0.880343 721.762 1215.01)" fill="white" fill-opacity="0.25"/>
<mask id="path-20-outside-3_727_54292" maskUnits="userSpaceOnUse" x="464.984" y="884.474" width="348" height="372" fill="black">
<rect fill="white" x="464.984" y="884.474" width="348" height="372"/>
<path d="M808.276 1070.25C808.276 1170.65 732.323 1252.03 638.63 1252.03C544.937 1252.03 468.984 1170.65 468.984 1070.25C468.984 969.86 544.937 888.474 638.63 888.474C732.323 888.474 808.276 969.86 808.276 1070.25ZM485.949 1070.25C485.949 1160.61 554.307 1233.86 638.63 1233.86C722.954 1233.86 791.312 1160.61 791.312 1070.25C791.312 979.899 722.954 906.652 638.63 906.652C554.307 906.652 485.949 979.899 485.949 1070.25Z"/>
</mask>
<path d="M808.276 1070.25C808.276 1170.65 732.323 1252.03 638.63 1252.03C544.937 1252.03 468.984 1170.65 468.984 1070.25C468.984 969.86 544.937 888.474 638.63 888.474C732.323 888.474 808.276 969.86 808.276 1070.25ZM485.949 1070.25C485.949 1160.61 554.307 1233.86 638.63 1233.86C722.954 1233.86 791.312 1160.61 791.312 1070.25C791.312 979.899 722.954 906.652 638.63 906.652C554.307 906.652 485.949 979.899 485.949 1070.25Z" fill="#D7D6DC"/>
<path d="M808.276 1070.25C808.276 1170.65 732.323 1252.03 638.63 1252.03C544.937 1252.03 468.984 1170.65 468.984 1070.25C468.984 969.86 544.937 888.474 638.63 888.474C732.323 888.474 808.276 969.86 808.276 1070.25ZM485.949 1070.25C485.949 1160.61 554.307 1233.86 638.63 1233.86C722.954 1233.86 791.312 1160.61 791.312 1070.25C791.312 979.899 722.954 906.652 638.63 906.652C554.307 906.652 485.949 979.899 485.949 1070.25Z" stroke="black" stroke-width="8" mask="url(#path-20-outside-3_727_54292)"/>
<path d="M804.331 1070.25C804.331 1168.31 730.144 1247.81 638.63 1247.81C547.116 1247.81 472.93 1168.31 472.93 1070.25C472.93 972.194 547.116 892.701 638.63 892.701C730.144 892.701 804.331 972.194 804.331 1070.25ZM479.733 1070.25C479.733 1164.29 550.874 1240.52 638.63 1240.52C726.387 1240.52 797.528 1164.29 797.528 1070.25C797.528 976.22 726.387 899.991 638.63 899.991C550.874 899.991 479.733 976.22 479.733 1070.25Z" fill="white" fill-opacity="0.25"/>
<path d="M808.276 1070.25C808.276 1100.15 801.396 1129.58 788.245 1155.95C775.094 1182.31 756.077 1204.79 732.881 1221.4C709.684 1238.01 683.023 1248.23 655.259 1251.16C627.494 1254.09 599.484 1249.64 573.71 1238.2C547.935 1226.76 525.191 1208.68 507.492 1185.57C489.794 1162.47 477.687 1135.04 472.244 1105.72C466.801 1076.4 468.191 1046.09 476.289 1017.49C484.388 988.879 498.945 962.854 518.673 941.716L530.668 954.57C512.914 973.594 499.812 997.017 492.523 1022.76C485.235 1048.51 483.984 1075.78 488.883 1102.17C493.781 1128.56 504.677 1153.25 520.606 1174.04C536.535 1194.84 557.004 1211.11 580.202 1221.4C603.399 1231.7 628.608 1235.71 653.596 1233.07C678.583 1230.43 702.579 1221.23 723.456 1206.28C744.333 1191.34 761.447 1171.1 773.283 1147.38C785.119 1123.65 791.312 1097.16 791.312 1070.25H808.276Z" fill="black" fill-opacity="0.25"/>
<path d="M829.359 550.76H901.693C910.679 550.76 917.964 558.045 917.964 567.031C917.964 576.017 910.679 583.302 901.693 583.302H829.359V550.76Z" fill="#4B70C5" stroke="black" stroke-width="6"/>
<path d="M835.625 567.031C835.625 574.185 833.446 580.547 830.067 585.052C826.689 589.556 822.251 592.062 817.601 592.062C812.952 592.062 808.514 589.556 805.136 585.052C801.757 580.547 799.578 574.185 799.578 567.031C799.578 559.877 801.757 553.515 805.136 549.01C808.514 544.506 812.952 542 817.601 542C822.251 542 826.689 544.506 830.067 549.01C833.446 553.515 835.625 559.877 835.625 567.031Z" fill="#4B70C5" stroke="black" stroke-width="6"/>
<rect x="808.336" y="542" width="6.26357" height="50.062" fill="#4B70C5" stroke="black" stroke-width="6"/>
<path d="M823.359 567.031C823.359 574.185 821.18 580.547 817.801 585.052C814.423 589.556 809.985 592.062 805.336 592.062C800.686 592.062 796.248 589.556 792.87 585.052C789.491 580.547 787.312 574.185 787.312 567.031C787.312 559.877 789.491 553.515 792.87 549.01C796.248 544.506 800.686 542 805.336 542C809.985 542 814.423 544.506 817.801 549.01C821.18 553.515 823.359 559.877 823.359 567.031Z" fill="#4B70C5" stroke="black" stroke-width="6"/>
<g filter="url(#filter0_i_727_54292)">
<path d="M704.782 566.745C705.911 558.866 712.66 553.016 720.62 553.016H798.457C805.714 553.016 811.596 558.898 811.596 566.155C811.596 573.412 805.714 579.295 798.457 579.295H745.069C737.11 579.295 730.36 585.145 729.231 593.024L664.77 1042.68H637.564C637.031 1042.68 636.621 1042.21 636.697 1041.68L664.7 846.34C666.082 836.699 658.602 828.07 648.862 828.07H480.95C466.247 828.07 453.436 838.089 449.893 852.358L361.926 1206.61C360.409 1212.71 354.928 1217 348.637 1217C339.738 1217 333.203 1208.64 335.348 1200.01L428.202 826.079C431.745 811.81 444.556 801.791 459.259 801.791H657.217C665.176 801.791 671.925 795.94 673.055 788.061L704.782 566.745Z" fill="#C4C4C4"/>
</g>
<path d="M704.782 566.745C705.911 558.866 712.66 553.016 720.62 553.016H798.457C805.714 553.016 811.596 558.898 811.596 566.155C811.596 573.412 805.714 579.295 798.457 579.295H745.069C737.11 579.295 730.36 585.145 729.231 593.024L664.77 1042.68H637.564C637.031 1042.68 636.621 1042.21 636.697 1041.68L664.7 846.34C666.082 836.699 658.602 828.07 648.862 828.07H480.95C466.247 828.07 453.436 838.089 449.893 852.358L361.926 1206.61C360.409 1212.71 354.928 1217 348.637 1217C339.738 1217 333.203 1208.64 335.348 1200.01L428.202 826.079C431.745 811.81 444.556 801.791 459.259 801.791H657.217C665.176 801.791 671.925 795.94 673.055 788.061L704.782 566.745Z" stroke="black" stroke-width="6"/>
<path d="M743.157 594.296H919.964L873.61 985.3H645.314L699.668 631.613C702.967 610.145 721.437 594.296 743.157 594.296Z" fill="#88C9F9" stroke="black" stroke-width="8"/>
<path d="M924.466 590.296H743.157C719.463 590.296 699.313 607.586 695.714 631.005L640.652 989.3C662.844 967.109 678.319 809.288 727.373 638.475C741.209 590.296 874.098 627.087 924.466 590.296Z" fill="white" fill-opacity="0.25"/>
<path d="M625.762 971.777L806.214 971.777C830.28 971.777 850.626 953.956 853.796 930.099L897.312 602.556C875.121 624.748 871.91 752.785 822.856 923.599C809.02 971.777 676.131 934.987 625.762 971.777Z" fill="black" fill-opacity="0.25"/>
<path d="M853.892 983.063V1023.4H496.582C481.118 1023.4 468.582 1010.87 468.582 995.404V971.806C468.582 961.528 474.056 952.343 483.102 948.732C536.977 927.229 658.115 905.996 827.778 948.946C843.223 952.856 853.892 966.991 853.892 983.063Z" fill="#88C9F9" stroke="black" stroke-width="8"/>
<path d="M903.397 615.27C904.935 603.278 915.143 594.296 927.233 594.296H932.657C946.952 594.296 958.087 606.7 956.549 620.912L917.242 984.138C914.824 1006.48 895.965 1023.4 873.497 1023.4H686.203C676.801 1023.4 669.18 1015.78 669.18 1006.38V995.87C669.18 982.598 679.939 971.839 693.211 971.839H811.908C838.069 971.839 860.158 952.402 863.486 926.454L903.397 615.27Z" fill="#4B70C5" stroke="black" stroke-width="8"/>
<path d="M914.828 978.212L912.2 999.37C912.2 1010.98 905.416 1020.39 893.805 1020.39H491.735C483.995 1020.39 476.844 1014.12 476.844 1006.38V988.858C476.844 981.117 483.995 974.842 491.735 974.842H823.24C847.318 974.842 867.671 957.003 870.826 933.133L911.621 624.513C913.169 612.801 923.832 604.501 935.566 605.874C947.399 607.259 955.882 617.956 954.533 629.794L914.828 978.212Z" fill="black" fill-opacity="0.25"/>
<path d="M820.365 961.703H483.926C482.611 961.703 481.011 961.13 481.27 959.84C483.002 951.189 537.002 931.044 658.088 931.044C745.418 936.486 795.783 947.395 821.531 955.402C825.629 956.676 824.656 961.703 820.365 961.703Z" fill="white" fill-opacity="0.25"/>
<g filter="url(#filter1_i_727_54292)">
<path d="M965.821 566.745C966.95 558.866 973.699 553.016 981.659 553.016H1059.5C1066.75 553.016 1072.64 558.898 1072.64 566.155C1072.64 573.412 1066.75 579.295 1059.5 579.295H1006.11C998.149 579.295 991.4 585.145 990.27 593.024L925.809 1042.68H898.603C898.07 1042.68 897.66 1042.21 897.736 1041.68L925.739 846.34C927.121 836.699 919.641 828.07 909.901 828.07H741.989C727.286 828.07 714.476 838.089 710.932 852.358L622.965 1206.61C621.449 1212.71 615.967 1217 609.676 1217C600.777 1217 594.242 1208.64 596.387 1200.01L689.241 826.079C692.784 811.81 705.595 801.791 720.298 801.791H918.256C926.215 801.791 932.964 795.94 934.094 788.061L965.821 566.745Z" fill="#C4C4C4"/>
</g>
<path d="M965.821 566.745C966.95 558.866 973.699 553.016 981.659 553.016H1059.5C1066.75 553.016 1072.64 558.898 1072.64 566.155C1072.64 573.412 1066.75 579.295 1059.5 579.295H1006.11C998.149 579.295 991.4 585.145 990.27 593.024L925.809 1042.68H898.603C898.07 1042.68 897.66 1042.21 897.736 1041.68L925.739 846.34C927.121 836.699 919.641 828.07 909.901 828.07H741.989C727.286 828.07 714.476 838.089 710.932 852.358L622.965 1206.61C621.449 1212.71 615.967 1217 609.676 1217C600.777 1217 594.242 1208.64 596.387 1200.01L689.241 826.079C692.784 811.81 705.595 801.791 720.298 801.791H918.256C926.215 801.791 932.964 795.94 934.094 788.061L965.821 566.745Z" stroke="black" stroke-width="6"/>
<mask id="path-36-outside-4_727_54292" maskUnits="userSpaceOnUse" x="716.484" y="859.109" width="395" height="423" fill="black">
<rect fill="white" x="716.484" y="859.109" width="395" height="423"/>
<path d="M1107.12 1070.25C1107.12 1184.66 1020.57 1277.4 913.802 1277.4C807.036 1277.4 720.484 1184.66 720.484 1070.25C720.484 955.851 807.036 863.109 913.802 863.109C1020.57 863.109 1107.12 955.851 1107.12 1070.25ZM744.884 1070.25C744.884 1170.22 820.511 1251.26 913.802 1251.26C1007.09 1251.26 1082.72 1170.22 1082.72 1070.25C1082.72 970.291 1007.09 889.254 913.802 889.254C820.511 889.254 744.884 970.291 744.884 1070.25Z"/>
</mask>
<path d="M1107.12 1070.25C1107.12 1184.66 1020.57 1277.4 913.802 1277.4C807.036 1277.4 720.484 1184.66 720.484 1070.25C720.484 955.851 807.036 863.109 913.802 863.109C1020.57 863.109 1107.12 955.851 1107.12 1070.25ZM744.884 1070.25C744.884 1170.22 820.511 1251.26 913.802 1251.26C1007.09 1251.26 1082.72 1170.22 1082.72 1070.25C1082.72 970.291 1007.09 889.254 913.802 889.254C820.511 889.254 744.884 970.291 744.884 1070.25Z" fill="#3C3C3C"/>
<path d="M1107.12 1070.25C1107.12 1184.66 1020.57 1277.4 913.802 1277.4C807.036 1277.4 720.484 1184.66 720.484 1070.25C720.484 955.851 807.036 863.109 913.802 863.109C1020.57 863.109 1107.12 955.851 1107.12 1070.25ZM744.884 1070.25C744.884 1170.22 820.511 1251.26 913.802 1251.26C1007.09 1251.26 1082.72 1170.22 1082.72 1070.25C1082.72 970.291 1007.09 889.254 913.802 889.254C820.511 889.254 744.884 970.291 744.884 1070.25Z" stroke="black" stroke-width="8" mask="url(#path-36-outside-4_727_54292)"/>
<path d="M1107.12 1070.25C1107.12 1184.66 1020.57 1277.4 913.802 1277.4C807.036 1277.4 720.484 1184.66 720.484 1070.25C720.484 955.851 807.036 863.109 913.802 863.109C1020.57 863.109 1107.12 955.851 1107.12 1070.25ZM723.917 1070.25C723.917 1182.63 808.932 1273.72 913.802 1273.72C1018.67 1273.72 1103.69 1182.63 1103.69 1070.25C1103.69 957.883 1018.67 866.788 913.802 866.788C808.932 866.788 723.917 957.883 723.917 1070.25Z" fill="white" fill-opacity="0.25"/>
<path d="M963.836 870.168C1000.77 880.771 1033.94 902.872 1059.15 933.674C1084.36 964.477 1100.47 1002.6 1105.47 1043.22C1110.46 1083.84 1104.09 1125.13 1087.18 1161.87C1070.27 1198.62 1043.57 1229.16 1010.46 1249.65C977.349 1270.13 939.311 1279.64 901.159 1276.96C863.006 1274.28 826.451 1259.53 796.118 1234.59C765.784 1209.65 743.034 1175.63 730.744 1136.84C718.454 1098.04 717.176 1056.22 727.071 1016.64L750.64 1023.41C741.993 1057.99 743.11 1094.54 753.848 1128.44C764.587 1162.33 784.466 1192.06 810.971 1213.85C837.476 1235.64 869.417 1248.53 902.754 1250.87C936.092 1253.21 969.328 1244.9 998.261 1227.01C1027.19 1209.11 1050.52 1182.42 1065.3 1150.31C1080.08 1118.2 1085.64 1082.12 1081.27 1046.63C1076.91 1011.14 1062.83 977.827 1040.8 950.913C1018.77 923.998 989.791 904.687 957.521 895.422L963.836 870.168Z" fill="black" fill-opacity="0.25"/>
<rect x="906.227" y="897.338" width="12.5207" height="344.424" fill="#D7D6DC" stroke="black" stroke-width="2"/>
<rect x="915.117" y="898.338" width="2.63017" height="342.424" fill="black" fill-opacity="0.25"/>
<rect x="907.227" y="898.338" width="2.63011" height="342.424" fill="white" fill-opacity="0.25"/>
<rect x="-0.37608" y="-1.40645" width="12.7138" height="338.854" transform="matrix(0.850417 0.526109 -0.474337 0.880343 987.097 918.488)" fill="#D7D6DC" stroke="black" stroke-width="2"/>
<rect width="2.67844" height="336.855" transform="matrix(0.850417 0.526109 -0.474337 0.880343 994.652 922.686)" fill="black" fill-opacity="0.25"/>
<rect width="2.67844" height="336.855" transform="matrix(0.850417 0.526109 -0.474337 0.880343 987.82 918.458)" fill="white" fill-opacity="0.25"/>
<rect x="0.37608" y="-1.40645" width="13.0899" height="327.431" transform="matrix(0.474337 0.880343 -0.850417 0.526109 1047.24 978.065)" fill="#D7D6DC" stroke="black" stroke-width="2"/>
<rect width="2.77247" height="325.431" transform="matrix(0.474338 0.880343 -0.850417 0.526109 1052.18 986.385)" fill="black" fill-opacity="0.25"/>
<rect width="2.77247" height="325.431" transform="matrix(0.474337 0.880343 -0.850417 0.526109 1048.23 979.062)" fill="white" fill-opacity="0.25"/>
<rect x="1.32475" y="-0.354234" width="13.0899" height="327.431" transform="matrix(-0.474337 0.880343 -0.850417 -0.526109 1055.14 1148.57)" fill="#D7D6DC" stroke="black" stroke-width="2"/>
<rect width="2.77247" height="325.431" transform="matrix(-0.474338 0.880343 -0.850417 -0.526109 1049.55 1157.6)" fill="black" fill-opacity="0.25"/>
<rect width="2.77247" height="325.431" transform="matrix(-0.474338 0.880343 -0.850417 -0.526108 1053.49 1150.27)" fill="white" fill-opacity="0.25"/>
<rect x="1.32475" y="0.354235" width="12.7138" height="338.855" transform="matrix(-0.850417 0.526108 -0.474338 -0.880343 999.553 1214.97)" fill="#D7D6DC" stroke="black" stroke-width="2"/>
<rect width="2.67844" height="336.855" transform="matrix(-0.850417 0.526109 -0.474337 -0.880343 990.102 1219.23)" fill="black" fill-opacity="0.25"/>
<rect width="2.67844" height="336.855" transform="matrix(-0.850417 0.526108 -0.474338 -0.880343 996.934 1215.01)" fill="white" fill-opacity="0.25"/>
<mask id="path-54-outside-5_727_54292" maskUnits="userSpaceOnUse" x="740.156" y="884.474" width="348" height="372" fill="black">
<rect fill="white" x="740.156" y="884.474" width="348" height="372"/>
<path d="M1083.45 1070.25C1083.45 1170.65 1007.5 1252.03 913.802 1252.03C820.109 1252.03 744.156 1170.65 744.156 1070.25C744.156 969.86 820.109 888.474 913.802 888.474C1007.5 888.474 1083.45 969.86 1083.45 1070.25ZM761.121 1070.25C761.121 1160.61 829.479 1233.86 913.802 1233.86C998.126 1233.86 1066.48 1160.61 1066.48 1070.25C1066.48 979.899 998.126 906.652 913.802 906.652C829.479 906.652 761.121 979.899 761.121 1070.25Z"/>
</mask>
<path d="M1083.45 1070.25C1083.45 1170.65 1007.5 1252.03 913.802 1252.03C820.109 1252.03 744.156 1170.65 744.156 1070.25C744.156 969.86 820.109 888.474 913.802 888.474C1007.5 888.474 1083.45 969.86 1083.45 1070.25ZM761.121 1070.25C761.121 1160.61 829.479 1233.86 913.802 1233.86C998.126 1233.86 1066.48 1160.61 1066.48 1070.25C1066.48 979.899 998.126 906.652 913.802 906.652C829.479 906.652 761.121 979.899 761.121 1070.25Z" fill="#D7D6DC"/>
<path d="M1083.45 1070.25C1083.45 1170.65 1007.5 1252.03 913.802 1252.03C820.109 1252.03 744.156 1170.65 744.156 1070.25C744.156 969.86 820.109 888.474 913.802 888.474C1007.5 888.474 1083.45 969.86 1083.45 1070.25ZM761.121 1070.25C761.121 1160.61 829.479 1233.86 913.802 1233.86C998.126 1233.86 1066.48 1160.61 1066.48 1070.25C1066.48 979.899 998.126 906.652 913.802 906.652C829.479 906.652 761.121 979.899 761.121 1070.25Z" stroke="black" stroke-width="8" mask="url(#path-54-outside-5_727_54292)"/>
<path d="M1079.5 1070.25C1079.5 1168.31 1005.32 1247.81 913.802 1247.81C822.288 1247.81 748.102 1168.31 748.102 1070.25C748.102 972.194 822.288 892.701 913.802 892.701C1005.32 892.701 1079.5 972.194 1079.5 1070.25ZM754.905 1070.25C754.905 1164.29 826.046 1240.52 913.802 1240.52C1001.56 1240.52 1072.7 1164.29 1072.7 1070.25C1072.7 976.22 1001.56 899.991 913.802 899.991C826.046 899.991 754.905 976.22 754.905 1070.25Z" fill="white" fill-opacity="0.25"/>
<path d="M1083.45 1070.25C1083.45 1100.15 1076.57 1129.58 1063.42 1155.95C1050.27 1182.31 1031.25 1204.79 1008.05 1221.4C984.856 1238.01 958.195 1248.23 930.43 1251.16C902.666 1254.09 874.656 1249.64 848.882 1238.2C823.107 1226.76 800.363 1208.68 782.664 1185.57C764.966 1162.47 752.859 1135.04 747.416 1105.72C741.973 1076.4 743.363 1046.09 751.461 1017.49C759.56 988.879 774.117 962.854 793.844 941.716L805.84 954.57C788.086 973.594 774.984 997.017 767.695 1022.76C760.407 1048.51 759.156 1075.78 764.055 1102.17C768.953 1128.56 779.849 1153.25 795.778 1174.04C811.707 1194.84 832.176 1211.11 855.374 1221.4C878.571 1231.7 903.78 1235.71 928.768 1233.07C953.755 1230.43 977.75 1221.23 998.627 1206.28C1019.5 1191.34 1036.62 1171.1 1048.46 1147.38C1060.29 1123.65 1066.48 1097.16 1066.48 1070.25H1083.45Z" fill="black" fill-opacity="0.25"/>
<mask id="path-57-outside-6_727_54292" maskUnits="userSpaceOnUse" x="770.375" y="916.923" width="287" height="307" fill="black">
<rect fill="white" x="770.375" y="916.923" width="287" height="307"/>
<path d="M1052.81 1070.28C1052.81 1152.76 990.478 1219.63 913.591 1219.63C836.704 1219.63 774.375 1152.76 774.375 1070.28C774.375 987.79 836.704 920.923 913.591 920.923C990.478 920.923 1052.81 987.79 1052.81 1070.28ZM781.396 1070.28C781.396 1148.6 840.582 1212.1 913.591 1212.1C986.6 1212.1 1045.79 1148.6 1045.79 1070.28C1045.79 991.95 986.6 928.455 913.591 928.455C840.582 928.455 781.396 991.95 781.396 1070.28Z"/>
</mask>
<path d="M1052.81 1070.28C1052.81 1152.76 990.478 1219.63 913.591 1219.63C836.704 1219.63 774.375 1152.76 774.375 1070.28C774.375 987.79 836.704 920.923 913.591 920.923C990.478 920.923 1052.81 987.79 1052.81 1070.28ZM781.396 1070.28C781.396 1148.6 840.582 1212.1 913.591 1212.1C986.6 1212.1 1045.79 1148.6 1045.79 1070.28C1045.79 991.95 986.6 928.455 913.591 928.455C840.582 928.455 781.396 991.95 781.396 1070.28Z" fill="#3C3C3C"/>
<path d="M1052.81 1070.28C1052.81 1152.76 990.478 1219.63 913.591 1219.63C836.704 1219.63 774.375 1152.76 774.375 1070.28C774.375 987.79 836.704 920.923 913.591 920.923C990.478 920.923 1052.81 987.79 1052.81 1070.28ZM781.396 1070.28C781.396 1148.6 840.582 1212.1 913.591 1212.1C986.6 1212.1 1045.79 1148.6 1045.79 1070.28C1045.79 991.95 986.6 928.455 913.591 928.455C840.582 928.455 781.396 991.95 781.396 1070.28Z" stroke="black" stroke-width="8" mask="url(#path-57-outside-6_727_54292)"/>
</g>
<defs>
<filter id="filter0_i_727_54292" x="331.938" y="550.016" width="482.66" height="669.984" filterUnits="userSpaceOnUse" color-interpolation-filters="sRGB">
<feFlood flood-opacity="0" result="BackgroundImageFix"/>
<feBlend mode="normal" in="SourceGraphic" in2="BackgroundImageFix" result="shape"/>
<feColorMatrix in="SourceAlpha" type="matrix" values="0 0 0 0 0 0 0 0 0 0 0 0 0 0 0 0 0 0 127 0" result="hardAlpha"/>
<feOffset dx="-12" dy="-16"/>
<feComposite in2="hardAlpha" operator="arithmetic" k2="-1" k3="1"/>
<feColorMatrix type="matrix" values="0 0 0 0 0 0 0 0 0 0 0 0 0 0 0 0 0 0 0.25 0"/>
<feBlend mode="normal" in2="shape" result="effect1_innerShadow_727_54292"/>
</filter>
<filter id="filter1_i_727_54292" x="592.977" y="550.016" width="482.66" height="669.984" filterUnits="userSpaceOnUse" color-interpolation-filters="sRGB">
<feFlood flood-opacity="0" result="BackgroundImageFix"/>
<feBlend mode="normal" in="SourceGraphic" in2="BackgroundImageFix" result="shape"/>
<feColorMatrix in="SourceAlpha" type="matrix" values="0 0 0 0 0 0 0 0 0 0 0 0 0 0 0 0 0 0 127 0" result="hardAlpha"/>
<feOffset dx="-12" dy="-16"/>
<feComposite in2="hardAlpha" operator="arithmetic" k2="-1" k3="1"/>
<feColorMatrix type="matrix" values="0 0 0 0 0 0 0 0 0 0 0 0 0 0 0 0 0 0 0.25 0"/>
<feBlend mode="normal" in2="shape" result="effect1_innerShadow_727_54292"/>
</filter>
<clipPath id="clip0_727_54292">
<rect width="1000" height="1000" fill="white"/>
</clipPath>
</defs>
</svg>
