<svg width="1000" height="1000" viewBox="0 0 1000 1000" fill="none" xmlns="http://www.w3.org/2000/svg">
<path d="M216.266 330.89L216.266 333.89H219.266L498.133 333.89H761C771.433 333.89 780.181 325.383 779.434 314.694C777.471 286.6 770.408 258.959 758.501 232.899C744.311 201.843 723.522 173.645 697.336 149.906C671.151 126.168 640.081 107.352 605.905 94.5185C571.73 81.6855 535.109 75.0833 498.133 75.0833C461.156 75.0833 424.536 81.6855 390.36 94.5185C356.185 107.352 325.114 126.168 298.929 149.906C272.743 173.645 251.954 201.843 237.764 232.899C223.574 263.955 216.266 297.254 216.266 330.89Z" fill="#FF8C00" stroke="black" stroke-width="6"/>
<path d="M755.772 234.145C767.532 259.883 774.503 287.172 776.442 314.903C777.058 323.718 769.836 330.89 761 330.89H498.133L219.266 330.89C219.266 297.691 226.479 264.817 240.493 234.145C556.65 299.758 675.444 206.806 695.321 152.128C721.217 175.604 741.758 203.473 755.772 234.145Z" fill="black" fill-opacity="0.25"/>
<path d="M659.132 325.151H213.788C206.421 325.151 199.205 327.433 193.395 330.825C187.65 334.178 182.905 338.842 180.951 343.919C179.953 346.51 179.652 349.307 180.475 352.045C181.301 354.795 183.163 357.163 185.914 359.051C191.281 362.736 200.36 364.842 213.788 364.842C222.993 364.842 237.195 365.125 255.005 365.479C297.937 366.332 361.839 367.603 427.273 366.34C473.612 365.446 520.849 363.283 562.174 358.796C603.408 354.319 639.079 347.499 662.085 337.148C665.195 335.749 666.533 332.703 665.723 329.852C664.947 327.121 662.373 325.151 659.132 325.151Z" fill="#FF8C00" stroke="black" stroke-width="6"/>
<path d="M355.982 328.151H662.484C666.09 328.151 667.689 332.281 664.677 334.263C602.729 375.014 399.657 361.842 355.982 361.842C319.399 361.842 337.296 328.151 355.982 328.151Z" fill="black" fill-opacity="0.25"/>
<path d="M552.962 97.4794L552.965 97.4785L552.966 97.4783L553.419 97.353L553.815 97.0917C555.275 96.1284 556.372 94.8914 557.028 93.4041C557.678 91.9304 557.812 90.3985 557.651 88.9566C557.34 86.1705 555.896 83.4439 554.336 81.1934C552.735 78.8832 550.79 76.7626 549.086 75.1443C548.229 74.3312 547.409 73.6216 546.692 73.0607C546.036 72.5472 545.292 72.0178 544.626 71.7116L543.45 71.1709L542.25 71.6553C541.565 71.9319 540.871 72.2103 540.169 72.4921C524.844 78.6431 505.554 86.3857 482.591 111.471C458.699 137.571 430.926 182.319 399.036 263.359C388.104 289.13 380.093 297.128 372.368 299.82C368.396 301.205 364.201 301.31 358.968 301.221C358.377 301.211 357.774 301.199 357.159 301.186C352.426 301.09 346.988 300.978 340.805 301.823L340.873 307.776C370.143 311.089 388.834 307.1 400.843 299.729C412.923 292.313 417.778 281.762 419.98 273.046C440.826 197.627 474.289 153.72 502.363 128.691C516.414 116.164 529.145 108.339 538.324 103.656C542.913 101.315 546.615 99.759 549.148 98.7942C550.415 98.3119 551.389 97.9773 552.037 97.7663C552.36 97.6607 552.602 97.5861 552.758 97.5393C552.836 97.5159 552.892 97.4994 552.926 97.4896L552.961 97.4797L552.962 97.4794Z" fill="#FF8C00" stroke="black" stroke-width="6"/>
<path d="M552.163 94.5878C560.49 89.0922 545.987 75.6393 543.373 74.4373C512.269 86.9908 465.654 94.5878 399.963 265.41C383.056 309.375 368.043 301.131 341.211 304.795C399.038 311.341 412.927 288.759 417.08 272.279C459.067 120.327 552.163 94.5878 552.163 94.5878Z" fill="black" fill-opacity="0.25"/>
<path d="M448.251 66.9195L448.191 66.9241L448.131 66.9311C437.301 68.1941 424.054 75.5455 410.197 86.7094C396.231 97.9607 381.259 113.402 366.947 131.451C338.347 167.52 312.114 214.344 301.857 259.58C295.679 286.824 319.078 308.253 345.872 308.253H352.919C374.381 308.253 393.422 294.799 400.944 274.749C415.002 237.276 433.275 192.629 456.279 155.213C479.362 117.669 506.804 88.0818 538.921 79.6807C540.1 79.3722 541.2 78.9184 542.103 78.2955C542.947 77.7136 543.964 76.7384 544.289 75.2848C544.67 73.5786 543.92 72.1132 542.867 71.1995C541.923 70.3805 540.701 69.93 539.508 69.6718C531.118 67.8568 515.364 66.6425 498.336 66.1375C481.24 65.6304 462.576 65.8312 448.251 66.9195Z" fill="#FF8C00" stroke="black" stroke-width="6"/>
<mask id="path-8-outside-1_856_208994" maskUnits="userSpaceOnUse" x="274.98" y="166.61" width="159" height="156" fill="black">
<rect fill="white" x="274.98" y="166.61" width="159" height="156"/>
<path fill-rule="evenodd" clip-rule="evenodd" d="M354.048 318.076C395.507 318.076 429.116 285.065 429.116 244.343C429.116 203.622 395.507 170.61 354.048 170.61C353.091 170.61 352.137 170.628 351.189 170.663V170.61H327.121V175.496C298.964 186.127 278.98 212.943 278.98 244.343C278.98 275.743 298.964 302.559 327.121 313.19V318.076H351.189V318.023C352.137 318.058 353.091 318.076 354.048 318.076Z"/>
</mask>
<path fill-rule="evenodd" clip-rule="evenodd" d="M354.048 318.076C395.507 318.076 429.116 285.065 429.116 244.343C429.116 203.622 395.507 170.61 354.048 170.61C353.091 170.61 352.137 170.628 351.189 170.663V170.61H327.121V175.496C298.964 186.127 278.98 212.943 278.98 244.343C278.98 275.743 298.964 302.559 327.121 313.19V318.076H351.189V318.023C352.137 318.058 353.091 318.076 354.048 318.076Z" fill="#3C3C3C"/>
<path d="M351.189 170.663H347.189V174.813L351.336 174.66L351.189 170.663ZM351.189 170.61H355.189V166.61H351.189V170.61ZM327.121 170.61V166.61H323.121V170.61H327.121ZM327.121 175.496L328.534 179.238L331.121 178.261V175.496H327.121ZM327.121 313.19H331.121V310.425L328.534 309.448L327.121 313.19ZM327.121 318.076H323.121V322.076H327.121V318.076ZM351.189 318.076V322.076H355.189V318.076H351.189ZM351.189 318.023L351.336 314.026L347.189 313.874V318.023H351.189ZM425.116 244.343C425.116 282.788 393.366 314.076 354.048 314.076V322.076C397.648 322.076 433.116 287.341 433.116 244.343H425.116ZM354.048 174.61C393.366 174.61 425.116 205.898 425.116 244.343H433.116C433.116 201.345 397.648 166.61 354.048 166.61V174.61ZM351.336 174.66C352.236 174.627 353.14 174.61 354.048 174.61V166.61C353.042 166.61 352.039 166.629 351.042 166.666L351.336 174.66ZM347.189 170.61V170.663H355.189V170.61H347.189ZM327.121 174.61H351.189V166.61H327.121V174.61ZM331.121 175.496V170.61H323.121V175.496H331.121ZM282.98 244.343C282.98 214.696 301.848 189.314 328.534 179.238L325.708 171.754C296.08 182.94 274.98 211.189 274.98 244.343H282.98ZM328.534 309.448C301.848 299.373 282.98 273.99 282.98 244.343H274.98C274.98 277.497 296.08 305.746 325.708 316.933L328.534 309.448ZM331.121 318.076V313.19H323.121V318.076H331.121ZM351.189 314.076H327.121V322.076H351.189V314.076ZM347.189 318.023V318.076H355.189V318.023H347.189ZM354.048 314.076C353.14 314.076 352.236 314.059 351.336 314.026L351.042 322.021C352.039 322.057 353.042 322.076 354.048 322.076V314.076Z" fill="black" mask="url(#path-8-outside-1_856_208994)"/>
<path d="M429.108 244.343C429.108 263.898 421.199 282.653 407.121 296.48C393.043 310.308 373.95 318.076 354.04 318.076C334.131 318.076 315.037 310.308 300.96 296.48C286.882 282.653 278.973 263.898 278.973 244.343L354.04 244.343H429.108Z" fill="black" fill-opacity="0.25"/>
<path d="M326.537 320.076C369.066 320.076 403.604 286.203 403.604 244.343C403.604 202.483 369.066 168.61 326.537 168.61C284.007 168.61 249.469 202.483 249.469 244.343C249.469 286.203 284.007 320.076 326.537 320.076Z" fill="#3C3C3C" stroke="black" stroke-width="4"/>
<path d="M401.604 244.343C401.604 260.574 396.152 276.352 386.092 289.229C376.032 302.106 361.927 311.363 345.966 315.564C330.004 319.765 313.076 318.675 297.809 312.463C282.542 306.252 269.788 295.266 261.526 281.21L326.537 244.343H401.604Z" fill="black" fill-opacity="0.25"/>
<path d="M324.238 304.317C357.906 304.317 385.26 277.499 385.26 244.343C385.26 211.188 357.906 184.37 324.238 184.37C290.57 184.37 263.215 211.188 263.215 244.343C263.215 277.499 290.57 304.317 324.238 304.317Z" fill="#D7D6DC" stroke="black" stroke-width="4"/>
<path d="M324.372 298.245C338.67 298.245 352.382 292.566 362.492 282.458C372.602 272.35 378.281 258.64 378.281 244.344C378.281 230.049 372.602 216.339 362.492 206.23C352.382 196.122 338.67 190.443 324.372 190.443L324.372 217.821C331.408 217.821 338.155 220.615 343.13 225.589C348.104 230.563 350.899 237.31 350.899 244.344C350.899 251.378 348.104 258.125 343.13 263.099C338.155 268.073 331.408 270.867 324.372 270.867L324.372 298.245Z" fill="black" fill-opacity="0.25"/>
<path d="M269.952 244.344C269.952 258.504 275.686 272.085 285.892 282.098C296.098 292.111 309.941 297.737 324.374 297.737C338.808 297.737 352.651 292.111 362.857 282.098C373.063 272.085 378.797 258.504 378.797 244.344L351.154 244.344C351.154 251.312 348.333 257.995 343.311 262.922C338.288 267.849 331.477 270.617 324.374 270.617C317.272 270.617 310.461 267.849 305.438 262.922C300.416 257.995 297.595 251.312 297.595 244.344L269.952 244.344Z" fill="white" fill-opacity="0.25"/>
<path d="M324.246 264.918C335.761 264.918 345.156 255.74 345.156 244.344C345.156 232.947 335.761 223.77 324.246 223.77C312.732 223.77 303.336 232.947 303.336 244.344C303.336 255.74 312.732 264.918 324.246 264.918Z" fill="#D7D6DC" stroke="black" stroke-width="4"/>
<g filter="url(#filter0_i_856_208994)">
<ellipse cx="323.86" cy="244.343" rx="10.7818" ry="10.6785" fill="#FFC700"/>
</g>
<path d="M323.86 257.022C330.901 257.022 336.642 251.363 336.642 244.343C336.642 237.323 330.901 231.665 323.86 231.665C316.819 231.665 311.078 237.323 311.078 244.343C311.078 251.363 316.819 257.022 323.86 257.022Z" stroke="black" stroke-width="4"/>
<path d="M320.861 136.721L330.712 226.995L414.609 190.303L340.563 243.886L414.609 297.468L330.712 260.777L320.861 351.05L311.01 260.777L227.112 297.468L301.159 243.886L227.112 190.303L311.01 226.995L320.861 136.721Z" fill="white" fill-opacity="0.25"/>
<defs>
<filter id="filter0_i_856_208994" x="309.078" y="229.665" width="29.5625" height="29.3572" filterUnits="userSpaceOnUse" color-interpolation-filters="sRGB">
<feFlood flood-opacity="0" result="BackgroundImageFix"/>
<feBlend mode="normal" in="SourceGraphic" in2="BackgroundImageFix" result="shape"/>
<feColorMatrix in="SourceAlpha" type="matrix" values="0 0 0 0 0 0 0 0 0 0 0 0 0 0 0 0 0 0 127 0" result="hardAlpha"/>
<feOffset dx="-5" dy="-8"/>
<feComposite in2="hardAlpha" operator="arithmetic" k2="-1" k3="1"/>
<feColorMatrix type="matrix" values="0 0 0 0 0 0 0 0 0 0 0 0 0 0 0 0 0 0 0.25 0"/>
<feBlend mode="normal" in2="shape" result="effect1_innerShadow_856_208994"/>
</filter>
</defs>
</svg>
