<svg width="1008" height="1011" viewBox="0 0 1008 1011" fill="none" xmlns="http://www.w3.org/2000/svg">
<g filter="url(#filter0_d_975_29112)">
<path fill-rule="evenodd" clip-rule="evenodd" d="M308.292 378.787C335.572 374.133 375.796 374.001 410.853 374H411.457C446.558 374.001 486.834 374.133 514.148 378.787C537.611 382.787 551.57 395.114 557.656 418.225C564.522 418.679 570 424.47 570 431.487V475.787C570 482.814 564.506 488.613 557.625 489.051C551.742 513.676 538.492 527.331 516.58 531.113C498.351 534.254 479.408 533.723 463.716 531.113C439.615 527.104 434.115 511.217 429.491 497.858C425.809 487.22 422.681 478.185 411.155 478.03C399.643 478.185 396.52 487.22 392.842 497.858C388.223 511.217 382.731 527.104 358.66 531.113C342.988 533.723 324.069 534.254 305.863 531.113C283.968 527.329 270.733 513.663 264.861 489.017C258.182 488.371 252.914 482.668 252.914 475.787V431.487C252.914 424.617 258.165 418.921 264.829 418.261C270.902 395.126 284.846 382.789 308.292 378.787ZM320.638 395.054C345.087 391.591 380.231 391.512 411.607 391.512C442.982 391.512 478.126 391.591 502.575 395.054C534.278 399.544 548.316 422.258 545.448 461.169C543.269 490.702 534.181 509.67 508.664 513.328C492.437 515.657 487.337 515.258 473.37 513.328C453.92 510.639 447.336 497.226 441.114 484.551L441.114 484.55C434.959 472.012 429.158 460.195 411.607 460.195C394.055 460.195 388.254 472.012 382.099 484.551C375.877 497.226 369.293 510.639 349.843 513.328C335.876 515.258 330.776 515.657 314.55 513.328C289.032 509.67 279.944 490.702 277.765 461.169C274.897 422.258 288.935 399.544 320.638 395.054Z" fill="#090909"/>
<mask id="path-2-inside-1_975_29112" fill="white">
<path fill-rule="evenodd" clip-rule="evenodd" d="M299.972 378.787C326.603 374.133 365.869 374.001 400.091 374H400.68C434.946 374.001 474.262 374.133 500.926 378.787C523.83 382.787 537.456 395.114 543.397 418.225C550.1 418.679 555.447 424.47 555.447 431.487V475.787C555.447 482.814 550.084 488.613 543.367 489.051C537.624 513.676 524.689 527.331 503.299 531.113C485.504 534.254 467.013 533.723 451.695 531.113C428.167 527.104 422.799 511.217 418.285 497.858C414.691 487.22 411.638 478.185 400.386 478.03C389.148 478.185 386.099 487.22 382.509 497.858C378 511.217 372.639 527.104 349.141 531.113C333.842 533.723 315.374 534.254 297.602 531.113C276.229 527.329 263.308 513.663 257.576 489.017C251.056 488.371 245.914 482.668 245.914 475.787V431.487C245.914 424.617 251.04 418.921 257.545 418.261C263.474 395.126 277.085 382.789 299.972 378.787ZM312.024 395.054C335.892 391.591 370.198 391.512 400.827 391.512C431.455 391.512 465.761 391.591 489.628 395.054C520.576 399.544 534.279 422.258 531.48 461.169C529.352 490.702 520.481 509.67 495.572 513.328C479.732 515.657 474.753 515.258 461.119 513.328C442.132 510.639 435.705 497.226 429.631 484.551L429.631 484.55C423.622 472.012 417.96 460.195 400.827 460.195C383.693 460.195 378.03 472.012 372.022 484.551C365.948 497.226 359.521 510.639 340.534 513.328C326.899 515.258 321.921 515.657 306.081 513.328C281.172 509.67 272.3 490.702 270.173 461.169C267.374 422.258 281.077 399.544 312.024 395.054Z"/>
</mask>
<path fill-rule="evenodd" clip-rule="evenodd" d="M299.972 378.787C326.603 374.133 365.869 374.001 400.091 374H400.68C434.946 374.001 474.262 374.133 500.926 378.787C523.83 382.787 537.456 395.114 543.397 418.225C550.1 418.679 555.447 424.47 555.447 431.487V475.787C555.447 482.814 550.084 488.613 543.367 489.051C537.624 513.676 524.689 527.331 503.299 531.113C485.504 534.254 467.013 533.723 451.695 531.113C428.167 527.104 422.799 511.217 418.285 497.858C414.691 487.22 411.638 478.185 400.386 478.03C389.148 478.185 386.099 487.22 382.509 497.858C378 511.217 372.639 527.104 349.141 531.113C333.842 533.723 315.374 534.254 297.602 531.113C276.229 527.329 263.308 513.663 257.576 489.017C251.056 488.371 245.914 482.668 245.914 475.787V431.487C245.914 424.617 251.04 418.921 257.545 418.261C263.474 395.126 277.085 382.789 299.972 378.787ZM312.024 395.054C335.892 391.591 370.198 391.512 400.827 391.512C431.455 391.512 465.761 391.591 489.628 395.054C520.576 399.544 534.279 422.258 531.48 461.169C529.352 490.702 520.481 509.67 495.572 513.328C479.732 515.657 474.753 515.258 461.119 513.328C442.132 510.639 435.705 497.226 429.631 484.551L429.631 484.55C423.622 472.012 417.96 460.195 400.827 460.195C383.693 460.195 378.03 472.012 372.022 484.551C365.948 497.226 359.521 510.639 340.534 513.328C326.899 515.258 321.921 515.657 306.081 513.328C281.172 509.67 272.3 490.702 270.173 461.169C267.374 422.258 281.077 399.544 312.024 395.054Z" fill="#82EB68"/>
<path d="M400.091 374V370H400.09L400.091 374ZM299.972 378.787L299.284 374.847L299.284 374.847L299.972 378.787ZM400.68 374L400.681 370H400.68V374ZM500.926 378.787L501.614 374.847L501.613 374.847L500.926 378.787ZM543.397 418.225L539.523 419.221L540.243 422.021L543.127 422.216L543.397 418.225ZM543.367 489.051L543.107 485.06L540.146 485.253L539.472 488.143L543.367 489.051ZM503.299 531.113L503.995 535.052L503.996 535.052L503.299 531.113ZM451.695 531.113L452.367 527.17L452.367 527.17L451.695 531.113ZM418.285 497.858L422.075 496.578L418.285 497.858ZM400.386 478.03L400.441 474.03L400.386 474.03L400.331 474.03L400.386 478.03ZM382.509 497.858L378.719 496.579L382.509 497.858ZM349.141 531.113L348.468 527.17L348.468 527.17L349.141 531.113ZM297.602 531.113L296.904 535.051L296.905 535.052L297.602 531.113ZM257.576 489.017L261.472 488.111L260.823 485.319L257.971 485.036L257.576 489.017ZM257.545 418.261L257.949 422.24L260.727 421.958L261.42 419.253L257.545 418.261ZM312.024 395.054L311.45 391.095L311.45 391.095L312.024 395.054ZM489.628 395.054L490.203 391.095L490.203 391.095L489.628 395.054ZM531.48 461.169L535.47 461.456L535.47 461.456L531.48 461.169ZM495.572 513.328L494.99 509.37L494.99 509.37L495.572 513.328ZM461.119 513.328L460.558 517.288L460.558 517.288L461.119 513.328ZM429.631 484.551L433.238 482.822L433.209 482.761L433.177 482.701L429.631 484.551ZM429.631 484.55L426.023 486.279L426.053 486.34L426.084 486.401L429.631 484.55ZM372.022 484.551L368.415 482.822L372.022 484.551ZM340.534 513.328L341.095 517.288L341.095 517.288L340.534 513.328ZM306.081 513.328L306.663 509.37L306.662 509.37L306.081 513.328ZM270.173 461.169L266.183 461.456L266.183 461.456L270.173 461.169ZM400.09 370C365.993 370.001 326.332 370.12 299.284 374.847L300.661 382.728C326.874 378.146 365.744 378.001 400.091 378L400.09 370ZM400.68 370H400.091V378H400.68V370ZM501.613 374.847C474.532 370.12 434.821 370.001 400.681 370L400.68 378C435.07 378.001 473.991 378.146 500.238 382.728L501.613 374.847ZM547.271 417.229C544.158 405.118 538.943 395.512 531.235 388.399C523.528 381.288 513.627 376.945 501.614 374.847L500.238 382.728C511.128 384.629 519.493 388.45 525.81 394.279C532.127 400.108 536.696 408.221 539.523 419.221L547.271 417.229ZM559.447 431.487C559.447 422.451 552.553 414.835 543.667 414.234L543.127 422.216C547.646 422.522 551.447 426.489 551.447 431.487H559.447ZM559.447 475.787V431.487H551.447V475.787H559.447ZM543.627 493.043C552.533 492.462 559.447 484.836 559.447 475.787H551.447C551.447 480.793 547.635 484.764 543.107 485.06L543.627 493.043ZM503.996 535.052C515.41 533.034 524.805 528.322 532.099 520.655C539.353 513.029 544.281 502.741 547.262 489.96L539.472 488.143C536.709 499.985 532.299 508.837 526.303 515.141C520.346 521.403 512.578 525.41 502.603 527.174L503.996 535.052ZM451.023 535.056C466.736 537.734 485.693 538.283 503.995 535.052L502.604 527.174C485.316 530.226 467.29 529.713 452.367 527.17L451.023 535.056ZM414.496 499.139C416.72 505.721 419.378 513.699 424.72 520.469C430.209 527.426 438.33 532.893 451.023 535.056L452.367 527.17C441.532 525.323 435.205 520.843 431 515.514C426.648 509.999 424.365 503.354 422.075 496.578L414.496 499.139ZM400.331 482.03C404.607 482.088 407.038 483.702 408.97 486.363C411.157 489.376 412.638 493.642 414.496 499.139L422.075 496.578C420.338 491.437 418.495 485.866 415.444 481.663C412.137 477.108 407.417 474.126 400.441 474.03L400.331 482.03ZM386.299 499.137C388.154 493.64 389.633 489.374 391.818 486.361C393.747 483.7 396.174 482.088 400.441 482.03L400.331 474.03C393.36 474.126 388.643 477.11 385.341 481.665C382.294 485.867 380.454 491.438 378.719 496.579L386.299 499.137ZM349.814 535.056C362.493 532.892 370.605 527.424 376.088 520.467C381.423 513.697 384.077 505.72 386.299 499.137L378.719 496.579C376.432 503.355 374.151 510 369.804 515.516C365.605 520.845 359.287 525.324 348.468 527.17L349.814 535.056ZM296.905 535.052C315.185 538.283 334.12 537.734 349.814 535.056L348.468 527.17C333.565 529.713 315.563 530.225 298.298 527.174L296.905 535.052ZM253.68 489.923C256.655 502.715 261.577 513.011 268.823 520.642C276.11 528.317 285.497 533.032 296.904 535.051L298.299 527.174C288.333 525.41 280.574 521.4 274.624 515.134C268.634 508.825 264.229 499.965 261.472 488.111L253.68 489.923ZM241.914 475.787C241.914 484.651 248.544 492.142 257.182 492.997L257.971 485.036C253.569 484.6 249.914 480.685 249.914 475.787H241.914ZM241.914 431.487V475.787H249.914V431.487H241.914ZM257.141 414.281C248.523 415.157 241.914 422.637 241.914 431.487H249.914C249.914 426.598 253.557 422.686 257.949 422.24L257.141 414.281ZM299.284 374.847C287.278 376.946 277.384 381.293 269.684 388.412C261.984 395.531 256.777 405.145 253.67 417.268L261.42 419.253C264.242 408.241 268.805 400.12 275.115 394.286C281.425 388.452 289.78 384.63 300.661 382.727L299.284 374.847ZM400.827 387.512C370.301 387.512 335.666 387.582 311.45 391.095L312.599 399.012C336.117 395.601 370.095 395.512 400.827 395.512V387.512ZM490.203 391.095C465.986 387.582 431.352 387.512 400.827 387.512V395.512C431.558 395.512 465.536 395.601 489.054 399.012L490.203 391.095ZM535.47 461.456C536.901 441.562 534.171 425.188 526.6 413.082C518.925 400.81 506.623 393.477 490.203 391.095L489.054 399.012C503.581 401.12 513.604 407.389 519.818 417.324C526.136 427.426 528.858 441.864 527.49 460.882L535.47 461.456ZM496.153 517.285C509.677 515.299 519.188 509.035 525.454 499.083C531.574 489.362 534.389 476.452 535.47 461.456L527.49 460.881C526.443 475.418 523.759 486.759 518.684 494.82C513.755 502.65 506.376 507.698 494.99 509.37L496.153 517.285ZM460.558 517.288C467.369 518.252 472.258 518.872 477.478 518.925C482.713 518.978 488.155 518.461 496.153 517.285L494.99 509.37C487.148 510.523 482.181 510.972 477.559 510.925C472.921 510.878 468.503 510.333 461.679 509.367L460.558 517.288ZM426.024 486.279C432.036 498.827 439.256 514.271 460.558 517.288L461.68 509.367C445.008 507.006 439.373 495.625 433.238 482.822L426.024 486.279ZM426.084 486.401L426.085 486.401L433.177 482.701L433.177 482.7L426.084 486.401ZM400.827 464.195C408.292 464.195 412.947 466.696 416.504 470.43C420.293 474.406 422.952 479.87 426.023 486.279L433.238 482.822C430.3 476.692 427.124 469.978 422.296 464.911C417.237 459.602 410.494 456.195 400.827 456.195V464.195ZM375.629 486.279C378.7 479.871 381.36 474.406 385.148 470.43C388.706 466.696 393.361 464.195 400.827 464.195V456.195C391.159 456.195 384.416 459.602 379.357 464.911C374.528 469.978 371.352 476.692 368.415 482.822L375.629 486.279ZM341.095 517.288C362.397 514.271 369.616 498.827 375.629 486.279L368.415 482.822C362.28 495.625 356.645 507.006 339.973 509.367L341.095 517.288ZM305.499 517.285C313.498 518.461 318.94 518.978 324.175 518.925C329.395 518.872 334.283 518.252 341.095 517.288L339.973 509.367C333.15 510.333 328.732 510.878 324.094 510.925C319.472 510.972 314.505 510.523 306.663 509.37L305.499 517.285ZM266.183 461.456C267.264 476.452 270.079 489.362 276.199 499.083C282.465 509.035 291.976 515.299 305.5 517.285L306.662 509.37C295.277 507.698 287.898 502.65 282.969 494.82C277.894 486.759 275.21 475.418 274.163 460.881L266.183 461.456ZM311.45 391.095C295.03 393.477 282.728 400.81 275.052 413.082C267.481 425.188 264.752 441.562 266.183 461.456L274.163 460.882C272.794 441.864 275.517 427.426 281.835 417.324C288.049 407.389 298.072 401.12 312.599 399.012L311.45 391.095Z" fill="black" mask="url(#path-2-inside-1_975_29112)"/>
<path fill-rule="evenodd" clip-rule="evenodd" d="M372.021 484.551C365.947 497.226 359.52 510.639 340.533 513.328C326.899 515.258 321.92 515.657 306.08 513.328C281.171 509.67 272.3 490.702 270.172 461.169C267.373 422.258 281.076 399.544 312.024 395.054C335.891 391.591 370.197 391.512 400.826 391.512C431.454 391.512 465.76 391.591 489.628 395.054C520.575 399.544 534.278 422.258 531.479 461.169C529.352 490.702 520.48 509.67 495.571 513.328C479.731 515.657 474.753 515.258 461.118 513.328C442.131 510.639 435.704 497.226 429.63 484.551C423.622 472.012 417.959 460.195 400.826 460.195C383.692 460.195 378.03 472.012 372.021 484.551ZM400.275 454.471C384.008 454.471 373.162 468.603 367.458 479.701C366.409 481.741 365.504 483.802 364.616 485.823C360.619 494.923 356.972 503.225 342.223 505.172C329.278 506.881 325.362 507.234 310.323 505.172C286.674 501.935 278.252 485.146 276.232 459.005C273.574 424.563 286.584 404.458 315.966 400.484C338.625 397.419 371.196 397.349 400.275 397.349C429.259 397.349 461.723 397.419 484.309 400.484C513.594 404.458 526.562 424.563 523.913 459.005C521.9 485.146 513.505 501.935 489.933 505.172C474.944 507.234 470.232 506.881 457.33 505.172C446.319 505.172 442.048 495.695 437.73 486.113C436.752 483.945 435.773 481.771 434.712 479.701C429.026 468.603 416.488 454.471 400.275 454.471Z" fill="#090909"/>
<path opacity="0.25" fill-rule="evenodd" clip-rule="evenodd" d="M372.022 484.551C378.031 472.012 383.693 460.195 400.827 460.195C417.96 460.195 423.623 472.012 429.631 484.551C435.705 497.226 442.132 510.639 461.119 513.327C474.754 515.258 479.732 515.656 495.572 513.327C520.481 509.67 529.353 490.702 531.48 461.169C534.279 422.258 520.576 399.543 489.629 395.054C465.761 391.591 431.455 391.511 400.827 391.511C370.198 391.511 335.892 391.591 312.025 395.054C281.077 399.543 267.374 422.258 270.173 461.169C272.301 490.702 281.172 509.67 306.081 513.327C321.921 515.656 326.9 515.258 340.534 513.327C359.521 510.639 365.948 497.226 372.022 484.551Z" fill="#88C9F9"/>
<path d="M478.08 393.593C472.444 393.051 466.464 392.643 460.208 392.333L428.415 482.399C431.667 489.142 434.868 496.241 439.798 502.026L478.08 393.593ZM400.7 391.357C395.141 391.357 389.445 391.366 383.723 391.392L340.675 513.365C378.139 507.855 366.351 460.173 400.7 460.173C405.871 460.173 409.906 461.353 413.314 463.208L438.585 391.623C425.971 391.383 413.047 391.357 400.7 391.357Z" fill="white" fill-opacity="0.25"/>
<path d="M358.451 532.858C366.362 530.082 371.967 525.695 376.087 520.468C381.358 513.78 384.012 505.914 386.217 499.379L386.298 499.137L386.298 499.137C386.311 499.098 386.325 499.059 386.338 499.02C388.175 493.579 389.648 489.352 391.817 486.361C393.738 483.711 396.153 482.102 400.385 482.03C404.627 482.102 407.046 483.713 408.97 486.363C411.157 489.376 412.638 493.642 414.495 499.139L414.577 499.381C416.785 505.916 419.442 513.782 424.72 520.469C428.844 525.697 434.455 530.083 442.375 532.858L422.22 547.269C418.827 549.696 414.759 551 410.588 551H390.213C386.038 551 381.967 549.693 378.571 547.262L358.451 532.858Z" fill="#3C3C3C" stroke="black" stroke-width="8"/>
<path d="M400.385 478.03C411.637 478.185 414.69 487.22 418.285 497.858C422.799 511.217 434.501 531.113 451.695 531.113L415.355 548.215C412.158 549.72 408.158 550.839 405.903 548.119C398.022 538.613 399.578 502.704 400.385 478.03Z" fill="black" fill-opacity="0.25"/>
<path d="M449.977 636.662L449.978 636.664C467.967 667.714 501.388 687 537.24 687C592.811 687 638.018 641.794 638.018 586.222V175.556C638.018 163.104 627.914 153 615.462 153C603.011 153 592.907 163.104 592.907 175.556V586.222C592.907 616.92 567.938 641.889 537.24 641.889C517.437 641.889 498.959 631.227 489.022 614.074C482.784 603.279 468.999 599.605 458.2 605.85L458.2 605.85C447.417 612.088 443.741 625.882 449.977 636.662Z" fill="#82EB68" stroke="black" stroke-width="6"/>
<path d="M595.906 396H592.906V399V438.111V441.111H595.906H635.017H638.017V438.111V399V396H635.017H595.906ZM595.906 464.444H592.906V467.444V506.556V509.556H595.906H635.017H638.017V506.556V467.444V464.444H635.017H595.906Z" fill="#FFED00" stroke="black" stroke-width="6"/>
<path d="M451.574 635.16C469.027 665.285 501.46 684 536.24 684C590.155 684 634.018 640.137 634.018 586.222V175.556C634.018 164.761 625.257 156 614.462 156V586.222C614.462 608.444 609 635.16 589.5 650.5C514.625 697.522 472.906 640.224 458.702 608.447C449.355 613.854 446.167 625.812 451.574 635.16Z" fill="black" fill-opacity="0.25"/>
<path d="M495.16 629.56L495.161 629.56C506.738 625.091 512.553 611.984 508.085 600.396L508.084 600.395C503.616 588.818 490.499 583.003 478.92 587.471C478.92 587.471 478.92 587.471 478.92 587.471L442.43 601.551L442.429 601.551C430.852 606.02 425.037 619.137 429.506 630.716C433.974 642.293 447.091 648.109 458.67 643.64L495.16 629.56Z" fill="#3C3C3C" stroke="black" stroke-width="6"/>
<path d="M493.08 626.761L456.59 640.841C446.558 644.713 435.176 639.668 431.304 629.636C427.432 619.604 432.478 624.222 442.51 620.35L479 606.27C489.032 602.398 500.414 591.444 504.286 601.476C508.158 611.517 503.112 622.889 493.08 626.761Z" fill="black" fill-opacity="0.25"/>
<path d="M543 436H633C641.837 436 649 443.163 649 452C649 460.837 641.837 468 633 468H543V436Z" fill="#3C3C3C" stroke="black" stroke-width="4"/>
</g>
<defs>
<filter id="filter0_d_975_29112" x="0" y="0" width="1008" height="1011" filterUnits="userSpaceOnUse" color-interpolation-filters="sRGB">
<feFlood flood-opacity="0" result="BackgroundImageFix"/>
<feColorMatrix in="SourceAlpha" type="matrix" values="0 0 0 0 0 0 0 0 0 0 0 0 0 0 0 0 0 0 127 0" result="hardAlpha"/>
<feOffset dx="-1" dy="7"/>
<feGaussianBlur stdDeviation="2"/>
<feComposite in2="hardAlpha" operator="out"/>
<feColorMatrix type="matrix" values="0 0 0 0 0 0 0 0 0 0 0 0 0 0 0 0 0 0 0.25 0"/>
<feBlend mode="normal" in2="BackgroundImageFix" result="effect1_dropShadow_975_29112"/>
<feBlend mode="normal" in="SourceGraphic" in2="effect1_dropShadow_975_29112" result="shape"/>
</filter>
</defs>
</svg>
