<svg width="1000" height="1000" viewBox="0 0 1000 1000" fill="none" xmlns="http://www.w3.org/2000/svg">
<path d="M446.721 533.747C446.721 546.641 449.248 573.976 432.762 585.979C416.609 597.739 384.57 594.627 370.944 594.627C326.86 594.627 359.86 575 347.015 533.747C339.426 509.373 369.335 511.098 396.868 511.098C424.401 511.098 446.721 508.218 446.721 533.747Z" fill="#090909"/>
<g filter="url(#filter0_i_534_5943)">
<path d="M361.572 518.442C361.244 517.778 361.727 517 362.468 517H379.462C380.147 517 380.63 517.674 380.408 518.323L376.057 531.061C375.457 532.819 373.805 534 371.947 534V534C370.294 534 368.784 533.061 368.052 531.578L361.572 518.442Z" fill="white"/>
</g>
<g filter="url(#filter1_i_534_5943)">
<path d="M431.829 518.553C432.27 517.888 431.793 517 430.996 517H415.42C414.691 517 414.207 517.755 414.512 518.418L418.122 526.272C418.886 527.934 420.549 529 422.379 529V529C423.949 529 425.414 528.214 426.282 526.906L431.829 518.553Z" fill="white"/>
</g>
<g filter="url(#filter2_i_534_5943)">
<path d="M384.961 519.074C384.494 518.419 384.951 517.509 385.755 517.493L408.19 517.034C408.946 517.019 409.444 517.815 409.101 518.488L402.568 531.302C401.724 532.958 400.023 534 398.165 534V534C396.569 534 395.071 533.229 394.143 531.93L384.961 519.074Z" fill="white"/>
</g>
<g filter="url(#filter3_i_534_5943)">
<mask id="path-5-inside-1_534_5943" fill="white">
<path fill-rule="evenodd" clip-rule="evenodd" d="M365.95 622.164C344.99 622.164 300.933 616.614 306.539 584.342C312.145 552.071 338.204 541.659 351.001 541.659C360.603 541.659 388.63 546.349 403.76 555.142C412.581 551.421 422.751 550.794 425.01 551.037C428.71 551.436 438.487 554.538 438.37 563.13C438.108 582.193 420.616 583.755 416.916 583.356C415.869 583.243 413.124 582.583 409.785 581.489C401.408 601.922 380.383 622.85 365.95 622.164Z"/>
</mask>
<path fill-rule="evenodd" clip-rule="evenodd" d="M365.95 622.164C344.99 622.164 300.933 616.614 306.539 584.342C312.145 552.071 338.204 541.659 351.001 541.659C360.603 541.659 388.63 546.349 403.76 555.142C412.581 551.421 422.751 550.794 425.01 551.037C428.71 551.436 438.487 554.538 438.37 563.13C438.108 582.193 420.616 583.755 416.916 583.356C415.869 583.243 413.124 582.583 409.785 581.489C401.408 601.922 380.383 622.85 365.95 622.164Z" fill="#E40303"/>
<path d="M365.95 622.164V616.164H366.093L366.235 616.171L365.95 622.164ZM403.76 555.142L406.092 560.67L403.334 561.833L400.746 560.329L403.76 555.142ZM425.01 551.037L424.367 557.002L425.01 551.037ZM438.37 563.13L444.369 563.213L438.37 563.13ZM416.916 583.356L417.558 577.39H417.558L416.916 583.356ZM409.785 581.489L404.233 579.213L406.35 574.049L411.654 575.787L409.785 581.489ZM312.451 585.369C311.308 591.947 312.711 596.682 315.366 600.343C318.158 604.193 322.71 607.352 328.602 609.822C340.455 614.79 355.778 616.164 365.95 616.164V628.164C355.162 628.164 337.976 626.763 323.963 620.889C316.921 617.937 310.2 613.658 305.653 607.39C300.97 600.934 298.967 592.873 300.628 583.315L312.451 585.369ZM351.001 547.659C340.538 547.659 317.464 556.511 312.451 585.369L300.628 583.315C306.827 547.631 335.869 535.659 351.001 535.659V547.659ZM400.746 560.329C393.976 556.395 383.895 553.185 373.991 550.957C364.102 548.732 355.178 547.659 351.001 547.659V535.659C356.427 535.659 366.317 536.93 376.624 539.249C386.916 541.565 398.414 545.096 406.775 549.954L400.746 560.329ZM424.367 557.002C424.396 557.006 424.236 556.99 423.823 556.991C423.444 556.992 422.941 557.006 422.329 557.042C421.104 557.114 419.527 557.267 417.74 557.536C414.13 558.08 409.902 559.063 406.092 560.67L401.429 549.613C406.44 547.5 411.707 546.309 415.952 545.67C420.045 545.053 423.754 544.867 425.652 545.071L424.367 557.002ZM432.37 563.048C432.392 561.468 431.649 560.222 429.828 559.026C427.868 557.739 425.447 557.119 424.367 557.002L425.652 545.071C428.272 545.354 432.591 546.484 436.415 548.996C440.378 551.599 444.465 556.201 444.369 563.213L432.37 563.048ZM417.558 577.39C418.378 577.479 422.389 577.326 426.003 575.305C429.115 573.564 432.271 570.308 432.37 563.048L444.369 563.213C444.207 575.015 438.486 582.072 431.862 585.777C425.738 589.203 419.154 589.632 416.273 589.321L417.558 577.39ZM411.654 575.787C413.206 576.296 414.599 576.697 415.697 576.978C416.246 577.118 416.701 577.223 417.049 577.296C417.428 577.374 417.579 577.392 417.558 577.39L416.273 589.321C414.558 589.136 411.306 588.301 407.916 587.19L411.654 575.787ZM366.235 616.171C368.388 616.273 371.316 615.565 374.905 613.667C378.439 611.799 382.243 608.97 386.006 605.396C393.562 598.22 400.397 588.57 404.233 579.213L415.337 583.765C410.796 594.841 402.93 605.872 394.27 614.097C389.926 618.223 385.245 621.774 380.515 624.276C375.841 626.747 370.728 628.398 365.665 628.157L366.235 616.171Z" fill="black" mask="url(#path-5-inside-1_534_5943)"/>
<path d="M366.931 570.078C366.375 571.033 365.151 571.356 364.196 570.8C363.242 570.244 362.918 569.02 363.474 568.065L366.931 570.078ZM402.21 559.142C392.427 557.322 385.563 556.832 380.191 558.346C374.986 559.813 370.906 563.252 366.931 570.078L363.474 568.065C367.785 560.662 372.595 556.331 379.106 554.496C385.451 552.708 393.13 553.384 402.941 555.21L402.21 559.142Z" fill="black"/>
<path d="M419.934 570.944C421.068 570.944 422.017 570.074 422.054 569C422.09 567.927 421.2 567.056 420.066 567.056L419.934 570.944ZM409.975 575.977C411.239 571.786 412.444 571.087 413.258 570.858C413.841 570.694 414.593 570.669 415.773 570.736C416.854 570.797 418.354 570.943 419.934 570.944L420.066 567.056C418.646 567.056 417.473 566.931 416.15 566.855C414.927 566.786 413.544 566.758 412.204 567.135C409.172 567.988 407.378 570.539 406.025 575.023L409.975 575.977Z" fill="black"/>
<path d="M376.493 553.049C381.904 557.133 348.221 548.371 335.495 562.906C316.933 577.342 323.789 604.804 318.378 600.72C312.968 596.636 311.482 580.298 324.208 565.763C336.934 551.229 359.237 545.67 376.493 553.049Z" fill="white" fill-opacity="0.25"/>
</g>
<defs>
<filter id="filter0_i_534_5943" x="361.467" y="517" width="18.9956" height="17" filterUnits="userSpaceOnUse" color-interpolation-filters="sRGB">
<feFlood flood-opacity="0" result="BackgroundImageFix"/>
<feBlend mode="normal" in="SourceGraphic" in2="BackgroundImageFix" result="shape"/>
<feColorMatrix in="SourceAlpha" type="matrix" values="0 0 0 0 0 0 0 0 0 0 0 0 0 0 0 0 0 0 127 0" result="hardAlpha"/>
<feOffset dx="-5" dy="-8"/>
<feComposite in2="hardAlpha" operator="arithmetic" k2="-1" k3="1"/>
<feColorMatrix type="matrix" values="0 0 0 0 0 0 0 0 0 0 0 0 0 0 0 0 0 0 0.25 0"/>
<feBlend mode="normal" in2="shape" result="effect1_innerShadow_534_5943"/>
</filter>
<filter id="filter1_i_534_5943" x="414.419" y="517" width="17.5781" height="12" filterUnits="userSpaceOnUse" color-interpolation-filters="sRGB">
<feFlood flood-opacity="0" result="BackgroundImageFix"/>
<feBlend mode="normal" in="SourceGraphic" in2="BackgroundImageFix" result="shape"/>
<feColorMatrix in="SourceAlpha" type="matrix" values="0 0 0 0 0 0 0 0 0 0 0 0 0 0 0 0 0 0 127 0" result="hardAlpha"/>
<feOffset dx="-5" dy="-8"/>
<feComposite in2="hardAlpha" operator="arithmetic" k2="-1" k3="1"/>
<feColorMatrix type="matrix" values="0 0 0 0 0 0 0 0 0 0 0 0 0 0 0 0 0 0 0.25 0"/>
<feBlend mode="normal" in2="shape" result="effect1_innerShadow_534_5943"/>
</filter>
<filter id="filter2_i_534_5943" x="384.773" y="517.034" width="24.4385" height="16.9663" filterUnits="userSpaceOnUse" color-interpolation-filters="sRGB">
<feFlood flood-opacity="0" result="BackgroundImageFix"/>
<feBlend mode="normal" in="SourceGraphic" in2="BackgroundImageFix" result="shape"/>
<feColorMatrix in="SourceAlpha" type="matrix" values="0 0 0 0 0 0 0 0 0 0 0 0 0 0 0 0 0 0 127 0" result="hardAlpha"/>
<feOffset dx="-5" dy="-8"/>
<feComposite in2="hardAlpha" operator="arithmetic" k2="-1" k3="1"/>
<feColorMatrix type="matrix" values="0 0 0 0 0 0 0 0 0 0 0 0 0 0 0 0 0 0 0.25 0"/>
<feBlend mode="normal" in2="shape" result="effect1_innerShadow_534_5943"/>
</filter>
<filter id="filter3_i_534_5943" x="306.051" y="541.659" width="132.32" height="80.522" filterUnits="userSpaceOnUse" color-interpolation-filters="sRGB">
<feFlood flood-opacity="0" result="BackgroundImageFix"/>
<feBlend mode="normal" in="SourceGraphic" in2="BackgroundImageFix" result="shape"/>
<feColorMatrix in="SourceAlpha" type="matrix" values="0 0 0 0 0 0 0 0 0 0 0 0 0 0 0 0 0 0 127 0" result="hardAlpha"/>
<feOffset dx="-5" dy="-8"/>
<feComposite in2="hardAlpha" operator="arithmetic" k2="-1" k3="1"/>
<feColorMatrix type="matrix" values="0 0 0 0 0 0 0 0 0 0 0 0 0 0 0 0 0 0 0.25 0"/>
<feBlend mode="normal" in2="shape" result="effect1_innerShadow_534_5943"/>
</filter>
</defs>
</svg>
