<svg width="1000" height="1000" viewBox="0 0 1000 1000" fill="none" xmlns="http://www.w3.org/2000/svg">
<g filter="url(#filter0_d_464_4675)">
<path d="M742.289 106.705C732.457 123.986 639.862 223.952 637.194 226.56C628.338 235.22 609.799 255.136 606.492 265.528C602.359 278.517 625 311.493 646.051 316.304C666.15 320.898 682.421 295.639 690.923 285.012C694.072 281.076 693.284 282.06 702.731 270.842C714.026 257.429 745.832 205.305 753.507 187.002C761.183 168.699 772.532 148.88 774.762 103.162C775.943 78.9548 761.773 72.4602 742.289 106.705Z" fill="#FF7DEA" stroke="black" stroke-width="6"/>
<path d="M756.077 124.329C748.992 141.452 707.269 252.057 674.009 277.839C665.152 286.499 649.815 297.888 644.5 301.431C633.158 308.991 631.498 309.431 646.048 316.304C660.45 323.108 681.988 296.179 690.665 285.331L690.92 285.012C694.069 281.076 693.282 282.06 702.729 270.842C714.023 257.429 743.546 200.049 754.306 183.372C766.114 165.069 775.779 103.665 774.38 94.8084C771.863 78.867 771.142 87.9239 756.077 124.329Z" fill="black" fill-opacity="0.25"/>
<path d="M611 268.931C610.001 264.931 630.435 241.333 655.501 214.431C676 192.431 725.5 136.431 739.501 119.431C757.495 97.5807 759.5 87.9309 766.5 87.9309" stroke="white" stroke-opacity="0.25" stroke-width="6" stroke-linecap="round"/>
<path d="M746.29 320.685C729.286 337.69 701.689 335.821 690.2 337.808C662.834 344.147 682.14 391.962 690.2 398.544C696.575 403.75 705.079 409.367 733.891 395.669C769.907 378.547 789.391 364.377 794.114 330.723C798.959 296.206 846.072 299.43 849.024 289.984C851.976 280.537 846.44 268.138 815.96 268.138C784.668 268.138 767.545 299.43 746.29 320.685Z" fill="#FF7DEA" stroke="black" stroke-width="6"/>
<path d="M773.07 351.89C763.721 362.222 733.512 382.001 711.666 386.725C691.97 390.267 675.499 374.431 690.199 395.669C692.757 401.376 705.078 409.367 733.89 395.669C769.906 378.547 789.39 364.376 794.113 330.722C798.957 296.206 846.07 299.43 849.022 289.983C851.974 280.537 848.679 283.634 818.532 288.124C790.783 292.257 784.288 339.491 773.07 351.89Z" fill="black" fill-opacity="0.25"/>
<path d="M683 346.931C686.5 338.931 708.762 341.115 719.5 338.431C743.5 332.431 752.548 321.141 754.5 318.431C763.5 305.931 771.884 295.071 792.5 279.431C809.622 266.442 840.138 274.208 842.5 278.931" stroke="white" stroke-opacity="0.25" stroke-width="4" stroke-linecap="round"/>
<path d="M836.505 420.522C803.531 415.045 775.332 420.731 728.936 435.725C710.025 441.144 720.134 473.254 730.615 485.576C742.319 499.335 782.622 473.306 807.466 463.981C817.659 460.155 826.056 460.31 857.158 456.958C889.192 453.505 869.478 425.998 836.505 420.522Z" fill="#FF7DEA" stroke="black" stroke-width="6"/>
<path d="M869.403 440.827C850.08 428.49 756.5 467.318 752.216 468.123C725 472.931 721 469.431 730.615 485.576C739.857 501.095 794.589 468.183 805.999 462.431C814.033 458.381 854.999 455.931 863.499 454.931C875.768 453.488 873.991 443.757 869.403 440.827Z" fill="black" fill-opacity="0.25"/>
<path d="M724.946 443.952C728.125 439.726 741.741 436.211 779.245 427.333C816.041 418.622 845.738 426.681 858.644 432.211" stroke="white" stroke-opacity="0.25" stroke-width="4" stroke-linecap="round"/>
</g>
<g filter="url(#filter1_d_464_4675)">
<path d="M204.789 155.644C213.995 169.049 296.588 244.233 298.949 246.178C306.79 252.636 335.724 272.544 328.627 279.512C313.102 294.756 310.054 294.689 290.912 316.461C279.748 329.159 259.122 300.409 255.796 296.909C248.386 289.11 243.523 281.618 236.159 272.645C227.054 261.55 208.328 236.068 200.826 221.689C193.325 207.311 182.707 191.942 177.885 154.908C175.332 135.299 186.546 129.081 204.789 155.644Z" fill="#FF7DEA" stroke="black" stroke-width="6"/>
<path d="M194.617 170.889C201.556 184.346 243.06 271.543 272.065 290.314C279.906 296.772 283.767 298.758 288.364 301.288C298.175 306.687 298.355 308.383 287.935 316.885C277.697 325.238 266.322 305.346 258.644 297.265C255.8 294.272 256.511 295.02 248.018 286.521C237.864 276.359 209.862 231.643 199.933 218.79C189.037 204.684 177.083 155.384 177.652 148.089C178.677 134.958 179.862 142.276 194.617 170.889Z" fill="black" fill-opacity="0.25"/>
<path d="M324.732 277.061C325.291 273.742 305.468 257.746 283.121 237.523C264.845 220.985 220.524 178.711 207.913 165.81C191.704 149.228 189.896 142.78 184.146 143.242" stroke="white" stroke-opacity="0.25" stroke-width="6" stroke-linecap="round"/>
<path d="M215.494 329.935C230.573 342.641 260.425 339.348 263.187 340.959C277.712 343.399 265.67 345.115 243.534 390.868C241.597 394.872 232.986 395.512 223.271 390.749C193.843 376.32 182.95 368.315 176.87 341.257C170.633 313.505 132.147 319.24 129.104 311.752C126.062 304.264 129.798 293.814 154.833 291.801C180.535 289.734 196.646 314.053 215.494 329.935Z" fill="#FF7DEA" stroke="black" stroke-width="6"/>
<path d="M195.54 357.082C203.894 364.867 211.826 375.854 230.078 378.253C246.487 379.833 256.843 369.745 246.158 387.989C244.429 392.799 233.541 395.3 216.115 386.758C182.615 370.337 187.074 367.844 176.871 341.257C166.674 314.686 132.149 319.239 129.106 311.751C126.063 304.264 128.973 306.565 154.028 308.226C177.091 309.754 185.514 347.739 195.54 357.082Z" fill="black" fill-opacity="0.25"/>
<path d="M262.691 344.538C252.558 344.478 247.654 344.071 238.659 342.597C218.554 339.303 210.383 330.719 208.603 328.644C200.393 319.072 192.797 310.794 174.84 299.436C159.927 290.003 135.37 298.335 133.739 302.332" stroke="white" stroke-opacity="0.25" stroke-width="4" stroke-linecap="round"/>
<path d="M147.928 417.089C174.653 410.457 197.825 410.914 228.046 416.919C240.554 419.404 228.554 450.771 226.71 456.913C223.22 468.533 195.637 456.458 174.622 450.515C166 448.077 159.112 448.758 133.347 448.086C106.809 447.394 121.203 423.721 147.928 417.089Z" fill="#FF7DEA" stroke="black" stroke-width="6"/>
<path d="M122.233 435.776C132.486 431.753 197.214 445.214 200.785 445.586C223.453 447.699 232.63 443.78 225.789 457.546C219.213 470.778 186.008 451.379 175.724 449.158C164.504 446.735 135.052 447.108 128.005 446.857C117.834 446.493 118.061 437.414 122.233 435.776Z" fill="black" fill-opacity="0.25"/>
<path d="M228.575 421.567C225.813 419.956 221.177 418.685 198.533 416.827C167.288 414.264 136.957 421.594 128.309 431.847" stroke="white" stroke-opacity="0.25" stroke-width="4" stroke-linecap="round"/>
</g>
<defs>
<filter id="filter0_d_464_4675" x="598" y="79.9998" width="281.436" height="423.507" filterUnits="userSpaceOnUse" color-interpolation-filters="sRGB">
<feFlood flood-opacity="0" result="BackgroundImageFix"/>
<feColorMatrix in="SourceAlpha" type="matrix" values="0 0 0 0 0 0 0 0 0 0 0 0 0 0 0 0 0 0 127 0" result="hardAlpha"/>
<feOffset dx="-1" dy="7"/>
<feGaussianBlur stdDeviation="2"/>
<feComposite in2="hardAlpha" operator="out"/>
<feColorMatrix type="matrix" values="0 0 0 0 0 0 0 0 0 0 0 0 0 0 0 0 0 0 0.25 0"/>
<feBlend mode="normal" in2="BackgroundImageFix" result="effect1_dropShadow_464_4675"/>
<feBlend mode="normal" in="SourceGraphic" in2="effect1_dropShadow_464_4675" result="shape"/>
</filter>
<filter id="filter1_d_464_4675" x="111.25" y="134.9" width="224.486" height="340.878" filterUnits="userSpaceOnUse" color-interpolation-filters="sRGB">
<feFlood flood-opacity="0" result="BackgroundImageFix"/>
<feColorMatrix in="SourceAlpha" type="matrix" values="0 0 0 0 0 0 0 0 0 0 0 0 0 0 0 0 0 0 127 0" result="hardAlpha"/>
<feOffset dx="-1" dy="7"/>
<feGaussianBlur stdDeviation="2"/>
<feComposite in2="hardAlpha" operator="out"/>
<feColorMatrix type="matrix" values="0 0 0 0 0 0 0 0 0 0 0 0 0 0 0 0 0 0 0.25 0"/>
<feBlend mode="normal" in2="BackgroundImageFix" result="effect1_dropShadow_464_4675"/>
<feBlend mode="normal" in="SourceGraphic" in2="effect1_dropShadow_464_4675" result="shape"/>
</filter>
</defs>
</svg>
