<svg width="1000" height="1000" viewBox="0 0 1000 1000" fill="none" xmlns="http://www.w3.org/2000/svg">
<rect x="406.5" y="350.5" width="21" height="21" rx="10.5" fill="#5F3016" stroke="black" stroke-width="3"/>
<path fill-rule="evenodd" clip-rule="evenodd" d="M405.166 363C406.118 368.676 411.054 373 417 373C422.946 373 427.882 368.676 428.834 363H405.166Z" fill="black" fill-opacity="0.25"/>
<ellipse rx="1.33333" ry="1.58105" transform="matrix(1 0 0 -1 411.878 356.079)" fill="white" fill-opacity="0.25"/>
<rect x="585.5" y="456.5" width="21" height="21" rx="10.5" fill="#5F3016" stroke="black" stroke-width="3"/>
<path fill-rule="evenodd" clip-rule="evenodd" d="M584.166 469C585.118 474.676 590.054 479 596 479C601.946 479 606.882 474.676 607.834 469H584.166Z" fill="black" fill-opacity="0.25"/>
<ellipse rx="1.33333" ry="1.58105" transform="matrix(1 0 0 -1 590.878 462.079)" fill="white" fill-opacity="0.25"/>
<rect x="651.5" y="375.5" width="21" height="21" rx="10.5" fill="#5F3016" stroke="black" stroke-width="3"/>
<path fill-rule="evenodd" clip-rule="evenodd" d="M650.166 388C651.118 393.676 656.054 398 662 398C667.946 398 672.882 393.676 673.834 388H650.166Z" fill="black" fill-opacity="0.25"/>
<ellipse rx="1.33333" ry="1.58105" transform="matrix(1 0 0 -1 656.878 381.079)" fill="white" fill-opacity="0.25"/>
<rect x="676.5" y="275.5" width="21" height="21" rx="10.5" fill="#5F3016" stroke="black" stroke-width="3"/>
<path fill-rule="evenodd" clip-rule="evenodd" d="M675.166 288C676.118 293.676 681.054 298 687 298C692.946 298 697.882 293.676 698.834 288H675.166Z" fill="black" fill-opacity="0.25"/>
<ellipse rx="1.33333" ry="1.58105" transform="matrix(1 0 0 -1 681.878 281.079)" fill="white" fill-opacity="0.25"/>
<rect x="548.5" y="332.5" width="21" height="21" rx="10.5" fill="#5F3016" stroke="black" stroke-width="3"/>
<path fill-rule="evenodd" clip-rule="evenodd" d="M547.166 345C548.118 350.676 553.054 355 559 355C564.946 355 569.882 350.676 570.834 345H547.166Z" fill="black" fill-opacity="0.25"/>
<ellipse rx="1.33333" ry="1.58105" transform="matrix(1 0 0 -1 553.878 338.079)" fill="white" fill-opacity="0.25"/>
<rect x="460.5" y="300.5" width="21" height="21" rx="10.5" fill="#5F3016" stroke="black" stroke-width="3"/>
<path fill-rule="evenodd" clip-rule="evenodd" d="M459.166 313C460.118 318.676 465.054 323 471 323C476.946 323 481.882 318.676 482.834 313H459.166Z" fill="black" fill-opacity="0.25"/>
<ellipse rx="1.33333" ry="1.58105" transform="matrix(1 0 0 -1 465.878 306.079)" fill="white" fill-opacity="0.25"/>
<rect x="311.5" y="327.5" width="21" height="21" rx="10.5" fill="#5F3016" stroke="black" stroke-width="3"/>
<path fill-rule="evenodd" clip-rule="evenodd" d="M310.166 340C311.118 345.676 316.054 350 322 350C327.946 350 332.882 345.676 333.834 340H310.166Z" fill="black" fill-opacity="0.25"/>
<ellipse rx="1.33333" ry="1.58105" transform="matrix(1 0 0 -1 316.878 333.079)" fill="white" fill-opacity="0.25"/>
<rect x="251.5" y="370.5" width="21" height="21" rx="10.5" fill="#5F3016" stroke="black" stroke-width="3"/>
<path fill-rule="evenodd" clip-rule="evenodd" d="M250.166 383C251.118 388.676 256.054 393 262 393C267.946 393 272.882 388.676 273.834 383H250.166Z" fill="black" fill-opacity="0.25"/>
<ellipse rx="1.33333" ry="1.58105" transform="matrix(1 0 0 -1 256.878 376.079)" fill="white" fill-opacity="0.25"/>
<rect x="273.5" y="550.5" width="21" height="21" rx="10.5" fill="#5F3016" stroke="black" stroke-width="3"/>
<path fill-rule="evenodd" clip-rule="evenodd" d="M272.166 563C273.118 568.676 278.054 573 284 573C289.946 573 294.882 568.676 295.834 563H272.166Z" fill="black" fill-opacity="0.25"/>
<ellipse rx="1.33333" ry="1.58105" transform="matrix(1 0 0 -1 278.878 556.079)" fill="white" fill-opacity="0.25"/>
<rect x="261.5" y="630.5" width="21" height="21" rx="10.5" fill="#5F3016" stroke="black" stroke-width="3"/>
<path fill-rule="evenodd" clip-rule="evenodd" d="M260.166 643C261.118 648.676 266.054 653 272 653C277.946 653 282.882 648.676 283.834 643H260.166Z" fill="black" fill-opacity="0.25"/>
<ellipse rx="1.33333" ry="1.58105" transform="matrix(1 0 0 -1 266.878 636.079)" fill="white" fill-opacity="0.25"/>
<rect x="406.5" y="662.5" width="21" height="21" rx="10.5" fill="#5F3016" stroke="black" stroke-width="3"/>
<path fill-rule="evenodd" clip-rule="evenodd" d="M405.166 675C406.118 680.676 411.054 685 417 685C422.946 685 427.882 680.676 428.834 675H405.166Z" fill="black" fill-opacity="0.25"/>
<ellipse rx="1.33333" ry="1.58105" transform="matrix(1 0 0 -1 411.878 668.079)" fill="white" fill-opacity="0.25"/>
<rect x="496.5" y="550.5" width="21" height="21" rx="10.5" fill="#5F3016" stroke="black" stroke-width="3"/>
<path fill-rule="evenodd" clip-rule="evenodd" d="M495.166 563C496.118 568.676 501.054 573 507 573C512.946 573 517.882 568.676 518.834 563H495.166Z" fill="black" fill-opacity="0.25"/>
<ellipse rx="1.33333" ry="1.58105" transform="matrix(1 0 0 -1 501.878 556.079)" fill="white" fill-opacity="0.25"/>
<rect x="315.5" y="439.5" width="21" height="21" rx="10.5" fill="#5F3016" stroke="black" stroke-width="3"/>
<path fill-rule="evenodd" clip-rule="evenodd" d="M314.166 452C315.118 457.676 320.054 462 326 462C331.946 462 336.882 457.676 337.834 452H314.166Z" fill="black" fill-opacity="0.25"/>
<ellipse rx="1.33333" ry="1.58105" transform="matrix(1 0 0 -1 320.878 445.079)" fill="white" fill-opacity="0.25"/>
<rect x="243.5" y="493.5" width="21" height="21" rx="10.5" fill="#5F3016" stroke="black" stroke-width="3"/>
<path fill-rule="evenodd" clip-rule="evenodd" d="M242.166 506C243.118 511.676 248.054 516 254 516C259.946 516 264.882 511.676 265.834 506H242.166Z" fill="black" fill-opacity="0.25"/>
<ellipse rx="1.33333" ry="1.58105" transform="matrix(1 0 0 -1 248.878 499.079)" fill="white" fill-opacity="0.25"/>
<rect x="317.5" y="708.5" width="21" height="21" rx="10.5" fill="#5F3016" stroke="black" stroke-width="3"/>
<path fill-rule="evenodd" clip-rule="evenodd" d="M316.166 721C317.118 726.676 322.054 731 328 731C333.946 731 338.882 726.676 339.834 721H316.166Z" fill="black" fill-opacity="0.25"/>
<ellipse rx="1.33333" ry="1.58105" transform="matrix(1 0 0 -1 322.878 714.079)" fill="white" fill-opacity="0.25"/>
<rect x="540.5" y="613.5" width="21" height="21" rx="10.5" fill="#5F3016" stroke="black" stroke-width="3"/>
<path fill-rule="evenodd" clip-rule="evenodd" d="M539.166 626C540.118 631.676 545.054 636 551 636C556.946 636 561.882 631.676 562.834 626H539.166Z" fill="black" fill-opacity="0.25"/>
<ellipse rx="1.33333" ry="1.58105" transform="matrix(1 0 0 -1 545.878 619.079)" fill="white" fill-opacity="0.25"/>
<rect x="627.5" y="574.5" width="21" height="21" rx="10.5" fill="#5F3016" stroke="black" stroke-width="3"/>
<path fill-rule="evenodd" clip-rule="evenodd" d="M626.166 587C627.118 592.676 632.054 597 638 597C643.946 597 648.882 592.676 649.834 587H626.166Z" fill="black" fill-opacity="0.25"/>
<ellipse rx="1.33333" ry="1.58105" transform="matrix(1 0 0 -1 632.878 580.079)" fill="white" fill-opacity="0.25"/>
<rect x="657.5" y="531.5" width="21" height="21" rx="10.5" fill="#5F3016" stroke="black" stroke-width="3"/>
<path fill-rule="evenodd" clip-rule="evenodd" d="M656.166 544C657.118 549.676 662.054 554 668 554C673.946 554 678.882 549.676 679.834 544H656.166Z" fill="black" fill-opacity="0.25"/>
<ellipse rx="1.33333" ry="1.58105" transform="matrix(1 0 0 -1 662.878 537.079)" fill="white" fill-opacity="0.25"/>
<rect x="723.5" y="358.5" width="21" height="21" rx="10.5" fill="#5F3016" stroke="black" stroke-width="3"/>
<path fill-rule="evenodd" clip-rule="evenodd" d="M722.166 371C723.118 376.676 728.054 381 734 381C739.946 381 744.882 376.676 745.834 371H722.166Z" fill="black" fill-opacity="0.25"/>
<ellipse rx="1.33333" ry="1.58105" transform="matrix(1 0 0 -1 728.878 364.079)" fill="white" fill-opacity="0.25"/>
<rect x="630.5" y="308.5" width="21" height="21" rx="10.5" fill="#5F3016" stroke="black" stroke-width="3"/>
<path fill-rule="evenodd" clip-rule="evenodd" d="M629.166 321C630.118 326.676 635.054 331 641 331C646.946 331 651.882 326.676 652.834 321H629.166Z" fill="black" fill-opacity="0.25"/>
<ellipse rx="1.33333" ry="1.58105" transform="matrix(1 0 0 -1 635.878 314.079)" fill="white" fill-opacity="0.25"/>
<rect x="735.5" y="533.5" width="21" height="21" rx="10.5" fill="#5F3016" stroke="black" stroke-width="3"/>
<path fill-rule="evenodd" clip-rule="evenodd" d="M734.166 546C735.118 551.676 740.054 556 746 556C751.946 556 756.882 551.676 757.834 546H734.166Z" fill="black" fill-opacity="0.25"/>
<ellipse rx="1.33333" ry="1.58105" transform="matrix(1 0 0 -1 740.878 539.079)" fill="white" fill-opacity="0.25"/>
<rect x="496.5" y="386.5" width="21" height="21" rx="10.5" fill="#5F3016" stroke="black" stroke-width="3"/>
<path fill-rule="evenodd" clip-rule="evenodd" d="M495.166 399C496.118 404.676 501.054 409 507 409C512.946 409 517.882 404.676 518.834 399H495.166Z" fill="black" fill-opacity="0.25"/>
<ellipse rx="1.33333" ry="1.58105" transform="matrix(1 0 0 -1 501.878 392.079)" fill="white" fill-opacity="0.25"/>
<rect x="385.5" y="265.5" width="21" height="21" rx="10.5" fill="#5F3016" stroke="black" stroke-width="3"/>
<path fill-rule="evenodd" clip-rule="evenodd" d="M384.166 278C385.118 283.676 390.054 288 396 288C401.946 288 406.882 283.676 407.834 278H384.166Z" fill="black" fill-opacity="0.25"/>
<ellipse rx="1.33333" ry="1.58105" transform="matrix(1 0 0 -1 390.878 271.079)" fill="white" fill-opacity="0.25"/>
<rect x="684.5" y="441.5" width="21" height="21" rx="10.5" fill="#5F3016" stroke="black" stroke-width="3"/>
<path fill-rule="evenodd" clip-rule="evenodd" d="M683.166 454C684.118 459.676 689.054 464 695 464C700.946 464 705.882 459.676 706.834 454H683.166Z" fill="black" fill-opacity="0.25"/>
<ellipse rx="1.33333" ry="1.58105" transform="matrix(1 0 0 -1 689.878 447.079)" fill="white" fill-opacity="0.25"/>
<rect x="526.5" y="712.5" width="21" height="21" rx="10.5" fill="#5F3016" stroke="black" stroke-width="3"/>
<path fill-rule="evenodd" clip-rule="evenodd" d="M525.166 725C526.118 730.676 531.054 735 537 735C542.946 735 547.882 730.676 548.834 725H525.166Z" fill="black" fill-opacity="0.25"/>
<ellipse rx="1.33333" ry="1.58105" transform="matrix(1 0 0 -1 531.878 718.079)" fill="white" fill-opacity="0.25"/>
<rect x="484.5" y="674.5" width="21" height="21" rx="10.5" fill="#5F3016" stroke="black" stroke-width="3"/>
<path fill-rule="evenodd" clip-rule="evenodd" d="M483.166 687C484.118 692.676 489.054 697 495 697C500.946 697 505.882 692.676 506.834 687H483.166Z" fill="black" fill-opacity="0.25"/>
<ellipse rx="1.33333" ry="1.58105" transform="matrix(1 0 0 -1 489.878 680.079)" fill="white" fill-opacity="0.25"/>
<rect x="651.5" y="650.5" width="21" height="21" rx="10.5" fill="#5F3016" stroke="black" stroke-width="3"/>
<path fill-rule="evenodd" clip-rule="evenodd" d="M650.166 663C651.118 668.676 656.054 673 662 673C667.946 673 672.882 668.676 673.834 663H650.166Z" fill="black" fill-opacity="0.25"/>
<ellipse rx="1.33333" ry="1.58105" transform="matrix(1 0 0 -1 656.878 656.079)" fill="white" fill-opacity="0.25"/>
<rect x="603.5" y="657.5" width="21" height="21" rx="10.5" fill="#5F3016" stroke="black" stroke-width="3"/>
<path fill-rule="evenodd" clip-rule="evenodd" d="M602.166 670C603.118 675.676 608.054 680 614 680C619.946 680 624.882 675.676 625.834 670H602.166Z" fill="black" fill-opacity="0.25"/>
<ellipse rx="1.33333" ry="1.58105" transform="matrix(1 0 0 -1 608.878 663.079)" fill="white" fill-opacity="0.25"/>
</svg>
