<svg width="1000" height="1006" viewBox="0 0 1000 1006" fill="none" xmlns="http://www.w3.org/2000/svg">
<mask id="path-1-inside-1_102_27187" fill="white">
<path fill-rule="evenodd" clip-rule="evenodd" d="M559.116 267.55C565.071 268.635 571.086 270.223 577.081 272.34C615.654 285.961 641.125 317.141 641.068 347.209C646.302 346.404 651.545 345.355 656.785 344.054C750.302 320.834 807.29 226.2 784.07 132.683C763.39 49.3938 686.062 -4.91935 603.328 0.600694C615.51 18.7579 624.783 39.2729 630.344 61.6711C660.224 154.895 623.542 226.044 559.116 267.55Z"/>
</mask>
<path fill-rule="evenodd" clip-rule="evenodd" d="M559.116 267.55C565.071 268.635 571.086 270.223 577.081 272.34C615.654 285.961 641.125 317.141 641.068 347.209C646.302 346.404 651.545 345.355 656.785 344.054C750.302 320.834 807.29 226.2 784.07 132.683C763.39 49.3938 686.062 -4.91935 603.328 0.600694C615.51 18.7579 624.783 39.2729 630.344 61.6711C660.224 154.895 623.542 226.044 559.116 267.55Z" fill="#FFED00"/>
<path d="M559.116 267.55L554.783 260.825L537.76 271.792L557.683 275.421L559.116 267.55ZM577.081 272.34L579.745 264.796L579.745 264.796L577.081 272.34ZM641.068 347.209L633.068 347.194L633.05 356.536L642.284 355.116L641.068 347.209ZM603.328 0.600694L602.795 -7.38156L588.958 -6.45833L596.685 5.05792L603.328 0.600694ZM630.344 61.6711L622.58 63.5989L622.645 63.8583L622.726 64.1128L630.344 61.6711ZM557.683 275.421C563.218 276.429 568.822 277.907 574.417 279.883L579.745 264.796C573.35 262.538 566.924 260.841 560.55 259.68L557.683 275.421ZM574.417 279.883C610.91 292.77 633.117 321.578 633.068 347.194L649.068 347.224C649.134 312.704 620.397 279.152 579.745 264.796L574.417 279.883ZM654.857 336.289C649.853 337.532 644.847 338.533 639.852 339.302L642.284 355.116C647.757 354.274 653.238 353.177 658.713 351.818L654.857 336.289ZM776.306 134.611C798.461 223.84 744.086 314.134 654.857 336.289L658.713 351.818C756.518 327.534 816.119 228.561 791.834 130.755L776.306 134.611ZM603.861 8.58295C682.796 3.31637 756.576 55.1488 776.306 134.611L791.834 130.755C770.204 43.6387 689.329 -13.1551 602.795 -7.38156L603.861 8.58295ZM638.109 59.7433C632.32 36.4291 622.663 15.06 609.971 -3.85653L596.685 5.05792C608.358 22.4558 617.246 42.1168 622.58 63.5989L638.109 59.7433ZM563.449 274.275C596.821 252.775 623.346 223.371 637.549 186.909C651.779 150.378 653.396 107.382 637.963 59.2293L622.726 64.1128C637.172 109.184 635.388 148.375 622.64 181.101C609.866 213.896 585.836 240.819 554.783 260.825L563.449 274.275Z" fill="black" mask="url(#path-1-inside-1_102_27187)"/>
<path d="M739.8 88.9526C711.548 40.6154 654.382 19.2279 617.044 8.09866C697.289 2.75889 760.526 59.3465 777.483 140.92C809.048 292.76 648.961 351.902 646.989 338.102C723.874 302.449 813.082 187.758 739.8 88.9526Z" fill="black" fill-opacity="0.25"/>
<path d="M559.261 267.624C564.533 262.676 609.927 285.752 619.857 299.002C640.856 321.853 642.553 332.188 641.567 346.973C630.514 352.174 633.9 325.043 611.756 303.597C582.866 275.616 553.989 272.573 559.261 267.624Z" fill="black" fill-opacity="0.25"/>
<path d="M693.316 175.955C693.316 178.803 692.755 181.622 691.665 184.253C690.576 186.884 688.978 189.275 686.965 191.289C684.951 193.302 682.56 194.9 679.929 195.99C677.298 197.079 674.479 197.64 671.631 197.64C668.783 197.64 665.963 197.079 663.332 195.99C660.701 194.9 658.311 193.302 656.297 191.289C654.283 189.275 652.686 186.884 651.596 184.253C650.506 181.622 649.945 178.803 649.945 175.955" stroke="black" stroke-width="8" stroke-linecap="round"/>
<path d="M701.202 160.184C707.735 160.184 713.031 152.681 713.031 143.427C713.031 134.172 707.735 126.67 701.202 126.67C694.67 126.67 689.374 134.172 689.374 143.427C689.374 152.681 694.67 160.184 701.202 160.184Z" fill="black"/>
<circle r="3.9428" transform="matrix(-1 0 0 1 695.289 138.498)" fill="white"/>
<path d="M657.831 160.184C664.364 160.184 669.66 152.681 669.66 143.427C669.66 134.172 664.364 126.67 657.831 126.67C651.299 126.67 646.003 134.172 646.003 143.427C646.003 152.681 651.299 160.184 657.831 160.184Z" fill="black"/>
<circle r="3.9428" transform="matrix(-1 0 0 1 652.903 138.498)" fill="white"/>
</svg>
