<svg width="1000" height="1000" viewBox="0 0 1000 1000" fill="none" xmlns="http://www.w3.org/2000/svg">
<g clip-path="url(#clip0_277_214199)">
<g filter="url(#filter0_d_277_214199)">
<mask id="mask0_277_214199" style="mask-type:alpha" maskUnits="userSpaceOnUse" x="476" y="-57" width="326" height="412">
<path fill-rule="evenodd" clip-rule="evenodd" d="M756.377 336.007L801.775 -56.5468L486.25 180.194C482.455 181.501 479.673 183.538 478.053 186.344C466.426 206.483 519.037 258.625 595.564 302.808C672.091 346.991 743.554 366.483 755.181 346.344C756.823 343.499 757.184 340.016 756.377 336.007Z" fill="#C4C4C4"/>
</mask>
<g mask="url(#mask0_277_214199)">
<rect x="391.309" y="29.3862" width="461.099" height="87.0939" transform="rotate(-22.701 391.309 29.3862)" fill="#E40303" stroke="white" stroke-width="8"/>
<rect x="424.92" y="109.733" width="461.099" height="87.0939" transform="rotate(-22.701 424.92 109.733)" fill="#FF8C00" stroke="white" stroke-width="8"/>
<rect x="458.533" y="190.08" width="461.099" height="88.225" transform="rotate(-22.701 458.533 190.08)" fill="#FFED00" stroke="white" stroke-width="8"/>
<rect x="492.58" y="271.47" width="461.099" height="87.0939" transform="rotate(-22.701 492.58 271.47)" fill="#008026" stroke="white" stroke-width="8"/>
<rect x="526.191" y="351.817" width="461.099" height="87.0939" transform="rotate(-22.701 526.191 351.817)" fill="#004DFF" stroke="white" stroke-width="8"/>
</g>
<path d="M796.733 -47.7624L752.403 335.547L752.33 336.176L752.455 336.797C753.131 340.151 752.739 342.574 751.717 344.344C749.904 347.485 745.178 349.949 735.966 350.253C727.003 350.548 715.026 348.728 700.763 344.838C672.295 337.073 635.619 321.315 597.564 299.344C559.51 277.373 527.525 253.49 506.567 232.719C496.066 222.311 488.501 212.849 484.276 204.94C479.932 196.809 479.704 191.485 481.517 188.344C482.525 186.598 484.39 185.065 487.553 183.976L488.148 183.771L488.651 183.393L796.733 -47.7624Z" stroke="black" stroke-width="8"/>
<path d="M756.377 336.007L801.775 -56.5466L693.477 340.377C707.194 344.407 717.908 354.482 755.181 346.344C756.823 343.499 757.184 340.016 756.377 336.007Z" fill="black" fill-opacity="0.16"/>
</g>
<path d="M365.126 186.676C367.775 188.5 370.906 189.089 373.835 188.555C376.749 188.03 379.489 186.389 381.295 183.743C384.955 178.465 383.548 171.236 378.275 167.6L378.273 167.599C375.284 165.543 373.686 163.644 372.911 162.279C372.666 161.847 372.512 161.484 372.419 161.198C372.454 161.196 372.491 161.193 372.53 161.191C373.52 161.166 376.231 161.411 380.526 164.359C397.509 176.044 413.983 172.47 421.293 161.879L421.294 161.879C428.613 151.273 426.049 134.636 409.073 122.966C406.079 120.907 404.478 119.008 403.702 117.644C403.459 117.217 403.305 116.857 403.212 116.573C403.247 116.57 403.284 116.568 403.322 116.567C404.294 116.533 406.99 116.753 411.304 119.725L411.307 119.727C428.305 131.398 444.769 127.841 452.098 117.239L452.099 117.238C459.417 106.633 456.86 89.9877 439.878 78.325C434.57 74.6698 427.341 75.9737 423.704 81.2486C420.036 86.5349 421.437 93.7538 426.722 97.3962L426.723 97.3974C429.716 99.4553 431.312 101.354 432.084 102.716C432.329 103.148 432.483 103.512 432.576 103.798C432.539 103.801 432.5 103.804 432.46 103.806C431.505 103.841 428.791 103.603 424.469 100.637C407.494 88.9555 391.022 92.5321 383.703 103.116L383.703 103.116C379.583 109.075 378.736 116.695 381.216 123.976L381.216 123.978C383.565 130.852 388.718 137.073 395.931 142.034C398.915 144.088 400.516 145.989 401.293 147.356C401.544 147.797 401.7 148.166 401.793 148.454C401.489 148.471 401.085 148.457 400.58 148.38C399.022 148.143 396.671 147.327 393.685 145.278C376.692 133.599 360.207 137.166 352.905 147.764C348.797 153.725 347.939 161.339 350.419 168.622C352.759 175.493 357.913 181.714 365.126 186.676ZM372.293 160.554C372.293 160.554 372.293 160.565 372.291 160.583C372.291 160.563 372.292 160.554 372.293 160.554ZM403.083 115.922C403.084 115.922 403.084 115.932 403.081 115.951C403.081 115.931 403.082 115.922 403.083 115.922ZM432.701 104.442C432.7 104.442 432.7 104.432 432.703 104.415C432.703 104.434 432.701 104.443 432.701 104.442ZM401.914 149.079C401.913 149.079 401.913 149.068 401.915 149.048C401.916 149.07 401.914 149.08 401.914 149.079ZM402.39 148.356C402.408 148.347 402.418 148.343 402.418 148.343C402.419 148.344 402.41 148.349 402.39 148.356Z" fill="#9F50FF" stroke="black" stroke-width="4"/>
<path d="M855.519 409.068L855.607 409.137L855.703 409.197C865.974 415.604 879.607 415.304 889.074 409.946C893.845 407.246 897.668 403.196 899.389 397.948C901.118 392.679 900.641 386.465 897.296 379.622C896.132 377.24 894.326 375.867 892.108 375.557C890.053 375.269 887.969 375.944 886.18 376.862C882.653 378.67 879.296 381.93 877.529 384.136C876.064 385.475 874.912 385.864 874.177 385.896C873.481 385.926 872.96 385.651 872.583 385.164C871.777 384.122 871.494 381.703 873.553 379.367C876.043 376.542 880.147 369.058 881.627 360.66C883.119 352.194 882.01 342.293 873.295 335.387C863.261 327.437 846.647 328.734 834.066 344.614C832.394 346.145 831.351 346.737 830.808 346.917C830.707 346.548 830.641 345.894 830.705 344.938C830.776 343.884 830.986 342.714 831.248 341.664C841.555 314.718 833.578 300.066 827.023 295.83C822.654 291.906 815.675 290.013 808.795 290.567C801.787 291.131 794.531 294.26 789.868 300.844C786.058 306.223 785.867 311.832 787.152 316.551C788.418 321.201 791.119 325.043 793.263 327.208L793.349 327.295L793.445 327.37C798.379 331.267 805.5 330.528 809.483 325.694C810.099 325.235 810.789 324.811 811.433 324.53C812.097 324.241 812.491 324.199 812.654 324.208C812.678 324.259 812.712 324.348 812.744 324.49C812.884 325.118 812.889 326.354 812.396 328.52C808.26 337.689 805.839 345.573 805.672 352.182C805.501 358.958 807.709 364.448 812.778 368.459C821.241 375.154 839.414 375.197 852.083 359.142C854.509 356.428 856.19 354.884 857.285 354.108C857.28 354.149 857.275 354.191 857.269 354.235C857.184 354.89 857.018 355.676 856.785 356.552C856.319 358.302 855.621 360.276 854.907 362.04C849.085 376.433 846.685 386.175 847.036 393.337C847.214 396.972 848.099 399.964 849.606 402.551C851.102 405.122 853.154 407.193 855.519 409.068ZM858.314 353.533C858.314 353.533 858.31 353.534 858.303 353.535C858.31 353.533 858.314 353.532 858.314 353.533Z" fill="#FF8C00" stroke="black" stroke-width="4"/>
<path d="M733.555 226.381L733.445 226.448L733.344 226.528C728.398 230.464 727.548 237.632 731.462 242.598C732.46 244.163 734.399 246.011 737.175 246.805C740.094 247.64 743.66 247.232 747.613 244.624C758.608 238.328 777.135 229.454 796.951 223.313C816.849 217.148 837.668 213.86 853.445 218.327C857.167 219.714 861.252 219.886 864.795 219.191C868.301 218.504 871.624 216.892 873.426 214.353C874.358 213.041 874.878 211.475 874.739 209.752C874.601 208.051 873.835 206.386 872.54 204.811C869.993 201.713 865.148 198.648 857.483 195.767C854.225 194.542 849.72 193.982 844.8 193.801C839.835 193.619 834.261 193.82 828.766 194.216C817.775 195.008 806.956 196.59 801.651 197.531L801.6 197.54L801.55 197.551C775.25 203.621 745.265 219.306 733.555 226.381Z" fill="#9F50FF" stroke="black" stroke-width="4"/>
<path d="M213.467 96.138C213.417 96.1838 213.311 96.2976 213.154 96.4677C212.296 97.3955 209.891 99.9964 206.473 102.345C202.383 105.156 197.778 106.905 193.801 105.167C191.7 104.249 189.706 100.912 189.922 96.0341C190.13 91.346 192.437 85.6989 198.248 81.0636C201.192 78.7153 206.326 75.6142 212.868 72.0077C219.374 68.4208 227.146 64.4011 235.289 60.2152C236.307 59.6921 237.33 59.1664 238.358 58.6385C253.729 50.743 270.015 42.3771 281.039 35.4186C281.662 35.0252 282.243 34.5568 282.762 34.0159C286.203 30.4282 288.3 27.0668 289.189 24.0362C290.089 20.9699 289.764 18.1563 288.22 15.9861C285.176 11.7072 278.593 11.2504 272.485 13.8329L273.264 15.675L272.485 13.8329C264.707 17.1214 241.325 27.4061 218.949 41.3328C207.764 48.2945 196.766 56.2052 188.083 64.6507C179.46 73.0376 172.921 82.1427 170.96 91.5471C169.339 97.116 168.693 110.23 179.313 118.722C187.544 127.192 197.456 128.222 206.427 125.985C215.335 123.764 223.442 118.316 228.566 113.629C229.296 112.96 229.911 112.165 230.377 111.302C232.853 106.716 234.013 102.756 234.013 99.5069C234.014 96.2099 232.802 93.5352 230.48 91.9714C228.219 90.4486 225.301 90.2479 222.393 90.9925C219.466 91.7419 216.368 93.4813 213.467 96.138Z" fill="#FF8C00" stroke="black" stroke-width="4"/>
<path d="M468.502 171C477.615 171 485.002 163.613 485.002 154.5C485.002 145.387 477.615 138 468.502 138C459.389 138 452.002 145.387 452.002 154.5C452.002 163.613 459.389 171 468.502 171Z" fill="#82EB68" stroke="black" stroke-width="4"/>
<path d="M301.002 205C312.649 205 322.002 195.325 322.002 183.5C322.002 171.675 312.649 162 301.002 162C289.355 162 280.002 171.675 280.002 183.5C280.002 195.325 289.355 205 301.002 205Z" fill="#FF7DEA" stroke="black" stroke-width="4"/>
<path d="M535.502 266C544.548 266 552.002 258.902 552.002 250C552.002 241.098 544.548 234 535.502 234C526.456 234 519.002 241.098 519.002 250C519.002 258.902 526.456 266 535.502 266Z" fill="#82EB68" stroke="black" stroke-width="4"/>
<path d="M606.5 415C615.613 415 623 407.613 623 398.5C623 389.387 615.613 382 606.5 382C597.387 382 590 389.387 590 398.5C590 407.613 597.387 415 606.5 415Z" fill="#82EB68" stroke="black" stroke-width="4"/>
<path d="M591.502 114C616.652 114 637.002 93.3835 637.002 68C637.002 42.6165 616.652 22 591.502 22C566.352 22 546.002 42.6165 546.002 68C546.002 93.3835 566.352 114 591.502 114Z" fill="#FFED00" stroke="black" stroke-width="4"/>
<path d="M173.502 295C182.615 295 190.002 287.613 190.002 278.5C190.002 269.387 182.615 262 173.502 262C164.389 262 157.002 269.387 157.002 278.5C157.002 287.613 164.389 295 173.502 295Z" fill="#FFED00" stroke="black" stroke-width="4"/>
<path d="M812.002 148C820.839 148 828.002 140.837 828.002 132C828.002 123.163 820.839 116 812.002 116C803.165 116 796.002 123.163 796.002 132C796.002 140.837 803.165 148 812.002 148Z" fill="#FFED00" stroke="black" stroke-width="4"/>
<path d="M367.502 304C376.548 304 384.002 296.902 384.002 288C384.002 279.098 376.548 272 367.502 272C358.456 272 351.002 279.098 351.002 288C351.002 296.902 358.456 304 367.502 304Z" fill="#FFED00" stroke="black" stroke-width="4"/>
</g>
<defs>
<filter id="filter0_d_277_214199" x="471.443" y="-56.5469" width="333.332" height="421.831" filterUnits="userSpaceOnUse" color-interpolation-filters="sRGB">
<feFlood flood-opacity="0" result="BackgroundImageFix"/>
<feColorMatrix in="SourceAlpha" type="matrix" values="0 0 0 0 0 0 0 0 0 0 0 0 0 0 0 0 0 0 127 0" result="hardAlpha"/>
<feOffset dx="-1" dy="7"/>
<feGaussianBlur stdDeviation="2"/>
<feComposite in2="hardAlpha" operator="out"/>
<feColorMatrix type="matrix" values="0 0 0 0 0 0 0 0 0 0 0 0 0 0 0 0 0 0 0.25 0"/>
<feBlend mode="normal" in2="BackgroundImageFix" result="effect1_dropShadow_277_214199"/>
<feBlend mode="normal" in="SourceGraphic" in2="effect1_dropShadow_277_214199" result="shape"/>
</filter>
<clipPath id="clip0_277_214199">
<rect width="1000" height="1000" fill="white"/>
</clipPath>
</defs>
</svg>
