<svg width="1000" height="1000" viewBox="0 0 1000 1000" fill="none" xmlns="http://www.w3.org/2000/svg">
<g clip-path="url(#clip0_277_214199)">
<g filter="url(#filter0_d_277_214199)">
<mask id="mask0_277_214199" style="mask-type:alpha" maskUnits="userSpaceOnUse" x="476" y="-57" width="326" height="412">
<path fill-rule="evenodd" clip-rule="evenodd" d="M756.377 336.007L801.775 -56.5468L486.25 180.194C482.455 181.501 479.673 183.538 478.053 186.344C466.426 206.483 519.037 258.625 595.564 302.808C672.091 346.991 743.554 366.483 755.181 346.344C756.823 343.499 757.184 340.016 756.377 336.007Z" fill="#C4C4C4"/>
</mask>
<g mask="url(#mask0_277_214199)">
<rect x="391.309" y="29.3862" width="461.099" height="87.0939" transform="rotate(-22.701 391.309 29.3862)" fill="#E40303" stroke="white" stroke-width="8"/>
<rect x="424.92" y="109.733" width="461.099" height="87.0939" transform="rotate(-22.701 424.92 109.733)" fill="#FF8C00" stroke="white" stroke-width="8"/>
<rect x="458.533" y="190.08" width="461.099" height="88.225" transform="rotate(-22.701 458.533 190.08)" fill="#FFED00" stroke="white" stroke-width="8"/>
<rect x="492.58" y="271.47" width="461.099" height="87.0939" transform="rotate(-22.701 492.58 271.47)" fill="#008026" stroke="white" stroke-width="8"/>
<rect x="526.191" y="351.817" width="461.099" height="87.0939" transform="rotate(-22.701 526.191 351.817)" fill="#004DFF" stroke="white" stroke-width="8"/>
</g>
<path d="M752.403 335.547L752.33 336.176L752.455 336.797C753.131 340.151 752.739 342.574 751.717 344.344C749.904 347.485 745.178 349.949 735.966 350.253C727.003 350.548 715.026 348.728 700.763 344.838C672.295 337.073 635.619 321.315 597.564 299.344C559.51 277.373 527.525 253.49 506.567 232.719C496.066 222.311 488.501 212.849 484.275 204.94C479.932 196.809 479.704 191.485 481.517 188.344C482.525 186.598 484.39 185.065 487.553 183.976L488.148 183.771L488.651 183.393L796.733 -47.7624L752.403 335.547Z" stroke="black" stroke-width="8"/>
<path d="M756.377 336.007L801.775 -56.5466L693.477 340.377C707.194 344.407 717.908 354.482 755.181 346.344C756.823 343.499 757.184 340.016 756.377 336.007Z" fill="black" fill-opacity="0.25"/>
</g>
<path d="M401.791 148.454C401.487 148.471 401.083 148.457 400.578 148.38C399.02 148.143 396.669 147.327 393.683 145.278C376.69 133.599 360.205 137.166 352.903 147.764C348.795 153.725 347.937 161.339 350.417 168.622C352.757 175.493 357.912 181.714 365.124 186.676C367.773 188.5 370.904 189.089 373.833 188.555C376.747 188.03 379.487 186.389 381.293 183.743C384.953 178.465 383.546 171.236 378.273 167.6L378.271 167.599C375.282 165.543 373.684 163.644 372.909 162.279C372.664 161.847 372.51 161.484 372.417 161.198C372.452 161.196 372.489 161.193 372.528 161.191C373.518 161.166 376.229 161.411 380.525 164.359C380.525 164.36 380.525 164.36 380.526 164.36L381.658 162.711C397.973 173.938 413.116 170.202 419.646 160.743L401.791 148.454ZM401.791 148.454C401.698 148.166 401.542 147.797 401.291 147.356C400.514 145.989 398.913 144.088 395.929 142.034C388.716 137.073 383.563 130.852 381.214 123.978L381.214 123.976C378.734 116.695 379.581 109.075 383.701 103.116L383.701 103.116C391.02 92.5321 407.492 88.9555 424.467 100.637C428.791 103.604 431.505 103.841 432.46 103.806C432.499 103.803 432.537 103.801 432.574 103.798C432.481 103.512 432.327 103.148 432.082 102.716C431.31 101.354 429.714 99.4553 426.721 97.3974L426.72 97.3962C421.436 93.7538 420.034 86.5349 423.702 81.2486C427.339 75.9737 434.568 74.6698 439.876 78.325C456.858 89.9877 459.415 106.633 452.097 117.238L452.096 117.239C444.767 127.841 428.303 131.398 411.305 119.727L411.302 119.725C406.988 116.753 404.292 116.533 403.32 116.567C403.282 116.568 403.245 116.57 403.21 116.573C403.303 116.857 403.457 117.217 403.7 117.644C404.476 119.008 406.077 120.907 409.071 122.966L401.791 148.454ZM372.291 160.554C372.291 160.554 372.291 160.565 372.289 160.583C372.289 160.563 372.29 160.554 372.291 160.554ZM402.416 148.343C402.417 148.344 402.409 148.349 402.389 148.356C402.406 148.347 402.416 148.343 402.416 148.343ZM403.081 115.922C403.082 115.922 403.082 115.932 403.079 115.951C403.079 115.931 403.08 115.922 403.081 115.922ZM432.699 104.442C432.698 104.442 432.698 104.432 432.701 104.415C432.701 104.434 432.7 104.443 432.699 104.442ZM401.912 149.079C401.911 149.079 401.911 149.068 401.914 149.048C401.914 149.07 401.912 149.08 401.912 149.079Z" fill="#9F50FF" stroke="black" stroke-width="4"/>
<path d="M830.869 341.37L830.868 341.372C828.653 344.181 827.708 346.441 827.38 347.957C827.274 348.451 827.236 348.849 827.234 349.151C827.526 349.08 827.901 348.952 828.353 348.736C829.748 348.067 831.72 346.622 833.925 343.816L833.926 343.815C846.519 327.816 863.193 326.489 873.254 334.46C883.334 342.426 885.896 358.984 873.305 374.992L873.304 374.993C871.093 377.799 870.15 380.06 869.825 381.576C869.719 382.069 869.683 382.465 869.682 382.766C869.973 382.695 870.349 382.567 870.803 382.35C872.197 381.682 874.172 380.239 876.383 377.433C880.316 372.438 887.588 371.585 892.591 375.551L892.594 375.553C897.58 379.524 898.468 386.78 894.524 391.796L894.524 391.797C881.938 407.79 865.268 409.137 855.18 401.163L855.178 401.161C845.122 393.193 842.55 376.642 855.15 360.627C857.363 357.813 858.308 355.553 858.633 354.04C858.739 353.544 858.776 353.147 858.776 352.848C858.485 352.917 858.109 353.044 857.654 353.261C856.262 353.926 854.289 355.365 852.083 358.167C839.48 374.185 822.824 375.522 812.738 367.532M830.869 341.37L791.48 310.213C787.54 315.223 788.41 322.489 793.403 326.443L793.405 326.444C798.409 330.396 805.663 329.579 809.611 324.559L808.039 323.323L809.61 324.561C811.821 321.754 813.794 320.313 815.186 319.647C815.639 319.43 816.014 319.303 816.305 319.233C816.304 319.535 816.267 319.934 816.162 320.428C815.838 321.943 814.898 324.201 812.69 326.998L812.687 327.002C800.102 343.018 802.673 359.569 812.738 367.532M830.869 341.37C843.463 325.371 840.866 308.811 830.812 300.845M830.869 341.37L830.812 300.845M812.738 367.532L813.98 365.964M812.738 367.532C812.738 367.532 812.738 367.532 812.739 367.533L813.98 365.964M813.98 365.964C804.979 358.844 802.185 343.603 814.26 328.237L850.511 356.93C838.423 372.293 822.997 373.108 813.98 365.964ZM830.812 300.845C820.746 292.865 804.07 294.191 791.48 310.212L830.812 300.845ZM816.927 319.16C816.927 319.161 816.917 319.16 816.9 319.156C816.919 319.158 816.927 319.159 816.927 319.16ZM816.242 318.632C816.234 318.615 816.231 318.605 816.232 318.605C816.232 318.604 816.236 318.613 816.242 318.632ZM859.387 352.777C859.387 352.777 859.376 352.777 859.357 352.773C859.378 352.774 859.388 352.776 859.387 352.777ZM858.713 352.266C858.706 352.25 858.703 352.24 858.703 352.24C858.704 352.239 858.708 352.247 858.713 352.266ZM869.064 382.839C869.064 382.838 869.074 382.839 869.092 382.843C869.072 382.842 869.063 382.84 869.064 382.839ZM869.744 383.357C869.753 383.374 869.756 383.384 869.755 383.385C869.755 383.385 869.75 383.377 869.744 383.357ZM826.604 349.226C826.605 349.226 826.614 349.226 826.631 349.23C826.613 349.229 826.604 349.227 826.604 349.226ZM827.297 349.759C827.304 349.775 827.307 349.784 827.306 349.784C827.306 349.785 827.302 349.777 827.297 349.759Z" fill="#FF8C00" stroke="black" stroke-width="4"/>
<path d="M731.541 242.7L731.537 242.694C727.535 237.725 728.364 230.49 733.342 226.528L731.541 242.7ZM731.541 242.7C733.831 245.522 737.187 247 740.579 247C743.107 247 745.653 246.185 747.8 244.491L747.808 244.484C747.804 244.487 747.847 244.454 747.943 244.38C748.036 244.31 748.171 244.208 748.348 244.077C748.701 243.815 749.222 243.437 749.902 242.963C751.262 242.015 753.26 240.68 755.843 239.112C761.012 235.974 768.513 231.905 777.923 228.115C796.747 220.533 823.152 214.092 853.784 218.405C860.165 219.342 865.979 214.932 866.882 208.661L866.882 208.66M731.541 242.7L866.882 208.66M866.882 208.66C867.789 202.357 863.373 196.552 857.058 195.659L866.882 208.66Z" fill="#9F50FF" stroke="black" stroke-width="4"/>
<path d="M287.617 19.9722L287.62 19.9797C290.1 25.8552 287.352 32.6269 281.474 35.1093C264.24 42.3928 243.047 53.2788 225.709 64.6683C217.037 70.3651 209.383 76.1524 203.681 81.6424C197.908 87.2008 194.414 92.1944 193.576 96.2757L193.574 96.2827L193.573 96.2897C193.385 97.171 193.321 98.0215 193.567 98.96C193.813 99.9032 194.419 101.11 195.857 102.601L287.617 19.9722ZM287.617 19.9722L287.614 19.9647M287.617 19.9722L287.614 19.9647M287.614 19.9647C287.163 18.9204 286.578 17.9582 285.874 17.1083C282.711 13.2871 277.301 11.7971 272.485 13.8327L272.484 13.8327C264.707 17.1212 241.325 27.406 218.949 41.3326C207.763 48.2944 196.765 56.2051 188.082 64.6506C179.434 73.062 172.882 82.1959 170.942 91.6297L170.942 91.6302M287.614 19.9647L170.942 91.6302M229.768 96.488L229.777 96.4979C234.159 101.181 234.049 108.377 229.437 112.811L229.768 96.488ZM229.768 96.488L229.758 96.4781M229.768 96.488L229.758 96.4781M229.758 96.4781C225.35 91.8949 218.048 91.7409 213.452 96.1508M229.758 96.4781L213.452 96.1508M170.942 91.6302C168.903 101.562 171.777 110.906 179.219 118.625L170.942 91.6302ZM213.452 96.1508C213.398 96.1996 213.192 96.3832 212.861 96.6643C212.472 96.9951 211.911 97.4576 211.223 97.9909C209.839 99.0625 207.966 100.396 205.934 101.523C203.877 102.664 201.791 103.515 199.959 103.753C198.18 103.985 196.846 103.625 195.857 102.602L213.452 96.1508ZM207.204 125.783C198.004 128.282 187.713 127.438 179.219 118.625L207.204 125.783ZM207.204 125.783C216.31 123.309 224.512 117.548 229.437 112.811L207.204 125.783Z" fill="#FF8C00" stroke="black" stroke-width="4"/>
<path d="M468.5 171C477.613 171 485 163.613 485 154.5C485 145.387 477.613 138 468.5 138C459.387 138 452 145.387 452 154.5C452 163.613 459.387 171 468.5 171Z" fill="#82EB68" stroke="black" stroke-width="4"/>
<path d="M301 205C312.647 205 322 195.325 322 183.5C322 171.675 312.647 162 301 162C289.353 162 280 171.675 280 183.5C280 195.325 289.353 205 301 205Z" fill="#FF7DEA" stroke="black" stroke-width="4"/>
<path d="M535.5 266C544.546 266 552 258.902 552 250C552 241.098 544.546 234 535.5 234C526.454 234 519 241.098 519 250C519 258.902 526.454 266 535.5 266Z" fill="#82EB68" stroke="black" stroke-width="4"/>
<path d="M606.5 415C615.613 415 623 407.613 623 398.5C623 389.387 615.613 382 606.5 382C597.387 382 590 389.387 590 398.5C590 407.613 597.387 415 606.5 415Z" fill="#82EB68" stroke="black" stroke-width="4"/>
<path d="M591.5 114C616.65 114 637 93.3835 637 68C637 42.6165 616.65 22 591.5 22C566.35 22 546 42.6165 546 68C546 93.3835 566.35 114 591.5 114Z" fill="#FFED00" stroke="black" stroke-width="4"/>
<path d="M173.5 295C182.613 295 190 287.613 190 278.5C190 269.387 182.613 262 173.5 262C164.387 262 157 269.387 157 278.5C157 287.613 164.387 295 173.5 295Z" fill="#FFED00" stroke="black" stroke-width="4"/>
<path d="M812 148C820.837 148 828 140.837 828 132C828 123.163 820.837 116 812 116C803.163 116 796 123.163 796 132C796 140.837 803.163 148 812 148Z" fill="#FFED00" stroke="black" stroke-width="4"/>
<path d="M367.5 304C376.546 304 384 296.902 384 288C384 279.098 376.546 272 367.5 272C358.454 272 351 279.098 351 288C351 296.902 358.454 304 367.5 304Z" fill="#FFED00" stroke="black" stroke-width="4"/>
</g>
<defs>
<filter id="filter0_d_277_214199" x="471.443" y="-56.5469" width="333.332" height="421.831" filterUnits="userSpaceOnUse" color-interpolation-filters="sRGB">
<feFlood flood-opacity="0" result="BackgroundImageFix"/>
<feColorMatrix in="SourceAlpha" type="matrix" values="0 0 0 0 0 0 0 0 0 0 0 0 0 0 0 0 0 0 127 0" result="hardAlpha"/>
<feOffset dx="-1" dy="7"/>
<feGaussianBlur stdDeviation="2"/>
<feComposite in2="hardAlpha" operator="out"/>
<feColorMatrix type="matrix" values="0 0 0 0 0 0 0 0 0 0 0 0 0 0 0 0 0 0 0.25 0"/>
<feBlend mode="normal" in2="BackgroundImageFix" result="effect1_dropShadow_277_214199"/>
<feBlend mode="normal" in="SourceGraphic" in2="effect1_dropShadow_277_214199" result="shape"/>
</filter>
<clipPath id="clip0_277_214199">
<rect width="1000" height="1000" fill="white"/>
</clipPath>
</defs>
</svg>
