<svg width="1000" height="1000" viewBox="0 0 1000 1000" fill="none" xmlns="http://www.w3.org/2000/svg">
<g clip-path="url(#clip0_509_18883)">
<rect width="1000" height="1000" fill="#F86848"/>
<path d="M1000 20.9999L0 21" stroke="white" stroke-width="15"/>
<path d="M1000 108L0 108" stroke="white" stroke-width="15"/>
<path d="M1000 195L0 195" stroke="white" stroke-width="15"/>
<path d="M1000 282L0 282" stroke="white" stroke-width="15"/>
<path d="M1000 369L0 369" stroke="white" stroke-width="15"/>
<path d="M1000 456L0 456" stroke="white" stroke-width="15"/>
<path d="M1000 543L0 543" stroke="white" stroke-width="15"/>
<path d="M1000 630L0 630" stroke="white" stroke-width="15"/>
<path d="M1000 717L0 717" stroke="white" stroke-width="15"/>
<path d="M1000 804L0 804" stroke="white" stroke-width="15"/>
<path d="M1000 891L0 891" stroke="white" stroke-width="15"/>
<path d="M1000 978L0 978" stroke="white" stroke-width="15"/>
<path d="M210 21V109" stroke="white" stroke-width="15"/>
<path d="M170 194V282" stroke="white" stroke-width="15"/>
<path d="M170 893V981" stroke="white" stroke-width="15"/>
<path d="M170 715V803" stroke="white" stroke-width="15"/>
<path d="M124 368V456" stroke="white" stroke-width="15"/>
<path d="M100 541V629" stroke="white" stroke-width="15"/>
<path d="M100 0V21" stroke="white" stroke-width="15"/>
<path d="M320 541V629" stroke="white" stroke-width="15"/>
<path d="M344 368V456" stroke="white" stroke-width="15"/>
<path d="M540 541V629" stroke="white" stroke-width="15"/>
<path d="M320 0V21" stroke="white" stroke-width="15"/>
<path d="M760 541V629" stroke="white" stroke-width="15"/>
<path d="M980 543V631" stroke="white" stroke-width="15"/>
<path d="M564 368V456" stroke="white" stroke-width="15"/>
<path d="M540 0V21" stroke="white" stroke-width="15"/>
<path d="M784 368V456" stroke="white" stroke-width="15"/>
<path d="M760 0V21" stroke="white" stroke-width="15"/>
<path d="M980 0V21" stroke="white" stroke-width="15"/>
<path d="M1004 368V456" stroke="white" stroke-width="15"/>
<path d="M390 194V282" stroke="white" stroke-width="15"/>
<path d="M390 893V981" stroke="white" stroke-width="15"/>
<path d="M390 715V803" stroke="white" stroke-width="15"/>
<path d="M610 194V282" stroke="white" stroke-width="15"/>
<path d="M610 893V981" stroke="white" stroke-width="15"/>
<path d="M610 715V803" stroke="white" stroke-width="15"/>
<path d="M830 194V282" stroke="white" stroke-width="15"/>
<path d="M830 893V981" stroke="white" stroke-width="15"/>
<path d="M830 715V803" stroke="white" stroke-width="15"/>
<path d="M77 109V197" stroke="white" stroke-width="15"/>
<path d="M77 804V892" stroke="white" stroke-width="15"/>
<path d="M25 282V370" stroke="white" stroke-width="15"/>
<path d="M0 455V543" stroke="white" stroke-width="15"/>
<path d="M34 978V1000" stroke="white" stroke-width="15"/>
<path d="M48 630V718" stroke="white" stroke-width="15"/>
<path d="M245 282V370" stroke="white" stroke-width="15"/>
<path d="M220 455V543" stroke="white" stroke-width="15"/>
<path d="M254 978V1000" stroke="white" stroke-width="15"/>
<path d="M268 630V718" stroke="white" stroke-width="15"/>
<path d="M465 282V370" stroke="white" stroke-width="15"/>
<path d="M440 455V543" stroke="white" stroke-width="15"/>
<path d="M474 978V1000" stroke="white" stroke-width="15"/>
<path d="M488 630V718" stroke="white" stroke-width="15"/>
<path d="M685 282V370" stroke="white" stroke-width="15"/>
<path d="M660 455V543" stroke="white" stroke-width="15"/>
<path d="M694 978V1000" stroke="white" stroke-width="15"/>
<path d="M708 630V718" stroke="white" stroke-width="15"/>
<path d="M905 282V370" stroke="white" stroke-width="15"/>
<path d="M880 455V543" stroke="white" stroke-width="15"/>
<path d="M914 978V1000" stroke="white" stroke-width="15"/>
<path d="M928 630V718" stroke="white" stroke-width="15"/>
<path d="M297 109V197" stroke="white" stroke-width="15"/>
<path d="M297 804V892" stroke="white" stroke-width="15"/>
<path d="M517 109V197" stroke="white" stroke-width="15"/>
<path d="M517 804V892" stroke="white" stroke-width="15"/>
<path d="M737 109V197" stroke="white" stroke-width="15"/>
<path d="M737 804V892" stroke="white" stroke-width="15"/>
<path d="M957 109V197" stroke="white" stroke-width="15"/>
<path d="M957 804V892" stroke="white" stroke-width="15"/>
<path d="M430 21V109" stroke="white" stroke-width="15"/>
<path d="M650 21V109" stroke="white" stroke-width="15"/>
<path d="M870 21V109" stroke="white" stroke-width="15"/>
</g>
<defs>
<clipPath id="clip0_509_18883">
<rect width="1000" height="1000" fill="white"/>
</clipPath>
</defs>
</svg>
