<svg width="1000" height="1000" viewBox="0 0 1000 1000" fill="none" xmlns="http://www.w3.org/2000/svg">
<g clip-path="url(#clip0_930_41546)">
<rect width="1000" height="1000" fill="#4B70C5"/>
<path fill-rule="evenodd" clip-rule="evenodd" d="M403.803 57.207C389.293 57.207 376.094 63.9716 366.256 75.0279C353.523 53.229 332.558 39 308.853 39C276.003 39 248.415 66.3244 240.704 103.253C232.047 91.017 219.255 83.2754 204.984 83.2754C178.909 83.2754 157.771 109.119 157.771 141C157.771 143.453 157.896 145.872 158.139 148.245C136.795 149.928 120 167.782 120 189.558C120 212.446 138.555 231 161.443 231H544.393C567.282 231 585.836 212.446 585.836 189.558C585.836 166.67 567.282 148.115 544.393 148.115H530.502C529.218 123.014 512.05 103.138 491.06 103.138C477.792 103.138 466.052 111.079 458.884 123.262C458.724 86.7478 434.125 57.207 403.803 57.207Z" fill="white"/>
<path fill-rule="evenodd" clip-rule="evenodd" d="M215.06 303.796C204.064 303.796 194.062 308.922 186.606 317.301C176.958 300.782 161.071 290 143.108 290C118.215 290 97.3101 310.706 91.4668 338.689C84.9065 329.417 75.2129 323.551 64.3986 323.551C44.6395 323.551 28.6216 343.135 28.6216 367.293C28.6216 369.152 28.7165 370.985 28.9007 372.783C12.7271 374.059 0 387.587 0 404.089C0 421.433 14.0602 435.493 31.4043 435.493H321.596C338.94 435.493 353 421.433 353 404.089C353 386.745 338.94 372.685 321.596 372.685H311.069C310.096 353.663 297.087 338.602 281.181 338.602C271.127 338.602 262.23 344.619 256.799 353.851C256.678 326.181 238.037 303.796 215.06 303.796Z" fill="white"/>
<path fill-rule="evenodd" clip-rule="evenodd" d="M845.298 511.816C845.509 511.475 845.716 511.129 845.917 510.778C846.064 511.127 846.216 511.473 846.373 511.816H845.298ZM940 467.816C931.033 467.816 922.984 471.292 917.487 476.801C910.532 465.44 897.691 457.817 883 457.817C868.499 457.817 855.8 465.245 848.786 476.362C844.331 463.793 834.093 455 822.176 455C806.167 455 793.189 470.867 793.189 490.44C793.189 498.469 795.373 505.874 799.054 511.816H787C777.611 511.816 770 519.428 770 528.816C770 538.205 777.611 545.816 787 545.816H1039C1048.39 545.816 1056 538.205 1056 528.816C1056 519.428 1048.39 511.816 1039 511.816H1008.38C1008.79 510.048 1009 508.207 1009 506.316C1009 492.785 998.031 481.816 984.5 481.816C978.601 481.816 973.189 483.901 968.96 487.374C965.507 476.106 953.849 467.816 940 467.816Z" fill="white"/>
<path fill-rule="evenodd" clip-rule="evenodd" d="M738.453 224C761.063 224 780.383 238.448 788.125 258.836C796.061 252.401 806.091 248.56 816.997 248.56C838.939 248.56 857.336 264.112 862.268 285.047C867.071 279.171 874.277 275.436 882.334 275.436C896.793 275.436 908.515 287.468 908.515 302.312C908.515 304.883 908.163 307.371 907.506 309.726H929.831C942.627 309.726 953 320.099 953 332.895C953 345.691 942.627 356.064 929.831 356.064H609.169C596.373 356.064 586 345.691 586 332.895C586 320.099 596.373 309.726 609.169 309.726H625.466C623.62 304.84 622.607 299.527 622.607 293.971C622.607 269.915 641.59 250.413 665.007 250.413C673.942 250.413 682.231 253.252 689.067 258.1C696.99 238.101 716.117 224 738.453 224Z" fill="white"/>
</g>
<defs>
<clipPath id="clip0_930_41546">
<rect width="1000" height="1000" fill="white"/>
</clipPath>
</defs>
</svg>
