<svg width="1000" height="1000" viewBox="0 0 1000 1000" fill="none" xmlns="http://www.w3.org/2000/svg">
<path d="M751.24 181.918C812.613 235.603 846.996 308.322 846.996 384.047C846.996 409.97 842.328 448.685 825.153 480.803C808.081 512.729 778.707 538.119 728.807 538.119C712.006 538.119 699.057 534.043 689.082 527.119C679.094 520.186 671.865 510.243 666.774 498.149C656.544 473.841 655.143 441.298 657.168 408.778C660.18 360.377 610.394 326.695 564.54 340.221C501.628 358.778 425.443 370.34 358.268 372.335C324.683 373.333 293.429 371.936 267.259 367.856C241.003 363.763 220.216 357.02 207.27 347.572C197.498 340.441 194.777 327.278 196.014 314.011C200.708 263.644 224.218 229.754 278.902 181.918C340.313 128.197 432.652 93 519.571 93C606.412 93 689.768 128.144 751.24 181.918Z" fill="#9F50FF" stroke="#090909" stroke-width="6"/>
<path opacity="0.8" d="M651.135 126.587C491.858 113.606 381.551 127.885 271.753 279.332C260.772 294.477 226.231 284.093 231.68 262.89C278.178 170.723 393.932 123.991 427.568 113.606C461.204 105.817 560.5 85.5 651.135 126.587Z" fill="white" fill-opacity="0.25"/>
<path d="M779.271 213.994C827.252 268.948 840.113 309.189 846.543 383.182C846.543 435.539 831.209 541.119 728.817 541.119C658.874 541.119 651.07 470.572 656.381 403.23C660.003 357.298 612.74 324.634 568.478 337.431C442.351 373.896 263.57 382.315 211.108 347.425C200.211 340.178 198.391 326.209 197.339 313.164C196.143 298.338 194.63 306.518 205 283C217.568 254.5 226.173 321.738 313.806 321.738C570.999 321.738 717.305 159.787 779.271 213.994Z" fill="black" fill-opacity="0.25"/>
<ellipse cx="322.391" cy="256.232" rx="50.6993" ry="22.5007" fill="#090909"/>
<mask id="path-5-outside-1_856_164301" maskUnits="userSpaceOnUse" x="261" y="228" width="119" height="64" fill="black">
<rect fill="white" x="261" y="228" width="119" height="64"/>
<path d="M375.008 259.693C375.008 274.988 350.382 287.386 320.004 287.386C289.626 287.386 265 274.988 265 259.693C265 244.399 289.626 232 320.004 232C350.382 232 375.008 244.399 375.008 259.693ZM282.881 259.693C282.881 270.016 299.502 278.384 320.004 278.384C340.506 278.384 357.127 270.016 357.127 259.693C357.127 249.371 340.506 241.003 320.004 241.003C299.502 241.003 282.881 249.371 282.881 259.693Z"/>
</mask>
<path d="M375.008 259.693C375.008 274.988 350.382 287.386 320.004 287.386C289.626 287.386 265 274.988 265 259.693C265 244.399 289.626 232 320.004 232C350.382 232 375.008 244.399 375.008 259.693ZM282.881 259.693C282.881 270.016 299.502 278.384 320.004 278.384C340.506 278.384 357.127 270.016 357.127 259.693C357.127 249.371 340.506 241.003 320.004 241.003C299.502 241.003 282.881 249.371 282.881 259.693Z" fill="#3C3C3C"/>
<path d="M375.008 259.693C375.008 274.988 350.382 287.386 320.004 287.386C289.626 287.386 265 274.988 265 259.693C265 244.399 289.626 232 320.004 232C350.382 232 375.008 244.399 375.008 259.693ZM282.881 259.693C282.881 270.016 299.502 278.384 320.004 278.384C340.506 278.384 357.127 270.016 357.127 259.693C357.127 249.371 340.506 241.003 320.004 241.003C299.502 241.003 282.881 249.371 282.881 259.693Z" stroke="black" stroke-width="8" mask="url(#path-5-outside-1_856_164301)"/>
<path d="M375.008 259.693C375.008 263.33 373.585 266.931 370.821 270.291C368.057 273.651 364.005 276.704 358.898 279.275C353.79 281.847 347.726 283.887 341.053 285.278C334.38 286.67 327.227 287.386 320.004 287.386C312.781 287.386 305.628 286.67 298.955 285.278C292.281 283.887 286.218 281.847 281.11 279.275C276.003 276.704 271.951 273.651 269.187 270.291C266.423 266.931 265 263.33 265 259.693H282.881C282.881 262.148 283.841 264.578 285.707 266.846C287.572 269.113 290.307 271.174 293.754 272.909C297.201 274.645 301.294 276.022 305.798 276.961C310.302 277.9 315.129 278.384 320.004 278.384C324.879 278.384 329.706 277.9 334.21 276.961C338.714 276.022 342.807 274.645 346.254 272.909C349.701 271.174 352.435 269.113 354.301 266.846C356.167 264.578 357.127 262.148 357.127 259.693H375.008Z" fill="black" fill-opacity="0.25"/>
<ellipse cx="415.925" cy="176.203" rx="46.9916" ry="20.3372" fill="#090909"/>
<mask id="path-8-outside-2_856_164301" maskUnits="userSpaceOnUse" x="359" y="151" width="112" height="57" fill="black">
<rect fill="white" x="359" y="151" width="112" height="57"/>
<path d="M466.876 179.232C466.876 192.614 443.623 203.463 414.938 203.463C386.253 203.463 363 192.614 363 179.232C363 165.849 386.253 155 414.938 155C443.623 155 466.876 165.849 466.876 179.232ZM379.884 179.232C379.884 188.264 395.578 195.586 414.938 195.586C434.298 195.586 449.992 188.264 449.992 179.232C449.992 170.199 434.298 162.877 414.938 162.877C395.578 162.877 379.884 170.199 379.884 179.232Z"/>
</mask>
<path d="M466.876 179.232C466.876 192.614 443.623 203.463 414.938 203.463C386.253 203.463 363 192.614 363 179.232C363 165.849 386.253 155 414.938 155C443.623 155 466.876 165.849 466.876 179.232ZM379.884 179.232C379.884 188.264 395.578 195.586 414.938 195.586C434.298 195.586 449.992 188.264 449.992 179.232C449.992 170.199 434.298 162.877 414.938 162.877C395.578 162.877 379.884 170.199 379.884 179.232Z" fill="#3C3C3C"/>
<path d="M466.876 179.232C466.876 192.614 443.623 203.463 414.938 203.463C386.253 203.463 363 192.614 363 179.232C363 165.849 386.253 155 414.938 155C443.623 155 466.876 165.849 466.876 179.232ZM379.884 179.232C379.884 188.264 395.578 195.586 414.938 195.586C434.298 195.586 449.992 188.264 449.992 179.232C449.992 170.199 434.298 162.877 414.938 162.877C395.578 162.877 379.884 170.199 379.884 179.232Z" stroke="black" stroke-width="8" mask="url(#path-8-outside-2_856_164301)"/>
<path d="M466.876 179.232C466.876 182.414 465.533 185.565 462.923 188.505C460.313 191.444 456.487 194.116 451.664 196.366C446.841 198.616 441.115 200.401 434.814 201.619C428.513 202.836 421.759 203.463 414.938 203.463C408.118 203.463 401.364 202.836 395.062 201.619C388.761 200.401 383.035 198.616 378.212 196.366C373.389 194.116 369.564 191.444 366.954 188.505C364.343 185.565 363 182.414 363 179.232H379.884C379.884 181.379 380.791 183.506 382.553 185.49C384.314 187.474 386.896 189.277 390.151 190.796C393.406 192.314 397.271 193.519 401.524 194.341C405.777 195.163 410.335 195.586 414.938 195.586C419.541 195.586 424.1 195.163 428.353 194.341C432.606 193.519 436.47 192.314 439.725 190.796C442.98 189.277 445.562 187.474 447.324 185.49C449.085 183.506 449.992 181.379 449.992 179.232H466.876Z" fill="black" fill-opacity="0.25"/>
<ellipse rx="44.0237" ry="16.0101" transform="matrix(-1 0 0 1 541.968 126.01)" fill="#090909"/>
<mask id="path-11-outside-3_856_164301" maskUnits="userSpaceOnUse" x="488.93" y="106" width="107" height="49" fill="black">
<rect fill="white" x="488.93" y="106" width="107" height="49"/>
<path d="M493 130.337C493 141.569 515.146 150.674 542.465 150.674C569.784 150.674 591.93 141.569 591.93 130.337C591.93 119.105 569.784 110 542.465 110C515.146 110 493 119.105 493 130.337ZM575.849 130.337C575.849 137.918 560.903 144.063 542.465 144.063C524.027 144.063 509.08 137.918 509.08 130.337C509.08 122.757 524.027 116.611 542.465 116.611C560.903 116.611 575.849 122.757 575.849 130.337Z"/>
</mask>
<path d="M493 130.337C493 141.569 515.146 150.674 542.465 150.674C569.784 150.674 591.93 141.569 591.93 130.337C591.93 119.105 569.784 110 542.465 110C515.146 110 493 119.105 493 130.337ZM575.849 130.337C575.849 137.918 560.903 144.063 542.465 144.063C524.027 144.063 509.08 137.918 509.08 130.337C509.08 122.757 524.027 116.611 542.465 116.611C560.903 116.611 575.849 122.757 575.849 130.337Z" fill="#3C3C3C"/>
<path d="M493 130.337C493 141.569 515.146 150.674 542.465 150.674C569.784 150.674 591.93 141.569 591.93 130.337C591.93 119.105 569.784 110 542.465 110C515.146 110 493 119.105 493 130.337ZM575.849 130.337C575.849 137.918 560.903 144.063 542.465 144.063C524.027 144.063 509.08 137.918 509.08 130.337C509.08 122.757 524.027 116.611 542.465 116.611C560.903 116.611 575.849 122.757 575.849 130.337Z" stroke="black" stroke-width="8" mask="url(#path-11-outside-3_856_164301)"/>
<path d="M493 130.337C493 133.008 494.279 135.652 496.765 138.12C499.251 140.587 502.895 142.829 507.488 144.718C512.081 146.606 517.534 148.104 523.535 149.126C529.537 150.148 535.969 150.674 542.465 150.674C548.961 150.674 555.393 150.148 561.394 149.126C567.396 148.104 572.849 146.606 577.442 144.718C582.035 142.829 585.679 140.587 588.164 138.12C590.65 135.652 591.93 133.008 591.93 130.337H575.849C575.849 132.14 574.986 133.925 573.308 135.59C571.63 137.255 569.171 138.768 566.071 140.043C562.971 141.317 559.291 142.328 555.241 143.018C551.19 143.708 546.849 144.063 542.465 144.063C538.081 144.063 533.74 143.708 529.689 143.018C525.639 142.328 521.958 141.317 518.858 140.043C515.758 138.768 513.299 137.255 511.622 135.59C509.944 133.925 509.08 132.14 509.08 130.337H493Z" fill="black" fill-opacity="0.25"/>
<mask id="path-13-inside-4_856_164301" fill="white">
<path d="M768.949 433.5C776.691 479.361 773.304 526.382 759.064 570.699C744.825 615.015 720.141 655.362 687.04 688.422C653.94 721.482 613.368 746.313 568.659 760.872C523.951 775.431 476.382 779.304 429.863 772.172C383.345 765.039 339.204 747.106 301.068 719.845C262.933 692.584 231.893 656.774 210.498 615.359C189.104 573.943 177.966 528.104 178 481.61C178.034 435.116 189.24 389.293 210.696 347.908L239.452 362.451C220.327 399.342 210.338 440.188 210.307 481.633C210.277 523.079 220.205 563.94 239.276 600.858C258.347 637.775 286.017 669.697 320.011 693.997C354.005 718.297 393.352 734.283 434.819 740.641C476.286 746.999 518.689 743.547 558.543 730.569C598.396 717.59 634.562 695.457 664.068 665.986C693.574 636.516 715.578 600.551 728.271 561.047C740.964 521.543 743.983 479.628 737.081 438.747L768.949 433.5Z"/>
</mask>
<path d="M768.949 433.5C776.691 479.361 773.304 526.382 759.064 570.699C744.825 615.015 720.141 655.362 687.04 688.422C653.94 721.482 613.368 746.313 568.659 760.872C523.951 775.431 476.382 779.304 429.863 772.172C383.345 765.039 339.204 747.106 301.068 719.845C262.933 692.584 231.893 656.774 210.498 615.359C189.104 573.943 177.966 528.104 178 481.61C178.034 435.116 189.24 389.293 210.696 347.908L239.452 362.451C220.327 399.342 210.338 440.188 210.307 481.633C210.277 523.079 220.205 563.94 239.276 600.858C258.347 637.775 286.017 669.697 320.011 693.997C354.005 718.297 393.352 734.283 434.819 740.641C476.286 746.999 518.689 743.547 558.543 730.569C598.396 717.59 634.562 695.457 664.068 665.986C693.574 636.516 715.578 600.551 728.271 561.047C740.964 521.543 743.983 479.628 737.081 438.747L768.949 433.5Z" fill="#3C3C3C" stroke="black" stroke-width="12" mask="url(#path-13-inside-4_856_164301)"/>
<path d="M421.837 770.722C376.406 762.386 333.569 743.678 296.73 716.087C259.891 688.495 230.068 652.781 209.631 611.784C189.194 570.788 178.708 525.639 179.006 479.929C179.304 434.219 190.378 389.208 211.348 348.475L240.088 362.957C221.396 399.266 211.524 439.389 211.258 480.135C210.993 520.881 220.34 561.127 238.558 597.671C256.775 634.216 283.36 666.052 316.198 690.647C349.036 715.242 387.222 731.918 427.719 739.349L421.837 770.722Z" fill="black" fill-opacity="0.25"/>
<rect x="-2.64765" y="-3.32945" width="169.05" height="59.2208" rx="27" transform="matrix(0.993254 0.115962 -0.110705 0.993853 347.504 713.485)" fill="#FF7DEA" stroke="black" stroke-width="6"/>
<rect width="157.465" height="32.8663" rx="16.4331" transform="matrix(0.993254 0.115962 -0.110705 0.993853 349.637 733.674)" fill="black" fill-opacity="0.25"/>
<path d="M757.158 469.167C786.934 469.167 810.448 441.91 810.448 409.107C810.448 376.304 786.934 349.047 757.158 349.047C727.381 349.047 703.867 376.304 703.867 409.107C703.867 441.91 727.381 469.167 757.158 469.167Z" fill="#3C3C3C" stroke="black" stroke-width="6"/>
<path d="M706.867 409.107C706.867 401.614 708.168 394.194 710.695 387.271C713.223 380.348 716.927 374.058 721.597 368.76C726.267 363.461 731.811 359.258 737.912 356.391C744.014 353.523 750.553 352.047 757.158 352.047C763.762 352.047 770.301 353.523 776.403 356.391C782.504 359.258 788.048 363.461 792.718 368.76C797.388 374.058 801.092 380.348 803.62 387.271C806.147 394.194 807.448 401.614 807.448 409.107L757.158 409.107L706.867 409.107Z" fill="white" fill-opacity="0.25"/>
<path d="M771.895 460.463C793.994 460.359 810.57 437.381 810.445 410.859C810.32 384.337 793.528 361.516 771.429 361.62C749.331 361.724 732.754 384.702 732.879 411.224C733.004 437.746 749.797 460.567 771.895 460.463Z" fill="#FF7DEA" stroke="black" stroke-width="6"/>
<path d="M807.445 410.873C807.503 423.185 803.789 435.01 797.119 443.747C790.45 452.484 781.371 457.418 771.881 457.463C762.391 457.508 753.266 452.66 746.514 443.986C739.763 435.312 735.937 423.522 735.879 411.21L771.662 411.041L807.445 410.873Z" fill="black" fill-opacity="0.25"/>
</svg>
