<svg width="1000" height="1016" viewBox="0 0 1000 1016" fill="none" xmlns="http://www.w3.org/2000/svg">
<ellipse rx="204.15" ry="29" transform="matrix(0.995989 0.0894705 0.0894705 -0.995989 521.756 285.742)" fill="black" fill-opacity="0.25"/>
<mask id="path-2-inside-1_393_21043" fill="white">
<path fill-rule="evenodd" clip-rule="evenodd" d="M457.176 -48.3758C492.741 -45.1809 522.806 -27.047 539.725 -1.9065C544.964 5.87686 555.154 9.57235 564.044 6.57558C579.314 1.42847 596.39 -0.7291 614.166 0.867709C659.717 4.95954 696.355 32.4913 708.036 67.4779C710.722 75.5217 718.022 81.6258 726.479 82.2558C727.037 82.2973 727.595 82.3432 728.154 82.3934C771.928 86.3257 805.071 115.6 802.18 147.779C800.104 170.885 780.014 189.207 752.644 196.245C745.325 198.127 739.425 204.008 738.749 211.534L738.183 217.834C737.393 226.635 729.617 233.129 720.816 232.338L335.475 197.723C326.674 196.932 320.18 189.156 320.97 180.355L321.184 177.982C321.934 169.624 316.037 162.235 308.026 159.732C270.362 147.962 244.617 116.185 247.741 81.4065C251.447 40.1513 294.372 10.2935 343.618 14.7173C345.96 14.9276 348.161 13.5388 349.014 11.3478C364.024 -27.2003 407.968 -52.7962 457.176 -48.3758Z"/>
</mask>
<path fill-rule="evenodd" clip-rule="evenodd" d="M457.176 -48.3758C492.741 -45.1809 522.806 -27.047 539.725 -1.9065C544.964 5.87686 555.154 9.57235 564.044 6.57558C579.314 1.42847 596.39 -0.7291 614.166 0.867709C659.717 4.95954 696.355 32.4913 708.036 67.4779C710.722 75.5217 718.022 81.6258 726.479 82.2558C727.037 82.2973 727.595 82.3432 728.154 82.3934C771.928 86.3257 805.071 115.6 802.18 147.779C800.104 170.885 780.014 189.207 752.644 196.245C745.325 198.127 739.425 204.008 738.749 211.534L738.183 217.834C737.393 226.635 729.617 233.129 720.816 232.338L335.475 197.723C326.674 196.932 320.18 189.156 320.97 180.355L321.184 177.982C321.934 169.624 316.037 162.235 308.026 159.732C270.362 147.962 244.617 116.185 247.741 81.4065C251.447 40.1513 294.372 10.2935 343.618 14.7173C345.96 14.9276 348.161 13.5388 349.014 11.3478C364.024 -27.2003 407.968 -52.7962 457.176 -48.3758Z" fill="white"/>
<path d="M349.014 11.3478L341.559 8.44497L349.014 11.3478ZM308.026 159.732L310.412 152.096L308.026 159.732ZM738.183 217.834L746.151 218.55L738.183 217.834ZM752.644 196.245L754.636 203.993L752.644 196.245ZM738.749 211.534L730.781 210.818L738.749 211.534ZM708.036 67.4779L700.448 70.0114L708.036 67.4779ZM539.725 -1.9065L533.089 2.56011L539.725 -1.9065ZM564.044 6.57558L561.489 -1.00531L564.044 6.57558ZM546.362 -6.37311C528.012 -33.6405 495.7 -52.9474 457.891 -56.3437L456.46 -40.4079C489.782 -37.4145 517.601 -20.4536 533.089 2.56011L546.362 -6.37311ZM614.882 -7.10021C596.014 -8.7951 577.823 -6.51128 561.489 -1.00531L566.6 14.1565C580.805 9.36821 596.766 7.3369 613.45 8.83562L614.882 -7.10021ZM715.624 64.9445C702.764 26.4255 663.02 -2.77592 614.882 -7.10021L613.45 8.83562C656.413 12.695 689.947 38.5571 700.448 70.0114L715.624 64.9445ZM725.885 90.2337C726.402 90.2722 726.92 90.3147 727.439 90.3613L728.87 74.4255C728.27 74.3716 727.671 74.3224 727.074 74.2779L725.885 90.2337ZM727.439 90.3613C747.805 92.1909 765.379 99.8981 777.37 110.489C789.365 121.084 795.375 134.113 794.212 147.063L810.148 148.495C811.875 129.265 802.76 111.568 787.962 98.4976C773.161 85.4241 752.278 76.5282 728.87 74.4255L727.439 90.3613ZM794.212 147.063C792.549 165.57 776.121 181.947 750.651 188.497L754.636 203.993C783.907 196.466 807.659 176.2 810.148 148.495L794.212 147.063ZM746.151 218.55L746.717 212.25L730.781 210.818L730.216 217.118L746.151 218.55ZM334.759 205.691L720.1 240.306L721.532 224.37L336.19 189.755L334.759 205.691ZM313.216 177.267L313.002 179.64L328.938 181.071L329.151 178.698L313.216 177.267ZM239.773 80.6908C236.225 120.185 265.395 154.791 305.64 167.367L310.412 152.096C275.33 141.132 253.008 112.186 255.709 82.1223L239.773 80.6908ZM344.334 6.74934C292.067 2.0542 243.988 33.7718 239.773 80.6908L255.709 82.1223C258.906 46.5308 296.678 18.5328 342.902 22.6852L344.334 6.74934ZM457.891 -56.3437C405.735 -61.029 358.067 -33.95 341.559 8.44497L356.469 14.2505C369.981 -20.4506 410.201 -44.5633 456.46 -40.4079L457.891 -56.3437ZM342.902 22.6852C348.852 23.2197 354.346 19.703 356.469 14.2505L341.559 8.44497C341.976 7.3745 343.067 6.63556 344.334 6.74934L342.902 22.6852ZM329.151 178.698C330.299 165.928 321.344 155.512 310.412 152.096L305.64 167.367C310.73 168.958 313.57 173.319 313.216 177.267L329.151 178.698ZM730.216 217.118C729.82 221.519 725.932 224.766 721.532 224.37L720.1 240.306C733.302 241.492 744.965 231.751 746.151 218.55L730.216 217.118ZM750.651 188.497C740.674 191.063 731.814 199.323 730.781 210.818L746.717 212.25C747.037 208.692 749.976 205.191 754.636 203.993L750.651 188.497ZM336.19 189.755C331.79 189.359 328.543 185.472 328.938 181.071L313.002 179.64C311.817 192.841 321.557 204.505 334.759 205.691L336.19 189.755ZM700.448 70.0114C704.072 80.8664 713.96 89.3453 725.885 90.2337L727.074 74.2779C722.084 73.9062 717.371 70.177 715.624 64.9445L700.448 70.0114ZM533.089 2.56011C540.244 13.1927 554.135 18.3582 566.6 14.1565L561.489 -1.00531C556.173 0.786556 549.683 -1.43901 546.362 -6.37311L533.089 2.56011Z" fill="black" mask="url(#path-2-inside-1_393_21043)"/>
<path d="M545.891 12.3051C560.709 7.57476 597.069 -0.668044 614.167 0.867855C659.542 4.94393 696.074 32.2798 707.901 67.0742C710.7 75.3106 718.652 81.5719 727.779 82.3603C727.904 82.3711 728.03 82.3822 728.155 82.3934C771.929 86.3257 805.071 115.6 802.181 147.779C800.119 170.729 780.285 188.959 753.198 196.101C745.566 198.113 739.433 203.916 738.764 211.367L738.183 217.834C737.392 226.635 729.166 233.088 719.809 232.248L336.48 197.813C327.123 196.972 320.179 189.156 320.97 180.355L324.909 180.215C335.055 166.225 310.852 155.235 302.412 152.521C265.187 140.552 239.875 96.2044 263.832 56.7473C256.943 133.438 373.354 170.666 390.55 173.051C447.225 178.142 537.748 180.185 616.106 187.224C714.054 196.022 773.489 187.935 776.492 154.507C780.106 114.269 736.153 93.1408 688.494 139.702C686.114 142.027 680.486 139.146 680.864 135.839C686.546 86.1573 658.847 -0.943416 581.707 23.5546C557.878 33.7784 555.685 59.1211 554.079 73.0262C553.336 79.4549 549.568 78.5037 547.525 72.3631C534.207 32.3223 508.751 -24.8565 438.421 -39.0163C496.145 -45.8791 534.33 0.389618 545.891 12.3051Z" fill="black" fill-opacity="0.25"/>
<path d="M347.049 21.5518C335.817 56.2861 350.458 84.6096 359.183 94.4296C334.359 79.6492 321.122 42.8172 314.306 23.6305C322.591 20.5259 332.052 17.3933 347.049 21.5518Z" fill="black" fill-opacity="0.25"/>
<path d="M550.79 58.7592C552.07 44.5079 549.571 30.118 543.494 16.7497C537.417 3.38141 527.931 -8.59133 515.803 -18.2033C503.674 -27.8153 489.242 -34.7975 473.669 -38.5872C458.096 -42.3768 441.819 -42.8679 426.149 -40.0207C410.479 -37.1735 395.855 -31.0677 383.455 -22.1957C371.056 -13.3236 361.229 -1.93345 354.766 11.0566C348.302 24.0466 345.384 38.273 346.246 52.5889C347.108 66.9048 351.726 80.9097 359.727 93.4745" stroke="black" stroke-width="6" stroke-linecap="round"/>
<path d="M793.391 165.849C796.683 158.293 798.018 150.028 797.289 141.721C796.56 133.415 793.786 125.299 789.192 118.028C784.598 110.757 778.311 104.535 770.839 99.8624C763.368 95.1898 754.919 92.198 746.176 91.1282C737.433 90.0583 728.639 90.9403 720.503 93.703C712.368 96.4658 705.118 101.032 699.339 107.033C693.56 113.035 689.413 120.304 687.232 128.254" stroke="black" stroke-width="6" stroke-linecap="round"/>
<path d="M736.699 290.741L741.635 235.797C742.376 227.543 736.735 220.089 728.564 218.701C610.676 198.671 421.276 180.052 322.297 181.772C314.273 181.912 307.822 188.149 307.104 196.142L302.091 251.943C301.406 259.565 306.12 266.602 313.542 268.466C406.072 291.703 612.835 311.457 722.177 305.056C729.924 304.602 736.005 298.47 736.699 290.741Z" fill="white" stroke="black" stroke-width="6"/>
<path d="M602.5 303.036L669.833 305.921L719.602 304.233C727.671 303.959 734.272 297.715 734.995 289.673L741.002 222.796L611.537 202.441L602.5 303.036Z" fill="black" fill-opacity="0.25"/>
<path d="M332 270.173L338.5 271.432L314.864 266.852C306.881 265.304 301.328 258.015 301.956 249.907L307.137 183.096L338.5 183.096L332 270.173Z" fill="black" fill-opacity="0.25"/>
</svg>
