<svg width="1000" height="1000" viewBox="0 0 1000 1000" fill="none" xmlns="http://www.w3.org/2000/svg">
<g filter="url(#filter0_d_269_375219)">
<ellipse rx="40.4705" ry="41.1639" transform="matrix(0.969624 0.2446 -0.235904 0.971776 506.507 159.588)" fill="#C4C4C4"/>
<path d="M598.186 205.215C584.641 261.014 529.332 294.945 474.755 281.177C420.177 267.409 386.774 211.099 400.32 155.301C405.918 132.239 414.934 116.189 425.686 105.401C436.416 94.6344 449.069 88.9136 462.312 86.8043C488.98 82.5565 518.129 92.978 537.831 106.815C548.352 114.204 558.995 118.799 568.357 122.841L568.36 122.843C577.893 126.958 585.78 130.389 591.787 135.456C597.555 140.321 601.689 146.808 603.189 157.397C604.718 168.2 603.504 183.309 598.186 205.215Z" fill="#E40303" stroke="black" stroke-width="8"/>
<path d="M602.069 206.194C588.018 264.077 530.596 299.388 473.815 285.065C417.033 270.741 382.394 212.206 396.445 154.323C425.084 223.951 436.229 251.809 499.959 251.754C583.645 251.682 623.53 117.79 602.069 206.194Z" fill="black" fill-opacity="0.25"/>
<path d="M549.68 133.843C540.927 143.15 526.414 143.446 517.265 134.504C508.116 125.562 504.977 113.407 513.73 104.1C521.105 100.467 526.096 108.322 538.069 115.333C546.38 120.2 563.049 119.629 549.68 133.843Z" fill="black" fill-opacity="0.25"/>
<path d="M604.95 42.0226L605.047 41.9733L605.148 41.9328C608.726 40.4967 612.55 37.484 614.772 33.8638C616.94 30.3315 617.464 26.4974 615.177 22.8031C613.912 20.7576 612.606 19.6362 611.341 19.0511C610.08 18.4679 608.637 18.3151 606.919 18.5942C603.324 19.1777 599.038 21.5438 593.988 24.7917C593.007 25.4225 590.948 27.2598 587.982 30.27C585.086 33.208 581.491 37.0914 577.497 41.629C569.509 50.7039 559.978 62.3354 551.331 74.1441C542.663 85.9812 534.97 97.8799 530.574 107.513C528.366 112.352 527.083 116.424 526.826 119.53C526.571 122.611 527.337 124.199 528.568 125.041C530.816 126.579 531.929 126.641 532.45 126.513C532.975 126.384 533.765 125.856 534.863 123.941C535.935 122.072 536.994 119.44 538.331 115.99C538.467 115.638 538.606 115.28 538.747 114.914C539.966 111.759 541.384 108.09 543.161 104.093C551.158 86.1053 566.393 61.5804 604.95 42.0226Z" fill="#5F3016" stroke="black" stroke-width="5"/>
<ellipse rx="15.3788" ry="15.6423" transform="matrix(0.969624 0.2446 -0.235904 0.971776 458.567 120.326)" fill="white" fill-opacity="0.25"/>
</g>
<defs>
<filter id="filter0_d_269_375219" x="388.314" y="15.9397" width="233.83" height="283.312" filterUnits="userSpaceOnUse" color-interpolation-filters="sRGB">
<feFlood flood-opacity="0" result="BackgroundImageFix"/>
<feColorMatrix in="SourceAlpha" type="matrix" values="0 0 0 0 0 0 0 0 0 0 0 0 0 0 0 0 0 0 127 0" result="hardAlpha"/>
<feOffset dx="-1" dy="7"/>
<feGaussianBlur stdDeviation="2"/>
<feComposite in2="hardAlpha" operator="out"/>
<feColorMatrix type="matrix" values="0 0 0 0 0 0 0 0 0 0 0 0 0 0 0 0 0 0 0.25 0"/>
<feBlend mode="normal" in2="BackgroundImageFix" result="effect1_dropShadow_269_375219"/>
<feBlend mode="normal" in="SourceGraphic" in2="effect1_dropShadow_269_375219" result="shape"/>
</filter>
</defs>
</svg>
