<svg width="1000" height="1000" viewBox="0 0 1000 1000" fill="none" xmlns="http://www.w3.org/2000/svg">
<g clip-path="url(#clip0_880_39926)">
<mask id="path-1-outside-1_880_39926" maskUnits="userSpaceOnUse" x="140.289" y="385" width="610" height="466" fill="black">
<rect fill="white" x="140.289" y="385" width="610" height="466"/>
<path fill-rule="evenodd" clip-rule="evenodd" d="M202.573 399C168.47 445.692 146.289 507.761 146.289 564.383L146.289 564.383C146.289 601.203 154.011 637.663 169.013 671.681C184.015 705.698 206.004 736.608 233.725 762.644C261.446 788.68 294.355 809.332 330.573 823.423C366.792 837.514 405.611 844.766 444.814 844.766C484.017 844.766 522.836 837.514 559.055 823.423C595.273 809.332 628.182 788.68 655.903 762.644C683.624 736.608 705.613 705.698 720.615 671.681C735.617 637.663 743.339 601.203 743.339 564.383C747.594 481.5 732.345 417 665.939 417V445.5C709.891 459 709.891 503.5 709.891 564.383C709.89 597.078 703.034 629.452 689.712 659.658C676.391 689.865 656.866 717.31 632.251 740.429C607.637 763.548 578.415 781.887 546.254 794.398C514.094 806.91 479.624 813.35 444.814 813.35C410.004 813.35 375.534 806.91 343.374 794.398C311.213 781.887 281.991 763.548 257.377 740.429C232.762 717.31 213.237 689.864 199.916 659.658C186.594 629.452 179.738 597.078 179.738 564.383L179.738 564.383C179.738 514.105 187.048 497.96 217.33 456.5L202.573 399Z"/>
</mask>
<path fill-rule="evenodd" clip-rule="evenodd" d="M202.573 399C168.47 445.692 146.289 507.761 146.289 564.383L146.289 564.383C146.289 601.203 154.011 637.663 169.013 671.681C184.015 705.698 206.004 736.608 233.725 762.644C261.446 788.68 294.355 809.332 330.573 823.423C366.792 837.514 405.611 844.766 444.814 844.766C484.017 844.766 522.836 837.514 559.055 823.423C595.273 809.332 628.182 788.68 655.903 762.644C683.624 736.608 705.613 705.698 720.615 671.681C735.617 637.663 743.339 601.203 743.339 564.383C747.594 481.5 732.345 417 665.939 417V445.5C709.891 459 709.891 503.5 709.891 564.383C709.89 597.078 703.034 629.452 689.712 659.658C676.391 689.865 656.866 717.31 632.251 740.429C607.637 763.548 578.415 781.887 546.254 794.398C514.094 806.91 479.624 813.35 444.814 813.35C410.004 813.35 375.534 806.91 343.374 794.398C311.213 781.887 281.991 763.548 257.377 740.429C232.762 717.31 213.237 689.864 199.916 659.658C186.594 629.452 179.738 597.078 179.738 564.383L179.738 564.383C179.738 514.105 187.048 497.96 217.33 456.5L202.573 399Z" fill="#C4C4C4"/>
<path d="M146.289 564.383L144.741 570.18L152.289 572.196L152.289 564.383H146.289ZM202.573 399L208.385 397.508L205.225 385.197L197.728 395.461L202.573 399ZM146.289 564.383L147.837 558.586L140.289 556.57L140.289 564.383H146.289ZM169.013 671.681L163.523 674.102L169.013 671.681ZM233.725 762.644L237.833 758.27L233.725 762.644ZM330.573 823.423L328.398 829.015H328.398L330.573 823.423ZM655.903 762.644L660.011 767.017L655.903 762.644ZM720.615 671.681L726.105 674.102L720.615 671.681ZM743.339 564.383L737.347 564.076L737.339 564.229V564.383L743.339 564.383ZM665.939 417V411H659.939V417H665.939ZM665.939 445.5H659.939V449.934L664.177 451.236L665.939 445.5ZM709.891 564.383L715.891 564.383V564.383H709.891ZM689.712 659.658L695.202 662.08L689.712 659.658ZM632.251 740.429L636.359 744.803L632.251 740.429ZM343.374 794.398L341.198 799.99H341.198L343.374 794.398ZM199.916 659.658L194.426 662.08L199.916 659.658ZM179.738 564.383L181.068 558.532L173.738 556.866V564.383H179.738ZM179.738 564.383L178.409 570.234L185.738 571.9V564.383H179.738ZM217.33 456.5L222.175 460.039L223.846 457.752L223.142 455.009L217.33 456.5ZM152.289 564.383C152.289 509.171 173.98 448.32 207.418 402.539L197.728 395.461C162.96 443.063 140.289 506.351 140.289 564.383H152.289ZM144.741 570.18L144.741 570.18L147.838 558.586L147.837 558.586L144.741 570.18ZM174.503 669.26C159.834 635.997 152.289 600.361 152.289 564.383H140.289C140.289 602.045 148.188 639.329 163.523 674.102L174.503 669.26ZM237.833 758.27C210.685 732.773 189.172 702.523 174.503 669.26L163.523 674.102C178.858 708.874 201.323 740.443 229.617 767.017L237.833 758.27ZM332.749 817.831C297.23 804.013 264.981 783.768 237.833 758.27L229.617 767.017C257.91 793.591 291.479 814.652 328.398 829.015L332.749 817.831ZM444.814 838.766C406.349 838.766 368.268 831.65 332.749 817.831L328.398 829.015C365.316 843.378 404.874 850.766 444.814 850.766V838.766ZM556.879 817.831C521.36 831.65 483.279 838.766 444.814 838.766V850.766C484.754 850.766 524.312 843.378 561.23 829.015L556.879 817.831ZM651.795 758.27C624.647 783.768 592.398 804.013 556.879 817.831L561.23 829.015C598.149 814.652 631.718 793.591 660.011 767.017L651.795 758.27ZM715.125 669.26C700.456 702.523 678.943 732.773 651.795 758.27L660.011 767.017C688.305 740.443 710.77 708.874 726.105 674.102L715.125 669.26ZM737.339 564.383C737.339 600.361 729.795 635.997 715.125 669.26L726.105 674.102C741.44 639.329 749.339 602.045 749.339 564.383L737.339 564.383ZM665.939 423C681.531 423 693.704 426.771 703.251 433.321C712.826 439.89 720.188 449.549 725.639 462.014C736.639 487.171 739.463 522.848 737.347 564.076L749.331 564.691C751.47 523.035 748.796 485.021 736.634 457.207C730.503 443.187 721.869 431.541 710.04 423.426C698.185 415.292 683.549 411 665.939 411V423ZM671.939 445.5V417H659.939V445.5H671.939ZM715.891 564.383C715.891 534.235 715.937 506.975 710.191 485.614C707.279 474.791 702.807 465.147 695.852 457.245C688.858 449.299 679.625 443.427 667.7 439.765L664.177 451.236C674.228 454.323 681.477 459.076 686.845 465.174C692.251 471.315 696.02 479.133 698.603 488.732C703.844 508.217 703.891 533.649 703.891 564.383H715.891ZM695.202 662.08C708.857 631.118 715.89 597.92 715.891 564.383L703.891 564.383C703.89 596.236 697.211 627.786 684.223 657.237L695.202 662.08ZM636.359 744.803C661.547 721.145 681.548 693.04 695.202 662.08L684.223 657.237C671.234 686.689 652.185 713.475 628.143 736.056L636.359 744.803ZM548.43 799.99C581.29 787.206 611.172 768.459 636.359 744.803L628.143 736.056C604.101 758.637 575.539 776.567 544.079 788.807L548.43 799.99ZM444.814 819.35C480.362 819.35 515.569 812.774 548.43 799.99L544.079 788.807C512.618 801.046 478.887 807.35 444.814 807.35V819.35ZM341.198 799.99C374.059 812.774 409.266 819.35 444.814 819.35V807.35C410.741 807.35 377.01 801.046 345.549 788.807L341.198 799.99ZM253.269 744.803C278.456 768.459 308.338 787.206 341.198 799.99L345.549 788.807C314.089 776.567 285.527 758.637 261.485 736.056L253.269 744.803ZM194.426 662.08C208.08 693.04 228.081 721.145 253.269 744.803L261.485 736.056C237.443 713.475 218.394 686.689 205.405 657.237L194.426 662.08ZM173.738 564.383C173.738 597.92 180.771 631.118 194.426 662.08L205.405 657.237C192.417 627.786 185.738 596.236 185.738 564.383H173.738ZM181.068 558.532L181.068 558.532L178.408 570.234L178.409 570.234L181.068 558.532ZM212.485 452.961C197.337 473.701 187.469 488.707 181.537 505.093C175.571 521.572 173.738 538.999 173.738 564.383H185.738C185.738 539.489 187.561 523.705 192.82 509.177C198.114 494.556 207.042 480.759 222.175 460.039L212.485 452.961ZM196.762 400.492L211.518 457.992L223.142 455.009L208.385 397.508L196.762 400.492Z" fill="black" mask="url(#path-1-outside-1_880_39926)"/>
<rect x="661.332" y="385" width="49.0201" height="122.601" rx="21" fill="#3C3C3C" stroke="black" stroke-width="6"/>
<rect x="-3" y="3" width="49.0201" height="122.601" rx="21" transform="matrix(-1 0 0 1 220.129 381.455)" fill="#3C3C3C" stroke="black" stroke-width="6"/>
<mask id="path-5-outside-2_880_39926" maskUnits="userSpaceOnUse" x="48.5" y="723.984" width="587" height="426" fill="black">
<rect fill="white" x="48.5" y="723.984" width="587" height="426"/>
<path fill-rule="evenodd" clip-rule="evenodd" d="M228.742 767.357C225.147 764.285 225.153 758.773 228.657 755.597L254.628 732.062C257.677 729.299 262.315 729.31 265.442 731.984C309.089 769.302 365.669 791.898 425.675 795.831C485.705 799.767 545.309 784.772 594.44 753.508C597.921 751.293 602.53 751.95 605.152 755.135L626.976 781.643C629.973 785.284 629.192 790.722 625.213 793.253C572.52 826.779 509.834 844.781 445.685 844.998C446.008 881.851 445.63 926.693 432.312 970.64C416.959 1021.31 387.074 1082.93 347.75 1117.13C327.82 1134.47 303.727 1146.2 276.888 1143.27C250.068 1140.34 224.711 1123.23 201.233 1092.14L200.606 1091.31L200.091 1090.41C170.929 1039.12 134.03 982 54.5 982V950C153.367 950 198.523 1022.99 227.383 1073.67C247.655 1100.22 265.705 1109.86 280.362 1111.46C295.148 1113.08 310.68 1106.97 326.75 1092.99C359.426 1064.57 387.041 1009.69 401.688 961.36C413.806 921.369 413.955 880.708 413.648 843.625C344.393 837.44 279.358 810.609 228.742 767.357Z"/>
</mask>
<path fill-rule="evenodd" clip-rule="evenodd" d="M228.742 767.357C225.147 764.285 225.153 758.773 228.657 755.597L254.628 732.062C257.677 729.299 262.315 729.31 265.442 731.984C309.089 769.302 365.669 791.898 425.675 795.831C485.705 799.767 545.309 784.772 594.44 753.508C597.921 751.293 602.53 751.95 605.152 755.135L626.976 781.643C629.973 785.284 629.192 790.722 625.213 793.253C572.52 826.779 509.834 844.781 445.685 844.998C446.008 881.851 445.63 926.693 432.312 970.64C416.959 1021.31 387.074 1082.93 347.75 1117.13C327.82 1134.47 303.727 1146.2 276.888 1143.27C250.068 1140.34 224.711 1123.23 201.233 1092.14L200.606 1091.31L200.091 1090.41C170.929 1039.12 134.03 982 54.5 982V950C153.367 950 198.523 1022.99 227.383 1073.67C247.655 1100.22 265.705 1109.86 280.362 1111.46C295.148 1113.08 310.68 1106.97 326.75 1092.99C359.426 1064.57 387.041 1009.69 401.688 961.36C413.806 921.369 413.955 880.708 413.648 843.625C344.393 837.44 279.358 810.609 228.742 767.357Z" fill="#3C3C3C"/>
<path d="M228.657 755.597L232.686 760.044V760.044L228.657 755.597ZM228.742 767.357L232.64 762.796V762.796L228.742 767.357ZM254.628 732.062L250.599 727.616V727.616L254.628 732.062ZM265.442 731.984L269.341 727.423V727.423L265.442 731.984ZM425.675 795.831L426.067 789.844L425.675 795.831ZM594.44 753.508L591.218 748.446V748.446L594.44 753.508ZM605.152 755.135L609.785 751.322V751.322L605.152 755.135ZM626.976 781.643L631.608 777.83V777.83L626.976 781.643ZM625.213 793.253L621.992 788.191V788.191L625.213 793.253ZM445.685 844.998L445.665 838.998L439.632 839.019L439.685 845.051L445.685 844.998ZM432.312 970.64L426.57 968.9L432.312 970.64ZM347.75 1117.13L343.813 1112.61L347.75 1117.13ZM276.888 1143.27L276.236 1149.24H276.236L276.888 1143.27ZM201.233 1092.14L206.021 1088.53L206.021 1088.53L201.233 1092.14ZM200.606 1091.31L195.39 1094.28L195.583 1094.62L195.818 1094.93L200.606 1091.31ZM200.091 1090.41L194.876 1093.37L194.876 1093.37L200.091 1090.41ZM54.5 982H48.5V988H54.5V982ZM54.5 950V944H48.5V950H54.5ZM227.383 1073.67L222.169 1076.64L222.369 1076.99L222.614 1077.31L227.383 1073.67ZM280.362 1111.46L281.014 1105.5H281.014L280.362 1111.46ZM326.75 1092.99L330.687 1097.52L326.75 1092.99ZM401.688 961.36L395.945 959.62L401.688 961.36ZM413.648 843.625L419.647 843.576L419.602 838.133L414.181 837.649L413.648 843.625ZM224.628 751.151C218.533 756.674 218.409 766.42 224.844 771.919L232.64 762.796C231.885 762.151 231.772 760.872 232.686 760.044L224.628 751.151ZM250.599 727.616L224.628 751.151L232.686 760.044L258.657 736.508L250.599 727.616ZM269.341 727.423C264.001 722.858 255.964 722.754 250.599 727.616L258.657 736.508C259.389 735.844 260.629 735.763 261.543 736.544L269.341 727.423ZM426.067 789.844C367.294 785.992 311.959 763.862 269.341 727.423L261.543 736.544C306.218 774.742 364.044 797.804 425.283 801.819L426.067 789.844ZM591.218 748.446C543.197 779.004 484.865 793.699 426.067 789.844L425.283 801.819C486.545 805.834 547.421 790.539 597.661 758.57L591.218 748.446ZM609.785 751.322C605.17 745.716 597.169 744.66 591.218 748.446L597.661 758.57C598.673 757.926 599.89 758.183 600.52 758.949L609.785 751.322ZM631.608 777.83L609.785 751.322L600.52 758.949L622.344 785.457L631.608 777.83ZM628.434 798.316C635.549 793.788 636.823 784.164 631.608 777.83L622.344 785.457C623.124 786.404 622.834 787.655 621.992 788.191L628.434 798.316ZM445.705 850.998C510.949 850.777 574.752 832.471 628.434 798.316L621.992 788.191C570.288 821.088 508.718 838.785 445.665 838.998L445.705 850.998ZM439.685 845.051C440.008 881.903 439.595 925.918 426.57 968.9L438.055 972.38C451.664 927.469 452.008 881.8 451.685 844.946L439.685 845.051ZM426.57 968.9C411.349 1019.13 381.89 1079.49 343.813 1112.61L351.688 1121.66C392.257 1086.38 422.569 1023.48 438.055 972.38L426.57 968.9ZM343.813 1112.61C324.602 1129.32 302.114 1139.99 277.539 1137.31L276.236 1149.24C305.341 1152.42 331.039 1139.62 351.688 1121.66L343.813 1112.61ZM277.539 1137.31C252.976 1134.62 228.947 1118.88 206.021 1088.53L196.445 1095.76C220.474 1127.57 247.161 1146.06 276.236 1149.24L277.539 1137.31ZM206.021 1088.53L205.393 1087.7L195.818 1094.93L196.445 1095.76L206.021 1088.53ZM205.821 1088.35L205.307 1087.44L194.876 1093.37L195.39 1094.28L205.821 1088.35ZM205.307 1087.44C176.203 1036.26 137.767 976 54.5 976V988C130.294 988 165.654 1041.98 194.876 1093.37L205.307 1087.44ZM60.5 982V950H48.5V982H60.5ZM54.5 956C149.647 956 193.265 1025.88 222.169 1076.64L232.597 1070.7C203.781 1020.09 157.087 944 54.5 944V956ZM222.614 1077.31C243.452 1104.6 262.829 1115.58 279.711 1117.43L281.014 1105.5C268.581 1104.14 251.858 1095.84 232.152 1070.03L222.614 1077.31ZM279.711 1117.43C296.749 1119.29 313.886 1112.13 330.687 1097.52L322.812 1088.46C307.473 1101.8 293.546 1106.87 281.014 1105.5L279.711 1117.43ZM330.687 1097.52C364.61 1068.01 392.651 1011.87 407.43 963.1L395.945 959.62C381.431 1007.52 354.242 1061.12 322.812 1088.46L330.687 1097.52ZM407.43 963.1C419.846 922.125 419.955 880.608 419.647 843.576L407.648 843.675C407.956 880.809 407.766 920.612 395.945 959.62L407.43 963.1ZM224.844 771.919C276.451 816.017 342.677 843.311 413.114 849.602L414.181 837.649C346.11 831.57 282.265 805.201 232.64 762.796L224.844 771.919Z" fill="black" mask="url(#path-5-outside-2_880_39926)"/>
<path d="M115.87 932.846L115.87 932.845C89.2789 902.551 43.1425 899.539 12.8463 926.13C-17.4491 952.719 -20.461 998.853 6.12981 1029.15C32.7214 1059.46 78.8584 1062.45 109.154 1035.86C139.45 1009.27 142.46 963.158 115.87 932.846Z" fill="#C4C4C4" stroke="black" stroke-width="6"/>
<path d="M34.6955 1004.08C21.9381 989.557 23.3913 967.437 37.9153 954.697L34.6955 1004.08ZM34.6955 1004.08C47.4359 1018.61 69.5562 1020.06 84.0832 1007.3L34.6955 1004.08ZM87.3031 957.915C74.5624 943.391 52.4426 941.938 37.916 954.696L87.3031 957.915ZM84.084 1007.3C98.6089 994.563 100.062 972.443 87.3038 957.916L84.084 1007.3Z" fill="#3C3C3C" stroke="black" stroke-width="6"/>
</g>
<defs>
<clipPath id="clip0_880_39926">
<rect width="1000" height="1000" fill="white"/>
</clipPath>
</defs>
</svg>
