<svg width="1000" height="1000" viewBox="0 0 1000 1000" fill="none" xmlns="http://www.w3.org/2000/svg">
<ellipse rx="56.9913" ry="33.2186" transform="matrix(-0.840951 0.541112 0.546795 0.837267 318.644 293.349)" fill="#090909"/>
<path d="M294.778 318.316L294.544 318.316L294.311 318.342C288.489 319.009 281.171 316.538 273.376 310.258C265.653 304.037 257.868 294.383 251.249 281.639C238.024 256.18 229.669 218.803 235.524 173.295C235.564 172.986 235.664 172.887 235.709 172.845C235.786 172.773 235.952 172.67 236.223 172.63C236.493 172.591 236.77 172.632 236.997 172.739C237.197 172.834 237.398 172.998 237.553 173.314C249.917 198.409 264.241 214.761 278.679 226.019C293.096 237.261 307.476 243.301 319.671 247.924C321.382 248.573 323.034 249.187 324.63 249.781C328.782 251.327 332.551 252.73 335.994 254.217C340.731 256.262 344.476 258.317 347.277 260.777C350.005 263.172 351.871 265.982 352.813 269.689C353.775 273.473 353.833 278.435 352.494 285.195C349.271 301.46 332.089 318.316 294.778 318.316Z" fill="#E40303" stroke="black" stroke-width="8"/>
<path d="M232.781 168.033C217.458 260.308 278.021 334.318 303.28 314.123C314.302 305.311 289.473 301.045 280.55 299.649C279.445 299.476 278.395 299.145 277.354 298.76C268.408 295.452 233.014 283.282 232.781 168.033Z" fill="black" fill-opacity="0.5"/>
<path d="M326.554 253.538C354.688 262.24 350.826 275.022 350.401 279.749C340.181 281.038 330.663 283.704 320.593 279.749C265.384 258.064 238.408 188.226 237.557 180.492C239.26 177.484 252.886 229.476 326.554 253.538Z" fill="white" fill-opacity="0.25"/>
<ellipse rx="56.9913" ry="33.2186" transform="matrix(0.840951 0.541112 -0.546795 0.837267 495.355 293.349)" fill="#090909"/>
<path d="M519.222 318.316L519.456 318.316L519.689 318.342C525.51 319.009 532.828 316.538 540.624 310.258C548.346 304.037 556.131 294.383 562.751 281.639C575.976 256.18 584.331 218.803 578.475 173.295C578.435 172.986 578.336 172.887 578.291 172.845C578.213 172.773 578.047 172.67 577.777 172.63C577.507 172.591 577.229 172.632 577.003 172.739C576.802 172.834 576.602 172.998 576.446 173.314C564.083 198.409 549.759 214.761 535.321 226.019C520.904 237.261 506.523 243.301 494.329 247.924C492.617 248.573 490.965 249.187 489.37 249.781C485.218 251.327 481.448 252.73 478.005 254.217C473.269 256.262 469.523 258.317 466.723 260.777C463.995 263.172 462.128 265.982 461.186 269.689C460.224 273.473 460.166 278.435 461.506 285.195C464.728 301.46 481.911 318.316 519.222 318.316Z" fill="#E40303" stroke="black" stroke-width="8"/>
<path d="M581.219 168.033C596.541 260.308 535.978 334.318 510.719 314.123C499.698 305.311 524.527 301.045 533.45 299.649C534.555 299.476 535.605 299.145 536.645 298.76C545.592 295.452 580.986 283.282 581.219 168.033Z" fill="black" fill-opacity="0.5"/>
<path d="M487.445 253.538C459.312 262.24 463.173 275.022 463.599 279.749C473.819 281.038 483.336 283.704 493.407 279.749C548.615 258.064 575.591 188.226 576.443 180.492C574.74 177.484 561.113 229.476 487.445 253.538Z" fill="white" fill-opacity="0.25"/>
</svg>
