<svg width="1008" height="1011" viewBox="0 0 1008 1011" fill="none" xmlns="http://www.w3.org/2000/svg">
<g filter="url(#filter0_d_615_21579)">
<g filter="url(#filter1_i_615_21579)">
<path d="M383.5 497.499C282.5 500.5 223.899 591.859 214.899 558.359C190.4 550.359 208.843 656.718 233.975 703.999C251.824 737.579 269.162 765.769 293.937 805.066C348.446 891.524 407.977 974.336 420.867 976.566C429.248 978.016 626.367 871.066 733.367 749.066C822.414 647.536 799.999 554.999 794.999 559.499C744.26 605.165 548.363 492.601 383.5 497.499Z" fill="#9B51E0"/>
</g>
<path d="M383.5 497.499C282.5 500.5 223.899 591.859 214.899 558.359C190.4 550.359 208.843 656.718 233.975 703.999C251.824 737.579 269.162 765.769 293.937 805.066C348.446 891.524 407.977 974.336 420.867 976.566C429.248 978.016 626.367 871.066 733.367 749.066C822.414 647.536 799.999 554.999 794.999 559.499C744.26 605.165 548.363 492.601 383.5 497.499Z" stroke="black" stroke-width="6" stroke-linecap="round"/>
<path d="M209 582.499C224.847 607.641 271.079 656.252 283.5 666.499C302.175 681.906 416.758 723.034 413.133 726.787C418.869 729.066 421.68 730.487 419.866 730.566C399.483 731.451 322.366 696.566 293.366 685.066C264.62 673.667 233.689 632.547 229.884 628.575C223.466 621.874 205.017 585.497 204.499 581.999C202.5 568.499 207.656 581.208 209 582.499Z" fill="black" fill-opacity="0.5"/>
<path d="M663.847 675.687C679.28 671.096 759.499 605.5 779.499 584C799.499 562.5 791.65 559.829 797.499 561.5C804.499 563.5 764.417 610.799 757.999 617.5C754.194 621.471 685.495 676.363 656.346 686.687C627.197 697.011 498.229 705.072 477.846 704.187C457.463 703.301 494.624 699.064 530.847 698.687C567.07 698.31 648.415 680.278 663.847 675.687Z" fill="black" fill-opacity="0.5"/>
<path d="M283.302 557.881C314.382 559.511 385.824 540.53 394.811 541.001C422.773 542.467 507.781 554.293 597.501 562C616.987 563.674 425.554 518.079 395.963 519.031C374.387 519.725 264.028 556.871 283.302 557.881Z" fill="black" fill-opacity="0.25"/>
<path d="M283.001 557C321.501 551.5 386.965 529.529 395.952 530C423.914 531.466 505.512 543.001 597.001 561.5C616.171 565.376 423.591 518.048 394.001 519C372.425 519.695 263.895 559.73 283.001 557Z" fill="black" fill-opacity="0.25"/>
<path d="M281.501 555.5C330.388 535.946 355.397 526.301 391.508 518.928C393.152 518.593 394.826 518.467 396.499 518.593C416.904 520.129 457.395 527.529 509.501 540.5C517.983 542.612 550.219 547.347 598.538 561.04C610.854 564.531 468.709 516.182 428.001 509.542C402.34 505.356 389.639 505.964 361.693 513.731C334.628 521.254 272.112 559.256 281.501 555.5Z" fill="white" fill-opacity="0.25"/>
<g filter="url(#filter2_i_615_21579)">
<mask id="path-7-inside-1_615_21579" fill="white">
<path d="M404.494 571.047C345.804 569.262 296.773 615.591 294.981 674.526C293.509 722.924 324.902 764.772 368.481 779.178L369.558 743.761C344.499 731.561 327.575 705.365 328.481 675.545C329.712 635.094 363.288 603.292 403.476 604.515C443.665 605.737 475.246 639.52 474.016 679.971C473.109 709.791 454.624 734.911 428.87 745.565L427.793 780.982C472.167 769.251 506.045 729.388 507.517 680.99C509.309 622.055 463.184 572.832 404.494 571.047Z"/>
</mask>
<path d="M404.494 571.047C345.804 569.262 296.773 615.591 294.981 674.526C293.509 722.924 324.902 764.772 368.481 779.178L369.558 743.761C344.499 731.561 327.575 705.365 328.481 675.545C329.712 635.094 363.288 603.292 403.476 604.515C443.665 605.737 475.246 639.52 474.016 679.971C473.109 709.791 454.624 734.911 428.87 745.565L427.793 780.982C472.167 769.251 506.045 729.388 507.517 680.99C509.309 622.055 463.184 572.832 404.494 571.047Z" fill="#F2F2F2"/>
<path d="M368.481 779.178L367.853 781.077L370.398 781.918L370.48 779.238L368.481 779.178ZM427.793 780.982L425.794 780.921L425.712 783.6L428.304 782.915L427.793 780.982ZM369.558 743.761L371.557 743.822L371.596 742.529L370.433 741.963L369.558 743.761ZM428.87 745.565L428.106 743.717L426.91 744.211L426.871 745.504L428.87 745.565ZM296.98 674.587C298.739 616.748 346.855 571.295 404.434 573.047L404.555 569.048C344.753 567.23 294.808 614.434 292.982 674.465L296.98 674.587ZM404.434 573.047C462.012 574.798 507.277 623.091 505.518 680.929L509.516 681.051C511.341 621.02 464.357 570.867 404.555 569.048L404.434 573.047ZM369.108 777.279C326.335 763.14 295.536 722.064 296.98 674.587L292.982 674.465C291.482 723.784 323.468 766.405 367.853 781.077L369.108 777.279ZM505.518 680.929C504.074 728.407 470.835 767.534 427.282 779.048L428.304 782.915C473.499 770.968 508.016 730.369 509.516 681.051L505.518 680.929ZM330.481 675.606C331.678 636.246 364.344 605.325 403.416 606.514L403.537 602.515C362.233 601.259 327.746 633.941 326.482 675.484L330.481 675.606ZM403.416 606.514C442.488 607.702 473.214 640.551 472.017 679.91L476.015 680.032C477.279 638.489 444.842 603.772 403.537 602.515L403.416 606.514ZM370.433 741.963C346.061 730.098 329.598 704.616 330.481 675.606L326.482 675.484C325.551 706.114 342.937 733.025 368.682 745.559L370.433 741.963ZM472.017 679.91C471.135 708.921 453.153 733.355 428.106 743.717L429.635 747.413C456.095 736.467 475.084 710.662 476.015 680.032L472.017 679.91ZM367.559 743.7L366.482 779.117L370.48 779.238L371.557 743.822L367.559 743.7ZM426.871 745.504L425.794 780.921L429.792 781.042L430.869 745.626L426.871 745.504Z" fill="black" mask="url(#path-7-inside-1_615_21579)"/>
<path d="M418.844 892.5L373.91 886C373.91 883.157 373 857.5 373.91 848L342.238 845L341.276 834.486C340.76 828.839 340.724 823.158 341.171 817.505L342.238 804L373.91 807.012L375.5 769L377.156 740.886C377.242 739.415 377.018 737.936 376.312 736.644C373.251 731.046 365.22 720.433 357.426 718.792C346.327 716.455 342.238 700.683 342.238 692.505C342.238 684.326 340.777 672.643 357.426 672.643C375.535 672.643 396.564 671.475 399.485 673.811C402.406 676.148 400.654 688.415 393.644 687.831C386.634 687.247 366.762 683.808 365.604 691.336C364.436 698.93 379.624 705.94 393.644 703.604C407.663 701.267 406.379 692.505 429.861 692.505C440.96 692.505 447.668 692.587 447.97 697.762C448.238 702.349 444.254 713.161 440.96 716.455C436.456 720.96 429.325 727.525 424.702 731.852C422.847 733.587 421.758 735.975 421.626 738.511L420.043 769L418.844 810L453.228 812.5L452.5 832V855L418.844 852C417.513 867.425 418.844 891.188 418.844 892.5Z" fill="#F2F2F2" stroke="black" stroke-width="2"/>
<path d="M372.262 662.225C371.127 664.684 369.881 665.917 368.622 666.433C363.826 668.398 356.673 668.459 353.009 664.793C350.442 662.225 349.158 655.804 349.158 649.384C349.158 643.465 351.725 632.691 353.009 628.839C354.292 624.987 358.785 621.135 365.202 621.135C371.62 621.135 372.262 619.851 374.187 625.629C376.112 631.407 376.112 653.878 372.262 662.225Z" fill="#F2F2F2" stroke="black" stroke-width="2"/>
<path d="M404.474 653.303C401.745 670.902 394.925 666.823 392.878 664.99C391.06 664.303 386.603 662.24 383.329 659.49C379.237 656.053 381.965 629.241 383.329 619.616C384.694 609.991 389.468 612.053 402.428 612.053C415.387 612.053 407.884 631.303 404.474 653.303Z" fill="#F2F2F2" stroke="black" stroke-width="2"/>
<path d="M448.304 637.109C458.549 635.57 456.973 654.033 457.761 656.34C456.185 680.187 449.88 680.438 448.304 682.746C446.728 685.054 441.211 682.746 437.27 680.438C433.329 678.13 434.906 660.187 435.694 656.34C436.331 653.23 438.059 638.648 448.304 637.109Z" fill="#F2F2F2" stroke="black" stroke-width="2"/>
<path d="M417.68 624.174C419.555 619.792 427.677 623.548 432.676 626.051C437.461 628.448 433.085 644.036 432.702 647.012C432.543 647.943 430.799 669.866 422.678 670.492C415.575 671.04 413.93 673.622 411.431 665.485C408.932 657.348 415.806 628.555 417.68 624.174Z" fill="#F2F2F2"/>
<path d="M432.676 647.333C432.676 647.253 432.685 647.145 432.702 647.012M432.702 647.012C433.085 644.036 437.461 628.448 432.676 626.051C427.677 623.548 419.555 619.792 417.68 624.174C415.806 628.555 408.932 657.348 411.431 665.485C413.93 673.622 415.575 671.04 422.678 670.492C430.799 669.866 432.543 647.943 432.702 647.012Z" stroke="black" stroke-width="2"/>
</g>
<path d="M204.999 584.999C205 589.999 226.669 647.757 250.999 664C257.189 668.132 281.275 687.822 307.366 701.533C320.602 708.488 332.905 714.565 340.728 717.622C366.872 727.839 422.167 732.848 412.865 730.067C359.365 714.067 345.5 706.5 326.999 698.5C292.499 683.581 289.219 685.656 277.499 676.5C264.006 665.958 231.499 637.999 213.999 602.499C210.289 596.183 204.999 581.798 204.999 584.999Z" fill="white" fill-opacity="0.25"/>
<path d="M472.807 705.766C489.807 705.766 640.514 698.056 664.014 683.056C665.847 682.139 711.515 654.555 754.515 619.055C796.015 579.055 798.96 549.781 795.514 576.056C791.514 606.556 723.687 667.335 696.307 677.766C685.807 681.766 648.367 703.462 623.595 706.646C595.733 710.227 462.695 705.766 472.807 705.766Z" fill="white" fill-opacity="0.25"/>
<path d="M624.41 675.84C639.843 671.248 744.496 601.499 768.497 582.999C792.498 564.499 791.149 559.828 796.998 561.499C803.998 563.5 764.781 610.865 758.363 617.566C754.558 621.538 686.012 677.242 656.863 687.566C627.714 697.891 498.746 705.952 478.363 705.066C457.98 704.181 498.64 693.705 534.863 693.328C571.086 692.952 608.977 680.431 624.41 675.84Z" fill="black" fill-opacity="0.25"/>
<path d="M205.001 571.999C211.661 575.956 256.443 633.406 281.015 660.468C287.984 668.143 296.827 673.71 306.343 677.826C343.965 694.099 356.613 699.826 378.903 707.196C397.869 713.467 431.5 717.498 426.5 720.998C410.5 723.498 389.116 721.618 366 714.498C340.277 706.576 315.9 691.842 303.336 687.484C240.971 665.849 197.718 567.672 205.001 571.999Z" fill="black" fill-opacity="0.25"/>
<path d="M218.501 645C248.501 679.5 267.001 752.501 385.501 824.5C442.051 831.692 583.641 746.346 576.001 760C552.501 802 413.501 925 392.501 920C383.615 917.885 340.501 863.33 311.501 817C270.501 751.5 189.926 612.14 218.501 645Z" fill="black" fill-opacity="0.25"/>
<g filter="url(#filter3_d_615_21579)">
<path d="M402.13 919.116C391.33 920.716 404.296 961.617 411.629 968.117L455.129 947.617L496.129 922.117C467.629 933.117 412.93 917.516 402.13 919.116Z" fill="black" fill-opacity="0.25" shape-rendering="crispEdges"/>
</g>
</g>
<defs>
<filter id="filter0_d_615_21579" x="0" y="0" width="1008" height="1011" filterUnits="userSpaceOnUse" color-interpolation-filters="sRGB">
<feFlood flood-opacity="0" result="BackgroundImageFix"/>
<feColorMatrix in="SourceAlpha" type="matrix" values="0 0 0 0 0 0 0 0 0 0 0 0 0 0 0 0 0 0 127 0" result="hardAlpha"/>
<feOffset dx="-1" dy="7"/>
<feGaussianBlur stdDeviation="2"/>
<feComposite in2="hardAlpha" operator="out"/>
<feColorMatrix type="matrix" values="0 0 0 0 0 0 0 0 0 0 0 0 0 0 0 0 0 0 0.25 0"/>
<feBlend mode="normal" in2="BackgroundImageFix" result="effect1_dropShadow_615_21579"/>
<feBlend mode="normal" in="SourceGraphic" in2="effect1_dropShadow_615_21579" result="shape"/>
</filter>
<filter id="filter1_i_615_21579" x="200.371" y="494.344" width="603.805" height="485.236" filterUnits="userSpaceOnUse" color-interpolation-filters="sRGB">
<feFlood flood-opacity="0" result="BackgroundImageFix"/>
<feBlend mode="normal" in="SourceGraphic" in2="BackgroundImageFix" result="shape"/>
<feColorMatrix in="SourceAlpha" type="matrix" values="0 0 0 0 0 0 0 0 0 0 0 0 0 0 0 0 0 0 127 0" result="hardAlpha"/>
<feOffset dx="-20" dy="-8"/>
<feComposite in2="hardAlpha" operator="arithmetic" k2="-1" k3="1"/>
<feColorMatrix type="matrix" values="0 0 0 0 0 0 0 0 0 0 0 0 0 0 0 0 0 0 0.25 0"/>
<feBlend mode="normal" in2="shape" result="effect1_innerShadow_615_21579"/>
</filter>
<filter id="filter2_i_615_21579" x="294.932" y="570.998" width="212.635" height="322.657" filterUnits="userSpaceOnUse" color-interpolation-filters="sRGB">
<feFlood flood-opacity="0" result="BackgroundImageFix"/>
<feBlend mode="normal" in="SourceGraphic" in2="BackgroundImageFix" result="shape"/>
<feColorMatrix in="SourceAlpha" type="matrix" values="0 0 0 0 0 0 0 0 0 0 0 0 0 0 0 0 0 0 127 0" result="hardAlpha"/>
<feOffset dx="-5" dy="-2"/>
<feComposite in2="hardAlpha" operator="arithmetic" k2="-1" k3="1"/>
<feColorMatrix type="matrix" values="0 0 0 0 0 0 0 0 0 0 0 0 0 0 0 0 0 0 0.25 0"/>
<feBlend mode="normal" in2="shape" result="effect1_innerShadow_615_21579"/>
</filter>
<filter id="filter3_d_615_21579" x="388" y="917" width="108.129" height="57.1165" filterUnits="userSpaceOnUse" color-interpolation-filters="sRGB">
<feFlood flood-opacity="0" result="BackgroundImageFix"/>
<feColorMatrix in="SourceAlpha" type="matrix" values="0 0 0 0 0 0 0 0 0 0 0 0 0 0 0 0 0 0 127 0" result="hardAlpha"/>
<feOffset dx="-6" dy="2"/>
<feGaussianBlur stdDeviation="2"/>
<feComposite in2="hardAlpha" operator="out"/>
<feColorMatrix type="matrix" values="0 0 0 0 0 0 0 0 0 0 0 0 0 0 0 0 0 0 0.25 0"/>
<feBlend mode="normal" in2="BackgroundImageFix" result="effect1_dropShadow_615_21579"/>
<feBlend mode="normal" in="SourceGraphic" in2="effect1_dropShadow_615_21579" result="shape"/>
</filter>
</defs>
</svg>
