<svg width="1000" height="1000" viewBox="0 0 1000 1000" fill="none" xmlns="http://www.w3.org/2000/svg">
<path d="M209.052 404.359C208.72 406.399 209.999 408.356 212.001 408.873C214.003 409.39 216.068 408.295 216.766 406.349C233.444 359.8 270.282 314.808 321.668 285.32C347.764 270.345 368.48 258.989 390.792 251.33C413.022 243.699 436.988 239.692 469.5 239.692C501.852 239.692 541.864 247.145 580.386 258.386C618.893 269.623 655.599 284.553 681.332 299.32C732.616 328.749 766.516 373.688 783.234 420.349C783.89 422.18 785.768 423.274 787.685 422.941C789.601 422.608 791 420.945 791 419C791 327.044 733.647 270.67 665.22 237.502C596.894 204.382 516.88 194 469.5 194C418.669 194 360.573 203.491 311.611 234.635C262.493 265.878 222.971 318.662 209.052 404.359Z" fill="#D7D6DC" stroke="black" stroke-width="8" stroke-linejoin="round"/>
<path d="M683.246 292.438C631.045 265.078 568.798 242 503 242L313 250.248C373.677 216.327 443.322 206.5 495.5 206.5C589.505 206.5 767 278 785 414C767.97 370.588 735.447 319.798 683.246 292.438Z" fill="black" fill-opacity="0.25"/>
<path d="M271.569 230.453C271.569 236.587 270.389 241.995 268.614 245.756C266.729 249.75 264.717 250.905 263.501 250.905C262.285 250.905 260.273 249.75 258.388 245.756C256.613 241.995 255.434 236.587 255.434 230.453C255.434 224.318 256.613 218.911 258.388 215.149C260.273 211.156 262.285 210 263.501 210C264.717 210 266.729 211.156 268.614 215.149C270.389 218.911 271.569 224.318 271.569 230.453Z" fill="#E40303" stroke="black" stroke-width="6"/>
<path d="M263.501 207C264.955 207 266.394 207.607 267.737 208.785C269.079 209.964 270.299 211.691 271.327 213.869C272.355 216.047 273.17 218.632 273.726 221.478C274.282 224.323 274.569 227.373 274.569 230.453C274.569 233.533 274.282 236.582 273.726 239.428C273.17 242.273 272.355 244.858 271.327 247.036C270.299 249.214 269.079 250.942 267.737 252.12C266.394 253.299 264.955 253.905 263.501 253.905L263.501 230.453V207Z" fill="black" fill-opacity="0.25"/>
<path d="M271.569 300.547C271.569 306.682 270.389 312.089 268.614 315.85C266.729 319.844 264.717 321 263.501 321C262.285 321 260.273 319.844 258.388 315.85C256.613 312.089 255.434 306.682 255.434 300.547C255.434 294.412 256.613 289.005 258.388 285.244C260.273 281.25 262.285 280.094 263.501 280.094C264.717 280.094 266.729 281.25 268.614 285.244C270.389 289.005 271.569 294.412 271.569 300.547Z" fill="#E40303" stroke="black" stroke-width="6"/>
<path d="M263.501 277.094C264.955 277.094 266.394 277.701 267.737 278.88C269.079 280.058 270.299 281.786 271.327 283.964C272.355 286.141 273.17 288.727 273.726 291.572C274.282 294.418 274.569 297.467 274.569 300.547C274.569 303.627 274.282 306.677 273.726 309.522C273.17 312.368 272.355 314.953 271.327 317.131C270.299 319.309 269.079 321.036 267.737 322.215C266.394 323.393 264.955 324 263.501 324L263.501 300.547V277.094Z" fill="black" fill-opacity="0.25"/>
<path d="M297.886 254.963C292.573 258.031 287.3 259.712 283.155 260.056C278.754 260.421 276.748 259.256 276.139 258.203C275.531 257.15 275.526 254.829 278.043 251.2C280.413 247.782 284.505 244.057 289.818 240.99C295.131 237.922 300.404 236.24 304.549 235.897C308.95 235.532 310.957 236.697 311.565 237.75C312.173 238.803 312.178 241.124 309.661 244.753C307.292 248.171 303.199 251.896 297.886 254.963Z" fill="#E40303" stroke="black" stroke-width="6"/>
<path d="M314.163 236.25C314.889 237.509 315.084 239.058 314.734 240.811C314.385 242.563 313.499 244.483 312.127 246.462C310.755 248.441 308.923 250.44 306.737 252.344C304.551 254.249 302.053 256.021 299.386 257.561C296.719 259.101 293.934 260.378 291.192 261.319C288.45 262.26 285.803 262.847 283.403 263.046C281.003 263.245 278.897 263.052 277.205 262.478C275.513 261.905 274.268 260.961 273.541 259.703L293.852 247.976L314.163 236.25Z" fill="black" fill-opacity="0.25"/>
<path d="M237.183 290.011C231.87 293.078 226.597 294.76 222.452 295.103C218.051 295.468 216.044 294.303 215.436 293.25C214.828 292.197 214.823 289.877 217.339 286.248C219.709 282.83 223.802 279.104 229.115 276.037C234.428 272.97 239.701 271.288 243.845 270.944C248.247 270.58 250.253 271.744 250.861 272.797C251.47 273.851 251.475 276.171 248.958 279.8C246.588 283.218 242.496 286.943 237.183 290.011Z" fill="#E40303" stroke="black" stroke-width="6"/>
<path d="M253.46 271.297C254.186 272.556 254.381 274.106 254.031 275.858C253.682 277.61 252.796 279.531 251.424 281.509C250.052 283.488 248.22 285.487 246.034 287.392C243.848 289.296 241.35 291.069 238.683 292.609C236.015 294.149 233.231 295.425 230.489 296.366C227.747 297.307 225.1 297.894 222.7 298.093C220.3 298.292 218.194 298.099 216.502 297.525C214.81 296.952 213.565 296.009 212.838 294.75L233.149 283.024L253.46 271.297Z" fill="black" fill-opacity="0.25"/>
<path d="M298.547 273.568C292.413 273.568 287.005 272.388 283.244 270.613C279.25 268.728 278.095 266.716 278.095 265.5C278.095 264.284 279.25 262.272 283.244 260.387C287.005 258.612 292.413 257.432 298.547 257.432C304.682 257.432 310.089 258.612 313.851 260.387C317.844 262.272 319 264.284 319 265.5C319 266.716 317.844 268.728 313.851 270.613C310.089 272.388 304.682 273.568 298.547 273.568Z" fill="#E40303" stroke="black" stroke-width="6"/>
<path d="M322 265.5C322 266.953 321.393 268.393 320.215 269.735C319.036 271.078 317.309 272.298 315.131 273.326C312.953 274.354 310.368 275.169 307.522 275.725C304.677 276.281 301.627 276.568 298.547 276.568C295.467 276.568 292.418 276.281 289.572 275.725C286.727 275.169 284.142 274.354 281.964 273.326C279.786 272.298 278.058 271.078 276.88 269.735C275.701 268.393 275.095 266.953 275.095 265.5L298.547 265.5L322 265.5Z" fill="black" fill-opacity="0.25"/>
<path d="M228.454 273.568C222.319 273.568 216.912 272.389 213.15 270.614C209.156 268.729 208.001 266.717 208.001 265.501C208.001 264.285 209.156 262.273 213.15 260.388C216.912 258.613 222.319 257.433 228.454 257.433C234.588 257.433 239.995 258.613 243.757 260.388C247.751 262.273 248.906 264.285 248.906 265.501C248.906 266.717 247.751 268.729 243.757 270.614C239.995 272.389 234.588 273.568 228.454 273.568Z" fill="#E40303" stroke="black" stroke-width="6"/>
<path d="M251.906 265.501C251.906 266.954 251.3 268.393 250.121 269.736C248.942 271.079 247.215 272.299 245.037 273.327C242.859 274.354 240.274 275.17 237.429 275.726C234.583 276.282 231.533 276.568 228.454 276.568C225.374 276.568 222.324 276.282 219.479 275.726C216.633 275.17 214.048 274.354 211.87 273.327C209.692 272.299 207.965 271.079 206.786 269.736C205.607 268.393 205.001 266.954 205.001 265.501L228.454 265.501L251.906 265.501Z" fill="black" fill-opacity="0.25"/>
<path d="M289.821 290.01C284.508 286.943 280.415 283.218 278.045 279.8C275.529 276.171 275.534 273.851 276.142 272.797C276.75 271.744 278.757 270.58 283.158 270.944C287.303 271.288 292.576 272.97 297.889 276.037C303.201 279.104 307.294 282.83 309.664 286.247C312.181 289.877 312.175 292.197 311.567 293.25C310.959 294.303 308.952 295.468 304.551 295.103C300.406 294.76 295.134 293.078 289.821 290.01Z" fill="#E40303" stroke="black" stroke-width="6"/>
<path d="M314.165 294.75C313.439 296.009 312.194 296.952 310.502 297.525C308.81 298.099 306.703 298.292 304.304 298.093C301.904 297.894 299.257 297.307 296.515 296.366C293.772 295.425 290.988 294.148 288.321 292.609C285.654 291.069 283.156 289.296 280.97 287.391C278.784 285.487 276.952 283.488 275.58 281.509C274.208 279.53 273.322 277.61 272.973 275.858C272.623 274.106 272.817 272.556 273.544 271.297L293.855 283.024L314.165 294.75Z" fill="black" fill-opacity="0.25"/>
<path d="M229.114 254.964C223.801 251.896 219.708 248.171 217.338 244.753C214.822 241.124 214.827 238.804 215.435 237.75C216.043 236.697 218.05 235.533 222.451 235.897C226.596 236.241 231.869 237.923 237.182 240.99C242.494 244.057 246.587 247.783 248.957 251.201C251.474 254.83 251.468 257.15 250.86 258.203C250.252 259.256 248.245 260.421 243.844 260.056C239.699 259.713 234.427 258.031 229.114 254.964Z" fill="#E40303" stroke="black" stroke-width="6"/>
<path d="M253.458 259.703C252.732 260.962 251.487 261.905 249.795 262.479C248.103 263.052 245.996 263.245 243.597 263.046C241.197 262.847 238.55 262.261 235.808 261.32C233.065 260.379 230.281 259.102 227.614 257.562C224.947 256.022 222.449 254.249 220.263 252.345C218.077 250.44 216.245 248.441 214.873 246.463C213.501 244.484 212.615 242.563 212.265 240.811C211.916 239.059 212.11 237.509 212.837 236.25L233.148 247.977L253.458 259.703Z" fill="black" fill-opacity="0.25"/>
<path d="M274.042 299.886C270.975 294.573 269.293 289.301 268.949 285.156C268.585 280.755 269.749 278.748 270.802 278.14C271.856 277.532 274.176 277.526 277.805 280.043C281.223 282.413 284.948 286.506 288.015 291.819C291.083 297.131 292.765 302.404 293.108 306.549C293.473 310.95 292.308 312.957 291.255 313.565C290.202 314.173 287.882 314.178 284.252 311.662C280.835 309.292 277.109 305.199 274.042 299.886Z" fill="#E40303" stroke="black" stroke-width="6"/>
<path d="M292.755 316.163C291.496 316.89 289.947 317.084 288.194 316.735C286.442 316.385 284.522 315.499 282.543 314.127C280.564 312.755 278.565 310.923 276.661 308.737C274.757 306.551 272.984 304.053 271.444 301.386C269.904 298.719 268.627 295.935 267.686 293.192C266.745 290.45 266.158 287.803 265.959 285.403C265.761 283.004 265.953 280.897 266.527 279.205C267.101 277.513 268.044 276.268 269.302 275.542L281.029 295.852L292.755 316.163Z" fill="black" fill-opacity="0.25"/>
<path d="M238.991 239.182C235.924 233.87 234.242 228.597 233.898 224.452C233.534 220.051 234.698 218.044 235.752 217.436C236.805 216.828 239.125 216.823 242.754 219.339C246.172 221.709 249.897 225.802 252.965 231.115C256.032 236.428 257.714 241.7 258.057 245.845C258.422 250.246 257.257 252.253 256.204 252.861C255.151 253.469 252.831 253.475 249.202 250.958C245.784 248.588 242.059 244.495 238.991 239.182Z" fill="#E40303" stroke="black" stroke-width="6"/>
<path d="M257.704 255.459C256.446 256.186 254.896 256.38 253.144 256.031C251.392 255.682 249.471 254.796 247.492 253.423C245.513 252.051 243.515 250.22 241.61 248.034C239.706 245.848 237.933 243.35 236.393 240.682C234.853 238.015 233.576 235.231 232.635 232.489C231.694 229.746 231.108 227.1 230.909 224.7C230.71 222.3 230.903 220.194 231.476 218.502C232.05 216.81 232.993 215.565 234.252 214.838L245.978 235.149L257.704 255.459Z" fill="black" fill-opacity="0.25"/>
<path d="M288.013 239.182C284.946 244.495 281.221 248.588 277.803 250.958C274.174 253.474 271.853 253.469 270.8 252.861C269.747 252.253 268.582 250.246 268.947 245.845C269.29 241.7 270.972 236.427 274.04 231.114C277.107 225.802 280.832 221.709 284.25 219.339C287.879 216.822 290.2 216.828 291.253 217.436C292.306 218.044 293.471 220.05 293.106 224.452C292.762 228.597 291.08 233.869 288.013 239.182Z" fill="#E40303" stroke="black" stroke-width="6"/>
<path d="M292.753 214.837C294.011 215.564 294.955 216.809 295.528 218.501C296.102 220.193 296.295 222.299 296.096 224.699C295.897 227.099 295.31 229.746 294.369 232.488C293.428 235.23 292.151 238.015 290.611 240.682C289.071 243.349 287.299 245.847 285.394 248.033C283.49 250.219 281.491 252.051 279.512 253.423C277.533 254.795 275.613 255.681 273.861 256.03C272.108 256.38 270.559 256.185 269.3 255.459L281.026 235.148L292.753 214.837Z" fill="black" fill-opacity="0.25"/>
<path d="M252.966 299.886C249.899 305.198 246.174 309.291 242.756 311.661C239.127 314.178 236.806 314.172 235.753 313.564C234.7 312.956 233.535 310.949 233.9 306.548C234.243 302.403 235.925 297.131 238.993 291.818C242.06 286.505 245.785 282.412 249.203 280.042C252.832 277.526 255.153 277.531 256.206 278.139C257.259 278.747 258.424 280.754 258.059 285.155C257.716 289.3 256.034 294.573 252.966 299.886Z" fill="#E40303" stroke="black" stroke-width="6"/>
<path d="M257.706 275.541C258.965 276.268 259.908 277.513 260.481 279.205C261.055 280.897 261.248 283.003 261.049 285.403C260.85 287.803 260.263 290.449 259.322 293.192C258.381 295.934 257.104 298.718 255.564 301.386C254.024 304.053 252.252 306.551 250.347 308.737C248.443 310.923 246.444 312.754 244.465 314.127C242.486 315.499 240.566 316.385 238.814 316.734C237.062 317.083 235.512 316.889 234.253 316.162L245.98 295.852L257.706 275.541Z" fill="black" fill-opacity="0.25"/>
<circle cx="263.5" cy="263.919" r="22.8243" fill="#FFED00" stroke="black" stroke-width="6"/>
<path d="M263.5 286C269.467 286 275.19 283.629 279.41 279.41C283.629 275.19 286 269.467 286 263.5C286 257.533 283.629 251.81 279.41 247.59C275.19 243.371 269.467 241 263.5 241L263.5 263.5L263.5 286Z" fill="black" fill-opacity="0.25"/>
<path d="M323 185.667C323 193.517 321.492 200.478 319.186 205.364C316.771 210.482 314.026 212.333 312 212.333C309.974 212.333 307.229 210.482 304.814 205.364C302.508 200.478 301 193.517 301 185.667C301 177.816 302.508 170.855 304.814 165.969C307.229 160.851 309.974 159 312 159C314.026 159 316.771 160.851 319.186 165.969C321.492 170.855 323 177.816 323 185.667Z" fill="#E40303" stroke="black" stroke-width="6"/>
<path d="M312 156C313.839 156 315.659 156.767 317.358 158.258C319.056 159.749 320.599 161.934 321.899 164.689C323.2 167.444 324.231 170.714 324.934 174.314C325.638 177.913 326 181.771 326 185.667C326 189.563 325.638 193.42 324.934 197.02C324.231 200.619 323.2 203.889 321.899 206.644C320.599 209.399 319.056 211.584 317.358 213.075C315.659 214.566 313.839 215.333 312 215.333L312 185.667V156Z" fill="black" fill-opacity="0.25"/>
<path d="M323 274.333C323 282.184 321.492 289.145 319.186 294.031C316.771 299.149 314.026 301 312 301C309.974 301 307.229 299.149 304.814 294.031C302.508 289.145 301 282.184 301 274.333C301 266.483 302.508 259.522 304.814 254.636C307.229 249.518 309.974 247.667 312 247.667C314.026 247.667 316.771 249.518 319.186 254.636C321.492 259.522 323 266.483 323 274.333Z" fill="#E40303" stroke="black" stroke-width="6"/>
<path d="M312 244.667C313.839 244.667 315.659 245.434 317.358 246.925C319.056 248.416 320.599 250.601 321.899 253.356C323.2 256.111 324.231 259.381 324.934 262.98C325.638 266.58 326 270.438 326 274.333C326 278.229 325.638 282.087 324.934 285.686C324.231 289.286 323.2 292.556 321.899 295.311C320.599 298.066 319.056 300.251 317.358 301.742C315.659 303.233 313.839 304 312 304L312 274.333V244.667Z" fill="black" fill-opacity="0.25"/>
<path d="M355.894 217.36C349.095 221.285 342.313 223.459 336.929 223.906C331.288 224.373 328.313 222.921 327.3 221.167C326.287 219.412 326.517 216.109 329.742 211.458C332.821 207.019 338.095 202.232 344.894 198.307C351.693 194.382 358.475 192.207 363.859 191.761C369.499 191.294 372.475 192.746 373.488 194.5C374.501 196.255 374.27 199.557 371.045 204.208C367.967 208.648 362.693 213.434 355.894 217.36Z" fill="#E40303" stroke="black" stroke-width="6"/>
<path d="M376.086 193C377.005 194.592 377.251 196.553 376.809 198.769C376.367 200.985 375.246 203.415 373.511 205.918C371.775 208.421 369.458 210.949 366.693 213.358C363.928 215.767 360.768 218.01 357.394 219.958C354.02 221.906 350.498 223.521 347.029 224.711C343.56 225.902 340.212 226.644 337.177 226.895C334.141 227.147 331.477 226.903 329.336 226.177C327.196 225.452 325.621 224.259 324.702 222.667L350.394 207.833L376.086 193Z" fill="black" fill-opacity="0.25"/>
<path d="M279.109 261.693C272.31 265.618 265.528 267.793 260.144 268.239C254.503 268.706 251.528 267.254 250.515 265.5C249.502 263.746 249.732 260.443 252.957 255.792C256.036 251.352 261.31 246.566 268.109 242.64C274.908 238.715 281.69 236.541 287.074 236.094C292.714 235.627 295.69 237.079 296.703 238.833C297.716 240.588 297.485 243.891 294.26 248.542C291.182 252.981 285.908 257.768 279.109 261.693Z" fill="#E40303" stroke="black" stroke-width="6"/>
<path d="M299.301 237.333C300.22 238.926 300.466 240.886 300.024 243.102C299.582 245.319 298.461 247.748 296.725 250.251C294.99 252.754 292.673 255.283 289.908 257.692C287.142 260.101 283.983 262.343 280.609 264.291C277.235 266.239 273.713 267.854 270.244 269.045C266.775 270.235 263.427 270.977 260.391 271.229C257.356 271.48 254.692 271.236 252.551 270.511C250.411 269.785 248.836 268.592 247.917 267L273.609 252.167L299.301 237.333Z" fill="black" fill-opacity="0.25"/>
<path d="M356.333 241C348.483 241 341.522 239.492 336.636 237.186C331.518 234.771 329.667 232.026 329.667 230C329.667 227.974 331.518 225.229 336.636 222.814C341.522 220.508 348.483 219 356.333 219C364.184 219 371.145 220.508 376.031 222.814C381.149 225.229 383 227.974 383 230C383 232.026 381.149 234.771 376.031 237.186C371.145 239.492 364.184 241 356.333 241Z" fill="#E40303" stroke="black" stroke-width="6"/>
<path d="M386 230C386 231.839 385.233 233.659 383.742 235.358C382.251 237.056 380.066 238.599 377.311 239.899C374.556 241.2 371.286 242.231 367.686 242.934C364.087 243.638 360.229 244 356.333 244C352.437 244 348.58 243.638 344.98 242.934C341.381 242.231 338.111 241.2 335.356 239.899C332.601 238.599 330.416 237.056 328.925 235.358C327.434 233.659 326.667 231.838 326.667 230L356.333 230L386 230Z" fill="black" fill-opacity="0.25"/>
<path d="M267.665 241.001C259.815 241.001 252.854 239.493 247.968 237.187C242.85 234.772 240.999 232.027 240.999 230.001C240.999 227.975 242.85 225.23 247.968 222.814C252.854 220.509 259.815 219.001 267.665 219.001C275.516 219.001 282.477 220.509 287.363 222.814C292.481 225.23 294.332 227.975 294.332 230.001C294.332 232.027 292.481 234.772 287.363 237.187C282.477 239.493 275.516 241.001 267.665 241.001Z" fill="#E40303" stroke="black" stroke-width="6"/>
<path d="M297.332 230.001C297.332 231.839 296.565 233.66 295.074 235.358C293.583 237.057 291.398 238.6 288.643 239.9C285.888 241.2 282.618 242.231 279.018 242.935C275.419 243.639 271.561 244.001 267.665 244.001C263.769 244.001 259.912 243.639 256.312 242.935C252.713 242.231 249.443 241.2 246.688 239.9C243.933 238.6 241.748 237.057 240.257 235.358C238.766 233.66 237.999 231.839 237.999 230.001L267.665 230.001L297.332 230.001Z" fill="black" fill-opacity="0.25"/>
<path d="M344.894 261.693C338.095 257.768 332.821 252.982 329.742 248.542C326.517 243.891 326.287 240.588 327.3 238.833C328.313 237.079 331.288 235.627 336.929 236.095C342.313 236.541 349.095 238.715 355.894 242.64C362.693 246.566 367.967 251.352 371.045 255.792C374.27 260.443 374.501 263.746 373.488 265.5C372.475 267.255 369.499 268.706 363.859 268.239C358.475 267.793 351.693 265.618 344.894 261.693Z" fill="#E40303" stroke="black" stroke-width="6"/>
<path d="M376.086 267C375.167 268.592 373.592 269.785 371.451 270.511C369.311 271.236 366.647 271.48 363.611 271.229C360.575 270.977 357.228 270.235 353.759 269.045C350.29 267.854 346.768 266.239 343.394 264.291C340.02 262.343 336.86 260.101 334.095 257.692C331.329 255.283 329.013 252.754 327.277 250.251C325.541 247.748 324.421 245.319 323.979 243.102C323.537 240.886 323.783 238.926 324.702 237.333L350.394 252.167L376.086 267Z" fill="black" fill-opacity="0.25"/>
<path d="M268.105 217.36C261.306 213.435 256.032 208.649 252.953 204.209C249.728 199.558 249.498 196.255 250.511 194.501C251.524 192.746 254.499 191.294 260.14 191.762C265.524 192.208 272.306 194.382 279.105 198.308C285.904 202.233 291.178 207.019 294.256 211.459C297.481 216.11 297.712 219.413 296.699 221.167C295.686 222.922 292.71 224.374 287.07 223.906C281.686 223.46 274.904 221.286 268.105 217.36Z" fill="#E40303" stroke="black" stroke-width="6"/>
<path d="M299.297 222.667C298.378 224.26 296.803 225.452 294.662 226.178C292.522 226.904 289.858 227.148 286.822 226.896C283.786 226.644 280.438 225.902 276.97 224.712C273.501 223.522 269.979 221.906 266.605 219.958C263.231 218.01 260.071 215.768 257.306 213.359C254.54 210.95 252.224 208.422 250.488 205.918C248.752 203.415 247.631 200.986 247.19 198.77C246.748 196.553 246.993 194.593 247.913 193.001L273.605 207.834L299.297 222.667Z" fill="black" fill-opacity="0.25"/>
<path d="M324.641 273.895C320.716 267.096 318.541 260.314 318.095 254.93C317.628 249.289 319.08 246.313 320.834 245.301C322.588 244.288 325.891 244.518 330.542 247.743C334.982 250.822 339.768 256.096 343.694 262.895C347.619 269.693 349.793 276.476 350.24 281.86C350.707 287.5 349.255 290.476 347.501 291.489C345.746 292.502 342.443 292.271 337.792 289.046C333.353 285.968 328.566 280.693 324.641 273.895Z" fill="#E40303" stroke="black" stroke-width="6"/>
<path d="M349.001 294.087C347.408 295.006 345.448 295.252 343.232 294.81C341.015 294.368 338.586 293.247 336.083 291.511C333.58 289.776 331.051 287.459 328.642 284.694C326.233 281.928 323.991 278.769 322.043 275.395C320.095 272.021 318.48 268.499 317.289 265.03C316.099 261.561 315.357 258.213 315.105 255.177C314.854 252.142 315.098 249.477 315.823 247.337C316.549 245.197 317.742 243.622 319.334 242.702L334.167 268.395L349.001 294.087Z" fill="black" fill-opacity="0.25"/>
<path d="M280.305 197.107C276.38 190.308 274.205 183.526 273.759 178.142C273.292 172.501 274.744 169.526 276.498 168.513C278.252 167.5 281.555 167.73 286.206 170.955C290.646 174.034 295.432 179.308 299.358 186.107C303.283 192.906 305.457 199.688 305.904 205.072C306.371 210.712 304.919 213.688 303.165 214.701C301.41 215.714 298.107 215.483 293.456 212.258C289.017 209.18 284.23 203.906 280.305 197.107Z" fill="#E40303" stroke="black" stroke-width="6"/>
<path d="M304.665 217.299C303.073 218.218 301.112 218.464 298.896 218.022C296.679 217.58 294.25 216.459 291.747 214.724C289.244 212.988 286.715 210.671 284.306 207.906C281.897 205.141 279.655 201.981 277.707 198.607C275.759 195.233 274.144 191.711 272.953 188.242C271.763 184.773 271.021 181.425 270.769 178.389C270.518 175.354 270.762 172.69 271.487 170.549C272.213 168.409 273.406 166.834 274.998 165.915L289.831 191.607L304.665 217.299Z" fill="black" fill-opacity="0.25"/>
<path d="M343.692 197.106C339.767 203.905 334.981 209.179 330.541 212.258C325.89 215.483 322.587 215.713 320.833 214.7C319.078 213.687 317.626 210.712 318.094 205.071C318.54 199.687 320.714 192.905 324.64 186.106C328.565 179.307 333.351 174.033 337.791 170.955C342.442 167.73 345.745 167.499 347.499 168.512C349.254 169.525 350.706 172.501 350.238 178.141C349.792 183.525 347.618 190.307 343.692 197.106Z" fill="#E40303" stroke="black" stroke-width="6"/>
<path d="M348.999 165.914C350.592 166.833 351.784 168.408 352.51 170.549C353.236 172.689 353.48 175.353 353.228 178.389C352.976 181.425 352.234 184.772 351.044 188.241C349.854 191.71 348.238 195.232 346.29 198.606C344.342 201.98 342.1 205.14 339.691 207.905C337.282 210.671 334.754 212.987 332.25 214.723C329.747 216.459 327.318 217.579 325.102 218.021C322.885 218.463 320.925 218.217 319.333 217.298L334.166 191.606L348.999 165.914Z" fill="black" fill-opacity="0.25"/>
<path d="M299.36 273.894C295.435 280.693 290.649 285.967 286.209 289.045C281.558 292.27 278.255 292.501 276.501 291.488C274.746 290.475 273.294 287.499 273.762 281.859C274.208 276.475 276.382 269.693 280.308 262.894C284.233 256.095 289.019 250.821 293.459 247.742C298.11 244.517 301.413 244.287 303.167 245.3C304.922 246.313 306.374 249.288 305.906 254.929C305.46 260.313 303.286 267.095 299.36 273.894Z" fill="#E40303" stroke="black" stroke-width="6"/>
<path d="M304.667 242.702C306.26 243.621 307.452 245.196 308.178 247.336C308.904 249.477 309.148 252.141 308.896 255.176C308.644 258.212 307.902 261.56 306.712 265.029C305.522 268.498 303.906 272.02 301.958 275.394C300.01 278.768 297.768 281.928 295.359 284.693C292.95 287.458 290.422 289.775 287.918 291.511C285.415 293.246 282.986 294.367 280.77 294.809C278.553 295.251 276.593 295.005 275.001 294.086L289.834 268.394L304.667 242.702Z" fill="black" fill-opacity="0.25"/>
<circle cx="311.999" cy="228" r="29.6667" fill="#FFED00" stroke="black" stroke-width="6"/>
<path d="M310.5 255C317.528 255 324.269 252.261 329.238 247.385C334.208 242.509 337 235.896 337 229C337 222.104 334.208 215.491 329.238 210.615C324.269 205.739 317.528 203 310.5 203L310.5 229L310.5 255Z" fill="black" fill-opacity="0.25"/>
<path d="M598.569 209.453C598.569 215.587 597.389 220.995 595.614 224.756C593.729 228.75 591.717 229.905 590.501 229.905C589.285 229.905 587.273 228.75 585.388 224.756C583.613 220.995 582.434 215.587 582.434 209.453C582.434 203.318 583.613 197.911 585.388 194.149C587.273 190.156 589.285 189 590.501 189C591.717 189 593.729 190.156 595.614 194.149C597.389 197.911 598.569 203.318 598.569 209.453Z" fill="#E40303" stroke="black" stroke-width="6"/>
<path d="M590.501 186C591.955 186 593.394 186.607 594.737 187.785C596.079 188.964 597.299 190.691 598.327 192.869C599.355 195.047 600.17 197.632 600.726 200.478C601.282 203.323 601.569 206.373 601.569 209.453C601.569 212.533 601.282 215.582 600.726 218.428C600.17 221.273 599.355 223.858 598.327 226.036C597.299 228.214 596.079 229.942 594.737 231.12C593.394 232.299 591.955 232.905 590.501 232.905L590.501 209.453V186Z" fill="black" fill-opacity="0.25"/>
<path d="M598.569 279.547C598.569 285.682 597.389 291.089 595.614 294.85C593.729 298.844 591.717 300 590.501 300C589.285 300 587.273 298.844 585.388 294.85C583.613 291.089 582.434 285.682 582.434 279.547C582.434 273.412 583.613 268.005 585.388 264.244C587.273 260.25 589.285 259.094 590.501 259.094C591.717 259.094 593.729 260.25 595.614 264.244C597.389 268.005 598.569 273.412 598.569 279.547Z" fill="#E40303" stroke="black" stroke-width="6"/>
<path d="M590.501 256.094C591.955 256.094 593.394 256.701 594.737 257.88C596.079 259.058 597.299 260.786 598.327 262.964C599.355 265.141 600.17 267.727 600.726 270.572C601.282 273.418 601.569 276.467 601.569 279.547C601.569 282.627 601.282 285.677 600.726 288.522C600.17 291.368 599.355 293.953 598.327 296.131C597.299 298.309 596.079 300.036 594.737 301.215C593.394 302.393 591.955 303 590.501 303L590.501 279.547V256.094Z" fill="black" fill-opacity="0.25"/>
<path d="M624.886 233.963C619.573 237.031 614.3 238.712 610.155 239.056C605.754 239.421 603.748 238.256 603.139 237.203C602.531 236.15 602.526 233.829 605.043 230.2C607.413 226.782 611.505 223.057 616.818 219.99C622.131 216.922 627.404 215.24 631.549 214.897C635.95 214.532 637.957 215.697 638.565 216.75C639.173 217.803 639.178 220.124 636.661 223.753C634.292 227.171 630.199 230.896 624.886 233.963Z" fill="#E40303" stroke="black" stroke-width="6"/>
<path d="M641.163 215.25C641.889 216.509 642.084 218.058 641.734 219.811C641.385 221.563 640.499 223.483 639.127 225.462C637.755 227.441 635.923 229.44 633.737 231.344C631.551 233.249 629.053 235.021 626.386 236.561C623.719 238.101 620.934 239.378 618.192 240.319C615.45 241.26 612.803 241.847 610.403 242.046C608.003 242.245 605.897 242.052 604.205 241.478C602.513 240.905 601.268 239.961 600.541 238.703L620.852 226.976L641.163 215.25Z" fill="black" fill-opacity="0.25"/>
<path d="M564.183 269.011C558.87 272.078 553.597 273.76 549.452 274.103C545.051 274.468 543.044 273.303 542.436 272.25C541.828 271.197 541.823 268.877 544.339 265.248C546.709 261.83 550.802 258.104 556.115 255.037C561.428 251.97 566.701 250.288 570.845 249.944C575.247 249.58 577.253 250.744 577.861 251.797C578.47 252.851 578.475 255.171 575.958 258.8C573.588 262.218 569.496 265.943 564.183 269.011Z" fill="#E40303" stroke="black" stroke-width="6"/>
<path d="M580.46 250.297C581.186 251.556 581.381 253.106 581.031 254.858C580.682 256.61 579.796 258.531 578.424 260.509C577.052 262.488 575.22 264.487 573.034 266.392C570.848 268.296 568.35 270.069 565.683 271.609C563.015 273.149 560.231 274.425 557.489 275.366C554.747 276.307 552.1 276.894 549.7 277.093C547.3 277.292 545.194 277.099 543.502 276.525C541.81 275.952 540.565 275.009 539.838 273.75L560.149 262.024L580.46 250.297Z" fill="black" fill-opacity="0.25"/>
<path d="M625.547 252.568C619.413 252.568 614.005 251.388 610.244 249.613C606.25 247.728 605.095 245.716 605.095 244.5C605.095 243.284 606.25 241.272 610.244 239.387C614.005 237.612 619.413 236.432 625.547 236.432C631.682 236.432 637.089 237.612 640.851 239.387C644.844 241.272 646 243.284 646 244.5C646 245.716 644.844 247.728 640.851 249.613C637.089 251.388 631.682 252.568 625.547 252.568Z" fill="#E40303" stroke="black" stroke-width="6"/>
<path d="M649 244.5C649 245.953 648.393 247.393 647.215 248.735C646.036 250.078 644.309 251.298 642.131 252.326C639.953 253.354 637.368 254.169 634.522 254.725C631.677 255.281 628.627 255.568 625.547 255.568C622.467 255.568 619.418 255.281 616.572 254.725C613.727 254.169 611.142 253.354 608.964 252.326C606.786 251.298 605.058 250.078 603.88 248.735C602.701 247.393 602.095 245.953 602.095 244.5L625.547 244.5L649 244.5Z" fill="black" fill-opacity="0.25"/>
<path d="M555.454 252.568C549.319 252.568 543.912 251.389 540.15 249.614C536.156 247.729 535.001 245.717 535.001 244.501C535.001 243.285 536.156 241.273 540.15 239.388C543.912 237.613 549.319 236.433 555.454 236.433C561.588 236.433 566.995 237.613 570.757 239.388C574.751 241.273 575.906 243.285 575.906 244.501C575.906 245.717 574.751 247.729 570.757 249.614C566.995 251.389 561.588 252.568 555.454 252.568Z" fill="#E40303" stroke="black" stroke-width="6"/>
<path d="M578.906 244.501C578.906 245.954 578.3 247.393 577.121 248.736C575.942 250.079 574.215 251.299 572.037 252.327C569.859 253.354 567.274 254.17 564.429 254.726C561.583 255.282 558.533 255.568 555.454 255.568C552.374 255.568 549.324 255.282 546.479 254.726C543.633 254.17 541.048 253.354 538.87 252.327C536.692 251.299 534.965 250.079 533.786 248.736C532.607 247.393 532.001 245.954 532.001 244.501L555.454 244.501L578.906 244.501Z" fill="black" fill-opacity="0.25"/>
<path d="M616.821 269.01C611.508 265.943 607.415 262.218 605.045 258.8C602.529 255.171 602.534 252.851 603.142 251.797C603.75 250.744 605.757 249.58 610.158 249.944C614.303 250.288 619.576 251.97 624.889 255.037C630.201 258.104 634.294 261.83 636.664 265.247C639.181 268.877 639.175 271.197 638.567 272.25C637.959 273.303 635.952 274.468 631.551 274.103C627.406 273.76 622.134 272.078 616.821 269.01Z" fill="#E40303" stroke="black" stroke-width="6"/>
<path d="M641.165 273.75C640.439 275.009 639.194 275.952 637.502 276.525C635.81 277.099 633.703 277.292 631.304 277.093C628.904 276.894 626.257 276.307 623.515 275.366C620.772 274.425 617.988 273.148 615.321 271.609C612.654 270.069 610.156 268.296 607.97 266.391C605.784 264.487 603.952 262.488 602.58 260.509C601.208 258.53 600.322 256.61 599.973 254.858C599.623 253.106 599.817 251.556 600.544 250.297L620.855 262.024L641.165 273.75Z" fill="black" fill-opacity="0.25"/>
<path d="M556.114 233.964C550.801 230.896 546.708 227.171 544.338 223.753C541.822 220.124 541.827 217.804 542.435 216.75C543.043 215.697 545.05 214.533 549.451 214.897C553.596 215.241 558.869 216.923 564.182 219.99C569.494 223.057 573.587 226.783 575.957 230.201C578.474 233.83 578.468 236.15 577.86 237.203C577.252 238.256 575.245 239.421 570.844 239.056C566.699 238.713 561.427 237.031 556.114 233.964Z" fill="#E40303" stroke="black" stroke-width="6"/>
<path d="M580.458 238.703C579.732 239.962 578.487 240.905 576.795 241.479C575.103 242.052 572.996 242.245 570.597 242.046C568.197 241.847 565.55 241.261 562.808 240.32C560.065 239.379 557.281 238.102 554.614 236.562C551.947 235.022 549.449 233.249 547.263 231.345C545.077 229.44 543.245 227.441 541.873 225.463C540.501 223.484 539.615 221.563 539.265 219.811C538.916 218.059 539.11 216.509 539.837 215.25L560.148 226.977L580.458 238.703Z" fill="black" fill-opacity="0.25"/>
<path d="M601.042 278.886C597.975 273.573 596.293 268.301 595.949 264.156C595.585 259.755 596.749 257.748 597.802 257.14C598.856 256.532 601.176 256.526 604.805 259.043C608.223 261.413 611.948 265.506 615.015 270.819C618.083 276.131 619.765 281.404 620.108 285.549C620.473 289.95 619.308 291.957 618.255 292.565C617.202 293.173 614.882 293.178 611.252 290.662C607.835 288.292 604.109 284.199 601.042 278.886Z" fill="#E40303" stroke="black" stroke-width="6"/>
<path d="M619.755 295.163C618.496 295.89 616.947 296.084 615.194 295.735C613.442 295.385 611.522 294.499 609.543 293.127C607.564 291.755 605.565 289.923 603.661 287.737C601.757 285.551 599.984 283.053 598.444 280.386C596.904 277.719 595.627 274.935 594.686 272.192C593.745 269.45 593.158 266.803 592.959 264.403C592.761 262.004 592.953 259.897 593.527 258.205C594.101 256.513 595.044 255.268 596.302 254.542L608.029 274.852L619.755 295.163Z" fill="black" fill-opacity="0.25"/>
<path d="M565.991 218.182C562.924 212.87 561.242 207.597 560.898 203.452C560.534 199.051 561.698 197.044 562.752 196.436C563.805 195.828 566.125 195.823 569.754 198.339C573.172 200.709 576.897 204.802 579.965 210.115C583.032 215.428 584.714 220.7 585.057 224.845C585.422 229.246 584.257 231.253 583.204 231.861C582.151 232.469 579.831 232.475 576.202 229.958C572.784 227.588 569.059 223.495 565.991 218.182Z" fill="#E40303" stroke="black" stroke-width="6"/>
<path d="M584.704 234.459C583.446 235.186 581.896 235.38 580.144 235.031C578.392 234.682 576.471 233.796 574.492 232.423C572.513 231.051 570.515 229.22 568.61 227.034C566.706 224.848 564.933 222.35 563.393 219.682C561.853 217.015 560.576 214.231 559.635 211.489C558.694 208.746 558.108 206.1 557.909 203.7C557.71 201.3 557.903 199.194 558.476 197.502C559.05 195.81 559.993 194.565 561.252 193.838L572.978 214.149L584.704 234.459Z" fill="black" fill-opacity="0.25"/>
<path d="M615.013 218.182C611.946 223.495 608.221 227.588 604.803 229.958C601.174 232.474 598.853 232.469 597.8 231.861C596.747 231.253 595.582 229.246 595.947 224.845C596.29 220.7 597.972 215.427 601.04 210.114C604.107 204.802 607.832 200.709 611.25 198.339C614.879 195.822 617.2 195.828 618.253 196.436C619.306 197.044 620.471 199.05 620.106 203.452C619.762 207.597 618.08 212.869 615.013 218.182Z" fill="#E40303" stroke="black" stroke-width="6"/>
<path d="M619.753 193.837C621.011 194.564 621.955 195.809 622.528 197.501C623.102 199.193 623.295 201.299 623.096 203.699C622.897 206.099 622.31 208.746 621.369 211.488C620.428 214.23 619.151 217.015 617.611 219.682C616.071 222.349 614.299 224.847 612.394 227.033C610.49 229.219 608.491 231.051 606.512 232.423C604.533 233.795 602.613 234.681 600.861 235.03C599.108 235.38 597.559 235.185 596.3 234.459L608.026 214.148L619.753 193.837Z" fill="black" fill-opacity="0.25"/>
<path d="M579.966 278.886C576.899 284.198 573.174 288.291 569.756 290.661C566.127 293.178 563.806 293.172 562.753 292.564C561.7 291.956 560.535 289.949 560.9 285.548C561.243 281.403 562.925 276.131 565.993 270.818C569.06 265.505 572.785 261.412 576.203 259.042C579.832 256.526 582.153 256.531 583.206 257.139C584.259 257.747 585.424 259.754 585.059 264.155C584.716 268.3 583.034 273.573 579.966 278.886Z" fill="#E40303" stroke="black" stroke-width="6"/>
<path d="M584.706 254.541C585.965 255.268 586.908 256.513 587.481 258.205C588.055 259.897 588.248 262.003 588.049 264.403C587.85 266.803 587.263 269.449 586.322 272.192C585.381 274.934 584.104 277.718 582.564 280.386C581.024 283.053 579.252 285.551 577.347 287.737C575.443 289.923 573.444 291.754 571.465 293.127C569.486 294.499 567.566 295.385 565.814 295.734C564.062 296.083 562.512 295.889 561.253 295.162L572.98 274.852L584.706 254.541Z" fill="black" fill-opacity="0.25"/>
<circle cx="590.5" cy="242.919" r="22.8243" fill="#FFED00" stroke="black" stroke-width="6"/>
<path d="M590.5 264C584.533 264 578.81 261.629 574.59 257.41C570.371 253.19 568 247.467 568 241.5C568 235.533 570.371 229.81 574.59 225.59C578.81 221.371 584.533 219 590.5 219L590.5 241.5L590.5 264Z" fill="black" fill-opacity="0.25"/>
<path d="M529 176.667C529 184.517 527.492 191.478 525.186 196.364C522.771 201.482 520.026 203.333 518 203.333C515.974 203.333 513.229 201.482 510.814 196.364C508.508 191.478 507 184.517 507 176.667C507 168.816 508.508 161.855 510.814 156.969C513.229 151.851 515.974 150 518 150C520.026 150 522.771 151.851 525.186 156.969C527.492 161.855 529 168.816 529 176.667Z" fill="#E40303" stroke="black" stroke-width="6"/>
<path d="M518 147C519.839 147 521.659 147.767 523.358 149.258C525.056 150.749 526.599 152.934 527.899 155.689C529.2 158.444 530.231 161.714 530.934 165.314C531.638 168.913 532 172.771 532 176.667C532 180.563 531.638 184.42 530.934 188.02C530.231 191.619 529.2 194.889 527.899 197.644C526.599 200.399 525.056 202.584 523.358 204.075C521.659 205.566 519.839 206.333 518 206.333L518 176.667V147Z" fill="black" fill-opacity="0.25"/>
<path d="M529 265.333C529 273.184 527.492 280.145 525.186 285.031C522.771 290.149 520.026 292 518 292C515.974 292 513.229 290.149 510.814 285.031C508.508 280.145 507 273.184 507 265.333C507 257.483 508.508 250.522 510.814 245.636C513.229 240.518 515.974 238.667 518 238.667C520.026 238.667 522.771 240.518 525.186 245.636C527.492 250.522 529 257.483 529 265.333Z" fill="#E40303" stroke="black" stroke-width="6"/>
<path d="M518 235.667C519.839 235.667 521.659 236.434 523.358 237.925C525.056 239.416 526.599 241.601 527.899 244.356C529.2 247.111 530.231 250.381 530.934 253.98C531.638 257.58 532 261.438 532 265.333C532 269.229 531.638 273.087 530.934 276.686C530.231 280.286 529.2 283.556 527.899 286.311C526.599 289.066 525.056 291.251 523.358 292.742C521.659 294.233 519.839 295 518 295L518 265.333V235.667Z" fill="black" fill-opacity="0.25"/>
<path d="M561.894 208.36C555.095 212.285 548.313 214.459 542.929 214.906C537.288 215.373 534.313 213.921 533.3 212.167C532.287 210.412 532.517 207.109 535.742 202.458C538.821 198.019 544.095 193.232 550.894 189.307C557.693 185.382 564.475 183.207 569.859 182.761C575.499 182.294 578.475 183.746 579.488 185.5C580.501 187.255 580.27 190.557 577.045 195.208C573.967 199.648 568.693 204.434 561.894 208.36Z" fill="#E40303" stroke="black" stroke-width="6"/>
<path d="M582.086 184C583.005 185.592 583.251 187.553 582.809 189.769C582.367 191.985 581.246 194.415 579.511 196.918C577.775 199.421 575.458 201.949 572.693 204.358C569.928 206.767 566.768 209.01 563.394 210.958C560.02 212.906 556.498 214.521 553.029 215.711C549.56 216.902 546.212 217.644 543.177 217.895C540.141 218.147 537.477 217.903 535.336 217.177C533.196 216.452 531.621 215.259 530.702 213.667L556.394 198.833L582.086 184Z" fill="black" fill-opacity="0.25"/>
<path d="M485.109 252.693C478.31 256.618 471.528 258.793 466.144 259.239C460.503 259.706 457.528 258.254 456.515 256.5C455.502 254.746 455.732 251.443 458.957 246.792C462.036 242.352 467.31 237.566 474.109 233.64C480.908 229.715 487.69 227.541 493.074 227.094C498.714 226.627 501.69 228.079 502.703 229.833C503.716 231.588 503.485 234.891 500.26 239.542C497.182 243.981 491.908 248.768 485.109 252.693Z" fill="#E40303" stroke="black" stroke-width="6"/>
<path d="M505.301 228.333C506.22 229.926 506.466 231.886 506.024 234.102C505.582 236.319 504.461 238.748 502.725 241.251C500.99 243.754 498.673 246.283 495.908 248.692C493.142 251.101 489.983 253.343 486.609 255.291C483.235 257.239 479.713 258.854 476.244 260.045C472.775 261.235 469.427 261.977 466.391 262.229C463.356 262.48 460.692 262.236 458.551 261.511C456.411 260.785 454.836 259.592 453.917 258L479.609 243.167L505.301 228.333Z" fill="black" fill-opacity="0.25"/>
<path d="M562.333 232C554.483 232 547.522 230.492 542.636 228.186C537.518 225.771 535.667 223.026 535.667 221C535.667 218.974 537.518 216.229 542.636 213.814C547.522 211.508 554.483 210 562.333 210C570.184 210 577.145 211.508 582.031 213.814C587.149 216.229 589 218.974 589 221C589 223.026 587.149 225.771 582.031 228.186C577.145 230.492 570.184 232 562.333 232Z" fill="#E40303" stroke="black" stroke-width="6"/>
<path d="M592 221C592 222.839 591.233 224.659 589.742 226.358C588.251 228.056 586.066 229.599 583.311 230.899C580.556 232.2 577.286 233.231 573.686 233.934C570.087 234.638 566.229 235 562.333 235C558.437 235 554.58 234.638 550.98 233.934C547.381 233.231 544.111 232.2 541.356 230.899C538.601 229.599 536.416 228.056 534.925 226.358C533.434 224.659 532.667 222.838 532.667 221L562.333 221L592 221Z" fill="black" fill-opacity="0.25"/>
<path d="M473.665 232.001C465.815 232.001 458.854 230.493 453.968 228.187C448.85 225.772 446.999 223.027 446.999 221.001C446.999 218.975 448.85 216.23 453.968 213.814C458.854 211.509 465.815 210.001 473.665 210.001C481.516 210.001 488.477 211.509 493.363 213.814C498.481 216.23 500.332 218.975 500.332 221.001C500.332 223.027 498.481 225.772 493.363 228.187C488.477 230.493 481.516 232.001 473.665 232.001Z" fill="#E40303" stroke="black" stroke-width="6"/>
<path d="M503.332 221.001C503.332 222.839 502.565 224.66 501.074 226.358C499.583 228.057 497.398 229.6 494.643 230.9C491.888 232.2 488.618 233.231 485.018 233.935C481.419 234.639 477.561 235.001 473.665 235.001C469.769 235.001 465.912 234.639 462.312 233.935C458.713 233.231 455.443 232.2 452.688 230.9C449.933 229.6 447.748 228.057 446.257 226.358C444.766 224.66 443.999 222.839 443.999 221.001L473.665 221.001L503.332 221.001Z" fill="black" fill-opacity="0.25"/>
<path d="M550.894 252.693C544.095 248.768 538.821 243.982 535.742 239.542C532.517 234.891 532.287 231.588 533.3 229.833C534.313 228.079 537.288 226.627 542.929 227.095C548.313 227.541 555.095 229.715 561.894 233.64C568.693 237.566 573.967 242.352 577.045 246.792C580.27 251.443 580.501 254.746 579.488 256.5C578.475 258.255 575.499 259.706 569.859 259.239C564.475 258.793 557.693 256.618 550.894 252.693Z" fill="#E40303" stroke="black" stroke-width="6"/>
<path d="M582.086 258C581.167 259.592 579.592 260.785 577.451 261.511C575.311 262.236 572.647 262.48 569.611 262.229C566.575 261.977 563.228 261.235 559.759 260.045C556.29 258.854 552.768 257.239 549.394 255.291C546.02 253.343 542.86 251.101 540.095 248.692C537.329 246.283 535.013 243.754 533.277 241.251C531.541 238.748 530.421 236.319 529.979 234.102C529.537 231.886 529.783 229.926 530.702 228.333L556.394 243.167L582.086 258Z" fill="black" fill-opacity="0.25"/>
<path d="M474.105 208.36C467.306 204.435 462.032 199.649 458.953 195.209C455.728 190.558 455.498 187.255 456.511 185.501C457.524 183.746 460.499 182.294 466.14 182.762C471.524 183.208 478.306 185.382 485.105 189.308C491.904 193.233 497.178 198.019 500.256 202.459C503.481 207.11 503.712 210.413 502.699 212.167C501.686 213.922 498.71 215.374 493.07 214.906C487.686 214.46 480.904 212.286 474.105 208.36Z" fill="#E40303" stroke="black" stroke-width="6"/>
<path d="M505.297 213.667C504.378 215.26 502.803 216.452 500.662 217.178C498.522 217.904 495.858 218.148 492.822 217.896C489.786 217.644 486.438 216.902 482.97 215.712C479.501 214.522 475.979 212.906 472.605 210.958C469.231 209.01 466.071 206.768 463.306 204.359C460.54 201.95 458.224 199.422 456.488 196.918C454.752 194.415 453.631 191.986 453.19 189.77C452.748 187.553 452.993 185.593 453.913 184.001L479.605 198.834L505.297 213.667Z" fill="black" fill-opacity="0.25"/>
<path d="M530.641 264.895C526.716 258.096 524.541 251.314 524.095 245.93C523.628 240.289 525.08 237.313 526.834 236.301C528.588 235.288 531.891 235.518 536.542 238.743C540.982 241.822 545.768 247.096 549.694 253.895C553.619 260.693 555.793 267.476 556.24 272.86C556.707 278.5 555.255 281.476 553.501 282.489C551.746 283.502 548.443 283.271 543.792 280.046C539.353 276.968 534.566 271.693 530.641 264.895Z" fill="#E40303" stroke="black" stroke-width="6"/>
<path d="M555.001 285.087C553.408 286.006 551.448 286.252 549.232 285.81C547.015 285.368 544.586 284.247 542.083 282.511C539.58 280.776 537.051 278.459 534.642 275.694C532.233 272.928 529.991 269.769 528.043 266.395C526.095 263.021 524.48 259.499 523.289 256.03C522.099 252.561 521.357 249.213 521.105 246.177C520.854 243.142 521.098 240.477 521.823 238.337C522.549 236.197 523.742 234.622 525.334 233.702L540.167 259.395L555.001 285.087Z" fill="black" fill-opacity="0.25"/>
<path d="M486.305 188.107C482.38 181.308 480.205 174.526 479.759 169.142C479.292 163.501 480.744 160.526 482.498 159.513C484.252 158.5 487.555 158.73 492.206 161.955C496.646 165.034 501.432 170.308 505.358 177.107C509.283 183.906 511.457 190.688 511.904 196.072C512.371 201.712 510.919 204.688 509.165 205.701C507.41 206.714 504.107 206.483 499.456 203.258C495.017 200.18 490.23 194.906 486.305 188.107Z" fill="#E40303" stroke="black" stroke-width="6"/>
<path d="M510.665 208.299C509.073 209.218 507.112 209.464 504.896 209.022C502.679 208.58 500.25 207.459 497.747 205.724C495.244 203.988 492.715 201.671 490.306 198.906C487.897 196.141 485.655 192.981 483.707 189.607C481.759 186.233 480.144 182.711 478.953 179.242C477.763 175.773 477.021 172.425 476.769 169.389C476.518 166.354 476.762 163.69 477.487 161.549C478.213 159.409 479.406 157.834 480.998 156.915L495.831 182.607L510.665 208.299Z" fill="black" fill-opacity="0.25"/>
<path d="M549.692 188.106C545.767 194.905 540.981 200.179 536.541 203.258C531.89 206.483 528.587 206.713 526.833 205.7C525.078 204.687 523.626 201.712 524.094 196.071C524.54 190.687 526.714 183.905 530.64 177.106C534.565 170.307 539.351 165.033 543.791 161.955C548.442 158.73 551.745 158.499 553.499 159.512C555.254 160.525 556.706 163.501 556.238 169.141C555.792 174.525 553.618 181.307 549.692 188.106Z" fill="#E40303" stroke="black" stroke-width="6"/>
<path d="M554.999 156.914C556.592 157.833 557.784 159.408 558.51 161.549C559.236 163.689 559.48 166.353 559.228 169.389C558.976 172.425 558.234 175.772 557.044 179.241C555.854 182.71 554.238 186.232 552.29 189.606C550.342 192.98 548.1 196.14 545.691 198.905C543.282 201.671 540.754 203.987 538.25 205.723C535.747 207.459 533.318 208.579 531.102 209.021C528.885 209.463 526.925 209.217 525.333 208.298L540.166 182.606L554.999 156.914Z" fill="black" fill-opacity="0.25"/>
<path d="M505.36 264.894C501.435 271.693 496.649 276.967 492.209 280.045C487.558 283.27 484.255 283.501 482.501 282.488C480.746 281.475 479.294 278.499 479.762 272.859C480.208 267.475 482.382 260.693 486.308 253.894C490.233 247.095 495.019 241.821 499.459 238.742C504.11 235.517 507.413 235.287 509.167 236.3C510.922 237.313 512.374 240.288 511.906 245.929C511.46 251.313 509.286 258.095 505.36 264.894Z" fill="#E40303" stroke="black" stroke-width="6"/>
<path d="M510.667 233.702C512.26 234.621 513.452 236.196 514.178 238.336C514.904 240.477 515.148 243.141 514.896 246.176C514.644 249.212 513.902 252.56 512.712 256.029C511.522 259.498 509.906 263.02 507.958 266.394C506.01 269.768 503.768 272.928 501.359 275.693C498.95 278.458 496.422 280.775 493.918 282.511C491.415 284.246 488.986 285.367 486.77 285.809C484.553 286.251 482.593 286.005 481.001 285.086L495.834 259.394L510.667 233.702Z" fill="black" fill-opacity="0.25"/>
<circle cx="517.999" cy="219" r="29.6667" fill="#FFED00" stroke="black" stroke-width="6"/>
<path d="M517.5 246C510.207 246 503.212 243.103 498.055 237.945C492.897 232.788 490 225.793 490 218.5C490 211.207 492.897 204.212 498.055 199.055C503.212 193.897 510.207 191 517.5 191L517.5 218.5L517.5 246Z" fill="black" fill-opacity="0.25"/>
<path d="M432.351 125.304C432.351 137.749 429.964 148.869 426.238 156.766C422.402 164.895 417.694 168.608 413.5 168.608C409.306 168.608 404.598 164.895 400.762 156.766C397.035 148.869 394.648 137.749 394.648 125.304C394.648 112.859 397.035 101.739 400.762 93.8425C404.598 85.7133 409.306 82 413.5 82C417.694 82 422.402 85.7133 426.238 93.8425C429.964 101.739 432.351 112.859 432.351 125.304Z" fill="#FF8C00" stroke="black" stroke-width="6"/>
<path d="M413.5 79C416.369 79 419.211 80.1977 421.862 82.5247C424.513 84.8517 426.922 88.2624 428.951 92.5621C430.98 96.8619 432.59 101.966 433.688 107.584C434.786 113.202 435.351 119.223 435.351 125.304C435.351 131.385 434.786 137.406 433.688 143.024C432.59 148.642 430.98 153.746 428.951 158.046C426.922 162.346 424.513 165.756 421.862 168.083C419.211 170.41 416.369 171.608 413.5 171.608L413.5 125.304V79Z" fill="black" fill-opacity="0.25"/>
<path d="M432.351 263.696C432.351 276.141 429.964 287.261 426.238 295.157C422.402 303.287 417.694 307 413.5 307C409.306 307 404.598 303.287 400.762 295.157C397.035 287.261 394.648 276.141 394.648 263.696C394.648 251.251 397.035 240.131 400.762 232.234C404.598 224.105 409.306 220.392 413.5 220.392C417.694 220.392 422.402 224.105 426.238 232.234C429.964 240.131 432.351 251.251 432.351 263.696Z" fill="#FF8C00" stroke="black" stroke-width="6"/>
<path d="M413.5 217.392C416.369 217.392 419.211 218.59 421.862 220.917C424.513 223.244 426.922 226.654 428.951 230.954C430.98 235.254 432.59 240.358 433.688 245.976C434.786 251.594 435.351 257.615 435.351 263.696C435.351 269.777 434.786 275.798 433.688 281.416C432.59 287.034 430.98 292.138 428.951 296.438C426.922 300.738 424.513 304.148 421.862 306.475C419.211 308.802 416.369 310 413.5 310L413.5 263.696V217.392Z" fill="black" fill-opacity="0.25"/>
<path d="M482.852 176.228C472.075 182.45 461.251 185.943 452.549 186.664C443.591 187.407 438.021 185.186 435.924 181.554C433.827 177.922 434.689 171.988 439.811 164.601C444.787 157.426 453.223 149.799 464.001 143.576C474.779 137.354 485.602 133.861 494.304 133.14C503.262 132.397 508.832 134.618 510.929 138.25C513.026 141.882 512.164 147.816 507.042 155.203C502.067 162.378 493.63 170.005 482.852 176.228Z" fill="#FF8C00" stroke="black" stroke-width="6"/>
<path d="M513.527 136.75C514.962 139.235 515.346 142.295 514.656 145.754C513.966 149.214 512.217 153.005 509.508 156.912C506.799 160.819 503.183 164.766 498.867 168.525C494.55 172.285 489.618 175.785 484.352 178.826C479.086 181.866 473.589 184.387 468.175 186.245C462.761 188.103 457.535 189.262 452.797 189.654C448.059 190.047 443.901 189.666 440.56 188.534C437.219 187.401 434.761 185.539 433.326 183.054L473.427 159.902L513.527 136.75Z" fill="black" fill-opacity="0.25"/>
<path d="M363.001 245.424C352.223 251.646 341.4 255.139 332.698 255.86C323.74 256.603 318.17 254.382 316.073 250.75C313.976 247.118 314.838 241.184 319.96 233.797C324.935 226.622 333.372 218.995 344.15 212.772C354.927 206.55 365.751 203.057 374.453 202.336C383.411 201.593 388.981 203.814 391.078 207.446C393.175 211.078 392.313 217.012 387.191 224.399C382.215 231.574 373.778 239.201 363.001 245.424Z" fill="#FF8C00" stroke="black" stroke-width="6"/>
<path d="M393.676 205.946C395.11 208.431 395.494 211.491 394.804 214.95C394.115 218.41 392.365 222.201 389.656 226.108C386.947 230.015 383.331 233.962 379.015 237.722C374.699 241.481 369.767 244.982 364.501 248.022C359.235 251.062 353.738 253.583 348.323 255.441C342.909 257.299 337.684 258.458 332.945 258.85C328.207 259.243 324.049 258.862 320.708 257.73C317.367 256.597 314.909 254.735 313.475 252.25L353.575 229.098L393.676 205.946Z" fill="black" fill-opacity="0.25"/>
<path d="M482.696 213.351C470.251 213.351 459.131 210.965 451.234 207.238C443.105 203.402 439.392 198.694 439.392 194.5C439.392 190.306 443.105 185.598 451.234 181.762C459.131 178.035 470.251 175.649 482.696 175.649C495.141 175.649 506.261 178.035 514.158 181.762C522.287 185.598 526 190.306 526 194.5C526 198.694 522.287 203.402 514.158 207.238C506.261 210.965 495.141 213.351 482.696 213.351Z" fill="#FF8C00" stroke="black" stroke-width="6"/>
<path d="M529 194.5C529 197.37 527.802 200.211 525.475 202.862C523.148 205.513 519.738 207.922 515.438 209.951C511.138 211.98 506.034 213.59 500.416 214.688C494.798 215.786 488.777 216.351 482.696 216.351C476.615 216.351 470.594 215.786 464.976 214.688C459.358 213.59 454.254 211.98 449.954 209.951C445.654 207.922 442.244 205.513 439.917 202.862C437.59 200.211 436.392 197.37 436.392 194.5L482.696 194.5L529 194.5Z" fill="black" fill-opacity="0.25"/>
<path d="M344.305 213.352C331.86 213.352 320.74 210.966 312.844 207.239C304.715 203.403 301.001 198.695 301.001 194.501C301.001 190.307 304.715 185.599 312.844 181.763C320.74 178.036 331.86 175.65 344.305 175.65C356.75 175.65 367.87 178.036 375.767 181.763C383.896 185.599 387.609 190.307 387.609 194.501C387.609 198.695 383.896 203.403 375.767 207.239C367.87 210.966 356.75 213.352 344.305 213.352Z" fill="#FF8C00" stroke="black" stroke-width="6"/>
<path d="M390.609 194.501C390.609 197.371 389.412 200.212 387.085 202.863C384.758 205.514 381.347 207.923 377.047 209.952C372.747 211.981 367.643 213.591 362.025 214.689C356.407 215.787 350.386 216.352 344.305 216.352C338.225 216.352 332.203 215.787 326.586 214.689C320.968 213.591 315.863 211.981 311.563 209.952C307.264 207.923 303.853 205.514 301.526 202.863C299.199 200.212 298.001 197.371 298.001 194.501L344.305 194.501L390.609 194.501Z" fill="black" fill-opacity="0.25"/>
<path d="M464.001 245.424C453.224 239.201 444.787 231.574 439.811 224.399C434.689 217.012 433.828 211.078 435.925 207.446C438.022 203.814 443.591 201.593 452.55 202.336C461.251 203.057 472.075 206.55 482.853 212.772C493.63 218.995 502.067 226.622 507.043 233.797C512.165 241.184 513.026 247.118 510.929 250.75C508.832 254.382 503.263 256.603 494.304 255.86C485.602 255.139 474.779 251.646 464.001 245.424Z" fill="#FF8C00" stroke="black" stroke-width="6"/>
<path d="M513.527 252.25C512.093 254.735 509.635 256.597 506.294 257.729C502.953 258.862 498.795 259.243 494.057 258.85C489.318 258.457 484.093 257.299 478.679 255.441C473.264 253.583 467.767 251.062 462.501 248.022C457.235 244.981 452.303 241.481 447.987 237.721C443.671 233.961 440.055 230.015 437.346 226.108C434.637 222.201 432.888 218.41 432.198 214.95C431.508 211.491 431.892 208.431 433.326 205.946L473.427 229.098L513.527 252.25Z" fill="black" fill-opacity="0.25"/>
<path d="M344.146 176.229C333.368 170.006 324.931 162.379 319.956 155.204C314.834 147.817 313.972 141.883 316.069 138.251C318.166 134.619 323.736 132.398 332.694 133.141C341.396 133.862 352.22 137.355 362.997 143.577C373.775 149.8 382.212 157.427 387.187 164.602C392.309 171.989 393.171 177.923 391.074 181.555C388.977 185.187 383.407 187.408 374.449 186.666C365.747 185.944 354.923 182.451 344.146 176.229Z" fill="#FF8C00" stroke="black" stroke-width="6"/>
<path d="M393.672 183.055C392.237 185.54 389.779 187.402 386.438 188.535C383.098 189.667 378.939 190.048 374.201 189.655C369.463 189.263 364.238 188.104 358.823 186.246C353.409 184.388 347.912 181.867 342.646 178.827C337.38 175.787 332.448 172.287 328.132 168.527C323.816 164.767 320.2 160.82 317.491 156.913C314.781 153.006 313.032 149.215 312.342 145.755C311.653 142.296 312.036 139.236 313.471 136.751L353.571 159.903L393.672 183.055Z" fill="black" fill-opacity="0.25"/>
<path d="M431.774 263.852C425.552 253.075 422.059 242.251 421.338 233.549C420.595 224.591 422.816 219.021 426.448 216.924C430.08 214.827 436.014 215.689 443.401 220.811C450.576 225.786 458.203 234.223 464.426 245.001C470.648 255.778 474.141 266.602 474.862 275.304C475.605 284.262 473.384 289.832 469.752 291.929C466.12 294.026 460.186 293.164 452.799 288.042C445.624 283.067 437.997 274.63 431.774 263.852Z" fill="#FF8C00" stroke="black" stroke-width="6"/>
<path d="M471.252 294.527C468.767 295.962 465.707 296.345 462.248 295.656C458.788 294.966 454.997 293.217 451.09 290.507C447.183 287.798 443.236 284.182 439.476 279.866C435.717 275.55 432.216 270.618 429.176 265.352C426.136 260.086 423.615 254.589 421.757 249.175C419.899 243.76 418.74 238.535 418.348 233.797C417.955 229.059 418.336 224.9 419.468 221.56C420.601 218.219 422.463 215.761 424.948 214.326L448.1 254.427L471.252 294.527Z" fill="black" fill-opacity="0.25"/>
<path d="M362.575 144.001C356.352 133.223 352.859 122.4 352.138 113.698C351.396 104.74 353.617 99.17 357.249 97.073C360.881 94.976 366.815 95.8379 374.201 100.96C381.377 105.935 389.004 114.372 395.226 125.15C401.449 135.927 404.942 146.751 405.663 155.453C406.405 164.411 404.185 169.981 400.553 172.078C396.921 174.175 390.987 173.313 383.6 168.191C376.424 163.216 368.797 154.779 362.575 144.001Z" fill="#FF8C00" stroke="black" stroke-width="6"/>
<path d="M402.053 174.676C399.568 176.111 396.508 176.494 393.049 175.805C389.589 175.115 385.798 173.366 381.89 170.656C377.983 167.947 374.037 164.331 370.277 160.015C366.517 155.699 363.017 150.767 359.977 145.501C356.937 140.235 354.415 134.738 352.557 129.324C350.7 123.909 349.541 118.684 349.149 113.946C348.756 109.207 349.137 105.049 350.269 101.708C351.402 98.3677 353.264 95.9097 355.749 94.4749L378.901 134.575L402.053 174.676Z" fill="black" fill-opacity="0.25"/>
<path d="M464.422 144C458.199 154.778 450.572 163.215 443.397 168.19C436.01 173.312 430.076 174.174 426.444 172.077C422.812 169.98 420.591 164.41 421.334 155.452C422.055 146.75 425.548 135.926 431.77 125.149C437.993 114.371 445.62 105.934 452.795 100.959C460.182 95.837 466.116 94.9751 469.748 97.0721C473.38 99.1691 475.601 104.739 474.858 113.697C474.137 122.399 470.644 133.223 464.422 144Z" fill="#FF8C00" stroke="black" stroke-width="6"/>
<path d="M471.248 94.474C473.733 95.9088 475.595 98.3668 476.728 101.708C477.86 105.048 478.241 109.207 477.848 113.945C477.456 118.683 476.297 123.908 474.439 129.323C472.581 134.737 470.06 140.234 467.02 145.5C463.979 150.766 460.479 155.698 456.719 160.014C452.96 164.33 449.013 167.946 445.106 170.655C441.199 173.365 437.408 175.114 433.948 175.804C430.489 176.493 427.429 176.11 424.944 174.675L448.096 134.575L471.248 94.474Z" fill="black" fill-opacity="0.25"/>
<path d="M395.226 263.851C389.004 274.629 381.377 283.066 374.201 288.041C366.815 293.163 360.881 294.025 357.249 291.928C353.617 289.831 351.396 284.261 352.138 275.303C352.859 266.601 356.352 255.777 362.575 245C368.797 234.222 376.424 225.785 383.6 220.81C390.987 215.688 396.921 214.826 400.553 216.923C404.185 219.02 406.405 224.59 405.663 233.548C404.942 242.25 401.449 253.073 395.226 263.851Z" fill="#FF8C00" stroke="black" stroke-width="6"/>
<path d="M402.053 214.325C404.538 215.76 406.4 218.218 407.532 221.558C408.665 224.899 409.045 229.057 408.653 233.796C408.26 238.534 407.102 243.759 405.244 249.174C403.386 254.588 400.865 260.085 397.825 265.351C394.784 270.617 391.284 275.549 387.524 279.865C383.764 284.181 379.818 287.797 375.911 290.506C372.004 293.215 368.212 294.965 364.753 295.654C361.293 296.344 358.234 295.961 355.749 294.526L378.901 254.425L402.053 214.325Z" fill="black" fill-opacity="0.25"/>
<circle cx="413.498" cy="191.378" r="47.9865" fill="#FFED00" stroke="black" stroke-width="6"/>
<path d="M413.986 140C427.509 140 440.478 145.372 450.039 154.934C459.601 164.495 464.973 177.464 464.973 190.986C464.973 204.509 459.601 217.478 450.039 227.039C440.478 236.601 427.509 241.973 413.986 241.973L413.986 190.986V140Z" fill="black" fill-opacity="0.25"/>
</svg>
