<svg width="1000" height="1000" viewBox="0 0 1000 1000" fill="none" xmlns="http://www.w3.org/2000/svg">
<g clip-path="url(#clip0_69_9807)">
<path d="M474.197 -21.4951C476.277 -26.1761 482.893 -26.2553 485.098 -21.6256L542.354 98.5901C544.236 102.543 541.393 107.11 537.018 107.163L425.764 108.495C421.389 108.548 418.424 104.05 420.199 100.053L474.197 -21.4951L470.541 -23.1236L474.197 -21.4951Z" fill="#FF8C00" stroke="black" stroke-width="8"/>
<mask id="path-2-inside-1_69_9807" fill="white">
<path fill-rule="evenodd" clip-rule="evenodd" d="M258.15 208.699C261.542 206.364 264.258 203.184 266.152 199.527C314.02 107.127 410.401 44 521.5 44C666.77 44 786.875 151.93 806.264 292.108C809.291 313.991 791.091 332 769 332H263.476H234H156.202C132.639 332 123.186 301.589 142.595 288.23L258.15 208.699Z"/>
</mask>
<path fill-rule="evenodd" clip-rule="evenodd" d="M258.15 208.699C261.542 206.364 264.258 203.184 266.152 199.527C314.02 107.127 410.401 44 521.5 44C666.77 44 786.875 151.93 806.264 292.108C809.291 313.991 791.091 332 769 332H263.476H234H156.202C132.639 332 123.186 301.589 142.595 288.23L258.15 208.699Z" fill="#FF8C00"/>
<path d="M806.264 292.108L798.34 293.204V293.204L806.264 292.108ZM142.595 288.23L138.06 281.64L142.595 288.23ZM266.152 199.527L259.049 195.848L266.152 199.527ZM258.15 208.699L253.614 202.109L258.15 208.699ZM521.5 36C407.291 36 308.235 100.902 259.049 195.848L273.256 203.207C319.805 113.351 413.511 52 521.5 52V36ZM814.189 291.012C794.261 146.942 670.83 36 521.5 36V52C662.71 52 779.488 156.918 798.34 293.204L814.189 291.012ZM769 340C795.163 340 817.984 318.447 814.189 291.012L798.34 293.204C800.599 309.535 787.02 324 769 324V340ZM263.476 340H769V324H263.476V340ZM263.476 324H234V340H263.476V324ZM234 324H156.202V340H234V324ZM147.131 294.82L262.685 215.289L253.614 202.109L138.06 281.64L147.131 294.82ZM156.202 324C140.494 324 134.191 303.726 147.131 294.82L138.06 281.64C112.18 299.452 124.785 340 156.202 340V324ZM259.049 195.848C257.717 198.419 255.851 200.569 253.614 202.109L262.685 215.289C267.232 212.159 270.8 207.948 273.256 203.207L259.049 195.848Z" fill="black" mask="url(#path-2-inside-1_69_9807)"/>
<path d="M218.603 229.547C231.003 220.248 248.059 232.249 243.493 247.061L220.79 320.713C218.722 327.423 212.521 332 205.5 332H130C114.624 332 108.099 312.426 120.4 303.2L218.603 229.547Z" fill="black"/>
<path d="M278.365 188.674L278.872 188.285L279.232 187.759C310.428 142.161 347.973 115.448 386.574 104.09C425.186 92.727 465.147 96.6398 501.339 112.795C572.838 144.712 629.627 224.473 631.053 328.142H191.311C193.038 305.024 188.472 292.078 182.376 284.103C179.185 279.927 175.736 277.343 173.152 275.502C172.883 275.309 172.631 275.131 172.396 274.965C171.446 274.291 170.761 273.807 170.202 273.335C170.06 273.215 169.948 273.113 169.862 273.03C170.146 272.531 170.751 271.714 171.955 270.478C174.702 267.658 179.619 263.596 187.755 257.32C194.315 252.26 202.705 245.956 213.409 237.914C229.376 225.917 250.493 210.051 278.365 188.674Z" fill="white" stroke="black" stroke-width="8"/>
<path fill-rule="evenodd" clip-rule="evenodd" d="M537.377 61.5198C498.958 48.9367 483.575 43.8982 528.611 43.8982C679.346 43.8982 806.757 194.13 799.319 314.579C798.977 320.118 794.257 324.245 788.707 324.245L707.719 324.244L687.576 324.244L194.596 324.244C188.053 324.244 182.75 318.941 182.75 312.399C182.75 305.857 188.053 300.553 194.596 300.553H697.175C706.247 300.553 715.063 296.703 720.716 289.608C826.901 156.346 623.825 89.8334 537.377 61.5198Z" fill="black" fill-opacity="0.25"/>
<path d="M226 324H756C756 335.046 747.046 344 736 344H246C234.954 344 226 335.046 226 324Z" fill="black" fill-opacity="0.25"/>
<path d="M464.409 201.84C464.409 183.304 447.767 168.277 427.239 168.277C406.71 168.277 390.068 183.304 390.068 201.84" stroke="black" stroke-width="12" stroke-linecap="round"/>
<path d="M624.022 -38.9368C625.845 -44.3009 633.406 -44.37 635.343 -39.0403L694.137 122.795C695.548 126.678 692.708 130.786 688.579 130.836L574.335 132.204C570.192 132.254 567.241 128.188 568.573 124.267L624.022 -38.9368Z" fill="#FF8C00" stroke="black" stroke-width="8"/>
<path d="M592.459 131.367L629.848 29.9473L669.492 130.445L592.459 131.367Z" fill="#5F3016" stroke="black" stroke-width="8"/>
</g>
<defs>
<clipPath id="clip0_69_9807">
<rect width="1000" height="1000" fill="white"/>
</clipPath>
</defs>
</svg>
