<svg width="1000" height="1000" viewBox="0 0 1000 1000" fill="none" xmlns="http://www.w3.org/2000/svg">
<path d="M236.916 623.044C232.918 619.235 229.651 616.122 227.223 613.927C226.532 611.967 225.943 610.475 225.453 609.481C225.222 609.015 224.845 608.292 224.297 607.752C224.09 607.549 223.243 606.737 221.89 606.784C220.209 606.842 219.405 608.081 219.161 608.577C218.907 609.095 218.827 609.594 218.794 609.855C218.754 610.168 218.742 610.483 218.74 610.772C218.738 611.35 218.782 612.035 218.855 612.779C219 614.279 219.285 616.268 219.685 618.646C221.282 628.162 224.847 644.704 229.523 663.682C234.203 682.676 240.014 704.185 246.116 723.643C252.199 743.041 258.632 760.604 264.587 771.581C291.127 820.501 330.519 871.364 365.275 910.272C382.66 929.735 398.927 946.254 411.9 958.081C418.382 963.99 424.081 968.764 428.711 972.156C431.024 973.85 433.114 975.232 434.932 976.243C436.686 977.218 438.433 977.99 440 978.223C440.661 978.321 441.264 978.21 441.557 978.15C441.932 978.072 442.329 977.958 442.719 977.831C443.504 977.576 444.475 977.198 445.591 976.726C447.834 975.776 450.862 974.358 454.555 972.527C461.95 968.858 472.143 963.466 484.317 956.675C508.668 943.092 541.019 923.872 574.887 901.575C608.75 879.283 644.173 853.885 674.645 827.946C705.066 802.05 730.765 775.437 744.956 750.687C775.548 697.335 784.834 655.257 785.563 627.566C785.926 613.759 784.164 603.408 781.755 597.004C780.59 593.906 779.115 591.298 777.293 589.861C776.339 589.109 774.971 588.437 773.355 588.669C771.706 588.905 770.573 589.969 769.879 591.039C761.929 603.301 743.304 617.723 717.652 632.704C692.145 647.6 660.144 662.796 625.974 676.741C557.579 704.655 480.893 727.396 430.658 732.764C411.112 734.852 389.995 729.837 368.815 720.613C347.656 711.398 326.639 698.075 307.375 683.811C277.395 661.612 251.974 637.391 236.916 623.044Z" fill="#55EAAB" stroke="black" stroke-width="6" stroke-linecap="round"/>
<path d="M645.151 776.918C612.085 803.036 473.781 812.822 435.69 838.114C419.655 930.567 298.056 834.355 332.108 869.172C402.031 940.667 424.142 972.828 440.443 975.256C447.73 976.341 686.641 846.361 742.355 749.195C803.128 643.206 778.795 582.803 772.398 592.671C738.913 644.32 728.021 711.464 645.151 776.918Z" fill="black" fill-opacity="0.25"/>
<path d="M774.221 595.262C774.134 594.866 774.043 594.484 773.949 594.116C774.24 593.856 774.329 594.274 774.221 595.262C778.608 615.128 774.204 670.079 721.332 704.817C653.924 749.106 486.924 802.837 479.37 801.101C471.816 799.365 624.207 742.144 638.023 737.17C656.814 730.406 708.096 697.029 727.041 682.145C756.364 659.107 773.252 604.144 774.221 595.262Z" fill="black" fill-opacity="0.5"/>
<path d="M283.321 720.062C238.978 673.195 218.499 628.068 222 608.968C222.498 609.966 248.722 666.696 276.055 697.839C295.198 719.651 321.768 751.123 342.643 762.387C355.565 769.359 390.118 777.224 382.702 779.478C375.287 781.733 341.821 781.894 283.321 720.062Z" fill="black" fill-opacity="0.5"/>
</svg>
