<svg width="1000" height="1000" viewBox="0 0 1000 1000" fill="none" xmlns="http://www.w3.org/2000/svg">
<mask id="path-1-inside-1_561_5947" fill="white">
<path fill-rule="evenodd" clip-rule="evenodd" d="M168 421.1C168 243.761 316.641 100 500 100C683.359 100 832 243.761 832 421.1C832 511.743 812.605 593.615 750.151 652H247.803C185.348 593.615 168 511.743 168 421.1ZM386 453C386 475.091 368.091 493 346 493C323.909 493 306 475.091 306 453C306 430.909 323.909 413 346 413C368.091 413 386 430.909 386 453ZM489 453C489 475.091 471.091 493 449 493C426.909 493 409 475.091 409 453C409 430.909 426.909 413 449 413C471.091 413 489 430.909 489 453Z"/>
</mask>
<path fill-rule="evenodd" clip-rule="evenodd" d="M168 421.1C168 243.761 316.641 100 500 100C683.359 100 832 243.761 832 421.1C832 511.743 812.605 593.615 750.151 652H247.803C185.348 593.615 168 511.743 168 421.1ZM386 453C386 475.091 368.091 493 346 493C323.909 493 306 475.091 306 453C306 430.909 323.909 413 346 413C368.091 413 386 430.909 386 453ZM489 453C489 475.091 471.091 493 449 493C426.909 493 409 475.091 409 453C409 430.909 426.909 413 449 413C471.091 413 489 430.909 489 453Z" fill="#82EB68"/>
<path d="M438 419.89H442H438ZM350.887 659.59C307.261 601.797 280 520.547 280 430.4H272C272 522.089 299.715 605.079 344.502 664.41L350.887 659.59ZM365 422.073C365 333.584 381.713 253.667 408.56 196.022C435.56 138.049 472.06 104 511 104V96C467.097 96 428.598 134.049 401.308 192.644C373.866 251.567 357 332.686 357 422.073H365ZM442 419.011C442 331.077 448.259 251.567 458.342 194.128C463.389 165.376 469.362 142.349 475.897 126.603C479.171 118.712 482.495 112.88 485.75 109.086C489.029 105.263 491.794 104 494 104V96C488.474 96 483.69 99.2002 479.678 103.877C475.642 108.582 471.933 115.284 468.508 123.536C461.643 140.076 455.549 163.767 450.462 192.745C440.277 250.765 434 330.76 434 419.011H442ZM452.436 590.328C442.006 532.899 442 509.214 442 419.89H434C434 509.23 433.994 533.553 444.564 591.758L452.436 590.328ZM442 419.89V419.011H434V419.89H442ZM521 419.011C521 330.854 518.424 251.001 514.253 193.149C512.169 164.241 509.68 140.731 506.896 124.397C505.509 116.261 504.02 109.727 502.408 105.152C501.611 102.89 500.702 100.866 499.613 99.3315C498.623 97.9372 496.797 96 494 96V104C492.791 104 492.533 103.179 493.09 103.963C493.547 104.607 494.162 105.823 494.863 107.81C496.245 111.735 497.645 117.735 499.01 125.742C501.729 141.694 504.196 164.902 506.274 193.724C510.427 251.331 513 330.983 513 419.011H521ZM513.972 648.708C518.308 590.574 521 509.13 521 419.011H513C513 509.001 510.311 590.235 505.994 648.112L513.972 648.708ZM598 419.011C598 330.628 586.776 250.453 568.528 192.24C559.411 163.157 548.472 139.33 536.138 122.688C523.861 106.122 509.667 96 494 96V104C505.948 104 518.061 111.731 529.711 127.451C541.304 143.094 551.914 165.986 560.894 194.633C578.839 251.879 590 331.209 590 419.011H598ZM567.296 649.644C586.271 591.136 598 509.359 598 419.011H590C590 508.772 578.335 589.673 559.687 647.176L567.296 649.644ZM656.791 556.531C695.899 440.471 680.723 325.629 643.301 239.78C624.592 196.859 600.264 161.052 574.227 135.913C548.27 110.852 520.184 96 494 96V104C517.245 104 543.437 117.306 568.67 141.668C593.822 165.952 617.597 200.834 635.968 242.977C672.706 327.257 687.601 440.042 649.209 553.977L656.791 556.531ZM756 419.011C756 241.452 639.45 96 494 96V104C633.529 104 748 244.2 748 419.011H756ZM242 419.011C242 244.2 356.471 104 496 104V96C350.55 96 234 241.452 234 419.011H242ZM750.151 652V660H753.308L755.614 657.844L750.151 652ZM247.803 652L242.34 657.844L244.646 660H247.803V652ZM500 92C312.477 92 160 239.093 160 421.1H176C176 248.429 320.806 108 500 108V92ZM840 421.1C840 239.093 687.523 92 500 92V108C679.194 108 824 248.429 824 421.1H840ZM755.614 657.844C820.414 597.266 840 512.714 840 421.1H824C824 510.773 804.797 589.963 744.688 646.156L755.614 657.844ZM247.803 660H750.151V644H247.803V660ZM160 421.1C160 512.544 177.463 597.194 242.34 657.844L253.266 646.156C193.234 590.035 176 510.943 176 421.1H160ZM346 501C372.51 501 394 479.51 394 453H378C378 470.673 363.673 485 346 485V501ZM298 453C298 479.51 319.49 501 346 501V485C328.327 485 314 470.673 314 453H298ZM346 405C319.49 405 298 426.49 298 453H314C314 435.327 328.327 421 346 421V405ZM394 453C394 426.49 372.51 405 346 405V421C363.673 421 378 435.327 378 453H394ZM449 501C475.51 501 497 479.51 497 453H481C481 470.673 466.673 485 449 485V501ZM401 453C401 479.51 422.49 501 449 501V485C431.327 485 417 470.673 417 453H401ZM449 405C422.49 405 401 426.49 401 453H417C417 435.327 431.327 421 449 421V405ZM497 453C497 426.49 475.51 405 449 405V421C466.673 421 481 435.327 481 453H497Z" fill="black" mask="url(#path-1-inside-1_561_5947)"/>
<path d="M345.649 493.924C328.415 493.995 306 479.82 306 453.404C307.371 426.658 326.289 412.879 345.569 413.001C348.696 413.02 351 415.726 351 418.853C351 421.911 348.767 424.495 345.801 425.237C307.741 434.765 307.733 470.585 345.777 481.391C348.776 482.243 351 483.785 351 486.903C351 490.034 348.78 493.912 345.649 493.924Z" fill="black" fill-opacity="0.25"/>
<path d="M447.649 493.924C430.415 493.995 408 479.82 408 453.404C409.371 426.658 428.289 412.879 447.569 413.001C450.696 413.02 453 415.726 453 418.853C453 421.911 450.767 424.495 447.801 425.237C409.741 434.765 409.733 470.585 447.777 481.391C450.776 482.243 453 483.785 453 486.903C453 490.034 450.78 493.912 447.649 493.924Z" fill="black" fill-opacity="0.25"/>
<path d="M815 426C815 276.786 701.743 152.517 551.871 125.465C542.647 123.8 540.414 135.652 549.131 139.094C726.879 209.272 807.43 366.709 732.793 618.108C730.445 626.017 739.595 631.715 745.01 625.491C791.699 571.831 815 501.556 815 426Z" fill="black" fill-opacity="0.25"/>
<path d="M180 418C180 278.648 278.782 161.052 413.917 124.081C423.346 121.502 425.287 132.444 416.134 135.879C247.317 199.225 137.878 355.343 242.409 600.913C245.88 609.067 237.069 615.315 231.809 608.183C193.164 555.775 180 489.053 180 418Z" fill="white" fill-opacity="0.25"/>
<rect x="211" y="599" width="74.7778" height="97" rx="36" fill="#82EB68" stroke="black" stroke-width="8"/>
<path d="M215 617.139C215 614.853 216.853 613 219.139 613C221.425 613 223.278 614.853 223.278 617.139V678.861C223.278 681.147 221.425 683 219.139 683C216.853 683 215 681.147 215 678.861V617.139Z" fill="black" fill-opacity="0.25"/>
<rect x="357.635" y="599" width="74.7778" height="97" rx="36" fill="#82EB68" stroke="black" stroke-width="8"/>
<rect x="284.317" y="599" width="74.7778" height="97" rx="36" fill="#82EB68" stroke="black" stroke-width="8"/>
<rect x="504.27" y="599" width="74.7778" height="97" rx="36" fill="#82EB68" stroke="black" stroke-width="8"/>
<rect x="430.952" y="599" width="74.7778" height="97" rx="36" fill="#82EB68" stroke="black" stroke-width="8"/>
<rect x="650.905" y="599" width="74.7778" height="97" rx="36" fill="#82EB68" stroke="black" stroke-width="8"/>
<rect x="577.587" y="599" width="74.7778" height="97" rx="36" fill="#82EB68" stroke="black" stroke-width="8"/>
<rect x="724.222" y="599" width="74.7778" height="97" rx="36" fill="#82EB68" stroke="black" stroke-width="8"/>
<path d="M764.793 619.706C764.793 611.216 771.676 604.333 780.166 604.333C788.657 604.333 795.539 611.216 795.539 619.706V675.294C795.539 683.784 788.657 690.667 780.166 690.667C771.676 690.667 764.793 683.784 764.793 675.294V619.706Z" fill="black" fill-opacity="0.25"/>
<path d="M689.476 619.706C689.476 611.216 696.359 604.333 704.849 604.333C713.339 604.333 720.222 611.216 720.222 619.706V675.294C720.222 683.784 713.339 690.667 704.849 690.667C696.359 690.667 689.476 683.784 689.476 675.294V619.706Z" fill="black" fill-opacity="0.25"/>
<path d="M617.158 619.706C617.158 611.216 624.041 604.333 632.531 604.333C641.022 604.333 647.904 611.216 647.904 619.706V675.294C647.904 683.784 641.022 690.667 632.531 690.667C624.041 690.667 617.158 683.784 617.158 675.294V619.706Z" fill="black" fill-opacity="0.25"/>
<path d="M543.841 619.706C543.841 611.216 550.724 604.333 559.214 604.333C567.704 604.333 574.587 611.216 574.587 619.706V675.294C574.587 683.784 567.704 690.667 559.214 690.667C550.724 690.667 543.841 683.784 543.841 675.294V619.706Z" fill="black" fill-opacity="0.25"/>
<path d="M470.524 619.706C470.524 611.216 477.406 604.333 485.897 604.333C494.387 604.333 501.27 611.216 501.27 619.706V675.294C501.27 683.784 494.387 690.667 485.897 690.667C477.406 690.667 470.524 683.784 470.524 675.294V619.706Z" fill="black" fill-opacity="0.25"/>
<path d="M396.206 619.706C396.206 611.216 403.089 604.333 411.579 604.333C420.07 604.333 426.952 611.216 426.952 619.706V675.294C426.952 683.784 420.07 690.667 411.579 690.667C403.089 690.667 396.206 683.784 396.206 675.294V619.706Z" fill="black" fill-opacity="0.25"/>
<path d="M326.889 619.706C326.889 611.216 333.771 604.333 342.262 604.333C350.752 604.333 357.635 611.216 357.635 619.706V675.294C357.635 683.784 350.752 690.667 342.262 690.667C333.771 690.667 326.889 683.784 326.889 675.294V619.706Z" fill="black" fill-opacity="0.25"/>
<path d="M249.571 619.706C249.571 611.216 256.454 604.333 264.944 604.333C273.435 604.333 280.317 611.216 280.317 619.706V675.294C280.317 683.784 273.435 690.667 264.944 690.667C256.454 690.667 249.571 683.784 249.571 675.294V619.706Z" fill="black" fill-opacity="0.25"/>
<path d="M287.778 616.639C287.778 614.353 289.631 612.5 291.917 612.5C294.203 612.5 296.056 614.353 296.056 616.639V678.361C296.056 680.647 294.203 682.5 291.917 682.5C289.631 682.5 287.778 680.647 287.778 678.361V616.639Z" fill="black" fill-opacity="0.25"/>
<path d="M362.095 616.639C362.095 614.353 363.948 612.5 366.234 612.5C368.52 612.5 370.373 614.353 370.373 616.639V678.361C370.373 680.647 368.52 682.5 366.234 682.5C363.948 682.5 362.095 680.647 362.095 678.361V616.639Z" fill="black" fill-opacity="0.25"/>
<path d="M434.23 616.639C434.23 614.353 436.083 612.5 438.369 612.5C440.655 612.5 442.508 614.353 442.508 616.639V678.361C442.508 680.647 440.655 682.5 438.369 682.5C436.083 682.5 434.23 680.647 434.23 678.361V616.639Z" fill="black" fill-opacity="0.25"/>
<path d="M508.73 616.639C508.73 614.353 510.583 612.5 512.869 612.5C515.155 612.5 517.008 614.353 517.008 616.639V678.361C517.008 680.647 515.155 682.5 512.869 682.5C510.583 682.5 508.73 680.647 508.73 678.361V616.639Z" fill="black" fill-opacity="0.25"/>
<path d="M581.048 616.639C581.048 614.353 582.901 612.5 585.186 612.5C587.472 612.5 589.325 614.353 589.325 616.639V678.361C589.325 680.647 587.472 682.5 585.186 682.5C582.901 682.5 581.048 680.647 581.048 678.361V616.639Z" fill="black" fill-opacity="0.25"/>
<path d="M655.365 616.639C655.365 614.353 657.218 612.5 659.504 612.5C661.79 612.5 663.643 614.353 663.643 616.639V678.361C663.643 680.647 661.79 682.5 659.504 682.5C657.218 682.5 655.365 680.647 655.365 678.361V616.639Z" fill="black" fill-opacity="0.25"/>
<path d="M728.5 616.639C728.5 614.353 730.353 612.5 732.639 612.5C734.925 612.5 736.778 614.353 736.778 616.639V678.361C736.778 680.647 734.925 682.5 732.639 682.5C730.353 682.5 728.5 680.647 728.5 678.361V616.639Z" fill="black" fill-opacity="0.25"/>
</svg>
