<svg width="1000" height="1000" viewBox="0 0 1000 1000" fill="none" xmlns="http://www.w3.org/2000/svg">
<g clip-path="url(#clip0_141_1509)">
<ellipse cx="500.5" cy="249.194" rx="283.942" ry="64.8058" fill="black" fill-opacity="0.25"/>
<path d="M835 231.236C835 235.392 832.993 239.654 828.735 243.999C824.471 248.35 818.079 252.644 809.671 256.796C792.862 265.094 768.411 272.624 738.033 278.968C677.309 291.649 593.327 299.507 500.5 299.507C407.673 299.507 323.691 291.649 262.967 278.968C232.589 272.624 208.138 265.094 191.329 256.796C182.921 252.644 176.529 248.35 172.265 243.999C168.007 239.654 166 235.392 166 231.236C166 227.081 168.007 222.819 172.265 218.474C176.529 214.122 182.921 209.828 191.329 205.677C208.138 197.378 232.589 189.849 262.967 183.505C323.691 170.824 407.673 162.965 500.5 162.965C593.327 162.965 677.309 170.824 738.033 183.505C768.411 189.849 792.862 197.378 809.671 205.677C818.079 209.828 824.471 214.122 828.735 218.474C832.993 222.819 835 227.081 835 231.236Z" fill="#3C3C3C" stroke="black" stroke-width="4"/>
<path d="M822.9 232.016C822.9 264.358 678.557 290.576 500.501 290.576C322.445 290.576 178.102 264.358 178.102 232.016C805.093 290.576 322.445 173.457 500.501 173.457C678.557 173.457 822.9 199.675 822.9 232.016Z" fill="black" fill-opacity="0.25"/>
<mask id="mask0_141_1509" style="mask-type:alpha" maskUnits="userSpaceOnUse" x="361" y="-130" width="280" height="368">
<path d="M636.682 173.452L508.349 -124.914C505.574 -131.366 496.426 -131.366 493.651 -124.914L365.318 173.452C356.845 193.153 362.899 216.081 383.293 222.716C444.975 242.784 556.631 243.353 618.795 222.862C639.162 216.149 645.155 193.153 636.682 173.452Z" fill="#3C3C3C"/>
</mask>
<g mask="url(#mask0_141_1509)">
<path d="M651 206.741L508.349 -124.914C505.574 -131.366 496.426 -131.366 493.651 -124.914L351 206.741C401.209 247.649 598.908 249.183 651 206.741Z" fill="#3C3C3C"/>
<path d="M650.999 206.741L526.925 -81.7238C523.193 -90.4004 510.29 -86.7312 511.881 -77.421C529.838 27.6733 564.61 224.473 573.802 228.218C586.355 233.331 642.212 223.104 650.999 206.741Z" fill="black" fill-opacity="0.25"/>
<path d="M546.669 -8.8995L551.903 4.67034L552.15 5.31047H552.836H569.244L556.126 13.3391L555.415 13.7742L555.715 14.5519L560.82 27.7873L547.191 19.4462L546.669 19.1267L546.147 19.4462L532.518 27.7873L537.623 14.5519L537.923 13.7742L537.212 13.3391L524.094 5.31047H540.502H541.188L541.435 4.67034L546.669 -8.8995Z" fill="#FFED00" stroke="black" stroke-width="2"/>
<path d="M631.544 153.239L637.517 168.523L637.766 169.159H638.449H657.202L642.199 178.222L641.478 178.657L641.784 179.442L647.617 194.366L632.061 184.97L631.544 184.657L631.027 184.97L615.471 194.366L621.304 179.442L621.61 178.657L620.889 178.222L605.886 169.159H624.64H625.322L625.571 168.523L631.544 153.239Z" fill="#FFED00" stroke="black" stroke-width="2"/>
<path d="M472.756 16.2396L479.15 32.8888L479.396 33.5303H480.083H500.258L484.088 43.4705L483.381 43.9055L483.678 44.6809L489.947 61.0039L473.28 50.7584L472.756 50.4365L472.232 50.7584L455.565 61.0039L461.834 44.6809L462.132 43.9055L461.424 43.4705L445.254 33.5303H465.429H466.116L466.362 32.8888L472.756 16.2396Z" fill="#FFED00" stroke="black" stroke-width="2"/>
<path d="M543.051 87.7706L552.548 111.906L552.797 112.54H553.478L583.611 112.54L559.408 127.06L558.682 127.496L558.992 128.284L568.342 152.047L543.565 137.182L543.051 136.874L542.536 137.182L517.759 152.047L527.11 128.284L527.42 127.496L526.694 127.06L502.491 112.54L532.624 112.54H533.305L533.554 111.906L543.051 87.7706Z" fill="#FFED00" stroke="black" stroke-width="2"/>
<path d="M446.85 120.05L450.256 128.796L450.504 129.434H451.188H461.647L453.35 134.463L452.632 134.899L452.937 135.681L456.206 144.076L447.368 138.718L446.85 138.404L446.331 138.718L437.494 144.076L440.763 135.681L441.067 134.899L440.349 134.463L432.053 129.434H442.512H443.196L443.444 128.796L446.85 120.05Z" fill="#FFED00" stroke="black" stroke-width="2"/>
<path d="M406.23 174.723L414.881 196.735L415.13 197.369H415.811H443.212L421.218 210.579L420.493 211.015L420.803 211.802L429.308 233.445L406.744 219.892L406.23 219.582L405.715 219.892L383.151 233.445L391.657 211.802L391.966 211.015L391.241 210.579L369.247 197.369H396.648H397.329L397.579 196.735L406.23 174.723Z" fill="#FFED00" stroke="black" stroke-width="2"/>
</g>
<path d="M506.512 -124.124L642.004 190.887C645.932 200.02 643.246 210.322 634.787 214.378C604.379 228.959 552.624 236.122 500.695 235.998C448.769 235.875 397.223 228.469 367.244 214.306C358.77 210.302 356.068 200.02 359.996 190.887L495.488 -124.124C497.57 -128.963 504.43 -128.963 506.512 -124.124Z" stroke="black" stroke-width="4"/>
</g>
<defs>
<clipPath id="clip0_141_1509">
<rect width="1000" height="1000" fill="white"/>
</clipPath>
</defs>
</svg>
