<svg width="1000" height="1000" viewBox="0 0 1000 1000" fill="none" xmlns="http://www.w3.org/2000/svg">
<path fill-rule="evenodd" clip-rule="evenodd" d="M827.774 86.0103V86L815.468 86V98.8939L781.531 134.424L759.005 110.841L758.853 111H746.001V124.455L736.125 134.795L689.517 86L676.487 86V99.6414L625.02 153.524L653.766 183.777C637.509 189.567 625.814 205.686 625.814 224.665C625.814 244.381 638.435 261.01 655.68 266.181L635.95 286.837L700.809 354.739L740.666 313.011L747.147 319.797H745.983V331.5L759.013 332.217V332.215L776.96 313.425L816.345 354.874C815.851 354.934 815.467 355.355 815.467 355.866V366.287C815.467 366.839 815.915 367.287 816.467 367.287H827.497C827.684 367.287 827.858 367.236 828.008 367.147L828.14 367.287L893 299.032L864.63 269.331C881.066 263.46 892.926 246.73 892.926 227.008C892.926 206.87 880.56 189.851 863.581 184.328L892.643 153.902L827.784 86L827.774 86.0103Z" fill="#090909"/>
<mask id="path-2-outside-1_858_221253" maskUnits="userSpaceOnUse" x="606.781" y="85.8452" width="279" height="281" fill="black">
<rect fill="white" x="606.781" y="85.8452" width="279" height="281"/>
<path fill-rule="evenodd" clip-rule="evenodd" d="M723.951 139.517L676.719 91.8452L612.911 156.246L643.153 186.769C625.649 191.585 612.781 207.743 612.781 226.935C612.781 245.812 625.23 261.754 642.294 266.854L632.047 277.196L695.855 341.598L728.78 308.366L746.044 325.791L763.469 308.204L815.687 360.908L879.495 296.507L850.114 266.853C867.174 261.75 879.62 245.81 879.62 226.935C879.62 207.745 866.755 191.588 849.255 186.771L879.498 156.247L815.69 91.8454L768.298 139.678L746.044 117.218L723.951 139.517Z"/>
</mask>
<g filter="url(#filter0_i_858_221253)">
<path fill-rule="evenodd" clip-rule="evenodd" d="M723.951 139.517L676.719 91.8452L612.911 156.246L643.153 186.769C625.649 191.585 612.781 207.743 612.781 226.935C612.781 245.812 625.23 261.754 642.294 266.854L632.047 277.196L695.855 341.598L728.78 308.366L746.044 325.791L763.469 308.204L815.687 360.908L879.495 296.507L850.114 266.853C867.174 261.75 879.62 245.81 879.62 226.935C879.62 207.745 866.755 191.588 849.255 186.771L879.498 156.247L815.69 91.8454L768.298 139.678L746.044 117.218L723.951 139.517Z" fill="#F86848"/>
</g>
<path d="M676.719 91.8452L679.56 89.0299L676.719 86.162L673.877 89.0299L676.719 91.8452ZM723.951 139.517L721.11 142.332L723.951 145.2L726.793 142.332L723.951 139.517ZM612.911 156.246L610.069 153.431L607.28 156.246L610.069 159.062L612.911 156.246ZM643.153 186.769L644.214 190.626L650.807 188.812L645.994 183.954L643.153 186.769ZM642.294 266.854L645.135 269.67L649.829 264.932L643.439 263.022L642.294 266.854ZM632.047 277.196L629.205 274.381L626.416 277.196L629.205 280.012L632.047 277.196ZM695.855 341.598L693.013 344.413L695.855 347.281L698.696 344.413L695.855 341.598ZM728.78 308.366L731.622 305.551L728.78 302.683L725.939 305.551L728.78 308.366ZM746.044 325.791L743.203 328.606L746.044 331.474L748.886 328.606L746.044 325.791ZM763.469 308.204L766.31 305.389L763.469 302.521L760.627 305.389L763.469 308.204ZM815.687 360.908L812.846 363.723L815.687 366.591L818.529 363.723L815.687 360.908ZM879.495 296.507L882.337 299.322L885.126 296.507L882.337 293.691L879.495 296.507ZM850.114 266.853L848.968 263.02L842.579 264.931L847.272 269.668L850.114 266.853ZM849.255 186.771L846.414 183.956L841.601 188.813L848.193 190.628L849.255 186.771ZM879.498 156.247L882.34 159.062L885.129 156.247L882.34 153.431L879.498 156.247ZM815.69 91.8454L818.532 89.0301L815.69 86.1622L812.849 89.0301L815.69 91.8454ZM768.298 139.678L765.457 142.494L768.298 145.362L771.14 142.494L768.298 139.678ZM746.044 117.218L748.886 114.403L746.044 111.535L743.203 114.403L746.044 117.218ZM673.877 94.6605L721.11 142.332L726.793 136.701L679.56 89.0299L673.877 94.6605ZM615.752 159.062L679.56 94.6605L673.877 89.0299L610.069 153.431L615.752 159.062ZM645.994 183.954L615.752 153.431L610.069 159.062L640.311 189.585L645.994 183.954ZM616.781 226.935C616.781 209.567 628.423 194.97 644.214 190.626L642.092 182.913C622.876 188.199 608.781 205.919 608.781 226.935H616.781ZM643.439 263.022C628.043 258.42 616.781 244.017 616.781 226.935H608.781C608.781 247.607 622.417 265.088 641.148 270.687L643.439 263.022ZM634.888 280.012L645.135 269.67L639.452 264.039L629.205 274.381L634.888 280.012ZM698.696 338.782L634.888 274.381L629.205 280.012L693.013 344.413L698.696 338.782ZM725.939 305.551L693.013 338.782L698.696 344.413L731.622 311.181L725.939 305.551ZM748.886 322.976L731.622 305.551L725.939 311.181L743.203 328.606L748.886 322.976ZM760.627 305.389L743.203 322.976L748.886 328.606L766.31 311.02L760.627 305.389ZM818.529 358.093L766.31 305.389L760.627 311.02L812.846 363.723L818.529 358.093ZM876.654 293.691L812.846 358.093L818.529 363.723L882.337 299.322L876.654 293.691ZM847.272 269.668L876.654 299.322L882.337 293.691L852.955 264.037L847.272 269.668ZM875.62 226.935C875.62 244.015 864.361 258.417 848.968 263.02L851.26 270.685C869.988 265.084 883.62 247.604 883.62 226.935H875.62ZM848.193 190.628C863.981 194.973 875.62 209.569 875.62 226.935H883.62C883.62 205.921 869.529 188.203 850.317 182.915L848.193 190.628ZM876.657 153.431L846.414 183.956L852.096 189.586L882.34 159.062L876.657 153.431ZM812.849 94.6607L876.657 159.062L882.34 153.431L818.532 89.0301L812.849 94.6607ZM771.14 142.494L818.532 94.6607L812.849 89.0301L765.457 136.863L771.14 142.494ZM743.203 120.033L765.457 142.494L771.14 136.863L748.886 114.403L743.203 120.033ZM726.793 142.332L748.886 120.033L743.203 114.403L721.11 136.701L726.793 142.332Z" fill="black" mask="url(#path-2-outside-1_858_221253)"/>
<mask id="path-4-outside-2_858_221253" maskUnits="userSpaceOnUse" x="623.734" y="101.747" width="246" height="248" fill="black">
<rect fill="white" x="623.734" y="101.747" width="246" height="248"/>
<path fill-rule="evenodd" clip-rule="evenodd" d="M668.357 257.388L640.539 285.464L687.667 333.03L727.734 292.59H764.68L815.673 344.057L862.8 296.491L824.05 257.38C845.344 257.008 862.46 243.395 862.46 226.657C862.46 209.776 845.053 196.075 823.508 195.926L863.747 155.313L816.619 107.747L764.684 160.164L727.729 160.164L677.547 109.515L630.419 157.081L668.91 195.93C668.657 195.927 668.403 195.925 668.148 195.925C645.828 195.925 627.734 209.684 627.734 226.657C627.734 243.629 645.828 257.388 668.148 257.388C668.217 257.388 668.287 257.388 668.357 257.388Z"/>
</mask>
<path fill-rule="evenodd" clip-rule="evenodd" d="M668.357 257.388L640.539 285.464L687.667 333.03L727.734 292.59H764.68L815.673 344.057L862.8 296.491L824.05 257.38C845.344 257.008 862.46 243.395 862.46 226.657C862.46 209.776 845.053 196.075 823.508 195.926L863.747 155.313L816.619 107.747L764.684 160.164L727.729 160.164L677.547 109.515L630.419 157.081L668.91 195.93C668.657 195.927 668.403 195.925 668.148 195.925C645.828 195.925 627.734 209.684 627.734 226.657C627.734 243.629 645.828 257.388 668.148 257.388C668.217 257.388 668.287 257.388 668.357 257.388Z" fill="#4E9AE9"/>
<path d="M640.539 285.464L637.698 282.649L634.908 285.464L637.698 288.279L640.539 285.464ZM668.357 257.388L671.198 260.203L677.988 253.35L668.341 253.388L668.357 257.388ZM687.667 333.03L684.825 335.845L687.667 338.713L690.508 335.845L687.667 333.03ZM727.734 292.59V288.59H726.067L724.893 289.775L727.734 292.59ZM764.68 292.59L767.521 289.775L766.347 288.59H764.68V292.59ZM815.673 344.057L812.831 346.873L815.673 349.74L818.514 346.873L815.673 344.057ZM862.8 296.491L865.642 299.306L868.431 296.491L865.642 293.676L862.8 296.491ZM824.05 257.38L823.98 253.381L814.619 253.545L821.208 260.196L824.05 257.38ZM823.508 195.926L820.666 193.111L813.979 199.861L823.48 199.926L823.508 195.926ZM863.747 155.313L866.589 158.128L869.378 155.313L866.589 152.497L863.747 155.313ZM816.619 107.747L819.461 104.931L816.619 102.063L813.778 104.931L816.619 107.747ZM764.684 160.164V164.164H766.352L767.526 162.98L764.684 160.164ZM727.729 160.164L724.888 162.98L726.062 164.164H727.729V160.164ZM677.547 109.515L680.388 106.7L677.547 103.832L674.705 106.7L677.547 109.515ZM630.419 157.081L627.578 154.266L624.788 157.081L627.578 159.896L630.419 157.081ZM668.91 195.93L668.854 199.93L678.64 200.068L671.752 193.115L668.91 195.93ZM643.381 288.279L671.198 260.203L665.515 254.572L637.698 282.649L643.381 288.279ZM690.508 330.215L643.381 282.649L637.698 288.279L684.825 335.845L690.508 330.215ZM724.893 289.775L684.825 330.215L690.508 335.845L730.576 295.405L724.893 289.775ZM764.68 288.59H727.734V296.59H764.68V288.59ZM818.514 341.242L767.521 289.775L761.838 295.405L812.831 346.873L818.514 341.242ZM859.959 293.676L812.831 341.242L818.514 346.873L865.642 299.306L859.959 293.676ZM821.208 260.196L859.959 299.306L865.642 293.676L826.891 254.565L821.208 260.196ZM858.46 226.657C858.46 240.371 844.045 253.03 823.98 253.381L824.12 261.38C846.643 260.986 866.46 246.419 866.46 226.657H858.46ZM823.48 199.926C843.792 200.066 858.46 212.828 858.46 226.657H866.46C866.46 206.724 846.314 192.083 823.535 191.926L823.48 199.926ZM860.906 152.497L820.666 193.111L826.349 198.742L866.589 158.128L860.906 152.497ZM813.778 110.562L860.906 158.128L866.589 152.497L819.461 104.931L813.778 110.562ZM767.526 162.98L819.461 110.562L813.778 104.931L761.843 157.349L767.526 162.98ZM727.729 164.164L764.684 164.164V156.164L727.729 156.164V164.164ZM674.705 112.33L724.888 162.98L730.571 157.349L680.388 106.7L674.705 112.33ZM633.26 159.896L680.388 112.33L674.705 106.7L627.578 154.266L633.26 159.896ZM671.752 193.115L633.26 154.266L627.578 159.896L666.069 198.746L671.752 193.115ZM668.148 199.925C668.384 199.925 668.619 199.927 668.854 199.93L668.967 191.931C668.694 191.927 668.421 191.925 668.148 191.925V199.925ZM631.734 226.657C631.734 219.688 635.439 213.093 641.992 208.11C648.549 203.124 657.783 199.925 668.148 199.925V191.925C656.193 191.925 645.22 195.605 637.15 201.742C629.076 207.881 623.734 216.653 623.734 226.657H631.734ZM668.148 253.388C657.783 253.388 648.549 250.189 641.992 245.203C635.439 240.22 631.734 233.625 631.734 226.657H623.734C623.734 236.66 629.076 245.432 637.15 251.571C645.22 257.708 656.193 261.388 668.148 261.388V253.388ZM668.341 253.388C668.277 253.388 668.213 253.388 668.148 253.388V261.388C668.222 261.388 668.297 261.388 668.372 261.388L668.341 253.388Z" fill="black" mask="url(#path-4-outside-2_858_221253)"/>
<path fill-rule="evenodd" clip-rule="evenodd" d="M753.781 186.454L824.194 115.387L863.751 155.311L823.511 195.926C845.058 196.073 862.467 209.775 862.467 226.656C862.467 243.395 845.349 257.009 824.053 257.38L862.804 296.49L815.676 344.056L764.683 292.589H727.737L684.24 336.492L644.683 296.567L687.027 253.829C685.919 254.274 684.781 254.681 683.616 255.048C676.232 257.374 668.106 257.983 660.267 256.797C652.427 255.611 645.226 252.684 639.574 248.386L668.151 226.656H706.855L750.234 182.874L753.781 186.454Z" fill="black" fill-opacity="0.25"/>
<path d="M808.203 226.377L806.776 224.976L805.4 226.377L806.776 227.778L808.203 226.377ZM808.203 226.377C806.776 227.778 806.776 227.779 806.777 227.779L806.778 227.78L806.781 227.783L806.79 227.793L806.824 227.826C806.852 227.855 806.894 227.897 806.947 227.95C807.055 228.056 807.211 228.21 807.412 228.404C807.813 228.792 808.395 229.342 809.124 230C810.58 231.315 812.636 233.072 815.028 234.833C817.416 236.589 820.177 238.379 823.042 239.735C825.888 241.082 828.97 242.066 831.964 242.066C843.098 242.066 850.617 235.31 850.617 226.377C850.617 217.444 843.098 210.688 831.964 210.688C828.97 210.688 825.888 211.672 823.042 213.019C820.177 214.375 817.416 216.165 815.028 217.921C812.636 219.682 810.58 221.439 809.124 222.754C808.395 223.412 807.813 223.962 807.412 224.35C807.211 224.544 807.055 224.698 806.947 224.804C806.894 224.857 806.852 224.899 806.824 224.928L806.79 224.961L806.781 224.971L806.778 224.974L806.777 224.975C806.776 224.975 806.776 224.976 808.203 226.377Z" fill="#82EB68" stroke="black" stroke-width="4"/>
<path d="M848.617 226.376C848.617 233.937 842.282 240.066 831.964 240.066C821.645 240.066 808.203 226.376 808.203 226.376C808.203 226.376 821.645 226.376 831.964 226.376C842.282 226.376 848.617 218.816 848.617 226.376Z" fill="black" fill-opacity="0.25"/>
<path d="M684.195 226.936L685.622 225.534L686.998 226.936L685.622 228.337L684.195 226.936ZM684.195 226.936C685.622 228.337 685.622 228.337 685.622 228.338L685.621 228.339L685.618 228.341L685.608 228.351L685.575 228.385C685.546 228.414 685.505 228.455 685.451 228.509C685.344 228.615 685.188 228.769 684.987 228.963C684.585 229.351 684.003 229.901 683.274 230.559C681.818 231.874 679.763 233.63 677.37 235.391C674.983 237.148 672.222 238.937 669.356 240.294C666.51 241.641 663.428 242.625 660.435 242.625C649.3 242.625 641.782 235.869 641.782 226.936C641.782 218.002 649.3 211.246 660.435 211.246C663.428 211.246 666.51 212.23 669.356 213.577C672.222 214.934 674.983 216.723 677.37 218.48C679.763 220.241 681.818 221.998 683.274 223.312C684.003 223.971 684.585 224.521 684.987 224.909C685.188 225.103 685.344 225.256 685.451 225.363C685.505 225.416 685.546 225.457 685.575 225.486L685.608 225.52L685.618 225.53L685.621 225.533L685.622 225.534C685.622 225.534 685.622 225.534 684.195 226.936Z" fill="#82EB68" stroke="black" stroke-width="4"/>
<path d="M643.907 227.446C643.907 235.007 650.241 241.136 660.56 241.136C670.878 241.136 684.32 227.446 684.32 227.446C684.32 227.446 670.878 227.446 660.56 227.446C650.241 227.446 643.907 219.886 643.907 227.446Z" fill="black" fill-opacity="0.25"/>
<path d="M746.204 276.709C773.62 276.709 795.814 254.282 795.814 226.656C795.814 199.03 773.62 176.603 746.204 176.603C718.788 176.603 696.594 199.03 696.594 226.656C696.594 254.282 718.788 276.709 746.204 276.709Z" fill="#82EB68" stroke="black" stroke-width="4"/>
<path d="M793.81 226.656C793.81 232.966 792.579 239.215 790.186 245.045C787.794 250.875 784.287 256.172 779.866 260.635C775.445 265.097 770.196 268.636 764.42 271.051C758.643 273.466 752.452 274.709 746.2 274.709C739.948 274.709 733.757 273.466 727.98 271.051C722.204 268.636 716.956 265.097 712.535 260.635C708.114 256.172 704.607 250.875 702.214 245.045C699.821 239.215 698.59 232.966 698.59 226.656L746.2 226.656H793.81Z" fill="black" fill-opacity="0.25"/>
<mask id="path-13-outside-3_858_221253" maskUnits="userSpaceOnUse" x="710.09" y="190.249" width="73" height="41" fill="black">
<rect fill="white" x="710.09" y="190.249" width="73" height="41"/>
<path d="M778.308 226.656C778.308 218.061 774.925 209.818 768.904 203.741C762.882 197.663 754.715 194.249 746.199 194.249C737.683 194.249 729.516 197.663 723.494 203.741C717.473 209.818 714.09 218.061 714.09 226.656L746.199 226.656H778.308Z"/>
</mask>
<path d="M778.308 226.656C778.308 218.061 774.925 209.818 768.904 203.741C762.882 197.663 754.715 194.249 746.199 194.249C737.683 194.249 729.516 197.663 723.494 203.741C717.473 209.818 714.09 218.061 714.09 226.656L746.199 226.656H778.308Z" fill="#F86848"/>
<path d="M778.308 226.656C778.308 218.061 774.925 209.818 768.904 203.741C762.882 197.663 754.715 194.249 746.199 194.249C737.683 194.249 729.516 197.663 723.494 203.741C717.473 209.818 714.09 218.061 714.09 226.656L746.199 226.656H778.308Z" stroke="black" stroke-width="8" mask="url(#path-13-outside-3_858_221253)"/>
<path d="M778.308 226.656C778.308 220.518 776.581 214.506 773.327 209.319C770.074 204.133 765.428 199.986 759.93 197.361L746.199 226.656H778.308Z" fill="black" fill-opacity="0.25"/>
<mask id="path-15-outside-4_858_221253" maskUnits="userSpaceOnUse" x="709.309" y="222.064" width="73" height="41" fill="black">
<rect fill="white" x="709.309" y="222.064" width="73" height="41"/>
<path d="M714.09 226.656C714.09 235.251 717.473 243.494 723.495 249.572C729.516 255.65 737.683 259.064 746.199 259.064C754.715 259.064 762.882 255.65 768.904 249.572C774.926 243.494 778.309 235.251 778.309 226.656L746.199 226.656L714.09 226.656Z"/>
</mask>
<path d="M714.09 226.656C714.09 235.251 717.473 243.494 723.495 249.572C729.516 255.65 737.683 259.064 746.199 259.064C754.715 259.064 762.882 255.65 768.904 249.572C774.926 243.494 778.309 235.251 778.309 226.656L746.199 226.656L714.09 226.656Z" fill="#D7D6DC"/>
<path d="M714.09 226.656C714.09 235.251 717.473 243.494 723.495 249.572C729.516 255.65 737.683 259.064 746.199 259.064C754.715 259.064 762.882 255.65 768.904 249.572C774.926 243.494 778.309 235.251 778.309 226.656L746.199 226.656L714.09 226.656Z" stroke="black" stroke-width="8" mask="url(#path-15-outside-4_858_221253)"/>
<path d="M724.612 226.656C724.612 232.436 726.886 237.978 730.935 242.065C734.984 246.152 740.476 248.448 746.202 248.448C751.928 248.448 757.42 246.152 761.469 242.065C765.518 237.978 767.793 232.436 767.793 226.656L746.202 226.656L724.612 226.656Z" fill="#090909"/>
<g filter="url(#filter1_i_858_221253)">
<ellipse cx="799.901" cy="170.781" rx="6.64329" ry="6.70506" fill="#FFC700"/>
</g>
<path d="M799.901 179.486C804.692 179.486 808.544 175.571 808.544 170.781C808.544 165.991 804.692 162.076 799.901 162.076C795.11 162.076 791.258 165.991 791.258 170.781C791.258 175.571 795.11 179.486 799.901 179.486Z" stroke="black" stroke-width="4"/>
<g filter="url(#filter2_i_858_221253)">
<ellipse cx="827.022" cy="144.519" rx="6.64329" ry="6.70506" fill="#FFC700"/>
</g>
<path d="M827.022 153.224C831.813 153.224 835.665 149.309 835.665 144.519C835.665 139.729 831.813 135.814 827.022 135.814C822.231 135.814 818.379 139.729 818.379 144.519C818.379 149.309 822.231 153.224 827.022 153.224Z" stroke="black" stroke-width="4"/>
<mask id="path-21-outside-5_858_221253" maskUnits="userSpaceOnUse" x="654.723" y="297.53" width="22" height="22" fill="black">
<rect fill="white" x="654.723" y="297.53" width="22" height="22"/>
<path d="M670.063 312.976C670.68 312.353 671.17 311.614 671.504 310.801C671.837 309.987 672.009 309.115 672.009 308.235C672.009 307.354 671.837 306.482 671.504 305.669C671.17 304.855 670.68 304.116 670.063 303.493C669.447 302.871 668.714 302.377 667.908 302.04C667.102 301.703 666.238 301.53 665.366 301.53C664.494 301.53 663.63 301.703 662.824 302.04C662.018 302.377 661.285 302.871 660.668 303.493L665.366 308.235L670.063 312.976Z"/>
</mask>
<g filter="url(#filter3_i_858_221253)">
<path d="M670.063 312.976C670.68 312.353 671.17 311.614 671.504 310.801C671.837 309.987 672.009 309.115 672.009 308.235C672.009 307.354 671.837 306.482 671.504 305.669C671.17 304.855 670.68 304.116 670.063 303.493C669.447 302.871 668.714 302.377 667.908 302.04C667.102 301.703 666.238 301.53 665.366 301.53C664.494 301.53 663.63 301.703 662.824 302.04C662.018 302.377 661.285 302.871 660.668 303.493L665.366 308.235L670.063 312.976Z" fill="#FFC700"/>
</g>
<path d="M670.063 312.976C670.68 312.353 671.17 311.614 671.504 310.801C671.837 309.987 672.009 309.115 672.009 308.235C672.009 307.354 671.837 306.482 671.504 305.669C671.17 304.855 670.68 304.116 670.063 303.493C669.447 302.871 668.714 302.377 667.908 302.04C667.102 301.703 666.238 301.53 665.366 301.53C664.494 301.53 663.63 301.703 662.824 302.04C662.018 302.377 661.285 302.871 660.668 303.493L665.366 308.235L670.063 312.976Z" stroke="black" stroke-width="8" mask="url(#path-21-outside-5_858_221253)"/>
<g filter="url(#filter4_i_858_221253)">
<ellipse cx="692.487" cy="281.973" rx="6.64329" ry="6.70506" fill="#FFC700"/>
</g>
<path d="M692.487 290.678C697.278 290.678 701.13 286.763 701.13 281.973C701.13 277.183 697.278 273.268 692.487 273.268C687.696 273.268 683.844 277.183 683.844 281.973C683.844 286.763 687.696 290.678 692.487 290.678Z" stroke="black" stroke-width="4"/>
<g filter="url(#filter5_i_858_221253)">
<ellipse cx="801.005" cy="281.973" rx="6.70506" ry="6.64329" transform="rotate(90 801.005 281.973)" fill="#FFC700"/>
</g>
<path d="M792.362 281.973C792.362 286.763 796.214 290.678 801.005 290.678C805.796 290.678 809.648 286.763 809.648 281.973C809.648 277.183 805.796 273.268 801.005 273.268C796.214 273.268 792.362 277.183 792.362 281.973Z" stroke="black" stroke-width="4"/>
<g filter="url(#filter6_i_858_221253)">
<ellipse cx="827.029" cy="309.352" rx="6.70506" ry="6.64329" transform="rotate(90 827.029 309.352)" fill="#FFC700"/>
</g>
<path d="M818.385 309.352C818.385 314.142 822.238 318.057 827.029 318.057C831.82 318.057 835.672 314.142 835.672 309.352C835.672 304.562 831.82 300.647 827.029 300.647C822.238 300.647 818.385 304.562 818.385 309.352Z" stroke="black" stroke-width="4"/>
<g filter="url(#filter7_i_858_221253)">
<ellipse cx="665.376" cy="144.519" rx="6.70506" ry="6.64329" transform="rotate(90 665.376 144.519)" fill="#FFC700"/>
</g>
<path d="M656.733 144.519C656.733 149.309 660.585 153.224 665.376 153.224C670.167 153.224 674.02 149.309 674.02 144.519C674.02 139.729 670.167 135.814 665.376 135.814C660.585 135.814 656.733 139.729 656.733 144.519Z" stroke="black" stroke-width="4"/>
<g filter="url(#filter8_i_858_221253)">
<ellipse cx="691.4" cy="171.898" rx="6.70506" ry="6.64329" transform="rotate(90 691.4 171.898)" fill="#FFC700"/>
</g>
<path d="M682.756 171.898C682.756 176.688 686.609 180.603 691.4 180.603C696.191 180.603 700.043 176.688 700.043 171.898C700.043 167.108 696.191 163.193 691.4 163.193C686.609 163.193 682.756 167.108 682.756 171.898Z" stroke="black" stroke-width="4"/>
<g filter="url(#filter9_i_858_221253)">
<path d="M738.449 142.372L745.733 135.02L753.018 142.372H745.733H738.449Z" fill="#82EB68"/>
</g>
<path d="M737.042 140.951L733.643 144.381L738.449 144.381L745.733 144.381L753.018 144.381L757.824 144.381L754.425 140.951L747.141 133.599L745.733 132.179L744.326 133.599L737.042 140.951Z" stroke="black" stroke-width="4"/>
<g filter="url(#filter10_i_858_221253)">
<path d="M753.02 306.087L745.735 313.439L738.451 306.087H745.735H753.02Z" fill="#82EB68"/>
</g>
<path d="M754.427 307.508L757.826 304.078L753.02 304.078L745.735 304.078L738.451 304.078L733.645 304.078L737.043 307.508L744.328 314.86L745.735 316.281L747.143 314.86L754.427 307.508Z" stroke="black" stroke-width="4"/>
<path d="M606 266.187C617.958 269.312 634.129 282.085 662.257 310.214C690.386 338.343 705.469 360.356 711.177 371.363" stroke="black" stroke-width="6" stroke-linecap="round"/>
<defs>
<filter id="filter0_i_858_221253" x="607.281" y="86.1621" width="277.848" height="280.429" filterUnits="userSpaceOnUse" color-interpolation-filters="sRGB">
<feFlood flood-opacity="0" result="BackgroundImageFix"/>
<feBlend mode="normal" in="SourceGraphic" in2="BackgroundImageFix" result="shape"/>
<feColorMatrix in="SourceAlpha" type="matrix" values="0 0 0 0 0 0 0 0 0 0 0 0 0 0 0 0 0 0 127 0" result="hardAlpha"/>
<feOffset dx="-100" dy="-64"/>
<feComposite in2="hardAlpha" operator="arithmetic" k2="-1" k3="1"/>
<feColorMatrix type="matrix" values="0 0 0 0 0 0 0 0 0 0 0 0 0 0 0 0 0 0 0.25 0"/>
<feBlend mode="normal" in2="shape" result="effect1_innerShadow_858_221253"/>
</filter>
<filter id="filter1_i_858_221253" x="789.258" y="160.076" width="21.2852" height="21.4102" filterUnits="userSpaceOnUse" color-interpolation-filters="sRGB">
<feFlood flood-opacity="0" result="BackgroundImageFix"/>
<feBlend mode="normal" in="SourceGraphic" in2="BackgroundImageFix" result="shape"/>
<feColorMatrix in="SourceAlpha" type="matrix" values="0 0 0 0 0 0 0 0 0 0 0 0 0 0 0 0 0 0 127 0" result="hardAlpha"/>
<feOffset dx="-5" dy="-8"/>
<feComposite in2="hardAlpha" operator="arithmetic" k2="-1" k3="1"/>
<feColorMatrix type="matrix" values="0 0 0 0 0 0 0 0 0 0 0 0 0 0 0 0 0 0 0.25 0"/>
<feBlend mode="normal" in2="shape" result="effect1_innerShadow_858_221253"/>
</filter>
<filter id="filter2_i_858_221253" x="816.379" y="133.814" width="21.2852" height="21.4102" filterUnits="userSpaceOnUse" color-interpolation-filters="sRGB">
<feFlood flood-opacity="0" result="BackgroundImageFix"/>
<feBlend mode="normal" in="SourceGraphic" in2="BackgroundImageFix" result="shape"/>
<feColorMatrix in="SourceAlpha" type="matrix" values="0 0 0 0 0 0 0 0 0 0 0 0 0 0 0 0 0 0 127 0" result="hardAlpha"/>
<feOffset dx="-5" dy="-8"/>
<feComposite in2="hardAlpha" operator="arithmetic" k2="-1" k3="1"/>
<feColorMatrix type="matrix" values="0 0 0 0 0 0 0 0 0 0 0 0 0 0 0 0 0 0 0.25 0"/>
<feBlend mode="normal" in2="shape" result="effect1_innerShadow_858_221253"/>
</filter>
<filter id="filter3_i_858_221253" x="655.039" y="297.53" width="20.9688" height="21.1294" filterUnits="userSpaceOnUse" color-interpolation-filters="sRGB">
<feFlood flood-opacity="0" result="BackgroundImageFix"/>
<feBlend mode="normal" in="SourceGraphic" in2="BackgroundImageFix" result="shape"/>
<feColorMatrix in="SourceAlpha" type="matrix" values="0 0 0 0 0 0 0 0 0 0 0 0 0 0 0 0 0 0 127 0" result="hardAlpha"/>
<feOffset dx="-5" dy="-8"/>
<feComposite in2="hardAlpha" operator="arithmetic" k2="-1" k3="1"/>
<feColorMatrix type="matrix" values="0 0 0 0 0 0 0 0 0 0 0 0 0 0 0 0 0 0 0.25 0"/>
<feBlend mode="normal" in2="shape" result="effect1_innerShadow_858_221253"/>
</filter>
<filter id="filter4_i_858_221253" x="681.844" y="271.268" width="21.2852" height="21.4102" filterUnits="userSpaceOnUse" color-interpolation-filters="sRGB">
<feFlood flood-opacity="0" result="BackgroundImageFix"/>
<feBlend mode="normal" in="SourceGraphic" in2="BackgroundImageFix" result="shape"/>
<feColorMatrix in="SourceAlpha" type="matrix" values="0 0 0 0 0 0 0 0 0 0 0 0 0 0 0 0 0 0 127 0" result="hardAlpha"/>
<feOffset dx="-5" dy="-8"/>
<feComposite in2="hardAlpha" operator="arithmetic" k2="-1" k3="1"/>
<feColorMatrix type="matrix" values="0 0 0 0 0 0 0 0 0 0 0 0 0 0 0 0 0 0 0.25 0"/>
<feBlend mode="normal" in2="shape" result="effect1_innerShadow_858_221253"/>
</filter>
<filter id="filter5_i_858_221253" x="790.363" y="271.268" width="21.2852" height="21.4102" filterUnits="userSpaceOnUse" color-interpolation-filters="sRGB">
<feFlood flood-opacity="0" result="BackgroundImageFix"/>
<feBlend mode="normal" in="SourceGraphic" in2="BackgroundImageFix" result="shape"/>
<feColorMatrix in="SourceAlpha" type="matrix" values="0 0 0 0 0 0 0 0 0 0 0 0 0 0 0 0 0 0 127 0" result="hardAlpha"/>
<feOffset dx="-5" dy="-8"/>
<feComposite in2="hardAlpha" operator="arithmetic" k2="-1" k3="1"/>
<feColorMatrix type="matrix" values="0 0 0 0 0 0 0 0 0 0 0 0 0 0 0 0 0 0 0.25 0"/>
<feBlend mode="normal" in2="shape" result="effect1_innerShadow_858_221253"/>
</filter>
<filter id="filter6_i_858_221253" x="816.387" y="298.647" width="21.2852" height="21.4102" filterUnits="userSpaceOnUse" color-interpolation-filters="sRGB">
<feFlood flood-opacity="0" result="BackgroundImageFix"/>
<feBlend mode="normal" in="SourceGraphic" in2="BackgroundImageFix" result="shape"/>
<feColorMatrix in="SourceAlpha" type="matrix" values="0 0 0 0 0 0 0 0 0 0 0 0 0 0 0 0 0 0 127 0" result="hardAlpha"/>
<feOffset dx="-5" dy="-8"/>
<feComposite in2="hardAlpha" operator="arithmetic" k2="-1" k3="1"/>
<feColorMatrix type="matrix" values="0 0 0 0 0 0 0 0 0 0 0 0 0 0 0 0 0 0 0.25 0"/>
<feBlend mode="normal" in2="shape" result="effect1_innerShadow_858_221253"/>
</filter>
<filter id="filter7_i_858_221253" x="654.734" y="133.814" width="21.2852" height="21.4102" filterUnits="userSpaceOnUse" color-interpolation-filters="sRGB">
<feFlood flood-opacity="0" result="BackgroundImageFix"/>
<feBlend mode="normal" in="SourceGraphic" in2="BackgroundImageFix" result="shape"/>
<feColorMatrix in="SourceAlpha" type="matrix" values="0 0 0 0 0 0 0 0 0 0 0 0 0 0 0 0 0 0 127 0" result="hardAlpha"/>
<feOffset dx="-5" dy="-8"/>
<feComposite in2="hardAlpha" operator="arithmetic" k2="-1" k3="1"/>
<feColorMatrix type="matrix" values="0 0 0 0 0 0 0 0 0 0 0 0 0 0 0 0 0 0 0.25 0"/>
<feBlend mode="normal" in2="shape" result="effect1_innerShadow_858_221253"/>
</filter>
<filter id="filter8_i_858_221253" x="680.758" y="161.193" width="21.2852" height="21.4102" filterUnits="userSpaceOnUse" color-interpolation-filters="sRGB">
<feFlood flood-opacity="0" result="BackgroundImageFix"/>
<feBlend mode="normal" in="SourceGraphic" in2="BackgroundImageFix" result="shape"/>
<feColorMatrix in="SourceAlpha" type="matrix" values="0 0 0 0 0 0 0 0 0 0 0 0 0 0 0 0 0 0 127 0" result="hardAlpha"/>
<feOffset dx="-5" dy="-8"/>
<feComposite in2="hardAlpha" operator="arithmetic" k2="-1" k3="1"/>
<feColorMatrix type="matrix" values="0 0 0 0 0 0 0 0 0 0 0 0 0 0 0 0 0 0 0.25 0"/>
<feBlend mode="normal" in2="shape" result="effect1_innerShadow_858_221253"/>
</filter>
<filter id="filter9_i_858_221253" x="728.836" y="129.337" width="33.793" height="17.0535" filterUnits="userSpaceOnUse" color-interpolation-filters="sRGB">
<feFlood flood-opacity="0" result="BackgroundImageFix"/>
<feBlend mode="normal" in="SourceGraphic" in2="BackgroundImageFix" result="shape"/>
<feColorMatrix in="SourceAlpha" type="matrix" values="0 0 0 0 0 0 0 0 0 0 0 0 0 0 0 0 0 0 127 0" result="hardAlpha"/>
<feOffset dx="-5" dy="-8"/>
<feComposite in2="hardAlpha" operator="arithmetic" k2="-1" k3="1"/>
<feColorMatrix type="matrix" values="0 0 0 0 0 0 0 0 0 0 0 0 0 0 0 0 0 0 0.25 0"/>
<feBlend mode="normal" in2="shape" result="effect1_innerShadow_858_221253"/>
</filter>
<filter id="filter10_i_858_221253" x="728.84" y="302.069" width="33.793" height="17.0535" filterUnits="userSpaceOnUse" color-interpolation-filters="sRGB">
<feFlood flood-opacity="0" result="BackgroundImageFix"/>
<feBlend mode="normal" in="SourceGraphic" in2="BackgroundImageFix" result="shape"/>
<feColorMatrix in="SourceAlpha" type="matrix" values="0 0 0 0 0 0 0 0 0 0 0 0 0 0 0 0 0 0 127 0" result="hardAlpha"/>
<feOffset dx="-5" dy="-8"/>
<feComposite in2="hardAlpha" operator="arithmetic" k2="-1" k3="1"/>
<feColorMatrix type="matrix" values="0 0 0 0 0 0 0 0 0 0 0 0 0 0 0 0 0 0 0.25 0"/>
<feBlend mode="normal" in2="shape" result="effect1_innerShadow_858_221253"/>
</filter>
</defs>
</svg>
