<svg width="1000" height="1000" viewBox="0 0 1000 1000" fill="none" xmlns="http://www.w3.org/2000/svg">
<g filter="url(#filter0_d_855_159515)">
<path d="M705.247 271.824L742.398 144.425C745.859 132.557 739.811 119.974 728.135 115.912C585.878 66.4093 354.401 53.8985 245.2 103.957C235.357 108.469 230.998 119.631 233.878 130.069L273.137 272.385C275.512 280.993 282.399 287.605 291.192 289.16C379.652 304.803 551.839 308.076 686.014 288.676C695.184 287.35 702.653 280.719 705.247 271.824Z" fill="white"/>
<path d="M738.558 143.305L701.407 270.704C699.241 278.131 693.023 283.621 685.442 284.717C551.628 304.065 379.874 300.78 291.889 285.221C284.707 283.951 278.983 278.534 276.993 271.322L237.734 129.006C235.304 120.199 239.042 111.18 246.867 107.593C300.609 82.9572 385.022 73.545 474.134 76.5967C563.13 79.6444 656.152 95.0984 726.821 119.69C736.367 123.012 741.458 133.36 738.558 143.305Z" stroke="black" stroke-width="8"/>
</g>
<path opacity="0.8" d="M705.145 271.263L738.179 150.738C741.472 138.725 735.027 126.14 723.286 121.978C687.291 109.216 669.701 105.24 622 98C635.833 168.5 610.4 296 398 296C473.625 296 613.396 296 685.486 288.32C694.961 287.311 702.627 280.452 705.145 271.263Z" fill="black" fill-opacity="0.25"/>
<path opacity="0.5" d="M273.36 267L238.475 133.889C235.362 122.013 241.705 109.666 253.421 105.998C266.285 101.971 280.92 97.9567 300.5 92.5L332 287.5C320.065 287.5 304.468 285.93 291.074 283.695C282.355 282.239 275.602 275.552 273.36 267Z" fill="black" fill-opacity="0.25"/>
<g filter="url(#filter1_d_855_159515)">
<mask id="path-5-outside-1_855_159515" maskUnits="userSpaceOnUse" x="372" y="126" width="102" height="102" fill="black">
<rect fill="white" x="372" y="126" width="102" height="102"/>
<path fill-rule="evenodd" clip-rule="evenodd" d="M435.536 132H410.464V164.464H378V189.536H410.464V222H435.536V189.536H468V164.464H435.536V132Z"/>
</mask>
<path fill-rule="evenodd" clip-rule="evenodd" d="M435.536 132H410.464V164.464H378V189.536H410.464V222H435.536V189.536H468V164.464H435.536V132Z" fill="#E40303"/>
<path d="M410.464 132V126H404.464V132H410.464ZM435.536 132H441.536V126H435.536V132ZM410.464 164.464V170.464H416.464V164.464H410.464ZM378 164.464V158.464H372V164.464H378ZM378 189.536H372V195.536H378V189.536ZM410.464 189.536H416.464V183.536H410.464V189.536ZM410.464 222H404.464V228H410.464V222ZM435.536 222V228H441.536V222H435.536ZM435.536 189.536V183.536H429.536V189.536H435.536ZM468 189.536V195.536H474V189.536H468ZM468 164.464H474V158.464H468V164.464ZM435.536 164.464H429.536V170.464H435.536V164.464ZM410.464 138H435.536V126H410.464V138ZM416.464 164.464V132H404.464V164.464H416.464ZM378 170.464H410.464V158.464H378V170.464ZM384 189.536V164.464H372V189.536H384ZM410.464 183.536H378V195.536H410.464V183.536ZM416.464 222V189.536H404.464V222H416.464ZM435.536 216H410.464V228H435.536V216ZM429.536 189.536V222H441.536V189.536H429.536ZM468 183.536H435.536V195.536H468V183.536ZM462 164.464V189.536H474V164.464H462ZM435.536 170.464H468V158.464H435.536V170.464ZM429.536 132V164.464H441.536V132H429.536Z" fill="black" mask="url(#path-5-outside-1_855_159515)"/>
</g>
<defs>
<filter id="filter0_d_855_159515" x="228.004" y="72.0413" width="518.363" height="241.038" filterUnits="userSpaceOnUse" color-interpolation-filters="sRGB">
<feFlood flood-opacity="0" result="BackgroundImageFix"/>
<feColorMatrix in="SourceAlpha" type="matrix" values="0 0 0 0 0 0 0 0 0 0 0 0 0 0 0 0 0 0 127 0" result="hardAlpha"/>
<feOffset dx="-1" dy="7"/>
<feGaussianBlur stdDeviation="2"/>
<feComposite in2="hardAlpha" operator="out"/>
<feColorMatrix type="matrix" values="0 0 0 0 0 0 0 0 0 0 0 0 0 0 0 0 0 0 0.25 0"/>
<feBlend mode="normal" in2="BackgroundImageFix" result="effect1_dropShadow_855_159515"/>
<feBlend mode="normal" in="SourceGraphic" in2="effect1_dropShadow_855_159515" result="shape"/>
</filter>
<filter id="filter1_d_855_159515" x="370" y="126" width="106" height="106" filterUnits="userSpaceOnUse" color-interpolation-filters="sRGB">
<feFlood flood-opacity="0" result="BackgroundImageFix"/>
<feColorMatrix in="SourceAlpha" type="matrix" values="0 0 0 0 0 0 0 0 0 0 0 0 0 0 0 0 0 0 127 0" result="hardAlpha"/>
<feOffset dy="2"/>
<feGaussianBlur stdDeviation="1"/>
<feComposite in2="hardAlpha" operator="out"/>
<feColorMatrix type="matrix" values="0 0 0 0 0 0 0 0 0 0 0 0 0 0 0 0 0 0 0.35 0"/>
<feBlend mode="normal" in2="BackgroundImageFix" result="effect1_dropShadow_855_159515"/>
<feBlend mode="normal" in="SourceGraphic" in2="effect1_dropShadow_855_159515" result="shape"/>
</filter>
</defs>
</svg>
