<svg width="1000" height="1000" viewBox="0 0 1000 1000" fill="none" xmlns="http://www.w3.org/2000/svg">
<path d="M216.266 330.89L216.266 333.89H219.266L591.556 333.89C593.133 375.915 627.699 409.5 670.11 409.5H685.75H701.39C744.805 409.5 780 374.305 780 330.89C780 297.254 772.691 263.955 758.501 232.899C744.311 201.843 723.522 173.645 697.336 149.906C671.151 126.168 640.081 107.352 605.905 94.5185C571.73 81.6854 535.109 75.0833 498.133 75.0833C461.156 75.0833 424.536 81.6855 390.36 94.5185C356.185 107.352 325.114 126.168 298.929 149.906C272.743 173.645 251.954 201.843 237.764 232.899C223.574 263.956 216.266 297.254 216.266 330.89Z" fill="#4B70C5" stroke="black" stroke-width="6"/>
<path d="M755.772 234.145C769.787 264.817 777 297.691 777 330.89V337.39C777 377.155 744.764 409.39 705 409.39H669C629.236 409.39 597 377.155 597 337.39V330.89L219.266 330.89C219.266 297.691 226.479 264.817 240.493 234.145C556.65 299.758 675.444 206.806 695.321 152.129C721.217 175.604 741.758 203.473 755.772 234.145Z" fill="black" fill-opacity="0.25"/>
<path d="M726 325H217.409C209.306 325 201.342 327.27 194.908 330.665C188.563 334.013 183.272 338.691 181.078 343.843C179.952 346.49 179.601 349.382 180.542 352.214C181.48 355.037 183.57 357.405 186.573 359.268C192.45 362.916 202.452 365.038 217.409 365.038C228.121 365.038 246.616 365.416 270.387 365.902C326.117 367.042 410.847 368.775 492.274 367.617C550.407 366.79 607.056 364.491 650.56 359.44C672.297 356.917 690.876 353.692 704.758 349.577C711.695 347.521 717.573 345.209 722.12 342.584C726.621 339.986 730.135 336.9 731.859 333.14C732.862 330.954 732.314 328.742 731.012 327.233C729.784 325.809 727.921 325 726 325Z" fill="#4B70C5" stroke="black" stroke-width="6"/>
<path d="M376.715 328H726C728.209 328 730.059 329.867 729.292 331.938C713.162 375.527 426.325 362.024 376.715 362.024C335.876 362.024 355.855 328 376.715 328Z" fill="black" fill-opacity="0.25"/>
</svg>
