<svg width="1000" height="1000" viewBox="0 0 1000 1000" fill="none" xmlns="http://www.w3.org/2000/svg">
<g clip-path="url(#clip0_730_81693)">
<path d="M462.179 123.026C468.374 136.82 464.108 154.737 453.126 171.303C442.221 187.754 425.34 201.825 408.313 207.811C391.094 213.864 369.26 215.034 350.121 210.941C330.889 206.829 315.369 197.661 309.183 183.885C305.955 176.697 303.02 163.423 301.075 147.008C299.144 130.717 298.231 111.714 298.862 93.2885C299.494 74.8293 301.672 57.1299 305.837 43.3626C307.919 36.4784 310.455 30.7244 313.433 26.3823C316.418 22.0306 319.683 19.3316 323.129 18.12C326.641 16.8855 331.171 16.7884 336.743 17.9643C342.302 19.1375 348.627 21.523 355.491 24.9357C369.221 31.7618 384.563 42.4238 399.369 54.5634C414.15 66.6825 428.25 80.1545 439.497 92.4912C450.837 104.93 458.975 115.891 462.179 123.026Z" fill="#F86848" stroke="black" stroke-width="8"/>
<path d="M464.183 133.609C474.218 155.954 440.115 192.55 406.847 204.244C373.579 215.939 325.205 213.437 315.17 191.092C305.136 168.746 309.84 74.0009 343.108 62.3063C376.376 50.6117 454.149 111.263 464.183 133.609Z" fill="black" fill-opacity="0.25"/>
<path d="M352.178 99.0613C356.855 123.938 374.337 180.283 406.842 206.653" stroke="black" stroke-width="8" stroke-linecap="round"/>
<path d="M745.312 118.202C739.703 132.245 723.858 141.64 704.314 145.269C684.906 148.873 663.053 146.529 646.91 138.457C630.587 130.295 614.563 115.421 604.198 98.8236C593.781 82.1453 589.579 64.6185 595.18 50.5946C598.103 43.277 605.604 31.9379 616.051 19.1253C626.419 6.40913 639.443 -7.46145 653.127 -19.8209C666.836 -32.2027 681.073 -42.9459 693.865 -49.5275C700.262 -52.8186 706.161 -54.9978 711.353 -55.8772C716.557 -56.7587 720.767 -56.2898 724.035 -54.656C727.364 -52.9912 730.584 -49.8038 733.613 -44.9829C736.635 -40.173 739.318 -33.9694 741.638 -26.6644C746.278 -12.0528 749.282 6.38515 750.85 25.4648C752.416 44.5123 752.537 64.0119 751.489 80.6714C750.433 97.4693 748.213 110.938 745.312 118.202Z" fill="#FFC700" stroke="black" stroke-width="8"/>
<path d="M739.098 127C730.012 149.749 679.994 150.694 648.455 134.923C616.916 119.153 585.078 82.6562 594.163 59.9073C603.249 37.1584 674.626 -25.3462 706.164 -9.57545C737.703 6.19525 748.183 104.251 739.098 127Z" fill="black" fill-opacity="0.25"/>
<path d="M686.048 22.5012C671.419 43.1607 643.072 94.9028 646.718 136.595" stroke="black" stroke-width="8" stroke-linecap="round"/>
<path d="M816.027 315.749C802.252 321.99 784.319 317.786 767.714 306.862C751.224 296.013 737.094 279.183 731.049 262.178C724.937 244.982 723.692 223.154 727.721 204.004C731.768 184.761 740.884 169.211 754.64 162.978C761.818 159.726 775.084 156.747 791.494 154.746C807.781 152.76 826.782 151.782 845.212 152.35C863.675 152.92 881.384 155.037 895.167 159.154C902.059 161.213 907.822 163.729 912.175 166.692C916.537 169.662 919.248 172.917 920.471 176.359C921.718 179.866 921.83 184.395 920.673 189.97C919.519 195.532 917.155 201.865 913.765 208.739C906.985 222.491 896.374 237.868 884.283 252.713C872.213 267.533 858.788 281.678 846.488 292.965C834.086 304.346 823.152 312.521 816.027 315.749Z" fill="#FFC700" stroke="black" stroke-width="8"/>
<path d="M805.448 317.787C783.134 327.897 746.419 293.923 734.61 260.699C722.801 227.475 725.138 179.098 747.451 168.988C769.765 158.879 864.537 163.26 876.346 196.484C888.155 229.708 827.762 307.678 805.448 317.787Z" fill="black" fill-opacity="0.25"/>
<path d="M839.62 205.679C814.757 210.441 758.465 228.112 732.203 260.703" stroke="black" stroke-width="8" stroke-linecap="round"/>
<path d="M776.536 560.296C762.443 554.808 752.915 539.046 749.121 519.537C745.354 500.163 747.514 478.295 755.452 462.087C763.478 445.697 778.219 429.549 794.731 419.044C811.324 408.488 828.817 404.136 842.89 409.616C850.233 412.476 861.637 419.879 874.539 430.214C887.343 440.472 901.325 453.375 913.8 466.951C926.299 480.551 937.163 494.694 943.852 507.427C947.197 513.794 949.426 519.674 950.349 524.858C951.275 530.053 950.841 534.266 949.235 537.546C947.598 540.889 944.437 544.135 939.641 547.205C934.856 550.267 928.674 553.003 921.388 555.385C906.814 560.149 888.399 563.31 869.33 565.041C850.294 566.77 830.793 567.057 814.123 566.152C797.314 565.239 783.825 563.134 776.536 560.296Z" fill="#FFC700" stroke="black" stroke-width="8"/>
<path d="M767.686 554.158C744.858 545.269 743.493 495.268 759.001 463.6C774.509 431.933 810.742 399.789 833.57 408.678C856.397 417.567 919.508 488.396 904 520.064C888.493 551.731 790.513 563.047 767.686 554.158Z" fill="black" fill-opacity="0.25"/>
<path d="M871.75 500.228C850.965 485.778 798.98 457.879 757.313 461.881" stroke="black" stroke-width="8" stroke-linecap="round"/>
<path d="M766.532 444.892C748.289 442.592 732.575 426.969 722.517 405.58C712.516 384.312 708.66 358.431 713.192 337.363C717.766 316.097 730.216 293.194 746.368 276.286C762.583 259.313 781.801 249.078 800.023 251.375C809.459 252.565 824.865 257.831 842.775 265.998C860.573 274.113 880.494 284.93 898.869 296.954C917.271 308.997 933.969 322.152 945.435 334.912C951.168 341.292 955.49 347.46 958.092 353.229C960.698 359.009 961.462 364.123 960.511 368.544C959.545 373.034 956.731 377.795 952.01 382.763C947.299 387.722 940.879 392.682 933.107 397.533C917.56 407.235 897.12 416.177 875.544 423.652C853.999 431.117 831.499 437.057 811.927 440.813C792.219 444.594 775.91 446.075 766.532 444.892Z" fill="#008026" stroke="black" stroke-width="8"/>
<path d="M754.684 439.659C725.727 436.008 709.705 378.99 718.484 338.177C727.263 297.364 759.864 250.051 788.821 253.702C817.778 257.353 911.196 320.553 902.416 361.367C893.637 402.18 783.641 443.31 754.684 439.659Z" fill="black" fill-opacity="0.25"/>
<path d="M859.407 347.853C831.205 337.231 763.049 320.126 716.038 336.687" stroke="black" stroke-width="8" stroke-linecap="round"/>
<path d="M712.115 681.388C696.106 672.346 687.486 651.933 686.287 628.329C685.094 604.857 691.337 579.446 703.516 561.668C715.811 543.722 736.013 527.245 757.37 517.721C778.809 508.159 800.473 505.971 816.465 515.003C824.745 519.68 837.006 530.392 850.484 544.737C863.877 558.992 878.212 576.552 890.657 594.642C903.121 612.761 913.586 631.263 919.36 647.416C922.247 655.493 923.908 662.838 924.129 669.163C924.35 675.5 923.118 680.521 920.562 684.253C917.966 688.041 913.557 691.381 907.305 694.189C901.065 696.992 893.245 699.149 884.213 700.692C866.149 703.778 843.844 704.307 821.044 703.047C798.277 701.79 775.205 698.76 755.669 694.818C735.999 690.848 720.345 686.037 712.115 681.388Z" fill="#F86848" stroke="black" stroke-width="8"/>
<path d="M703.131 672.055C677.719 657.703 684.506 598.867 708.101 564.426C731.697 529.985 779.8 498.558 805.212 512.91C830.625 527.263 893.115 621.152 869.519 655.593C845.924 690.034 728.544 686.408 703.131 672.055Z" fill="black" fill-opacity="0.25"/>
<path d="M834.841 626.788C812.77 606.27 756.184 564.611 706.402 562.12" stroke="black" stroke-width="8" stroke-linecap="round"/>
<path d="M625.625 116.544C623.88 125.017 618.5 133.045 610.244 140.272C601.993 147.493 591.065 153.735 578.702 158.601C553.926 168.354 524.109 172.306 500.126 168.099C475.972 163.863 450.448 152.068 432.013 136.707C413.397 121.195 403.039 102.993 406.546 85.9638C408.376 77.075 415.129 62.4085 425.367 45.2419C435.525 28.2094 448.866 9.12195 463.498 -8.5026C478.15 -26.151 493.976 -42.1876 509.081 -53.2351C524.384 -64.4275 538.06 -69.8492 548.74 -67.976C559.532 -66.0833 570.462 -56.7042 580.772 -41.764C590.963 -26.9969 600.02 -7.56451 607.349 12.9529C614.669 33.4458 620.205 54.8554 623.417 73.4814C626.657 92.2685 627.442 107.722 625.625 116.544Z" fill="#008026" stroke="black" stroke-width="8"/>
<path d="M618.54 127.811C612.841 155.489 547.202 171.251 501.303 163.201C455.404 155.151 403.398 124.409 409.097 96.7311C414.797 69.053 491.608 -20.6575 537.507 -12.6075C583.406 -4.55737 624.24 100.133 618.54 127.811Z" fill="black" fill-opacity="0.25"/>
<path d="M519.85 28.5691C506.27 55.5827 483.184 120.798 499.48 165.549" stroke="black" stroke-width="8" stroke-linecap="round"/>
<path d="M779.962 241.033C768.017 256.104 743.906 262.099 716.823 259.971C689.954 257.86 661.598 247.823 642.544 232.675C623.343 217.411 606.725 194.228 598.17 170.878C589.562 147.38 589.472 124.84 601.4 109.79C607.586 101.985 621.057 90.9426 638.804 79.155C656.434 67.4453 677.921 55.2374 699.81 45.0414C721.729 34.8315 743.88 26.7189 762.871 23.0844C782.158 19.3933 796.95 20.5609 805.363 27.2489C813.869 34.0111 818.824 48.0582 820.406 67.3096C821.967 86.2974 820.161 109.257 816.275 132.454C812.393 155.623 806.466 178.85 799.884 198.319C793.255 217.929 786.109 233.277 779.962 241.033Z" fill="#F86848" stroke="black" stroke-width="8"/>
<path d="M767.979 248.591C748.939 272.613 682.845 257.312 646.269 228.235C609.693 199.158 579.18 145.379 598.22 121.357C617.26 97.3345 730.633 46.5704 767.209 75.6473C803.784 104.724 787.019 224.569 767.979 248.591Z" fill="black" fill-opacity="0.25"/>
<path d="M730.756 107.122C705.074 126.843 651.661 178.96 643.467 229.651" stroke="black" stroke-width="8" stroke-linecap="round"/>
<path d="M185.435 493.742C133.522 683.686 180.943 703 252 703C136.5 325 290.5 255.584 480.5 274C224.069 240.095 136.834 278.705 184.75 444.903C189.324 460.767 189.787 477.816 185.435 493.742Z" fill="#090909"/>
<mask id="path-26-inside-1_730_81693" fill="white">
<path fill-rule="evenodd" clip-rule="evenodd" d="M174.945 335.901C215.698 213.415 329.464 121.508 468.609 112.937C650.328 101.745 806.519 236.929 817.471 414.88C821.253 476.333 820.962 567.531 793.483 618.271C787.77 638.253 787.34 643.9 792.168 691.818C795.773 727.481 414.808 788.414 219.442 743.858C217.934 743.138 215.979 742.486 213.706 741.728C194.102 735.188 150.901 720.776 167.531 587.411C167.978 564.331 168.216 550.092 168.188 540.17C180.743 607.736 211.19 651.434 301.099 645.899C549.163 647.363 686.062 550.262 677.973 418.887C669.992 289.277 421.569 304.614 282.666 313.19C280.776 313.307 278.905 313.422 277.056 313.536C221.639 316.948 191.343 324.326 174.945 335.901ZM159.238 452.444C159.29 453.432 159.346 454.421 159.407 455.411C159.458 456.238 159.512 457.064 159.569 457.889C159.458 456.081 159.347 454.266 159.238 452.444Z"/>
</mask>
<path fill-rule="evenodd" clip-rule="evenodd" d="M174.945 335.901C215.698 213.415 329.464 121.508 468.609 112.937C650.328 101.745 806.519 236.929 817.471 414.88C821.253 476.333 820.962 567.531 793.483 618.271C787.77 638.253 787.34 643.9 792.168 691.818C795.773 727.481 414.808 788.414 219.442 743.858C217.934 743.138 215.979 742.486 213.706 741.728C194.102 735.188 150.901 720.776 167.531 587.411C167.978 564.331 168.216 550.092 168.188 540.17C180.743 607.736 211.19 651.434 301.099 645.899C549.163 647.363 686.062 550.262 677.973 418.887C669.992 289.277 421.569 304.614 282.666 313.19C280.776 313.307 278.905 313.422 277.056 313.536C221.639 316.948 191.343 324.326 174.945 335.901ZM159.238 452.444C159.29 453.432 159.346 454.421 159.407 455.411C159.458 456.238 159.512 457.064 159.569 457.889C159.458 456.081 159.347 454.266 159.238 452.444Z" fill="#82EB68"/>
<path d="M174.945 335.901L167.354 333.376L159.668 356.478L179.558 342.437L174.945 335.901ZM793.483 618.271L786.448 614.462L786.032 615.231L785.791 616.073L793.483 618.271ZM792.168 691.818L784.209 692.62L784.209 692.623L792.168 691.818ZM219.442 743.858L215.998 751.078L216.798 751.46L217.663 751.658L219.442 743.858ZM213.706 741.728L211.174 749.317L211.174 749.317L213.706 741.728ZM167.531 587.411L175.469 588.4L175.521 587.984L175.529 587.565L167.531 587.411ZM168.188 540.17L176.053 538.708L160.188 540.193L168.188 540.17ZM301.099 645.899L301.146 637.899L300.877 637.897L300.607 637.914L301.099 645.899ZM677.973 418.887L669.988 419.379L677.973 418.887ZM282.666 313.19L283.159 321.175L283.159 321.175L282.666 313.19ZM277.056 313.536L276.565 305.551L276.565 305.551L277.056 313.536ZM159.238 452.444L167.224 451.964L151.249 452.862L159.238 452.444ZM159.569 457.889L151.588 458.442L167.554 457.396L159.569 457.889ZM468.117 104.953C325.683 113.725 209.128 207.821 167.354 333.376L182.536 338.427C222.268 219.01 333.245 129.29 469.1 120.922L468.117 104.953ZM825.456 414.388C814.223 231.871 654.088 93.4984 468.117 104.953L469.1 120.922C646.568 109.992 798.815 241.988 809.486 415.372L825.456 414.388ZM800.517 622.081C815.062 595.223 822.111 558.391 825.173 521.249C828.251 483.904 827.36 445.326 825.456 414.388L809.486 415.372C811.364 445.887 812.219 483.634 809.227 519.936C806.218 556.441 799.382 590.579 786.448 614.462L800.517 622.081ZM800.128 691.015C797.701 666.934 796.666 654.058 796.871 644.744C797.067 635.859 798.387 630.22 801.175 620.47L785.791 616.073C782.866 626.304 781.115 633.479 780.875 644.392C780.644 654.877 781.807 668.784 784.209 692.62L800.128 691.015ZM217.663 751.658C316.713 774.247 461.9 770.016 581.36 755.865C641.195 748.777 694.971 739.153 733.702 728.999C753.007 723.937 768.924 718.655 780.054 713.34C785.573 710.704 790.375 707.848 793.851 704.694C797.133 701.718 800.739 697.066 800.128 691.013L784.209 692.623C784.048 691.027 785.101 691.031 783.102 692.843C781.299 694.479 778.095 696.545 773.16 698.902C763.382 703.571 748.602 708.552 729.645 713.522C691.854 723.43 638.855 732.942 579.478 739.976C460.515 754.068 317.538 758.024 221.222 736.058L217.663 751.658ZM211.174 749.317C213.614 750.131 215.033 750.618 215.998 751.078L222.887 736.637C220.835 735.658 218.343 734.841 216.238 734.139L211.174 749.317ZM159.593 586.421C151.202 653.707 157.647 692.627 169.961 715.874C182.628 739.786 200.865 745.878 211.174 749.317L216.238 734.139C206.943 731.038 193.778 726.655 184.1 708.384C174.07 689.449 167.229 654.481 175.469 588.4L159.593 586.421ZM160.188 540.193C160.216 550.008 159.98 564.149 159.533 587.256L175.529 587.565C175.976 564.513 176.217 550.176 176.188 540.146L160.188 540.193ZM160.322 541.632C166.715 576.033 177.904 605.923 200.236 626.35C222.789 646.98 255.318 656.732 301.59 653.884L300.607 637.914C256.97 640.6 229.321 631.271 211.035 614.544C192.528 597.615 182.216 571.873 176.053 538.708L160.322 541.632ZM301.051 653.899C425.977 654.636 523.901 630.584 589.862 588.973C656.109 547.182 690.212 487.49 685.958 418.395L669.988 419.379C673.823 481.659 643.522 536.205 581.325 575.441C518.843 614.858 424.285 638.626 301.146 637.899L301.051 653.899ZM685.958 418.395C683.774 382.924 664.935 357.448 636.62 339.707C608.644 322.179 571.207 312.007 530.528 306.297C449.114 294.869 351.44 300.929 282.174 305.205L283.159 321.175C352.795 316.876 448.785 310.979 528.303 322.141C568.09 327.726 602.937 337.485 628.125 353.266C652.975 368.835 668.182 390.045 669.988 419.379L685.958 418.395ZM282.174 305.205C280.283 305.322 278.413 305.437 276.565 305.551L277.547 321.521C279.397 321.407 281.269 321.292 283.159 321.175L282.174 305.205ZM276.565 305.551C221.227 308.958 188.783 316.341 170.331 329.366L179.558 342.437C193.903 332.311 222.052 324.937 277.547 321.521L276.565 305.551ZM151.249 452.862C151.302 453.875 151.36 454.888 151.422 455.903L167.392 454.919C167.333 453.954 167.278 452.989 167.227 452.025L151.249 452.862ZM151.422 455.903C151.474 456.75 151.53 457.597 151.588 458.442L167.55 457.336C167.494 456.531 167.442 455.726 167.392 454.919L151.422 455.903ZM151.253 452.923C151.362 454.749 151.473 456.569 151.584 458.382L167.554 457.396C167.443 455.593 167.333 453.783 167.224 451.964L151.253 452.923Z" fill="black" mask="url(#path-26-inside-1_730_81693)"/>
<path d="M821.101 414.678L821.101 414.678C754.5 103.5 568.893 229.223 412.5 212.5C736.793 363.525 777.052 601.225 641.318 643.311C524.681 679.475 322.797 691.184 173.047 691.968C185.146 737.159 213.372 739.005 223.08 743.636C418.448 788.198 791.873 727.429 788.268 691.766C783.438 643.848 793.492 621.206 799.203 601.225C818.764 545.661 819.945 479.47 821.101 414.678Z" fill="black" fill-opacity="0.25"/>
<path d="M771.662 679.907C649.879 758.858 268.136 754.795 193.706 723.796C188.616 721.676 183.025 720.352 177.886 722.352C147.941 734.008 155.047 766.287 197.463 783.503C288.413 820.42 709.454 799.408 773.754 770.005C780.392 766.97 786.267 760.502 791.125 755.054C807.345 736.866 812.853 699.641 792.409 679.826C786.818 674.408 778.194 675.672 771.662 679.907Z" fill="#FFC700" stroke="black" stroke-width="8"/>
<path d="M766.058 716.17C647.199 796.16 278.632 787.936 204.968 756.462C199.896 754.296 194.36 753.106 189.037 754.547C159.426 762.566 167.098 771.177 197.464 783.503C290.31 821.19 727.159 798.507 777.306 768.155C781.544 765.59 783.944 760.54 786.818 756.505C796.522 742.883 801.656 724.54 784.19 714.164C778.513 710.791 771.537 712.483 766.058 716.17Z" fill="black" fill-opacity="0.25"/>
<path d="M197.956 384.954C203.706 384.954 207.47 381.228 209.767 376.679C212.016 372.225 213.278 366.29 214.034 359.944C215.316 349.189 215.263 335.99 215.216 324.094C215.207 321.898 215.198 319.745 215.198 317.661C215.198 310.847 214.5 305.808 212.566 302.516C211.506 300.71 210.027 299.343 208.117 298.604C206.295 297.9 204.454 297.914 202.872 298.141C200.567 298.472 197.885 299.45 195.497 300.32C194.876 300.547 194.275 300.766 193.706 300.964C190.626 302.039 187.669 302.865 184.714 302.865C181.76 302.865 178.803 302.039 175.723 300.964C175.154 300.766 174.553 300.547 173.932 300.32C171.544 299.45 168.862 298.472 166.556 298.141C164.975 297.914 163.133 297.9 161.311 298.604C159.401 299.343 157.923 300.71 156.862 302.516C154.929 305.808 154.23 310.847 154.23 317.661C154.23 332.266 160.914 348.851 169.257 361.655C173.456 368.099 178.2 373.78 182.961 377.9C187.574 381.892 192.819 384.954 197.956 384.954Z" fill="white" stroke="black" stroke-width="8"/>
<path d="M299.02 384.954C293.271 384.954 289.507 381.228 287.21 376.679C284.961 372.225 283.699 366.29 282.942 359.944C281.66 349.189 281.713 335.99 281.761 324.094C281.77 321.898 281.778 319.745 281.778 317.661C281.778 310.847 282.477 305.808 284.41 302.516C285.47 300.71 286.949 299.343 288.859 298.604C290.681 297.9 292.523 297.914 294.104 298.141C296.41 298.472 299.092 299.45 301.48 300.32C302.101 300.547 302.702 300.766 303.271 300.964C306.351 302.039 309.308 302.865 312.262 302.865C315.217 302.865 318.174 302.039 321.254 300.964C321.823 300.766 322.424 300.547 323.045 300.32C325.433 299.45 328.114 298.472 330.42 298.141C332.002 297.914 333.843 297.9 335.665 298.604C337.575 299.343 339.054 300.71 340.114 302.516C342.048 305.808 342.746 310.847 342.746 317.661C342.746 332.266 336.062 348.851 327.719 361.655C323.52 368.099 318.777 373.78 314.016 377.9C309.403 381.892 304.158 384.954 299.02 384.954Z" fill="white" stroke="black" stroke-width="8"/>
<path d="M268.614 550.06C262.865 550.06 259.101 553.787 256.804 558.336C254.555 562.79 253.293 568.724 252.536 575.07C251.254 585.826 251.307 599.024 251.355 610.92C251.363 613.117 251.372 615.269 251.372 617.353C251.372 624.167 252.071 629.206 254.004 632.499C255.064 634.305 256.543 635.672 258.453 636.41C260.275 637.114 262.116 637.101 263.698 636.874C266.004 636.542 268.686 635.565 271.073 634.694C271.694 634.468 272.295 634.249 272.865 634.05C275.945 632.976 278.902 632.149 281.856 632.149C284.81 632.149 287.767 632.976 290.847 634.05C291.417 634.249 292.018 634.468 292.638 634.694C295.026 635.565 297.708 636.542 300.014 636.874C301.595 637.101 303.437 637.114 305.259 636.41C307.169 635.672 308.648 634.305 309.708 632.499C311.641 629.206 312.34 624.167 312.34 617.353C312.34 602.748 305.656 586.163 297.313 573.36C293.114 566.916 288.371 561.235 283.609 557.114C278.997 553.122 273.752 550.06 268.614 550.06Z" fill="white" stroke="black" stroke-width="8"/>
<path d="M173.954 540.561C178.933 537.686 184.056 539.032 188.32 541.823C192.495 544.556 196.556 549.064 200.384 554.182C206.873 562.856 213.427 574.312 219.335 584.638C220.425 586.545 221.494 588.413 222.536 590.218C225.944 596.119 227.859 600.832 227.831 604.65C227.816 606.744 227.219 608.667 225.933 610.262C224.708 611.783 223.106 612.692 221.623 613.286C219.46 614.151 216.649 614.646 214.146 615.086C213.495 615.2 212.865 615.311 212.272 615.423C209.068 616.033 206.094 616.795 203.535 618.272C200.977 619.749 198.829 621.943 196.699 624.413C196.305 624.87 195.895 625.36 195.47 625.867C193.837 627.814 192.004 630.002 190.172 631.441C188.916 632.429 187.328 633.361 185.398 633.662C183.375 633.978 181.411 633.533 179.589 632.499C176.269 630.614 173.144 626.6 169.737 620.699C162.433 608.05 159.928 590.346 160.751 575.087C161.165 567.407 162.432 560.116 164.495 554.167C166.493 548.404 169.505 543.129 173.954 540.561Z" fill="white" stroke="black" stroke-width="8"/>
<path d="M165.587 587.407C132.236 583.974 134.191 627.618 161.175 640.859C359.314 682.542 548.501 646.394 622.191 627.618C715.743 603.781 761.477 481.418 737.936 443.658C711.477 401.218 679.573 409.331 664.86 443.658L643.403 527.579C619.739 571.29 577.683 584.333 514.416 592.669C470.587 598.444 332.701 639.519 165.587 587.407Z" fill="#FFC700" stroke="black" stroke-width="8"/>
<path d="M165.095 618.791C131.744 615.359 134.187 627.618 161.171 640.859C359.31 682.542 548.497 646.394 622.187 627.618C715.739 603.781 761.473 481.418 737.932 443.658C726.049 424.598 708.996 430.483 699.677 443.658L673.684 539.839C650.02 583.549 586.876 612.907 523.608 621.243C479.779 627.018 310.757 659.208 165.095 618.791Z" fill="black" fill-opacity="0.25"/>
<path d="M161.172 327.502C125.86 329.464 153.815 284.839 175.885 262.771C204.514 237.486 201.113 285.998 495.346 253.88C511.379 252.13 527.182 257.796 540.907 266.265C576.143 288.005 615.492 288.762 660.007 278.217C671.52 275.489 683.783 275.525 694.537 280.459C823.214 339.502 775.741 482.006 753.137 518.262C726.678 560.701 648.673 538.368 633.959 504.041C633.959 469.714 662.896 478.051 677.609 403.022C677.609 363.3 621.698 327.502 558.431 319.166C514.602 313.39 305.362 310.339 161.172 327.502Z" fill="#FFC700" stroke="black" stroke-width="8"/>
<path d="M161.173 327.502C125.861 329.464 151.366 319.165 173.436 297.098C246.512 286.8 198.448 297.098 510.86 297.098C571.619 297.098 614.737 313.379 670.621 325.964C675.252 327.007 679.813 328.56 683.972 330.847C775.111 380.978 772.724 477.909 749.706 514.829C723.247 557.269 648.674 538.368 633.961 504.041C633.961 469.714 662.897 478.051 677.61 403.022C677.61 363.3 621.7 327.502 558.433 319.166C514.604 313.39 305.363 310.339 161.173 327.502Z" fill="black" fill-opacity="0.25"/>
<path d="M438.272 103.395C388.778 125.268 303.952 145.033 263.184 174.898C272.543 174.898 311.336 181.292 357.023 174.898C402.709 168.505 589.261 194.808 672.544 206.867C680.317 200.136 710.976 164.906 641.134 118.533C541.671 52.4937 465.246 91.4741 438.272 103.395Z" fill="#82EB68" stroke="black" stroke-width="8"/>
<path d="M484.245 135.054C443.939 150.235 374.858 163.953 341.656 184.68C349.278 184.68 380.871 189.117 418.077 184.68C455.284 180.243 607.209 198.498 675.033 206.867C681.363 202.196 706.332 177.745 649.454 145.561C568.453 99.7276 506.213 126.781 484.245 135.054Z" fill="black" fill-opacity="0.25"/>
<path d="M258.526 187.278C223.244 188.825 254.371 170.335 276.423 152.924C314.563 133.705 453.16 219.328 528.207 143.255C582.123 88.6024 628.072 86.2316 694.913 168.255C724.565 195.052 774.539 148.696 784.523 219.328C790.089 258.705 746.396 280.215 694.913 258.87C667.946 238.86 667.946 247.754 667.946 219.328C667.946 181.497 576.258 132.37 528.207 219.328C508.74 254.557 387.968 181.6 258.526 187.278Z" fill="#FFC700" stroke="black" stroke-width="8"/>
<path d="M258.532 187.278C223.25 188.826 243.097 181.124 265.148 163.713C303.288 144.493 453.166 256.459 528.213 180.386C582.129 125.733 628.078 119.449 694.919 201.473C733.521 274.05 769.814 159.79 784.529 219.328C794.071 257.935 746.402 280.215 694.919 258.871C667.952 238.86 667.952 247.754 667.952 219.328C667.952 181.497 576.264 132.37 528.213 219.328C508.746 254.558 387.974 181.6 258.532 187.278Z" fill="black" fill-opacity="0.25"/>
<path d="M316.603 218.747L258.428 256.328C256.113 257.824 253.353 258.477 250.613 258.178L213.066 254.076C206.701 253.38 202.003 247.809 202.392 241.418L204.523 206.419C204.713 203.284 205.966 200.791 207.935 199.479C216.492 193.78 230.492 189.847 248.902 189.312C267.224 188.78 289.576 191.627 314.527 199.128C323.217 201.74 324.915 213.377 316.603 218.747Z" fill="#F86848" stroke="black" stroke-width="8"/>
<path d="M260.618 259.688L318.793 222.107C329.623 215.111 327.936 199 315.175 197.163C273.341 191.141 254.224 217.566 229.567 222.692C224.567 223.731 219.715 225.977 216.703 230.101L197.492 256.396L250.199 262.154C253.852 262.553 257.531 261.682 260.618 259.688Z" fill="black" fill-opacity="0.25"/>
<path d="M599.629 300.117C637.592 300.117 668.368 269.346 668.368 231.386C668.368 193.427 637.592 162.655 599.629 162.655C561.666 162.655 530.891 193.427 530.891 231.386C530.891 269.346 561.666 300.117 599.629 300.117Z" fill="#F86848" stroke="black" stroke-width="8"/>
<path d="M634.242 176.684C642.419 181.857 649.332 188.796 654.473 196.992C659.614 205.187 662.852 214.431 663.95 224.043C665.047 233.655 663.976 243.391 660.815 252.534C657.654 261.678 652.483 269.996 645.684 276.879C638.884 283.761 630.627 289.032 621.522 292.303C612.417 295.575 602.694 296.764 593.068 295.784C583.442 294.803 574.159 291.678 565.9 286.638C557.642 281.597 550.618 274.77 545.346 266.658L599.629 231.386L634.242 176.684Z" fill="black" fill-opacity="0.25"/>
<path d="M599.627 277.559C625.13 277.559 645.805 256.887 645.805 231.386C645.805 205.885 625.13 185.213 599.627 185.213C574.124 185.213 553.449 205.885 553.449 231.386C553.449 256.887 574.124 277.559 599.627 277.559Z" fill="#090909" stroke="black" stroke-width="8"/>
<ellipse cx="586.875" cy="216.674" rx="9.80885" ry="9.80773" fill="white"/>
<ellipse rx="7.68311" ry="13.0802" transform="matrix(0.95605 -0.293203 0.293264 0.956031 248.861 246.144)" fill="#090909"/>
<ellipse rx="6.0201" ry="12.7792" transform="matrix(-0.877845 -0.478945 -0.479029 0.877799 213.773 242.337)" fill="#090909"/>
</g>
<defs>
<clipPath id="clip0_730_81693">
<rect width="1000" height="1000" fill="white"/>
</clipPath>
</defs>
</svg>
