<svg width="1000" height="1000" viewBox="0 0 1000 1000" fill="none" xmlns="http://www.w3.org/2000/svg">
<path d="M282.151 187.835C253.23 197.344 265.604 211.184 284.686 215.393C298.293 219.857 321.318 230.955 297.816 251.778C285.695 257.483 296.541 273.562 272.329 273.234C253.615 285.893 278.06 326.439 348.448 319.573C384.655 341.288 409.258 315.819 432.238 305.646C438.238 302.99 444.51 306.13 448.842 310.921C458.065 321.121 472.012 327.609 497.774 328.314C585.571 330.715 526.53 306.285 634.397 316.464C662.791 317.424 742.275 332.853 754.718 334.978C740.431 174.57 606.143 190.02 500.068 174.223C393.994 158.425 302.371 179.716 282.151 187.835Z" fill="#F72087" stroke="black" stroke-width="6"/>
<path opacity="0.25" d="M384.284 299.772C378.784 299.018 351.641 308.701 343.296 312.584C345.909 312.104 352.305 310.049 361.45 308.37C422.98 314.71 437.303 286.515 434.368 259.723C431.433 232.931 499.742 273.292 525.722 284.393C461.072 224.847 511.999 249.002 527.13 242.699C491.956 207.718 305.924 188.081 301.793 195.892C365.648 216.793 383.714 237.281 409.743 273.94C415.678 301.063 393.888 301.088 384.284 299.772Z" fill="white" fill-opacity="0.7"/>
<path d="M317.386 187.307C286.103 183.645 278.949 196.937 295.547 206.737C233.085 191.147 300.532 178.554 322.409 179.766C554.852 192.649 608.118 263.101 618.995 297.251C594.217 252.428 582.659 281.879 579.068 276.367C531.804 218.038 461.003 204.119 317.386 187.307Z" fill="black" fill-opacity="0.25"/>
<path d="M309.345 209.494C302.368 199.489 295.422 207.624 292.369 213.768C344.404 228.022 285.05 270.866 305.894 260.172C341.177 242.069 352.623 255.918 360.868 262.633C359.226 252.355 345.689 243.378 336.208 234.539C370.647 252.198 385.13 284.335 388.067 298.196C391.505 297.271 399.345 294.715 403.197 291.892C408.013 288.364 401.008 278.188 393.867 267.156C376.012 239.576 319.237 220.903 309.345 209.494Z" fill="black" fill-opacity="0.25"/>
<path d="M631.607 244.994C646.557 257.767 680.464 306.378 660.726 321.33C668.768 323.968 720.461 334.226 727.668 332.198C727.086 286.46 612.918 229.028 631.607 244.994Z" fill="black" fill-opacity="0.25"/>
<path opacity="0.25" d="M659.339 301.307C615.438 228.961 467.776 193.054 399.434 184.144C479.36 178.291 580.889 211.674 600.823 223.003L600.254 222.838C579.48 216.806 532.459 203.155 571.148 220.514C610.195 238.034 636.108 260.608 659.339 301.307Z" fill="white" fill-opacity="0.7"/>
<path opacity="0.25" d="M348.155 258.795C329.133 247.475 307.995 266.153 330.125 280.618C216.31 288.156 336.286 313.577 341.583 310.254C351.853 307.193 374.662 300.127 383.74 296.345C382.919 291.206 371.933 272.945 348.155 258.795Z" fill="white" fill-opacity="0.7"/>
</svg>
