<svg width="1000" height="1000" viewBox="0 0 1000 1000" fill="none" xmlns="http://www.w3.org/2000/svg">
<mask id="path-1-inside-1_134_231196" fill="white">
<path fill-rule="evenodd" clip-rule="evenodd" d="M725.297 97.4028L706.881 10.5292L645.159 74.378L594.9 1.16494L562.31 83.7733L487.859 35.3669L489.363 124.158L402.055 107.928L437.424 189.385L350.55 207.802L413.12 268.286C445.467 253.088 481.507 244.606 519.5 244.606C642.355 244.606 744.788 333.293 767.967 450.992L852.648 466.733L817.279 385.276L904.153 366.86L840.304 305.139L913.517 254.879L830.909 222.29L879.315 147.838L790.524 149.342L806.754 62.0339L725.297 97.4028Z"/>
</mask>
<path fill-rule="evenodd" clip-rule="evenodd" d="M725.297 97.4028L706.881 10.5292L645.159 74.378L594.9 1.16494L562.31 83.7733L487.859 35.3669L489.363 124.158L402.055 107.928L437.424 189.385L350.55 207.802L413.12 268.286C445.467 253.088 481.507 244.606 519.5 244.606C642.355 244.606 744.788 333.293 767.967 450.992L852.648 466.733L817.279 385.276L904.153 366.86L840.304 305.139L913.517 254.879L830.909 222.29L879.315 147.838L790.524 149.342L806.754 62.0339L725.297 97.4028Z" fill="#FF8C00"/>
<path d="M706.881 10.5292L714.707 8.87009L711.586 -5.8491L701.129 4.96895L706.881 10.5292ZM725.297 97.4028L717.471 99.0619L719.502 108.641L728.484 104.741L725.297 97.4028ZM645.159 74.378L638.564 78.9057L644.106 86.9784L650.911 79.9382L645.159 74.378ZM594.9 1.16494L601.495 -3.36275L592.979 -15.7674L587.458 -1.77089L594.9 1.16494ZM562.31 83.7733L557.95 90.4803L566.159 95.8178L569.752 86.7091L562.31 83.7733ZM487.859 35.3669L492.22 28.6598L479.605 20.4582L479.86 35.5024L487.859 35.3669ZM489.363 124.158L487.901 132.024L497.528 133.813L497.362 124.023L489.363 124.158ZM402.055 107.928L403.517 100.063L388.724 97.3128L394.717 111.114L402.055 107.928ZM437.424 189.385L439.083 197.211L448.662 195.18L444.762 186.199L437.424 189.385ZM350.55 207.802L348.891 199.976L334.172 203.096L344.99 213.553L350.55 207.802ZM413.12 268.286L407.559 274.038L411.527 277.874L416.522 275.527L413.12 268.286ZM519.5 244.606L519.5 252.606L519.5 244.606ZM767.967 450.992L760.118 452.537L761.167 457.864L766.505 458.857L767.967 450.992ZM852.648 466.733L851.186 474.599L865.979 477.349L859.986 463.547L852.648 466.733ZM817.279 385.276L815.62 377.45L806.041 379.481L809.941 388.463L817.279 385.276ZM904.153 366.86L905.812 374.686L920.531 371.566L909.713 361.108L904.153 366.86ZM840.304 305.139L835.777 298.543L827.704 304.085L834.744 310.89L840.304 305.139ZM913.517 254.879L918.045 261.474L930.45 252.959L916.453 247.437L913.517 254.879ZM830.909 222.29L824.202 217.929L818.865 226.138L827.973 229.731L830.909 222.29ZM879.315 147.838L886.022 152.199L894.224 139.584L879.18 139.839L879.315 147.838ZM790.524 149.342L782.659 147.88L780.869 157.507L790.659 157.341L790.524 149.342ZM806.754 62.0339L814.62 63.496L817.369 48.7032L803.568 54.6958L806.754 62.0339ZM699.055 12.1882L717.471 99.0619L733.123 95.7438L714.707 8.87009L699.055 12.1882ZM650.911 79.9382L712.633 16.0894L701.129 4.96895L639.407 68.8178L650.911 79.9382ZM588.304 5.69263L638.564 78.9057L651.755 69.8503L601.495 -3.36275L588.304 5.69263ZM569.752 86.7091L602.341 4.10076L587.458 -1.77089L554.868 80.8375L569.752 86.7091ZM483.498 42.0739L557.95 90.4803L566.671 77.0663L492.22 28.6598L483.498 42.0739ZM497.362 124.023L495.858 35.2313L479.86 35.5024L481.364 124.294L497.362 124.023ZM400.593 115.793L487.901 132.024L490.825 116.293L403.517 100.063L400.593 115.793ZM444.762 186.199L409.393 104.742L394.717 111.114L430.085 192.571L444.762 186.199ZM352.209 215.628L439.083 197.211L435.765 181.559L348.891 199.976L352.209 215.628ZM418.68 262.535L356.11 202.05L344.99 213.553L407.559 274.038L418.68 262.535ZM416.522 275.527C447.829 260.817 482.71 252.606 519.5 252.606L519.5 236.606C480.304 236.606 443.104 245.359 409.718 261.046L416.522 275.527ZM519.5 252.606C638.382 252.606 737.648 338.439 760.118 452.537L775.817 449.446C751.929 328.147 646.328 236.606 519.5 236.606L519.5 252.606ZM854.11 458.868L769.43 443.126L766.505 458.857L851.186 474.599L854.11 458.868ZM809.941 388.463L845.31 469.92L859.986 463.547L824.618 382.09L809.941 388.463ZM902.494 359.034L815.62 377.45L818.939 393.103L905.812 374.686L902.494 359.034ZM834.744 310.89L898.593 372.612L909.713 361.108L845.864 299.387L834.744 310.89ZM908.99 248.283L835.777 298.543L844.832 311.734L918.045 261.474L908.99 248.283ZM827.973 229.731L910.581 262.321L916.453 247.437L833.845 214.848L827.973 229.731ZM872.608 143.477L824.202 217.929L837.616 226.65L886.022 152.199L872.608 143.477ZM790.659 157.341L879.451 155.837L879.18 139.839L790.388 141.344L790.659 157.341ZM798.889 60.5718L782.659 147.88L798.389 150.805L814.62 63.496L798.889 60.5718ZM728.484 104.741L809.941 69.372L803.568 54.6958L722.111 90.0647L728.484 104.741Z" fill="black" mask="url(#path-1-inside-1_134_231196)"/>
<mask id="path-3-inside-2_134_231196" fill="white">
<path fill-rule="evenodd" clip-rule="evenodd" d="M760.491 422.005C779.014 401.934 793.258 377.351 801.313 349.313C828.918 253.236 773.41 152.973 677.333 125.369C581.257 97.7644 480.993 153.272 453.389 249.349C452.965 250.824 452.561 252.3 452.176 253.777C473.615 247.799 496.19 244.606 519.5 244.606C632.044 244.606 727.451 319.031 760.491 422.005Z"/>
</mask>
<path fill-rule="evenodd" clip-rule="evenodd" d="M760.491 422.005C779.014 401.934 793.258 377.351 801.313 349.313C828.918 253.236 773.41 152.973 677.333 125.369C581.257 97.7644 480.993 153.272 453.389 249.349C452.965 250.824 452.561 252.3 452.176 253.777C473.615 247.799 496.19 244.606 519.5 244.606C632.044 244.606 727.451 319.031 760.491 422.005Z" fill="#FFED00"/>
<path d="M760.491 422.005L752.874 424.449L757.066 437.513L766.37 427.431L760.491 422.005ZM452.176 253.777L444.435 251.759L440.928 265.218L454.325 261.483L452.176 253.777ZM519.5 244.606L519.5 252.606L519.5 244.606ZM793.625 347.103C785.921 373.916 772.308 397.404 754.612 416.58L766.37 427.431C785.719 406.464 800.594 380.786 809.002 351.522L793.625 347.103ZM675.124 133.058C766.954 159.442 820.009 255.273 793.625 347.103L809.002 351.522C837.827 251.199 779.865 146.504 679.542 117.68L675.124 133.058ZM461.078 251.558C487.462 159.728 583.294 106.673 675.124 133.058L679.542 117.68C579.219 88.8554 474.525 146.817 445.7 247.14L461.078 251.558ZM459.918 255.794C460.286 254.381 460.673 252.969 461.078 251.558L445.7 247.14C445.258 248.678 444.836 250.218 444.435 251.759L459.918 255.794ZM454.325 261.483C475.071 255.698 496.924 252.606 519.5 252.606L519.5 236.606C495.456 236.606 472.158 239.899 450.028 246.07L454.325 261.483ZM519.5 252.606C628.405 252.606 720.845 324.627 752.874 424.449L768.109 419.561C734.056 313.434 635.684 236.606 519.5 236.606L519.5 252.606Z" fill="black" mask="url(#path-3-inside-2_134_231196)"/>
<path d="M676.979 132.03C773.056 159.634 841.5 283.661 771.5 395.661C735 360.661 861.5 240.661 676.979 132.03Z" fill="black" fill-opacity="0.25"/>
<path d="M632.757 202.151C632.265 204.997 631.218 207.72 629.674 210.162C628.13 212.604 626.12 214.718 623.76 216.383C621.399 218.048 618.733 219.232 615.915 219.867C613.096 220.503 610.18 220.576 607.333 220.085C604.486 219.593 601.764 218.545 599.322 217.001C596.88 215.457 594.766 213.448 593.101 211.087C591.436 208.726 590.252 206.06 589.616 203.242C588.981 200.423 588.908 197.508 589.399 194.661" stroke="black" stroke-width="6" stroke-linecap="round"/>
<path d="M579.459 171.381C580.002 169.351 580.928 167.445 582.183 165.772C583.438 164.098 584.997 162.69 586.772 161.627C588.547 160.565 590.502 159.869 592.527 159.579C594.551 159.289 596.605 159.411 598.572 159.938C600.538 160.464 602.377 161.386 603.986 162.649C605.594 163.913 606.94 165.493 607.945 167.301C608.951 169.108 609.597 171.108 609.847 173.184C610.097 175.261 609.946 177.374 609.402 179.404" stroke="black" stroke-width="6" stroke-linecap="round"/>
<path d="M625.543 181.381C626.086 179.351 627.012 177.445 628.267 175.772C629.522 174.098 631.081 172.69 632.856 171.627C634.631 170.565 636.586 169.869 638.611 169.579C640.635 169.289 642.689 169.411 644.656 169.938C646.622 170.464 648.461 171.386 650.07 172.649C651.678 173.913 653.024 175.493 654.029 177.301C655.035 179.108 655.681 181.108 655.931 183.184C656.181 185.261 656.03 187.374 655.486 189.404" stroke="black" stroke-width="6" stroke-linecap="round"/>
<path d="M717.713 120.905L700.63 42.4507L681.51 128.454C743.828 144.72 818.428 217.188 796.647 333.994C813.867 349.989 818.101 358.686 829.5 369.661C841.117 367.833 847.623 365.56 875.547 359.588L819.766 305.531L882.71 257.465L810.328 230.573L852.132 161.49L774.359 166.188L787.517 86.628L717.713 120.905Z" fill="black" fill-opacity="0.25"/>
<path d="M410.985 260.222C465.025 233.686 530.154 226.539 594.342 244.98C693.533 273.48 762.194 354.963 774.842 446.471" stroke="black" stroke-opacity="0.25" stroke-width="8"/>
</svg>
