<svg width="1000" height="1000" viewBox="0 0 1000 1000" fill="none" xmlns="http://www.w3.org/2000/svg">
<path d="M668.622 42.2612C689.784 42.2612 707.828 63.9311 706.895 91.2365C706.863 92.1715 708.031 92.6985 708.711 92.0561C721.439 80.0333 734.696 76.7517 743.933 76.7517C767.462 76.7517 779.387 93.4628 779.387 118.538C779.387 128.546 771.47 136.88 765.714 144.271C765.227 144.896 765.641 145.806 766.43 145.881C788.199 147.954 811.438 161.308 811.438 184.761C811.438 208.874 789.17 220.95 766.894 222.429" stroke="black" stroke-opacity="0.25" stroke-width="8" stroke-linecap="round"/>
<mask id="path-2-inside-1_89_28323" fill="white">
<path fill-rule="evenodd" clip-rule="evenodd" d="M716.576 74.132C724.051 68.9208 733.171 65.8599 743.015 65.8599C768.377 65.8599 788.937 86.1782 788.937 111.242C788.937 121.22 785.678 130.445 780.156 137.936C779.675 138.59 780.097 139.543 780.904 139.627C803.998 142.01 822 161.308 822 184.761C822 208.215 803.998 227.512 780.904 229.896C780.097 229.979 779.675 230.933 780.156 231.586C785.678 239.077 788.937 248.303 788.937 258.281C788.937 283.344 768.377 303.663 743.015 303.663C733.171 303.663 724.051 300.602 716.576 295.391C715.941 294.948 715.045 295.333 714.926 296.097C712.889 309.184 705.194 320.428 694.388 327.312C692.025 306.348 674.978 279.736 647.938 258.153C615.956 232.624 579.954 222.081 559.045 230.311C558.886 230.045 558.614 229.845 558.269 229.803C535.574 227.05 518 207.934 518 184.761C518 161.589 535.574 142.472 558.269 139.719C559.067 139.623 559.474 138.677 558.996 138.032C553.431 130.524 550.145 121.262 550.145 111.242C550.145 86.1782 570.705 65.8599 596.066 65.8599C605.91 65.8599 615.03 68.9208 622.506 74.132C623.14 74.5742 624.037 74.1895 624.156 73.4255C627.543 51.664 646.573 35 669.541 35C692.509 35 711.539 51.664 714.926 73.4255C715.045 74.1895 715.941 74.5742 716.576 74.132Z"/>
</mask>
<path fill-rule="evenodd" clip-rule="evenodd" d="M716.576 74.132C724.051 68.9208 733.171 65.8599 743.015 65.8599C768.377 65.8599 788.937 86.1782 788.937 111.242C788.937 121.22 785.678 130.445 780.156 137.936C779.675 138.59 780.097 139.543 780.904 139.627C803.998 142.01 822 161.308 822 184.761C822 208.215 803.998 227.512 780.904 229.896C780.097 229.979 779.675 230.933 780.156 231.586C785.678 239.077 788.937 248.303 788.937 258.281C788.937 283.344 768.377 303.663 743.015 303.663C733.171 303.663 724.051 300.602 716.576 295.391C715.941 294.948 715.045 295.333 714.926 296.097C712.889 309.184 705.194 320.428 694.388 327.312C692.025 306.348 674.978 279.736 647.938 258.153C615.956 232.624 579.954 222.081 559.045 230.311C558.886 230.045 558.614 229.845 558.269 229.803C535.574 227.05 518 207.934 518 184.761C518 161.589 535.574 142.472 558.269 139.719C559.067 139.623 559.474 138.677 558.996 138.032C553.431 130.524 550.145 121.262 550.145 111.242C550.145 86.1782 570.705 65.8599 596.066 65.8599C605.91 65.8599 615.03 68.9208 622.506 74.132C623.14 74.5742 624.037 74.1895 624.156 73.4255C627.543 51.664 646.573 35 669.541 35C692.509 35 711.539 51.664 714.926 73.4255C715.045 74.1895 715.941 74.5742 716.576 74.132Z" fill="#4E9AE9"/>
<path d="M716.576 74.132L712.001 67.5693L712.001 67.5693L716.576 74.132ZM780.156 137.936L786.595 142.684L786.596 142.683L780.156 137.936ZM780.904 139.627L780.083 147.584H780.083L780.904 139.627ZM780.904 229.896L781.726 237.854L780.904 229.896ZM780.156 231.586L786.596 226.839L786.596 226.839L780.156 231.586ZM716.576 295.391L712.001 301.953L716.576 295.391ZM714.926 296.097L722.831 297.328V297.328L714.926 296.097ZM694.388 327.312L686.439 328.208L687.874 340.947L698.687 334.059L694.388 327.312ZM647.938 258.153L652.929 251.901H652.929L647.938 258.153ZM559.045 230.311L552.178 234.417L555.661 240.24L561.975 237.755L559.045 230.311ZM558.269 229.803L557.306 237.745H557.306L558.269 229.803ZM558.269 139.719L557.306 131.778H557.306L558.269 139.719ZM558.996 138.032L565.423 133.268L565.423 133.268L558.996 138.032ZM622.506 74.132L627.081 67.5693L627.081 67.5693L622.506 74.132ZM624.156 73.4255L616.251 72.195L616.251 72.195L624.156 73.4255ZM714.926 73.4255L722.831 72.195V72.195L714.926 73.4255ZM743.015 57.8599C731.489 57.8599 720.78 61.449 712.001 67.5693L721.15 80.6948C727.322 76.3926 734.853 73.8599 743.015 73.8599V57.8599ZM796.937 111.242C796.937 81.6711 772.706 57.8599 743.015 57.8599V73.8599C764.048 73.8599 780.937 90.6853 780.937 111.242H796.937ZM786.596 142.683C793.093 133.87 796.937 122.992 796.937 111.242H780.937C780.937 119.447 778.264 127.021 773.717 133.189L786.596 142.683ZM781.726 131.669C787.063 132.22 789.794 138.345 786.595 142.684L773.717 133.189C769.555 138.835 773.131 146.867 780.083 147.584L781.726 131.669ZM830 184.761C830 157.09 808.779 134.461 781.726 131.669L780.083 147.584C799.217 149.559 814 165.527 814 184.761H830ZM781.726 237.854C808.779 235.061 830 212.433 830 184.761H814C814 203.996 799.217 219.963 780.083 221.938L781.726 237.854ZM786.596 226.839C789.794 231.178 787.064 237.303 781.726 237.854L780.083 221.938C773.131 222.656 769.555 230.688 773.717 236.333L786.596 226.839ZM796.937 258.281C796.937 246.53 793.093 235.653 786.596 226.839L773.717 236.333C778.264 242.502 780.937 250.075 780.937 258.281H796.937ZM743.015 311.663C772.706 311.663 796.937 287.852 796.937 258.281H780.937C780.937 278.837 764.048 295.663 743.015 295.663V311.663ZM712.001 301.953C720.78 308.074 731.489 311.663 743.015 311.663V295.663C734.853 295.663 727.322 293.13 721.15 288.828L712.001 301.953ZM722.831 297.328C722.044 302.384 716.238 304.907 712.001 301.953L721.15 288.828C715.645 284.99 708.046 288.282 707.021 294.867L722.831 297.328ZM698.687 334.059C711.354 325.989 720.426 312.776 722.831 297.328L707.021 294.867C705.352 305.593 699.035 314.866 690.09 320.565L698.687 334.059ZM642.948 264.406C669.129 285.304 684.407 310.186 686.439 328.208L702.338 326.416C699.643 302.509 680.826 274.169 652.929 251.901L642.948 264.406ZM561.975 237.755C570.063 234.572 582.25 234.69 596.989 239.22C611.527 243.688 627.642 252.189 642.948 264.406L652.929 251.901C636.252 238.589 618.375 229.054 601.689 223.926C585.204 218.859 568.935 217.821 556.115 222.867L561.975 237.755ZM557.306 237.745C554.986 237.464 553.176 236.085 552.178 234.417L565.911 226.206C564.595 224.006 562.242 222.226 559.232 221.861L557.306 237.745ZM510 184.761C510 212.102 530.717 234.52 557.306 237.745L559.232 221.861C540.431 219.581 526 203.766 526 184.761H510ZM557.306 131.778C530.717 135.003 510 157.42 510 184.761H526C526 165.757 540.431 149.942 559.232 147.661L557.306 131.778ZM552.569 142.795C549.387 138.502 552.025 132.418 557.306 131.778L559.232 147.661C566.109 146.827 569.562 138.853 565.423 133.268L552.569 142.795ZM542.145 111.242C542.145 123.042 546.022 133.962 552.569 142.795L565.423 133.268C560.84 127.085 558.145 119.482 558.145 111.242H542.145ZM596.066 57.8599C566.376 57.8599 542.145 81.6711 542.145 111.242H558.145C558.145 90.6853 575.034 73.8599 596.066 73.8599V57.8599ZM627.081 67.5693C618.301 61.449 607.592 57.8599 596.066 57.8599V73.8599C604.228 73.8599 611.76 76.3926 617.931 80.6948L627.081 67.5693ZM616.251 72.195C617.038 67.1385 622.844 64.6153 627.081 67.5693L617.931 80.6948C623.437 84.5331 631.035 81.2405 632.06 74.6559L616.251 72.195ZM669.541 27C642.639 27 620.246 46.528 616.251 72.195L632.06 74.656C634.84 56.8 650.507 43 669.541 43V27ZM722.831 72.195C718.835 46.528 696.443 27 669.541 27V43C688.575 43 704.242 56.8 707.021 74.656L722.831 72.195ZM712.001 67.5693C716.238 64.6154 722.044 67.1384 722.831 72.195L707.021 74.6559C708.046 81.2406 715.645 84.5331 721.151 80.6948L712.001 67.5693Z" fill="#090909" mask="url(#path-2-inside-1_89_28323)"/>
<path d="M630.967 94.9046C615.354 79.4746 604.405 76.7517 594.689 76.7517C576.779 76.7517 561.166 90.7051 561.166 115.78C561.166 125.611 574.41 139.66 581.166 146.782C581.769 147.418 581.304 148.46 580.428 148.475C546.995 149.03 528.562 161.681 528.562 184.308C530.399 202.914 537.746 207.453 546.471 214.714" stroke="white" stroke-opacity="0.25" stroke-width="8" stroke-linecap="round"/>
<path fill-rule="evenodd" clip-rule="evenodd" d="M748.525 146.671L657.337 237.405L600.658 177.758L624.362 155.684L657.992 191.075L725.455 123.949L748.525 146.671Z" fill="white" stroke="#090909" stroke-width="8"/>
<path d="M743.933 162.07L657.843 247.389L604.332 191.302" stroke="black" stroke-opacity="0.25" stroke-width="8"/>
<path d="M559.313 230.022C565.327 222.523 612.396 226.061 646.444 253.313C680.492 280.565 690.298 302.246 694.338 326.808C680.502 335.587 675.864 284.523 640.589 259.344C594.566 226.493 553.299 237.522 559.313 230.022Z" fill="black" fill-opacity="0.25"/>
</svg>
