<svg width="1000" height="1000" viewBox="0 0 1000 1000" fill="none" xmlns="http://www.w3.org/2000/svg">
<g clip-path="url(#clip0_692_139899)">
<g filter="url(#filter0_d_692_139899)">
<mask id="path-1-inside-1_692_139899" fill="white">
<path fill-rule="evenodd" clip-rule="evenodd" d="M532.573 26.1758C532.167 25.5376 531.715 24.9295 531.221 24.3561L528.817 21.565C519.934 11.2492 502.921 16.2111 500.81 29.7338L485.047 130.705C484.154 136.424 479.361 140.743 473.587 141.224C470.455 141.485 467.342 140.58 464.892 138.64L341.491 40.9243C339.969 39.7188 338.114 39.0007 336.169 38.863C329.764 38.4098 324.622 44.1625 325.808 50.4552L347.836 167.328C348.552 171.126 346.56 174.936 343.056 176.628C340.642 177.793 337.834 177.787 335.465 176.576L152.71 83.1237C152.01 82.7655 151.247 82.5411 150.462 82.4618C144.941 81.9048 141.336 88.1812 144.632 92.6144L246.006 228.98C250.175 234.588 249.462 242.433 244.561 247.505C238.904 253.36 239.828 262.715 246.273 267.569L298.105 306.609C304.772 311.63 314.199 310.585 320.151 304.629C353.235 271.522 396.124 247.926 443.711 236.845C496.361 224.586 551.975 228.294 602.35 247.424C652.725 266.554 695.194 300.093 723.495 343.094C750.741 384.493 763.465 432.553 760.003 480.669C759.781 483.754 762.028 486.472 765.11 486.745L769.865 487.165C769.883 487.167 769.897 487.181 769.898 487.199C769.899 487.214 769.909 487.227 769.924 487.231L942.9 532.055C947.136 533.153 951.657 532.383 955.32 529.94C963.879 524.234 964.607 511.965 956.776 505.441L858.182 423.301C855.734 421.262 854.13 418.398 853.594 415.25C852.772 410.428 854.542 405.478 858.357 402.36L967.792 312.921C971.734 309.699 973.348 304.431 971.872 299.601C970.189 294.089 964.912 290.496 959.136 290.929L816.465 301.64C812.508 301.937 808.741 300.032 806.573 296.739C804.234 293.184 804.117 288.577 806.373 284.927L878.503 168.218C881.33 163.644 881.017 157.822 877.72 153.632C874.159 149.107 867.976 147.561 862.642 149.861L725.748 208.905C724.27 209.543 722.573 209.356 721.276 208.425C720.332 207.748 719.682 206.736 719.468 205.592L692.06 59.4294C691.676 57.3797 690.639 55.5142 689.104 54.109C684.532 49.9236 677.213 51.0784 674.071 56.4811L616.08 156.194C615.986 156.357 615.792 156.433 615.614 156.378C615.523 156.351 615.446 156.292 615.395 156.213L532.573 26.1758Z"/>
</mask>
<path fill-rule="evenodd" clip-rule="evenodd" d="M532.573 26.1758C532.167 25.5376 531.715 24.9295 531.221 24.3561L528.817 21.565C519.934 11.2492 502.921 16.2111 500.81 29.7338L485.047 130.705C484.154 136.424 479.361 140.743 473.587 141.224C470.455 141.485 467.342 140.58 464.892 138.64L341.491 40.9243C339.969 39.7188 338.114 39.0007 336.169 38.863C329.764 38.4098 324.622 44.1625 325.808 50.4552L347.836 167.328C348.552 171.126 346.56 174.936 343.056 176.628C340.642 177.793 337.834 177.787 335.465 176.576L152.71 83.1237C152.01 82.7655 151.247 82.5411 150.462 82.4618C144.941 81.9048 141.336 88.1812 144.632 92.6144L246.006 228.98C250.175 234.588 249.462 242.433 244.561 247.505C238.904 253.36 239.828 262.715 246.273 267.569L298.105 306.609C304.772 311.63 314.199 310.585 320.151 304.629C353.235 271.522 396.124 247.926 443.711 236.845C496.361 224.586 551.975 228.294 602.35 247.424C652.725 266.554 695.194 300.093 723.495 343.094C750.741 384.493 763.465 432.553 760.003 480.669C759.781 483.754 762.028 486.472 765.11 486.745L769.865 487.165C769.883 487.167 769.897 487.181 769.898 487.199C769.899 487.214 769.909 487.227 769.924 487.231L942.9 532.055C947.136 533.153 951.657 532.383 955.32 529.94C963.879 524.234 964.607 511.965 956.776 505.441L858.182 423.301C855.734 421.262 854.13 418.398 853.594 415.25C852.772 410.428 854.542 405.478 858.357 402.36L967.792 312.921C971.734 309.699 973.348 304.431 971.872 299.601C970.189 294.089 964.912 290.496 959.136 290.929L816.465 301.64C812.508 301.937 808.741 300.032 806.573 296.739C804.234 293.184 804.117 288.577 806.373 284.927L878.503 168.218C881.33 163.644 881.017 157.822 877.72 153.632C874.159 149.107 867.976 147.561 862.642 149.861L725.748 208.905C724.27 209.543 722.573 209.356 721.276 208.425C720.332 207.748 719.682 206.736 719.468 205.592L692.06 59.4294C691.676 57.3797 690.639 55.5142 689.104 54.109C684.532 49.9236 677.213 51.0784 674.071 56.4811L616.08 156.194C615.986 156.357 615.792 156.433 615.614 156.378C615.523 156.351 615.446 156.292 615.395 156.213L532.573 26.1758Z" fill="#FFED00"/>
<path d="M602.35 247.424L605.258 239.95L602.35 247.424ZM723.495 343.094L730.199 338.661L723.495 343.094ZM615.395 156.213L622.164 151.879L615.395 156.213ZM616.08 156.194L622.996 160.159L616.08 156.194ZM674.071 56.4811L667.155 52.5165L674.071 56.4811ZM692.06 59.4294L684.19 60.9708L692.06 59.4294ZM719.468 205.592L711.597 207.134L719.468 205.592ZM725.748 208.905L722.63 201.573L725.748 208.905ZM862.642 149.861L859.524 142.528L862.642 149.861ZM878.503 168.218L871.699 164.068L878.503 168.218ZM806.373 284.927L813.177 289.078L806.373 284.927ZM858.357 402.36L863.395 408.526L858.357 402.36ZM858.182 423.301L863.346 417.145L858.182 423.301ZM956.776 505.441L951.611 511.597L956.776 505.441ZM942.9 532.055L944.98 524.317L942.9 532.055ZM769.924 487.231L772.004 479.494L769.924 487.231ZM769.865 487.165L770.646 479.204L769.865 487.165ZM760.003 480.669L752.017 480.17L760.003 480.669ZM765.11 486.745L764.33 494.707L765.11 486.745ZM298.105 306.609L302.966 300.212L298.105 306.609ZM320.151 304.629L325.793 310.247L320.151 304.629ZM246.273 267.569L241.413 273.966L246.273 267.569ZM246.006 228.98L239.56 233.782L246.006 228.98ZM152.71 83.1237L149.007 90.2448L152.71 83.1237ZM335.465 176.576L331.762 183.697L335.465 176.576ZM347.836 167.328L339.966 168.877L347.836 167.328ZM325.808 50.4552L317.939 52.0038L325.808 50.4552ZM341.491 40.9243L346.503 34.6443L341.491 40.9243ZM464.892 138.64L459.88 144.92L464.892 138.64ZM816.465 301.64L816.991 309.61L816.465 301.64ZM485.047 130.705L477.136 129.547L485.047 130.705ZM959.136 290.929L959.662 298.9L959.136 290.929ZM531.221 24.3561L537.314 19.1131L531.221 24.3561ZM532.573 26.1758L525.805 30.5091L532.573 26.1758ZM967.792 312.921L972.829 319.086L967.792 312.921ZM528.817 21.565L522.725 26.808L528.817 21.565ZM522.725 26.808L525.129 29.5992L537.314 19.1131L534.91 16.3219L522.725 26.808ZM492.958 131.864L508.721 30.8924L492.899 28.5751L477.136 129.547L492.958 131.864ZM336.479 47.2042L459.88 144.92L469.904 132.36L346.503 34.6443L336.479 47.2042ZM355.705 165.779L333.678 48.9066L317.939 52.0038L339.966 168.877L355.705 165.779ZM149.007 90.2448L331.762 183.697L339.168 169.455L156.413 76.0027L149.007 90.2448ZM252.452 224.178L151.078 87.8126L138.186 97.4162L239.56 233.782L252.452 224.178ZM302.966 300.212L251.134 261.173L241.413 273.966L293.245 313.006L302.966 300.212ZM441.961 229.062C392.962 240.472 348.706 264.789 314.508 299.01L325.793 310.247C357.763 278.255 399.286 255.381 445.461 244.629L441.961 229.062ZM605.258 239.95C553.403 220.258 496.168 216.44 441.961 229.062L445.461 244.629C496.555 232.731 550.547 236.33 599.442 254.898L605.258 239.95ZM730.199 338.661C700.944 294.209 657.115 259.643 605.258 239.95L599.442 254.898C648.335 273.465 689.445 305.977 716.79 347.526L730.199 338.661ZM767.99 481.167C771.58 431.254 758.372 381.47 730.199 338.661L716.79 347.526C743.109 387.517 755.349 433.853 752.017 480.17L767.99 481.167ZM770.646 479.204L765.89 478.783L764.33 494.707L769.085 495.127L770.646 479.204ZM944.98 524.317L772.004 479.494L767.845 494.969L940.821 539.793L944.98 524.317ZM853.018 429.457L951.611 511.597L961.94 499.284L863.346 417.145L853.018 429.457ZM962.754 306.755L853.319 396.194L863.395 408.526L972.829 319.086L962.754 306.755ZM816.991 309.61L959.662 298.9L958.61 282.959L815.938 293.669L816.991 309.61ZM871.699 164.068L799.569 280.776L813.177 289.078L885.306 172.369L871.699 164.068ZM728.866 216.238L865.76 157.194L859.524 142.528L722.63 201.573L728.866 216.238ZM684.19 60.9708L711.597 207.134L727.339 204.051L699.931 57.888L684.19 60.9708ZM622.996 160.159L680.986 60.4457L667.155 52.5165L609.165 152.23L622.996 160.159ZM525.805 30.5091L608.627 160.546L622.164 151.879L539.342 21.8426L525.805 30.5091ZM618.024 148.734C619.738 149.258 621.204 150.372 622.164 151.879L608.627 160.546C609.688 162.212 611.309 163.443 613.203 164.023L618.024 148.734ZM609.165 152.23C610.957 149.149 614.635 147.698 618.024 148.734L613.203 164.023C616.949 165.168 621.015 163.564 622.996 160.159L609.165 152.23ZM694.546 48.1948C686.215 40.5692 672.88 42.6732 667.155 52.5165L680.986 60.4457C681.545 59.4836 682.849 59.2779 683.663 60.0233L694.546 48.1948ZM699.931 57.888C699.231 54.1537 697.342 50.7549 694.546 48.1948L683.663 60.0233C683.936 60.2735 684.121 60.6058 684.19 60.9708L699.931 57.888ZM725.988 201.919C726.678 202.415 727.173 203.17 727.339 204.051L711.597 207.134C712.191 210.302 713.985 213.082 716.564 214.932L725.988 201.919ZM722.63 201.573C723.768 201.082 725.039 201.239 725.988 201.919L716.564 214.932C720.108 217.473 724.772 218.004 728.866 216.238L722.63 201.573ZM884.034 148.658C878.245 141.302 868.194 138.789 859.524 142.528L865.76 157.194C867.757 156.333 870.072 156.912 871.406 158.606L884.034 148.658ZM885.306 172.369C889.902 164.933 889.394 155.469 884.034 148.658L871.406 158.606C872.64 160.175 872.757 162.355 871.699 164.068L885.306 172.369ZM813.278 292.307C812.585 291.254 812.612 289.992 813.177 289.078L799.569 280.776C795.623 287.163 795.883 295.114 799.869 301.171L813.278 292.307ZM861.488 413.839C861.131 411.742 861.919 409.731 863.395 408.526L853.319 396.194C847.165 401.224 844.414 409.113 845.7 416.661L861.488 413.839ZM863.346 417.145C862.396 416.353 861.719 415.194 861.488 413.839L845.7 416.661C846.541 421.601 849.072 426.17 853.018 429.457L863.346 417.145ZM959.725 536.574C972.751 527.888 973.86 509.215 961.94 499.284L951.611 511.597C955.355 514.715 955.006 520.579 950.916 523.307L959.725 536.574ZM940.821 539.793C947.268 541.463 954.149 540.292 959.725 536.574L950.916 523.307C949.165 524.474 947.004 524.842 944.98 524.317L940.821 539.793ZM761.903 487.716C762.096 491.176 764.492 494.1 767.845 494.969L772.004 479.494C775.327 480.355 777.702 483.253 777.893 486.681L761.903 487.716ZM769.085 495.127C765.171 494.781 762.121 491.634 761.903 487.716L777.893 486.681C777.673 482.728 774.596 479.553 770.646 479.204L769.085 495.127ZM752.017 480.17C751.493 487.447 756.793 494.04 764.33 494.707L765.89 478.783C767.262 478.904 768.069 480.062 767.99 481.167L752.017 480.17ZM293.245 313.006C303.335 320.606 317.226 318.821 325.793 310.247L314.508 299.01C311.172 302.349 306.209 302.655 302.966 300.212L293.245 313.006ZM238.823 241.984C229.641 251.487 231.357 266.392 241.413 273.966L251.134 261.173C248.3 259.038 248.167 255.233 250.299 253.026L238.823 241.984ZM239.56 233.782C241.296 236.116 241.121 239.606 238.823 241.984L250.299 253.026C257.802 245.26 259.054 233.059 252.452 224.178L239.56 233.782ZM151.341 74.5093C138.883 73.2524 130.75 87.4136 138.186 97.4162L151.078 87.8126C151.227 88.0142 151.366 88.3526 151.379 88.7447C151.39 89.0961 151.299 89.3819 151.178 89.5931C151.057 89.8042 150.855 90.0276 150.545 90.1969C150.198 90.3857 149.835 90.4397 149.583 90.4144L151.341 74.5093ZM156.413 76.0027C154.833 75.1945 153.113 74.6881 151.341 74.5093L149.583 90.4144C149.382 90.3941 149.187 90.3366 149.007 90.2448L156.413 76.0027ZM339.624 169.439C339.435 169.53 339.269 169.507 339.168 169.455L331.762 183.697C336.399 186.068 341.85 186.057 346.488 183.817L339.624 169.439ZM339.966 168.877C339.994 169.022 339.926 169.293 339.624 169.439L346.488 183.817C353.194 180.579 357.109 173.23 355.705 165.779L339.966 168.877ZM336.809 30.89C325.143 30.0645 315.779 40.5425 317.939 52.0038L333.678 48.9066C333.466 47.7826 334.384 46.7551 335.528 46.836L336.809 30.89ZM346.503 34.6443C343.73 32.4487 340.353 31.1408 336.809 30.89L335.528 46.836C335.876 46.8606 336.207 46.9889 336.479 47.2042L346.503 34.6443ZM472.996 133.259C471.829 133.356 470.73 133.014 469.904 132.36L459.88 144.92C463.953 148.145 469.082 149.614 474.179 149.189L472.996 133.259ZM815.938 293.669C814.955 293.743 813.913 293.271 813.278 292.307L799.869 301.171C803.569 306.794 810.061 310.13 816.991 309.61L815.938 293.669ZM477.136 129.547C476.836 131.465 475.184 133.077 472.996 133.259L474.179 149.189C483.539 148.41 491.472 141.383 492.958 131.864L477.136 129.547ZM979.533 297.205C976.767 288.149 968.098 282.247 958.61 282.959L959.662 298.9C961.725 298.745 963.61 300.028 964.212 301.997L979.533 297.205ZM525.129 29.5992C525.376 29.8859 525.602 30.1899 525.805 30.5091L539.342 21.8426C538.732 20.8852 538.054 19.9731 537.314 19.1131L525.129 29.5992ZM972.829 319.086C979.305 313.793 981.957 305.139 979.533 297.205L964.212 301.997C964.739 303.723 964.162 305.604 962.754 306.755L972.829 319.086ZM534.91 16.3219C521.584 0.8482 496.065 8.29113 492.899 28.5751L508.721 30.8924C509.777 24.1311 518.283 21.6501 522.725 26.808L534.91 16.3219Z" fill="black" mask="url(#path-1-inside-1_692_139899)"/>
</g>
<path fill-rule="evenodd" clip-rule="evenodd" d="M545.778 60.6131L520.876 22.218L557.01 190.256C539.778 187.487 522.326 186.108 504.855 186.135L351.544 58.2431L335.108 45.9187L442.658 192.241C440.426 192.681 438.197 193.145 435.973 193.632C416.396 197.925 397.455 204 379.402 211.714L202.628 118.443L164.508 99.1523L317.046 247.544C303.227 257.861 290.368 269.346 278.648 281.897L308.744 305.89C344.378 267.725 392.155 240.92 445.33 229.261C498.504 217.601 554.391 221.676 605.1 240.909C655.81 260.143 698.781 293.564 727.948 336.454C757.116 379.345 771.006 429.539 767.658 479.951L774.488 480.371L948.74 525.62L809.734 433.513L930.669 334.229L966.934 303.188L784.636 358.382C780.562 349.34 775.964 340.477 770.854 331.833L853.069 195.233L874.291 159.719L737.788 286.904C735.217 284.051 732.588 281.249 729.9 278.498L691.402 94.0657L683.173 53.7273L675.895 234.899C664.857 227.928 653.302 221.621 641.3 216.032L545.778 60.6131ZM807.131 435.651L806.167 436.442C806.178 436.54 806.189 436.638 806.201 436.737L807.131 435.651Z" fill="black" fill-opacity="0.25"/>
<path d="M201.133 145.935L270.859 242.117L274.843 268.23L302.765 242.117L201.133 145.935Z" fill="white" fill-opacity="0.25"/>
<path d="M379.431 198.55L423.906 185.708L342.078 65.8264L379.431 198.55Z" fill="white" fill-opacity="0.25"/>
<path d="M509.531 180.631L545.388 180.714L513.406 35.4897L509.531 180.631Z" fill="white" fill-opacity="0.25"/>
<path d="M628.441 177.279L664.855 219.329L671.91 84.5225L628.441 177.279Z" fill="white" fill-opacity="0.25"/>
<path d="M729.877 231.236L735.818 275.326L863.858 162.584L729.877 231.236Z" fill="white" fill-opacity="0.25"/>
<path d="M836.637 422.758L822.692 432.713L942.22 511.873L836.637 422.758Z" fill="white" fill-opacity="0.25"/>
<path d="M936.241 306.625L794.797 318.476L783.841 330.326L789.356 346.829L936.241 306.625Z" fill="white" fill-opacity="0.25"/>
</g>
<defs>
<filter id="filter0_d_692_139899" x="138.371" y="16.0486" width="837.039" height="527.495" filterUnits="userSpaceOnUse" color-interpolation-filters="sRGB">
<feFlood flood-opacity="0" result="BackgroundImageFix"/>
<feColorMatrix in="SourceAlpha" type="matrix" values="0 0 0 0 0 0 0 0 0 0 0 0 0 0 0 0 0 0 127 0" result="hardAlpha"/>
<feOffset dx="-1" dy="7"/>
<feGaussianBlur stdDeviation="2"/>
<feComposite in2="hardAlpha" operator="out"/>
<feColorMatrix type="matrix" values="0 0 0 0 0 0 0 0 0 0 0 0 0 0 0 0 0 0 0.25 0"/>
<feBlend mode="normal" in2="BackgroundImageFix" result="effect1_dropShadow_692_139899"/>
<feBlend mode="normal" in="SourceGraphic" in2="effect1_dropShadow_692_139899" result="shape"/>
</filter>
<clipPath id="clip0_692_139899">
<rect width="1000" height="1000" fill="white"/>
</clipPath>
</defs>
</svg>
