<svg width="1000" height="1000" viewBox="0 0 1000 1000" fill="none" xmlns="http://www.w3.org/2000/svg">
<mask id="path-1-inside-1_239_3771" fill="white">
<path fill-rule="evenodd" clip-rule="evenodd" d="M167 424.59C167 245.324 316.089 100 500 100C683.911 100 833 245.324 833 424.59C833 516.219 813.547 598.98 750.904 658H247.043C184.401 598.98 167 516.219 167 424.59ZM344 408.176C321.909 408.176 304 426.084 304 448.176V449.083C304 471.175 321.909 489.083 344 489.083H464C486.091 489.083 504 471.175 504 449.083V448.176C504 426.084 486.091 408.176 464 408.176H344Z"/>
</mask>
<path fill-rule="evenodd" clip-rule="evenodd" d="M167 424.59C167 245.324 316.089 100 500 100C683.911 100 833 245.324 833 424.59C833 516.219 813.547 598.98 750.904 658H247.043C184.401 598.98 167 516.219 167 424.59ZM344 408.176C321.909 408.176 304 426.084 304 448.176V449.083C304 471.175 321.909 489.083 344 489.083H464C486.091 489.083 504 471.175 504 449.083V448.176C504 426.084 486.091 408.176 464 408.176H344Z" fill="#3C3C3C"/>
<path d="M435 418.345H438H435ZM347.085 649.187C303.316 591.485 276 510.416 276 420.518H270C270 511.579 297.66 593.957 342.305 652.813L347.085 649.187ZM361 420.518C361 332.347 377.731 252.671 404.651 195.149C431.684 137.386 468.432 103 508 103V97C464.725 97 426.474 134.364 399.217 192.606C371.847 251.089 355 331.671 355 420.518H361ZM438 417.471C438 329.923 444.261 250.738 454.356 193.506C459.408 164.866 465.396 141.869 471.971 126.103C475.264 118.207 478.635 112.296 481.986 108.409C485.355 104.501 488.373 103 491 103V97C485.895 97 481.364 99.9407 477.442 104.491C473.502 109.061 469.84 115.625 466.433 123.794C459.609 140.157 453.53 163.653 448.448 192.464C438.275 250.134 432 329.684 432 417.471H438ZM448.451 588.133C438.004 530.888 438 507.24 438 418.345H432C432 507.252 431.995 531.381 442.549 589.21L448.451 588.133ZM438 418.345V417.471H432V418.345H438ZM517 417.471C517 329.755 514.424 250.312 510.256 192.768C508.172 164.01 505.686 140.651 502.91 124.442C501.525 116.36 500.047 109.922 498.463 105.449C497.678 103.231 496.805 101.315 495.794 99.8968C494.855 98.5811 493.289 97 491 97V103C490.299 103 490.302 102.529 490.909 103.381C491.444 104.131 492.095 105.44 492.807 107.451C494.218 111.435 495.628 117.472 496.996 125.455C499.723 141.376 502.193 164.509 504.271 193.202C508.427 250.56 511 329.852 511 417.471H517ZM509.975 645.986C514.309 588.164 517 507.139 517 417.471H511C511 507.041 508.311 587.909 503.991 645.538L509.975 645.986ZM594 417.471C594 329.585 582.783 249.899 564.572 192.084C555.472 163.194 544.574 139.596 532.331 123.157C520.129 106.772 506.195 97 491 97V103C503.419 103 515.793 110.995 527.518 126.74C539.203 142.43 549.853 165.325 558.849 193.886C576.831 250.973 588 330.023 588 417.471H594ZM563.344 646.691C582.279 588.587 594 507.311 594 417.471H588C588 506.869 576.327 587.485 557.639 644.832L563.344 646.691ZM652.841 554.018C691.863 438.775 676.721 324.736 639.383 239.492C620.714 196.873 596.455 161.352 570.527 136.44C544.659 111.585 516.812 97 491 97V103C514.618 103 541.048 116.436 566.37 140.766C591.632 165.039 615.475 199.866 633.887 241.9C670.708 325.963 685.637 438.452 647.158 552.094L652.841 554.018ZM752 417.471C752 241.091 635.698 97 491 97V103C631.281 103 746 243.182 746 417.471H752ZM238 417.471C238 243.182 352.719 103 493 103V97C348.302 97 232 241.091 232 417.471H238ZM750.904 658V664C752.434 664 753.906 663.416 755.019 662.367L750.904 658ZM247.043 658L242.929 662.367C244.042 663.416 245.514 664 247.043 664V658ZM500 94C312.921 94 161 241.866 161 424.59H173C173 248.781 319.257 106 500 106V94ZM839 424.59C839 241.866 687.079 94 500 94V106C680.743 106 827 248.781 827 424.59H839ZM755.019 662.367C819.409 601.701 839 516.935 839 424.59H827C827 515.502 807.685 596.26 746.79 653.633L755.019 662.367ZM247.043 664H750.904V652H247.043V664ZM161 424.59C161 516.808 178.482 601.647 242.929 662.367L251.158 653.633C190.319 596.313 173 515.629 173 424.59H161ZM310 448.176C310 429.398 325.222 414.176 344 414.176V402.176C318.595 402.176 298 422.771 298 448.176H310ZM310 449.083V448.176H298V449.083H310ZM344 483.083C325.222 483.083 310 467.861 310 449.083H298C298 474.488 318.595 495.083 344 495.083V483.083ZM464 483.083H344V495.083H464V483.083ZM498 449.083C498 467.861 482.778 483.083 464 483.083V495.083C489.405 495.083 510 474.488 510 449.083H498ZM498 448.176V449.083H510V448.176H498ZM464 414.176C482.778 414.176 498 429.398 498 448.176H510C510 422.771 489.405 402.176 464 402.176V414.176ZM344 414.176H464V402.176H344V414.176Z" fill="black" mask="url(#path-1-inside-1_239_3771)"/>
<path d="M344.649 485.924C327.415 485.994 305 471.82 305 445.404C306.359 418.893 324.958 404.301 344.061 404.025C347.479 403.976 350 406.942 350 410.36C350 413.703 347.556 416.524 344.319 417.36C306.742 427.068 306.894 462.63 344.777 473.39C347.776 474.242 350 475.785 350 478.903C350 482.034 347.78 485.911 344.649 485.924Z" fill="black" fill-opacity="0.25"/>
<path d="M832 423.991C832 257.366 698.512 120.959 529.529 109.745C526.034 109.513 525.284 114.281 528.624 115.336C736.858 181.063 833.796 353.212 743.949 640.754C743.024 643.715 746.539 646.049 748.709 643.832C804.274 587.082 832 508.766 832 423.991Z" fill="black" fill-opacity="0.25"/>
<path d="M183 415C183 256.931 310.099 126.855 473.184 110.691C476.832 110.329 477.413 115.185 473.852 116.056C269.652 166 121.353 336.394 256.387 622.356C257.806 625.361 254.297 628.147 252.012 625.735C199.986 570.834 183 495.712 183 415Z" fill="white" fill-opacity="0.25"/>
<rect x="214" y="598" width="74.7778" height="96.9999" rx="36" fill="#3C3C3C" stroke="black" stroke-width="8"/>
<rect x="360.635" y="598" width="74.7778" height="96.9999" rx="36" fill="#3C3C3C" stroke="black" stroke-width="8"/>
<rect x="287.317" y="598" width="74.7778" height="96.9999" rx="36" fill="#3C3C3C" stroke="black" stroke-width="8"/>
<rect x="507.27" y="598" width="74.7778" height="96.9999" rx="36" fill="#3C3C3C" stroke="black" stroke-width="8"/>
<rect x="433.952" y="598" width="74.7778" height="96.9999" rx="36" fill="#3C3C3C" stroke="black" stroke-width="8"/>
<rect x="653.905" y="598" width="74.7778" height="96.9999" rx="36" fill="#3C3C3C" stroke="black" stroke-width="8"/>
<rect x="580.587" y="598" width="74.7778" height="96.9999" rx="36" fill="#3C3C3C" stroke="black" stroke-width="8"/>
<rect x="727.222" y="598" width="74.7778" height="96.9999" rx="36" fill="#3C3C3C" stroke="black" stroke-width="8"/>
<path d="M765.794 618.706C765.794 610.216 772.677 603.333 781.167 603.333C789.657 603.333 796.54 610.216 796.54 618.706V674.293C796.54 682.784 789.657 689.666 781.167 689.666C772.677 689.666 765.794 682.784 765.794 674.293V618.706Z" fill="black" fill-opacity="0.25"/>
<path d="M692.476 618.706C692.476 610.216 699.359 603.333 707.849 603.333C716.339 603.333 723.222 610.216 723.222 618.706V674.293C723.222 682.784 716.339 689.666 707.849 689.666C699.359 689.666 692.476 682.784 692.476 674.293V618.706Z" fill="black" fill-opacity="0.25"/>
<path d="M619.159 618.706C619.159 610.216 626.041 603.333 634.532 603.333C643.022 603.333 649.905 610.216 649.905 618.706V674.293C649.905 682.784 643.022 689.666 634.532 689.666C626.041 689.666 619.159 682.784 619.159 674.293V618.706Z" fill="black" fill-opacity="0.25"/>
<path d="M545.841 618.706C545.841 610.216 552.724 603.333 561.214 603.333C569.705 603.333 576.587 610.216 576.587 618.706V674.293C576.587 682.784 569.705 689.666 561.214 689.666C552.724 689.666 545.841 682.784 545.841 674.293V618.706Z" fill="black" fill-opacity="0.25"/>
<path d="M472.524 618.706C472.524 610.216 479.407 603.333 487.897 603.333C496.387 603.333 503.27 610.216 503.27 618.706V674.293C503.27 682.784 496.387 689.666 487.897 689.666C479.407 689.666 472.524 682.784 472.524 674.293V618.706Z" fill="black" fill-opacity="0.25"/>
<path d="M399.207 618.706C399.207 610.216 406.089 603.333 414.58 603.333C423.07 603.333 429.953 610.216 429.953 618.706V674.293C429.953 682.784 423.07 689.666 414.58 689.666C406.089 689.666 399.207 682.784 399.207 674.293V618.706Z" fill="black" fill-opacity="0.25"/>
<path d="M325.889 618.706C325.889 610.216 332.771 603.333 341.262 603.333C349.752 603.333 356.635 610.216 356.635 618.706V674.293C356.635 682.784 349.752 689.666 341.262 689.666C332.771 689.666 325.889 682.784 325.889 674.293V618.706Z" fill="black" fill-opacity="0.25"/>
<path d="M252.571 618.706C252.571 610.216 259.454 603.333 267.944 603.333C276.435 603.333 283.317 610.216 283.317 618.706V674.293C283.317 682.784 276.435 689.666 267.944 689.666C259.454 689.666 252.571 682.784 252.571 674.293V618.706Z" fill="black" fill-opacity="0.25"/>
<path d="M292.778 615.639C292.778 613.353 294.631 611.5 296.917 611.5C299.203 611.5 301.056 613.353 301.056 615.639V677.361C301.056 679.647 299.203 681.5 296.917 681.5C294.631 681.5 292.778 679.647 292.778 677.361V615.639Z" fill="black" fill-opacity="0.25"/>
<path d="M366.095 615.639C366.095 613.353 367.948 611.5 370.234 611.5C372.52 611.5 374.373 613.353 374.373 615.639V677.361C374.373 679.647 372.52 681.5 370.234 681.5C367.948 681.5 366.095 679.647 366.095 677.361V615.639Z" fill="black" fill-opacity="0.25"/>
<path d="M438.23 615.639C438.23 613.353 440.083 611.5 442.369 611.5C444.655 611.5 446.508 613.353 446.508 615.639V677.361C446.508 679.647 444.655 681.5 442.369 681.5C440.083 681.5 438.23 679.647 438.23 677.361V615.639Z" fill="black" fill-opacity="0.25"/>
<path d="M512.73 615.639C512.73 613.353 514.584 611.5 516.869 611.5C519.155 611.5 521.008 613.353 521.008 615.639V677.361C521.008 679.647 519.155 681.5 516.869 681.5C514.584 681.5 512.73 679.647 512.73 677.361V615.639Z" fill="black" fill-opacity="0.25"/>
<path d="M586.048 615.639C586.048 613.353 587.901 611.5 590.187 611.5C592.473 611.5 594.326 613.353 594.326 615.639V677.361C594.326 679.647 592.473 681.5 590.187 681.5C587.901 681.5 586.048 679.647 586.048 677.361V615.639Z" fill="black" fill-opacity="0.25"/>
<path d="M659.365 615.639C659.365 613.353 661.218 611.5 663.504 611.5C665.79 611.5 667.643 613.353 667.643 615.639V677.361C667.643 679.647 665.79 681.5 663.504 681.5C661.218 681.5 659.365 679.647 659.365 677.361V615.639Z" fill="black" fill-opacity="0.25"/>
<path d="M731.5 615.639C731.5 613.353 733.353 611.5 735.639 611.5C737.925 611.5 739.778 613.353 739.778 615.639V677.361C739.778 679.647 737.925 681.5 735.639 681.5C733.353 681.5 731.5 679.647 731.5 677.361V615.639Z" fill="black" fill-opacity="0.25"/>
<path d="M404.902 308.382L403 302.528L401.098 308.382L395.934 324.275H379.224H373.068L378.048 327.893L391.567 337.715L386.403 353.607L384.501 359.461L389.481 355.843L403 346.021L416.519 355.843L421.499 359.461L419.597 353.607L414.433 337.715L427.952 327.893L432.932 324.275H426.776H410.066L404.902 308.382Z" fill="#E40303" stroke="black" stroke-width="4"/>
<path d="M426.776 326.275H408.613L403 343.549L417.695 354.226L412.082 336.951L426.776 326.275Z" fill="black" fill-opacity="0.25"/>
</svg>
