<svg width="1000" height="1000" viewBox="0 0 1000 1000" fill="none" xmlns="http://www.w3.org/2000/svg">
<g filter="url(#filter0_d_47_20407)">
<mask id="path-1-outside-1_47_20407" maskUnits="userSpaceOnUse" x="178.055" y="182" width="646" height="366" fill="black">
<rect fill="white" x="178.055" y="182" width="646" height="366"/>
<path fill-rule="evenodd" clip-rule="evenodd" d="M719.537 271.851C767.577 315.397 798.125 371.835 807.082 432.195C807.272 433.476 807.711 434.706 808.304 435.859C812.981 444.963 816 459.337 816 475.511C816 503.035 807.258 525.347 796.474 525.347C785.691 525.347 776.949 503.035 776.949 475.511C776.949 472.213 774.333 469.456 771.035 469.456H743.214C739.721 469.456 736.538 471.323 734.432 474.11C733.852 474.877 733.256 475.622 732.646 476.344C730.742 478.595 729.643 481.444 729.674 484.392C729.677 484.657 729.678 484.921 729.678 485.187C729.678 504.542 722.317 520.231 713.236 520.231C704.981 520.231 698.147 507.266 696.972 490.368C696.891 489.208 696.177 488.203 695.13 487.697C692.557 486.455 688.523 488.639 688.565 491.495C688.57 491.788 688.572 492.081 688.572 492.376C688.572 518.678 671.318 540 650.035 540C628.752 540 611.499 518.678 611.499 492.376C611.499 489.595 611.691 486.871 612.061 484.221C613.062 477.051 608.089 469.456 600.85 469.456H571.293C567.856 469.456 565.255 472.54 565.255 475.977C565.255 492.954 555.133 506.717 542.647 506.717C530.161 506.717 520.039 492.954 520.039 475.977C520.039 472.54 517.438 469.456 514.001 469.456H501.541C498.853 469.456 496.606 471.462 496.095 474.101C491.549 497.61 475.927 514.936 457.353 514.936C447.963 514.936 439.326 510.508 432.495 503.09C426.546 496.631 412.67 495.115 405.391 500.028C395.902 506.434 383.756 510.279 370.517 510.279C355.318 510.279 341.56 505.211 331.608 497.019C327.046 493.264 320.135 492.892 314.472 494.576C312.362 495.203 310.134 495.539 307.831 495.539C299.16 495.539 291.556 490.779 287.297 483.632C284.712 479.294 278.454 476.357 273.405 476.357C267.804 476.357 260.166 479.695 258.658 485.089C253.299 504.264 239.608 517.898 223.564 517.898C202.848 517.898 186.055 495.168 186.055 467.129C186.055 454.827 189.288 443.547 194.666 434.76C195.453 433.474 196.016 432.058 196.247 430.568C205.508 370.822 235.937 315.006 283.545 271.851C341.361 219.443 419.777 190 501.541 190C583.305 190 661.721 219.443 719.537 271.851Z"/>
</mask>
<path fill-rule="evenodd" clip-rule="evenodd" d="M719.537 271.851C767.577 315.397 798.125 371.835 807.082 432.195C807.272 433.476 807.711 434.706 808.304 435.859C812.981 444.963 816 459.337 816 475.511C816 503.035 807.258 525.347 796.474 525.347C785.691 525.347 776.949 503.035 776.949 475.511C776.949 472.213 774.333 469.456 771.035 469.456H743.214C739.721 469.456 736.538 471.323 734.432 474.11C733.852 474.877 733.256 475.622 732.646 476.344C730.742 478.595 729.643 481.444 729.674 484.392C729.677 484.657 729.678 484.921 729.678 485.187C729.678 504.542 722.317 520.231 713.236 520.231C704.981 520.231 698.147 507.266 696.972 490.368C696.891 489.208 696.177 488.203 695.13 487.697C692.557 486.455 688.523 488.639 688.565 491.495C688.57 491.788 688.572 492.081 688.572 492.376C688.572 518.678 671.318 540 650.035 540C628.752 540 611.499 518.678 611.499 492.376C611.499 489.595 611.691 486.871 612.061 484.221C613.062 477.051 608.089 469.456 600.85 469.456H571.293C567.856 469.456 565.255 472.54 565.255 475.977C565.255 492.954 555.133 506.717 542.647 506.717C530.161 506.717 520.039 492.954 520.039 475.977C520.039 472.54 517.438 469.456 514.001 469.456H501.541C498.853 469.456 496.606 471.462 496.095 474.101C491.549 497.61 475.927 514.936 457.353 514.936C447.963 514.936 439.326 510.508 432.495 503.09C426.546 496.631 412.67 495.115 405.391 500.028C395.902 506.434 383.756 510.279 370.517 510.279C355.318 510.279 341.56 505.211 331.608 497.019C327.046 493.264 320.135 492.892 314.472 494.576C312.362 495.203 310.134 495.539 307.831 495.539C299.16 495.539 291.556 490.779 287.297 483.632C284.712 479.294 278.454 476.357 273.405 476.357C267.804 476.357 260.166 479.695 258.658 485.089C253.299 504.264 239.608 517.898 223.564 517.898C202.848 517.898 186.055 495.168 186.055 467.129C186.055 454.827 189.288 443.547 194.666 434.76C195.453 433.474 196.016 432.058 196.247 430.568C205.508 370.822 235.937 315.006 283.545 271.851C341.361 219.443 419.777 190 501.541 190C583.305 190 661.721 219.443 719.537 271.851Z" fill="#FFED00"/>
<path d="M719.537 271.851L714.164 277.778V277.778L719.537 271.851ZM283.545 271.851L288.918 277.778L283.545 271.851ZM501.541 190V182V190ZM331.608 497.019L326.524 503.196L331.608 497.019ZM314.472 494.576L316.751 502.244L314.472 494.576ZM432.495 503.09L438.379 497.671L432.495 503.09ZM405.391 500.028L400.915 493.397L405.391 500.028ZM612.061 484.221L604.138 483.115L612.061 484.221ZM258.658 485.089L250.954 482.936L258.658 485.089ZM732.646 476.344L726.538 471.177L732.646 476.344ZM734.432 474.11L728.05 469.286L734.432 474.11ZM194.666 434.76L187.843 430.584L194.666 434.76ZM196.247 430.568L188.341 429.343L196.247 430.568ZM696.972 490.368L704.953 489.813L696.972 490.368ZM496.095 474.101L488.241 472.582L496.095 474.101ZM688.565 491.495L680.566 491.612L688.565 491.495ZM807.082 432.195L799.169 433.369L807.082 432.195ZM808.304 435.859L801.188 439.514L808.304 435.859ZM814.996 431.02C805.754 368.742 774.253 310.652 724.91 265.924L714.164 277.778C760.9 320.143 790.496 374.928 799.169 433.369L814.996 431.02ZM824 475.511C824 458.561 820.868 442.809 815.419 432.203L801.188 439.514C805.094 447.118 808 460.115 808 475.511H824ZM796.474 533.347C802.142 533.347 806.687 530.383 809.944 526.867C813.192 523.361 815.748 518.725 817.73 513.669C821.711 503.507 824 490.013 824 475.511H808C808 488.533 805.917 499.957 802.832 507.832C801.28 511.794 799.629 514.457 798.206 515.995C796.79 517.522 796.198 517.347 796.474 517.347V533.347ZM768.949 475.511C768.949 490.013 771.238 503.507 775.219 513.669C777.2 518.725 779.757 523.361 783.005 526.867C786.262 530.383 790.807 533.347 796.474 533.347V517.347C796.751 517.347 796.158 517.522 794.743 515.995C793.319 514.457 791.669 511.794 790.117 507.832C787.031 499.957 784.949 488.533 784.949 475.511H768.949ZM743.214 477.456H771.035V461.456H743.214V477.456ZM738.754 481.51C739.46 480.675 740.147 479.816 740.814 478.934L728.05 469.286C727.557 469.938 727.052 470.569 726.538 471.177L738.754 481.51ZM737.678 485.187C737.678 484.894 737.676 484.601 737.673 484.309L721.674 484.476C721.677 484.712 721.678 484.949 721.678 485.187H737.678ZM713.236 528.231C722.708 528.231 728.825 520.355 732.105 513.365C735.682 505.74 737.678 495.769 737.678 485.187H721.678C721.678 493.959 719.993 501.51 717.62 506.569C714.948 512.263 712.845 512.231 713.236 512.231V528.231ZM688.991 490.923C689.636 500.19 691.847 508.832 695.408 515.434C698.739 521.611 704.595 528.231 713.236 528.231V512.231C713.621 512.231 711.933 512.369 709.49 507.839C707.276 503.733 705.483 497.443 704.953 489.813L688.991 490.923ZM680.566 491.612C680.57 491.866 680.572 492.121 680.572 492.376H696.572C696.572 492.042 696.569 491.71 696.564 491.378L680.566 491.612ZM680.572 492.376C680.572 515.925 665.401 532 650.035 532V548C677.236 548 696.572 521.431 696.572 492.376H680.572ZM650.035 532C634.669 532 619.499 515.925 619.499 492.376H603.499C603.499 521.431 622.835 548 650.035 548V532ZM619.499 492.376C619.499 489.965 619.666 487.61 619.984 485.327L604.138 483.115C603.717 486.131 603.499 489.225 603.499 492.376H619.499ZM571.293 477.456H600.85V461.456H571.293V477.456ZM542.647 514.717C552.041 514.717 559.879 509.523 565.078 502.453C570.28 495.38 573.255 485.993 573.255 475.977H557.255C557.255 482.938 555.169 488.921 552.189 492.973C549.206 497.03 545.74 498.717 542.647 498.717V514.717ZM512.039 475.977C512.039 485.993 515.014 495.38 520.216 502.453C525.416 509.523 533.253 514.717 542.647 514.717V498.717C539.555 498.717 536.089 497.03 533.106 492.973C530.125 488.921 528.039 482.938 528.039 475.977H512.039ZM501.541 477.456H514.001V461.456H501.541V477.456ZM457.353 522.936C481.402 522.936 499.041 501.005 503.95 475.62L488.241 472.582C484.057 494.216 470.451 506.936 457.353 506.936V522.936ZM426.61 508.51C434.635 517.223 445.292 522.936 457.353 522.936V506.936C450.633 506.936 444.018 503.793 438.379 497.671L426.61 508.51ZM370.517 518.279C385.288 518.279 399.004 513.991 409.867 506.659L400.915 493.397C392.8 498.876 382.224 502.279 370.517 502.279V518.279ZM326.524 503.196C337.989 512.633 353.572 518.279 370.517 518.279V502.279C357.064 502.279 345.13 497.788 336.692 490.842L326.524 503.196ZM307.831 503.539C310.916 503.539 313.911 503.088 316.751 502.244L312.192 486.907C310.812 487.317 309.352 487.539 307.831 487.539V503.539ZM280.424 487.727C286.011 497.102 296.123 503.539 307.831 503.539V487.539C302.196 487.539 297.1 484.456 294.169 479.536L280.424 487.727ZM223.564 525.898C244.579 525.898 260.469 508.331 266.363 487.243L250.954 482.936C246.129 500.197 234.637 509.898 223.564 509.898V525.898ZM178.055 467.129C178.055 482.684 182.703 497.083 190.607 507.782C198.51 518.478 210.072 525.898 223.564 525.898V509.898C216.341 509.898 209.149 505.953 203.476 498.274C197.804 490.598 194.055 479.613 194.055 467.129H178.055ZM187.843 430.584C181.64 440.718 178.055 453.462 178.055 467.129H194.055C194.055 456.192 196.936 446.376 201.489 438.937L187.843 430.584ZM278.173 265.923C229.272 310.25 197.896 367.699 188.341 429.343L204.152 431.794C213.119 373.945 242.602 319.762 288.918 277.778L278.173 265.923ZM501.541 182C417.895 182 337.536 212.113 278.173 265.923L288.918 277.778C345.187 226.772 421.659 198 501.541 198V182ZM724.91 265.924C665.547 212.113 585.187 182 501.541 182V198C581.423 198 657.895 226.772 714.164 277.778L724.91 265.924ZM336.692 490.842C329.361 484.807 319.366 484.775 312.192 486.907L316.751 502.244C320.905 501.009 324.731 501.72 326.524 503.196L336.692 490.842ZM438.379 497.671C433.669 492.557 426.627 490.048 420.33 489.344C414.027 488.64 406.633 489.538 400.915 493.397L409.867 506.659C411.428 505.605 414.611 504.805 418.553 505.245C422.501 505.686 425.371 507.165 426.61 508.51L438.379 497.671ZM528.039 475.977C528.039 468.941 522.633 461.456 514.001 461.456V477.456C513.207 477.456 512.627 477.073 512.361 476.777C512.131 476.522 512.039 476.25 512.039 475.977H528.039ZM619.984 485.327C620.78 479.631 619.222 473.874 616.026 469.459C612.784 464.981 607.487 461.456 600.85 461.456V477.456C601.452 477.456 602.26 477.729 603.065 478.841C603.916 480.016 604.344 481.641 604.138 483.115L619.984 485.327ZM273.405 468.357C269.201 468.357 264.594 469.559 260.699 471.659C256.932 473.69 252.529 477.301 250.954 482.936L266.363 487.243C266.296 487.484 266.465 486.728 268.294 485.742C269.995 484.824 272.008 484.357 273.405 484.357V468.357ZM726.538 471.177C723.481 474.791 721.622 479.476 721.674 484.476L737.673 484.309C737.664 483.412 738.003 482.398 738.754 481.51L726.538 471.177ZM743.214 461.456C736.786 461.456 731.391 464.866 728.05 469.286L740.814 478.934C741.686 477.78 742.655 477.456 743.214 477.456V461.456ZM201.489 438.937C202.749 436.879 203.737 434.471 204.152 431.794L188.341 429.343C188.294 429.646 188.157 430.07 187.843 430.584L201.489 438.937ZM704.953 489.813C704.662 485.638 702.101 482.18 698.609 480.493L691.651 494.901C690.253 494.226 689.12 492.778 688.991 490.923L704.953 489.813ZM571.293 461.456C562.661 461.456 557.255 468.941 557.255 475.977H573.255C573.255 476.25 573.164 476.522 572.933 476.777C572.667 477.073 572.087 477.456 571.293 477.456V461.456ZM294.169 479.536C291.886 475.705 288.329 472.974 284.891 471.232C281.42 469.473 277.362 468.357 273.405 468.357V484.357C274.496 484.357 276.092 484.71 277.659 485.504C279.258 486.314 280.123 487.221 280.424 487.727L294.169 479.536ZM784.949 475.511C784.949 468.041 778.993 461.456 771.035 461.456V477.456C769.672 477.456 768.949 476.385 768.949 475.511H784.949ZM501.541 461.456C494.707 461.456 489.418 466.496 488.241 472.582L503.95 475.62C503.794 476.427 502.998 477.456 501.541 477.456V461.456ZM698.609 480.493C694.268 478.397 689.776 479.489 686.935 481.092C684.122 482.68 680.487 486.212 680.566 491.612L696.564 491.378C696.583 492.628 696.141 493.575 695.757 494.121C695.393 494.639 695.024 494.899 694.799 495.026C694.569 495.156 694.255 495.28 693.817 495.324C693.378 495.369 692.58 495.35 691.651 494.901L698.609 480.493ZM799.169 433.369C799.512 435.68 800.28 437.747 801.188 439.514L815.419 432.203C815.143 431.665 815.033 431.273 814.996 431.02L799.169 433.369Z" fill="black" mask="url(#path-1-outside-1_47_20407)"/>
<g filter="url(#filter1_i_47_20407)">
<path fill-rule="evenodd" clip-rule="evenodd" d="M808.303 436.531C807.711 435.378 807.272 434.149 807.082 432.867C798.125 372.507 767.576 316.069 719.537 272.523C685.82 241.96 645.098 219.208 600.791 205.55C589.252 201.993 586.288 216.337 597.349 221.181C664.334 250.516 732.626 299.637 744.5 373.509C751.494 417.023 755.495 449.986 735.983 455.221C732.401 456.183 728.378 457.944 728.12 461.644C727.496 470.567 742.203 469.845 752.307 469.349C752.998 469.315 753.668 469.282 754.31 469.253C758.5 469.066 764.934 470.128 769.129 470.128H771.035C774.332 470.128 776.949 472.886 776.949 476.184C776.949 503.707 785.691 526.02 796.474 526.02C807.258 526.02 816 503.707 816 476.184C816 460.01 812.981 445.636 808.303 436.531Z" fill="#FF8C00"/>
</g>
<path d="M204.586 481.913C204.586 501.964 260.169 517.353 220.541 517.353C199.791 517.353 184 495.531 184 467.458C184 455.04 187.292 443.662 192.759 434.834C193.465 433.693 193.962 432.452 194.162 431.157C203.382 371.225 233.883 315.227 281.649 271.948C339.559 219.478 418.103 190 500 190C386.545 208.315 195.837 307.045 204.586 481.913Z" fill="#FFC700" fill-opacity="0.6"/>
</g>
<defs>
<filter id="filter0_d_47_20407" x="173.055" y="182" width="653.944" height="377" filterUnits="userSpaceOnUse" color-interpolation-filters="sRGB">
<feFlood flood-opacity="0" result="BackgroundImageFix"/>
<feColorMatrix in="SourceAlpha" type="matrix" values="0 0 0 0 0 0 0 0 0 0 0 0 0 0 0 0 0 0 127 0" result="hardAlpha"/>
<feOffset dx="-1" dy="7"/>
<feGaussianBlur stdDeviation="2"/>
<feComposite in2="hardAlpha" operator="out"/>
<feColorMatrix type="matrix" values="0 0 0 0 0 0 0 0 0 0 0 0 0 0 0 0 0 0 0.25 0"/>
<feBlend mode="normal" in2="BackgroundImageFix" result="effect1_dropShadow_47_20407"/>
<feBlend mode="normal" in="SourceGraphic" in2="effect1_dropShadow_47_20407" result="shape"/>
</filter>
<filter id="filter1_i_47_20407" x="590.427" y="204.989" width="225.573" height="321.03" filterUnits="userSpaceOnUse" color-interpolation-filters="sRGB">
<feFlood flood-opacity="0" result="BackgroundImageFix"/>
<feBlend mode="normal" in="SourceGraphic" in2="BackgroundImageFix" result="shape"/>
<feColorMatrix in="SourceAlpha" type="matrix" values="0 0 0 0 0 0 0 0 0 0 0 0 0 0 0 0 0 0 127 0" result="hardAlpha"/>
<feOffset dx="-5" dy="-8"/>
<feComposite in2="hardAlpha" operator="arithmetic" k2="-1" k3="1"/>
<feColorMatrix type="matrix" values="0 0 0 0 0 0 0 0 0 0 0 0 0 0 0 0 0 0 0.25 0"/>
<feBlend mode="normal" in2="shape" result="effect1_innerShadow_47_20407"/>
</filter>
</defs>
</svg>
