<svg width="1000" height="1000" viewBox="0 0 1000 1000" fill="none" xmlns="http://www.w3.org/2000/svg">
<mask id="path-1-inside-1_561_6088" fill="white">
<path fill-rule="evenodd" clip-rule="evenodd" d="M286.723 179.515C339.703 136.479 406.556 108.889 480.427 104.341C665.688 92.9347 824.927 230.773 836.098 412.212C839.955 474.869 839.661 567.855 811.648 619.589C805.825 639.962 805.386 645.72 810.31 694.577C813.986 730.94 425.598 793.055 226.423 747.62C224.886 746.886 222.892 746.221 220.575 745.448C200.589 738.779 156.545 724.084 173.495 588.105C173.977 563.151 174.222 548.333 174.155 538.152C187.549 607.997 221.016 653.197 322.356 646.957C476.257 637.482 753.028 547.093 744.781 413.143C736.534 279.193 545.411 142.558 391.51 152.033C351.727 154.482 316.681 164.174 286.723 179.515ZM165.13 452.184C165.155 452.628 165.182 453.073 165.209 453.517C165.224 453.764 165.24 454.011 165.255 454.258C165.213 453.568 165.171 452.876 165.13 452.184Z"/>
</mask>
<path fill-rule="evenodd" clip-rule="evenodd" d="M286.723 179.515C339.703 136.479 406.556 108.889 480.427 104.341C665.688 92.9347 824.927 230.773 836.098 412.212C839.955 474.869 839.661 567.855 811.648 619.589C805.825 639.962 805.386 645.72 810.31 694.577C813.986 730.94 425.598 793.055 226.423 747.62C224.886 746.886 222.892 746.221 220.575 745.448C200.589 738.779 156.545 724.084 173.495 588.105C173.977 563.151 174.222 548.333 174.155 538.152C187.549 607.997 221.016 653.197 322.356 646.957C476.257 637.482 753.028 547.093 744.781 413.143C736.534 279.193 545.411 142.558 391.51 152.033C351.727 154.482 316.681 164.174 286.723 179.515ZM165.13 452.184C165.155 452.628 165.182 453.073 165.209 453.517C165.224 453.764 165.24 454.011 165.255 454.258C165.213 453.568 165.171 452.876 165.13 452.184Z" fill="#D7D6DC"/>
<path d="M286.723 179.515L281.679 173.305L290.369 186.635L286.723 179.515ZM811.648 619.589L804.613 615.78L804.197 616.549L803.956 617.39L811.648 619.589ZM810.31 694.577L802.351 695.379L802.351 695.382L810.31 694.577ZM226.423 747.62L222.978 754.84L223.779 755.222L224.644 755.419L226.423 747.62ZM220.575 745.448L223.107 737.859L223.107 737.859L220.575 745.448ZM173.495 588.105L181.434 589.094L181.486 588.678L181.494 588.259L173.495 588.105ZM174.155 538.152L182.012 536.645L166.155 538.204L174.155 538.152ZM165.13 452.184L173.115 451.702L157.143 452.643L165.13 452.184ZM165.255 454.258L157.272 454.768L173.241 453.771L165.255 454.258ZM479.935 96.3559C404.357 101.009 335.92 129.244 281.679 173.305L291.767 185.724C343.485 143.713 408.756 116.769 480.918 112.326L479.935 96.3559ZM844.083 411.72C832.631 225.716 669.448 84.688 479.935 96.3559L480.918 112.326C661.927 101.181 817.223 235.831 828.113 412.704L844.083 411.72ZM818.683 623.398C833.495 596.044 840.678 558.517 843.797 520.653C846.933 482.587 846.025 443.26 844.083 411.72L828.113 412.704C830.029 443.821 830.902 482.316 827.851 519.34C824.785 556.567 817.814 591.4 804.613 615.78L818.683 623.398ZM818.27 693.775C815.796 669.223 814.738 656.086 814.947 646.577C815.147 637.498 816.498 631.733 819.34 621.788L803.956 617.39C800.976 627.818 799.196 635.118 798.951 646.225C798.716 656.903 799.901 671.073 802.351 695.379L818.27 693.775ZM224.644 755.419C325.598 778.448 473.594 774.141 595.377 759.717C656.373 752.492 711.19 742.683 750.667 732.333C770.344 727.174 786.56 721.791 797.894 716.379C803.514 713.694 808.394 710.79 811.922 707.59C815.255 704.566 818.886 699.869 818.27 693.772L802.351 695.382C802.194 693.83 803.222 693.88 801.172 695.739C799.317 697.421 796.035 699.535 790.998 701.941C781.018 706.707 765.938 711.788 746.609 716.856C708.073 726.96 654.033 736.658 593.495 743.828C472.209 758.193 326.423 762.226 228.203 739.82L224.644 755.419ZM218.043 753.036C220.527 753.865 221.985 754.366 222.978 754.84L229.868 740.399C227.786 739.406 225.256 738.576 223.107 737.859L218.043 753.036ZM165.557 587.115C157.006 655.707 163.582 695.352 176.114 719.012C188.999 743.338 207.542 749.533 218.043 753.036L223.107 737.859C213.622 734.694 200.15 730.207 190.253 711.523C180.005 692.174 173.034 656.481 181.434 589.094L165.557 587.115ZM166.155 538.204C166.221 548.26 165.98 562.961 165.497 587.95L181.494 588.259C181.975 563.341 182.222 548.407 182.155 538.099L166.155 538.204ZM321.864 638.972C272.341 642.022 241.001 632.406 220.449 614.984C199.788 597.469 188.572 570.854 182.012 536.645L166.298 539.659C173.132 575.294 185.346 606.202 210.103 627.189C234.968 648.268 271.031 658.132 322.847 654.942L321.864 638.972ZM736.796 413.635C738.669 444.06 724.457 472.725 698.214 499.225C671.946 525.751 634.247 549.421 591.008 569.47C504.534 609.567 397.843 634.295 321.864 638.972L322.847 654.942C400.769 650.145 509.414 624.94 597.739 583.986C641.9 563.51 681.467 538.875 709.583 510.484C737.724 482.066 755.016 449.201 752.766 412.652L736.796 413.635ZM392.002 160.018C466.616 155.424 551.068 186.328 618.046 235.263C685.2 284.328 732.882 350.066 736.796 413.635L752.766 412.652C748.433 342.271 696.429 272.716 627.485 222.344C558.364 171.843 470.305 139.167 391.018 144.048L392.002 160.018ZM290.369 186.635C319.274 171.834 353.235 162.405 392.002 160.018L391.018 144.048C350.219 146.56 314.087 156.515 283.077 172.394L290.369 186.635ZM157.143 452.643C157.169 453.098 157.196 453.553 157.224 454.009L173.194 453.026C173.167 452.592 173.141 452.158 173.116 451.725L157.143 452.643ZM157.224 454.009C157.24 454.262 157.256 454.515 157.272 454.768L173.239 453.749C173.224 453.508 173.209 453.267 173.194 453.026L157.224 454.009ZM173.241 453.771C173.199 453.083 173.157 452.393 173.115 451.702L157.144 452.666C157.186 453.36 157.228 454.053 157.27 454.746L173.241 453.771Z" fill="black" mask="url(#path-1-inside-1_561_6088)"/>
<path d="M817.46 602.19C837.402 545.537 838.606 478.047 839.785 411.985C829.799 249.797 683.376 120.12 523.936 103.069C854.548 257.055 787.001 627.651 697.776 662.778C578.866 699.651 331.77 693.912 179.102 694.712C191.436 740.788 220.213 742.671 230.11 747.393C429.285 792.828 809.988 730.868 806.312 694.506C801.388 645.648 811.637 622.563 817.46 602.19Z" fill="black" fill-opacity="0.25"/>
<path d="M802.091 697.963C625.409 761.483 284.181 759.138 203.703 728.688C196.467 725.95 187.734 725.368 183.145 731.596C169.476 750.145 176.853 782.203 203.999 788.041C466.218 844.43 729.321 785.717 803.367 768.73C806.543 768.001 809.438 766.592 811.636 764.187C826.557 747.858 830.009 719.294 819.754 702.35C816.175 696.437 808.595 695.624 802.091 697.963Z" fill="#3C3C3C" stroke="black" stroke-width="8"/>
<path d="M739.053 506.696C685.045 591.053 516.963 646.917 429.795 664.154C426.843 664.738 424.02 665.848 421.949 668.032C408.326 682.398 415.902 708.378 424.263 721.992C427.043 726.518 432.303 728.502 437.615 728.46C489.237 728.054 514.196 731.735 518.783 706.183C520.437 696.967 525.766 688.411 534.561 685.197C630.163 650.255 733.387 547.345 749.873 506.7C753.788 497.047 744.669 497.923 739.053 506.696Z" fill="#929292" stroke="black" stroke-width="6"/>
<path d="M480.675 693.97C481.38 705.42 472.462 715.393 460.617 716.123C448.771 716.852 438.698 708.048 437.993 696.598C437.288 685.147 446.205 675.174 458.051 674.445C469.896 673.716 479.97 682.52 480.675 693.97Z" fill="#E40303" stroke="black" stroke-width="6"/>
<g filter="url(#filter0_i_561_6088)">
<ellipse cx="459.334" cy="695.284" rx="24.3813" ry="23.8783" transform="rotate(-3.52314 459.334 695.284)" fill="#E40303"/>
</g>
<path d="M480.675 693.97C481.38 705.42 472.462 715.393 460.617 716.123C448.771 716.852 438.698 708.048 437.993 696.598C437.288 685.147 446.205 675.174 458.051 674.445C469.896 673.716 479.97 682.52 480.675 693.97Z" stroke="black" stroke-width="6"/>
<path d="M366.218 700.634C366.021 703.872 364.164 707.175 360.296 710.378C356.424 713.585 350.762 716.486 343.59 718.846C329.263 723.558 309.517 725.91 287.789 724.655C266.061 723.4 246.738 718.791 233.082 712.461C226.245 709.293 220.974 705.76 217.517 702.13C214.064 698.504 212.619 695.01 212.816 691.772C213.013 688.534 214.87 685.231 218.737 682.028C222.61 678.821 228.271 675.92 235.444 673.56C249.771 668.848 269.516 666.496 291.244 667.751C312.973 669.006 332.295 673.615 345.952 679.945C352.789 683.113 358.06 686.646 361.517 690.276C364.97 693.902 366.414 697.396 366.218 700.634Z" fill="white" stroke="black" stroke-width="6"/>
<path d="M347.22 677.223C356.266 681.415 362.831 686.312 366.335 691.481C369.839 696.649 370.174 701.929 367.309 706.854C364.444 711.778 358.468 716.194 349.911 719.712C341.354 723.229 330.479 725.738 318.251 727.018C306.022 728.297 292.817 728.307 279.805 727.047C266.793 725.786 254.375 723.294 243.652 719.792C232.93 716.289 224.232 711.884 218.331 706.966C212.43 702.049 209.507 696.77 209.821 691.599L289.517 696.203L347.22 677.223Z" fill="black" fill-opacity="0.25"/>
<g filter="url(#filter1_i_561_6088)">
<ellipse cx="273.684" cy="695.659" rx="39.1368" ry="18.4697" transform="rotate(1.75402 273.684 695.659)" fill="#3C3C3C"/>
</g>
<path d="M309.804 696.765C309.704 700.024 306.676 703.796 299.748 706.809C293.057 709.72 283.671 711.442 273.21 711.122C262.75 710.801 253.487 708.509 246.986 705.193C240.256 701.762 237.464 697.812 237.564 694.553C237.664 691.294 240.692 687.523 247.62 684.509C254.311 681.598 263.697 679.876 274.157 680.197C284.618 680.517 293.881 682.81 300.382 686.125C307.112 689.557 309.904 693.507 309.804 696.765Z" stroke="black" stroke-width="6"/>
<path d="M153.423 412.244C160.307 524.073 181.001 631 260.719 650.119C98.9999 280 424.882 160.262 599.016 215.124C281 45.5 146.538 300.415 153.423 412.244Z" fill="#090909"/>
<path d="M740.787 413.389C741.82 430.164 741.653 441.131 740.138 447.81C739.387 451.122 738.401 452.908 737.485 453.845C736.709 454.638 735.725 455.094 734.06 455.084C732.23 455.073 729.722 454.484 726.316 453.103C722.952 451.739 718.993 449.722 714.329 447.114C709.261 444.28 703.61 440.895 697.186 437.048C691.635 433.723 685.506 430.052 678.677 426.093C620.225 392.198 517.652 341.5 345.5 341.5C256.653 341.5 207.542 366.255 180.714 384.451C174.568 388.62 169.615 392.429 165.711 395.431C165.382 395.684 165.059 395.932 164.745 396.174C162.705 397.74 161.029 399.012 159.614 399.991C158.782 400.567 158.117 400.986 157.588 401.283C157.226 399.303 157.091 395.803 157.199 390.017C164.061 331.284 184.919 275.14 222.813 232.552C260.679 189.996 315.792 160.703 391.754 156.026C467.537 151.36 552.891 182.707 620.405 232.034C688.006 281.425 736.769 348.117 740.787 413.389ZM156.332 401.848C156.332 401.847 156.342 401.845 156.36 401.842C156.341 401.847 156.332 401.848 156.332 401.848ZM157.941 402.573C157.951 402.59 157.956 402.599 157.956 402.6C157.955 402.6 157.95 402.592 157.941 402.573Z" fill="#FFC700" fill-opacity="0.6" stroke="black" stroke-width="8"/>
<path d="M744.784 413.143C727.269 490.648 682.979 407.95 593.5 381C504.021 354.05 541.5 375 511.461 275.061C467.56 161.477 236.754 176.145 390.655 166.669C544.556 157.194 736.537 279.194 744.784 413.143Z" fill="black" fill-opacity="0.5"/>
<ellipse cx="294.301" cy="224.159" rx="27.2497" ry="26.6875" transform="rotate(-3.52314 294.301 224.159)" fill="white" fill-opacity="0.7"/>
<path d="M202.5 329C200.43 342.673 216.774 353.154 196.5 362C169 374 165.271 386.642 175.981 349.951C188.369 307.515 227.859 220.028 253.498 237.921C264.42 245.544 213.597 255.718 202.5 329Z" fill="white" fill-opacity="0.7"/>
<path d="M842.906 416.015C845.723 461.779 816.2 500.027 777.947 502.383C739.693 504.738 705.701 470.4 702.883 424.636C700.066 378.871 729.589 340.623 767.842 338.268C806.096 335.913 840.088 370.25 842.906 416.015Z" fill="#3C3C3C" stroke="black" stroke-width="6"/>
<path d="M841.912 415.509C843.083 434.526 838.594 451.959 830.541 464.763C822.484 477.573 811.022 485.551 798.174 486.342C785.325 487.133 772.971 480.621 763.404 468.897C753.841 457.177 747.248 440.426 746.077 421.41C744.906 402.394 749.395 384.961 757.448 372.156C765.505 359.346 776.967 351.369 789.815 350.578C802.663 349.787 815.018 356.298 824.584 368.023C834.148 379.743 840.741 396.493 841.912 415.509Z" fill="white" stroke="black" stroke-width="6"/>
<path d="M840.1 415.621C840.618 424.035 839.938 432.44 838.1 440.356C836.261 448.273 833.3 455.545 829.384 461.758C825.469 467.972 820.677 473.004 815.281 476.568C809.885 480.133 803.991 482.159 797.936 482.532C791.881 482.905 785.783 481.617 779.991 478.741C774.198 475.866 768.825 471.459 764.177 465.773C759.529 460.087 755.698 453.233 752.902 445.602C750.106 437.971 748.4 429.713 747.882 421.299L793.991 418.46L840.1 415.621Z" fill="black" fill-opacity="0.25"/>
<defs>
<filter id="filter0_i_561_6088" x="434.953" y="671.403" width="48.7617" height="47.762" filterUnits="userSpaceOnUse" color-interpolation-filters="sRGB">
<feFlood flood-opacity="0" result="BackgroundImageFix"/>
<feBlend mode="normal" in="SourceGraphic" in2="BackgroundImageFix" result="shape"/>
<feColorMatrix in="SourceAlpha" type="matrix" values="0 0 0 0 0 0 0 0 0 0 0 0 0 0 0 0 0 0 127 0" result="hardAlpha"/>
<feOffset dx="-5" dy="-8"/>
<feComposite in2="hardAlpha" operator="arithmetic" k2="-1" k3="1"/>
<feColorMatrix type="matrix" values="0 0 0 0 0 0 0 0 0 0 0 0 0 0 0 0 0 0 0.25 0"/>
<feBlend mode="normal" in2="shape" result="effect1_innerShadow_561_6088"/>
</filter>
<filter id="filter1_i_561_6088" x="234.561" y="677.159" width="78.2461" height="37.001" filterUnits="userSpaceOnUse" color-interpolation-filters="sRGB">
<feFlood flood-opacity="0" result="BackgroundImageFix"/>
<feBlend mode="normal" in="SourceGraphic" in2="BackgroundImageFix" result="shape"/>
<feColorMatrix in="SourceAlpha" type="matrix" values="0 0 0 0 0 0 0 0 0 0 0 0 0 0 0 0 0 0 127 0" result="hardAlpha"/>
<feOffset dx="-5" dy="-8"/>
<feComposite in2="hardAlpha" operator="arithmetic" k2="-1" k3="1"/>
<feColorMatrix type="matrix" values="0 0 0 0 0 0 0 0 0 0 0 0 0 0 0 0 0 0 0.25 0"/>
<feBlend mode="normal" in2="shape" result="effect1_innerShadow_561_6088"/>
</filter>
</defs>
</svg>
