<svg width="1000" height="1000" viewBox="0 0 1000 1000" fill="none" xmlns="http://www.w3.org/2000/svg">
<g filter="url(#filter0_d_302_29153)">
<mask id="path-1-inside-1_302_29153" fill="white">
<path fill-rule="evenodd" clip-rule="evenodd" d="M550.64 115.273C587.411 43.4305 695.397 70.9402 694.034 145.003C753.313 100.583 826.647 177.057 789.876 248.899C771.614 284.58 711.458 305.484 660.363 317.132C650.894 295.052 634.229 275.988 611.525 263.847C593.299 254.101 573.524 250.069 554.213 251.127C541.874 204.829 533.376 149.003 550.64 115.273Z"/>
</mask>
<path fill-rule="evenodd" clip-rule="evenodd" d="M550.64 115.273C587.411 43.4305 695.397 70.9402 694.034 145.003C753.313 100.583 826.647 177.057 789.876 248.899C771.614 284.58 711.458 305.484 660.363 317.132C650.894 295.052 634.229 275.988 611.525 263.847C593.299 254.101 573.524 250.069 554.213 251.127C541.874 204.829 533.376 149.003 550.64 115.273Z" fill="#3C3C3C"/>
<path d="M694.034 145.003L684.035 144.819L683.659 165.273L700.03 153.006L694.034 145.003ZM550.64 115.273L559.542 119.829L550.64 115.273ZM789.876 248.899L780.975 244.343L789.876 248.899ZM660.363 317.132L651.172 321.074L654.458 328.735L662.585 326.882L660.363 317.132ZM611.525 263.847L606.809 272.665L611.525 263.847ZM554.213 251.127L544.55 253.702L546.643 261.556L554.759 261.112L554.213 251.127ZM704.032 145.187C704.819 102.424 673.852 73.6415 638.858 65.6731C603.686 57.6644 562.522 70.1108 541.739 110.717L559.542 119.829C575.53 88.5926 606.744 78.8726 634.417 85.1739C662.267 91.5154 684.612 113.519 684.035 144.819L704.032 145.187ZM798.778 253.455C819.213 213.53 809.108 171.93 785.267 146.511C761.284 120.941 722.474 111.196 688.037 137L700.03 153.006C724.872 134.39 752.369 140.671 770.68 160.194C789.133 179.868 797.311 212.426 780.975 244.343L798.778 253.455ZM662.585 326.882C688.472 320.981 717.06 312.651 741.685 301.078C765.99 289.656 788.105 274.308 798.778 253.455L780.975 244.343C773.385 259.171 756.291 272.115 733.179 282.978C710.386 293.689 683.349 301.635 658.14 307.382L662.585 326.882ZM606.809 272.665C627.43 283.691 642.561 300.993 651.172 321.074L669.553 313.191C659.227 289.112 641.029 268.284 616.24 255.028L606.809 272.665ZM554.759 261.112C572.301 260.151 590.248 263.809 606.809 272.665L616.24 255.028C596.349 244.392 574.746 239.987 553.666 241.142L554.759 261.112ZM541.739 110.717C531.896 129.946 529.794 154.476 531.345 179.116C532.911 203.98 538.289 230.211 544.55 253.702L563.875 248.552C557.797 225.745 552.758 200.914 551.306 177.859C549.84 154.579 552.12 134.33 559.542 119.829L541.739 110.717Z" fill="#090909" mask="url(#path-1-inside-1_302_29153)"/>
<mask id="path-3-inside-2_302_29153" fill="white">
<path fill-rule="evenodd" clip-rule="evenodd" d="M550.922 115.73C587.693 43.8876 677.752 70.7028 676.388 144.766C735.667 100.345 810.088 157.715 773.317 229.558C755.4 264.563 701.954 290.979 655.978 308.009C646.118 290.02 631.153 274.64 611.8 264.291C593.575 254.546 573.801 250.514 554.491 251.571C542.154 205.276 533.659 149.457 550.922 115.73Z"/>
</mask>
<path fill-rule="evenodd" clip-rule="evenodd" d="M550.922 115.73C587.693 43.8876 677.752 70.7028 676.388 144.766C735.667 100.345 810.088 157.715 773.317 229.558C755.4 264.563 701.954 290.979 655.978 308.009C646.118 290.02 631.153 274.64 611.8 264.291C593.575 254.546 573.801 250.514 554.491 251.571C542.154 205.276 533.659 149.457 550.922 115.73Z" fill="#E40303"/>
<path d="M676.388 144.766L666.39 144.581L666.013 165.036L682.385 152.768L676.388 144.766ZM550.922 115.73L542.02 111.174L550.922 115.73ZM773.317 229.558L764.415 225.002L773.317 229.558ZM655.978 308.009L647.209 312.815L651.358 320.384L659.452 317.386L655.978 308.009ZM611.8 264.291L607.084 273.11L611.8 264.291ZM554.491 251.571L544.828 254.146L546.921 262L555.037 261.556L554.491 251.571ZM686.386 144.95C687.151 103.421 662.005 74.0264 630.464 65.8531C598.665 57.6127 562.383 71.3892 542.02 111.174L559.824 120.286C576.232 88.2285 603.365 79.4913 625.447 85.2136C647.788 91.0029 666.989 112.047 666.39 144.581L686.386 144.95ZM782.219 234.114C802.581 194.329 792.538 156.842 767.256 135.867C742.181 115.063 703.63 111.856 670.392 136.763L682.385 152.768C708.425 133.255 736.724 136.523 754.486 151.259C772.042 165.825 780.823 192.944 764.415 225.002L782.219 234.114ZM659.452 317.386C682.763 308.751 708.285 297.627 730.402 284.046C752.305 270.597 772.013 254.054 782.219 234.114L764.415 225.002C756.704 240.066 740.73 254.234 719.937 267.002C699.358 279.638 675.169 290.236 652.505 298.632L659.452 317.386ZM607.084 273.11C624.668 282.512 638.25 296.47 647.209 312.815L664.747 303.202C653.986 283.57 637.639 266.768 616.515 255.473L607.084 273.11ZM555.037 261.556C572.578 260.596 590.524 264.254 607.084 273.11L616.515 255.473C596.625 244.837 575.024 240.432 553.944 241.586L555.037 261.556ZM542.02 111.174C532.179 130.402 530.076 154.928 531.626 179.566C533.191 204.428 538.568 230.656 544.828 254.146L564.154 248.996C558.076 226.191 553.038 201.362 551.587 178.309C550.122 155.032 552.402 134.786 559.824 120.286L542.02 111.174Z" fill="#090909" mask="url(#path-3-inside-2_302_29153)"/>
<path fill-rule="evenodd" clip-rule="evenodd" d="M655.552 300.955C700.123 284.668 750.358 259.813 767.3 226.713C786.365 189.464 774.22 155.913 749.866 139.102C762.726 169.728 755.64 236.591 649.991 292.849C651.967 295.475 653.821 298.18 655.552 300.955Z" fill="black" fill-opacity="0.5"/>
<path d="M650.143 222.264C649.183 224.137 647.789 225.765 646.04 227.053C644.29 228.342 642.221 229.267 639.948 229.775C637.676 230.283 635.246 230.364 632.797 230.014C630.347 229.664 627.927 228.889 625.673 227.734C623.42 226.58 621.378 225.067 619.663 223.283C617.949 221.499 616.595 219.479 615.681 217.338C614.766 215.197 614.308 212.977 614.333 210.804C614.357 208.631 614.864 206.549 615.824 204.676" stroke="black" stroke-width="8" stroke-linecap="round"/>
<path d="M654.856 211.58C659.153 213.783 665.166 210.633 668.285 204.545C671.405 198.458 670.451 191.737 666.154 189.535C661.857 187.333 655.844 190.483 652.724 196.57C649.604 202.658 650.559 209.378 654.856 211.58Z" fill="black"/>
<circle r="2.91432" transform="matrix(-0.889938 -0.456081 -0.456081 0.889938 658.276 195.322)" fill="white"/>
<path d="M626.327 196.96C630.624 199.162 636.636 196.012 639.756 189.925C642.876 183.837 641.922 177.117 637.624 174.915C633.327 172.712 627.315 175.862 624.195 181.95C621.075 188.037 622.029 194.758 626.327 196.96Z" fill="black"/>
<circle r="2.91432" transform="matrix(-0.889938 -0.456081 -0.456081 0.889938 630.396 181.034)" fill="white"/>
<path d="M593.618 103.099C583.058 110.487 577.053 120.129 580.206 124.635C583.359 129.141 586.163 116.979 596.723 109.591C607.283 102.203 621.6 102.386 618.447 97.8799C615.295 93.3739 604.179 95.7105 593.618 103.099Z" fill="white" fill-opacity="0.25"/>
</g>
<defs>
<filter id="filter0_d_302_29153" x="535.885" y="73.3657" width="266.881" height="254.766" filterUnits="userSpaceOnUse" color-interpolation-filters="sRGB">
<feFlood flood-opacity="0" result="BackgroundImageFix"/>
<feColorMatrix in="SourceAlpha" type="matrix" values="0 0 0 0 0 0 0 0 0 0 0 0 0 0 0 0 0 0 127 0" result="hardAlpha"/>
<feOffset dx="-1" dy="7"/>
<feGaussianBlur stdDeviation="2"/>
<feComposite in2="hardAlpha" operator="out"/>
<feColorMatrix type="matrix" values="0 0 0 0 0 0 0 0 0 0 0 0 0 0 0 0 0 0 0.25 0"/>
<feBlend mode="normal" in2="BackgroundImageFix" result="effect1_dropShadow_302_29153"/>
<feBlend mode="normal" in="SourceGraphic" in2="effect1_dropShadow_302_29153" result="shape"/>
</filter>
</defs>
</svg>
