<svg width="1000" height="1000" viewBox="0 0 1000 1000" fill="none" xmlns="http://www.w3.org/2000/svg">
<rect x="607" y="443.73" width="26" height="556" fill="black"/>
<circle cx="620" cy="425" r="22.5" fill="white" stroke="black" stroke-width="5"/>
<path d="M632 432.571C630.44 434.95 628.223 436.804 625.629 437.899C623.035 438.994 620.181 439.28 617.427 438.722C614.673 438.164 612.143 436.786 610.158 434.763C608.173 432.74 606.821 430.163 606.273 427.357C605.725 424.551 606.006 421.643 607.081 419" stroke="#C4C4C4" stroke-width="7" stroke-linecap="round"/>
<rect x="584" y="460" width="396" height="300" fill="#D7D6DC" stroke="black" stroke-width="8"/>
<rect x="610.206" y="460" width="73.7647" height="300" fill="black" fill-opacity="0.25"/>
<mask id="path-6-inside-1_1325_41366" fill="white">
<path fill-rule="evenodd" clip-rule="evenodd" d="M733.278 574H726.528V581.715H733.278V574ZM723.876 589.43L722.67 581.715H737.136V589.43H723.876ZM802.711 589.43H718.813V596.179H717.509C715.433 596.179 713.727 597.76 713.528 599.784H695.411C693.641 598.281 691.347 597.374 688.842 597.374H646.529C637.692 597.374 630.529 604.537 630.529 613.374V631.454C630.529 639.262 636.858 645.591 644.666 645.591C647.398 645.591 650.071 644.799 652.362 643.312L694.371 616.047C695.832 615.099 696.999 613.809 697.796 612.321H713.509V614.371C713.509 615.088 713.702 615.792 714.067 616.408L719.286 625.227C720.034 626.491 720.029 628.064 719.272 629.324L707.799 648.418C705.814 651.722 707.415 656.015 711.08 657.212L722.144 660.824C725.174 661.814 728.449 660.261 729.601 657.289L737.079 638H763.853C765.366 648.263 768.515 660.507 774.202 673.472C774.829 674.903 776.254 675.814 777.817 675.814H796.12C799.128 675.814 801.055 672.607 799.714 669.915C789.564 649.535 787.51 638.342 790.46 617.296C790.478 617.168 790.49 617.04 790.496 616.914H802.711V614.154H864.861V606.306H917.469L917.469 609.199H937.238V597.627H917.469L917.469 600.52H885.108V581.715H879.805L869.309 600.52H864.861V592.578H802.711V589.43ZM762.801 619.227C762.566 623.274 762.687 628.378 763.362 634.26C761.871 635.015 760.185 635.44 758.4 635.44H753.04C747.202 635.44 742.426 630.892 742.062 625.145L744.179 619.685C744.735 619.392 745.368 619.227 746.04 619.227H750.135C749.582 631.239 750.319 631.24 752.655 631.24C751.818 625.574 753.939 621.503 755.982 619.227H762.801ZM874.613 600.52H879.805V591.218L874.613 600.52ZM643.931 605.329H675.715C679.668 605.329 681.225 610.452 677.941 612.652L646.158 633.946C643.5 635.726 639.931 633.821 639.931 630.623V609.329C639.931 607.12 641.722 605.329 643.931 605.329Z"/>
</mask>
<path fill-rule="evenodd" clip-rule="evenodd" d="M733.278 574H726.528V581.715H733.278V574ZM723.876 589.43L722.67 581.715H737.136V589.43H723.876ZM802.711 589.43H718.813V596.179H717.509C715.433 596.179 713.727 597.76 713.528 599.784H695.411C693.641 598.281 691.347 597.374 688.842 597.374H646.529C637.692 597.374 630.529 604.537 630.529 613.374V631.454C630.529 639.262 636.858 645.591 644.666 645.591C647.398 645.591 650.071 644.799 652.362 643.312L694.371 616.047C695.832 615.099 696.999 613.809 697.796 612.321H713.509V614.371C713.509 615.088 713.702 615.792 714.067 616.408L719.286 625.227C720.034 626.491 720.029 628.064 719.272 629.324L707.799 648.418C705.814 651.722 707.415 656.015 711.08 657.212L722.144 660.824C725.174 661.814 728.449 660.261 729.601 657.289L737.079 638H763.853C765.366 648.263 768.515 660.507 774.202 673.472C774.829 674.903 776.254 675.814 777.817 675.814H796.12C799.128 675.814 801.055 672.607 799.714 669.915C789.564 649.535 787.51 638.342 790.46 617.296C790.478 617.168 790.49 617.04 790.496 616.914H802.711V614.154H864.861V606.306H917.469L917.469 609.199H937.238V597.627H917.469L917.469 600.52H885.108V581.715H879.805L869.309 600.52H864.861V592.578H802.711V589.43ZM762.801 619.227C762.566 623.274 762.687 628.378 763.362 634.26C761.871 635.015 760.185 635.44 758.4 635.44H753.04C747.202 635.44 742.426 630.892 742.062 625.145L744.179 619.685C744.735 619.392 745.368 619.227 746.04 619.227H750.135C749.582 631.239 750.319 631.24 752.655 631.24C751.818 625.574 753.939 621.503 755.982 619.227H762.801ZM874.613 600.52H879.805V591.218L874.613 600.52ZM643.931 605.329H675.715C679.668 605.329 681.225 610.452 677.941 612.652L646.158 633.946C643.5 635.726 639.931 633.821 639.931 630.623V609.329C639.931 607.12 641.722 605.329 643.931 605.329Z" fill="#3C3C3C"/>
<path d="M726.528 574V570H722.528V574H726.528ZM733.278 574H737.278V570H733.278V574ZM726.528 581.715H722.528V585.715H726.528V581.715ZM733.278 581.715V585.715H737.278V581.715H733.278ZM722.67 581.715V577.715H717.997L718.718 582.332L722.67 581.715ZM723.876 589.43L719.924 590.047L720.452 593.43H723.876V589.43ZM737.136 581.715H741.136V577.715H737.136V581.715ZM737.136 589.43V593.43H741.136V589.43H737.136ZM718.813 589.43V585.43H714.813V589.43H718.813ZM802.711 589.43H806.711V585.43H802.711V589.43ZM718.813 596.179V600.179H722.813V596.179H718.813ZM713.528 599.784V603.784H717.155L717.509 600.174L713.528 599.784ZM695.411 599.784L692.823 602.833L693.942 603.784H695.411V599.784ZM652.362 643.312L650.185 639.957H650.185L652.362 643.312ZM694.371 616.047L696.549 619.402L694.371 616.047ZM697.796 612.321V608.321H695.4L694.269 610.433L697.796 612.321ZM713.509 612.321H717.509V608.321H713.509V612.321ZM714.067 616.408L717.509 614.371L717.509 614.371L714.067 616.408ZM719.286 625.227L715.843 627.264L719.286 625.227ZM719.272 629.324L715.843 627.264V627.264L719.272 629.324ZM707.799 648.418L711.228 650.478H711.228L707.799 648.418ZM711.08 657.212L712.321 653.409H712.321L711.08 657.212ZM722.144 660.824L720.902 664.627L722.144 660.824ZM729.601 657.289L733.33 658.735L729.601 657.289ZM737.079 638V634H734.339L733.349 636.554L737.079 638ZM763.853 638L767.81 637.417L767.307 634H763.853V638ZM774.202 673.472L770.538 675.079L774.202 673.472ZM799.714 669.915L796.133 671.698L799.714 669.915ZM790.46 617.296L794.421 617.852L794.421 617.852L790.46 617.296ZM790.496 616.914V612.914H786.68L786.5 616.725L790.496 616.914ZM802.711 616.914V620.914H806.711V616.914H802.711ZM802.711 614.154V610.154H798.711V614.154H802.711ZM864.861 614.154V618.154H868.861V614.154H864.861ZM864.861 606.306V602.306H860.861V606.306H864.861ZM917.469 606.306L921.469 606.306L921.469 602.306H917.469V606.306ZM917.469 609.199L913.469 609.199L913.469 613.199H917.469V609.199ZM937.238 609.199V613.199H941.238V609.199H937.238ZM937.238 597.627H941.238V593.627H937.238V597.627ZM917.469 597.627V593.627H913.469L913.469 597.627L917.469 597.627ZM917.469 600.52V604.52H921.469L921.469 600.52L917.469 600.52ZM885.108 600.52H881.108V604.52H885.108V600.52ZM885.108 581.715H889.108V577.715H885.108V581.715ZM879.805 581.715V577.715H877.456L876.312 579.765L879.805 581.715ZM869.309 600.52V604.52H871.657L872.802 602.469L869.309 600.52ZM864.861 600.52H860.861V604.52H864.861V600.52ZM864.861 592.578H868.861V588.578H864.861V592.578ZM802.711 592.578H798.711V596.578H802.711V592.578ZM763.362 634.26L765.169 637.828L767.654 636.57L767.336 633.803L763.362 634.26ZM762.801 619.227L766.794 619.459L767.04 615.227H762.801V619.227ZM742.062 625.145L738.333 623.7L738.015 624.52L738.07 625.398L742.062 625.145ZM744.179 619.685L742.316 616.145L740.991 616.843L740.45 618.239L744.179 619.685ZM750.135 619.227L754.131 619.411L754.324 615.227H750.135V619.227ZM752.655 631.24V635.24H757.289L756.612 630.655L752.655 631.24ZM755.982 619.227V615.227H754.197L753.005 616.555L755.982 619.227ZM879.805 600.52V604.52H883.805V600.52H879.805ZM874.613 600.52L871.12 598.57L867.799 604.52H874.613V600.52ZM879.805 591.218H883.805V575.844L876.312 589.268L879.805 591.218ZM677.941 612.652L680.167 615.976L677.941 612.652ZM646.158 633.946L648.384 637.269L648.384 637.269L646.158 633.946ZM726.528 578H733.278V570H726.528V578ZM730.528 581.715V574H722.528V581.715H730.528ZM733.278 577.715H726.528V585.715H733.278V577.715ZM729.278 574V581.715H737.278V574H729.278ZM718.718 582.332L719.924 590.047L727.828 588.812L726.622 581.097L718.718 582.332ZM737.136 577.715H722.67V585.715H737.136V577.715ZM741.136 589.43V581.715H733.136V589.43H741.136ZM723.876 593.43H737.136V585.43H723.876V593.43ZM718.813 593.43H802.711V585.43H718.813V593.43ZM722.813 596.179V589.43H714.813V596.179H722.813ZM717.509 600.179H718.813V592.179H717.509V600.179ZM717.509 600.174C717.509 600.174 717.509 600.175 717.508 600.177C717.508 600.179 717.507 600.181 717.507 600.182C717.506 600.183 717.507 600.181 717.51 600.178C717.512 600.176 717.513 600.176 717.51 600.178C717.508 600.178 717.506 600.179 717.505 600.179C717.503 600.18 717.504 600.179 717.509 600.179V592.179C713.355 592.179 709.945 595.342 709.547 599.394L717.509 600.174ZM695.411 603.784H713.528V595.784H695.411V603.784ZM688.842 601.374C690.364 601.374 691.747 601.92 692.823 602.833L698 596.735C695.534 594.641 692.331 593.374 688.842 593.374V601.374ZM646.529 601.374H688.842V593.374H646.529V601.374ZM634.529 613.374C634.529 606.746 639.901 601.374 646.529 601.374V593.374C635.483 593.374 626.529 602.328 626.529 613.374H634.529ZM634.529 631.454V613.374H626.529V631.454H634.529ZM644.666 641.591C639.067 641.591 634.529 637.052 634.529 631.454H626.529C626.529 641.471 634.649 649.591 644.666 649.591V641.591ZM650.185 639.957C648.542 641.023 646.625 641.591 644.666 641.591V649.591C648.171 649.591 651.6 648.576 654.54 646.667L650.185 639.957ZM692.193 612.692L650.185 639.957L654.54 646.667L696.549 619.402L692.193 612.692ZM694.269 610.433C693.786 611.336 693.079 612.117 692.193 612.692L696.549 619.402C698.585 618.081 700.212 616.283 701.323 614.208L694.269 610.433ZM713.509 608.321H697.796V616.321H713.509V608.321ZM717.509 614.371V612.321H709.509V614.371H717.509ZM717.509 614.371L717.509 614.371H709.509C709.509 615.805 709.894 617.212 710.624 618.446L717.509 614.371ZM722.728 623.189L717.509 614.371L710.624 618.446L715.843 627.264L722.728 623.189ZM722.701 631.384C724.214 628.865 724.225 625.719 722.728 623.189L715.843 627.264V627.264L722.701 631.384ZM711.228 650.478L722.701 631.384L715.843 627.264L704.371 646.357L711.228 650.478ZM712.321 653.409C711.1 653.01 710.566 651.579 711.228 650.478L704.371 646.357C701.061 651.865 703.73 659.02 709.838 661.014L712.321 653.409ZM723.386 657.022L712.321 653.409L709.838 661.014L720.902 664.627L723.386 657.022ZM725.871 655.844C725.487 656.834 724.396 657.352 723.386 657.022L720.902 664.627C725.952 666.276 731.41 663.688 733.33 658.735L725.871 655.844ZM733.349 636.554L725.871 655.844L733.33 658.735L740.808 639.446L733.349 636.554ZM763.853 634H737.079V642H763.853V634ZM777.865 671.865C772.33 659.247 769.275 647.349 767.81 637.417L759.896 638.583C761.458 649.176 764.7 661.767 770.538 675.079L777.865 671.865ZM777.817 671.814C777.815 671.814 777.82 671.813 777.827 671.818C777.831 671.821 777.838 671.826 777.845 671.835C777.853 671.844 777.86 671.855 777.865 671.865L770.538 675.079C771.819 677.997 774.704 679.814 777.817 679.814V671.814ZM796.12 671.814H777.817V679.814H796.12V671.814ZM796.133 671.698C796.144 671.72 796.147 671.731 796.147 671.733C796.148 671.736 796.148 671.739 796.148 671.743C796.147 671.753 796.142 671.775 796.127 671.8C796.112 671.825 796.102 671.828 796.111 671.822C796.117 671.819 796.125 671.816 796.132 671.814C796.141 671.811 796.138 671.814 796.12 671.814V679.814C802.193 679.814 805.918 673.398 803.294 668.131L796.133 671.698ZM786.499 616.741C784.992 627.487 784.721 636.007 786.236 644.553C787.746 653.075 790.986 661.363 796.133 671.698L803.294 668.131C798.292 658.087 795.43 650.588 794.113 643.157C792.8 635.751 792.977 628.152 794.421 617.852L786.499 616.741ZM786.5 616.725C786.5 616.729 786.5 616.735 786.499 616.741L794.421 617.852C794.456 617.602 794.48 617.351 794.492 617.102L786.5 616.725ZM802.711 612.914H790.496V620.914H802.711V612.914ZM798.711 614.154V616.914H806.711V614.154H798.711ZM864.861 610.154H802.711V618.154H864.861V610.154ZM860.861 606.306V614.154H868.861V606.306H860.861ZM917.469 602.306H864.861V610.306H917.469V602.306ZM921.469 609.199L921.469 606.306L913.469 606.306L913.469 609.199L921.469 609.199ZM937.238 605.199H917.469V613.199H937.238V605.199ZM933.238 597.627V609.199H941.238V597.627H933.238ZM917.469 601.627H937.238V593.627H917.469V601.627ZM921.469 600.52L921.469 597.627L913.469 597.627L913.469 600.52L921.469 600.52ZM885.108 604.52H917.469V596.52H885.108V604.52ZM881.108 581.715V600.52H889.108V581.715H881.108ZM879.805 585.715H885.108V577.715H879.805V585.715ZM872.802 602.469L883.297 583.664L876.312 579.765L865.816 598.57L872.802 602.469ZM864.861 604.52H869.309V596.52H864.861V604.52ZM860.861 592.578V600.52H868.861V592.578H860.861ZM802.711 596.578H864.861V588.578H802.711V596.578ZM798.711 589.43V592.578H806.711V589.43H798.711ZM767.336 633.803C766.683 628.118 766.574 623.247 766.794 619.459L758.808 618.995C758.557 623.301 758.69 628.637 759.388 634.716L767.336 633.803ZM761.555 630.691C760.612 631.169 759.543 631.44 758.4 631.44V639.44C760.827 639.44 763.131 638.86 765.169 637.828L761.555 630.691ZM758.4 631.44H753.04V639.44H758.4V631.44ZM753.04 631.44C749.326 631.44 746.285 628.546 746.054 624.893L738.07 625.398C738.566 633.238 745.077 639.44 753.04 639.44V631.44ZM740.45 618.239L738.333 623.7L745.792 626.591L747.909 621.131L740.45 618.239ZM746.043 623.224C746.042 623.225 746.04 623.226 746.037 623.226C746.036 623.227 746.035 623.227 746.035 623.227C746.035 623.227 746.037 623.227 746.04 623.227V615.227C744.703 615.227 743.432 615.558 742.316 616.145L746.043 623.224ZM746.04 623.227H750.135V615.227H746.04V623.227ZM746.139 619.042C746 622.069 745.937 624.421 745.967 626.237C745.996 627.985 746.11 629.528 746.451 630.785C746.819 632.142 747.627 633.77 749.459 634.654C750.844 635.323 752.366 635.24 752.655 635.24V627.24C751.775 627.24 752.33 627.157 752.937 627.45C753.991 627.958 754.211 628.836 754.172 628.691C754.106 628.446 753.993 627.737 753.966 626.106C753.941 624.544 753.993 622.391 754.131 619.411L746.139 619.042ZM756.612 630.655C755.977 626.359 757.571 623.444 758.959 621.898L753.005 616.555C750.306 619.561 747.658 624.789 748.697 631.824L756.612 630.655ZM755.982 623.227H762.801V615.227H755.982V623.227ZM879.805 596.52H874.613V604.52H879.805V596.52ZM875.805 591.218V600.52H883.805V591.218H875.805ZM878.106 602.469L883.297 593.167L876.312 589.268L871.12 598.57L878.106 602.469ZM675.715 601.329H643.931V609.329H675.715V601.329ZM680.167 615.976C686.735 611.575 683.621 601.329 675.715 601.329V609.329C675.745 609.329 675.762 609.332 675.768 609.333C675.774 609.334 675.772 609.334 675.764 609.331C675.757 609.329 675.747 609.324 675.737 609.319C675.726 609.313 675.718 609.307 675.71 609.301C675.696 609.29 675.693 609.284 675.697 609.289C675.699 609.292 675.702 609.297 675.705 609.304C675.709 609.312 675.712 609.32 675.715 609.329C675.717 609.338 675.719 609.347 675.721 609.355C675.722 609.363 675.722 609.369 675.722 609.372C675.722 609.379 675.721 609.373 675.727 609.355C675.729 609.346 675.734 609.336 675.739 609.326C675.744 609.315 675.75 609.306 675.755 609.3C675.76 609.294 675.761 609.293 675.757 609.297C675.753 609.301 675.74 609.312 675.715 609.329L680.167 615.976ZM648.384 637.269L680.167 615.976L675.715 609.329L643.931 630.623L648.384 637.269ZM635.931 630.623C635.931 637.02 643.069 640.83 648.384 637.269L643.931 630.623C643.92 630.63 643.913 630.634 643.911 630.635C643.909 630.636 643.91 630.635 643.913 630.634C643.917 630.633 643.921 630.632 643.926 630.631C643.932 630.63 643.936 630.63 643.94 630.629C643.948 630.629 643.951 630.63 643.948 630.63C643.945 630.629 643.939 630.627 643.931 630.623C643.924 630.618 643.918 630.614 643.916 630.612C643.914 630.61 643.916 630.612 643.921 630.619C643.923 630.622 643.925 630.626 643.927 630.631C643.929 630.636 643.931 630.64 643.932 630.644C643.933 630.647 643.933 630.648 643.932 630.646C643.932 630.644 643.931 630.636 643.931 630.623H635.931ZM635.931 609.329V630.623H643.931V609.329H635.931ZM643.931 601.329C639.513 601.329 635.931 604.911 635.931 609.329H643.931V609.329V601.329Z" fill="black" mask="url(#path-6-inside-1_1325_41366)"/>
<mask id="path-8-inside-2_1325_41366" fill="white">
<path fill-rule="evenodd" clip-rule="evenodd" d="M694.681 698.044C743.106 746.469 821.619 746.469 870.044 698.044C918.469 649.619 918.469 571.106 870.044 522.681C821.619 474.256 743.106 474.256 694.681 522.681C646.256 571.106 646.256 649.619 694.681 698.044ZM702.459 677.538C684.643 659.722 675.305 634.888 676.498 608.499C677.692 582.109 689.32 556.327 708.823 536.823C728.327 517.32 754.109 505.692 780.498 504.499C806.887 503.305 831.722 512.643 849.538 530.459L775.998 603.999L702.459 677.538ZM888.226 612.226C889.42 585.837 880.081 561.003 862.265 543.187L788.726 616.726L715.187 690.265C733.003 708.081 757.837 717.42 784.226 716.226C810.615 715.033 836.398 703.405 855.902 683.901C875.405 664.398 887.033 638.615 888.226 612.226Z"/>
</mask>
<path fill-rule="evenodd" clip-rule="evenodd" d="M694.681 698.044C743.106 746.469 821.619 746.469 870.044 698.044C918.469 649.619 918.469 571.106 870.044 522.681C821.619 474.256 743.106 474.256 694.681 522.681C646.256 571.106 646.256 649.619 694.681 698.044ZM702.459 677.538C684.643 659.722 675.305 634.888 676.498 608.499C677.692 582.109 689.32 556.327 708.823 536.823C728.327 517.32 754.109 505.692 780.498 504.499C806.887 503.305 831.722 512.643 849.538 530.459L775.998 603.999L702.459 677.538ZM888.226 612.226C889.42 585.837 880.081 561.003 862.265 543.187L788.726 616.726L715.187 690.265C733.003 708.081 757.837 717.42 784.226 716.226C810.615 715.033 836.398 703.405 855.902 683.901C875.405 664.398 887.033 638.615 888.226 612.226Z" fill="#E40303"/>
<path d="M702.459 677.538L705.288 680.366L702.459 683.194L699.631 680.366L702.459 677.538ZM780.498 504.499L780.318 500.503L780.498 504.499ZM849.538 530.459L852.366 527.631L855.194 530.459L852.366 533.288L849.538 530.459ZM775.998 603.999L778.827 606.827L775.998 603.999ZM862.265 543.187L859.437 540.359L862.265 537.53L865.094 540.359L862.265 543.187ZM888.226 612.226L884.23 612.046L888.226 612.226ZM788.726 616.726L791.555 619.555L788.726 616.726ZM715.187 690.265L712.359 693.094L709.53 690.265L712.359 687.437L715.187 690.265ZM855.902 683.901L853.073 681.073L855.902 683.901ZM872.872 700.872C822.885 750.859 741.84 750.859 691.853 700.872L697.51 695.215C744.373 742.078 820.352 742.078 867.215 695.215L872.872 700.872ZM872.872 519.853C922.859 569.84 922.859 650.885 872.872 700.872L867.215 695.215C914.078 648.352 914.078 572.373 867.215 525.51L872.872 519.853ZM691.853 519.853C741.84 469.866 822.885 469.866 872.872 519.853L867.215 525.51C820.352 478.647 744.373 478.647 697.51 525.51L691.853 519.853ZM691.853 700.872C641.866 650.885 641.866 569.84 691.853 519.853L697.51 525.51C650.647 572.373 650.647 648.352 697.51 695.215L691.853 700.872ZM680.494 608.679C679.349 634.007 688.309 657.73 705.288 674.709L699.631 680.366C680.978 661.713 671.261 635.768 672.503 608.318L680.494 608.679ZM711.652 539.652C692.82 558.484 681.641 583.335 680.494 608.679L672.503 608.318C673.743 580.884 685.819 554.17 705.995 533.995L711.652 539.652ZM780.679 508.494C755.335 509.641 730.484 520.82 711.652 539.652L705.995 533.995C726.17 513.82 752.884 501.743 780.318 500.503L780.679 508.494ZM846.709 533.288C829.73 516.309 806.007 507.349 780.679 508.494L780.318 500.503C807.768 499.261 833.713 508.978 852.366 527.631L846.709 533.288ZM773.17 601.17L846.709 527.631L852.366 533.288L778.827 606.827L773.17 601.17ZM699.631 674.709L773.17 601.17L778.827 606.827L705.288 680.366L699.631 674.709ZM865.094 540.359C883.747 559.012 893.464 584.957 892.222 612.407L884.23 612.046C885.376 586.718 876.416 562.995 859.437 546.016L865.094 540.359ZM785.898 613.898L859.437 540.359L865.094 546.016L791.555 619.555L785.898 613.898ZM712.359 687.437L785.898 613.898L791.555 619.555L718.016 693.094L712.359 687.437ZM784.407 720.222C756.957 721.464 731.012 711.747 712.359 693.094L718.016 687.437C734.995 704.416 758.718 713.376 784.046 712.23L784.407 720.222ZM858.73 686.73C838.555 706.905 811.841 718.981 784.407 720.222L784.046 712.23C809.39 711.084 834.241 699.905 853.073 681.073L858.73 686.73ZM892.222 612.407C890.982 639.841 878.905 666.554 858.73 686.73L853.073 681.073C871.905 662.241 883.084 637.39 884.23 612.046L892.222 612.407Z" fill="black" mask="url(#path-8-inside-2_1325_41366)"/>
</svg>
