<svg width="1000" height="1000" viewBox="0 0 1000 1000" fill="none" xmlns="http://www.w3.org/2000/svg">
<mask id="path-1-inside-1_561_6020" fill="white">
<path fill-rule="evenodd" clip-rule="evenodd" d="M220.494 324.336C220.494 189.945 345.256 81 499.156 81C653.057 81 777.819 189.945 777.819 324.336H220.494Z"/>
</mask>
<path fill-rule="evenodd" clip-rule="evenodd" d="M220.494 324.336C220.494 189.945 345.256 81 499.156 81C653.057 81 777.819 189.945 777.819 324.336H220.494Z" fill="#82EB68"/>
<path d="M447.117 323.655H451.117H447.117ZM386.488 325.31C386.488 258.349 400.483 197.926 422.919 154.389C445.461 110.646 475.891 85 508.389 85V77C471.355 77 438.833 106.044 415.808 150.725C392.676 195.611 378.488 257.343 378.488 325.31H386.488ZM451.117 322.988C451.117 256.341 456.367 196.111 464.811 152.639C469.039 130.87 474.03 113.509 479.46 101.686C482.18 95.7625 484.913 91.447 487.549 88.6701C490.184 85.8942 492.375 85 494.121 85V77C489.377 77 485.231 79.4915 481.747 83.1625C478.263 86.8327 475.093 92.0255 472.19 98.3473C466.373 111.015 461.235 129.092 456.958 151.114C448.39 195.225 443.117 255.989 443.117 322.988H451.117ZM459.852 452.696C451.125 409.265 451.117 391.409 451.117 323.655H443.117C443.117 391.428 443.11 409.988 452.009 454.272L459.852 452.696ZM451.117 323.655V323.655H443.117V323.655H451.117ZM451.117 323.655V323.655H443.117V323.655H451.117ZM451.117 323.655V323.655H443.117V323.655H451.117ZM451.117 323.655V323.655H443.117V323.655H451.117ZM451.117 323.655V323.654H443.117V323.655H451.117ZM451.117 323.654V323.654H443.117V323.654H451.117ZM451.117 323.654V322.988H443.117V323.654H451.117ZM517.426 322.988C517.426 256.094 515.263 195.485 511.759 151.559C510.008 129.615 507.915 111.73 505.566 99.2752C504.397 93.0792 503.131 88.036 501.738 84.4634C501.05 82.6986 500.241 81.0527 499.24 79.7784C498.297 78.5772 496.608 77 494.121 77V85C492.966 85 492.595 84.2692 492.949 84.7203C493.246 85.0983 493.716 85.9106 494.285 87.3692C495.405 90.2437 496.563 94.7088 497.704 100.758C499.974 112.794 502.041 130.347 503.784 152.195C507.267 195.85 509.426 256.236 509.426 322.988H517.426ZM511.522 497.329C515.166 453.187 517.426 391.371 517.426 322.988H509.426C509.426 391.228 507.169 452.812 503.549 496.671L511.522 497.329ZM582.055 322.988C582.055 255.841 572.621 194.88 557.25 150.566C549.572 128.428 540.337 110.226 529.885 97.4802C519.456 84.7631 507.393 77 494.121 77V85C504.027 85 514.044 90.7796 523.699 102.553C533.33 114.298 542.182 131.535 549.692 153.187C564.7 196.455 574.055 256.489 574.055 322.988H582.055ZM556.213 498.351C572.197 453.807 582.055 391.626 582.055 322.988H574.055C574.055 390.972 564.277 452.192 548.683 495.649L556.213 498.351ZM631.324 427.733C664.283 339.337 651.487 251.868 619.961 186.506C604.2 153.829 583.703 126.561 561.756 107.411C539.872 88.3153 516.192 77 494.121 77V85C513.538 85 535.415 95.0436 556.497 113.439C577.516 131.779 597.394 158.132 612.756 189.982C643.475 253.672 655.919 338.87 623.829 424.938L631.324 427.733ZM714.671 322.988C714.671 187.562 616.334 77 494.121 77V85C611.103 85 706.671 191.122 706.671 322.988H714.671ZM283.249 322.988C283.249 191.122 378.817 85 495.799 85V77C373.586 77 275.249 187.562 275.249 322.988H283.249ZM220.494 324.336H212.494V332.336H220.494V324.336ZM777.819 324.336V332.336H785.819V324.336H777.819ZM499.156 73C341.89 73 212.494 184.543 212.494 324.336H228.494C228.494 195.348 348.621 89 499.156 89V73ZM785.819 324.336C785.819 184.543 656.423 73 499.156 73V89C649.692 89 769.819 195.348 769.819 324.336H785.819ZM220.494 332.336H777.819V316.336H220.494V332.336Z" fill="black" mask="url(#path-1-inside-1_561_6020)"/>
<path d="M763.391 320.036C759.216 215.379 673.587 128.316 558.78 103.354C549.51 101.339 547.312 113.039 556.107 116.595C651.01 154.961 709.36 222.415 717.014 320.433C717.345 324.681 720.847 328.05 725.108 328.05H755.55C759.968 328.05 763.567 324.451 763.391 320.036Z" fill="black" fill-opacity="0.25"/>
<path d="M230.726 313.974C234.501 219.315 304.912 139.048 403.278 106.107C412.626 102.976 414.546 113.17 405.43 116.924C317.252 153.234 253.188 219.169 248.84 314.04C248.64 318.421 245.086 321.987 240.701 321.987H238.566C234.148 321.987 230.55 318.388 230.726 313.974Z" fill="white" fill-opacity="0.25"/>
<rect x="204" y="285.91" width="65.4714" height="97.9681" rx="32.7357" fill="#82EB68" stroke="black" stroke-width="8"/>
<rect x="334.149" y="285.91" width="65.4714" height="97.9681" rx="32.7357" fill="#82EB68" stroke="black" stroke-width="8"/>
<rect x="269.074" y="285.91" width="65.4714" height="97.9681" rx="32.7357" fill="#82EB68" stroke="black" stroke-width="8"/>
<rect x="464.299" y="285.91" width="65.4714" height="97.9681" rx="32.7357" fill="#82EB68" stroke="black" stroke-width="8"/>
<rect x="399.224" y="285.91" width="65.4714" height="97.9681" rx="32.7357" fill="#82EB68" stroke="black" stroke-width="8"/>
<rect x="594.448" y="285.91" width="65.4714" height="97.9681" rx="32.7357" fill="#82EB68" stroke="black" stroke-width="8"/>
<rect x="529.373" y="285.91" width="65.4714" height="97.9681" rx="32.7357" fill="#82EB68" stroke="black" stroke-width="8"/>
<rect x="659.523" y="285.91" width="65.4714" height="97.9681" rx="32.7357" fill="#82EB68" stroke="black" stroke-width="8"/>
<path d="M695.083 304.974C695.083 297.438 701.192 291.329 708.728 291.329C716.264 291.329 722.373 297.438 722.373 304.974V364.814C722.373 372.349 716.264 378.458 708.728 378.458C701.192 378.458 695.083 372.349 695.083 364.814V304.974Z" fill="black" fill-opacity="0.25"/>
<path d="M628.233 304.974C628.233 297.438 634.342 291.329 641.878 291.329C649.414 291.329 655.523 297.438 655.523 304.974V364.814C655.523 372.349 649.414 378.458 641.878 378.458C634.342 378.458 628.233 372.349 628.233 364.814V304.974Z" fill="black" fill-opacity="0.25"/>
<path d="M563.158 304.974C563.158 297.438 569.267 291.329 576.803 291.329C584.339 291.329 590.448 297.438 590.448 304.974V364.814C590.448 372.349 584.339 378.458 576.803 378.458C569.267 378.458 563.158 372.349 563.158 364.814V304.974Z" fill="black" fill-opacity="0.25"/>
<path d="M498.084 304.974C498.084 297.438 504.193 291.329 511.729 291.329C519.265 291.329 525.374 297.438 525.374 304.974V364.814C525.374 372.349 519.265 378.458 511.729 378.458C504.193 378.458 498.084 372.349 498.084 364.814V304.974Z" fill="black" fill-opacity="0.25"/>
<path d="M433.897 304.974C433.897 297.438 440.006 291.329 447.542 291.329C455.077 291.329 461.186 297.438 461.186 304.974V364.814C461.186 372.349 455.077 378.458 447.542 378.458C440.006 378.458 433.897 372.349 433.897 364.814V304.974Z" fill="black" fill-opacity="0.25"/>
<path d="M367.935 304.974C367.935 297.438 374.044 291.329 381.58 291.329C389.115 291.329 395.224 297.438 395.224 304.974V364.814C395.224 372.349 389.115 378.458 381.58 378.458C374.044 378.458 367.935 372.349 367.935 364.814V304.974Z" fill="black" fill-opacity="0.25"/>
<path d="M302.86 304.974C302.86 297.438 308.969 291.329 316.505 291.329C324.04 291.329 330.149 297.438 330.149 304.974V364.814C330.149 372.349 324.04 378.458 316.505 378.458C308.969 378.458 302.86 372.349 302.86 364.814V304.974Z" fill="black" fill-opacity="0.25"/>
<path d="M237.785 304.974C237.785 297.438 243.894 291.329 251.43 291.329C258.966 291.329 265.075 297.438 265.075 304.974V364.814C265.075 372.349 258.966 378.458 251.43 378.458C243.894 378.458 237.785 372.349 237.785 364.814V304.974Z" fill="black" fill-opacity="0.25"/>
<path d="M273.471 303.245C273.471 301.216 275.116 299.572 277.144 299.572C279.173 299.572 280.817 301.216 280.817 303.245V366.544C280.817 368.572 279.173 370.217 277.144 370.217C275.116 370.217 273.471 368.572 273.471 366.544V303.245Z" fill="black" fill-opacity="0.25"/>
<path d="M338.546 303.245C338.546 301.216 340.191 299.572 342.219 299.572C344.248 299.572 345.892 301.216 345.892 303.245V366.544C345.892 368.572 344.248 370.217 342.219 370.217C340.191 370.217 338.546 368.572 338.546 366.544V303.245Z" fill="black" fill-opacity="0.25"/>
<path d="M402.571 303.245C402.571 301.216 404.216 299.572 406.244 299.572C408.273 299.572 409.917 301.216 409.917 303.245V366.544C409.917 368.572 408.273 370.217 406.244 370.217C404.216 370.217 402.571 368.572 402.571 366.544V303.245Z" fill="black" fill-opacity="0.25"/>
<path d="M468.696 303.245C468.696 301.216 470.34 299.572 472.369 299.572C474.397 299.572 476.042 301.216 476.042 303.245V366.544C476.042 368.572 474.397 370.217 472.369 370.217C470.34 370.217 468.696 368.572 468.696 366.544V303.245Z" fill="black" fill-opacity="0.25"/>
<path d="M533.77 303.245C533.77 301.216 535.415 299.572 537.443 299.572C539.472 299.572 541.116 301.216 541.116 303.245V366.544C541.116 368.572 539.472 370.217 537.443 370.217C535.415 370.217 533.77 368.572 533.77 366.544V303.245Z" fill="black" fill-opacity="0.25"/>
<path d="M598.845 303.245C598.845 301.216 600.489 299.572 602.518 299.572C604.546 299.572 606.191 301.216 606.191 303.245V366.544C606.191 368.572 604.546 370.217 602.518 370.217C600.489 370.217 598.845 368.572 598.845 366.544V303.245Z" fill="black" fill-opacity="0.25"/>
<path d="M662.87 303.245C662.87 301.216 664.515 299.572 666.543 299.572C668.572 299.572 670.216 301.216 670.216 303.245V366.544C670.216 368.572 668.572 370.217 666.543 370.217C664.515 370.217 662.87 368.572 662.87 366.544V303.245Z" fill="black" fill-opacity="0.25"/>
<rect x="730.529" y="285.91" width="65.4714" height="97.9681" rx="32.7357" fill="#82EB68" stroke="black" stroke-width="8"/>
<path d="M766.089 304.974C766.089 297.438 772.198 291.329 779.734 291.329C787.27 291.329 793.378 297.438 793.378 304.974V364.814C793.378 372.349 787.27 378.458 779.734 378.458C772.198 378.458 766.089 372.349 766.089 364.814V304.974Z" fill="black" fill-opacity="0.25"/>
<path d="M733.876 303.245C733.876 301.216 735.52 299.572 737.549 299.572C739.577 299.572 741.222 301.216 741.222 303.245V366.544C741.222 368.572 739.577 370.217 737.549 370.217C735.52 370.217 733.876 368.572 733.876 366.544V303.245Z" fill="black" fill-opacity="0.25"/>
</svg>
