<svg width="1000" height="1000" viewBox="0 0 1000 1000" fill="none" xmlns="http://www.w3.org/2000/svg">
<g filter="url(#filter0_d_282_26356)">
<path d="M320.318 532H475.682C472.166 564.929 439.452 592 398 592C356.548 592 323.834 564.929 320.318 532Z" fill="#090909" stroke="black" stroke-width="12"/>
<mask id="mask0_282_26356" style="mask-type:alpha" maskUnits="userSpaceOnUse" x="314" y="526" width="168" height="72">
<path d="M398 598C444.392 598 482 565.765 482 526H314C314 565.765 351.608 598 398 598Z" fill="#E40303"/>
</mask>
<g mask="url(#mask0_282_26356)">
<path d="M398 542.541C354.116 542.541 318.541 573.034 318.541 610.649L477.46 610.649C477.46 573.034 441.884 542.541 398 542.541Z" fill="#E40303"/>
<path opacity="0.5" d="M426.965 544.621C399.77 544.621 377.724 565.185 377.724 590.552L476.207 590.552C476.207 565.185 454.161 544.621 426.965 544.621Z" fill="black" fill-opacity="0.16"/>
</g>
</g>
<path d="M478.727 531.708C475.353 566.783 440.865 595 398 595C355.135 595 320.647 566.783 317.273 531.708C317.144 530.362 318.26 529 320 529H476C477.74 529 478.856 530.362 478.727 531.708Z" stroke="black" stroke-width="6"/>
<defs>
<filter id="filter0_d_282_26356" x="309.262" y="526" width="175.476" height="83" filterUnits="userSpaceOnUse" color-interpolation-filters="sRGB">
<feFlood flood-opacity="0" result="BackgroundImageFix"/>
<feColorMatrix in="SourceAlpha" type="matrix" values="0 0 0 0 0 0 0 0 0 0 0 0 0 0 0 0 0 0 127 0" result="hardAlpha"/>
<feOffset dx="-1" dy="7"/>
<feGaussianBlur stdDeviation="2"/>
<feComposite in2="hardAlpha" operator="out"/>
<feColorMatrix type="matrix" values="0 0 0 0 0 0 0 0 0 0 0 0 0 0 0 0 0 0 0.25 0"/>
<feBlend mode="normal" in2="BackgroundImageFix" result="effect1_dropShadow_282_26356"/>
<feBlend mode="normal" in="SourceGraphic" in2="effect1_dropShadow_282_26356" result="shape"/>
</filter>
</defs>
</svg>
