<svg width="1000" height="1000" viewBox="0 0 1000 1000" fill="none" xmlns="http://www.w3.org/2000/svg">
<g clip-path="url(#clip0_453_4820)">
<g filter="url(#filter0_d_453_4820)">
<mask id="path-1-inside-1_453_4820" fill="white">
<path fill-rule="evenodd" clip-rule="evenodd" d="M557.008 281.808C560.648 283.66 565.137 282.632 567.366 279.211C606.048 219.859 623.063 133.792 593.428 80.5184C543.355 -9.49582 432.981 -4.38448 376.115 34.2819C299.574 86.3262 315.047 203.867 338.498 268.371C340.044 272.625 344.867 274.556 349.069 272.875C377.769 261.392 409.631 255 443.182 255C484.627 255 523.495 264.754 557.008 281.808Z"/>
</mask>
<g filter="url(#filter1_i_453_4820)">
<path fill-rule="evenodd" clip-rule="evenodd" d="M557.008 281.808C560.648 283.66 565.137 282.632 567.366 279.211C606.048 219.859 623.063 133.792 593.428 80.5184C543.355 -9.49582 432.981 -4.38448 376.115 34.2819C299.574 86.3262 315.047 203.867 338.498 268.371C340.044 272.625 344.867 274.556 349.069 272.875C377.769 261.392 409.631 255 443.182 255C484.627 255 523.495 264.754 557.008 281.808Z" fill="#82EB68"/>
</g>
<path d="M593.428 80.5184L600.419 76.6294L593.428 80.5184ZM376.115 34.2819L380.613 40.8974L376.115 34.2819ZM443.182 255L443.182 263L443.182 255ZM567.366 279.211L574.068 283.579L567.366 279.211ZM557.008 281.808L560.637 274.678L557.008 281.808ZM586.437 84.4074C600.094 108.959 603.336 141.817 598.106 176.389C592.893 210.85 579.381 246.124 560.664 274.843L574.068 283.579C594.033 252.946 608.37 215.51 613.926 178.782C619.465 142.163 616.396 105.351 600.419 76.6294L586.437 84.4074ZM380.613 40.8974C407.394 22.6879 447.241 12.1779 486.323 17.0826C525.114 21.951 562.806 41.9268 586.437 84.4074L600.419 76.6294C573.977 29.0958 531.446 6.6201 488.315 1.20718C445.475 -4.16931 401.702 7.20951 371.617 27.6663L380.613 40.8974ZM346.016 265.638C334.567 234.145 325.111 189.752 327.794 147.157C330.476 104.574 345.149 65.0115 380.613 40.8974L371.617 27.6663C330.54 55.5965 314.68 100.826 311.826 146.151C308.972 191.464 318.978 238.094 330.979 271.105L346.016 265.638ZM352.041 280.302C379.796 269.198 410.649 263 443.182 263L443.182 247C408.613 247 375.742 253.587 346.098 265.447L352.041 280.302ZM443.182 263C483.369 263 520.994 272.458 553.38 288.938L560.637 274.678C525.996 257.051 485.884 247 443.182 247L443.182 263ZM330.979 271.105C334.198 279.959 344.002 283.518 352.041 280.302L346.098 265.447C345.972 265.497 345.891 265.475 345.873 265.467C345.868 265.465 345.895 265.476 345.935 265.516C345.954 265.537 345.973 265.561 345.99 265.586C346.006 265.612 346.014 265.631 346.016 265.638L330.979 271.105ZM560.664 274.843C560.671 274.832 560.684 274.814 560.703 274.795C560.722 274.775 560.742 274.759 560.761 274.746C560.799 274.719 560.822 274.714 560.818 274.715C560.802 274.719 560.732 274.727 560.637 274.678L553.38 288.938C560.382 292.501 569.439 290.683 574.068 283.579L560.664 274.843Z" fill="black" mask="url(#path-1-inside-1_453_4820)"/>
<path d="M332.838 122.543C346.928 74.9126 374.498 37.3565 398.679 45.624C401.095 50.1067 358.052 64.2965 347.652 126.924C337.535 187.844 344.548 214.7 363.592 262.671C337.328 234.407 318.749 170.172 332.838 122.543Z" fill="white" fill-opacity="0.25"/>
<path d="M599.981 126.069C604.319 210.89 567.542 283.84 550.182 272C532.823 260.16 575.056 262 575.056 136.673C575.055 18.3191 472.401 21.8792 486.025 19.8623C522.431 14.4724 596.402 56.0827 599.981 126.069Z" fill="black" fill-opacity="0.25"/>
<path d="M445.97 197.261C445.97 198.949 445.638 200.621 444.992 202.18C444.346 203.74 443.399 205.157 442.205 206.351C441.011 207.545 439.594 208.491 438.035 209.138C436.475 209.784 434.803 210.116 433.115 210.116C431.427 210.116 429.755 209.784 428.196 209.138C426.636 208.491 425.219 207.545 424.025 206.351C422.831 205.157 421.884 203.74 421.238 202.18C420.592 200.621 420.26 198.949 420.26 197.261" stroke="black" stroke-width="8" stroke-linecap="round"/>
<ellipse rx="53.3351" ry="33.419" transform="matrix(0.910793 -0.412863 0.289454 0.957192 491.434 140.025)" fill="#090909"/>
<path d="M472.138 120.613C486.005 111.648 500.668 107.017 507.164 110.904C509.016 112.012 508.444 113.714 506.287 113.703C500.787 113.674 488.873 113.744 475.006 125.049C467.823 130.905 463.532 135.444 460.537 139.863C456.102 146.407 452.277 145.702 456.045 138.752C459.85 131.735 465.287 125.042 472.138 120.613Z" fill="white" fill-opacity="0.7"/>
<path d="M509.432 161.446C494.524 172.223 471.636 179.586 465.69 173.585C465.241 173.132 465.059 172.43 465.567 172.043C469.157 169.317 491.619 166.502 504.916 155.647C519.652 143.617 522.141 136.333 526.053 125.609C527.257 122.309 531.431 122.405 531.678 125.91C532.653 139.722 522.197 152.22 509.432 161.446Z" fill="white" fill-opacity="0.25"/>
<ellipse cx="519.448" cy="111.806" rx="4.01729" ry="4.41901" transform="rotate(-5.86022 519.448 111.806)" fill="white" fill-opacity="0.7"/>
<ellipse rx="53.3351" ry="33.419" transform="matrix(-0.910793 -0.412863 -0.289454 0.957192 374.933 140.009)" fill="#090909"/>
<path d="M394.231 120.596C380.364 111.631 365.701 107 359.205 110.887C357.354 111.995 357.925 113.697 360.082 113.686C365.582 113.657 377.496 113.727 391.364 125.032C398.546 130.887 402.837 135.427 405.832 139.845C410.267 146.39 414.092 145.685 410.324 138.735C406.519 131.717 401.082 125.025 394.231 120.596Z" fill="white" fill-opacity="0.7"/>
<path d="M356.935 161.43C371.843 172.206 394.731 179.569 400.677 173.569C401.126 173.115 401.308 172.413 400.8 172.027C397.211 169.3 374.748 166.485 361.451 155.63C346.715 143.6 344.226 136.316 340.314 125.592C339.11 122.292 334.936 122.389 334.689 125.893C333.715 139.705 344.17 152.203 356.935 161.43Z" fill="white" fill-opacity="0.25"/>
<ellipse rx="4.01729" ry="4.41901" transform="matrix(-0.994774 -0.102102 -0.102102 0.994774 347.447 111.806)" fill="white" fill-opacity="0.7"/>
</g>
</g>
<defs>
<filter id="filter0_d_453_4820" x="314.334" y="7.87939" width="297.139" height="285.839" filterUnits="userSpaceOnUse" color-interpolation-filters="sRGB">
<feFlood flood-opacity="0" result="BackgroundImageFix"/>
<feColorMatrix in="SourceAlpha" type="matrix" values="0 0 0 0 0 0 0 0 0 0 0 0 0 0 0 0 0 0 127 0" result="hardAlpha"/>
<feOffset dx="-1" dy="7"/>
<feGaussianBlur stdDeviation="2"/>
<feComposite in2="hardAlpha" operator="out"/>
<feColorMatrix type="matrix" values="0 0 0 0 0 0 0 0 0 0 0 0 0 0 0 0 0 0 0.25 0"/>
<feBlend mode="normal" in2="BackgroundImageFix" result="effect1_dropShadow_453_4820"/>
<feBlend mode="normal" in="SourceGraphic" in2="effect1_dropShadow_453_4820" result="shape"/>
</filter>
<filter id="filter1_i_453_4820" x="319.334" y="7.87939" width="289.139" height="274.839" filterUnits="userSpaceOnUse" color-interpolation-filters="sRGB">
<feFlood flood-opacity="0" result="BackgroundImageFix"/>
<feBlend mode="normal" in="SourceGraphic" in2="BackgroundImageFix" result="shape"/>
<feColorMatrix in="SourceAlpha" type="matrix" values="0 0 0 0 0 0 0 0 0 0 0 0 0 0 0 0 0 0 127 0" result="hardAlpha"/>
<feOffset dx="-5" dy="-8"/>
<feComposite in2="hardAlpha" operator="arithmetic" k2="-1" k3="1"/>
<feColorMatrix type="matrix" values="0 0 0 0 0 0 0 0 0 0 0 0 0 0 0 0 0 0 0.25 0"/>
<feBlend mode="normal" in2="shape" result="effect1_innerShadow_453_4820"/>
</filter>
<clipPath id="clip0_453_4820">
<rect width="1000" height="1000" fill="white"/>
</clipPath>
</defs>
</svg>
