<svg width="1000" height="1000" viewBox="0 0 1000 1000" fill="none" xmlns="http://www.w3.org/2000/svg">
<g clip-path="url(#clip0_162_123007)">
<path d="M881.681 464.011C836.018 538.005 772.09 722.25 881.681 867.271C989.467 738.533 926.592 544.79 881.681 464.011Z" fill="#008026"/>
<path d="M881.68 464.011C926.591 544.663 989.466 738.101 881.68 866.636V464.011Z" fill="black" fill-opacity="0.25"/>
<path d="M881.192 867.29C899.692 903.314 957.519 976.533 1040.82 981.216C1015.33 909.157 923.781 875.241 881.192 867.29Z" fill="#008026"/>
<path d="M881.192 867.29C899.692 903.314 957.519 976.533 1040.82 981.216L881.192 867.29Z" fill="black" fill-opacity="0.25"/>
<path d="M881.189 867.29C862.689 903.314 804.862 976.533 721.558 981.216C747.049 909.157 838.6 875.241 881.189 867.29Z" fill="#008026"/>
<path d="M881.189 867.29C862.689 903.314 804.862 976.533 721.558 981.216L881.189 867.29Z" fill="black" fill-opacity="0.25"/>
<path d="M881.549 867.081C942.411 895.659 1093.86 935.458 1212.74 866.031C1106.79 798.454 947.802 838.574 881.549 867.081Z" fill="#008026"/>
<path d="M881.549 867.081C942.411 895.659 1093.86 935.458 1212.74 866.031L881.549 867.081Z" fill="black" fill-opacity="0.25"/>
<path d="M881.312 867.081C820.451 895.659 669.006 935.458 550.122 866.031C656.067 798.454 815.059 838.574 881.312 867.081Z" fill="#008026"/>
<path d="M881.312 867.081C820.451 895.659 669.006 935.458 550.122 866.031L881.312 867.081Z" fill="black" fill-opacity="0.25"/>
<path d="M1150.12 639.577C1073.76 651.838 913.091 716.037 881.24 874.744C1030.85 872.584 1122.83 717.066 1150.12 639.577Z" fill="#008026"/>
<path d="M1150.12 639.577C1122.83 717.066 1030.85 872.584 881.242 874.745L1150.12 639.577Z" fill="black" fill-opacity="0.25"/>
<path d="M612.522 639.577C688.875 651.838 849.546 716.037 881.397 874.744C731.787 872.584 639.809 717.066 612.522 639.577Z" fill="#008026"/>
<path d="M612.521 639.577C639.809 717.066 731.786 872.584 881.397 874.745L612.521 639.577Z" fill="black" fill-opacity="0.25"/>
<rect x="871.973" y="862.826" width="19.0517" height="184.801" fill="#008026"/>
<rect x="871.973" y="866.636" width="9.52583" height="180.991" fill="black" fill-opacity="0.25"/>
<path d="M829.985 768.834L835.258 766.217C803.431 649.523 846.614 529.039 881.55 470.015C907.522 518.372 938.253 602.669 938.216 689.298V689.3C938.229 713.911 935.77 738.686 930.043 762.869L935.312 765.426C995.656 689.404 1090.07 653.504 1145.64 643.397C1125.98 696.28 1078.33 780.883 1004.92 830.91L1007.02 836.361C1073.09 827.202 1148 830.379 1206.99 865.921C1122.62 912.973 1022.4 905.975 950.451 887.772L948.395 893.374C984.432 911.036 1020.68 938.532 1036.42 977.885C968.319 971.888 917.869 919.392 893.536 882.345L888.028 873.96V883.992V1044.63H874.97V883.047V872.921L869.454 881.413C845.367 918.495 794.64 971.837 725.959 977.885C741.632 938.715 777.612 911.291 813.485 893.62L811.43 888.019C739.549 906.038 639.858 912.759 555.866 865.921C614.78 830.43 689.559 827.211 755.562 836.322L757.662 830.872C684.285 780.842 636.648 696.273 616.999 643.397C673.393 653.655 769.789 690.477 829.985 768.834Z" stroke="black" stroke-width="6"/>
</g>
<defs>
<clipPath id="clip0_162_123007">
<path d="M0 0H1000V1000H0V0Z" fill="white"/>
</clipPath>
</defs>
</svg>
