<svg width="1000" height="1000" viewBox="0 0 1000 1000" fill="none" xmlns="http://www.w3.org/2000/svg">
<g clip-path="url(#clip0_692_139871)">
<g filter="url(#filter0_d_692_139871)">
<mask id="path-1-inside-1_692_139871" fill="white">
<path fill-rule="evenodd" clip-rule="evenodd" d="M532.569 26.1758C532.163 25.5376 531.711 24.9295 531.217 24.3561L528.814 21.565C519.93 11.2492 502.917 16.2111 500.806 29.7338L485.043 130.705C484.15 136.424 479.357 140.743 473.584 141.224C470.451 141.485 467.338 140.58 464.888 138.64L341.487 40.9243C339.965 39.7188 338.111 39.0007 336.165 38.863C329.76 38.4098 324.618 44.1625 325.804 50.4552L347.832 167.328C348.548 171.126 346.556 174.936 343.052 176.628C340.638 177.793 337.83 177.787 335.461 176.576L152.706 83.1237C152.006 82.7655 151.244 82.5411 150.458 82.4618C144.937 81.9048 141.332 88.1812 144.628 92.6144L246.002 228.98C250.171 234.588 249.458 242.433 244.557 247.505C238.9 253.36 239.824 262.715 246.27 267.569L298.102 306.609C304.768 311.63 314.195 310.585 320.147 304.629C353.231 271.522 396.12 247.926 443.707 236.845C496.357 224.586 551.971 228.294 602.346 247.424C652.721 266.554 695.191 300.093 723.491 343.094C750.737 384.493 763.461 432.553 759.999 480.669C759.777 483.754 762.024 486.472 765.106 486.745L769.862 487.165C769.879 487.167 769.893 487.181 769.894 487.199C769.895 487.214 769.906 487.227 769.921 487.231L942.896 532.055C947.132 533.153 951.653 532.383 955.316 529.94C963.875 524.234 964.604 511.965 956.772 505.441L858.178 423.301C855.73 421.262 854.126 418.398 853.59 415.25C852.768 410.428 854.538 405.478 858.353 402.36L967.788 312.921C971.73 309.699 973.344 304.431 971.869 299.601C970.185 294.089 964.908 290.496 959.132 290.929L816.461 301.64C812.504 301.937 808.737 300.032 806.569 296.739C804.23 293.184 804.113 288.577 806.369 284.927L878.499 168.218C881.326 163.644 881.013 157.822 877.716 153.632C874.155 149.107 867.972 147.561 862.638 149.861L725.744 208.905C724.266 209.543 722.57 209.356 721.272 208.425C720.328 207.748 719.678 206.736 719.464 205.592L692.056 59.4294C691.672 57.3797 690.636 55.5142 689.1 54.109C684.528 49.9236 677.209 51.0784 674.067 56.4811L616.077 156.194C615.982 156.357 615.788 156.433 615.61 156.378C615.519 156.351 615.442 156.292 615.391 156.213L532.569 26.1758Z"/>
</mask>
<path fill-rule="evenodd" clip-rule="evenodd" d="M532.569 26.1758C532.163 25.5376 531.711 24.9295 531.217 24.3561L528.814 21.565C519.93 11.2492 502.917 16.2111 500.806 29.7338L485.043 130.705C484.15 136.424 479.357 140.743 473.584 141.224C470.451 141.485 467.338 140.58 464.888 138.64L341.487 40.9243C339.965 39.7188 338.111 39.0007 336.165 38.863C329.76 38.4098 324.618 44.1625 325.804 50.4552L347.832 167.328C348.548 171.126 346.556 174.936 343.052 176.628C340.638 177.793 337.83 177.787 335.461 176.576L152.706 83.1237C152.006 82.7655 151.244 82.5411 150.458 82.4618C144.937 81.9048 141.332 88.1812 144.628 92.6144L246.002 228.98C250.171 234.588 249.458 242.433 244.557 247.505C238.9 253.36 239.824 262.715 246.27 267.569L298.102 306.609C304.768 311.63 314.195 310.585 320.147 304.629C353.231 271.522 396.12 247.926 443.707 236.845C496.357 224.586 551.971 228.294 602.346 247.424C652.721 266.554 695.191 300.093 723.491 343.094C750.737 384.493 763.461 432.553 759.999 480.669C759.777 483.754 762.024 486.472 765.106 486.745L769.862 487.165C769.879 487.167 769.893 487.181 769.894 487.199C769.895 487.214 769.906 487.227 769.921 487.231L942.896 532.055C947.132 533.153 951.653 532.383 955.316 529.94C963.875 524.234 964.604 511.965 956.772 505.441L858.178 423.301C855.73 421.262 854.126 418.398 853.59 415.25C852.768 410.428 854.538 405.478 858.353 402.36L967.788 312.921C971.73 309.699 973.344 304.431 971.869 299.601C970.185 294.089 964.908 290.496 959.132 290.929L816.461 301.64C812.504 301.937 808.737 300.032 806.569 296.739C804.23 293.184 804.113 288.577 806.369 284.927L878.499 168.218C881.326 163.644 881.013 157.822 877.716 153.632C874.155 149.107 867.972 147.561 862.638 149.861L725.744 208.905C724.266 209.543 722.57 209.356 721.272 208.425C720.328 207.748 719.678 206.736 719.464 205.592L692.056 59.4294C691.672 57.3797 690.636 55.5142 689.1 54.109C684.528 49.9236 677.209 51.0784 674.067 56.4811L616.077 156.194C615.982 156.357 615.788 156.433 615.61 156.378C615.519 156.351 615.442 156.292 615.391 156.213L532.569 26.1758Z" fill="#55EAAB"/>
<path d="M602.346 247.424L605.254 239.95L602.346 247.424ZM723.491 343.094L730.195 338.661L723.491 343.094ZM615.391 156.213L622.16 151.879L615.391 156.213ZM616.077 156.194L622.992 160.159L616.077 156.194ZM674.067 56.4811L680.982 60.4457L674.067 56.4811ZM692.056 59.4294L684.186 60.9708L692.056 59.4294ZM719.464 205.592L711.593 207.134L719.464 205.592ZM725.744 208.905L722.626 201.573L725.744 208.905ZM862.638 149.861L865.756 157.194L862.638 149.861ZM878.499 168.218L871.695 164.068L878.499 168.218ZM806.369 284.927L799.566 280.776L806.369 284.927ZM858.353 402.36L863.391 408.526L858.353 402.36ZM858.178 423.301L853.014 429.457L858.178 423.301ZM956.772 505.441L961.936 499.284L956.772 505.441ZM942.896 532.055L940.817 539.793L942.896 532.055ZM769.921 487.231L772 479.494L769.921 487.231ZM759.999 480.669L752.013 480.17L759.999 480.669ZM298.102 306.609L293.241 313.006L298.102 306.609ZM246.27 267.569L251.13 261.173L246.27 267.569ZM144.628 92.6144L151.074 87.8126L144.628 92.6144ZM152.706 83.1237L149.003 90.2448L152.706 83.1237ZM335.461 176.576L331.758 183.697L335.461 176.576ZM347.832 167.328L355.701 165.779L347.832 167.328ZM325.804 50.4552L317.935 52.0038L325.804 50.4552ZM341.487 40.9243L346.499 34.6443L341.487 40.9243ZM816.461 301.64L815.934 293.669L816.461 301.64ZM485.043 130.705L492.954 131.864L485.043 130.705ZM959.132 290.929L958.606 282.959L959.132 290.929ZM531.217 24.3561L525.125 29.5992L531.217 24.3561ZM532.569 26.1758L525.801 30.5091L532.569 26.1758ZM967.788 312.921L972.825 319.086L967.788 312.921ZM528.814 21.565L522.721 26.808L528.814 21.565ZM500.806 29.7338L508.717 30.8924L500.806 29.7338ZM522.721 26.808L525.125 29.5992L537.31 19.1131L534.906 16.3219L522.721 26.808ZM492.954 131.864L508.717 30.8924L492.895 28.5751L477.132 129.547L492.954 131.864ZM336.475 47.2042L459.876 144.92L469.9 132.36L346.499 34.6443L336.475 47.2042ZM355.701 165.779L333.674 48.9066L317.935 52.0038L339.962 168.877L355.701 165.779ZM149.003 90.2448L331.758 183.697L339.164 169.455L156.41 76.0027L149.003 90.2448ZM252.448 224.178L151.074 87.8126L138.182 97.4162L239.556 233.782L252.448 224.178ZM302.962 300.212L251.13 261.173L241.409 273.966L293.241 313.006L302.962 300.212ZM441.958 229.062C392.958 240.472 348.702 264.789 314.505 299.01L325.789 310.247C357.76 278.255 399.282 255.381 445.457 244.629L441.958 229.062ZM605.254 239.95C553.399 220.258 496.164 216.44 441.958 229.062L445.457 244.629C496.551 232.731 550.543 236.33 599.438 254.898L605.254 239.95ZM730.195 338.661C700.94 294.209 657.111 259.643 605.254 239.95L599.438 254.898C648.331 273.465 689.442 305.977 716.786 347.526L730.195 338.661ZM767.986 481.167C771.577 431.254 758.368 381.47 730.195 338.661L716.786 347.526C743.105 387.517 755.345 433.853 752.013 480.17L767.986 481.167ZM770.642 479.204L765.887 478.783L764.326 494.707L769.081 495.127L770.642 479.204ZM944.976 524.317L772 479.494L767.841 494.969L940.817 539.793L944.976 524.317ZM853.014 429.457L951.608 511.597L961.936 499.284L863.342 417.145L853.014 429.457ZM962.75 306.755L853.315 396.194L863.391 408.526L972.825 319.086L962.75 306.755ZM816.987 309.61L959.658 298.9L958.606 282.959L815.934 293.669L816.987 309.61ZM871.695 164.068L799.566 280.776L813.173 289.078L885.302 172.369L871.695 164.068ZM728.862 216.238L865.756 157.194L859.52 142.528L722.626 201.573L728.862 216.238ZM684.186 60.9708L711.593 207.134L727.335 204.051L699.927 57.888L684.186 60.9708ZM622.992 160.159L680.982 60.4457L667.151 52.5165L609.161 152.23L622.992 160.159ZM525.801 30.5091L608.623 160.546L622.16 151.879L539.338 21.8426L525.801 30.5091ZM618.02 148.734C619.734 149.258 621.2 150.372 622.16 151.879L608.623 160.546C609.684 162.212 611.305 163.443 613.199 164.023L618.02 148.734ZM609.161 152.23C610.953 149.149 614.631 147.698 618.02 148.734L613.199 164.023C616.945 165.168 621.011 163.564 622.992 160.159L609.161 152.23ZM694.542 48.1948C686.211 40.5692 672.876 42.6732 667.151 52.5165L680.982 60.4457C681.541 59.4836 682.845 59.2779 683.659 60.0233L694.542 48.1948ZM699.927 57.888C699.227 54.1537 697.339 50.7549 694.542 48.1948L683.659 60.0233C683.933 60.2735 684.117 60.6058 684.186 60.9708L699.927 57.888ZM725.984 201.919C726.675 202.415 727.169 203.17 727.335 204.051L711.593 207.134C712.187 210.302 713.981 213.082 716.561 214.932L725.984 201.919ZM722.626 201.573C723.764 201.082 725.035 201.239 725.984 201.919L716.561 214.932C720.104 217.473 724.768 218.004 728.862 216.238L722.626 201.573ZM884.03 148.658C878.241 141.302 868.19 138.789 859.52 142.528L865.756 157.194C867.753 156.333 870.068 156.912 871.402 158.606L884.03 148.658ZM885.302 172.369C889.898 164.933 889.39 155.469 884.03 148.658L871.402 158.606C872.636 160.175 872.754 162.355 871.695 164.068L885.302 172.369ZM813.274 292.307C812.581 291.254 812.608 289.992 813.173 289.078L799.566 280.776C795.619 287.163 795.879 295.114 799.865 301.171L813.274 292.307ZM861.484 413.839C861.127 411.742 861.915 409.731 863.391 408.526L853.315 396.194C847.161 401.224 844.41 409.113 845.696 416.661L861.484 413.839ZM863.342 417.145C862.392 416.353 861.715 415.194 861.484 413.839L845.696 416.661C846.537 421.601 849.069 426.17 853.014 429.457L863.342 417.145ZM959.721 536.574C972.747 527.888 973.856 509.215 961.936 499.284L951.608 511.597C955.351 514.715 955.002 520.579 950.912 523.307L959.721 536.574ZM940.817 539.793C947.264 541.463 954.145 540.292 959.721 536.574L950.912 523.307C949.161 524.474 947 524.842 944.976 524.317L940.817 539.793ZM761.899 487.716C762.092 491.176 764.488 494.1 767.841 494.969L772 479.494C775.323 480.355 777.698 483.253 777.889 486.681L761.899 487.716ZM769.081 495.127C765.167 494.781 762.117 491.634 761.899 487.716L777.889 486.681C777.669 482.728 774.592 479.553 770.642 479.204L769.081 495.127ZM752.013 480.17C751.489 487.447 756.789 494.04 764.326 494.707L765.887 478.783C767.258 478.904 768.065 480.062 767.986 481.167L752.013 480.17ZM293.241 313.006C303.331 320.606 317.222 318.821 325.789 310.247L314.505 299.01C311.168 302.349 306.205 302.655 302.962 300.212L293.241 313.006ZM238.819 241.984C229.637 251.487 231.353 266.392 241.409 273.966L251.13 261.173C248.296 259.038 248.163 255.233 250.295 253.026L238.819 241.984ZM239.556 233.782C241.292 236.116 241.117 239.606 238.819 241.984L250.295 253.026C257.798 245.26 259.05 233.059 252.448 224.178L239.556 233.782ZM151.337 74.5093C138.879 73.2524 130.746 87.4136 138.182 97.4162L151.074 87.8126C151.224 88.0142 151.362 88.3526 151.375 88.7447C151.386 89.0961 151.295 89.3819 151.174 89.5931C151.053 89.8042 150.851 90.0276 150.541 90.1969C150.195 90.3857 149.831 90.4397 149.58 90.4144L151.337 74.5093ZM156.41 76.0027C154.829 75.1945 153.109 74.6881 151.337 74.5093L149.58 90.4144C149.378 90.3941 149.183 90.3366 149.003 90.2448L156.41 76.0027ZM339.62 169.439C339.431 169.53 339.265 169.507 339.164 169.455L331.758 183.697C336.395 186.068 341.846 186.057 346.484 183.817L339.62 169.439ZM339.962 168.877C339.99 169.022 339.922 169.293 339.62 169.439L346.484 183.817C353.19 180.579 357.105 173.23 355.701 165.779L339.962 168.877ZM336.805 30.89C325.139 30.0645 315.775 40.5425 317.935 52.0038L333.674 48.9066C333.462 47.7826 334.38 46.7551 335.524 46.836L336.805 30.89ZM346.499 34.6443C343.726 32.4487 340.349 31.1408 336.805 30.89L335.524 46.836C335.872 46.8606 336.203 46.9889 336.475 47.2042L346.499 34.6443ZM472.992 133.259C471.825 133.356 470.726 133.014 469.9 132.36L459.876 144.92C463.949 148.145 469.078 149.614 474.175 149.189L472.992 133.259ZM815.934 293.669C814.951 293.743 813.909 293.271 813.274 292.307L799.865 301.171C803.565 306.794 810.058 310.13 816.987 309.61L815.934 293.669ZM477.132 129.547C476.833 131.465 475.18 133.077 472.992 133.259L474.175 149.189C483.535 148.41 491.468 141.383 492.954 131.864L477.132 129.547ZM979.529 297.205C976.763 288.149 968.094 282.247 958.606 282.959L959.658 298.9C961.721 298.745 963.606 300.028 964.208 301.997L979.529 297.205ZM525.125 29.5992C525.372 29.8859 525.598 30.1899 525.801 30.5091L539.338 21.8426C538.728 20.8852 538.05 19.9731 537.31 19.1131L525.125 29.5992ZM972.825 319.086C979.301 313.793 981.953 305.139 979.529 297.205L964.208 301.997C964.735 303.723 964.158 305.604 962.75 306.755L972.825 319.086ZM534.906 16.3219C521.58 0.8482 496.061 8.29113 492.895 28.5751L508.717 30.8924C509.773 24.1311 518.279 21.6501 522.721 26.808L534.906 16.3219Z" fill="black" mask="url(#path-1-inside-1_692_139871)"/>
</g>
<path fill-rule="evenodd" clip-rule="evenodd" d="M545.778 60.6131L520.876 22.218L557.01 190.256C539.778 187.487 522.326 186.108 504.855 186.135L351.544 58.2431L335.108 45.9187L442.658 192.241C440.426 192.681 438.197 193.145 435.973 193.632C416.396 197.925 397.455 204 379.402 211.714L202.628 118.443L164.508 99.1523L317.046 247.544C303.227 257.861 290.368 269.346 278.648 281.897L308.744 305.89C344.378 267.725 392.155 240.92 445.33 229.261C498.504 217.601 554.391 221.676 605.1 240.909C655.81 260.143 698.781 293.564 727.948 336.454C757.116 379.345 771.006 429.539 767.658 479.951L774.488 480.371L948.74 525.62L809.734 433.513L930.669 334.229L966.934 303.188L784.636 358.382C780.562 349.34 775.964 340.477 770.854 331.833L853.069 195.233L874.291 159.719L737.788 286.904C735.217 284.051 732.588 281.249 729.9 278.498L691.402 94.0657L683.173 53.7273L675.895 234.899C664.857 227.928 653.302 221.621 641.3 216.032L545.778 60.6131ZM807.131 435.651L806.167 436.442C806.178 436.54 806.189 436.638 806.201 436.737L807.131 435.651Z" fill="black" fill-opacity="0.25"/>
<path d="M201.133 145.935L270.859 242.117L274.843 268.23L302.765 242.117L201.133 145.935Z" fill="white" fill-opacity="0.25"/>
<path d="M379.431 198.55L423.906 185.708L342.078 65.8264L379.431 198.55Z" fill="white" fill-opacity="0.25"/>
<path d="M509.529 180.631L545.386 180.714L513.404 35.4897L509.529 180.631Z" fill="white" fill-opacity="0.25"/>
<path d="M628.439 177.279L664.853 219.329L671.908 84.5225L628.439 177.279Z" fill="white" fill-opacity="0.25"/>
<path d="M729.877 231.236L735.818 275.326L863.858 162.584L729.877 231.236Z" fill="white" fill-opacity="0.25"/>
<path d="M836.633 422.758L822.688 432.713L942.216 511.873L836.633 422.758Z" fill="white" fill-opacity="0.25"/>
<path d="M936.241 306.625L794.797 318.476L783.841 330.326L789.356 346.829L936.241 306.625Z" fill="white" fill-opacity="0.25"/>
</g>
<defs>
<filter id="filter0_d_692_139871" x="138.369" y="16.0486" width="837.039" height="527.495" filterUnits="userSpaceOnUse" color-interpolation-filters="sRGB">
<feFlood flood-opacity="0" result="BackgroundImageFix"/>
<feColorMatrix in="SourceAlpha" type="matrix" values="0 0 0 0 0 0 0 0 0 0 0 0 0 0 0 0 0 0 127 0" result="hardAlpha"/>
<feOffset dx="-1" dy="7"/>
<feGaussianBlur stdDeviation="2"/>
<feComposite in2="hardAlpha" operator="out"/>
<feColorMatrix type="matrix" values="0 0 0 0 0 0 0 0 0 0 0 0 0 0 0 0 0 0 0.25 0"/>
<feBlend mode="normal" in2="BackgroundImageFix" result="effect1_dropShadow_692_139871"/>
<feBlend mode="normal" in="SourceGraphic" in2="effect1_dropShadow_692_139871" result="shape"/>
</filter>
<clipPath id="clip0_692_139871">
<rect width="1000" height="1000" fill="white"/>
</clipPath>
</defs>
</svg>
