<svg width="1000" height="1000" viewBox="0 0 1000 1000" fill="none" xmlns="http://www.w3.org/2000/svg">
<g clip-path="url(#clip0_71_7848)">
<mask id="path-2-inside-1_71_7848" fill="white">
<path fill-rule="evenodd" clip-rule="evenodd" d="M882.725 840.088C881.284 828.02 871.048 818.934 858.894 818.934H726.144C713.989 818.934 703.754 828.02 702.313 840.088L679.939 1027.48C679.937 1027.49 679.951 1027.51 679.968 1027.51V1027.51C679.986 1027.51 679.999 1027.52 679.997 1027.54C679.956 1027.85 679.936 1028.16 679.936 1028.47C679.936 1043.86 730.341 1056.34 792.519 1056.34C854.697 1056.34 905.102 1043.86 905.102 1028.47C905.102 1028.16 905.082 1027.85 905.041 1027.54C905.039 1027.52 905.052 1027.51 905.07 1027.51V1027.51C905.087 1027.51 905.1 1027.49 905.098 1027.48L882.725 840.088Z"/>
</mask>
<path fill-rule="evenodd" clip-rule="evenodd" d="M882.725 840.088C881.284 828.02 871.048 818.934 858.894 818.934H726.144C713.989 818.934 703.754 828.02 702.313 840.088L679.939 1027.48C679.937 1027.49 679.951 1027.51 679.968 1027.51V1027.51C679.986 1027.51 679.999 1027.52 679.997 1027.54C679.956 1027.85 679.936 1028.16 679.936 1028.47C679.936 1043.86 730.341 1056.34 792.519 1056.34C854.697 1056.34 905.102 1043.86 905.102 1028.47C905.102 1028.16 905.082 1027.85 905.041 1027.54C905.039 1027.52 905.052 1027.51 905.07 1027.51V1027.51C905.087 1027.51 905.1 1027.49 905.098 1027.48L882.725 840.088Z" fill="#3C3C3C"/>
<path d="M905.098 1027.48L897.155 1028.42L905.098 1027.48ZM679.997 1027.54L672.066 1026.49L679.997 1027.54ZM905.041 1027.54L912.972 1026.49L905.041 1027.54ZM679.939 1027.48L687.883 1028.42L679.939 1027.48ZM882.725 840.088L874.781 841.037L882.725 840.088ZM726.144 826.934H858.894V810.934H726.144V826.934ZM687.883 1028.42L710.257 841.037L694.369 839.14L671.996 1026.53L687.883 1028.42ZM687.936 1028.47C687.936 1028.51 687.933 1028.55 687.928 1028.59L672.066 1026.49C671.98 1027.15 671.936 1027.81 671.936 1028.47H687.936ZM792.519 1048.34C761.882 1048.34 734.413 1045.26 714.833 1040.41C704.981 1037.97 697.575 1035.2 692.824 1032.42C687.516 1029.31 687.936 1027.71 687.936 1028.47H671.936C671.936 1036.93 678.656 1042.66 684.742 1046.22C691.385 1050.11 700.466 1053.34 710.988 1055.95C732.155 1061.19 760.977 1064.34 792.519 1064.34V1048.34ZM897.102 1028.47C897.102 1027.71 897.522 1029.31 892.213 1032.42C887.463 1035.2 880.056 1037.97 870.205 1040.41C850.625 1045.26 823.155 1048.34 792.519 1048.34V1064.34C824.06 1064.34 852.882 1061.19 874.05 1055.95C884.572 1053.34 893.653 1050.11 900.296 1046.22C906.382 1042.66 913.102 1036.93 913.102 1028.47H897.102ZM897.11 1028.59C897.105 1028.55 897.102 1028.51 897.102 1028.47H913.102C913.102 1027.81 913.058 1027.15 912.972 1026.49L897.11 1028.59ZM874.781 841.037L897.155 1028.42L913.042 1026.53L890.668 839.14L874.781 841.037ZM905.07 1035.51C909.883 1035.51 913.612 1031.3 913.042 1026.53L897.155 1028.42C896.589 1023.68 900.29 1019.51 905.07 1019.51V1035.51ZM679.968 1035.51C675.125 1035.51 671.438 1031.24 672.066 1026.49L687.928 1028.59C688.56 1023.8 684.846 1019.51 679.968 1019.51V1035.51ZM912.972 1026.49C913.6 1031.24 909.912 1035.51 905.07 1035.51V1019.51C900.192 1019.51 896.477 1023.8 897.11 1028.59L912.972 1026.49ZM671.996 1026.53C671.425 1031.31 675.157 1035.51 679.968 1035.51V1019.51C684.745 1019.51 688.449 1023.68 687.883 1028.42L671.996 1026.53ZM858.894 826.934C866.997 826.934 873.821 832.991 874.781 841.037L890.668 839.14C888.747 823.048 875.1 810.934 858.894 810.934V826.934ZM726.144 810.934C709.938 810.934 696.291 823.048 694.369 839.14L710.257 841.037C711.217 832.991 718.041 826.934 726.144 826.934V810.934Z" fill="black" mask="url(#path-2-inside-1_71_7848)"/>
<path d="M905.102 1028.47C905.102 1028.16 905.082 1027.85 905.041 1027.54C905.039 1027.52 905.052 1027.51 905.07 1027.51C905.087 1027.51 905.101 1027.49 905.099 1027.47L882.812 840.818C881.32 828.318 871.106 818.934 858.995 818.934H828V1054.93C872.793 1051.25 905.102 1040.79 905.102 1028.47Z" fill="black" fill-opacity="0.25"/>
<path d="M981 810.301C981 815.679 977.061 821.731 967.627 827.966C958.352 834.097 944.665 839.773 927.395 844.601C892.909 854.243 845.038 860.257 792 860.257C738.962 860.257 691.091 854.243 656.605 844.601C639.335 839.773 625.648 834.097 616.373 827.966C606.939 821.731 603 815.679 603 810.301C603 804.922 606.939 798.87 616.373 792.635C625.648 786.504 639.335 780.828 656.605 776C691.091 766.359 738.962 760.344 792 760.344C845.038 760.344 892.909 766.359 927.395 776C944.665 780.828 958.352 786.504 967.627 792.635C977.061 798.87 981 804.922 981 810.301Z" fill="#929292" stroke="black" stroke-width="8"/>
<path d="M910.44 802.207C910.44 802.689 910.232 803.536 909.049 804.784C907.849 806.051 905.88 807.465 903 808.936C897.25 811.871 888.669 814.631 877.734 816.993C855.928 821.701 825.614 824.646 791.999 824.646C758.384 824.646 728.071 821.701 706.265 816.993C695.329 814.631 686.749 811.871 680.999 808.936C678.119 807.465 676.15 806.051 674.95 804.784C673.766 803.536 673.559 802.689 673.559 802.207C673.559 801.726 673.766 800.879 674.95 799.63C676.15 798.364 678.119 796.949 680.999 795.479C686.749 792.544 695.329 789.784 706.265 787.422C728.071 782.714 758.384 779.769 791.999 779.769C825.614 779.769 855.928 782.714 877.734 787.422C888.669 789.784 897.25 792.544 903 795.479C905.88 796.949 907.849 798.364 909.049 799.63C910.232 800.879 910.44 801.726 910.44 802.207Z" fill="#3C3C3C" stroke="black" stroke-width="8"/>
<mask id="path-7-inside-2_71_7848" fill="white">
<path fill-rule="evenodd" clip-rule="evenodd" d="M767.899 689.629C771.687 703.766 774.214 717.403 775.515 729.73C780.948 728.798 786.462 728.327 792 728.327C796.99 728.327 801.962 728.71 806.872 729.467C808.181 717.21 810.7 703.666 814.461 689.629C827.439 641.194 850.3 605.237 865.522 609.315C880.745 613.394 882.564 655.965 869.586 704.4C865.016 721.457 859.219 736.967 852.963 749.726C855.756 751.962 858.429 754.355 860.969 756.895C870.026 765.952 877.211 776.705 882.113 788.538C883.391 791.624 884.507 793.957 885.459 795.946L885.46 795.946C888.159 801.584 889.537 804.464 889.537 813.933C850.107 826.384 754.674 829.497 694.462 813.933C694.784 812.377 695.066 810.997 695.319 809.762C696.389 804.537 696.932 801.884 697.718 799.305C698.529 796.645 699.598 794.064 701.77 788.82L701.887 788.538C706.788 776.705 713.973 765.952 723.03 756.895C725.213 754.712 727.495 752.637 729.867 750.677C723.431 737.742 717.458 721.884 712.773 704.4C699.795 655.965 701.615 613.394 716.837 609.315C732.059 605.237 754.921 641.194 767.899 689.629Z"/>
</mask>
<path fill-rule="evenodd" clip-rule="evenodd" d="M767.899 689.629C771.687 703.766 774.214 717.403 775.515 729.73C780.948 728.798 786.462 728.327 792 728.327C796.99 728.327 801.962 728.71 806.872 729.467C808.181 717.21 810.7 703.666 814.461 689.629C827.439 641.194 850.3 605.237 865.522 609.315C880.745 613.394 882.564 655.965 869.586 704.4C865.016 721.457 859.219 736.967 852.963 749.726C855.756 751.962 858.429 754.355 860.969 756.895C870.026 765.952 877.211 776.705 882.113 788.538C883.391 791.624 884.507 793.957 885.459 795.946L885.46 795.946C888.159 801.584 889.537 804.464 889.537 813.933C850.107 826.384 754.674 829.497 694.462 813.933C694.784 812.377 695.066 810.997 695.319 809.762C696.389 804.537 696.932 801.884 697.718 799.305C698.529 796.645 699.598 794.064 701.77 788.82L701.887 788.538C706.788 776.705 713.973 765.952 723.03 756.895C725.213 754.712 727.495 752.637 729.867 750.677C723.431 737.742 717.458 721.884 712.773 704.4C699.795 655.965 701.615 613.394 716.837 609.315C732.059 605.237 754.921 641.194 767.899 689.629Z" fill="white"/>
<path d="M775.515 729.73L767.56 730.57L768.456 739.057L776.867 737.615L775.515 729.73ZM767.899 689.629L760.171 691.7L767.899 689.629ZM806.872 729.467L805.652 737.374L813.936 738.652L814.827 730.317L806.872 729.467ZM814.461 689.629L822.188 691.7L814.461 689.629ZM865.522 609.315L867.593 601.588L865.522 609.315ZM869.586 704.4L861.859 702.33L869.586 704.4ZM852.963 749.726L845.78 746.203L842.956 751.962L847.963 755.971L852.963 749.726ZM860.969 756.895L855.312 762.552L855.312 762.552L860.969 756.895ZM882.113 788.538L889.504 785.477L882.113 788.538ZM885.459 795.946L893.049 793.416L892.891 792.942L892.675 792.491L885.459 795.946ZM885.46 795.946L877.87 798.476L878.028 798.95L878.244 799.4L885.46 795.946ZM889.537 813.933L891.946 821.561L897.537 819.796V813.933H889.537ZM694.462 813.933L686.628 812.312L685.084 819.772L692.46 821.678L694.462 813.933ZM695.319 809.762L703.157 811.366L703.157 811.366L695.319 809.762ZM697.718 799.305L690.065 796.972H690.065L697.718 799.305ZM701.77 788.82L709.161 791.882L709.161 791.882L701.77 788.82ZM701.887 788.538L709.278 791.6L709.278 791.6L701.887 788.538ZM723.03 756.895L728.687 762.552H728.687L723.03 756.895ZM729.867 750.677L734.963 756.844L739.858 752.799L737.029 747.114L729.867 750.677ZM712.773 704.4L705.046 706.471L712.773 704.4ZM716.837 609.315L714.767 601.588L716.837 609.315ZM783.471 728.89C782.122 716.116 779.513 702.067 775.626 687.559L760.171 691.7C763.86 705.466 766.305 718.691 767.56 730.57L783.471 728.89ZM792 720.327C786.008 720.327 780.041 720.837 774.163 721.845L776.867 737.615C781.854 736.76 786.916 736.327 792 736.327V720.327ZM808.092 721.561C802.779 720.741 797.4 720.327 792 720.327V736.327C796.581 736.327 801.145 736.678 805.652 737.374L808.092 721.561ZM806.733 687.559C802.873 701.964 800.274 715.916 798.917 728.617L814.827 730.317C816.089 718.503 818.526 705.368 822.188 691.7L806.733 687.559ZM867.593 601.588C860.204 599.608 853.295 602.85 847.979 607.062C842.517 611.389 837.265 617.833 832.399 625.487C822.613 640.879 813.373 662.779 806.733 687.559L822.188 691.7C828.526 668.045 837.206 647.748 845.901 634.072C850.275 627.192 854.404 622.384 857.915 619.603C861.572 616.706 863.229 616.983 863.452 617.043L867.593 601.588ZM877.313 706.471C883.953 681.69 886.901 658.105 886.122 639.883C885.735 630.821 884.409 622.614 881.842 616.135C879.344 609.83 874.982 603.568 867.593 601.588L863.452 617.043C863.674 617.102 865.248 617.691 866.967 622.029C868.617 626.193 869.789 632.421 870.137 640.566C870.829 656.757 868.197 678.675 861.859 702.33L877.313 706.471ZM860.146 753.248C866.657 739.97 872.625 723.967 877.313 706.471L861.859 702.33C857.406 718.948 851.782 733.964 845.78 746.203L860.146 753.248ZM866.626 751.238C863.878 748.49 860.985 745.901 857.963 743.481L847.963 755.971C850.527 758.024 852.981 760.22 855.312 762.552L866.626 751.238ZM889.504 785.477C884.2 772.672 876.426 761.038 866.626 751.238L855.312 762.552C863.627 770.866 870.222 780.737 874.722 791.6L889.504 785.477ZM892.675 792.491C891.73 790.516 890.693 788.349 889.504 785.477L874.722 791.6C876.088 794.899 877.285 797.397 878.244 799.4L892.675 792.491ZM893.049 793.416L893.049 793.416L877.87 798.476L877.87 798.476L893.049 793.416ZM897.537 813.933C897.537 808.833 897.17 804.998 896.25 801.479C895.344 798.013 893.976 795.209 892.675 792.492L878.244 799.4C879.642 802.321 880.313 803.777 880.771 805.527C881.215 807.225 881.537 809.563 881.537 813.933H897.537ZM692.46 821.678C723.5 829.702 763.18 832.831 799.878 832.438C836.461 832.046 871.107 828.142 891.946 821.561L887.128 806.304C868.537 812.175 835.752 816.053 799.707 816.439C763.778 816.824 725.636 813.728 696.464 806.187L692.46 821.678ZM687.482 808.158C687.229 809.393 686.948 810.765 686.628 812.312L702.296 815.553C702.62 813.988 702.904 812.601 703.157 811.366L687.482 808.158ZM690.065 796.972C689.145 799.992 688.523 803.069 687.482 808.158L703.157 811.366C704.254 806.004 704.719 803.775 705.37 801.637L690.065 796.972ZM694.379 785.759C692.264 790.865 691.015 793.857 690.065 796.972L705.37 801.637C706.042 799.433 706.932 797.263 709.161 791.882L694.379 785.759ZM694.496 785.477L694.379 785.759L709.161 791.882L709.278 791.6L694.496 785.477ZM717.373 751.238C707.573 761.038 699.799 772.672 694.495 785.477L709.278 791.6C713.777 780.737 720.373 770.866 728.687 762.552L717.373 751.238ZM724.771 744.511C722.204 746.631 719.735 748.876 717.373 751.238L728.687 762.552C730.691 760.548 732.786 758.643 734.963 756.844L724.771 744.511ZM705.046 706.471C709.851 724.402 716.001 740.769 722.704 754.241L737.029 747.114C730.86 734.714 725.065 719.365 720.501 702.33L705.046 706.471ZM714.767 601.588C707.378 603.568 703.016 609.83 700.518 616.135C697.951 622.614 696.625 630.821 696.237 639.883C695.459 658.105 698.406 681.69 705.046 706.471L720.501 702.33C714.162 678.675 711.531 656.757 712.223 640.566C712.571 632.421 713.743 626.193 715.393 622.029C717.111 617.691 718.685 617.102 718.908 617.043L714.767 601.588ZM775.626 687.559C768.986 662.779 759.746 640.879 749.961 625.488C745.094 617.833 739.842 611.389 734.38 607.062C729.064 602.85 722.155 599.608 714.767 601.588L718.908 617.043C719.13 616.983 720.787 616.706 724.445 619.603C727.956 622.384 732.084 627.192 736.458 634.072C745.153 647.748 753.833 668.045 760.171 691.7L775.626 687.559Z" fill="black" mask="url(#path-7-inside-2_71_7848)"/>
<path d="M779.548 796.812C779.548 789.935 772.115 784.36 762.946 784.36C753.777 784.36 746.344 789.935 746.344 796.812" stroke="black" stroke-width="8" stroke-linecap="round"/>
<path d="M837.655 796.812C837.655 789.935 830.222 784.36 821.053 784.36C811.884 784.36 804.451 789.935 804.451 796.812" stroke="black" stroke-width="8" stroke-linecap="round"/>
<path d="M617 654H641V1033C641 1037.42 637.418 1041 633 1041H625C620.582 1041 617 1037.42 617 1033V654Z" fill="#3C3C3C" stroke="black" stroke-width="8"/>
<path d="M625 514H633C637.418 514 641 517.582 641 522V646H617V522C617 517.582 620.582 514 625 514Z" fill="white" stroke="black" stroke-width="8"/>
<path d="M693 461.944L700.421 484.785L701.32 487.549H704.226H728.242L708.812 501.666L706.461 503.374L707.359 506.138L714.781 528.979L695.351 514.862L693 513.154L690.649 514.862L671.219 528.979L678.641 506.138L679.539 503.374L677.188 501.666L657.758 487.549H681.774H684.68L685.579 484.785L693 461.944Z" fill="#FFED00" stroke="black" stroke-width="8"/>
<path d="M550 562.944L557.421 585.785L558.32 588.549H561.226H585.242L565.812 602.666L563.461 604.374L564.359 607.138L571.781 629.979L552.351 615.862L550 614.154L547.649 615.862L528.219 629.979L535.641 607.138L536.539 604.374L534.188 602.666L514.758 588.549H538.774H541.68L542.579 585.785L550 562.944Z" fill="#FFED00" stroke="black" stroke-width="8"/>
<path d="M687 592.944L694.421 615.785L695.32 618.549H698.226H722.242L702.812 632.666L700.461 634.374L701.359 637.138L708.781 659.979L689.351 645.862L687 644.154L684.649 645.862L665.219 659.979L672.641 637.138L673.539 634.374L671.188 632.666L651.758 618.549H675.774H678.68L679.579 615.785L687 592.944Z" fill="#FFED00" stroke="black" stroke-width="8"/>
</g>
<defs>
<clipPath id="clip0_71_7848">
<path d="M0 0H1000V1000H0V0Z" fill="white"/>
</clipPath>
</defs>
</svg>
