<svg width="1000" height="1000" viewBox="0 0 1000 1000" fill="none" xmlns="http://www.w3.org/2000/svg">
<g filter="url(#filter0_d_47_22187)">
<mask id="path-1-inside-1_47_22187" fill="white">
<path d="M462.766 530.307C467.612 536.651 471.701 543.403 474.798 550.179C477.896 556.954 479.941 563.619 480.818 569.794C481.694 575.969 481.385 581.533 479.907 586.168C478.429 590.803 475.812 594.418 472.205 596.807C468.598 599.196 464.072 600.313 458.884 600.092C453.697 599.872 447.951 598.319 441.973 595.522C435.996 592.726 429.904 588.741 424.046 583.794C418.188 578.847 412.678 573.036 407.831 566.692L435.298 548.5L462.766 530.307Z"/>
</mask>
<path d="M462.766 530.307C467.612 536.651 471.701 543.403 474.798 550.179C477.896 556.954 479.941 563.619 480.818 569.794C481.694 575.969 481.385 581.533 479.907 586.168C478.429 590.803 475.812 594.418 472.205 596.807C468.598 599.196 464.072 600.313 458.884 600.092C453.697 599.872 447.951 598.319 441.973 595.522C435.996 592.726 429.904 588.741 424.046 583.794C418.188 578.847 412.678 573.036 407.831 566.692L435.298 548.5L462.766 530.307Z" fill="#E40303" stroke="black" stroke-width="16" mask="url(#path-1-inside-1_47_22187)"/>
<path d="M434.304 561.296L414.033 569.8L452.081 595.304L434.304 561.296Z" fill="black" fill-opacity="0.5"/>
<path d="M460.812 521.058C460.812 527.286 458.874 533.453 455.11 539.207C451.346 544.961 445.828 550.189 438.872 554.593C431.917 558.997 423.659 562.49 414.571 564.874C405.483 567.257 395.743 568.484 385.906 568.484C376.069 568.484 366.329 567.257 357.241 564.874C348.153 562.49 339.895 558.997 332.939 554.593C325.984 550.189 320.466 544.961 316.702 539.207C312.937 533.453 311 527.286 311 521.058" stroke="black" stroke-width="15" stroke-linecap="round"/>
</g>
<defs>
<filter id="filter0_d_47_22187" x="298.5" y="513.558" width="185.804" height="97.562" filterUnits="userSpaceOnUse" color-interpolation-filters="sRGB">
<feFlood flood-opacity="0" result="BackgroundImageFix"/>
<feColorMatrix in="SourceAlpha" type="matrix" values="0 0 0 0 0 0 0 0 0 0 0 0 0 0 0 0 0 0 127 0" result="hardAlpha"/>
<feOffset dx="-1" dy="7"/>
<feGaussianBlur stdDeviation="2"/>
<feComposite in2="hardAlpha" operator="out"/>
<feColorMatrix type="matrix" values="0 0 0 0 0 0 0 0 0 0 0 0 0 0 0 0 0 0 0.25 0"/>
<feBlend mode="normal" in2="BackgroundImageFix" result="effect1_dropShadow_47_22187"/>
<feBlend mode="normal" in="SourceGraphic" in2="effect1_dropShadow_47_22187" result="shape"/>
</filter>
</defs>
</svg>
