<svg width="1000" height="1000" viewBox="0 0 1000 1000" fill="none" xmlns="http://www.w3.org/2000/svg">
<ellipse cx="534.743" cy="337.555" rx="278.862" ry="89.5" transform="rotate(8.63899 534.743 337.555)" fill="black" fill-opacity="0.25"/>
<path d="M623.526 108.121L528.355 91.3401C518.752 89.6469 508.858 91.1916 500.229 95.7317L194.465 256.591C186.179 260.95 185.828 272.763 194.028 277.476C384.21 386.787 608.092 436.178 859.792 394.671C869.007 393.152 872.959 382.141 866.877 375.09L649.204 122.715C642.582 115.037 633.511 109.882 623.526 108.121Z" fill="#DD933C" stroke="black" stroke-width="8"/>
<path d="M636.865 114.535L602.098 108.405L643.049 406.085C691.766 414.675 835.714 400.856 873.028 388.346L636.865 114.535Z" fill="black" fill-opacity="0.25"/>
<path d="M505.518 91.3747L528.762 95.4731L251.797 309.231C203.08 300.641 220.734 292.419 189.949 267.901L505.518 91.3747Z" fill="white" fill-opacity="0.25"/>
<path d="M807.42 307.076C604.335 343.579 424.573 303.137 273.109 212.863" stroke="black" stroke-width="8"/>
<path d="M734.914 228.171C595.784 251.847 472.389 224.259 368.23 163.515" stroke="black" stroke-width="8"/>
<path d="M681.186 159.188C593.648 174.553 516.096 157.153 450.699 118.547" stroke="black" stroke-width="8"/>
<path d="M608.247 105.239L725.24 403.575M591.133 102.221L622.174 408.072M625.361 108.256L826.446 398.278M574.019 99.2034L516.686 393.722M539.791 93.1681L316.451 336.69M522.677 90.1505L218.757 294.432M556.905 96.1858L412.116 371.033" stroke="black" stroke-width="6"/>
</svg>
