<svg width="1000" height="1000" viewBox="0 0 1000 1000" fill="none" xmlns="http://www.w3.org/2000/svg">
<g filter="url(#filter0_d_479_7194)">
<mask id="path-1-inside-1_479_7194" fill="white">
<path fill-rule="evenodd" clip-rule="evenodd" d="M287.809 202.127C235.636 250.23 206.326 315.472 206.326 383.5H232.681C238.155 336.925 262.157 293.145 301.028 259.75C345.559 221.493 405.956 200 468.933 200C531.909 200 592.306 221.493 636.837 259.75C675.708 293.145 699.711 336.925 705.184 383.5H762.73C762.73 315.472 733.42 250.23 681.247 202.127C629.074 154.024 558.312 127 484.528 127C410.744 127 339.982 154.024 287.809 202.127Z"/>
</mask>
<path fill-rule="evenodd" clip-rule="evenodd" d="M287.809 202.127C235.636 250.23 206.326 315.472 206.326 383.5H232.681C238.155 336.925 262.157 293.145 301.028 259.75C345.559 221.493 405.956 200 468.933 200C531.909 200 592.306 221.493 636.837 259.75C675.708 293.145 699.711 336.925 705.184 383.5H762.73C762.73 315.472 733.42 250.23 681.247 202.127C629.074 154.024 558.312 127 484.528 127C410.744 127 339.982 154.024 287.809 202.127Z" fill="#929292"/>
<path d="M206.326 383.5V389.5H200.326V383.5H206.326ZM287.809 202.127L291.876 206.538H291.876L287.809 202.127ZM232.681 383.5L238.64 384.2L238.017 389.5H232.681V383.5ZM301.028 259.75L304.938 264.301L301.028 259.75ZM636.837 259.75L632.927 264.301L636.837 259.75ZM705.184 383.5V389.5H699.848L699.225 384.2L705.184 383.5ZM762.73 383.5H768.73L768.73 389.5H762.73V383.5ZM681.247 202.127L685.314 197.716L681.247 202.127ZM484.528 127V121V127ZM200.326 383.5C200.326 313.716 230.397 246.9 283.742 197.716L291.876 206.538C240.875 253.561 212.326 317.228 212.326 383.5H200.326ZM232.681 389.5H206.326V377.5H232.681V389.5ZM226.722 382.8C232.386 334.606 257.203 289.491 297.118 255.199L304.938 264.301C267.111 296.799 243.923 339.245 238.64 384.2L226.722 382.8ZM297.118 255.199C342.82 215.936 404.634 194 468.933 194V206C407.278 206 348.298 227.05 304.938 264.301L297.118 255.199ZM468.933 194C533.231 194 595.045 215.936 640.747 255.199L632.927 264.301C589.567 227.05 530.587 206 468.933 206V194ZM640.747 255.199C680.662 289.491 705.479 334.606 711.143 382.8L699.225 384.2C693.942 339.245 670.754 296.799 632.927 264.301L640.747 255.199ZM762.73 389.5H705.184V377.5H762.73V389.5ZM685.314 197.716C738.659 246.9 768.73 313.716 768.73 383.5H756.73C756.73 317.228 728.181 253.561 677.18 206.538L685.314 197.716ZM484.528 121C559.753 121 631.985 148.547 685.314 197.716L677.18 206.538C626.162 159.501 556.871 133 484.528 133V121ZM283.742 197.716C337.071 148.547 409.303 121 484.528 121V133C412.185 133 342.894 159.501 291.876 206.538L283.742 197.716Z" fill="black" mask="url(#path-1-inside-1_479_7194)"/>
<mask id="path-3-inside-2_479_7194" fill="white">
<path fill-rule="evenodd" clip-rule="evenodd" d="M681.073 202.127C734.001 250.23 763.735 315.472 763.735 383.5H714.784C712.527 331.059 686.662 281.158 642.197 243.922C595.616 204.914 532.44 183 466.566 183C400.691 183 337.515 204.914 290.935 243.922C246.47 281.158 220.605 331.059 218.347 383.5H199.281C199.281 315.472 229.016 250.23 281.944 202.127C334.871 154.024 406.657 127 481.508 127C556.359 127 628.145 154.024 681.073 202.127Z"/>
</mask>
<path fill-rule="evenodd" clip-rule="evenodd" d="M681.073 202.127C734.001 250.23 763.735 315.472 763.735 383.5H714.784C712.527 331.059 686.662 281.158 642.197 243.922C595.616 204.914 532.44 183 466.566 183C400.691 183 337.515 204.914 290.935 243.922C246.47 281.158 220.605 331.059 218.347 383.5H199.281C199.281 315.472 229.016 250.23 281.944 202.127C334.871 154.024 406.657 127 481.508 127C556.359 127 628.145 154.024 681.073 202.127Z" fill="#929292"/>
<path d="M763.735 383.5V389.5H769.735V383.5H763.735ZM681.073 202.127L677.037 206.567L681.073 202.127ZM714.784 383.5L708.789 383.758L709.037 389.5H714.784V383.5ZM642.197 243.922L646.049 239.322L642.197 243.922ZM466.566 183V177V183ZM290.935 243.922L287.083 239.322L290.935 243.922ZM218.347 383.5V389.5H224.095L224.342 383.758L218.347 383.5ZM199.281 383.5H193.281L193.281 389.5H199.281V383.5ZM281.944 202.127L285.979 206.567L281.944 202.127ZM481.508 127V121V127ZM769.735 383.5C769.735 313.686 739.215 246.861 685.108 197.687L677.037 206.567C728.786 253.599 757.735 317.258 757.735 383.5H769.735ZM714.784 389.5H763.735V377.5H714.784V389.5ZM720.778 383.242C718.441 328.939 691.663 277.52 646.049 239.322L638.344 248.522C681.66 284.796 706.612 333.179 708.789 383.758L720.778 383.242ZM646.049 239.322C598.295 199.331 533.721 177 466.566 177V189C531.159 189 592.938 210.497 638.344 248.522L646.049 239.322ZM466.566 177C399.41 177 334.837 199.331 287.083 239.322L294.787 248.522C340.193 210.497 401.972 189 466.566 189V177ZM287.083 239.322C241.468 277.52 214.69 328.939 212.353 383.242L224.342 383.758C226.519 333.179 251.471 284.796 294.787 248.522L287.083 239.322ZM199.281 389.5H218.347V377.5H199.281V389.5ZM277.908 197.687C223.802 246.861 193.281 313.686 193.281 383.5H205.281C205.281 317.258 234.23 253.599 285.979 206.567L277.908 197.687ZM481.508 121C405.241 121 331.996 148.53 277.908 197.687L285.979 206.567C337.747 159.518 408.073 133 481.508 133V121ZM685.108 197.687C631.021 148.53 557.775 121 481.508 121V133C554.943 133 625.269 159.518 677.037 206.567L685.108 197.687Z" fill="black" mask="url(#path-3-inside-2_479_7194)"/>
<path d="M653.059 182.5H527.289C679.822 216.5 718.291 328.333 717.956 380H759.711C756.492 266.4 677.206 201.5 653.059 182.5Z" fill="black" fill-opacity="0.25"/>
<path d="M477.484 179.5L442.772 195C290.239 229 232.15 328.333 232.485 380H214.374C217.594 266.4 349.199 173.5 477.484 179.5Z" fill="black" fill-opacity="0.25"/>
<path d="M266 225L365.5 194.5C236.209 250.5 217.058 328.333 217.393 380H200.791C211.859 289.5 234 264 266 225Z" fill="black" fill-opacity="0.25"/>
<path d="M804 442.998C804 482.708 771.163 514.998 730.532 514.998C689.902 514.998 657.064 482.708 657.064 442.998C657.064 403.288 689.902 370.998 730.532 370.998C771.163 370.998 804 403.288 804 442.998Z" fill="#3C3C3C" stroke="black" stroke-width="6"/>
<path d="M802.994 442.5C802.994 475.825 780.034 502 752.668 502C725.303 502 702.342 475.825 702.342 442.5C702.342 409.175 725.303 383 752.668 383C780.034 383 802.994 409.175 802.994 442.5Z" fill="white" stroke="black" stroke-width="6"/>
<path d="M800.962 442.5C800.962 449.92 799.713 457.267 797.286 464.122C794.859 470.977 791.301 477.205 786.817 482.452C782.332 487.698 777.008 491.86 771.149 494.699C765.289 497.539 759.009 499 752.667 499C746.324 499 740.044 497.539 734.185 494.699C728.325 491.86 723.001 487.698 718.517 482.452C714.032 477.205 710.474 470.977 708.047 464.122C705.62 457.267 704.371 449.92 704.371 442.5L752.667 442.5H800.962Z" fill="black" fill-opacity="0.25"/>
<path d="M184.566 384.832C198.103 373.878 213.587 370.694 231.983 370.694H236.321C229.941 384.776 221.98 406.485 216.6 430.779C210.915 456.45 208.051 485.273 213.178 511.123H207.41C203.233 509.813 199.562 508.914 196.311 508.117C196.161 508.08 196.013 508.044 195.865 508.008C192.354 507.147 189.419 506.409 186.684 505.383C181.448 503.417 176.767 500.325 171.061 492.789C166.435 485.486 164.512 480.542 163.658 473.774C162.949 468.153 162.977 461.34 163.019 450.951C163.03 448.227 163.042 445.258 163.042 442C163.042 424.193 165.115 412.673 168.757 404.278C172.363 395.964 177.62 390.453 184.566 384.832Z" fill="#3C3C3C" stroke="black" stroke-width="6"/>
</g>
<defs>
<filter id="filter0_d_479_7194" x="155" y="127" width="655" height="401.998" filterUnits="userSpaceOnUse" color-interpolation-filters="sRGB">
<feFlood flood-opacity="0" result="BackgroundImageFix"/>
<feColorMatrix in="SourceAlpha" type="matrix" values="0 0 0 0 0 0 0 0 0 0 0 0 0 0 0 0 0 0 127 0" result="hardAlpha"/>
<feOffset dx="-1" dy="7"/>
<feGaussianBlur stdDeviation="2"/>
<feComposite in2="hardAlpha" operator="out"/>
<feColorMatrix type="matrix" values="0 0 0 0 0 0 0 0 0 0 0 0 0 0 0 0 0 0 0.25 0"/>
<feBlend mode="normal" in2="BackgroundImageFix" result="effect1_dropShadow_479_7194"/>
<feBlend mode="normal" in="SourceGraphic" in2="effect1_dropShadow_479_7194" result="shape"/>
</filter>
</defs>
</svg>
