<svg width="1000" height="1000" viewBox="0 0 1000 1000" fill="none" xmlns="http://www.w3.org/2000/svg">
<g clip-path="url(#clip0_772_53255)">
<mask id="path-1-inside-1_772_53255" fill="white">
<path fill-rule="evenodd" clip-rule="evenodd" d="M695.921 637.33C686.779 628.441 681.93 615.29 684.416 601.518L689.327 574.312L674.808 520.142C672.084 509.98 679.742 500 690.263 500H761.338C771.927 500 779.595 510.1 776.75 520.299L761.682 574.312L766.811 601.102C769.421 614.737 764.81 627.822 755.921 636.797V1545.09H695.921V637.33Z"/>
</mask>
<path fill-rule="evenodd" clip-rule="evenodd" d="M695.921 637.33C686.779 628.441 681.93 615.29 684.416 601.518L689.327 574.312L674.808 520.142C672.084 509.98 679.742 500 690.263 500H761.338C771.927 500 779.595 510.1 776.75 520.299L761.682 574.312L766.811 601.102C769.421 614.737 764.81 627.822 755.921 636.797V1545.09H695.921V637.33Z" fill="#DD933C"/>
<path d="M684.416 601.518L678.512 600.452L684.416 601.518ZM695.921 637.33H701.921V634.795L700.104 633.028L695.921 637.33ZM689.327 574.312L695.232 575.378L695.47 574.056L695.123 572.758L689.327 574.312ZM674.808 520.142L669.013 521.696V521.696L674.808 520.142ZM776.75 520.299L782.529 521.912V521.912L776.75 520.299ZM761.682 574.312L755.902 572.7L755.524 574.056L755.789 575.44L761.682 574.312ZM766.811 601.102L760.918 602.231L766.811 601.102ZM755.921 636.797L751.658 632.575L749.921 634.329V636.797H755.921ZM755.921 1545.09V1551.09H761.921V1545.09H755.921ZM695.921 1545.09H689.921V1551.09H695.921V1545.09ZM678.512 600.452C675.652 616.294 681.244 631.428 691.738 641.632L700.104 633.028C692.315 625.454 688.208 614.287 690.321 602.584L678.512 600.452ZM683.423 573.246L678.512 600.452L690.321 602.584L695.232 575.378L683.423 573.246ZM669.013 521.696L683.532 575.865L695.123 572.758L680.604 518.589L669.013 521.696ZM690.263 494C675.796 494 665.268 507.723 669.013 521.696L680.604 518.589C678.901 512.238 683.687 506 690.263 506V494ZM761.338 494H690.263V506H761.338V494ZM782.529 521.912C786.441 507.888 775.897 494 761.338 494V506C767.956 506 772.749 512.313 770.97 518.687L782.529 521.912ZM767.461 575.924L782.529 521.912L770.97 518.687L755.902 572.7L767.461 575.924ZM772.704 599.974L767.575 573.184L755.789 575.44L760.918 602.231L772.704 599.974ZM760.184 641.019C770.388 630.717 775.706 615.657 772.704 599.974L760.918 602.231C763.136 613.817 759.232 624.928 751.658 632.575L760.184 641.019ZM749.921 636.797V1545.09H761.921V636.797H749.921ZM755.921 1539.09H695.921V1551.09H755.921V1539.09ZM701.921 1545.09V637.33H689.921V1545.09H701.921Z" fill="black" mask="url(#path-1-inside-1_772_53255)"/>
<path d="M759.247 504.913C766.53 504.913 771.833 511.818 769.954 518.855L756.014 571.065L762.143 604.515C763.755 613.309 761.044 621.745 755.661 627.846V1500.31H726.309V504.913H759.247Z" fill="black" fill-opacity="0.25"/>
<mask id="path-4-inside-2_772_53255" fill="white">
<path fill-rule="evenodd" clip-rule="evenodd" d="M671.582 532.689C671.582 523.853 678.745 516.689 687.582 516.689H764.335C773.171 516.689 780.335 523.853 780.335 532.689V532.775C856.963 541.001 999.922 578.196 999.922 592.362C999.922 598.981 970.061 593.906 930.012 587.098C883.598 579.209 823.499 568.994 780.335 571.96V584.964C780.335 590.486 775.857 594.964 770.335 594.964H681.582C676.059 594.964 671.582 590.486 671.582 584.964V571.959C628.418 568.995 568.322 579.21 521.91 587.098C481.861 593.906 452 598.982 452 592.362C452 578.196 594.953 541.003 671.582 532.776V532.689Z"/>
</mask>
<path fill-rule="evenodd" clip-rule="evenodd" d="M671.582 532.689C671.582 523.853 678.745 516.689 687.582 516.689H764.335C773.171 516.689 780.335 523.853 780.335 532.689V532.775C856.963 541.001 999.922 578.196 999.922 592.362C999.922 598.981 970.061 593.906 930.012 587.098C883.598 579.209 823.499 568.994 780.335 571.96V584.964C780.335 590.486 775.857 594.964 770.335 594.964H681.582C676.059 594.964 671.582 590.486 671.582 584.964V571.959C628.418 568.995 568.322 579.21 521.91 587.098C481.861 593.906 452 598.982 452 592.362C452 578.196 594.953 541.003 671.582 532.776V532.689Z" fill="#3C3C3C"/>
<path d="M780.335 532.775H774.335V538.166L779.694 538.741L780.335 532.775ZM930.012 587.098L931.017 581.183L930.012 587.098ZM780.335 571.96L779.923 565.974L774.335 566.358V571.96H780.335ZM671.582 571.959H677.582V566.357L671.993 565.974L671.582 571.959ZM521.91 587.098L520.905 581.183L521.91 587.098ZM671.582 532.776L672.223 538.742L677.582 538.166V532.776H671.582ZM687.582 510.689C675.432 510.689 665.582 520.539 665.582 532.689H677.582C677.582 527.167 682.059 522.689 687.582 522.689V510.689ZM764.335 510.689H687.582V522.689H764.335V510.689ZM786.335 532.689C786.335 520.539 776.485 510.689 764.335 510.689V522.689C769.857 522.689 774.335 527.167 774.335 532.689H786.335ZM786.335 532.775V532.689H774.335V532.775H786.335ZM779.694 538.741C817.596 542.809 872.171 554.086 917.316 566.138C939.884 572.162 959.919 578.334 974.236 583.833C981.429 586.596 986.952 589.104 990.586 591.243C992.424 592.324 993.52 593.163 994.081 593.718C994.816 594.444 993.922 593.943 993.922 592.362H1005.92C1005.92 589.011 1003.91 586.56 1002.51 585.18C1000.94 583.629 998.894 582.208 996.673 580.901C992.189 578.262 985.945 575.476 978.539 572.631C963.655 566.914 943.161 560.617 920.411 554.544C874.92 542.4 819.701 530.967 780.975 526.809L779.694 538.741ZM993.922 592.362C993.922 590.331 995.317 589.248 995.718 589.032C995.863 588.954 995.475 589.173 994.023 589.32C991.25 589.603 986.785 589.438 980.604 588.797C968.374 587.53 951.128 584.602 931.017 581.183L929.006 593.014C948.945 596.403 966.654 599.416 979.367 600.733C985.657 601.385 991.161 601.674 995.238 601.259C997.211 601.058 999.469 600.641 1001.4 599.6C1003.59 598.421 1005.92 596.048 1005.92 592.362H993.922ZM931.017 581.183C884.859 573.337 823.959 562.948 779.923 565.974L780.746 577.946C823.039 575.04 882.336 585.081 929.006 593.014L931.017 581.183ZM786.335 584.964V571.96H774.335V584.964H786.335ZM770.335 600.964C779.171 600.964 786.335 593.8 786.335 584.964H774.335C774.335 587.173 772.544 588.964 770.335 588.964V600.964ZM681.582 600.964H770.335V588.964H681.582V600.964ZM665.582 584.964C665.582 593.8 672.745 600.964 681.582 600.964V588.964C679.373 588.964 677.582 587.173 677.582 584.964H665.582ZM665.582 571.959V584.964H677.582V571.959H665.582ZM522.915 593.014C569.584 585.081 628.879 575.04 671.171 577.945L671.993 565.974C627.958 562.949 567.061 573.338 520.905 581.183L522.915 593.014ZM446 592.362C446 596.048 448.328 598.421 450.518 599.6C452.453 600.641 454.711 601.058 456.684 601.259C460.761 601.674 466.264 601.385 472.555 600.733C485.268 599.416 502.976 596.403 522.915 593.014L520.905 581.183C500.794 584.602 483.548 587.53 471.318 588.797C465.137 589.438 460.672 589.603 457.899 589.321C456.447 589.173 456.059 588.954 456.204 589.032C456.605 589.248 458 590.331 458 592.362H446ZM670.942 526.81C632.215 530.968 576.997 542.401 531.508 554.545C508.758 560.618 488.265 566.915 473.382 572.631C465.976 575.476 459.732 578.262 455.249 580.901C453.028 582.209 450.978 583.63 449.408 585.18C448.011 586.56 446 589.011 446 592.362H458C458 593.943 457.106 594.444 457.84 593.718C458.402 593.163 459.498 592.325 461.336 591.243C464.969 589.104 470.492 586.596 477.685 583.833C492.001 578.335 512.035 572.163 534.603 566.139C579.746 554.087 634.32 542.811 672.223 538.742L670.942 526.81ZM665.582 532.689V532.776H677.582V532.689H665.582Z" fill="black" mask="url(#path-4-inside-2_772_53255)"/>
<path d="M915.922 945L918.922 945L918.922 942L918.922 626L918.922 623L915.922 623L867.922 623L864.922 623L864.922 626L864.922 942L864.922 945L867.922 945L915.922 945Z" fill="#3C3C3C" stroke="black" stroke-width="6"/>
<path d="M892.922 942L875.922 942L875.922 626L892.922 626L892.922 942Z" fill="white" fill-opacity="0.25"/>
<path d="M907.922 945L910.922 945L910.922 948L910.922 1299C910.922 1309.49 902.415 1318 891.922 1318C881.428 1318 872.922 1309.49 872.922 1299L872.922 948L872.922 945L875.922 945L907.922 945Z" fill="#929292" stroke="black" stroke-width="6"/>
<path d="M907.922 948L892.922 948L892.922 1315V1315C901.206 1315 907.922 1308.28 907.922 1300L907.922 948Z" fill="black" fill-opacity="0.25"/>
<mask id="path-10-outside-3_772_53255" maskUnits="userSpaceOnUse" x="819.008" y="464" width="146" height="175" fill="black">
<rect fill="white" x="819.008" y="464" width="146" height="175"/>
<path fill-rule="evenodd" clip-rule="evenodd" d="M841.008 470C831.929 470 824.669 477.546 825.02 486.618L828.567 578.384C829.728 608.448 854.438 632.222 884.525 632.222H899.024C929.11 632.222 953.82 608.448 954.982 578.384L958.528 486.618C958.879 477.546 951.619 470 942.54 470H841.008ZM859.942 503.698C850.816 503.698 843.538 511.319 843.959 520.436L845.675 557.637C846.812 582.271 867.114 601.658 891.774 601.658C916.435 601.658 936.737 582.271 937.874 557.637L939.59 520.436C940.011 511.319 932.733 503.698 923.607 503.698H859.942Z"/>
</mask>
<path fill-rule="evenodd" clip-rule="evenodd" d="M841.008 470C831.929 470 824.669 477.546 825.02 486.618L828.567 578.384C829.728 608.448 854.438 632.222 884.525 632.222H899.024C929.11 632.222 953.82 608.448 954.982 578.384L958.528 486.618C958.879 477.546 951.619 470 942.54 470H841.008ZM859.942 503.698C850.816 503.698 843.538 511.319 843.959 520.436L845.675 557.637C846.812 582.271 867.114 601.658 891.774 601.658C916.435 601.658 936.737 582.271 937.874 557.637L939.59 520.436C940.011 511.319 932.733 503.698 923.607 503.698H859.942Z" fill="#3C3C3C"/>
<path d="M825.02 486.618L831.016 486.386L825.02 486.618ZM828.567 578.384L822.571 578.616L828.567 578.384ZM954.982 578.384L960.977 578.616L954.982 578.384ZM958.528 486.618L952.533 486.386V486.386L958.528 486.618ZM843.959 520.436L849.952 520.159L843.959 520.436ZM845.675 557.637L851.669 557.36L845.675 557.637ZM937.874 557.637L943.868 557.913L937.874 557.637ZM939.59 520.436L945.584 520.712L939.59 520.436ZM831.016 486.386C830.796 480.716 835.334 476 841.008 476V464C828.525 464 818.542 474.375 819.024 486.85L831.016 486.386ZM834.562 578.153L831.016 486.386L819.024 486.85L822.571 578.616L834.562 578.153ZM884.525 626.222C857.662 626.222 835.599 604.996 834.562 578.153L822.571 578.616C823.857 611.901 851.215 638.222 884.525 638.222V626.222ZM899.024 626.222H884.525V638.222H899.024V626.222ZM948.986 578.153C947.949 604.996 925.887 626.222 899.024 626.222V638.222C932.334 638.222 959.691 611.901 960.977 578.616L948.986 578.153ZM952.533 486.386L948.986 578.153L960.977 578.616L964.524 486.85L952.533 486.386ZM942.54 476C948.215 476 952.752 480.716 952.533 486.386L964.524 486.85C965.006 474.375 955.024 464 942.54 464V476ZM841.008 476H942.54V464H841.008V476ZM849.952 520.159C849.689 514.461 854.238 509.698 859.942 509.698V497.698C847.393 497.698 837.387 508.177 837.965 520.712L849.952 520.159ZM851.669 557.36L849.952 520.159L837.965 520.712L839.681 557.913L851.669 557.36ZM891.774 595.658C870.321 595.658 852.657 578.791 851.669 557.36L839.681 557.913C840.966 585.75 863.908 607.658 891.774 607.658V595.658ZM931.88 557.36C930.892 578.791 913.228 595.658 891.774 595.658V607.658C919.641 607.658 942.583 585.75 943.868 557.913L931.88 557.36ZM933.597 520.159L931.88 557.36L943.868 557.913L945.584 520.712L933.597 520.159ZM923.607 509.698C929.311 509.698 933.86 514.461 933.597 520.159L945.584 520.712C946.162 508.177 936.156 497.698 923.607 497.698V509.698ZM859.942 509.698H923.607V497.698H859.942V509.698Z" fill="black" mask="url(#path-10-outside-3_772_53255)"/>
<path d="M937.87 478.079C938.161 471.71 944.035 467.082 950.295 468.288V468.288C955.392 469.271 958.997 473.844 958.762 479.03L954.68 568.877C953.612 592.371 937.979 612.695 915.545 619.754L907.533 622.275C899.522 624.795 893.535 614.846 899.514 608.948L933.422 575.5L937.87 478.079Z" fill="black" fill-opacity="0.25"/>
<path opacity="0.5" d="M935.922 487.5C935.922 493.299 931.221 498 925.422 498L845.422 498C839.623 498 834.922 493.299 834.922 487.5V487.5C834.922 481.701 839.623 477 845.422 477L925.422 477C931.221 477 935.922 481.701 935.922 487.5V487.5Z" fill="white" fill-opacity="0.25"/>
</g>
<defs>
<clipPath id="clip0_772_53255">
<rect width="1000" height="1000" fill="white"/>
</clipPath>
</defs>
</svg>
