<svg width="1000" height="1000" viewBox="0 0 1000 1000" fill="none" xmlns="http://www.w3.org/2000/svg">
<g clip-path="url(#clip0_33_1360)">
<mask id="path-1-inside-1_33_1360" fill="white">
<path fill-rule="evenodd" clip-rule="evenodd" d="M615.483 714.55H406.311V808.881C406.311 808.882 406.311 808.882 406.311 808.882C406.311 816.344 409.016 823.734 414.272 830.628C419.528 837.522 427.231 843.787 436.943 849.064C446.655 854.341 458.184 858.526 470.874 861.382C483.563 864.238 497.163 865.708 510.897 865.708C524.632 865.708 538.232 864.238 550.921 861.382C563.61 858.526 575.139 854.341 584.851 849.064C594.563 843.787 602.266 837.522 607.522 830.628C612.778 823.734 615.483 816.344 615.483 808.882C615.483 808.882 615.483 808.882 615.483 808.881V714.55Z"/>
</mask>
<path fill-rule="evenodd" clip-rule="evenodd" d="M615.483 714.55H406.311V808.881C406.311 808.882 406.311 808.882 406.311 808.882C406.311 816.344 409.016 823.734 414.272 830.628C419.528 837.522 427.231 843.787 436.943 849.064C446.655 854.341 458.184 858.526 470.874 861.382C483.563 864.238 497.163 865.708 510.897 865.708C524.632 865.708 538.232 864.238 550.921 861.382C563.61 858.526 575.139 854.341 584.851 849.064C594.563 843.787 602.266 837.522 607.522 830.628C612.778 823.734 615.483 816.344 615.483 808.882C615.483 808.882 615.483 808.882 615.483 808.881V714.55Z" fill="#DD933C"/>
<path d="M406.311 714.55V706.55H398.311V714.55H406.311ZM615.483 714.55H623.483V706.55H615.483V714.55ZM406.311 808.882H398.311V808.882L406.311 808.882ZM414.272 830.628L407.91 835.478H407.91L414.272 830.628ZM436.943 849.064L440.763 842.034L440.763 842.034L436.943 849.064ZM470.874 861.382L469.117 869.187H469.117L470.874 861.382ZM550.921 861.382L552.677 869.187L550.921 861.382ZM584.851 849.064L581.031 842.034L581.031 842.034L584.851 849.064ZM607.522 830.628L613.884 835.478L613.884 835.478L607.522 830.628ZM615.483 808.882L623.483 808.882V808.882H615.483ZM406.311 722.55H615.483V706.55H406.311V722.55ZM414.311 808.881V714.55H398.311V808.881H414.311ZM414.311 808.882C414.311 808.882 414.311 808.882 414.311 808.882C414.311 808.882 414.311 808.882 414.311 808.882C414.311 808.882 414.311 808.882 414.311 808.882C414.311 808.882 414.311 808.882 414.311 808.882C414.311 808.882 414.311 808.882 414.311 808.882V808.882C414.311 808.882 414.311 808.882 414.311 808.882V808.882C414.311 808.882 414.311 808.882 414.311 808.882V808.882C414.311 808.882 414.311 808.882 414.311 808.882V808.882C414.311 808.882 414.311 808.882 414.311 808.882V808.882C414.311 808.882 414.311 808.882 414.311 808.882C414.311 808.882 414.311 808.882 414.311 808.882C414.311 808.882 414.311 808.882 414.311 808.882C414.311 808.882 414.311 808.882 414.311 808.882V808.882C414.311 808.882 414.311 808.882 414.311 808.882V808.882C414.311 808.882 414.311 808.882 414.311 808.882C414.311 808.882 414.311 808.882 414.311 808.882C414.311 808.882 414.311 808.882 414.311 808.882C414.311 808.882 414.311 808.882 414.311 808.882V808.882C414.311 808.882 414.311 808.882 414.311 808.882V808.882C414.311 808.882 414.311 808.882 414.311 808.882C414.311 808.882 414.311 808.882 414.311 808.882C414.311 808.882 414.311 808.882 414.311 808.882C414.311 808.882 414.311 808.882 414.311 808.882V808.882C414.311 808.882 414.311 808.882 414.311 808.882C414.311 808.882 414.311 808.882 414.311 808.882C414.311 808.882 414.311 808.882 414.311 808.882C414.311 808.882 414.311 808.882 414.311 808.882V808.882C414.311 808.882 414.311 808.882 414.311 808.882V808.882C414.311 808.882 414.311 808.882 414.311 808.882C414.311 808.882 414.311 808.882 414.311 808.882V808.882C414.311 808.882 414.311 808.882 414.311 808.882V808.882C414.311 808.882 414.311 808.882 414.311 808.882C414.311 808.882 414.311 808.882 414.311 808.882V808.882C414.311 808.882 414.311 808.882 414.311 808.882V808.882C414.311 808.882 414.311 808.882 414.311 808.882C414.311 808.882 414.311 808.882 414.311 808.882V808.882C414.311 808.882 414.311 808.882 414.311 808.882V808.882C414.311 808.882 414.311 808.882 414.311 808.882C414.311 808.882 414.311 808.882 414.311 808.882C414.311 808.882 414.311 808.882 414.311 808.882C414.311 808.882 414.311 808.882 414.311 808.882V808.882C414.311 808.882 414.311 808.882 414.311 808.882C414.311 808.882 414.311 808.882 414.311 808.882C414.311 808.882 414.311 808.882 414.311 808.882C414.311 808.882 414.311 808.882 414.311 808.882V808.882C414.311 808.882 414.311 808.882 414.311 808.882V808.882C414.311 808.882 414.311 808.882 414.311 808.882C414.311 808.882 414.311 808.882 414.311 808.881C414.311 808.881 414.311 808.881 414.311 808.881C414.311 808.881 414.311 808.881 414.311 808.881V808.881C414.311 808.881 414.311 808.881 414.311 808.881V808.881C414.311 808.881 414.311 808.881 414.311 808.881C414.311 808.881 414.311 808.881 414.311 808.881C414.311 808.881 414.311 808.881 414.311 808.881C414.311 808.881 414.311 808.881 414.311 808.881V808.881C414.311 808.881 414.311 808.881 414.311 808.881V808.881C414.311 808.881 414.311 808.881 414.311 808.881V808.881C414.311 808.881 414.311 808.881 414.311 808.881V808.881C414.311 808.881 414.311 808.881 414.311 808.881V808.881C414.311 808.881 414.311 808.881 414.311 808.881C414.311 808.881 414.311 808.881 414.311 808.881C414.311 808.881 414.311 808.881 414.311 808.881C414.311 808.881 414.311 808.881 414.311 808.881C414.311 808.881 414.311 808.881 414.311 808.881H398.311C398.311 808.881 398.311 808.881 398.311 808.881C398.311 808.881 398.311 808.881 398.311 808.881C398.311 808.881 398.311 808.881 398.311 808.881C398.311 808.881 398.311 808.881 398.311 808.881C398.311 808.881 398.311 808.881 398.311 808.881V808.881C398.311 808.881 398.311 808.881 398.311 808.881V808.881C398.311 808.881 398.311 808.881 398.311 808.881V808.881C398.311 808.881 398.311 808.881 398.311 808.881V808.881C398.311 808.881 398.311 808.881 398.311 808.881V808.881C398.311 808.881 398.311 808.881 398.311 808.881C398.311 808.881 398.311 808.881 398.311 808.881C398.311 808.881 398.311 808.881 398.311 808.881C398.311 808.881 398.311 808.881 398.311 808.881V808.881C398.311 808.881 398.311 808.881 398.311 808.881V808.881C398.311 808.881 398.311 808.881 398.311 808.881C398.311 808.881 398.311 808.881 398.311 808.881C398.311 808.882 398.311 808.882 398.311 808.882C398.311 808.882 398.311 808.882 398.311 808.882V808.882C398.311 808.882 398.311 808.882 398.311 808.882V808.882C398.311 808.882 398.311 808.882 398.311 808.882C398.311 808.882 398.311 808.882 398.311 808.882C398.311 808.882 398.311 808.882 398.311 808.882C398.311 808.882 398.311 808.882 398.311 808.882V808.882C398.311 808.882 398.311 808.882 398.311 808.882C398.311 808.882 398.311 808.882 398.311 808.882C398.311 808.882 398.311 808.882 398.311 808.882C398.311 808.882 398.311 808.882 398.311 808.882V808.882C398.311 808.882 398.311 808.882 398.311 808.882V808.882C398.311 808.882 398.311 808.882 398.311 808.882C398.311 808.882 398.311 808.882 398.311 808.882V808.882C398.311 808.882 398.311 808.882 398.311 808.882V808.882C398.311 808.882 398.311 808.882 398.311 808.882C398.311 808.882 398.311 808.882 398.311 808.882V808.882C398.311 808.882 398.311 808.882 398.311 808.882V808.882C398.311 808.882 398.311 808.882 398.311 808.882C398.311 808.882 398.311 808.882 398.311 808.882V808.882C398.311 808.882 398.311 808.882 398.311 808.882V808.882C398.311 808.882 398.311 808.882 398.311 808.882C398.311 808.882 398.311 808.882 398.311 808.882C398.311 808.882 398.311 808.882 398.311 808.882C398.311 808.882 398.311 808.882 398.311 808.882V808.882C398.311 808.882 398.311 808.882 398.311 808.882C398.311 808.882 398.311 808.882 398.311 808.882C398.311 808.882 398.311 808.882 398.311 808.882C398.311 808.882 398.311 808.882 398.311 808.882V808.882C398.311 808.882 398.311 808.882 398.311 808.882V808.882C398.311 808.882 398.311 808.882 398.311 808.882C398.311 808.882 398.311 808.882 398.311 808.882C398.311 808.882 398.311 808.882 398.311 808.882C398.311 808.882 398.311 808.882 398.311 808.882V808.882C398.311 808.882 398.311 808.882 398.311 808.882V808.882C398.311 808.882 398.311 808.882 398.311 808.882C398.311 808.882 398.311 808.882 398.311 808.882C398.311 808.882 398.311 808.882 398.311 808.882C398.311 808.882 398.311 808.882 398.311 808.882V808.882C398.311 808.882 398.311 808.882 398.311 808.882V808.882C398.311 808.882 398.311 808.882 398.311 808.882V808.882C398.311 808.882 398.311 808.882 398.311 808.882V808.882C398.311 808.882 398.311 808.882 398.311 808.882V808.882C398.311 808.882 398.311 808.882 398.311 808.882C398.311 808.882 398.311 808.882 398.311 808.882C398.311 808.882 398.311 808.882 398.311 808.882C398.311 808.882 398.311 808.882 398.311 808.882C398.311 808.882 398.311 808.882 398.311 808.882H414.311ZM420.634 825.778C416.262 820.043 414.311 814.318 414.311 808.882L398.311 808.882C398.311 818.371 401.77 827.425 407.91 835.478L420.634 825.778ZM440.763 842.034C431.78 837.154 425.045 831.564 420.634 825.778L407.91 835.478C414.011 843.481 422.683 850.42 433.124 856.093L440.763 842.034ZM472.63 853.578C460.538 850.856 449.723 846.903 440.763 842.034L433.124 856.093C443.587 861.778 455.831 866.197 469.117 869.187L472.63 853.578ZM510.897 857.708C497.721 857.708 484.711 856.297 472.63 853.578L469.117 869.187C482.414 872.18 496.605 873.708 510.897 873.708V857.708ZM549.164 853.578C537.083 856.297 524.074 857.708 510.897 857.708V873.708C525.19 873.708 539.38 872.18 552.677 869.187L549.164 853.578ZM581.031 842.034C572.071 846.903 561.256 850.856 549.164 853.578L552.677 869.187C565.963 866.197 578.207 861.778 588.67 856.093L581.031 842.034ZM601.16 825.778C596.749 831.564 590.014 837.154 581.031 842.034L588.67 856.093C599.111 850.42 607.783 843.481 613.884 835.478L601.16 825.778ZM607.483 808.882C607.483 814.318 605.532 820.043 601.16 825.778L613.884 835.478C620.024 827.425 623.483 818.371 623.483 808.882L607.483 808.882ZM607.483 808.881C607.483 808.881 607.483 808.881 607.483 808.881C607.483 808.881 607.483 808.881 607.483 808.881C607.483 808.881 607.483 808.881 607.483 808.881C607.483 808.881 607.483 808.881 607.483 808.881C607.483 808.881 607.483 808.881 607.483 808.881V808.881C607.483 808.881 607.483 808.881 607.483 808.881V808.881C607.483 808.881 607.483 808.881 607.483 808.881V808.881C607.483 808.881 607.483 808.881 607.483 808.881V808.881C607.483 808.881 607.483 808.881 607.483 808.881V808.881C607.483 808.881 607.483 808.881 607.483 808.881C607.483 808.881 607.483 808.881 607.483 808.881C607.483 808.881 607.483 808.881 607.483 808.881C607.483 808.881 607.483 808.881 607.483 808.881V808.881C607.483 808.881 607.483 808.881 607.483 808.881V808.881C607.483 808.881 607.483 808.881 607.483 808.881C607.483 808.881 607.483 808.881 607.483 808.881C607.483 808.882 607.483 808.882 607.483 808.882C607.483 808.882 607.483 808.882 607.483 808.882V808.882C607.483 808.882 607.483 808.882 607.483 808.882V808.882C607.483 808.882 607.483 808.882 607.483 808.882C607.483 808.882 607.483 808.882 607.483 808.882C607.483 808.882 607.483 808.882 607.483 808.882C607.483 808.882 607.483 808.882 607.483 808.882V808.882C607.483 808.882 607.483 808.882 607.483 808.882C607.483 808.882 607.483 808.882 607.483 808.882C607.483 808.882 607.483 808.882 607.483 808.882C607.483 808.882 607.483 808.882 607.483 808.882V808.882C607.483 808.882 607.483 808.882 607.483 808.882V808.882C607.483 808.882 607.483 808.882 607.483 808.882C607.483 808.882 607.483 808.882 607.483 808.882V808.882C607.483 808.882 607.483 808.882 607.483 808.882V808.882C607.483 808.882 607.483 808.882 607.483 808.882C607.483 808.882 607.483 808.882 607.483 808.882V808.882C607.483 808.882 607.483 808.882 607.483 808.882V808.882C607.483 808.882 607.483 808.882 607.483 808.882C607.483 808.882 607.483 808.882 607.483 808.882V808.882C607.483 808.882 607.483 808.882 607.483 808.882V808.882C607.483 808.882 607.483 808.882 607.483 808.882C607.483 808.882 607.483 808.882 607.483 808.882C607.483 808.882 607.483 808.882 607.483 808.882C607.483 808.882 607.483 808.882 607.483 808.882V808.882C607.483 808.882 607.483 808.882 607.483 808.882C607.483 808.882 607.483 808.882 607.483 808.882C607.483 808.882 607.483 808.882 607.483 808.882C607.483 808.882 607.483 808.882 607.483 808.882V808.882C607.483 808.882 607.483 808.882 607.483 808.882V808.882C607.483 808.882 607.483 808.882 607.483 808.882C607.483 808.882 607.483 808.882 607.483 808.882C607.483 808.882 607.483 808.882 607.483 808.882C607.483 808.882 607.483 808.882 607.483 808.882V808.882C607.483 808.882 607.483 808.882 607.483 808.882V808.882C607.483 808.882 607.483 808.882 607.483 808.882C607.483 808.882 607.483 808.882 607.483 808.882C607.483 808.882 607.483 808.882 607.483 808.882C607.483 808.882 607.483 808.882 607.483 808.882V808.882C607.483 808.882 607.483 808.882 607.483 808.882V808.882C607.483 808.882 607.483 808.882 607.483 808.882V808.882C607.483 808.882 607.483 808.882 607.483 808.882V808.882C607.483 808.882 607.483 808.882 607.483 808.882V808.882C607.483 808.882 607.483 808.882 607.483 808.882C607.483 808.882 607.483 808.882 607.483 808.882C607.483 808.882 607.483 808.882 607.483 808.882C607.483 808.882 607.483 808.882 607.483 808.882C607.483 808.882 607.483 808.882 607.483 808.882H623.483C623.483 808.882 623.483 808.882 623.483 808.882C623.483 808.882 623.483 808.882 623.483 808.882C623.483 808.882 623.483 808.882 623.483 808.882C623.483 808.882 623.483 808.882 623.483 808.882C623.483 808.882 623.483 808.882 623.483 808.882V808.882C623.483 808.882 623.483 808.882 623.483 808.882V808.882C623.483 808.882 623.483 808.882 623.483 808.882V808.882C623.483 808.882 623.483 808.882 623.483 808.882V808.882C623.483 808.882 623.483 808.882 623.483 808.882V808.882C623.483 808.882 623.483 808.882 623.483 808.882C623.483 808.882 623.483 808.882 623.483 808.882C623.483 808.882 623.483 808.882 623.483 808.882C623.483 808.882 623.483 808.882 623.483 808.882V808.882C623.483 808.882 623.483 808.882 623.483 808.882V808.882C623.483 808.882 623.483 808.882 623.483 808.882C623.483 808.882 623.483 808.882 623.483 808.882C623.483 808.882 623.483 808.882 623.483 808.882C623.483 808.882 623.483 808.882 623.483 808.882V808.882C623.483 808.882 623.483 808.882 623.483 808.882V808.882C623.483 808.882 623.483 808.882 623.483 808.882C623.483 808.882 623.483 808.882 623.483 808.882C623.483 808.882 623.483 808.882 623.483 808.882C623.483 808.882 623.483 808.882 623.483 808.882V808.882C623.483 808.882 623.483 808.882 623.483 808.882C623.483 808.882 623.483 808.882 623.483 808.882C623.483 808.882 623.483 808.882 623.483 808.882C623.483 808.882 623.483 808.882 623.483 808.882V808.882C623.483 808.882 623.483 808.882 623.483 808.882V808.882C623.483 808.882 623.483 808.882 623.483 808.882C623.483 808.882 623.483 808.882 623.483 808.882V808.882C623.483 808.882 623.483 808.882 623.483 808.882V808.882C623.483 808.882 623.483 808.882 623.483 808.882C623.483 808.882 623.483 808.882 623.483 808.882V808.882C623.483 808.882 623.483 808.882 623.483 808.882V808.882C623.483 808.882 623.483 808.882 623.483 808.882C623.483 808.882 623.483 808.882 623.483 808.882V808.882C623.483 808.882 623.483 808.882 623.483 808.882V808.882C623.483 808.882 623.483 808.882 623.483 808.882C623.483 808.882 623.483 808.882 623.483 808.882C623.483 808.882 623.483 808.882 623.483 808.882C623.483 808.882 623.483 808.882 623.483 808.882V808.882C623.483 808.882 623.483 808.882 623.483 808.882C623.483 808.882 623.483 808.882 623.483 808.882C623.483 808.882 623.483 808.882 623.483 808.882C623.483 808.882 623.483 808.882 623.483 808.882V808.882C623.483 808.882 623.483 808.882 623.483 808.882V808.882C623.483 808.882 623.483 808.882 623.483 808.882C623.483 808.882 623.483 808.882 623.483 808.881C623.483 808.881 623.483 808.881 623.483 808.881C623.483 808.881 623.483 808.881 623.483 808.881V808.881C623.483 808.881 623.483 808.881 623.483 808.881V808.881C623.483 808.881 623.483 808.881 623.483 808.881C623.483 808.881 623.483 808.881 623.483 808.881C623.483 808.881 623.483 808.881 623.483 808.881C623.483 808.881 623.483 808.881 623.483 808.881V808.881C623.483 808.881 623.483 808.881 623.483 808.881V808.881C623.483 808.881 623.483 808.881 623.483 808.881V808.881C623.483 808.881 623.483 808.881 623.483 808.881V808.881C623.483 808.881 623.483 808.881 623.483 808.881V808.881C623.483 808.881 623.483 808.881 623.483 808.881C623.483 808.881 623.483 808.881 623.483 808.881C623.483 808.881 623.483 808.881 623.483 808.881C623.483 808.881 623.483 808.881 623.483 808.881C623.483 808.881 623.483 808.881 623.483 808.881H607.483ZM607.483 714.55V808.881H623.483V714.55H607.483Z" fill="black" mask="url(#path-1-inside-1_33_1360)"/>
<path d="M340.609 848.354H659.732L565.777 1265.63L502.176 1506L438.576 1265.63L340.609 848.354Z" fill="#DD933C"/>
<mask id="mask0_33_1360" style="mask-type:alpha" maskUnits="userSpaceOnUse" x="340" y="848" width="320" height="652">
<path d="M340.608 848.623H659.731L565.776 1264.83L502.176 1499.79L438.575 1264.83L340.608 848.623Z" fill="#DD933C"/>
</mask>
<g mask="url(#mask0_33_1360)">
<line y1="-5" x2="621.594" y2="-5" transform="matrix(0.206815 0.97838 -0.832592 0.553887 238.481 860)" stroke="#FFBF74" stroke-width="10"/>
<line y1="-5" x2="621.594" y2="-5" transform="matrix(0.206815 0.97838 -0.832592 0.553887 304.62 860)" stroke="#FFBF74" stroke-width="10"/>
<line y1="-5" x2="621.594" y2="-5" transform="matrix(0.206815 0.97838 -0.832592 0.553887 370.757 860)" stroke="#FFBF74" stroke-width="10"/>
<line y1="-5" x2="621.594" y2="-5" transform="matrix(0.206815 0.97838 -0.832592 0.553887 436.894 860)" stroke="#FFBF74" stroke-width="10"/>
<line y1="-5" x2="621.594" y2="-5" transform="matrix(0.206815 0.97838 -0.832592 0.553887 503.032 860)" stroke="#FFBF74" stroke-width="10"/>
<line y1="-5" x2="621.594" y2="-5" transform="matrix(0.206815 0.97838 -0.832592 0.553887 569.17 860)" stroke="#FFBF74" stroke-width="10"/>
<line y1="-5" x2="621.594" y2="-5" transform="matrix(0.206815 0.97838 -0.832592 0.553887 635.307 860)" stroke="#FFBF74" stroke-width="10"/>
<line y1="-5" x2="621.594" y2="-5" transform="matrix(-0.206815 0.97838 0.832592 0.553887 763.519 860)" stroke="#FFBF74" stroke-width="10"/>
<line y1="-5" x2="621.594" y2="-5" transform="matrix(-0.206815 0.97838 0.832592 0.553887 697.382 860)" stroke="#FFBF74" stroke-width="10"/>
<line y1="-5" x2="621.594" y2="-5" transform="matrix(-0.206815 0.97838 0.832592 0.553887 631.243 860)" stroke="#FFBF74" stroke-width="10"/>
<line y1="-5" x2="621.594" y2="-5" transform="matrix(-0.206815 0.97838 0.832592 0.553887 565.104 860)" stroke="#FFBF74" stroke-width="10"/>
<line y1="-5" x2="621.594" y2="-5" transform="matrix(-0.206815 0.97838 0.832592 0.553887 498.968 860)" stroke="#FFBF74" stroke-width="10"/>
<line y1="-5" x2="621.594" y2="-5" transform="matrix(-0.206815 0.97838 0.832592 0.553887 432.83 860)" stroke="#FFBF74" stroke-width="10"/>
<line y1="-5" x2="621.594" y2="-5" transform="matrix(-0.206815 0.97838 0.832592 0.553887 366.693 860)" stroke="#FFBF74" stroke-width="10"/>
</g>
<path d="M442.456 1267.23L345.65 852.354H654.738L561.892 1267.25L502.176 1490.52L442.456 1267.23Z" stroke="black" stroke-width="8"/>
<path fill-rule="evenodd" clip-rule="evenodd" d="M476.5 1398.68L597.778 859.91H651.687L502 1493.01L476.5 1398.68Z" fill="black" fill-opacity="0.25"/>
<mask id="path-21-inside-2_33_1360" fill="white">
<path fill-rule="evenodd" clip-rule="evenodd" d="M725.434 714.55H516.261V837.962C516.261 837.962 516.261 837.962 516.261 837.962C516.261 847.725 518.966 857.392 524.222 866.412C529.478 875.432 537.182 883.628 546.893 890.531C556.605 897.435 568.135 902.911 580.824 906.647C593.513 910.383 607.113 912.306 620.847 912.306C634.582 912.306 648.182 910.383 660.871 906.647C673.56 902.911 685.089 897.435 694.801 890.531C704.513 883.628 712.217 875.432 717.473 866.412C722.728 857.392 725.434 847.725 725.434 837.962V714.55Z"/>
</mask>
<path fill-rule="evenodd" clip-rule="evenodd" d="M725.434 714.55H516.261V837.962C516.261 837.962 516.261 837.962 516.261 837.962C516.261 847.725 518.966 857.392 524.222 866.412C529.478 875.432 537.182 883.628 546.893 890.531C556.605 897.435 568.135 902.911 580.824 906.647C593.513 910.383 607.113 912.306 620.847 912.306C634.582 912.306 648.182 910.383 660.871 906.647C673.56 902.911 685.089 897.435 694.801 890.531C704.513 883.628 712.217 875.432 717.473 866.412C722.728 857.392 725.434 847.725 725.434 837.962V714.55Z" fill="#DD933C"/>
<path d="M516.261 714.55V706.55H508.261V714.55H516.261ZM725.434 714.55H733.434V706.55H725.434V714.55ZM516.261 837.962H508.261V837.962L516.261 837.962ZM524.222 866.412L517.31 870.44L517.31 870.44L524.222 866.412ZM546.893 890.531L551.528 884.011H551.528L546.893 890.531ZM580.824 906.647L583.083 898.973L580.824 906.647ZM660.871 906.647L658.611 898.973L660.871 906.647ZM694.801 890.531L690.166 884.011H690.166L694.801 890.531ZM717.473 866.412L724.385 870.44L717.473 866.412ZM516.261 722.55H725.434V706.55H516.261V722.55ZM524.261 837.962V714.55H508.261V837.962H524.261ZM524.261 837.962V837.962C524.261 837.962 524.261 837.962 524.261 837.962C524.261 837.962 524.261 837.962 524.261 837.962C524.261 837.962 524.261 837.962 524.261 837.962C524.261 837.962 524.261 837.962 524.261 837.962C524.261 837.962 524.261 837.962 524.261 837.962C524.261 837.962 524.261 837.962 524.261 837.962V837.962V837.962H508.261V837.962V837.962C508.261 837.962 508.261 837.962 508.261 837.962C508.261 837.962 508.261 837.962 508.261 837.962C508.261 837.962 508.261 837.962 508.261 837.962C508.261 837.962 508.261 837.962 508.261 837.962C508.261 837.962 508.261 837.962 508.261 837.962C508.261 837.962 508.261 837.962 508.261 837.962V837.962H524.261ZM531.134 862.385C526.539 854.5 524.261 846.211 524.261 837.962L508.261 837.962C508.261 849.238 511.393 860.285 517.31 870.44L531.134 862.385ZM551.528 884.011C542.613 877.674 535.741 870.291 531.134 862.385L517.31 870.44C523.215 880.573 531.75 889.582 542.258 897.052L551.528 884.011ZM583.083 898.973C571.152 895.46 560.443 890.348 551.528 884.011L542.258 897.052C552.768 904.522 565.118 910.362 578.564 914.322L583.083 898.973ZM620.847 904.306C607.848 904.306 595.011 902.485 583.083 898.973L578.564 914.322C592.015 918.282 606.377 920.306 620.847 920.306V904.306ZM658.611 898.973C646.684 902.485 633.846 904.306 620.847 904.306V920.306C635.317 920.306 649.68 918.282 663.13 914.322L658.611 898.973ZM690.166 884.011C681.252 890.348 670.543 895.46 658.611 898.973L663.13 914.322C676.577 910.362 688.927 904.522 699.436 897.052L690.166 884.011ZM710.56 862.385C705.953 870.291 699.081 877.674 690.166 884.011L699.436 897.052C709.945 889.582 718.48 880.573 724.385 870.44L710.56 862.385ZM717.434 837.962C717.434 846.211 715.155 854.5 710.56 862.385L724.385 870.44C730.302 860.285 733.434 849.238 733.434 837.962H717.434ZM717.434 714.55V837.962H733.434V714.55H717.434Z" fill="black" mask="url(#path-21-inside-2_33_1360)"/>
<mask id="path-23-inside-3_33_1360" fill="white">
<path fill-rule="evenodd" clip-rule="evenodd" d="M482.739 714.55H273.566V837.962C273.566 847.725 276.272 857.392 281.528 866.412C286.784 875.432 294.487 883.628 304.199 890.531C313.911 897.435 325.44 902.911 338.129 906.647C350.818 910.383 364.418 912.306 378.153 912.306C391.887 912.306 405.487 910.383 418.176 906.647C430.865 902.911 442.395 897.435 452.107 890.531C461.818 883.628 469.522 875.432 474.778 866.412C480.034 857.392 482.739 847.725 482.739 837.962V714.55Z"/>
</mask>
<path fill-rule="evenodd" clip-rule="evenodd" d="M482.739 714.55H273.566V837.962C273.566 847.725 276.272 857.392 281.528 866.412C286.784 875.432 294.487 883.628 304.199 890.531C313.911 897.435 325.44 902.911 338.129 906.647C350.818 910.383 364.418 912.306 378.153 912.306C391.887 912.306 405.487 910.383 418.176 906.647C430.865 902.911 442.395 897.435 452.107 890.531C461.818 883.628 469.522 875.432 474.778 866.412C480.034 857.392 482.739 847.725 482.739 837.962V714.55Z" fill="#DD933C"/>
<path d="M273.566 714.55V706.55H265.566V714.55H273.566ZM482.739 714.55H490.739V706.55H482.739V714.55ZM273.566 837.962L281.566 837.962V837.962H273.566ZM281.528 866.412L274.615 870.44H274.615L281.528 866.412ZM338.129 906.647L340.389 898.973L338.129 906.647ZM418.176 906.647L415.917 898.973L418.176 906.647ZM452.107 890.531L447.472 884.011H447.472L452.107 890.531ZM474.778 866.412L481.69 870.44L474.778 866.412ZM482.739 837.962L490.739 837.962V837.962H482.739ZM273.566 722.55H482.739V706.55H273.566V722.55ZM281.566 837.962V714.55H265.566V837.962H281.566ZM288.44 862.385C283.845 854.5 281.566 846.211 281.566 837.962L265.566 837.962C265.566 849.238 268.698 860.285 274.615 870.44L288.44 862.385ZM308.834 884.011C299.919 877.674 293.047 870.291 288.44 862.385L274.615 870.44C280.52 880.573 289.055 889.582 299.564 897.052L308.834 884.011ZM340.389 898.973C328.457 895.46 317.748 890.348 308.834 884.011L299.564 897.052C310.073 904.522 322.423 910.362 335.87 914.322L340.389 898.973ZM378.153 904.306C365.154 904.306 352.316 902.485 340.389 898.973L335.87 914.322C349.32 918.282 363.683 920.306 378.153 920.306V904.306ZM415.917 898.973C403.989 902.485 391.152 904.306 378.153 904.306V920.306C392.623 920.306 406.985 918.282 420.436 914.322L415.917 898.973ZM447.472 884.011C438.557 890.348 427.848 895.46 415.917 898.973L420.436 914.322C433.882 910.362 446.233 904.522 456.742 897.052L447.472 884.011ZM467.866 862.385C463.259 870.291 456.387 877.674 447.472 884.011L456.742 897.052C467.25 889.582 475.786 880.573 481.69 870.44L467.866 862.385ZM474.739 837.962C474.739 846.211 472.461 854.5 467.866 862.385L481.69 870.44C487.608 860.285 490.739 849.238 490.739 837.962L474.739 837.962ZM474.739 714.55V837.962H490.739V714.55H474.739Z" fill="black" mask="url(#path-23-inside-3_33_1360)"/>
<path d="M516.26 837.962C516.26 847.725 518.965 857.392 524.221 866.412C529.477 875.432 537.181 883.628 546.893 890.531C556.605 897.435 568.134 902.911 580.823 906.647C593.512 910.383 607.112 912.306 620.847 912.306C634.581 912.306 648.181 910.383 660.87 906.647C673.559 902.911 685.089 897.435 694.801 890.531C704.512 883.628 712.216 875.432 717.472 866.412C722.728 857.392 725.433 847.725 725.433 837.962V714.55H717.472C713.868 788.647 668.581 917.065 516.26 837.962Z" fill="black" fill-opacity="0.25"/>
<path d="M273.566 837.962C273.566 847.725 276.272 857.392 281.528 866.412C286.784 875.432 294.487 883.628 304.199 890.531C313.911 897.435 325.44 902.911 338.129 906.647C350.818 910.383 364.418 912.306 378.153 912.306C391.887 912.306 405.487 910.383 418.176 906.647C430.865 902.911 442.395 897.435 452.107 890.531C461.818 883.628 469.522 875.432 474.778 866.412C480.034 857.392 482.739 847.725 482.739 837.962V714.55H474.778C471.175 788.647 425.887 917.065 273.566 837.962Z" fill="black" fill-opacity="0.25"/>
<rect x="236" y="689" width="527" height="30.6421" rx="15.3211" fill="#DD933C" stroke="black" stroke-width="8"/>
<rect x="258.635" y="739.781" width="481.729" height="17.7307" rx="8.86533" fill="#DD933C" stroke="black" stroke-width="5"/>
<rect x="269.363" y="844.342" width="460.276" height="17.7307" rx="8.86533" fill="#DD933C" stroke="black" stroke-width="5"/>
<path d="M642.301 841.842L714.068 841.842C720.345 841.842 725.434 846.93 725.434 853.207C725.434 859.484 720.345 864.572 714.068 864.572H642.301V841.842Z" fill="black" fill-opacity="0.25"/>
<path d="M659.731 737.281L731.499 737.281C737.776 737.281 742.864 742.37 742.864 748.647C742.864 754.923 737.776 760.012 731.499 760.012H659.731V737.281Z" fill="black" fill-opacity="0.25"/>
<path d="M634.255 685L747.679 685C758.349 685 767 693.65 767 704.321C767 714.992 758.349 723.642 747.679 723.642H634.255V685Z" fill="black" fill-opacity="0.25"/>
<line x1="368.585" y1="765.693" x2="368.585" y2="788.424" stroke="#FFBF74" stroke-width="5"/>
<line x1="368.585" y1="812.291" x2="368.585" y2="835.022" stroke="#FFBF74" stroke-width="5"/>
<line x1="411.674" y1="801.152" x2="384.857" y2="801.152" stroke="#FFBF74" stroke-width="5"/>
<line x1="355.357" y1="801.152" x2="328.54" y2="801.152" stroke="#FFBF74" stroke-width="5"/>
<line y1="-2.5" x2="24.858" y2="-2.5" transform="matrix(-0.762835 0.646593 -0.762834 -0.646594 395.775 774.785)" stroke="#FFBF74" stroke-width="5"/>
<line y1="-2.5" x2="24.858" y2="-2.5" transform="matrix(-0.762835 0.646593 -0.762834 -0.646594 357.944 806.689)" stroke="#FFBF74" stroke-width="5"/>
<line y1="-2.5" x2="24.858" y2="-2.5" transform="matrix(-0.762834 -0.646594 0.762835 -0.646593 401.138 822.682)" stroke="#FFBF74" stroke-width="5"/>
<line y1="-2.5" x2="24.858" y2="-2.5" transform="matrix(-0.762834 -0.646594 0.762835 -0.646593 362.253 790.858)" stroke="#FFBF74" stroke-width="5"/>
<line x1="632.734" y1="765.693" x2="632.734" y2="788.424" stroke="#FFBF74" stroke-width="5"/>
<line x1="632.734" y1="812.291" x2="632.734" y2="835.022" stroke="#FFBF74" stroke-width="5"/>
<line x1="675.822" y1="801.152" x2="649.005" y2="801.152" stroke="#FFBF74" stroke-width="5"/>
<line x1="619.506" y1="801.152" x2="592.689" y2="801.152" stroke="#FFBF74" stroke-width="5"/>
<line y1="-2.5" x2="24.858" y2="-2.5" transform="matrix(-0.762835 0.646593 -0.762834 -0.646594 659.923 774.785)" stroke="#FFBF74" stroke-width="5"/>
<line y1="-2.5" x2="24.858" y2="-2.5" transform="matrix(-0.762835 0.646593 -0.762834 -0.646594 622.092 806.689)" stroke="#FFBF74" stroke-width="5"/>
<line y1="-2.5" x2="24.858" y2="-2.5" transform="matrix(-0.762834 -0.646594 0.762835 -0.646593 665.286 822.682)" stroke="#FFBF74" stroke-width="5"/>
<line y1="-2.5" x2="24.858" y2="-2.5" transform="matrix(-0.762834 -0.646594 0.762835 -0.646593 626.401 790.858)" stroke="#FFBF74" stroke-width="5"/>
</g>
<defs>
<clipPath id="clip0_33_1360">
<rect width="1000" height="1000" fill="white"/>
</clipPath>
</defs>
</svg>
