<svg width="1000" height="1000" viewBox="0 0 1000 1000" fill="none" xmlns="http://www.w3.org/2000/svg">
<g clip-path="url(#clip0_137_240192)">
<path d="M331 499C358.062 499 380 477.062 380 450C380 422.938 358.062 401 331 401C303.938 401 282 422.938 282 450C282 477.062 303.938 499 331 499Z" fill="#E40303" stroke="black" stroke-width="4"/>
<path d="M446.5 499C473.306 499 495 477.042 495 450C495 422.958 473.306 401 446.5 401C419.694 401 398 422.958 398 450C398 477.042 419.694 499 446.5 499Z" fill="#E40303" stroke="black" stroke-width="4"/>
<path opacity="0.5" d="M330 380L334.206 431.574L360.372 386.932L341.784 435.223L384.728 406.356L347.028 441.8L398.245 434.424L348.9 450L398.245 465.576L347.028 458.2L384.728 493.644L341.784 464.777L360.372 513.068L334.206 468.426L330 520L325.794 468.426L299.628 513.068L318.216 464.777L275.272 493.644L312.972 458.2L261.755 465.576L311.1 450L261.755 434.424L312.972 441.8L275.272 406.356L318.216 435.223L299.628 386.932L325.794 431.574L330 380Z" fill="white" fill-opacity="0.7"/>
<path opacity="0.5" d="M442 380L446.206 431.574L472.372 386.932L453.784 435.223L496.728 406.356L459.028 441.8L510.245 434.424L460.9 450L510.245 465.576L459.028 458.2L496.728 493.644L453.784 464.777L472.372 513.068L446.206 468.426L442 520L437.794 468.426L411.628 513.068L430.216 464.777L387.272 493.644L424.972 458.2L373.755 465.576L423.1 450L373.755 434.424L424.972 441.8L387.272 406.356L430.216 435.223L411.628 386.932L437.794 431.574L442 380Z" fill="white" fill-opacity="0.7"/>
<path d="M-6 433H-8V435V465V467H-6H433C442.389 467 450 459.389 450 450C450 440.611 442.389 433 433 433H-6Z" fill="#E40303" stroke="black" stroke-width="4"/>
</g>
<defs>
<clipPath id="clip0_137_240192">
<rect width="1000" height="1000" fill="white"/>
</clipPath>
</defs>
</svg>
