<svg width="1000" height="1000" viewBox="0 0 1000 1000" fill="none" xmlns="http://www.w3.org/2000/svg">
<path d="M367.1 450.875C367.1 471.793 350.142 488.75 329.225 488.75C308.307 488.75 291.35 471.793 291.35 450.875C291.35 429.957 308.307 413 329.225 413C350.142 413 367.1 429.957 367.1 450.875Z" fill="white" stroke="black" stroke-width="6"/>
<path d="M366.983 447.875H291.467C292.996 428.36 309.317 413 329.225 413C349.133 413 365.453 428.36 366.983 447.875Z" fill="#5F3016" stroke="black" stroke-width="6"/>
<path d="M292 448.5C292 452.876 293.791 457.073 296.979 460.167C300.167 463.262 304.491 465 309 465C313.509 465 317.833 463.262 321.021 460.167C324.209 457.073 326 452.876 326 448.5L309 448.5H292Z" fill="#090909"/>
<path d="M492.612 450.987C492.612 471.905 475.655 488.862 454.737 488.862C433.82 488.862 416.862 471.905 416.862 450.987C416.862 430.07 433.82 413.112 454.737 413.112C475.655 413.112 492.612 430.07 492.612 450.987Z" fill="white" stroke="black" stroke-width="6"/>
<path d="M492.983 447.875H417.467C418.996 428.36 435.317 413 455.225 413C475.133 413 491.453 428.36 492.983 447.875Z" fill="#5F3016" stroke="black" stroke-width="6"/>
<path d="M418 448.5C418 452.876 419.791 457.073 422.979 460.167C426.167 463.262 430.491 465 435 465C439.509 465 443.833 463.262 447.021 460.167C450.209 457.073 452 452.876 452 448.5L435 448.5H418Z" fill="#090909"/>
</svg>
