<svg width="1000" height="1000" viewBox="0 0 1000 1000" fill="none" xmlns="http://www.w3.org/2000/svg">
<rect x="767" y="423" width="26" height="577" fill="black"/>
<rect x="585" y="460" width="391" height="300" fill="#FFED00" stroke="black" stroke-width="8"/>
<rect x="585" y="460" width="20" height="300" fill="black" fill-opacity="0.25"/>
<path d="M650.849 517.877V546.357H647.809V525.197L638.569 546.357H636.249L626.929 525.357L626.969 546.357H623.929V517.877H626.649L637.449 542.437L648.129 517.877H650.849ZM668.114 534.837V546.357H664.834V534.797L653.634 517.877H657.474L666.514 531.877L675.554 517.877H679.314L668.114 534.837ZM708.761 531.717C710.388 532.171 711.654 532.997 712.561 534.197C713.468 535.371 713.921 536.837 713.921 538.597C713.921 541.077 713.094 542.997 711.441 544.357C709.788 545.691 707.454 546.357 704.441 546.357H692.601V517.877H704.041C706.948 517.877 709.201 518.531 710.801 519.837C712.428 521.117 713.241 522.944 713.241 525.317C713.241 526.837 712.841 528.157 712.041 529.277C711.268 530.371 710.174 531.184 708.761 531.717ZM695.841 530.517H703.521C705.654 530.517 707.268 530.091 708.361 529.237C709.454 528.384 710.001 527.131 710.001 525.477C710.001 522.224 707.841 520.597 703.521 520.597H695.841V530.517ZM704.161 543.637C706.401 543.637 708.041 543.224 709.081 542.397C710.148 541.544 710.681 540.251 710.681 538.517C710.681 535.024 708.508 533.277 704.161 533.277H695.841V543.637H704.161ZM731.748 546.677C729.108 546.677 726.814 546.091 724.868 544.917C722.921 543.744 721.414 542.064 720.348 539.877C719.308 537.664 718.788 535.077 718.788 532.117C718.788 529.131 719.308 526.544 720.348 524.357C721.388 522.171 722.881 520.491 724.828 519.317C726.774 518.144 729.081 517.557 731.748 517.557C734.414 517.557 736.721 518.144 738.668 519.317C740.614 520.491 742.108 522.171 743.148 524.357C744.188 526.544 744.708 529.117 744.708 532.077C744.708 535.064 744.174 537.651 743.108 539.837C742.068 542.024 740.574 543.717 738.628 544.917C736.681 546.091 734.388 546.677 731.748 546.677ZM731.748 543.877C734.761 543.877 737.108 542.851 738.788 540.797C740.468 538.744 741.308 535.837 741.308 532.077C741.308 528.317 740.468 525.424 738.788 523.397C737.134 521.371 734.788 520.357 731.748 520.357C728.708 520.357 726.348 521.384 724.668 523.437C722.988 525.464 722.148 528.344 722.148 532.077C722.148 535.837 722.988 538.744 724.668 540.797C726.348 542.851 728.708 543.877 731.748 543.877ZM750.726 517.877H760.286C764.846 517.877 768.366 519.117 770.846 521.597C773.353 524.051 774.606 527.544 774.606 532.077C774.606 536.637 773.353 540.157 770.846 542.637C768.366 545.117 764.846 546.357 760.286 546.357H750.726V517.877ZM760.086 543.557C763.766 543.557 766.526 542.597 768.366 540.677C770.233 538.757 771.166 535.891 771.166 532.077C771.166 524.477 767.473 520.677 760.086 520.677H754.006V543.557H760.086ZM789.052 534.837V546.357H785.772V534.797L774.572 517.877H778.412L787.452 531.877L796.492 517.877H800.252L789.052 534.837ZM813.539 517.877H816.819V546.357H813.539V517.877ZM832.891 546.677C828.438 546.677 824.891 545.477 822.251 543.077L823.491 540.557C824.904 541.757 826.344 542.611 827.811 543.117C829.278 543.624 830.984 543.877 832.931 543.877C835.224 543.877 836.984 543.437 838.211 542.557C839.464 541.651 840.091 540.384 840.091 538.757C840.091 537.797 839.784 537.024 839.171 536.437C838.584 535.824 837.798 535.344 836.811 534.997C835.851 534.651 834.558 534.291 832.931 533.917C830.744 533.437 828.944 532.917 827.531 532.357C826.118 531.797 824.971 530.997 824.091 529.957C823.211 528.891 822.771 527.504 822.771 525.797C822.771 524.171 823.198 522.744 824.051 521.517C824.904 520.264 826.104 519.291 827.651 518.597C829.224 517.904 831.051 517.557 833.131 517.557C835.104 517.557 836.944 517.864 838.651 518.477C840.358 519.091 841.798 519.984 842.971 521.157L841.691 523.677C840.358 522.531 838.998 521.691 837.611 521.157C836.251 520.624 834.758 520.357 833.131 520.357C830.918 520.357 829.184 520.837 827.931 521.797C826.678 522.731 826.051 524.024 826.051 525.677C826.051 527.117 826.598 528.197 827.691 528.917C828.784 529.637 830.464 530.264 832.731 530.797C835.184 531.384 837.104 531.931 838.491 532.437C839.904 532.917 841.078 533.664 842.011 534.677C842.944 535.664 843.411 536.984 843.411 538.637C843.411 540.237 842.984 541.651 842.131 542.877C841.278 544.077 840.051 545.011 838.451 545.677C836.878 546.344 835.024 546.677 832.891 546.677ZM886.123 517.877V546.357H883.083V525.197L873.843 546.357H871.523L862.203 525.357L862.243 546.357H859.203V517.877H861.923L872.723 542.437L883.403 517.877H886.123ZM893.148 517.877H896.428V546.357H893.148V517.877ZM926.3 517.877V546.357H923.74L906.54 523.437V546.357H903.46V517.877H905.98L923.18 540.797V517.877H926.3ZM933.304 517.877H951.304V520.597H936.544V530.517H950.504V533.277H936.544V543.637H951.304V546.357H933.304V517.877ZM671.964 589.037H657.084L653.924 596.357H650.524L663.044 567.877H665.924L678.444 596.357H675.084L671.964 589.037ZM670.804 586.317L664.524 571.677L658.244 586.317H670.804ZM705.539 567.877V596.357H702.979L685.779 573.437V596.357H682.699V567.877H685.219L702.419 590.797V567.877H705.539ZM712.542 567.877H722.102C726.662 567.877 730.182 569.117 732.662 571.597C735.169 574.051 736.422 577.544 736.422 582.077C736.422 586.637 735.169 590.157 732.662 592.637C730.182 595.117 726.662 596.357 722.102 596.357H712.542V567.877ZM721.902 593.557C725.582 593.557 728.342 592.597 730.182 590.677C732.049 588.757 732.982 585.891 732.982 582.077C732.982 574.477 729.289 570.677 721.902 570.677H715.822V593.557H721.902ZM752.816 567.877H756.096V596.357H752.816V567.877ZM773.558 567.877H783.118C787.678 567.877 791.198 569.117 793.678 571.597C796.185 574.051 797.438 577.544 797.438 582.077C797.438 586.637 796.185 590.157 793.678 592.637C791.198 595.117 787.678 596.357 783.118 596.357H773.558V567.877ZM782.918 593.557C786.598 593.557 789.358 592.597 791.198 590.677C793.065 588.757 793.998 585.891 793.998 582.077C793.998 574.477 790.305 570.677 782.918 570.677H776.838V593.557H782.918ZM803.402 567.877H821.402V570.597H806.642V580.517H820.602V583.277H806.642V593.637H821.402V596.357H803.402V567.877ZM838.921 596.677C836.228 596.677 833.881 596.091 831.881 594.917C829.908 593.744 828.388 592.064 827.321 589.877C826.255 587.664 825.721 585.064 825.721 582.077C825.721 579.091 826.255 576.517 827.321 574.357C828.388 572.171 829.908 570.491 831.881 569.317C833.881 568.144 836.228 567.557 838.921 567.557C840.895 567.557 842.695 567.864 844.321 568.477C845.975 569.064 847.401 569.957 848.601 571.157L847.361 573.677C846.001 572.504 844.655 571.664 843.321 571.157C842.015 570.651 840.561 570.397 838.961 570.397C835.841 570.397 833.415 571.411 831.681 573.437C829.975 575.464 829.121 578.344 829.121 582.077C829.121 585.837 829.975 588.744 831.681 590.797C833.388 592.824 835.815 593.837 838.961 593.837C840.561 593.837 842.015 593.584 843.321 593.077C844.655 592.571 846.001 591.731 847.361 590.557L848.601 593.077C847.401 594.277 845.975 595.184 844.321 595.797C842.695 596.384 840.895 596.677 838.921 596.677ZM854.105 567.877H857.385V596.357H854.105V567.877ZM864.417 567.877H873.977C878.537 567.877 882.057 569.117 884.537 571.597C887.044 574.051 888.297 577.544 888.297 582.077C888.297 586.637 887.044 590.157 884.537 592.637C882.057 595.117 878.537 596.357 873.977 596.357H864.417V567.877ZM873.777 593.557C877.457 593.557 880.217 592.597 882.057 590.677C883.924 588.757 884.857 585.891 884.857 582.077C884.857 574.477 881.164 570.677 873.777 570.677H867.697V593.557H873.777ZM894.261 567.877H912.261V570.597H897.501V580.517H911.461V583.277H897.501V593.637H912.261V596.357H894.261V567.877ZM921.327 592.237V595.157C921.327 596.277 921.141 597.304 920.767 598.237C920.394 599.171 919.767 600.077 918.887 600.957L917.367 599.797C918.407 598.597 918.994 597.451 919.127 596.357H917.207V592.237H921.327ZM629.535 617.877H632.815V646.357H629.535V617.877ZM635.767 615.917H639.527L643.527 624.077H641.247L635.767 615.917ZM676.159 617.877L663.719 646.357H660.839L648.399 617.877H651.879L662.319 642.197L672.759 617.877H676.159ZM679.73 617.877H697.73V620.597H682.97V630.517H696.93V633.277H682.97V643.637H697.73V646.357H679.73V617.877ZM732.315 639.037H717.435L714.275 646.357H710.875L723.395 617.877H726.275L738.795 646.357H735.435L732.315 639.037ZM731.155 636.317L724.875 621.677L718.595 636.317H731.155ZM753.975 646.677C750.242 646.677 747.415 645.717 745.495 643.797C743.602 641.851 742.655 638.984 742.655 635.197V617.877H745.895V635.477C745.895 638.251 746.575 640.344 747.935 641.757C749.295 643.171 751.308 643.877 753.975 643.877C756.615 643.877 758.602 643.171 759.935 641.757C761.295 640.344 761.975 638.251 761.975 635.477V617.877H765.255V635.197C765.255 638.957 764.295 641.811 762.375 643.757C760.455 645.704 757.655 646.677 753.975 646.677ZM778.993 620.677H769.073V617.877H792.233V620.677H782.313V646.357H778.993V620.677ZM806.377 646.677C803.737 646.677 801.443 646.091 799.497 644.917C797.55 643.744 796.043 642.064 794.977 639.877C793.937 637.664 793.417 635.077 793.417 632.117C793.417 629.131 793.937 626.544 794.977 624.357C796.017 622.171 797.51 620.491 799.457 619.317C801.403 618.144 803.71 617.557 806.377 617.557C809.043 617.557 811.35 618.144 813.297 619.317C815.243 620.491 816.737 622.171 817.777 624.357C818.817 626.544 819.337 629.117 819.337 632.077C819.337 635.064 818.803 637.651 817.737 639.837C816.697 642.024 815.203 643.717 813.257 644.917C811.31 646.091 809.017 646.677 806.377 646.677ZM806.377 643.877C809.39 643.877 811.737 642.851 813.417 640.797C815.097 638.744 815.937 635.837 815.937 632.077C815.937 628.317 815.097 625.424 813.417 623.397C811.763 621.371 809.417 620.357 806.377 620.357C803.337 620.357 800.977 621.384 799.297 623.437C797.617 625.464 796.777 628.344 796.777 632.077C796.777 635.837 797.617 638.744 799.297 640.797C800.977 642.851 803.337 643.877 806.377 643.877ZM848.195 617.877V646.357H845.635L828.435 623.437V646.357H825.355V617.877H827.875L845.075 640.797V617.877H848.195ZM867.119 646.677C864.479 646.677 862.185 646.091 860.239 644.917C858.292 643.744 856.785 642.064 855.719 639.877C854.679 637.664 854.159 635.077 854.159 632.117C854.159 629.131 854.679 626.544 855.719 624.357C856.759 622.171 858.252 620.491 860.199 619.317C862.145 618.144 864.452 617.557 867.119 617.557C869.785 617.557 872.092 618.144 874.039 619.317C875.985 620.491 877.479 622.171 878.519 624.357C879.559 626.544 880.079 629.117 880.079 632.077C880.079 635.064 879.545 637.651 878.479 639.837C877.439 642.024 875.945 643.717 873.999 644.917C872.052 646.091 869.759 646.677 867.119 646.677ZM867.119 643.877C870.132 643.877 872.479 642.851 874.159 640.797C875.839 638.744 876.679 635.837 876.679 632.077C876.679 628.317 875.839 625.424 874.159 623.397C872.505 621.371 870.159 620.357 867.119 620.357C864.079 620.357 861.719 621.384 860.039 623.437C858.359 625.464 857.519 628.344 857.519 632.077C857.519 635.837 858.359 638.744 860.039 640.797C861.719 642.851 864.079 643.877 867.119 643.877ZM913.017 617.877V646.357H909.977V625.197L900.737 646.357H898.417L889.097 625.357L889.137 646.357H886.097V617.877H888.817L899.617 642.437L910.297 617.877H913.017ZM930.282 634.837V646.357H927.002V634.797L915.802 617.877H919.642L928.682 631.877L937.722 617.877H941.482L930.282 634.837ZM945.117 642.237V645.157C945.117 646.277 944.93 647.304 944.557 648.237C944.183 649.171 943.557 650.077 942.677 650.957L941.157 649.797C942.197 648.597 942.783 647.451 942.917 646.357H940.997V642.237H945.117ZM709.593 667.877H712.873V696.357H709.593V667.877ZM723.066 667.877V670.797C723.066 671.917 722.879 672.944 722.506 673.877C722.132 674.811 721.506 675.731 720.626 676.637L719.106 675.437C720.146 674.237 720.732 673.091 720.866 671.997H718.946V667.877H723.066ZM756.084 667.877V696.357H753.044V675.197L743.804 696.357H741.484L732.164 675.357L732.204 696.357H729.164V667.877H731.884L742.684 692.437L753.364 667.877H756.084ZM800.459 667.877V696.357H797.419V675.197L788.179 696.357H785.859L776.539 675.357L776.579 696.357H773.539V667.877H776.259L787.059 692.437L797.739 667.877H800.459ZM807.484 667.877H810.764V696.357H807.484V667.877ZM840.636 667.877V696.357H838.076L820.876 673.437V696.357H817.796V667.877H820.316L837.516 690.797V667.877H840.636ZM847.64 667.877H865.64V670.597H850.88V680.517H864.84V683.277H850.88V693.637H865.64V696.357H847.64V667.877Z" fill="black"/>
</svg>
