<svg width="1000" height="1000" viewBox="0 0 1000 1000" fill="none" xmlns="http://www.w3.org/2000/svg">
<g clip-path="url(#clip0_808_34358)">
<mask id="path-1-inside-1_808_34358" fill="white">
<path fill-rule="evenodd" clip-rule="evenodd" d="M985.77 340.987C985.561 343.378 985 345.649 984.146 347.749C999.907 331.787 1022.14 322.727 1045.92 324.807C1088.84 328.562 1120.52 367.212 1116.68 411.134C1113.94 442.371 1093.98 467.863 1067.24 478.63C1076.7 481.112 1084.94 486.506 1091.14 493.787C1096.07 489.152 1102.71 486.569 1109.77 487.187C1114.39 487.591 1118.59 489.309 1122.07 491.963C1124.38 490.683 1127.06 490.055 1129.86 490.3C1137.51 490.97 1143.16 497.919 1142.47 505.822C1141.91 512.218 1137.37 517.279 1131.6 518.62C1130.32 524.63 1127.11 529.807 1122.74 533.458C1139.27 537.587 1150.8 553.93 1149.19 572.304C1147.42 592.555 1130.37 607.605 1111.11 605.92C1093.26 604.358 1079.78 588.982 1079.3 570.627C1072.85 574.607 1065.49 577.059 1057.7 577.546C1068.96 584.849 1075.94 598.386 1074.64 613.194C1072.81 634.177 1055.06 649.764 1035.01 648.01C1014.95 646.255 1000.18 627.823 1002.02 606.84C1002.22 604.584 1002.6 602.391 1003.15 600.274C993.484 613.957 977.476 622.256 960.163 620.741C949.984 619.85 940.839 615.698 933.58 609.348C929.483 617.07 921.289 621.994 912.329 621.21C901.978 620.304 893.956 612.074 892.543 601.83C889.14 603.036 885.456 603.548 881.66 603.216C870.304 602.222 861.244 593.965 858.244 583.158C854.728 584.302 851.052 585.023 847.274 585.268C853.801 590.462 857.696 598.994 856.885 608.258C855.891 619.621 848.117 628.671 838.165 631.333C839.276 635.512 839.695 639.976 839.293 644.568C837.521 664.818 820.469 679.868 801.207 678.183C789.811 677.186 780.194 670.555 774.606 661.111C767.856 668.413 758.123 672.61 747.704 671.699C745.056 671.467 742.509 670.918 740.094 670.091C739.224 671.492 738.268 672.826 737.235 674.087C742.49 679.076 745.512 686.469 744.816 694.425C743.627 708.008 732.053 718.091 718.965 716.945C705.876 715.8 696.229 703.861 697.417 690.278C697.573 688.494 697.908 686.77 698.403 685.124C696.865 684.559 695.38 683.887 693.954 683.115C684.263 693.863 670.236 700.066 655.224 698.752C653.872 698.634 652.539 698.457 651.226 698.224C653.276 701.921 654.287 706.291 653.886 710.876C652.846 722.756 642.723 731.575 631.275 730.573C629.514 730.419 627.824 730.042 626.229 729.47C625.783 732.54 624.601 735.331 622.889 737.662C624.322 740.519 625.008 743.83 624.705 747.293C623.864 756.903 615.719 764.042 606.513 763.236C597.307 762.431 590.526 753.987 591.367 744.376C591.65 741.138 592.762 738.182 594.464 735.714C592.838 732.698 592.043 729.148 592.368 725.427C593.101 717.056 599.269 710.525 606.903 709.313C595.017 704.103 587.209 691.18 588.464 676.838C589.3 667.28 593.992 659.04 600.762 653.7C592.63 643.811 588.195 630.547 589.433 616.398C591.853 588.739 615.036 568.173 641.213 570.464C642.809 570.603 644.379 570.824 645.92 571.123C651.435 554.882 666.869 543.872 683.962 545.367C684.739 545.435 685.508 545.528 686.269 545.645C688.383 541.497 691.359 537.926 694.924 535.172C694.888 534.396 694.903 533.608 694.973 532.813C695.794 523.428 703.867 516.469 713.004 517.268C721.461 518.008 727.866 525.135 728.122 533.633C732.985 536.773 736.867 541.341 739.286 546.733C745.053 543.184 751.889 541.398 759.049 542.024C763.676 542.429 767.995 543.803 771.838 545.938C773.176 544.744 774.637 543.707 776.195 542.85C775.384 541.977 774.636 541.043 773.957 540.056C770.9 541.306 767.532 541.864 764.048 541.559C751.947 540.501 743.03 529.432 744.132 516.837C745.234 504.243 755.937 494.891 768.038 495.949C773.944 496.466 779.091 499.367 782.686 503.666C786.522 501.637 790.929 500.656 795.522 501.058C799.965 501.447 804.011 503.079 807.372 505.598C809.778 502.27 812.564 499.276 815.652 496.683C812.823 491.594 811.062 485.799 810.658 479.659C809.444 479.774 808.204 479.781 806.95 479.672C795.259 478.649 786.652 467.868 787.726 455.593C788.8 443.317 799.148 434.195 810.839 435.218C815.106 435.591 818.961 437.264 822.086 439.835C817.479 431.884 815.179 422.354 816.055 412.335C817.964 390.518 834.301 373.605 854.275 371.102C854.083 368.977 854.076 366.802 854.269 364.596C855.947 345.416 872.127 331.164 890.407 332.763C906.71 334.19 919.179 347.741 920.496 364.26C925.767 355.246 934.524 348.817 944.601 346.885C943.573 343.911 943.138 340.653 943.433 337.283C944.507 325.007 954.855 315.885 966.546 316.908C978.237 317.931 986.844 328.711 985.77 340.987ZM916.699 566.473C916.427 569.579 916.431 572.641 916.69 575.635C916.567 575.623 916.443 575.611 916.319 575.6C914.524 575.443 912.759 575.515 911.051 575.793C911.513 562.278 902.765 550.497 890.442 547.505C891.055 544.969 891.488 542.35 891.723 539.663C891.968 536.865 891.989 534.102 891.801 531.393C896.546 544.276 905.651 554.993 917.391 561.389C917.082 563.054 916.85 564.75 916.699 566.473ZM807.623 604.85C796.026 603.835 785.232 608.886 778.089 617.484C775.651 613.821 772.537 610.665 768.915 608.221C776.917 604.657 783.402 597.917 786.764 589.406C797.94 589.324 807.594 580.819 809.721 569.226C814.051 574.267 819.373 578.368 825.405 581.175C815.942 584.164 808.658 592.981 807.698 603.955C807.672 604.254 807.651 604.553 807.634 604.851L807.623 604.85ZM893.681 446.718C893.222 446.102 892.723 445.52 892.186 444.974C897.679 438.089 901.302 429.451 902.141 419.866C902.758 412.81 901.8 405.998 899.57 399.808C906.018 397.079 911.531 392.29 915.295 386.161C915.595 391.32 916.911 396.223 919.051 400.632C913.839 404.886 910.25 411.296 909.602 418.703C908.715 428.842 913.578 438.097 921.382 442.959C921.243 443.083 921.106 443.208 920.97 443.336C918.399 442.261 915.631 441.562 912.723 441.308C905.705 440.694 899.046 442.771 893.681 446.718ZM959.98 455.601C962.717 456.512 965.352 457.642 967.87 458.968C970.59 456.664 974.147 455.407 977.919 455.737C978.355 455.776 978.785 455.834 979.207 455.912C970.556 445.411 964.553 432.627 962.126 418.69C960.979 419.111 959.808 419.471 958.615 419.768C958.648 420.827 958.619 421.9 958.524 422.983C957.896 430.158 954.51 436.397 949.561 440.648C954.734 444.007 958.511 449.368 959.98 455.601ZM988.346 477.797C995.19 488.342 998.711 501.369 997.507 515.125C997.028 520.6 995.832 525.831 994.025 530.725C1006.51 540.788 1013.94 557.127 1012.39 574.845C1012.05 578.715 1011.3 582.445 1010.19 585.993C1015.9 578.717 1024.08 573.715 1033.24 572.299C1016.3 563.357 1005.46 544.248 1007.3 523.191C1008.33 511.456 1013.13 501.001 1020.34 493.029C1015.83 489.717 1012.53 484.763 1011.16 479.049C1003.52 476.108 996.498 471.987 990.271 466.919C990.564 468.308 990.659 469.766 990.529 471.259C990.318 473.671 989.541 475.893 988.346 477.797ZM709.435 607.574C710.233 609.402 711.199 611.137 712.314 612.757C709.49 612.621 706.72 612.837 704.045 613.372C706.023 611.642 707.831 609.7 709.435 607.574Z"/>
</mask>
<g filter="url(#filter0_i_808_34358)">
<path fill-rule="evenodd" clip-rule="evenodd" d="M985.77 340.987C985.561 343.378 985 345.649 984.146 347.749C999.907 331.787 1022.14 322.727 1045.92 324.807C1088.84 328.562 1120.52 367.212 1116.68 411.134C1113.94 442.371 1093.98 467.863 1067.24 478.63C1076.7 481.112 1084.94 486.506 1091.14 493.787C1096.07 489.152 1102.71 486.569 1109.77 487.187C1114.39 487.591 1118.59 489.309 1122.07 491.963C1124.38 490.683 1127.06 490.055 1129.86 490.3C1137.51 490.97 1143.16 497.919 1142.47 505.822C1141.91 512.218 1137.37 517.279 1131.6 518.62C1130.32 524.63 1127.11 529.807 1122.74 533.458C1139.27 537.587 1150.8 553.93 1149.19 572.304C1147.42 592.555 1130.37 607.605 1111.11 605.92C1093.26 604.358 1079.78 588.982 1079.3 570.627C1072.85 574.607 1065.49 577.059 1057.7 577.546C1068.96 584.849 1075.94 598.386 1074.64 613.194C1072.81 634.177 1055.06 649.764 1035.01 648.01C1014.95 646.255 1000.18 627.823 1002.02 606.84C1002.22 604.584 1002.6 602.391 1003.15 600.274C993.484 613.957 977.476 622.256 960.163 620.741C949.984 619.85 940.839 615.698 933.58 609.348C929.483 617.07 921.289 621.994 912.329 621.21C901.978 620.304 893.956 612.074 892.543 601.83C889.14 603.036 885.456 603.548 881.66 603.216C870.304 602.222 861.244 593.965 858.244 583.158C854.728 584.302 851.052 585.023 847.274 585.268C853.801 590.462 857.696 598.994 856.885 608.258C855.891 619.621 848.117 628.671 838.165 631.333C839.276 635.512 839.695 639.976 839.293 644.568C837.521 664.818 820.469 679.868 801.207 678.183C789.811 677.186 780.194 670.555 774.606 661.111C767.856 668.413 758.123 672.61 747.704 671.699C745.056 671.467 742.509 670.918 740.094 670.091C739.224 671.492 738.268 672.826 737.235 674.087C742.49 679.076 745.512 686.469 744.816 694.425C743.627 708.008 732.053 718.091 718.965 716.945C705.876 715.8 696.229 703.861 697.417 690.278C697.573 688.494 697.908 686.77 698.403 685.124C696.865 684.559 695.38 683.887 693.954 683.115C684.263 693.863 670.236 700.066 655.224 698.752C653.872 698.634 652.539 698.457 651.226 698.224C653.276 701.921 654.287 706.291 653.886 710.876C652.846 722.756 642.723 731.575 631.275 730.573C629.514 730.419 627.824 730.042 626.229 729.47C625.783 732.54 624.601 735.331 622.889 737.662C624.322 740.519 625.008 743.83 624.705 747.293C623.864 756.903 615.719 764.042 606.513 763.236C597.307 762.431 590.526 753.987 591.367 744.376C591.65 741.138 592.762 738.182 594.464 735.714C592.838 732.698 592.043 729.148 592.368 725.427C593.101 717.056 599.269 710.525 606.903 709.313C595.017 704.103 587.209 691.18 588.464 676.838C589.3 667.28 593.992 659.04 600.762 653.7C592.63 643.811 588.195 630.547 589.433 616.398C591.853 588.739 615.036 568.173 641.213 570.464C642.809 570.603 644.379 570.824 645.92 571.123C651.435 554.882 666.869 543.872 683.962 545.367C684.739 545.435 685.508 545.528 686.269 545.645C688.383 541.497 691.359 537.926 694.924 535.172C694.888 534.396 694.903 533.608 694.973 532.813C695.794 523.428 703.867 516.469 713.004 517.268C721.461 518.008 727.866 525.135 728.122 533.633C732.985 536.773 736.867 541.341 739.286 546.733C745.053 543.184 751.889 541.398 759.049 542.024C763.676 542.429 767.995 543.803 771.838 545.938C773.176 544.744 774.637 543.707 776.195 542.85C775.384 541.977 774.636 541.043 773.957 540.056C770.9 541.306 767.532 541.864 764.048 541.559C751.947 540.501 743.03 529.432 744.132 516.837C745.234 504.243 755.937 494.891 768.038 495.949C773.944 496.466 779.091 499.367 782.686 503.666C786.522 501.637 790.929 500.656 795.522 501.058C799.965 501.447 804.011 503.079 807.372 505.598C809.778 502.27 812.564 499.276 815.652 496.683C812.823 491.594 811.062 485.799 810.658 479.659C809.444 479.774 808.204 479.781 806.95 479.672C795.259 478.649 786.652 467.868 787.726 455.593C788.8 443.317 799.148 434.195 810.839 435.218C815.106 435.591 818.961 437.264 822.086 439.835C817.479 431.884 815.179 422.354 816.055 412.335C817.964 390.518 834.301 373.605 854.275 371.102C854.083 368.977 854.076 366.802 854.269 364.596C855.947 345.416 872.127 331.164 890.407 332.763C906.71 334.19 919.179 347.741 920.496 364.26C925.767 355.246 934.524 348.817 944.601 346.885C943.573 343.911 943.138 340.653 943.433 337.283C944.507 325.007 954.855 315.885 966.546 316.908C978.237 317.931 986.844 328.711 985.77 340.987ZM916.699 566.473C916.427 569.579 916.431 572.641 916.69 575.635C916.567 575.623 916.443 575.611 916.319 575.6C914.524 575.443 912.759 575.515 911.051 575.793C911.513 562.278 902.765 550.497 890.442 547.505C891.055 544.969 891.488 542.35 891.723 539.663C891.968 536.865 891.989 534.102 891.801 531.393C896.546 544.276 905.651 554.993 917.391 561.389C917.082 563.054 916.85 564.75 916.699 566.473ZM807.623 604.85C796.026 603.835 785.232 608.886 778.089 617.484C775.651 613.821 772.537 610.665 768.915 608.221C776.917 604.657 783.402 597.917 786.764 589.406C797.94 589.324 807.594 580.819 809.721 569.226C814.051 574.267 819.373 578.368 825.405 581.175C815.942 584.164 808.658 592.981 807.698 603.955C807.672 604.254 807.651 604.553 807.634 604.851L807.623 604.85ZM893.681 446.718C893.222 446.102 892.723 445.52 892.186 444.974C897.679 438.089 901.302 429.451 902.141 419.866C902.758 412.81 901.8 405.998 899.57 399.808C906.018 397.079 911.531 392.29 915.295 386.161C915.595 391.32 916.911 396.223 919.051 400.632C913.839 404.886 910.25 411.296 909.602 418.703C908.715 428.842 913.578 438.097 921.382 442.959C921.243 443.083 921.106 443.208 920.97 443.336C918.399 442.261 915.631 441.562 912.723 441.308C905.705 440.694 899.046 442.771 893.681 446.718ZM959.98 455.601C962.717 456.512 965.352 457.642 967.87 458.968C970.59 456.664 974.147 455.407 977.919 455.737C978.355 455.776 978.785 455.834 979.207 455.912C970.556 445.411 964.553 432.627 962.126 418.69C960.979 419.111 959.808 419.471 958.615 419.768C958.648 420.827 958.619 421.9 958.524 422.983C957.896 430.158 954.51 436.397 949.561 440.648C954.734 444.007 958.511 449.368 959.98 455.601ZM988.346 477.797C995.19 488.342 998.711 501.369 997.507 515.125C997.028 520.6 995.832 525.831 994.025 530.725C1006.51 540.788 1013.94 557.127 1012.39 574.845C1012.05 578.715 1011.3 582.445 1010.19 585.993C1015.9 578.717 1024.08 573.715 1033.24 572.299C1016.3 563.357 1005.46 544.248 1007.3 523.191C1008.33 511.456 1013.13 501.001 1020.34 493.029C1015.83 489.717 1012.53 484.763 1011.16 479.049C1003.52 476.108 996.498 471.987 990.271 466.919C990.564 468.308 990.659 469.766 990.529 471.259C990.318 473.671 989.541 475.893 988.346 477.797ZM709.435 607.574C710.233 609.402 711.199 611.137 712.314 612.757C709.49 612.621 706.72 612.837 704.045 613.372C706.023 611.642 707.831 609.7 709.435 607.574Z" fill="#FF7DEA"/>
</g>
<path d="M984.146 347.749L980.44 346.242L986.992 350.559L984.146 347.749ZM1067.24 478.63L1065.74 474.92L1054.53 479.434L1066.22 482.499L1067.24 478.63ZM1091.14 493.787L1088.1 496.38L1090.82 499.582L1093.88 496.7L1091.14 493.787ZM1122.07 491.963L1119.65 495.146L1121.73 496.729L1124.01 495.461L1122.07 491.963ZM1131.6 518.62L1130.69 514.724L1128.21 515.3L1127.68 517.788L1131.6 518.62ZM1122.74 533.458L1120.17 530.389L1114.13 535.433L1121.77 537.339L1122.74 533.458ZM1079.3 570.627L1083.3 570.522L1083.12 563.568L1077.2 567.223L1079.3 570.627ZM1057.7 577.546L1057.45 573.554L1045.35 574.31L1055.52 580.903L1057.7 577.546ZM1003.15 600.274L1007.02 601.277L999.877 597.967L1003.15 600.274ZM933.58 609.348L936.214 606.337L932.413 603.012L930.046 607.473L933.58 609.348ZM892.543 601.83L896.506 601.283L895.834 596.419L891.207 598.059L892.543 601.83ZM858.244 583.158L862.098 582.088L860.98 578.061L857.006 579.354L858.244 583.158ZM847.274 585.268L847.014 581.277L836.677 581.949L844.783 588.398L847.274 585.268ZM838.165 631.333L837.131 627.469L833.272 628.501L834.299 632.362L838.165 631.333ZM774.606 661.111L778.049 659.075L775.315 654.453L771.669 658.396L774.606 661.111ZM740.094 670.091L741.39 666.307L738.377 665.274L736.696 667.98L740.094 670.091ZM737.235 674.087L734.141 671.551L731.785 674.427L734.481 676.987L737.235 674.087ZM698.403 685.124L702.234 686.275L703.317 682.669L699.783 681.37L698.403 685.124ZM693.954 683.115L695.857 679.597L693.09 678.101L690.984 680.437L693.954 683.115ZM651.226 698.224L651.925 694.286L643.654 692.818L647.728 700.164L651.226 698.224ZM626.229 729.47L627.579 725.704L622.974 724.054L622.271 728.895L626.229 729.47ZM622.889 737.662L619.665 735.294L618.216 737.267L619.313 739.455L622.889 737.662ZM594.464 735.714L597.756 737.986L599.146 735.971L597.985 733.817L594.464 735.714ZM606.903 709.313L607.53 713.264L621.001 711.126L608.509 705.65L606.903 709.313ZM600.762 653.7L603.239 656.84L606.444 654.312L603.852 651.159L600.762 653.7ZM645.92 571.123L645.158 575.05L648.585 575.715L649.707 572.409L645.92 571.123ZM686.269 545.645L685.661 549.599L688.52 550.038L689.833 547.461L686.269 545.645ZM694.924 535.172L697.369 538.337L699.016 537.065L698.92 534.986L694.924 535.172ZM728.122 533.633L724.124 533.753L724.187 535.853L725.952 536.993L728.122 533.633ZM739.286 546.733L735.636 548.37L737.501 552.527L741.382 550.139L739.286 546.733ZM771.838 545.938L769.896 549.434L772.381 550.814L774.502 548.922L771.838 545.938ZM776.195 542.85L778.123 546.354L782.616 543.882L779.125 540.126L776.195 542.85ZM773.957 540.056L777.253 537.79L775.427 535.133L772.443 536.353L773.957 540.056ZM782.686 503.666L779.617 506.232L781.694 508.716L784.556 507.202L782.686 503.666ZM807.372 505.598L804.973 508.799L808.229 511.238L810.613 507.942L807.372 505.598ZM815.652 496.683L818.225 499.746L820.752 497.623L819.148 494.739L815.652 496.683ZM810.658 479.659L814.649 479.396L814.379 475.288L810.28 475.677L810.658 479.659ZM822.086 439.835L819.544 442.923L825.547 437.829L822.086 439.835ZM854.275 371.102L854.772 375.071L858.606 374.59L858.259 370.742L854.275 371.102ZM920.496 364.26L916.508 364.578L917.521 377.273L923.949 366.279L920.496 364.26ZM944.601 346.885L945.354 350.814L949.891 349.944L948.381 345.578L944.601 346.885ZM916.69 575.635L916.273 579.614L921.092 580.119L920.675 575.291L916.69 575.635ZM911.051 575.793L907.054 575.656L906.888 580.523L911.694 579.741L911.051 575.793ZM890.442 547.505L886.554 546.565L885.614 550.45L889.498 551.392L890.442 547.505ZM891.801 531.393L895.555 530.01L887.811 531.668L891.801 531.393ZM917.391 561.389L921.324 562.119L921.854 559.265L919.305 557.876L917.391 561.389ZM778.089 617.484L774.759 619.701L777.735 624.171L781.166 620.04L778.089 617.484ZM807.623 604.85L807.274 608.834L807.623 604.85ZM768.915 608.221L767.288 604.567L760.698 607.502L766.678 611.537L768.915 608.221ZM786.764 589.406L786.734 585.406L784.035 585.426L783.043 587.937L786.764 589.406ZM809.721 569.226L812.756 566.62L807.298 560.267L805.787 568.505L809.721 569.226ZM825.405 581.175L826.61 584.99L836.422 581.89L827.093 577.549L825.405 581.175ZM807.634 604.851L807.286 608.835L811.401 609.195L811.628 605.071L807.634 604.851ZM892.186 444.974L889.059 442.48L886.848 445.251L889.334 447.779L892.186 444.974ZM893.681 446.718L890.476 449.11L892.851 452.294L896.052 449.94L893.681 446.718ZM899.57 399.808L898.011 396.125L894.524 397.601L895.807 401.164L899.57 399.808ZM915.295 386.161L919.288 385.928L918.548 373.218L911.886 384.068L915.295 386.161ZM919.051 400.632L921.58 403.73L924.031 401.73L922.649 398.885L919.051 400.632ZM921.382 442.959L924.048 445.941L928.025 442.385L923.497 439.564L921.382 442.959ZM920.97 443.336L919.428 447.026L921.815 448.024L923.703 446.256L920.97 443.336ZM967.87 458.968L966.006 462.507L968.395 463.766L970.456 462.02L967.87 458.968ZM959.98 455.601L956.086 456.518L956.598 458.691L958.716 459.396L959.98 455.601ZM979.207 455.912L978.481 459.846L989.27 461.837L982.294 453.369L979.207 455.912ZM962.126 418.69L966.067 418.004L965.245 413.287L960.749 414.935L962.126 418.69ZM958.615 419.768L957.649 415.886L954.516 416.666L954.617 419.893L958.615 419.768ZM949.561 440.648L946.954 437.614L942.902 441.094L947.382 444.003L949.561 440.648ZM988.346 477.797L984.958 475.67L983.6 477.833L984.99 479.975L988.346 477.797ZM994.025 530.725L990.273 529.34L989.278 532.036L991.515 533.839L994.025 530.725ZM1010.19 585.993L1006.38 584.799L1013.34 588.463L1010.19 585.993ZM1033.24 572.299L1033.85 576.252L1045.8 574.404L1035.11 568.761L1033.24 572.299ZM1020.34 493.029L1023.3 495.711L1026.27 492.426L1022.7 489.805L1020.34 493.029ZM1011.16 479.049L1015.04 478.111L1014.55 476.071L1012.59 475.317L1011.16 479.049ZM990.271 466.919L992.797 463.817L984.027 456.678L986.357 467.743L990.271 466.919ZM712.314 612.757L712.121 616.752L720.187 617.142L715.609 610.489L712.314 612.757ZM709.435 607.574L713.1 605.973L710.362 599.702L706.241 605.165L709.435 607.574ZM704.045 613.372L701.413 610.36L690.123 620.23L704.829 617.294L704.045 613.372ZM987.851 349.256C988.854 346.789 989.51 344.127 989.755 341.336L981.785 340.638C981.611 342.628 981.145 344.509 980.44 346.242L987.851 349.256ZM1046.26 320.822C1021.24 318.632 997.849 328.179 981.3 344.938L986.992 350.559C1001.97 335.396 1023.05 326.821 1045.57 328.791L1046.26 320.822ZM1120.66 411.483C1124.69 365.447 1091.47 324.777 1046.26 320.822L1045.57 328.791C1086.2 332.347 1116.35 368.977 1112.69 410.786L1120.66 411.483ZM1068.73 482.341C1096.85 471.019 1117.8 444.242 1120.66 411.483L1112.69 410.786C1110.09 440.501 1091.11 464.706 1065.74 474.92L1068.73 482.341ZM1094.19 491.194C1087.49 483.323 1078.55 477.461 1068.25 474.761L1066.22 482.499C1074.85 484.763 1082.4 489.688 1088.1 496.38L1094.19 491.194ZM1110.12 483.202C1101.84 482.478 1094.09 485.517 1088.4 490.874L1093.88 496.7C1098.04 492.786 1103.58 490.661 1109.42 491.172L1110.12 483.202ZM1124.5 488.781C1120.43 485.688 1115.52 483.675 1110.12 483.202L1109.42 491.172C1113.25 491.507 1116.74 492.929 1119.65 495.146L1124.5 488.781ZM1130.2 486.315C1126.58 485.998 1123.11 486.814 1120.13 488.466L1124.01 495.461C1125.65 494.551 1127.54 494.112 1129.51 494.285L1130.2 486.315ZM1146.45 506.17C1147.32 496.187 1140.18 487.188 1130.2 486.315L1129.51 494.285C1134.84 494.752 1138.99 499.651 1138.48 505.473L1146.45 506.17ZM1132.5 522.516C1139.98 520.779 1145.74 514.272 1146.45 506.17L1138.48 505.473C1138.07 510.165 1134.76 513.779 1130.69 514.724L1132.5 522.516ZM1125.3 536.527C1130.35 532.305 1134.04 526.342 1135.51 519.452L1127.68 517.788C1126.59 522.919 1123.86 527.309 1120.17 530.389L1125.3 536.527ZM1153.18 572.653C1154.94 552.436 1142.26 534.211 1123.7 529.577L1121.77 537.339C1136.28 540.964 1146.65 555.423 1145.21 571.956L1153.18 572.653ZM1110.76 609.904C1132.41 611.798 1151.23 594.914 1153.18 572.653L1145.21 571.956C1143.61 590.195 1128.33 603.411 1111.45 601.935L1110.76 609.904ZM1075.3 570.731C1075.83 590.936 1090.71 608.15 1110.76 609.904L1111.45 601.935C1095.81 600.566 1083.73 587.029 1083.3 570.522L1075.3 570.731ZM1057.95 581.538C1066.42 581.009 1074.42 578.342 1081.4 574.03L1077.2 567.223C1071.29 570.873 1064.55 573.11 1057.45 573.554L1057.95 581.538ZM1078.63 613.542C1080.05 597.27 1072.39 582.303 1059.87 574.19L1055.52 580.903C1065.54 587.394 1071.82 599.502 1070.66 612.845L1078.63 613.542ZM1034.66 651.994C1057.08 653.956 1076.61 636.554 1078.63 613.542L1070.66 612.845C1069 631.799 1053.04 645.572 1035.35 644.025L1034.66 651.994ZM998.033 606.491C996.02 629.503 1012.23 650.033 1034.66 651.994L1035.35 644.025C1017.67 642.478 1004.34 626.143 1006 607.188L998.033 606.491ZM999.273 599.271C998.669 601.601 998.25 604.014 998.033 606.491L1006 607.188C1006.18 605.154 1006.52 603.18 1007.02 601.277L999.273 599.271ZM959.814 624.726C978.662 626.375 996 617.328 1006.41 602.581L999.877 597.967C990.968 610.586 976.29 618.136 960.512 616.756L959.814 624.726ZM930.946 612.358C938.813 619.24 948.749 623.757 959.814 624.726L960.512 616.756C951.22 615.943 942.866 612.156 936.214 606.337L930.946 612.358ZM911.98 625.195C922.668 626.13 932.325 620.247 937.113 611.222L930.046 607.473C926.641 613.892 919.91 617.858 912.677 617.225L911.98 625.195ZM888.581 602.376C890.229 614.323 899.627 624.114 911.98 625.195L912.677 617.225C904.329 616.495 897.684 609.825 896.506 601.283L888.581 602.376ZM881.312 607.2C885.693 607.584 889.951 606.992 893.879 605.6L891.207 598.059C888.328 599.08 885.218 599.512 882.009 599.231L881.312 607.2ZM854.39 584.228C857.795 596.494 868.145 606.048 881.312 607.2L882.009 599.231C872.464 598.396 864.694 591.436 862.098 582.088L854.39 584.228ZM847.533 589.26C851.65 588.992 855.655 588.207 859.481 586.962L857.006 579.354C853.801 580.397 850.453 581.053 847.014 581.277L847.533 589.26ZM860.87 608.607C861.797 598.012 857.346 588.171 849.764 582.138L844.783 588.398C850.256 592.753 853.595 599.977 852.901 607.91L860.87 608.607ZM839.199 635.197C850.83 632.086 859.734 621.589 860.87 608.607L852.901 607.91C852.048 617.653 845.404 625.256 837.131 627.469L839.199 635.197ZM843.278 644.916C843.72 639.858 843.26 634.928 842.03 630.305L834.299 632.362C835.293 636.096 835.669 640.095 835.308 644.219L843.278 644.916ZM800.858 682.168C822.507 684.062 841.33 667.178 843.278 644.916L835.308 644.219C833.712 662.459 818.432 675.675 801.555 674.198L800.858 682.168ZM771.164 663.148C777.353 673.609 788.073 681.049 800.858 682.168L801.555 674.198C791.548 673.323 783.034 667.5 778.049 659.075L771.164 663.148ZM747.355 675.683C759.094 676.71 770.014 671.97 777.543 663.827L771.669 658.396C765.698 664.855 757.152 668.51 748.053 667.714L747.355 675.683ZM738.797 673.875C741.516 674.806 744.381 675.423 747.355 675.683L748.053 667.714C745.73 667.511 743.502 667.03 741.39 666.307L738.797 673.875ZM740.329 676.622C741.473 675.226 742.53 673.75 743.492 672.201L736.696 667.98C735.918 669.233 735.064 670.426 734.141 671.551L740.329 676.622ZM748.8 694.774C749.604 685.585 746.114 677.001 739.99 671.186L734.481 676.987C738.865 681.15 741.419 687.353 740.831 694.077L748.8 694.774ZM718.616 720.93C734.043 722.28 747.432 710.417 748.8 694.774L740.831 694.077C739.823 705.599 730.063 713.901 719.313 712.961L718.616 720.93ZM693.432 689.93C692.064 705.573 703.189 719.58 718.616 720.93L719.313 712.961C708.563 712.02 700.394 702.149 701.402 690.627L693.432 689.93ZM694.572 683.973C693.999 685.88 693.612 687.872 693.432 689.93L701.402 690.627C701.534 689.116 701.818 687.661 702.234 686.275L694.572 683.973ZM692.051 686.634C693.644 687.495 695.304 688.247 697.023 688.879L699.783 681.37C698.427 680.872 697.116 680.278 695.857 679.597L692.051 686.634ZM654.875 702.737C671.24 704.169 686.465 697.394 696.925 685.794L690.984 680.437C682.061 690.331 669.232 695.963 655.572 694.768L654.875 702.737ZM650.528 702.163C651.956 702.416 653.406 702.609 654.875 702.737L655.572 694.768C654.338 694.66 653.122 694.498 651.925 694.286L650.528 702.163ZM657.87 711.225C658.342 705.83 657.154 700.665 654.724 696.284L647.728 700.164C649.399 703.177 650.231 706.753 649.901 710.527L657.87 711.225ZM630.927 734.558C644.713 735.764 656.651 725.165 657.87 711.225L649.901 710.527C649.042 720.347 640.733 727.385 631.624 726.588L630.927 734.558ZM624.88 733.235C626.794 733.921 628.82 734.374 630.927 734.558L631.624 726.588C630.208 726.464 628.855 726.162 627.579 725.704L624.88 733.235ZM626.113 740.03C628.207 737.178 629.646 733.773 630.188 730.045L622.271 728.895C621.921 731.306 620.994 733.484 619.665 735.294L626.113 740.03ZM628.69 747.641C629.058 743.428 628.224 739.377 626.464 735.869L619.313 739.455C620.419 741.661 620.958 744.232 620.72 746.944L628.69 747.641ZM606.165 767.221C617.731 768.233 627.671 759.29 628.69 747.641L620.72 746.944C620.058 754.517 613.708 759.85 606.862 759.251L606.165 767.221ZM587.382 744.027C586.363 755.676 594.598 766.209 606.165 767.221L606.862 759.251C600.016 758.653 594.689 752.298 595.351 744.724L587.382 744.027ZM591.171 733.443C589.082 736.471 587.726 740.089 587.382 744.027L595.351 744.724C595.573 742.188 596.441 739.892 597.756 737.986L591.171 733.443ZM588.383 725.079C587.989 729.591 588.953 733.92 590.943 737.612L597.985 733.817C596.723 731.476 596.097 728.706 596.353 725.776L588.383 725.079ZM606.276 705.363C596.764 706.873 589.27 714.944 588.383 725.079L596.353 725.776C596.931 719.168 601.773 714.178 607.53 713.264L606.276 705.363ZM584.479 676.49C583.081 692.468 591.774 707.049 605.297 712.977L608.509 705.65C598.259 701.157 591.337 689.892 592.448 677.187L584.479 676.49ZM598.285 650.559C590.654 656.578 585.412 665.825 584.479 676.49L592.448 677.187C593.188 668.734 597.33 661.502 603.239 656.84L598.285 650.559ZM603.852 651.159C596.378 642.071 592.272 629.842 593.418 616.747L585.448 616.05C584.118 631.251 588.882 645.55 597.672 656.24L603.852 651.159ZM593.418 616.747C595.664 591.079 617.092 572.368 640.865 574.448L641.562 566.479C612.98 563.978 588.043 586.399 585.448 616.05L593.418 616.747ZM640.865 574.448C642.322 574.576 643.754 574.778 645.158 575.05L646.681 567.196C645.004 566.871 643.296 566.63 641.562 566.479L640.865 574.448ZM684.311 541.383C665.221 539.712 648.187 552.008 642.132 569.837L649.707 572.409C654.684 557.755 668.517 548.031 683.613 549.352L684.311 541.383ZM686.876 541.691C686.03 541.561 685.174 541.458 684.311 541.383L683.613 549.352C684.304 549.413 684.987 549.495 685.661 549.599L686.876 541.691ZM692.478 532.007C688.443 535.124 685.086 539.157 682.705 543.829L689.833 547.461C691.679 543.838 694.274 540.729 697.369 538.337L692.478 532.007ZM690.988 532.464C690.903 533.438 690.884 534.404 690.928 535.357L698.92 534.986C698.892 534.388 698.903 533.779 698.957 533.161L690.988 532.464ZM713.353 513.283C701.915 512.283 691.993 520.98 690.988 532.464L698.957 533.161C699.595 525.877 705.818 520.655 712.655 521.253L713.353 513.283ZM732.12 533.512C731.807 523.096 723.937 514.209 713.353 513.283L712.655 521.253C718.986 521.807 723.926 527.174 724.124 533.753L732.12 533.512ZM742.936 545.096C740.21 539.019 735.823 533.844 730.292 530.272L725.952 536.993C730.147 539.702 733.525 543.662 735.636 548.37L742.936 545.096ZM759.398 538.039C751.341 537.334 743.653 539.349 737.19 543.326L741.382 550.139C746.453 547.019 752.436 545.461 758.7 546.009L759.398 538.039ZM773.781 542.441C769.459 540.04 764.598 538.494 759.398 538.039L758.7 546.009C762.754 546.364 766.532 547.565 769.896 549.434L773.781 542.441ZM774.267 539.345C772.44 540.35 770.733 541.563 769.175 542.953L774.502 548.922C775.618 547.926 776.834 547.064 778.123 546.354L774.267 539.345ZM770.661 542.321C771.45 543.469 772.32 544.556 773.266 545.573L779.125 540.126C778.447 539.398 777.822 538.617 777.253 537.79L770.661 542.321ZM763.699 545.544C767.837 545.906 771.843 545.242 775.471 543.758L772.443 536.353C769.957 537.37 767.227 537.822 764.396 537.575L763.699 545.544ZM740.147 516.489C738.866 531.133 749.249 544.28 763.699 545.544L764.396 537.575C754.645 536.721 747.194 527.732 748.117 517.186L740.147 516.489ZM768.387 491.965C753.936 490.7 741.429 501.845 740.147 516.489L748.117 517.186C749.04 506.64 757.938 499.081 767.689 499.934L768.387 491.965ZM785.755 501.101C781.521 496.037 775.417 492.58 768.387 491.965L767.689 499.934C772.471 500.353 776.662 502.697 779.617 506.232L785.755 501.101ZM795.871 497.073C790.479 496.602 785.305 497.756 780.815 500.131L784.556 507.202C787.739 505.518 791.378 504.711 795.173 505.043L795.871 497.073ZM809.771 502.397C805.836 499.448 801.085 497.529 795.871 497.073L795.173 505.043C798.845 505.364 802.186 506.71 804.973 508.799L809.771 502.397ZM813.08 493.619C809.737 496.426 806.728 499.662 804.131 503.253L810.613 507.942C812.828 504.879 815.39 502.126 818.225 499.746L813.08 493.619ZM806.666 479.922C807.11 486.659 809.043 493.026 812.156 498.626L819.148 494.739C816.603 490.161 815.014 484.94 814.649 479.396L806.666 479.922ZM806.601 483.656C808.099 483.787 809.582 483.779 811.036 483.641L810.28 475.677C809.306 475.769 808.31 475.775 807.298 475.687L806.601 483.656ZM783.741 455.244C782.491 469.535 792.528 482.425 806.601 483.656L807.298 475.687C797.989 474.872 790.813 466.201 791.71 455.941L783.741 455.244ZM811.187 431.233C797.115 430.002 784.991 440.953 783.741 455.244L791.71 455.941C792.608 445.681 801.181 438.388 810.49 439.202L811.187 431.233ZM824.627 436.746C820.909 433.686 816.296 431.68 811.187 431.233L810.49 439.202C813.915 439.502 817.014 440.842 819.544 442.923L824.627 436.746ZM812.07 411.986C811.121 422.838 813.612 433.188 818.625 441.84L825.547 437.829C821.346 430.579 819.236 421.87 820.04 412.683L812.07 411.986ZM853.777 367.133C831.845 369.882 814.136 388.382 812.07 411.986L820.04 412.683C821.792 392.654 836.757 377.329 854.772 375.071L853.777 367.133ZM850.284 364.247C850.07 366.69 850.078 369.102 850.291 371.461L858.259 370.742C858.088 368.852 858.081 366.914 858.253 364.944L850.284 364.247ZM890.756 328.779C870.096 326.971 852.138 343.049 850.284 364.247L858.253 364.944C859.755 347.783 874.157 335.357 890.059 336.748L890.756 328.779ZM924.483 363.942C923.025 345.65 909.173 330.39 890.756 328.779L890.059 336.748C904.248 337.99 915.333 349.832 916.508 364.578L924.483 363.942ZM943.848 342.957C932.573 345.118 922.862 352.289 917.043 362.241L923.949 366.279C928.671 358.203 936.475 352.516 945.354 350.814L943.848 342.957ZM939.448 336.934C939.103 340.872 939.611 344.693 940.82 348.192L948.381 345.578C947.535 343.129 947.172 340.435 947.417 337.632L939.448 336.934ZM966.894 312.923C952.822 311.692 940.698 322.643 939.448 336.934L947.417 337.632C948.315 327.371 956.888 320.078 966.197 320.893L966.894 312.923ZM989.755 341.336C991.005 327.045 980.967 314.154 966.894 312.923L966.197 320.893C975.507 321.707 982.683 330.378 981.785 340.638L989.755 341.336ZM920.675 575.291C920.436 572.527 920.432 569.696 920.684 566.822L912.714 566.125C912.422 569.461 912.426 572.756 912.705 575.98L920.675 575.291ZM915.971 579.585C916.072 579.593 916.172 579.603 916.273 579.614L917.107 571.657C916.961 571.642 916.815 571.628 916.668 571.615L915.971 579.585ZM911.694 579.741C913.077 579.516 914.509 579.457 915.971 579.585L916.668 571.615C914.538 571.429 912.44 571.514 910.409 571.845L911.694 579.741ZM889.498 551.392C899.866 553.909 907.455 563.919 907.054 575.656L915.049 575.929C915.571 560.636 905.664 547.084 891.385 543.618L889.498 551.392ZM887.738 539.315C887.52 541.801 887.12 544.222 886.554 546.565L894.33 548.446C894.99 545.715 895.455 542.898 895.708 540.012L887.738 539.315ZM887.811 531.668C887.984 534.17 887.965 536.725 887.738 539.315L895.708 540.012C895.971 537.005 895.993 534.033 895.792 531.117L887.811 531.668ZM919.305 557.876C908.448 551.963 899.978 542.02 895.555 530.01L888.048 532.775C893.115 546.532 902.853 558.024 915.478 564.901L919.305 557.876ZM920.684 566.822C920.823 565.227 921.038 563.658 921.324 562.119L913.458 560.658C913.126 562.449 912.876 564.273 912.714 566.125L920.684 566.822ZM781.166 620.04C787.541 612.365 797.092 607.943 807.274 608.834L807.971 600.865C794.961 599.727 782.922 605.406 775.012 614.929L781.166 620.04ZM766.678 611.537C769.858 613.682 772.603 616.462 774.759 619.701L781.419 615.268C778.698 611.181 775.217 607.647 771.152 604.905L766.678 611.537ZM783.043 587.937C780.06 595.49 774.317 601.436 767.288 604.567L770.543 611.875C779.517 607.878 786.744 600.345 790.484 590.875L783.043 587.937ZM805.787 568.505C803.977 578.368 795.833 585.339 786.734 585.406L786.793 593.406C800.046 593.309 811.212 583.27 813.656 569.948L805.787 568.505ZM827.093 577.549C821.598 574.992 816.729 571.246 812.756 566.62L806.687 571.833C811.373 577.288 817.149 581.745 823.717 584.802L827.093 577.549ZM811.683 604.303C812.506 594.896 818.731 587.478 826.61 584.99L824.2 577.361C813.154 580.85 804.811 591.065 803.713 603.606L811.683 604.303ZM811.628 605.071C811.642 604.816 811.66 604.56 811.683 604.303L803.713 603.606C803.683 603.948 803.659 604.29 803.64 604.63L811.628 605.071ZM807.274 608.834L807.286 608.835L807.983 600.866L807.971 600.865L807.274 608.834ZM889.334 447.779C889.743 448.195 890.124 448.639 890.476 449.11L896.887 444.325C896.32 443.565 895.702 442.845 895.038 442.17L889.334 447.779ZM898.156 419.518C897.387 428.306 894.069 436.2 889.059 442.48L895.313 447.469C901.289 439.977 905.217 430.596 906.126 420.215L898.156 419.518ZM895.807 401.164C897.843 406.815 898.722 413.046 898.156 419.518L906.126 420.215C906.794 412.575 905.757 405.181 903.334 398.452L895.807 401.164ZM911.886 384.068C908.545 389.51 903.668 393.73 898.011 396.125L901.13 403.492C908.368 400.428 914.518 395.071 918.704 388.254L911.886 384.068ZM922.649 398.885C920.737 394.946 919.558 390.556 919.288 385.928L911.302 386.393C911.633 392.084 913.085 397.501 915.453 402.378L922.649 398.885ZM913.587 419.052C914.139 412.735 917.193 407.312 921.58 403.73L916.522 397.533C910.485 402.461 906.361 409.857 905.617 418.354L913.587 419.052ZM923.497 439.564C916.984 435.506 912.83 427.704 913.587 419.052L905.617 418.354C904.6 429.98 910.173 440.688 919.266 446.354L923.497 439.564ZM923.703 446.256C923.817 446.149 923.932 446.044 924.048 445.941L918.715 439.977C918.554 440.121 918.395 440.267 918.237 440.415L923.703 446.256ZM912.374 445.292C914.866 445.51 917.231 446.108 919.428 447.026L922.512 439.645C919.567 438.414 916.397 437.614 913.072 437.323L912.374 445.292ZM896.052 449.94C900.679 446.535 906.382 444.768 912.374 445.292L913.072 437.323C905.029 436.619 897.413 439.007 891.311 443.495L896.052 449.94ZM969.735 455.429C967.026 454.002 964.19 452.787 961.243 451.806L958.716 459.396C961.243 460.238 963.678 461.281 966.006 462.507L969.735 455.429ZM978.267 451.753C973.371 451.324 968.771 452.962 965.284 455.916L970.456 462.02C972.41 460.365 974.922 459.491 977.57 459.722L978.267 451.753ZM979.933 451.978C979.386 451.878 978.83 451.802 978.267 451.753L977.57 459.722C977.88 459.749 978.183 459.791 978.481 459.846L979.933 451.978ZM958.185 419.377C960.733 434.005 967.035 447.427 976.12 458.455L982.294 453.369C974.078 443.395 968.374 431.249 966.067 418.004L958.185 419.377ZM959.581 423.649C960.914 423.318 962.223 422.915 963.503 422.446L960.749 414.935C959.736 415.306 958.701 415.624 957.649 415.886L959.581 423.649ZM962.509 423.332C962.618 422.091 962.651 420.859 962.613 419.643L954.617 419.893C954.645 420.794 954.62 421.709 954.539 422.634L962.509 423.332ZM952.167 443.682C957.897 438.76 961.789 431.563 962.509 423.332L954.539 422.634C954.004 428.753 951.123 434.033 946.954 437.614L952.167 443.682ZM963.873 454.684C962.173 447.465 957.792 441.223 951.739 437.293L947.382 444.003C951.676 446.791 954.85 451.27 956.086 456.518L963.873 454.684ZM1001.49 515.473C1002.77 500.815 999.023 486.901 991.701 475.619L984.99 479.975C991.357 489.783 994.647 501.923 993.522 514.776L1001.49 515.473ZM997.778 532.11C999.707 526.885 1000.98 521.305 1001.49 515.473L993.522 514.776C993.075 519.894 991.957 524.777 990.273 529.34L997.778 532.11ZM1016.38 575.194C1018.04 556.143 1010.06 538.508 996.535 527.61L991.515 533.839C1002.97 543.069 1009.84 558.11 1008.41 574.497L1016.38 575.194ZM1014.01 587.188C1015.21 583.366 1016.01 579.352 1016.38 575.194L1008.41 574.497C1008.09 578.078 1007.4 581.525 1006.38 584.799L1014.01 587.188ZM1032.63 568.346C1022.41 569.926 1013.35 575.496 1007.05 583.524L1013.34 588.463C1018.46 581.939 1025.75 577.504 1033.85 576.252L1032.63 568.346ZM1003.32 522.843C1001.34 545.474 1012.99 566.129 1031.37 575.836L1035.11 568.761C1019.62 560.584 1009.58 543.022 1011.29 523.54L1003.32 522.843ZM1017.37 490.347C1009.59 498.954 1004.42 510.225 1003.32 522.843L1011.29 523.54C1012.24 512.687 1016.67 503.048 1023.3 495.711L1017.37 490.347ZM1007.27 479.987C1008.86 486.593 1012.68 492.367 1017.97 496.252L1022.7 489.805C1018.98 487.067 1016.21 482.932 1015.04 478.111L1007.27 479.987ZM987.746 470.021C994.292 475.349 1001.68 479.686 1009.72 482.782L1012.59 475.317C1005.36 472.531 998.703 468.625 992.797 463.817L987.746 470.021ZM994.514 471.608C994.679 469.719 994.559 467.865 994.186 466.095L986.357 467.743C986.569 468.75 986.64 469.813 986.544 470.911L994.514 471.608ZM991.734 479.924C993.26 477.492 994.246 474.662 994.514 471.608L986.544 470.911C986.389 472.68 985.822 474.294 984.958 475.67L991.734 479.924ZM715.609 610.489C714.639 609.08 713.797 607.567 713.1 605.973L705.769 609.175C706.669 611.236 707.759 613.195 709.019 615.025L715.609 610.489ZM704.829 617.294C707.187 616.823 709.629 616.632 712.121 616.752L712.507 608.762C709.352 608.609 706.254 608.852 703.262 609.449L704.829 617.294ZM706.241 605.165C704.803 607.072 703.182 608.813 701.413 610.36L706.678 616.383C708.864 614.472 710.86 612.327 712.628 609.982L706.241 605.165Z" fill="#9F50FF" mask="url(#path-1-inside-1_808_34358)"/>
<path d="M580.715 753.901L635.557 758.7C641.609 759.229 646.086 764.564 645.557 770.616L611.859 1155.78C610.005 1176.97 591.319 1192.65 570.123 1190.8C548.927 1188.94 533.247 1170.26 535.101 1149.06L568.799 763.901C569.328 757.849 574.663 753.372 580.715 753.901Z" fill="#9F50FF" stroke="#090909" stroke-width="8"/>
<path d="M620.59 753.375L635.907 754.715C644.16 755.437 650.264 762.713 649.542 770.965L615.198 1163.52C613.736 1180.23 599.003 1192.6 582.291 1191.13V1191.13L620.59 753.375Z" fill="black" fill-opacity="0.25"/>
<path d="M591.004 750.785V750.785C583.205 750.103 576.33 755.872 575.647 763.671L540.054 1170.5C539.372 1178.3 545.141 1185.17 552.94 1185.85V1185.85L591.004 750.785Z" fill="white" fill-opacity="0.25"/>
</g>
<defs>
<filter id="filter0_i_808_34358" x="588.332" y="316.83" width="569.008" height="458.468" filterUnits="userSpaceOnUse" color-interpolation-filters="sRGB">
<feFlood flood-opacity="0" result="BackgroundImageFix"/>
<feBlend mode="normal" in="SourceGraphic" in2="BackgroundImageFix" result="shape"/>
<feColorMatrix in="SourceAlpha" type="matrix" values="0 0 0 0 0 0 0 0 0 0 0 0 0 0 0 0 0 0 127 0" result="hardAlpha"/>
<feOffset dx="8" dy="12"/>
<feGaussianBlur stdDeviation="12"/>
<feComposite in2="hardAlpha" operator="arithmetic" k2="-1" k3="1"/>
<feColorMatrix type="matrix" values="0 0 0 0 1 0 0 0 0 1 0 0 0 0 1 0 0 0 1 0"/>
<feBlend mode="normal" in2="shape" result="effect1_innerShadow_808_34358"/>
</filter>
<clipPath id="clip0_808_34358">
<rect width="1000" height="1000" fill="white"/>
</clipPath>
</defs>
</svg>
