<svg width="1000" height="1000" viewBox="0 0 1000 1000" fill="none" xmlns="http://www.w3.org/2000/svg">
<rect x="607" y="443.73" width="26" height="556" fill="black"/>
<circle cx="620" cy="425" r="22.5" fill="white" stroke="black" stroke-width="5"/>
<path d="M632 432.571C630.44 434.95 628.223 436.804 625.629 437.899C623.035 438.994 620.181 439.28 617.427 438.722C614.673 438.164 612.143 436.786 610.158 434.763C608.173 432.74 606.821 430.163 606.273 427.357C605.725 424.551 606.006 421.643 607.081 419" stroke="#C4C4C4" stroke-width="7" stroke-linecap="round"/>
<rect x="584" y="460" width="396" height="300" fill="white" stroke="black" stroke-width="8"/>
<rect x="610" y="460" width="70" height="300" fill="black" fill-opacity="0.25"/>
<path d="M752.438 562.324L752.02 561.906L750.838 564.569L704.732 668.432L704.175 669.686L704.385 669.897C704.256 671.164 704.624 672.486 705.105 673.589C705.839 675.276 707.088 677.054 708.696 678.664L708.697 678.665C710.305 680.274 712.083 681.523 713.769 682.258C714.872 682.738 716.194 683.107 717.461 682.978L717.668 683.184L718.922 682.627L822.785 636.516L825.287 635.406L824.932 635.006C824.949 634.99 824.965 634.973 824.982 634.956C827.204 632.732 827.743 629.486 827.335 626.043C826.923 622.571 825.517 618.532 823.358 614.214C819.031 605.559 811.468 595.367 801.728 585.626L801.728 585.626C791.985 575.884 781.792 568.321 773.136 563.994C768.818 561.836 764.778 560.43 761.305 560.018C757.886 559.614 754.662 560.143 752.438 562.324Z" fill="#82EB68" stroke="black" stroke-width="4"/>
<path d="M760.763 585.2L710.629 667.129L709.506 669.666L709.549 669.71C708.721 671.32 710.107 674.597 712.948 677.449C713.872 678.376 714.832 679.079 715.772 679.675L776.699 605.177L760.763 585.2Z" fill="white" fill-opacity="0.25"/>
<path d="M802.02 585.305L802.02 585.305C792.329 575.616 782.205 567.619 773.665 562.792C769.408 560.385 765.435 558.704 762.04 558.046C758.704 557.4 755.424 557.661 753.205 559.878L753.205 559.878C751.017 562.066 750.64 565.394 751.143 568.835C751.656 572.352 753.149 576.497 755.385 580.941C759.866 589.848 767.53 600.344 777.252 610.068L777.253 610.069C786.961 619.771 797.042 627.372 805.545 631.796C809.785 634.002 813.736 635.473 817.116 635.965C820.45 636.45 823.651 636.029 825.818 633.861C827.986 631.695 828.405 628.495 827.92 625.162C827.428 621.783 825.956 617.832 823.75 613.593C819.325 605.092 811.722 595.011 802.02 585.305Z" fill="#82EB68" stroke="black" stroke-width="4"/>
<path d="M797.321 592.533C814.193 609.757 824.378 625.943 818.731 631.035C813.088 636.135 794.836 626.307 777.953 609.089C761.077 591.865 751.973 573.768 757.616 568.672C763.263 563.577 780.438 575.308 797.321 592.533Z" fill="black" fill-opacity="0.25"/>
<path d="M783.683 590.508C782.465 591.492 780.87 592.007 779.193 591.824C775.305 591.402 771.864 590.032 769.375 587.709C766.735 585.244 765.357 581.852 765.73 578.379L783.683 590.508ZM783.683 590.508C784.892 589.535 785.746 588.087 785.92 586.405C786.198 583.872 784.879 581.542 782.783 580.392C790.676 580.378 795.85 575.712 796.468 570.002L796.468 570.002C797.054 564.588 793.434 559.228 786.505 557.234C793.704 556.761 798.378 552.295 798.967 546.881L798.968 546.879C799.645 540.617 794.695 534.422 785.503 533.433C782.138 533.067 779.136 535.495 778.774 538.846C778.494 541.384 779.81 543.714 781.908 544.865C774.02 544.88 768.848 549.546 768.226 555.253L768.226 555.253C767.847 558.73 769.231 562.122 771.871 564.586L771.872 564.587C773.584 566.182 775.744 567.328 778.189 568.026C770.989 568.498 766.311 572.968 765.73 578.379L783.683 590.508Z" fill="#9F50FF" stroke="black" stroke-width="4"/>
<path d="M855.3 654.885C853.83 649.652 848.484 646.023 841.319 646.744C847.812 643.623 850.48 637.735 849.011 632.503C847.31 626.439 840.41 622.53 831.506 625.043L823.604 651.723C825.079 656.971 830.432 660.597 837.609 659.863C831.099 662.982 828.418 668.869 829.889 674.108L829.889 674.111C831.6 680.177 838.502 684.078 847.398 681.573L847.398 681.573C850.65 680.656 852.534 677.284 851.631 674.039L851.63 674.035C850.943 671.585 848.853 669.912 846.48 669.624C853.787 666.666 856.861 660.418 855.3 654.885ZM855.3 654.885C855.301 654.885 855.301 654.886 855.301 654.886L853.376 655.427L855.3 654.884C855.3 654.884 855.3 654.885 855.3 654.885ZM841.106 659.187C841.108 659.187 841.11 659.186 841.112 659.186L841.106 659.187ZM841.106 659.187L841.487 660.541L841.105 659.187L841.106 659.187ZM832.422 636.985C830.046 636.698 827.965 635.019 827.275 632.576L827.274 632.574C826.362 629.328 828.26 625.958 831.505 625.043L832.422 636.985ZM832.422 636.985C825.116 639.947 822.047 646.194 823.603 651.721L832.422 636.985ZM840.951 658.614C840.949 658.614 840.947 658.615 840.945 658.616L843.533 658.183C843.442 657.849 843.479 657.588 843.504 657.471C843.532 657.338 843.571 657.262 843.579 657.246C843.581 657.242 843.582 657.24 843.582 657.24C843.582 657.24 843.532 657.319 843.382 657.453C843.043 657.756 842.307 658.231 840.951 658.614L840.57 657.261L840.951 658.614Z" fill="#FF8C00" stroke="black" stroke-width="4"/>
<path d="M795.786 615.593L795.782 615.587L795.782 615.587C793.674 612.947 794.108 609.106 796.734 607C796.734 606.999 796.734 606.999 796.734 606.999L797.986 608.559C798.882 607.84 820.258 591.051 850.468 595.372L795.786 615.593ZM795.786 615.593C796.993 617.092 798.766 617.88 800.559 617.88C801.896 617.88 803.243 617.445 804.374 616.545L804.374 616.545L804.382 616.539C804.382 616.539 804.382 616.538 804.383 616.538C804.479 616.463 809.165 612.812 817.031 609.618C824.983 606.389 836.115 603.655 849.018 605.486C852.401 605.985 855.464 603.624 855.938 600.304L855.938 600.303C856.415 596.961 854.092 593.869 850.751 593.392L795.786 615.593Z" fill="#9F50FF" stroke="black" stroke-width="4"/>
<path d="M727.909 600.525L727.902 600.523C724.671 599.552 722.836 596.148 723.808 592.914C726.107 585.257 728.299 575.312 729.273 566.516C729.76 562.114 729.935 558.066 729.687 554.765C729.431 551.367 728.75 549.14 727.856 548.028L727.851 548.022L727.847 548.016C727.671 547.794 727.537 547.683 727.375 547.607C727.208 547.529 726.844 547.414 726.104 547.47L725.953 545.476L726.106 547.47C725.961 547.481 725.758 547.533 725.473 547.986C725.16 548.483 724.904 549.246 724.729 550.181C724.401 551.927 724.457 553.69 724.464 553.874C724.7 557.228 722.175 560.141 718.826 560.39L718.812 560.391L718.799 560.392C715.436 560.597 712.528 558.133 712.276 554.75L727.909 600.525ZM727.909 600.525L727.917 600.527M727.909 600.525L727.917 600.527M727.917 600.527C728.487 600.694 729.074 600.78 729.661 600.78C732.284 600.78 734.718 599.081 735.515 596.428L735.515 596.428C736.566 592.926 739.594 582.285 741.13 570.957C741.898 565.296 742.304 559.39 741.877 554.08C741.455 548.819 740.195 543.867 737.386 540.371L737.386 540.371M727.917 600.527L737.386 540.371M737.386 540.371C734.4 536.656 730.137 534.909 725.186 535.284L737.386 540.371ZM714.177 543.263C715.998 539.254 719.412 535.721 725.186 535.284L714.177 543.263ZM714.177 543.263C712.396 547.183 712.047 551.687 712.276 554.75L714.177 543.263Z" fill="#FF8C00" stroke="black" stroke-width="4"/>
<path d="M810.833 580.227C815.343 580.227 818.999 576.571 818.999 572.061C818.999 567.551 815.343 563.895 810.833 563.895C806.323 563.895 802.667 567.551 802.667 572.061C802.667 576.571 806.323 580.227 810.833 580.227Z" fill="#82EB68" stroke="black" stroke-width="4"/>
<path d="M714.229 617.223C719.875 617.223 724.451 612.647 724.451 607.002C724.451 601.357 719.875 596.78 714.229 596.78C708.584 596.78 704.008 601.357 704.008 607.002C704.008 612.647 708.584 617.223 714.229 617.223Z" fill="#FF7DEA" stroke="black" stroke-width="4"/>
<path d="M839.608 621.334C844.118 621.334 847.774 617.678 847.774 613.168C847.774 608.658 844.118 605.002 839.608 605.002C835.098 605.002 831.442 608.658 831.442 613.168C831.442 617.678 835.098 621.334 839.608 621.334Z" fill="#82EB68" stroke="black" stroke-width="4"/>
<path d="M802.611 670.663C807.121 670.663 810.777 667.007 810.777 662.497C810.777 657.987 807.121 654.331 802.611 654.331C798.101 654.331 794.445 657.987 794.445 662.497C794.445 667.007 798.101 670.663 802.611 670.663Z" fill="#82EB68" stroke="black" stroke-width="4"/>
<path d="M827.9 558.791C839.403 558.791 848.729 549.466 848.729 537.963C848.729 526.459 839.403 517.134 827.9 517.134C816.396 517.134 807.071 526.459 807.071 537.963C807.071 549.466 816.396 558.791 827.9 558.791Z" fill="#FFED00" stroke="black" stroke-width="4"/>
<path d="M839.608 576.116C844.118 576.116 847.774 572.459 847.774 567.949C847.774 563.439 844.118 559.783 839.608 559.783C835.098 559.783 831.442 563.439 831.442 567.949C831.442 572.459 835.098 576.116 839.608 576.116Z" fill="#FFED00" stroke="black" stroke-width="4"/>
<path d="M827.276 592.559C831.786 592.559 835.442 588.903 835.442 584.393C835.442 579.883 831.786 576.227 827.276 576.227C822.766 576.227 819.11 579.883 819.11 584.393C819.11 588.903 822.766 592.559 827.276 592.559Z" fill="#FFED00" stroke="black" stroke-width="4"/>
<path d="M736.839 637.778C741.349 637.778 745.005 634.122 745.005 629.611C745.005 625.101 741.349 621.445 736.839 621.445C732.329 621.445 728.672 625.101 728.672 629.611C728.672 634.122 732.329 637.778 736.839 637.778Z" fill="#FFED00" stroke="black" stroke-width="4"/>
</svg>
