<svg width="1000" height="1000" viewBox="0 0 1000 1000" fill="none" xmlns="http://www.w3.org/2000/svg">
<rect x="540.5" y="299.5" width="21" height="21" rx="10.5" fill="#FFF2D0" stroke="black" stroke-width="3"/>
<path fill-rule="evenodd" clip-rule="evenodd" d="M539.166 312C540.118 317.676 545.054 322 551 322C556.946 322 561.882 317.676 562.834 312H539.166Z" fill="black" fill-opacity="0.25"/>
<ellipse rx="1.33333" ry="1.58105" transform="matrix(1 0 0 -1 545.878 305.079)" fill="white" fill-opacity="0.25"/>
<rect x="398.5" y="379.5" width="21" height="21" rx="10.5" fill="#FFF2D0" stroke="black" stroke-width="3"/>
<path fill-rule="evenodd" clip-rule="evenodd" d="M397.166 392C398.118 397.676 403.054 402 409 402C414.946 402 419.882 397.676 420.834 392H397.166Z" fill="black" fill-opacity="0.25"/>
<ellipse rx="1.33333" ry="1.58105" transform="matrix(1 0 0 -1 403.878 385.079)" fill="white" fill-opacity="0.25"/>
<rect x="577.5" y="485.5" width="21" height="21" rx="10.5" fill="#FFF2D0" stroke="black" stroke-width="3"/>
<path fill-rule="evenodd" clip-rule="evenodd" d="M576.166 498C577.118 503.676 582.054 508 588 508C593.946 508 598.882 503.676 599.834 498H576.166Z" fill="black" fill-opacity="0.25"/>
<ellipse rx="1.33333" ry="1.58105" transform="matrix(1 0 0 -1 582.878 491.079)" fill="white" fill-opacity="0.25"/>
<rect x="657.5" y="448.5" width="21" height="21" rx="10.5" fill="#FFF2D0" stroke="black" stroke-width="3"/>
<path fill-rule="evenodd" clip-rule="evenodd" d="M656.166 461C657.118 466.676 662.054 471 668 471C673.946 471 678.882 466.676 679.834 461H656.166Z" fill="black" fill-opacity="0.25"/>
<ellipse rx="1.33333" ry="1.58105" transform="matrix(1 0 0 -1 662.878 454.079)" fill="white" fill-opacity="0.25"/>
<rect x="589.5" y="288.5" width="21" height="21" rx="10.5" fill="#FFF2D0" stroke="black" stroke-width="3"/>
<path fill-rule="evenodd" clip-rule="evenodd" d="M588.166 301C589.118 306.676 594.054 311 600 311C605.946 311 610.882 306.676 611.834 301H588.166Z" fill="black" fill-opacity="0.25"/>
<ellipse rx="1.33333" ry="1.58105" transform="matrix(1 0 0 -1 594.878 294.079)" fill="white" fill-opacity="0.25"/>
<rect x="553.5" y="391.5" width="21" height="21" rx="10.5" fill="#FFF2D0" stroke="black" stroke-width="3"/>
<path fill-rule="evenodd" clip-rule="evenodd" d="M552.166 404C553.118 409.676 558.054 414 564 414C569.946 414 574.882 409.676 575.834 404H552.166Z" fill="black" fill-opacity="0.25"/>
<ellipse rx="1.33333" ry="1.58105" transform="matrix(1 0 0 -1 558.878 397.079)" fill="white" fill-opacity="0.25"/>
<rect x="357.5" y="357.5" width="21" height="21" rx="10.5" fill="#FFF2D0" stroke="black" stroke-width="3"/>
<path fill-rule="evenodd" clip-rule="evenodd" d="M356.166 370C357.118 375.676 362.054 380 368 380C373.946 380 378.882 375.676 379.834 370H356.166Z" fill="black" fill-opacity="0.25"/>
<ellipse rx="1.33333" ry="1.58105" transform="matrix(1 0 0 -1 362.878 363.079)" fill="white" fill-opacity="0.25"/>
<rect x="300.5" y="386.5" width="21" height="21" rx="10.5" fill="#FFF2D0" stroke="black" stroke-width="3"/>
<path fill-rule="evenodd" clip-rule="evenodd" d="M299.166 399C300.118 404.676 305.054 409 311 409C316.946 409 321.882 404.676 322.834 399H299.166Z" fill="black" fill-opacity="0.25"/>
<ellipse rx="1.33333" ry="1.58105" transform="matrix(1 0 0 -1 305.878 392.079)" fill="white" fill-opacity="0.25"/>
<rect x="243.5" y="399.5" width="21" height="21" rx="10.5" fill="#FFF2D0" stroke="black" stroke-width="3"/>
<path fill-rule="evenodd" clip-rule="evenodd" d="M242.166 412C243.118 417.676 248.054 422 254 422C259.946 422 264.882 417.676 265.834 412H242.166Z" fill="black" fill-opacity="0.25"/>
<ellipse rx="1.33333" ry="1.58105" transform="matrix(1 0 0 -1 248.878 405.079)" fill="white" fill-opacity="0.25"/>
<rect x="265.5" y="579.5" width="21" height="21" rx="10.5" fill="#FFF2D0" stroke="black" stroke-width="3"/>
<path fill-rule="evenodd" clip-rule="evenodd" d="M264.166 592C265.118 597.676 270.054 602 276 602C281.946 602 286.882 597.676 287.834 592H264.166Z" fill="black" fill-opacity="0.25"/>
<ellipse rx="1.33333" ry="1.58105" transform="matrix(1 0 0 -1 270.878 585.079)" fill="white" fill-opacity="0.25"/>
<rect x="323.5" y="603.5" width="21" height="21" rx="10.5" fill="#FFF2D0" stroke="black" stroke-width="3"/>
<path fill-rule="evenodd" clip-rule="evenodd" d="M322.166 616C323.118 621.676 328.054 626 334 626C339.946 626 344.882 621.676 345.834 616H322.166Z" fill="black" fill-opacity="0.25"/>
<ellipse rx="1.33333" ry="1.58105" transform="matrix(1 0 0 -1 328.878 609.079)" fill="white" fill-opacity="0.25"/>
<rect x="253.5" y="686.5" width="21" height="21" rx="10.5" fill="#FFF2D0" stroke="black" stroke-width="3"/>
<path fill-rule="evenodd" clip-rule="evenodd" d="M252.166 699C253.118 704.676 258.054 709 264 709C269.946 709 274.882 704.676 275.834 699H252.166Z" fill="black" fill-opacity="0.25"/>
<ellipse rx="1.33333" ry="1.58105" transform="matrix(1 0 0 -1 258.878 692.079)" fill="white" fill-opacity="0.25"/>
<rect x="230.5" y="497.5" width="21" height="21" rx="10.5" fill="#FFF2D0" stroke="black" stroke-width="3"/>
<path fill-rule="evenodd" clip-rule="evenodd" d="M229.166 510C230.118 515.676 235.054 520 241 520C246.946 520 251.882 515.676 252.834 510H229.166Z" fill="black" fill-opacity="0.25"/>
<ellipse rx="1.33333" ry="1.58105" transform="matrix(1 0 0 -1 235.878 503.079)" fill="white" fill-opacity="0.25"/>
<rect x="339.5" y="693.5" width="21" height="21" rx="10.5" fill="#FFF2D0" stroke="black" stroke-width="3"/>
<path fill-rule="evenodd" clip-rule="evenodd" d="M338.166 706C339.118 711.676 344.054 716 350 716C355.946 716 360.882 711.676 361.834 706H338.166Z" fill="black" fill-opacity="0.25"/>
<ellipse rx="1.33333" ry="1.58105" transform="matrix(1 0 0 -1 344.878 699.079)" fill="white" fill-opacity="0.25"/>
<rect x="452.5" y="659.5" width="21" height="21" rx="10.5" fill="#FFF2D0" stroke="black" stroke-width="3"/>
<path fill-rule="evenodd" clip-rule="evenodd" d="M451.166 672C452.118 677.676 457.054 682 463 682C468.946 682 473.882 677.676 474.834 672H451.166Z" fill="black" fill-opacity="0.25"/>
<ellipse rx="1.33333" ry="1.58105" transform="matrix(1 0 0 -1 457.878 665.079)" fill="white" fill-opacity="0.25"/>
<rect x="515.5" y="586.5" width="21" height="21" rx="10.5" fill="#FFF2D0" stroke="black" stroke-width="3"/>
<path fill-rule="evenodd" clip-rule="evenodd" d="M514.166 599C515.118 604.676 520.054 609 526 609C531.946 609 536.882 604.676 537.834 599H514.166Z" fill="black" fill-opacity="0.25"/>
<ellipse rx="1.33333" ry="1.58105" transform="matrix(1 0 0 -1 520.878 592.079)" fill="white" fill-opacity="0.25"/>
<rect x="619.5" y="603.5" width="21" height="21" rx="10.5" fill="#FFF2D0" stroke="black" stroke-width="3"/>
<path fill-rule="evenodd" clip-rule="evenodd" d="M618.166 616C619.118 621.676 624.054 626 630 626C635.946 626 640.882 621.676 641.834 616H618.166Z" fill="black" fill-opacity="0.25"/>
<ellipse rx="1.33333" ry="1.58105" transform="matrix(1 0 0 -1 624.878 609.079)" fill="white" fill-opacity="0.25"/>
<rect x="649.5" y="560.5" width="21" height="21" rx="10.5" fill="#FFF2D0" stroke="black" stroke-width="3"/>
<path fill-rule="evenodd" clip-rule="evenodd" d="M648.166 573C649.118 578.676 654.054 583 660 583C665.946 583 670.882 578.676 671.834 573H648.166Z" fill="black" fill-opacity="0.25"/>
<ellipse rx="1.33333" ry="1.58105" transform="matrix(1 0 0 -1 654.878 566.079)" fill="white" fill-opacity="0.25"/>
<rect x="713.5" y="419.5" width="21" height="21" rx="10.5" fill="#FFF2D0" stroke="black" stroke-width="3"/>
<path fill-rule="evenodd" clip-rule="evenodd" d="M712.166 432C713.118 437.676 718.054 442 724 442C729.946 442 734.882 437.676 735.834 432H712.166Z" fill="black" fill-opacity="0.25"/>
<ellipse rx="1.33333" ry="1.58105" transform="matrix(1 0 0 -1 718.878 425.079)" fill="white" fill-opacity="0.25"/>
<rect x="614.5" y="361.5" width="21" height="21" rx="10.5" fill="#FFF2D0" stroke="black" stroke-width="3"/>
<path fill-rule="evenodd" clip-rule="evenodd" d="M613.166 374C614.118 379.676 619.054 384 625 384C630.946 384 635.882 379.676 636.834 374H613.166Z" fill="black" fill-opacity="0.25"/>
<ellipse rx="1.33333" ry="1.58105" transform="matrix(1 0 0 -1 619.878 367.079)" fill="white" fill-opacity="0.25"/>
<rect x="749.5" y="497.5" width="21" height="21" rx="10.5" fill="#FFF2D0" stroke="black" stroke-width="3"/>
<path fill-rule="evenodd" clip-rule="evenodd" d="M748.166 510C749.118 515.676 754.054 520 760 520C765.946 520 770.882 515.676 771.834 510H748.166Z" fill="black" fill-opacity="0.25"/>
<ellipse rx="1.33333" ry="1.58105" transform="matrix(1 0 0 -1 754.878 503.079)" fill="white" fill-opacity="0.25"/>
<rect x="504.5" y="369.5" width="21" height="21" rx="10.5" fill="#FFF2D0" stroke="black" stroke-width="3"/>
<path fill-rule="evenodd" clip-rule="evenodd" d="M503.166 382C504.118 387.676 509.054 392 515 392C520.946 392 525.882 387.676 526.834 382H503.166Z" fill="black" fill-opacity="0.25"/>
<ellipse rx="1.33333" ry="1.58105" transform="matrix(1 0 0 -1 509.878 375.079)" fill="white" fill-opacity="0.25"/>
<rect x="410.5" y="287.5" width="21" height="21" rx="10.5" fill="#FFF2D0" stroke="black" stroke-width="3"/>
<path fill-rule="evenodd" clip-rule="evenodd" d="M409.166 300C410.118 305.676 415.054 310 421 310C426.946 310 431.882 305.676 432.834 300H409.166Z" fill="black" fill-opacity="0.25"/>
<ellipse rx="1.33333" ry="1.58105" transform="matrix(1 0 0 -1 415.878 293.079)" fill="white" fill-opacity="0.25"/>
<rect x="495.5" y="258.5" width="21" height="21" rx="10.5" fill="#FFF2D0" stroke="black" stroke-width="3"/>
<path fill-rule="evenodd" clip-rule="evenodd" d="M494.166 271C495.118 276.676 500.054 281 506 281C511.946 281 516.882 276.676 517.834 271H494.166Z" fill="black" fill-opacity="0.25"/>
<ellipse rx="1.33333" ry="1.58105" transform="matrix(1 0 0 -1 500.878 264.079)" fill="white" fill-opacity="0.25"/>
<rect x="539.5" y="695.5" width="21" height="21" rx="10.5" fill="#FFF2D0" stroke="black" stroke-width="3"/>
<path fill-rule="evenodd" clip-rule="evenodd" d="M538.166 708C539.118 713.676 544.054 718 550 718C555.946 718 560.882 713.676 561.834 708H538.166Z" fill="black" fill-opacity="0.25"/>
<ellipse rx="1.33333" ry="1.58105" transform="matrix(1 0 0 -1 544.878 701.079)" fill="white" fill-opacity="0.25"/>
<rect x="471.5" y="719.5" width="21" height="21" rx="10.5" fill="#FFF2D0" stroke="black" stroke-width="3"/>
<path fill-rule="evenodd" clip-rule="evenodd" d="M470.166 732C471.118 737.676 476.054 742 482 742C487.946 742 492.882 737.676 493.834 732H470.166Z" fill="black" fill-opacity="0.25"/>
<ellipse rx="1.33333" ry="1.58105" transform="matrix(1 0 0 -1 476.878 725.079)" fill="white" fill-opacity="0.25"/>
<rect x="529.5" y="529.5" width="21" height="21" rx="10.5" fill="#FFF2D0" stroke="black" stroke-width="3"/>
<path fill-rule="evenodd" clip-rule="evenodd" d="M528.166 542C529.118 547.676 534.054 552 540 552C545.946 552 550.882 547.676 551.834 542H528.166Z" fill="black" fill-opacity="0.25"/>
<ellipse rx="1.33333" ry="1.58105" transform="matrix(1 0 0 -1 534.878 535.079)" fill="white" fill-opacity="0.25"/>
<rect x="643.5" y="679.5" width="21" height="21" rx="10.5" fill="#FFF2D0" stroke="black" stroke-width="3"/>
<path fill-rule="evenodd" clip-rule="evenodd" d="M642.166 692C643.118 697.676 648.054 702 654 702C659.946 702 664.882 697.676 665.834 692H642.166Z" fill="black" fill-opacity="0.25"/>
<ellipse rx="1.33333" ry="1.58105" transform="matrix(1 0 0 -1 648.878 685.079)" fill="white" fill-opacity="0.25"/>
<rect x="595.5" y="686.5" width="21" height="21" rx="10.5" fill="#FFF2D0" stroke="black" stroke-width="3"/>
<path fill-rule="evenodd" clip-rule="evenodd" d="M594.166 699C595.118 704.676 600.054 709 606 709C611.946 709 616.882 704.676 617.834 699H594.166Z" fill="black" fill-opacity="0.25"/>
<ellipse rx="1.33333" ry="1.58105" transform="matrix(1 0 0 -1 600.878 692.079)" fill="white" fill-opacity="0.25"/>
</svg>
