<svg width="1000" height="1000" viewBox="0 0 1000 1000" fill="none" xmlns="http://www.w3.org/2000/svg">
<g filter="url(#filter0_d_145_459474)">
<path d="M341 491C365.301 491 385 471.301 385 447C385 422.699 365.301 403 341 403C316.699 403 297 422.699 297 447C297 471.301 316.699 491 341 491Z" fill="black"/>
</g>
<path d="M325.537 411.13C328.661 408.006 333.887 407.987 335.787 411.976C337.274 415.099 338.067 418.542 338.067 422.067C338.067 428.291 335.594 434.259 331.193 438.66C326.793 443.061 320.824 445.533 314.6 445.533C311.075 445.533 307.632 444.74 304.51 443.253C300.521 441.354 300.539 436.128 303.663 433.003L314.6 422.067L325.537 411.13Z" fill="white"/>
<path d="M366.787 424.387C368.349 425.949 368.36 428.556 366.385 429.545C364.667 430.406 362.757 430.866 360.8 430.866C357.494 430.866 354.323 429.553 351.985 427.215C349.647 424.877 348.333 421.706 348.333 418.4C348.333 416.442 348.794 414.532 349.654 412.815C350.644 410.84 353.251 410.851 354.813 412.413L360.8 418.4L366.787 424.387Z" fill="white"/>
<path d="M308.487 459.954C306.925 458.392 306.927 455.755 308.99 454.964C310.068 454.551 311.223 454.333 312.4 454.333C314.928 454.333 317.353 455.338 319.141 457.126C320.929 458.914 321.933 461.338 321.933 463.867C321.933 465.044 321.716 466.199 321.303 467.277C320.512 469.34 317.875 469.342 316.313 467.779L312.4 463.867L308.487 459.954Z" fill="white"/>
<path d="M346.878 483.655C343.754 486.78 338.575 486.81 336.358 482.988C333.658 478.333 332.2 473.008 332.2 467.533C332.2 459.365 335.445 451.531 341.221 445.755C346.997 439.978 354.831 436.733 363 436.733C368.475 436.733 373.799 438.191 378.455 440.891C382.277 443.108 382.246 448.287 379.122 451.411L363 467.533L346.878 483.655Z" fill="white"/>
<g filter="url(#filter1_d_145_459474)">
<path d="M456 491C480.301 491 500 471.301 500 447C500 422.699 480.301 403 456 403C431.699 403 412 422.699 412 447C412 471.301 431.699 491 456 491Z" fill="black"/>
</g>
<path d="M440.537 411.13C443.661 408.006 448.887 407.987 450.787 411.976C452.274 415.099 453.067 418.542 453.067 422.067C453.067 428.291 450.594 434.259 446.193 438.66C441.793 443.061 435.824 445.533 429.6 445.533C426.075 445.533 422.632 444.74 419.51 443.253C415.521 441.354 415.539 436.128 418.663 433.003L429.6 422.067L440.537 411.13Z" fill="white"/>
<path d="M481.787 424.387C483.349 425.949 483.36 428.556 481.385 429.545C479.667 430.406 477.757 430.866 475.8 430.866C472.494 430.866 469.323 429.553 466.985 427.215C464.647 424.877 463.333 421.706 463.333 418.4C463.333 416.442 463.794 414.532 464.654 412.815C465.644 410.84 468.251 410.851 469.813 412.413L475.8 418.4L481.787 424.387Z" fill="white"/>
<path d="M423.487 459.954C421.925 458.392 421.927 455.755 423.99 454.964C425.068 454.551 426.223 454.333 427.4 454.333C429.928 454.333 432.353 455.338 434.141 457.126C435.929 458.914 436.933 461.338 436.933 463.867C436.933 465.044 436.716 466.199 436.303 467.277C435.512 469.34 432.875 469.342 431.313 467.779L427.4 463.867L423.487 459.954Z" fill="white"/>
<path d="M461.878 483.655C458.754 486.78 453.575 486.81 451.358 482.988C448.658 478.333 447.2 473.008 447.2 467.533C447.2 459.365 450.445 451.531 456.221 445.755C461.997 439.978 469.831 436.733 478 436.733C483.475 436.733 488.799 438.191 493.455 440.891C497.277 443.108 497.246 448.287 494.122 451.411L478 467.533L461.878 483.655Z" fill="white"/>
<defs>
<filter id="filter0_d_145_459474" x="292" y="403" width="96" height="99" filterUnits="userSpaceOnUse" color-interpolation-filters="sRGB">
<feFlood flood-opacity="0" result="BackgroundImageFix"/>
<feColorMatrix in="SourceAlpha" type="matrix" values="0 0 0 0 0 0 0 0 0 0 0 0 0 0 0 0 0 0 127 0" result="hardAlpha"/>
<feOffset dx="-1" dy="7"/>
<feGaussianBlur stdDeviation="2"/>
<feComposite in2="hardAlpha" operator="out"/>
<feColorMatrix type="matrix" values="0 0 0 0 0 0 0 0 0 0 0 0 0 0 0 0 0 0 0.25 0"/>
<feBlend mode="normal" in2="BackgroundImageFix" result="effect1_dropShadow_145_459474"/>
<feBlend mode="normal" in="SourceGraphic" in2="effect1_dropShadow_145_459474" result="shape"/>
</filter>
<filter id="filter1_d_145_459474" x="407" y="403" width="96" height="99" filterUnits="userSpaceOnUse" color-interpolation-filters="sRGB">
<feFlood flood-opacity="0" result="BackgroundImageFix"/>
<feColorMatrix in="SourceAlpha" type="matrix" values="0 0 0 0 0 0 0 0 0 0 0 0 0 0 0 0 0 0 127 0" result="hardAlpha"/>
<feOffset dx="-1" dy="7"/>
<feGaussianBlur stdDeviation="2"/>
<feComposite in2="hardAlpha" operator="out"/>
<feColorMatrix type="matrix" values="0 0 0 0 0 0 0 0 0 0 0 0 0 0 0 0 0 0 0.25 0"/>
<feBlend mode="normal" in2="BackgroundImageFix" result="effect1_dropShadow_145_459474"/>
<feBlend mode="normal" in="SourceGraphic" in2="effect1_dropShadow_145_459474" result="shape"/>
</filter>
</defs>
</svg>
