<svg width="1000" height="1000" viewBox="0 0 1000 1000" fill="none" xmlns="http://www.w3.org/2000/svg">
<g clip-path="url(#clip0_340_3807)">
<mask id="path-1-inside-1_340_3807" fill="white">
<path fill-rule="evenodd" clip-rule="evenodd" d="M871.364 726C871.364 726 871.364 726 871.364 726C871.364 702.402 805.02 683.272 723.182 683.272C641.343 683.272 575 702.402 575 726C575 726 575 726 575 726V1006C575 1050.18 610.817 1086 655 1086H791.364C835.546 1086 871.364 1050.18 871.364 1006V726Z"/>
</mask>
<path fill-rule="evenodd" clip-rule="evenodd" d="M871.364 726C871.364 726 871.364 726 871.364 726C871.364 702.402 805.02 683.272 723.182 683.272C641.343 683.272 575 702.402 575 726C575 726 575 726 575 726V1006C575 1050.18 610.817 1086 655 1086H791.364C835.546 1086 871.364 1050.18 871.364 1006V726Z" fill="#D7D6DC"/>
<path d="M865.364 726C865.364 726 865.364 726 865.364 726C865.364 726 865.364 726 865.364 726V726C865.364 726 865.364 726 865.364 726C865.364 726 865.364 726 865.364 726C865.364 726 865.364 726 865.364 726C865.364 726 865.364 726 865.364 726V726C865.364 726 865.364 726 865.364 726C865.364 726 865.364 726 865.364 726V726C865.364 726 865.364 726 865.364 726C865.364 726 865.364 726 865.364 726V726C865.364 726 865.364 726 865.364 726C865.364 726 865.364 726 865.364 726V726C865.364 726 865.364 726 865.364 726C865.364 726 865.364 726 865.364 726C865.364 726 865.364 726 865.364 726V726C865.364 726 865.364 726 865.364 726C865.364 726 865.364 726 865.364 726V726C865.364 726 865.364 726 865.364 726C865.364 726 865.364 726 865.364 726C865.364 726 865.364 726 865.364 726V726C865.364 726 865.364 726 865.364 726C865.364 726 865.364 726 865.364 726C865.364 726 865.364 726 865.364 726V726C865.364 726 865.364 726 865.364 726C865.364 726 865.364 726 865.364 726V726V726C865.364 726 865.364 726 865.364 726C865.364 726 865.364 726 865.364 726V726C865.364 726 865.364 726 865.364 726C865.364 726 865.364 726 865.364 726C865.364 726 865.364 726 865.364 726V726C865.364 726 865.364 726 865.364 726C865.364 726 865.364 726 865.364 726C865.364 726 865.364 726 865.364 726V726C865.364 726 865.364 726 865.364 726C865.364 726 865.364 726 865.364 726V726C865.364 726 865.364 726 865.364 726C865.364 726 865.364 726 865.364 726C865.364 726 865.364 726 865.364 726V726C865.364 726 865.364 726 865.364 726C865.364 726 865.364 726 865.364 726V726C865.364 726 865.364 726 865.364 726C865.364 726 865.364 726 865.364 726V726C865.364 726 865.364 726 865.364 726C865.364 726 865.364 726 865.364 726V726C865.364 726 865.364 726 865.364 726C865.364 726 865.364 726 865.364 726C865.364 726 865.364 726 865.364 726C865.364 726 865.364 726 865.364 726V726C865.364 726 865.364 726 865.364 726C865.364 726 865.364 726 865.364 726H877.364C877.364 726 877.364 726 877.364 726C877.364 726 877.364 726 877.364 726V726C877.364 726 877.364 726 877.364 726C877.364 726 877.364 726 877.364 726C877.364 726 877.364 726 877.364 726C877.364 726 877.364 726 877.364 726V726C877.364 726 877.364 726 877.364 726C877.364 726 877.364 726 877.364 726V726C877.364 726 877.364 726 877.364 726C877.364 726 877.364 726 877.364 726V726C877.364 726 877.364 726 877.364 726C877.364 726 877.364 726 877.364 726V726C877.364 726 877.364 726 877.364 726C877.364 726 877.364 726 877.364 726C877.364 726 877.364 726 877.364 726V726C877.364 726 877.364 726 877.364 726C877.364 726 877.364 726 877.364 726V726C877.364 726 877.364 726 877.364 726C877.364 726 877.364 726 877.364 726C877.364 726 877.364 726 877.364 726V726C877.364 726 877.364 726 877.364 726C877.364 726 877.364 726 877.364 726C877.364 726 877.364 726 877.364 726V726C877.364 726 877.364 726 877.364 726C877.364 726 877.364 726 877.364 726V726V726C877.364 726 877.364 726 877.364 726C877.364 726 877.364 726 877.364 726V726C877.364 726 877.364 726 877.364 726C877.364 726 877.364 726 877.364 726C877.364 726 877.364 726 877.364 726V726C877.364 726 877.364 726 877.364 726C877.364 726 877.364 726 877.364 726C877.364 726 877.364 726 877.364 726V726C877.364 726 877.364 726 877.364 726C877.364 726 877.364 726 877.364 726V726C877.364 726 877.364 726 877.364 726C877.364 726 877.364 726 877.364 726C877.364 726 877.364 726 877.364 726V726C877.364 726 877.364 726 877.364 726C877.364 726 877.364 726 877.364 726V726C877.364 726 877.364 726 877.364 726C877.364 726 877.364 726 877.364 726V726C877.364 726 877.364 726 877.364 726C877.364 726 877.364 726 877.364 726V726C877.364 726 877.364 726 877.364 726C877.364 726 877.364 726 877.364 726C877.364 726 877.364 726 877.364 726C877.364 726 877.364 726 877.364 726V726C877.364 726 877.364 726 877.364 726C877.364 726 877.364 726 877.364 726H865.364ZM723.182 689.272C763.703 689.272 800.162 694.015 826.3 701.552C839.409 705.332 849.581 709.719 856.339 714.326C863.296 719.068 865.364 723.12 865.364 726H877.364C877.364 717.081 871.139 709.892 863.098 704.411C854.859 698.794 843.331 693.974 829.625 690.022C802.131 682.094 764.5 677.272 723.182 677.272V689.272ZM581 726C581 723.12 583.068 719.068 590.025 714.326C596.782 709.719 606.955 705.332 620.064 701.552C646.201 694.015 682.661 689.272 723.182 689.272V677.272C681.864 677.272 644.233 682.094 616.739 690.022C603.033 693.974 591.504 698.794 583.265 704.411C575.225 709.892 569 717.081 569 726H581ZM581 726C581 726 581 726 581 726C581 726 581 726 581 726V726C581 726 581 726 581 726C581 726 581 726 581 726C581 726 581 726 581 726C581 726 581 726 581 726V726C581 726 581 726 581 726C581 726 581 726 581 726V726C581 726 581 726 581 726C581 726 581 726 581 726V726C581 726 581 726 581 726C581 726 581 726 581 726V726C581 726 581 726 581 726C581 726 581 726 581 726C581 726 581 726 581 726V726C581 726 581 726 581 726C581 726 581 726 581 726V726C581 726 581 726 581 726C581 726 581 726 581 726C581 726 581 726 581 726V726C581 726 581 726 581 726C581 726 581 726 581 726C581 726 581 726 581 726V726C581 726 581 726 581 726C581 726 581 726 581 726V726V726C581 726 581 726 581 726C581 726 581 726 581 726V726C581 726 581 726 581 726C581 726 581 726 581 726C581 726 581 726 581 726V726C581 726 581 726 581 726C581 726 581 726 581 726C581 726 581 726 581 726V726C581 726 581 726 581 726C581 726 581 726 581 726V726C581 726 581 726 581 726C581 726 581 726 581 726C581 726 581 726 581 726V726C581 726 581 726 581 726C581 726 581 726 581 726V726C581 726 581 726 581 726C581 726 581 726 581 726V726C581 726 581 726 581 726C581 726 581 726 581 726V726C581 726 581 726 581 726C581 726 581 726 581 726C581 726 581 726 581 726C581 726 581 726 581 726V726C581 726 581 726 581 726C581 726 581 726 581 726H569C569 726 569 726 569 726C569 726 569 726 569 726V726C569 726 569 726 569 726C569 726 569 726 569 726C569 726 569 726 569 726C569 726 569 726 569 726V726C569 726 569 726 569 726C569 726 569 726 569 726V726C569 726 569 726 569 726C569 726 569 726 569 726V726C569 726 569 726 569 726C569 726 569 726 569 726V726C569 726 569 726 569 726C569 726 569 726 569 726C569 726 569 726 569 726V726C569 726 569 726 569 726C569 726 569 726 569 726V726C569 726 569 726 569 726C569 726 569 726 569 726C569 726 569 726 569 726V726C569 726 569 726 569 726C569 726 569 726 569 726C569 726 569 726 569 726V726C569 726 569 726 569 726C569 726 569 726 569 726V726V726C569 726 569 726 569 726C569 726 569 726 569 726V726C569 726 569 726 569 726C569 726 569 726 569 726C569 726 569 726 569 726V726C569 726 569 726 569 726C569 726 569 726 569 726C569 726 569 726 569 726V726C569 726 569 726 569 726C569 726 569 726 569 726V726C569 726 569 726 569 726C569 726 569 726 569 726C569 726 569 726 569 726V726C569 726 569 726 569 726C569 726 569 726 569 726V726C569 726 569 726 569 726C569 726 569 726 569 726V726C569 726 569 726 569 726C569 726 569 726 569 726V726C569 726 569 726 569 726C569 726 569 726 569 726C569 726 569 726 569 726C569 726 569 726 569 726V726C569 726 569 726 569 726C569 726 569 726 569 726H581ZM581 1006V726H569V1006H581ZM655 1080C614.131 1080 581 1046.87 581 1006H569C569 1053.5 607.504 1092 655 1092V1080ZM791.364 1080H655V1092H791.364V1080ZM865.364 1006C865.364 1046.87 832.233 1080 791.364 1080V1092C838.86 1092 877.364 1053.5 877.364 1006H865.364ZM865.364 726V1006H877.364V726H865.364Z" fill="black" mask="url(#path-1-inside-1_340_3807)"/>
<path d="M593.182 761.959C593.182 752.14 601.944 744.638 611.645 746.15L719.645 762.981C727.437 764.195 733.182 770.905 733.182 778.79V1063.64C733.182 1072.47 726.018 1079.64 717.182 1079.64H657.182C621.835 1079.64 593.182 1050.98 593.182 1015.64V761.959Z" fill="white" fill-opacity="0.25"/>
<path opacity="0.2" d="M859.545 743.272L811.363 757.818V1079.64V1079.64C837.973 1079.64 859.545 1058.06 859.545 1031.45V743.272Z" fill="black" fill-opacity="0.25"/>
<path d="M868.364 726C868.364 730.39 865.256 735.225 858.029 740.152C850.901 745.012 840.39 749.507 827.131 753.33C800.654 760.964 763.902 765.727 723.182 765.727C682.462 765.727 645.709 760.964 619.233 753.33C605.974 749.507 595.463 745.012 588.335 740.152C581.107 735.225 578 730.39 578 726C578 721.61 581.107 716.774 588.335 711.847C595.463 706.988 605.974 702.493 619.233 698.67C645.709 691.035 682.462 686.272 723.182 686.272C763.902 686.272 800.654 691.035 827.131 698.67C840.39 702.493 850.901 706.988 858.029 711.847C865.256 716.774 868.364 721.61 868.364 726Z" fill="white" fill-opacity="0.25" stroke="black" stroke-width="6"/>
<path d="M850.182 724.636C850.182 725.813 849.685 727.193 848.281 728.8C846.86 730.427 844.628 732.14 841.512 733.866C835.281 737.317 826.066 740.522 814.421 743.25C791.18 748.695 758.92 752.091 723.182 752.091C687.443 752.091 655.184 748.695 631.942 743.25C620.297 740.522 611.082 737.317 604.851 733.866C601.735 732.14 599.504 730.427 598.082 728.8C596.678 727.193 596.182 725.813 596.182 724.636C596.182 723.459 596.678 722.08 598.082 720.472C599.504 718.845 601.735 717.132 604.851 715.406C611.082 711.955 620.297 708.75 631.942 706.022C655.184 700.578 687.443 697.182 723.182 697.182C758.92 697.182 791.18 700.578 814.421 706.022C826.066 708.75 835.281 711.955 841.512 715.406C844.628 717.132 846.86 718.845 848.281 720.472C849.685 722.08 850.182 723.459 850.182 724.636Z" fill="#929292" stroke="black" stroke-width="6"/>
<mask id="mask0_340_3807" style="mask-type:alpha" maskUnits="userSpaceOnUse" x="593" y="688" width="261" height="62">
<path d="M850.182 719.182C850.182 720.359 849.685 721.738 848.281 723.346C846.86 724.973 844.628 726.686 841.512 728.412C835.281 731.863 826.066 735.068 814.421 737.796C791.18 743.241 758.92 746.637 723.182 746.637C687.443 746.637 655.184 743.241 631.942 737.796C620.297 735.068 611.082 731.863 604.851 728.412C601.735 726.686 599.504 724.973 598.082 723.346C596.678 721.738 596.182 720.359 596.182 719.182C596.182 718.005 596.678 716.626 598.082 715.018C599.504 713.391 601.735 711.678 604.851 709.952C611.082 706.501 620.297 703.296 631.942 700.568C655.184 695.124 687.443 691.728 723.182 691.728C758.92 691.728 791.18 695.124 814.421 700.568C826.066 703.296 835.281 706.501 841.512 709.952C844.628 711.678 846.86 713.391 848.281 715.018C849.685 716.626 850.182 718.005 850.182 719.182Z" fill="#929292" stroke="black" stroke-width="6"/>
</mask>
<g mask="url(#mask0_340_3807)">
<path d="M835.728 744.182C835.728 747.987 833.163 752.009 827.565 756C822.017 759.956 813.86 763.6 803.601 766.695C783.106 772.875 754.674 776.728 723.182 776.728C691.691 776.728 663.258 772.875 642.764 766.695C632.504 763.6 624.347 759.956 618.799 756C613.202 752.009 610.637 747.987 610.637 744.182C610.637 740.377 613.202 736.355 618.799 732.364C624.347 728.408 632.504 724.764 642.764 721.67C663.258 715.489 691.691 711.637 723.182 711.637C754.674 711.637 783.106 715.489 803.601 721.67C813.86 724.764 822.017 728.408 827.565 732.364C833.163 736.355 835.728 740.377 835.728 744.182Z" fill="#5F3016" stroke="black" stroke-width="4"/>
<path d="M819.475 760.149C826.545 755.44 829.6 750.284 828.37 745.139C827.14 739.994 821.663 735.019 812.424 730.654C803.185 726.29 790.469 722.67 775.402 720.116C760.336 717.561 743.384 716.152 726.048 716.012C708.713 715.871 691.528 717.005 676.017 719.312C660.506 721.618 647.148 725.027 637.124 729.236C627.101 733.445 620.723 738.325 618.554 743.442C616.386 748.559 618.494 753.757 624.693 758.574L640.895 756.73C635.716 752.705 633.954 748.363 635.766 744.087C637.578 739.812 642.907 735.735 651.281 732.218C659.656 728.702 670.817 725.854 683.776 723.926C696.735 721.999 711.093 721.052 725.577 721.169C740.061 721.286 754.224 722.464 766.812 724.598C779.4 726.732 790.024 729.756 797.743 733.403C805.462 737.05 810.038 741.207 811.066 745.505C812.093 749.804 809.541 754.111 803.634 758.046L819.475 760.149Z" fill="white" fill-opacity="0.25"/>
</g>
<path fill-rule="evenodd" clip-rule="evenodd" d="M934.817 835.273C934.817 823.123 924.967 813.273 912.817 813.273H858.273C849.437 813.273 842.273 806.109 842.273 797.273V792.909C842.273 784.073 849.437 776.909 858.273 776.909H938.926C959.352 776.909 975.91 791.562 975.91 809.636V959.636C975.91 977.711 959.352 992.364 938.926 992.364H858.273C849.437 992.364 842.273 985.2 842.273 976.364V972C842.273 963.164 849.437 956 858.273 956H912.817C924.967 956 934.817 946.15 934.817 934V835.273Z" fill="#D7D6DC"/>
<path d="M858.273 816.273H912.817V810.273H858.273V816.273ZM839.273 792.909V797.273H845.273V792.909H839.273ZM938.926 773.909H858.273V779.909H938.926V773.909ZM978.91 809.636C978.91 789.571 960.653 773.909 938.926 773.909V779.909C958.05 779.909 972.91 793.553 972.91 809.636H978.91ZM978.91 959.636V809.636H972.91V959.636H978.91ZM938.926 995.364C960.653 995.364 978.91 979.702 978.91 959.636H972.91C972.91 975.72 958.05 989.364 938.926 989.364V995.364ZM858.273 995.364H938.926V989.364H858.273V995.364ZM839.273 972V976.364H845.273V972H839.273ZM912.817 953H858.273V959H912.817V953ZM931.817 835.273V934H937.817V835.273H931.817ZM912.817 959C926.624 959 937.817 947.807 937.817 934H931.817C931.817 944.493 923.31 953 912.817 953V959ZM845.273 972C845.273 964.82 851.094 959 858.273 959V953C847.78 953 839.273 961.507 839.273 972H845.273ZM858.273 989.364C851.094 989.364 845.273 983.543 845.273 976.364H839.273C839.273 986.857 847.78 995.364 858.273 995.364V989.364ZM845.273 792.909C845.273 785.729 851.094 779.909 858.273 779.909V773.909C847.78 773.909 839.273 782.416 839.273 792.909H845.273ZM912.817 816.273C923.31 816.273 931.817 824.779 931.817 835.273H937.817C937.817 821.466 926.624 810.273 912.817 810.273V816.273ZM858.273 810.273C851.094 810.273 845.273 804.453 845.273 797.273H839.273C839.273 807.766 847.78 816.273 858.273 816.273V810.273Z" fill="black"/>
<path opacity="0.25" fill-rule="evenodd" clip-rule="evenodd" d="M934.817 835.273C934.817 823.122 924.967 813.273 912.817 813.273H858.273C849.437 813.273 842.273 806.109 842.273 797.273V794.182H929.092C954.092 794.182 954.092 811 954.092 820.545V949.182C954.092 967.256 945.166 976 930.001 976H842.273V972C842.273 963.163 849.437 956 858.273 956H912.817C924.967 956 934.817 946.15 934.817 934V835.273Z" fill="black" fill-opacity="0.25"/>
<path d="M654.854 556C627.127 568.727 615.581 596.727 654.854 636C698.036 679.182 680.914 695.394 654.854 719.636" stroke="white" stroke-opacity="0.25" stroke-width="16" stroke-linecap="round" stroke-linejoin="round"/>
<path d="M703.931 564.182C679.046 576.273 668.685 602.873 703.931 640.182C742.685 681.204 727.319 696.606 703.931 719.636" stroke="white" stroke-opacity="0.25" stroke-width="16" stroke-linecap="round" stroke-linejoin="round"/>
<path d="M755.397 581.454C735.88 592.202 727.753 615.846 755.397 649.01C785.793 685.474 773.741 699.165 755.397 719.636" stroke="white" stroke-opacity="0.25" stroke-width="16" stroke-linecap="round" stroke-linejoin="round"/>
<path d="M626.473 874.085C638.884 874.085 648.945 863.545 648.945 850.543C648.945 837.54 638.884 827 626.473 827C614.061 827 604 837.54 604 850.543C604 863.545 614.061 874.085 626.473 874.085Z" fill="black"/>
<path d="M698.527 874.085C710.938 874.085 721 863.545 721 850.543C721 837.54 710.938 827 698.527 827C686.116 827 676.055 837.54 676.055 850.543C676.055 863.545 686.116 874.085 698.527 874.085Z" fill="black"/>
<ellipse rx="11.7713" ry="12.4848" transform="matrix(-1 0 0 1 692.108 849.473)" fill="white"/>
<ellipse rx="11.7713" ry="12.4848" transform="matrix(-1 0 0 1 618.625 849.473)" fill="white"/>
<path d="M695.969 902.692C698.337 905.711 700.334 908.925 701.848 912.149C703.361 915.374 704.36 918.546 704.788 921.485C705.217 924.424 705.065 927.072 704.343 929.278C703.621 931.484 702.343 933.205 700.581 934.342C698.818 935.479 696.607 936.01 694.073 935.905C691.539 935.8 688.731 935.061 685.811 933.73C682.89 932.399 679.914 930.502 677.052 928.148C674.19 925.794 671.499 923.028 669.131 920.009L682.55 911.35L695.969 902.692Z" fill="#E40303"/>
<path fill-rule="evenodd" clip-rule="evenodd" d="M698.149 913.538C697.262 911.65 696.19 909.755 694.958 907.901L674.888 920.851C676.414 922.515 678.036 924.055 679.712 925.434C682.343 927.598 685.013 929.286 687.545 930.44C690.089 931.599 692.335 932.148 694.166 932.224C695.966 932.299 697.273 931.919 698.208 931.316C699.143 930.713 699.967 929.717 700.48 928.151C701.001 926.556 701.166 924.452 700.793 921.892C700.422 919.344 699.54 916.502 698.149 913.538ZM671.62 922.959C670.758 922.008 669.926 921.023 669.131 920.009L695.969 902.692C696.764 903.706 697.518 904.742 698.225 905.793C699.624 907.871 700.843 910.008 701.848 912.149C703.361 915.374 704.36 918.546 704.788 921.485C705.217 924.424 705.065 927.072 704.343 929.278C703.621 931.484 702.343 933.205 700.581 934.342C698.818 935.479 696.607 936.01 694.073 935.905C691.539 935.8 688.731 935.061 685.811 933.73C682.89 932.399 679.914 930.502 677.052 928.148C675.152 926.584 673.326 924.839 671.62 922.959Z" fill="black"/>
<path d="M682.063 917.44L672.16 921.488L690.749 933.626L682.063 917.44Z" fill="black" fill-opacity="0.5"/>
<path fill-rule="evenodd" clip-rule="evenodd" d="M621.69 895C623.728 895 625.38 896.563 625.38 898.491C625.38 900.641 626.082 902.855 627.583 905.027C629.095 907.213 631.395 909.315 634.458 911.15C637.518 912.983 641.221 914.477 645.376 915.508C649.528 916.538 654.005 917.074 658.544 917.074C663.082 917.074 667.559 916.538 671.711 915.508C675.866 914.477 679.569 912.983 682.629 911.15C685.693 909.315 687.992 907.213 689.504 905.027C691.006 902.855 691.707 900.641 691.707 898.491C691.707 896.563 693.36 895 695.397 895C697.435 895 699.087 896.563 699.087 898.491C699.087 902.138 697.883 905.664 695.68 908.849C693.488 912.019 690.358 914.784 686.577 917.048C682.793 919.315 678.371 921.073 673.583 922.261C668.792 923.449 663.684 924.055 658.544 924.055C653.403 924.055 648.295 923.449 643.504 922.261C638.717 921.073 634.295 919.315 630.51 917.048C626.729 914.784 623.599 912.019 621.407 908.849C619.205 905.664 618 902.138 618 898.491C618 896.563 619.652 895 621.69 895Z" fill="black"/>
</g>
<defs>
<clipPath id="clip0_340_3807">
<rect width="1000" height="1000" fill="white"/>
</clipPath>
</defs>
</svg>
