<svg width="1000" height="1015" viewBox="0 0 1000 1015" fill="none" xmlns="http://www.w3.org/2000/svg">
<rect x="768" y="422" width="22" height="651" fill="#FF8C00" stroke="black" stroke-width="4"/>
<rect x="584" y="456.73" width="391" height="300" fill="#FFF2D0" stroke="black" stroke-width="8"/>
<rect x="584" y="456.73" width="20" height="300" fill="black" fill-opacity="0.25"/>
<path d="M875.893 607.202C875.893 660.603 832.603 703.893 779.202 703.893C725.801 703.893 682.511 660.603 682.511 607.202C682.511 553.801 725.801 510.511 779.202 510.511C832.603 510.511 875.893 553.801 875.893 607.202Z" fill="#FFBF74"/>
<path fill-rule="evenodd" clip-rule="evenodd" d="M779.202 512.022C726.635 512.022 684.022 554.635 684.022 607.202C684.022 659.768 726.635 702.382 779.202 702.382C831.768 702.382 874.382 659.768 874.382 607.202C874.382 554.635 831.768 512.022 779.202 512.022ZM681 607.202C681 552.966 724.966 509 779.202 509C833.437 509 877.404 552.966 877.404 607.202C877.404 661.437 833.437 705.404 779.202 705.404C724.966 705.404 681 661.437 681 607.202Z" fill="black"/>
<path fill-rule="evenodd" clip-rule="evenodd" d="M779.202 515.043C728.304 515.043 687.043 556.304 687.043 607.202C687.043 658.099 728.304 699.36 779.202 699.36C830.1 699.36 871.361 658.099 871.361 607.202C871.361 556.304 830.1 515.043 779.202 515.043ZM684.022 607.202C684.022 554.635 726.635 512.021 779.202 512.021C831.768 512.021 874.382 554.635 874.382 607.202C874.382 659.768 831.768 702.382 779.202 702.382C726.635 702.382 684.022 659.768 684.022 607.202Z" fill="#DD933C"/>
<path d="M847.573 538.831C865.706 556.964 875.893 581.558 875.893 607.202C875.893 632.846 865.706 657.439 847.573 675.572C829.44 693.705 804.846 703.893 779.202 703.893C753.558 703.893 728.964 693.706 710.831 675.572L779.202 607.202L847.573 538.831Z" fill="black" fill-opacity="0.25"/>
<path d="M861.993 607.202C861.993 652.926 824.926 689.993 779.202 689.993C733.477 689.993 696.41 652.926 696.41 607.202C696.41 561.477 733.477 524.41 779.202 524.41C824.926 524.41 861.993 561.477 861.993 607.202Z" fill="#F86848"/>
<path fill-rule="evenodd" clip-rule="evenodd" d="M779.202 525.921C734.312 525.921 697.921 562.312 697.921 607.202C697.921 652.092 734.312 688.483 779.202 688.483C824.092 688.483 860.483 652.092 860.483 607.202C860.483 562.312 824.092 525.921 779.202 525.921ZM694.899 607.202C694.899 560.643 732.643 522.899 779.202 522.899C825.761 522.899 863.504 560.643 863.504 607.202C863.504 653.761 825.761 691.504 779.202 691.504C732.643 691.504 694.899 653.761 694.899 607.202Z" fill="black"/>
<path d="M854.742 606.812C854.742 618.032 852.36 628.695 848.075 638.324C844.002 647.475 832.761 650.844 825.66 657.716C819.57 663.609 821.905 673.361 814.149 677.017C804.13 681.74 789 677.017 777.191 677.017C765.381 677.017 754.189 681.74 744.171 677.017C734.375 672.4 729.388 662.763 722.359 654.686C718.352 650.081 711.193 648.029 708.351 642.566C702.785 631.867 702.749 619.707 702.749 606.812C702.749 599.238 700.725 591.917 702.749 584.997C705.929 574.121 715.114 568.779 722.359 560.454C727.451 554.603 718.341 541.504 738.179 543.855C739.306 543.989 740.472 543.783 741.388 543.115C746.423 539.442 749.779 533.941 755.985 532.181C762.725 530.268 769.838 529.245 777.191 529.245C784.543 529.245 788.021 534.695 794.761 536.607C798.648 537.71 805.703 535.101 809.635 536.38C810.026 536.508 810.429 536.647 810.832 536.728C831.058 540.811 828.55 555.08 836.263 566.514C844.608 578.886 854.742 590.765 854.742 606.812Z" fill="#FFF2D0"/>
<path fill-rule="evenodd" clip-rule="evenodd" d="M777.19 530.152C769.923 530.152 762.892 531.163 756.232 533.053C753.333 533.875 751.068 535.577 748.859 537.599C748.211 538.193 747.559 538.823 746.895 539.466C745.342 540.967 743.722 542.535 741.922 543.847C740.778 544.682 739.367 544.909 738.072 544.756C733.169 544.175 730.232 544.576 728.453 545.448C726.754 546.282 726.002 547.605 725.623 549.279C725.43 550.135 725.339 551.069 725.276 552.068C725.254 552.419 725.235 552.785 725.216 553.157C725.183 553.814 725.148 554.491 725.093 555.139C724.918 557.188 724.516 559.356 723.043 561.049C721.203 563.164 719.245 565.082 717.312 566.927C716.918 567.303 716.525 567.675 716.135 568.046C714.602 569.501 713.103 570.923 711.682 572.398C708.13 576.084 705.15 580.013 703.618 585.251C702.653 588.554 702.643 591.985 702.894 595.596C702.973 596.736 703.079 597.904 703.188 599.09C703.417 601.609 703.655 604.212 703.655 606.813C703.655 619.752 703.709 631.679 709.155 642.148C710.459 644.654 712.777 646.423 715.422 648.195C715.804 648.451 716.194 648.707 716.588 648.966C718.854 650.455 721.25 652.03 723.043 654.091C724.822 656.135 726.467 658.273 728.076 660.384C728.22 660.572 728.363 660.761 728.506 660.948C729.971 662.873 731.411 664.765 732.922 666.567C736.235 670.519 739.83 673.97 744.557 676.198C749.335 678.45 754.432 678.472 759.913 677.887C761.608 677.706 763.354 677.464 765.135 677.216C769.031 676.676 773.098 676.111 777.19 676.111C781.123 676.111 785.463 676.633 789.799 677.154C792.027 677.421 794.253 677.689 796.423 677.886C802.923 678.475 808.992 678.446 813.762 676.198C817.263 674.548 818.523 671.547 819.665 667.933C819.788 667.544 819.909 667.147 820.032 666.745C821.028 663.489 822.138 659.863 825.029 657.065C827.744 654.438 831.073 652.294 834.302 650.214C835.387 649.515 836.46 648.824 837.495 648.124C841.678 645.295 845.32 642.285 847.247 637.956C851.481 628.441 853.835 617.903 853.835 606.813C853.835 598.991 851.368 592.161 847.837 585.721C845.29 581.077 842.223 576.688 839.137 572.272C837.921 570.531 836.702 568.787 835.511 567.021C833.524 564.075 832.205 560.96 831.034 557.938C830.805 557.346 830.582 556.76 830.362 556.179C829.445 553.768 828.566 551.456 827.436 549.283C826.046 546.612 824.299 544.206 821.703 542.217C819.104 540.227 815.603 538.616 810.653 537.617C810.241 537.534 809.832 537.4 809.491 537.287C809.444 537.272 809.398 537.257 809.354 537.243C808.519 536.971 807.465 536.891 806.232 536.937C805.005 536.983 803.673 537.149 802.297 537.327C802.22 537.337 802.143 537.347 802.065 537.357C800.779 537.523 799.457 537.695 798.221 537.762C796.917 537.834 795.629 537.796 794.513 537.48C791.582 536.648 789.221 535.166 787.037 533.794C786.597 533.517 786.163 533.245 785.734 532.984C783.147 531.409 780.614 530.152 777.19 530.152ZM755.738 531.309C762.557 529.374 769.754 528.339 777.19 528.339C781.119 528.339 784.002 529.807 786.676 531.435C787.145 531.72 787.605 532.008 788.061 532.295C790.24 533.66 792.348 534.981 795.008 535.735C795.836 535.97 796.887 536.02 798.122 535.952C799.288 535.888 800.548 535.725 801.855 535.556L802.064 535.529C803.429 535.352 804.842 535.175 806.164 535.125C807.481 535.076 808.783 535.15 809.915 535.519C809.964 535.535 810.012 535.55 810.059 535.566C810.412 535.681 810.712 535.779 811.012 535.84C816.174 536.882 819.944 538.587 822.805 540.777C825.667 542.97 827.568 545.611 829.044 548.446C830.228 550.722 831.153 553.158 832.073 555.578C832.289 556.148 832.506 556.717 832.725 557.283C833.885 560.28 835.145 563.237 837.014 566.007C838.168 567.718 839.364 569.43 840.568 571.153C843.675 575.599 846.83 580.113 849.426 584.849C853.048 591.453 855.648 598.587 855.648 606.813C855.648 618.162 853.239 628.95 848.903 638.693C846.757 643.515 842.742 646.765 838.511 649.626C837.397 650.379 836.273 651.103 835.159 651.821C831.973 653.874 828.864 655.876 826.29 658.367C823.756 660.82 822.783 663.977 821.767 667.277C821.644 667.676 821.52 668.077 821.394 668.479C820.241 672.128 818.791 675.832 814.535 677.838C809.286 680.312 802.781 680.282 796.259 679.691C793.966 679.483 791.678 679.208 789.423 678.936C785.162 678.423 781.021 677.924 777.19 677.924C773.223 677.924 769.372 678.46 765.542 678.992C763.729 679.244 761.92 679.496 760.105 679.69C754.533 680.285 749.024 680.308 743.784 677.838C738.715 675.449 734.92 671.772 731.533 667.732C729.993 665.895 728.527 663.969 727.066 662.051C726.922 661.861 726.778 661.672 726.634 661.483C725.025 659.371 723.411 657.276 721.675 655.281C720.06 653.425 717.906 652.006 715.632 650.508C715.229 650.243 714.822 649.975 714.414 649.701C711.767 647.93 709.085 645.941 707.547 642.985C701.861 632.055 701.842 619.662 701.842 606.813C701.842 604.294 701.617 601.835 701.391 599.363C701.281 598.156 701.17 596.945 701.085 595.722C700.83 592.05 700.821 588.36 701.878 584.742C703.527 579.104 706.73 574.925 710.377 571.14C711.829 569.633 713.365 568.175 714.902 566.717C715.288 566.35 715.675 565.983 716.06 565.616C717.986 563.778 719.893 561.907 721.675 559.859C722.748 558.626 723.117 556.963 723.286 554.985C723.339 554.361 723.371 553.747 723.403 553.117C723.422 552.737 723.442 552.351 723.467 551.954C723.531 550.93 723.629 549.88 723.855 548.879C724.315 546.842 725.324 544.964 727.655 543.821C729.907 542.716 733.27 542.361 738.286 542.955C739.244 543.069 740.165 542.885 740.854 542.383C742.549 541.146 744.019 539.724 745.527 538.264C746.214 537.6 746.908 536.928 747.635 536.262C749.914 534.176 752.431 532.247 755.738 531.309Z" fill="#5F3016"/>
<path opacity="0.2" d="M870.567 603.651C870.567 617.266 867.209 630.671 860.791 642.679C854.373 654.686 845.092 664.926 833.772 672.49C822.451 680.054 809.44 684.709 795.89 686.044C782.34 687.378 768.671 685.351 756.092 680.14C743.513 674.93 732.414 666.698 723.776 656.173C715.139 645.649 709.23 633.156 706.574 619.803C703.918 606.449 704.596 592.647 708.548 579.618C712.501 566.589 719.605 554.736 729.233 545.108L787.775 603.651H870.567Z" fill="black" fill-opacity="0.25"/>
<path d="M788.871 555.23C788.871 563.574 782.107 570.338 773.763 570.338C765.419 570.338 758.655 563.574 758.655 555.23C758.655 546.886 765.419 540.122 773.763 540.122C782.107 540.122 788.871 546.886 788.871 555.23Z" fill="#E40303"/>
<path fill-rule="evenodd" clip-rule="evenodd" d="M773.763 569.129C781.439 569.129 787.662 562.906 787.662 555.23C787.662 547.554 781.439 541.331 773.763 541.331C766.086 541.331 759.863 547.554 759.863 555.23C759.863 562.906 766.086 569.129 773.763 569.129ZM773.763 570.338C782.107 570.338 788.871 563.574 788.871 555.23C788.871 546.886 782.107 540.122 773.763 540.122C765.419 540.122 758.655 546.886 758.655 555.23C758.655 563.574 765.419 570.338 773.763 570.338Z" fill="black"/>
<path d="M773.763 549.187C773.763 546.517 771.598 544.352 768.928 544.352C766.258 544.352 764.094 546.517 764.094 549.187C764.094 551.857 766.258 554.021 768.928 554.021C771.598 554.021 773.763 551.857 773.763 549.187Z" fill="#F86848"/>
<path d="M768.928 558.855C768.928 557.52 767.846 556.438 766.511 556.438C765.176 556.438 764.094 557.52 764.094 558.855C764.094 560.19 765.176 561.272 766.511 561.272C767.846 561.272 768.928 560.19 768.928 558.855Z" fill="#F86848"/>
<path d="M782.223 561.273C782.223 557.936 779.517 555.23 776.18 555.23C772.842 555.23 770.137 557.936 770.137 561.273C770.137 564.611 772.842 567.316 776.18 567.316C779.517 567.316 782.223 564.611 782.223 561.273Z" fill="#F86848"/>
<path d="M781.619 553.417C781.619 551.748 780.266 550.395 778.597 550.395C776.928 550.395 775.576 551.748 775.576 553.417C775.576 555.086 776.928 556.438 778.597 556.438C780.266 556.438 781.619 555.086 781.619 553.417Z" fill="#F86848"/>
<path d="M780.41 545.56C780.41 544.225 779.328 543.143 777.993 543.143C776.658 543.143 775.576 544.225 775.576 545.56C775.576 546.895 776.658 547.978 777.993 547.978C779.328 547.978 780.41 546.895 780.41 545.56Z" fill="#F86848"/>
<path d="M785.849 557.042C785.849 556.375 785.308 555.834 784.64 555.834C783.973 555.834 783.432 556.375 783.432 557.042C783.432 557.71 783.973 558.251 784.64 558.251C785.308 558.251 785.849 557.71 785.849 557.042Z" fill="#F86848"/>
<path d="M773.763 540.122C776.751 540.122 779.672 541.008 782.156 542.668C784.641 544.328 786.577 546.688 787.721 549.448C788.864 552.209 789.163 555.247 788.58 558.177C787.997 561.108 786.559 563.8 784.446 565.913C782.333 568.026 779.641 569.465 776.71 570.048C773.779 570.631 770.742 570.331 767.981 569.188C765.221 568.044 762.861 566.108 761.201 563.624C759.541 561.139 758.655 558.218 758.655 555.23L761.05 555.23C761.05 557.744 761.796 560.202 763.192 562.293C764.589 564.383 766.575 566.013 768.898 566.975C771.221 567.937 773.777 568.189 776.243 567.699C778.709 567.208 780.974 565.997 782.752 564.219C784.53 562.441 785.741 560.176 786.231 557.71C786.722 555.244 786.47 552.688 785.508 550.365C784.546 548.042 782.916 546.057 780.826 544.66C778.735 543.263 776.277 542.517 773.763 542.517V540.122Z" fill="black" fill-opacity="0.25"/>
<path d="M742.943 609.619C742.943 617.963 736.179 624.727 727.835 624.727C719.491 624.727 712.727 617.963 712.727 609.619C712.727 601.275 719.491 594.511 727.835 594.511C736.179 594.511 742.943 601.275 742.943 609.619Z" fill="#E40303"/>
<path fill-rule="evenodd" clip-rule="evenodd" d="M727.835 623.518C735.511 623.518 741.734 617.295 741.734 609.619C741.734 601.942 735.511 595.719 727.835 595.719C720.158 595.719 713.935 601.942 713.935 609.619C713.935 617.295 720.158 623.518 727.835 623.518ZM727.835 624.727C736.179 624.727 742.943 617.963 742.943 609.619C742.943 601.275 736.179 594.511 727.835 594.511C719.491 594.511 712.727 601.275 712.727 609.619C712.727 617.963 719.491 624.727 727.835 624.727Z" fill="black"/>
<path d="M727.835 603.576C727.835 600.906 725.67 598.741 723 598.741C720.33 598.741 718.166 600.906 718.166 603.576C718.166 606.246 720.33 608.41 723 608.41C725.67 608.41 727.835 606.246 727.835 603.576Z" fill="#F86848"/>
<path d="M723 613.245C723 611.91 721.918 610.828 720.583 610.828C719.248 610.828 718.166 611.91 718.166 613.245C718.166 614.58 719.248 615.662 720.583 615.662C721.918 615.662 723 614.58 723 613.245Z" fill="#F86848"/>
<path d="M736.295 615.662C736.295 612.324 733.589 609.619 730.252 609.619C726.914 609.619 724.209 612.324 724.209 615.662C724.209 618.999 726.914 621.705 730.252 621.705C733.589 621.705 736.295 618.999 736.295 615.662Z" fill="#F86848"/>
<path d="M735.691 607.806C735.691 606.137 734.338 604.784 732.669 604.784C731.001 604.784 729.648 606.137 729.648 607.806C729.648 609.474 731.001 610.827 732.669 610.827C734.338 610.827 735.691 609.474 735.691 607.806Z" fill="#F86848"/>
<path d="M734.482 599.95C734.482 598.615 733.4 597.533 732.065 597.533C730.73 597.533 729.648 598.615 729.648 599.95C729.648 601.285 730.73 602.367 732.065 602.367C733.4 602.367 734.482 601.285 734.482 599.95Z" fill="#F86848"/>
<path d="M739.921 611.432C739.921 610.764 739.38 610.223 738.712 610.223C738.045 610.223 737.504 610.764 737.504 611.432C737.504 612.099 738.045 612.641 738.712 612.641C739.38 612.641 739.921 612.099 739.921 611.432Z" fill="#F86848"/>
<path d="M727.835 594.511C730.823 594.511 733.744 595.397 736.228 597.057C738.713 598.717 740.649 601.077 741.793 603.837C742.936 606.598 743.235 609.635 742.652 612.566C742.069 615.497 740.631 618.189 738.518 620.302C736.405 622.415 733.713 623.853 730.782 624.436C727.852 625.019 724.814 624.72 722.053 623.577C719.293 622.433 716.933 620.497 715.273 618.012C713.613 615.528 712.727 612.607 712.727 609.619L715.122 609.619C715.122 612.133 715.868 614.591 717.264 616.682C718.661 618.772 720.647 620.402 722.97 621.364C725.293 622.326 727.849 622.578 730.315 622.087C732.781 621.597 735.046 620.386 736.824 618.608C738.602 616.83 739.813 614.565 740.303 612.099C740.794 609.633 740.542 607.077 739.58 604.754C738.618 602.431 736.988 600.445 734.898 599.048C732.807 597.652 730.349 596.906 727.835 596.906V594.511Z" fill="black" fill-opacity="0.25"/>
<path d="M767.72 653.129C767.72 661.473 760.956 668.237 752.612 668.237C744.268 668.237 737.504 661.473 737.504 653.129C737.504 644.786 744.268 638.021 752.612 638.021C760.956 638.021 767.72 644.786 767.72 653.129Z" fill="#E40303"/>
<path fill-rule="evenodd" clip-rule="evenodd" d="M752.612 667.029C760.288 667.029 766.511 660.806 766.511 653.129C766.511 645.453 760.288 639.23 752.612 639.23C744.935 639.23 738.712 645.453 738.712 653.129C738.712 660.806 744.935 667.029 752.612 667.029ZM752.612 668.237C760.956 668.237 767.72 661.473 767.72 653.129C767.72 644.786 760.956 638.021 752.612 638.021C744.268 638.021 737.504 644.786 737.504 653.129C737.504 661.473 744.268 668.237 752.612 668.237Z" fill="black"/>
<path d="M752.612 647.086C752.612 644.416 750.447 642.252 747.777 642.252C745.107 642.252 742.943 644.416 742.943 647.086C742.943 649.756 745.107 651.921 747.777 651.921C750.447 651.921 752.612 649.756 752.612 647.086Z" fill="#F86848"/>
<path d="M747.777 656.756C747.777 655.421 746.695 654.338 745.36 654.338C744.025 654.338 742.943 655.421 742.943 656.756C742.943 658.091 744.025 659.173 745.36 659.173C746.695 659.173 747.777 658.091 747.777 656.756Z" fill="#F86848"/>
<path d="M761.072 659.173C761.072 655.835 758.367 653.129 755.029 653.129C751.691 653.129 748.986 655.835 748.986 659.173C748.986 662.51 751.691 665.216 755.029 665.216C758.367 665.216 761.072 662.51 761.072 659.173Z" fill="#F86848"/>
<path d="M760.468 651.316C760.468 649.648 759.115 648.295 757.446 648.295C755.778 648.295 754.425 649.648 754.425 651.316C754.425 652.985 755.778 654.338 757.446 654.338C759.115 654.338 760.468 652.985 760.468 651.316Z" fill="#F86848"/>
<path d="M759.259 643.461C759.259 642.126 758.177 641.043 756.842 641.043C755.507 641.043 754.425 642.126 754.425 643.461C754.425 644.796 755.507 645.878 756.842 645.878C758.177 645.878 759.259 644.796 759.259 643.461Z" fill="#F86848"/>
<path d="M764.698 654.943C764.698 654.275 764.157 653.734 763.489 653.734C762.822 653.734 762.281 654.275 762.281 654.943C762.281 655.61 762.822 656.151 763.489 656.151C764.157 656.151 764.698 655.61 764.698 654.943Z" fill="#F86848"/>
<path d="M752.612 638.021C755.6 638.021 758.521 638.908 761.005 640.568C763.49 642.228 765.426 644.587 766.57 647.348C767.713 650.109 768.012 653.146 767.429 656.077C766.846 659.008 765.407 661.7 763.295 663.812C761.182 665.925 758.49 667.364 755.559 667.947C752.628 668.53 749.591 668.231 746.83 667.087C744.069 665.944 741.71 664.007 740.05 661.523C738.39 659.038 737.504 656.117 737.504 653.129L739.899 653.129C739.899 655.644 740.644 658.102 742.041 660.192C743.438 662.283 745.424 663.912 747.747 664.875C750.07 665.837 752.626 666.088 755.092 665.598C757.558 665.107 759.823 663.897 761.601 662.119C763.379 660.341 764.59 658.076 765.08 655.61C765.571 653.144 765.319 650.587 764.357 648.264C763.394 645.942 761.765 643.956 759.674 642.559C757.584 641.162 755.126 640.417 752.612 640.417V638.021Z" fill="black" fill-opacity="0.25"/>
<path d="M796.123 622.914C796.123 631.258 789.359 638.022 781.015 638.022C772.671 638.022 765.907 631.258 765.907 622.914C765.907 614.57 772.671 607.806 781.015 607.806C789.359 607.806 796.123 614.57 796.123 622.914Z" fill="#E40303"/>
<path fill-rule="evenodd" clip-rule="evenodd" d="M781.015 636.813C788.691 636.813 794.914 630.59 794.914 622.914C794.914 615.237 788.691 609.014 781.015 609.014C773.338 609.014 767.115 615.237 767.115 622.914C767.115 630.59 773.338 636.813 781.015 636.813ZM781.015 638.022C789.359 638.022 796.123 631.258 796.123 622.914C796.123 614.57 789.359 607.806 781.015 607.806C772.671 607.806 765.907 614.57 765.907 622.914C765.907 631.258 772.671 638.022 781.015 638.022Z" fill="black"/>
<path d="M781.015 616.871C781.015 614.2 778.85 612.036 776.18 612.036C773.51 612.036 771.346 614.2 771.346 616.871C771.346 619.541 773.51 621.705 776.18 621.705C778.85 621.705 781.015 619.541 781.015 616.871Z" fill="#F86848"/>
<path d="M776.18 626.54C776.18 625.205 775.098 624.122 773.763 624.122C772.428 624.122 771.346 625.205 771.346 626.54C771.346 627.875 772.428 628.957 773.763 628.957C775.098 628.957 776.18 627.875 776.18 626.54Z" fill="#F86848"/>
<path d="M789.475 628.957C789.475 625.619 786.77 622.914 783.432 622.914C780.095 622.914 777.389 625.619 777.389 628.957C777.389 632.294 780.095 635 783.432 635C786.77 635 789.475 632.294 789.475 628.957Z" fill="#F86848"/>
<path d="M788.871 621.1C788.871 619.432 787.518 618.079 785.849 618.079C784.18 618.079 782.828 619.432 782.828 621.1C782.828 622.769 784.18 624.122 785.849 624.122C787.518 624.122 788.871 622.769 788.871 621.1Z" fill="#F86848"/>
<path d="M787.662 613.245C787.662 611.91 786.58 610.828 785.245 610.828C783.91 610.828 782.828 611.91 782.828 613.245C782.828 614.58 783.91 615.662 785.245 615.662C786.58 615.662 787.662 614.58 787.662 613.245Z" fill="#F86848"/>
<path d="M793.101 624.727C793.101 624.059 792.56 623.518 791.892 623.518C791.225 623.518 790.684 624.059 790.684 624.727C790.684 625.394 791.225 625.936 791.892 625.936C792.56 625.936 793.101 625.394 793.101 624.727Z" fill="#F86848"/>
<path d="M781.015 607.806C784.003 607.806 786.924 608.692 789.408 610.352C791.893 612.012 793.829 614.371 794.973 617.132C796.116 619.893 796.415 622.93 795.832 625.861C795.249 628.792 793.811 631.484 791.698 633.597C789.585 635.709 786.893 637.148 783.962 637.731C781.031 638.314 777.994 638.015 775.233 636.872C772.472 635.728 770.113 633.792 768.453 631.307C766.793 628.823 765.907 625.902 765.907 622.914L768.302 622.914C768.302 625.428 769.048 627.886 770.444 629.976C771.841 632.067 773.827 633.696 776.15 634.659C778.473 635.621 781.029 635.873 783.495 635.382C785.961 634.892 788.226 633.681 790.004 631.903C791.782 630.125 792.993 627.86 793.483 625.394C793.974 622.928 793.722 620.372 792.76 618.049C791.798 615.726 790.168 613.74 788.078 612.343C785.987 610.946 783.529 610.201 781.015 610.201V607.806Z" fill="black" fill-opacity="0.25"/>
<path d="M815.461 654.337C815.461 662.681 808.697 669.445 800.353 669.445C792.009 669.445 785.245 662.681 785.245 654.337C785.245 645.994 792.009 639.229 800.353 639.229C808.697 639.229 815.461 645.994 815.461 654.337Z" fill="#E40303"/>
<path fill-rule="evenodd" clip-rule="evenodd" d="M800.353 668.237C808.029 668.237 814.252 662.014 814.252 654.337C814.252 646.661 808.029 640.438 800.353 640.438C792.676 640.438 786.454 646.661 786.454 654.337C786.454 662.014 792.676 668.237 800.353 668.237ZM800.353 669.445C808.697 669.445 815.461 662.681 815.461 654.337C815.461 645.994 808.697 639.229 800.353 639.229C792.009 639.229 785.245 645.994 785.245 654.337C785.245 662.681 792.009 669.445 800.353 669.445Z" fill="black"/>
<path d="M800.353 648.294C800.353 645.624 798.188 643.46 795.518 643.46C792.848 643.46 790.684 645.624 790.684 648.294C790.684 650.964 792.848 653.129 795.518 653.129C798.188 653.129 800.353 650.964 800.353 648.294Z" fill="#F86848"/>
<path d="M795.518 657.963C795.518 656.628 794.436 655.545 793.101 655.545C791.766 655.545 790.684 656.628 790.684 657.963C790.684 659.298 791.766 660.38 793.101 660.38C794.436 660.38 795.518 659.298 795.518 657.963Z" fill="#F86848"/>
<path d="M808.813 660.381C808.813 657.043 806.108 654.337 802.77 654.337C799.433 654.337 796.727 657.043 796.727 660.381C796.727 663.718 799.433 666.424 802.77 666.424C806.108 666.424 808.813 663.718 808.813 660.381Z" fill="#F86848"/>
<path d="M808.209 652.524C808.209 650.856 806.856 649.503 805.187 649.503C803.519 649.503 802.166 650.856 802.166 652.524C802.166 654.193 803.519 655.546 805.187 655.546C806.856 655.546 808.209 654.193 808.209 652.524Z" fill="#F86848"/>
<path d="M807 644.668C807 643.333 805.918 642.25 804.583 642.25C803.248 642.25 802.166 643.333 802.166 644.668C802.166 646.003 803.248 647.085 804.583 647.085C805.918 647.085 807 646.003 807 644.668Z" fill="#F86848"/>
<path d="M812.439 656.15C812.439 655.482 811.898 654.941 811.231 654.941C810.563 654.941 810.022 655.482 810.022 656.15C810.022 656.817 810.563 657.358 811.231 657.358C811.898 657.358 812.439 656.817 812.439 656.15Z" fill="#F86848"/>
<path d="M800.353 639.229C803.341 639.229 806.262 640.116 808.746 641.776C811.231 643.436 813.167 645.795 814.311 648.556C815.454 651.317 815.753 654.354 815.171 657.285C814.588 660.216 813.149 662.908 811.036 665.02C808.923 667.133 806.231 668.572 803.3 669.155C800.37 669.738 797.332 669.439 794.571 668.295C791.811 667.152 789.451 665.215 787.791 662.731C786.131 660.246 785.245 657.326 785.245 654.337L787.64 654.337C787.64 656.852 788.386 659.31 789.783 661.4C791.179 663.491 793.165 665.12 795.488 666.083C797.811 667.045 800.367 667.296 802.833 666.806C805.299 666.315 807.564 665.105 809.342 663.327C811.12 661.549 812.331 659.284 812.821 656.818C813.312 654.352 813.06 651.795 812.098 649.473C811.136 647.15 809.506 645.164 807.416 643.767C805.325 642.37 802.867 641.625 800.353 641.625V639.229Z" fill="black" fill-opacity="0.25"/>
<path d="M842.655 628.353C842.655 636.697 835.891 643.461 827.547 643.461C819.204 643.461 812.439 636.697 812.439 628.353C812.439 620.009 819.204 613.245 827.547 613.245C835.891 613.245 842.655 620.009 842.655 628.353Z" fill="#E40303"/>
<path fill-rule="evenodd" clip-rule="evenodd" d="M827.547 642.252C835.224 642.252 841.447 636.029 841.447 628.353C841.447 620.677 835.224 614.454 827.547 614.454C819.871 614.454 813.648 620.677 813.648 628.353C813.648 636.029 819.871 642.252 827.547 642.252ZM827.547 643.461C835.891 643.461 842.655 636.697 842.655 628.353C842.655 620.009 835.891 613.245 827.547 613.245C819.204 613.245 812.439 620.009 812.439 628.353C812.439 636.697 819.204 643.461 827.547 643.461Z" fill="black"/>
<path d="M827.547 622.31C827.547 619.64 825.383 617.475 822.713 617.475C820.043 617.475 817.878 619.64 817.878 622.31C817.878 624.98 820.043 627.145 822.713 627.145C825.383 627.145 827.547 624.98 827.547 622.31Z" fill="#F86848"/>
<path d="M822.713 631.978C822.713 630.643 821.63 629.561 820.295 629.561C818.96 629.561 817.878 630.643 817.878 631.978C817.878 633.313 818.96 634.396 820.295 634.396C821.63 634.396 822.713 633.313 822.713 631.978Z" fill="#F86848"/>
<path d="M836.008 634.396C836.008 631.059 833.302 628.353 829.965 628.353C826.627 628.353 823.921 631.059 823.921 634.396C823.921 637.734 826.627 640.439 829.965 640.439C833.302 640.439 836.008 637.734 836.008 634.396Z" fill="#F86848"/>
<path d="M835.404 626.54C835.404 624.871 834.051 623.518 832.382 623.518C830.713 623.518 829.36 624.871 829.36 626.54C829.36 628.209 830.713 629.562 832.382 629.562C834.051 629.562 835.404 628.209 835.404 626.54Z" fill="#F86848"/>
<path d="M834.195 618.683C834.195 617.348 833.113 616.266 831.778 616.266C830.443 616.266 829.36 617.348 829.36 618.683C829.36 620.018 830.443 621.101 831.778 621.101C833.113 621.101 834.195 620.018 834.195 618.683Z" fill="#F86848"/>
<path d="M839.634 630.165C839.634 629.498 839.092 628.957 838.425 628.957C837.757 628.957 837.216 629.498 837.216 630.165C837.216 630.833 837.757 631.374 838.425 631.374C839.092 631.374 839.634 630.833 839.634 630.165Z" fill="#F86848"/>
<path d="M827.547 613.245C830.535 613.245 833.456 614.131 835.941 615.791C838.425 617.451 840.362 619.811 841.505 622.572C842.649 625.332 842.948 628.37 842.365 631.301C841.782 634.231 840.343 636.923 838.23 639.036C836.117 641.149 833.425 642.588 830.495 643.171C827.564 643.754 824.526 643.455 821.766 642.311C819.005 641.168 816.646 639.231 814.986 636.747C813.326 634.262 812.439 631.341 812.439 628.353L814.835 628.353C814.835 630.867 815.58 633.325 816.977 635.416C818.374 637.507 820.359 639.136 822.682 640.098C825.005 641.06 827.562 641.312 830.028 640.822C832.494 640.331 834.759 639.12 836.537 637.342C838.315 635.564 839.525 633.299 840.016 630.833C840.506 628.367 840.255 625.811 839.292 623.488C838.33 621.165 836.701 619.18 834.61 617.783C832.52 616.386 830.062 615.64 827.547 615.64V613.245Z" fill="black" fill-opacity="0.25"/>
<path d="M823.921 560.669C823.921 569.012 817.157 575.776 808.814 575.776C800.47 575.776 793.706 569.012 793.706 560.669C793.706 552.325 800.47 545.561 808.814 545.561C817.157 545.561 823.921 552.325 823.921 560.669Z" fill="#E40303"/>
<path fill-rule="evenodd" clip-rule="evenodd" d="M808.814 574.568C816.49 574.568 822.713 568.345 822.713 560.669C822.713 552.992 816.49 546.769 808.814 546.769C801.137 546.769 794.914 552.992 794.914 560.669C794.914 568.345 801.137 574.568 808.814 574.568ZM808.814 575.776C817.157 575.776 823.921 569.012 823.921 560.669C823.921 552.325 817.157 545.561 808.814 545.561C800.47 545.561 793.706 552.325 793.706 560.669C793.706 569.012 800.47 575.776 808.814 575.776Z" fill="black"/>
<path d="M808.813 554.625C808.813 551.955 806.649 549.791 803.979 549.791C801.309 549.791 799.144 551.955 799.144 554.625C799.144 557.295 801.309 559.46 803.979 559.46C806.649 559.46 808.813 557.295 808.813 554.625Z" fill="#F86848"/>
<path d="M803.979 564.294C803.979 562.959 802.897 561.876 801.562 561.876C800.227 561.876 799.144 562.959 799.144 564.294C799.144 565.629 800.227 566.711 801.562 566.711C802.897 566.711 803.979 565.629 803.979 564.294Z" fill="#F86848"/>
<path d="M817.274 566.712C817.274 563.374 814.568 560.669 811.231 560.669C807.893 560.669 805.188 563.374 805.188 566.712C805.188 570.049 807.893 572.755 811.231 572.755C814.568 572.755 817.274 570.049 817.274 566.712Z" fill="#F86848"/>
<path d="M816.67 558.855C816.67 557.187 815.317 555.834 813.648 555.834C811.979 555.834 810.626 557.187 810.626 558.855C810.626 560.524 811.979 561.877 813.648 561.877C815.317 561.877 816.67 560.524 816.67 558.855Z" fill="#F86848"/>
<path d="M815.461 550.999C815.461 549.664 814.379 548.581 813.044 548.581C811.709 548.581 810.626 549.664 810.626 550.999C810.626 552.334 811.709 553.416 813.044 553.416C814.379 553.416 815.461 552.334 815.461 550.999Z" fill="#F86848"/>
<path d="M820.9 562.481C820.9 561.813 820.359 561.272 819.691 561.272C819.024 561.272 818.483 561.813 818.483 562.481C818.483 563.148 819.024 563.689 819.691 563.689C820.359 563.689 820.9 563.148 820.9 562.481Z" fill="#F86848"/>
<path d="M808.814 545.561C811.802 545.561 814.723 546.447 817.207 548.107C819.692 549.767 821.628 552.126 822.771 554.887C823.915 557.648 824.214 560.685 823.631 563.616C823.048 566.547 821.609 569.239 819.496 571.351C817.384 573.464 814.692 574.903 811.761 575.486C808.83 576.069 805.793 575.77 803.032 574.626C800.271 573.483 797.912 571.547 796.252 569.062C794.592 566.578 793.706 563.657 793.706 560.668L796.101 560.668C796.101 563.183 796.846 565.641 798.243 567.731C799.64 569.822 801.626 571.451 803.949 572.414C806.272 573.376 808.828 573.628 811.294 573.137C813.76 572.646 816.025 571.436 817.803 569.658C819.581 567.88 820.791 565.615 821.282 563.149C821.773 560.683 821.521 558.127 820.559 555.804C819.596 553.481 817.967 551.495 815.876 550.098C813.786 548.701 811.328 547.956 808.814 547.956V545.561Z" fill="black" fill-opacity="0.25"/>
<path d="M825.734 596.928C825.734 605.272 818.97 612.036 810.627 612.036C802.283 612.036 795.519 605.272 795.519 596.928C795.519 588.584 802.283 581.82 810.627 581.82C818.97 581.82 825.734 588.584 825.734 596.928Z" fill="#E40303"/>
<path fill-rule="evenodd" clip-rule="evenodd" d="M810.627 610.828C818.303 610.828 824.526 604.605 824.526 596.928C824.526 589.252 818.303 583.029 810.627 583.029C802.95 583.029 796.727 589.252 796.727 596.928C796.727 604.605 802.95 610.828 810.627 610.828ZM810.627 612.036C818.97 612.036 825.734 605.272 825.734 596.928C825.734 588.584 818.97 581.82 810.627 581.82C802.283 581.82 795.519 588.584 795.519 596.928C795.519 605.272 802.283 612.036 810.627 612.036Z" fill="black"/>
<path d="M810.626 590.885C810.626 588.215 808.462 586.051 805.792 586.051C803.122 586.051 800.957 588.215 800.957 590.885C800.957 593.555 803.122 595.72 805.792 595.72C808.462 595.72 810.626 593.555 810.626 590.885Z" fill="#F86848"/>
<path d="M805.792 600.553C805.792 599.218 804.71 598.136 803.375 598.136C802.04 598.136 800.957 599.218 800.957 600.553C800.957 601.888 802.04 602.971 803.375 602.971C804.71 602.971 805.792 601.888 805.792 600.553Z" fill="#F86848"/>
<path d="M819.087 602.971C819.087 599.634 816.381 596.928 813.044 596.928C809.706 596.928 807.001 599.634 807.001 602.971C807.001 606.309 809.706 609.015 813.044 609.015C816.381 609.015 819.087 606.309 819.087 602.971Z" fill="#F86848"/>
<path d="M818.483 595.115C818.483 593.446 817.13 592.094 815.461 592.094C813.792 592.094 812.439 593.446 812.439 595.115C812.439 596.784 813.792 598.137 815.461 598.137C817.13 598.137 818.483 596.784 818.483 595.115Z" fill="#F86848"/>
<path d="M817.274 587.259C817.274 585.923 816.192 584.841 814.857 584.841C813.522 584.841 812.439 585.923 812.439 587.259C812.439 588.594 813.522 589.676 814.857 589.676C816.192 589.676 817.274 588.594 817.274 587.259Z" fill="#F86848"/>
<path d="M822.713 598.741C822.713 598.073 822.172 597.532 821.504 597.532C820.837 597.532 820.296 598.073 820.296 598.741C820.296 599.408 820.837 599.949 821.504 599.949C822.172 599.949 822.713 599.408 822.713 598.741Z" fill="#F86848"/>
<path d="M810.627 581.82C813.615 581.82 816.536 582.706 819.02 584.366C821.505 586.027 823.441 588.386 824.584 591.147C825.728 593.907 826.027 596.945 825.444 599.876C824.861 602.806 823.422 605.498 821.309 607.611C819.197 609.724 816.505 611.163 813.574 611.746C810.643 612.329 807.606 612.03 804.845 610.886C802.084 609.743 799.725 607.806 798.065 605.322C796.405 602.837 795.519 599.916 795.519 596.928L797.914 596.928C797.914 599.443 798.659 601.9 800.056 603.991C801.453 606.082 803.439 607.711 805.762 608.673C808.084 609.636 810.641 609.887 813.107 609.397C815.573 608.906 817.838 607.695 819.616 605.918C821.394 604.14 822.604 601.874 823.095 599.408C823.586 596.942 823.334 594.386 822.372 592.063C821.409 589.74 819.78 587.755 817.689 586.358C815.599 584.961 813.141 584.216 810.627 584.216V581.82Z" fill="black" fill-opacity="0.25"/>
<path d="M773.763 600.553C773.763 608.897 766.999 615.661 758.655 615.661C750.311 615.661 743.547 608.897 743.547 600.553C743.547 592.209 750.311 585.445 758.655 585.445C766.999 585.445 773.763 592.209 773.763 600.553Z" fill="#E40303"/>
<path fill-rule="evenodd" clip-rule="evenodd" d="M758.655 614.453C766.331 614.453 772.554 608.23 772.554 600.553C772.554 592.877 766.331 586.654 758.655 586.654C750.978 586.654 744.756 592.877 744.756 600.553C744.756 608.23 750.978 614.453 758.655 614.453ZM758.655 615.661C766.999 615.661 773.763 608.897 773.763 600.553C773.763 592.209 766.999 585.445 758.655 585.445C750.311 585.445 743.547 592.209 743.547 600.553C743.547 608.897 750.311 615.661 758.655 615.661Z" fill="black"/>
<path d="M758.655 594.51C758.655 591.84 756.49 589.676 753.82 589.676C751.15 589.676 748.986 591.84 748.986 594.51C748.986 597.18 751.15 599.345 753.82 599.345C756.49 599.345 758.655 597.18 758.655 594.51Z" fill="#F86848"/>
<path d="M753.82 604.178C753.82 602.843 752.738 601.761 751.403 601.761C750.068 601.761 748.986 602.843 748.986 604.178C748.986 605.513 750.068 606.596 751.403 606.596C752.738 606.596 753.82 605.513 753.82 604.178Z" fill="#F86848"/>
<path d="M767.115 606.596C767.115 603.259 764.41 600.553 761.072 600.553C757.735 600.553 755.029 603.259 755.029 606.596C755.029 609.934 757.735 612.64 761.072 612.64C764.41 612.64 767.115 609.934 767.115 606.596Z" fill="#F86848"/>
<path d="M766.511 598.74C766.511 597.071 765.158 595.719 763.489 595.719C761.821 595.719 760.468 597.071 760.468 598.74C760.468 600.409 761.821 601.762 763.489 601.762C765.158 601.762 766.511 600.409 766.511 598.74Z" fill="#F86848"/>
<path d="M765.302 590.884C765.302 589.548 764.22 588.466 762.885 588.466C761.55 588.466 760.468 589.548 760.468 590.884C760.468 592.219 761.55 593.301 762.885 593.301C764.22 593.301 765.302 592.219 765.302 590.884Z" fill="#F86848"/>
<path d="M770.741 602.366C770.741 601.698 770.2 601.157 769.533 601.157C768.865 601.157 768.324 601.698 768.324 602.366C768.324 603.033 768.865 603.574 769.533 603.574C770.2 603.574 770.741 603.033 770.741 602.366Z" fill="#F86848"/>
<path d="M758.655 585.445C761.643 585.445 764.564 586.331 767.048 587.991C769.533 589.652 771.469 592.011 772.613 594.772C773.756 597.532 774.055 600.57 773.473 603.501C772.89 606.431 771.451 609.123 769.338 611.236C767.225 613.349 764.533 614.788 761.602 615.371C758.672 615.954 755.634 615.655 752.873 614.511C750.113 613.368 747.753 611.431 746.093 608.947C744.433 606.462 743.547 603.541 743.547 600.553L745.942 600.553C745.942 603.068 746.688 605.525 748.085 607.616C749.481 609.707 751.467 611.336 753.79 612.298C756.113 613.261 758.669 613.512 761.135 613.022C763.601 612.531 765.866 611.32 767.644 609.543C769.422 607.765 770.633 605.499 771.123 603.033C771.614 600.567 771.362 598.011 770.4 595.688C769.438 593.365 767.808 591.38 765.718 589.983C763.627 588.586 761.169 587.841 758.655 587.841V585.445Z" fill="black" fill-opacity="0.25"/>
<path d="M761.072 568.525C761.072 576.869 754.308 583.633 745.964 583.633C737.62 583.633 730.856 576.869 730.856 568.525C730.856 560.181 737.62 553.417 745.964 553.417C754.308 553.417 761.072 560.181 761.072 568.525Z" fill="#E40303"/>
<path fill-rule="evenodd" clip-rule="evenodd" d="M745.964 582.424C753.641 582.424 759.863 576.201 759.863 568.525C759.863 560.849 753.641 554.626 745.964 554.626C738.288 554.626 732.065 560.849 732.065 568.525C732.065 576.201 738.288 582.424 745.964 582.424ZM745.964 583.633C754.308 583.633 761.072 576.869 761.072 568.525C761.072 560.181 754.308 553.417 745.964 553.417C737.62 553.417 730.856 560.181 730.856 568.525C730.856 576.869 737.62 583.633 745.964 583.633Z" fill="black"/>
<path d="M745.964 562.482C745.964 559.812 743.8 557.647 741.13 557.647C738.46 557.647 736.295 559.812 736.295 562.482C736.295 565.152 738.46 567.316 741.13 567.316C743.8 567.316 745.964 565.152 745.964 562.482Z" fill="#F86848"/>
<path d="M741.13 572.15C741.13 570.815 740.047 569.733 738.712 569.733C737.377 569.733 736.295 570.815 736.295 572.15C736.295 573.485 737.377 574.567 738.712 574.567C740.047 574.567 741.13 573.485 741.13 572.15Z" fill="#F86848"/>
<path d="M754.425 574.568C754.425 571.231 751.719 568.525 748.382 568.525C745.044 568.525 742.338 571.231 742.338 574.568C742.338 577.906 745.044 580.611 748.382 580.611C751.719 580.611 754.425 577.906 754.425 574.568Z" fill="#F86848"/>
<path d="M753.821 566.712C753.821 565.043 752.468 563.69 750.799 563.69C749.13 563.69 747.777 565.043 747.777 566.712C747.777 568.381 749.13 569.733 750.799 569.733C752.468 569.733 753.821 568.381 753.821 566.712Z" fill="#F86848"/>
<path d="M752.612 558.855C752.612 557.52 751.53 556.438 750.195 556.438C748.86 556.438 747.777 557.52 747.777 558.855C747.777 560.19 748.86 561.272 750.195 561.272C751.53 561.272 752.612 560.19 752.612 558.855Z" fill="#F86848"/>
<path d="M758.051 570.337C758.051 569.67 757.509 569.129 756.842 569.129C756.174 569.129 755.633 569.67 755.633 570.337C755.633 571.005 756.174 571.546 756.842 571.546C757.509 571.546 758.051 571.005 758.051 570.337Z" fill="#F86848"/>
<path d="M745.964 553.417C748.952 553.417 751.873 554.303 754.358 555.963C756.842 557.623 758.779 559.983 759.922 562.743C761.066 565.504 761.365 568.542 760.782 571.472C760.199 574.403 758.76 577.095 756.647 579.208C754.534 581.321 751.842 582.76 748.912 583.343C745.981 583.926 742.943 583.626 740.183 582.483C737.422 581.339 735.062 579.403 733.402 576.918C731.742 574.434 730.856 571.513 730.856 568.525L733.251 568.525C733.251 571.039 733.997 573.497 735.394 575.588C736.791 577.678 738.776 579.308 741.099 580.27C743.422 581.232 745.978 581.484 748.444 580.993C750.91 580.503 753.176 579.292 754.953 577.514C756.731 575.736 757.942 573.471 758.433 571.005C758.923 568.539 758.671 565.983 757.709 563.66C756.747 561.337 755.118 559.352 753.027 557.955C750.936 556.558 748.479 555.812 745.964 555.812V553.417Z" fill="black" fill-opacity="0.25"/>
<path fill-rule="evenodd" clip-rule="evenodd" d="M771.95 587.863C775.621 587.863 778.597 584.887 778.597 581.216C778.597 577.545 775.621 574.568 771.95 574.568C768.278 574.568 765.302 577.545 765.302 581.216C765.302 584.887 768.278 587.863 771.95 587.863ZM771.95 584.909C773.989 584.909 775.643 583.255 775.643 581.216C775.643 579.176 773.989 577.523 771.95 577.523C769.91 577.523 768.257 579.176 768.257 581.216C768.257 583.255 769.91 584.909 771.95 584.909Z" fill="#008026"/>
<path fill-rule="evenodd" clip-rule="evenodd" d="M771.95 587.259C775.287 587.259 777.993 584.553 777.993 581.216C777.993 577.878 775.287 575.173 771.95 575.173C768.612 575.173 765.907 577.878 765.907 581.216C765.907 584.553 768.612 587.259 771.95 587.259ZM776.247 581.216C776.247 583.589 774.323 585.513 771.95 585.513C769.576 585.513 767.652 583.589 767.652 581.216C767.652 578.842 769.576 576.918 771.95 576.918C774.323 576.918 776.247 578.842 776.247 581.216ZM778.597 581.216C778.597 584.887 775.621 587.863 771.95 587.863C768.278 587.863 765.302 584.887 765.302 581.216C765.302 577.545 768.278 574.568 771.95 574.568C775.621 574.568 778.597 577.545 778.597 581.216ZM775.643 581.216C775.643 583.255 773.989 584.909 771.95 584.909C769.91 584.909 768.257 583.255 768.257 581.216C768.257 579.176 769.91 577.523 771.95 577.523C773.989 577.523 775.643 579.176 775.643 581.216Z" fill="black"/>
<path fill-rule="evenodd" clip-rule="evenodd" d="M724.813 591.49C728.484 591.49 731.461 588.514 731.461 584.843C731.461 581.172 728.484 578.195 724.813 578.195C721.142 578.195 718.166 581.172 718.166 584.843C718.166 588.514 721.142 591.49 724.813 591.49ZM724.813 588.536C726.853 588.536 728.506 586.882 728.506 584.843C728.506 582.803 726.853 581.15 724.813 581.15C722.773 581.15 721.12 582.803 721.12 584.843C721.12 586.882 722.773 588.536 724.813 588.536Z" fill="#008026"/>
<path fill-rule="evenodd" clip-rule="evenodd" d="M724.813 590.886C728.151 590.886 730.856 588.18 730.856 584.843C730.856 581.505 728.151 578.8 724.813 578.8C721.475 578.8 718.77 581.505 718.77 584.843C718.77 588.18 721.475 590.886 724.813 590.886ZM729.11 584.843C729.11 587.216 727.186 589.14 724.813 589.14C722.44 589.14 720.516 587.216 720.516 584.843C720.516 582.469 722.44 580.545 724.813 580.545C727.186 580.545 729.11 582.469 729.11 584.843ZM731.461 584.843C731.461 588.514 728.484 591.49 724.813 591.49C721.142 591.49 718.166 588.514 718.166 584.843C718.166 581.172 721.142 578.195 724.813 578.195C728.484 578.195 731.461 581.172 731.461 584.843ZM728.506 584.843C728.506 586.882 726.853 588.536 724.813 588.536C722.773 588.536 721.12 586.882 721.12 584.843C721.12 582.803 722.773 581.15 724.813 581.15C726.853 581.15 728.506 582.803 728.506 584.843Z" fill="black"/>
<path fill-rule="evenodd" clip-rule="evenodd" d="M724.813 645.878C728.484 645.878 731.461 642.902 731.461 639.231C731.461 635.559 728.484 632.583 724.813 632.583C721.142 632.583 718.166 635.559 718.166 639.231C718.166 642.902 721.142 645.878 724.813 645.878ZM724.813 642.924C726.853 642.924 728.506 641.27 728.506 639.231C728.506 637.191 726.853 635.537 724.813 635.537C722.773 635.537 721.12 637.191 721.12 639.231C721.12 641.27 722.773 642.924 724.813 642.924Z" fill="#008026"/>
<path fill-rule="evenodd" clip-rule="evenodd" d="M724.813 645.274C728.151 645.274 730.856 642.568 730.856 639.231C730.856 635.893 728.151 633.187 724.813 633.187C721.475 633.187 718.77 635.893 718.77 639.231C718.77 642.568 721.475 645.274 724.813 645.274ZM729.11 639.231C729.11 641.604 727.186 643.528 724.813 643.528C722.44 643.528 720.516 641.604 720.516 639.231C720.516 636.857 722.44 634.933 724.813 634.933C727.186 634.933 729.11 636.857 729.11 639.231ZM731.461 639.231C731.461 642.902 728.484 645.878 724.813 645.878C721.142 645.878 718.166 642.902 718.166 639.231C718.166 635.559 721.142 632.583 724.813 632.583C728.484 632.583 731.461 635.559 731.461 639.231ZM728.506 639.231C728.506 641.27 726.853 642.924 724.813 642.924C722.773 642.924 721.12 641.27 721.12 639.231C721.12 637.191 722.773 635.537 724.813 635.537C726.853 635.537 728.506 637.191 728.506 639.231Z" fill="black"/>
<path fill-rule="evenodd" clip-rule="evenodd" d="M752.008 638.022C755.679 638.022 758.655 635.045 758.655 631.374C758.655 627.703 755.679 624.727 752.008 624.727C748.336 624.727 745.36 627.703 745.36 631.374C745.36 635.045 748.336 638.022 752.008 638.022ZM752.008 635.067C754.047 635.067 755.701 633.414 755.701 631.374C755.701 629.334 754.047 627.681 752.008 627.681C749.968 627.681 748.315 629.334 748.315 631.374C748.315 633.414 749.968 635.067 752.008 635.067Z" fill="#008026"/>
<path fill-rule="evenodd" clip-rule="evenodd" d="M752.008 637.417C755.345 637.417 758.051 634.712 758.051 631.374C758.051 628.037 755.345 625.331 752.008 625.331C748.67 625.331 745.964 628.037 745.964 631.374C745.964 634.712 748.67 637.417 752.008 637.417ZM756.305 631.374C756.305 633.747 754.381 635.671 752.008 635.671C749.634 635.671 747.71 633.747 747.71 631.374C747.71 629.001 749.634 627.077 752.008 627.077C754.381 627.077 756.305 629.001 756.305 631.374ZM758.655 631.374C758.655 635.045 755.679 638.022 752.008 638.022C748.336 638.022 745.36 635.045 745.36 631.374C745.36 627.703 748.336 624.727 752.008 624.727C755.679 624.727 758.655 627.703 758.655 631.374ZM755.701 631.374C755.701 633.414 754.047 635.067 752.008 635.067C749.968 635.067 748.315 633.414 748.315 631.374C748.315 629.334 749.968 627.681 752.008 627.681C754.047 627.681 755.701 629.334 755.701 631.374Z" fill="black"/>
<path fill-rule="evenodd" clip-rule="evenodd" d="M777.389 670.051C781.06 670.051 784.036 667.075 784.036 663.403C784.036 659.732 781.06 656.756 777.389 656.756C773.718 656.756 770.741 659.732 770.741 663.403C770.741 667.075 773.718 670.051 777.389 670.051ZM777.389 667.096C779.429 667.096 781.082 665.443 781.082 663.403C781.082 661.364 779.429 659.71 777.389 659.71C775.349 659.71 773.696 661.364 773.696 663.403C773.696 665.443 775.349 667.096 777.389 667.096Z" fill="#008026"/>
<path fill-rule="evenodd" clip-rule="evenodd" d="M777.389 669.447C780.727 669.447 783.432 666.741 783.432 663.403C783.432 660.066 780.727 657.36 777.389 657.36C774.051 657.36 771.346 660.066 771.346 663.403C771.346 666.741 774.051 669.447 777.389 669.447ZM781.686 663.403C781.686 665.777 779.762 667.701 777.389 667.701C775.016 667.701 773.092 665.777 773.092 663.403C773.092 661.03 775.016 659.106 777.389 659.106C779.762 659.106 781.686 661.03 781.686 663.403ZM784.036 663.403C784.036 667.075 781.06 670.051 777.389 670.051C773.718 670.051 770.741 667.075 770.741 663.403C770.741 659.732 773.718 656.756 777.389 656.756C781.06 656.756 784.036 659.732 784.036 663.403ZM781.082 663.403C781.082 665.443 779.429 667.096 777.389 667.096C775.349 667.096 773.696 665.443 773.696 663.403C773.696 661.364 775.349 659.71 777.389 659.71C779.429 659.71 781.082 661.364 781.082 663.403Z" fill="black"/>
<path fill-rule="evenodd" clip-rule="evenodd" d="M803.375 637.417C807.046 637.417 810.022 634.441 810.022 630.77C810.022 627.098 807.046 624.122 803.375 624.122C799.703 624.122 796.727 627.098 796.727 630.77C796.727 634.441 799.703 637.417 803.375 637.417ZM803.375 634.463C805.414 634.463 807.068 632.809 807.068 630.77C807.068 628.73 805.414 627.077 803.375 627.077C801.335 627.077 799.681 628.73 799.681 630.77C799.681 632.809 801.335 634.463 803.375 634.463Z" fill="#008026"/>
<path fill-rule="evenodd" clip-rule="evenodd" d="M803.375 636.813C806.712 636.813 809.418 634.107 809.418 630.77C809.418 627.432 806.712 624.726 803.375 624.726C800.037 624.726 797.331 627.432 797.331 630.77C797.331 634.107 800.037 636.813 803.375 636.813ZM807.672 630.77C807.672 633.143 805.748 635.067 803.375 635.067C801.001 635.067 799.077 633.143 799.077 630.77C799.077 628.396 801.001 626.472 803.375 626.472C805.748 626.472 807.672 628.396 807.672 630.77ZM810.022 630.77C810.022 634.441 807.046 637.417 803.375 637.417C799.703 637.417 796.727 634.441 796.727 630.77C796.727 627.098 799.703 624.122 803.375 624.122C807.046 624.122 810.022 627.098 810.022 630.77ZM807.068 630.77C807.068 632.809 805.414 634.463 803.375 634.463C801.335 634.463 799.681 632.809 799.681 630.77C799.681 628.73 801.335 627.077 803.375 627.077C805.414 627.077 807.068 628.73 807.068 630.77Z" fill="black"/>
<path fill-rule="evenodd" clip-rule="evenodd" d="M787.662 605.389C791.333 605.389 794.31 602.413 794.31 598.741C794.31 595.07 791.333 592.094 787.662 592.094C783.991 592.094 781.015 595.07 781.015 598.741C781.015 602.413 783.991 605.389 787.662 605.389ZM787.662 602.434C789.702 602.434 791.355 600.781 791.355 598.741C791.355 596.702 789.702 595.048 787.662 595.048C785.623 595.048 783.969 596.702 783.969 598.741C783.969 600.781 785.623 602.434 787.662 602.434Z" fill="#008026"/>
<path fill-rule="evenodd" clip-rule="evenodd" d="M787.662 604.784C791 604.784 793.705 602.079 793.705 598.741C793.705 595.404 791 592.698 787.662 592.698C784.325 592.698 781.619 595.404 781.619 598.741C781.619 602.079 784.325 604.784 787.662 604.784ZM791.96 598.741C791.96 601.115 790.036 603.039 787.662 603.039C785.289 603.039 783.365 601.115 783.365 598.741C783.365 596.368 785.289 594.444 787.662 594.444C790.036 594.444 791.96 596.368 791.96 598.741ZM794.31 598.741C794.31 602.413 791.333 605.389 787.662 605.389C783.991 605.389 781.015 602.413 781.015 598.741C781.015 595.07 783.991 592.094 787.662 592.094C791.333 592.094 794.31 595.07 794.31 598.741ZM791.355 598.741C791.355 600.781 789.702 602.434 787.662 602.434C785.623 602.434 783.969 600.781 783.969 598.741C783.969 596.702 785.623 595.048 787.662 595.048C789.702 595.048 791.355 596.702 791.355 598.741Z" fill="black"/>
<path fill-rule="evenodd" clip-rule="evenodd" d="M829.964 582.425C833.636 582.425 836.612 579.449 836.612 575.777C836.612 572.106 833.636 569.13 829.964 569.13C826.293 569.13 823.317 572.106 823.317 575.777C823.317 579.449 826.293 582.425 829.964 582.425ZM829.964 579.47C832.004 579.47 833.657 577.817 833.657 575.777C833.657 573.738 832.004 572.084 829.964 572.084C827.925 572.084 826.271 573.738 826.271 575.777C826.271 577.817 827.925 579.47 829.964 579.47Z" fill="#008026"/>
<path fill-rule="evenodd" clip-rule="evenodd" d="M829.964 581.821C833.302 581.821 836.008 579.115 836.008 575.777C836.008 572.44 833.302 569.734 829.964 569.734C826.627 569.734 823.921 572.44 823.921 575.777C823.921 579.115 826.627 581.821 829.964 581.821ZM834.262 575.777C834.262 578.151 832.338 580.075 829.964 580.075C827.591 580.075 825.667 578.151 825.667 575.777C825.667 573.404 827.591 571.48 829.964 571.48C832.338 571.48 834.262 573.404 834.262 575.777ZM836.612 575.777C836.612 579.449 833.636 582.425 829.964 582.425C826.293 582.425 823.317 579.449 823.317 575.777C823.317 572.106 826.293 569.13 829.964 569.13C833.636 569.13 836.612 572.106 836.612 575.777ZM833.657 575.777C833.657 577.817 832.004 579.47 829.964 579.47C827.925 579.47 826.271 577.817 826.271 575.777C826.271 573.738 827.925 572.084 829.964 572.084C832.004 572.084 833.657 573.738 833.657 575.777Z" fill="black"/>
<path fill-rule="evenodd" clip-rule="evenodd" d="M833.591 612.036C837.262 612.036 840.238 609.06 840.238 605.389C840.238 601.717 837.262 598.741 833.591 598.741C829.919 598.741 826.943 601.717 826.943 605.389C826.943 609.06 829.919 612.036 833.591 612.036ZM833.591 609.082C835.63 609.082 837.284 607.428 837.284 605.389C837.284 603.349 835.63 601.696 833.591 601.696C831.551 601.696 829.898 603.349 829.898 605.389C829.898 607.428 831.551 609.082 833.591 609.082Z" fill="#008026"/>
<path fill-rule="evenodd" clip-rule="evenodd" d="M833.591 611.432C836.928 611.432 839.634 608.726 839.634 605.389C839.634 602.051 836.928 599.346 833.591 599.346C830.253 599.346 827.547 602.051 827.547 605.389C827.547 608.726 830.253 611.432 833.591 611.432ZM837.888 605.389C837.888 607.762 835.964 609.686 833.591 609.686C831.217 609.686 829.293 607.762 829.293 605.389C829.293 603.015 831.217 601.091 833.591 601.091C835.964 601.091 837.888 603.015 837.888 605.389ZM840.238 605.389C840.238 609.06 837.262 612.036 833.591 612.036C829.919 612.036 826.943 609.06 826.943 605.389C826.943 601.717 829.919 598.741 833.591 598.741C837.262 598.741 840.238 601.717 840.238 605.389ZM837.284 605.389C837.284 607.428 835.63 609.082 833.591 609.082C831.551 609.082 829.898 607.428 829.898 605.389C829.898 603.349 831.551 601.696 833.591 601.696C835.63 601.696 837.284 603.349 837.284 605.389Z" fill="black"/>
</svg>
