<svg width="1000" height="1000" viewBox="0 0 1000 1000" fill="none" xmlns="http://www.w3.org/2000/svg">
<ellipse cx="658.93" cy="284.557" rx="60.5" ry="25.881" transform="rotate(30 658.93 284.557)" fill="#090909"/>
<path fill-rule="evenodd" clip-rule="evenodd" d="M803.893 31.4739C781.653 18.6333 756.27 20.9605 747.199 36.6719L626.272 246.124C626.266 246.133 626.26 246.143 626.255 246.153C617.184 261.864 627.86 285.01 650.101 297.851C672.341 310.691 697.724 308.364 706.795 292.653L827.739 83.1719C836.81 67.4605 826.134 44.3145 803.893 31.4739Z" fill="#FFF2D0"/>
<mask id="mask0_62_50499" style="mask-type:alpha" maskUnits="userSpaceOnUse" x="588" y="-55" width="275" height="447">
<rect x="774.433" y="-54.5" width="176.798" height="29.8971" transform="rotate(60 774.433 -54.5)" fill="#5F3016"/>
<rect width="176.798" height="29.8971" transform="matrix(0.501718 0.865031 -0.867018 0.498276 742.34 1.08618)" fill="#5F3016"/>
<rect width="176.798" height="29.8971" transform="matrix(0.501718 0.865031 -0.867018 0.498276 710.248 56.6726)" fill="#5F3016"/>
<rect width="176.798" height="29.8971" transform="matrix(0.501718 0.865031 -0.867018 0.498276 678.155 112.259)" fill="#5F3016"/>
<rect width="176.798" height="29.8971" transform="matrix(0.501718 0.865031 -0.867018 0.498276 646.062 167.845)" fill="#5F3016"/>
<rect width="176.798" height="29.8971" transform="matrix(0.501718 0.865031 -0.867018 0.498276 613.969 223.431)" fill="#5F3016"/>
</mask>
<g mask="url(#mask0_62_50499)">
<path fill-rule="evenodd" clip-rule="evenodd" d="M803.893 31.4739C781.653 18.6333 756.27 20.9605 747.199 36.6719L626.272 246.124C626.266 246.133 626.26 246.143 626.255 246.153C617.184 261.864 627.86 285.01 650.101 297.851C672.341 310.691 697.724 308.364 706.795 292.653L827.739 83.1719C836.81 67.4605 826.134 44.3145 803.893 31.4739Z" fill="#5F3016"/>
</g>
<mask id="path-10-inside-1_62_50499" fill="white">
<path fill-rule="evenodd" clip-rule="evenodd" d="M803.893 31.4739C781.653 18.6333 756.27 20.9605 747.199 36.6719L626.272 246.124C626.266 246.133 626.26 246.143 626.255 246.153C617.184 261.864 627.86 285.01 650.101 297.851C672.341 310.691 697.724 308.364 706.795 292.653L827.739 83.1719C836.81 67.4605 826.134 44.3145 803.893 31.4739Z"/>
</mask>
<path d="M747.199 36.6719L740.27 32.6719L740.27 32.6719L747.199 36.6719ZM626.272 246.124L633.194 250.133L633.2 250.124L626.272 246.124ZM706.795 292.653L713.723 296.653L706.795 292.653ZM827.739 83.1719L834.667 87.1719L827.739 83.1719ZM754.127 40.6719C757.015 35.6688 762.885 32.1074 771.338 31.3325C779.765 30.5598 790.034 32.7097 799.893 38.4021L807.893 24.5457C795.512 17.3975 781.969 14.2907 769.877 15.3993C757.81 16.5056 746.453 21.9636 740.27 32.6719L754.127 40.6719ZM633.2 250.124L754.127 40.6719L740.27 32.6719L619.343 242.124L633.2 250.124ZM633.183 250.153C633.187 250.146 633.19 250.14 633.194 250.133L619.349 242.114C619.342 242.127 619.334 242.14 619.327 242.153L633.183 250.153ZM654.101 290.922C644.241 285.23 637.245 277.412 633.7 269.727C630.145 262.02 630.295 255.156 633.183 250.153L619.327 242.153C613.144 252.861 614.096 265.425 619.171 276.429C624.257 287.455 633.719 297.631 646.101 304.779L654.101 290.922ZM699.867 288.653C696.978 293.656 691.109 297.217 682.656 297.992C674.229 298.765 663.96 296.615 654.101 290.922L646.101 304.779C658.482 311.927 672.025 315.034 684.117 313.925C696.184 312.819 707.541 307.361 713.723 296.653L699.867 288.653ZM820.811 79.1719L699.867 288.653L713.723 296.653L834.667 87.1719L820.811 79.1719ZM799.893 38.4021C809.753 44.0945 816.749 51.9124 820.293 59.5971C823.849 67.3046 823.699 74.1688 820.811 79.1719L834.667 87.1719C840.85 76.4636 839.898 63.8991 834.822 52.8956C829.737 41.8693 820.274 31.6939 807.893 24.5457L799.893 38.4021Z" fill="black" mask="url(#path-10-inside-1_62_50499)"/>
<path fill-rule="evenodd" clip-rule="evenodd" d="M822.259 92.6629L822.259 92.6632L822.259 92.6633L712.275 283.162L712.275 283.162C704.026 297.449 692.492 306.234 686.513 302.782C680.534 299.33 682.375 284.949 690.624 270.661C690.649 270.619 690.673 270.576 690.698 270.533L800.517 80.3207L800.608 80.1627C808.857 65.875 820.391 57.0907 826.37 60.5426C832.349 63.9944 830.508 78.3751 822.259 92.6629Z" fill="black" fill-opacity="0.25"/>
</svg>
