<svg width="1000" height="1000" viewBox="0 0 1000 1000" fill="none" xmlns="http://www.w3.org/2000/svg">
<mask id="path-1-inside-1_105_53856" fill="white">
<path fill-rule="evenodd" clip-rule="evenodd" d="M506.407 296.297C500.369 271.366 504.702 232.448 523.254 178.726C552.848 93.0239 624.107 10.4983 634.578 15.7671C656.104 26.599 651.2 142.515 621.605 228.217C609.815 262.359 596.779 287.005 583.644 303.438C569.255 296.148 552.793 291.952 535.613 291.952C525.243 291.952 515.423 293.481 506.407 296.297Z"/>
</mask>
<path fill-rule="evenodd" clip-rule="evenodd" d="M506.407 296.297C500.369 271.366 504.702 232.448 523.254 178.726C552.848 93.0239 624.107 10.4983 634.578 15.7671C656.104 26.599 651.2 142.515 621.605 228.217C609.815 262.359 596.779 287.005 583.644 303.438C569.255 296.148 552.793 291.952 535.613 291.952C525.243 291.952 515.423 293.481 506.407 296.297Z" fill="white"/>
<path d="M523.254 178.726L530.815 181.337L523.254 178.726ZM506.407 296.297L508.792 303.933L500.642 306.478L498.632 298.18L506.407 296.297ZM634.578 15.7671L630.982 22.9133L634.578 15.7671ZM621.605 228.217L629.167 230.828H629.167L621.605 228.217ZM583.644 303.438L589.893 308.433L585.831 313.515L580.028 310.575L583.644 303.438ZM530.815 181.337C512.401 234.662 508.698 271.771 514.182 294.413L498.632 298.18C492.039 270.962 497.003 230.234 515.692 176.114L530.815 181.337ZM630.982 22.9133C633.022 23.9398 634.56 23.3484 634.256 23.441C634.128 23.4797 633.505 23.7197 632.305 24.4853C629.95 25.9881 626.634 28.6956 622.49 32.7044C614.278 40.6495 603.748 52.7921 592.506 67.9068C570.011 98.1515 545.269 139.482 530.815 181.337L515.692 176.114C530.833 132.268 556.517 89.4844 579.668 58.3581C591.249 42.7872 602.347 29.9299 611.365 21.2051C615.837 16.879 620.037 13.334 623.699 10.9975C625.507 9.84329 627.517 8.76689 629.599 8.13367C631.503 7.55444 634.825 6.93571 638.174 8.62083L630.982 22.9133ZM614.043 225.606C628.565 183.554 637.073 133.896 639.274 93.481C640.375 73.2571 639.877 55.6748 637.886 42.6926C636.888 36.1792 635.561 31.1536 634.058 27.6332C632.463 23.9011 631.162 23.0042 630.982 22.9133L638.174 8.62083C643.375 11.2379 646.629 16.3329 648.771 21.3481C651.004 26.5749 652.595 33.0519 653.701 40.2679C655.921 54.7447 656.384 73.5289 655.25 94.3507C652.981 136.028 644.241 187.178 629.167 230.828L614.043 225.606ZM577.395 298.443C589.768 282.964 602.431 259.233 614.043 225.606L629.167 230.828C617.199 265.485 603.791 291.046 589.893 308.433L577.395 298.443ZM580.028 310.575C566.72 303.832 551.492 299.952 535.613 299.952V283.952C554.093 283.952 571.79 288.464 587.26 296.302L580.028 310.575ZM535.613 299.952C526.03 299.952 517.016 301.364 508.792 303.933L504.023 288.66C513.831 285.597 524.456 283.952 535.613 283.952V299.952Z" fill="black" mask="url(#path-1-inside-1_105_53856)"/>
<path d="M501.57 300.928C511.031 296.729 521.78 294.222 533.378 293.857C557.538 293.097 580.388 301.787 596.963 316.149" stroke="black" stroke-opacity="0.25" stroke-width="8" stroke-linecap="round"/>
<path d="M618.018 187.516C585.262 306.137 552.304 276.452 555.202 287.422C580.804 302.452 592.79 300.075 620.803 218.952C648.817 137.829 656.104 26.5991 634.578 15.7672C624.107 10.4984 646.032 106.393 618.018 187.516Z" fill="black" fill-opacity="0.25"/>
<path d="M548.184 186.753C538.84 213.81 534.904 234.529 535.107 249.309C535.311 264.146 539.626 272.286 546.062 275.525C552.565 278.797 561.042 276.982 570.522 267.038C579.964 257.133 590.003 239.512 599.333 212.492C608.646 185.522 614.655 154.053 616.842 128.602C617.936 115.868 618.066 104.73 617.203 96.4621C616.771 92.3181 616.1 89.0035 615.233 86.6046C614.414 84.3402 613.55 83.2421 612.842 82.7888C612.782 82.8033 612.695 82.829 612.578 82.8742C612.137 83.045 611.508 83.4029 610.688 84.0092C609.058 85.2129 606.936 87.1946 604.425 89.8971C599.42 95.2865 593.049 103.347 586.254 113.222C572.66 132.978 557.483 159.822 548.184 186.753ZM612.951 82.77C612.951 82.77 612.95 82.77 612.949 82.7701C612.95 82.77 612.951 82.77 612.951 82.77Z" fill="#FF7DEA" stroke="#090909" stroke-width="4"/>
<path d="M559.835 186.701C529.541 267.891 556.58 267.815 548.35 274.017C536.829 278.872 527.324 257.938 545.807 199.397C564.289 140.855 603.459 79.9748 615.988 85.7394C622.083 88.5434 578.317 128.159 559.835 186.701Z" fill="black" fill-opacity="0.25"/>
<mask id="path-7-inside-2_105_53856" fill="white">
<path fill-rule="evenodd" clip-rule="evenodd" d="M374.207 296.297C380.246 271.366 375.912 232.448 357.361 178.726C327.766 93.0239 256.507 10.4983 246.036 15.7671C224.51 26.599 229.414 142.515 259.009 228.217C270.799 262.359 283.835 287.005 296.97 303.438C311.359 296.148 327.822 291.952 345.001 291.952C355.371 291.952 365.191 293.481 374.207 296.297Z"/>
</mask>
<path fill-rule="evenodd" clip-rule="evenodd" d="M374.207 296.297C380.246 271.366 375.912 232.448 357.361 178.726C327.766 93.0239 256.507 10.4983 246.036 15.7671C224.51 26.599 229.414 142.515 259.009 228.217C270.799 262.359 283.835 287.005 296.97 303.438C311.359 296.148 327.822 291.952 345.001 291.952C355.371 291.952 365.191 293.481 374.207 296.297Z" fill="white"/>
<path d="M357.361 178.726L349.799 181.337L357.361 178.726ZM374.207 296.297L371.822 303.933L379.972 306.478L381.982 298.18L374.207 296.297ZM246.036 15.7671L242.44 8.62083L246.036 15.7671ZM259.009 228.217L251.447 230.828L259.009 228.217ZM296.97 303.438L290.721 308.433L294.783 313.515L300.586 310.575L296.97 303.438ZM349.799 181.337C368.213 234.662 371.916 271.771 366.432 294.413L381.982 298.18C388.575 270.962 383.611 230.234 364.922 176.114L349.799 181.337ZM249.632 22.9133C247.592 23.9398 246.054 23.3484 246.359 23.441C246.486 23.4797 247.109 23.7197 248.309 24.4853C250.664 25.9881 253.98 28.6956 258.124 32.7044C266.336 40.6496 276.866 52.7921 288.108 67.9068C310.603 98.1515 335.345 139.482 349.799 181.337L364.922 176.114C349.781 132.268 324.097 89.4844 300.946 58.3581C289.365 42.7872 278.267 29.9299 269.249 21.2051C264.777 16.879 260.577 13.334 256.916 10.9975C255.107 9.84329 253.097 8.76689 251.015 8.13367C249.111 7.55444 245.789 6.93571 242.44 8.62083L249.632 22.9133ZM266.571 225.606C252.05 183.554 243.541 133.896 241.341 93.481C240.24 73.2571 240.738 55.6748 242.728 42.6927C243.727 36.1792 245.053 31.1536 246.557 27.6332C248.151 23.9011 249.452 23.0042 249.632 22.9133L242.44 8.62083C237.24 11.2379 233.985 16.3329 231.843 21.3481C229.61 26.5749 228.019 33.0519 226.913 40.2679C224.693 54.7447 224.231 73.5289 225.364 94.3507C227.633 136.028 236.374 187.178 251.447 230.828L266.571 225.606ZM303.219 298.443C290.847 282.964 278.183 259.233 266.571 225.606L251.447 230.828C263.415 265.485 276.823 291.046 290.721 308.433L303.219 298.443ZM300.586 310.575C313.894 303.832 329.122 299.952 345.001 299.952V283.952C326.521 283.952 308.824 288.464 293.354 296.302L300.586 310.575ZM345.001 299.952C354.584 299.952 363.598 301.364 371.822 303.933L376.592 288.66C366.784 285.597 356.159 283.952 345.001 283.952V299.952Z" fill="black" mask="url(#path-7-inside-2_105_53856)"/>
<path d="M379.044 300.928C369.583 296.729 358.834 294.222 347.236 293.857C323.076 293.097 300.226 301.787 283.651 316.149" stroke="black" stroke-opacity="0.25" stroke-width="8" stroke-linecap="round"/>
<path d="M262.596 187.516C295.353 306.137 328.311 276.452 325.412 287.422C299.811 302.452 287.825 300.075 259.811 218.952C231.797 137.829 224.51 26.5991 246.036 15.7672C256.507 10.4984 234.582 106.393 262.596 187.516Z" fill="black" fill-opacity="0.25"/>
<path d="M332.431 186.753C341.774 213.81 345.71 234.529 345.507 249.309C345.303 264.146 340.988 272.286 334.552 275.525C328.049 278.797 319.573 276.982 310.092 267.038C300.65 257.133 290.612 239.512 281.281 212.492C271.968 185.522 265.959 154.053 263.772 128.602C262.678 115.868 262.549 104.73 263.411 96.4621C263.843 92.3181 264.514 89.0035 265.381 86.6046C266.2 84.3402 267.064 83.2421 267.772 82.7888C267.832 82.8033 267.919 82.829 268.036 82.8742C268.477 83.045 269.106 83.4029 269.927 84.0092C271.556 85.2129 273.679 87.1946 276.189 89.8971C281.195 95.2865 287.565 103.347 294.36 113.222C307.955 132.978 323.131 159.822 332.431 186.753ZM267.664 82.77C267.664 82.77 267.664 82.77 267.666 82.7701C267.664 82.77 267.664 82.77 267.664 82.77Z" fill="#FF7DEA" stroke="#090909" stroke-width="4"/>
<path d="M320.78 186.701C351.073 267.891 324.034 267.815 332.265 274.017C343.786 278.872 353.29 257.938 334.808 199.397C316.325 140.855 277.156 79.9748 264.626 85.7394C258.531 88.5434 302.297 128.159 320.78 186.701Z" fill="black" fill-opacity="0.25"/>
</svg>
