<svg width="1000" height="1005" viewBox="0 0 1000 1005" fill="none" xmlns="http://www.w3.org/2000/svg">
<path d="M717.682 91.7133C718.001 98.4065 656.338 105.474 631.694 137.156C607.051 168.837 607.028 117.969 605.69 111.404C607.73 102.863 631.633 82.7857 684.793 77.1791C714.319 74.0651 715.898 85.7217 717.682 91.7133Z" fill="#DD933C" stroke="black" stroke-width="4" stroke-linecap="round"/>
<path d="M687.238 87.6702C659.893 96.7838 642.81 109.276 630.444 118.072L613.488 139.87C639.176 125.784 679.27 102.649 713.244 88.5637C710.758 81.106 716.764 84.5562 687.238 87.6702Z" fill="black" fill-opacity="0.25"/>
<path d="M774.838 115.054C750.211 104.662 726.302 85.4642 741.634 19.2509C750.192 -1.03166 778.454 -5.23952 800.976 17.5323C819.465 22.1708 812.025 -2.59251 838.646 8.16448C915.006 39.0187 796.687 124.273 774.838 115.054Z" fill="#DD933C" stroke="black" stroke-width="4" stroke-linecap="round"/>
<path d="M775.885 111.578C752.7 101.795 830.208 98.3014 844.642 35.9649C840.86 5.70027 820.828 26.8473 800.492 19.7664C817.899 24.1333 813.317 -0.0859808 838.379 10.0412C910.268 39.0888 796.455 120.258 775.885 111.578Z" fill="black" fill-opacity="0.25"/>
<path d="M776.697 63.2628C774.86 44.488 769.689 7.17133 755.474 13.6077C747.884 14.3505 752.285 51.7203 763.503 69.5714" stroke="black" stroke-width="4" stroke-linecap="round"/>
<path d="M793.907 76.649C796.996 61.3682 806.09 21.5215 790.786 22.6612C783.225 23.2245 788.049 44.4623 784.96 59.7431" stroke="black" stroke-width="4" stroke-linecap="round"/>
<path d="M813.921 79.3271C851.274 46.6939 845.225 19.7384 829.921 20.8781C822.36 21.4413 817.873 52.9391 804.933 69.5748" stroke="black" stroke-width="4" stroke-linecap="round"/>
<path d="M801.169 78.8351C832.85 103.478 841.384 189.298 780.189 296.379C755.545 328.06 739.277 245.082 707.596 220.438C637.613 149.429 581.605 183.554 606.249 151.872C630.892 120.191 773.061 56.9709 801.169 78.8351Z" fill="#DD933C" stroke="black" stroke-width="4" stroke-linecap="round"/>
<path d="M801.169 78.8353C832.85 103.479 841.384 189.299 780.188 296.379C749.914 335.3 823.766 135.864 794.511 113.108C739.442 53.6996 581.605 183.554 606.248 151.872C630.892 120.191 773.06 56.9712 801.169 78.8353Z" fill="black" fill-opacity="0.25"/>
<ellipse cx="782.911" cy="103.164" rx="28.3432" ry="31.2502" transform="rotate(-52.1224 782.911 103.164)" fill="#DD933C" stroke="black" stroke-width="4" stroke-linecap="round"/>
<path d="M796.761 85.63C807.205 93.754 809.64 108.094 802.199 117.66" stroke="white" stroke-opacity="0.25" stroke-width="2" stroke-linecap="round"/>
<path d="M773.184 115.94C777.189 119.056 781.929 120.968 786.593 121.351C791.257 121.734 795.555 120.563 798.751 118.039C801.947 115.514 803.842 111.794 804.111 107.514C804.381 103.234 803.008 98.6611 800.228 94.5781L783.849 102.228L773.184 115.94Z" fill="black" fill-opacity="0.25"/>
<ellipse cx="744.03" cy="115.273" rx="28.3432" ry="31.2502" transform="rotate(-52.1224 744.03 115.273)" fill="#DD933C" stroke="black" stroke-width="4" stroke-linecap="round"/>
<path d="M757.879 97.7386C768.323 105.863 770.758 120.203 763.317 129.769" stroke="white" stroke-opacity="0.25" stroke-width="2" stroke-linecap="round"/>
<path d="M734.302 128.049C738.307 131.164 743.047 133.077 747.711 133.46C752.376 133.843 756.674 132.672 759.869 130.147C763.065 127.623 764.96 123.902 765.229 119.623C765.499 115.343 764.126 110.77 761.346 106.687L744.968 114.337L734.302 128.049Z" fill="black" fill-opacity="0.25"/>
<ellipse cx="783.93" cy="127.895" rx="28.3432" ry="31.2502" transform="rotate(-52.1224 783.93 127.895)" fill="#DD933C" stroke="black" stroke-width="4" stroke-linecap="round"/>
<path d="M797.779 110.361C808.223 118.485 810.658 132.825 803.218 142.391" stroke="white" stroke-opacity="0.25" stroke-width="2" stroke-linecap="round"/>
<path d="M774.202 140.671C778.207 143.787 782.948 145.699 787.612 146.082C792.276 146.465 796.574 145.294 799.77 142.77C802.965 140.245 804.86 136.525 805.13 132.245C805.399 127.965 804.027 123.392 801.247 119.309L784.868 126.959L774.202 140.671Z" fill="black" fill-opacity="0.25"/>
<ellipse cx="742.881" cy="130.953" rx="28.3432" ry="31.2502" transform="rotate(-52.1224 742.881 130.953)" fill="#DD933C" stroke="black" stroke-width="4" stroke-linecap="round"/>
<path d="M756.73 113.419C767.175 121.543 769.61 135.883 762.169 145.449" stroke="white" stroke-opacity="0.25" stroke-width="2" stroke-linecap="round"/>
<path d="M733.153 143.729C737.158 146.844 741.899 148.757 746.563 149.14C751.227 149.523 755.525 148.352 758.721 145.827C761.917 143.303 763.811 139.582 764.081 135.303C764.35 131.023 762.978 126.45 760.198 122.367L743.819 130.017L733.153 143.729Z" fill="black" fill-opacity="0.25"/>
<ellipse cx="791.896" cy="162.634" rx="23.256" ry="25.4362" transform="rotate(-52.1224 791.896 162.634)" fill="#DD933C" stroke="black" stroke-width="4" stroke-linecap="round"/>
<path d="M803.259 148.246C811.76 154.859 813.702 166.582 807.597 174.431" stroke="white" stroke-opacity="0.25" stroke-width="2" stroke-linecap="round"/>
<path d="M783.914 173.116C787.173 175.652 791.038 177.201 794.844 177.5C798.651 177.798 802.164 176.827 804.781 174.751C807.398 172.676 808.957 169.627 809.19 166.125C809.424 162.623 808.318 158.886 806.061 155.555L792.665 161.865L783.914 173.116Z" fill="black" fill-opacity="0.25"/>
<ellipse cx="792.404" cy="199.858" rx="23.256" ry="25.4362" transform="rotate(-52.1224 792.404 199.858)" fill="#DD933C" stroke="black" stroke-width="4" stroke-linecap="round"/>
<path d="M803.766 185.47C812.267 192.083 814.21 203.806 808.105 211.655" stroke="white" stroke-opacity="0.25" stroke-width="2" stroke-linecap="round"/>
<path d="M784.421 210.34C787.681 212.876 791.545 214.426 795.352 214.724C799.159 215.022 802.672 214.051 805.289 211.976C807.906 209.9 809.465 206.851 809.698 203.349C809.932 199.847 808.826 196.11 806.569 192.779L793.173 199.09L784.421 210.34Z" fill="black" fill-opacity="0.25"/>
<ellipse cx="761.81" cy="170.536" rx="29.0699" ry="32.7037" transform="rotate(-52.1224 761.81 170.536)" fill="#DD933C" stroke="black" stroke-width="4" stroke-linecap="round"/>
<path d="M776.017 152.555C786.947 161.057 789.621 175.902 781.99 185.713" stroke="white" stroke-opacity="0.25" stroke-width="2" stroke-linecap="round"/>
<path d="M751.836 183.642C756.028 186.902 760.97 188.927 765.819 189.37C770.667 189.813 775.119 188.646 778.413 186.069C781.707 183.493 783.637 179.667 783.874 175.246C784.11 170.826 782.639 166.086 779.71 161.838L762.776 169.579L751.836 183.642Z" fill="black" fill-opacity="0.25"/>
<ellipse cx="767.481" cy="203.49" rx="25.4362" ry="28.3432" transform="rotate(-52.1224 767.481 203.49)" fill="#DD933C" stroke="black" stroke-width="4" stroke-linecap="round"/>
<path d="M779.911 187.755C789.384 195.123 791.65 208.056 784.972 216.64" stroke="white" stroke-opacity="0.25" stroke-width="2" stroke-linecap="round"/>
<path d="M758.752 214.957C762.385 217.782 766.676 219.528 770.891 219.894C775.107 220.261 778.984 219.225 781.859 216.966C784.734 214.706 786.429 211.362 786.653 207.507C786.876 203.652 785.615 199.526 783.085 195.834L768.324 202.651L758.752 214.957Z" fill="black" fill-opacity="0.25"/>
<ellipse cx="697.881" cy="127.254" rx="28.3432" ry="31.2502" transform="rotate(-52.1224 697.881 127.254)" fill="#DD933C" stroke="black" stroke-width="4" stroke-linecap="round"/>
<path d="M711.73 109.72C722.175 117.844 724.61 132.184 717.169 141.75" stroke="white" stroke-opacity="0.25" stroke-width="2" stroke-linecap="round"/>
<path d="M688.153 140.03C692.158 143.145 696.899 145.058 701.563 145.441C706.227 145.824 710.525 144.653 713.721 142.129C716.917 139.604 718.811 135.884 719.081 131.604C719.35 127.324 717.978 122.751 715.198 118.668L698.819 126.318L688.153 140.03Z" fill="black" fill-opacity="0.25"/>
<ellipse cx="726.307" cy="164.097" rx="21.0757" ry="28.3432" transform="rotate(-52.1224 726.307 164.097)" fill="#DD933C" stroke="black" stroke-width="4" stroke-linecap="round"/>
<path d="M736.626 151.075C746.099 158.444 749.293 170.183 743.76 177.296" stroke="white" stroke-opacity="0.25" stroke-width="2" stroke-linecap="round"/>
<path d="M719.095 173.614C722.727 176.439 726.886 178.355 730.86 179.032C734.833 179.71 738.374 179.107 740.876 177.328C743.377 175.548 744.685 172.703 744.574 169.278C744.462 165.853 742.94 162.062 740.267 158.555L727.026 163.418L719.095 173.614Z" fill="black" fill-opacity="0.25"/>
<ellipse cx="663.46" cy="141.912" rx="26.1629" ry="30.5234" transform="rotate(-52.1224 663.46 141.912)" fill="#DD933C" stroke="black" stroke-width="4" stroke-linecap="round"/>
<path d="M676.251 125.732C686.452 133.667 689.154 147.258 682.286 156.088" stroke="white" stroke-opacity="0.25" stroke-width="2" stroke-linecap="round"/>
<path d="M654.487 153.711C658.399 156.754 662.983 158.681 667.454 159.164C671.926 159.646 676.006 158.653 678.997 156.355C681.989 154.057 683.704 150.597 683.851 146.567C683.997 142.536 682.565 138.187 679.8 134.263L664.332 141.054L654.487 153.711Z" fill="black" fill-opacity="0.25"/>
<ellipse cx="630.029" cy="159.181" rx="22.5292" ry="21.8025" transform="rotate(-52.1224 630.029 159.181)" fill="#DD933C" stroke="black" stroke-width="4" stroke-linecap="round"/>
<path d="M641.024 145.234C648.311 150.902 649.424 161.66 643.509 169.264" stroke="white" stroke-opacity="0.25" stroke-width="2" stroke-linecap="round"/>
<path d="M622.284 169.327C625.078 171.5 628.469 172.727 631.876 172.798C635.283 172.868 638.494 171.778 640.96 169.713C643.425 167.649 644.992 164.738 645.391 161.481C645.791 158.223 644.998 154.82 643.149 151.855L630.762 158.427L622.284 169.327Z" fill="black" fill-opacity="0.25"/>
<ellipse cx="690.04" cy="159.825" rx="21.0757" ry="30.5234" transform="rotate(-52.1224 690.04 159.825)" fill="#DD933C" stroke="black" stroke-width="4" stroke-linecap="round"/>
<path d="M700.369 146.81C710.57 154.745 714.355 166.944 708.822 174.057" stroke="white" stroke-opacity="0.25" stroke-width="2" stroke-linecap="round"/>
<path d="M682.837 169.348C686.749 172.391 691.178 174.517 695.367 175.363C699.556 176.208 703.244 175.72 705.8 173.982C708.355 172.244 709.619 169.365 709.375 165.837C709.131 162.308 707.394 158.351 704.462 154.642L690.768 159.152L682.837 169.348Z" fill="black" fill-opacity="0.25"/>
<ellipse cx="662.822" cy="169.958" rx="22.5292" ry="26.8897" transform="rotate(-52.1224 662.822 169.958)" fill="#DD933C" stroke="black" stroke-width="4" stroke-linecap="round"/>
<path d="M673.839 156.027C682.826 163.018 685.317 174.849 679.402 182.452" stroke="white" stroke-opacity="0.25" stroke-width="2" stroke-linecap="round"/>
<path d="M655.098 180.12C658.544 182.801 662.566 184.519 666.476 184.981C670.387 185.443 673.941 184.62 676.532 182.653C679.123 180.685 680.588 177.696 680.677 174.197C680.766 170.698 679.474 166.906 677.021 163.471L663.575 169.221L655.098 180.12Z" fill="black" fill-opacity="0.25"/>
<ellipse cx="734.719" cy="198.262" rx="21.0757" ry="28.3432" transform="rotate(-52.1224 734.719 198.262)" fill="#DD933C" stroke="black" stroke-width="4" stroke-linecap="round"/>
<path d="M745.039 185.24C754.511 192.609 757.705 204.348 752.172 211.461" stroke="white" stroke-opacity="0.25" stroke-width="2" stroke-linecap="round"/>
<path d="M727.507 207.779C731.139 210.604 735.298 212.52 739.272 213.197C743.245 213.875 746.786 213.272 749.288 211.493C751.789 209.713 753.097 206.868 752.986 203.443C752.875 200.018 751.352 196.228 748.679 192.72L735.438 197.583L727.507 207.779Z" fill="black" fill-opacity="0.25"/>
<ellipse cx="705.973" cy="196.157" rx="21.0757" ry="24.7094" transform="rotate(-52.1224 705.973 196.157)" fill="#DD933C" stroke="black" stroke-width="4" stroke-linecap="round"/>
<path d="M716.277 183.124C724.535 189.547 726.744 200.521 721.212 207.634" stroke="white" stroke-opacity="0.25" stroke-width="2" stroke-linecap="round"/>
<path d="M698.745 205.662C701.912 208.125 705.62 209.69 709.234 210.088C712.848 210.486 716.143 209.692 718.556 207.843C720.968 205.995 722.348 203.205 722.458 199.953C722.569 196.701 721.403 193.188 719.162 190.016L706.676 195.466L698.745 205.662Z" fill="black" fill-opacity="0.25"/>
<ellipse cx="741.156" cy="229.049" rx="21.0757" ry="24.7094" transform="rotate(-52.1224 741.156 229.049)" fill="#DD933C" stroke="black" stroke-width="4" stroke-linecap="round"/>
<path d="M751.459 216.015C759.718 222.439 761.927 233.413 756.394 240.526" stroke="white" stroke-opacity="0.25" stroke-width="2" stroke-linecap="round"/>
<path d="M733.928 238.554C737.095 241.017 740.802 242.582 744.416 242.98C748.03 243.378 751.326 242.584 753.738 240.735C756.151 238.886 757.53 236.097 757.641 232.845C757.751 229.592 756.586 226.079 754.344 222.907L741.859 228.358L733.928 238.554Z" fill="black" fill-opacity="0.25"/>
<path d="M550.822 243.443C559.572 232.193 612.701 235.53 655.528 268.843C698.355 302.156 727.4 356.815 718.65 368.065C707.603 379.087 688.693 309.276 645.866 275.963C592.285 234.285 542.071 254.692 550.822 243.443Z" fill="#090909"/>
<path d="M518.448 243.806C523.318 237.305 592.631 232.293 647.01 273.03C701.389 313.767 733.888 383.692 723.356 390.635C702.967 404.075 693.065 325.952 636.204 288.384C570.335 244.864 509.904 255.212 518.448 243.806Z" fill="black" fill-opacity="0.5"/>
<path d="M555.534 219.828L555.466 219.954C659.681 212.628 690.273 291.668 730.426 356.047C747.063 344.128 758.393 332.685 769.357 312.672C713.081 164.856 617.233 163.037 597.346 161.379C575.63 182.686 563.943 204.285 555.534 219.828Z" fill="#DD933C" stroke="black" stroke-width="4" stroke-linecap="round"/>
<path d="M597.705 169.544C579.411 193.063 573.197 203.152 563.12 219.263C595.421 216.565 583.204 214.428 604.39 220.779C618.643 206.237 613.474 181.81 638.748 176.609C626.031 166.717 603.104 165.76 597.705 169.544Z" fill="black" fill-opacity="0.25"/>
<path d="M770.878 309.204C752.62 332.676 744.642 341.363 731.915 355.365C726.235 333.454 731.013 340.833 723.74 325.068C734.766 308.066 756.704 320.325 761.221 276.882C770.73 284.279 773.596 303.35 770.878 309.204Z" fill="white" fill-opacity="0.25"/>
<path fill-rule="evenodd" clip-rule="evenodd" d="M535.62 237.165C533.489 231.107 536.671 224.468 542.729 222.336C564.683 214.611 599.77 213.216 636.209 231.743C672.866 250.381 709.868 288.621 736.737 358.467C739.042 364.461 736.053 371.189 730.059 373.495C724.065 375.8 717.337 372.81 715.031 366.817C689.741 301.073 656.112 267.952 625.669 252.473C595.008 236.884 566.527 238.616 550.449 244.274C544.391 246.405 537.752 243.223 535.62 237.165Z" fill="#DD933C" stroke="black" stroke-width="4" stroke-linecap="round"/>
<path d="M538.047 231.266C535.916 225.208 536.671 224.468 542.729 222.336C564.683 214.61 599.77 213.215 636.209 231.743C672.866 250.381 709.868 288.62 736.737 358.467C739.042 364.46 735.637 369.707 729.644 372.013C691.628 227.114 580.544 214.928 538.047 231.266Z" fill="black" fill-opacity="0.25"/>
<path d="M547.13 242.935C541.649 240.513 542.469 236.766 547.523 235.458C565.84 230.718 598.811 228.962 631.522 246.891C679.963 278.126 713.488 330.904 723.366 364.368C725.791 369.47 722.8 369.869 718.075 367.618C674.7 245.591 590.474 225.09 547.13 242.935Z" fill="white" fill-opacity="0.25"/>
<path fill-rule="evenodd" clip-rule="evenodd" d="M594.078 159.79C591.717 154.389 593.889 149.743 598.929 149.413C617.194 148.214 647.33 155.173 680.351 178.588C713.569 202.144 748.776 241.663 777.972 304.459C780.477 309.847 778.479 314.61 773.51 315.097C768.54 315.583 762.48 311.609 759.975 306.22C732.494 247.113 700.637 212.52 673.05 192.957C645.265 173.255 620.855 168.092 607.478 168.97C602.438 169.3 596.439 165.19 594.078 159.79Z" fill="#DD933C" stroke="black" stroke-width="4" stroke-linecap="round"/>
<circle cx="640.16" cy="202.97" r="15.9885" transform="rotate(-52.1224 640.16 202.97)" fill="#DD933C" stroke="black" stroke-width="4" stroke-linecap="round"/>
<circle cx="640.448" cy="202.791" r="12.3547" transform="rotate(-52.1224 640.448 202.791)" fill="#DD933C" stroke="white" stroke-opacity="0.25" stroke-linecap="round"/>
<circle cx="640.16" cy="202.97" r="7.26749" transform="rotate(-52.1224 640.16 202.97)" fill="#DD933C" stroke="black" stroke-width="2" stroke-linecap="round"/>
<ellipse cx="641.468" cy="202.664" rx="4.36049" ry="4.36049" transform="rotate(-52.1224 641.468 202.664)" fill="black" fill-opacity="0.25"/>
<path d="M756.61 218.053C742.601 256.267 760.847 275.02 771.847 284.96C772.706 285.736 774.027 285.594 774.814 284.745C778.72 280.527 781.451 281.408 786.778 283.293C787.308 283.481 787.898 283.554 788.458 283.504C834.667 279.381 827.844 249.517 823.727 245.4C806.576 241.003 818.236 228.608 815.061 219.839C814.88 219.341 814.447 218.973 813.95 218.788C796.785 212.395 794.855 200.477 797.557 194.115C798.417 192.091 798.695 189.507 797.286 187.82C777.025 163.554 774.535 169.159 756.61 218.053Z" fill="#DD933C" stroke="black" stroke-width="4" stroke-linecap="round"/>
<path d="M797.29 187.815C777.212 163.631 776.99 170.154 759.067 219.042C796.903 172.025 809.939 243.433 796.447 274.562C795.066 277.747 797.398 281.928 800.781 281.15C826.193 275.307 827.472 249.144 823.727 245.4C806.576 241.003 818.236 228.608 815.061 219.839C814.88 219.341 814.447 218.973 813.95 218.788C796.786 212.395 794.855 200.477 797.558 194.115C798.417 192.091 798.694 189.507 797.29 187.815Z" fill="black" fill-opacity="0.25"/>
<path d="M636.879 199.094C634.907 201.629 635.364 205.281 637.898 207.253" stroke="white" stroke-opacity="0.7" stroke-linecap="round"/>
<path d="M762.252 244.538C762.192 237.618 766.891 218.024 786.169 195.009" stroke="white" stroke-opacity="0.25" stroke-width="2" stroke-linecap="round"/>
<path d="M760.484 244.411C760.272 237.187 764.807 216.837 784.644 193.229" stroke="black" stroke-width="2" stroke-linecap="round"/>
<path d="M618.587 130.946C618.611 124.168 615.486 123.214 619.863 108" stroke="white" stroke-opacity="0.25" stroke-width="2" stroke-linecap="round"/>
<path d="M631.846 121.004C631.727 115.159 630.38 113.419 632.484 101.244" stroke="white" stroke-opacity="0.25" stroke-width="2" stroke-linecap="round"/>
<path d="M646.251 111.953C645.879 106.435 644.501 104.733 645.997 93.341" stroke="white" stroke-opacity="0.25" stroke-width="2" stroke-linecap="round"/>
<path d="M660.02 106.09C659.504 101.505 659.255 99.9705 659.128 90.6645" stroke="white" stroke-opacity="0.25" stroke-width="2" stroke-linecap="round"/>
<path d="M675.827 99.9712C675.675 95.6694 675.554 94.2346 676.083 85.4385" stroke="white" stroke-opacity="0.25" stroke-width="2" stroke-linecap="round"/>
<path d="M688.448 93.2156C688.879 90.4132 688.981 89.4868 690.361 83.6547" stroke="white" stroke-opacity="0.25" stroke-width="2" stroke-linecap="round"/>
<path d="M617.695 132.094C617.483 124.87 614.063 123.744 618.27 107.681" stroke="black" stroke-width="2" stroke-linecap="round"/>
<path d="M630.953 122.151C630.189 116.032 629.424 118.199 630.89 100.925" stroke="black" stroke-width="2" stroke-linecap="round"/>
<path d="M645.358 113.1C644.594 106.981 644.53 110.614 644.531 94.042" stroke="black" stroke-width="2" stroke-linecap="round"/>
<path d="M659.127 107.237C658.362 101.118 658.872 105.197 658.108 90.7921" stroke="black" stroke-width="2" stroke-linecap="round"/>
<path d="M674.935 101.119C674.17 94.9998 674.68 99.0792 673.915 84.6739" stroke="black" stroke-width="2" stroke-linecap="round"/>
<path d="M687.556 94.3628C687.61 90.5054 687.574 93.077 688.321 83.9095" stroke="black" stroke-width="2" stroke-linecap="round"/>
<path d="M766.394 256.967C781.311 235.424 784.243 234.022 797.82 222.485" stroke="white" stroke-opacity="0.25" stroke-width="2" stroke-linecap="round"/>
<path d="M764.946 255.247C779.862 233.703 782.795 232.301 796.372 220.765" stroke="black" stroke-width="2" stroke-linecap="round"/>
<path d="M774.293 263.868C789.868 252.213 792.262 251.917 804.538 246.992" stroke="white" stroke-opacity="0.25" stroke-width="2" stroke-linecap="round"/>
<path d="M781.502 274.242C797.373 264.491 800.794 264.708 814 261.184" stroke="white" stroke-opacity="0.25" stroke-width="2" stroke-linecap="round"/>
<path d="M772.697 263.145C788.271 251.491 790.666 251.194 802.941 246.269" stroke="black" stroke-width="2" stroke-linecap="round"/>
<path d="M780.744 272.719C797.563 262.945 799.975 262.927 812.738 259.456" stroke="black" stroke-width="2" stroke-linecap="round"/>
<path d="M835.802 174.689C832.368 172.646 825.169 178.425 820.579 182.951C819.554 183.962 817.802 183.658 817.24 182.333C798.079 137.203 809.043 104.927 812.54 100.431C816.11 95.8416 832.109 95.3961 838.355 95.6514C844.602 95.9066 846.513 102.918 844.155 104.766C841.797 106.615 841.86 111.268 843.963 115.666C846.066 120.064 854.161 122.678 847.532 127.649C840.903 132.621 838.863 149.448 845.236 159.009C851.61 168.571 840.837 177.685 835.802 174.689Z" fill="#DD933C" stroke="black" stroke-width="4" stroke-linecap="round"/>
<path d="M813.085 121.584C814.979 119.092 822.086 113.383 835.355 110.486" stroke="white" stroke-opacity="0.25" stroke-width="2" stroke-linecap="round"/>
<path d="M812.487 121.049C814.412 118.406 821.668 112.381 835.302 109.427" stroke="black" stroke-width="2" stroke-linecap="round"/>
<path d="M813.082 136.28C815.159 133.741 822.883 127.873 837.162 124.717" stroke="white" stroke-opacity="0.25" stroke-width="2" stroke-linecap="round"/>
<path d="M812.451 135.753C814.563 133.062 822.454 126.874 837.125 123.654" stroke="black" stroke-width="2" stroke-linecap="round"/>
<path d="M814.35 153.448C815.792 150.815 821.674 144.532 833.668 140.466" stroke="white" stroke-opacity="0.25" stroke-width="2" stroke-linecap="round"/>
<path d="M813.723 152.974C815.173 150.189 821.155 143.58 833.481 139.424" stroke="black" stroke-width="2" stroke-linecap="round"/>
<path d="M819.945 169.33C820.725 166.746 824.643 160.507 834.082 156.22" stroke="white" stroke-opacity="0.25" stroke-width="2" stroke-linecap="round"/>
<path d="M819.339 168.892C820.1 166.162 824.048 159.605 833.752 155.222" stroke="black" stroke-width="2" stroke-linecap="round"/>
</svg>
