<svg width="1000" height="1000" viewBox="0 0 1000 1000" fill="none" xmlns="http://www.w3.org/2000/svg">
<g filter="url(#filter0_d_880_39844)">
<mask id="path-1-outside-1_880_39844" maskUnits="userSpaceOnUse" x="457.719" y="705.375" width="110.976" height="79.5337" fill="black">
<rect fill="white" x="457.719" y="705.375" width="110.976" height="79.5337"/>
<path d="M551.829 707.881C555.638 720.029 554.464 733.191 548.568 744.474C542.671 755.756 532.534 764.234 520.387 768.042C508.239 771.851 495.076 770.677 483.794 764.781C472.512 758.884 464.034 748.747 460.225 736.6L506.027 722.24L551.829 707.881Z"/>
</mask>
<path d="M551.829 707.881C555.638 720.029 554.464 733.191 548.568 744.474C542.671 755.756 532.534 764.234 520.387 768.042C508.239 771.851 495.076 770.677 483.794 764.781C472.512 758.884 464.034 748.747 460.225 736.6L506.027 722.24L551.829 707.881Z" fill="#008026"/>
<path d="M551.829 707.881C555.638 720.029 554.464 733.191 548.568 744.474C542.671 755.756 532.534 764.234 520.387 768.042C508.239 771.851 495.076 770.677 483.794 764.781C472.512 758.884 464.034 748.747 460.225 736.6L506.027 722.24L551.829 707.881Z" stroke="black" stroke-width="4" mask="url(#path-1-outside-1_880_39844)"/>
<path d="M551.829 707.881C553.715 713.896 554.397 720.223 553.838 726.502C553.278 732.78 551.487 738.887 548.568 744.474C545.648 750.06 541.656 755.017 536.821 759.061C531.986 763.105 526.401 766.157 520.387 768.042L506.027 722.24L551.829 707.881Z" fill="black" fill-opacity="0.25"/>
<mask id="path-3-outside-2_880_39844" maskUnits="userSpaceOnUse" x="464.391" y="706.667" width="95.8226" height="69.6204" fill="black">
<rect fill="white" x="464.391" y="706.667" width="95.8226" height="69.6204"/>
<path d="M544.928 710.045C548.162 720.362 547.166 731.541 542.157 741.124C537.149 750.706 528.54 757.906 518.223 761.141C507.906 764.375 496.727 763.379 487.144 758.371C477.562 753.363 470.362 744.753 467.127 734.436L506.027 722.24L544.928 710.045Z"/>
</mask>
<path d="M544.928 710.045C548.162 720.362 547.166 731.541 542.157 741.124C537.149 750.706 528.54 757.906 518.223 761.141C507.906 764.375 496.727 763.379 487.144 758.371C477.562 753.363 470.362 744.753 467.127 734.436L506.027 722.24L544.928 710.045Z" fill="#FFF2D0"/>
<path d="M544.928 710.045C548.162 720.362 547.166 731.541 542.157 741.124C537.149 750.706 528.54 757.906 518.223 761.141C507.906 764.375 496.727 763.379 487.144 758.371C477.562 753.363 470.362 744.753 467.127 734.436L506.027 722.24L544.928 710.045Z" stroke="black" stroke-width="4" mask="url(#path-3-outside-2_880_39844)"/>
<path d="M544.928 710.045C547.873 719.44 547.319 729.584 543.367 738.602C539.415 747.621 532.333 754.904 523.43 759.107L506.027 722.241L544.928 710.045Z" fill="black" fill-opacity="0.25"/>
<mask id="path-5-outside-3_880_39844" maskUnits="userSpaceOnUse" x="470.013" y="708.408" width="82.5773" height="60.3054" fill="black">
<rect fill="white" x="470.013" y="708.408" width="82.5773" height="60.3054"/>
<path d="M539.281 711.815C542.046 720.635 541.194 730.191 536.913 738.382C532.632 746.574 525.272 752.729 516.452 755.494C507.633 758.259 498.077 757.407 489.885 753.126C481.694 748.845 475.539 741.485 472.774 732.666L506.027 722.24L539.281 711.815Z"/>
</mask>
<path d="M539.281 711.815C542.046 720.635 541.194 730.191 536.913 738.382C532.632 746.574 525.272 752.729 516.452 755.494C507.633 758.259 498.077 757.407 489.885 753.126C481.694 748.845 475.539 741.485 472.774 732.666L506.027 722.24L539.281 711.815Z" fill="#F86848"/>
<path d="M539.281 711.815C542.046 720.635 541.194 730.191 536.913 738.382C532.632 746.574 525.272 752.729 516.452 755.494C507.633 758.259 498.077 757.407 489.885 753.126C481.694 748.845 475.539 741.485 472.774 732.666L506.027 722.24L539.281 711.815Z" stroke="black" stroke-width="4" mask="url(#path-5-outside-3_880_39844)"/>
<path d="M539.281 711.815C540.65 716.182 541.145 720.776 540.739 725.334C540.333 729.893 539.032 734.327 536.913 738.383C534.793 742.438 531.895 746.037 528.384 748.973C524.874 751.909 520.819 754.125 516.452 755.494L506.027 722.241L539.281 711.815Z" fill="black" fill-opacity="0.25"/>
<path d="M485.814 734.863C485.361 736.411 484.369 737.48 483.595 737.255C482.821 737.03 482.561 735.595 483.014 734.046C483.467 732.498 484.459 731.429 485.233 731.654C486.007 731.879 486.267 733.314 485.814 734.863ZM532.091 720.655C531.638 722.204 530.646 723.273 529.872 723.048C529.099 722.823 528.838 721.388 529.292 719.839C529.745 718.291 530.736 717.222 531.51 717.447C532.284 717.672 532.544 719.107 532.091 720.655ZM518.471 730.958C519.092 732.449 518.991 733.902 518.25 734.211C517.506 734.52 516.403 733.567 515.783 732.076C515.16 730.587 515.264 729.133 516.006 728.827C516.748 728.515 517.851 729.465 518.471 730.958ZM495.053 741.833C495.674 743.323 495.573 744.776 494.832 745.085C494.088 745.394 492.985 744.441 492.365 742.951C491.745 741.46 491.846 740.007 492.588 739.701C493.333 739.388 494.433 740.34 495.053 741.833ZM509.005 748.291C508.463 749.809 507.412 750.817 506.655 750.547C505.895 750.278 505.722 748.828 506.266 747.309C506.809 745.79 507.862 744.782 508.616 745.052C509.377 745.322 509.552 746.768 509.005 748.291ZM528.906 739.994C530.085 741.095 530.592 742.459 530.046 743.046C529.494 743.638 528.095 743.22 526.915 742.12C525.736 741.022 525.228 739.655 525.778 739.067C526.328 738.473 527.724 738.888 528.906 739.994ZM503.57 729.809C504.817 730.833 505.413 732.159 504.902 732.781C504.392 733.406 502.969 733.082 501.723 732.06C500.476 731.038 499.882 729.708 500.391 729.09C500.9 728.46 502.321 728.781 503.57 729.809ZM535.282 730.191C534.74 731.71 533.69 732.718 532.93 732.449C532.17 732.179 531.996 730.729 532.541 729.21C533.082 727.689 534.134 726.684 534.891 726.954C535.654 727.222 535.829 728.669 535.282 730.191Z" fill="black"/>
</g>
<g filter="url(#filter1_d_880_39844)">
<mask id="path-8-outside-4_880_39844" maskUnits="userSpaceOnUse" x="552.984" y="342.784" width="110.051" height="76.11" fill="black">
<rect fill="white" x="552.984" y="342.784" width="110.051" height="76.11"/>
<path d="M648.162 345.234C651.457 357.53 649.732 370.632 643.367 381.657C637.002 392.682 626.517 400.726 614.221 404.021C601.924 407.316 588.822 405.591 577.798 399.226C566.773 392.861 558.728 382.377 555.433 370.08L601.798 357.657L648.162 345.234Z"/>
</mask>
<path d="M648.162 345.234C651.457 357.53 649.732 370.632 643.367 381.657C637.002 392.682 626.517 400.726 614.221 404.021C601.924 407.316 588.822 405.591 577.798 399.226C566.773 392.861 558.728 382.377 555.433 370.08L601.798 357.657L648.162 345.234Z" fill="#008026"/>
<path d="M648.162 345.234C651.457 357.53 649.732 370.632 643.367 381.657C637.002 392.682 626.517 400.726 614.221 404.021C601.924 407.316 588.822 405.591 577.798 399.226C566.773 392.861 558.728 382.377 555.433 370.08L601.798 357.657L648.162 345.234Z" stroke="black" stroke-width="4" mask="url(#path-8-outside-4_880_39844)"/>
<path d="M648.162 345.234C649.793 351.322 650.21 357.673 649.387 363.922C648.564 370.172 646.518 376.198 643.367 381.657C640.215 387.116 636.019 391.9 631.018 395.738C626.017 399.575 620.309 402.39 614.221 404.021L601.798 357.657L648.162 345.234Z" fill="black" fill-opacity="0.25"/>
<mask id="path-10-outside-5_880_39844" maskUnits="userSpaceOnUse" x="559.771" y="343.795" width="94.9753" height="66.691" fill="black">
<rect fill="white" x="559.771" y="343.795" width="94.9753" height="66.691"/>
<path d="M641.175 347.106C643.974 357.549 642.509 368.677 637.103 378.04C631.697 387.404 622.792 394.236 612.349 397.035C601.905 399.833 590.777 398.368 581.414 392.962C572.05 387.556 565.218 378.652 562.419 368.208L601.797 357.657L641.175 347.106Z"/>
</mask>
<path d="M641.175 347.106C643.974 357.549 642.509 368.677 637.103 378.04C631.697 387.404 622.792 394.236 612.349 397.035C601.905 399.833 590.777 398.368 581.414 392.962C572.05 387.556 565.218 378.652 562.419 368.208L601.797 357.657L641.175 347.106Z" fill="#FFF2D0"/>
<path d="M641.175 347.106C643.974 357.549 642.509 368.677 637.103 378.04C631.697 387.404 622.792 394.236 612.349 397.035C601.905 399.833 590.777 398.368 581.414 392.962C572.05 387.556 565.218 378.652 562.419 368.208L601.797 357.657L641.175 347.106Z" stroke="black" stroke-width="4" mask="url(#path-10-outside-5_880_39844)"/>
<path d="M641.175 347.106C643.724 356.616 642.744 366.728 638.417 375.572C634.09 384.416 626.709 391.396 617.636 395.221L601.797 357.657L641.175 347.106Z" fill="black" fill-opacity="0.25"/>
<mask id="path-12-outside-6_880_39844" maskUnits="userSpaceOnUse" x="565.467" y="345.289" width="81.8313" height="57.7896" fill="black">
<rect fill="white" x="565.467" y="345.289" width="81.8313" height="57.7896"/>
<path d="M635.46 348.637C637.852 357.565 636.599 367.077 631.978 375.081C627.357 383.086 619.745 388.927 610.817 391.319C601.89 393.711 592.377 392.459 584.373 387.837C576.369 383.216 570.528 375.604 568.136 366.677L601.798 357.657L635.46 348.637Z"/>
</mask>
<path d="M635.46 348.637C637.852 357.565 636.599 367.077 631.978 375.081C627.357 383.086 619.745 388.927 610.817 391.319C601.89 393.711 592.377 392.459 584.373 387.837C576.369 383.216 570.528 375.604 568.136 366.677L601.798 357.657L635.46 348.637Z" fill="#F86848"/>
<path d="M635.46 348.637C637.852 357.565 636.599 367.077 631.978 375.081C627.357 383.086 619.745 388.927 610.817 391.319C601.89 393.711 592.377 392.459 584.373 387.837C576.369 383.216 570.528 375.604 568.136 366.677L601.798 357.657L635.46 348.637Z" stroke="black" stroke-width="4" mask="url(#path-12-outside-6_880_39844)"/>
<path d="M635.459 348.637C636.643 353.058 636.945 357.668 636.348 362.206C635.751 366.743 634.265 371.118 631.977 375.081C629.689 379.045 626.642 382.519 623.012 385.305C619.381 388.091 615.237 390.134 610.816 391.319L601.797 357.657L635.459 348.637Z" fill="black" fill-opacity="0.25"/>
<path d="M581.072 369.419C580.555 370.947 579.519 371.974 578.755 371.716C577.992 371.459 577.792 370.014 578.31 368.486C578.827 366.958 579.863 365.932 580.627 366.189C581.39 366.446 581.59 367.891 581.072 369.419ZM627.905 357.168C627.388 358.696 626.352 359.722 625.588 359.465C624.825 359.207 624.625 357.763 625.143 356.235C625.66 354.707 626.696 353.68 627.46 353.937C628.223 354.195 628.423 355.639 627.905 357.168ZM613.865 366.89C614.422 368.405 614.26 369.852 613.507 370.13C612.751 370.408 611.689 369.409 611.132 367.894C610.572 366.38 610.737 364.931 611.491 364.657C612.246 364.376 613.308 365.372 613.865 366.89ZM590.011 376.771C590.568 378.286 590.406 379.734 589.653 380.011C588.897 380.289 587.835 379.29 587.278 377.775C586.721 376.26 586.883 374.812 587.637 374.538C588.395 374.256 589.454 375.253 590.011 376.771ZM603.679 383.809C603.074 385.303 601.982 386.266 601.236 385.965C600.488 385.664 600.376 384.208 600.984 382.713C601.59 381.219 602.685 380.255 603.427 380.557C604.175 380.858 604.289 382.311 603.679 383.809ZM623.911 376.356C625.043 377.505 625.492 378.889 624.922 379.452C624.346 380.02 622.965 379.545 621.833 378.395C620.701 377.249 620.251 375.862 620.824 375.298C621.399 374.727 622.777 375.201 623.911 376.356ZM599.025 365.115C600.228 366.191 600.768 367.541 600.231 368.141C599.695 368.744 598.288 368.36 597.085 367.287C595.882 366.214 595.344 364.86 595.879 364.264C596.414 363.655 597.821 364.036 599.025 365.115ZM630.694 366.829C630.088 368.323 628.996 369.286 628.248 368.986C627.5 368.685 627.388 367.229 627.996 365.734C628.601 364.237 629.693 363.277 630.439 363.578C631.19 363.878 631.304 365.331 630.694 366.829Z" fill="black"/>
</g>
<g filter="url(#filter2_d_880_39844)">
<mask id="path-15-outside-7_880_39844" maskUnits="userSpaceOnUse" x="171.772" y="488.917" width="112.679" height="90.6801" fill="black">
<rect fill="white" x="171.772" y="488.917" width="112.679" height="90.6801"/>
<path d="M281.776 533.813C276.177 545.246 266.266 553.987 254.223 558.113C242.179 562.238 228.99 561.411 217.557 555.812C206.124 550.213 197.383 540.302 193.257 528.259C189.132 516.215 189.959 503.026 195.558 491.593L238.667 512.703L281.776 533.813Z"/>
</mask>
<path d="M281.776 533.813C276.177 545.246 266.266 553.987 254.223 558.113C242.179 562.238 228.99 561.411 217.557 555.812C206.124 550.213 197.383 540.302 193.257 528.259C189.132 516.215 189.959 503.026 195.558 491.593L238.667 512.703L281.776 533.813Z" fill="#008026"/>
<path d="M281.776 533.813C276.177 545.246 266.266 553.987 254.223 558.113C242.179 562.238 228.99 561.411 217.557 555.812C206.124 550.213 197.383 540.302 193.257 528.259C189.132 516.215 189.959 503.026 195.558 491.593L238.667 512.703L281.776 533.813Z" stroke="black" stroke-width="4" mask="url(#path-15-outside-7_880_39844)"/>
<path d="M281.776 533.813C279.004 539.474 275.144 544.534 270.416 548.703C265.688 552.872 260.186 556.07 254.223 558.113C248.259 560.155 241.952 561.004 235.661 560.609C229.37 560.214 223.218 558.584 217.557 555.812L238.667 512.703L281.776 533.813Z" fill="black" fill-opacity="0.25"/>
<mask id="path-17-outside-8_880_39844" maskUnits="userSpaceOnUse" x="181.244" y="491.409" width="97.467" height="79.1345" fill="black">
<rect fill="white" x="181.244" y="491.409" width="97.467" height="79.1345"/>
<path d="M275.28 530.632C270.524 540.342 262.107 547.766 251.878 551.27C241.65 554.774 230.448 554.071 220.738 549.316C211.027 544.561 203.603 536.143 200.1 525.915C196.596 515.686 197.298 504.485 202.054 494.774L238.667 512.703L275.28 530.632Z"/>
</mask>
<path d="M275.28 530.632C270.524 540.342 262.107 547.766 251.878 551.27C241.65 554.774 230.448 554.071 220.738 549.316C211.027 544.561 203.603 536.143 200.1 525.915C196.596 515.686 197.298 504.485 202.054 494.774L238.667 512.703L275.28 530.632Z" fill="#FFF2D0"/>
<path d="M275.28 530.632C270.524 540.342 262.107 547.766 251.878 551.27C241.65 554.774 230.448 554.071 220.738 549.316C211.027 544.561 203.603 536.143 200.1 525.915C196.596 515.686 197.298 504.485 202.054 494.774L238.667 512.703L275.28 530.632Z" stroke="black" stroke-width="4" mask="url(#path-17-outside-8_880_39844)"/>
<path d="M275.28 530.632C270.949 539.475 263.565 546.451 254.491 550.273C245.417 554.095 235.267 554.504 225.915 551.424L238.667 512.703L275.28 530.632Z" fill="black" fill-opacity="0.25"/>
<mask id="path-19-outside-9_880_39844" maskUnits="userSpaceOnUse" x="189.234" y="493.938" width="84.051" height="68.4684" fill="black">
<rect fill="white" x="189.234" y="493.938" width="84.051" height="68.4684"/>
<path d="M269.965 528.029C265.901 536.33 258.705 542.676 249.961 545.672C241.217 548.667 231.642 548.066 223.341 544.001C215.04 539.937 208.694 532.741 205.699 523.997C202.703 515.253 203.304 505.678 207.369 497.377L238.667 512.703L269.965 528.029Z"/>
</mask>
<path d="M269.965 528.029C265.901 536.33 258.705 542.676 249.961 545.672C241.217 548.667 231.642 548.066 223.341 544.001C215.04 539.937 208.694 532.741 205.699 523.997C202.703 515.253 203.304 505.678 207.369 497.377L238.667 512.703L269.965 528.029Z" fill="#F86848"/>
<path d="M269.965 528.029C265.901 536.33 258.705 542.676 249.961 545.672C241.217 548.667 231.642 548.066 223.341 544.001C215.04 539.937 208.694 532.741 205.699 523.997C202.703 515.253 203.304 505.678 207.369 497.377L238.667 512.703L269.965 528.029Z" stroke="black" stroke-width="4" mask="url(#path-19-outside-9_880_39844)"/>
<path d="M269.965 528.029C267.953 532.139 265.15 535.813 261.718 538.84C258.285 541.867 254.291 544.188 249.961 545.671C245.632 547.155 241.052 547.77 236.485 547.484C231.917 547.197 227.451 546.014 223.341 544.001L238.667 512.703L269.965 528.029Z" fill="black" fill-opacity="0.25"/>
<path d="M215.316 507.946C213.921 508.758 212.466 508.851 212.06 508.155C211.653 507.459 212.452 506.239 213.847 505.427C215.241 504.616 216.697 504.523 217.103 505.219C217.509 505.915 216.71 507.135 215.316 507.946ZM258.665 529.494C257.27 530.305 255.815 530.398 255.409 529.702C255.003 529.006 255.801 527.786 257.196 526.975C258.59 526.163 260.046 526.07 260.452 526.766C260.858 527.462 260.06 528.682 258.665 529.494ZM241.693 527.593C241.117 529.101 240.044 530.086 239.294 529.8C238.541 529.512 238.398 528.061 238.974 526.553C239.547 525.044 240.623 524.061 241.372 524.349C242.126 524.634 242.271 526.083 241.693 527.593ZM217.221 519.362C216.645 520.87 215.571 521.855 214.821 521.569C214.069 521.282 213.925 519.831 214.501 518.323C215.077 516.815 216.15 515.83 216.899 516.119C217.656 516.405 217.798 517.852 217.221 519.362ZM222.896 533.65C221.458 534.378 220.002 534.386 219.638 533.669C219.272 532.951 220.145 531.78 221.586 531.053C223.024 530.325 224.482 530.318 224.843 531.034C225.209 531.752 224.341 532.922 222.896 533.65ZM243.043 541.33C243.141 542.94 242.57 544.278 241.769 544.328C240.962 544.378 240.234 543.112 240.136 541.501C240.037 539.893 240.609 538.553 241.412 538.504C242.221 538.452 242.947 539.714 243.043 541.33ZM231.675 516.502C231.875 518.104 231.394 519.476 230.595 519.575C229.795 519.677 228.986 518.463 228.785 516.864C228.584 515.264 229.069 513.89 229.864 513.792C230.667 513.685 231.476 514.897 231.675 516.502ZM254.416 538.608C252.978 539.336 251.522 539.344 251.156 538.626C250.79 537.907 251.662 536.736 253.103 536.009C254.543 535.278 255.997 535.273 256.361 535.99C256.729 536.71 255.861 537.88 254.416 538.608Z" fill="black"/>
</g>
<g filter="url(#filter3_d_880_39844)">
<mask id="path-22-outside-10_880_39844" maskUnits="userSpaceOnUse" x="635.289" y="415.544" width="107.48" height="107.48" fill="black">
<rect fill="white" x="635.289" y="415.544" width="107.48" height="107.48"/>
<path d="M739.941 486.255C730.939 495.257 718.73 500.314 706 500.314C693.27 500.314 681.061 495.257 672.059 486.255C663.057 477.253 658 465.044 658 452.314C658 439.583 663.057 427.374 672.059 418.373L706 452.314L739.941 486.255Z"/>
</mask>
<path d="M739.941 486.255C730.939 495.257 718.73 500.314 706 500.314C693.27 500.314 681.061 495.257 672.059 486.255C663.057 477.253 658 465.044 658 452.314C658 439.583 663.057 427.374 672.059 418.373L706 452.314L739.941 486.255Z" fill="#008026"/>
<path d="M739.941 486.255C730.939 495.257 718.73 500.314 706 500.314C693.27 500.314 681.061 495.257 672.059 486.255C663.057 477.253 658 465.044 658 452.314C658 439.583 663.057 427.374 672.059 418.373L706 452.314L739.941 486.255Z" stroke="black" stroke-width="4" mask="url(#path-22-outside-10_880_39844)"/>
<path d="M739.941 486.255C735.484 490.712 730.192 494.248 724.369 496.66C718.545 499.072 712.303 500.314 706 500.314C699.697 500.314 693.455 499.072 687.631 496.66C681.808 494.248 676.516 490.712 672.059 486.255L706 452.314L739.941 486.255Z" fill="black" fill-opacity="0.25"/>
<mask id="path-24-outside-11_880_39844" maskUnits="userSpaceOnUse" x="645.189" y="420.116" width="93.3381" height="93.3381" fill="black">
<rect fill="white" x="645.189" y="420.116" width="93.3381" height="93.3381"/>
<path d="M734.827 481.14C727.181 488.786 716.812 493.081 706 493.081C695.188 493.081 684.819 488.786 677.173 481.14C669.528 473.495 665.233 463.126 665.233 452.314C665.233 441.502 669.528 431.132 677.173 423.487L706 452.314L734.827 481.14Z"/>
</mask>
<path d="M734.827 481.14C727.181 488.786 716.812 493.081 706 493.081C695.188 493.081 684.819 488.786 677.173 481.14C669.528 473.495 665.233 463.126 665.233 452.314C665.233 441.502 669.528 431.132 677.173 423.487L706 452.314L734.827 481.14Z" fill="#FFF2D0"/>
<path d="M734.827 481.14C727.181 488.786 716.812 493.081 706 493.081C695.188 493.081 684.819 488.786 677.173 481.14C669.528 473.495 665.233 463.126 665.233 452.314C665.233 441.502 669.528 431.132 677.173 423.487L706 452.314L734.827 481.14Z" stroke="black" stroke-width="4" mask="url(#path-24-outside-11_880_39844)"/>
<path d="M734.827 481.14C727.865 488.102 718.618 492.31 708.795 492.985C698.972 493.66 689.237 490.757 681.388 484.812L706 452.313L734.827 481.14Z" fill="black" fill-opacity="0.25"/>
<mask id="path-26-outside-12_880_39844" maskUnits="userSpaceOnUse" x="653.674" y="424.243" width="80.6102" height="80.6102" fill="black">
<rect fill="white" x="653.674" y="424.243" width="80.6102" height="80.6102"/>
<path d="M730.642 476.956C724.107 483.491 715.243 487.163 706 487.163C696.757 487.163 687.893 483.491 681.358 476.956C674.822 470.42 671.151 461.556 671.151 452.314C671.151 443.071 674.822 434.207 681.358 427.672L706 452.314L730.642 476.956Z"/>
</mask>
<path d="M730.642 476.956C724.107 483.491 715.243 487.163 706 487.163C696.757 487.163 687.893 483.491 681.358 476.956C674.822 470.42 671.151 461.556 671.151 452.314C671.151 443.071 674.822 434.207 681.358 427.672L706 452.314L730.642 476.956Z" fill="#F86848"/>
<path d="M730.642 476.956C724.107 483.491 715.243 487.163 706 487.163C696.757 487.163 687.893 483.491 681.358 476.956C674.822 470.42 671.151 461.556 671.151 452.314C671.151 443.071 674.822 434.207 681.358 427.672L706 452.314L730.642 476.956Z" stroke="black" stroke-width="4" mask="url(#path-26-outside-12_880_39844)"/>
<path d="M730.642 476.956C727.406 480.192 723.564 482.759 719.336 484.51C715.108 486.261 710.576 487.163 706 487.163C701.424 487.163 696.892 486.261 692.664 484.51C688.436 482.759 684.594 480.192 681.358 476.956L706 452.313L730.642 476.956Z" fill="black" fill-opacity="0.25"/>
<path d="M685.451 440.246C683.868 440.562 682.461 440.178 682.303 439.388C682.144 438.598 683.295 437.703 684.877 437.387C686.459 437.071 687.866 437.455 688.025 438.245C688.184 439.035 687.033 439.931 685.451 440.246ZM719.477 474.679C717.895 474.995 716.488 474.611 716.329 473.821C716.171 473.031 717.322 472.136 718.904 471.82C720.486 471.504 721.893 471.888 722.052 472.678C722.211 473.468 721.06 474.363 719.477 474.679ZM704.038 467.381C703.004 468.621 701.669 469.204 701.053 468.691C700.434 468.175 700.768 466.756 701.801 465.516C702.833 464.274 704.17 463.692 704.784 464.208C705.405 464.722 705.073 466.139 704.038 467.381ZM683.553 451.663C682.52 452.903 681.185 453.487 680.568 452.973C679.949 452.458 680.283 451.038 681.317 449.799C682.35 448.559 683.685 447.975 684.3 448.491C684.923 449.006 684.589 450.422 683.553 451.663ZM684.292 467.019C682.695 467.242 681.315 466.778 681.204 465.982C681.09 465.183 682.295 464.358 683.894 464.137C685.49 463.915 686.872 464.381 686.982 465.175C687.095 465.973 685.895 466.799 684.292 467.019ZM700.862 480.814C700.433 482.369 699.46 483.45 698.686 483.237C697.906 483.023 697.628 481.589 698.057 480.034C698.484 478.48 699.46 477.397 700.235 477.612C701.017 477.824 701.296 479.254 700.862 480.814ZM698.154 453.641C697.824 455.222 696.925 456.364 696.137 456.199C695.347 456.036 694.975 454.625 695.303 453.047C695.631 451.469 696.535 450.326 697.319 450.491C698.113 450.65 698.486 452.059 698.154 453.641ZM712.504 481.924C710.907 482.147 709.527 481.683 709.414 480.885C709.3 480.086 710.505 479.261 712.104 479.041C713.703 478.816 715.081 479.282 715.192 480.078C715.308 480.879 714.107 481.704 712.504 481.924Z" fill="black"/>
</g>
<g filter="url(#filter4_d_880_39844)">
<mask id="path-29-outside-13_880_39844" maskUnits="userSpaceOnUse" x="726.6" y="503.073" width="112.334" height="86.666" fill="black">
<rect fill="white" x="726.6" y="503.073" width="112.334" height="86.666"/>
<path d="M817.729 505.691C822.659 517.428 822.724 530.643 817.91 542.428C813.096 554.213 803.798 563.604 792.061 568.533C780.324 573.463 767.109 573.528 755.324 568.714C743.539 563.9 734.148 554.602 729.219 542.865L773.474 524.278L817.729 505.691Z"/>
</mask>
<path d="M817.729 505.691C822.659 517.428 822.724 530.643 817.91 542.428C813.096 554.213 803.798 563.604 792.061 568.533C780.324 573.463 767.109 573.528 755.324 568.714C743.539 563.9 734.148 554.602 729.219 542.865L773.474 524.278L817.729 505.691Z" fill="#008026"/>
<path d="M817.729 505.691C822.659 517.428 822.724 530.643 817.91 542.428C813.096 554.213 803.798 563.604 792.061 568.533C780.324 573.463 767.109 573.528 755.324 568.714C743.539 563.9 734.148 554.602 729.219 542.865L773.474 524.278L817.729 505.691Z" stroke="black" stroke-width="4" mask="url(#path-29-outside-13_880_39844)"/>
<path d="M817.729 505.691C820.17 511.503 821.442 517.738 821.473 524.042C821.504 530.345 820.294 536.593 817.91 542.428C815.527 548.264 812.017 553.573 807.582 558.052C803.147 562.531 797.873 566.092 792.061 568.533L773.474 524.278L817.729 505.691Z" fill="black" fill-opacity="0.25"/>
<mask id="path-31-outside-14_880_39844" maskUnits="userSpaceOnUse" x="732.972" y="504.986" width="97.1031" height="75.7129" fill="black">
<rect fill="white" x="732.972" y="504.986" width="97.1031" height="75.7129"/>
<path d="M811.061 508.492C815.248 518.46 815.303 529.684 811.215 539.693C807.126 549.703 799.229 557.678 789.261 561.865C779.292 566.051 768.068 566.107 758.059 562.018C748.05 557.93 740.075 550.033 735.888 540.064L773.474 524.278L811.061 508.492Z"/>
</mask>
<path d="M811.061 508.492C815.248 518.46 815.303 529.684 811.215 539.693C807.126 549.703 799.229 557.678 789.261 561.865C779.292 566.051 768.068 566.107 758.059 562.018C748.05 557.93 740.075 550.033 735.888 540.064L773.474 524.278L811.061 508.492Z" fill="#FFF2D0"/>
<path d="M811.061 508.492C815.248 518.46 815.303 529.684 811.215 539.693C807.126 549.703 799.229 557.678 789.261 561.865C779.292 566.051 768.068 566.107 758.059 562.018C748.05 557.93 740.075 550.033 735.888 540.064L773.474 524.278L811.061 508.492Z" stroke="black" stroke-width="4" mask="url(#path-31-outside-14_880_39844)"/>
<path d="M811.06 508.492C814.873 517.57 815.271 527.721 812.182 537.07C809.092 546.419 802.724 554.333 794.253 559.352L773.473 524.278L811.06 508.492Z" fill="black" fill-opacity="0.25"/>
<mask id="path-33-outside-15_880_39844" maskUnits="userSpaceOnUse" x="738.396" y="507.265" width="83.7159" height="65.5342" fill="black">
<rect fill="white" x="738.396" y="507.265" width="83.7159" height="65.5342"/>
<path d="M805.604 510.783C809.183 519.305 809.231 528.899 805.736 537.456C802.241 546.012 795.49 552.83 786.968 556.409C778.447 559.988 768.853 560.035 760.296 556.54C751.74 553.045 744.922 546.294 741.343 537.773L773.474 524.278L805.604 510.783Z"/>
</mask>
<path d="M805.604 510.783C809.183 519.305 809.231 528.899 805.736 537.456C802.241 546.012 795.49 552.83 786.968 556.409C778.447 559.988 768.853 560.035 760.296 556.54C751.74 553.045 744.922 546.294 741.343 537.773L773.474 524.278L805.604 510.783Z" fill="#F86848"/>
<path d="M805.604 510.783C809.183 519.305 809.231 528.899 805.736 537.456C802.241 546.012 795.49 552.83 786.968 556.409C778.447 559.988 768.853 560.035 760.296 556.54C751.74 553.045 744.922 546.294 741.343 537.773L773.474 524.278L805.604 510.783Z" stroke="black" stroke-width="4" mask="url(#path-33-outside-15_880_39844)"/>
<path d="M805.604 510.783C807.376 515.003 808.3 519.53 808.323 524.106C808.345 528.683 807.466 533.219 805.736 537.456C804.005 541.692 801.457 545.547 798.237 548.799C795.017 552.051 791.188 554.636 786.968 556.409L773.474 524.278L805.604 510.783Z" fill="black" fill-opacity="0.25"/>
<path d="M754.532 538.738C754.226 540.322 753.339 541.48 752.548 541.328C751.756 541.176 751.363 539.772 751.669 538.188C751.975 536.604 752.862 535.447 753.653 535.598C754.445 535.75 754.838 537.154 754.532 538.738ZM799.275 520.258C798.969 521.842 798.082 523 797.29 522.848C796.499 522.696 796.105 521.292 796.411 519.708C796.718 518.124 797.605 516.966 798.396 517.118C799.188 517.27 799.581 518.674 799.275 520.258ZM786.681 531.792C787.438 533.217 787.473 534.674 786.765 535.05C786.053 535.428 784.866 534.582 784.109 533.157C783.349 531.732 783.316 530.275 784.026 529.901C784.736 529.52 785.923 530.364 786.681 531.792ZM764.384 544.812C765.141 546.238 765.177 547.694 764.468 548.071C763.757 548.449 762.569 547.603 761.812 546.177C761.056 544.752 761.02 543.295 761.73 542.921C762.443 542.539 763.626 543.384 764.384 544.812ZM778.88 549.935C778.482 551.497 777.53 552.599 776.751 552.401C775.969 552.204 775.661 550.777 776.061 549.214C776.459 547.651 777.413 546.548 778.189 546.747C778.971 546.944 779.281 548.367 778.88 549.935ZM797.915 539.81C799.193 540.796 799.826 542.106 799.336 542.742C798.843 543.383 797.41 543.098 796.133 542.113C794.856 541.13 794.223 539.817 794.714 539.18C795.207 538.537 796.636 538.82 797.915 539.81ZM771.737 532.043C773.075 532.946 773.793 534.211 773.342 534.878C772.892 535.548 771.446 535.358 770.109 534.458C768.772 533.557 768.055 532.289 768.505 531.625C768.952 530.95 770.398 531.137 771.737 532.043ZM803.346 529.453C802.948 531.016 801.997 532.118 801.215 531.921C800.433 531.724 800.125 530.297 800.525 528.733C800.921 527.168 801.874 526.069 802.653 526.267C803.438 526.462 803.748 527.886 803.346 529.453Z" fill="black"/>
</g>
<g filter="url(#filter5_d_880_39844)">
<mask id="path-36-outside-16_880_39844" maskUnits="userSpaceOnUse" x="372" y="312" width="100" height="52" fill="black">
<rect fill="white" x="372" y="312" width="100" height="52"/>
<path d="M470 314C470 326.73 464.943 338.939 455.941 347.941C446.939 356.943 434.73 362 422 362C409.27 362 397.061 356.943 388.059 347.941C379.057 338.939 374 326.73 374 314L422 314H470Z"/>
</mask>
<path d="M470 314C470 326.73 464.943 338.939 455.941 347.941C446.939 356.943 434.73 362 422 362C409.27 362 397.061 356.943 388.059 347.941C379.057 338.939 374 326.73 374 314L422 314H470Z" fill="#008026"/>
<path d="M470 314C470 326.73 464.943 338.939 455.941 347.941C446.939 356.943 434.73 362 422 362C409.27 362 397.061 356.943 388.059 347.941C379.057 338.939 374 326.73 374 314L422 314H470Z" stroke="black" stroke-width="4" mask="url(#path-36-outside-16_880_39844)"/>
<path d="M470 314C470 320.303 468.758 326.545 466.346 332.369C463.934 338.192 460.398 343.484 455.941 347.941C451.484 352.398 446.192 355.934 440.369 358.346C434.545 360.758 428.303 362 422 362L422 314H470Z" fill="black" fill-opacity="0.25"/>
<mask id="path-38-outside-17_880_39844" maskUnits="userSpaceOnUse" x="379.232" y="311.233" width="86" height="46" fill="black">
<rect fill="white" x="379.232" y="311.233" width="86" height="46"/>
<path d="M462.767 314C462.767 324.812 458.472 335.181 450.826 342.827C443.181 350.472 432.812 354.767 422 354.767C411.187 354.767 400.818 350.472 393.173 342.827C385.528 335.181 381.232 324.812 381.232 314L422 314H462.767Z"/>
</mask>
<path d="M462.767 314C462.767 324.812 458.472 335.181 450.826 342.827C443.181 350.472 432.812 354.767 422 354.767C411.187 354.767 400.818 350.472 393.173 342.827C385.528 335.181 381.232 324.812 381.232 314L422 314H462.767Z" fill="#FFF2D0"/>
<path d="M462.767 314C462.767 324.812 458.472 335.181 450.826 342.827C443.181 350.472 432.812 354.767 422 354.767C411.187 354.767 400.818 350.472 393.173 342.827C385.528 335.181 381.232 324.812 381.232 314L422 314H462.767Z" stroke="black" stroke-width="4" mask="url(#path-38-outside-17_880_39844)"/>
<path d="M462.767 314C462.767 323.846 459.203 333.359 452.735 340.783C446.266 348.206 437.33 353.037 427.576 354.384L422 314H462.767Z" fill="black" fill-opacity="0.25"/>
<mask id="path-40-outside-18_880_39844" maskUnits="userSpaceOnUse" x="385.15" y="311.151" width="74" height="40" fill="black">
<rect fill="white" x="385.15" y="311.151" width="74" height="40"/>
<path d="M456.849 314C456.849 323.243 453.177 332.107 446.642 338.642C440.106 345.178 431.242 348.849 422 348.849C412.757 348.849 403.893 345.178 397.358 338.642C390.822 332.107 387.15 323.243 387.15 314L422 314H456.849Z"/>
</mask>
<path d="M456.849 314C456.849 323.243 453.177 332.107 446.642 338.642C440.106 345.178 431.242 348.849 422 348.849C412.757 348.849 403.893 345.178 397.358 338.642C390.822 332.107 387.15 323.243 387.15 314L422 314H456.849Z" fill="#F86848"/>
<path d="M456.849 314C456.849 323.243 453.177 332.107 446.642 338.642C440.106 345.178 431.242 348.849 422 348.849C412.757 348.849 403.893 345.178 397.358 338.642C390.822 332.107 387.15 323.243 387.15 314L422 314H456.849Z" stroke="black" stroke-width="4" mask="url(#path-40-outside-18_880_39844)"/>
<path d="M456.849 314C456.849 318.576 455.948 323.108 454.196 327.336C452.445 331.564 449.878 335.406 446.642 338.642C443.406 341.878 439.564 344.445 435.336 346.197C431.108 347.948 426.576 348.849 422 348.849V314H456.849Z" fill="black" fill-opacity="0.25"/>
<path d="M398.936 319.997C398.041 321.339 396.774 322.063 396.103 321.616C395.432 321.17 395.613 319.723 396.509 318.381C397.405 317.039 398.671 316.316 399.342 316.762C400.013 317.208 399.832 318.655 398.936 319.997ZM447.344 320.285C446.449 321.627 445.183 322.35 444.512 321.904C443.841 321.457 444.022 320.01 444.917 318.668C445.813 317.326 447.079 316.603 447.75 317.049C448.421 317.496 448.24 318.943 447.344 320.285ZM431.266 326.042C431.412 327.649 430.881 329.006 430.082 329.078C429.28 329.151 428.512 327.912 428.366 326.304C428.218 324.697 428.752 323.34 429.551 323.27C430.353 323.194 431.12 324.431 431.266 326.042ZM405.668 329.412C405.814 331.02 405.283 332.376 404.483 332.449C403.681 332.522 402.914 331.282 402.768 329.675C402.622 328.067 403.153 326.711 403.952 326.641C404.757 326.565 405.522 327.802 405.668 329.412ZM417.048 339.748C416.077 341.035 414.773 341.682 414.131 341.198C413.486 340.714 413.755 339.278 414.729 337.992C415.7 336.705 417.007 336.058 417.646 336.542C418.291 337.026 418.026 338.459 417.048 339.748ZM438.52 337.785C439.316 339.188 439.392 340.641 438.695 341.038C437.991 341.438 436.781 340.621 435.984 339.217C435.188 337.817 435.112 336.361 435.812 335.965C436.515 335.562 437.723 336.376 438.52 337.785ZM417.391 320.486C418.275 321.837 418.447 323.281 417.773 323.722C417.099 324.165 415.839 323.43 414.955 322.082C414.071 320.734 413.902 319.287 414.573 318.85C415.247 318.4 416.507 319.133 417.391 320.486ZM447.537 330.339C446.565 331.625 445.261 332.273 444.617 331.789C443.972 331.304 444.24 329.869 445.215 328.582C446.186 327.293 447.49 326.648 448.132 327.132C448.78 327.617 448.514 329.049 447.537 330.339Z" fill="black"/>
</g>
<g filter="url(#filter6_d_880_39844)">
<mask id="path-43-outside-19_880_39844" maskUnits="userSpaceOnUse" x="555.11" y="477.351" width="110.231" height="76.733" fill="black">
<rect fill="white" x="555.11" y="477.351" width="110.231" height="76.733"/>
<path d="M650.11 479.811C653.497 492.083 651.871 505.197 645.589 516.27C639.307 527.342 628.883 535.465 616.612 538.853C604.34 542.24 591.226 540.614 580.153 534.332C569.081 528.049 560.958 517.626 557.57 505.355L603.84 492.583L650.11 479.811Z"/>
</mask>
<path d="M650.11 479.811C653.497 492.083 651.871 505.197 645.589 516.27C639.307 527.342 628.883 535.465 616.612 538.853C604.34 542.24 591.226 540.614 580.153 534.332C569.081 528.049 560.958 517.626 557.57 505.355L603.84 492.583L650.11 479.811Z" fill="#008026"/>
<path d="M650.11 479.811C653.497 492.083 651.871 505.197 645.589 516.27C639.307 527.342 628.883 535.465 616.612 538.853C604.34 542.24 591.226 540.614 580.153 534.332C569.081 528.049 560.958 517.626 557.57 505.355L603.84 492.583L650.11 479.811Z" stroke="black" stroke-width="4" mask="url(#path-43-outside-19_880_39844)"/>
<path d="M650.11 479.811C651.787 485.888 652.251 492.235 651.475 498.49C650.7 504.746 648.699 510.787 645.589 516.27C642.478 521.752 638.318 526.568 633.346 530.443C628.374 534.318 622.688 537.176 616.612 538.853L603.84 492.583L650.11 479.811Z" fill="black" fill-opacity="0.25"/>
<mask id="path-45-outside-20_880_39844" maskUnits="userSpaceOnUse" x="561.878" y="478.412" width="95.1394" height="67.2243" fill="black">
<rect fill="white" x="561.878" y="478.412" width="95.1394" height="67.2243"/>
<path d="M643.138 481.736C646.014 492.158 644.633 503.297 639.298 512.701C633.962 522.104 625.109 529.004 614.687 531.881C604.265 534.757 593.126 533.376 583.722 528.041C574.319 522.705 567.419 513.852 564.542 503.43L603.84 492.583L643.138 481.736Z"/>
</mask>
<path d="M643.138 481.736C646.014 492.158 644.633 503.297 639.298 512.701C633.962 522.104 625.109 529.004 614.687 531.881C604.265 534.757 593.126 533.376 583.722 528.041C574.319 522.705 567.419 513.852 564.542 503.43L603.84 492.583L643.138 481.736Z" fill="#FFF2D0"/>
<path d="M643.138 481.736C646.014 492.158 644.633 503.297 639.298 512.701C633.962 522.104 625.109 529.004 614.687 531.881C604.265 534.757 593.126 533.376 583.722 528.041C574.319 522.705 567.419 513.852 564.542 503.43L603.84 492.583L643.138 481.736Z" stroke="black" stroke-width="4" mask="url(#path-45-outside-20_880_39844)"/>
<path d="M643.138 481.736C645.757 491.227 644.854 501.346 640.593 510.222C636.333 519.099 629.004 526.134 619.961 530.027L603.84 492.583L643.138 481.736Z" fill="black" fill-opacity="0.25"/>
<mask id="path-47-outside-21_880_39844" maskUnits="userSpaceOnUse" x="567.561" y="479.952" width="81.9755" height="58.2476" fill="black">
<rect fill="white" x="567.561" y="479.952" width="81.9755" height="58.2476"/>
<path d="M637.433 483.31C639.893 492.22 638.712 501.741 634.151 509.78C629.59 517.819 622.022 523.717 613.113 526.176C604.203 528.635 594.682 527.455 586.643 522.894C578.604 518.333 572.706 510.765 570.247 501.856L603.84 492.583L637.433 483.31Z"/>
</mask>
<path d="M637.433 483.31C639.893 492.22 638.712 501.741 634.151 509.78C629.59 517.819 622.022 523.717 613.113 526.176C604.203 528.635 594.682 527.455 586.643 522.894C578.604 518.333 572.706 510.765 570.247 501.856L603.84 492.583L637.433 483.31Z" fill="#F86848"/>
<path d="M637.433 483.31C639.893 492.22 638.712 501.741 634.151 509.78C629.59 517.819 622.022 523.717 613.113 526.176C604.203 528.635 594.682 527.455 586.643 522.894C578.604 518.333 572.706 510.765 570.247 501.856L603.84 492.583L637.433 483.31Z" stroke="black" stroke-width="4" mask="url(#path-47-outside-21_880_39844)"/>
<path d="M637.433 483.311C638.651 487.722 638.988 492.33 638.425 496.872C637.861 501.414 636.409 505.8 634.151 509.78C631.892 513.761 628.872 517.257 625.262 520.071C621.653 522.884 617.524 524.958 613.113 526.176L603.84 492.583L637.433 483.311Z" fill="black" fill-opacity="0.25"/>
<path d="M583.204 504.501C582.697 506.033 581.669 507.067 580.904 506.815C580.138 506.564 579.928 505.121 580.434 503.589C580.94 502.057 581.968 501.022 582.734 501.274C583.499 501.526 583.71 502.969 583.204 504.501ZM629.943 491.897C629.437 493.429 628.409 494.464 627.644 494.212C626.878 493.96 626.667 492.517 627.174 490.985C627.68 489.453 628.708 488.419 629.473 488.671C630.239 488.923 630.45 490.365 629.943 491.897ZM615.977 501.725C616.545 503.236 616.394 504.684 615.643 504.967C614.889 505.251 613.819 504.26 613.251 502.75C612.68 501.24 612.834 499.79 613.586 499.51C614.339 499.223 615.407 500.211 615.977 501.725ZM592.198 511.785C592.766 513.296 592.615 514.745 591.864 515.028C591.11 515.312 590.04 514.321 589.472 512.81C588.904 511.299 589.055 509.85 589.807 509.57C590.563 509.283 591.628 510.272 592.198 511.785ZM605.918 518.72C605.324 520.219 604.239 521.19 603.492 520.894C602.741 520.599 602.618 519.144 603.215 517.645C603.809 516.146 604.897 515.174 605.641 515.471C606.392 515.766 606.517 517.217 605.918 518.72ZM626.093 511.115C627.234 512.256 627.694 513.636 627.127 514.204C626.556 514.776 625.171 514.311 624.03 513.17C622.89 512.032 622.43 510.649 622.999 510.081C623.57 509.505 624.95 509.969 626.093 511.115ZM601.123 500.062C602.335 501.129 602.885 502.475 602.353 503.079C601.821 503.686 600.41 503.312 599.2 502.248C597.989 501.184 597.441 499.834 597.971 499.234C598.501 498.622 599.911 498.992 601.123 500.062ZM632.804 501.538C632.21 503.036 631.125 504.008 630.375 503.712C629.624 503.417 629.501 501.962 630.098 500.463C630.692 498.961 631.777 497.993 632.525 498.289C633.278 498.583 633.403 500.035 632.804 501.538Z" fill="black"/>
</g>
<g filter="url(#filter7_d_880_39844)">
<mask id="path-50-outside-22_880_39844" maskUnits="userSpaceOnUse" x="232.21" y="600.635" width="108.717" height="71.9176" fill="black">
<rect fill="white" x="232.21" y="600.635" width="108.717" height="71.9176"/>
<path d="M328.428 603.012C331.112 615.456 328.743 628.456 321.842 639.154C314.941 649.852 304.073 657.369 291.629 660.054C279.185 662.738 266.184 660.369 255.486 653.468C244.789 646.567 237.271 635.699 234.587 623.255L281.507 613.133L328.428 603.012Z"/>
</mask>
<path d="M328.428 603.012C331.112 615.456 328.743 628.456 321.842 639.154C314.941 649.852 304.073 657.369 291.629 660.054C279.185 662.738 266.184 660.369 255.486 653.468C244.789 646.567 237.271 635.699 234.587 623.255L281.507 613.133L328.428 603.012Z" fill="#008026"/>
<path d="M328.428 603.012C331.112 615.456 328.743 628.456 321.842 639.154C314.941 649.852 304.073 657.369 291.629 660.054C279.185 662.738 266.184 660.369 255.486 653.468C244.789 646.567 237.271 635.699 234.587 623.255L281.507 613.133L328.428 603.012Z" stroke="black" stroke-width="4" mask="url(#path-50-outside-22_880_39844)"/>
<path d="M328.428 603.012C329.757 609.173 329.86 615.536 328.73 621.738C327.6 627.939 325.259 633.857 321.842 639.154C318.425 644.451 313.998 649.023 308.814 652.609C303.63 656.195 297.791 658.725 291.629 660.054L281.507 613.133L328.428 603.012Z" fill="black" fill-opacity="0.25"/>
<mask id="path-52-outside-23_880_39844" maskUnits="userSpaceOnUse" x="239.119" y="601.312" width="93.7662" height="63.1003" fill="black">
<rect fill="white" x="239.119" y="601.312" width="93.7662" height="63.1003"/>
<path d="M321.358 604.537C323.638 615.106 321.626 626.147 315.765 635.233C309.903 644.319 300.673 650.704 290.104 652.984C279.535 655.264 268.493 653.252 259.408 647.39C250.322 641.529 243.937 632.299 241.657 621.73L281.507 613.133L321.358 604.537Z"/>
</mask>
<path d="M321.358 604.537C323.638 615.106 321.626 626.147 315.765 635.233C309.903 644.319 300.673 650.704 290.104 652.984C279.535 655.264 268.493 653.252 259.408 647.39C250.322 641.529 243.937 632.299 241.657 621.73L281.507 613.133L321.358 604.537Z" fill="#FFF2D0"/>
<path d="M321.358 604.537C323.638 615.106 321.626 626.147 315.765 635.233C309.903 644.319 300.673 650.704 290.104 652.984C279.535 655.264 268.493 653.252 259.408 647.39C250.322 641.529 243.937 632.299 241.657 621.73L281.507 613.133L321.358 604.537Z" stroke="black" stroke-width="4" mask="url(#path-52-outside-23_880_39844)"/>
<path d="M321.357 604.537C323.433 614.161 321.956 624.212 317.198 632.833C312.44 641.453 304.724 648.06 295.474 651.433L281.507 613.133L321.357 604.537Z" fill="black" fill-opacity="0.25"/>
<mask id="path-54-outside-24_880_39844" maskUnits="userSpaceOnUse" x="244.886" y="602.514" width="80.7708" height="54.7048" fill="black">
<rect fill="white" x="244.886" y="602.514" width="80.7708" height="54.7048"/>
<path d="M315.573 605.785C317.522 614.819 315.802 624.258 310.791 632.025C305.781 639.792 297.891 645.25 288.856 647.199C279.821 649.148 270.382 647.428 262.615 642.418C254.849 637.407 249.39 629.517 247.441 620.482L281.507 613.133L315.573 605.785Z"/>
</mask>
<path d="M315.573 605.785C317.522 614.819 315.802 624.258 310.791 632.025C305.781 639.792 297.891 645.25 288.856 647.199C279.821 649.148 270.382 647.428 262.615 642.418C254.849 637.407 249.39 629.517 247.441 620.482L281.507 613.133L315.573 605.785Z" fill="#F86848"/>
<path d="M315.573 605.785C317.522 614.819 315.802 624.258 310.791 632.025C305.781 639.792 297.891 645.25 288.856 647.199C279.821 649.148 270.382 647.428 262.615 642.418C254.849 637.407 249.39 629.517 247.441 620.482L281.507 613.133L315.573 605.785Z" stroke="black" stroke-width="4" mask="url(#path-54-outside-24_880_39844)"/>
<path d="M315.573 605.785C316.538 610.258 316.612 614.878 315.792 619.38C314.972 623.883 313.272 628.179 310.791 632.025C308.311 635.871 305.096 639.19 301.333 641.794C297.569 644.397 293.329 646.234 288.856 647.199L281.507 613.133L315.573 605.785Z" fill="black" fill-opacity="0.25"/>
<path d="M260.227 623.859C259.634 625.36 258.549 626.334 257.799 626.039C257.049 625.744 256.921 624.292 257.513 622.791C258.106 621.29 259.191 620.316 259.941 620.611C260.691 620.906 260.819 622.358 260.227 623.859ZM307.607 613.932C307.015 615.433 305.929 616.407 305.179 616.112C304.429 615.817 304.301 614.365 304.894 612.864C305.486 611.363 306.571 610.389 307.321 610.684C308.071 610.979 308.2 612.431 307.607 613.932ZM293.104 622.95C293.586 624.49 293.353 625.928 292.587 626.168C291.818 626.409 290.807 625.359 290.325 623.818C289.841 622.278 290.077 620.839 290.843 620.602C291.611 620.359 292.622 621.406 293.104 622.95ZM268.792 631.643C269.274 633.183 269.041 634.621 268.275 634.861C267.506 635.102 266.494 634.052 266.013 632.511C265.531 630.97 265.764 629.532 266.531 629.295C267.302 629.051 268.31 630.099 268.792 631.643ZM282.096 639.346C281.418 640.809 280.28 641.717 279.55 641.379C278.818 641.042 278.778 639.582 279.459 638.119C280.137 636.656 281.278 635.748 282.005 636.086C282.737 636.424 282.78 637.88 282.096 639.346ZM302.671 632.9C303.745 634.104 304.126 635.508 303.528 636.043C302.925 636.582 301.569 636.038 300.495 634.835C299.421 633.634 299.04 632.227 299.641 631.691C300.243 631.149 301.595 631.69 302.671 632.9ZM278.37 620.446C279.519 621.58 279.991 622.955 279.425 623.528C278.86 624.103 277.473 623.65 276.325 622.519C275.177 621.388 274.706 620.009 275.27 619.44C275.834 618.859 277.22 619.309 278.37 620.446ZM309.915 623.719C309.237 625.182 308.099 626.09 307.366 625.753C306.634 625.415 306.594 623.955 307.275 622.492C307.953 621.027 309.091 620.122 309.821 620.46C310.556 620.797 310.599 622.253 309.915 623.719Z" fill="black"/>
</g>
<g filter="url(#filter8_d_880_39844)">
<mask id="path-57-outside-25_880_39844" maskUnits="userSpaceOnUse" x="489" y="604" width="100" height="52" fill="black">
<rect fill="white" x="489" y="604" width="100" height="52"/>
<path d="M587 606C587 618.73 581.943 630.939 572.941 639.941C563.939 648.943 551.73 654 539 654C526.27 654 514.061 648.943 505.059 639.941C496.057 630.939 491 618.73 491 606L539 606H587Z"/>
</mask>
<path d="M587 606C587 618.73 581.943 630.939 572.941 639.941C563.939 648.943 551.73 654 539 654C526.27 654 514.061 648.943 505.059 639.941C496.057 630.939 491 618.73 491 606L539 606H587Z" fill="#008026"/>
<path d="M587 606C587 618.73 581.943 630.939 572.941 639.941C563.939 648.943 551.73 654 539 654C526.27 654 514.061 648.943 505.059 639.941C496.057 630.939 491 618.73 491 606L539 606H587Z" stroke="black" stroke-width="4" mask="url(#path-57-outside-25_880_39844)"/>
<path d="M587 606C587 612.303 585.758 618.545 583.346 624.369C580.934 630.192 577.398 635.484 572.941 639.941C568.484 644.398 563.192 647.934 557.369 650.346C551.545 652.758 545.303 654 539 654L539 606H587Z" fill="black" fill-opacity="0.25"/>
<mask id="path-59-outside-26_880_39844" maskUnits="userSpaceOnUse" x="496.232" y="603.233" width="86" height="46" fill="black">
<rect fill="white" x="496.232" y="603.233" width="86" height="46"/>
<path d="M579.767 606C579.767 616.812 575.472 627.181 567.826 634.827C560.181 642.472 549.812 646.767 539 646.767C528.187 646.767 517.818 642.472 510.173 634.827C502.528 627.181 498.232 616.812 498.232 606L539 606H579.767Z"/>
</mask>
<path d="M579.767 606C579.767 616.812 575.472 627.181 567.826 634.827C560.181 642.472 549.812 646.767 539 646.767C528.187 646.767 517.818 642.472 510.173 634.827C502.528 627.181 498.232 616.812 498.232 606L539 606H579.767Z" fill="#FFF2D0"/>
<path d="M579.767 606C579.767 616.812 575.472 627.181 567.826 634.827C560.181 642.472 549.812 646.767 539 646.767C528.187 646.767 517.818 642.472 510.173 634.827C502.528 627.181 498.232 616.812 498.232 606L539 606H579.767Z" stroke="black" stroke-width="4" mask="url(#path-59-outside-26_880_39844)"/>
<path d="M579.767 606C579.767 615.846 576.203 625.359 569.735 632.783C563.266 640.206 554.33 645.037 544.576 646.384L539 606H579.767Z" fill="black" fill-opacity="0.25"/>
<mask id="path-61-outside-27_880_39844" maskUnits="userSpaceOnUse" x="502.15" y="603.151" width="74" height="40" fill="black">
<rect fill="white" x="502.15" y="603.151" width="74" height="40"/>
<path d="M573.849 606C573.849 615.243 570.177 624.107 563.642 630.642C557.106 637.178 548.242 640.849 539 640.849C529.757 640.849 520.893 637.178 514.358 630.642C507.822 624.107 504.15 615.243 504.15 606L539 606H573.849Z"/>
</mask>
<path d="M573.849 606C573.849 615.243 570.177 624.107 563.642 630.642C557.106 637.178 548.242 640.849 539 640.849C529.757 640.849 520.893 637.178 514.358 630.642C507.822 624.107 504.15 615.243 504.15 606L539 606H573.849Z" fill="#F86848"/>
<path d="M573.849 606C573.849 615.243 570.177 624.107 563.642 630.642C557.106 637.178 548.242 640.849 539 640.849C529.757 640.849 520.893 637.178 514.358 630.642C507.822 624.107 504.15 615.243 504.15 606L539 606H573.849Z" stroke="black" stroke-width="4" mask="url(#path-61-outside-27_880_39844)"/>
<path d="M573.849 606C573.849 610.576 572.948 615.108 571.196 619.336C569.445 623.564 566.878 627.406 563.642 630.642C560.406 633.878 556.564 636.445 552.336 638.197C548.108 639.948 543.576 640.849 539 640.849V606H573.849Z" fill="black" fill-opacity="0.25"/>
<path d="M515.936 611.997C515.041 613.339 513.774 614.063 513.103 613.616C512.432 613.17 512.613 611.723 513.509 610.381C514.405 609.039 515.671 608.316 516.342 608.762C517.013 609.208 516.832 610.655 515.936 611.997ZM564.344 612.285C563.449 613.627 562.183 614.35 561.512 613.904C560.841 613.457 561.022 612.01 561.917 610.668C562.813 609.326 564.079 608.603 564.75 609.049C565.421 609.496 565.24 610.943 564.344 612.285ZM548.266 618.042C548.412 619.649 547.881 621.006 547.082 621.078C546.28 621.151 545.512 619.912 545.366 618.304C545.218 616.697 545.752 615.34 546.551 615.27C547.353 615.194 548.12 616.431 548.266 618.042ZM522.668 621.412C522.814 623.02 522.283 624.376 521.483 624.449C520.681 624.522 519.914 623.282 519.768 621.675C519.622 620.067 520.153 618.711 520.952 618.641C521.757 618.565 522.522 619.802 522.668 621.412ZM534.048 631.748C533.077 633.035 531.773 633.682 531.131 633.198C530.486 632.714 530.755 631.278 531.729 629.992C532.7 628.705 534.007 628.058 534.646 628.542C535.291 629.026 535.026 630.459 534.048 631.748ZM555.52 629.785C556.316 631.188 556.392 632.641 555.695 633.038C554.991 633.438 553.781 632.621 552.984 631.217C552.188 629.817 552.112 628.361 552.812 627.965C553.515 627.562 554.723 628.376 555.52 629.785ZM534.391 612.486C535.275 613.837 535.447 615.281 534.773 615.722C534.099 616.165 532.839 615.43 531.955 614.082C531.071 612.734 530.902 611.287 531.573 610.85C532.247 610.4 533.507 611.133 534.391 612.486ZM564.537 622.339C563.565 623.625 562.261 624.273 561.617 623.789C560.972 623.304 561.24 621.869 562.215 620.582C563.186 619.293 564.49 618.648 565.132 619.132C565.78 619.617 565.514 621.049 564.537 622.339Z" fill="black"/>
</g>
<g filter="url(#filter9_d_880_39844)">
<mask id="path-64-outside-28_880_39844" maskUnits="userSpaceOnUse" x="305.114" y="646.718" width="110.729" height="102.736" fill="black">
<rect fill="white" x="305.114" y="646.718" width="110.729" height="102.736"/>
<path d="M413.034 708.943C405.155 718.942 393.627 725.402 380.985 726.901C368.343 728.4 355.623 724.816 345.624 716.937C335.625 709.058 329.165 697.529 327.666 684.887C326.167 672.245 329.752 659.526 337.631 649.527L375.332 679.235L413.034 708.943Z"/>
</mask>
<path d="M413.034 708.943C405.155 718.942 393.627 725.402 380.985 726.901C368.343 728.4 355.623 724.816 345.624 716.937C335.625 709.058 329.165 697.529 327.666 684.887C326.167 672.245 329.752 659.526 337.631 649.527L375.332 679.235L413.034 708.943Z" fill="#008026"/>
<path d="M413.034 708.943C405.155 718.942 393.627 725.402 380.985 726.901C368.343 728.4 355.623 724.816 345.624 716.937C335.625 709.058 329.165 697.529 327.666 684.887C326.167 672.245 329.752 659.526 337.631 649.527L375.332 679.235L413.034 708.943Z" stroke="black" stroke-width="4" mask="url(#path-64-outside-28_880_39844)"/>
<path d="M413.034 708.943C409.133 713.894 404.295 718.028 398.795 721.11C393.296 724.191 387.244 726.159 380.985 726.901C374.725 727.643 368.381 727.145 362.313 725.436C356.246 723.726 350.575 720.838 345.624 716.937L375.332 679.235L413.034 708.943Z" fill="black" fill-opacity="0.25"/>
<mask id="path-66-outside-29_880_39844" maskUnits="userSpaceOnUse" x="314.983" y="650.592" width="96.0193" height="89.3581" fill="black">
<rect fill="white" x="314.983" y="650.592" width="96.0193" height="89.3581"/>
<path d="M407.353 704.467C400.661 712.959 390.869 718.445 380.133 719.718C369.396 720.992 358.593 717.947 350.1 711.256C341.608 704.564 336.122 694.772 334.849 684.036C333.575 673.299 336.619 662.496 343.311 654.003L375.332 679.235L407.353 704.467Z"/>
</mask>
<path d="M407.353 704.467C400.661 712.959 390.869 718.445 380.133 719.718C369.396 720.992 358.593 717.947 350.1 711.256C341.608 704.564 336.122 694.772 334.849 684.036C333.575 673.299 336.619 662.496 343.311 654.003L375.332 679.235L407.353 704.467Z" fill="#FFF2D0"/>
<path d="M407.353 704.467C400.661 712.959 390.869 718.445 380.133 719.718C369.396 720.992 358.593 717.947 350.1 711.256C341.608 704.564 336.122 694.772 334.849 684.036C333.575 673.299 336.619 662.496 343.311 654.003L375.332 679.235L407.353 704.467Z" stroke="black" stroke-width="4" mask="url(#path-66-outside-29_880_39844)"/>
<path d="M407.353 704.466C401.259 712.2 392.572 717.467 382.897 719.294C373.222 721.121 363.212 719.385 354.718 714.406L375.332 679.235L407.353 704.466Z" fill="black" fill-opacity="0.25"/>
<mask id="path-68-outside-30_880_39844" maskUnits="userSpaceOnUse" x="323.396" y="654.19" width="82.8804" height="77.2183" fill="black">
<rect fill="white" x="323.396" y="654.19" width="82.8804" height="77.2183"/>
<path d="M402.705 700.804C396.985 708.064 388.615 712.753 379.437 713.842C370.258 714.93 361.024 712.328 353.764 706.607C346.504 700.887 341.814 692.517 340.726 683.339C339.638 674.16 342.24 664.926 347.96 657.666L375.333 679.235L402.705 700.804Z"/>
</mask>
<path d="M402.705 700.804C396.985 708.064 388.615 712.753 379.437 713.842C370.258 714.93 361.024 712.328 353.764 706.607C346.504 700.887 341.814 692.517 340.726 683.339C339.638 674.16 342.24 664.926 347.96 657.666L375.333 679.235L402.705 700.804Z" fill="#F86848"/>
<path d="M402.705 700.804C396.985 708.064 388.615 712.753 379.437 713.842C370.258 714.93 361.024 712.328 353.764 706.607C346.504 700.887 341.814 692.517 340.726 683.339C339.638 674.16 342.24 664.926 347.96 657.666L375.333 679.235L402.705 700.804Z" stroke="black" stroke-width="4" mask="url(#path-68-outside-30_880_39844)"/>
<path d="M402.704 700.804C399.872 704.398 396.359 707.4 392.367 709.637C388.374 711.874 383.98 713.303 379.436 713.842C374.891 714.381 370.285 714.019 365.88 712.778C361.475 711.536 357.358 709.44 353.763 706.607L375.332 679.235L402.704 700.804Z" fill="black" fill-opacity="0.25"/>
<path d="M353.505 669.671C351.971 670.171 350.529 669.956 350.278 669.19C350.027 668.424 351.065 667.399 352.599 666.899C354.133 666.4 355.575 666.615 355.826 667.381C356.077 668.147 355.039 669.171 353.505 669.671ZM391.35 699.858C389.816 700.357 388.373 700.142 388.123 699.376C387.872 698.61 388.91 697.586 390.444 697.086C391.978 696.586 393.42 696.802 393.671 697.567C393.921 698.333 392.884 699.358 391.35 699.858ZM375.158 694.428C374.278 695.781 373.021 696.518 372.348 696.081C371.673 695.641 371.838 694.193 372.718 692.84C373.596 691.485 374.855 690.75 375.526 691.19C376.203 691.627 376.04 693.073 375.158 694.428ZM352.965 681.232C352.085 682.585 350.828 683.322 350.155 682.885C349.48 682.445 349.645 680.997 350.525 679.644C351.405 678.291 352.662 677.554 353.333 677.994C354.013 678.433 353.847 679.877 352.965 681.232ZM355.507 696.394C353.948 696.804 352.523 696.505 352.318 695.728C352.112 694.948 353.211 693.987 354.772 693.58C356.332 693.17 357.759 693.471 357.961 694.246C358.168 695.026 357.073 695.987 355.507 696.394ZM373.587 708.142C373.344 709.737 372.504 710.925 371.711 710.805C370.911 710.684 370.466 709.293 370.709 707.698C370.95 706.105 371.792 704.914 372.587 705.036C373.388 705.155 373.833 706.542 373.587 708.142ZM367.698 681.477C367.556 683.085 366.797 684.326 365.996 684.255C365.192 684.186 364.657 682.829 364.797 681.223C364.937 679.617 365.699 678.376 366.497 678.448C367.305 678.512 367.841 679.867 367.698 681.477ZM385.278 707.874C383.719 708.283 382.294 707.985 382.087 707.205C381.88 706.426 382.98 705.464 384.541 705.057C386.102 704.645 387.526 704.946 387.73 705.724C387.939 706.505 386.844 707.466 385.278 707.874Z" fill="black"/>
</g>
<g filter="url(#filter10_d_880_39844)">
<mask id="path-71-outside-31_880_39844" maskUnits="userSpaceOnUse" x="646.999" y="545.405" width="109.149" height="105.501" fill="black">
<rect fill="white" x="646.999" y="545.405" width="109.149" height="105.501"/>
<path d="M753.324 612.365C744.819 621.838 732.9 627.544 720.188 628.228C707.476 628.912 695.012 624.518 685.54 616.013C676.067 607.508 670.361 595.589 669.677 582.877C668.993 570.165 673.387 557.702 681.892 548.229L717.608 580.297L753.324 612.365Z"/>
</mask>
<path d="M753.324 612.365C744.819 621.838 732.9 627.544 720.188 628.228C707.476 628.912 695.012 624.518 685.54 616.013C676.067 607.508 670.361 595.589 669.677 582.877C668.993 570.165 673.387 557.702 681.892 548.229L717.608 580.297L753.324 612.365Z" fill="#008026"/>
<path d="M753.324 612.365C744.819 621.838 732.9 627.544 720.188 628.228C707.476 628.912 695.012 624.518 685.54 616.013C676.067 607.508 670.361 595.589 669.677 582.877C668.993 570.165 673.387 557.702 681.892 548.229L717.608 580.297L753.324 612.365Z" stroke="black" stroke-width="4" mask="url(#path-71-outside-31_880_39844)"/>
<path d="M753.324 612.365C749.113 617.056 744.019 620.871 738.333 623.592C732.648 626.314 726.482 627.889 720.188 628.228C713.893 628.567 707.594 627.662 701.649 625.567C695.704 623.471 690.23 620.225 685.54 616.013L717.608 580.297L753.324 612.365Z" fill="black" fill-opacity="0.25"/>
<mask id="path-73-outside-32_880_39844" maskUnits="userSpaceOnUse" x="656.902" y="549.666" width="94.7232" height="91.6832" fill="black">
<rect fill="white" x="656.902" y="549.666" width="94.7232" height="91.6832"/>
<path d="M747.942 607.533C740.719 615.578 730.595 620.424 719.799 621.006C709.002 621.587 698.417 617.855 690.372 610.632C682.327 603.408 677.481 593.285 676.9 582.488C676.319 571.692 680.05 561.107 687.274 553.061L717.608 580.297L747.942 607.533Z"/>
</mask>
<path d="M747.942 607.533C740.719 615.578 730.595 620.424 719.799 621.006C709.002 621.587 698.417 617.855 690.372 610.632C682.327 603.408 677.481 593.285 676.9 582.488C676.319 571.692 680.05 561.107 687.274 553.061L717.608 580.297L747.942 607.533Z" fill="#FFF2D0"/>
<path d="M747.942 607.533C740.719 615.578 730.595 620.424 719.799 621.006C709.002 621.587 698.417 617.855 690.372 610.632C682.327 603.408 677.481 593.285 676.9 582.488C676.319 571.692 680.05 561.107 687.274 553.061L717.608 580.297L747.942 607.533Z" stroke="black" stroke-width="4" mask="url(#path-73-outside-32_880_39844)"/>
<path d="M747.942 607.533C741.364 614.859 732.357 619.557 722.585 620.759C712.812 621.961 702.935 619.586 694.778 614.072L717.608 580.297L747.942 607.533Z" fill="black" fill-opacity="0.25"/>
<mask id="path-75-outside-33_880_39844" maskUnits="userSpaceOnUse" x="665.369" y="553.559" width="81.7857" height="79.2017" fill="black">
<rect fill="white" x="665.369" y="553.559" width="81.7857" height="79.2017"/>
<path d="M743.538 603.58C737.364 610.457 728.71 614.6 719.48 615.096C710.251 615.593 701.203 612.403 694.325 606.228C687.448 600.053 683.305 591.399 682.809 582.17C682.312 572.941 685.502 563.892 691.677 557.015L717.608 580.297L743.538 603.58Z"/>
</mask>
<path d="M743.538 603.58C737.364 610.457 728.71 614.6 719.48 615.096C710.251 615.593 701.203 612.403 694.325 606.228C687.448 600.053 683.305 591.399 682.809 582.17C682.312 572.941 685.502 563.892 691.677 557.015L717.608 580.297L743.538 603.58Z" fill="#F86848"/>
<path d="M743.538 603.58C737.364 610.457 728.71 614.6 719.48 615.096C710.251 615.593 701.203 612.403 694.325 606.228C687.448 600.053 683.305 591.399 682.809 582.17C682.312 572.941 685.502 563.892 691.677 557.015L717.608 580.297L743.538 603.58Z" stroke="black" stroke-width="4" mask="url(#path-75-outside-33_880_39844)"/>
<path d="M743.538 603.579C740.481 606.985 736.783 609.754 732.655 611.73C728.527 613.706 724.05 614.85 719.48 615.096C714.911 615.342 710.337 614.685 706.021 613.164C701.705 611.642 697.731 609.285 694.325 606.228L717.608 580.297L743.538 603.579Z" fill="black" fill-opacity="0.25"/>
<path d="M696.44 569.352C694.877 569.752 693.452 569.444 693.25 568.664C693.049 567.883 694.151 566.928 695.714 566.527C697.277 566.127 698.702 566.435 698.903 567.215C699.104 567.995 698.003 568.951 696.44 569.352ZM732.268 601.906C730.705 602.306 729.28 601.999 729.078 601.218C728.877 600.438 729.979 599.482 731.542 599.082C733.105 598.682 734.53 598.989 734.731 599.77C734.932 600.55 733.831 601.506 732.268 601.906ZM716.458 595.448C715.493 596.742 714.192 597.396 713.548 596.917C712.902 596.435 713.16 595 714.125 593.706C715.088 592.411 716.392 591.758 717.034 592.24C717.681 592.719 717.426 594.152 716.458 595.448ZM695.159 580.854C694.193 582.148 692.892 582.802 692.249 582.323C691.603 581.841 691.86 580.406 692.826 579.112C693.791 577.819 695.092 577.164 695.734 577.646C696.384 578.127 696.126 579.559 695.159 580.854ZM696.722 596.148C695.139 596.457 693.736 596.067 693.582 595.278C693.426 594.487 694.585 593.598 696.169 593.292C697.752 592.984 699.157 593.375 699.309 594.162C699.465 594.953 698.31 595.842 696.722 596.148ZM714.01 609.032C713.665 610.608 712.751 611.74 711.967 611.569C711.177 611.397 710.821 609.98 711.166 608.404C711.509 606.83 712.425 605.696 713.211 605.869C714.004 606.039 714.358 607.452 714.01 609.032ZM709.845 582.045C709.6 583.64 708.764 584.83 707.968 584.707C707.17 584.587 706.724 583.198 706.966 581.605C707.209 580.011 708.05 578.822 708.842 578.944C709.643 579.06 710.092 580.447 709.845 582.045ZM725.694 609.516C724.112 609.824 722.709 609.435 722.553 608.644C722.396 607.852 723.555 606.964 725.14 606.657C726.724 606.347 728.125 606.738 728.279 607.528C728.437 608.321 727.283 609.209 725.694 609.516Z" fill="black"/>
</g>
<defs>
<filter id="filter0_d_880_39844" x="440.866" y="662.079" width="128.322" height="131.322" filterUnits="userSpaceOnUse" color-interpolation-filters="sRGB">
<feFlood flood-opacity="0" result="BackgroundImageFix"/>
<feColorMatrix in="SourceAlpha" type="matrix" values="0 0 0 0 0 0 0 0 0 0 0 0 0 0 0 0 0 0 127 0" result="hardAlpha"/>
<feOffset dx="-1" dy="7"/>
<feGaussianBlur stdDeviation="2"/>
<feComposite in2="hardAlpha" operator="out"/>
<feColorMatrix type="matrix" values="0 0 0 0 0 0 0 0 0 0 0 0 0 0 0 0 0 0 0.25 0"/>
<feBlend mode="normal" in2="BackgroundImageFix" result="effect1_dropShadow_880_39844"/>
<feBlend mode="normal" in="SourceGraphic" in2="effect1_dropShadow_880_39844" result="shape"/>
</filter>
<filter id="filter1_d_880_39844" x="538.01" y="298.869" width="125.575" height="128.576" filterUnits="userSpaceOnUse" color-interpolation-filters="sRGB">
<feFlood flood-opacity="0" result="BackgroundImageFix"/>
<feColorMatrix in="SourceAlpha" type="matrix" values="0 0 0 0 0 0 0 0 0 0 0 0 0 0 0 0 0 0 127 0" result="hardAlpha"/>
<feOffset dx="-1" dy="7"/>
<feGaussianBlur stdDeviation="2"/>
<feComposite in2="hardAlpha" operator="out"/>
<feColorMatrix type="matrix" values="0 0 0 0 0 0 0 0 0 0 0 0 0 0 0 0 0 0 0.25 0"/>
<feBlend mode="normal" in2="BackgroundImageFix" result="effect1_dropShadow_880_39844"/>
<feBlend mode="normal" in="SourceGraphic" in2="effect1_dropShadow_880_39844" result="shape"/>
</filter>
<filter id="filter2_d_880_39844" x="169.448" y="448.484" width="136.438" height="139.437" filterUnits="userSpaceOnUse" color-interpolation-filters="sRGB">
<feFlood flood-opacity="0" result="BackgroundImageFix"/>
<feColorMatrix in="SourceAlpha" type="matrix" values="0 0 0 0 0 0 0 0 0 0 0 0 0 0 0 0 0 0 127 0" result="hardAlpha"/>
<feOffset dx="-1" dy="7"/>
<feGaussianBlur stdDeviation="2"/>
<feComposite in2="hardAlpha" operator="out"/>
<feColorMatrix type="matrix" values="0 0 0 0 0 0 0 0 0 0 0 0 0 0 0 0 0 0 0.25 0"/>
<feBlend mode="normal" in2="BackgroundImageFix" result="effect1_dropShadow_880_39844"/>
<feBlend mode="normal" in="SourceGraphic" in2="effect1_dropShadow_880_39844" result="shape"/>
</filter>
<filter id="filter3_d_880_39844" x="633.118" y="384.431" width="143.764" height="146.764" filterUnits="userSpaceOnUse" color-interpolation-filters="sRGB">
<feFlood flood-opacity="0" result="BackgroundImageFix"/>
<feColorMatrix in="SourceAlpha" type="matrix" values="0 0 0 0 0 0 0 0 0 0 0 0 0 0 0 0 0 0 127 0" result="hardAlpha"/>
<feOffset dx="-1" dy="7"/>
<feGaussianBlur stdDeviation="2"/>
<feComposite in2="hardAlpha" operator="out"/>
<feColorMatrix type="matrix" values="0 0 0 0 0 0 0 0 0 0 0 0 0 0 0 0 0 0 0.25 0"/>
<feBlend mode="normal" in2="BackgroundImageFix" result="effect1_dropShadow_880_39844"/>
<feBlend mode="normal" in="SourceGraphic" in2="effect1_dropShadow_880_39844" result="shape"/>
</filter>
<filter id="filter4_d_880_39844" x="705.632" y="461.436" width="133.685" height="136.684" filterUnits="userSpaceOnUse" color-interpolation-filters="sRGB">
<feFlood flood-opacity="0" result="BackgroundImageFix"/>
<feColorMatrix in="SourceAlpha" type="matrix" values="0 0 0 0 0 0 0 0 0 0 0 0 0 0 0 0 0 0 127 0" result="hardAlpha"/>
<feOffset dx="-1" dy="7"/>
<feGaussianBlur stdDeviation="2"/>
<feComposite in2="hardAlpha" operator="out"/>
<feColorMatrix type="matrix" values="0 0 0 0 0 0 0 0 0 0 0 0 0 0 0 0 0 0 0.25 0"/>
<feBlend mode="normal" in2="BackgroundImageFix" result="effect1_dropShadow_880_39844"/>
<feBlend mode="normal" in="SourceGraphic" in2="effect1_dropShadow_880_39844" result="shape"/>
</filter>
<filter id="filter5_d_880_39844" x="367" y="266" width="108" height="109" filterUnits="userSpaceOnUse" color-interpolation-filters="sRGB">
<feFlood flood-opacity="0" result="BackgroundImageFix"/>
<feColorMatrix in="SourceAlpha" type="matrix" values="0 0 0 0 0 0 0 0 0 0 0 0 0 0 0 0 0 0 127 0" result="hardAlpha"/>
<feOffset dx="-1" dy="7"/>
<feGaussianBlur stdDeviation="2"/>
<feComposite in2="hardAlpha" operator="out"/>
<feColorMatrix type="matrix" values="0 0 0 0 0 0 0 0 0 0 0 0 0 0 0 0 0 0 0.25 0"/>
<feBlend mode="normal" in2="BackgroundImageFix" result="effect1_dropShadow_880_39844"/>
<feBlend mode="normal" in="SourceGraphic" in2="effect1_dropShadow_880_39844" result="shape"/>
</filter>
<filter id="filter6_d_880_39844" x="539.799" y="433.542" width="126.083" height="129.083" filterUnits="userSpaceOnUse" color-interpolation-filters="sRGB">
<feFlood flood-opacity="0" result="BackgroundImageFix"/>
<feColorMatrix in="SourceAlpha" type="matrix" values="0 0 0 0 0 0 0 0 0 0 0 0 0 0 0 0 0 0 127 0" result="hardAlpha"/>
<feOffset dx="-1" dy="7"/>
<feGaussianBlur stdDeviation="2"/>
<feComposite in2="hardAlpha" operator="out"/>
<feColorMatrix type="matrix" values="0 0 0 0 0 0 0 0 0 0 0 0 0 0 0 0 0 0 0.25 0"/>
<feBlend mode="normal" in2="BackgroundImageFix" result="effect1_dropShadow_880_39844"/>
<feBlend mode="normal" in="SourceGraphic" in2="effect1_dropShadow_880_39844" result="shape"/>
</filter>
<filter id="filter7_d_880_39844" x="219.465" y="556.091" width="122.085" height="125.085" filterUnits="userSpaceOnUse" color-interpolation-filters="sRGB">
<feFlood flood-opacity="0" result="BackgroundImageFix"/>
<feColorMatrix in="SourceAlpha" type="matrix" values="0 0 0 0 0 0 0 0 0 0 0 0 0 0 0 0 0 0 127 0" result="hardAlpha"/>
<feOffset dx="-1" dy="7"/>
<feGaussianBlur stdDeviation="2"/>
<feComposite in2="hardAlpha" operator="out"/>
<feColorMatrix type="matrix" values="0 0 0 0 0 0 0 0 0 0 0 0 0 0 0 0 0 0 0.25 0"/>
<feBlend mode="normal" in2="BackgroundImageFix" result="effect1_dropShadow_880_39844"/>
<feBlend mode="normal" in="SourceGraphic" in2="effect1_dropShadow_880_39844" result="shape"/>
</filter>
<filter id="filter8_d_880_39844" x="484" y="558" width="108" height="109" filterUnits="userSpaceOnUse" color-interpolation-filters="sRGB">
<feFlood flood-opacity="0" result="BackgroundImageFix"/>
<feColorMatrix in="SourceAlpha" type="matrix" values="0 0 0 0 0 0 0 0 0 0 0 0 0 0 0 0 0 0 127 0" result="hardAlpha"/>
<feOffset dx="-1" dy="7"/>
<feGaussianBlur stdDeviation="2"/>
<feComposite in2="hardAlpha" operator="out"/>
<feColorMatrix type="matrix" values="0 0 0 0 0 0 0 0 0 0 0 0 0 0 0 0 0 0 0.25 0"/>
<feBlend mode="normal" in2="BackgroundImageFix" result="effect1_dropShadow_880_39844"/>
<feBlend mode="normal" in="SourceGraphic" in2="effect1_dropShadow_880_39844" result="shape"/>
</filter>
<filter id="filter9_d_880_39844" x="302.923" y="611.825" width="142.819" height="145.82" filterUnits="userSpaceOnUse" color-interpolation-filters="sRGB">
<feFlood flood-opacity="0" result="BackgroundImageFix"/>
<feColorMatrix in="SourceAlpha" type="matrix" values="0 0 0 0 0 0 0 0 0 0 0 0 0 0 0 0 0 0 127 0" result="hardAlpha"/>
<feOffset dx="-1" dy="7"/>
<feGaussianBlur stdDeviation="2"/>
<feComposite in2="hardAlpha" operator="out"/>
<feColorMatrix type="matrix" values="0 0 0 0 0 0 0 0 0 0 0 0 0 0 0 0 0 0 0.25 0"/>
<feBlend mode="normal" in2="BackgroundImageFix" result="effect1_dropShadow_880_39844"/>
<feBlend mode="normal" in="SourceGraphic" in2="effect1_dropShadow_880_39844" result="shape"/>
</filter>
<filter id="filter10_d_880_39844" x="644.824" y="512.513" width="143.568" height="146.568" filterUnits="userSpaceOnUse" color-interpolation-filters="sRGB">
<feFlood flood-opacity="0" result="BackgroundImageFix"/>
<feColorMatrix in="SourceAlpha" type="matrix" values="0 0 0 0 0 0 0 0 0 0 0 0 0 0 0 0 0 0 127 0" result="hardAlpha"/>
<feOffset dx="-1" dy="7"/>
<feGaussianBlur stdDeviation="2"/>
<feComposite in2="hardAlpha" operator="out"/>
<feColorMatrix type="matrix" values="0 0 0 0 0 0 0 0 0 0 0 0 0 0 0 0 0 0 0.25 0"/>
<feBlend mode="normal" in2="BackgroundImageFix" result="effect1_dropShadow_880_39844"/>
<feBlend mode="normal" in="SourceGraphic" in2="effect1_dropShadow_880_39844" result="shape"/>
</filter>
</defs>
</svg>
