<svg width="1000" height="1000" viewBox="0 0 1000 1000" fill="none" xmlns="http://www.w3.org/2000/svg">
<ellipse rx="93" ry="13" transform="matrix(1 0 0 -1 499.723 231)" fill="black" fill-opacity="0.25"/>
<mask id="path-2-inside-1_260_135376" fill="white">
<path fill-rule="evenodd" clip-rule="evenodd" d="M540.161 108.377C534.093 108.95 529.634 102.636 530.994 96.695C532.095 91.8871 532.677 86.8812 532.677 81.7395C532.677 44.8803 502.796 15 465.937 15C429.078 15 399.198 44.8803 399.198 81.7395C399.198 94.3042 402.67 106.058 408.707 116.094C411.104 120.078 410.267 125.349 406.947 128.605C398.13 137.252 392.486 149.739 392.486 166.998C392.486 207.485 425.67 245.274 539.388 233.488C653.106 221.702 671.548 58.2788 621.414 89.9419C605.954 99.7057 573.232 105.253 540.161 108.377Z"/>
</mask>
<path fill-rule="evenodd" clip-rule="evenodd" d="M540.161 108.377C534.093 108.95 529.634 102.636 530.994 96.695C532.095 91.8871 532.677 86.8812 532.677 81.7395C532.677 44.8803 502.796 15 465.937 15C429.078 15 399.198 44.8803 399.198 81.7395C399.198 94.3042 402.67 106.058 408.707 116.094C411.104 120.078 410.267 125.349 406.947 128.605C398.13 137.252 392.486 149.739 392.486 166.998C392.486 207.485 425.67 245.274 539.388 233.488C653.106 221.702 671.548 58.2788 621.414 89.9419C605.954 99.7057 573.232 105.253 540.161 108.377Z" fill="#FFED00"/>
<path d="M539.388 233.488L540.212 241.445H540.212L539.388 233.488ZM621.414 89.9419L617.142 83.178L621.414 89.9419ZM406.947 128.605L401.346 122.894L406.947 128.605ZM530.994 96.695L523.196 94.9097L530.994 96.695ZM524.677 81.7395C524.677 86.2762 524.164 90.6833 523.196 94.9097L538.793 98.4803C540.026 93.0908 540.677 87.4861 540.677 81.7395H524.677ZM465.937 23C498.378 23 524.677 49.2986 524.677 81.7395H540.677C540.677 40.462 507.215 7 465.937 7V23ZM407.198 81.7395C407.198 49.2986 433.496 23 465.937 23V7C424.66 7 391.198 40.462 391.198 81.7395H407.198ZM415.562 111.97C410.253 103.144 407.198 92.8109 407.198 81.7395H391.198C391.198 95.7975 395.086 108.972 401.852 120.217L415.562 111.97ZM400.486 166.998C400.486 151.636 405.437 141.292 412.549 134.317L401.346 122.894C390.824 133.213 384.486 147.842 384.486 166.998H400.486ZM538.563 225.53C482.386 231.353 447.672 224.718 427.302 212.922C407.551 201.486 400.486 184.738 400.486 166.998H384.486C384.486 189.745 394.013 212.136 419.284 226.769C443.934 241.043 482.671 247.409 540.212 241.445L538.563 225.53ZM625.686 96.7059C630.925 93.3968 633.457 93.7825 634.245 94.0654C635.038 94.3499 636.74 95.4916 638.121 99.7986C640.928 108.551 640.283 124.477 634.242 142.933C622.273 179.505 591.192 220.076 538.563 225.53L540.212 241.445C601.302 235.114 636.301 188.08 649.449 147.91C655.967 127.995 657.639 108.265 653.357 94.9127C651.194 88.1673 647.001 81.6443 639.65 79.006C632.295 76.3663 624.436 78.5713 617.142 83.178L625.686 96.7059ZM540.914 116.342C557.609 114.764 574.384 112.561 589.039 109.478C603.474 106.441 616.693 102.385 625.686 96.7059L617.142 83.178C610.675 87.2622 599.804 90.8624 585.744 93.8207C571.905 96.7327 555.785 98.8654 539.409 100.413L540.914 116.342ZM401.852 120.217C402.02 120.497 402.134 120.92 402.055 121.467C401.973 122.025 401.71 122.536 401.346 122.894L412.549 134.317C418.334 128.643 419.994 119.337 415.562 111.97L401.852 120.217ZM523.196 94.9097C521.958 100.316 523.365 105.781 526.414 109.808C529.517 113.907 534.698 116.929 540.914 116.342L539.409 100.413C539.387 100.415 539.396 100.412 539.423 100.417C539.449 100.421 539.462 100.428 539.459 100.426C539.447 100.42 539.326 100.356 539.17 100.15C538.813 99.6782 538.67 99.0152 538.793 98.4803L523.196 94.9097Z" fill="black" mask="url(#path-2-inside-1_260_135376)"/>
<path d="M633.719 92.552C653.719 82.1676 648.26 214.1 539.762 229.759C431.264 245.419 395.471 206.863 395.471 166.376C395.471 125.888 418.96 244.673 559.523 194.712C650.87 153.699 614.331 102.619 633.719 92.552Z" fill="black" fill-opacity="0.25"/>
<path d="M489.766 193.221C575.554 193.221 589.024 114.351 566.175 128.694C551.627 137.827 503.538 138.815 489.766 138.815" stroke="black" stroke-width="8"/>
<path d="M489.766 193.222C575.554 193.222 578.522 126.363 570.335 129.837C558.031 135.057 566.175 172.715 489.766 178.308V193.222Z" fill="black" fill-opacity="0.25"/>
<path d="M478.987 61.233C478.987 55.0555 473.645 50.0476 467.056 50.0476C460.467 50.0476 455.125 55.0555 455.125 61.233" stroke="black" stroke-width="8" stroke-linecap="round"/>
<path d="M456.478 89.9015C457.744 90.0051 458.635 90.5845 458.986 91.0286C459.063 91.1257 459.101 91.1986 459.118 91.2403C459.127 91.2611 459.131 91.2751 459.133 91.2826C459.134 91.2899 459.135 91.2934 459.135 91.2939C459.135 91.2943 459.135 91.296 459.135 91.3004C459.134 91.3048 459.133 91.3167 459.128 91.3373C459.118 91.3759 459.087 91.4715 458.994 91.6227C455.624 97.0725 447.908 103.069 437.472 107.733C427.158 112.342 414.74 115.397 402.554 115.397C387.681 115.397 374.413 112.476 365.012 107.933C355.331 103.255 351 97.5618 351 92.5521C351 91.8467 351.183 91.5594 351.391 91.3357C351.704 90.9996 352.378 90.5315 353.754 90.0648C356.536 89.1211 360.523 88.6869 365.722 88.1206C365.878 88.1035 366.036 88.0864 366.195 88.069C376.374 86.9592 390.379 85.3899 399.932 76.0484C404.019 72.0529 407.837 69.421 411.747 69.5368C418.976 69.7507 423.001 70.9176 425.529 72.2762C428.006 73.6079 429.407 75.296 431.221 77.6059C431.285 77.6882 431.351 77.7713 431.416 77.8551C433.194 80.1225 435.409 82.948 439.238 85.2444C443.195 87.6175 448.543 89.2522 456.478 89.9015Z" fill="#FF8C00" stroke="black" stroke-width="8"/>
<path d="M404.78 113.431C424.028 113.431 443.675 106.047 453.647 97.469C458.221 93.5344 453.88 89.8018 448.316 92.1345C415.074 106.072 386.055 103.187 368.21 97.3502C362.272 95.4079 357.556 99.4963 362.654 103.108C371.403 109.306 386.998 113.431 404.78 113.431Z" fill="black" fill-opacity="0.25"/>
</svg>
