<svg width="1008" height="1011" viewBox="0 0 1008 1011" fill="none" xmlns="http://www.w3.org/2000/svg">
<g filter="url(#filter0_d_703_61114)">
<path fill-rule="evenodd" clip-rule="evenodd" d="M309.292 378.787C336.572 374.133 376.796 374.001 411.853 374H412.457C447.558 374.001 487.834 374.133 515.148 378.787C538.611 382.787 552.57 395.114 558.656 418.225C565.522 418.679 571 424.47 571 431.487V475.787C571 482.814 565.506 488.613 558.625 489.051C552.742 513.676 539.492 527.331 517.58 531.113C499.351 534.254 480.408 533.723 464.716 531.113C440.615 527.104 435.115 511.217 430.491 497.858C426.809 487.22 423.681 478.185 412.155 478.03C400.643 478.185 397.52 487.22 393.842 497.858C389.223 511.217 383.731 527.104 359.66 531.113C343.988 533.723 325.069 534.254 306.863 531.113C284.968 527.329 271.733 513.663 265.861 489.017C259.182 488.371 253.914 482.668 253.914 475.787V431.487C253.914 424.617 259.165 418.921 265.829 418.261C271.902 395.126 285.846 382.789 309.292 378.787ZM321.638 395.054C346.087 391.591 381.231 391.512 412.607 391.512C443.982 391.512 479.126 391.591 503.575 395.054C535.278 399.544 549.316 422.258 546.448 461.169C544.269 490.702 535.181 509.67 509.664 513.328C493.437 515.657 488.337 515.258 474.37 513.328C454.92 510.639 448.336 497.226 442.114 484.551L442.114 484.55C435.959 472.012 430.158 460.195 412.607 460.195C395.055 460.195 389.254 472.012 383.099 484.551C376.877 497.226 370.293 510.639 350.843 513.328C336.876 515.258 331.776 515.657 315.55 513.328C290.032 509.67 280.944 490.702 278.765 461.169C275.897 422.258 289.935 399.544 321.638 395.054Z" fill="#090909"/>
<mask id="path-2-inside-1_703_61114" fill="white">
<path fill-rule="evenodd" clip-rule="evenodd" d="M300.972 378.787C327.603 374.133 366.869 374.001 401.091 374H401.68C435.946 374.001 475.262 374.133 501.926 378.787C524.83 382.787 538.456 395.114 544.397 418.225C551.1 418.679 556.447 424.47 556.447 431.487V475.787C556.447 482.814 551.084 488.613 544.367 489.051C538.624 513.676 525.689 527.331 504.299 531.113C486.504 534.254 468.013 533.723 452.695 531.113C429.167 527.104 423.799 511.217 419.285 497.858C415.691 487.22 412.638 478.185 401.386 478.03C390.148 478.185 387.099 487.22 383.509 497.858C379 511.217 373.639 527.104 350.141 531.113C334.842 533.723 316.374 534.254 298.602 531.113C277.229 527.329 264.308 513.663 258.576 489.017C252.056 488.371 246.914 482.668 246.914 475.787V431.487C246.914 424.617 252.04 418.921 258.545 418.261C264.474 395.126 278.085 382.789 300.972 378.787ZM313.024 395.054C336.892 391.591 371.198 391.512 401.827 391.512C432.455 391.512 466.761 391.591 490.628 395.054C521.576 399.544 535.279 422.258 532.48 461.169C530.352 490.702 521.481 509.67 496.572 513.328C480.732 515.657 475.753 515.258 462.119 513.328C443.132 510.639 436.705 497.226 430.631 484.551L430.631 484.55C424.622 472.012 418.96 460.195 401.827 460.195C384.693 460.195 379.03 472.012 373.022 484.551C366.948 497.226 360.521 510.639 341.534 513.328C327.899 515.258 322.921 515.657 307.081 513.328C282.172 509.67 273.3 490.702 271.173 461.169C268.374 422.258 282.077 399.544 313.024 395.054Z"/>
</mask>
<path fill-rule="evenodd" clip-rule="evenodd" d="M300.972 378.787C327.603 374.133 366.869 374.001 401.091 374H401.68C435.946 374.001 475.262 374.133 501.926 378.787C524.83 382.787 538.456 395.114 544.397 418.225C551.1 418.679 556.447 424.47 556.447 431.487V475.787C556.447 482.814 551.084 488.613 544.367 489.051C538.624 513.676 525.689 527.331 504.299 531.113C486.504 534.254 468.013 533.723 452.695 531.113C429.167 527.104 423.799 511.217 419.285 497.858C415.691 487.22 412.638 478.185 401.386 478.03C390.148 478.185 387.099 487.22 383.509 497.858C379 511.217 373.639 527.104 350.141 531.113C334.842 533.723 316.374 534.254 298.602 531.113C277.229 527.329 264.308 513.663 258.576 489.017C252.056 488.371 246.914 482.668 246.914 475.787V431.487C246.914 424.617 252.04 418.921 258.545 418.261C264.474 395.126 278.085 382.789 300.972 378.787ZM313.024 395.054C336.892 391.591 371.198 391.512 401.827 391.512C432.455 391.512 466.761 391.591 490.628 395.054C521.576 399.544 535.279 422.258 532.48 461.169C530.352 490.702 521.481 509.67 496.572 513.328C480.732 515.657 475.753 515.258 462.119 513.328C443.132 510.639 436.705 497.226 430.631 484.551L430.631 484.55C424.622 472.012 418.96 460.195 401.827 460.195C384.693 460.195 379.03 472.012 373.022 484.551C366.948 497.226 360.521 510.639 341.534 513.328C327.899 515.258 322.921 515.657 307.081 513.328C282.172 509.67 273.3 490.702 271.173 461.169C268.374 422.258 282.077 399.544 313.024 395.054Z" fill="#929292"/>
<path d="M401.091 374V370H401.09L401.091 374ZM300.972 378.787L300.284 374.847L300.284 374.847L300.972 378.787ZM401.68 374L401.681 370H401.68V374ZM501.926 378.787L502.614 374.847L502.613 374.847L501.926 378.787ZM544.397 418.225L540.523 419.221L541.243 422.021L544.127 422.216L544.397 418.225ZM544.367 489.051L544.107 485.06L541.146 485.253L540.472 488.143L544.367 489.051ZM504.299 531.113L504.995 535.052L504.996 535.052L504.299 531.113ZM452.695 531.113L453.367 527.17L453.367 527.17L452.695 531.113ZM419.285 497.858L415.496 499.139L419.285 497.858ZM401.386 478.03L401.441 474.03L401.386 474.03L401.331 474.03L401.386 478.03ZM383.509 497.858L379.719 496.579L383.509 497.858ZM350.141 531.113L349.468 527.17L349.468 527.17L350.141 531.113ZM298.602 531.113L297.904 535.051L297.905 535.052L298.602 531.113ZM258.576 489.017L262.472 488.111L261.823 485.319L258.971 485.036L258.576 489.017ZM258.545 418.261L258.949 422.24L261.727 421.958L262.42 419.253L258.545 418.261ZM313.024 395.054L312.45 391.095L312.45 391.095L313.024 395.054ZM490.628 395.054L491.203 391.095L491.203 391.095L490.628 395.054ZM532.48 461.169L536.47 461.456L536.47 461.456L532.48 461.169ZM496.572 513.328L495.99 509.37L495.99 509.37L496.572 513.328ZM462.119 513.328L461.558 517.288L461.558 517.288L462.119 513.328ZM430.631 484.551L434.238 482.822L434.209 482.761L434.177 482.701L430.631 484.551ZM430.631 484.55L427.023 486.279L427.053 486.34L427.084 486.401L430.631 484.55ZM373.022 484.551L369.415 482.822L373.022 484.551ZM341.534 513.328L342.095 517.288L342.095 517.288L341.534 513.328ZM307.081 513.328L307.663 509.37L307.662 509.37L307.081 513.328ZM271.173 461.169L267.183 461.456L267.183 461.456L271.173 461.169ZM401.09 370C366.993 370.001 327.332 370.12 300.284 374.847L301.661 382.728C327.874 378.146 366.744 378.001 401.091 378L401.09 370ZM401.68 370H401.091V378H401.68V370ZM502.613 374.847C475.532 370.12 435.821 370.001 401.681 370L401.68 378C436.07 378.001 474.991 378.146 501.238 382.728L502.613 374.847ZM548.271 417.229C545.158 405.118 539.943 395.512 532.235 388.399C524.528 381.288 514.627 376.945 502.614 374.847L501.238 382.728C512.128 384.629 520.493 388.45 526.81 394.279C533.127 400.108 537.696 408.221 540.523 419.221L548.271 417.229ZM560.447 431.487C560.447 422.451 553.553 414.835 544.667 414.234L544.127 422.216C548.646 422.522 552.447 426.489 552.447 431.487H560.447ZM560.447 475.787V431.487H552.447V475.787H560.447ZM544.627 493.043C553.533 492.462 560.447 484.836 560.447 475.787H552.447C552.447 480.793 548.635 484.764 544.107 485.06L544.627 493.043ZM504.996 535.052C516.41 533.034 525.805 528.322 533.099 520.655C540.353 513.029 545.281 502.741 548.262 489.96L540.472 488.143C537.709 499.985 533.299 508.837 527.303 515.141C521.346 521.403 513.578 525.41 503.603 527.174L504.996 535.052ZM452.023 535.056C467.736 537.734 486.693 538.283 504.995 535.052L503.604 527.174C486.316 530.226 468.29 529.713 453.367 527.17L452.023 535.056ZM415.496 499.139C417.72 505.721 420.378 513.699 425.72 520.469C431.209 527.426 439.33 532.893 452.023 535.056L453.367 527.17C442.532 525.323 436.205 520.843 432 515.514C427.648 509.999 425.365 503.354 423.075 496.578L415.496 499.139ZM401.331 482.03C405.607 482.088 408.038 483.702 409.97 486.363C412.157 489.376 413.638 493.642 415.496 499.139L423.075 496.578C421.338 491.437 419.495 485.866 416.444 481.663C413.137 477.108 408.417 474.126 401.441 474.03L401.331 482.03ZM387.299 499.137C389.154 493.64 390.633 489.374 392.818 486.361C394.747 483.7 397.174 482.088 401.441 482.03L401.331 474.03C394.36 474.126 389.643 477.11 386.341 481.665C383.294 485.867 381.454 491.438 379.719 496.579L387.299 499.137ZM350.814 535.056C363.493 532.892 371.605 527.424 377.088 520.467C382.423 513.697 385.077 505.72 387.299 499.137L379.719 496.579C377.432 503.355 375.151 510 370.804 515.516C366.604 520.845 360.287 525.324 349.468 527.17L350.814 535.056ZM297.905 535.052C316.185 538.283 335.12 537.734 350.814 535.056L349.468 527.17C334.565 529.713 316.563 530.225 299.298 527.174L297.905 535.052ZM254.68 489.923C257.655 502.715 262.577 513.011 269.823 520.642C277.11 528.317 286.497 533.032 297.904 535.051L299.299 527.174C289.333 525.41 281.574 521.4 275.624 515.134C269.634 508.825 265.229 499.965 262.472 488.111L254.68 489.923ZM242.914 475.787C242.914 484.651 249.544 492.142 258.182 492.997L258.971 485.036C254.569 484.6 250.914 480.685 250.914 475.787H242.914ZM242.914 431.487V475.787H250.914V431.487H242.914ZM258.141 414.281C249.523 415.157 242.914 422.637 242.914 431.487H250.914C250.914 426.598 254.557 422.686 258.949 422.24L258.141 414.281ZM300.284 374.847C288.278 376.946 278.384 381.293 270.684 388.412C262.984 395.531 257.777 405.145 254.67 417.268L262.42 419.253C265.242 408.241 269.805 400.12 276.115 394.286C282.425 388.452 290.78 384.63 301.661 382.727L300.284 374.847ZM401.827 387.512C371.301 387.512 336.666 387.582 312.45 391.095L313.599 399.012C337.117 395.601 371.095 395.512 401.827 395.512V387.512ZM491.203 391.095C466.986 387.582 432.352 387.512 401.827 387.512V395.512C432.558 395.512 466.536 395.601 490.054 399.012L491.203 391.095ZM536.47 461.456C537.901 441.562 535.171 425.188 527.6 413.082C519.925 400.81 507.623 393.477 491.203 391.095L490.054 399.012C504.581 401.12 514.604 407.389 520.818 417.324C527.136 427.426 529.858 441.864 528.49 460.882L536.47 461.456ZM497.153 517.285C510.677 515.299 520.188 509.035 526.454 499.083C532.574 489.362 535.389 476.452 536.47 461.456L528.49 460.881C527.443 475.418 524.759 486.759 519.684 494.82C514.755 502.65 507.376 507.698 495.99 509.37L497.153 517.285ZM461.558 517.288C468.369 518.252 473.258 518.872 478.478 518.925C483.713 518.978 489.155 518.461 497.153 517.285L495.99 509.37C488.148 510.523 483.181 510.972 478.559 510.925C473.921 510.878 469.503 510.333 462.679 509.367L461.558 517.288ZM427.024 486.279C433.036 498.827 440.256 514.271 461.558 517.288L462.68 509.367C446.008 507.006 440.373 495.625 434.238 482.822L427.024 486.279ZM427.084 486.401L427.085 486.401L434.177 482.701L434.177 482.7L427.084 486.401ZM401.827 464.195C409.292 464.195 413.947 466.696 417.504 470.43C421.293 474.406 423.952 479.87 427.023 486.279L434.238 482.822C431.3 476.692 428.124 469.978 423.296 464.911C418.237 459.602 411.494 456.195 401.827 456.195V464.195ZM376.629 486.279C379.7 479.871 382.36 474.406 386.148 470.43C389.706 466.696 394.361 464.195 401.827 464.195V456.195C392.159 456.195 385.416 459.602 380.357 464.911C375.528 469.978 372.352 476.692 369.415 482.822L376.629 486.279ZM342.095 517.288C363.397 514.271 370.616 498.827 376.629 486.279L369.415 482.822C363.28 495.625 357.645 507.006 340.973 509.367L342.095 517.288ZM306.499 517.285C314.498 518.461 319.94 518.978 325.175 518.925C330.395 518.872 335.283 518.252 342.095 517.288L340.973 509.367C334.15 510.333 329.732 510.878 325.094 510.925C320.472 510.972 315.505 510.523 307.663 509.37L306.499 517.285ZM267.183 461.456C268.264 476.452 271.079 489.362 277.199 499.083C283.465 509.035 292.976 515.299 306.5 517.285L307.662 509.37C296.277 507.698 288.898 502.65 283.969 494.82C278.894 486.759 276.21 475.418 275.163 460.881L267.183 461.456ZM312.45 391.095C296.03 393.477 283.728 400.81 276.052 413.082C268.481 425.188 265.752 441.562 267.183 461.456L275.163 460.882C273.794 441.864 276.517 427.426 282.835 417.324C289.049 407.389 299.072 401.12 313.599 399.012L312.45 391.095Z" fill="black" mask="url(#path-2-inside-1_703_61114)"/>
<path d="M547.5 480C542.825 480 539 474.037 539 466.75V440.25C539 432.963 542.825 427 547.5 427C552.175 427 556 432.963 556 440.25V466.75C556 474.037 552.175 480 547.5 480Z" fill="#929292"/>
<path fill-rule="evenodd" clip-rule="evenodd" d="M373.021 484.551C366.947 497.226 360.52 510.639 341.533 513.328C327.899 515.258 322.92 515.657 307.08 513.328C282.171 509.67 273.3 490.702 271.172 461.169C268.373 422.258 282.076 399.544 313.024 395.054C336.891 391.591 371.197 391.512 401.826 391.512C432.454 391.512 466.76 391.591 490.628 395.054C521.575 399.544 535.278 422.258 532.479 461.169C530.352 490.702 521.48 509.67 496.571 513.328C480.731 515.657 475.753 515.258 462.118 513.328C443.131 510.639 436.704 497.226 430.63 484.551C424.622 472.012 418.959 460.195 401.826 460.195C384.692 460.195 379.03 472.012 373.021 484.551ZM401.275 454.471C385.008 454.471 374.162 468.603 368.458 479.701C367.409 481.741 366.504 483.802 365.616 485.823C361.619 494.923 357.972 503.225 343.223 505.172C330.278 506.881 326.362 507.234 311.323 505.172C287.674 501.935 279.252 485.146 277.232 459.005C274.574 424.563 287.584 404.458 316.966 400.484C339.625 397.419 372.196 397.349 401.275 397.349C430.259 397.349 462.723 397.419 485.309 400.484C514.594 404.458 527.562 424.563 524.913 459.005C522.9 485.146 514.505 501.935 490.933 505.172C475.944 507.234 471.232 506.881 458.33 505.172C447.319 505.172 443.048 495.695 438.73 486.113C437.752 483.945 436.773 481.771 435.712 479.701C430.026 468.603 417.488 454.471 401.275 454.471Z" fill="#090909"/>
<path fill-rule="evenodd" clip-rule="evenodd" d="M373.022 484.551C379.031 472.012 384.693 460.195 401.827 460.195C418.96 460.195 424.623 472.012 430.631 484.551C436.705 497.226 443.132 510.639 462.119 513.327C475.754 515.258 480.732 515.656 496.572 513.327C521.481 509.67 530.353 490.702 532.48 461.169C535.279 422.258 521.576 399.543 490.629 395.054C466.761 391.591 432.455 391.511 401.827 391.511C371.198 391.511 336.892 391.591 313.025 395.054C282.077 399.543 268.374 422.258 271.173 461.169C273.301 490.702 282.172 509.67 307.081 513.327C322.921 515.656 327.9 515.258 341.534 513.327C360.521 510.639 366.948 497.226 373.022 484.551Z" fill="white" fill-opacity="0.25"/>
<path d="M479.08 393.593C473.444 393.051 467.464 392.643 461.208 392.333L429.415 482.399C432.667 489.142 435.868 496.241 440.798 502.026L479.08 393.593ZM401.7 391.357C396.141 391.357 390.445 391.366 384.723 391.392L341.675 513.365C379.139 507.855 367.351 460.173 401.7 460.173C406.871 460.173 410.906 461.353 414.314 463.208L439.585 391.623C426.971 391.383 414.047 391.357 401.7 391.357Z" fill="white" fill-opacity="0.25"/>
<path d="M259 436H231C222.163 436 215 443.163 215 452C215 460.837 222.163 468 231 468H259V436Z" fill="#3C3C3C" stroke="black" stroke-width="4"/>
<path d="M545 436H647C655.837 436 663 443.163 663 452C663 460.837 655.837 468 647 468H545V436Z" fill="#3C3C3C" stroke="black" stroke-width="4"/>
</g>
<defs>
<filter id="filter0_d_703_61114" x="0" y="0" width="1008" height="1011" filterUnits="userSpaceOnUse" color-interpolation-filters="sRGB">
<feFlood flood-opacity="0" result="BackgroundImageFix"/>
<feColorMatrix in="SourceAlpha" type="matrix" values="0 0 0 0 0 0 0 0 0 0 0 0 0 0 0 0 0 0 127 0" result="hardAlpha"/>
<feOffset dx="-1" dy="7"/>
<feGaussianBlur stdDeviation="2"/>
<feComposite in2="hardAlpha" operator="out"/>
<feColorMatrix type="matrix" values="0 0 0 0 0 0 0 0 0 0 0 0 0 0 0 0 0 0 0.25 0"/>
<feBlend mode="normal" in2="BackgroundImageFix" result="effect1_dropShadow_703_61114"/>
<feBlend mode="normal" in="SourceGraphic" in2="effect1_dropShadow_703_61114" result="shape"/>
</filter>
</defs>
</svg>
