<svg width="1000" height="1000" viewBox="0 0 1000 1000" fill="none" xmlns="http://www.w3.org/2000/svg">
<g filter="url(#filter0_d_49_639)">
<path d="M506.226 437.936H611.824C612.351 437.936 612.748 438.134 612.995 438.369C613.235 438.598 613.29 438.807 613.29 438.968C613.29 439.128 613.235 439.337 612.995 439.567C612.748 439.802 612.351 440 611.824 440H506.226V437.936Z" fill="white" stroke="black" stroke-width="16" stroke-linecap="round"/>
<path d="M391.613 457.129C391.613 477.67 385.588 493.66 376.293 504.432C367.026 515.173 354.294 521 340.161 521C326.029 521 313.297 515.173 304.03 504.432C294.734 493.66 288.71 477.67 288.71 457.129C288.71 436.858 296.834 416.1 307.74 400.377C313.177 392.538 319.19 386.121 325.015 381.714C330.937 377.234 336.176 375.194 340.161 375.194C344.146 375.194 349.386 377.234 355.308 381.714C361.133 386.121 367.146 392.538 372.583 400.377C383.489 416.1 391.613 436.858 391.613 457.129Z" fill="#FFC700" fill-opacity="0.6" stroke="black" stroke-width="10"/>
<path d="M504.516 457.129C504.516 477.67 498.492 493.66 489.196 504.432C479.929 515.173 467.197 521 453.065 521C438.932 521 426.2 515.173 416.933 504.432C407.638 493.66 401.613 477.67 401.613 457.129C401.613 436.858 409.737 416.1 420.643 400.377C426.08 392.538 432.093 386.121 437.918 381.714C443.84 377.234 449.08 375.194 453.065 375.194C457.05 375.194 462.289 377.234 468.211 381.714C474.036 386.121 480.049 392.538 485.486 400.377C496.392 416.1 504.516 436.858 504.516 457.129Z" fill="#FFC700" fill-opacity="0.6" stroke="black" stroke-width="10"/>
<line y1="-2.5" x2="69.4816" y2="-2.5" transform="matrix(-0.703471 0.710724 -0.703471 -0.710724 477.104 415.355)" stroke="white" stroke-opacity="0.7" stroke-width="5"/>
<line y1="-2.5" x2="69.4816" y2="-2.5" transform="matrix(-0.703471 0.710724 -0.703471 -0.710724 364.201 415.355)" stroke="white" stroke-opacity="0.7" stroke-width="5"/>
<line y1="-2.5" x2="41.6408" y2="-2.5" transform="matrix(-0.703471 0.710724 -0.703471 -0.710724 469.531 439.798)" stroke="white" stroke-opacity="0.7" stroke-width="5"/>
<line y1="-2.5" x2="41.6408" y2="-2.5" transform="matrix(-0.703471 0.710724 -0.703471 -0.710724 356.628 439.798)" stroke="white" stroke-opacity="0.7" stroke-width="5"/>
<path d="M431.613 380.355L410.161 339.145C422.016 344.79 426.532 344.79 435 354.952L426.532 328.419L447.844 344.79C451.523 328.585 455.323 316 455.323 316C455.323 316 459.422 328.491 463.619 344.79L484.678 328.419L475.645 354.952C484.678 344.79 493.71 341.968 501.048 339.145C498.226 344.79 484.226 366.355 475.645 380.355C458.145 370.194 446.855 370.194 431.613 380.355Z" fill="#008026" stroke="black" stroke-width="4" stroke-miterlimit="5.75877"/>
<path d="M317.581 380.355L296.129 339.145C307.984 344.79 312.5 344.79 320.968 354.952L312.5 328.419L333.811 344.79C337.491 328.585 341.29 316 341.29 316C341.29 316 345.39 328.491 349.587 344.79L370.645 328.419L361.613 354.952C370.645 344.79 379.678 341.968 387.016 339.145C384.194 344.79 370.194 366.355 361.613 380.355C344.113 370.194 332.823 370.194 317.581 380.355Z" fill="#008026" stroke="black" stroke-width="4" stroke-miterlimit="5.75877"/>
<circle cx="333.387" cy="401.807" r="5.64516" fill="white" fill-opacity="0.7"/>
<circle cx="449.678" cy="401.807" r="5.64516" fill="white" fill-opacity="0.7"/>
<path d="M601.532 429.936H613.29C617.709 429.936 621.29 433.517 621.29 437.936V440C621.29 444.418 617.709 448 613.29 448H508.387L601.532 429.936Z" fill="white" fill-opacity="0.25"/>
</g>
<defs>
<filter id="filter0_d_49_639" x="278.71" y="309.344" width="345.581" height="227.656" filterUnits="userSpaceOnUse" color-interpolation-filters="sRGB">
<feFlood flood-opacity="0" result="BackgroundImageFix"/>
<feColorMatrix in="SourceAlpha" type="matrix" values="0 0 0 0 0 0 0 0 0 0 0 0 0 0 0 0 0 0 127 0" result="hardAlpha"/>
<feOffset dx="-1" dy="7"/>
<feGaussianBlur stdDeviation="2"/>
<feComposite in2="hardAlpha" operator="out"/>
<feColorMatrix type="matrix" values="0 0 0 0 0 0 0 0 0 0 0 0 0 0 0 0 0 0 0.25 0"/>
<feBlend mode="normal" in2="BackgroundImageFix" result="effect1_dropShadow_49_639"/>
<feBlend mode="normal" in="SourceGraphic" in2="effect1_dropShadow_49_639" result="shape"/>
</filter>
</defs>
</svg>
