<svg width="1371" height="344" viewBox="0 0 1371 344" fill="none" xmlns="http://www.w3.org/2000/svg">
<path d="M82.3014 101H1289.7L1364 277.693H8L82.3014 101Z" fill="#929292" stroke="black" stroke-width="8"/>
<rect x="4" y="278" width="1360" height="63" rx="5" fill="#D7D6DC" stroke="black" stroke-width="8"/>
<g filter="url(#filter0_d_1202_33831)">
<mask id="path-3-inside-1_1202_33831" fill="white">
<path fill-rule="evenodd" clip-rule="evenodd" d="M247.283 190.745C235.355 216.37 203.415 231.482 169.472 225.555C130.096 218.679 102.934 186.095 108.805 152.776C114.676 119.457 151.356 98.0206 190.733 104.896C217.507 109.572 238.634 126.134 247.569 146.731L437.601 162.252C455.565 163.72 468.304 180.37 464.99 198.052C461.93 214.384 446.279 225.232 429.878 222.39L247.283 190.745Z"/>
</mask>
<path fill-rule="evenodd" clip-rule="evenodd" d="M247.283 190.745C235.355 216.37 203.415 231.482 169.472 225.555C130.096 218.679 102.934 186.095 108.805 152.776C114.676 119.457 151.356 98.0206 190.733 104.896C217.507 109.572 238.634 126.134 247.569 146.731L437.601 162.252C455.565 163.72 468.304 180.37 464.99 198.052C461.93 214.384 446.279 225.232 429.878 222.39L247.283 190.745Z" fill="#929292"/>
<path d="M247.283 190.745L248.325 184.841L243.78 184.053L241.835 188.231L247.283 190.745ZM169.472 225.555L168.423 231.457L169.472 225.555ZM108.805 152.776L114.722 153.8L108.805 152.776ZM190.733 104.896L191.781 98.9938L190.733 104.896ZM247.569 146.731L242.054 149.121L243.481 152.41L247.065 152.703L247.569 146.731ZM437.601 162.252L438.105 156.28L438.105 156.28L437.601 162.252ZM464.99 198.052L459.085 196.964L459.085 196.964L464.99 198.052ZM429.878 222.39L428.837 228.293L429.878 222.39ZM241.835 188.231C231.278 210.913 202.339 225.208 170.521 219.652L168.423 231.457C204.491 237.756 239.433 221.828 252.731 193.258L241.835 188.231ZM170.521 219.652C133.457 213.18 109.579 182.987 114.722 153.8L102.888 151.751C96.2894 189.202 126.734 224.178 168.423 231.457L170.521 219.652ZM114.722 153.8C119.863 124.624 152.623 104.327 189.684 110.799L191.781 98.9938C150.09 91.7137 109.489 114.29 102.888 151.751L114.722 153.8ZM189.684 110.799C214.687 115.165 234.004 130.562 242.054 149.121L253.083 144.341C243.265 121.706 220.327 103.979 191.781 98.9938L189.684 110.799ZM247.065 152.703L437.097 168.225L438.105 156.28L248.072 140.759L247.065 152.703ZM437.097 168.225C451.516 169.402 461.744 182.771 459.085 196.964L470.895 199.141C474.863 177.969 459.613 158.037 438.105 156.28L437.097 168.225ZM459.085 196.964C456.63 210.065 444.078 218.766 430.92 216.486L428.837 228.293C448.48 231.698 467.23 218.703 470.895 199.141L459.085 196.964ZM430.92 216.486L248.325 184.841L246.242 196.648L428.837 228.293L430.92 216.486Z" fill="black" mask="url(#path-3-inside-1_1202_33831)"/>
<path d="M236.541 167.792C233.542 176.84 225.393 183.59 214.034 186.912C202.69 190.23 188.439 190.006 174.031 185.274C159.623 180.541 148.037 172.277 140.904 162.89C133.762 153.49 131.249 143.238 134.248 134.19C137.247 125.142 145.396 118.392 156.755 115.07C168.099 111.753 182.351 111.976 196.758 116.709C211.166 121.442 222.752 129.706 229.885 139.093C237.027 148.492 239.54 158.744 236.541 167.792Z" fill="#D7D6DC" stroke="black" stroke-width="6"/>
<path d="M233.026 165.992C227.111 183.837 200.873 191.26 174.422 182.571C147.97 173.882 131.323 152.372 137.238 134.526C143.153 116.681 151.828 154.794 178.279 163.483C204.73 172.172 238.942 148.147 233.026 165.992Z" fill="black" fill-opacity="0.25"/>
<path d="M237.741 192.124C231.539 210.836 190.767 226.986 159.861 216.834C128.954 206.681 110.116 172.711 116.319 153.999C122.522 135.287 109.746 179.764 160.295 202.626C213.794 226.821 243.944 173.412 237.741 192.124Z" fill="black" fill-opacity="0.25"/>
<path d="M151.472 125.23C154.044 118.061 178.866 115.377 199.342 122.657C219.817 129.937 234.355 145.928 231.783 153.097C229.211 160.266 234.069 143.032 200.117 128.523C164.184 113.168 148.9 132.399 151.472 125.23Z" fill="white" fill-opacity="0.7"/>
<path d="M248.248 170.118C246.071 173.54 248.064 178.069 252.06 178.782L435.087 211.452C438.864 212.126 442.722 210.798 445.282 207.942C451.246 201.289 447.248 190.697 438.372 189.633L253.757 167.509C251.571 167.247 249.428 168.262 248.248 170.118Z" fill="#C4C4C4"/>
<path d="M251.248 162.399C249.94 163.036 250.271 164.982 251.717 165.151L443.011 187.479C444.626 187.668 446.066 186.459 446.157 184.839C446.241 183.338 445.128 182.037 443.63 181.884L252.037 162.259C251.766 162.232 251.493 162.28 251.248 162.399Z" fill="white" fill-opacity="0.25"/>
<ellipse rx="14.936" ry="3.82527" transform="matrix(0.984595 0.179369 -0.180656 0.982728 427.936 172.853)" fill="white" fill-opacity="0.25"/>
<ellipse rx="10.4509" ry="3.82485" transform="matrix(0.83861 0.543804 -0.547824 0.837201 149.069 185.982)" fill="white" fill-opacity="0.7"/>
</g>
<g filter="url(#filter1_d_1202_33831)">
<path d="M743.092 119H830.41V211.919H743.092V119Z" fill="white" fill-opacity="0.25"/>
<path fill-rule="evenodd" clip-rule="evenodd" d="M822.586 126.743H750.916V204.175H822.586V126.743ZM743.092 119V211.919H830.41V119H743.092Z" fill="#090909"/>
<path d="M839.443 119H830.41V211.919H839.443V119Z" fill="#929292"/>
<path fill-rule="evenodd" clip-rule="evenodd" d="M831.916 120.549H837.938V210.37H831.916V120.549ZM839.443 119V211.919H830.41V119H839.443Z" fill="black"/>
<path d="M731.049 119H722.016V211.919H731.049V119Z" fill="#929292"/>
<path fill-rule="evenodd" clip-rule="evenodd" d="M723.521 120.549H729.543V210.37H723.521V120.549ZM731.049 119V211.919H722.016V119H731.049Z" fill="black"/>
<path d="M731.049 168.956H722.016V211.919H731.049V168.956Z" fill="black" fill-opacity="0.25"/>
<path d="M839.443 168.956H830.41V211.919H839.443V168.956Z" fill="black" fill-opacity="0.25"/>
<path d="M766.407 138.483C766.407 140.414 764.386 141.98 761.893 141.98C759.401 141.98 757.38 140.414 757.38 138.483C757.38 136.552 759.401 134.986 761.893 134.986C764.386 134.986 766.407 136.552 766.407 138.483Z" fill="white" fill-opacity="0.7"/>
<path fill-rule="evenodd" clip-rule="evenodd" d="M761.893 141.251C764.058 141.251 765.598 139.913 765.598 138.483C765.598 137.053 764.058 135.715 761.893 135.715C759.729 135.715 758.189 137.053 758.189 138.483C758.189 139.913 759.729 141.251 761.893 141.251ZM761.893 141.98C764.386 141.98 766.407 140.414 766.407 138.483C766.407 136.552 764.386 134.986 761.893 134.986C759.401 134.986 757.38 136.552 757.38 138.483C757.38 140.414 759.401 141.98 761.893 141.98Z" fill="white" fill-opacity="0.7"/>
<path fill-rule="evenodd" clip-rule="evenodd" d="M775.019 172.974L812.573 140.461L815.507 143.001L777.953 175.514L775.019 172.974Z" fill="white" fill-opacity="0.7"/>
<path fill-rule="evenodd" clip-rule="evenodd" d="M784.25 176.04L806.756 156.555L809.689 159.094L787.183 178.579L784.25 176.04Z" fill="white" fill-opacity="0.7"/>
<path fill-rule="evenodd" clip-rule="evenodd" d="M629 138.983L705.842 138.983C709.379 138.983 712.246 142.337 712.246 146.476C712.246 150.615 709.379 153.969 705.842 153.969L629 153.969V138.983Z" fill="#090909"/>
<path d="M634.697 119H722.015V211.919H634.697V119Z" fill="white" fill-opacity="0.25"/>
<path fill-rule="evenodd" clip-rule="evenodd" d="M714.191 126.743H642.521V204.175H714.191V126.743ZM634.697 119V211.919H722.015V119H634.697Z" fill="#090909"/>
<path d="M722.015 141.98H743.091V165.959H722.015V141.98Z" fill="#090909"/>
<path d="M722.015 165.959H743.091V168.956H722.015V165.959Z" fill="#3C3C3C"/>
<path d="M658.086 143.479C658.086 145.962 656.066 147.975 653.573 147.975C651.08 147.975 649.06 145.962 649.06 143.479C649.06 140.996 651.08 138.983 653.573 138.983C656.066 138.983 658.086 140.996 658.086 143.479Z" fill="white" fill-opacity="0.7"/>
<path fill-rule="evenodd" clip-rule="evenodd" d="M653.573 147.225C655.565 147.225 657.277 145.6 657.277 143.479C657.277 141.357 655.565 139.732 653.573 139.732C651.581 139.732 649.868 141.357 649.868 143.479C649.868 145.6 651.581 147.225 653.573 147.225ZM653.573 147.975C656.066 147.975 658.086 145.962 658.086 143.479C658.086 140.996 656.066 138.983 653.573 138.983C651.08 138.983 649.06 140.996 649.06 143.479C649.06 145.962 651.08 147.975 653.573 147.975Z" fill="white" fill-opacity="0.7"/>
<path fill-rule="evenodd" clip-rule="evenodd" d="M666.819 186.468L704.374 145.827L707.006 148.675L669.452 189.316L666.819 186.468Z" fill="white" fill-opacity="0.7"/>
<path fill-rule="evenodd" clip-rule="evenodd" d="M676.051 190.3L698.557 165.943L701.189 168.792L678.683 193.148L676.051 190.3Z" fill="white" fill-opacity="0.7"/>
<path fill-rule="evenodd" clip-rule="evenodd" d="M831.598 138.983L915.846 138.983C919.724 138.983 922.867 142.337 922.867 146.476C922.867 150.615 919.724 153.969 915.846 153.969L831.598 153.969V138.983Z" fill="#090909"/>
</g>
<mask id="path-35-inside-2_1202_33831" fill="white">
<path fill-rule="evenodd" clip-rule="evenodd" d="M1142.16 58.0187C1142.16 45.1068 1105.86 34.6396 1061.08 34.6396C1016.3 34.6396 980 45.1068 980 58.0187C980 58.0188 980 58.0188 980 58.0188V191C980 226.346 1008.65 255 1044 255H1078.16C1113.51 255 1142.16 226.346 1142.16 191V58.0187Z"/>
</mask>
<path fill-rule="evenodd" clip-rule="evenodd" d="M1142.16 58.0187C1142.16 45.1068 1105.86 34.6396 1061.08 34.6396C1016.3 34.6396 980 45.1068 980 58.0187C980 58.0188 980 58.0188 980 58.0188V191C980 226.346 1008.65 255 1044 255H1078.16C1113.51 255 1142.16 226.346 1142.16 191V58.0187Z" fill="#D7D6DC"/>
<path d="M1061.08 38.6396C1083.2 38.6396 1103.08 41.2302 1117.31 45.3306C1124.44 47.3886 1129.93 49.7631 1133.54 52.2236C1137.28 54.7743 1138.16 56.8036 1138.16 58.0187H1146.16C1146.16 52.7779 1142.51 48.6568 1138.04 45.6135C1133.45 42.4799 1127.06 39.8166 1119.52 37.6438C1104.4 33.2827 1083.74 30.6396 1061.08 30.6396V38.6396ZM984 58.0187C984 56.8036 984.883 54.7743 988.625 52.2236C992.234 49.7631 997.719 47.3886 1004.86 45.3306C1019.08 41.2302 1038.96 38.6396 1061.08 38.6396V30.6396C1038.43 30.6396 1017.76 33.2827 1002.64 37.6438C995.104 39.8166 988.715 42.4799 984.119 45.6135C979.654 48.6568 976 52.7779 976 58.0187H984ZM984 58.0188C984 58.0188 984 58.0188 984 58.0188C984 58.0188 984 58.0188 984 58.0188C984 58.0188 984 58.0188 984 58.0188C984 58.0188 984 58.0188 984 58.0188C984 58.0188 984 58.0188 984 58.0188C984 58.0188 984 58.0188 984 58.0188V58.0188C984 58.0188 984 58.0188 984 58.0188V58.0188C984 58.0188 984 58.0188 984 58.0188V58.0188C984 58.0188 984 58.0188 984 58.0188V58.0188C984 58.0188 984 58.0188 984 58.0188V58.0188C984 58.0188 984 58.0188 984 58.0188V58.0188C984 58.0188 984 58.0188 984 58.0188V58.0188C984 58.0188 984 58.0188 984 58.0188V58.0188C984 58.0188 984 58.0188 984 58.0188V58.0188C984 58.0188 984 58.0188 984 58.0188C984 58.0188 984 58.0188 984 58.0188C984 58.0188 984 58.0188 984 58.0188C984 58.0188 984 58.0188 984 58.0188C984 58.0188 984 58.0188 984 58.0188C984 58.0188 984 58.0188 984 58.0188C984 58.0188 984 58.0188 984 58.0188C984 58.0188 984 58.0188 984 58.0188V58.0188C984 58.0188 984 58.0188 984 58.0188V58.0188C984 58.0188 984 58.0188 984 58.0188V58.0188C984 58.0188 984 58.0188 984 58.0188V58.0188C984 58.0188 984 58.0188 984 58.0188V58.0187C984 58.0187 984 58.0187 984 58.0187V58.0187C984 58.0187 984 58.0187 984 58.0187V58.0187C984 58.0187 984 58.0187 984 58.0187V58.0187C984 58.0187 984 58.0187 984 58.0187V58.0187C984 58.0187 984 58.0187 984 58.0187C984 58.0187 984 58.0187 984 58.0187C984 58.0187 984 58.0187 984 58.0187C984 58.0187 984 58.0187 984 58.0187C984 58.0187 984 58.0187 984 58.0187C984 58.0187 984 58.0187 984 58.0187H976C976 58.0187 976 58.0187 976 58.0187C976 58.0187 976 58.0187 976 58.0187C976 58.0187 976 58.0187 976 58.0187C976 58.0187 976 58.0187 976 58.0187C976 58.0187 976 58.0187 976 58.0187C976 58.0187 976 58.0187 976 58.0187V58.0187C976 58.0187 976 58.0187 976 58.0187V58.0187C976 58.0187 976 58.0187 976 58.0187V58.0187C976 58.0187 976 58.0187 976 58.0187V58.0187C976 58.0187 976 58.0187 976 58.0187V58.0188C976 58.0188 976 58.0188 976 58.0188V58.0188C976 58.0188 976 58.0188 976 58.0188V58.0188C976 58.0188 976 58.0188 976 58.0188V58.0188C976 58.0188 976 58.0188 976 58.0188V58.0188C976 58.0188 976 58.0188 976 58.0188C976 58.0188 976 58.0188 976 58.0188C976 58.0188 976 58.0188 976 58.0188C976 58.0188 976 58.0188 976 58.0188C976 58.0188 976 58.0188 976 58.0188C976 58.0188 976 58.0188 976 58.0188C976 58.0188 976 58.0188 976 58.0188C976 58.0188 976 58.0188 976 58.0188V58.0188C976 58.0188 976 58.0188 976 58.0188V58.0188C976 58.0188 976 58.0188 976 58.0188V58.0188C976 58.0188 976 58.0188 976 58.0188V58.0188C976 58.0188 976 58.0188 976 58.0188V58.0188C976 58.0188 976 58.0188 976 58.0188V58.0188C976 58.0188 976 58.0188 976 58.0188V58.0188C976 58.0188 976 58.0188 976 58.0188V58.0188C976 58.0188 976 58.0188 976 58.0188V58.0188C976 58.0188 976 58.0188 976 58.0188C976 58.0188 976 58.0188 976 58.0188C976 58.0188 976 58.0188 976 58.0188C976 58.0188 976 58.0188 976 58.0188C976 58.0188 976 58.0188 976 58.0188C976 58.0188 976 58.0188 976 58.0188H984ZM984 191V58.0188H976V191H984ZM1044 251C1010.86 251 984 224.137 984 191H976C976 228.555 1006.44 259 1044 259V251ZM1078.16 251H1044V259H1078.16V251ZM1138.16 191C1138.16 224.137 1111.3 251 1078.16 251V259C1115.72 259 1146.16 228.555 1146.16 191H1138.16ZM1138.16 58.0187V191H1146.16V58.0187H1138.16Z" fill="black" mask="url(#path-35-inside-2_1202_33831)"/>
<path d="M989.948 86.1565C989.948 76.3377 998.71 68.8354 1008.41 70.3473L1053.02 77.2986C1060.81 78.5128 1066.55 85.2224 1066.55 93.1077V236.197C1066.55 244.659 1059.69 251.518 1051.23 251.518C1017.39 251.518 989.948 224.081 989.948 190.235V86.1565Z" fill="white" fill-opacity="0.25"/>
<path opacity="0.2" d="M1135.69 67.4698L1109.33 75.4287V251.518C1123.89 251.518 1135.69 239.714 1135.69 225.154V67.4698Z" fill="black" fill-opacity="0.25"/>
<path d="M1140.16 58.0187C1140.16 60.2403 1138.59 62.7925 1134.66 65.4664C1130.81 68.0951 1125.1 70.5418 1117.86 72.6285C1103.41 76.7941 1083.34 79.3978 1061.08 79.3978C1038.82 79.3978 1018.75 76.7941 1004.3 72.6285C997.065 70.5418 991.354 68.0951 987.498 65.4664C983.576 62.7925 982 60.2403 982 58.0187C982 55.7971 983.576 53.245 987.498 50.5711C991.354 47.9423 997.065 45.4956 1004.3 43.4089C1018.75 39.2433 1038.82 36.6396 1061.08 36.6396C1083.34 36.6396 1103.41 39.2433 1117.86 43.4089C1125.1 45.4956 1130.81 47.9423 1134.66 50.5711C1138.59 53.245 1140.16 55.7971 1140.16 58.0187Z" fill="white" fill-opacity="0.25" stroke="black" stroke-width="4"/>
<path d="M1130.21 57.2726C1130.21 57.8061 1129.99 58.4803 1129.26 59.3152C1128.52 60.1631 1127.34 61.0763 1125.65 62.0093C1122.29 63.8747 1117.28 65.619 1110.92 67.1084C1098.24 70.0796 1080.62 71.9364 1061.08 71.9364C1041.54 71.9364 1023.92 70.0796 1011.24 67.1084C1004.88 65.619 999.875 63.8747 996.507 62.0093C994.823 61.0763 993.64 60.1631 992.9 59.3152C992.17 58.4803 991.948 57.8061 991.948 57.2726C991.948 56.7391 992.17 56.0648 992.9 55.23C993.64 54.3821 994.823 53.4688 996.507 52.5358C999.875 50.6705 1004.88 48.9261 1011.24 47.4368C1023.92 44.4655 1041.54 42.6088 1061.08 42.6088C1080.62 42.6088 1098.24 44.4655 1110.92 47.4368C1117.28 48.9261 1122.29 50.6705 1125.65 52.5358C1127.34 53.4688 1128.52 54.3821 1129.26 55.23C1129.99 56.0648 1130.21 56.7391 1130.21 57.2726Z" fill="#929292" stroke="black" stroke-width="4"/>
<mask id="mask0_1202_33831" style="mask-type:alpha" maskUnits="userSpaceOnUse" x="989" y="37" width="144" height="34">
<path d="M1130.21 54.2883C1130.21 54.8218 1129.99 55.4961 1129.26 56.3309C1128.52 57.1788 1127.34 58.0921 1125.65 59.0251C1122.29 60.8904 1117.28 62.6348 1110.92 64.1241C1098.24 67.0954 1080.62 68.9521 1061.08 68.9521C1041.54 68.9521 1023.92 67.0954 1011.24 64.1241C1004.88 62.6348 999.875 60.8904 996.507 59.0251C994.823 58.0921 993.64 57.1788 992.9 56.3309C992.17 55.4961 991.948 54.8218 991.948 54.2883C991.948 53.7548 992.17 53.0806 992.9 52.2457C993.64 51.3978 994.823 50.4846 996.507 49.5516C999.875 47.6862 1004.88 45.9419 1011.24 44.4525C1023.92 41.4813 1041.54 39.6245 1061.08 39.6245C1080.62 39.6245 1098.24 41.4813 1110.92 44.4525C1117.28 45.9419 1122.29 47.6862 1125.65 49.5516C1127.34 50.4846 1128.52 51.3978 1129.26 52.2457C1129.99 53.0806 1130.21 53.7548 1130.21 54.2883Z" fill="#929292" stroke="black" stroke-width="4"/>
</mask>
<g mask="url(#mask0_1202_33831)">
<path d="M1121.76 67.9677C1121.76 69.6127 1120.64 71.5769 1117.67 73.6968C1114.75 75.7809 1110.39 77.74 1104.82 79.4187C1093.71 82.7687 1078.25 84.8699 1061.08 84.8699C1043.91 84.8699 1028.45 82.7687 1017.34 79.4187C1011.77 77.74 1007.41 75.7809 1004.49 73.6968C1001.52 71.5769 1000.41 69.6127 1000.41 67.9677C1000.41 66.3226 1001.52 64.3584 1004.49 62.2385C1007.41 60.1544 1011.77 58.1953 1017.34 56.5166C1028.45 53.1667 1043.91 51.0654 1061.08 51.0654C1078.25 51.0654 1093.71 53.1667 1104.82 56.5166C1110.39 58.1953 1114.75 60.1544 1117.67 62.2385C1120.64 64.3584 1121.76 66.3226 1121.76 67.9677Z" fill="#5F3016" stroke="black" stroke-width="4"/>
<path d="M1113.77 76.7045C1117.64 74.1274 1119.31 71.3065 1118.64 68.4914C1117.96 65.6763 1114.97 62.954 1109.91 60.5657C1104.86 58.1774 1097.9 56.1967 1089.65 54.7992C1081.41 53.4016 1072.13 52.6303 1062.65 52.5536C1053.16 52.4768 1043.76 53.097 1035.27 54.3593C1026.79 55.6215 1019.48 57.4867 1013.99 59.7897C1008.51 62.0928 1005.02 64.7626 1003.83 67.5626C1002.64 70.3627 1003.8 73.2065 1007.19 75.8423L1016.05 74.8332C1013.22 72.6311 1012.26 70.255 1013.25 67.9156C1014.24 65.5762 1017.16 63.3456 1021.74 61.4215C1026.32 59.4973 1032.43 57.9389 1039.52 56.8843C1046.61 55.8298 1054.47 55.3116 1062.39 55.3757C1070.32 55.4398 1078.07 56.0842 1084.95 57.2519C1091.84 58.4195 1097.65 60.0743 1101.88 62.0698C1106.1 64.0652 1108.61 66.3396 1109.17 68.6916C1109.73 71.0436 1108.33 73.4005 1105.1 75.5536L1113.77 76.7045Z" fill="white" fill-opacity="0.25"/>
</g>
<path fill-rule="evenodd" clip-rule="evenodd" d="M1176.88 113.772C1176.88 109.354 1173.3 105.772 1168.88 105.772H1136.19C1130.7 105.772 1126.24 101.318 1126.24 95.8234C1126.24 90.329 1130.7 85.8749 1136.19 85.8749H1179.13C1190.31 85.8749 1199.37 93.8923 1199.37 103.782V185.858C1199.37 195.748 1190.31 203.765 1179.13 203.765H1136.19C1130.7 203.765 1126.24 199.311 1126.24 193.817C1126.24 188.322 1130.7 183.868 1136.19 183.868H1168.88C1173.3 183.868 1176.88 180.286 1176.88 175.868V113.772Z" fill="#D7D6DC"/>
<path d="M1136.19 107.772H1168.88V103.772H1136.19V107.772ZM1179.13 83.8749H1136.19V87.8749H1179.13V83.8749ZM1201.37 103.782C1201.37 92.5649 1191.17 83.8749 1179.13 83.8749V87.8749C1189.44 87.8749 1197.37 95.2197 1197.37 103.782H1201.37ZM1201.37 185.858V103.782H1197.37V185.858H1201.37ZM1179.13 205.765C1191.17 205.765 1201.37 197.075 1201.37 185.858H1197.37C1197.37 194.42 1189.44 201.765 1179.13 201.765V205.765ZM1136.19 205.765H1179.13V201.765H1136.19V205.765ZM1168.88 181.868H1136.19V185.868H1168.88V181.868ZM1174.88 113.772V175.868H1178.88V113.772H1174.88ZM1168.88 185.868C1174.4 185.868 1178.88 181.391 1178.88 175.868H1174.88C1174.88 179.182 1172.19 181.868 1168.88 181.868V185.868ZM1128.24 193.817C1128.24 189.427 1131.8 185.868 1136.19 185.868V181.868C1129.59 181.868 1124.24 187.218 1124.24 193.817H1128.24ZM1136.19 201.765C1131.8 201.765 1128.24 198.206 1128.24 193.817H1124.24C1124.24 200.416 1129.59 205.765 1136.19 205.765V201.765ZM1128.24 95.8234C1128.24 91.4336 1131.8 87.8749 1136.19 87.8749V83.8749C1129.59 83.8749 1124.24 89.2244 1124.24 95.8234H1128.24ZM1168.88 107.772C1172.19 107.772 1174.88 110.458 1174.88 113.772H1178.88C1178.88 108.249 1174.4 103.772 1168.88 103.772V107.772ZM1136.19 103.772C1131.8 103.772 1128.24 100.213 1128.24 95.8234H1124.24C1124.24 102.422 1129.59 107.772 1136.19 107.772V103.772Z" fill="black"/>
<path opacity="0.25" fill-rule="evenodd" clip-rule="evenodd" d="M1176.88 127.772C1176.88 115.622 1167.03 105.772 1154.88 105.772H1136.69C1130.92 105.772 1126.24 101.095 1126.24 95.3258H1173.75C1187.43 95.3258 1187.43 104.528 1187.43 109.751V180.137C1187.43 190.027 1182.54 194.811 1174.25 194.811H1126.24C1126.24 188.767 1131.14 183.868 1137.19 183.868H1154.88C1167.03 183.868 1176.88 174.018 1176.88 161.868V127.772Z" fill="black" fill-opacity="0.25"/>
<g filter="url(#filter2_f_1202_33831)">
<path d="M1030.72 14C1015.69 18.1222 1009.43 27.1911 1030.72 39.9111C1054.12 53.8972 1044.84 59.1481 1030.72 67" stroke="white" stroke-opacity="0.25" stroke-width="4" stroke-linecap="round" stroke-linejoin="round"/>
</g>
<g filter="url(#filter3_f_1202_33831)">
<path d="M1057.25 17C1043.83 20.8889 1038.24 29.4444 1057.25 41.4444C1078.14 54.6389 1069.86 59.5926 1057.25 67" stroke="white" stroke-opacity="0.25" stroke-width="4" stroke-linecap="round" stroke-linejoin="round"/>
</g>
<g filter="url(#filter4_f_1202_33831)">
<path d="M1085.8 22C1075.06 25.5 1070.59 33.2 1085.8 44C1102.52 55.875 1095.89 60.3333 1085.8 67" stroke="white" stroke-opacity="0.25" stroke-width="4" stroke-linecap="round" stroke-linejoin="round"/>
</g>
<path d="M1008.79 140.364C1015.93 140.364 1021.72 134.302 1021.72 126.823C1021.72 119.345 1015.93 113.283 1008.79 113.283C1001.65 113.283 995.868 119.345 995.868 126.823C995.868 134.302 1001.65 140.364 1008.79 140.364Z" fill="black"/>
<path d="M1050.23 140.364C1057.37 140.364 1063.16 134.302 1063.16 126.823C1063.16 119.345 1057.37 113.283 1050.23 113.283C1043.1 113.283 1037.31 119.345 1037.31 126.823C1037.31 134.302 1043.1 140.364 1050.23 140.364Z" fill="black"/>
<ellipse rx="6.77025" ry="7.18057" transform="matrix(-1 0 0 1 1046.54 126.208)" fill="white"/>
<ellipse rx="6.77025" ry="7.18057" transform="matrix(-1 0 0 1 1004.28 126.208)" fill="white"/>
<path d="M1048.76 156.817C1050.13 158.554 1051.28 160.402 1052.15 162.256C1053.02 164.111 1053.59 165.936 1053.84 167.626C1054.08 169.316 1054 170.839 1053.58 172.108C1053.17 173.377 1052.43 174.366 1051.42 175.02C1050.4 175.674 1049.13 175.98 1047.67 175.919C1046.22 175.859 1044.6 175.434 1042.92 174.668C1041.24 173.903 1039.53 172.812 1037.89 171.458C1036.24 170.104 1034.69 168.513 1033.33 166.777L1041.05 161.797L1048.76 156.817Z" fill="#E40303"/>
<path fill-rule="evenodd" clip-rule="evenodd" d="M1050.02 163.055C1049.51 161.969 1048.89 160.879 1048.18 159.813L1036.64 167.261C1037.52 168.218 1038.45 169.104 1039.41 169.897C1040.93 171.142 1042.46 172.112 1043.92 172.776C1045.38 173.443 1046.67 173.759 1047.73 173.802C1048.76 173.845 1049.52 173.627 1050.05 173.28C1050.59 172.933 1051.06 172.361 1051.36 171.46C1051.66 170.543 1051.75 169.332 1051.54 167.86C1051.33 166.394 1050.82 164.76 1050.02 163.055ZM1034.76 168.474C1034.26 167.927 1033.79 167.36 1033.33 166.777L1048.76 156.817C1049.22 157.4 1049.66 157.996 1050.06 158.6C1050.87 159.796 1051.57 161.025 1052.15 162.256C1053.02 164.111 1053.59 165.936 1053.84 167.626C1054.08 169.316 1054 170.839 1053.58 172.108C1053.17 173.377 1052.43 174.366 1051.42 175.02C1050.4 175.674 1049.13 175.98 1047.67 175.919C1046.22 175.859 1044.6 175.434 1042.92 174.668C1041.24 173.903 1039.53 172.812 1037.89 171.458C1036.79 170.559 1035.74 169.555 1034.76 168.474Z" fill="black"/>
<path d="M1040.77 165.299L1035.07 167.627L1045.76 174.609L1040.77 165.299Z" fill="black" fill-opacity="0.5"/>
<path fill-rule="evenodd" clip-rule="evenodd" d="M1006.04 152.393C1007.22 152.393 1008.17 153.292 1008.17 154.401C1008.17 155.637 1008.57 156.911 1009.43 158.16C1010.3 159.417 1011.62 160.626 1013.39 161.681C1015.15 162.736 1017.28 163.595 1019.67 164.188C1022.05 164.78 1024.63 165.089 1027.24 165.089C1029.85 165.089 1032.42 164.78 1034.81 164.188C1037.2 163.595 1039.33 162.736 1041.09 161.681C1042.85 160.626 1044.18 159.417 1045.05 158.16C1045.91 156.911 1046.31 155.637 1046.31 154.401C1046.31 153.292 1047.26 152.393 1048.44 152.393C1049.61 152.393 1050.56 153.292 1050.56 154.401C1050.56 156.498 1049.87 158.526 1048.6 160.358C1047.34 162.181 1045.54 163.771 1043.36 165.074C1041.19 166.378 1038.64 167.389 1035.89 168.072C1033.13 168.755 1030.2 169.104 1027.24 169.104C1024.28 169.104 1021.35 168.755 1018.59 168.072C1015.84 167.389 1013.29 166.378 1011.12 165.074C1008.94 163.771 1007.14 162.181 1005.88 160.358C1004.61 158.526 1003.92 156.498 1003.92 154.401C1003.92 153.292 1004.87 152.393 1006.04 152.393Z" fill="black"/>
<defs>
<filter id="filter0_d_1202_33831" x="103.007" y="103.613" width="365.508" height="134.225" filterUnits="userSpaceOnUse" color-interpolation-filters="sRGB">
<feFlood flood-opacity="0" result="BackgroundImageFix"/>
<feColorMatrix in="SourceAlpha" type="matrix" values="0 0 0 0 0 0 0 0 0 0 0 0 0 0 0 0 0 0 127 0" result="hardAlpha"/>
<feOffset dx="-1" dy="7"/>
<feGaussianBlur stdDeviation="2"/>
<feComposite in2="hardAlpha" operator="out"/>
<feColorMatrix type="matrix" values="0 0 0 0 0 0 0 0 0 0 0 0 0 0 0 0 0 0 0.25 0"/>
<feBlend mode="normal" in2="BackgroundImageFix" result="effect1_dropShadow_1202_33831"/>
<feBlend mode="normal" in="SourceGraphic" in2="effect1_dropShadow_1202_33831" result="shape"/>
</filter>
<filter id="filter1_d_1202_33831" x="624" y="119" width="301.867" height="103.919" filterUnits="userSpaceOnUse" color-interpolation-filters="sRGB">
<feFlood flood-opacity="0" result="BackgroundImageFix"/>
<feColorMatrix in="SourceAlpha" type="matrix" values="0 0 0 0 0 0 0 0 0 0 0 0 0 0 0 0 0 0 127 0" result="hardAlpha"/>
<feOffset dx="-1" dy="7"/>
<feGaussianBlur stdDeviation="2"/>
<feComposite in2="hardAlpha" operator="out"/>
<feColorMatrix type="matrix" values="0 0 0 0 0 0 0 0 0 0 0 0 0 0 0 0 0 0 0.25 0"/>
<feBlend mode="normal" in2="BackgroundImageFix" result="effect1_dropShadow_1202_33831"/>
<feBlend mode="normal" in="SourceGraphic" in2="effect1_dropShadow_1202_33831" result="shape"/>
</filter>
<filter id="filter2_f_1202_33831" x="1003" y="-0.000488281" width="56.0029" height="81.0009" filterUnits="userSpaceOnUse" color-interpolation-filters="sRGB">
<feFlood flood-opacity="0" result="BackgroundImageFix"/>
<feBlend mode="normal" in="SourceGraphic" in2="BackgroundImageFix" result="shape"/>
<feGaussianBlur stdDeviation="6" result="effect1_foregroundBlur_1202_33831"/>
</filter>
<filter id="filter3_f_1202_33831" x="1031" y="2.99951" width="53.002" height="78.0009" filterUnits="userSpaceOnUse" color-interpolation-filters="sRGB">
<feFlood flood-opacity="0" result="BackgroundImageFix"/>
<feBlend mode="normal" in="SourceGraphic" in2="BackgroundImageFix" result="shape"/>
<feGaussianBlur stdDeviation="6" result="effect1_foregroundBlur_1202_33831"/>
</filter>
<filter id="filter4_f_1202_33831" x="1062" y="7.99951" width="48.0015" height="73.0007" filterUnits="userSpaceOnUse" color-interpolation-filters="sRGB">
<feFlood flood-opacity="0" result="BackgroundImageFix"/>
<feBlend mode="normal" in="SourceGraphic" in2="BackgroundImageFix" result="shape"/>
<feGaussianBlur stdDeviation="6" result="effect1_foregroundBlur_1202_33831"/>
</filter>
</defs>
</svg>
