<svg width="1000" height="1000" viewBox="0 0 1000 1000" fill="none" xmlns="http://www.w3.org/2000/svg">
<path d="M176 479.223C175.999 696.5 179.999 760.5 254.002 760.5C266.909 760.5 301 755.5 301 741C301 709 262.002 711 247 659.5C220.648 564.5 126 175.5 579.003 238C317.5 170.5 176.002 284 176 479.223Z" fill="#090909"/>
<path d="M242.501 294C184.818 385 187.501 616 232.001 755.5C119 755.5 159.502 557.5 159.502 466.5C159.503 413.5 142.002 137.065 427 87.5C783.5 25.5 846 355.5 846 481V682C846 748 800 806.5 717.5 806.5C651.5 806.5 614.003 754 626 682C626 642 687.503 588 687.503 385C687.503 182 313 182.782 242.501 294Z" fill="#5F3016"/>
<mask id="mask0_1254_30817" style="mask-type:alpha" maskUnits="userSpaceOnUse" x="148" y="75" width="702" height="736">
<path d="M242.501 294C184.818 385 187.501 616 232.001 755.5C119 755.5 159.502 557.5 159.502 466.5C159.503 413.5 142.002 137.065 427 87.5C783.5 25.5 846 355.5 846 481V682C846 748 800 806.5 717.5 806.5C651.5 806.5 614.003 754 626 682C626 642 687.503 588 687.503 385C687.503 182 313 182.782 242.501 294Z" fill="#4E9AE9" stroke="black" stroke-width="8"/>
</mask>
<g mask="url(#mask0_1254_30817)">
<rect x="148" y="84" width="332" height="147" fill="#55EAAB" stroke="black" stroke-width="8"/>
<rect x="484" y="84" width="332" height="189" fill="#008026" stroke="black" stroke-width="8"/>
<rect x="-4" y="4" width="157" height="147" transform="matrix(-1 0 0 1 641 80)" fill="#82EB68" stroke="black" stroke-width="8"/>
<rect x="219" y="181" width="597" height="11" fill="#371502" stroke="black" stroke-width="8"/>
<rect x="637" y="291" width="226" height="235" fill="#55EAAB" stroke="black" stroke-width="8"/>
<rect x="110" y="526" width="226" height="235" fill="#008026" stroke="black" stroke-width="8"/>
<rect x="110" y="251" width="226" height="261" fill="#82EB68" stroke="black" stroke-width="8"/>
<rect x="614" y="541" width="226" height="261" fill="#82EB68" stroke="black" stroke-width="8"/>
<rect x="614" y="291" width="113" height="421" fill="#008026" stroke="black" stroke-width="8"/>
<rect x="614" y="703" width="226" height="99" fill="#008026" stroke="black" stroke-width="8"/>
</g>
<path d="M248.501 286C190.817 377 176.826 609 232.001 755.5C172.5 755.5 183.501 555 183.501 464C183.5 231.5 308.5 174.5 468.5 174.5C816 174.5 685.937 574.301 677.503 601C668.5 629.5 634.997 718.5 657 746.5C735.728 821.501 838.762 750.931 846 531.635V481C846.547 498.679 846.531 515.556 846 531.635V682C846 748 800 806.5 717.5 806.5C651.5 806.5 614.003 754 626 682C626 649.5 687.503 588 687.503 385C687.503 182 319 174.783 248.501 286Z" fill="#D7D6DC"/>
<path d="M232.001 755.5V759.5H237.782L235.744 754.09L232.001 755.5ZM248.501 286L251.879 288.142L248.501 286ZM626 682L629.946 682.658L630 682.331V682H626ZM846 481L849.998 480.877L842 481H846ZM183.501 464H187.501H183.501ZM657 746.5L653.855 748.971L654.033 749.198L654.241 749.396L657 746.5ZM677.503 601L673.689 599.795L677.503 601ZM235.744 754.09C208.404 681.497 198.129 587.449 201.925 500.111C205.727 412.645 223.604 332.748 251.879 288.142L245.123 283.859C215.714 330.252 197.754 411.855 193.933 499.764C190.106 587.801 200.423 683.003 228.258 756.91L235.744 754.09ZM251.879 288.142C268.712 261.588 303.792 241.556 347.862 229.868C391.784 218.22 443.928 215.059 493.918 221.634C543.935 228.214 591.46 244.494 626.38 271.419C661.18 298.249 683.503 335.649 683.503 385H691.503C691.503 332.851 667.763 293.224 631.265 265.083C594.888 237.036 545.881 220.401 494.961 213.703C444.012 207.001 390.812 210.201 345.812 222.136C300.959 234.031 263.54 254.804 245.123 283.859L251.879 288.142ZM683.503 385C683.503 486.065 668.198 551.751 652.968 596.139C645.339 618.374 637.723 635.29 631.931 648.859C626.257 662.153 622 672.894 622 682H630C630 674.856 633.431 665.722 639.289 652C645.028 638.554 652.788 621.314 660.535 598.736C676.056 553.5 691.503 486.936 691.503 385H683.503ZM622.055 681.343C615.924 718.135 622.368 750.416 639.269 773.606C656.227 796.874 683.365 810.5 717.5 810.5V802.5C685.636 802.5 661.025 789.876 645.734 768.894C630.385 747.834 624.079 717.866 629.946 682.658L622.055 681.343ZM717.5 810.5C759.75 810.5 792.952 795.493 815.583 771.76C838.175 748.068 850 715.921 850 682H842C842 714.079 830.825 744.183 809.793 766.24C788.798 788.257 757.751 802.5 717.5 802.5V810.5ZM850 682V531.635H842V682H850ZM850 531.635V481H842V531.635H850ZM179.501 464C179.501 509.262 176.747 582.477 181.45 644.179C183.8 675.015 188.033 703.366 195.561 724.114C202.972 744.539 214.342 759.5 232.001 759.5V751.5C219.909 751.5 210.342 741.398 203.081 721.386C195.937 701.696 191.764 674.235 189.427 643.571C184.755 582.273 187.501 509.738 187.501 464H179.501ZM660.145 744.029C655.517 738.139 653.471 728.494 653.654 716.02C653.836 703.699 656.175 689.37 659.522 674.835C666.225 645.73 676.746 616.674 681.317 602.205L673.689 599.795C669.256 613.826 658.524 643.52 651.726 673.04C648.323 687.817 645.849 702.77 645.655 715.902C645.464 728.881 647.481 740.861 653.855 748.971L660.145 744.029ZM681.317 602.205C685.527 588.877 720.412 481.543 710.459 377.357C705.476 325.204 689.221 273.395 651.824 234.61C614.348 195.743 556.171 170.5 468.5 170.5V178.5C554.579 178.5 610.457 203.232 646.065 240.162C681.752 277.174 697.61 326.984 702.495 378.118C712.277 480.507 677.913 586.424 673.689 599.795L681.317 602.205ZM468.5 170.5C388.158 170.5 315.746 184.784 263.418 229.007C210.953 273.347 179.501 347.061 179.501 464H187.501C187.501 348.439 218.548 277.403 268.582 235.118C318.754 192.716 388.842 178.5 468.5 178.5V170.5ZM654.241 749.396C674.457 768.655 696.563 778.872 718.63 779.406C740.736 779.941 762.224 770.743 781.104 752.289C818.698 715.545 846.365 641.816 849.998 531.767L842.002 531.503C838.396 640.75 810.927 711.954 775.513 746.568C757.889 763.794 738.404 771.882 718.823 771.408C699.203 770.933 678.907 761.846 659.759 743.604L654.241 749.396ZM849.998 531.767C850.532 515.599 850.547 498.636 849.998 480.877L842.002 481.124C842.546 498.721 842.53 515.514 842.002 531.503L849.998 531.767Z" fill="#090909"/>
<path d="M232.001 755.5V759.5H237.476L235.812 754.284L232.001 755.5ZM242.501 294L239.123 291.858L242.501 294ZM626 682L629.946 682.657L630 682.331V682H626ZM427 87.5L427.686 91.4409L427 87.5ZM159.502 466.5H155.502H159.502ZM235.812 754.284C213.72 685.03 201.958 592.846 202.932 506.608C203.908 420.174 217.67 340.644 245.88 296.142L239.123 291.858C209.649 338.356 195.911 419.826 194.932 506.517C193.952 593.404 205.782 686.47 228.19 756.716L235.812 754.284ZM245.88 296.142C262.72 269.575 298.191 249.045 342.848 236.605C387.349 224.209 440.257 220.058 491.002 225.644C541.78 231.234 590.046 246.535 625.51 272.719C660.84 298.804 683.503 335.684 683.503 385H691.503C691.503 332.816 667.354 293.669 630.261 266.283C593.303 238.995 543.537 223.38 491.877 217.692C440.184 212.002 386.247 216.212 340.701 228.899C295.311 241.542 257.532 262.817 239.123 291.858L245.88 296.142ZM683.503 385C683.503 486.059 668.201 549.861 652.977 593.302C645.339 615.096 637.738 631.738 631.917 645.729C626.178 659.524 622 671.095 622 682H630C630 672.905 633.511 662.726 639.303 648.802C645.014 635.074 652.788 618.029 660.527 595.948C676.054 551.639 691.503 486.941 691.503 385H683.503ZM622.055 681.343C615.924 718.134 622.368 750.416 639.269 773.606C656.227 796.874 683.365 810.5 717.5 810.5V802.5C685.636 802.5 661.025 789.876 645.734 768.894C630.386 747.834 624.079 717.866 629.946 682.657L622.055 681.343ZM717.5 810.5C759.75 810.5 792.953 795.493 815.583 771.76C838.175 748.067 850 715.921 850 682H842C842 714.079 830.826 744.183 809.793 766.24C788.798 788.257 757.751 802.5 717.5 802.5V810.5ZM850 682C850 681.871 850 681.742 850 681.613C850 681.484 850 681.354 850 681.225C850 681.096 850 680.966 850 680.837C850 680.707 850 680.577 850 680.447C850 680.317 850 680.187 850 680.057C850 679.927 850 679.797 850 679.667C850 679.536 850 679.406 850 679.275C850 679.145 850 679.014 850 678.883C850 678.752 850 678.621 850 678.49C850 678.359 850 678.228 850 678.097C850 677.966 850 677.834 850 677.703C850 677.571 850 677.44 850 677.308C850 677.176 850 677.044 850 676.912C850 676.78 850 676.648 850 676.516C850 676.384 850 676.252 850 676.119C850 675.987 850 675.854 850 675.722C850 675.589 850 675.456 850 675.323C850 675.19 850 675.058 850 674.924C850 674.791 850 674.658 850 674.525C850 674.392 850 674.258 850 674.125C850 673.991 850 673.858 850 673.724C850 673.59 850 673.456 850 673.322C850 673.188 850 673.054 850 672.92C850 672.786 850 672.652 850 672.517C850 672.383 850 672.249 850 672.114C850 671.979 850 671.845 850 671.71C850 671.575 850 671.44 850 671.305C850 671.17 850 671.035 850 670.9C850 670.765 850 670.629 850 670.494C850 670.359 850 670.223 850 670.088C850 669.952 850 669.816 850 669.68C850 669.545 850 669.409 850 669.273C850 669.137 850 669.001 850 668.864C850 668.728 850 668.592 850 668.455C850 668.319 850 668.183 850 668.046C850 667.909 850 667.773 850 667.636C850 667.499 850 667.362 850 667.225C850 667.088 850 666.951 850 666.814C850 666.677 850 666.539 850 666.402C850 666.265 850 666.127 850 665.99C850 665.852 850 665.714 850 665.577C850 665.439 850 665.301 850 665.163C850 665.025 850 664.887 850 664.749C850 664.611 850 664.473 850 664.334C850 664.196 850 664.058 850 663.919C850 663.781 850 663.642 850 663.503C850 663.365 850 663.226 850 663.087C850 662.948 850 662.809 850 662.67C850 662.531 850 662.392 850 662.253C850 662.114 850 661.975 850 661.835C850 661.696 850 661.556 850 661.417C850 661.277 850 661.138 850 660.998C850 660.858 850 660.718 850 660.578C850 660.438 850 660.299 850 660.158C850 660.018 850 659.878 850 659.738C850 659.598 850 659.457 850 659.317C850 659.177 850 659.036 850 658.896C850 658.755 850 658.614 850 658.474C850 658.333 850 658.192 850 658.051C850 657.91 850 657.769 850 657.628C850 657.487 850 657.346 850 657.205C850 657.064 850 656.922 850 656.781C850 656.639 850 656.498 850 656.357C850 656.215 850 656.073 850 655.932C850 655.79 850 655.648 850 655.506C850 655.365 850 655.223 850 655.081C850 654.939 850 654.797 850 654.654C850 654.512 850 654.37 850 654.228C850 654.085 850 653.943 850 653.8C850 653.658 850 653.516 850 653.373C850 653.23 850 653.088 850 652.945C850 652.802 850 652.659 850 652.516C850 652.374 850 652.231 850 652.088C850 651.945 850 651.801 850 651.658C850 651.515 850 651.372 850 651.228C850 651.085 850 650.942 850 650.798C850 650.655 850 650.511 850 650.368C850 650.224 850 650.08 850 649.937C850 649.793 850 649.649 850 649.505C850 649.361 850 649.218 850 649.074C850 648.93 850 648.785 850 648.641C850 648.497 850 648.353 850 648.209C850 648.064 850 647.92 850 647.776C850 647.631 850 647.487 850 647.342C850 647.198 850 647.053 850 646.909C850 646.764 850 646.619 850 646.474C850 646.33 850 646.185 850 646.04C850 645.895 850 645.75 850 645.605C850 645.46 850 645.315 850 645.17C850 645.025 850 644.879 850 644.734C850 644.589 850 644.444 850 644.298C850 644.153 850 644.007 850 643.862C850 643.716 850 643.571 850 643.425C850 643.28 850 643.134 850 642.988C850 642.842 850 642.697 850 642.551C850 642.405 850 642.259 850 642.113C850 641.967 850 641.821 850 641.675C850 641.529 850 641.383 850 641.237C850 641.09 850 640.944 850 640.798C850 640.652 850 640.505 850 640.359C850 640.213 850 640.066 850 639.92C850 639.773 850 639.627 850 639.48C850 639.333 850 639.187 850 639.04C850 638.893 850 638.747 850 638.6C850 638.453 850 638.306 850 638.159C850 638.012 850 637.865 850 637.718C850 637.571 850 637.424 850 637.277C850 637.13 850 636.983 850 636.836C850 636.689 850 636.541 850 636.394C850 636.247 850 636.099 850 635.952C850 635.805 850 635.657 850 635.51C850 635.362 850 635.215 850 635.067C850 634.92 850 634.772 850 634.624C850 634.477 850 634.329 850 634.181C850 634.034 850 633.886 850 633.738C850 633.59 850 633.442 850 633.294C850 633.147 850 632.999 850 632.851C850 632.703 850 632.555 850 632.407C850 632.258 850 632.11 850 631.962C850 631.814 850 631.666 850 631.518C850 631.369 850 631.221 850 631.073C850 630.925 850 630.776 850 630.628C850 630.479 850 630.331 850 630.183C850 630.034 850 629.886 850 629.737C850 629.589 850 629.44 850 629.291C850 629.143 850 628.994 850 628.846C850 628.697 850 628.548 850 628.399C850 628.251 850 628.102 850 627.953C850 627.804 850 627.656 850 627.507C850 627.358 850 627.209 850 627.06C850 626.911 850 626.762 850 626.613C850 626.464 850 626.315 850 626.166C850 626.017 850 625.868 850 625.719C850 625.57 850 625.42 850 625.271C850 625.122 850 624.973 850 624.824C850 624.674 850 624.525 850 624.376C850 624.227 850 624.077 850 623.928C850 623.779 850 623.629 850 623.48C850 623.33 850 623.181 850 623.031C850 622.882 850 622.732 850 622.583C850 622.433 850 622.284 850 622.134C850 621.985 850 621.835 850 621.686C850 621.536 850 621.386 850 621.237C850 621.087 850 620.937 850 620.788C850 620.638 850 620.488 850 620.339C850 620.189 850 620.039 850 619.889C850 619.74 850 619.59 850 619.44C850 619.29 850 619.14 850 618.99C850 618.841 850 618.691 850 618.541C850 618.391 850 618.241 850 618.091C850 617.941 850 617.791 850 617.641C850 617.491 850 617.341 850 617.191C850 617.041 850 616.891 850 616.741C850 616.591 850 616.441 850 616.291C850 616.141 850 615.991 850 615.841C850 615.691 850 615.54 850 615.39C850 615.24 850 615.09 850 614.94C850 614.79 850 614.64 850 614.489C850 614.339 850 614.189 850 614.039C850 613.889 850 613.738 850 613.588C850 613.438 850 613.288 850 613.137C850 612.987 850 612.837 850 612.687C850 612.536 850 612.386 850 612.236C850 612.086 850 611.935 850 611.785C850 611.635 850 611.484 850 611.334C850 611.184 850 611.033 850 610.883C850 610.733 850 610.582 850 610.432C850 610.282 850 610.131 850 609.981C850 609.83 850 609.68 850 609.53C850 609.379 850 609.229 850 609.079C850 608.928 850 608.778 850 608.627C850 608.477 850 608.327 850 608.176C850 608.026 850 607.875 850 607.725C850 607.575 850 607.424 850 607.274C850 607.123 850 606.973 850 606.823C850 606.672 850 606.522 850 606.371C850 606.221 850 606.07 850 605.92C850 605.77 850 605.619 850 605.469C850 605.318 850 605.168 850 605.018C850 604.867 850 604.717 850 604.566C850 604.416 850 604.266 850 604.115C850 603.965 850 603.814 850 603.664C850 603.514 850 603.363 850 603.213C850 603.062 850 602.912 850 602.762C850 602.611 850 602.461 850 602.311C850 602.16 850 602.01 850 601.86C850 601.709 850 601.559 850 601.409C850 601.258 850 601.108 850 600.958C850 600.807 850 600.657 850 600.507C850 600.356 850 600.206 850 600.056C850 599.906 850 599.755 850 599.605C850 599.455 850 599.305 850 599.154C850 599.004 850 598.854 850 598.704C850 598.553 850 598.403 850 598.253C850 598.103 850 597.953 850 597.802C850 597.652 850 597.502 850 597.352C850 597.202 850 597.052 850 596.902C850 596.752 850 596.601 850 596.451C850 596.301 850 596.151 850 596.001C850 595.851 850 595.701 850 595.551C850 595.401 850 595.251 850 595.101C850 594.951 850 594.801 850 594.651C850 594.501 850 594.351 850 594.201C850 594.051 850 593.902 850 593.752C850 593.602 850 593.452 850 593.302C850 593.152 850 593.003 850 592.853C850 592.703 850 592.553 850 592.403C850 592.254 850 592.104 850 591.954C850 591.804 850 591.655 850 591.505C850 591.355 850 591.206 850 591.056C850 590.907 850 590.757 850 590.607C850 590.458 850 590.308 850 590.159C850 590.009 850 589.86 850 589.71C850 589.561 850 589.411 850 589.262C850 589.112 850 588.963 850 588.814C850 588.664 850 588.515 850 588.366C850 588.216 850 588.067 850 587.918C850 587.769 850 587.619 850 587.47C850 587.321 850 587.172 850 587.023C850 586.874 850 586.724 850 586.575C850 586.426 850 586.277 850 586.128C850 585.979 850 585.83 850 585.681C850 585.532 850 585.383 850 585.234C850 585.086 850 584.937 850 584.788C850 584.639 850 584.49 850 584.341C850 584.193 850 584.044 850 583.895C850 583.747 850 583.598 850 583.449C850 583.301 850 583.152 850 583.004C850 582.855 850 582.707 850 582.558C850 582.41 850 582.261 850 582.113C850 581.964 850 581.816 850 581.668C850 581.519 850 581.371 850 581.223C850 581.074 850 580.926 850 580.778C850 580.63 850 580.482 850 580.334C850 580.186 850 580.038 850 579.89C850 579.742 850 579.594 850 579.446C850 579.298 850 579.15 850 579.002C850 578.854 850 578.706 850 578.559C850 578.411 850 578.263 850 578.115C850 577.968 850 577.82 850 577.672C850 577.525 850 577.377 850 577.23C850 577.082 850 576.935 850 576.788C850 576.64 850 576.493 850 576.345C850 576.198 850 576.051 850 575.904C850 575.756 850 575.609 850 575.462C850 575.315 850 575.168 850 575.021C850 574.874 850 574.727 850 574.58C850 574.433 850 574.286 850 574.139C850 573.992 850 573.846 850 573.699C850 573.552 850 573.405 850 573.259C850 573.112 850 572.966 850 572.819C850 572.673 850 572.526 850 572.38C850 572.233 850 572.087 850 571.94C850 571.794 850 571.648 850 571.502C850 571.355 850 571.209 850 571.063C850 570.917 850 570.771 850 570.625C850 570.479 850 570.333 850 570.187C850 570.041 850 569.896 850 569.75C850 569.604 850 569.458 850 569.313C850 569.167 850 569.021 850 568.876C850 568.73 850 568.585 850 568.439C850 568.294 850 568.149 850 568.003C850 567.858 850 567.713 850 567.568C850 567.422 850 567.277 850 567.132C850 566.987 850 566.842 850 566.697C850 566.552 850 566.407 850 566.262C850 566.118 850 565.973 850 565.828C850 565.683 850 565.539 850 565.394C850 565.25 850 565.105 850 564.961C850 564.816 850 564.672 850 564.528C850 564.383 850 564.239 850 564.095C850 563.951 850 563.807 850 563.663C850 563.518 850 563.375 850 563.231C850 563.087 850 562.943 850 562.799C850 562.655 850 562.512 850 562.368C850 562.224 850 562.081 850 561.937C850 561.794 850 561.65 850 561.507C850 561.364 850 561.22 850 561.077C850 560.934 850 560.791 850 560.648C850 560.504 850 560.361 850 560.218C850 560.076 850 559.933 850 559.79C850 559.647 850 559.504 850 559.362C850 559.219 850 559.076 850 558.934C850 558.791 850 558.649 850 558.507C850 558.364 850 558.222 850 558.08C850 557.938 850 557.796 850 557.653C850 557.511 850 557.369 850 557.228C850 557.086 850 556.944 850 556.802C850 556.66 850 556.519 850 556.377C850 556.235 850 556.094 850 555.953C850 555.811 850 555.67 850 555.528C850 555.387 850 555.246 850 555.105C850 554.964 850 554.823 850 554.682C850 554.541 850 554.4 850 554.259C850 554.118 850 553.978 850 553.837C850 553.696 850 553.556 850 553.415C850 553.275 850 553.135 850 552.994C850 552.854 850 552.714 850 552.574C850 552.433 850 552.293 850 552.153C850 552.014 850 551.874 850 551.734C850 551.594 850 551.454 850 551.315C850 551.175 850 551.036 850 550.896C850 550.757 850 550.617 850 550.478C850 550.339 850 550.2 850 550.061C850 549.921 850 549.782 850 549.644C850 549.505 850 549.366 850 549.227C850 549.088 850 548.95 850 548.811C850 548.673 850 548.534 850 548.396C850 548.257 850 548.119 850 547.981C850 547.843 850 547.705 850 547.567C850 547.429 850 547.291 850 547.153C850 547.015 850 546.877 850 546.74C850 546.602 850 546.465 850 546.327C850 546.19 850 546.052 850 545.915C850 545.778 850 545.641 850 545.504C850 545.367 850 545.23 850 545.093C850 544.956 850 544.819 850 544.682C850 544.546 850 544.409 850 544.273C850 544.136 850 544 850 543.864C850 543.727 850 543.591 850 543.455C850 543.319 850 543.183 850 543.047C850 542.911 850 542.776 850 542.64C850 542.504 850 542.369 850 542.233C850 542.098 850 541.962 850 541.827C850 541.692 850 541.557 850 541.422C850 541.286 850 541.151 850 541.017C850 540.882 850 540.747 850 540.612C850 540.478 850 540.343 850 540.209C850 540.074 850 539.94 850 539.806C850 539.672 850 539.537 850 539.403C850 539.269 850 539.135 850 539.002C850 538.868 850 538.734 850 538.601C850 538.467 850 538.334 850 538.2C850 538.067 850 537.934 850 537.8C850 537.667 850 537.534 850 537.401C850 537.268 850 537.135 850 537.003C850 536.87 850 536.737 850 536.605C850 536.472 850 536.34 850 536.208C850 536.076 850 535.943 850 535.811C850 535.679 850 535.547 850 535.416C850 535.284 850 535.152 850 535.021C850 534.889 850 534.757 850 534.626C850 534.495 850 534.363 850 534.232C850 534.101 850 533.97 850 533.839C850 533.708 850 533.578 850 533.447C850 533.316 850 533.186 850 533.055C850 532.925 850 532.795 850 532.664C850 532.534 850 532.404 850 532.274C850 532.144 850 532.014 850 531.885C850 531.755 850 531.625 850 531.496C850 531.366 850 531.237 850 531.108C850 530.979 850 530.85 850 530.721C850 530.592 850 530.463 850 530.334C850 530.205 850 530.077 850 529.948C850 529.82 850 529.691 850 529.563C850 529.435 850 529.307 850 529.179C850 529.051 850 528.923 850 528.795C850 528.667 850 528.54 850 528.412C850 528.285 850 528.157 850 528.03C850 527.903 850 527.776 850 527.648C850 527.522 850 527.395 850 527.268C850 527.141 850 527.015 850 526.888C850 526.762 850 526.635 850 526.509C850 526.383 850 526.257 850 526.131C850 526.005 850 525.879 850 525.753C850 525.628 850 525.502 850 525.376C850 525.251 850 525.126 850 525.001C850 524.875 850 524.75 850 524.625C850 524.5 850 524.376 850 524.251C850 524.126 850 524.002 850 523.878C850 523.753 850 523.629 850 523.505C850 523.381 850 523.257 850 523.133C850 523.009 850 522.885 850 522.762C850 522.638 850 522.515 850 522.391C850 522.268 850 522.145 850 522.022C850 521.899 850 521.776 850 521.653C850 521.531 850 521.408 850 521.286C850 521.163 850 521.041 850 520.919C850 520.796 850 520.674 850 520.552C850 520.431 850 520.309 850 520.187C850 520.065 850 519.944 850 519.823C850 519.701 850 519.58 850 519.459C850 519.338 850 519.217 850 519.096C850 518.976 850 518.855 850 518.734C850 518.614 850 518.494 850 518.373C850 518.253 850 518.133 850 518.013C850 517.893 850 517.774 850 517.654C850 517.534 850 517.415 850 517.296C850 517.176 850 517.057 850 516.938C850 516.819 850 516.7 850 516.581C850 516.463 850 516.344 850 516.226C850 516.107 850 515.989 850 515.871C850 515.753 850 515.635 850 515.517C850 515.399 850 515.281 850 515.164C850 515.046 850 514.929 850 514.812C850 514.694 850 514.577 850 514.46C850 514.344 850 514.227 850 514.11C850 513.993 850 513.877 850 513.761C850 513.644 850 513.528 850 513.412C850 513.296 850 513.18 850 513.065C850 512.949 850 512.833 850 512.718C850 512.603 850 512.487 850 512.372C850 512.257 850 512.142 850 512.028C850 511.913 850 511.798 850 511.684C850 511.569 850 511.455 850 511.341C850 511.227 850 511.113 850 510.999C850 510.885 850 510.772 850 510.658C850 510.545 850 510.431 850 510.318C850 510.205 850 510.092 850 509.979C850 509.866 850 509.753 850 509.641C850 509.528 850 509.416 850 509.304C850 509.192 850 509.08 850 508.968C850 508.856 850 508.744 850 508.633C850 508.521 850 508.41 850 508.298C850 508.187 850 508.076 850 507.965C850 507.854 850 507.744 850 507.633C850 507.523 850 507.412 850 507.302C850 507.192 850 507.082 850 506.972C850 506.862 850 506.752 850 506.643C850 506.533 850 506.424 850 506.314C850 506.205 850 506.096 850 505.987C850 505.878 850 505.77 850 505.661C850 505.553 850 505.444 850 505.336C850 505.228 850 505.12 850 505.012C850 504.904 850 504.796 850 504.689C850 504.581 850 504.474 850 504.367C850 504.26 850 504.153 850 504.046C850 503.939 850 503.833 850 503.726C850 503.62 850 503.513 850 503.407C850 503.301 850 503.195 850 503.089C850 502.984 850 502.878 850 502.773C850 502.667 850 502.562 850 502.457C850 502.352 850 502.247 850 502.142C850 502.037 850 501.933 850 501.829C850 501.724 850 501.62 850 501.516C850 501.412 850 501.308 850 501.205C850 501.101 850 500.998 850 500.894C850 500.791 850 500.688 850 500.585C850 500.482 850 500.379 850 500.277C850 500.174 850 500.072 850 499.97C850 499.868 850 499.766 850 499.664C850 499.562 850 499.46 850 499.359C850 499.257 850 499.156 850 499.055C850 498.954 850 498.853 850 498.752C850 498.652 850 498.551 850 498.451C850 498.35 850 498.25 850 498.15C850 498.05 850 497.951 850 497.851C850 497.751 850 497.652 850 497.553C850 497.454 850 497.355 850 497.256C850 497.157 850 497.058 850 496.96C850 496.861 850 496.763 850 496.665C850 496.567 850 496.469 850 496.371C850 496.274 850 496.176 850 496.079C850 495.982 850 495.884 850 495.787C850 495.691 850 495.594 850 495.497C850 495.401 850 495.304 850 495.208C850 495.112 850 495.016 850 494.92C850 494.825 850 494.729 850 494.634C850 494.538 850 494.443 850 494.348C850 494.253 850 494.158 850 494.064C850 493.969 850 493.875 850 493.781C850 493.686 850 493.592 850 493.499C850 493.405 850 493.311 850 493.218C850 493.124 850 493.031 850 492.938C850 492.845 850 492.752 850 492.66C850 492.567 850 492.475 850 492.382C850 492.29 850 492.198 850 492.106C850 492.015 850 491.923 850 491.832C850 491.74 850 491.649 850 491.558C850 491.467 850 491.376 850 491.286C850 491.195 850 491.105 850 491.014C850 490.924 850 490.834 850 490.745C850 490.655 850 490.565 850 490.476C850 490.386 850 490.297 850 490.208C850 490.119 850 490.031 850 489.942C850 489.854 850 489.765 850 489.677C850 489.589 850 489.501 850 489.413C850 489.326 850 489.238 850 489.151C850 489.064 850 488.977 850 488.89C850 488.803 850 488.716 850 488.63C850 488.543 850 488.457 850 488.371C850 488.285 850 488.199 850 488.114C850 488.028 850 487.943 850 487.857C850 487.772 850 487.687 850 487.602C850 487.518 850 487.433 850 487.349C850 487.265 850 487.18 850 487.097C850 487.013 850 486.929 850 486.845C850 486.762 850 486.679 850 486.596C850 486.513 850 486.43 850 486.347C850 486.265 850 486.182 850 486.1C850 486.018 850 485.936 850 485.854C850 485.772 850 485.691 850 485.61C850 485.528 850 485.447 850 485.366C850 485.286 850 485.205 850 485.125C850 485.044 850 484.964 850 484.884C850 484.804 850 484.724 850 484.645C850 484.565 850 484.486 850 484.407C850 484.328 850 484.249 850 484.17C850 484.091 850 484.013 850 483.935C850 483.857 850 483.779 850 483.701C850 483.623 850 483.546 850 483.468C850 483.391 850 483.314 850 483.237C850 483.16 850 483.084 850 483.007C850 482.931 850 482.855 850 482.779C850 482.703 850 482.627 850 482.552C850 482.476 850 482.401 850 482.326C850 482.251 850 482.176 850 482.101C850 482.027 850 481.952 850 481.878C850 481.804 850 481.73 850 481.657C850 481.583 850 481.51 850 481.436C850 481.363 850 481.29 850 481.218C850 481.145 850 481.072 850 481H842C842 481.072 842 481.145 842 481.218C842 481.29 842 481.363 842 481.436C842 481.51 842 481.583 842 481.657C842 481.73 842 481.804 842 481.878C842 481.952 842 482.027 842 482.101C842 482.176 842 482.251 842 482.326C842 482.401 842 482.476 842 482.552C842 482.627 842 482.703 842 482.779C842 482.855 842 482.931 842 483.007C842 483.084 842 483.16 842 483.237C842 483.314 842 483.391 842 483.468C842 483.546 842 483.623 842 483.701C842 483.779 842 483.857 842 483.935C842 484.013 842 484.091 842 484.17C842 484.249 842 484.328 842 484.407C842 484.486 842 484.565 842 484.645C842 484.724 842 484.804 842 484.884C842 484.964 842 485.044 842 485.125C842 485.205 842 485.286 842 485.366C842 485.447 842 485.528 842 485.61C842 485.691 842 485.772 842 485.854C842 485.936 842 486.018 842 486.1C842 486.182 842 486.265 842 486.347C842 486.43 842 486.513 842 486.596C842 486.679 842 486.762 842 486.845C842 486.929 842 487.013 842 487.097C842 487.18 842 487.265 842 487.349C842 487.433 842 487.518 842 487.602C842 487.687 842 487.772 842 487.857C842 487.943 842 488.028 842 488.114C842 488.199 842 488.285 842 488.371C842 488.457 842 488.543 842 488.63C842 488.716 842 488.803 842 488.89C842 488.977 842 489.064 842 489.151C842 489.238 842 489.326 842 489.413C842 489.501 842 489.589 842 489.677C842 489.765 842 489.854 842 489.942C842 490.031 842 490.119 842 490.208C842 490.297 842 490.386 842 490.476C842 490.565 842 490.655 842 490.745C842 490.834 842 490.924 842 491.014C842 491.105 842 491.195 842 491.286C842 491.376 842 491.467 842 491.558C842 491.649 842 491.74 842 491.832C842 491.923 842 492.015 842 492.106C842 492.198 842 492.29 842 492.382C842 492.475 842 492.567 842 492.66C842 492.752 842 492.845 842 492.938C842 493.031 842 493.124 842 493.218C842 493.311 842 493.405 842 493.499C842 493.592 842 493.686 842 493.781C842 493.875 842 493.969 842 494.064C842 494.158 842 494.253 842 494.348C842 494.443 842 494.538 842 494.634C842 494.729 842 494.825 842 494.92C842 495.016 842 495.112 842 495.208C842 495.304 842 495.401 842 495.497C842 495.594 842 495.691 842 495.787C842 495.884 842 495.982 842 496.079C842 496.176 842 496.274 842 496.371C842 496.469 842 496.567 842 496.665C842 496.763 842 496.861 842 496.96C842 497.058 842 497.157 842 497.256C842 497.355 842 497.454 842 497.553C842 497.652 842 497.751 842 497.851C842 497.951 842 498.05 842 498.15C842 498.25 842 498.35 842 498.451C842 498.551 842 498.652 842 498.752C842 498.853 842 498.954 842 499.055C842 499.156 842 499.257 842 499.359C842 499.46 842 499.562 842 499.664C842 499.766 842 499.868 842 499.97C842 500.072 842 500.174 842 500.277C842 500.379 842 500.482 842 500.585C842 500.688 842 500.791 842 500.894C842 500.998 842 501.101 842 501.205C842 501.308 842 501.412 842 501.516C842 501.62 842 501.724 842 501.829C842 501.933 842 502.037 842 502.142C842 502.247 842 502.352 842 502.457C842 502.562 842 502.667 842 502.773C842 502.878 842 502.984 842 503.089C842 503.195 842 503.301 842 503.407C842 503.513 842 503.62 842 503.726C842 503.833 842 503.939 842 504.046C842 504.153 842 504.26 842 504.367C842 504.474 842 504.581 842 504.689C842 504.796 842 504.904 842 505.012C842 505.12 842 505.228 842 505.336C842 505.444 842 505.553 842 505.661C842 505.77 842 505.878 842 505.987C842 506.096 842 506.205 842 506.314C842 506.424 842 506.533 842 506.643C842 506.752 842 506.862 842 506.972C842 507.082 842 507.192 842 507.302C842 507.412 842 507.523 842 507.633C842 507.744 842 507.854 842 507.965C842 508.076 842 508.187 842 508.298C842 508.41 842 508.521 842 508.633C842 508.744 842 508.856 842 508.968C842 509.08 842 509.192 842 509.304C842 509.416 842 509.528 842 509.641C842 509.753 842 509.866 842 509.979C842 510.092 842 510.205 842 510.318C842 510.431 842 510.545 842 510.658C842 510.772 842 510.885 842 510.999C842 511.113 842 511.227 842 511.341C842 511.455 842 511.569 842 511.684C842 511.798 842 511.913 842 512.028C842 512.142 842 512.257 842 512.372C842 512.487 842 512.603 842 512.718C842 512.833 842 512.949 842 513.065C842 513.18 842 513.296 842 513.412C842 513.528 842 513.644 842 513.761C842 513.877 842 513.993 842 514.11C842 514.227 842 514.344 842 514.46C842 514.577 842 514.694 842 514.812C842 514.929 842 515.046 842 515.164C842 515.281 842 515.399 842 515.517C842 515.635 842 515.753 842 515.871C842 515.989 842 516.107 842 516.226C842 516.344 842 516.463 842 516.581C842 516.7 842 516.819 842 516.938C842 517.057 842 517.176 842 517.296C842 517.415 842 517.534 842 517.654C842 517.774 842 517.893 842 518.013C842 518.133 842 518.253 842 518.373C842 518.494 842 518.614 842 518.734C842 518.855 842 518.976 842 519.096C842 519.217 842 519.338 842 519.459C842 519.58 842 519.701 842 519.823C842 519.944 842 520.065 842 520.187C842 520.309 842 520.431 842 520.552C842 520.674 842 520.796 842 520.919C842 521.041 842 521.163 842 521.286C842 521.408 842 521.531 842 521.653C842 521.776 842 521.899 842 522.022C842 522.145 842 522.268 842 522.391C842 522.515 842 522.638 842 522.762C842 522.885 842 523.009 842 523.133C842 523.257 842 523.381 842 523.505C842 523.629 842 523.753 842 523.878C842 524.002 842 524.126 842 524.251C842 524.376 842 524.5 842 524.625C842 524.75 842 524.875 842 525.001C842 525.126 842 525.251 842 525.376C842 525.502 842 525.628 842 525.753C842 525.879 842 526.005 842 526.131C842 526.257 842 526.383 842 526.509C842 526.635 842 526.762 842 526.888C842 527.015 842 527.141 842 527.268C842 527.395 842 527.522 842 527.648C842 527.776 842 527.903 842 528.03C842 528.157 842 528.285 842 528.412C842 528.54 842 528.667 842 528.795C842 528.923 842 529.051 842 529.179C842 529.307 842 529.435 842 529.563C842 529.691 842 529.82 842 529.948C842 530.077 842 530.205 842 530.334C842 530.463 842 530.592 842 530.721C842 530.85 842 530.979 842 531.108C842 531.237 842 531.366 842 531.496C842 531.625 842 531.755 842 531.885C842 532.014 842 532.144 842 532.274C842 532.404 842 532.534 842 532.664C842 532.795 842 532.925 842 533.055C842 533.186 842 533.316 842 533.447C842 533.578 842 533.708 842 533.839C842 533.97 842 534.101 842 534.232C842 534.363 842 534.495 842 534.626C842 534.757 842 534.889 842 535.021C842 535.152 842 535.284 842 535.416C842 535.547 842 535.679 842 535.811C842 535.943 842 536.076 842 536.208C842 536.34 842 536.472 842 536.605C842 536.737 842 536.87 842 537.003C842 537.135 842 537.268 842 537.401C842 537.534 842 537.667 842 537.8C842 537.934 842 538.067 842 538.2C842 538.334 842 538.467 842 538.601C842 538.734 842 538.868 842 539.002C842 539.135 842 539.269 842 539.403C842 539.537 842 539.672 842 539.806C842 539.94 842 540.074 842 540.209C842 540.343 842 540.478 842 540.612C842 540.747 842 540.882 842 541.017C842 541.151 842 541.286 842 541.422C842 541.557 842 541.692 842 541.827C842 541.962 842 542.098 842 542.233C842 542.369 842 542.504 842 542.64C842 542.776 842 542.911 842 543.047C842 543.183 842 543.319 842 543.455C842 543.591 842 543.727 842 543.864C842 544 842 544.136 842 544.273C842 544.409 842 544.546 842 544.682C842 544.819 842 544.956 842 545.093C842 545.23 842 545.367 842 545.504C842 545.641 842 545.778 842 545.915C842 546.052 842 546.19 842 546.327C842 546.465 842 546.602 842 546.74C842 546.877 842 547.015 842 547.153C842 547.291 842 547.429 842 547.567C842 547.705 842 547.843 842 547.981C842 548.119 842 548.257 842 548.396C842 548.534 842 548.673 842 548.811C842 548.95 842 549.088 842 549.227C842 549.366 842 549.505 842 549.644C842 549.782 842 549.921 842 550.061C842 550.2 842 550.339 842 550.478C842 550.617 842 550.757 842 550.896C842 551.036 842 551.175 842 551.315C842 551.454 842 551.594 842 551.734C842 551.874 842 552.014 842 552.153C842 552.293 842 552.433 842 552.574C842 552.714 842 552.854 842 552.994C842 553.135 842 553.275 842 553.415C842 553.556 842 553.696 842 553.837C842 553.978 842 554.118 842 554.259C842 554.4 842 554.541 842 554.682C842 554.823 842 554.964 842 555.105C842 555.246 842 555.387 842 555.528C842 555.67 842 555.811 842 555.953C842 556.094 842 556.235 842 556.377C842 556.519 842 556.66 842 556.802C842 556.944 842 557.086 842 557.228C842 557.369 842 557.511 842 557.653C842 557.796 842 557.938 842 558.08C842 558.222 842 558.364 842 558.507C842 558.649 842 558.791 842 558.934C842 559.076 842 559.219 842 559.362C842 559.504 842 559.647 842 559.79C842 559.933 842 560.076 842 560.218C842 560.361 842 560.504 842 560.648C842 560.791 842 560.934 842 561.077C842 561.22 842 561.364 842 561.507C842 561.65 842 561.794 842 561.937C842 562.081 842 562.224 842 562.368C842 562.512 842 562.655 842 562.799C842 562.943 842 563.087 842 563.231C842 563.375 842 563.518 842 563.663C842 563.807 842 563.951 842 564.095C842 564.239 842 564.383 842 564.528C842 564.672 842 564.816 842 564.961C842 565.105 842 565.25 842 565.394C842 565.539 842 565.683 842 565.828C842 565.973 842 566.118 842 566.262C842 566.407 842 566.552 842 566.697C842 566.842 842 566.987 842 567.132C842 567.277 842 567.422 842 567.568C842 567.713 842 567.858 842 568.003C842 568.149 842 568.294 842 568.439C842 568.585 842 568.73 842 568.876C842 569.021 842 569.167 842 569.313C842 569.458 842 569.604 842 569.75C842 569.896 842 570.041 842 570.187C842 570.333 842 570.479 842 570.625C842 570.771 842 570.917 842 571.063C842 571.209 842 571.355 842 571.502C842 571.648 842 571.794 842 571.94C842 572.087 842 572.233 842 572.38C842 572.526 842 572.673 842 572.819C842 572.966 842 573.112 842 573.259C842 573.405 842 573.552 842 573.699C842 573.846 842 573.992 842 574.139C842 574.286 842 574.433 842 574.58C842 574.727 842 574.874 842 575.021C842 575.168 842 575.315 842 575.462C842 575.609 842 575.756 842 575.904C842 576.051 842 576.198 842 576.345C842 576.493 842 576.64 842 576.788C842 576.935 842 577.082 842 577.23C842 577.377 842 577.525 842 577.672C842 577.82 842 577.968 842 578.115C842 578.263 842 578.411 842 578.559C842 578.706 842 578.854 842 579.002C842 579.15 842 579.298 842 579.446C842 579.594 842 579.742 842 579.89C842 580.038 842 580.186 842 580.334C842 580.482 842 580.63 842 580.778C842 580.926 842 581.074 842 581.223C842 581.371 842 581.519 842 581.668C842 581.816 842 581.964 842 582.113C842 582.261 842 582.41 842 582.558C842 582.707 842 582.855 842 583.004C842 583.152 842 583.301 842 583.449C842 583.598 842 583.747 842 583.895C842 584.044 842 584.193 842 584.341C842 584.49 842 584.639 842 584.788C842 584.937 842 585.086 842 585.234C842 585.383 842 585.532 842 585.681C842 585.83 842 585.979 842 586.128C842 586.277 842 586.426 842 586.575C842 586.724 842 586.874 842 587.023C842 587.172 842 587.321 842 587.47C842 587.619 842 587.769 842 587.918C842 588.067 842 588.216 842 588.366C842 588.515 842 588.664 842 588.814C842 588.963 842 589.112 842 589.262C842 589.411 842 589.561 842 589.71C842 589.86 842 590.009 842 590.159C842 590.308 842 590.458 842 590.607C842 590.757 842 590.907 842 591.056C842 591.206 842 591.355 842 591.505C842 591.655 842 591.804 842 591.954C842 592.104 842 592.254 842 592.403C842 592.553 842 592.703 842 592.853C842 593.003 842 593.152 842 593.302C842 593.452 842 593.602 842 593.752C842 593.902 842 594.051 842 594.201C842 594.351 842 594.501 842 594.651C842 594.801 842 594.951 842 595.101C842 595.251 842 595.401 842 595.551C842 595.701 842 595.851 842 596.001C842 596.151 842 596.301 842 596.451C842 596.601 842 596.752 842 596.902C842 597.052 842 597.202 842 597.352C842 597.502 842 597.652 842 597.802C842 597.953 842 598.103 842 598.253C842 598.403 842 598.553 842 598.704C842 598.854 842 599.004 842 599.154C842 599.305 842 599.455 842 599.605C842 599.755 842 599.906 842 600.056C842 600.206 842 600.356 842 600.507C842 600.657 842 600.807 842 600.958C842 601.108 842 601.258 842 601.409C842 601.559 842 601.709 842 601.86C842 602.01 842 602.16 842 602.311C842 602.461 842 602.611 842 602.762C842 602.912 842 603.062 842 603.213C842 603.363 842 603.514 842 603.664C842 603.814 842 603.965 842 604.115C842 604.266 842 604.416 842 604.566C842 604.717 842 604.867 842 605.018C842 605.168 842 605.318 842 605.469C842 605.619 842 605.77 842 605.92C842 606.07 842 606.221 842 606.371C842 606.522 842 606.672 842 606.823C842 606.973 842 607.123 842 607.274C842 607.424 842 607.575 842 607.725C842 607.875 842 608.026 842 608.176C842 608.327 842 608.477 842 608.627C842 608.778 842 608.928 842 609.079C842 609.229 842 609.379 842 609.53C842 609.68 842 609.83 842 609.981C842 610.131 842 610.282 842 610.432C842 610.582 842 610.733 842 610.883C842 611.033 842 611.184 842 611.334C842 611.484 842 611.635 842 611.785C842 611.935 842 612.086 842 612.236C842 612.386 842 612.536 842 612.687C842 612.837 842 612.987 842 613.137C842 613.288 842 613.438 842 613.588C842 613.738 842 613.889 842 614.039C842 614.189 842 614.339 842 614.489C842 614.64 842 614.79 842 614.94C842 615.09 842 615.24 842 615.39C842 615.54 842 615.691 842 615.841C842 615.991 842 616.141 842 616.291C842 616.441 842 616.591 842 616.741C842 616.891 842 617.041 842 617.191C842 617.341 842 617.491 842 617.641C842 617.791 842 617.941 842 618.091C842 618.241 842 618.391 842 618.541C842 618.691 842 618.841 842 618.99C842 619.14 842 619.29 842 619.44C842 619.59 842 619.74 842 619.889C842 620.039 842 620.189 842 620.339C842 620.488 842 620.638 842 620.788C842 620.937 842 621.087 842 621.237C842 621.386 842 621.536 842 621.686C842 621.835 842 621.985 842 622.134C842 622.284 842 622.433 842 622.583C842 622.732 842 622.882 842 623.031C842 623.181 842 623.33 842 623.48C842 623.629 842 623.779 842 623.928C842 624.077 842 624.227 842 624.376C842 624.525 842 624.674 842 624.824C842 624.973 842 625.122 842 625.271C842 625.42 842 625.57 842 625.719C842 625.868 842 626.017 842 626.166C842 626.315 842 626.464 842 626.613C842 626.762 842 626.911 842 627.06C842 627.209 842 627.358 842 627.507C842 627.656 842 627.804 842 627.953C842 628.102 842 628.251 842 628.399C842 628.548 842 628.697 842 628.846C842 628.994 842 629.143 842 629.291C842 629.44 842 629.589 842 629.737C842 629.886 842 630.034 842 630.183C842 630.331 842 630.479 842 630.628C842 630.776 842 630.925 842 631.073C842 631.221 842 631.369 842 631.518C842 631.666 842 631.814 842 631.962C842 632.11 842 632.258 842 632.407C842 632.555 842 632.703 842 632.851C842 632.999 842 633.147 842 633.294C842 633.442 842 633.59 842 633.738C842 633.886 842 634.034 842 634.181C842 634.329 842 634.477 842 634.624C842 634.772 842 634.92 842 635.067C842 635.215 842 635.362 842 635.51C842 635.657 842 635.805 842 635.952C842 636.099 842 636.247 842 636.394C842 636.541 842 636.689 842 636.836C842 636.983 842 637.13 842 637.277C842 637.424 842 637.571 842 637.718C842 637.865 842 638.012 842 638.159C842 638.306 842 638.453 842 638.6C842 638.747 842 638.893 842 639.04C842 639.187 842 639.333 842 639.48C842 639.627 842 639.773 842 639.92C842 640.066 842 640.213 842 640.359C842 640.505 842 640.652 842 640.798C842 640.944 842 641.09 842 641.237C842 641.383 842 641.529 842 641.675C842 641.821 842 641.967 842 642.113C842 642.259 842 642.405 842 642.551C842 642.697 842 642.842 842 642.988C842 643.134 842 643.28 842 643.425C842 643.571 842 643.716 842 643.862C842 644.007 842 644.153 842 644.298C842 644.444 842 644.589 842 644.734C842 644.879 842 645.025 842 645.17C842 645.315 842 645.46 842 645.605C842 645.75 842 645.895 842 646.04C842 646.185 842 646.33 842 646.474C842 646.619 842 646.764 842 646.909C842 647.053 842 647.198 842 647.342C842 647.487 842 647.631 842 647.776C842 647.92 842 648.064 842 648.209C842 648.353 842 648.497 842 648.641C842 648.785 842 648.93 842 649.074C842 649.218 842 649.361 842 649.505C842 649.649 842 649.793 842 649.937C842 650.08 842 650.224 842 650.368C842 650.511 842 650.655 842 650.798C842 650.942 842 651.085 842 651.228C842 651.372 842 651.515 842 651.658C842 651.801 842 651.945 842 652.088C842 652.231 842 652.374 842 652.516C842 652.659 842 652.802 842 652.945C842 653.088 842 653.23 842 653.373C842 653.516 842 653.658 842 653.8C842 653.943 842 654.085 842 654.228C842 654.37 842 654.512 842 654.654C842 654.797 842 654.939 842 655.081C842 655.223 842 655.365 842 655.506C842 655.648 842 655.79 842 655.932C842 656.073 842 656.215 842 656.357C842 656.498 842 656.639 842 656.781C842 656.922 842 657.064 842 657.205C842 657.346 842 657.487 842 657.628C842 657.769 842 657.91 842 658.051C842 658.192 842 658.333 842 658.474C842 658.614 842 658.755 842 658.896C842 659.036 842 659.177 842 659.317C842 659.457 842 659.598 842 659.738C842 659.878 842 660.018 842 660.158C842 660.299 842 660.438 842 660.578C842 660.718 842 660.858 842 660.998C842 661.138 842 661.277 842 661.417C842 661.556 842 661.696 842 661.835C842 661.975 842 662.114 842 662.253C842 662.392 842 662.531 842 662.67C842 662.809 842 662.948 842 663.087C842 663.226 842 663.365 842 663.503C842 663.642 842 663.781 842 663.919C842 664.058 842 664.196 842 664.334C842 664.473 842 664.611 842 664.749C842 664.887 842 665.025 842 665.163C842 665.301 842 665.439 842 665.577C842 665.714 842 665.852 842 665.99C842 666.127 842 666.265 842 666.402C842 666.539 842 666.677 842 666.814C842 666.951 842 667.088 842 667.225C842 667.362 842 667.499 842 667.636C842 667.773 842 667.909 842 668.046C842 668.183 842 668.319 842 668.455C842 668.592 842 668.728 842 668.864C842 669.001 842 669.137 842 669.273C842 669.409 842 669.545 842 669.68C842 669.816 842 669.952 842 670.088C842 670.223 842 670.359 842 670.494C842 670.629 842 670.765 842 670.9C842 671.035 842 671.17 842 671.305C842 671.44 842 671.575 842 671.71C842 671.845 842 671.979 842 672.114C842 672.249 842 672.383 842 672.517C842 672.652 842 672.786 842 672.92C842 673.054 842 673.188 842 673.322C842 673.456 842 673.59 842 673.724C842 673.858 842 673.991 842 674.125C842 674.258 842 674.392 842 674.525C842 674.658 842 674.791 842 674.924C842 675.058 842 675.19 842 675.323C842 675.456 842 675.589 842 675.722C842 675.854 842 675.987 842 676.119C842 676.252 842 676.384 842 676.516C842 676.648 842 676.78 842 676.912C842 677.044 842 677.176 842 677.308C842 677.44 842 677.571 842 677.703C842 677.834 842 677.966 842 678.097C842 678.228 842 678.359 842 678.49C842 678.621 842 678.752 842 678.883C842 679.014 842 679.145 842 679.275C842 679.406 842 679.536 842 679.667C842 679.797 842 679.927 842 680.057C842 680.187 842 680.317 842 680.447C842 680.577 842 680.707 842 680.837C842 680.966 842 681.096 842 681.225C842 681.354 842 681.484 842 681.613C842 681.742 842 681.871 842 682H850ZM850 481C850 417.816 834.304 303.059 773.518 211.721C743.077 165.981 701.279 126.047 644.453 101.508C587.624 76.9665 516.065 67.9505 426.315 83.5592L427.686 91.4409C516.186 76.0495 586.126 85.0336 641.282 108.852C696.44 132.672 737.111 171.456 766.858 216.154C826.447 305.691 842 418.685 842 481H850ZM426.315 83.5592C282.245 108.615 214.323 191.22 182.64 274.286C151.076 357.039 155.502 440.201 155.502 466.5H163.502C163.502 439.799 159.179 358.243 190.114 277.137C220.93 196.345 286.757 115.95 427.686 91.4409L426.315 83.5592ZM155.502 466.5C155.502 489.078 152.989 518.278 150.948 549.788C148.915 581.165 147.367 614.67 149.385 645.387C151.398 676.019 156.981 704.394 169.579 725.212C182.367 746.344 202.294 759.5 232.001 759.5V751.5C205.207 751.5 187.822 739.906 176.423 721.07C164.834 701.919 159.355 675.106 157.368 644.863C155.386 614.705 156.901 581.647 158.931 550.306C160.953 519.098 163.502 489.422 163.502 466.5H155.502Z" fill="#090909"/>
<g filter="url(#filter0_d_1254_30817)">
<path d="M671 230.397C539.97 144.774 359.572 169.276 315.755 186.13C294.793 189.895 231.397 228 224 281.235C356.758 237.038 470.083 261.187 600.327 281.235C623.643 284.824 653.258 280.448 675.131 259.796C684.104 251.324 681.33 237.148 671 230.397Z" fill="#008026"/>
<path d="M316.286 189.083L316.566 189.032L316.832 188.93C338.245 180.694 393.865 170.372 460.562 172.833C527.201 175.292 604.46 190.499 669.359 232.909C678.444 238.845 680.322 250.769 673.071 257.615C652.052 277.461 623.463 281.761 600.783 278.27C589.478 276.529 578.294 274.757 567.206 272.999C452.284 254.784 347.778 238.219 227.806 276.832C232.697 253.274 248.822 232.796 266.745 217.407C276.277 209.223 286.225 202.561 295.057 197.723C303.948 192.853 311.51 189.94 316.286 189.083Z" stroke="black" stroke-width="6"/>
</g>
<path d="M598.218 277.235C650.283 277.235 659.725 273.386 678.166 248.926C681.072 245.071 679.81 239.535 675.574 237.218C647.111 221.646 617.167 204.867 586.389 195.304C577.67 192.596 568.853 199.121 562.264 205.441C533.2 233.318 431.415 230.951 312.766 251C376.383 251 561.059 271.629 598.218 277.235Z" fill="black" fill-opacity="0.25"/>
<path d="M626 682C626 642 687.503 588 687.503 385C737.105 159.4 534.502 92.6667 427 87.5C783.5 25.5 846 355.5 846 481V682C846 748 800 806.5 717.5 806.5C651.5 806.5 614.003 754 626 682Z" fill="black" fill-opacity="0.25"/>
<defs>
<filter id="filter0_d_1254_30817" x="219" y="169.463" width="464.531" height="123.903" filterUnits="userSpaceOnUse" color-interpolation-filters="sRGB">
<feFlood flood-opacity="0" result="BackgroundImageFix"/>
<feColorMatrix in="SourceAlpha" type="matrix" values="0 0 0 0 0 0 0 0 0 0 0 0 0 0 0 0 0 0 127 0" result="hardAlpha"/>
<feOffset dx="-1" dy="7"/>
<feGaussianBlur stdDeviation="2"/>
<feComposite in2="hardAlpha" operator="out"/>
<feColorMatrix type="matrix" values="0 0 0 0 0 0 0 0 0 0 0 0 0 0 0 0 0 0 0.25 0"/>
<feBlend mode="normal" in2="BackgroundImageFix" result="effect1_dropShadow_1254_30817"/>
<feBlend mode="normal" in="SourceGraphic" in2="effect1_dropShadow_1254_30817" result="shape"/>
</filter>
</defs>
</svg>
