<svg width="1000" height="1000" viewBox="0 0 1000 1000" fill="none" xmlns="http://www.w3.org/2000/svg">
<path d="M327.46 399.746L324.106 401.924L327.46 399.746C323.239 393.246 313.168 395.945 312.762 403.684L310.973 437.825L277.95 446.674C270.464 448.679 269.918 459.092 277.153 461.87L309.07 474.122L307.281 508.263C306.876 516.002 316.61 519.739 321.487 513.716L343.003 487.147L374.92 499.399C382.155 502.176 388.717 494.073 384.496 487.573L365.876 458.901L387.391 432.332C392.268 426.309 386.589 417.564 379.103 419.57L346.08 428.418L327.46 399.746Z" fill="#FF8C00" stroke="#090909" stroke-width="8"/>
<path d="M482.244 403.684L478.249 403.894L482.244 403.684C481.838 395.945 471.766 393.246 467.545 399.746L448.925 428.418L415.902 419.57C408.416 417.564 402.737 426.309 407.614 432.332L429.13 458.901L410.509 487.573C406.289 494.073 412.851 502.176 420.086 499.399L452.003 487.147L473.518 513.716C478.395 519.739 488.13 516.002 487.724 508.263L485.935 474.122L517.852 461.87C525.087 459.093 524.542 448.68 517.056 446.674L484.033 437.825L482.244 403.684Z" fill="#FF8C00" stroke="#090909" stroke-width="8"/>
</svg>
