<svg width="1008" height="1011" viewBox="0 0 1008 1011" fill="none" xmlns="http://www.w3.org/2000/svg">
<g filter="url(#filter0_d_692_111456)">
<path d="M346.222 493.845L346.109 493.879L345.998 493.92C343.824 494.711 341.577 495.774 339.656 496.684C338.796 497.092 338.001 497.468 337.307 497.775C334.777 498.895 332.825 499.5 330.943 499.5H330.902H330.861H330.821H330.78H330.739H330.698H330.657H330.616H330.575H330.535H330.494H330.453H330.412H330.372H330.331H330.29H330.249H330.209H330.168H330.127H330.087H330.046H330.005H329.965H329.924H329.883H329.843H329.802H329.762H329.721H329.68H329.64H329.599H329.559H329.518H329.478H329.437H329.397H329.356H329.316H329.275H329.235H329.195H329.154H329.114H329.074H329.033H328.993H328.953H328.912H328.872H328.832H328.791H328.751H328.711H328.671H328.631H328.59H328.55H328.51H328.47H328.43H328.39H328.35H328.31H328.269H328.229H328.189H328.149H328.109H328.069H328.029H327.989H327.95H327.91H327.87H327.83H327.79H327.75H327.71H327.671H327.631H327.591H327.551H327.512H327.472H327.432H327.392H327.353H327.313H327.273H327.234H327.194H327.155H327.115H327.076H327.036H326.997H326.957H326.918H326.878H326.839H326.799H326.76H326.721H326.681H326.642H326.603H326.563H326.524H326.485H326.446H326.406H326.367H326.328H326.289H326.25H326.211H326.172H326.133H326.094H326.055H326.016H325.977H325.938H325.899H325.86H325.821H325.782H325.743H325.704H325.666H325.627H325.588H325.549H325.511H325.472H325.433H325.395H325.356H325.318H325.279H325.24H325.202H325.163H325.125H325.086H325.048H325.01H324.971H324.933H324.895H324.856H324.818H324.78H324.742H324.703H324.665H324.627H324.589H324.551H324.513H324.475H324.437H324.399H324.361H324.323H324.285H324.247H324.209H324.171H324.133H324.095H324.058H324.02H323.982H323.944H323.907H323.869H323.832H323.794H323.756H323.719H323.681H323.644H323.606H323.569H323.532H323.494H323.457H323.42H323.382H323.345H323.308H323.271H323.233H323.196H323.159H323.122H323.085H323.048H323.011H322.974H322.937H322.9H322.863H322.826H322.79H322.753H322.716H322.679H322.642H322.606H322.569H322.533H322.496H322.459H322.423H322.386H322.35H322.313H322.277H322.241H322.204H322.168H322.132H322.095H322.059H322.023H321.987H321.951H321.915H321.879H321.843H321.807H321.771H321.735H321.699H321.663H321.627H321.591H321.556H321.52H321.484H321.448H321.413H321.377H321.342H321.306H321.271H321.235H321.2H321.164H321.129H321.094H321.058H321.023H320.988H320.953H320.917H320.882H320.847H320.812H320.777H320.742H320.707H320.672H320.637H320.602H320.568H320.533H320.498H320.463H320.429H320.394H320.359H320.325H320.29H320.256H320.221H320.187H320.153H320.118H320.084H320.05H320.015H319.981H319.947H319.913H319.879H319.845H319.811H319.777H319.743H319.709H319.675H319.641H319.607H319.574H319.54H319.506H319.473H319.439H319.405H319.372H319.338H319.305H319.272H319.238H319.205H319.172H319.138H319.105H319.072H319.039H319.006H318.973H318.94H318.907H318.874H318.841H318.808H318.775H318.742H318.71H318.677H318.644H318.612H318.579H318.547H318.514H318.482H318.449H318.417H318.385H318.352H318.32H318.288H318.256H318.224H318.192H318.16H318.128H318.096H318.064H318.032H318H317.968H317.937H317.905H317.873H317.842H317.81H317.779H317.747H317.716H317.684H317.653H317.622H317.59H317.559H317.528H317.497H317.466H317.435H317.404H317.373H317.342H317.311H317.28H317.25H317.219H317.188H317.158H317.127H317.097H317.066H317.036H317.005H316.975H316.945H316.914H316.884H316.854H316.824H316.794H316.764H316.734H316.704H316.674H316.644H316.614H316.584H316.555H316.525H316.495H316.466H316.436H316.407H316.377H316.348H316.319H316.29H316.26H316.231H316.202H316.173H316.144H316.115H316.086H316.057H316.028H315.999H315.971H315.942H315.913H315.885H315.856H315.828H315.799H315.771H315.742H315.714H315.686H315.658H315.63H315.601H315.573H315.545H315.517H315.49H315.462H315.434H315.406H315.379H315.351H315.323H315.296H315.268H315.241H315.213H315.186H315.159H315.132H315.104H315.077H315.05H315.023H314.996H314.969H314.942H314.916H314.889H314.862H314.836H314.809H314.782H314.756H314.729H314.703H314.677H314.65H314.624H314.598H314.572H314.546H314.52H314.494H314.468H314.442H314.416H314.391H314.365H314.339H314.314H314.288H314.263H314.237H314.212H314.187H314.161H314.136H314.111H314.086H314.061H314.036H314.011H313.986H313.961H313.937H313.912H313.887H313.863H313.838H313.814H313.789H313.765H313.741H313.717H313.692H313.668H313.644H313.62H313.596H313.572H313.548H313.525H313.501H313.477H313.454H313.43H313.407C308.128 499.5 306.294 498.398 303.617 496.79C302.247 495.968 300.656 495.012 298.269 494.004C294.504 492.412 291.063 490.654 287.608 488.888C279.677 484.834 271.673 480.743 259.5 478.556V472.696C272.782 458.697 283.651 452.513 294.759 452.513C299.046 452.513 302.059 453.967 306.004 455.917L306.087 455.958C310.003 457.893 314.775 460.252 321.5 460.252C328.338 460.252 333.613 457.551 337.82 455.371C342.259 453.071 345.31 451.5 348.944 451.5C355.09 451.5 361.863 454.217 368.341 458.56C374.278 462.54 379.61 467.652 383.5 472.472V472.477V472.499V472.521V472.543V472.565V472.588V472.61V472.632V472.654V472.676V472.698V472.72V472.742V472.764V472.786V472.808V472.83V472.852V472.873V472.895V472.917V472.939V472.961V472.983V473.004V473.026V473.048V473.07V473.091V473.113V473.135V473.157V473.178V473.2V473.222V473.243V473.265V473.286V473.308V473.33V473.351V473.373V473.394V473.416V473.437V473.459V473.48V473.502V473.523V473.544V473.566V473.587V473.609V473.63V473.651V473.673V473.694V473.715V473.737V473.758V473.779V473.801V473.822V473.843V473.864V473.886V473.907V473.928V473.949V473.971V473.992V474.013V474.034V474.055V474.076V474.098V474.119V474.14V474.161V474.182V474.203V474.224V474.245V474.266V474.288V474.309V474.33V474.351V474.372V474.393V474.414V474.435V474.456V474.477V474.498V474.519V474.54V474.561V474.582V474.603V474.624V474.645V474.666V474.686V474.707V474.728V474.749V474.77V474.791V474.812V474.833V474.854V474.875V474.896V474.917V474.937V474.958V474.979V475V475.021V475.042V475.063V475.084V475.104V475.125V475.146V475.167V475.188V475.209V475.229V475.25V475.271V475.292V475.313V475.334V475.355V475.375V475.396V475.417V475.438V475.459V475.48V475.5V475.521V475.542V475.563V475.584V475.605V475.625V475.646V475.667V475.688V475.709V475.73V475.75V475.771V475.792V475.813V475.834V475.855V475.875V475.896V475.917V475.938V475.959V475.98V476.001V476.021V476.042V476.063V476.084V476.105V476.126V476.147V476.168V476.189V476.209V476.23V476.251V476.272V476.293V476.314V476.335V476.356V476.377V476.398V476.419V476.44V476.461V476.482V476.503V476.524V476.545V476.566V476.587V476.608V476.629V476.65V476.671V476.692V476.713V476.734V476.755V476.776V476.797V476.818V476.839V476.86V476.881V476.903V476.924V476.945V476.966V476.987V477.008V477.03V477.051V477.072V477.093V477.114V477.136V477.157V477.178V477.199V477.221V477.242V477.263V477.284V477.306V477.327V477.348V477.37V477.391V477.412V477.434V477.455V477.477V477.498V477.52V477.541V477.562V477.584V477.605V477.627V477.648V477.67V477.691V477.713V477.735V477.756V477.778V477.799V477.821V477.843V477.864V477.886V477.908V477.929V477.951V477.973V477.995V478.016V478.038V478.06V478.082V478.103V478.125V478.147V478.169V478.174C376.832 478.991 371.495 481.543 366.399 484.319C365.349 484.891 364.314 485.469 363.279 486.047C358.159 488.906 353.043 491.763 346.222 493.845Z" fill="#DD2E44" fill-opacity="0.75" stroke="black" stroke-width="9"/>
<line x1="2.5" y1="-2.5" x2="51.9495" y2="-2.5" transform="matrix(-0.844822 0.535047 -0.844822 -0.535047 352 458)" stroke="white" stroke-opacity="0.7" stroke-width="5" stroke-linecap="round"/>
<line x1="2.5" y1="-2.5" x2="30.1319" y2="-2.5" transform="matrix(-0.844822 0.535047 -0.844822 -0.535047 344.873 472.42)" stroke="white" stroke-opacity="0.7" stroke-width="5" stroke-linecap="round"/>
<path d="M491.222 493.845L491.109 493.879L490.998 493.92C488.824 494.711 486.577 495.774 484.656 496.684C483.796 497.092 483.001 497.468 482.307 497.775C479.777 498.895 477.825 499.5 475.943 499.5H475.902H475.861H475.821H475.78H475.739H475.698H475.657H475.616H475.575H475.535H475.494H475.453H475.412H475.372H475.331H475.29H475.249H475.209H475.168H475.127H475.087H475.046H475.005H474.965H474.924H474.883H474.843H474.802H474.762H474.721H474.68H474.64H474.599H474.559H474.518H474.478H474.437H474.397H474.356H474.316H474.275H474.235H474.195H474.154H474.114H474.074H474.033H473.993H473.953H473.912H473.872H473.832H473.791H473.751H473.711H473.671H473.631H473.59H473.55H473.51H473.47H473.43H473.39H473.35H473.31H473.269H473.229H473.189H473.149H473.109H473.069H473.029H472.989H472.95H472.91H472.87H472.83H472.79H472.75H472.71H472.671H472.631H472.591H472.551H472.512H472.472H472.432H472.392H472.353H472.313H472.273H472.234H472.194H472.155H472.115H472.076H472.036H471.997H471.957H471.918H471.878H471.839H471.799H471.76H471.721H471.681H471.642H471.603H471.563H471.524H471.485H471.446H471.406H471.367H471.328H471.289H471.25H471.211H471.172H471.133H471.094H471.055H471.016H470.977H470.938H470.899H470.86H470.821H470.782H470.743H470.704H470.666H470.627H470.588H470.549H470.511H470.472H470.433H470.395H470.356H470.318H470.279H470.24H470.202H470.163H470.125H470.086H470.048H470.01H469.971H469.933H469.895H469.856H469.818H469.78H469.742H469.703H469.665H469.627H469.589H469.551H469.513H469.475H469.437H469.399H469.361H469.323H469.285H469.247H469.209H469.171H469.133H469.095H469.058H469.02H468.982H468.944H468.907H468.869H468.832H468.794H468.756H468.719H468.681H468.644H468.606H468.569H468.532H468.494H468.457H468.42H468.382H468.345H468.308H468.271H468.233H468.196H468.159H468.122H468.085H468.048H468.011H467.974H467.937H467.9H467.863H467.826H467.79H467.753H467.716H467.679H467.642H467.606H467.569H467.533H467.496H467.459H467.423H467.386H467.35H467.313H467.277H467.241H467.204H467.168H467.132H467.095H467.059H467.023H466.987H466.951H466.915H466.879H466.843H466.807H466.771H466.735H466.699H466.663H466.627H466.591H466.556H466.52H466.484H466.448H466.413H466.377H466.342H466.306H466.271H466.235H466.2H466.164H466.129H466.094H466.058H466.023H465.988H465.953H465.917H465.882H465.847H465.812H465.777H465.742H465.707H465.672H465.637H465.602H465.568H465.533H465.498H465.463H465.429H465.394H465.359H465.325H465.29H465.256H465.221H465.187H465.153H465.118H465.084H465.05H465.015H464.981H464.947H464.913H464.879H464.845H464.811H464.777H464.743H464.709H464.675H464.641H464.607H464.574H464.54H464.506H464.473H464.439H464.405H464.372H464.338H464.305H464.272H464.238H464.205H464.172H464.138H464.105H464.072H464.039H464.006H463.973H463.94H463.907H463.874H463.841H463.808H463.775H463.742H463.71H463.677H463.644H463.612H463.579H463.547H463.514H463.482H463.449H463.417H463.385H463.352H463.32H463.288H463.256H463.224H463.192H463.16H463.128H463.096H463.064H463.032H463H462.968H462.937H462.905H462.873H462.842H462.81H462.779H462.747H462.716H462.684H462.653H462.622H462.59H462.559H462.528H462.497H462.466H462.435H462.404H462.373H462.342H462.311H462.28H462.25H462.219H462.188H462.158H462.127H462.097H462.066H462.036H462.005H461.975H461.945H461.914H461.884H461.854H461.824H461.794H461.764H461.734H461.704H461.674H461.644H461.614H461.584H461.555H461.525H461.495H461.466H461.436H461.407H461.377H461.348H461.319H461.29H461.26H461.231H461.202H461.173H461.144H461.115H461.086H461.057H461.028H460.999H460.971H460.942H460.913H460.885H460.856H460.828H460.799H460.771H460.742H460.714H460.686H460.658H460.63H460.601H460.573H460.545H460.517H460.49H460.462H460.434H460.406H460.379H460.351H460.323H460.296H460.268H460.241H460.213H460.186H460.159H460.132H460.104H460.077H460.05H460.023H459.996H459.969H459.942H459.916H459.889H459.862H459.836H459.809H459.782H459.756H459.729H459.703H459.677H459.65H459.624H459.598H459.572H459.546H459.52H459.494H459.468H459.442H459.416H459.391H459.365H459.339H459.314H459.288H459.263H459.237H459.212H459.187H459.161H459.136H459.111H459.086H459.061H459.036H459.011H458.986H458.961H458.937H458.912H458.887H458.863H458.838H458.814H458.789H458.765H458.741H458.717H458.692H458.668H458.644H458.62H458.596H458.572H458.548H458.525H458.501H458.477H458.454H458.43H458.407C453.128 499.5 451.294 498.398 448.617 496.79C447.247 495.968 445.656 495.012 443.269 494.004C439.504 492.412 436.063 490.654 432.608 488.888C424.677 484.834 416.673 480.743 404.5 478.556V472.696C417.782 458.697 428.651 452.513 439.759 452.513C444.046 452.513 447.059 453.967 451.004 455.917L451.087 455.958C455.003 457.893 459.775 460.252 466.5 460.252C473.338 460.252 478.613 457.551 482.82 455.371C487.259 453.071 490.31 451.5 493.944 451.5C500.09 451.5 506.863 454.217 513.341 458.56C519.278 462.54 524.61 467.652 528.5 472.472V472.477V472.499V472.521V472.543V472.565V472.588V472.61V472.632V472.654V472.676V472.698V472.72V472.742V472.764V472.786V472.808V472.83V472.852V472.873V472.895V472.917V472.939V472.961V472.983V473.004V473.026V473.048V473.07V473.091V473.113V473.135V473.157V473.178V473.2V473.222V473.243V473.265V473.286V473.308V473.33V473.351V473.373V473.394V473.416V473.437V473.459V473.48V473.502V473.523V473.544V473.566V473.587V473.609V473.63V473.651V473.673V473.694V473.715V473.737V473.758V473.779V473.801V473.822V473.843V473.864V473.886V473.907V473.928V473.949V473.971V473.992V474.013V474.034V474.055V474.076V474.098V474.119V474.14V474.161V474.182V474.203V474.224V474.245V474.266V474.288V474.309V474.33V474.351V474.372V474.393V474.414V474.435V474.456V474.477V474.498V474.519V474.54V474.561V474.582V474.603V474.624V474.645V474.666V474.686V474.707V474.728V474.749V474.77V474.791V474.812V474.833V474.854V474.875V474.896V474.917V474.937V474.958V474.979V475V475.021V475.042V475.063V475.084V475.104V475.125V475.146V475.167V475.188V475.209V475.229V475.25V475.271V475.292V475.313V475.334V475.355V475.375V475.396V475.417V475.438V475.459V475.48V475.5V475.521V475.542V475.563V475.584V475.605V475.625V475.646V475.667V475.688V475.709V475.73V475.75V475.771V475.792V475.813V475.834V475.855V475.875V475.896V475.917V475.938V475.959V475.98V476.001V476.021V476.042V476.063V476.084V476.105V476.126V476.147V476.168V476.189V476.209V476.23V476.251V476.272V476.293V476.314V476.335V476.356V476.377V476.398V476.419V476.44V476.461V476.482V476.503V476.524V476.545V476.566V476.587V476.608V476.629V476.65V476.671V476.692V476.713V476.734V476.755V476.776V476.797V476.818V476.839V476.86V476.881V476.903V476.924V476.945V476.966V476.987V477.008V477.03V477.051V477.072V477.093V477.114V477.136V477.157V477.178V477.199V477.221V477.242V477.263V477.284V477.306V477.327V477.348V477.37V477.391V477.412V477.434V477.455V477.477V477.498V477.52V477.541V477.562V477.584V477.605V477.627V477.648V477.67V477.691V477.713V477.735V477.756V477.778V477.799V477.821V477.843V477.864V477.886V477.908V477.929V477.951V477.973V477.995V478.016V478.038V478.06V478.082V478.103V478.125V478.147V478.169V478.174C521.832 478.991 516.495 481.543 511.399 484.319C510.349 484.891 509.314 485.469 508.279 486.047C503.159 488.906 498.043 491.763 491.222 493.845Z" fill="#DD2E44" fill-opacity="0.75" stroke="black" stroke-width="9"/>
<circle cx="428" cy="470" r="4" fill="white" fill-opacity="0.7"/>
<circle cx="282" cy="470" r="4" fill="white" fill-opacity="0.7"/>
<line x1="2.5" y1="-2.5" x2="51.9495" y2="-2.5" transform="matrix(-0.844822 0.535047 -0.844822 -0.535047 502 458)" stroke="white" stroke-opacity="0.7" stroke-width="5" stroke-linecap="round"/>
<line x1="2.5" y1="-2.5" x2="30.1319" y2="-2.5" transform="matrix(-0.844822 0.535047 -0.844822 -0.535047 494.873 472.42)" stroke="white" stroke-opacity="0.7" stroke-width="5" stroke-linecap="round"/>
<rect x="380.5" y="467.5" width="28" height="13" fill="#DD2E44" fill-opacity="0.75" stroke="black" stroke-width="9"/>
<path fill-rule="evenodd" clip-rule="evenodd" d="M522 470L656.092 470C662.384 470 664 472.462 664 475.5C664 478.538 662.384 481 656.092 481H522V470Z" fill="#090909"/>
<path d="M639.375 480H658.5C660.985 480 663 477.985 663 475.5C663 473.015 660.985 471 658.5 471H528L639.375 480Z" fill="white" fill-opacity="0.25"/>
<path d="M401 447C410.941 447 419 438.941 419 429C419 419.059 410.941 411 401 411C391.059 411 383 419.059 383 429C383 438.941 391.059 447 401 447Z" fill="black"/>
<circle r="7" transform="matrix(-1 0 0 1 392 429)" fill="white"/>
</g>
<defs>
<filter id="filter0_d_692_111456" x="0" y="0" width="1008" height="1011" filterUnits="userSpaceOnUse" color-interpolation-filters="sRGB">
<feFlood flood-opacity="0" result="BackgroundImageFix"/>
<feColorMatrix in="SourceAlpha" type="matrix" values="0 0 0 0 0 0 0 0 0 0 0 0 0 0 0 0 0 0 127 0" result="hardAlpha"/>
<feOffset dx="-1" dy="7"/>
<feGaussianBlur stdDeviation="2"/>
<feComposite in2="hardAlpha" operator="out"/>
<feColorMatrix type="matrix" values="0 0 0 0 0 0 0 0 0 0 0 0 0 0 0 0 0 0 0.25 0"/>
<feBlend mode="normal" in2="BackgroundImageFix" result="effect1_dropShadow_692_111456"/>
<feBlend mode="normal" in="SourceGraphic" in2="effect1_dropShadow_692_111456" result="shape"/>
</filter>
</defs>
</svg>
