<svg width="1440" height="1462" viewBox="0 0 1440 1462" fill="none" xmlns="http://www.w3.org/2000/svg">
<path fill-rule="evenodd" clip-rule="evenodd" d="M718.297 56.8169C718.509 56.4752 718.716 56.1287 718.917 55.7776C719.064 56.1266 719.217 56.4731 719.374 56.8169H718.297ZM813 12.8169C804.033 12.8169 795.985 16.2921 790.487 21.8009C783.533 10.4401 770.691 2.81689 756 2.81689C741.499 2.81689 728.8 10.2442 721.785 21.362C717.331 8.79295 707.093 0 695.176 0C679.167 0 666.189 15.8669 666.189 35.4398C666.189 43.4689 668.373 50.8745 672.055 56.8169H660C650.611 56.8169 643 64.4281 643 73.8169C643 83.2057 650.611 90.8169 660 90.8169H912C921.389 90.8169 929 83.2057 929 73.8169C929 64.4281 921.389 56.8169 912 56.8169H881.38C881.786 55.0489 882 53.2079 882 51.3169C882 37.7859 871.031 26.8169 857.5 26.8169C851.601 26.8169 846.189 28.9018 841.96 32.3749C838.507 21.1065 826.849 12.8169 813 12.8169Z" fill="white"/>
<path fill-rule="evenodd" clip-rule="evenodd" d="M197.297 1427.82C197.509 1427.48 197.716 1427.13 197.917 1426.78C198.064 1427.13 198.217 1427.47 198.374 1427.82H197.297ZM292 1383.82C283.033 1383.82 274.985 1387.29 269.487 1392.8C262.533 1381.44 249.691 1373.82 235 1373.82C220.499 1373.82 207.8 1381.24 200.785 1392.36C196.331 1379.79 186.093 1371 174.176 1371C158.167 1371 145.189 1386.87 145.189 1406.44C145.189 1414.47 147.373 1421.87 151.055 1427.82H139C129.611 1427.82 122 1435.43 122 1444.82C122 1454.21 129.611 1461.82 139 1461.82H391C400.389 1461.82 408 1454.21 408 1444.82C408 1435.43 400.389 1427.82 391 1427.82H360.38C360.786 1426.05 361 1424.21 361 1422.32C361 1408.79 350.031 1397.82 336.5 1397.82C330.601 1397.82 325.189 1399.9 320.96 1403.37C317.507 1392.11 305.849 1383.82 292 1383.82Z" fill="white" fill-opacity="0.25"/>
<path fill-rule="evenodd" clip-rule="evenodd" d="M1333.45 435C1356.06 435 1375.38 449.447 1383.12 469.836C1391.06 463.401 1401.09 459.56 1412 459.56C1433.94 459.56 1452.34 475.112 1457.27 496.048C1462.07 490.171 1469.28 486.436 1477.33 486.436C1491.79 486.436 1503.51 498.468 1503.51 513.312C1503.51 515.884 1503.16 518.371 1502.51 520.726H1524.83C1537.63 520.726 1548 531.099 1548 543.895C1548 556.691 1537.63 567.064 1524.83 567.064H1204.17C1191.37 567.064 1181 556.691 1181 543.895C1181 531.099 1191.37 520.726 1204.17 520.726H1220.47C1218.62 515.84 1217.61 510.527 1217.61 504.971C1217.61 480.915 1236.59 461.413 1260.01 461.413C1268.94 461.413 1277.23 464.252 1284.07 469.1C1291.99 449.101 1311.12 435 1333.45 435Z" fill="white"/>
<path fill-rule="evenodd" clip-rule="evenodd" d="M1217.55 961C1194.94 961 1175.62 975.447 1167.88 995.836C1159.94 989.401 1149.91 985.56 1139 985.56C1117.06 985.56 1098.66 1001.11 1093.73 1022.05C1088.93 1016.17 1081.72 1012.44 1073.67 1012.44C1059.21 1012.44 1047.49 1024.47 1047.49 1039.31C1047.49 1041.88 1047.84 1044.37 1048.49 1046.73H1026.17C1013.37 1046.73 1003 1057.1 1003 1069.9C1003 1082.69 1013.37 1093.06 1026.17 1093.06H1346.83C1359.63 1093.06 1370 1082.69 1370 1069.9C1370 1057.1 1359.63 1046.73 1346.83 1046.73H1330.53C1332.38 1041.84 1333.39 1036.53 1333.39 1030.97C1333.39 1006.91 1314.41 987.413 1290.99 987.413C1282.06 987.413 1273.77 990.252 1266.93 995.1C1259.01 975.101 1239.88 961 1217.55 961Z" fill="white" fill-opacity="0.25"/>
<path fill-rule="evenodd" clip-rule="evenodd" d="M133.241 816.178C124.333 816.178 116.229 820.331 110.189 827.119C102.372 813.736 89.5006 805 74.9467 805C54.7782 805 37.8409 821.776 33.107 844.449C27.7919 836.936 19.9379 832.183 11.1759 832.183C-4.83286 832.183 -17.8105 848.05 -17.8105 867.623C-17.8105 869.129 -17.7337 870.614 -17.5844 872.071C-30.6884 873.104 -41 884.065 -41 897.435C-41 911.487 -29.6085 922.879 -15.5563 922.879H219.556C233.608 922.879 245 911.487 245 897.435C245 883.383 233.608 871.991 219.556 871.991H211.027C210.239 856.58 199.698 844.377 186.812 844.377C178.667 844.377 171.459 849.252 167.058 856.731C166.959 834.314 151.857 816.178 133.241 816.178Z" fill="white"/>
<path fill-rule="evenodd" clip-rule="evenodd" d="M244.241 293.178C235.333 293.178 227.229 297.331 221.189 304.119C213.372 290.736 200.501 282 185.947 282C165.778 282 148.841 298.776 144.107 321.449C138.792 313.936 130.938 309.183 122.176 309.183C106.167 309.183 93.1895 325.05 93.1895 344.623C93.1895 346.129 93.2663 347.614 93.4156 349.071C80.3116 350.104 70 361.065 70 374.435C70 388.487 81.3915 399.879 95.4437 399.879H330.556C344.608 399.879 356 388.487 356 374.435C356 360.383 344.608 348.991 330.556 348.991H322.027C321.239 333.58 310.698 321.377 297.812 321.377C289.667 321.377 282.459 326.252 278.058 333.731C277.959 311.314 262.857 293.178 244.241 293.178Z" fill="white" fill-opacity="0.25"/>
</svg>
