<svg width="1000" height="1000" viewBox="0 0 1000 1000" fill="none" xmlns="http://www.w3.org/2000/svg">
<g clip-path="url(#clip0_1490_64606)">
<path d="M476.615 863.64C378.046 863.64 221.397 779.336 221.397 840.294C221.397 933.226 216.138 984.282 254.869 1069.14C296.246 1172.14 588.006 1354.34 887.952 1187.07C1014.65 1116.42 1014.65 1017.45 1014.65 880.572C896.446 880.572 850.904 864.572 841.5 880.572C841.5 954.902 776.451 1016 776.451 851.332C776.451 790.373 719.34 883.507 476.615 863.64Z" fill="#DD933C" stroke="black" stroke-width="7" stroke-linecap="round"/>
<path d="M508.969 1210.78C410.372 1210.78 264.39 1091.13 221.544 857.385C221.544 762.986 379.14 1151.16 470.188 1151.16C666.565 1176.21 776.756 794.458 776.756 871.298C776.756 948.138 596.446 1210.78 508.969 1210.78Z" fill="black" fill-opacity="0.16"/>
<ellipse rx="44.3462" ry="59.3168" transform="matrix(0.740089 0.672509 -0.711303 0.702885 942.823 1021.12)" fill="#DD933C" stroke="black" stroke-width="6" stroke-linecap="round"/>
<ellipse rx="54.5348" ry="70.1384" transform="matrix(0.229724 0.973256 -0.978269 0.20734 746.154 1032.63)" fill="#DD933C" stroke="black" stroke-width="6" stroke-linecap="round"/>
<ellipse rx="44.7104" ry="56.8614" transform="matrix(0.407627 0.913148 -0.928209 0.372059 852.004 999.983)" fill="#DD933C" stroke="black" stroke-width="6" stroke-linecap="round"/>
<path d="M866.091 1032.28C843.744 1041.24 819.31 1034.35 811.517 1016.89" stroke="white" stroke-opacity="0.25" stroke-width="8" stroke-linecap="round"/>
<path d="M841.399 976.965C832.83 980.4 825.427 985.746 820.46 992.087C815.492 998.429 813.268 1005.37 814.168 1011.73C815.068 1018.08 819.037 1023.45 825.394 1026.92C831.752 1030.39 840.102 1031.74 849.017 1030.74L852.569 1001.99L841.399 976.965Z" fill="black" fill-opacity="0.16"/>
<ellipse rx="44.7104" ry="56.8614" transform="matrix(0.407627 0.913148 -0.928209 0.372059 896.004 914.983)" fill="#DD933C" stroke="black" stroke-width="6" stroke-linecap="round"/>
<path d="M910.091 947.28C887.744 956.238 863.31 949.348 855.517 931.891" stroke="white" stroke-opacity="0.25" stroke-width="8" stroke-linecap="round"/>
<path d="M885.399 891.965C876.83 895.4 869.427 900.746 864.46 907.087C859.492 913.429 857.268 920.371 858.168 926.726C859.068 933.081 863.037 938.453 869.394 941.923C875.752 945.392 884.102 946.743 893.017 945.745L896.569 916.988L885.399 891.965Z" fill="black" fill-opacity="0.16"/>
<ellipse rx="44.7446" ry="63.581" transform="matrix(0.425302 0.905052 -0.921337 0.388764 951.159 978.556)" fill="#DD933C" stroke="black" stroke-width="6" stroke-linecap="round"/>
<path d="M965.85 1010.61C941.046 1021.08 914.343 1015.52 906.206 998.209" stroke="white" stroke-opacity="0.25" stroke-width="8" stroke-linecap="round"/>
<path d="M940.068 955.745C930.556 959.758 922.281 965.648 916.659 972.406C911.037 979.164 908.418 986.369 909.25 992.789C910.082 999.209 914.313 1004.44 921.22 1007.6C928.126 1010.75 937.278 1011.62 947.108 1010.07L951.731 980.565L940.068 955.745Z" fill="black" fill-opacity="0.16"/>
<ellipse rx="41.0035" ry="58.265" transform="matrix(0.203953 0.978981 -0.986354 0.164636 950.833 915.734)" fill="#DD933C" stroke="black" stroke-width="6" stroke-linecap="round"/>
<path d="M957.12 947.429C932.787 951.491 910.161 940.869 906.586 923.706" stroke="white" stroke-opacity="0.25" stroke-width="8" stroke-linecap="round"/>
<path d="M945.79 893.044C936.459 894.601 927.831 898.094 921.384 902.924C914.937 907.754 911.072 913.621 910.45 919.521C909.828 925.42 912.489 930.985 917.975 935.262C923.462 939.54 931.435 942.264 940.527 942.968L950.916 917.647L945.79 893.044Z" fill="black" fill-opacity="0.16"/>
<ellipse cx="303.725" cy="1017.69" rx="44.522" ry="62.4838" transform="rotate(90 303.725 1017.69)" fill="#DD933C" stroke="black" stroke-width="6" stroke-linecap="round"/>
<path d="M303.393 992.467C293.248 992.467 283.418 994.667 275.587 998.691C267.756 1002.71 262.41 1008.31 260.466 1014.52C258.521 1020.74 260.098 1027.18 264.927 1032.74C269.756 1038.31 277.536 1042.66 286.935 1045.04L303.393 1019.75L303.393 992.467Z" fill="black" fill-opacity="0.16"/>
<ellipse cx="446.977" cy="1025.94" rx="55.6525" ry="80.3363" transform="rotate(90 446.977 1025.94)" fill="#DD933C" stroke="black" stroke-width="6" stroke-linecap="round"/>
<path d="M446.551 994.416C433.507 994.416 420.869 997.166 410.801 1002.2C400.732 1007.23 393.859 1014.22 391.359 1021.99C388.858 1029.75 390.886 1037.8 397.094 1044.76C403.303 1051.72 413.306 1057.15 425.391 1060.13L446.551 1028.53L446.551 994.416Z" fill="black" fill-opacity="0.16"/>
<ellipse cx="386.28" cy="982.813" rx="48.6959" ry="69.6248" transform="rotate(90 386.28 982.813)" fill="#DD933C" stroke="black" stroke-width="6" stroke-linecap="round"/>
<path d="M385.91 1021.2C356.43 1021.2 332.531 1004.32 332.531 983.5" stroke="white" stroke-opacity="0.25" stroke-width="2" stroke-linecap="round"/>
<path d="M385.91 955.226C374.606 955.226 363.652 957.632 354.926 962.033C346.2 966.434 340.244 972.556 338.077 979.35C335.91 986.145 337.667 993.189 343.047 999.277C348.428 1005.37 357.098 1010.12 367.571 1012.72L385.91 985.071L385.91 955.226Z" fill="black" fill-opacity="0.16"/>
<ellipse cx="292.691" cy="962.038" rx="48.6959" ry="69.6248" transform="rotate(90 292.691 962.038)" fill="#DD933C" stroke="black" stroke-width="6" stroke-linecap="round"/>
<path d="M292.322 1000.42C262.841 1000.42 238.943 983.546 238.943 962.725" stroke="white" stroke-opacity="0.25" stroke-width="2" stroke-linecap="round"/>
<path d="M292.322 934.45C281.017 934.45 270.064 936.857 261.338 941.258C252.612 945.659 246.655 951.78 244.488 958.575C242.321 965.369 244.078 972.414 249.459 978.502C254.84 984.59 263.509 989.344 273.983 991.948L292.322 964.296L292.322 934.45Z" fill="black" fill-opacity="0.16"/>
<ellipse cx="641.336" cy="1016.55" rx="54.2611" ry="76.7658" transform="rotate(90 641.336 1016.55)" fill="#DD933C" stroke="black" stroke-width="6" stroke-linecap="round"/>
<path d="M640.929 985.811C628.464 985.811 616.388 988.492 606.767 993.396C597.146 998.3 590.578 1005.12 588.189 1012.69C585.8 1020.26 587.737 1028.11 593.67 1034.9C599.602 1041.68 609.161 1046.98 620.709 1049.88L640.929 1019.07L640.929 985.811Z" fill="black" fill-opacity="0.16"/>
<ellipse cx="525.528" cy="993.944" rx="40.348" ry="69.6248" transform="rotate(90 525.528 993.944)" fill="#DD933C" stroke="black" stroke-width="6" stroke-linecap="round"/>
<path d="M525.159 1025.75C495.678 1025.75 471.78 1011.76 471.78 994.513" stroke="white" stroke-opacity="0.25" stroke-width="8" stroke-linecap="round"/>
<path d="M525.159 971.085C513.854 971.085 502.901 973.079 494.175 976.725C485.449 980.372 479.492 985.444 477.325 991.074C475.158 996.704 476.915 1002.54 482.296 1007.58C487.677 1012.63 496.346 1016.57 506.82 1018.73L525.159 995.814L525.159 971.085Z" fill="black" fill-opacity="0.16"/>
<ellipse cx="710.98" cy="952.087" rx="50.0872" ry="74.9805" transform="rotate(90 710.98 952.087)" fill="#DD933C" stroke="black" stroke-width="6" stroke-linecap="round"/>
<path d="M710.583 991.571C678.834 991.571 653.097 974.21 653.097 952.794" stroke="white" stroke-opacity="0.25" stroke-width="8" stroke-linecap="round"/>
<path d="M710.582 923.711C698.408 923.711 686.613 926.186 677.215 930.713C667.818 935.24 661.403 941.536 659.07 948.525C656.736 955.513 658.628 962.759 664.423 969.021C670.217 975.283 679.554 980.173 690.833 982.852L710.582 954.41L710.582 923.711Z" fill="black" fill-opacity="0.16"/>
<ellipse cx="719.625" cy="888.205" rx="43.1307" ry="53.5575" transform="rotate(90 719.625 888.205)" fill="#DD933C" stroke="black" stroke-width="6" stroke-linecap="round"/>
<path d="M719.34 922.205C696.663 922.205 678.28 907.255 678.28 888.813" stroke="white" stroke-opacity="0.25" stroke-width="8" stroke-linecap="round"/>
<path d="M719.34 863.77C710.644 863.77 702.219 865.901 695.507 869.799C688.794 873.697 684.212 879.119 682.545 885.137C680.878 891.155 682.23 897.394 686.369 902.787C690.508 908.179 697.177 912.389 705.234 914.697L719.34 890.204L719.34 863.77Z" fill="black" fill-opacity="0.16"/>
<ellipse cx="602.294" cy="957.77" rx="40.348" ry="74.9805" transform="rotate(90 602.294 957.77)" fill="#DD933C" stroke="black" stroke-width="6" stroke-linecap="round"/>
<path d="M601.896 989.576C570.148 989.576 544.411 975.591 544.411 958.339" stroke="white" stroke-opacity="0.25" stroke-width="8" stroke-linecap="round"/>
<path d="M601.896 934.911C589.722 934.911 577.926 936.905 568.529 940.552C559.131 944.198 552.717 949.27 550.383 954.9C548.049 960.53 549.942 966.366 555.736 971.411C561.531 976.456 570.867 980.394 582.147 982.553L601.896 959.641L601.896 934.911Z" fill="black" fill-opacity="0.16"/>
<ellipse cx="639.785" cy="910.467" rx="43.1307" ry="66.0543" transform="rotate(90 639.785 910.467)" fill="#DD933C" stroke="black" stroke-width="6" stroke-linecap="round"/>
<path d="M639.435 944.467C611.466 944.467 588.793 929.517 588.793 911.075" stroke="white" stroke-opacity="0.25" stroke-width="8" stroke-linecap="round"/>
<path d="M639.435 886.031C628.71 886.031 618.319 888.163 610.04 892.061C601.761 895.959 596.11 901.381 594.054 907.399C591.998 913.417 593.666 919.656 598.77 925.048C603.875 930.441 612.1 934.651 622.037 936.958L639.435 912.466L639.435 886.031Z" fill="black" fill-opacity="0.16"/>
<ellipse cx="457.689" cy="952.205" rx="40.348" ry="69.6248" transform="rotate(90 457.689 952.205)" fill="#DD933C" stroke="black" stroke-width="6" stroke-linecap="round"/>
<path d="M457.319 984.012C427.839 984.012 403.94 970.026 403.94 952.774" stroke="white" stroke-opacity="0.25" stroke-width="8" stroke-linecap="round"/>
<path d="M457.319 929.347C446.015 929.347 435.062 931.341 426.335 934.987C417.609 938.634 411.653 943.706 409.486 949.336C407.319 954.965 409.076 960.802 414.457 965.847C419.837 970.891 428.507 974.83 438.981 976.988L457.319 954.076L457.319 929.347Z" fill="black" fill-opacity="0.16"/>
<ellipse cx="516.602" cy="921.597" rx="40.348" ry="60.6985" transform="rotate(90 516.602 921.597)" fill="#DD933C" stroke="black" stroke-width="6" stroke-linecap="round"/>
<path d="M516.28 953.403C490.579 953.403 469.745 939.418 469.745 922.166" stroke="white" stroke-opacity="0.25" stroke-width="8" stroke-linecap="round"/>
<path d="M516.28 898.738C506.425 898.738 496.876 900.732 489.269 904.379C481.661 908.025 476.468 913.098 474.579 918.727C472.69 924.357 474.222 930.194 478.913 935.238C483.603 940.283 491.161 944.221 500.292 946.38L516.28 923.468L516.28 898.738Z" fill="black" fill-opacity="0.16"/>
<ellipse cx="398.776" cy="913.248" rx="40.348" ry="60.6985" transform="rotate(90 398.776 913.248)" fill="#DD933C" stroke="black" stroke-width="6" stroke-linecap="round"/>
<path d="M398.454 945.055C372.753 945.055 351.919 931.069 351.919 913.817" stroke="white" stroke-opacity="0.25" stroke-width="8" stroke-linecap="round"/>
<path d="M398.454 890.39C388.599 890.39 379.05 892.384 371.442 896.03C363.835 899.677 358.642 904.749 356.753 910.379C354.864 916.008 356.396 921.845 361.086 926.89C365.777 931.934 373.335 935.873 382.466 938.031L398.454 915.119L398.454 890.39Z" fill="black" fill-opacity="0.16"/>
<ellipse cx="282.808" cy="902.927" rx="40.348" ry="60.6985" transform="rotate(90 282.808 902.927)" fill="#DD933C" stroke="black" stroke-width="6" stroke-linecap="round"/>
<path d="M282.486 934.733C256.785 934.733 235.95 920.748 235.95 903.496" stroke="white" stroke-opacity="0.25" stroke-width="8" stroke-linecap="round"/>
<path d="M282.486 880.068C272.63 880.068 263.082 882.062 255.474 885.709C247.867 889.355 242.674 894.428 240.785 900.057C238.895 905.687 240.427 911.524 245.118 916.568C249.809 921.613 257.367 925.551 266.498 927.71L282.486 904.798L282.486 880.068Z" fill="black" fill-opacity="0.16"/>
<path d="M778.966 661.738C778.966 689.022 638.07 752.465 504.786 752.465C371.502 752.465 220.907 701.692 220.907 674.408C225.701 644.767 382.047 698.845 515.331 698.845C682.083 698.845 778.966 634.454 778.966 661.738Z" fill="#090909"/>
<path d="M772.598 708.997L772.54 708.728C581.519 842.293 402.993 758.815 228.039 708.728C213.756 746.293 209.046 776.902 217.973 820.032C550.029 977.251 738.62 867.337 779.681 846.467C789.651 788.744 779.734 742.369 772.598 708.997Z" fill="#DD933C" stroke="black" stroke-width="7" stroke-linecap="round"/>
<path d="M766.667 834.552C766.667 777.508 763.5 754.958 758.74 718.768C700.177 760.813 727.09 749.682 676.431 764.987C670.728 803.716 717.592 834.552 676.431 872.118C716.008 872.118 761.906 846.616 766.667 834.552Z" fill="black" fill-opacity="0.16"/>
<path d="M220.251 827.063C220.251 770.132 222.619 747.627 226.179 711.509C270.238 737.944 249.845 732.409 287.725 747.683C291.989 786.335 230.963 793.596 287.725 864.553C258.131 864.553 223.811 839.102 220.251 827.063Z" fill="white" fill-opacity="0.25"/>
<path fill-rule="evenodd" clip-rule="evenodd" d="M785.06 659.394C798.33 666.042 802.172 679.815 793.642 690.157C762.725 727.637 696.797 770.986 598.199 785.82C499.013 800.743 369.593 786.452 212.152 712.489C198.641 706.141 194.291 692.46 202.435 681.931C210.579 671.402 228.134 668.011 241.645 674.359C389.838 743.978 504.997 754.499 587.371 742.106C670.333 729.624 722.945 693.529 745.587 666.081C754.117 655.74 771.79 652.745 785.06 659.394Z" fill="#DD933C" stroke="black" stroke-width="7" stroke-linecap="round"/>
<path d="M789.253 671.161C802.523 677.809 802.174 679.817 793.643 690.158C762.727 727.638 696.798 770.988 598.201 785.822C499.014 800.745 369.594 786.454 212.153 712.49C198.642 706.143 197.332 694.212 205.476 683.683C497.726 857.956 731.495 745.801 789.253 671.161Z" fill="black" fill-opacity="0.16"/>
<path d="M754.039 664.203C768.321 661.42 772.382 668.046 764.555 675.963C736.188 704.655 674.907 746.065 584.441 757.421C443.406 767.16 298.801 726.812 229.176 687.855C216.779 682.996 221.977 678.877 234.532 676.725C502.68 810.137 696.911 742.116 754.039 664.203Z" fill="white" fill-opacity="0.25"/>
<path fill-rule="evenodd" clip-rule="evenodd" d="M788.414 845.028C801.136 850.414 803.933 859.987 794.66 866.411C761.052 889.692 692.123 914.598 592.781 918.028C492.846 921.479 364.976 903.144 213.657 842.57C200.671 837.372 197.362 827.827 206.264 821.25C215.166 814.674 232.91 813.556 245.895 818.754C388.326 875.77 501.185 881.761 584.18 878.896C667.769 876.01 723.974 863.957 748.586 846.908C757.859 840.484 775.691 839.642 788.414 845.028Z" fill="#DD933C" stroke="black" stroke-width="7" stroke-linecap="round"/>
<path d="M928.564 907.492C850 907.492 795.915 866.17 797.552 764.468C807.353 733.026 873.17 724.53 939.541 757.436C986.537 763.103 955.425 726.048 1025.26 740.402C1225.59 781.571 986.094 919.866 928.564 907.492Z" fill="#DD933C" stroke="black" stroke-width="7" stroke-linecap="round"/>
<path d="M929.235 902.134C868.189 889.004 1052.98 877.923 1054.52 782.175C1029.28 736.493 992.312 770.103 939.569 760.864C983.814 766.199 959.873 729.758 1025.62 743.271C1214.22 782.03 983.397 913.784 929.235 902.134Z" fill="black" fill-opacity="0.16"/>
<g filter="url(#filter0_d_1490_64606)">
<path d="M912.679 842.923C895.622 809.379 858.041 742.78 827.939 754.99C810.058 756.683 845.81 823.414 884.962 854.855" stroke="black" stroke-width="7" stroke-linecap="round"/>
</g>
<g filter="url(#filter1_d_1490_64606)">
<path d="M954.02 847.745C953.316 824.308 953.981 763.114 917.736 765.985C899.827 767.404 922.762 799.299 923.466 822.736" stroke="black" stroke-width="7" stroke-linecap="round"/>
</g>
<g filter="url(#filter2_d_1490_64606)">
<path d="M1003.64 850.32C1076.21 797.976 1047.27 757.489 1011.03 760.36C993.12 761.779 999.101 809.95 976.804 836.179" stroke="black" stroke-width="7" stroke-linecap="round"/>
</g>
</g>
<defs>
<filter id="filter0_d_1490_64606" x="803.375" y="722.377" width="129.134" height="139.615" filterUnits="userSpaceOnUse" color-interpolation-filters="sRGB">
<feFlood flood-opacity="0" result="BackgroundImageFix"/>
<feColorMatrix in="SourceAlpha" type="matrix" values="0 0 0 0 0 0 0 0 0 0 0 0 0 0 0 0 0 0 127 0" result="hardAlpha"/>
<feOffset dy="-12"/>
<feGaussianBlur stdDeviation="8"/>
<feComposite in2="hardAlpha" operator="out"/>
<feColorMatrix type="matrix" values="0 0 0 0 0 0 0 0 0 0 0 0 0 0 0 0 0 0 0.25 0"/>
<feBlend mode="normal" in2="BackgroundImageFix" result="effect1_dropShadow_1490_64606"/>
<feBlend mode="normal" in="SourceGraphic" in2="effect1_dropShadow_1490_64606" result="shape"/>
</filter>
<filter id="filter1_d_1490_64606" x="891.429" y="734.374" width="82.0776" height="120.885" filterUnits="userSpaceOnUse" color-interpolation-filters="sRGB">
<feFlood flood-opacity="0" result="BackgroundImageFix"/>
<feColorMatrix in="SourceAlpha" type="matrix" values="0 0 0 0 0 0 0 0 0 0 0 0 0 0 0 0 0 0 127 0" result="hardAlpha"/>
<feOffset dy="-12"/>
<feGaussianBlur stdDeviation="8"/>
<feComposite in2="hardAlpha" operator="out"/>
<feColorMatrix type="matrix" values="0 0 0 0 0 0 0 0 0 0 0 0 0 0 0 0 0 0 0.25 0"/>
<feBlend mode="normal" in2="BackgroundImageFix" result="effect1_dropShadow_1490_64606"/>
<feBlend mode="normal" in="SourceGraphic" in2="effect1_dropShadow_1490_64606" result="shape"/>
</filter>
<filter id="filter2_d_1490_64606" x="957.317" y="728.703" width="110.699" height="129.131" filterUnits="userSpaceOnUse" color-interpolation-filters="sRGB">
<feFlood flood-opacity="0" result="BackgroundImageFix"/>
<feColorMatrix in="SourceAlpha" type="matrix" values="0 0 0 0 0 0 0 0 0 0 0 0 0 0 0 0 0 0 127 0" result="hardAlpha"/>
<feOffset dy="-12"/>
<feGaussianBlur stdDeviation="8"/>
<feComposite in2="hardAlpha" operator="out"/>
<feColorMatrix type="matrix" values="0 0 0 0 0 0 0 0 0 0 0 0 0 0 0 0 0 0 0.25 0"/>
<feBlend mode="normal" in2="BackgroundImageFix" result="effect1_dropShadow_1490_64606"/>
<feBlend mode="normal" in="SourceGraphic" in2="effect1_dropShadow_1490_64606" result="shape"/>
</filter>
<clipPath id="clip0_1490_64606">
<rect width="1000" height="1000" fill="white"/>
</clipPath>
</defs>
</svg>
