<svg width="1000" height="1000" viewBox="0 0 1000 1000" fill="none" xmlns="http://www.w3.org/2000/svg">
<g clip-path="url(#clip0_1465_60794)">
<g filter="url(#filter0_d_1465_60794)">
<path fill-rule="evenodd" clip-rule="evenodd" d="M352.205 71.02C351.045 65.8849 354.949 61 360.214 61C362.867 61 365.356 62.2817 366.897 64.441L473.117 213.282C494.397 243.1 473.081 284.5 436.447 284.5C415.393 284.5 397.146 269.916 392.506 249.379L352.205 71.02ZM393.669 115.727L409.396 137.765C407.694 143.86 404.045 147.565 399.422 149.556C393.642 152.044 386.048 151.973 378.223 149.869L372.23 123.345C376.65 125.123 381.263 125.64 385.377 124.048C388.88 122.693 391.714 119.934 393.669 115.727ZM401.004 153.229C405.993 151.081 409.953 147.318 412.246 141.758L430.049 166.705C427.635 173.693 422.124 178.211 414.76 180.758C406.537 183.602 396.098 183.928 385.551 182.302L379.21 154.235C386.882 155.985 394.657 155.963 401.004 153.229ZM386.497 186.489L393.507 217.512C406.731 220.462 419.672 220.326 429.806 216.144C439.059 212.325 446.132 205.078 448.998 193.257L432.848 170.627C429.568 177.475 423.507 181.971 416.11 184.529C407.475 187.515 396.94 187.911 386.497 186.489ZM400.309 247.616L394.478 221.808C407.584 224.462 420.686 224.234 431.332 219.841C440.906 215.89 448.354 208.621 451.975 197.428L466.605 217.929C468.837 221.057 470.499 224.34 471.638 227.687C467.871 238.578 458.77 245.689 446.562 249.692C433.802 253.876 417.856 254.57 401.803 252.589C401.197 250.986 400.695 249.326 400.309 247.616ZM403.726 256.837C410.031 268.706 422.489 276.5 436.447 276.5C460.297 276.5 476.253 255.164 473.185 234.106C468.086 243.59 458.926 249.847 447.808 253.493C434.978 257.7 419.357 258.512 403.726 256.837ZM390.91 111.861L360.385 69.0882C360.346 69.0329 360.282 69 360.214 69C360.177 69 360.157 69.004 360.149 69.0059C360.14 69.0081 360.132 69.0107 360.125 69.0145C360.108 69.0229 360.079 69.0426 360.049 69.0791C360.02 69.1155 360.008 69.1483 360.003 69.1668C360.001 69.175 360 69.1826 360 69.1918C360 69.2002 360 69.2207 360.009 69.2568L371.114 118.405C375.861 120.964 380.398 121.686 383.934 120.318C386.702 119.247 389.273 116.724 390.91 111.861Z" fill="black"/>
<path d="M360.385 69.0882L390.91 111.861C389.273 116.724 386.702 119.247 383.934 120.318C380.398 121.686 375.861 120.964 371.114 118.405L360.009 69.2568C360 69.2207 360 69.2002 360 69.1918C360 69.1826 360.001 69.175 360.003 69.1668C360.008 69.1483 360.02 69.1155 360.049 69.0791C360.079 69.0426 360.108 69.0229 360.125 69.0145C360.132 69.0107 360.14 69.0081 360.149 69.0059C360.157 69.004 360.177 69 360.214 69C360.282 69 360.346 69.0329 360.385 69.0882Z" fill="#FF7DEA"/>
<path d="M409.396 137.765L393.669 115.727C391.714 119.934 388.88 122.693 385.377 124.048C381.263 125.64 376.65 125.123 372.23 123.345L378.223 149.869C386.048 151.973 393.642 152.044 399.422 149.556C404.045 147.565 407.694 143.86 409.396 137.765Z" fill="#88C9F9"/>
<path d="M412.246 141.758C409.953 147.318 405.993 151.081 401.004 153.229C394.657 155.963 386.882 155.985 379.21 154.235L385.551 182.302C396.098 183.928 406.537 183.602 414.76 180.758C422.124 178.211 427.635 173.693 430.049 166.705L412.246 141.758Z" fill="#82EB68"/>
<path d="M393.507 217.512L386.497 186.489C396.94 187.911 407.475 187.515 416.11 184.529C423.507 181.971 429.568 177.475 432.848 170.627L448.998 193.257C446.132 205.078 439.059 212.325 429.806 216.144C419.672 220.326 406.731 220.462 393.507 217.512Z" fill="#FFED00"/>
<path d="M394.478 221.808L400.309 247.616C400.695 249.326 401.197 250.986 401.803 252.589C417.856 254.57 433.802 253.876 446.562 249.692C458.77 245.689 467.871 238.578 471.638 227.687C470.499 224.34 468.837 221.057 466.605 217.929L451.975 197.428C448.354 208.621 440.906 215.89 431.332 219.841C420.686 224.234 407.584 224.462 394.478 221.808Z" fill="#FF8C00"/>
<path d="M403.726 256.837C410.031 268.706 422.489 276.5 436.447 276.5C460.297 276.5 476.253 255.164 473.185 234.106C468.086 243.59 458.926 249.847 447.808 253.493C434.978 257.7 419.357 258.512 403.726 256.837Z" fill="#F72087"/>
</g>
</g>
<defs>
<filter id="filter0_d_1465_60794" x="347" y="61" width="137.574" height="234.5" filterUnits="userSpaceOnUse" color-interpolation-filters="sRGB">
<feFlood flood-opacity="0" result="BackgroundImageFix"/>
<feColorMatrix in="SourceAlpha" type="matrix" values="0 0 0 0 0 0 0 0 0 0 0 0 0 0 0 0 0 0 127 0" result="hardAlpha"/>
<feOffset dx="-1" dy="7"/>
<feGaussianBlur stdDeviation="2"/>
<feComposite in2="hardAlpha" operator="out"/>
<feColorMatrix type="matrix" values="0 0 0 0 0 0 0 0 0 0 0 0 0 0 0 0 0 0 0.25 0"/>
<feBlend mode="normal" in2="BackgroundImageFix" result="effect1_dropShadow_1465_60794"/>
<feBlend mode="normal" in="SourceGraphic" in2="effect1_dropShadow_1465_60794" result="shape"/>
</filter>
<clipPath id="clip0_1465_60794">
<rect width="1000" height="1000" fill="white"/>
</clipPath>
</defs>
</svg>
