<svg width="1000" height="1000" viewBox="0 0 1000 1000" fill="none" xmlns="http://www.w3.org/2000/svg">
<g clip-path="url(#clip0_207_28039)">
<path d="M725.62 759.346H821.75C829.482 759.346 835.75 765.614 835.75 773.346V909.404C835.75 915.996 832.794 922.242 827.694 926.42L808.449 942.19C801.657 947.756 793.146 950.798 784.364 950.798H651.931C645.215 950.798 643.571 941.451 649.882 939.159L694.495 922.957C704.776 919.224 711.62 909.456 711.62 898.519V773.346C711.62 765.614 717.888 759.346 725.62 759.346Z" fill="#4E9AE9" stroke="black" stroke-width="4"/>
<path d="M794.748 915.336C808.003 915.336 818.748 904.591 818.748 891.336V757.346H837.75V920.766L798.66 952.798H651.931C642.977 952.798 640.784 940.335 649.2 937.279L709.62 915.336H794.748Z" fill="black" fill-opacity="0.25"/>
<path d="M960.277 817.083V502.977L973.63 508.429C978.896 510.58 982.338 515.702 982.338 521.39V802.44C982.338 809.765 976.69 815.852 969.385 816.4L960.277 817.083Z" fill="#88C9F9" stroke="black" stroke-width="4"/>
<rect x="553.086" y="502" width="418.394" height="315.239" rx="14" fill="#4E9AE9" stroke="black" stroke-width="4"/>
<path d="M551.086 780.149L961.059 508.239C966.376 504.712 973.48 508.525 973.48 514.906V819.239H575.086C561.831 819.239 551.086 808.494 551.086 795.239L551.086 780.149Z" fill="black" fill-opacity="0.25"/>
<rect x="571.717" y="518.459" width="381.132" height="250.831" rx="8" fill="#090909"/>
<rect x="573.717" y="520.459" width="377.132" height="246.831" rx="6" stroke="white" stroke-opacity="0.25" stroke-width="4"/>
<path d="M621.299 544.943H622.819V546.539H622.895C623.528 545.323 624.535 544.715 625.916 544.715C627.119 544.715 628.057 545.165 628.728 546.064C629.412 546.963 629.754 548.224 629.754 549.845C629.754 551.466 629.412 552.727 628.728 553.626C628.057 554.525 627.119 554.975 625.916 554.975C624.535 554.975 623.528 554.367 622.895 553.151H622.819V558.547H621.299V544.943ZM625.327 553.626C626.214 553.626 626.898 553.36 627.379 552.828C627.873 552.283 628.12 551.568 628.12 550.681V549.009C628.12 548.122 627.873 547.413 627.379 546.881C626.898 546.336 626.214 546.064 625.327 546.064C624.985 546.064 624.662 546.108 624.358 546.197C624.054 546.286 623.788 546.419 623.56 546.596C623.332 546.761 623.148 546.97 623.009 547.223C622.882 547.464 622.819 547.749 622.819 548.078V551.612C622.819 551.941 622.882 552.233 623.009 552.486C623.148 552.727 623.332 552.936 623.56 553.113C623.788 553.278 624.054 553.404 624.358 553.493C624.662 553.582 624.985 553.626 625.327 553.626ZM632.141 553.455H635.01V546.235H632.141V544.943H636.53V547.413H636.625C636.827 546.64 637.207 546.039 637.765 545.608C638.335 545.165 639.057 544.943 639.931 544.943H641.299V546.463H639.456C638.582 546.463 637.872 546.716 637.328 547.223C636.796 547.73 636.53 548.395 636.53 549.218V553.455H640.33V554.747H632.141V553.455ZM651.266 554.747C650.671 554.747 650.247 554.595 649.993 554.291C649.74 553.987 649.582 553.607 649.518 553.151H649.423C649.208 553.721 648.86 554.171 648.378 554.5C647.91 554.817 647.276 554.975 646.478 554.975C645.452 554.975 644.635 554.709 644.027 554.177C643.419 553.645 643.115 552.917 643.115 551.992C643.115 551.08 643.445 550.377 644.103 549.883C644.775 549.389 645.851 549.142 647.333 549.142H649.423V548.173C649.423 547.451 649.221 546.913 648.815 546.558C648.41 546.191 647.834 546.007 647.086 546.007C646.428 546.007 645.889 546.14 645.471 546.406C645.053 546.659 644.718 547.008 644.464 547.451L643.438 546.691C643.565 546.438 643.736 546.191 643.951 545.95C644.167 545.709 644.433 545.5 644.749 545.323C645.066 545.133 645.427 544.987 645.832 544.886C646.238 544.772 646.687 544.715 647.181 544.715C648.334 544.715 649.246 545.006 649.917 545.589C650.601 546.172 650.943 546.982 650.943 548.021V553.417H652.311V554.747H651.266ZM646.744 553.702C647.137 553.702 647.492 553.658 647.808 553.569C648.138 553.468 648.423 553.341 648.663 553.189C648.904 553.024 649.088 552.834 649.214 552.619C649.354 552.391 649.423 552.15 649.423 551.897V550.282H647.333C646.421 550.282 645.756 550.409 645.338 550.662C644.92 550.915 644.711 551.283 644.711 551.764V552.163C644.711 552.67 644.889 553.056 645.243 553.322C645.611 553.575 646.111 553.702 646.744 553.702ZM663.704 555.868C663.704 556.856 663.292 557.584 662.469 558.053C661.646 558.534 660.411 558.775 658.764 558.775C657.181 558.775 656.041 558.566 655.344 558.148C654.66 557.73 654.318 557.128 654.318 556.343C654.318 555.811 654.457 555.399 654.736 555.108C655.015 554.817 655.407 554.601 655.914 554.462V554.234C655.635 554.095 655.42 553.917 655.268 553.702C655.116 553.487 655.04 553.214 655.04 552.885C655.04 552.378 655.205 551.998 655.534 551.745C655.876 551.492 656.3 551.302 656.807 551.175V551.099C656.199 550.833 655.724 550.44 655.382 549.921C655.053 549.402 654.888 548.794 654.888 548.097C654.888 547.603 654.977 547.147 655.154 546.729C655.331 546.311 655.585 545.956 655.914 545.665C656.256 545.361 656.661 545.127 657.13 544.962C657.599 544.797 658.118 544.715 658.688 544.715C659.423 544.715 660.069 544.848 660.626 545.114V544.943C660.626 544.563 660.715 544.246 660.892 543.993C661.069 543.74 661.373 543.613 661.804 543.613H663.609V544.943H661.405V545.608C661.76 545.912 662.032 546.273 662.222 546.691C662.412 547.109 662.507 547.578 662.507 548.097C662.507 548.591 662.412 549.047 662.222 549.465C662.045 549.883 661.791 550.244 661.462 550.548C661.133 550.839 660.727 551.067 660.246 551.232C659.777 551.397 659.258 551.479 658.688 551.479C658.523 551.479 658.365 551.473 658.213 551.46C658.061 551.447 657.909 551.428 657.757 551.403C657.605 551.428 657.447 551.473 657.282 551.536C657.117 551.587 656.965 551.663 656.826 551.764C656.687 551.853 656.573 551.96 656.484 552.087C656.395 552.214 656.351 552.359 656.351 552.524C656.351 552.815 656.497 553.012 656.788 553.113C657.079 553.202 657.459 553.246 657.928 553.246H660.094C661.361 553.246 662.279 553.487 662.849 553.968C663.419 554.437 663.704 555.07 663.704 555.868ZM662.279 555.944C662.279 555.551 662.121 555.235 661.804 554.994C661.487 554.766 660.936 554.652 660.151 554.652H656.75C656.091 554.918 655.762 555.361 655.762 555.982C655.762 556.413 655.933 556.78 656.275 557.084C656.617 557.401 657.187 557.559 657.985 557.559H659.467C660.354 557.559 661.044 557.42 661.538 557.141C662.032 556.875 662.279 556.476 662.279 555.944ZM658.688 550.301C659.448 550.301 660.005 550.124 660.36 549.769C660.727 549.414 660.911 548.946 660.911 548.363V547.812C660.911 547.229 660.727 546.767 660.36 546.425C660.005 546.07 659.448 545.893 658.688 545.893C657.928 545.893 657.371 546.07 657.016 546.425C656.661 546.767 656.484 547.229 656.484 547.812V548.363C656.484 548.946 656.661 549.414 657.016 549.769C657.371 550.124 657.928 550.301 658.688 550.301ZM665.254 554.747V544.943H666.66V546.083H666.736C666.888 545.703 667.104 545.38 667.382 545.114C667.661 544.848 668.073 544.715 668.617 544.715C669.187 544.715 669.612 544.861 669.89 545.152C670.169 545.431 670.34 545.798 670.403 546.254H670.46C670.638 545.811 670.891 545.443 671.22 545.152C671.55 544.861 672.006 544.715 672.588 544.715C673.386 544.715 673.918 544.994 674.184 545.551C674.463 546.108 674.602 546.906 674.602 547.945V554.747H673.196V548.192C673.196 547.356 673.108 546.78 672.93 546.463C672.766 546.134 672.455 545.969 671.999 545.969C671.594 545.969 671.265 546.102 671.011 546.368C670.758 546.621 670.631 547.014 670.631 547.546V554.747H669.225V548.192C669.225 547.356 669.137 546.78 668.959 546.463C668.795 546.134 668.491 545.969 668.047 545.969C667.642 545.969 667.306 546.102 667.04 546.368C666.787 546.621 666.66 547.014 666.66 547.546V554.747H665.254ZM684.817 554.747C684.222 554.747 683.797 554.595 683.544 554.291C683.291 553.987 683.132 553.607 683.069 553.151H682.974C682.759 553.721 682.41 554.171 681.929 554.5C681.46 554.817 680.827 554.975 680.029 554.975C679.003 554.975 678.186 554.709 677.578 554.177C676.97 553.645 676.666 552.917 676.666 551.992C676.666 551.08 676.995 550.377 677.654 549.883C678.325 549.389 679.402 549.142 680.884 549.142H682.974V548.173C682.974 547.451 682.771 546.913 682.366 546.558C681.961 546.191 681.384 546.007 680.637 546.007C679.978 546.007 679.44 546.14 679.022 546.406C678.604 546.659 678.268 547.008 678.015 547.451L676.989 546.691C677.116 546.438 677.287 546.191 677.502 545.95C677.717 545.709 677.983 545.5 678.3 545.323C678.617 545.133 678.978 544.987 679.383 544.886C679.788 544.772 680.238 544.715 680.732 544.715C681.885 544.715 682.797 545.006 683.468 545.589C684.152 546.172 684.494 546.982 684.494 548.021V553.417H685.862V554.747H684.817ZM680.295 553.702C680.688 553.702 681.042 553.658 681.359 553.569C681.688 553.468 681.973 553.341 682.214 553.189C682.455 553.024 682.638 552.834 682.765 552.619C682.904 552.391 682.974 552.15 682.974 551.897V550.282H680.884C679.972 550.282 679.307 550.409 678.889 550.662C678.471 550.915 678.262 551.283 678.262 551.764V552.163C678.262 552.67 678.439 553.056 678.794 553.322C679.161 553.575 679.662 553.702 680.295 553.702ZM703.593 554.975C702.567 554.975 701.681 554.804 700.933 554.462C700.199 554.107 699.572 553.639 699.052 553.056L700.078 552.163C700.547 552.657 701.06 553.037 701.617 553.303C702.175 553.569 702.846 553.702 703.631 553.702C704.391 553.702 705.012 553.569 705.493 553.303C705.987 553.024 706.234 552.594 706.234 552.011C706.234 551.758 706.184 551.549 706.082 551.384C705.994 551.207 705.867 551.067 705.702 550.966C705.538 550.865 705.354 550.789 705.151 550.738C704.949 550.675 704.733 550.624 704.505 550.586L702.966 550.358C702.624 550.307 702.251 550.238 701.845 550.149C701.453 550.06 701.092 549.921 700.762 549.731C700.433 549.528 700.154 549.262 699.926 548.933C699.711 548.604 699.603 548.173 699.603 547.641C699.603 547.147 699.698 546.723 699.888 546.368C700.091 546.001 700.37 545.697 700.724 545.456C701.079 545.203 701.497 545.019 701.978 544.905C702.46 544.778 702.985 544.715 703.555 544.715C704.442 544.715 705.208 544.854 705.854 545.133C706.513 545.412 707.077 545.798 707.545 546.292L706.557 547.223C706.443 547.084 706.298 546.944 706.12 546.805C705.956 546.653 705.747 546.52 705.493 546.406C705.253 546.279 704.968 546.178 704.638 546.102C704.309 546.026 703.929 545.988 703.498 545.988C702.726 545.988 702.13 546.121 701.712 546.387C701.307 546.653 701.104 547.039 701.104 547.546C701.104 547.799 701.149 548.015 701.237 548.192C701.339 548.357 701.472 548.49 701.636 548.591C701.801 548.692 701.985 548.775 702.187 548.838C702.403 548.889 702.618 548.933 702.833 548.971L704.372 549.199C704.727 549.25 705.101 549.319 705.493 549.408C705.886 549.497 706.247 549.642 706.576 549.845C706.906 550.035 707.178 550.295 707.393 550.624C707.621 550.953 707.735 551.384 707.735 551.916C707.735 552.891 707.355 553.645 706.595 554.177C705.848 554.709 704.847 554.975 703.593 554.975ZM714.663 554.975C713.979 554.975 713.358 554.855 712.801 554.614C712.256 554.373 711.787 554.031 711.395 553.588C711.015 553.132 710.723 552.594 710.521 551.973C710.318 551.34 710.217 550.63 710.217 549.845C710.217 549.072 710.318 548.369 710.521 547.736C710.723 547.103 711.015 546.564 711.395 546.121C711.787 545.665 712.256 545.317 712.801 545.076C713.358 544.835 713.979 544.715 714.663 544.715C715.347 544.715 715.961 544.835 716.506 545.076C717.063 545.317 717.532 545.665 717.912 546.121C718.304 546.564 718.602 547.103 718.805 547.736C719.007 548.369 719.109 549.072 719.109 549.845C719.109 550.63 719.007 551.34 718.805 551.973C718.602 552.594 718.304 553.132 717.912 553.588C717.532 554.031 717.063 554.373 716.506 554.614C715.961 554.855 715.347 554.975 714.663 554.975ZM714.663 553.664C715.511 553.664 716.195 553.411 716.715 552.904C717.234 552.397 717.494 551.612 717.494 550.548V549.142C717.494 548.078 717.234 547.293 716.715 546.786C716.195 546.279 715.511 546.026 714.663 546.026C713.814 546.026 713.13 546.279 712.611 546.786C712.091 547.293 711.832 548.078 711.832 549.142V550.548C711.832 551.612 712.091 552.397 712.611 552.904C713.13 553.411 713.814 553.664 714.663 553.664ZM721.666 553.455H725.086V541.979H721.666V540.687H726.606V553.455H730.026V554.747H721.666V553.455ZM737.638 542.777C737.195 542.777 736.884 542.688 736.707 542.511C736.53 542.321 736.441 542.087 736.441 541.808V541.504C736.441 541.225 736.53 540.997 736.707 540.82C736.884 540.63 737.195 540.535 737.638 540.535C738.081 540.535 738.392 540.63 738.569 540.82C738.746 540.997 738.835 541.225 738.835 541.504V541.808C738.835 542.087 738.746 542.321 738.569 542.511C738.392 542.688 738.081 542.777 737.638 542.777ZM733.344 553.455H736.878V546.235H733.344V544.943H738.398V553.455H741.704V554.747H733.344V553.455ZM750.588 553.151H750.512C749.879 554.367 748.872 554.975 747.491 554.975C746.288 554.975 745.344 554.525 744.66 553.626C743.989 552.727 743.653 551.466 743.653 549.845C743.653 548.224 743.989 546.963 744.66 546.064C745.344 545.165 746.288 544.715 747.491 544.715C748.872 544.715 749.879 545.323 750.512 546.539H750.588V540.687H752.108V554.747H750.588V553.151ZM748.08 553.626C748.422 553.626 748.745 553.582 749.049 553.493C749.353 553.404 749.619 553.278 749.847 553.113C750.075 552.936 750.253 552.727 750.379 552.486C750.519 552.233 750.588 551.941 750.588 551.612V548.078C750.588 547.749 750.519 547.464 750.379 547.223C750.253 546.97 750.075 546.761 749.847 546.596C749.619 546.419 749.353 546.286 749.049 546.197C748.745 546.108 748.422 546.064 748.08 546.064C747.194 546.064 746.503 546.336 746.009 546.881C745.528 547.413 745.287 548.122 745.287 549.009V550.681C745.287 551.568 745.528 552.283 746.009 552.828C746.503 553.36 747.194 553.626 748.08 553.626ZM760.005 542.777C759.562 542.777 759.251 542.688 759.074 542.511C758.897 542.321 758.808 542.087 758.808 541.808V541.504C758.808 541.225 758.897 540.997 759.074 540.82C759.251 540.63 759.562 540.535 760.005 540.535C760.448 540.535 760.759 540.63 760.936 540.82C761.113 540.997 761.202 541.225 761.202 541.504V541.808C761.202 542.087 761.113 542.321 760.936 542.511C760.759 542.688 760.448 542.777 760.005 542.777ZM755.711 553.455H759.245V546.235H755.711V544.943H760.765V553.455H764.071V554.747H755.711V553.455ZM771.056 554.747C770.308 554.747 769.757 554.538 769.403 554.12C769.061 553.702 768.89 553.164 768.89 552.505V546.235H765.622V544.943H768.054C768.383 544.943 768.611 544.88 768.738 544.753C768.877 544.614 768.947 544.379 768.947 544.05V541.485H770.41V544.943H774.875V546.235H770.41V553.455H774.875V554.747H771.056ZM784.937 544.943H786.457L781.593 556.894C781.479 557.173 781.353 557.413 781.213 557.616C781.074 557.831 780.909 558.002 780.719 558.129C780.529 558.268 780.301 558.37 780.035 558.433C779.769 558.509 779.453 558.547 779.085 558.547H777.641V557.255H779.921L781.023 554.557L777.071 544.943H778.629L780.282 549.047L781.745 552.771H781.821L783.284 549.047L784.937 544.943ZM807.722 549.294L804.131 542.796H804.055L800.464 549.294L799.286 548.705L803.276 541.485H804.986L808.976 548.705L807.722 549.294ZM815.315 554.975C814.504 554.975 813.808 554.823 813.225 554.519C812.642 554.202 812.161 553.753 811.781 553.17C811.401 552.587 811.122 551.872 810.945 551.023C810.768 550.174 810.679 549.205 810.679 548.116C810.679 547.039 810.768 546.077 810.945 545.228C811.122 544.367 811.401 543.645 811.781 543.062C812.161 542.479 812.642 542.036 813.225 541.732C813.808 541.415 814.504 541.257 815.315 541.257C816.126 541.257 816.822 541.415 817.405 541.732C817.988 542.036 818.469 542.479 818.849 543.062C819.229 543.645 819.508 544.367 819.685 545.228C819.862 546.077 819.951 547.039 819.951 548.116C819.951 549.205 819.862 550.174 819.685 551.023C819.508 551.872 819.229 552.587 818.849 553.17C818.469 553.753 817.988 554.202 817.405 554.519C816.822 554.823 816.126 554.975 815.315 554.975ZM815.315 553.588C815.847 553.588 816.303 553.487 816.683 553.284C817.063 553.069 817.367 552.771 817.595 552.391C817.836 552.011 818.013 551.555 818.127 551.023C818.241 550.478 818.298 549.87 818.298 549.199V547.033C818.298 546.374 818.241 545.773 818.127 545.228C818.013 544.683 817.836 544.221 817.595 543.841C817.367 543.461 817.063 543.17 816.683 542.967C816.303 542.752 815.847 542.644 815.315 542.644C814.783 542.644 814.327 542.752 813.947 542.967C813.567 543.17 813.257 543.461 813.016 543.841C812.788 544.221 812.617 544.683 812.503 545.228C812.389 545.773 812.332 546.374 812.332 547.033V549.199C812.332 549.87 812.389 550.478 812.503 551.023C812.617 551.555 812.788 552.011 813.016 552.391C813.257 552.771 813.567 553.069 813.947 553.284C814.327 553.487 814.783 553.588 815.315 553.588ZM815.315 549.237C814.872 549.237 814.561 549.148 814.384 548.971C814.219 548.794 814.137 548.578 814.137 548.325V547.907C814.137 547.654 814.219 547.438 814.384 547.261C814.561 547.084 814.872 546.995 815.315 546.995C815.758 546.995 816.062 547.084 816.227 547.261C816.404 547.438 816.493 547.654 816.493 547.907V548.325C816.493 548.578 816.404 548.794 816.227 548.971C816.062 549.148 815.758 549.237 815.315 549.237ZM826.499 554.918C825.979 554.918 825.612 554.81 825.397 554.595C825.194 554.38 825.093 554.107 825.093 553.778V553.436C825.093 553.107 825.194 552.834 825.397 552.619C825.612 552.404 825.979 552.296 826.499 552.296C827.018 552.296 827.379 552.404 827.582 552.619C827.797 552.834 827.905 553.107 827.905 553.436V553.778C827.905 554.107 827.797 554.38 827.582 554.595C827.379 554.81 827.018 554.918 826.499 554.918ZM837.682 554.975C836.909 554.975 836.232 554.88 835.649 554.69C835.066 554.487 834.579 554.215 834.186 553.873C833.806 553.531 833.515 553.126 833.312 552.657C833.122 552.188 833.027 551.682 833.027 551.137C833.027 550.225 833.274 549.503 833.768 548.971C834.262 548.439 834.914 548.065 835.725 547.85V547.698C835.016 547.457 834.452 547.071 834.034 546.539C833.629 545.994 833.426 545.342 833.426 544.582C833.426 543.569 833.8 542.764 834.547 542.169C835.294 541.561 836.339 541.257 837.682 541.257C839.025 541.257 840.07 541.561 840.817 542.169C841.564 542.764 841.938 543.569 841.938 544.582C841.938 545.342 841.729 545.994 841.311 546.539C840.906 547.071 840.348 547.457 839.639 547.698V547.85C840.45 548.065 841.102 548.439 841.596 548.971C842.09 549.503 842.337 550.225 842.337 551.137C842.337 551.682 842.236 552.188 842.033 552.657C841.843 553.126 841.552 553.531 841.159 553.873C840.766 554.215 840.279 554.487 839.696 554.69C839.126 554.88 838.455 554.975 837.682 554.975ZM837.682 553.626C838.619 553.626 839.354 553.417 839.886 552.999C840.418 552.581 840.684 551.992 840.684 551.232V550.814C840.684 550.054 840.418 549.465 839.886 549.047C839.367 548.629 838.632 548.42 837.682 548.42C836.732 548.42 835.991 548.629 835.459 549.047C834.94 549.465 834.68 550.054 834.68 550.814V551.232C834.68 551.992 834.946 552.581 835.478 552.999C836.01 553.417 836.745 553.626 837.682 553.626ZM837.682 547.128C838.543 547.128 839.196 546.944 839.639 546.577C840.095 546.21 840.323 545.684 840.323 545V544.734C840.323 544.05 840.089 543.524 839.62 543.157C839.164 542.79 838.518 542.606 837.682 542.606C836.846 542.606 836.194 542.79 835.725 543.157C835.269 543.524 835.041 544.05 835.041 544.734V545C835.041 545.684 835.263 546.21 835.706 546.577C836.162 546.944 836.821 547.128 837.682 547.128ZM848.866 554.918C848.346 554.918 847.979 554.81 847.764 554.595C847.561 554.38 847.46 554.107 847.46 553.778V553.436C847.46 553.107 847.561 552.834 847.764 552.619C847.979 552.404 848.346 552.296 848.866 552.296C849.385 552.296 849.746 552.404 849.949 552.619C850.164 552.834 850.272 553.107 850.272 553.436V553.778C850.272 554.107 850.164 554.38 849.949 554.595C849.746 554.81 849.385 554.918 848.866 554.918ZM859.479 547.109C860.404 547.109 861.094 546.906 861.55 546.501C862.019 546.083 862.253 545.551 862.253 544.905V544.772C862.253 544.063 862.025 543.531 861.569 543.176C861.126 542.821 860.543 542.644 859.821 542.644C859.112 542.644 858.536 542.802 858.092 543.119C857.662 543.423 857.307 543.828 857.028 544.335L855.831 543.423C855.996 543.157 856.199 542.897 856.439 542.644C856.68 542.378 856.959 542.144 857.275 541.941C857.605 541.738 857.978 541.574 858.396 541.447C858.827 541.32 859.315 541.257 859.859 541.257C860.429 541.257 860.961 541.333 861.455 541.485C861.949 541.624 862.38 541.84 862.747 542.131C863.115 542.41 863.4 542.758 863.602 543.176C863.818 543.594 863.925 544.069 863.925 544.601C863.925 545.032 863.856 545.418 863.716 545.76C863.59 546.102 863.406 546.4 863.165 546.653C862.937 546.906 862.665 547.122 862.348 547.299C862.032 547.476 861.696 547.609 861.341 547.698V547.774C861.709 547.85 862.063 547.977 862.405 548.154C862.747 548.319 863.051 548.54 863.317 548.819C863.583 549.085 863.792 549.414 863.944 549.807C864.109 550.187 864.191 550.624 864.191 551.118C864.191 551.688 864.077 552.214 863.849 552.695C863.634 553.164 863.324 553.569 862.918 553.911C862.526 554.24 862.044 554.5 861.474 554.69C860.917 554.88 860.296 554.975 859.612 554.975C859.03 554.975 858.51 554.912 858.054 554.785C857.611 554.658 857.212 554.487 856.857 554.272C856.515 554.057 856.211 553.816 855.945 553.55C855.692 553.284 855.464 553.005 855.261 552.714L856.458 551.802C856.636 552.068 856.819 552.309 857.009 552.524C857.199 552.739 857.415 552.929 857.655 553.094C857.909 553.246 858.194 553.366 858.51 553.455C858.827 553.544 859.194 553.588 859.612 553.588C860.55 553.588 861.265 553.373 861.759 552.942C862.266 552.511 862.519 551.897 862.519 551.099V550.947C862.519 550.162 862.272 549.554 861.778 549.123C861.297 548.692 860.569 548.477 859.593 548.477H858.016V547.109H859.479ZM870.416 552.163H872.867L870.682 557.426H869.409L870.416 552.163ZM871.233 547.394C870.714 547.394 870.346 547.286 870.131 547.071C869.928 546.856 869.827 546.583 869.827 546.254V545.912C869.827 545.583 869.928 545.31 870.131 545.095C870.346 544.88 870.714 544.772 871.233 544.772C871.752 544.772 872.113 544.88 872.316 545.095C872.531 545.31 872.639 545.583 872.639 545.912V546.254C872.639 546.583 872.531 546.856 872.316 547.071C872.113 547.286 871.752 547.394 871.233 547.394Z" fill="white"/>
<path d="M595.049 554.747V553.36H598.849V542.663H598.716L595.372 545.779L594.441 544.772L597.956 541.485H600.445V553.36H603.941V554.747H595.049Z" fill="white"/>
<path opacity="0.65" d="M936.562 502.172H571.43C562.593 502.172 555.43 509.335 555.43 518.172V777.285L572.26 766.033L936.562 522.687V502.172Z" fill="white" fill-opacity="0.25"/>
<g filter="url(#filter0_d_207_28039)">
<rect x="525" y="887.808" width="348.9" height="148.019" rx="14" fill="#D7D6DC" stroke="black" stroke-width="4"/>
<rect x="532.342" y="898.865" width="26.6262" height="15.6689" rx="2.5" fill="white" stroke="black" stroke-width="3"/>
<rect x="532.342" y="943.315" width="26.6262" height="15.6689" rx="2.5" fill="white" stroke="black" stroke-width="3"/>
<rect x="532.342" y="987.764" width="23.1408" height="15.6689" rx="2.5" fill="white" stroke="black" stroke-width="3"/>
<rect x="532.344" y="965.539" width="37.0825" height="15.6689" rx="2.5" fill="white" stroke="black" stroke-width="3"/>
<rect x="837.316" y="921.089" width="26.6262" height="15.6689" rx="2.5" fill="white" stroke="black" stroke-width="3"/>
<rect x="823.377" y="987.764" width="40.5679" height="15.6689" rx="2.5" fill="white" stroke="black" stroke-width="3"/>
<rect x="565.453" y="898.865" width="15.2985" height="15.6689" rx="2.5" fill="white" stroke="black" stroke-width="3"/>
<rect x="575.91" y="965.539" width="15.2985" height="15.6689" rx="2.5" fill="white" stroke="black" stroke-width="3"/>
<rect x="561.969" y="987.764" width="15.2985" height="15.6689" rx="2.5" fill="white" stroke="black" stroke-width="3"/>
<rect x="565.453" y="943.314" width="15.2985" height="15.6689" rx="2.5" fill="white" stroke="black" stroke-width="3"/>
<rect x="532.342" y="921.089" width="15.2985" height="15.6689" rx="2.5" fill="white" stroke="black" stroke-width="3"/>
<rect x="554.125" y="921.089" width="15.2985" height="15.6689" rx="2.5" fill="white" stroke="black" stroke-width="3"/>
<rect x="575.91" y="921.089" width="15.2985" height="15.6689" rx="2.5" fill="white" stroke="black" stroke-width="3"/>
<rect x="597.695" y="921.089" width="15.2985" height="15.6689" rx="2.5" fill="white" stroke="black" stroke-width="3"/>
<rect x="619.477" y="921.089" width="15.2985" height="15.6689" rx="2.5" fill="white" stroke="black" stroke-width="3"/>
<rect x="641.262" y="921.089" width="15.2985" height="15.6689" rx="2.5" fill="white" stroke="black" stroke-width="3"/>
<rect x="663.047" y="921.089" width="15.2985" height="15.6689" rx="2.5" fill="white" stroke="black" stroke-width="3"/>
<rect x="684.83" y="921.089" width="15.2985" height="15.6689" rx="2.5" fill="white" stroke="black" stroke-width="3"/>
<rect x="706.613" y="921.089" width="15.2985" height="15.6689" rx="2.5" fill="white" stroke="black" stroke-width="3"/>
<rect x="728.398" y="921.089" width="15.2985" height="15.6689" rx="2.5" fill="white" stroke="black" stroke-width="3"/>
<rect x="750.182" y="921.089" width="15.2985" height="15.6689" rx="2.5" fill="white" stroke="black" stroke-width="3"/>
<rect x="771.965" y="921.089" width="15.2985" height="15.6689" rx="2.5" fill="white" stroke="black" stroke-width="3"/>
<rect x="793.75" y="921.089" width="15.2985" height="15.6689" rx="2.5" fill="white" stroke="black" stroke-width="3"/>
<rect x="587.238" y="898.865" width="15.2985" height="15.6689" rx="2.5" fill="white" stroke="black" stroke-width="3"/>
<rect x="597.695" y="965.54" width="15.2985" height="15.6689" rx="2.5" fill="white" stroke="black" stroke-width="3"/>
<rect x="583.754" y="987.764" width="15.2985" height="15.6689" rx="2.5" fill="white" stroke="black" stroke-width="3"/>
<rect x="609.021" y="898.865" width="15.2985" height="15.6689" rx="2.5" fill="white" stroke="black" stroke-width="3"/>
<rect x="619.477" y="965.54" width="15.2985" height="15.6689" rx="2.5" fill="white" stroke="black" stroke-width="3"/>
<rect x="605.535" y="987.764" width="15.2985" height="15.6689" rx="2.5" fill="white" stroke="black" stroke-width="3"/>
<rect x="630.805" y="898.865" width="15.2985" height="15.6689" rx="2.5" fill="white" stroke="black" stroke-width="3"/>
<rect x="641.262" y="965.54" width="15.2985" height="15.6689" rx="2.5" fill="white" stroke="black" stroke-width="3"/>
<rect x="627.32" y="987.764" width="15.2985" height="15.6689" rx="2.5" fill="white" stroke="black" stroke-width="3"/>
<rect x="652.59" y="898.865" width="15.2985" height="15.6689" rx="2.5" fill="white" stroke="black" stroke-width="3"/>
<rect x="663.047" y="965.54" width="15.2985" height="15.6689" rx="2.5" fill="white" stroke="black" stroke-width="3"/>
<rect x="649.105" y="987.764" width="15.2985" height="15.6689" rx="2.5" fill="white" stroke="black" stroke-width="3"/>
<rect x="674.375" y="898.865" width="15.2985" height="15.6689" rx="2.5" fill="white" stroke="black" stroke-width="3"/>
<rect x="684.83" y="965.539" width="15.2985" height="15.6689" rx="2.5" fill="white" stroke="black" stroke-width="3"/>
<rect x="670.889" y="987.764" width="15.2985" height="15.6689" rx="2.5" fill="white" stroke="black" stroke-width="3"/>
<rect x="696.156" y="898.865" width="15.2985" height="15.6689" rx="2.5" fill="white" stroke="black" stroke-width="3"/>
<rect x="706.613" y="965.539" width="15.2985" height="15.6689" rx="2.5" fill="white" stroke="black" stroke-width="3"/>
<rect x="692.672" y="987.764" width="15.2985" height="15.6689" rx="2.5" fill="white" stroke="black" stroke-width="3"/>
<rect x="717.941" y="898.865" width="15.2985" height="15.6689" rx="2.5" fill="white" stroke="black" stroke-width="3"/>
<rect x="728.398" y="965.539" width="15.2985" height="15.6689" rx="2.5" fill="white" stroke="black" stroke-width="3"/>
<rect x="714.457" y="987.764" width="15.2985" height="15.6689" rx="2.5" fill="white" stroke="black" stroke-width="3"/>
<rect x="739.727" y="898.865" width="15.2985" height="15.6689" rx="2.5" fill="white" stroke="black" stroke-width="3"/>
<rect x="750.182" y="965.54" width="15.2985" height="15.6689" rx="2.5" fill="white" stroke="black" stroke-width="3"/>
<rect x="736.24" y="987.764" width="15.2985" height="15.6689" rx="2.5" fill="white" stroke="black" stroke-width="3"/>
<rect x="761.51" y="898.865" width="15.2985" height="15.6689" rx="2.5" fill="white" stroke="black" stroke-width="3"/>
<rect x="771.965" y="965.539" width="15.2985" height="15.6689" rx="2.5" fill="white" stroke="black" stroke-width="3"/>
<rect x="758.023" y="987.764" width="15.2985" height="15.6689" rx="2.5" fill="white" stroke="black" stroke-width="3"/>
<rect x="783.293" y="898.865" width="15.2985" height="15.6689" rx="2.5" fill="white" stroke="black" stroke-width="3"/>
<rect x="793.75" y="965.54" width="15.2985" height="15.6689" rx="2.5" fill="white" stroke="black" stroke-width="3"/>
<rect x="779.809" y="987.764" width="15.2985" height="15.6689" rx="2.5" fill="white" stroke="black" stroke-width="3"/>
<rect x="801.592" y="987.764" width="15.2985" height="15.6689" rx="2.5" fill="white" stroke="black" stroke-width="3"/>
<rect x="805.078" y="898.865" width="15.2985" height="15.6689" rx="2.5" fill="white" stroke="black" stroke-width="3"/>
<rect x="815.535" y="965.54" width="15.2985" height="15.6689" rx="2.5" fill="white" stroke="black" stroke-width="3"/>
<rect x="826.861" y="898.865" width="15.2985" height="15.6689" rx="2.5" fill="white" stroke="black" stroke-width="3"/>
<rect x="837.316" y="965.54" width="15.2985" height="15.6689" rx="2.5" fill="white" stroke="black" stroke-width="3"/>
<rect x="815.535" y="921.089" width="15.2985" height="15.6689" rx="2.5" fill="white" stroke="black" stroke-width="3"/>
<rect x="587.238" y="943.315" width="15.2985" height="15.6689" rx="2.5" fill="white" stroke="black" stroke-width="3"/>
<rect x="609.021" y="943.315" width="15.2985" height="15.6689" rx="2.5" fill="white" stroke="black" stroke-width="3"/>
<rect x="630.805" y="943.315" width="15.2985" height="15.6689" rx="2.5" fill="white" stroke="black" stroke-width="3"/>
<rect x="652.59" y="943.315" width="15.2985" height="15.6689" rx="2.5" fill="white" stroke="black" stroke-width="3"/>
<rect x="674.375" y="943.315" width="15.2985" height="15.6689" rx="2.5" fill="white" stroke="black" stroke-width="3"/>
<rect x="696.156" y="943.315" width="15.2985" height="15.6689" rx="2.5" fill="white" stroke="black" stroke-width="3"/>
<rect x="717.941" y="943.315" width="15.2985" height="15.6689" rx="2.5" fill="white" stroke="black" stroke-width="3"/>
<rect x="739.727" y="943.314" width="15.2985" height="15.6689" rx="2.5" fill="white" stroke="black" stroke-width="3"/>
<rect x="761.51" y="943.315" width="15.2985" height="15.6689" rx="2.5" fill="white" stroke="black" stroke-width="3"/>
<rect x="783.293" y="943.315" width="15.2985" height="15.6689" rx="2.5" fill="white" stroke="black" stroke-width="3"/>
<rect x="805.078" y="943.315" width="15.2985" height="15.6689" rx="2.5" fill="white" stroke="black" stroke-width="3"/>
<rect x="826.861" y="943.315" width="15.2985" height="15.6689" rx="2.5" fill="white" stroke="black" stroke-width="3"/>
<mask id="path-83-inside-1_207_28039" fill="white">
<path fill-rule="evenodd" clip-rule="evenodd" d="M851.145 941.814C848.935 941.814 847.145 943.605 847.145 945.814V956.483C847.145 958.693 848.935 960.483 851.145 960.483H856.73V978.708C856.73 980.917 858.521 982.708 860.73 982.708H861.444C863.653 982.708 865.444 980.917 865.444 978.708V956.482C865.444 956.452 865.444 956.422 865.443 956.392V945.814C865.443 943.605 863.652 941.814 861.443 941.814H851.145Z"/>
</mask>
<path fill-rule="evenodd" clip-rule="evenodd" d="M851.145 941.814C848.935 941.814 847.145 943.605 847.145 945.814V956.483C847.145 958.693 848.935 960.483 851.145 960.483H856.73V978.708C856.73 980.917 858.521 982.708 860.73 982.708H861.444C863.653 982.708 865.444 980.917 865.444 978.708V956.482C865.444 956.452 865.444 956.422 865.443 956.392V945.814C865.443 943.605 863.652 941.814 861.443 941.814H851.145Z" fill="white"/>
<path d="M856.73 960.483H859.73V957.483H856.73V960.483ZM865.443 956.392H862.443V956.426L862.444 956.459L865.443 956.392ZM850.145 945.814C850.145 945.262 850.592 944.814 851.145 944.814V938.814C847.279 938.814 844.145 941.948 844.145 945.814H850.145ZM850.145 956.483V945.814H844.145V956.483H850.145ZM851.145 957.483C850.592 957.483 850.145 957.036 850.145 956.483H844.145C844.145 960.349 847.279 963.483 851.145 963.483V957.483ZM856.73 957.483H851.145V963.483H856.73V957.483ZM859.73 978.708V960.483H853.73V978.708H859.73ZM860.73 979.708C860.178 979.708 859.73 979.261 859.73 978.708H853.73C853.73 982.574 856.864 985.708 860.73 985.708V979.708ZM861.444 979.708H860.73V985.708H861.444V979.708ZM862.444 978.708C862.444 979.261 861.996 979.708 861.444 979.708V985.708C865.31 985.708 868.444 982.574 868.444 978.708H862.444ZM862.444 956.482V978.708H868.444V956.482H862.444ZM862.444 956.459C862.444 956.466 862.444 956.474 862.444 956.482H868.444C868.444 956.43 868.443 956.378 868.442 956.326L862.444 956.459ZM862.443 945.814V956.392H868.443V945.814H862.443ZM861.443 944.814C861.995 944.814 862.443 945.262 862.443 945.814H868.443C868.443 941.948 865.309 938.814 861.443 938.814V944.814ZM851.145 944.814H861.443V938.814H851.145V944.814Z" fill="black" mask="url(#path-83-inside-1_207_28039)"/>
<rect x="848.645" y="898.865" width="15.2985" height="15.6689" rx="2.5" fill="white" stroke="black" stroke-width="3"/>
</g>
</g>
<defs>
<filter id="filter0_d_207_28039" x="518" y="885.808" width="360.9" height="163.019" filterUnits="userSpaceOnUse" color-interpolation-filters="sRGB">
<feFlood flood-opacity="0" result="BackgroundImageFix"/>
<feColorMatrix in="SourceAlpha" type="matrix" values="0 0 0 0 0 0 0 0 0 0 0 0 0 0 0 0 0 0 127 0" result="hardAlpha"/>
<feOffset dx="-1" dy="7"/>
<feGaussianBlur stdDeviation="2"/>
<feComposite in2="hardAlpha" operator="out"/>
<feColorMatrix type="matrix" values="0 0 0 0 0 0 0 0 0 0 0 0 0 0 0 0 0 0 0.25 0"/>
<feBlend mode="normal" in2="BackgroundImageFix" result="effect1_dropShadow_207_28039"/>
<feBlend mode="normal" in="SourceGraphic" in2="effect1_dropShadow_207_28039" result="shape"/>
</filter>
<clipPath id="clip0_207_28039">
<rect width="1000" height="1000" fill="white"/>
</clipPath>
</defs>
</svg>
