<svg width="1000" height="1000" viewBox="0 0 1000 1000" fill="none" xmlns="http://www.w3.org/2000/svg">
<path d="M458.526 432.283C438.92 432.283 423.026 442.708 423.026 455.567C423.026 468.427 438.92 450.568 458.526 450.568C478.132 450.568 494.026 468.427 494.026 455.567C494.026 442.708 478.132 432.283 458.526 432.283Z" fill="black"/>
<path d="M518.624 398.898C509.374 387.131 480.258 362.688 437.797 359.055" stroke="black" stroke-width="14" stroke-linecap="round"/>
<path d="M513.286 484.709C515.287 492.178 510.855 499.855 503.387 501.856C495.918 503.858 488.242 499.425 486.24 491.956C485.764 490.18 485.701 487.27 486.021 483.69C486.336 480.174 486.997 476.225 487.829 472.493C488.662 468.757 489.653 465.297 490.607 462.751C491.087 461.47 491.535 460.484 491.919 459.825C491.97 459.738 492.018 459.66 492.062 459.591C492.134 459.628 492.215 459.672 492.303 459.722C492.965 460.101 493.846 460.731 494.902 461.6C497.001 463.328 499.589 465.83 502.179 468.649C504.765 471.464 507.313 474.553 509.343 477.441C511.41 480.382 512.81 482.933 513.286 484.709ZM492.384 459.168C492.384 459.169 492.379 459.174 492.367 459.183C492.379 459.172 492.384 459.168 492.384 459.168ZM491.593 459.391C491.579 459.388 491.572 459.386 491.571 459.386C491.571 459.386 491.578 459.387 491.593 459.391Z" fill="#88C9F9" stroke="black" stroke-width="4"/>
<path d="M503.24 501.896C510.791 499.873 515.21 491.892 513.113 484.066C511.017 476.243 494.586 458.662 491.852 459.395C489.118 460.128 500.182 479.143 502.279 486.969C504.376 494.795 495.689 503.919 503.24 501.896Z" fill="black" fill-opacity="0.25"/>
<path d="M334.526 432.283C314.92 432.283 299.026 442.708 299.026 455.567C299.026 468.427 314.92 449.568 334.526 449.568C354.132 449.568 370.026 468.427 370.026 455.567C370.026 442.708 354.132 432.283 334.526 432.283Z" fill="black"/>
<path d="M284.306 398.898C293.557 387.131 322.673 362.688 365.133 359.055" stroke="black" stroke-width="14" stroke-linecap="round"/>
<path d="M305.119 492.632C303.117 500.102 295.44 504.534 287.972 502.533C280.503 500.532 276.071 492.855 278.073 485.386C278.549 483.61 279.949 481.058 282.016 478.118C284.046 475.23 286.594 472.141 289.18 469.325C291.77 466.506 294.358 464.005 296.457 462.277C297.513 461.408 298.394 460.778 299.056 460.399C299.144 460.349 299.224 460.305 299.297 460.268C299.341 460.336 299.389 460.414 299.44 460.502C299.824 461.161 300.272 462.147 300.752 463.428C301.706 465.974 302.696 469.434 303.529 473.17C304.361 476.902 305.023 480.851 305.338 484.367C305.658 487.947 305.595 490.857 305.119 492.632ZM299.787 460.063C299.787 460.063 299.78 460.065 299.766 460.067C299.781 460.063 299.788 460.062 299.787 460.063ZM298.991 459.86C298.98 459.851 298.975 459.845 298.975 459.845C298.975 459.844 298.98 459.849 298.991 459.86Z" fill="#88C9F9" stroke="black" stroke-width="4"/>
<path d="M287.825 502.494C295.376 504.517 303.194 499.816 305.291 491.99C307.387 484.166 301.948 460.726 299.213 459.993C296.479 459.26 296.553 481.261 294.456 489.087C292.359 496.913 280.274 500.471 287.825 502.494Z" fill="black" fill-opacity="0.25"/>
</svg>
