<svg width="1000" height="1000" viewBox="0 0 1000 1000" fill="none" xmlns="http://www.w3.org/2000/svg">
<path d="M786.87 150.998C770.927 141 756.886 124.265 750.529 96.964C773.895 83.1107 799.39 68.3168 820.942 58.5831C832.123 53.5333 842.006 49.9564 849.849 48.5207C857.99 47.0306 862.508 48.0983 864.628 50.2848C867.116 52.85 868.637 57.8063 868.466 65.6868C868.298 73.3934 866.531 83.047 863.477 93.9872C857.56 115.186 847.013 140.524 835.034 164.499C820.412 164.31 802.592 160.856 786.87 150.998Z" fill="#5F3016" stroke="black" stroke-width="8"/>
<path d="M779.5 146.5C813.5 102.5 852.954 32.5002 867.5 47.5002C882.046 62.5001 862.5 119 837.5 168.5C806.321 168.864 796.5 165.5 779.5 146.5Z" fill="black" fill-opacity="0.25"/>
<path d="M210.618 151.167C226.561 141.169 240.602 124.435 246.959 97.1334C223.594 83.2801 198.099 68.4862 176.547 58.7525C165.366 53.7027 155.482 50.1258 147.639 48.6902C139.498 47.2 134.98 48.2677 132.86 50.4542C130.372 53.0194 128.852 57.9758 129.023 65.8562C129.19 73.5629 130.957 83.2164 134.011 94.1567C139.928 115.355 150.476 140.694 162.455 164.668C177.076 164.479 194.897 161.025 210.618 151.167Z" fill="#5F3016" stroke="black" stroke-width="8"/>
<path d="M221.98 146.5C187.98 102.5 148.527 32.5002 133.98 47.5002C119.434 62.5001 138.98 119 163.98 168.5C195.16 168.864 204.98 165.5 221.98 146.5Z" fill="black" fill-opacity="0.25"/>
<mask id="path-5-inside-1_820_34272" fill="white">
<path fill-rule="evenodd" clip-rule="evenodd" d="M247.804 652C185.35 593.615 168.002 511.743 168.002 421.1C168.002 367.482 181.589 316.934 205.616 272.5C213.073 258.71 199.526 224.117 185.849 189.192C170.813 150.797 155.621 112 168.003 100C182.314 86.1311 225.246 100.073 267.613 113.832C305.08 125.999 342.106 138.023 358.502 130.541C401.426 110.953 449.392 100 500.002 100C550.612 100 598.577 110.953 641.502 130.541C657.898 138.023 694.923 125.999 732.391 113.832C774.758 100.073 817.691 86.1309 832.002 100C844.384 112 829.191 150.797 814.155 189.192C800.477 224.117 786.93 258.71 794.387 272.5C818.414 316.934 832.002 367.482 832.002 421.1C832.002 511.743 812.607 593.615 750.153 652C620.001 716 287.918 689.5 247.804 652ZM386.002 453C386.002 475.092 368.093 493 346.002 493C323.91 493 306.002 475.092 306.002 453C306.002 430.909 323.91 413 346.002 413C368.093 413 386.002 430.909 386.002 453ZM498.002 453C498.002 475.092 479.869 493 457.502 493C435.134 493 417.002 475.092 417.002 453C417.002 430.909 435.134 413 457.502 413C479.869 413 498.002 430.909 498.002 453Z"/>
</mask>
<path fill-rule="evenodd" clip-rule="evenodd" d="M247.804 652C185.35 593.615 168.002 511.743 168.002 421.1C168.002 367.482 181.589 316.934 205.616 272.5C213.073 258.71 199.526 224.117 185.849 189.192C170.813 150.797 155.621 112 168.003 100C182.314 86.1311 225.246 100.073 267.613 113.832C305.08 125.999 342.106 138.023 358.502 130.541C401.426 110.953 449.392 100 500.002 100C550.612 100 598.577 110.953 641.502 130.541C657.898 138.023 694.923 125.999 732.391 113.832C774.758 100.073 817.691 86.1309 832.002 100C844.384 112 829.191 150.797 814.155 189.192C800.477 224.117 786.93 258.71 794.387 272.5C818.414 316.934 832.002 367.482 832.002 421.1C832.002 511.743 812.607 593.615 750.153 652C620.001 716 287.918 689.5 247.804 652ZM386.002 453C386.002 475.092 368.093 493 346.002 493C323.91 493 306.002 475.092 306.002 453C306.002 430.909 323.91 413 346.002 413C368.093 413 386.002 430.909 386.002 453ZM498.002 453C498.002 475.092 479.869 493 457.502 493C435.134 493 417.002 475.092 417.002 453C417.002 430.909 435.134 413 457.502 413C479.869 413 498.002 430.909 498.002 453Z" fill="#FFC700"/>
<path d="M247.804 652L253.268 646.156V646.156L247.804 652ZM205.616 272.5L212.654 276.305L205.616 272.5ZM185.849 189.192L178.4 192.109V192.109L185.849 189.192ZM168.003 100L173.57 105.745L168.003 100ZM267.613 113.832L265.142 121.441L267.613 113.832ZM358.502 130.541L361.823 137.819L358.502 130.541ZM641.502 130.541L638.18 137.819L641.502 130.541ZM732.391 113.832L734.862 121.44L732.391 113.832ZM832.002 100L837.569 94.2552V94.2552L832.002 100ZM814.155 189.192L821.604 192.109V192.109L814.155 189.192ZM794.387 272.5L787.35 276.305L794.387 272.5ZM750.153 652L753.683 659.179L754.748 658.655L755.616 657.844L750.153 652ZM160.002 421.1C160.002 512.544 177.465 597.195 242.341 657.844L253.268 646.156C193.235 590.035 176.002 510.943 176.002 421.1H160.002ZM198.579 268.695C173.94 314.26 160.002 366.112 160.002 421.1H176.002C176.002 368.852 189.238 319.607 212.654 276.305L198.579 268.695ZM178.4 192.109C185.283 209.686 191.924 226.666 195.959 240.947C197.975 248.079 199.242 254.211 199.62 259.183C200.01 264.32 199.367 267.238 198.579 268.695L212.654 276.305C215.594 270.868 216.054 264.29 215.574 257.971C215.081 251.487 213.506 244.202 211.357 236.597C207.063 221.402 200.092 203.623 193.298 186.275L178.4 192.109ZM162.435 94.2554C157.122 99.4051 155.549 106.646 155.454 113.489C155.358 120.452 156.762 128.421 158.898 136.698C163.175 153.265 170.941 173.061 178.4 192.109L193.298 186.275C185.722 166.928 178.373 148.128 174.39 132.698C172.397 124.976 171.385 118.596 171.452 113.71C171.522 108.705 172.693 106.595 173.57 105.745L162.435 94.2554ZM270.084 106.223C249.049 99.3918 227.214 92.2879 208.817 88.7033C199.613 86.91 190.817 85.9008 183.136 86.3919C175.545 86.8772 167.961 88.9002 162.435 94.2554L173.57 105.745C175.2 104.166 178.349 102.731 184.157 102.359C189.874 101.994 197.143 102.73 205.757 104.408C222.995 107.767 243.81 114.513 265.142 121.441L270.084 106.223ZM355.18 123.263C352.728 124.382 348.791 125.046 342.985 124.804C337.291 124.567 330.472 123.492 322.712 121.749C307.162 118.256 288.924 112.341 270.084 106.223L265.142 121.441C283.77 127.49 302.778 133.67 319.206 137.36C327.436 139.209 335.289 140.498 342.319 140.791C349.238 141.079 356.077 140.441 361.823 137.819L355.18 123.263ZM500.002 92.0002C448.229 92.0002 399.132 103.206 355.18 123.263L361.823 137.819C403.72 118.699 450.554 108 500.002 108V92.0002ZM644.823 123.263C600.871 103.206 551.775 92.0002 500.002 92.0002V108C549.449 108 596.283 118.699 638.18 137.819L644.823 123.263ZM729.92 106.223C711.08 112.341 692.842 118.256 677.291 121.749C669.532 123.492 662.713 124.567 657.018 124.804C651.213 125.046 647.275 124.382 644.823 123.263L638.18 137.819C643.926 140.441 650.765 141.079 657.684 140.791C664.714 140.498 672.568 139.209 680.798 137.36C697.226 133.67 716.234 127.49 734.862 121.44L729.92 106.223ZM837.569 94.2552C832.043 88.9 824.459 86.877 816.868 86.3917C809.187 85.9006 800.391 86.9098 791.187 88.7031C772.79 92.2877 750.955 99.3917 729.92 106.223L734.862 121.44C756.194 114.513 777.009 107.767 794.247 104.408C802.861 102.729 810.13 101.994 815.847 102.359C821.655 102.73 824.804 104.165 826.434 105.745L837.569 94.2552ZM821.604 192.109C829.063 173.061 836.829 153.265 841.106 136.697C843.243 128.421 844.647 120.452 844.55 113.489C844.456 106.646 842.883 99.4049 837.569 94.2552L826.434 105.745C827.311 106.595 828.483 108.704 828.552 113.71C828.62 118.596 827.607 124.976 825.614 132.698C821.631 148.128 814.282 166.928 806.705 186.275L821.604 192.109ZM801.424 268.695C800.636 267.238 799.993 264.32 800.383 259.183C800.761 254.211 802.029 248.079 804.044 240.947C808.079 226.666 814.72 209.686 821.604 192.109L806.705 186.275C799.911 203.623 792.94 221.402 788.647 236.596C786.498 244.202 784.922 251.487 784.429 257.971C783.949 264.29 784.409 270.868 787.35 276.305L801.424 268.695ZM840.002 421.1C840.002 366.112 826.063 314.26 801.424 268.695L787.35 276.305C810.765 319.607 824.002 368.852 824.002 421.1H840.002ZM755.616 657.844C820.416 597.266 840.002 512.714 840.002 421.1H824.002C824.002 510.773 804.798 589.963 744.689 646.156L755.616 657.844ZM242.341 657.844C248.762 663.847 259.856 668.791 273.144 673.016C286.781 677.351 303.933 681.287 323.544 684.702C362.792 691.536 412.513 696.393 464.96 698.059C517.414 699.724 572.79 698.205 623.335 692.218C673.739 686.248 719.946 675.769 753.683 659.179L746.622 644.821C715.283 660.232 671.173 670.44 621.453 676.329C571.874 682.202 517.319 683.713 465.468 682.067C413.612 680.42 364.656 675.62 326.289 668.939C307.093 665.596 290.703 661.809 277.992 657.768C264.934 653.616 256.875 649.529 253.268 646.156L242.341 657.844ZM346.002 501C372.511 501 394.002 479.51 394.002 453H378.002C378.002 470.673 363.675 485 346.002 485V501ZM298.002 453C298.002 479.51 319.492 501 346.002 501V485C328.328 485 314.002 470.673 314.002 453H298.002ZM346.002 405C319.492 405 298.002 426.491 298.002 453H314.002C314.002 435.327 328.328 421 346.002 421V405ZM394.002 453C394.002 426.491 372.511 405 346.002 405V421C363.675 421 378.002 435.327 378.002 453H394.002ZM457.502 501C484.193 501 506.002 479.603 506.002 453H490.002C490.002 470.58 475.545 485 457.502 485V501ZM409.002 453C409.002 479.603 430.81 501 457.502 501V485C439.458 485 425.002 470.58 425.002 453H409.002ZM457.502 405C430.81 405 409.002 426.397 409.002 453H425.002C425.002 435.421 439.458 421 457.502 421V405ZM506.002 453C506.002 426.397 484.193 405 457.502 405V421C475.545 421 490.002 435.421 490.002 453H506.002Z" fill="black" mask="url(#path-5-inside-1_820_34272)"/>
<path d="M777.02 160.789C762.859 151.952 749.951 137.396 744.646 114.069C763.375 108.049 781.46 102.556 796.568 99.9097C804.579 98.5064 811.538 97.9443 817.188 98.4505C822.866 98.959 826.772 100.503 829.216 102.872C830.988 104.589 832.198 107.472 832.488 112.012C832.776 116.533 832.113 122.208 830.646 128.864C827.861 141.495 822.375 156.826 816.176 172.964C805.755 172.581 790.765 169.366 777.02 160.789Z" fill="#3C3C3C" stroke="black" stroke-width="8"/>
<path d="M770.5 153.5C794.5 122.5 818.546 86.9614 832 100C843.07 110.728 829.693 139.372 816.5 173.5C795.593 170 788.5 169 770.5 153.5Z" fill="black" fill-opacity="0.25"/>
<path d="M222.476 160.789C236.637 151.952 249.545 137.396 254.85 114.069C236.121 108.049 218.036 102.556 202.928 99.9097C194.917 98.5064 187.958 97.9443 182.308 98.4505C176.63 98.959 172.725 100.503 170.28 102.872C168.509 104.589 167.298 107.472 167.009 112.012C166.72 116.533 167.383 122.208 168.85 128.864C171.635 141.495 177.121 156.826 183.32 172.964C193.741 172.581 208.731 169.366 222.476 160.789Z" fill="#3C3C3C" stroke="black" stroke-width="8"/>
<path d="M233.609 153.5C209.609 122.5 185.563 86.9614 172.109 100C161.04 110.728 174.416 139.372 187.609 173.5C208.516 170 215.609 169 233.609 153.5Z" fill="black" fill-opacity="0.25"/>
<circle cx="295.5" cy="303.5" r="14.5" stroke="black" stroke-width="8"/>
<circle cx="208.5" cy="471.5" r="14.5" stroke="black" stroke-width="8"/>
<circle cx="258.5" cy="500.5" r="14.5" stroke="black" stroke-width="8"/>
<circle cx="399.5" cy="369.5" r="14.5" stroke="black" stroke-width="8"/>
<circle cx="495.5" cy="225.5" r="14.5" stroke="black" stroke-width="8"/>
<circle cx="240.5" cy="338.5" r="14.5" stroke="black" stroke-width="8"/>
<circle cx="236.5" cy="413.5" r="14.5" stroke="black" stroke-width="8"/>
<circle cx="310.5" cy="362.5" r="14.5" stroke="black" stroke-width="8"/>
<circle cx="551.5" cy="314.5" r="14.5" stroke="black" stroke-width="8"/>
<circle cx="731.5" cy="348.5" r="14.5" stroke="black" stroke-width="8"/>
<circle cx="619.5" cy="274.5" r="14.5" stroke="black" stroke-width="8"/>
<circle cx="619.5" cy="406.5" r="14.5" stroke="black" stroke-width="8"/>
<circle cx="579.5" cy="457.5" r="14.5" stroke="black" stroke-width="8"/>
<circle cx="525.5" cy="496.5" r="14.5" stroke="black" stroke-width="8"/>
<circle cx="488.5" cy="363.5" r="14.5" stroke="black" stroke-width="8"/>
<circle cx="287.5" cy="225.5" r="14.5" stroke="black" stroke-width="8"/>
<circle cx="681.5" cy="500.5" r="14.5" stroke="black" stroke-width="8"/>
<circle cx="676.5" cy="438.5" r="14.5" stroke="black" stroke-width="8"/>
<circle cx="754.5" cy="413.5" r="14.5" stroke="black" stroke-width="8"/>
<circle cx="793.5" cy="471.5" r="14.5" stroke="black" stroke-width="8"/>
<circle cx="794.5" cy="367.5" r="14.5" stroke="black" stroke-width="8"/>
<circle cx="739.5" cy="485.5" r="14.5" stroke="black" stroke-width="8"/>
<circle cx="731.5" cy="608.5" r="14.5" stroke="black" stroke-width="8"/>
<circle cx="691.5" cy="576.5" r="14.5" stroke="black" stroke-width="8"/>
<circle cx="745.5" cy="552.5" r="14.5" stroke="black" stroke-width="8"/>
<circle cx="632.5" cy="619.5" r="14.5" stroke="black" stroke-width="8"/>
<circle cx="560.5" cy="641.5" r="14.5" stroke="black" stroke-width="8"/>
<circle cx="211.5" cy="529.5" r="14.5" stroke="black" stroke-width="8"/>
<circle cx="640.5" cy="554.5" r="14.5" stroke="black" stroke-width="8"/>
<circle cx="615.5" cy="507.5" r="14.5" stroke="black" stroke-width="8"/>
<circle cx="672.5" cy="236.5" r="14.5" stroke="black" stroke-width="8"/>
<circle cx="480.5" cy="299.5" r="14.5" stroke="black" stroke-width="8"/>
<circle cx="328.5" cy="262.5" r="14.5" stroke="black" stroke-width="8"/>
<circle cx="696.5" cy="300.5" r="14.5" stroke="black" stroke-width="8"/>
<circle cx="756.5" cy="307.5" r="14.5" stroke="black" stroke-width="8"/>
<circle cx="735.5" cy="240.5" r="14.5" stroke="black" stroke-width="8"/>
<circle cx="716.5" cy="162.5" r="14.5" stroke="black" stroke-width="8"/>
<circle cx="665.5" cy="183.5" r="14.5" stroke="black" stroke-width="8"/>
<circle cx="764.5" cy="200.5" r="14.5" stroke="black" stroke-width="8"/>
<circle cx="681.5" cy="377.5" r="14.5" stroke="black" stroke-width="8"/>
<circle cx="633.5" cy="334.5" r="14.5" stroke="black" stroke-width="8"/>
<circle cx="619.5" cy="208.5" r="14.5" stroke="black" stroke-width="8"/>
<circle cx="580.5" cy="162.5" r="14.5" stroke="black" stroke-width="8"/>
<circle cx="529.5" cy="166.5" r="14.5" stroke="black" stroke-width="8"/>
<circle cx="551.5" cy="237.5" r="14.5" stroke="black" stroke-width="8"/>
<circle cx="565.5" cy="371.5" r="14.5" stroke="black" stroke-width="8"/>
<circle cx="536.5" cy="423.5" r="14.5" stroke="black" stroke-width="8"/>
<circle cx="340.5" cy="208.5" r="14.5" stroke="black" stroke-width="8"/>
<circle cx="284.5" cy="162.5" r="14.5" stroke="black" stroke-width="8"/>
<circle cx="232.5" cy="210.5" r="14.5" stroke="black" stroke-width="8"/>
<circle cx="240.5" cy="278.5" r="14.5" stroke="black" stroke-width="8"/>
<circle cx="382.5" cy="155.5" r="14.5" stroke="black" stroke-width="8"/>
<path d="M393 455C393 485.928 367.928 511 337 511C306.072 511 281 485.928 281 455C281 424.072 306.072 399 337 399C367.928 399 393 424.072 393 455ZM299.738 455C299.738 475.579 316.421 492.262 337 492.262C357.579 492.262 374.262 475.579 374.262 455C374.262 434.421 357.579 417.739 337 417.739C316.421 417.739 299.738 434.421 299.738 455Z" fill="#E40303" stroke="#090909" stroke-width="6"/>
<path d="M508 455C508 485.928 482.928 511 452 511C421.072 511 396 485.928 396 455C396 424.072 421.072 399 452 399C482.928 399 508 424.072 508 455ZM414.738 455C414.738 475.579 431.421 492.262 452 492.262C472.579 492.262 489.262 475.579 489.262 455C489.262 434.421 472.579 417.739 452 417.739C431.421 417.739 414.738 434.421 414.738 455Z" fill="#E40303" stroke="#090909" stroke-width="6"/>
<path d="M444 507C430.209 507 416.982 501.521 407.23 491.77C397.479 482.018 392 468.791 392 455C392 441.209 397.479 427.982 407.23 418.23C416.982 408.479 430.209 403 444 403V410.833C432.286 410.833 421.052 415.486 412.769 423.769C404.486 432.052 399.833 443.286 399.833 455C399.833 466.714 404.486 477.948 412.769 486.231C421.052 494.514 432.286 499.167 444 499.167V507Z" fill="white" fill-opacity="0.25"/>
<path d="M337 507C323.209 507 309.982 501.521 300.23 491.77C290.479 482.018 285 468.791 285 455C285 441.209 290.479 427.982 300.23 418.23C309.982 408.479 323.209 403 337 403V410.833C325.286 410.833 314.052 415.486 305.769 423.769C297.486 432.052 292.833 443.286 292.833 455C292.833 466.714 297.486 477.948 305.769 486.231C314.052 494.514 325.286 499.167 337 499.167V507Z" fill="white" fill-opacity="0.25"/>
<path d="M342.907 493.998C325.639 494.201 303 480.705 303 455.445C304.377 429.879 323.464 416.765 342.835 417.003C345.803 417.04 348 419.598 348 422.565C348 425.471 345.869 427.924 343.039 428.588C304.661 437.586 304.654 471.913 343.016 482.138C345.876 482.9 348 484.359 348 487.32C348 490.293 345.879 493.963 342.907 493.998Z" fill="black" fill-opacity="0.25"/>
<path d="M447.907 493.998C430.639 494.201 408 480.705 408 455.445C409.377 429.879 428.464 416.765 447.835 417.003C450.803 417.04 453 419.598 453 422.565C453 425.471 450.869 427.924 448.039 428.588C409.661 437.586 409.654 471.913 448.016 482.138C450.876 482.9 453 484.359 453 487.32C453 490.293 450.879 493.963 447.907 493.998Z" fill="black" fill-opacity="0.25"/>
<path d="M818 418C818 268.786 704.743 144.517 554.871 117.465C545.647 115.8 543.244 128.163 551.875 131.815C728.111 206.396 801.999 386.452 742.159 619.803C740.147 627.65 749.137 632.984 754.327 626.764C800.481 571.451 818 494.297 818 418Z" fill="black" fill-opacity="0.25"/>
<path d="M180 418C180 278.648 278.782 161.052 413.917 124.081C423.346 121.502 425.243 132.345 416.099 135.803C252.538 197.658 163.997 348.003 249.693 609.01C252.306 616.97 243.272 622.68 237.993 616.175C194.557 562.645 180 492.718 180 418Z" fill="white" fill-opacity="0.25"/>
<path d="M769.983 622.905C649.865 686.535 298.944 662.711 241.166 641.762C236.179 639.954 230.905 637.622 225.812 639.106C201.346 646.238 203.409 685.798 227.348 697.5C315.149 740.422 718.782 726.821 770.178 700.175C772.955 698.735 775.674 697.058 778.53 695.781C808.434 682.417 816.488 640.71 787.415 622.396C782.119 619.06 775.515 619.975 769.983 622.905Z" fill="#5F3016" stroke="black" stroke-width="8"/>
<path d="M774.734 624.32C658.024 695.656 405.061 683.202 341.474 683.002C340.42 682.999 339.529 683.08 338.485 683.226C299.458 688.662 185.597 677.09 227.349 697.5C315.955 740.816 726.212 726.567 771.503 699.439C773.437 698.281 775.146 697.046 777.074 695.879C797.599 683.457 813.596 647.206 795.53 625.475C790.471 619.39 781.485 620.193 774.734 624.32Z" fill="black" fill-opacity="0.25"/>
<rect x="226" y="533" width="354" height="94" rx="47" fill="#E40303" stroke="#090909" stroke-width="6"/>
<rect x="421" y="533" width="159" height="94" rx="47" fill="black" fill-opacity="0.25"/>
<rect x="234" y="540" width="158" height="81" rx="40.5" fill="white" fill-opacity="0.25"/>
<rect x="248" y="552" width="298" height="56" rx="28" fill="#090909" stroke="#090909" stroke-width="6"/>
<g filter="url(#filter0_i_820_34272)">
<path d="M267.038 558.185C266.591 557.528 267.053 556.638 267.847 556.623L300.994 556.036C301.819 556.021 302.305 556.956 301.82 557.623L289.235 574.94C288.294 576.234 286.791 577 285.19 577H282.458C280.801 577 279.252 576.179 278.321 574.808L267.038 558.185Z" fill="white"/>
</g>
<g filter="url(#filter1_i_820_34272)">
<path d="M312.038 558.185C311.591 557.528 312.053 556.638 312.847 556.623L345.994 556.036C346.819 556.021 347.305 556.956 346.82 557.623L334.235 574.94C333.294 576.234 331.791 577 330.19 577H327.458C325.801 577 324.252 576.179 323.321 574.808L312.038 558.185Z" fill="white"/>
</g>
<g filter="url(#filter2_i_820_34272)">
<path d="M356.038 558.185C355.591 557.528 356.053 556.638 356.847 556.623L389.994 556.036C390.819 556.021 391.305 556.956 390.82 557.623L378.235 574.94C377.294 576.234 375.791 577 374.19 577H371.458C369.801 577 368.252 576.179 367.321 574.808L356.038 558.185Z" fill="white"/>
</g>
<g filter="url(#filter3_i_820_34272)">
<path d="M401.038 558.185C400.591 557.528 401.053 556.638 401.847 556.623L434.994 556.036C435.819 556.021 436.305 556.956 435.82 557.623L423.235 574.94C422.294 576.234 420.791 577 419.19 577H416.458C414.801 577 413.252 576.179 412.321 574.808L401.038 558.185Z" fill="white"/>
</g>
<g filter="url(#filter4_i_820_34272)">
<path d="M445.038 558.185C444.591 557.528 445.053 556.638 445.847 556.623L478.994 556.036C479.819 556.021 480.305 556.956 479.82 557.623L467.235 574.94C466.294 576.234 464.791 577 463.19 577H460.458C458.801 577 457.252 576.179 456.321 574.808L445.038 558.185Z" fill="white"/>
</g>
<g filter="url(#filter5_i_820_34272)">
<path d="M490.038 558.185C489.591 557.528 490.053 556.638 490.847 556.623L523.994 556.036C524.819 556.021 525.305 556.956 524.82 557.623L512.235 574.94C511.294 576.234 509.791 577 508.19 577H505.458C503.801 577 502.252 576.179 501.321 574.808L490.038 558.185Z" fill="white"/>
</g>
<g filter="url(#filter6_i_820_34272)">
<path d="M267.038 605.815C266.591 606.472 267.053 607.362 267.847 607.377L300.994 607.964C301.819 607.979 302.305 607.044 301.82 606.377L289.235 589.06C288.294 587.766 286.791 587 285.19 587H282.458C280.801 587 279.252 587.821 278.321 589.192L267.038 605.815Z" fill="white"/>
</g>
<g filter="url(#filter7_i_820_34272)">
<path d="M312.038 605.815C311.591 606.472 312.053 607.362 312.847 607.377L345.994 607.964C346.819 607.979 347.305 607.044 346.82 606.377L334.235 589.06C333.294 587.766 331.791 587 330.19 587H327.458C325.801 587 324.252 587.821 323.321 589.192L312.038 605.815Z" fill="white"/>
</g>
<g filter="url(#filter8_i_820_34272)">
<path d="M356.038 605.815C355.591 606.472 356.053 607.362 356.847 607.377L389.994 607.964C390.819 607.979 391.305 607.044 390.82 606.377L378.235 589.06C377.294 587.766 375.791 587 374.19 587H371.458C369.801 587 368.252 587.821 367.321 589.192L356.038 605.815Z" fill="white"/>
</g>
<g filter="url(#filter9_i_820_34272)">
<path d="M401.038 605.815C400.591 606.472 401.053 607.362 401.847 607.377L434.994 607.964C435.819 607.979 436.305 607.044 435.82 606.377L423.235 589.06C422.294 587.766 420.791 587 419.19 587H416.458C414.801 587 413.252 587.821 412.321 589.192L401.038 605.815Z" fill="white"/>
</g>
<g filter="url(#filter10_i_820_34272)">
<path d="M445.038 605.815C444.591 606.472 445.053 607.362 445.847 607.377L478.994 607.964C479.819 607.979 480.305 607.044 479.82 606.377L467.235 589.06C466.294 587.766 464.791 587 463.19 587H460.458C458.801 587 457.252 587.821 456.321 589.192L445.038 605.815Z" fill="white"/>
</g>
<g filter="url(#filter11_i_820_34272)">
<path d="M490.038 605.815C489.591 606.472 490.053 607.362 490.847 607.377L523.994 607.964C524.819 607.979 525.305 607.044 524.82 606.377L512.235 589.06C511.294 587.766 509.791 587 508.19 587H505.458C503.801 587 502.252 587.821 501.321 589.192L490.038 605.815Z" fill="white"/>
</g>
<path d="M336.503 661C360.893 603.124 410.094 616.278 444.761 606.111C409.927 603.611 335.261 606.111 313.261 606.111C285.761 606.111 259.887 621.519 242.003 644C224.501 666 211.26 762.611 262.262 762.611C313.261 762.611 307.003 731 336.503 661Z" fill="#E40303" stroke="black" stroke-width="6"/>
<path d="M336.505 661C360.895 603.124 410.096 616.278 444.763 606.111C409.929 603.611 397.503 606.111 375.503 606.111C348.003 606.111 301.385 625.019 283.5 647.5C256.499 677.5 242.004 761.5 277.001 759.5C304.003 755 307.005 731 336.505 661Z" fill="black" fill-opacity="0.25"/>
<path d="M360.5 605.5C327.833 612.167 261 641.1 261 705.5" stroke="black" stroke-width="6" stroke-linecap="round"/>
<path d="M477.466 182.175C508.639 119.316 517.471 112.558 531.413 104.836C535.857 102.375 536.703 96.4889 532.444 93.7204C510.201 79.2609 469.387 79.6129 449 99.9999C407 147.5 352.009 295 351.998 325C351.995 333 347.606 350.5 355.963 367.675C367.842 392.09 401.693 405.492 429.147 381.712C434.723 376.882 437.909 369.973 439.141 362.699C446.32 320.348 450.163 237.232 477.466 182.175Z" fill="#3C3C3C" stroke="black" stroke-width="6"/>
<path d="M477.464 182.175C505.925 124.784 516.059 113.272 528.303 105.571C533.561 102.264 533.551 94.7305 527.918 92.1128C509.176 83.4032 500.496 84.5864 487.998 99.9998C445.998 147.5 387.464 291 378.499 323C376.341 330.703 370.143 350.324 378.5 367.5C386.857 384.676 412 403.5 434.499 372C443.332 334.833 447.548 242.5 477.464 182.175Z" fill="black" fill-opacity="0.25"/>
<defs>
<filter id="filter0_i_820_34272" x="266.863" y="556.035" width="35.1484" height="20.9646" filterUnits="userSpaceOnUse" color-interpolation-filters="sRGB">
<feFlood flood-opacity="0" result="BackgroundImageFix"/>
<feBlend mode="normal" in="SourceGraphic" in2="BackgroundImageFix" result="shape"/>
<feColorMatrix in="SourceAlpha" type="matrix" values="0 0 0 0 0 0 0 0 0 0 0 0 0 0 0 0 0 0 127 0" result="hardAlpha"/>
<feOffset dx="-5" dy="-8"/>
<feComposite in2="hardAlpha" operator="arithmetic" k2="-1" k3="1"/>
<feColorMatrix type="matrix" values="0 0 0 0 0 0 0 0 0 0 0 0 0 0 0 0 0 0 0.25 0"/>
<feBlend mode="normal" in2="shape" result="effect1_innerShadow_820_34272"/>
</filter>
<filter id="filter1_i_820_34272" x="311.863" y="556.035" width="35.1484" height="20.9646" filterUnits="userSpaceOnUse" color-interpolation-filters="sRGB">
<feFlood flood-opacity="0" result="BackgroundImageFix"/>
<feBlend mode="normal" in="SourceGraphic" in2="BackgroundImageFix" result="shape"/>
<feColorMatrix in="SourceAlpha" type="matrix" values="0 0 0 0 0 0 0 0 0 0 0 0 0 0 0 0 0 0 127 0" result="hardAlpha"/>
<feOffset dx="-5" dy="-8"/>
<feComposite in2="hardAlpha" operator="arithmetic" k2="-1" k3="1"/>
<feColorMatrix type="matrix" values="0 0 0 0 0 0 0 0 0 0 0 0 0 0 0 0 0 0 0.25 0"/>
<feBlend mode="normal" in2="shape" result="effect1_innerShadow_820_34272"/>
</filter>
<filter id="filter2_i_820_34272" x="355.863" y="556.035" width="35.1484" height="20.9646" filterUnits="userSpaceOnUse" color-interpolation-filters="sRGB">
<feFlood flood-opacity="0" result="BackgroundImageFix"/>
<feBlend mode="normal" in="SourceGraphic" in2="BackgroundImageFix" result="shape"/>
<feColorMatrix in="SourceAlpha" type="matrix" values="0 0 0 0 0 0 0 0 0 0 0 0 0 0 0 0 0 0 127 0" result="hardAlpha"/>
<feOffset dx="-5" dy="-8"/>
<feComposite in2="hardAlpha" operator="arithmetic" k2="-1" k3="1"/>
<feColorMatrix type="matrix" values="0 0 0 0 0 0 0 0 0 0 0 0 0 0 0 0 0 0 0.25 0"/>
<feBlend mode="normal" in2="shape" result="effect1_innerShadow_820_34272"/>
</filter>
<filter id="filter3_i_820_34272" x="400.863" y="556.035" width="35.1484" height="20.9646" filterUnits="userSpaceOnUse" color-interpolation-filters="sRGB">
<feFlood flood-opacity="0" result="BackgroundImageFix"/>
<feBlend mode="normal" in="SourceGraphic" in2="BackgroundImageFix" result="shape"/>
<feColorMatrix in="SourceAlpha" type="matrix" values="0 0 0 0 0 0 0 0 0 0 0 0 0 0 0 0 0 0 127 0" result="hardAlpha"/>
<feOffset dx="-5" dy="-8"/>
<feComposite in2="hardAlpha" operator="arithmetic" k2="-1" k3="1"/>
<feColorMatrix type="matrix" values="0 0 0 0 0 0 0 0 0 0 0 0 0 0 0 0 0 0 0.25 0"/>
<feBlend mode="normal" in2="shape" result="effect1_innerShadow_820_34272"/>
</filter>
<filter id="filter4_i_820_34272" x="444.863" y="556.035" width="35.1484" height="20.9646" filterUnits="userSpaceOnUse" color-interpolation-filters="sRGB">
<feFlood flood-opacity="0" result="BackgroundImageFix"/>
<feBlend mode="normal" in="SourceGraphic" in2="BackgroundImageFix" result="shape"/>
<feColorMatrix in="SourceAlpha" type="matrix" values="0 0 0 0 0 0 0 0 0 0 0 0 0 0 0 0 0 0 127 0" result="hardAlpha"/>
<feOffset dx="-5" dy="-8"/>
<feComposite in2="hardAlpha" operator="arithmetic" k2="-1" k3="1"/>
<feColorMatrix type="matrix" values="0 0 0 0 0 0 0 0 0 0 0 0 0 0 0 0 0 0 0.25 0"/>
<feBlend mode="normal" in2="shape" result="effect1_innerShadow_820_34272"/>
</filter>
<filter id="filter5_i_820_34272" x="489.863" y="556.035" width="35.1484" height="20.9646" filterUnits="userSpaceOnUse" color-interpolation-filters="sRGB">
<feFlood flood-opacity="0" result="BackgroundImageFix"/>
<feBlend mode="normal" in="SourceGraphic" in2="BackgroundImageFix" result="shape"/>
<feColorMatrix in="SourceAlpha" type="matrix" values="0 0 0 0 0 0 0 0 0 0 0 0 0 0 0 0 0 0 127 0" result="hardAlpha"/>
<feOffset dx="-5" dy="-8"/>
<feComposite in2="hardAlpha" operator="arithmetic" k2="-1" k3="1"/>
<feColorMatrix type="matrix" values="0 0 0 0 0 0 0 0 0 0 0 0 0 0 0 0 0 0 0.25 0"/>
<feBlend mode="normal" in2="shape" result="effect1_innerShadow_820_34272"/>
</filter>
<filter id="filter6_i_820_34272" x="266.863" y="587" width="35.1484" height="20.9646" filterUnits="userSpaceOnUse" color-interpolation-filters="sRGB">
<feFlood flood-opacity="0" result="BackgroundImageFix"/>
<feBlend mode="normal" in="SourceGraphic" in2="BackgroundImageFix" result="shape"/>
<feColorMatrix in="SourceAlpha" type="matrix" values="0 0 0 0 0 0 0 0 0 0 0 0 0 0 0 0 0 0 127 0" result="hardAlpha"/>
<feOffset dx="-5" dy="-8"/>
<feComposite in2="hardAlpha" operator="arithmetic" k2="-1" k3="1"/>
<feColorMatrix type="matrix" values="0 0 0 0 0 0 0 0 0 0 0 0 0 0 0 0 0 0 0.25 0"/>
<feBlend mode="normal" in2="shape" result="effect1_innerShadow_820_34272"/>
</filter>
<filter id="filter7_i_820_34272" x="311.863" y="587" width="35.1484" height="20.9646" filterUnits="userSpaceOnUse" color-interpolation-filters="sRGB">
<feFlood flood-opacity="0" result="BackgroundImageFix"/>
<feBlend mode="normal" in="SourceGraphic" in2="BackgroundImageFix" result="shape"/>
<feColorMatrix in="SourceAlpha" type="matrix" values="0 0 0 0 0 0 0 0 0 0 0 0 0 0 0 0 0 0 127 0" result="hardAlpha"/>
<feOffset dx="-5" dy="-8"/>
<feComposite in2="hardAlpha" operator="arithmetic" k2="-1" k3="1"/>
<feColorMatrix type="matrix" values="0 0 0 0 0 0 0 0 0 0 0 0 0 0 0 0 0 0 0.25 0"/>
<feBlend mode="normal" in2="shape" result="effect1_innerShadow_820_34272"/>
</filter>
<filter id="filter8_i_820_34272" x="355.863" y="587" width="35.1484" height="20.9646" filterUnits="userSpaceOnUse" color-interpolation-filters="sRGB">
<feFlood flood-opacity="0" result="BackgroundImageFix"/>
<feBlend mode="normal" in="SourceGraphic" in2="BackgroundImageFix" result="shape"/>
<feColorMatrix in="SourceAlpha" type="matrix" values="0 0 0 0 0 0 0 0 0 0 0 0 0 0 0 0 0 0 127 0" result="hardAlpha"/>
<feOffset dx="-5" dy="-8"/>
<feComposite in2="hardAlpha" operator="arithmetic" k2="-1" k3="1"/>
<feColorMatrix type="matrix" values="0 0 0 0 0 0 0 0 0 0 0 0 0 0 0 0 0 0 0.25 0"/>
<feBlend mode="normal" in2="shape" result="effect1_innerShadow_820_34272"/>
</filter>
<filter id="filter9_i_820_34272" x="400.863" y="587" width="35.1484" height="20.9646" filterUnits="userSpaceOnUse" color-interpolation-filters="sRGB">
<feFlood flood-opacity="0" result="BackgroundImageFix"/>
<feBlend mode="normal" in="SourceGraphic" in2="BackgroundImageFix" result="shape"/>
<feColorMatrix in="SourceAlpha" type="matrix" values="0 0 0 0 0 0 0 0 0 0 0 0 0 0 0 0 0 0 127 0" result="hardAlpha"/>
<feOffset dx="-5" dy="-8"/>
<feComposite in2="hardAlpha" operator="arithmetic" k2="-1" k3="1"/>
<feColorMatrix type="matrix" values="0 0 0 0 0 0 0 0 0 0 0 0 0 0 0 0 0 0 0.25 0"/>
<feBlend mode="normal" in2="shape" result="effect1_innerShadow_820_34272"/>
</filter>
<filter id="filter10_i_820_34272" x="444.863" y="587" width="35.1484" height="20.9646" filterUnits="userSpaceOnUse" color-interpolation-filters="sRGB">
<feFlood flood-opacity="0" result="BackgroundImageFix"/>
<feBlend mode="normal" in="SourceGraphic" in2="BackgroundImageFix" result="shape"/>
<feColorMatrix in="SourceAlpha" type="matrix" values="0 0 0 0 0 0 0 0 0 0 0 0 0 0 0 0 0 0 127 0" result="hardAlpha"/>
<feOffset dx="-5" dy="-8"/>
<feComposite in2="hardAlpha" operator="arithmetic" k2="-1" k3="1"/>
<feColorMatrix type="matrix" values="0 0 0 0 0 0 0 0 0 0 0 0 0 0 0 0 0 0 0.25 0"/>
<feBlend mode="normal" in2="shape" result="effect1_innerShadow_820_34272"/>
</filter>
<filter id="filter11_i_820_34272" x="489.863" y="587" width="35.1484" height="20.9646" filterUnits="userSpaceOnUse" color-interpolation-filters="sRGB">
<feFlood flood-opacity="0" result="BackgroundImageFix"/>
<feBlend mode="normal" in="SourceGraphic" in2="BackgroundImageFix" result="shape"/>
<feColorMatrix in="SourceAlpha" type="matrix" values="0 0 0 0 0 0 0 0 0 0 0 0 0 0 0 0 0 0 127 0" result="hardAlpha"/>
<feOffset dx="-5" dy="-8"/>
<feComposite in2="hardAlpha" operator="arithmetic" k2="-1" k3="1"/>
<feColorMatrix type="matrix" values="0 0 0 0 0 0 0 0 0 0 0 0 0 0 0 0 0 0 0.25 0"/>
<feBlend mode="normal" in2="shape" result="effect1_innerShadow_820_34272"/>
</filter>
</defs>
</svg>
