<svg width="1000" height="1000" viewBox="0 0 1000 1000" fill="none" xmlns="http://www.w3.org/2000/svg">
<g clip-path="url(#clip0_712_65922)">
<path d="M394.198 944.686L420.322 631.467C420.82 625.487 427.47 622.138 432.62 625.218C528.275 682.419 676.443 735.329 741.553 740.76L730.477 873.562C667.313 868.294 494.301 928.256 404.118 953.032C398.797 954.494 393.74 950.184 394.198 944.686Z" fill="#D7D6DC" stroke="black" stroke-width="6"/>
<path d="M394.911 936.139L399.265 883.941C399.569 880.296 402.241 877.334 405.842 876.699C466.899 865.923 698.867 819.555 735.96 807.832L731.034 866.887C642.234 859.48 484.598 912.585 405.951 944.29C400.384 946.534 394.412 942.121 394.911 936.139Z" fill="black" fill-opacity="0.25"/>
<path d="M419.288 643.875L415.968 683.675C415.664 687.32 417.807 690.69 421.292 691.8C480.046 710.512 705.199 765.893 739.221 768.731L741.289 743.935C652.521 736.532 504.14 679.592 431.618 637.525C426.426 634.513 419.786 637.893 419.288 643.875Z" fill="white" fill-opacity="0.25"/>
<path d="M495.824 795.485C491.68 845.171 478.183 889.193 459.847 920.191C441.394 951.388 418.647 968.497 396.212 966.626C373.777 964.755 354.178 944.113 341.148 910.291C328.201 876.684 322.182 831.035 326.326 781.349C330.47 731.662 343.968 687.641 362.303 656.643C380.756 625.446 403.503 608.336 425.938 610.208C448.373 612.079 467.972 632.72 481.002 666.543C493.949 700.15 499.968 745.799 495.824 795.485Z" fill="white" stroke="black" stroke-width="6"/>
<path d="M473.934 793.657C470.481 835.059 460.03 871.834 446.007 897.814C438.994 910.806 431.134 921.013 422.89 927.764C414.657 934.507 406.147 937.726 397.722 937.023C389.297 936.321 381.439 931.737 374.436 923.723C367.424 915.699 361.364 904.332 356.6 890.357C347.074 862.413 342.86 824.415 346.313 783.013C349.766 741.612 360.216 704.837 374.239 678.857C381.252 665.864 389.112 655.658 397.356 648.907C405.59 642.163 414.099 638.945 422.524 639.647C430.949 640.35 438.808 644.934 445.811 652.948C452.822 660.972 458.883 672.339 463.647 686.314C473.173 714.258 477.387 752.256 473.934 793.657Z" fill="#3C3C3C" stroke="black" stroke-width="4"/>
<path d="M475.828 793.489C472.219 836.769 461.19 875.111 446.443 902.098C439.067 915.597 430.853 926.084 422.334 932.963C413.836 939.824 405.236 942.949 396.861 942.251C388.485 941.552 380.522 937.045 373.278 928.872C366.015 920.677 359.653 908.974 354.614 894.44C344.542 865.383 340.017 825.743 343.627 782.463C347.236 739.183 358.265 700.84 373.012 673.853C380.388 660.354 388.602 649.867 397.121 642.988C405.619 636.128 414.219 633.002 422.594 633.701C430.969 634.399 438.933 638.906 446.177 647.08C453.44 655.275 459.802 666.978 464.841 681.512C474.913 710.569 479.438 750.209 475.828 793.489Z" stroke="black" stroke-opacity="0.25" stroke-width="8"/>
<rect x="711.969" y="727.086" width="112.925" height="156.946" rx="4" transform="rotate(4.7676 711.969 727.086)" fill="#E40303" stroke="black" stroke-width="6"/>
<path d="M824.166 740.457C824.349 738.255 826.283 736.62 828.484 736.803L850.001 738.598C865.411 739.883 876.862 753.418 875.577 768.828L867.187 869.425C865.901 884.835 852.367 896.286 836.956 895.001L815.44 893.206C813.238 893.023 811.602 891.089 811.786 888.888L824.166 740.457Z" fill="#E40303" stroke="black" stroke-width="6"/>
<path d="M719.752 818.002L853.267 829.137L850.302 864.691C849.567 873.497 841.833 880.041 833.027 879.306L715.457 869.501L719.752 818.002Z" fill="black" fill-opacity="0.25"/>
<path d="M723.889 768.412L857.404 779.548L858.142 770.697C858.876 761.891 852.333 754.157 843.527 753.422L725.957 743.616L723.889 768.412Z" fill="white" fill-opacity="0.25"/>
<path d="M718.573 887.055C719.395 885.926 720.747 885.307 722.139 885.423L775.241 889.852C778.008 890.083 779.704 892.992 778.541 895.513L707.071 1050.54C706.367 1052.07 704.782 1052.99 703.106 1052.85L618.031 1045.76C611.814 1045.24 608.556 1038.12 612.23 1033.07L718.573 887.055Z" fill="#E40303" stroke="black" stroke-width="6"/>
<path d="M760.966 899.226L725.906 896.302C724.511 896.186 723.157 896.807 722.335 897.94L717.636 904.417C715.807 906.94 717.436 910.493 720.542 910.752L739.515 912.335C742.349 912.571 744.038 915.605 742.746 918.138L695.153 1011.47C692.939 1015.81 688.321 1018.38 683.465 1017.97L638.211 1014.2C636.763 1014.08 635.364 1014.75 634.555 1015.96L628.435 1025.1C625.041 1030.16 628.339 1037.01 634.417 1037.52L696.308 1042.68C697.97 1042.82 699.544 1041.91 700.257 1040.4L764.251 904.921C765.443 902.397 763.748 899.458 760.966 899.226Z" fill="black" fill-opacity="0.25"/>
<path d="M692.157 884.859C692.978 883.726 694.333 883.104 695.728 883.221L711.057 884.499C714.134 884.756 715.772 888.253 714 890.781L681.165 937.633C680.348 938.798 678.974 939.442 677.557 939.324L668.236 938.546C662.027 938.029 658.767 930.924 662.424 925.879L692.157 884.859Z" fill="#FF8C00" stroke="black" stroke-width="6"/>
<path d="M397.008 830.464L405.598 727.461C426.024 724.361 439.776 720.708 468.864 717.373C477.128 733.427 472.353 825.218 463.912 840.839C442.629 836.184 415.844 834.913 397.008 830.464Z" fill="#D7D6DC" stroke="black" stroke-width="4"/>
<path d="M394.223 829.354C397.789 829.651 401.164 828.237 404.152 825.759C407.13 823.289 409.836 819.68 412.177 815.295C416.865 806.517 420.283 794.276 421.42 780.639C422.557 767.003 421.214 754.365 418.046 744.932C416.463 740.219 414.392 736.212 411.864 733.282C409.328 730.344 406.235 728.39 402.669 728.093C399.102 727.795 395.728 729.209 392.74 731.687C389.762 734.157 387.056 737.766 384.714 742.152C380.027 750.93 376.609 763.171 375.472 776.807C374.335 790.443 375.677 803.082 378.846 812.515C380.429 817.228 382.499 821.235 385.027 824.164C387.564 827.103 390.657 829.057 394.223 829.354Z" fill="white" stroke="black" stroke-width="4"/>
<path d="M394.394 827.36C397.149 827.59 399.983 826.56 402.732 824.328C405.481 822.096 408.093 818.706 410.418 814.352C412.743 809.998 414.736 804.765 416.282 798.952C417.829 793.139 418.899 786.86 419.432 780.473C419.964 774.086 419.949 767.716 419.387 761.727C418.825 755.738 417.726 750.247 416.155 745.568C414.583 740.889 412.569 737.114 410.227 734.457C407.886 731.801 405.262 730.315 402.507 730.085L400.344 756.023C401.63 756.13 402.854 756.823 403.947 758.063C405.04 759.303 405.98 761.065 406.714 763.249C407.447 765.433 407.96 767.995 408.222 770.79C408.484 773.586 408.492 776.559 408.243 779.54C407.994 782.521 407.495 785.451 406.773 788.164C406.051 790.878 405.121 793.32 404.036 795.352C402.951 797.384 401.732 798.966 400.449 800.008C399.166 801.05 397.843 801.53 396.557 801.423L394.394 827.36Z" fill="black" fill-opacity="0.25"/>
<ellipse cx="394.711" cy="777.45" rx="11.4839" ry="30.6236" transform="rotate(4.7676 394.711 777.45)" fill="#E40303" stroke="black" stroke-width="2"/>
<ellipse cx="391.851" cy="777.212" rx="6.69892" ry="22.9677" transform="rotate(4.7676 391.851 777.212)" fill="black" fill-opacity="0.25"/>
<path d="M399.826 921.578C399.459 925.981 402.79 929.945 407.119 929.059C412.691 927.918 418.295 925.119 423.786 920.713C431.902 914.199 439.609 904.302 446.465 891.587C453.322 878.872 459.195 863.588 463.748 846.608C468.301 829.627 471.445 811.283 473.002 792.623C474.558 773.962 474.496 755.351 472.818 737.851C471.141 720.351 467.882 704.305 463.226 690.63C458.57 676.955 452.609 665.918 445.684 658.15C441 652.895 435.936 649.205 430.63 647.158C426.508 645.567 422.566 648.924 422.199 653.327L418.42 698.645C418.052 703.048 421.496 706.858 425.252 709.185C427.158 710.366 428.993 711.941 430.736 713.896C434.676 718.315 438.067 724.594 440.715 732.373C443.364 740.152 445.218 749.28 446.172 759.235C447.126 769.191 447.162 779.778 446.277 790.394C445.391 801.009 443.602 811.445 441.012 821.104C438.422 830.764 435.081 839.458 431.181 846.692C427.28 853.925 422.896 859.555 418.279 863.26C416.236 864.9 414.165 866.148 412.09 866.998C408.001 868.671 403.973 871.857 403.606 876.26L399.826 921.578Z" fill="black" fill-opacity="0.5"/>
<rect x="730.964" y="776.772" width="72.5591" height="11.3118" rx="5.65591" transform="rotate(4.7676 730.964 776.772)" fill="black" fill-opacity="0.5" stroke="black" stroke-width="4"/>
<rect x="729.055" y="799.661" width="72.5591" height="11.3118" rx="5.65591" transform="rotate(4.7676 729.055 799.661)" fill="black" fill-opacity="0.5" stroke="black" stroke-width="4"/>
<rect x="727.145" y="822.547" width="72.5591" height="11.3118" rx="5.65591" transform="rotate(4.7676 727.145 822.547)" fill="black" fill-opacity="0.5" stroke="black" stroke-width="4"/>
</g>
<defs>
<clipPath id="clip0_712_65922">
<rect width="1000" height="1000" fill="white"/>
</clipPath>
</defs>
</svg>
