<svg width="1000" height="1000" viewBox="0 0 1000 1000" fill="none" xmlns="http://www.w3.org/2000/svg">
<g filter="url(#filter0_d_1254_32743)">
<path d="M320.318 532H475.682C472.166 564.929 439.452 592 398 592C356.548 592 323.834 564.929 320.318 532Z" fill="#090909" stroke="black" stroke-width="12"/>
<mask id="mask0_1254_32743" style="mask-type:alpha" maskUnits="userSpaceOnUse" x="314" y="526" width="168" height="72">
<path d="M398 598C444.392 598 482 565.765 482 526H314C314 565.765 351.608 598 398 598Z" fill="#E40303"/>
</mask>
<g mask="url(#mask0_1254_32743)">
<path d="M398 542.541C354.116 542.541 318.541 573.034 318.541 610.649L477.46 610.649C477.46 573.034 441.884 542.541 398 542.541Z" fill="#E40303"/>
<path opacity="0.5" d="M426.965 544.621C399.77 544.621 377.724 565.185 377.724 590.552L476.207 590.552C476.207 565.185 454.161 544.621 426.965 544.621Z" fill="black" fill-opacity="0.16"/>
</g>
</g>
<path d="M478.727 531.708C475.353 566.783 440.865 595 398 595C355.135 595 320.647 566.783 317.273 531.708C317.144 530.362 318.26 529 320 529H476C477.74 529 478.856 530.362 478.727 531.708Z" stroke="black" stroke-width="6"/>
<g filter="url(#filter1_d_1254_32743)">
<mask id="mask1_1254_32743" style="mask-type:alpha" maskUnits="userSpaceOnUse" x="314" y="526" width="168" height="72">
<path d="M398 598C444.392 598 482 565.765 482 526H314C314 565.765 351.608 598 398 598Z" fill="#E40303"/>
</mask>
<g mask="url(#mask1_1254_32743)">
<g filter="url(#filter2_i_1254_32743)">
<path d="M328 533H359V544C359 550.627 353.627 556 347 556H340C333.373 556 328 550.627 328 544V533Z" fill="white"/>
</g>
<path d="M328 531H326V533V544C326 551.732 332.268 558 340 558H347C354.732 558 361 551.732 361 544V533V531H359H328Z" stroke="#090909" stroke-width="4"/>
<g filter="url(#filter3_i_1254_32743)">
<path d="M364 533H395V544C395 550.627 389.627 556 383 556H376C369.373 556 364 550.627 364 544V533Z" fill="white"/>
</g>
<path d="M364 531H362V533V544C362 551.732 368.268 558 376 558H383C390.732 558 397 551.732 397 544V533V531H395H364Z" stroke="#090909" stroke-width="4"/>
<g filter="url(#filter4_i_1254_32743)">
<path d="M400 533H431V544C431 550.627 425.627 556 419 556H412C405.373 556 400 550.627 400 544V533Z" fill="white"/>
</g>
<path d="M400 531H398V533V544C398 551.732 404.268 558 412 558H419C426.732 558 433 551.732 433 544V533V531H431H400Z" stroke="#090909" stroke-width="4"/>
<g filter="url(#filter5_i_1254_32743)">
<path d="M436 533H467V544C467 550.627 461.627 556 455 556H448C441.373 556 436 550.627 436 544V533Z" fill="white"/>
</g>
<path d="M436 531H434V533V544C434 551.732 440.268 558 448 558H455C462.732 558 469 551.732 469 544V533V531H467H436Z" stroke="#090909" stroke-width="4"/>
</g>
</g>
<defs>
<filter id="filter0_d_1254_32743" x="309.262" y="526" width="175.476" height="83" filterUnits="userSpaceOnUse" color-interpolation-filters="sRGB">
<feFlood flood-opacity="0" result="BackgroundImageFix"/>
<feColorMatrix in="SourceAlpha" type="matrix" values="0 0 0 0 0 0 0 0 0 0 0 0 0 0 0 0 0 0 127 0" result="hardAlpha"/>
<feOffset dx="-1" dy="7"/>
<feGaussianBlur stdDeviation="2"/>
<feComposite in2="hardAlpha" operator="out"/>
<feColorMatrix type="matrix" values="0 0 0 0 0 0 0 0 0 0 0 0 0 0 0 0 0 0 0.25 0"/>
<feBlend mode="normal" in2="BackgroundImageFix" result="effect1_dropShadow_1254_32743"/>
<feBlend mode="normal" in="SourceGraphic" in2="effect1_dropShadow_1254_32743" result="shape"/>
</filter>
<filter id="filter1_d_1254_32743" x="319" y="529" width="155" height="42" filterUnits="userSpaceOnUse" color-interpolation-filters="sRGB">
<feFlood flood-opacity="0" result="BackgroundImageFix"/>
<feColorMatrix in="SourceAlpha" type="matrix" values="0 0 0 0 0 0 0 0 0 0 0 0 0 0 0 0 0 0 127 0" result="hardAlpha"/>
<feOffset dx="-1" dy="7"/>
<feGaussianBlur stdDeviation="2"/>
<feComposite in2="hardAlpha" operator="out"/>
<feColorMatrix type="matrix" values="0 0 0 0 0 0 0 0 0 0 0 0 0 0 0 0 0 0 0.25 0"/>
<feBlend mode="normal" in2="BackgroundImageFix" result="effect1_dropShadow_1254_32743"/>
<feBlend mode="normal" in="SourceGraphic" in2="effect1_dropShadow_1254_32743" result="shape"/>
</filter>
<filter id="filter2_i_1254_32743" x="324" y="529" width="39" height="31" filterUnits="userSpaceOnUse" color-interpolation-filters="sRGB">
<feFlood flood-opacity="0" result="BackgroundImageFix"/>
<feBlend mode="normal" in="SourceGraphic" in2="BackgroundImageFix" result="shape"/>
<feColorMatrix in="SourceAlpha" type="matrix" values="0 0 0 0 0 0 0 0 0 0 0 0 0 0 0 0 0 0 127 0" result="hardAlpha"/>
<feOffset dx="-5" dy="-8"/>
<feComposite in2="hardAlpha" operator="arithmetic" k2="-1" k3="1"/>
<feColorMatrix type="matrix" values="0 0 0 0 0 0 0 0 0 0 0 0 0 0 0 0 0 0 0.25 0"/>
<feBlend mode="normal" in2="shape" result="effect1_innerShadow_1254_32743"/>
</filter>
<filter id="filter3_i_1254_32743" x="360" y="529" width="39" height="31" filterUnits="userSpaceOnUse" color-interpolation-filters="sRGB">
<feFlood flood-opacity="0" result="BackgroundImageFix"/>
<feBlend mode="normal" in="SourceGraphic" in2="BackgroundImageFix" result="shape"/>
<feColorMatrix in="SourceAlpha" type="matrix" values="0 0 0 0 0 0 0 0 0 0 0 0 0 0 0 0 0 0 127 0" result="hardAlpha"/>
<feOffset dx="-5" dy="-8"/>
<feComposite in2="hardAlpha" operator="arithmetic" k2="-1" k3="1"/>
<feColorMatrix type="matrix" values="0 0 0 0 0 0 0 0 0 0 0 0 0 0 0 0 0 0 0.25 0"/>
<feBlend mode="normal" in2="shape" result="effect1_innerShadow_1254_32743"/>
</filter>
<filter id="filter4_i_1254_32743" x="396" y="529" width="39" height="31" filterUnits="userSpaceOnUse" color-interpolation-filters="sRGB">
<feFlood flood-opacity="0" result="BackgroundImageFix"/>
<feBlend mode="normal" in="SourceGraphic" in2="BackgroundImageFix" result="shape"/>
<feColorMatrix in="SourceAlpha" type="matrix" values="0 0 0 0 0 0 0 0 0 0 0 0 0 0 0 0 0 0 127 0" result="hardAlpha"/>
<feOffset dx="-5" dy="-8"/>
<feComposite in2="hardAlpha" operator="arithmetic" k2="-1" k3="1"/>
<feColorMatrix type="matrix" values="0 0 0 0 0 0 0 0 0 0 0 0 0 0 0 0 0 0 0.25 0"/>
<feBlend mode="normal" in2="shape" result="effect1_innerShadow_1254_32743"/>
</filter>
<filter id="filter5_i_1254_32743" x="432" y="529" width="39" height="31" filterUnits="userSpaceOnUse" color-interpolation-filters="sRGB">
<feFlood flood-opacity="0" result="BackgroundImageFix"/>
<feBlend mode="normal" in="SourceGraphic" in2="BackgroundImageFix" result="shape"/>
<feColorMatrix in="SourceAlpha" type="matrix" values="0 0 0 0 0 0 0 0 0 0 0 0 0 0 0 0 0 0 127 0" result="hardAlpha"/>
<feOffset dx="-5" dy="-8"/>
<feComposite in2="hardAlpha" operator="arithmetic" k2="-1" k3="1"/>
<feColorMatrix type="matrix" values="0 0 0 0 0 0 0 0 0 0 0 0 0 0 0 0 0 0 0.25 0"/>
<feBlend mode="normal" in2="shape" result="effect1_innerShadow_1254_32743"/>
</filter>
</defs>
</svg>
