<svg width="1008" height="1011" viewBox="0 0 1008 1011" fill="none" xmlns="http://www.w3.org/2000/svg">
<g filter="url(#filter0_d_920_29979)">
<circle cx="336.5" cy="447.5" r="53" fill="black" fill-opacity="0.5" stroke="#090909" stroke-width="9"/>
<path d="M525.5 447.5C525.5 476.734 501.584 500.5 472 500.5C442.416 500.5 418.5 476.734 418.5 447.5C418.5 418.266 442.416 394.5 472 394.5C501.584 394.5 525.5 418.266 525.5 447.5Z" fill="black" fill-opacity="0.5" stroke="#090909" stroke-width="9"/>
<line y1="-2.5" x2="87.8854" y2="-2.5" transform="matrix(-0.704983 0.709224 -0.704983 -0.709224 371.508 416.348)" stroke="white" stroke-opacity="0.7" stroke-width="5"/>
<line y1="-2.5" x2="87.8854" y2="-2.5" transform="matrix(-0.704983 0.709224 -0.704983 -0.709224 507.124 416.348)" stroke="white" stroke-opacity="0.7" stroke-width="5"/>
<line y1="-2.5" x2="52.6702" y2="-2.5" transform="matrix(-0.704983 0.709224 -0.704983 -0.709224 361.909 447.2)" stroke="white" stroke-opacity="0.7" stroke-width="5"/>
<line y1="-2.5" x2="52.6702" y2="-2.5" transform="matrix(-0.704983 0.709224 -0.704983 -0.709224 497.524 447.2)" stroke="white" stroke-opacity="0.7" stroke-width="5"/>
<ellipse cx="308.747" cy="422.048" rx="7.15575" ry="7.12534" fill="white" fill-opacity="0.7"/>
<ellipse cx="444.362" cy="422.048" rx="7.15575" ry="7.12534" fill="white" fill-opacity="0.7"/>
<path fill-rule="evenodd" clip-rule="evenodd" d="M521 416L658.538 416C664.868 416 670 419.134 670 423C670 426.866 664.868 430 658.538 430L521 430V416Z" fill="#090909"/>
<path d="M334 395L346.25 361.25M379 335.5H356L346.25 361.25M346.25 361.25L451.5 363.25L470.5 395H443.5M346.25 361.25L443.5 395M443.5 395L456.5 344" stroke="#090909" stroke-width="8" stroke-linecap="round" stroke-linejoin="round"/>
<path d="M435.818 337.182C436.913 336.413 438.218 336 439.555 336H465.5C469.09 336 472 338.91 472 342.5C472 346.09 469.09 349 465.5 349H439.555C433.206 349 430.623 340.832 435.818 337.182Z" fill="#090909"/>
</g>
<defs>
<filter id="filter0_d_920_29979" x="0" y="0" width="1008" height="1011" filterUnits="userSpaceOnUse" color-interpolation-filters="sRGB">
<feFlood flood-opacity="0" result="BackgroundImageFix"/>
<feColorMatrix in="SourceAlpha" type="matrix" values="0 0 0 0 0 0 0 0 0 0 0 0 0 0 0 0 0 0 127 0" result="hardAlpha"/>
<feOffset dx="-1" dy="7"/>
<feGaussianBlur stdDeviation="2"/>
<feComposite in2="hardAlpha" operator="out"/>
<feColorMatrix type="matrix" values="0 0 0 0 0 0 0 0 0 0 0 0 0 0 0 0 0 0 0.25 0"/>
<feBlend mode="normal" in2="BackgroundImageFix" result="effect1_dropShadow_920_29979"/>
<feBlend mode="normal" in="SourceGraphic" in2="effect1_dropShadow_920_29979" result="shape"/>
</filter>
</defs>
</svg>
