<svg width="1000" height="1000" viewBox="0 0 1000 1000" fill="none" xmlns="http://www.w3.org/2000/svg">
<mask id="path-1-outside-1_728_81306" maskUnits="userSpaceOnUse" x="200" y="201" width="600" height="599" fill="black">
<rect fill="white" x="200" y="201" width="600" height="599"/>
<path fill-rule="evenodd" clip-rule="evenodd" d="M791.939 489.283C791.939 538.983 778.463 585.663 754.828 626.137C753.169 628.979 753.402 632.514 754.992 635.394C760.531 645.426 762.806 659.423 760.404 674.31C758.429 686.545 753.633 697.286 747.302 705.136C745.916 706.855 745.14 708.999 745.196 711.206C745.214 711.937 745.224 712.673 745.224 713.415C745.224 733.572 738.252 749.913 729.652 749.913C721.796 749.913 715.299 736.278 714.234 718.554C714.17 717.495 713.56 716.582 712.621 716.09C710.209 714.826 706.227 716.818 706.281 719.54C706.29 719.993 706.295 720.447 706.295 720.902C706.295 748.295 689.955 770.501 669.798 770.501C656.667 770.501 645.156 761.077 638.727 746.934C636.622 742.304 631.158 739.795 626.542 741.93C623.846 743.177 621.126 744.386 618.384 745.555C615.933 746.6 614.163 748.776 613.452 751.344C607.07 774.394 588.305 791.089 566.149 791.089C551.545 791.089 538.414 783.836 529.332 772.29C527.515 769.98 524.722 768.586 521.791 768.794C514.586 769.305 507.31 769.565 499.969 769.565C471.408 769.565 443.804 765.628 417.715 758.289C412.846 756.919 407.857 760.319 405.486 764.786C401.027 773.186 392.059 778.924 381.722 778.924C369.286 778.924 358.832 770.62 355.827 759.367C355.078 756.563 352.021 754.592 349.119 754.592C339.444 754.592 331.601 745.584 331.601 734.471C331.601 730.639 332.534 727.057 334.153 724.008C335 722.414 334.664 720.354 333.164 719.35C331.413 718.178 329.011 719.032 328.034 720.899C324.809 727.065 318.896 731.196 312.136 731.196C301.923 731.196 293.645 721.769 293.645 710.14C293.645 704.702 295.455 699.745 298.427 696.009C299.402 694.783 299.396 692.968 298.242 691.908C296.766 690.554 294.359 691.21 293.687 693.096C288.627 707.297 279.995 716.65 270.196 716.65C254.609 716.65 241.973 692.978 241.973 663.777C241.973 653.104 243.661 643.17 246.564 634.86C247.414 632.428 247.232 629.731 245.92 627.514C221.783 586.722 208 539.548 208 489.283C208 334.487 338.719 209 499.969 209C661.22 209 791.939 334.487 791.939 489.283Z"/>
</mask>
<path fill-rule="evenodd" clip-rule="evenodd" d="M791.939 489.283C791.939 538.983 778.463 585.663 754.828 626.137C753.169 628.979 753.402 632.514 754.992 635.394C760.531 645.426 762.806 659.423 760.404 674.31C758.429 686.545 753.633 697.286 747.302 705.136C745.916 706.855 745.14 708.999 745.196 711.206C745.214 711.937 745.224 712.673 745.224 713.415C745.224 733.572 738.252 749.913 729.652 749.913C721.796 749.913 715.299 736.278 714.234 718.554C714.17 717.495 713.56 716.582 712.621 716.09C710.209 714.826 706.227 716.818 706.281 719.54C706.29 719.993 706.295 720.447 706.295 720.902C706.295 748.295 689.955 770.501 669.798 770.501C656.667 770.501 645.156 761.077 638.727 746.934C636.622 742.304 631.158 739.795 626.542 741.93C623.846 743.177 621.126 744.386 618.384 745.555C615.933 746.6 614.163 748.776 613.452 751.344C607.07 774.394 588.305 791.089 566.149 791.089C551.545 791.089 538.414 783.836 529.332 772.29C527.515 769.98 524.722 768.586 521.791 768.794C514.586 769.305 507.31 769.565 499.969 769.565C471.408 769.565 443.804 765.628 417.715 758.289C412.846 756.919 407.857 760.319 405.486 764.786C401.027 773.186 392.059 778.924 381.722 778.924C369.286 778.924 358.832 770.62 355.827 759.367C355.078 756.563 352.021 754.592 349.119 754.592C339.444 754.592 331.601 745.584 331.601 734.471C331.601 730.639 332.534 727.057 334.153 724.008C335 722.414 334.664 720.354 333.164 719.35C331.413 718.178 329.011 719.032 328.034 720.899C324.809 727.065 318.896 731.196 312.136 731.196C301.923 731.196 293.645 721.769 293.645 710.14C293.645 704.702 295.455 699.745 298.427 696.009C299.402 694.783 299.396 692.968 298.242 691.908C296.766 690.554 294.359 691.21 293.687 693.096C288.627 707.297 279.995 716.65 270.196 716.65C254.609 716.65 241.973 692.978 241.973 663.777C241.973 653.104 243.661 643.17 246.564 634.86C247.414 632.428 247.232 629.731 245.92 627.514C221.783 586.722 208 539.548 208 489.283C208 334.487 338.719 209 499.969 209C661.22 209 791.939 334.487 791.939 489.283Z" fill="#88C9F9"/>
<path d="M760.404 674.31L768.302 675.584V675.584L760.404 674.31ZM245.92 627.514L252.805 623.44L245.92 627.514ZM293.687 693.096L301.223 695.781L293.687 693.096ZM298.427 696.009L292.166 691.029L298.427 696.009ZM334.153 724.008L341.218 727.76L334.153 724.008ZM417.715 758.289L415.548 765.99L417.715 758.289ZM405.486 764.786L398.419 761.036L405.486 764.786ZM529.332 772.29L523.044 777.236L529.332 772.29ZM521.791 768.794L522.357 776.774L521.791 768.794ZM706.281 719.54L698.283 719.699L706.281 719.54ZM355.827 759.367L348.098 761.432L355.827 759.367ZM714.234 718.554L722.219 718.073L714.234 718.554ZM747.302 705.136L753.529 710.159L747.302 705.136ZM745.196 711.206L737.198 711.41L745.196 711.206ZM328.034 720.899L335.123 724.607L328.034 720.899ZM638.727 746.934L646.01 743.623L638.727 746.934ZM626.542 741.93L623.184 734.669L626.542 741.93ZM618.384 745.555L615.246 738.196L618.384 745.555ZM613.452 751.344L621.162 753.479L613.452 751.344ZM754.828 626.137L761.737 630.171L754.828 626.137ZM754.992 635.394L747.988 639.261L754.992 635.394ZM761.737 630.171C786.06 588.518 799.939 540.452 799.939 489.283H783.939C783.939 537.514 770.866 582.808 747.92 622.103L761.737 630.171ZM768.302 675.584C770.937 659.256 768.545 643.39 761.995 631.528L747.988 639.261C752.516 647.462 754.676 659.59 752.506 673.035L768.302 675.584ZM753.529 710.159C760.82 701.119 766.129 689.05 768.302 675.584L752.506 673.035C750.73 684.039 746.446 693.454 741.075 700.114L753.529 710.159ZM753.224 713.415C753.224 712.606 753.214 711.801 753.193 711.003L737.198 711.41C737.215 712.073 737.224 712.741 737.224 713.415H753.224ZM729.652 757.913C734.52 757.913 738.481 755.566 741.346 752.726C744.177 749.919 746.36 746.255 748.021 742.362C751.356 734.547 753.224 724.307 753.224 713.415H737.224C737.224 722.68 735.606 730.689 733.305 736.083C732.148 738.795 730.975 740.477 730.081 741.363C729.22 742.217 729.084 741.913 729.652 741.913V757.913ZM706.248 719.034C706.825 728.633 708.885 737.567 712.204 744.383C715.202 750.537 720.796 757.913 729.652 757.913V741.913C730.653 741.913 729.07 742.471 726.589 737.376C724.43 732.944 722.708 726.198 722.219 718.073L706.248 719.034ZM698.283 719.699C698.291 720.098 698.295 720.499 698.295 720.902H714.295C714.295 720.394 714.29 719.887 714.28 719.382L698.283 719.699ZM698.295 720.902C698.295 733.07 694.655 743.767 689.161 751.233C683.666 758.701 676.728 762.501 669.798 762.501V778.501C683.026 778.501 694.335 771.198 702.049 760.715C709.765 750.229 714.295 736.127 714.295 720.902H698.295ZM669.798 762.501C660.833 762.501 651.628 755.983 646.01 743.623L631.444 750.244C638.684 766.171 652.501 778.501 669.798 778.501V762.501ZM621.522 752.914C624.338 751.713 627.131 750.472 629.901 749.191L623.184 734.669C620.56 735.883 617.914 737.059 615.246 738.196L621.522 752.914ZM566.149 799.089C592.631 799.089 614.03 779.236 621.162 753.479L605.742 749.209C600.11 769.551 583.978 783.089 566.149 783.089V799.089ZM523.044 777.236C533.427 790.435 548.762 799.089 566.149 799.089V783.089C554.328 783.089 543.401 777.236 535.619 767.343L523.044 777.236ZM499.969 777.565C507.499 777.565 514.964 777.299 522.357 776.774L521.225 760.814C514.209 761.312 507.121 761.565 499.969 761.565V777.565ZM415.548 765.99C442.338 773.526 470.67 777.565 499.969 777.565V761.565C472.145 761.565 445.271 757.73 419.881 750.588L415.548 765.99ZM381.722 786.924C395.072 786.924 406.731 779.504 412.552 768.537L398.419 761.036C395.324 766.868 389.046 770.924 381.722 770.924V786.924ZM348.098 761.432C352.041 776.198 365.676 786.924 381.722 786.924V770.924C372.897 770.924 365.623 765.043 363.556 757.303L348.098 761.432ZM323.601 734.471C323.601 748.926 334.021 762.592 349.119 762.592V746.592C344.867 746.592 339.601 742.242 339.601 734.471H323.601ZM327.088 720.255C324.85 724.468 323.601 729.34 323.601 734.471H339.601C339.601 731.937 340.217 729.645 341.218 727.76L327.088 720.255ZM312.136 739.196C322.356 739.196 330.757 732.955 335.123 724.607L320.945 717.191C318.862 721.175 315.437 723.196 312.136 723.196V739.196ZM285.645 710.14C285.645 725.179 296.56 739.196 312.136 739.196V723.196C307.286 723.196 301.645 718.358 301.645 710.14H285.645ZM292.166 691.029C288.044 696.211 285.645 702.932 285.645 710.14H301.645C301.645 706.472 302.866 703.28 304.688 700.989L292.166 691.029ZM270.196 724.65C277.822 724.65 284.375 720.978 289.443 715.786C294.48 710.626 298.424 703.634 301.223 695.781L286.151 690.41C283.889 696.758 280.987 701.543 277.994 704.61C275.031 707.645 272.368 708.65 270.196 708.65V724.65ZM233.973 663.777C233.973 679.426 237.341 693.99 243.182 704.931C248.84 715.53 258.013 724.65 270.196 724.65V708.65C266.792 708.65 261.854 705.934 257.297 697.397C252.922 689.201 249.973 677.329 249.973 663.777H233.973ZM239.011 632.222C235.785 641.458 233.973 652.292 233.973 663.777H249.973C249.973 653.916 251.537 644.882 254.116 637.499L239.011 632.222ZM200 489.283C200 541.034 214.196 589.609 239.035 631.587L252.805 623.44C229.371 583.836 216 538.062 216 489.283H200ZM499.969 201C334.612 201 200 329.764 200 489.283H216C216 339.21 342.826 217 499.969 217V201ZM799.939 489.283C799.939 329.764 665.327 201 499.969 201V217C657.112 217 783.939 339.21 783.939 489.283H799.939ZM254.116 637.499C255.677 633.032 255.418 627.856 252.805 623.44L239.035 631.587C239.046 631.606 239.151 631.823 239.011 632.222L254.116 637.499ZM303.651 686.014C297.731 680.581 288.642 683.419 286.151 690.41L301.223 695.781C300.076 699 295.801 700.527 292.832 697.802L303.651 686.014ZM304.688 700.989C307.851 697.012 308.38 690.354 303.651 686.014L292.832 697.802C290.413 695.582 290.954 692.553 292.166 691.029L304.688 700.989ZM341.218 727.76C343.632 723.216 343.124 716.39 337.614 712.702L328.714 725.998C327.513 725.194 326.889 724.019 326.69 723.005C326.499 722.036 326.65 721.078 327.088 720.255L341.218 727.76ZM419.881 750.588C409.957 747.796 401.748 754.763 398.419 761.036L412.552 768.537C413.084 767.534 413.898 766.717 414.65 766.284C415 766.083 415.252 766.013 415.383 765.992C415.495 765.973 415.532 765.985 415.548 765.99L419.881 750.588ZM535.619 767.343C532.355 763.193 527.098 760.398 521.225 760.814L522.357 776.774C522.367 776.773 522.43 776.769 522.558 776.829C522.696 776.895 522.878 777.024 523.044 777.236L535.619 767.343ZM716.334 709.004C712.091 706.78 707.607 707.761 704.795 709.243C702.026 710.704 698.173 714.163 698.283 719.699L714.28 719.382C714.307 720.752 713.806 721.799 713.36 722.407C712.94 722.98 712.513 723.262 712.257 723.397C711.993 723.536 711.647 723.659 711.182 723.692C710.72 723.726 709.875 723.683 708.907 723.176L716.334 709.004ZM363.556 757.303C361.703 750.367 354.946 746.592 349.119 746.592V762.592C348.947 762.592 348.852 762.565 348.823 762.555C348.792 762.545 348.767 762.534 348.733 762.51C348.713 762.496 348.306 762.212 348.098 761.432L363.556 757.303ZM722.219 718.073C721.981 714.116 719.666 710.75 716.334 709.004L708.907 723.176C707.454 722.414 706.359 720.874 706.248 719.034L722.219 718.073ZM741.075 700.114C738.576 703.212 737.091 707.185 737.198 711.41L753.193 711.003C753.188 710.813 753.256 710.497 753.529 710.159L741.075 700.114ZM337.614 712.702C331.142 708.37 323.677 711.969 320.945 717.191L335.123 724.607C334.608 725.592 333.75 726.284 332.741 726.607C331.671 726.948 330.121 726.94 328.714 725.998L337.614 712.702ZM646.01 743.623C642.369 735.615 632.458 730.379 623.184 734.669L629.901 749.191C629.933 749.176 630.081 749.102 630.443 749.256C630.848 749.428 631.237 749.79 631.444 750.244L646.01 743.623ZM615.246 738.196C610.348 740.285 607.04 744.522 605.742 749.209L621.162 753.479C621.219 753.273 621.309 753.122 621.387 753.029C621.461 752.942 621.511 752.919 621.522 752.914L615.246 738.196ZM747.92 622.103C744.584 627.816 745.301 634.393 747.988 639.261L761.995 631.528C761.779 631.136 761.696 630.766 761.688 630.503C761.68 630.261 761.734 630.176 761.737 630.171L747.92 622.103Z" fill="#090909" mask="url(#path-1-outside-1_728_81306)"/>
<g filter="url(#filter0_d_728_81306)">
<path d="M243.548 607.134L243.548 607.135C243.609 608.109 243.673 609.071 243.736 610.022C244.052 614.812 244.35 619.31 244.178 623.523C244.048 626.737 243.645 629.664 242.814 632.291C218.497 590.733 204.322 542.523 204.322 490.881C204.322 383.251 264.879 289.877 353.702 242.732C358.997 242.832 363.797 242.719 368.061 242.618C370.487 242.561 372.74 242.508 374.812 242.501C380.815 242.479 385.514 242.829 389.692 244.321L389.692 244.321C392.904 245.467 394.068 246.563 394.528 247.3C394.966 248.002 395.045 248.798 394.93 250.254C394.916 250.437 394.897 250.638 394.876 250.855C394.754 252.136 394.58 253.961 395.036 255.732C395.632 258.053 397.177 260.082 400.064 261.819C405.059 264.824 408.698 266.331 412.295 266.482C415.834 266.631 419.022 265.431 422.834 263.996L422.865 263.984C425.19 263.109 427.271 261.677 429.096 260.231C430.016 259.503 430.903 258.744 431.738 258.024C431.849 257.928 431.958 257.833 432.067 257.739C432.789 257.116 433.467 256.531 434.133 255.986C435.708 254.698 436.938 253.881 437.97 253.541C438.818 253.262 439.449 253.316 440.198 253.847C442.237 255.288 445.212 255.881 448.043 256.233C450.063 256.485 452.339 256.644 454.592 256.802C455.586 256.871 456.575 256.94 457.535 257.017C460.776 257.276 463.792 257.624 466.259 258.313C468.773 259.016 470.277 259.954 471.011 261.059C473.564 264.904 476.827 268.672 481.136 270.673C485.603 272.748 490.827 272.76 496.819 269.787C499.215 268.598 503.553 267.327 509.076 266.212C514.535 265.11 520.952 264.198 527.375 263.657C533.805 263.116 540.182 262.952 545.575 263.323C551.092 263.703 555.156 264.621 557.297 265.944C560.321 267.812 564.356 269.214 568.71 270.316C573.1 271.427 577.987 272.273 582.819 272.957C587.654 273.641 592.482 274.169 596.748 274.632L596.998 274.66C601.189 275.115 604.767 275.503 607.34 275.919C610.135 276.37 613.967 276.763 617.984 277.165L618.872 277.254C622.66 277.632 626.603 278.026 630.148 278.494C634.023 279.005 637.205 279.579 639.137 280.244C639.227 280.275 639.31 280.305 639.389 280.334C639.125 280.869 638.948 281.483 638.968 282.168C639.012 283.63 639.913 284.553 640.548 285.032C641.158 285.492 641.892 285.826 642.401 286.054C642.526 286.11 642.646 286.163 642.76 286.214C643.194 286.406 643.556 286.567 643.914 286.758C644.836 287.251 644.906 287.529 644.925 287.647C644.972 287.935 644.934 289.069 643.065 291.644C639.377 296.724 630.071 304.898 621.12 311.529C616.68 314.818 612.449 317.637 609.19 319.438C607.544 320.347 606.251 320.937 605.355 321.22C605.278 321.244 605.208 321.265 605.144 321.283C605.055 321.147 604.956 320.986 604.846 320.797C604.508 320.215 604.143 319.504 603.719 318.655C603.636 318.489 603.55 318.317 603.463 318.142C602.687 316.585 601.752 314.707 600.628 312.931C598.164 309.038 594.22 304.746 587.83 305.392C585.872 305.59 583.746 305.621 581.472 305.655C581.052 305.661 580.627 305.667 580.197 305.675C577.516 305.721 574.66 305.813 572.044 306.282C569.432 306.751 566.8 307.638 564.731 309.466C562.591 311.358 561.314 314.025 561.026 317.512C560.817 320.039 559.851 322.863 558.534 325.825C557.712 327.672 556.848 329.383 555.999 331.065C555.449 332.154 554.905 333.23 554.383 334.323C553.754 335.641 553.178 336.948 552.775 338.167C552.383 339.351 552.078 340.667 552.177 341.939C552.285 343.334 552.893 344.716 554.265 345.644C555.493 346.474 557.031 346.728 558.595 346.728C561.691 346.728 564.689 345.955 567.357 345.08C568.594 344.674 569.8 344.232 570.923 343.821L571.2 343.719C572.42 343.273 573.526 342.872 574.558 342.557C576.734 341.89 578.04 341.786 578.842 342.041C579.349 342.202 580.144 342.662 580.747 344.883C582.148 350.045 582.346 353.885 581.911 357.054C581.476 360.229 580.385 362.897 578.958 365.745C578.015 367.629 577.836 369.122 577.815 370.295C577.811 370.559 577.814 370.809 577.816 370.991C577.816 371.068 577.816 371.133 577.816 371.19C577.816 371.266 577.815 371.327 577.813 371.38C577.659 371.49 577.296 371.709 576.531 372.015C575.092 372.592 572.721 373.295 568.792 374.278C565.102 375.202 563.042 375.064 561.919 374.765C560.896 374.493 560.45 374.047 559.996 373.592L559.991 373.587C559.879 373.475 559.668 373.261 559.447 373.078C559.234 372.901 558.797 372.564 558.172 372.398C556.477 371.947 555.342 373.075 554.93 373.554C554.466 374.093 554.001 374.86 553.509 375.725C552.993 376.631 552.337 377.849 551.491 379.419L551.472 379.453C548.899 384.228 545.041 387.613 541.25 390.938C540.352 391.725 539.459 392.509 538.587 393.307C536.412 395.299 534.291 397.473 533.04 400.014C531.715 402.706 531.422 405.688 532.641 409.042C533.563 411.578 534.419 413.82 535.202 415.87C537.84 422.782 539.65 427.523 540.369 434.043C540.747 437.471 538.816 441.707 535.511 446.488C533.91 448.804 532.087 451.111 530.266 453.365C529.893 453.827 529.518 454.288 529.145 454.747C527.722 456.5 526.324 458.221 525.127 459.818C519.179 467.758 512.788 474.859 504.966 476.586C500.573 477.556 496.195 478.613 492.31 481.251C488.343 483.945 485.123 488.108 482.538 494.851C481.143 498.488 480.867 502.429 480.917 506.067C480.942 507.898 481.051 509.703 481.159 511.388C481.17 511.553 481.181 511.716 481.191 511.878C481.289 513.396 481.38 514.797 481.412 516.102C481.487 519.153 481.191 520.93 480.549 521.866C480.164 522.426 479.275 523.216 476.104 522.785C462.395 520.922 455.696 512.672 454.921 507.201C454.593 504.884 453.201 502.331 451.647 499.982C450.037 497.549 448.003 494.976 446.029 492.569C445.296 491.675 444.578 490.811 443.888 489.981C442.681 488.529 441.559 487.18 440.594 485.952C439.843 484.998 439.237 484.178 438.798 483.504C438.58 483.169 438.421 482.896 438.311 482.68C438.206 482.473 438.175 482.374 438.172 482.362C438.171 482.361 438.171 482.361 438.171 482.362C437.908 481.299 437.196 480.287 436.57 479.508C435.877 478.644 434.988 477.704 434.009 476.747C432.045 474.828 429.554 472.685 427.137 470.7C424.712 468.708 422.322 466.845 420.542 465.482C419.651 464.799 418.91 464.241 418.392 463.852C418.132 463.658 417.928 463.506 417.789 463.402L417.628 463.283L417.586 463.252L417.575 463.244L417.572 463.242L417.571 463.241C417.571 463.241 417.571 463.241 417.468 463.381L417.571 463.241L415.841 461.965L414.32 463.485L416.087 465.253C414.32 463.485 414.319 463.485 414.319 463.486L414.317 463.488L414.314 463.491L414.303 463.502L414.27 463.536C414.242 463.564 414.203 463.604 414.154 463.655C414.056 463.757 413.917 463.903 413.744 464.091C413.397 464.467 412.909 465.012 412.328 465.706C411.167 467.093 409.622 469.088 408.076 471.538C405.013 476.39 401.793 483.262 401.793 490.834C401.793 497.931 402.801 505.714 403.793 511.67C404.29 514.659 404.788 517.213 405.162 519.021C405.285 519.614 405.394 520.128 405.486 520.551C405.078 520.866 404.52 521.2 403.815 521.412C402.325 521.86 399.473 521.968 395.036 518.415C391.481 515.567 387.673 513.383 384.254 511.421C382.81 510.592 381.435 509.803 380.177 509.021C375.809 506.303 372.359 503.433 370.194 498.677C367.79 493.393 365.122 486.122 363.056 479.313C360.957 472.395 359.6 466.335 359.6 463.317C359.6 461.002 358.648 458.363 357.414 455.909C356.144 453.383 354.42 450.753 352.558 448.373C350.699 445.998 348.643 443.797 346.676 442.163C345.693 441.347 344.684 440.631 343.69 440.107C342.732 439.602 341.591 439.171 340.399 439.171C337.73 439.171 330.188 439.94 323.131 441.181C319.586 441.804 316.054 442.565 313.248 443.443C311.851 443.88 310.551 444.371 309.492 444.928C308.549 445.425 307.324 446.211 306.707 447.456C305.868 449.149 304.061 451.671 301.743 454.48C299.461 457.244 296.81 460.138 294.409 462.542C293.322 463.629 291.838 465.296 290.193 467.144C289.883 467.493 289.567 467.848 289.247 468.207C287.191 470.51 284.896 473.048 282.614 475.332C280.31 477.639 278.128 479.575 276.303 480.747C275.386 481.336 274.691 481.646 274.211 481.764C274 481.816 273.884 481.82 273.833 481.817C273.459 481.592 273.015 481.329 272.511 481.032C269.556 479.287 264.568 476.341 260.003 472.787C257.317 470.696 254.882 468.472 253.139 466.253C251.367 463.996 250.525 462.019 250.525 460.373C250.525 457.182 249.342 454.992 247.446 453.431C246.149 452.363 244.452 451.583 243.058 450.943C242.718 450.786 242.396 450.638 242.102 450.497C240.421 449.685 239.025 448.84 237.954 447.481C236.907 446.151 235.989 444.089 235.769 440.541C235.27 432.478 233.261 424.662 230.894 420.622C230.303 419.613 229.555 418.6 228.605 417.933C227.546 417.19 225.984 416.756 224.435 417.645C223.194 418.357 222.496 419.656 222.058 420.815C221.585 422.067 221.228 423.673 220.968 425.612C219.965 433.076 219.681 438.255 220.462 443.873C221.234 449.424 223.032 455.292 225.981 464.124C228.943 472.999 231.488 479.185 234.519 483.672C237.635 488.285 241.215 491.03 246.019 493.166C248.717 494.365 249.624 495.626 250.742 497.181C251.18 497.79 251.65 498.444 252.274 499.158C253.414 500.463 254.885 501.579 257.209 502.15C259.4 502.689 262.215 502.711 266.029 502.207C269.818 501.705 273.214 501.015 276.163 500.366C277.05 500.171 277.884 499.982 278.672 499.804C280.55 499.379 282.161 499.015 283.583 498.765C285.673 498.398 286.82 498.39 287.415 498.559C287.532 498.592 287.592 498.623 287.617 498.638C287.638 498.651 287.643 498.657 287.645 498.66C287.649 498.664 287.672 498.691 287.704 498.765C287.737 498.843 287.78 498.975 287.815 499.182C288.037 500.504 288.558 502.073 289.05 503.553C289.194 503.988 289.336 504.415 289.467 504.826C290.095 506.795 290.627 508.791 290.732 510.823C290.835 512.817 290.525 514.834 289.451 516.865C288.368 518.911 286.424 521.131 283.009 523.378C272.487 530.303 270.077 533.1 266.648 537.081C265.185 538.779 263.536 540.693 260.993 543.234C258.984 545.242 256.964 546.595 254.963 547.81C254.564 548.053 254.152 548.296 253.735 548.544C252.146 549.485 250.468 550.479 249.014 551.664C247.066 553.253 245.401 555.254 244.257 558.199C243.138 561.082 242.568 564.742 242.568 569.592C242.568 588.32 242.569 591.32 243.548 607.134ZM406.211 519.861C406.214 519.857 406.212 519.859 406.207 519.866L406.211 519.861ZM273.801 481.812C273.801 481.812 273.806 481.812 273.816 481.815C273.806 481.814 273.801 481.813 273.801 481.812ZM483.311 577.451C485.185 578.974 486.44 580.248 487.235 581.288C488.04 582.342 488.275 583.026 488.325 583.383C488.362 583.649 488.311 583.774 488.202 583.917C488.039 584.131 487.667 584.45 486.93 584.783C485.438 585.456 483.186 585.862 480.727 586.01C478.312 586.155 475.961 586.037 474.42 585.818C473.778 585.726 473.157 585.643 472.551 585.562C469.713 585.185 467.214 584.852 464.585 583.764C461.519 582.494 458.178 580.119 454.468 575.017C451.117 570.408 451.026 565.572 451.96 560.195C452.282 558.341 452.702 556.537 453.138 554.664C453.352 553.746 453.57 552.811 453.782 551.846C454.198 549.95 454.577 547.989 454.783 546.006C455.397 546.218 456.053 546.521 456.68 546.95C457.663 547.622 458.612 548.628 459.24 550.199C459.876 551.789 460.241 554.107 459.796 557.473C459.305 561.187 459.35 564.115 460.622 566.266C461.993 568.585 464.373 569.324 466.345 569.819C466.861 569.948 467.402 570.072 467.969 570.201C471.837 571.082 476.894 572.234 483.311 577.451Z" fill="#008026" stroke="black" stroke-width="5"/>
<path d="M579.02 420.817L579.146 421.809L579.923 422.44C581.701 423.886 582.562 425.078 582.926 425.971C583.257 426.783 583.217 427.428 582.959 428.049C582.667 428.751 582.028 429.568 580.913 430.449C579.812 431.32 578.371 432.155 576.678 432.926C573.292 434.47 569.17 435.64 565.45 436.361C563.428 436.753 561.625 436.992 560.188 437.104C560.209 437.084 560.231 437.064 560.252 437.043C560.975 436.365 561.811 435.579 562.642 434.731C564.497 432.836 566.592 430.367 567.609 427.466C568.692 424.378 568.498 420.935 566.021 417.53C562.754 413.037 563.008 408.308 564.383 402.883C564.802 401.227 565.273 399.687 565.76 398.092C566.113 396.937 566.475 395.753 566.832 394.475C567.374 392.539 567.86 390.525 568.118 388.48C568.742 388.692 569.413 388.997 570.052 389.434C571.035 390.105 571.983 391.108 572.609 392.677C573.244 394.266 573.607 396.582 573.159 399.95C572.662 403.682 572.602 406.198 573.006 408.038C573.22 409.014 573.568 409.823 574.051 410.525C574.516 411.201 575.046 411.685 575.444 412.035C575.516 412.098 575.586 412.16 575.654 412.219C576.311 412.791 576.781 413.201 577.282 414.122C577.872 415.209 578.549 417.135 579.02 420.817ZM496.35 558.769L496.351 558.767C499.643 552.533 502.834 550.109 505.575 549.506C508.319 548.903 511.481 549.934 515.179 552.709C517.039 554.106 519.697 555.741 522.42 557.416C522.745 557.615 523.07 557.816 523.396 558.016C526.524 559.945 529.702 561.94 532.226 563.879C533.486 564.847 534.521 565.754 535.282 566.584C536.069 567.442 536.417 568.061 536.529 568.436C536.597 568.662 536.569 568.7 536.522 568.763C536.518 568.768 536.514 568.773 536.51 568.779C536.357 568.991 535.848 569.47 534.455 570.006C528.601 572.257 525.674 575.814 523.964 577.892C523.609 578.323 523.307 578.69 523.041 578.969C522.846 579.175 522.712 579.291 522.631 579.354C522.416 579.264 522 579.025 521.321 578.444C520.585 577.816 519.66 576.891 518.475 575.574C515.666 572.455 512.145 570.616 508.78 569.345C506.694 568.558 504.409 567.912 502.419 567.349C501.358 567.049 500.38 566.772 499.561 566.511C498.273 566.099 497.259 565.702 496.49 565.266C495.728 564.834 495.348 564.443 495.155 564.11C494.855 563.594 494.503 562.262 496.35 558.769ZM629.701 598.508L629.704 598.511C631.201 600.307 633.773 602.149 636.255 603.797C637.447 604.589 638.609 605.33 639.729 606.045C641.137 606.944 642.481 607.802 643.741 608.667C644.506 609.192 645.169 609.674 645.714 610.109C645.682 610.112 645.65 610.115 645.618 610.117C640.25 610.545 636.499 608.874 632.322 606.4C631.553 605.945 630.763 605.456 629.943 604.949C626.328 602.714 622.128 600.117 616.626 598.422C613.086 597.332 610.243 597.235 607.742 597.638C605.809 597.949 604.081 598.574 602.644 599.094C602.309 599.215 601.989 599.331 601.686 599.435C600.019 600.011 598.582 600.378 596.854 600.26C595.11 600.14 592.838 599.506 589.626 597.667C583.156 593.962 576.377 594.111 571.113 594.226C570.195 594.246 569.324 594.265 568.509 594.263C565.595 594.254 563.514 594.002 561.959 593.156C560.565 592.398 559.249 590.961 558.393 587.689C557.406 583.916 556.193 580.236 555.122 576.99L555.062 576.806C553.956 573.453 553.046 570.67 552.603 568.56C552.44 567.781 552.361 567.187 552.341 566.751C552.895 566.901 553.703 567.217 554.828 567.797C555.976 568.391 557.345 569.347 559.121 570.591C560.838 571.793 562.843 573.193 565.073 574.48C569.545 577.058 575.12 579.294 581.721 578.748C584.143 578.547 585.747 579.075 587.024 579.884C588.406 580.759 589.528 582.03 590.912 583.657C590.966 583.72 591.02 583.784 591.075 583.848C592.347 585.345 593.868 587.136 595.86 588.496C598.036 589.982 600.698 590.92 604.177 590.837C609.86 590.708 615.241 591.356 619.733 592.706C624.258 594.065 627.677 596.074 629.701 598.508ZM552.378 566.084C552.378 566.084 552.376 566.09 552.372 566.1C552.375 566.088 552.377 566.083 552.378 566.084ZM551.704 566.64C551.694 566.642 551.688 566.642 551.688 566.642C551.688 566.641 551.693 566.641 551.704 566.64ZM579.303 618.403C580.746 619.623 582.652 621.049 584.707 622.586C584.853 622.695 585.001 622.806 585.149 622.917C587.402 624.602 589.862 626.453 592.283 628.445C597.19 632.483 601.645 636.874 603.845 641.285C606.1 645.805 609.435 648.269 611.858 650.06C612.408 650.467 612.912 650.839 613.345 651.192C614.561 652.185 615.26 653 615.619 653.999C615.98 655.001 616.124 656.547 615.46 659.212C614.665 662.402 614.35 665.98 614.134 669.557C614.069 670.63 614.014 671.699 613.958 672.766C613.824 675.337 613.69 677.896 613.434 680.455C612.708 687.703 611.056 694.011 606.379 698.269C602.412 701.882 598.911 705.806 595.614 709.502C594.338 710.932 593.093 712.329 591.863 713.659C587.37 718.519 582.951 722.669 577.473 725.41C575.216 726.54 571.684 726.805 567.29 726.141C562.979 725.488 558.199 723.996 553.728 722.035C549.252 720.072 545.205 717.692 542.325 715.338C540.882 714.159 539.801 713.042 539.1 712.048C538.382 711.03 538.198 710.336 538.198 709.949C538.198 704.459 534.709 699.799 530.738 695.822C528.706 693.788 526.415 691.806 524.139 689.876C523.709 689.512 523.28 689.15 522.853 688.789C520.994 687.219 519.171 685.679 517.452 684.113C512.952 680.011 508.904 677.88 504.606 678.009C500.422 678.134 496.63 680.407 492.671 683.379C488.94 686.18 487.276 689.109 486.028 691.306C485.8 691.708 485.586 692.086 485.375 692.434C484.702 693.545 484.095 694.339 483.234 694.983C482.372 695.628 481.082 696.249 478.887 696.692C476.024 697.269 472.225 699.118 468.486 701.045C467.486 701.56 466.477 702.088 465.467 702.618C462.534 704.153 459.587 705.697 456.804 706.95C454.947 707.786 453.242 708.455 451.745 708.885C450.217 709.323 449.081 709.461 448.303 709.383C447.603 709.313 447.386 709.102 447.263 708.922C447.068 708.637 446.768 707.887 446.873 706.187C447.101 702.509 448.06 698.035 449.337 693.128C450.041 690.424 450.788 687.774 451.544 685.096C452.196 682.783 452.855 680.449 453.496 678.042C454.826 673.047 455.971 668.112 456.361 663.817C456.741 659.637 456.471 655.464 454.333 652.479C452.469 649.872 450.432 648.495 448.671 647.701C448.544 647.644 448.419 647.59 448.297 647.539C448.97 646.87 449.834 646.035 450.932 644.975C451.812 644.126 452.842 643.131 454.043 641.961C463.009 633.238 469.044 627.476 482.448 620.776C489.257 617.372 498.536 613.217 506.848 609.79C511.002 608.078 514.894 606.556 518.099 605.406C521.37 604.232 523.747 603.511 524.963 603.309C525.746 603.179 526.535 603.022 527.291 602.87L527.465 602.835C528.171 602.693 528.849 602.557 529.524 602.437C530.995 602.178 532.303 602.029 533.486 602.098C534.641 602.165 535.613 602.436 536.461 602.978C537.306 603.519 538.195 604.436 539.015 606.059C541.082 610.157 543.605 613.388 547.011 615.072C550.512 616.804 554.455 616.667 558.803 615.065C565.841 612.473 574.116 614.015 579.303 618.403Z" fill="#008026" stroke="black" stroke-width="5"/>
</g>
<path d="M218 499C218 343.256 346.942 217 506 217" stroke="white" stroke-opacity="0.25" stroke-width="15" stroke-linecap="round"/>
<path fill-rule="evenodd" clip-rule="evenodd" d="M620.982 744.707C620.895 744.601 620.748 744.566 620.623 744.622C620.581 744.641 620.54 744.66 620.498 744.679C620.381 744.731 620.29 744.829 620.244 744.949C619.362 747.221 617.697 749.656 615.191 752.762C614.221 753.965 613.606 755.41 613.336 756.932C612.374 762.344 610.389 767.544 607.474 772.269C604.14 777.672 599.665 782.33 594.343 785.938C589.021 789.546 582.971 792.023 576.592 793.205C570.212 794.388 563.647 794.249 557.326 792.799C551.006 791.349 545.073 788.619 539.918 784.79C534.763 780.961 530.501 776.118 527.413 770.58C527.117 770.049 526.539 769.735 525.933 769.791C517.291 770.591 508.583 771 499.835 771C471.281 771 443.655 766.685 417.524 758.86C412.675 757.407 407.624 760.726 405.178 765.158C400.655 773.355 391.799 778.924 381.615 778.924C369.267 778.924 358.871 770.735 355.784 759.602C354.955 756.611 351.646 754.486 348.542 754.486C338.598 754.486 330.537 745.364 330.537 734.113C330.537 732.358 327.63 730.621 326.084 731.449C322.907 733.15 319.29 734.113 315.452 734.113C302.82 734.113 292.581 723.688 292.581 710.829C292.581 710.52 292.216 710.341 291.973 710.533C286.484 714.853 279.889 717.197 276.022 717.549C275.385 717.607 274.742 717.683 274.114 717.802C254.605 721.498 239.053 691.454 239.053 665.588C239.053 654.196 239.743 646.781 241.969 642.035C244.283 637.101 247.077 630.565 244.222 625.924C224.487 593.858 211.805 558.993 208.118 524.085C207.407 517.356 215.602 514.473 219.682 519.87C220.301 520.688 220.739 521.664 220.961 522.665C280.878 793.604 639.247 801.378 778.69 499.785C782.221 492.147 793.144 493.969 792.862 502.379C791.357 547.236 777.679 589.537 755.176 626.723C753.477 629.53 753.648 633.058 755.19 635.954C760.507 645.943 762.656 659.698 760.298 674.31C758.323 686.545 753.527 697.287 747.195 705.137C745.809 706.856 745.033 709 745.089 711.207C745.108 711.938 745.117 712.674 745.117 713.415C745.117 733.572 738.145 749.913 729.545 749.913C721.687 749.913 715.188 736.269 714.126 718.536C714.063 717.488 713.459 716.584 712.529 716.098C710.127 714.841 706.129 716.857 706.188 719.567C706.199 720.048 706.204 720.531 706.204 721.016C706.204 748.609 688.993 770.978 667.761 770.978C656.837 770.978 651.358 765.585 645.232 759.556C639.467 753.882 633.13 747.645 621.145 744.808C621.082 744.793 621.023 744.757 620.982 744.707Z" fill="black" fill-opacity="0.25"/>
<defs>
<filter id="filter0_d_728_81306" x="196.822" y="240" width="455.71" height="500" filterUnits="userSpaceOnUse" color-interpolation-filters="sRGB">
<feFlood flood-opacity="0" result="BackgroundImageFix"/>
<feColorMatrix in="SourceAlpha" type="matrix" values="0 0 0 0 0 0 0 0 0 0 0 0 0 0 0 0 0 0 127 0" result="hardAlpha"/>
<feOffset dx="-1" dy="7"/>
<feGaussianBlur stdDeviation="2"/>
<feComposite in2="hardAlpha" operator="out"/>
<feColorMatrix type="matrix" values="0 0 0 0 0 0 0 0 0 0 0 0 0 0 0 0 0 0 0.25 0"/>
<feBlend mode="normal" in2="BackgroundImageFix" result="effect1_dropShadow_728_81306"/>
<feBlend mode="normal" in="SourceGraphic" in2="effect1_dropShadow_728_81306" result="shape"/>
</filter>
</defs>
</svg>
