<svg width="1000" height="1000" viewBox="0 0 1000 1000" fill="none" xmlns="http://www.w3.org/2000/svg">
<mask id="path-1-outside-1_445_37320" maskUnits="userSpaceOnUse" x="200" y="201" width="600" height="599" fill="black">
<rect fill="white" x="200" y="201" width="600" height="599"/>
<path fill-rule="evenodd" clip-rule="evenodd" d="M791.939 489.283C791.939 538.983 778.463 585.663 754.828 626.137C753.169 628.979 753.402 632.514 754.992 635.394C760.531 645.426 762.806 659.423 760.404 674.31C758.429 686.545 753.633 697.286 747.302 705.136C745.916 706.855 745.14 708.999 745.196 711.206C745.214 711.937 745.224 712.673 745.224 713.415C745.224 733.572 738.252 749.913 729.652 749.913C721.796 749.913 715.299 736.278 714.234 718.554C714.17 717.495 713.56 716.582 712.621 716.09C710.209 714.826 706.227 716.818 706.281 719.54C706.29 719.993 706.295 720.447 706.295 720.902C706.295 748.295 689.955 770.501 669.798 770.501C656.667 770.501 645.156 761.077 638.727 746.934C636.622 742.304 631.158 739.795 626.542 741.93C623.846 743.177 621.126 744.386 618.384 745.555C615.933 746.6 614.163 748.776 613.452 751.344C607.07 774.394 588.305 791.089 566.149 791.089C551.545 791.089 538.414 783.836 529.332 772.29C527.515 769.98 524.722 768.586 521.791 768.794C514.586 769.305 507.31 769.565 499.969 769.565C471.408 769.565 443.804 765.628 417.715 758.289C412.846 756.919 407.857 760.319 405.486 764.786C401.027 773.186 392.059 778.924 381.722 778.924C369.286 778.924 358.832 770.62 355.827 759.367C355.078 756.563 352.021 754.592 349.119 754.592C339.444 754.592 331.601 745.584 331.601 734.471C331.601 730.639 332.534 727.057 334.153 724.008C335 722.414 334.664 720.354 333.164 719.35C331.413 718.178 329.011 719.032 328.034 720.899C324.809 727.065 318.896 731.196 312.136 731.196C301.923 731.196 293.645 721.769 293.645 710.14C293.645 704.702 295.455 699.745 298.427 696.009C299.402 694.783 299.396 692.968 298.242 691.908C296.766 690.554 294.359 691.21 293.687 693.096C288.627 707.297 279.995 716.65 270.196 716.65C254.609 716.65 241.973 692.978 241.973 663.777C241.973 653.104 243.661 643.17 246.564 634.86C247.414 632.428 247.232 629.731 245.92 627.514C221.783 586.722 208 539.548 208 489.283C208 334.487 338.719 209 499.969 209C661.22 209 791.939 334.487 791.939 489.283Z"/>
</mask>
<path fill-rule="evenodd" clip-rule="evenodd" d="M791.939 489.283C791.939 538.983 778.463 585.663 754.828 626.137C753.169 628.979 753.402 632.514 754.992 635.394C760.531 645.426 762.806 659.423 760.404 674.31C758.429 686.545 753.633 697.286 747.302 705.136C745.916 706.855 745.14 708.999 745.196 711.206C745.214 711.937 745.224 712.673 745.224 713.415C745.224 733.572 738.252 749.913 729.652 749.913C721.796 749.913 715.299 736.278 714.234 718.554C714.17 717.495 713.56 716.582 712.621 716.09C710.209 714.826 706.227 716.818 706.281 719.54C706.29 719.993 706.295 720.447 706.295 720.902C706.295 748.295 689.955 770.501 669.798 770.501C656.667 770.501 645.156 761.077 638.727 746.934C636.622 742.304 631.158 739.795 626.542 741.93C623.846 743.177 621.126 744.386 618.384 745.555C615.933 746.6 614.163 748.776 613.452 751.344C607.07 774.394 588.305 791.089 566.149 791.089C551.545 791.089 538.414 783.836 529.332 772.29C527.515 769.98 524.722 768.586 521.791 768.794C514.586 769.305 507.31 769.565 499.969 769.565C471.408 769.565 443.804 765.628 417.715 758.289C412.846 756.919 407.857 760.319 405.486 764.786C401.027 773.186 392.059 778.924 381.722 778.924C369.286 778.924 358.832 770.62 355.827 759.367C355.078 756.563 352.021 754.592 349.119 754.592C339.444 754.592 331.601 745.584 331.601 734.471C331.601 730.639 332.534 727.057 334.153 724.008C335 722.414 334.664 720.354 333.164 719.35C331.413 718.178 329.011 719.032 328.034 720.899C324.809 727.065 318.896 731.196 312.136 731.196C301.923 731.196 293.645 721.769 293.645 710.14C293.645 704.702 295.455 699.745 298.427 696.009C299.402 694.783 299.396 692.968 298.242 691.908C296.766 690.554 294.359 691.21 293.687 693.096C288.627 707.297 279.995 716.65 270.196 716.65C254.609 716.65 241.973 692.978 241.973 663.777C241.973 653.104 243.661 643.17 246.564 634.86C247.414 632.428 247.232 629.731 245.92 627.514C221.783 586.722 208 539.548 208 489.283C208 334.487 338.719 209 499.969 209C661.22 209 791.939 334.487 791.939 489.283Z" fill="#88C9F9"/>
<path d="M760.404 674.31L768.302 675.584V675.584L760.404 674.31ZM245.92 627.514L252.805 623.44L245.92 627.514ZM293.687 693.096L301.223 695.781L293.687 693.096ZM298.427 696.009L292.166 691.029L298.427 696.009ZM334.153 724.008L327.088 720.255L334.153 724.008ZM417.715 758.289L415.548 765.99L417.715 758.289ZM405.486 764.786L398.419 761.036L405.486 764.786ZM529.332 772.29L523.044 777.236L529.332 772.29ZM521.791 768.794L522.357 776.774L521.791 768.794ZM706.281 719.54L698.283 719.699L706.281 719.54ZM355.827 759.367L348.098 761.432L355.827 759.367ZM714.234 718.554L722.219 718.073L714.234 718.554ZM747.302 705.136L753.529 710.159L747.302 705.136ZM745.196 711.206L737.198 711.41L745.196 711.206ZM328.034 720.899L335.123 724.607L328.034 720.899ZM638.727 746.934L646.01 743.623L638.727 746.934ZM626.542 741.93L623.184 734.669L626.542 741.93ZM618.384 745.555L615.246 738.196L618.384 745.555ZM613.452 751.344L621.162 753.479L613.452 751.344ZM754.828 626.137L761.737 630.171L754.828 626.137ZM754.992 635.394L747.988 639.261L754.992 635.394ZM761.737 630.171C786.06 588.518 799.939 540.452 799.939 489.283H783.939C783.939 537.514 770.866 582.808 747.92 622.103L761.737 630.171ZM768.302 675.584C770.937 659.256 768.545 643.39 761.995 631.528L747.988 639.261C752.516 647.462 754.676 659.59 752.506 673.035L768.302 675.584ZM753.529 710.159C760.82 701.119 766.129 689.05 768.302 675.584L752.506 673.035C750.73 684.039 746.446 693.454 741.075 700.114L753.529 710.159ZM753.224 713.415C753.224 712.606 753.214 711.801 753.193 711.003L737.198 711.41C737.215 712.073 737.224 712.741 737.224 713.415H753.224ZM729.652 757.913C734.52 757.913 738.481 755.566 741.346 752.726C744.177 749.919 746.36 746.255 748.021 742.362C751.356 734.547 753.224 724.307 753.224 713.415H737.224C737.224 722.68 735.606 730.689 733.305 736.083C732.148 738.795 730.975 740.477 730.081 741.363C729.22 742.217 729.084 741.913 729.652 741.913V757.913ZM706.248 719.034C706.825 728.633 708.885 737.567 712.204 744.383C715.202 750.537 720.796 757.913 729.652 757.913V741.913C730.653 741.913 729.07 742.471 726.589 737.376C724.43 732.944 722.708 726.198 722.219 718.073L706.248 719.034ZM698.283 719.699C698.291 720.098 698.295 720.499 698.295 720.902H714.295C714.295 720.394 714.29 719.887 714.28 719.382L698.283 719.699ZM698.295 720.902C698.295 733.07 694.655 743.767 689.161 751.233C683.666 758.701 676.728 762.501 669.798 762.501V778.501C683.026 778.501 694.335 771.198 702.049 760.715C709.765 750.229 714.295 736.127 714.295 720.902H698.295ZM669.798 762.501C660.833 762.501 651.628 755.983 646.01 743.623L631.444 750.244C638.684 766.171 652.501 778.501 669.798 778.501V762.501ZM621.522 752.914C624.338 751.713 627.131 750.472 629.901 749.191L623.184 734.669C620.56 735.883 617.914 737.059 615.246 738.196L621.522 752.914ZM566.149 799.089C592.631 799.089 614.03 779.236 621.162 753.479L605.742 749.209C600.11 769.551 583.978 783.089 566.149 783.089V799.089ZM523.044 777.236C533.427 790.435 548.762 799.089 566.149 799.089V783.089C554.328 783.089 543.401 777.236 535.619 767.343L523.044 777.236ZM499.969 777.565C507.499 777.565 514.964 777.299 522.357 776.774L521.225 760.814C514.209 761.312 507.121 761.565 499.969 761.565V777.565ZM415.548 765.99C442.338 773.526 470.67 777.565 499.969 777.565V761.565C472.145 761.565 445.271 757.73 419.881 750.588L415.548 765.99ZM381.722 786.924C395.072 786.924 406.731 779.504 412.552 768.537L398.419 761.036C395.324 766.868 389.046 770.924 381.722 770.924V786.924ZM348.098 761.432C352.041 776.198 365.676 786.924 381.722 786.924V770.924C372.897 770.924 365.623 765.043 363.556 757.303L348.098 761.432ZM323.601 734.471C323.601 748.926 334.021 762.592 349.119 762.592V746.592C344.867 746.592 339.601 742.242 339.601 734.471H323.601ZM327.088 720.255C324.85 724.468 323.601 729.34 323.601 734.471H339.601C339.601 731.937 340.217 729.645 341.218 727.76L327.088 720.255ZM312.136 739.196C322.356 739.196 330.757 732.955 335.123 724.607L320.945 717.191C318.862 721.175 315.437 723.196 312.136 723.196V739.196ZM285.645 710.14C285.645 725.179 296.56 739.196 312.136 739.196V723.196C307.286 723.196 301.645 718.358 301.645 710.14H285.645ZM292.166 691.029C288.044 696.211 285.645 702.932 285.645 710.14H301.645C301.645 706.472 302.866 703.28 304.688 700.989L292.166 691.029ZM270.196 724.65C277.822 724.65 284.375 720.978 289.443 715.786C294.48 710.626 298.424 703.634 301.223 695.781L286.151 690.41C283.889 696.758 280.987 701.543 277.994 704.61C275.031 707.645 272.368 708.65 270.196 708.65V724.65ZM233.973 663.777C233.973 679.426 237.341 693.99 243.182 704.931C248.84 715.53 258.013 724.65 270.196 724.65V708.65C266.792 708.65 261.854 705.934 257.297 697.397C252.922 689.201 249.973 677.329 249.973 663.777H233.973ZM239.011 632.222C235.785 641.458 233.973 652.292 233.973 663.777H249.973C249.973 653.916 251.537 644.882 254.116 637.499L239.011 632.222ZM200 489.283C200 541.034 214.196 589.609 239.035 631.587L252.805 623.44C229.371 583.836 216 538.062 216 489.283H200ZM499.969 201C334.612 201 200 329.764 200 489.283H216C216 339.21 342.826 217 499.969 217V201ZM799.939 489.283C799.939 329.764 665.327 201 499.969 201V217C657.112 217 783.939 339.21 783.939 489.283H799.939ZM254.116 637.499C255.677 633.032 255.418 627.856 252.805 623.44L239.035 631.587C239.046 631.606 239.151 631.823 239.011 632.222L254.116 637.499ZM303.651 686.014C297.731 680.581 288.642 683.419 286.151 690.41L301.223 695.781C300.076 699 295.801 700.527 292.832 697.802L303.651 686.014ZM304.688 700.989C307.851 697.012 308.38 690.354 303.651 686.014L292.832 697.802C290.413 695.582 290.954 692.553 292.166 691.029L304.688 700.989ZM341.218 727.76C343.632 723.216 343.124 716.39 337.614 712.702L328.714 725.998C327.513 725.194 326.889 724.019 326.69 723.005C326.499 722.036 326.65 721.078 327.088 720.255L341.218 727.76ZM419.881 750.588C409.957 747.796 401.748 754.763 398.419 761.036L412.552 768.537C413.084 767.534 413.898 766.717 414.65 766.284C415 766.083 415.252 766.013 415.383 765.992C415.495 765.973 415.532 765.985 415.548 765.99L419.881 750.588ZM535.619 767.343C532.355 763.193 527.098 760.398 521.225 760.814L522.357 776.774C522.367 776.773 522.43 776.769 522.558 776.829C522.696 776.895 522.878 777.024 523.044 777.236L535.619 767.343ZM716.334 709.004C712.091 706.78 707.607 707.761 704.795 709.243C702.026 710.704 698.173 714.163 698.283 719.699L714.28 719.382C714.307 720.752 713.806 721.799 713.36 722.407C712.94 722.98 712.513 723.262 712.257 723.397C711.993 723.536 711.647 723.659 711.182 723.692C710.72 723.726 709.875 723.683 708.907 723.176L716.334 709.004ZM363.556 757.303C361.703 750.367 354.946 746.592 349.119 746.592V762.592C348.947 762.592 348.852 762.565 348.823 762.555C348.792 762.545 348.767 762.534 348.733 762.51C348.713 762.496 348.306 762.212 348.098 761.432L363.556 757.303ZM722.219 718.073C721.981 714.116 719.666 710.75 716.334 709.004L708.907 723.176C707.454 722.414 706.359 720.874 706.248 719.034L722.219 718.073ZM741.075 700.114C738.576 703.212 737.091 707.185 737.198 711.41L753.193 711.003C753.188 710.813 753.256 710.497 753.529 710.159L741.075 700.114ZM337.614 712.702C331.142 708.37 323.677 711.969 320.945 717.191L335.123 724.607C334.608 725.592 333.75 726.284 332.741 726.607C331.671 726.948 330.121 726.94 328.714 725.998L337.614 712.702ZM646.01 743.623C642.369 735.615 632.458 730.379 623.184 734.669L629.901 749.191C629.933 749.176 630.081 749.102 630.443 749.256C630.848 749.428 631.237 749.79 631.444 750.244L646.01 743.623ZM615.246 738.196C610.348 740.285 607.04 744.522 605.742 749.209L621.162 753.479C621.219 753.273 621.309 753.122 621.387 753.029C621.461 752.942 621.511 752.919 621.522 752.914L615.246 738.196ZM747.92 622.103C744.584 627.816 745.301 634.393 747.988 639.261L761.995 631.528C761.779 631.136 761.696 630.766 761.688 630.503C761.68 630.261 761.734 630.176 761.737 630.171L747.92 622.103Z" fill="#090909" mask="url(#path-1-outside-1_445_37320)"/>
<g filter="url(#filter0_d_445_37320)">
<path d="M723.723 603.669C706.404 597.018 709.486 599.44 698.808 576.705C688.13 553.987 681.659 546.67 657.646 544.009C633.616 541.366 634.519 543.242 627.843 531.218C621.167 519.176 594.089 534.475 576.752 541.178C559.364 547.864 563.656 562.429 558.308 561.065C552.944 559.734 539.456 556.272 526.07 545.595C512.718 534.884 535.999 526.527 542.691 519.859C549.384 513.156 536.693 507.542 530 503.5C523.307 499.509 504.731 520.797 494.053 510.069C483.358 499.375 490.051 483.326 488.723 469.954C487.377 456.565 496.477 450.178 508.5 447.5C520.506 444.839 535.5 451.468 535.5 467.5C535.5 483.549 554.119 488.681 550.117 469.937C546.115 451.193 554.119 445.872 559.483 436.508C564.814 427.145 574.163 413.756 586.17 393.699C598.193 373.641 606.214 382.988 620.895 384.42C635.592 385.87 639.594 383.005 650.272 384.352C660.916 385.7 650.272 370.981 654.291 356.279C658.276 341.577 672.973 344.238 687.687 348.263C702.367 352.271 672.973 329.519 667.643 317.494C662.278 305.453 647.598 317.494 638.282 297.437C628.865 277.38 615.734 264.4 603.711 262.61C591.688 260.802 607.543 288.091 598.193 302.793C588.809 317.494 574.436 315.192 559.705 315.192C545.042 315.192 531.417 302.793 542.112 284.066C552.773 265.356 573.159 267.283 583.837 251.234C594.532 235.201 545.859 236.668 528.488 231.33C511.117 225.974 490.272 226.025 472.918 239.397C455.548 252.752 418.404 256.93 403.707 262.269C389.027 267.607 386.388 253.4 383.731 242.689C382.539 237.93 373.123 233.929 365.494 234.1C327.686 254.976 290.937 281.735 265 316C269.036 329.764 296.587 317.307 300.419 313.469C304.421 309.461 324.448 314.817 327.105 329.519C329.779 344.22 328.451 360.304 323.12 373.675C317.773 387.03 339.322 408.273 350 427C360.695 445.744 364.152 479.5 369.5 479.5C373.259 479.5 377.487 481.938 379.5 469.954C362.5 412.178 384.548 421.64 403.707 469.954C402.379 484.673 417.477 500.705 429.5 510.069C441.523 519.466 469.598 526.016 485.197 528.71C500.814 531.405 510.079 560.805 518.083 563.5C524.231 565.547 543.628 571.554 549.912 574.607C541.653 585.079 525.661 606.586 525.661 616.495C525.661 629.901 543.117 650.965 549.793 656.303C556.452 661.624 575.628 665.684 579.596 679.038C583.615 692.41 576.803 737.419 564.814 749.443C552.756 761.467 548.38 789.899 548.38 789.899C548.38 789.899 552.62 799.126 566.823 789.899C582.525 779.717 608.82 750.722 619.328 744.412C639.355 732.354 658.821 717.72 677.52 700.357C696.219 682.978 689.441 670.8 698.808 653.455C708.158 636.075 720.249 636.86 736.258 622.192C752.3 607.456 741.094 610.372 723.723 603.669Z" fill="#008026"/>
<path d="M548.38 789.899C548.38 789.899 552.62 799.126 566.823 789.899C575.169 784.487 586.507 773.761 596.877 763.951C606.017 755.304 614.405 747.368 619.328 744.412M548.38 789.899C548.38 789.899 552.756 761.467 564.814 749.443C576.803 737.419 583.615 692.41 579.596 679.038M548.38 789.899C550.651 788.855 550.65 788.853 550.65 788.852L550.648 788.848L550.645 788.842L550.641 788.832M548.38 789.899C550.85 790.279 550.85 790.28 550.85 790.28L550.851 790.278L550.853 790.266L550.861 790.211C550.869 790.162 550.881 790.086 550.898 789.986C550.923 789.836 550.958 789.63 551.002 789.375M619.328 744.412C639.355 732.354 658.821 717.72 677.52 700.357M619.328 744.412L618.038 742.27M619.328 744.412L618.041 742.269C618.04 742.269 618.039 742.27 618.038 742.27M677.52 700.357C689.079 689.614 690.903 680.858 692.823 671.641C694.009 665.948 695.231 660.078 698.808 653.455M677.52 700.357L675.818 698.526C675.819 698.526 675.819 698.526 675.819 698.525M677.52 700.357L675.819 698.525M698.808 653.455C704.424 643.015 711.029 639.13 718.879 634.512C724.097 631.442 729.865 628.049 736.258 622.192M698.808 653.455L696.606 652.27C696.607 652.269 696.608 652.268 696.608 652.267M698.808 653.455L696.608 652.267M736.258 622.192C748.467 610.977 744.893 609.986 734.831 607.198C731.672 606.323 727.874 605.271 723.723 603.669M736.258 622.192L734.566 620.351C734.567 620.35 734.568 620.349 734.569 620.349M736.258 622.192L734.569 620.349M723.723 603.669C716.089 600.737 712.418 599.568 709.786 597.23C706.447 594.265 704.779 589.418 698.808 576.705M723.723 603.669L722.827 606.003C722.826 606.003 722.825 606.002 722.823 606.002M723.723 603.669L722.823 606.002M698.808 576.705C688.13 553.987 681.659 546.67 657.646 544.009M698.808 576.705L696.546 577.768C696.545 577.768 696.545 577.768 696.545 577.767M698.808 576.705L696.545 577.767M657.646 544.009C654.381 543.65 651.576 543.374 649.15 543.136C633.721 541.619 633.612 541.608 627.843 531.218C622.442 521.476 603.689 529.628 587.543 536.646C583.731 538.304 580.064 539.898 576.752 541.178C566.031 545.3 563.552 552.419 561.973 556.951C560.992 559.769 560.358 561.588 558.308 561.065M657.646 544.009L657.372 546.494C657.372 546.494 657.371 546.494 657.371 546.494M657.646 544.009L657.371 546.494M558.308 561.065C552.944 559.734 539.456 556.272 526.07 545.595C516.159 537.645 526.432 530.991 535.122 525.362C538.14 523.408 540.967 521.577 542.691 519.859M558.308 561.065L557.706 563.491C557.705 563.491 557.703 563.491 557.702 563.49M558.308 561.065L557.69 563.487C557.694 563.488 557.698 563.489 557.702 563.49M542.691 519.859C548.503 514.039 539.7 509.04 532.899 505.178C531.867 504.592 530.882 504.032 530 503.5M542.691 519.859L540.922 518.092C540.923 518.091 540.924 518.09 540.925 518.089M542.691 519.859L540.927 518.088C540.926 518.088 540.926 518.089 540.925 518.089M530 503.5C527.293 501.886 522.642 504.407 517.355 507.273C509.572 511.492 500.412 516.457 494.053 510.069M530 503.5L528.72 505.647C528.718 505.646 528.717 505.646 528.716 505.645M530 503.5L528.708 505.64C528.71 505.642 528.713 505.643 528.716 505.645M494.053 510.069C486.729 502.746 487.559 492.911 488.384 483.145C488.763 478.649 489.141 474.169 488.723 469.954M494.053 510.069L492.285 511.837C492.284 511.835 492.283 511.834 492.281 511.832M494.053 510.069L492.281 511.832M488.723 469.954C487.377 456.565 496.477 450.178 508.5 447.5C520.506 444.839 535.5 451.468 535.5 467.5C535.5 483.549 554.119 488.681 550.117 469.937C546.928 455.005 551.36 448.591 556.006 441.866C557.192 440.149 558.392 438.412 559.483 436.508M488.723 469.954L486.235 470.204M488.723 469.954L486.235 470.201C486.235 470.202 486.235 470.203 486.235 470.204M559.483 436.508C561.989 432.107 565.382 426.817 569.521 420.363C574.189 413.086 579.806 404.329 586.17 393.699C595.307 378.456 602.133 380.195 611.326 382.537C614.23 383.277 617.371 384.076 620.895 384.42C628.578 385.178 633.338 384.757 637.657 384.375C641.6 384.026 645.176 383.709 650.272 384.352C656.227 385.106 655.518 380.83 654.442 374.341C653.595 369.233 652.521 362.754 654.291 356.279M559.483 436.508L557.311 435.271C557.312 435.269 557.313 435.267 557.314 435.265M559.483 436.508L557.314 435.265M654.291 356.279C658.276 341.577 672.973 344.238 687.687 348.263M654.291 356.279L651.878 355.625M654.291 356.279L651.879 355.619C651.879 355.621 651.878 355.623 651.878 355.625M687.687 348.263C696.135 350.569 689.988 344.014 682.23 335.742C676.507 329.638 669.906 322.599 667.643 317.494M687.687 348.263L688.229 346.279C688.096 346.098 687.95 345.905 687.791 345.7M687.687 348.263L688.23 346.28C688.735 346.97 689.054 347.489 689.21 347.845C689.245 347.924 689.262 347.974 689.269 347.996M667.643 317.494C665.299 312.233 661.176 311.569 656.499 310.817C650.473 309.848 643.527 308.73 638.282 297.437C628.865 277.38 615.734 264.4 603.711 262.61C597.681 261.703 598.663 268.115 599.961 276.588C601.252 285.009 602.854 295.464 598.193 302.793C589.937 315.728 577.818 315.5 564.991 315.258C563.239 315.225 561.475 315.192 559.705 315.192C545.042 315.192 531.417 302.793 542.112 284.066C547.738 274.193 556.071 270.066 564.257 266.013C571.584 262.384 578.793 258.814 583.837 251.234C591.318 240.019 569.751 237.367 550.169 234.958C541.756 233.924 533.708 232.934 528.488 231.33C511.117 225.974 490.272 226.025 472.918 239.397C461.015 248.549 439.826 253.391 422.938 257.251C415.182 259.023 408.333 260.588 403.707 262.269C389.75 267.344 386.677 254.751 384.124 244.293C383.992 243.752 383.862 243.216 383.731 242.689C382.539 237.93 373.123 233.929 365.494 234.1C327.686 254.976 290.937 281.735 265 316C269.036 329.764 296.587 317.307 300.419 313.469C304.421 309.461 324.448 314.817 327.105 329.519C329.779 344.22 328.451 360.304 323.12 373.675C319.372 383.035 328.836 396.27 338.51 409.797C342.639 415.571 346.806 421.398 350 427M667.643 317.494L665.357 318.508C665.358 318.509 665.358 318.51 665.359 318.511C666.861 321.898 669.931 325.824 673.203 329.58C675.521 332.242 678.077 334.968 680.444 337.492C681.452 338.567 682.426 339.606 683.333 340.587C684.87 342.252 686.216 343.752 687.264 345.039C687.454 345.271 687.629 345.492 687.791 345.7M667.643 317.494L551.002 789.375M350 427C355.435 436.525 359 449.925 361.895 460.804C364.697 471.334 366.87 479.5 369.5 479.5C370.042 479.5 370.594 479.551 371.147 479.601C374.432 479.903 377.777 480.21 379.5 469.954C362.5 412.178 384.548 421.64 403.707 469.954C402.379 484.673 417.477 500.705 429.5 510.069C441.523 519.466 469.598 526.016 485.197 528.71M350 427L352.172 425.762C352.172 425.761 352.171 425.761 352.171 425.761M350 427L352.171 425.761M485.197 528.71C494.533 530.321 501.598 541.475 507.481 550.763C511.44 557.012 514.863 562.416 518.083 563.5C519.3 563.905 521.037 564.466 523.089 565.128C530.32 567.462 541.459 571.057 547.551 573.564C547.686 573.393 547.819 573.224 547.949 573.059L549.912 574.607L548.82 576.856C548.666 576.781 548.503 576.704 548.332 576.625C539.775 587.641 525.661 607.186 525.661 616.495C525.661 629.901 543.117 650.965 549.793 656.303M485.197 528.71L485.623 526.247C485.623 526.247 485.623 526.247 485.622 526.247M485.197 528.71L485.622 526.247M549.793 656.303C551.813 657.917 554.984 659.415 558.534 661.091C566.686 664.942 576.832 669.734 579.596 679.038M549.793 656.303L551.354 654.35L551.354 654.35M549.793 656.303L551.354 654.35M579.596 679.038L581.993 678.326C581.992 678.324 581.992 678.323 581.991 678.321M579.596 679.038L581.99 678.318C581.991 678.319 581.991 678.32 581.991 678.321M581.991 678.321C583.121 682.082 583.429 687.75 583.166 694.093C582.899 700.514 582.034 707.889 580.665 715.206C579.297 722.518 577.415 729.832 575.092 736.117C572.794 742.332 569.97 747.813 566.584 751.208L566.579 751.214C561.022 756.755 557.055 766.34 554.468 774.903C553.194 779.123 552.287 782.98 551.699 785.782C551.405 787.182 551.191 788.315 551.052 789.094C551.034 789.193 551.018 789.287 551.002 789.375M581.991 678.321L551.002 789.375M551.002 789.375C550.875 789.211 550.782 789.071 550.721 788.97C550.679 788.902 550.652 788.854 550.641 788.832M551.002 789.375C551.05 789.436 551.103 789.5 551.16 789.567C551.582 790.058 552.246 790.648 553.217 791.044C555.027 791.78 558.761 792.156 565.461 787.803L565.463 787.802C573.08 782.862 583.395 773.255 593.306 763.887C593.925 763.301 594.543 762.717 595.158 762.136C599.417 758.106 603.542 754.204 607.228 750.89C611.404 747.136 615.18 743.987 618.038 742.27M550.641 788.832C550.635 788.822 550.633 788.818 550.635 788.821L550.64 788.832L550.641 788.832ZM618.038 742.27C637.913 730.304 657.241 715.775 675.819 698.525M675.819 698.525C684.75 690.224 687.517 683.295 689.236 676.297C689.63 674.691 689.974 673.036 690.329 671.328C691.525 665.578 692.841 659.243 696.608 652.267M696.608 652.267C701.562 643.059 707.311 638.623 713.726 634.677C715.031 633.874 716.349 633.098 717.689 632.31C722.884 629.251 728.388 626.012 734.569 620.349M734.569 620.349C738.609 616.637 740.566 614.347 741.265 612.922C741.435 612.577 741.482 612.377 741.495 612.285M741.495 612.285C741.557 612.353 741.529 612.352 741.507 612.27C741.503 612.253 741.5 612.241 741.499 612.233M741.495 612.285C741.499 612.259 741.499 612.242 741.499 612.233M741.495 612.285C741.447 612.232 741.346 612.138 741.147 612.007C740.675 611.697 739.913 611.353 738.749 610.957C737.605 610.569 736.231 610.181 734.598 609.728L734.145 609.603C730.994 608.73 727.091 607.649 722.823 606.002M741.499 612.233C741.499 612.226 741.499 612.223 741.499 612.223C741.499 612.223 741.499 612.226 741.499 612.233ZM722.823 606.002C721.78 605.601 720.8 605.23 719.879 604.88C717.06 603.812 714.797 602.954 712.981 602.119C710.482 600.97 708.579 599.76 706.907 597.88C705.294 596.067 704.013 593.757 702.519 590.66C701.755 589.079 700.886 587.18 699.863 584.944C698.905 582.852 697.812 580.465 696.545 577.767M696.545 577.767C691.201 566.396 687.108 559.36 681.62 554.75C676.22 550.214 669.182 547.803 657.371 546.494M657.371 546.494C654.383 546.165 651.781 545.907 649.495 545.682L648.901 545.623C646.869 545.424 645.08 545.248 643.51 545.07C640.118 544.687 637.484 544.275 635.353 543.47C630.835 541.763 628.964 538.391 625.887 532.845L625.657 532.431L625.656 532.43C624.55 530.433 622.588 529.381 619.379 529.249C616.081 529.114 611.87 529.995 607.064 531.548C602.3 533.087 597.174 535.211 592.099 537.397C590.922 537.904 589.745 538.416 588.576 538.924C584.752 540.586 581.018 542.209 577.654 543.51L577.649 543.511C569.748 546.549 566.904 551.253 565.327 555.09C564.942 556.029 564.632 556.92 564.33 557.786L564.27 557.958C563.965 558.832 563.636 559.771 563.249 560.566C562.874 561.337 562.291 562.313 561.293 562.967C560.164 563.708 558.897 563.792 557.702 563.49M557.702 563.49C552.235 562.134 538.323 558.567 524.511 547.55L524.506 547.545C520.778 544.555 519.008 541.202 519.629 537.572C520.195 534.26 522.667 531.509 525.24 529.31C527.786 527.135 530.915 525.109 533.707 523.301L534.034 523.089C537.028 521.149 539.479 519.53 540.925 518.089M540.925 518.089C542.148 516.863 542.15 516.097 542.037 515.605C541.865 514.858 541.192 513.838 539.729 512.572C538.318 511.35 536.471 510.152 534.474 508.97C533.636 508.474 532.676 507.927 531.728 507.388C530.637 506.767 529.563 506.156 528.716 505.645M528.716 505.645C528.551 505.548 528.18 505.42 527.35 505.548C526.504 505.677 525.423 506.037 524.077 506.636C522.385 507.388 520.626 508.343 518.692 509.393C517.431 510.078 516.097 510.802 514.658 511.537C511.214 513.297 507.354 515.004 503.548 515.487C499.607 515.987 495.611 515.178 492.281 511.832M492.281 511.832C486.211 505.76 485.2 498.215 485.376 490.955C485.441 488.278 485.673 485.527 485.898 482.87C485.975 481.956 486.051 481.052 486.119 480.167C486.391 476.64 486.544 473.315 486.235 470.204M486.235 470.204C485.494 462.828 487.646 457.122 491.831 452.942C495.914 448.863 501.718 446.449 507.957 445.06L507.959 445.059C514.558 443.597 521.992 444.67 527.841 448.379C533.783 452.147 538 458.593 538 467.5C538 474.672 542.128 478.705 544.864 479.328C546.066 479.602 546.862 479.264 547.398 478.402C548.08 477.302 548.617 474.886 547.672 470.459C545.577 460.649 546.586 454.081 549.006 448.682C550.188 446.047 551.672 443.766 553.13 441.634C553.414 441.22 553.694 440.814 553.972 440.412C555.153 438.702 556.281 437.069 557.314 435.265M557.314 435.265C559.853 430.806 563.279 425.464 567.397 419.044C567.668 418.622 567.942 418.196 568.219 417.764C572.721 410.743 578.042 402.408 584.025 392.415L584.026 392.413C587.122 387.248 590.087 383.755 593.144 381.556C596.273 379.305 599.383 378.496 602.54 378.501C605.574 378.506 608.63 379.271 611.583 380.022L611.896 380.102C614.831 380.849 617.807 381.607 621.137 381.932L621.14 381.932C628.269 382.636 632.771 382.295 636.871 381.934C637.07 381.917 637.268 381.899 637.466 381.882C641.413 381.532 645.219 381.195 650.585 381.872L650.586 381.872C651.71 382.014 652.215 381.893 652.385 381.823C652.393 381.82 652.399 381.818 652.405 381.816C652.441 381.803 652.454 381.799 652.5 381.682C652.597 381.438 652.691 380.938 652.662 380.017C652.634 379.122 652.499 378.036 652.295 376.716C652.202 376.113 652.094 375.469 651.98 374.789C651.133 369.721 649.954 362.669 651.878 355.625M651.878 355.625C652.985 351.541 654.898 348.46 657.548 346.315C660.184 344.181 663.348 343.135 666.689 342.763C673.076 342.052 680.642 343.761 687.791 345.7M687.791 345.7C687.976 345.75 688.161 345.8 688.346 345.851C689.186 346.08 689.772 346.186 690.154 346.219C690.377 346.238 690.469 346.227 690.469 346.227C690.469 346.227 690.383 346.238 690.246 346.299C689.758 346.515 689.333 347.041 689.262 347.653C689.241 347.834 689.26 347.956 689.269 347.996M689.269 347.996C689.271 348.006 689.273 348.011 689.273 348.011C689.273 348.012 689.272 348.007 689.269 347.996ZM551.354 654.35C548.275 651.888 542.403 645.502 537.288 638.014C534.746 634.293 532.441 630.373 530.78 626.61C529.105 622.816 528.161 619.352 528.161 616.495C528.161 614.575 528.97 611.777 530.564 608.279C532.126 604.851 534.317 601.013 536.8 597.102C541.763 589.284 547.765 581.366 551.875 576.155L553.799 573.716L551.005 572.358C547.687 570.746 541.097 568.429 534.739 566.305C531.525 565.231 528.318 564.19 525.535 563.291C524.953 563.103 524.391 562.921 523.851 562.747C521.803 562.086 520.082 561.531 518.877 561.129C518.417 560.974 517.727 560.537 516.794 559.589C515.883 558.663 514.894 557.409 513.808 555.867C512.47 553.968 511.114 551.826 509.65 549.514C508.684 547.988 507.671 546.387 506.584 544.733C503.928 540.688 500.942 536.499 497.563 533.133C494.192 529.775 490.24 527.044 485.622 526.247M551.354 654.35L636.017 298.495C631.404 288.672 625.921 280.669 620.204 274.939C614.461 269.184 608.637 265.871 603.343 265.082L603.339 265.082C602.787 264.999 602.438 265.019 602.238 265.057C602.059 265.091 602.002 265.138 601.989 265.149L601.989 265.149C601.958 265.174 601.705 265.409 601.568 266.401C601.434 267.369 601.462 268.691 601.634 270.403C601.804 272.095 602.095 274.007 602.421 276.131L602.445 276.289C603.08 280.436 603.826 285.301 603.809 290.066C603.792 294.893 602.998 299.895 600.303 304.134L600.301 304.138C595.187 312.149 588.607 315.589 581.423 316.961C576.122 317.974 570.346 317.863 564.751 317.757C563.046 317.724 561.358 317.692 559.705 317.692C551.74 317.692 543.832 314.333 539.368 308.108C534.783 301.716 534.213 292.856 539.941 282.826C545.673 272.768 554.054 268.295 561.854 264.414C562.242 264.221 562.627 264.03 563.01 263.84C570.451 260.15 577.094 256.855 581.755 249.849L581.757 249.846C582.87 248.177 582.94 247.15 582.803 246.547C582.66 245.914 582.145 245.108 580.765 244.197C577.916 242.314 572.774 240.889 566.251 239.733C561.135 238.826 555.476 238.13 549.898 237.444C548.475 237.269 547.058 237.095 545.656 236.918C538.86 236.059 532.34 235.129 527.754 233.719L527.752 233.719C510.877 228.516 490.954 228.656 474.444 241.377L474.442 241.379C465.302 248.406 451.203 252.885 437.926 256.262C432.968 257.523 428.043 258.648 423.47 259.693C421.881 260.057 420.335 260.41 418.844 260.756C413.005 262.112 408.072 263.343 404.562 264.618C400.543 266.08 397.038 266.313 394.009 265.35C390.968 264.383 388.763 262.323 387.133 259.888C385.522 257.481 384.398 254.601 383.52 251.755C382.812 249.463 382.228 247.066 381.688 244.853C381.558 244.322 381.431 243.801 381.305 243.295C381.172 242.764 380.742 242.031 379.789 241.182C378.853 240.349 377.556 239.534 375.99 238.821C373.027 237.472 369.404 236.626 366.147 236.596C329.106 257.111 293.301 283.221 267.831 316.41C268.671 318.092 270.144 319.048 272.236 319.509C274.909 320.099 278.42 319.804 282.207 318.903C285.945 318.013 289.712 316.591 292.775 315.155C294.303 314.439 295.63 313.732 296.67 313.104C297.754 312.45 298.391 311.962 298.65 311.703C299.603 310.748 300.856 310.233 302.062 309.965C303.291 309.691 304.663 309.629 306.072 309.724C308.893 309.915 312.149 310.758 315.308 312.205C321.575 315.077 328.039 320.629 329.565 329.074C332.315 344.196 330.961 360.758 325.442 374.601L325.441 374.605C324.418 377.16 324.589 380.316 325.926 384.193C327.261 388.064 329.654 392.353 332.647 396.961C335.045 400.654 337.759 404.449 340.528 408.322C341.21 409.275 341.896 410.234 342.58 411.196C346.02 416.032 349.434 420.96 352.171 425.761M485.622 526.247C477.894 524.912 467.078 522.622 456.727 519.509C446.288 516.37 436.656 512.489 431.04 508.099L431.036 508.096C425.146 503.509 418.551 497.323 413.618 490.548C408.641 483.715 405.614 476.643 406.197 470.179L406.251 469.586L406.031 469.032C401.197 456.842 396.152 447.027 391.535 440.065C389.229 436.589 386.992 433.766 384.899 431.707C382.874 429.713 380.716 428.165 378.545 427.721C377.391 427.485 376.168 427.55 375.018 428.1C373.88 428.645 373.047 429.554 372.459 430.598C371.335 432.592 370.904 435.428 370.916 438.795C370.942 445.549 372.784 455.879 376.937 470.098C375.95 475.54 374.615 476.696 374.038 476.985C373.705 477.151 373.261 477.23 372.473 477.196C372.134 477.181 371.795 477.15 371.388 477.113C371.312 477.106 371.233 477.099 371.151 477.091C370.783 477.058 370.362 477.023 369.921 477.008C369.856 476.929 369.768 476.813 369.658 476.645C369.194 475.935 368.657 474.765 368.054 473.087C366.888 469.845 365.686 465.328 364.288 460.076L364.171 459.636C361.324 448.939 357.712 435.471 352.171 425.761M370.06 477.15C370.06 477.151 370.053 477.146 370.037 477.132C370.053 477.142 370.06 477.149 370.06 477.15Z" stroke="black" stroke-width="5"/>
</g>
<path d="M218 499C218 343.256 346.942 217 506 217" stroke="white" stroke-opacity="0.25" stroke-width="15" stroke-linecap="round"/>
<path fill-rule="evenodd" clip-rule="evenodd" d="M620.982 744.707C620.895 744.601 620.748 744.566 620.623 744.622C620.581 744.641 620.54 744.66 620.498 744.679C620.381 744.731 620.29 744.829 620.244 744.949C619.362 747.221 617.697 749.656 615.191 752.762C614.221 753.965 613.606 755.41 613.336 756.932C612.374 762.344 610.389 767.544 607.474 772.269C604.14 777.672 599.665 782.33 594.343 785.938C589.021 789.546 582.971 792.023 576.592 793.205C570.212 794.388 563.647 794.249 557.326 792.799C551.006 791.349 545.073 788.619 539.918 784.79C534.763 780.961 530.501 776.118 527.413 770.58C527.117 770.049 526.539 769.735 525.933 769.791C517.291 770.591 508.583 771 499.835 771C471.281 771 443.655 766.685 417.524 758.86C412.675 757.407 407.624 760.726 405.178 765.158C400.655 773.355 391.799 778.924 381.615 778.924C369.267 778.924 358.871 770.735 355.784 759.602C354.955 756.611 351.646 754.486 348.542 754.486C338.598 754.486 330.537 745.364 330.537 734.113C330.537 732.358 327.63 730.621 326.084 731.449C322.907 733.15 319.29 734.113 315.452 734.113C302.82 734.113 292.581 723.688 292.581 710.829C292.581 710.52 292.216 710.341 291.973 710.533C286.484 714.853 279.889 717.197 276.022 717.549C275.385 717.607 274.742 717.683 274.114 717.802C254.605 721.498 239.053 691.454 239.053 665.588C239.053 654.196 239.743 646.781 241.969 642.035C244.283 637.101 247.077 630.565 244.222 625.924C224.487 593.858 211.805 558.993 208.118 524.085C207.407 517.356 215.602 514.473 219.682 519.87C220.301 520.688 220.739 521.664 220.961 522.665C280.878 793.604 639.247 801.378 778.69 499.785C782.221 492.147 793.144 493.969 792.862 502.379C791.357 547.236 777.679 589.537 755.176 626.723C753.477 629.53 753.648 633.058 755.19 635.954C760.507 645.943 762.656 659.698 760.298 674.31C758.323 686.545 753.527 697.287 747.195 705.137C745.809 706.856 745.033 709 745.089 711.207C745.108 711.938 745.117 712.674 745.117 713.415C745.117 733.572 738.145 749.913 729.545 749.913C721.687 749.913 715.188 736.269 714.126 718.536C714.063 717.488 713.459 716.584 712.529 716.098C710.127 714.841 706.129 716.857 706.188 719.567C706.199 720.048 706.204 720.531 706.204 721.016C706.204 748.609 688.993 770.978 667.761 770.978C656.837 770.978 651.358 765.585 645.232 759.556C639.467 753.882 633.13 747.645 621.145 744.808C621.082 744.793 621.023 744.757 620.982 744.707Z" fill="black" fill-opacity="0.25"/>
<defs>
<filter id="filter0_d_445_37320" x="260" y="228" width="487" height="577" filterUnits="userSpaceOnUse" color-interpolation-filters="sRGB">
<feFlood flood-opacity="0" result="BackgroundImageFix"/>
<feColorMatrix in="SourceAlpha" type="matrix" values="0 0 0 0 0 0 0 0 0 0 0 0 0 0 0 0 0 0 127 0" result="hardAlpha"/>
<feOffset dx="-1" dy="7"/>
<feGaussianBlur stdDeviation="2"/>
<feComposite in2="hardAlpha" operator="out"/>
<feColorMatrix type="matrix" values="0 0 0 0 0 0 0 0 0 0 0 0 0 0 0 0 0 0 0.25 0"/>
<feBlend mode="normal" in2="BackgroundImageFix" result="effect1_dropShadow_445_37320"/>
<feBlend mode="normal" in="SourceGraphic" in2="effect1_dropShadow_445_37320" result="shape"/>
</filter>
</defs>
</svg>
